<?xml version="1.0" encoding="UTF-8"?>
<!DOCTYPE svg  PUBLIC '-//W3C//DTD SVG 1.1//EN'  'http://www.w3.org/Graphics/SVG/1.1/DTD/svg11.dtd'>
<svg width="76.276mm" height="38.837mm" version="1.1" viewBox="0 0 76.276 38.837" xmlns="http://www.w3.org/2000/svg">
 <title>SVG Image created as h08-render.svg date 2026/07/14 10:53:00</title>
 <desc>Image generated by PCBNEW</desc>
 <rect width="76.276mm" height="38.837mm" fill="#282A36"/>
 <g fill="#f55">
  <circle cx="43.865" cy="7.035" r="1.25"/>
  <circle cx="50.215" cy="4.495" r="1.25"/>
  <circle cx="62.915" cy="26.085" r="1.25"/>
  <circle cx="69.265" cy="23.545" r="1.25"/>
  <circle cx="53.39" cy="26.085" r="1.25"/>
  <circle cx="59.74" cy="23.545" r="1.25"/>
  <circle cx="62.915" cy="7.035" r="1.25"/>
  <circle cx="69.265" cy="4.495" r="1.25"/>
  <circle cx="5.765" cy="7.035" r="1.25"/>
  <circle cx="12.115" cy="4.495" r="1.25"/>
  <circle cx="24.815" cy="26.085" r="1.25"/>
  <circle cx="31.165" cy="23.545" r="1.25"/>
  <circle cx="43.865" cy="26.085" r="1.25"/>
  <circle cx="50.215" cy="23.545" r="1.25"/>
  <circle cx="5.765" cy="26.085" r="1.25"/>
  <circle cx="12.115" cy="23.545" r="1.25"/>
  <circle cx="24.815" cy="7.035" r="1.25"/>
  <circle cx="31.165" cy="4.495" r="1.25"/>
  <circle cx="15.29" cy="26.085" r="1.25"/>
  <circle cx="21.64" cy="23.545" r="1.25"/>
 </g>
 <g fill="none" stroke="#f55" stroke-linecap="round" stroke-linejoin="round" stroke-width=".2">
  <path d="m5.765 26.085h9.525"/>
  <path d="m24.815 7.035v19.05"/>
  <path d="m43.865 26.085h9.525"/>
  <path d="m62.915 7.035v19.05"/>
 </g>
 <g fill="#50FA7B">
  <circle cx="43.865" cy="7.035" r="1.25"/>
  <circle cx="50.215" cy="4.495" r="1.25"/>
  <circle cx="62.915" cy="26.085" r="1.25"/>
  <circle cx="69.265" cy="23.545" r="1.25"/>
  <circle cx="53.39" cy="26.085" r="1.25"/>
  <circle cx="59.74" cy="23.545" r="1.25"/>
  <circle cx="62.915" cy="7.035" r="1.25"/>
  <circle cx="69.265" cy="4.495" r="1.25"/>
  <circle cx="5.765" cy="7.035" r="1.25"/>
  <circle cx="12.115" cy="4.495" r="1.25"/>
  <circle cx="24.815" cy="26.085" r="1.25"/>
  <circle cx="31.165" cy="23.545" r="1.25"/>
  <circle cx="43.865" cy="26.085" r="1.25"/>
  <circle cx="50.215" cy="23.545" r="1.25"/>
  <circle cx="5.765" cy="26.085" r="1.25"/>
  <circle cx="12.115" cy="23.545" r="1.25"/>
  <circle cx="24.815" cy="7.035" r="1.25"/>
  <circle cx="31.165" cy="4.495" r="1.25"/>
  <circle cx="15.29" cy="26.085" r="1.25"/>
  <circle cx="21.64" cy="23.545" r="1.25"/>
  <g fill="#50FA7B" fill-rule="evenodd">
   <path d="m71.505 15.525-0.0957-0.019-0.0811-0.0542-0.0542-0.0811-0.019-0.0957v-0.6l0.019-0.0957 0.0542-0.0811 0.0811-0.0542 0.0957-0.019h0.6l0.0957 0.019 0.0811 0.0542 0.0542 0.0811 0.019 0.0957v0.6l-0.019 0.0957-0.0542 0.0811-0.0811 0.0542-0.0957 0.019z"/>
   <path d="m71.505 12.725-0.0957-0.019-0.0811-0.0542-0.0542-0.0811-0.019-0.0957v-0.6l0.019-0.0957 0.0542-0.0811 0.0811-0.0542 0.0957-0.019h0.6l0.0957 0.019 0.0811 0.0542 0.0542 0.0811 0.019 0.0957v0.6l-0.019 0.0957-0.0542 0.0811-0.0811 0.0542-0.0957 0.019z"/>
   <path d="m14.355 15.525-0.0957-0.019-0.0811-0.0542-0.0542-0.0811-0.019-0.0957v-0.6l0.019-0.0957 0.0542-0.0811 0.0811-0.0542 0.0957-0.019h0.6l0.0957 0.019 0.0811 0.0542 0.0542 0.0811 0.019 0.0957v0.6l-0.019 0.0957-0.0542 0.0811-0.0811 0.0542-0.0957 0.019z"/>
   <path d="m14.355 12.725-0.0957-0.019-0.0811-0.0542-0.0542-0.0811-0.019-0.0957v-0.6l0.019-0.0957 0.0542-0.0811 0.0811-0.0542 0.0957-0.019h0.6l0.0957 0.019 0.0811 0.0542 0.0542 0.0811 0.019 0.0957v0.6l-0.019 0.0957-0.0542 0.0811-0.0811 0.0542-0.0957 0.019z"/>
   <path d="m52.455 15.525-0.0957-0.019-0.0811-0.0542-0.0542-0.0811-0.019-0.0957v-0.6l0.019-0.0957 0.0542-0.0811 0.0811-0.0542 0.0957-0.019h0.6l0.0957 0.019 0.0811 0.0542 0.0542 0.0811 0.019 0.0957v0.6l-0.019 0.0957-0.0542 0.0811-0.0811 0.0542-0.0957 0.019z"/>
   <path d="m52.455 12.725-0.0957-0.019-0.0811-0.0542-0.0542-0.0811-0.019-0.0957v-0.6l0.019-0.0957 0.0542-0.0811 0.0811-0.0542 0.0957-0.019h0.6l0.0957 0.019 0.0811 0.0542 0.0542 0.0811 0.019 0.0957v0.6l-0.019 0.0957-0.0542 0.0811-0.0811 0.0542-0.0957 0.019z"/>
   <path d="m71.505 34.575-0.0957-0.019-0.0811-0.0542-0.0542-0.0811-0.019-0.0957v-0.6l0.019-0.0957 0.0542-0.0811 0.0811-0.0542 0.0957-0.019h0.6l0.0957 0.019 0.0811 0.0542 0.0542 0.0811 0.019 0.0957v0.6l-0.019 0.0957-0.0542 0.0811-0.0811 0.0542-0.0957 0.019z"/>
   <path d="m71.505 31.775-0.0957-0.019-0.0811-0.0542-0.0542-0.0811-0.019-0.0957v-0.6l0.019-0.0957 0.0542-0.0811 0.0811-0.0542 0.0957-0.019h0.6l0.0957 0.019 0.0811 0.0542 0.0542 0.0811 0.019 0.0957v0.6l-0.019 0.0957-0.0542 0.0811-0.0811 0.0542-0.0957 0.019z"/>
   <path d="m14.355 34.575-0.0957-0.019-0.0811-0.0542-0.0542-0.0811-0.019-0.0957v-0.6l0.019-0.0957 0.0542-0.0811 0.0811-0.0542 0.0957-0.019h0.6l0.0957 0.019 0.0811 0.0542 0.0542 0.0811 0.019 0.0957v0.6l-0.019 0.0957-0.0542 0.0811-0.0811 0.0542-0.0957 0.019z"/>
   <path d="m14.355 31.775-0.0957-0.019-0.0811-0.0542-0.0542-0.0811-0.019-0.0957v-0.6l0.019-0.0957 0.0542-0.0811 0.0811-0.0542 0.0957-0.019h0.6l0.0957 0.019 0.0811 0.0542 0.0542 0.0811 0.019 0.0957v0.6l-0.019 0.0957-0.0542 0.0811-0.0811 0.0542-0.0957 0.019z"/>
   <path d="m52.455 34.575-0.0957-0.019-0.0811-0.0542-0.0542-0.0811-0.019-0.0957v-0.6l0.019-0.0957 0.0542-0.0811 0.0811-0.0542 0.0957-0.019h0.6l0.0957 0.019 0.0811 0.0542 0.0542 0.0811 0.019 0.0957v0.6l-0.019 0.0957-0.0542 0.0811-0.0811 0.0542-0.0957 0.019z"/>
   <path d="m52.455 31.775-0.0957-0.019-0.0811-0.0542-0.0542-0.0811-0.019-0.0957v-0.6l0.019-0.0957 0.0542-0.0811 0.0811-0.0542 0.0957-0.019h0.6l0.0957 0.019 0.0811 0.0542 0.0542 0.0811 0.019 0.0957v0.6l-0.019 0.0957-0.0542 0.0811-0.0811 0.0542-0.0957 0.019z"/>
   <path d="m33.405 34.575-0.0957-0.019-0.0811-0.0542-0.0542-0.0811-0.019-0.0957v-0.6l0.019-0.0957 0.0542-0.0811 0.0811-0.0542 0.0957-0.019h0.6l0.0957 0.019 0.0811 0.0542 0.0542 0.0811 0.019 0.0957v0.6l-0.019 0.0957-0.0542 0.0811-0.0811 0.0542-0.0957 0.019z"/>
   <path d="m33.405 31.775-0.0957-0.019-0.0811-0.0542-0.0542-0.0811-0.019-0.0957v-0.6l0.019-0.0957 0.0542-0.0811 0.0811-0.0542 0.0957-0.019h0.6l0.0957 0.019 0.0811 0.0542 0.0542 0.0811 0.019 0.0957v0.6l-0.019 0.0957-0.0542 0.0811-0.0811 0.0542-0.0957 0.019z"/>
   <path d="m33.405 15.525-0.0957-0.019-0.0811-0.0542-0.0542-0.0811-0.019-0.0957v-0.6l0.019-0.0957 0.0542-0.0811 0.0811-0.0542 0.0957-0.019h0.6l0.0957 0.019 0.0811 0.0542 0.0542 0.0811 0.019 0.0957v0.6l-0.019 0.0957-0.0542 0.0811-0.0811 0.0542-0.0957 0.019z"/>
   <path d="m33.405 12.725-0.0957-0.019-0.0811-0.0542-0.0542-0.0811-0.019-0.0957v-0.6l0.019-0.0957 0.0542-0.0811 0.0811-0.0542 0.0957-0.019h0.6l0.0957 0.019 0.0811 0.0542 0.0542 0.0811 0.019 0.0957v0.6l-0.019 0.0957-0.0542 0.0811-0.0811 0.0542-0.0957 0.019z"/>
  </g>
 </g>
 <g fill="none" stroke-linecap="round" stroke-linejoin="round">
  <g stroke="#50FA7B" stroke-width=".2">
   <path d="m12.115 4.495v5.14"/>
   <path d="m12.115 9.635 2.54 2.54"/>
   <path d="m31.165 4.495v5.14"/>
   <path d="m31.165 9.635 2.54 2.54"/>
   <path d="m50.215 4.495v5.14"/>
   <path d="m50.215 9.635 2.54 2.54"/>
   <path d="m69.265 9.635 2.54 2.54"/>
   <path d="m69.265 4.495v5.14"/>
   <path d="m12.115 28.685 2.54 2.54"/>
   <path d="m12.115 23.545v5.14"/>
   <path d="m31.165 28.685 2.54 2.54"/>
   <path d="m31.165 23.545v5.14"/>
   <path d="m50.215 28.685 2.54 2.54"/>
   <path d="m50.215 23.545v5.14"/>
   <path d="m69.265 28.685 2.54 2.54"/>
   <path d="m69.265 23.545v5.14"/>
   <path d="m52.755 14.975h19.05"/>
   <path d="m33.705 14.975h19.05"/>
   <path d="m14.655 14.975h19.05"/>
   <path d="m14.655 34.025h19.05"/>
   <path d="m52.755 34.025h19.05"/>
   <path d="m33.705 34.025h19.05"/>
  </g>
  <g stroke="#8BE9FD" stroke-width=".15">
   <text x="57.2000" y="27.1250" font-size="1.3333" opacity="0" stroke-opacity="0" text-anchor="middle" lengthAdjust="spacingAndGlyphs" textLength="3.8214">ST7a</text>
   <g class="stroked-text">
    <desc>ST7a</desc>
    <path d="m55.605 27.032 0.1428 0.0476"/>
    <path d="m55.748 27.08h0.2381"/>
    <path d="m55.986 27.08 0.0953-0.0476"/>
    <path d="m56.081 27.032 0.0476-0.0476"/>
    <path d="m56.129 26.985 0.0476-0.0953"/>
    <path d="m56.176 26.889v-0.0952"/>
    <path d="m56.176 26.794-0.0476-0.0952"/>
    <path d="m56.129 26.699-0.0476-0.0477"/>
    <path d="m56.081 26.651-0.0953-0.0476"/>
    <path d="m55.986 26.604-0.1905-0.0476"/>
    <path d="m55.795 26.556-0.0952-0.0476"/>
    <path d="m55.7 26.508-0.0476-0.0476"/>
    <path d="m55.652 26.461-0.0476-0.0953"/>
    <path d="m55.605 26.366v-0.0952"/>
    <path d="m55.605 26.27 0.0476-0.0952"/>
    <path d="m55.652 26.175 0.0476-0.0477"/>
    <path d="m55.7 26.127 0.0952-0.0476"/>
    <path d="m55.795 26.08h0.2381"/>
    <path d="m56.033 26.08 0.1429 0.0476"/>
    <path d="m56.462 26.08h0.5714"/>
    <path d="m56.748 27.08v-1"/>
    <path d="m57.271 26.08h0.6667"/>
    <path d="m57.938 26.08-0.4286 1"/>
    <path d="m58.748 27.08v-0.5238"/>
    <path d="m58.748 26.556-0.0476-0.0952"/>
    <path d="m58.7 26.461-0.0952-0.0476"/>
    <path d="m58.605 26.413h-0.1905"/>
    <path d="m58.414 26.413-0.0953 0.0476"/>
    <path d="m58.748 27.032-0.0952 0.0476"/>
    <path d="m58.652 27.08h-0.2381"/>
    <path d="m58.414 27.08-0.0953-0.0476"/>
    <path d="m58.319 27.032-0.0476-0.0952"/>
    <path d="m58.271 26.937v-0.0953"/>
    <path d="m58.271 26.842 0.0476-0.0952"/>
    <path d="m58.319 26.746 0.0953-0.0476"/>
    <path d="m58.414 26.699h0.2381"/>
    <path d="m58.652 26.699 0.0952-0.0477"/>
   </g>
   <text x="47.6750" y="2.0750" font-size="1.3333" opacity="0" stroke-opacity="0" text-anchor="middle" lengthAdjust="spacingAndGlyphs" textLength="3.2976">SW3</text>
   <g class="stroked-text">
    <desc>SW3</desc>
    <path d="m46.342 1.9822 0.1428 0.0476"/>
    <path d="m46.484 2.0298h0.2381"/>
    <path d="m46.723 2.0298 0.0953-0.0476"/>
    <path d="m46.818 1.9822 0.0476-0.0476"/>
    <path d="m46.866 1.9346 0.0476-0.0953"/>
    <path d="m46.913 1.8393v-0.0952"/>
    <path d="m46.913 1.7441-0.0476-0.0952"/>
    <path d="m46.866 1.6489-0.0476-0.0477"/>
    <path d="m46.818 1.6012-0.0953-0.0476"/>
    <path d="m46.723 1.5536-0.1905-0.0476"/>
    <path d="m46.532 1.506-0.0952-0.0476"/>
    <path d="m46.437 1.4584-0.0476-0.0476"/>
    <path d="m46.389 1.4108-0.0476-0.0953"/>
    <path d="m46.342 1.3155v-0.0952"/>
    <path d="m46.342 1.2203 0.0476-0.0952"/>
    <path d="m46.389 1.1251 0.0476-0.0477"/>
    <path d="m46.437 1.0774 0.0952-0.0476"/>
    <path d="m46.532 1.0298h0.2381"/>
    <path d="m46.77 1.0298 0.1429 0.0476"/>
    <path d="m47.246 1.0298 0.2381 1"/>
    <path d="m47.484 2.0298 0.1905-0.7143"/>
    <path d="m47.675 1.3155 0.1905 0.7143"/>
    <path d="m47.866 2.0298 0.2381-1"/>
    <path d="m48.389 1.0298h0.619"/>
    <path d="m49.008 1.0298-0.3333 0.381"/>
    <path d="m48.675 1.4108h0.1429"/>
    <path d="m48.818 1.4108 0.0952 0.0476"/>
    <path d="m48.913 1.4584 0.0476 0.0476"/>
    <path d="m48.961 1.506 0.0476 0.0952"/>
    <path d="m49.008 1.6012v0.2381"/>
    <path d="m49.008 1.8393-0.0476 0.0953"/>
    <path d="m48.961 1.9346-0.0476 0.0476"/>
    <path d="m48.913 1.9822-0.0952 0.0476"/>
    <path d="m48.818 2.0298h-0.2858"/>
    <path d="m48.532 2.0298-0.0952-0.0476"/>
    <path d="m48.437 1.9822-0.0476-0.0476"/>
   </g>
   <text x="66.7250" y="21.1250" font-size="1.3333" opacity="0" stroke-opacity="0" text-anchor="middle" lengthAdjust="spacingAndGlyphs" textLength="3.2976">SW8</text>
   <g class="stroked-text">
    <desc>SW8</desc>
    <path d="m65.392 21.032 0.1428 0.0476"/>
    <path d="m65.534 21.08h0.2381"/>
    <path d="m65.773 21.08 0.0953-0.0476"/>
    <path d="m65.868 21.032 0.0476-0.0476"/>
    <path d="m65.916 20.985 0.0476-0.0953"/>
    <path d="m65.963 20.889v-0.0952"/>
    <path d="m65.963 20.794-0.0476-0.0952"/>
    <path d="m65.916 20.699-0.0476-0.0477"/>
    <path d="m65.868 20.651-0.0953-0.0476"/>
    <path d="m65.773 20.604-0.1905-0.0476"/>
    <path d="m65.582 20.556-0.0952-0.0476"/>
    <path d="m65.487 20.508-0.0476-0.0476"/>
    <path d="m65.439 20.461-0.0476-0.0953"/>
    <path d="m65.392 20.366v-0.0952"/>
    <path d="m65.392 20.27 0.0476-0.0952"/>
    <path d="m65.439 20.175 0.0476-0.0477"/>
    <path d="m65.487 20.127 0.0952-0.0476"/>
    <path d="m65.582 20.08h0.2381"/>
    <path d="m65.82 20.08 0.1429 0.0476"/>
    <path d="m66.296 20.08 0.2381 1"/>
    <path d="m66.534 21.08 0.1905-0.7143"/>
    <path d="m66.725 20.366 0.1905 0.7143"/>
    <path d="m66.916 21.08 0.2381-1"/>
    <path d="m67.677 20.508-0.0953-0.0476"/>
    <path d="m67.582 20.461-0.0476-0.0476"/>
    <path d="m67.534 20.413-0.0476-0.0953"/>
    <path d="m67.487 20.318v-0.0476"/>
    <path d="m67.487 20.27 0.0476-0.0952"/>
    <path d="m67.534 20.175 0.0476-0.0477"/>
    <path d="m67.582 20.127 0.0953-0.0476"/>
    <path d="m67.677 20.08h0.1905"/>
    <path d="m67.868 20.08 0.0952 0.0476"/>
    <path d="m67.963 20.127 0.0476 0.0477"/>
    <path d="m68.011 20.175 0.0476 0.0952"/>
    <path d="m68.058 20.27v0.0476"/>
    <path d="m68.058 20.318-0.0476 0.0953"/>
    <path d="m68.011 20.413-0.0476 0.0476"/>
    <path d="m67.963 20.461-0.0952 0.0476"/>
    <path d="m67.868 20.508h-0.1905"/>
    <path d="m67.677 20.508-0.0953 0.0476"/>
    <path d="m67.582 20.556-0.0476 0.0476"/>
    <path d="m67.534 20.604-0.0476 0.0953"/>
    <path d="m67.487 20.699v0.1904"/>
    <path d="m67.487 20.889 0.0476 0.0953"/>
    <path d="m67.534 20.985 0.0476 0.0476"/>
    <path d="m67.582 21.032 0.0953 0.0476"/>
    <path d="m67.677 21.08h0.1905"/>
    <path d="m67.868 21.08 0.0952-0.0476"/>
    <path d="m67.963 21.032 0.0476-0.0476"/>
    <path d="m68.011 20.985 0.0476-0.0953"/>
    <path d="m68.058 20.889v-0.1904"/>
    <path d="m68.058 20.699-0.0476-0.0953"/>
    <path d="m68.011 20.604-0.0476-0.0476"/>
    <path d="m67.963 20.556-0.0952-0.0476"/>
   </g>
   <text x="57.2000" y="21.1250" font-size="1.3333" opacity="0" stroke-opacity="0" text-anchor="middle" lengthAdjust="spacingAndGlyphs" textLength="4.2024">SW7a</text>
   <g class="stroked-text">
    <desc>SW7a</desc>
    <path d="m55.414 21.032 0.1428 0.0476"/>
    <path d="m55.557 21.08h0.2381"/>
    <path d="m55.795 21.08 0.0953-0.0476"/>
    <path d="m55.89 21.032 0.0476-0.0476"/>
    <path d="m55.938 20.985 0.0476-0.0953"/>
    <path d="m55.986 20.889v-0.0952"/>
    <path d="m55.986 20.794-0.0476-0.0952"/>
    <path d="m55.938 20.699-0.0476-0.0477"/>
    <path d="m55.89 20.651-0.0953-0.0476"/>
    <path d="m55.795 20.604-0.1904-0.0476"/>
    <path d="m55.605 20.556-0.0953-0.0476"/>
    <path d="m55.51 20.508-0.0476-0.0476"/>
    <path d="m55.462 20.461-0.0476-0.0953"/>
    <path d="m55.414 20.366v-0.0952"/>
    <path d="m55.414 20.27 0.0476-0.0952"/>
    <path d="m55.462 20.175 0.0476-0.0477"/>
    <path d="m55.51 20.127 0.0953-0.0476"/>
    <path d="m55.605 20.08h0.2381"/>
    <path d="m55.843 20.08 0.1428 0.0476"/>
    <path d="m56.319 20.08 0.2381 1"/>
    <path d="m56.557 21.08 0.1905-0.7143"/>
    <path d="m56.748 20.366 0.1905 0.7143"/>
    <path d="m56.938 21.08 0.2381-1"/>
    <path d="m57.462 20.08h0.6667"/>
    <path d="m58.129 20.08-0.4286 1"/>
    <path d="m58.938 21.08v-0.5238"/>
    <path d="m58.938 20.556-0.0476-0.0952"/>
    <path d="m58.89 20.461-0.0953-0.0476"/>
    <path d="m58.795 20.413h-0.1904"/>
    <path d="m58.605 20.413-0.0953 0.0476"/>
    <path d="m58.938 21.032-0.0952 0.0476"/>
    <path d="m58.843 21.08h-0.2381"/>
    <path d="m58.605 21.08-0.0953-0.0476"/>
    <path d="m58.51 21.032-0.0476-0.0952"/>
    <path d="m58.462 20.937v-0.0953"/>
    <path d="m58.462 20.842 0.0476-0.0952"/>
    <path d="m58.51 20.746 0.0953-0.0476"/>
    <path d="m58.605 20.699h0.2381"/>
    <path d="m58.843 20.699 0.0952-0.0477"/>
   </g>
   <text x="66.7250" y="2.0750" font-size="1.3333" opacity="0" stroke-opacity="0" text-anchor="middle" lengthAdjust="spacingAndGlyphs" textLength="3.2976">SW4</text>
   <g class="stroked-text">
    <desc>SW4</desc>
    <path d="m65.392 1.9822 0.1428 0.0476"/>
    <path d="m65.534 2.0298h0.2381"/>
    <path d="m65.773 2.0298 0.0953-0.0476"/>
    <path d="m65.868 1.9822 0.0476-0.0476"/>
    <path d="m65.916 1.9346 0.0476-0.0953"/>
    <path d="m65.963 1.8393v-0.0952"/>
    <path d="m65.963 1.7441-0.0476-0.0952"/>
    <path d="m65.916 1.6489-0.0476-0.0477"/>
    <path d="m65.868 1.6012-0.0953-0.0476"/>
    <path d="m65.773 1.5536-0.1905-0.0476"/>
    <path d="m65.582 1.506-0.0952-0.0476"/>
    <path d="m65.487 1.4584-0.0476-0.0476"/>
    <path d="m65.439 1.4108-0.0476-0.0953"/>
    <path d="m65.392 1.3155v-0.0952"/>
    <path d="m65.392 1.2203 0.0476-0.0952"/>
    <path d="m65.439 1.1251 0.0476-0.0477"/>
    <path d="m65.487 1.0774 0.0952-0.0476"/>
    <path d="m65.582 1.0298h0.2381"/>
    <path d="m65.82 1.0298 0.1429 0.0476"/>
    <path d="m66.296 1.0298 0.2381 1"/>
    <path d="m66.534 2.0298 0.1905-0.7143"/>
    <path d="m66.725 1.3155 0.1905 0.7143"/>
    <path d="m66.916 2.0298 0.2381-1"/>
    <path d="m67.963 1.3632v0.6666"/>
    <path d="m67.725 0.9822-0.2381 0.7143"/>
    <path d="m67.487 1.6965h0.6191"/>
   </g>
   <text x="9.5750" y="2.0750" font-size="1.3333" opacity="0" stroke-opacity="0" text-anchor="middle" lengthAdjust="spacingAndGlyphs" textLength="3.2976">SW1</text>
   <g class="stroked-text">
    <desc>SW1</desc>
    <path d="m8.2417 1.9822 0.1428 0.0476"/>
    <path d="m8.3845 2.0298h0.2381"/>
    <path d="m8.6226 2.0298 0.0953-0.0476"/>
    <path d="m8.7179 1.9822 0.0476-0.0476"/>
    <path d="m8.7655 1.9346 0.0476-0.0953"/>
    <path d="m8.8131 1.8393v-0.0952"/>
    <path d="m8.8131 1.7441-0.0476-0.0952"/>
    <path d="m8.7655 1.6489-0.0476-0.0477"/>
    <path d="m8.7179 1.6012-0.0953-0.0476"/>
    <path d="m8.6226 1.5536-0.1905-0.0476"/>
    <path d="m8.4321 1.506-0.0952-0.0476"/>
    <path d="m8.3369 1.4584-0.0476-0.0476"/>
    <path d="m8.2893 1.4108-0.0476-0.0953"/>
    <path d="m8.2417 1.3155v-0.0952"/>
    <path d="m8.2417 1.2203 0.0476-0.0952"/>
    <path d="m8.2893 1.1251 0.0476-0.0477"/>
    <path d="m8.3369 1.0774 0.0952-0.0476"/>
    <path d="m8.4321 1.0298h0.2381"/>
    <path d="m8.6702 1.0298 0.1429 0.0476"/>
    <path d="m9.1464 1.0298 0.2381 1"/>
    <path d="m9.3845 2.0298 0.1905-0.7143"/>
    <path d="m9.575 1.3155 0.1905 0.7143"/>
    <path d="m9.7655 2.0298 0.2381-1"/>
    <path d="m10.908 2.0298h-0.5714"/>
    <path d="m10.623 2.0298v-1"/>
    <path d="m10.623 1.0298-0.0952 0.1429"/>
    <path d="m10.527 1.1727-0.0953 0.0952"/>
    <path d="m10.432 1.2679-0.0952 0.0476"/>
   </g>
   <text x="28.6250" y="21.1250" font-size="1.3333" opacity="0" stroke-opacity="0" text-anchor="middle" lengthAdjust="spacingAndGlyphs" textLength="3.2976">SW6</text>
   <g class="stroked-text">
    <desc>SW6</desc>
    <path d="m27.292 21.032 0.1428 0.0476"/>
    <path d="m27.434 21.08h0.2381"/>
    <path d="m27.673 21.08 0.0953-0.0476"/>
    <path d="m27.768 21.032 0.0476-0.0476"/>
    <path d="m27.816 20.985 0.0476-0.0953"/>
    <path d="m27.863 20.889v-0.0952"/>
    <path d="m27.863 20.794-0.0476-0.0952"/>
    <path d="m27.816 20.699-0.0476-0.0477"/>
    <path d="m27.768 20.651-0.0953-0.0476"/>
    <path d="m27.673 20.604-0.1905-0.0476"/>
    <path d="m27.482 20.556-0.0952-0.0476"/>
    <path d="m27.387 20.508-0.0476-0.0476"/>
    <path d="m27.339 20.461-0.0476-0.0953"/>
    <path d="m27.292 20.366v-0.0952"/>
    <path d="m27.292 20.27 0.0476-0.0952"/>
    <path d="m27.339 20.175 0.0476-0.0477"/>
    <path d="m27.387 20.127 0.0952-0.0476"/>
    <path d="m27.482 20.08h0.2381"/>
    <path d="m27.72 20.08 0.1429 0.0476"/>
    <path d="m28.196 20.08 0.2381 1"/>
    <path d="m28.434 21.08 0.1905-0.7143"/>
    <path d="m28.625 20.366 0.1905 0.7143"/>
    <path d="m28.816 21.08 0.2381-1"/>
    <path d="m29.863 20.08h-0.1905"/>
    <path d="m29.673 20.08-0.0952 0.0476"/>
    <path d="m29.577 20.127-0.0476 0.0477"/>
    <path d="m29.53 20.175-0.0953 0.1428"/>
    <path d="m29.434 20.318-0.0476 0.1905"/>
    <path d="m29.387 20.508v0.3809"/>
    <path d="m29.387 20.889 0.0476 0.0953"/>
    <path d="m29.434 20.985 0.0476 0.0476"/>
    <path d="m29.482 21.032 0.0953 0.0476"/>
    <path d="m29.577 21.08h0.1905"/>
    <path d="m29.768 21.08 0.0952-0.0476"/>
    <path d="m29.863 21.032 0.0476-0.0476"/>
    <path d="m29.911 20.985 0.0476-0.0953"/>
    <path d="m29.958 20.889v-0.2381"/>
    <path d="m29.958 20.651-0.0476-0.0952"/>
    <path d="m29.911 20.556-0.0476-0.0476"/>
    <path d="m29.863 20.508-0.0952-0.0476"/>
    <path d="m29.768 20.461h-0.1905"/>
    <path d="m29.577 20.461-0.0953 0.0476"/>
    <path d="m29.482 20.508-0.0476 0.0476"/>
    <path d="m29.434 20.556-0.0476 0.0952"/>
   </g>
   <text x="47.6750" y="21.1250" font-size="1.3333" opacity="0" stroke-opacity="0" text-anchor="middle" lengthAdjust="spacingAndGlyphs" textLength="3.2976">SW7</text>
   <g class="stroked-text">
    <desc>SW7</desc>
    <path d="m46.342 21.032 0.1428 0.0476"/>
    <path d="m46.484 21.08h0.2381"/>
    <path d="m46.723 21.08 0.0953-0.0476"/>
    <path d="m46.818 21.032 0.0476-0.0476"/>
    <path d="m46.866 20.985 0.0476-0.0953"/>
    <path d="m46.913 20.889v-0.0952"/>
    <path d="m46.913 20.794-0.0476-0.0952"/>
    <path d="m46.866 20.699-0.0476-0.0477"/>
    <path d="m46.818 20.651-0.0953-0.0476"/>
    <path d="m46.723 20.604-0.1905-0.0476"/>
    <path d="m46.532 20.556-0.0952-0.0476"/>
    <path d="m46.437 20.508-0.0476-0.0476"/>
    <path d="m46.389 20.461-0.0476-0.0953"/>
    <path d="m46.342 20.366v-0.0952"/>
    <path d="m46.342 20.27 0.0476-0.0952"/>
    <path d="m46.389 20.175 0.0476-0.0477"/>
    <path d="m46.437 20.127 0.0952-0.0476"/>
    <path d="m46.532 20.08h0.2381"/>
    <path d="m46.77 20.08 0.1429 0.0476"/>
    <path d="m47.246 20.08 0.2381 1"/>
    <path d="m47.484 21.08 0.1905-0.7143"/>
    <path d="m47.675 20.366 0.1905 0.7143"/>
    <path d="m47.866 21.08 0.2381-1"/>
    <path d="m48.389 20.08h0.6667"/>
    <path d="m49.056 20.08-0.4286 1"/>
   </g>
   <text x="9.5750" y="21.1250" font-size="1.3333" opacity="0" stroke-opacity="0" text-anchor="middle" lengthAdjust="spacingAndGlyphs" textLength="3.2976">SW5</text>
   <g class="stroked-text">
    <desc>SW5</desc>
    <path d="m8.2417 21.032 0.1428 0.0476"/>
    <path d="m8.3845 21.08h0.2381"/>
    <path d="m8.6226 21.08 0.0953-0.0476"/>
    <path d="m8.7179 21.032 0.0476-0.0476"/>
    <path d="m8.7655 20.985 0.0476-0.0953"/>
    <path d="m8.8131 20.889v-0.0952"/>
    <path d="m8.8131 20.794-0.0476-0.0952"/>
    <path d="m8.7655 20.699-0.0476-0.0477"/>
    <path d="m8.7179 20.651-0.0953-0.0476"/>
    <path d="m8.6226 20.604-0.1905-0.0476"/>
    <path d="m8.4321 20.556-0.0952-0.0476"/>
    <path d="m8.3369 20.508-0.0476-0.0476"/>
    <path d="m8.2893 20.461-0.0476-0.0953"/>
    <path d="m8.2417 20.366v-0.0952"/>
    <path d="m8.2417 20.27 0.0476-0.0952"/>
    <path d="m8.2893 20.175 0.0476-0.0477"/>
    <path d="m8.3369 20.127 0.0952-0.0476"/>
    <path d="m8.4321 20.08h0.2381"/>
    <path d="m8.6702 20.08 0.1429 0.0476"/>
    <path d="m9.1464 20.08 0.2381 1"/>
    <path d="m9.3845 21.08 0.1905-0.7143"/>
    <path d="m9.575 20.366 0.1905 0.7143"/>
    <path d="m9.7655 21.08 0.2381-1"/>
    <path d="m10.861 20.08h-0.4762"/>
    <path d="m10.384 20.08-0.0476 0.4762"/>
    <path d="m10.337 20.556 0.0476-0.0476"/>
    <path d="m10.384 20.508 0.0953-0.0476"/>
    <path d="m10.48 20.461h0.2381"/>
    <path d="m10.718 20.461 0.0952 0.0476"/>
    <path d="m10.813 20.508 0.0476 0.0476"/>
    <path d="m10.861 20.556 0.0476 0.0952"/>
    <path d="m10.908 20.651v0.2381"/>
    <path d="m10.908 20.889-0.0476 0.0953"/>
    <path d="m10.861 20.985-0.0476 0.0476"/>
    <path d="m10.813 21.032-0.0952 0.0476"/>
    <path d="m10.718 21.08h-0.2381"/>
    <path d="m10.48 21.08-0.0953-0.0476"/>
    <path d="m10.384 21.032-0.0476-0.0476"/>
   </g>
   <text x="28.6250" y="2.0750" font-size="1.3333" opacity="0" stroke-opacity="0" text-anchor="middle" lengthAdjust="spacingAndGlyphs" textLength="3.2976">SW2</text>
   <g class="stroked-text">
    <desc>SW2</desc>
    <path d="m27.292 1.9822 0.1428 0.0476"/>
    <path d="m27.434 2.0298h0.2381"/>
    <path d="m27.673 2.0298 0.0953-0.0476"/>
    <path d="m27.768 1.9822 0.0476-0.0476"/>
    <path d="m27.816 1.9346 0.0476-0.0953"/>
    <path d="m27.863 1.8393v-0.0952"/>
    <path d="m27.863 1.7441-0.0476-0.0952"/>
    <path d="m27.816 1.6489-0.0476-0.0477"/>
    <path d="m27.768 1.6012-0.0953-0.0476"/>
    <path d="m27.673 1.5536-0.1905-0.0476"/>
    <path d="m27.482 1.506-0.0952-0.0476"/>
    <path d="m27.387 1.4584-0.0476-0.0476"/>
    <path d="m27.339 1.4108-0.0476-0.0953"/>
    <path d="m27.292 1.3155v-0.0952"/>
    <path d="m27.292 1.2203 0.0476-0.0952"/>
    <path d="m27.339 1.1251 0.0476-0.0477"/>
    <path d="m27.387 1.0774 0.0952-0.0476"/>
    <path d="m27.482 1.0298h0.2381"/>
    <path d="m27.72 1.0298 0.1429 0.0476"/>
    <path d="m28.196 1.0298 0.2381 1"/>
    <path d="m28.434 2.0298 0.1905-0.7143"/>
    <path d="m28.625 1.3155 0.1905 0.7143"/>
    <path d="m28.816 2.0298 0.2381-1"/>
    <path d="m29.387 1.1251 0.0476-0.0477"/>
    <path d="m29.434 1.0774 0.0953-0.0476"/>
    <path d="m29.53 1.0298h0.2381"/>
    <path d="m29.768 1.0298 0.0952 0.0476"/>
    <path d="m29.863 1.0774 0.0476 0.0477"/>
    <path d="m29.911 1.1251 0.0476 0.0952"/>
    <path d="m29.958 1.2203v0.0952"/>
    <path d="m29.958 1.3155-0.0476 0.1429"/>
    <path d="m29.911 1.4584-0.5714 0.5714"/>
    <path d="m29.339 2.0298h0.619"/>
   </g>
   <text x="19.1000" y="27.1250" font-size="1.3333" opacity="0" stroke-opacity="0" text-anchor="middle" lengthAdjust="spacingAndGlyphs" textLength="3.8214">ST5a</text>
   <g class="stroked-text">
    <desc>ST5a</desc>
    <path d="m17.505 27.032 0.1428 0.0476"/>
    <path d="m17.648 27.08h0.2381"/>
    <path d="m17.886 27.08 0.0953-0.0476"/>
    <path d="m17.981 27.032 0.0476-0.0476"/>
    <path d="m18.029 26.985 0.0476-0.0953"/>
    <path d="m18.076 26.889v-0.0952"/>
    <path d="m18.076 26.794-0.0476-0.0952"/>
    <path d="m18.029 26.699-0.0476-0.0477"/>
    <path d="m17.981 26.651-0.0953-0.0476"/>
    <path d="m17.886 26.604-0.1905-0.0476"/>
    <path d="m17.695 26.556-0.0952-0.0476"/>
    <path d="m17.6 26.508-0.0476-0.0476"/>
    <path d="m17.552 26.461-0.0476-0.0953"/>
    <path d="m17.505 26.366v-0.0952"/>
    <path d="m17.505 26.27 0.0476-0.0952"/>
    <path d="m17.552 26.175 0.0476-0.0477"/>
    <path d="m17.6 26.127 0.0952-0.0476"/>
    <path d="m17.695 26.08h0.2381"/>
    <path d="m17.933 26.08 0.1429 0.0476"/>
    <path d="m18.362 26.08h0.5714"/>
    <path d="m18.648 27.08v-1"/>
    <path d="m19.743 26.08h-0.4762"/>
    <path d="m19.267 26.08-0.0477 0.4762"/>
    <path d="m19.219 26.556 0.0477-0.0476"/>
    <path d="m19.267 26.508 0.0952-0.0476"/>
    <path d="m19.362 26.461h0.2381"/>
    <path d="m19.6 26.461 0.0952 0.0476"/>
    <path d="m19.695 26.508 0.0477 0.0476"/>
    <path d="m19.743 26.556 0.0476 0.0952"/>
    <path d="m19.79 26.651v0.2381"/>
    <path d="m19.79 26.889-0.0476 0.0953"/>
    <path d="m19.743 26.985-0.0477 0.0476"/>
    <path d="m19.695 27.032-0.0952 0.0476"/>
    <path d="m19.6 27.08h-0.2381"/>
    <path d="m19.362 27.08-0.0952-0.0476"/>
    <path d="m19.267 27.032-0.0477-0.0476"/>
    <path d="m20.648 27.08v-0.5238"/>
    <path d="m20.648 26.556-0.0476-0.0952"/>
    <path d="m20.6 26.461-0.0952-0.0476"/>
    <path d="m20.505 26.413h-0.1905"/>
    <path d="m20.314 26.413-0.0953 0.0476"/>
    <path d="m20.648 27.032-0.0952 0.0476"/>
    <path d="m20.552 27.08h-0.2381"/>
    <path d="m20.314 27.08-0.0953-0.0476"/>
    <path d="m20.219 27.032-0.0476-0.0952"/>
    <path d="m20.171 26.937v-0.0953"/>
    <path d="m20.171 26.842 0.0476-0.0952"/>
    <path d="m20.219 26.746 0.0953-0.0476"/>
    <path d="m20.314 26.699h0.2381"/>
    <path d="m20.552 26.699 0.0952-0.0477"/>
   </g>
   <text x="19.1000" y="21.1250" font-size="1.3333" opacity="0" stroke-opacity="0" text-anchor="middle" lengthAdjust="spacingAndGlyphs" textLength="4.2024">SW5a</text>
   <g class="stroked-text">
    <desc>SW5a</desc>
    <path d="m17.314 21.032 0.1428 0.0476"/>
    <path d="m17.457 21.08h0.2381"/>
    <path d="m17.695 21.08 0.0953-0.0476"/>
    <path d="m17.79 21.032 0.0476-0.0476"/>
    <path d="m17.838 20.985 0.0476-0.0953"/>
    <path d="m17.886 20.889v-0.0952"/>
    <path d="m17.886 20.794-0.0476-0.0952"/>
    <path d="m17.838 20.699-0.0476-0.0477"/>
    <path d="m17.79 20.651-0.0953-0.0476"/>
    <path d="m17.695 20.604-0.1904-0.0476"/>
    <path d="m17.505 20.556-0.0953-0.0476"/>
    <path d="m17.41 20.508-0.0476-0.0476"/>
    <path d="m17.362 20.461-0.0476-0.0953"/>
    <path d="m17.314 20.366v-0.0952"/>
    <path d="m17.314 20.27 0.0476-0.0952"/>
    <path d="m17.362 20.175 0.0476-0.0477"/>
    <path d="m17.41 20.127 0.0953-0.0476"/>
    <path d="m17.505 20.08h0.2381"/>
    <path d="m17.743 20.08 0.1428 0.0476"/>
    <path d="m18.219 20.08 0.2381 1"/>
    <path d="m18.457 21.08 0.1905-0.7143"/>
    <path d="m18.648 20.366 0.1905 0.7143"/>
    <path d="m18.838 21.08 0.2381-1"/>
    <path d="m19.933 20.08h-0.4762"/>
    <path d="m19.457 20.08-0.0476 0.4762"/>
    <path d="m19.41 20.556 0.0476-0.0476"/>
    <path d="m19.457 20.508 0.0953-0.0476"/>
    <path d="m19.552 20.461h0.2381"/>
    <path d="m19.79 20.461 0.0952 0.0476"/>
    <path d="m19.886 20.508 0.0476 0.0476"/>
    <path d="m19.933 20.556 0.0477 0.0952"/>
    <path d="m19.981 20.651v0.2381"/>
    <path d="m19.981 20.889-0.0477 0.0953"/>
    <path d="m19.933 20.985-0.0476 0.0476"/>
    <path d="m19.886 21.032-0.0952 0.0476"/>
    <path d="m19.79 21.08h-0.2381"/>
    <path d="m19.552 21.08-0.0953-0.0476"/>
    <path d="m19.457 21.032-0.0476-0.0476"/>
    <path d="m20.838 21.08v-0.5238"/>
    <path d="m20.838 20.556-0.0476-0.0952"/>
    <path d="m20.79 20.461-0.0953-0.0476"/>
    <path d="m20.695 20.413h-0.1904"/>
    <path d="m20.505 20.413-0.0953 0.0476"/>
    <path d="m20.838 21.032-0.0952 0.0476"/>
    <path d="m20.743 21.08h-0.2381"/>
    <path d="m20.505 21.08-0.0953-0.0476"/>
    <path d="m20.41 21.032-0.0476-0.0952"/>
    <path d="m20.362 20.937v-0.0953"/>
    <path d="m20.362 20.842 0.0476-0.0952"/>
    <path d="m20.41 20.746 0.0953-0.0476"/>
    <path d="m20.505 20.699h0.2381"/>
    <path d="m20.743 20.699 0.0952-0.0477"/>
   </g>
  </g>
  <g stroke="#8BE9FD" stroke-width=".12">
   <path d="m40.575 2.475v14.2"/>
   <path d="m40.575 16.675h14.2"/>
   <path d="m54.775 2.475h-14.2"/>
   <path d="m54.775 16.675v-14.2"/>
   <path d="m59.625 21.525v14.2"/>
   <path d="m59.625 35.725h14.2"/>
   <path d="m73.825 21.525h-14.2"/>
   <path d="m73.825 35.725v-14.2"/>
   <path d="m50.1 21.525v14.2"/>
   <path d="m50.1 35.725h14.2"/>
   <path d="m64.3 21.525h-14.2"/>
   <path d="m64.3 35.725v-14.2"/>
   <path d="m59.625 2.475v14.2"/>
   <path d="m59.625 16.675h14.2"/>
   <path d="m73.825 2.475h-14.2"/>
   <path d="m73.825 16.675v-14.2"/>
   <path d="m2.475 2.475v14.2"/>
   <path d="m2.475 16.675h14.2"/>
   <path d="m16.675 2.475h-14.2"/>
   <path d="m16.675 16.675v-14.2"/>
   <path d="m21.525 21.525v14.2"/>
   <path d="m21.525 35.725h14.2"/>
   <path d="m35.725 21.525h-14.2"/>
   <path d="m35.725 35.725v-14.2"/>
   <path d="m40.575 21.525v14.2"/>
   <path d="m40.575 35.725h14.2"/>
   <path d="m54.775 21.525h-14.2"/>
   <path d="m54.775 35.725v-14.2"/>
   <path d="m2.475 21.525v14.2"/>
   <path d="m2.475 35.725h14.2"/>
   <path d="m16.675 21.525h-14.2"/>
   <path d="m16.675 35.725v-14.2"/>
   <path d="m21.525 2.475v14.2"/>
   <path d="m21.525 16.675h14.2"/>
   <path d="m35.725 2.475h-14.2"/>
   <path d="m35.725 16.675v-14.2"/>
   <path d="m12 21.525v14.2"/>
   <path d="m12 35.725h14.2"/>
   <path d="m26.2 21.525h-14.2"/>
   <path d="m26.2 35.725v-14.2"/>
  </g>
  <g stroke="#BD93F9" stroke-width=".15">
   <g transform="rotate(-90 73.71 13.702)">
    <text transform="scale(-1 1) translate(-147.42)" x="73.7100" y="14.2020" font-size="1.3333" opacity="0" stroke-opacity="0" text-anchor="middle" lengthAdjust="spacingAndGlyphs" textLength="2.2024">D4</text>
   </g>
   <g class="stroked-text">
    <desc>D4</desc>
    <path d="m74.165 12.964h-1"/>
    <path d="m73.165 12.964v0.2381"/>
    <path d="m73.165 13.202 0.0476 0.1429"/>
    <path d="m73.212 13.345 0.0953 0.0952"/>
    <path d="m73.308 13.44 0.0952 0.0476"/>
    <path d="m73.403 13.488 0.1905 0.0476"/>
    <path d="m73.593 13.535h0.1428"/>
    <path d="m73.736 13.535 0.1905-0.0476"/>
    <path d="m73.927 13.488 0.0953-0.0476"/>
    <path d="m74.022 13.44 0.0952-0.0952"/>
    <path d="m74.117 13.345 0.0476-0.1429"/>
    <path d="m74.165 13.202v-0.2381"/>
    <path d="m73.498 14.392h0.6666"/>
    <path d="m73.117 14.154 0.7143-0.2381"/>
    <path d="m73.832 13.916v0.619"/>
   </g>
   <g transform="rotate(-90 16.56 13.702)">
    <text transform="scale(-1 1) translate(-33.12)" x="16.5600" y="14.2020" font-size="1.3333" opacity="0" stroke-opacity="0" text-anchor="middle" lengthAdjust="spacingAndGlyphs" textLength="2.2024">D1</text>
   </g>
   <g class="stroked-text">
    <desc>D1</desc>
    <path d="m17.015 12.964h-1"/>
    <path d="m16.015 12.964v0.2381"/>
    <path d="m16.015 13.202 0.0476 0.1429"/>
    <path d="m16.062 13.345 0.0953 0.0952"/>
    <path d="m16.158 13.44 0.0952 0.0476"/>
    <path d="m16.253 13.488 0.1905 0.0476"/>
    <path d="m16.443 13.535h0.1428"/>
    <path d="m16.586 13.535 0.1905-0.0476"/>
    <path d="m16.777 13.488 0.0953-0.0476"/>
    <path d="m16.872 13.44 0.0952-0.0952"/>
    <path d="m16.967 13.345 0.0476-0.1429"/>
    <path d="m17.015 13.202v-0.2381"/>
    <path d="m17.015 14.488v-0.5714"/>
    <path d="m17.015 14.202h-1"/>
    <path d="m16.015 14.202 0.1429-0.0952"/>
    <path d="m16.158 14.107 0.0952-0.0953"/>
    <path d="m16.253 14.012 0.0476-0.0952"/>
   </g>
   <g transform="rotate(-90 54.66 13.702)">
    <text transform="scale(-1 1) translate(-109.32)" x="54.6600" y="14.2020" font-size="1.3333" opacity="0" stroke-opacity="0" text-anchor="middle" lengthAdjust="spacingAndGlyphs" textLength="2.2024">D3</text>
   </g>
   <g class="stroked-text">
    <desc>D3</desc>
    <path d="m55.115 12.964h-1"/>
    <path d="m54.115 12.964v0.2381"/>
    <path d="m54.115 13.202 0.0476 0.1429"/>
    <path d="m54.162 13.345 0.0953 0.0952"/>
    <path d="m54.258 13.44 0.0952 0.0476"/>
    <path d="m54.353 13.488 0.1905 0.0476"/>
    <path d="m54.543 13.535h0.1428"/>
    <path d="m54.686 13.535 0.1905-0.0476"/>
    <path d="m54.877 13.488 0.0953-0.0476"/>
    <path d="m54.972 13.44 0.0952-0.0952"/>
    <path d="m55.067 13.345 0.0476-0.1429"/>
    <path d="m55.115 13.202v-0.2381"/>
    <path d="m54.115 13.869v0.619"/>
    <path d="m54.115 14.488 0.381-0.3333"/>
    <path d="m54.496 14.154v0.1428"/>
    <path d="m54.496 14.297 0.0476 0.0953"/>
    <path d="m54.543 14.392 0.0476 0.0476"/>
    <path d="m54.591 14.44 0.0952 0.0476"/>
    <path d="m54.686 14.488h0.2381"/>
    <path d="m54.924 14.488 0.0953-0.0476"/>
    <path d="m55.02 14.44 0.0476-0.0476"/>
    <path d="m55.067 14.392 0.0476-0.0953"/>
    <path d="m55.115 14.297v-0.2857"/>
    <path d="m55.115 14.012-0.0476-0.0952"/>
    <path d="m55.067 13.916-0.0476-0.0476"/>
   </g>
   <g transform="rotate(-90 73.71 32.752)">
    <text transform="scale(-1 1) translate(-147.42)" x="73.7100" y="33.2520" font-size="1.3333" opacity="0" stroke-opacity="0" text-anchor="middle" lengthAdjust="spacingAndGlyphs" textLength="2.2024">D8</text>
   </g>
   <g class="stroked-text">
    <desc>D8</desc>
    <path d="m74.165 32.014h-1"/>
    <path d="m73.165 32.014v0.2381"/>
    <path d="m73.165 32.252 0.0476 0.1429"/>
    <path d="m73.212 32.395 0.0953 0.0952"/>
    <path d="m73.308 32.49 0.0952 0.0476"/>
    <path d="m73.403 32.538 0.1905 0.0476"/>
    <path d="m73.593 32.585h0.1428"/>
    <path d="m73.736 32.585 0.1905-0.0476"/>
    <path d="m73.927 32.538 0.0953-0.0476"/>
    <path d="m74.022 32.49 0.0952-0.0952"/>
    <path d="m74.117 32.395 0.0476-0.1429"/>
    <path d="m74.165 32.252v-0.2381"/>
    <path d="m73.593 33.157-0.0476-0.0953"/>
    <path d="m73.546 33.062-0.0476-0.0476"/>
    <path d="m73.498 33.014-0.0953-0.0476"/>
    <path d="m73.403 32.966h-0.0476"/>
    <path d="m73.355 32.966-0.0952 0.0476"/>
    <path d="m73.26 33.014-0.0477 0.0476"/>
    <path d="m73.212 33.062-0.0476 0.0953"/>
    <path d="m73.165 33.157v0.1904"/>
    <path d="m73.165 33.347 0.0476 0.0953"/>
    <path d="m73.212 33.442 0.0477 0.0476"/>
    <path d="m73.26 33.49 0.0952 0.0476"/>
    <path d="m73.355 33.538h0.0476"/>
    <path d="m73.403 33.538 0.0953-0.0476"/>
    <path d="m73.498 33.49 0.0476-0.0476"/>
    <path d="m73.546 33.442 0.0476-0.0953"/>
    <path d="m73.593 33.347v-0.1904"/>
    <path d="m73.593 33.157 0.0476-0.0953"/>
    <path d="m73.641 33.062 0.0476-0.0476"/>
    <path d="m73.689 33.014 0.0953-0.0476"/>
    <path d="m73.784 32.966h0.1904"/>
    <path d="m73.974 32.966 0.0953 0.0476"/>
    <path d="m74.07 33.014 0.0476 0.0476"/>
    <path d="m74.117 33.062 0.0476 0.0953"/>
    <path d="m74.165 33.157v0.1904"/>
    <path d="m74.165 33.347-0.0476 0.0953"/>
    <path d="m74.117 33.442-0.0476 0.0476"/>
    <path d="m74.07 33.49-0.0953 0.0476"/>
    <path d="m73.974 33.538h-0.1904"/>
    <path d="m73.784 33.538-0.0953-0.0476"/>
    <path d="m73.689 33.49-0.0476-0.0476"/>
    <path d="m73.641 33.442-0.0476-0.0953"/>
   </g>
   <g transform="rotate(-90 16.56 32.752)">
    <text transform="scale(-1 1) translate(-33.12)" x="16.5600" y="33.2520" font-size="1.3333" opacity="0" stroke-opacity="0" text-anchor="middle" lengthAdjust="spacingAndGlyphs" textLength="2.2024">D5</text>
   </g>
   <g class="stroked-text">
    <desc>D5</desc>
    <path d="m17.015 32.014h-1"/>
    <path d="m16.015 32.014v0.2381"/>
    <path d="m16.015 32.252 0.0476 0.1429"/>
    <path d="m16.062 32.395 0.0953 0.0952"/>
    <path d="m16.158 32.49 0.0952 0.0476"/>
    <path d="m16.253 32.538 0.1905 0.0476"/>
    <path d="m16.443 32.585h0.1428"/>
    <path d="m16.586 32.585 0.1905-0.0476"/>
    <path d="m16.777 32.538 0.0953-0.0476"/>
    <path d="m16.872 32.49 0.0952-0.0952"/>
    <path d="m16.967 32.395 0.0476-0.1429"/>
    <path d="m17.015 32.252v-0.2381"/>
    <path d="m16.015 33.49v-0.4762"/>
    <path d="m16.015 33.014 0.4762-0.0476"/>
    <path d="m16.491 32.966-0.0476 0.0476"/>
    <path d="m16.443 33.014-0.0476 0.0952"/>
    <path d="m16.396 33.109v0.2381"/>
    <path d="m16.396 33.347 0.0476 0.0953"/>
    <path d="m16.443 33.442 0.0476 0.0476"/>
    <path d="m16.491 33.49 0.0952 0.0476"/>
    <path d="m16.586 33.538h0.2381"/>
    <path d="m16.824 33.538 0.0953-0.0476"/>
    <path d="m16.92 33.49 0.0476-0.0476"/>
    <path d="m16.967 33.442 0.0476-0.0953"/>
    <path d="m17.015 33.347v-0.2381"/>
    <path d="m17.015 33.109-0.0476-0.0952"/>
    <path d="m16.967 33.014-0.0476-0.0476"/>
   </g>
   <g transform="rotate(-90 54.66 32.752)">
    <text transform="scale(-1 1) translate(-109.32)" x="54.6600" y="33.2520" font-size="1.3333" opacity="0" stroke-opacity="0" text-anchor="middle" lengthAdjust="spacingAndGlyphs" textLength="2.2024">D7</text>
   </g>
   <g class="stroked-text">
    <desc>D7</desc>
    <path d="m55.115 32.014h-1"/>
    <path d="m54.115 32.014v0.2381"/>
    <path d="m54.115 32.252 0.0476 0.1429"/>
    <path d="m54.162 32.395 0.0953 0.0952"/>
    <path d="m54.258 32.49 0.0952 0.0476"/>
    <path d="m54.353 32.538 0.1905 0.0476"/>
    <path d="m54.543 32.585h0.1428"/>
    <path d="m54.686 32.585 0.1905-0.0476"/>
    <path d="m54.877 32.538 0.0953-0.0476"/>
    <path d="m54.972 32.49 0.0952-0.0952"/>
    <path d="m55.067 32.395 0.0476-0.1429"/>
    <path d="m55.115 32.252v-0.2381"/>
    <path d="m54.115 32.919v0.6666"/>
    <path d="m54.115 33.585 1-0.4285"/>
   </g>
   <g transform="rotate(-90 35.61 32.752)">
    <text transform="scale(-1 1) translate(-71.22)" x="35.6100" y="33.2520" font-size="1.3333" opacity="0" stroke-opacity="0" text-anchor="middle" lengthAdjust="spacingAndGlyphs" textLength="2.2024">D6</text>
   </g>
   <g class="stroked-text">
    <desc>D6</desc>
    <path d="m36.065 32.014h-1"/>
    <path d="m35.065 32.014v0.2381"/>
    <path d="m35.065 32.252 0.0476 0.1429"/>
    <path d="m35.112 32.395 0.0953 0.0952"/>
    <path d="m35.208 32.49 0.0952 0.0476"/>
    <path d="m35.303 32.538 0.1905 0.0476"/>
    <path d="m35.493 32.585h0.1428"/>
    <path d="m35.636 32.585 0.1905-0.0476"/>
    <path d="m35.827 32.538 0.0953-0.0476"/>
    <path d="m35.922 32.49 0.0952-0.0952"/>
    <path d="m36.017 32.395 0.0476-0.1429"/>
    <path d="m36.065 32.252v-0.2381"/>
    <path d="m35.065 33.442v-0.1905"/>
    <path d="m35.065 33.252 0.0476-0.0952"/>
    <path d="m35.112 33.157 0.0477-0.0477"/>
    <path d="m35.16 33.109 0.1428-0.0952"/>
    <path d="m35.303 33.014 0.1905-0.0476"/>
    <path d="m35.493 32.966h0.3809"/>
    <path d="m35.874 32.966 0.0953 0.0476"/>
    <path d="m35.97 33.014 0.0476 0.0476"/>
    <path d="m36.017 33.062 0.0476 0.0953"/>
    <path d="m36.065 33.157v0.1904"/>
    <path d="m36.065 33.347-0.0476 0.0953"/>
    <path d="m36.017 33.442-0.0476 0.0476"/>
    <path d="m35.97 33.49-0.0953 0.0476"/>
    <path d="m35.874 33.538h-0.2381"/>
    <path d="m35.636 33.538-0.0952-0.0476"/>
    <path d="m35.541 33.49-0.0476-0.0476"/>
    <path d="m35.493 33.442-0.0476-0.0953"/>
    <path d="m35.446 33.347v-0.1904"/>
    <path d="m35.446 33.157 0.0476-0.0953"/>
    <path d="m35.493 33.062 0.0476-0.0476"/>
    <path d="m35.541 33.014 0.0952-0.0476"/>
   </g>
   <g transform="rotate(-90 35.61 13.702)">
    <text transform="scale(-1 1) translate(-71.22)" x="35.6100" y="14.2020" font-size="1.3333" opacity="0" stroke-opacity="0" text-anchor="middle" lengthAdjust="spacingAndGlyphs" textLength="2.2024">D2</text>
   </g>
   <g class="stroked-text">
    <desc>D2</desc>
    <path d="m36.065 12.964h-1"/>
    <path d="m35.065 12.964v0.2381"/>
    <path d="m35.065 13.202 0.0476 0.1429"/>
    <path d="m35.112 13.345 0.0953 0.0952"/>
    <path d="m35.208 13.44 0.0952 0.0476"/>
    <path d="m35.303 13.488 0.1905 0.0476"/>
    <path d="m35.493 13.535h0.1428"/>
    <path d="m35.636 13.535 0.1905-0.0476"/>
    <path d="m35.827 13.488 0.0953-0.0476"/>
    <path d="m35.922 13.44 0.0952-0.0952"/>
    <path d="m36.017 13.345 0.0476-0.1429"/>
    <path d="m36.065 13.202v-0.2381"/>
    <path d="m35.16 13.916-0.0477 0.0476"/>
    <path d="m35.112 13.964-0.0476 0.0952"/>
    <path d="m35.065 14.059v0.2381"/>
    <path d="m35.065 14.297 0.0476 0.0953"/>
    <path d="m35.112 14.392 0.0477 0.0476"/>
    <path d="m35.16 14.44 0.0952 0.0476"/>
    <path d="m35.255 14.488h0.0952"/>
    <path d="m35.35 14.488 0.1429-0.0476"/>
    <path d="m35.493 14.44 0.5714-0.5714"/>
    <path d="m36.065 13.869v0.619"/>
   </g>
  </g>
  <g stroke="#BD93F9" stroke-width=".12">
   <path d="m70.805 15.785v-3.86"/>
   <path d="m72.805 15.785h-2"/>
   <path d="m72.805 15.785v-3.86"/>
   <path d="m13.655 15.785v-3.86"/>
   <path d="m15.655 15.785h-2"/>
   <path d="m15.655 15.785v-3.86"/>
   <path d="m51.755 15.785v-3.86"/>
   <path d="m53.755 15.785h-2"/>
   <path d="m53.755 15.785v-3.86"/>
   <path d="m70.805 34.835v-3.86"/>
   <path d="m72.805 34.835h-2"/>
   <path d="m72.805 34.835v-3.86"/>
   <path d="m13.655 34.835v-3.86"/>
   <path d="m15.655 34.835h-2"/>
   <path d="m15.655 34.835v-3.86"/>
   <path d="m51.755 34.835v-3.86"/>
   <path d="m53.755 34.835h-2"/>
   <path d="m53.755 34.835v-3.86"/>
   <path d="m32.705 34.835v-3.86"/>
   <path d="m34.705 34.835h-2"/>
   <path d="m34.705 34.835v-3.86"/>
   <path d="m32.705 15.785v-3.86"/>
   <path d="m34.705 15.785h-2"/>
   <path d="m34.705 15.785v-3.86"/>
  </g>
 </g>
 <g fill="#fff">
  <circle cx="45.262" cy="21.64" r="1.524"/>
  <circle cx="45.262" cy="36.85" r="1.9939"/>
  <circle cx="69.138" cy="21.64" r="1.524"/>
  <circle cx="69.138" cy="36.85" r="1.9939"/>
  <circle cx="42.595" cy="9.575" r=".875"/>
  <circle cx="47.675" cy="9.575" r="2"/>
  <circle cx="52.755" cy="9.575" r=".875"/>
  <circle cx="43.865" cy="7.035" r=".75"/>
  <circle cx="50.215" cy="4.495" r=".75"/>
  <circle cx="61.645" cy="28.625" r=".875"/>
  <circle cx="66.725" cy="28.625" r="2"/>
  <circle cx="71.805" cy="28.625" r=".875"/>
  <circle cx="62.915" cy="26.085" r=".75"/>
  <circle cx="69.265" cy="23.545" r=".75"/>
  <circle cx="52.12" cy="28.625" r=".875"/>
  <circle cx="57.2" cy="28.625" r="2"/>
  <circle cx="62.28" cy="28.625" r=".875"/>
  <circle cx="53.39" cy="26.085" r=".75"/>
  <circle cx="59.74" cy="23.545" r=".75"/>
  <circle cx="61.645" cy="9.575" r=".875"/>
  <circle cx="66.725" cy="9.575" r="2"/>
  <circle cx="71.805" cy="9.575" r=".875"/>
  <circle cx="62.915" cy="7.035" r=".75"/>
  <circle cx="69.265" cy="4.495" r=".75"/>
  <circle cx="4.495" cy="9.575" r=".875"/>
  <circle cx="9.575" cy="9.575" r="2"/>
  <circle cx="14.655" cy="9.575" r=".875"/>
  <circle cx="5.765" cy="7.035" r=".75"/>
  <circle cx="12.115" cy="4.495" r=".75"/>
  <circle cx="23.545" cy="28.625" r=".875"/>
  <circle cx="28.625" cy="28.625" r="2"/>
  <circle cx="33.705" cy="28.625" r=".875"/>
  <circle cx="24.815" cy="26.085" r=".75"/>
  <circle cx="31.165" cy="23.545" r=".75"/>
  <circle cx="42.595" cy="28.625" r=".875"/>
  <circle cx="47.675" cy="28.625" r="2"/>
  <circle cx="52.755" cy="28.625" r=".875"/>
  <circle cx="43.865" cy="26.085" r=".75"/>
  <circle cx="50.215" cy="23.545" r=".75"/>
  <circle cx="4.495" cy="28.625" r=".875"/>
  <circle cx="9.575" cy="28.625" r="2"/>
  <circle cx="14.655" cy="28.625" r=".875"/>
  <circle cx="5.765" cy="26.085" r=".75"/>
  <circle cx="12.115" cy="23.545" r=".75"/>
  <circle cx="23.545" cy="9.575" r=".875"/>
  <circle cx="28.625" cy="9.575" r="2"/>
  <circle cx="33.705" cy="9.575" r=".875"/>
  <circle cx="24.815" cy="7.035" r=".75"/>
  <circle cx="31.165" cy="4.495" r=".75"/>
  <circle cx="7.162" cy="21.64" r="1.524"/>
  <circle cx="7.162" cy="36.85" r="1.9939"/>
  <circle cx="31.038" cy="21.64" r="1.524"/>
  <circle cx="31.038" cy="36.85" r="1.9939"/>
  <circle cx="14.02" cy="28.625" r=".875"/>
  <circle cx="19.1" cy="28.625" r="2"/>
  <circle cx="24.18" cy="28.625" r=".875"/>
  <circle cx="15.29" cy="26.085" r=".75"/>
  <circle cx="21.64" cy="23.545" r=".75"/>
 </g>
</svg>
