<?xml version="1.0" encoding="UTF-8"?>
<!DOCTYPE svg  PUBLIC '-//W3C//DTD SVG 1.1//EN'  'http://www.w3.org/Graphics/SVG/1.1/DTD/svg11.dtd'>
<svg width="40.564mm" height="38.176mm" version="1.1" viewBox="0 0 40.564 38.176" xmlns="http://www.w3.org/2000/svg">
 <title>SVG Image created as stealth-render.svg date 2025/09/05 18:24:46</title>
 <desc>Image generated by PCBNEW</desc>
 <rect width="40.564mm" height="38.176mm" fill="#282A36"/>
 <g fill="none" stroke="#8BE9FD" stroke-linecap="round" stroke-linejoin="round" stroke-width=".15">
  <text x="9.5750" y="21.1250" font-size="1.3333" opacity="0" stroke-opacity="0" text-anchor="middle" lengthAdjust="spacingAndGlyphs" textLength="3.2976">SW2</text>
  <g class="stroked-text">
   <desc>SW2</desc>
   <path d="m8.2417 21.032 0.1428 0.0476"/>
   <path d="m8.3845 21.08h0.2381"/>
   <path d="m8.6226 21.08 0.0953-0.0476"/>
   <path d="m8.7179 21.032 0.0476-0.0476"/>
   <path d="m8.7655 20.985 0.0476-0.0953"/>
   <path d="m8.8131 20.889v-0.0952"/>
   <path d="m8.8131 20.794-0.0476-0.0952"/>
   <path d="m8.7655 20.699-0.0476-0.0477"/>
   <path d="m8.7179 20.651-0.0953-0.0476"/>
   <path d="m8.6226 20.604-0.1905-0.0476"/>
   <path d="m8.4321 20.556-0.0952-0.0476"/>
   <path d="m8.3369 20.508-0.0476-0.0476"/>
   <path d="m8.2893 20.461-0.0476-0.0953"/>
   <path d="m8.2417 20.366v-0.0952"/>
   <path d="m8.2417 20.27 0.0476-0.0952"/>
   <path d="m8.2893 20.175 0.0476-0.0477"/>
   <path d="m8.3369 20.127 0.0952-0.0476"/>
   <path d="m8.4321 20.08h0.2381"/>
   <path d="m8.6702 20.08 0.1429 0.0476"/>
   <path d="m9.1464 20.08 0.2381 1"/>
   <path d="m9.3845 21.08 0.1905-0.7143"/>
   <path d="m9.575 20.366 0.1905 0.7143"/>
   <path d="m9.7655 21.08 0.2381-1"/>
   <path d="m10.337 20.175 0.0476-0.0477"/>
   <path d="m10.384 20.127 0.0953-0.0476"/>
   <path d="m10.48 20.08h0.2381"/>
   <path d="m10.718 20.08 0.0952 0.0476"/>
   <path d="m10.813 20.127 0.0476 0.0477"/>
   <path d="m10.861 20.175 0.0476 0.0952"/>
   <path d="m10.908 20.27v0.0952"/>
   <path d="m10.908 20.366-0.0476 0.1429"/>
   <path d="m10.861 20.508-0.5714 0.5714"/>
   <path d="m10.289 21.08h0.619"/>
  </g>
  <text x="31.0062" y="21.1250" font-size="1.3333" opacity="0" stroke-opacity="0" text-anchor="middle" lengthAdjust="spacingAndGlyphs" textLength="3.2976">SW3</text>
  <g class="stroked-text">
   <desc>SW3</desc>
   <path d="m29.673 21.032 0.1429 0.0476"/>
   <path d="m29.816 21.08h0.2381"/>
   <path d="m30.054 21.08 0.0952-0.0476"/>
   <path d="m30.149 21.032 0.0476-0.0476"/>
   <path d="m30.197 20.985 0.0476-0.0953"/>
   <path d="m30.244 20.889v-0.0952"/>
   <path d="m30.244 20.794-0.0476-0.0952"/>
   <path d="m30.197 20.699-0.0476-0.0477"/>
   <path d="m30.149 20.651-0.0952-0.0476"/>
   <path d="m30.054 20.604-0.1905-0.0476"/>
   <path d="m29.863 20.556-0.0952-0.0476"/>
   <path d="m29.768 20.508-0.0477-0.0476"/>
   <path d="m29.72 20.461-0.0476-0.0953"/>
   <path d="m29.673 20.366v-0.0952"/>
   <path d="m29.673 20.27 0.0476-0.0952"/>
   <path d="m29.72 20.175 0.0477-0.0477"/>
   <path d="m29.768 20.127 0.0952-0.0476"/>
   <path d="m29.863 20.08h0.2381"/>
   <path d="m30.102 20.08 0.1428 0.0476"/>
   <path d="m30.578 20.08 0.2381 1"/>
   <path d="m30.816 21.08 0.1904-0.7143"/>
   <path d="m31.006 20.366 0.1905 0.7143"/>
   <path d="m31.197 21.08 0.2381-1"/>
   <path d="m31.72 20.08h0.6191"/>
   <path d="m32.34 20.08-0.3333 0.381"/>
   <path d="m32.006 20.461h0.1428"/>
   <path d="m32.149 20.461 0.0952 0.0476"/>
   <path d="m32.244 20.508 0.0477 0.0476"/>
   <path d="m32.292 20.556 0.0476 0.0952"/>
   <path d="m32.34 20.651v0.2381"/>
   <path d="m32.34 20.889-0.0476 0.0953"/>
   <path d="m32.292 20.985-0.0477 0.0476"/>
   <path d="m32.244 21.032-0.0952 0.0476"/>
   <path d="m32.149 21.08h-0.2857"/>
   <path d="m31.863 21.08-0.0952-0.0476"/>
   <path d="m31.768 21.032-0.0477-0.0476"/>
  </g>
  <text x="19.1000" y="2.0750" font-size="1.3333" opacity="0" stroke-opacity="0" text-anchor="middle" lengthAdjust="spacingAndGlyphs" textLength="3.2976">SW1</text>
  <g class="stroked-text">
   <desc>SW1</desc>
   <path d="m17.767 1.9822 0.1428 0.0476"/>
   <path d="m17.91 2.0298h0.2381"/>
   <path d="m18.148 2.0298 0.0953-0.0476"/>
   <path d="m18.243 1.9822 0.0476-0.0476"/>
   <path d="m18.29 1.9346 0.0476-0.0953"/>
   <path d="m18.338 1.8393v-0.0952"/>
   <path d="m18.338 1.7441-0.0476-0.0952"/>
   <path d="m18.29 1.6489-0.0476-0.0477"/>
   <path d="m18.243 1.6012-0.0953-0.0476"/>
   <path d="m18.148 1.5536-0.1905-0.0476"/>
   <path d="m17.957 1.506-0.0952-0.0476"/>
   <path d="m17.862 1.4584-0.0476-0.0476"/>
   <path d="m17.814 1.4108-0.0476-0.0953"/>
   <path d="m17.767 1.3155v-0.0952"/>
   <path d="m17.767 1.2203 0.0476-0.0952"/>
   <path d="m17.814 1.1251 0.0476-0.0477"/>
   <path d="m17.862 1.0774 0.0952-0.0476"/>
   <path d="m17.957 1.0298h0.2381"/>
   <path d="m18.195 1.0298 0.1429 0.0476"/>
   <path d="m18.671 1.0298 0.2381 1"/>
   <path d="m18.91 2.0298 0.1905-0.7143"/>
   <path d="m19.1 1.3155 0.1905 0.7143"/>
   <path d="m19.29 2.0298 0.2381-1"/>
   <path d="m20.433 2.0298h-0.5714"/>
   <path d="m20.148 2.0298v-1"/>
   <path d="m20.148 1.0298-0.0952 0.1429"/>
   <path d="m20.052 1.1727-0.0953 0.0952"/>
   <path d="m19.957 1.2679-0.0952 0.0476"/>
  </g>
 </g>
 <g fill="none" stroke="#8BE9FD" stroke-linecap="round" stroke-linejoin="round" stroke-width=".12">
  <path d="m2.475 21.525v14.2"/>
  <path d="m2.475 35.725h14.2"/>
  <path d="m16.675 21.525h-14.2"/>
  <path d="m16.675 35.725v-14.2"/>
  <path d="m23.906 21.525v14.2"/>
  <path d="m23.906 35.725h14.2"/>
  <path d="m38.106 21.525h-14.2"/>
  <path d="m38.106 35.725v-14.2"/>
  <path d="m12 2.475v14.2"/>
  <path d="m12 16.675h14.2"/>
  <path d="m26.2 2.475h-14.2"/>
  <path d="m26.2 16.675v-14.2"/>
 </g>
 <g fill="#8BE9FD">
  <circle cx="4.495" cy="28.625" r=".875"/>
  <circle cx="9.575" cy="28.625" r="2"/>
  <circle cx="14.655" cy="28.625" r=".875"/>
  <circle cx="5.765" cy="26.085" r=".75"/>
  <circle cx="12.115" cy="23.545" r=".75"/>
  <circle cx="25.926" cy="28.625" r=".875"/>
  <circle cx="31.006" cy="28.625" r="2"/>
  <circle cx="36.086" cy="28.625" r=".875"/>
  <circle cx="27.196" cy="26.085" r=".75"/>
  <circle cx="33.546" cy="23.545" r=".75"/>
  <circle cx="14.02" cy="9.575" r=".875"/>
  <circle cx="19.1" cy="9.575" r="2"/>
  <circle cx="24.18" cy="9.575" r=".875"/>
  <circle cx="15.29" cy="7.035" r=".75"/>
  <circle cx="21.64" cy="4.495" r=".75"/>
 </g>
 <g fill="none" stroke="#BD93F9" stroke-linecap="round" stroke-linejoin="round" stroke-width=".15">
  <g transform="rotate(-90 26.085 13.702)">
   <text transform="scale(-1 1) translate(-52.17)" x="26.0850" y="14.2020" font-size="1.3333" opacity="0" stroke-opacity="0" text-anchor="middle" lengthAdjust="spacingAndGlyphs" textLength="2.2024">D1</text>
  </g>
  <g class="stroked-text">
   <desc>D1</desc>
   <path d="m26.54 12.964h-1"/>
   <path d="m25.54 12.964v0.2381"/>
   <path d="m25.54 13.202 0.0476 0.1429"/>
   <path d="m25.587 13.345 0.0953 0.0952"/>
   <path d="m25.683 13.44 0.0952 0.0476"/>
   <path d="m25.778 13.488 0.1905 0.0476"/>
   <path d="m25.968 13.535h0.1428"/>
   <path d="m26.111 13.535 0.1905-0.0476"/>
   <path d="m26.302 13.488 0.0953-0.0476"/>
   <path d="m26.397 13.44 0.0952-0.0952"/>
   <path d="m26.492 13.345 0.0476-0.1429"/>
   <path d="m26.54 13.202v-0.2381"/>
   <path d="m26.54 14.488v-0.5714"/>
   <path d="m26.54 14.202h-1"/>
   <path d="m25.54 14.202 0.1429-0.0952"/>
   <path d="m25.683 14.107 0.0952-0.0953"/>
   <path d="m25.778 14.012 0.0476-0.0952"/>
  </g>
  <g transform="rotate(-90 16.56 32.752)">
   <text transform="scale(-1 1) translate(-33.12)" x="16.5600" y="33.2520" font-size="1.3333" opacity="0" stroke-opacity="0" text-anchor="middle" lengthAdjust="spacingAndGlyphs" textLength="2.2024">D2</text>
  </g>
  <g class="stroked-text">
   <desc>D2</desc>
   <path d="m17.015 32.014h-1"/>
   <path d="m16.015 32.014v0.2381"/>
   <path d="m16.015 32.252 0.0476 0.1429"/>
   <path d="m16.062 32.395 0.0953 0.0952"/>
   <path d="m16.158 32.49 0.0952 0.0476"/>
   <path d="m16.253 32.538 0.1905 0.0476"/>
   <path d="m16.443 32.585h0.1428"/>
   <path d="m16.586 32.585 0.1905-0.0476"/>
   <path d="m16.777 32.538 0.0953-0.0476"/>
   <path d="m16.872 32.49 0.0952-0.0952"/>
   <path d="m16.967 32.395 0.0476-0.1429"/>
   <path d="m17.015 32.252v-0.2381"/>
   <path d="m16.11 32.966-0.0477 0.0476"/>
   <path d="m16.062 33.014-0.0476 0.0952"/>
   <path d="m16.015 33.109v0.2381"/>
   <path d="m16.015 33.347 0.0476 0.0953"/>
   <path d="m16.062 33.442 0.0477 0.0476"/>
   <path d="m16.11 33.49 0.0952 0.0476"/>
   <path d="m16.205 33.538h0.0952"/>
   <path d="m16.3 33.538 0.1429-0.0476"/>
   <path d="m16.443 33.49 0.5714-0.5714"/>
   <path d="m17.015 32.919v0.619"/>
  </g>
  <g transform="rotate(-90 37.991 32.752)">
   <text transform="scale(-1 1) translate(-75.982)" x="37.9913" y="33.2520" font-size="1.3333" opacity="0" stroke-opacity="0" text-anchor="middle" lengthAdjust="spacingAndGlyphs" textLength="2.2024">D3</text>
  </g>
  <g class="stroked-text">
   <desc>D3</desc>
   <path d="m38.446 32.014h-1"/>
   <path d="m37.446 32.014v0.2381"/>
   <path d="m37.446 32.252 0.0476 0.1429"/>
   <path d="m37.494 32.395 0.0952 0.0952"/>
   <path d="m37.589 32.49 0.0953 0.0476"/>
   <path d="m37.684 32.538 0.1904 0.0476"/>
   <path d="m37.875 32.585h0.1429"/>
   <path d="m38.018 32.585 0.1905-0.0476"/>
   <path d="m38.208 32.538 0.0952-0.0476"/>
   <path d="m38.303 32.49 0.0952-0.0952"/>
   <path d="m38.398 32.395 0.0477-0.1429"/>
   <path d="m38.446 32.252v-0.2381"/>
   <path d="m37.446 32.919v0.619"/>
   <path d="m37.446 33.538 0.3809-0.3333"/>
   <path d="m37.827 33.204v0.1428"/>
   <path d="m37.827 33.347 0.0476 0.0953"/>
   <path d="m37.875 33.442 0.0477 0.0476"/>
   <path d="m37.922 33.49 0.0952 0.0476"/>
   <path d="m38.018 33.538h0.2381"/>
   <path d="m38.256 33.538 0.0952-0.0476"/>
   <path d="m38.351 33.49 0.0476-0.0476"/>
   <path d="m38.398 33.442 0.0477-0.0953"/>
   <path d="m38.446 33.347v-0.2857"/>
   <path d="m38.446 33.062-0.0477-0.0952"/>
   <path d="m38.398 32.966-0.0476-0.0476"/>
  </g>
 </g>
 <g fill="none" stroke="#BD93F9" stroke-linecap="round" stroke-linejoin="round" stroke-width=".12">
  <path d="m23.18 11.925v3.86"/>
  <path d="m23.18 15.785h2"/>
  <path d="m25.18 11.925v3.86"/>
  <path d="m13.655 30.975v3.86"/>
  <path d="m13.655 34.835h2"/>
  <path d="m15.655 30.975v3.86"/>
  <path d="m35.086 30.975v3.86"/>
  <path d="m35.086 34.835h2"/>
  <path d="m37.086 30.975v3.86"/>
 </g>
 <g>
  <g fill="#BD93F9">
   <circle cx="4.495" cy="28.625" r=".875"/>
   <circle cx="9.575" cy="28.625" r="2"/>
   <circle cx="14.655" cy="28.625" r=".875"/>
   <circle cx="5.765" cy="26.085" r=".75"/>
   <circle cx="12.115" cy="23.545" r=".75"/>
   <circle cx="25.926" cy="28.625" r=".875"/>
   <circle cx="31.006" cy="28.625" r="2"/>
   <circle cx="36.086" cy="28.625" r=".875"/>
   <circle cx="27.196" cy="26.085" r=".75"/>
   <circle cx="33.546" cy="23.545" r=".75"/>
   <circle cx="14.02" cy="9.575" r=".875"/>
   <circle cx="19.1" cy="9.575" r="2"/>
   <circle cx="24.18" cy="9.575" r=".875"/>
   <circle cx="15.29" cy="7.035" r=".75"/>
   <circle cx="21.64" cy="4.495" r=".75"/>
  </g>
  <g>
   <circle cx="4.495" cy="28.625" r=".875"/>
   <circle cx="9.575" cy="28.625" r="2"/>
   <circle cx="14.655" cy="28.625" r=".875"/>
   <circle cx="5.765" cy="26.085" r=".75"/>
   <circle cx="12.115" cy="23.545" r=".75"/>
   <circle cx="25.926" cy="28.625" r=".875"/>
   <circle cx="31.006" cy="28.625" r="2"/>
   <circle cx="36.086" cy="28.625" r=".875"/>
   <circle cx="27.196" cy="26.085" r=".75"/>
   <circle cx="33.546" cy="23.545" r=".75"/>
   <circle cx="14.02" cy="9.575" r=".875"/>
   <circle cx="19.1" cy="9.575" r="2"/>
   <circle cx="24.18" cy="9.575" r=".875"/>
   <circle cx="15.29" cy="7.035" r=".75"/>
   <circle cx="21.64" cy="4.495" r=".75"/>
  </g>
  <g fill="#f55">
   <circle cx="5.765" cy="26.085" r="1.25"/>
   <circle cx="12.115" cy="23.545" r="1.25"/>
   <circle cx="27.196" cy="26.085" r="1.25"/>
   <circle cx="33.546" cy="23.545" r="1.25"/>
   <circle cx="15.29" cy="7.035" r="1.25"/>
   <circle cx="21.64" cy="4.495" r="1.25"/>
  </g>
  <g fill="#fff">
   <circle cx="4.495" cy="28.625" r=".875"/>
   <circle cx="9.575" cy="28.625" r="2"/>
   <circle cx="14.655" cy="28.625" r=".875"/>
   <circle cx="5.765" cy="26.085" r=".75"/>
   <circle cx="12.115" cy="23.545" r=".75"/>
   <circle cx="25.926" cy="28.625" r=".875"/>
   <circle cx="31.006" cy="28.625" r="2"/>
   <circle cx="36.086" cy="28.625" r=".875"/>
   <circle cx="27.196" cy="26.085" r=".75"/>
   <circle cx="33.546" cy="23.545" r=".75"/>
   <circle cx="14.02" cy="9.575" r=".875"/>
   <circle cx="19.1" cy="9.575" r="2"/>
   <circle cx="24.18" cy="9.575" r=".875"/>
   <circle cx="15.29" cy="7.035" r=".75"/>
   <circle cx="21.64" cy="4.495" r=".75"/>
  </g>
  <g fill="#50FA7B">
   <circle cx="5.765" cy="26.085" r="1.25"/>
   <circle cx="12.115" cy="23.545" r="1.25"/>
   <circle cx="27.196" cy="26.085" r="1.25"/>
   <circle cx="33.546" cy="23.545" r="1.25"/>
   <circle cx="15.29" cy="7.035" r="1.25"/>
   <circle cx="21.64" cy="4.495" r="1.25"/>
   <g fill="#50FA7B" fill-rule="evenodd">
    <path d="m23.88 15.525-0.0957-0.019-0.0811-0.0542-0.0542-0.0811-0.019-0.0957v-0.6l0.019-0.0957 0.0542-0.0811 0.0811-0.0542 0.0957-0.019h0.6l0.0957 0.019 0.0811 0.0542 0.0542 0.0811 0.019 0.0957v0.6l-0.019 0.0957-0.0542 0.0811-0.0811 0.0542-0.0957 0.019z"/>
    <path d="m23.88 12.725-0.0957-0.019-0.0811-0.0542-0.0542-0.0811-0.019-0.0957v-0.6l0.019-0.0957 0.0542-0.0811 0.0811-0.0542 0.0957-0.019h0.6l0.0957 0.019 0.0811 0.0542 0.0542 0.0811 0.019 0.0957v0.6l-0.019 0.0957-0.0542 0.0811-0.0811 0.0542-0.0957 0.019z"/>
    <path d="m14.355 34.575-0.0957-0.019-0.0811-0.0542-0.0542-0.0811-0.019-0.0957v-0.6l0.019-0.0957 0.0542-0.0811 0.0811-0.0542 0.0957-0.019h0.6l0.0957 0.019 0.0811 0.0542 0.0542 0.0811 0.019 0.0957v0.6l-0.019 0.0957-0.0542 0.0811-0.0811 0.0542-0.0957 0.019z"/>
    <path d="m14.355 31.775-0.0957-0.019-0.0811-0.0542-0.0542-0.0811-0.019-0.0957v-0.6l0.019-0.0957 0.0542-0.0811 0.0811-0.0542 0.0957-0.019h0.6l0.0957 0.019 0.0811 0.0542 0.0542 0.0811 0.019 0.0957v0.6l-0.019 0.0957-0.0542 0.0811-0.0811 0.0542-0.0957 0.019z"/>
    <path d="m35.786 34.575-0.0956-0.019-0.0811-0.0542-0.0542-0.0811-0.0191-0.0957v-0.6l0.0191-0.0957 0.0542-0.0811 0.0811-0.0542 0.0956-0.019h0.6l0.0957 0.019 0.0811 0.0542 0.0542 0.0811 0.019 0.0957v0.6l-0.019 0.0957-0.0542 0.0811-0.0811 0.0542-0.0957 0.019z"/>
    <path d="m35.786 31.775-0.0956-0.019-0.0811-0.0542-0.0542-0.0811-0.0191-0.0957v-0.6l0.0191-0.0957 0.0542-0.0811 0.0811-0.0542 0.0956-0.019h0.6l0.0957 0.019 0.0811 0.0542 0.0542 0.0811 0.019 0.0957v0.6l-0.019 0.0957-0.0542 0.0811-0.0811 0.0542-0.0957 0.019z"/>
   </g>
  </g>
 </g>
 <g fill="none" stroke="#50FA7B" stroke-linecap="round" stroke-linejoin="round" stroke-width=".2">
  <path d="m21.64 9.635 2.54 2.54"/>
  <path d="m21.64 4.495v5.14"/>
  <path d="m12.115 23.545v5.14"/>
  <path d="m12.115 28.685 2.54 2.54"/>
  <path d="m33.546 23.545v5.14"/>
  <path d="m33.546 28.685 2.5399 2.54"/>
  <path d="m14.655 34.025 9.525-9.525"/>
  <path d="m24.18 24.5v-9.525"/>
  <path d="m14.655 34.025h21.431"/>
 </g>
 <g fill="#fff">
  <circle cx="4.495" cy="28.625" r=".875"/>
  <circle cx="9.575" cy="28.625" r="2"/>
  <circle cx="14.655" cy="28.625" r=".875"/>
  <circle cx="5.765" cy="26.085" r=".75"/>
  <circle cx="12.115" cy="23.545" r=".75"/>
  <circle cx="25.926" cy="28.625" r=".875"/>
  <circle cx="31.006" cy="28.625" r="2"/>
  <circle cx="36.086" cy="28.625" r=".875"/>
  <circle cx="27.196" cy="26.085" r=".75"/>
  <circle cx="33.546" cy="23.545" r=".75"/>
  <circle cx="14.02" cy="9.575" r=".875"/>
  <circle cx="19.1" cy="9.575" r="2"/>
  <circle cx="24.18" cy="9.575" r=".875"/>
  <circle cx="15.29" cy="7.035" r=".75"/>
  <circle cx="21.64" cy="4.495" r=".75"/>
 </g>
</svg>
