<?xml version="1.0" encoding="UTF-8"?>
<!DOCTYPE svg  PUBLIC '-//W3C//DTD SVG 1.1//EN'  'http://www.w3.org/Graphics/SVG/1.1/DTD/svg11.dtd'>
<svg width="95.326mm" height="28.651mm" version="1.1" viewBox="0 0 95.326 28.651" xmlns="http://www.w3.org/2000/svg">
 <title>SVG Image created as trainPad-render.svg date 2026/07/14 10:54:14</title>
 <desc>Image generated by PCBNEW</desc>
 <rect width="95.326mm" height="28.651mm" fill="#282A36"/>
 <g fill="#f55">
  <circle cx="81.965" cy="11.798" r="1.25"/>
  <circle cx="88.315" cy="9.2575" r="1.25"/>
  <circle cx="62.915" cy="11.798" r="1.25"/>
  <circle cx="69.265" cy="9.2575" r="1.25"/>
  <circle cx="43.865" cy="11.798" r="1.25"/>
  <circle cx="50.215" cy="9.2575" r="1.25"/>
  <circle cx="21.64" cy="8.1463" r="1.25"/>
  <circle cx="24.18" cy="14.496" r="1.25"/>
 </g>
 <g fill="#50FA7B">
  <circle cx="81.965" cy="11.798" r="1.25"/>
  <circle cx="88.315" cy="9.2575" r="1.25"/>
  <circle cx="62.915" cy="11.798" r="1.25"/>
  <circle cx="69.265" cy="9.2575" r="1.25"/>
  <circle cx="43.865" cy="11.798" r="1.25"/>
  <circle cx="50.215" cy="9.2575" r="1.25"/>
  <circle cx="21.64" cy="8.1463" r="1.25"/>
  <circle cx="24.18" cy="14.496" r="1.25"/>
  <g fill="#50FA7B" fill-rule="evenodd">
   <path d="m71.505 20.288-0.0957-0.019-0.0811-0.0542-0.0542-0.0811-0.019-0.0957v-0.6l0.019-0.0957 0.0542-0.0811 0.0811-0.0542 0.0957-0.019h0.6l0.0957 0.019 0.0811 0.0542 0.0542 0.0811 0.019 0.0957v0.6l-0.019 0.0957-0.0542 0.0811-0.0811 0.0542-0.0957 0.019z"/>
   <path d="m71.505 17.488-0.0957-0.019-0.0811-0.0542-0.0542-0.0811-0.019-0.0957v-0.6l0.019-0.0957 0.0542-0.0811 0.0811-0.0542 0.0957-0.019h0.6l0.0957 0.019 0.0811 0.0542 0.0542 0.0811 0.019 0.0957v0.6l-0.019 0.0957-0.0542 0.0811-0.0811 0.0542-0.0957 0.019z"/>
   <path d="m90.555 20.288-0.0957-0.019-0.0811-0.0542-0.0542-0.0811-0.019-0.0957v-0.6l0.019-0.0957 0.0542-0.0811 0.0811-0.0542 0.0957-0.019h0.6l0.0957 0.019 0.0811 0.0542 0.0542 0.0811 0.019 0.0957v0.6l-0.019 0.0957-0.0542 0.0811-0.0811 0.0542-0.0957 0.019z"/>
   <path d="m90.555 17.488-0.0957-0.019-0.0811-0.0542-0.0542-0.0811-0.019-0.0957v-0.6l0.019-0.0957 0.0542-0.0811 0.0811-0.0542 0.0957-0.019h0.6l0.0957 0.019 0.0811 0.0542 0.0542 0.0811 0.019 0.0957v0.6l-0.019 0.0957-0.0542 0.0811-0.0811 0.0542-0.0957 0.019z"/>
   <path d="m13.15 16.736 0.019-0.0956 0.0542-0.0811 0.0811-0.0542 0.0957-0.0191h0.6l0.0957 0.0191 0.0811 0.0542 0.0542 0.0811 0.019 0.0956v0.6l-0.019 0.0957-0.0542 0.0811-0.0811 0.0542-0.0957 0.019h-0.6l-0.0957-0.019-0.0811-0.0542-0.0542-0.0811-0.019-0.0957z"/>
   <path d="m15.95 16.736 0.019-0.0956 0.0542-0.0811 0.0811-0.0542 0.0957-0.0191h0.6l0.0957 0.0191 0.0811 0.0542 0.0542 0.0811 0.019 0.0956v0.6l-0.019 0.0957-0.0542 0.0811-0.0811 0.0542-0.0957 0.019h-0.6l-0.0957-0.019-0.0811-0.0542-0.0542-0.0811-0.019-0.0957z"/>
   <path d="m52.455 20.288-0.0957-0.019-0.0811-0.0542-0.0542-0.0811-0.019-0.0957v-0.6l0.019-0.0957 0.0542-0.0811 0.0811-0.0542 0.0957-0.019h0.6l0.0957 0.019 0.0811 0.0542 0.0542 0.0811 0.019 0.0957v0.6l-0.019 0.0957-0.0542 0.0811-0.0811 0.0542-0.0957 0.019z"/>
   <path d="m52.455 17.488-0.0957-0.019-0.0811-0.0542-0.0542-0.0811-0.019-0.0957v-0.6l0.019-0.0957 0.0542-0.0811 0.0811-0.0542 0.0957-0.019h0.6l0.0957 0.019 0.0811 0.0542 0.0542 0.0811 0.019 0.0957v0.6l-0.019 0.0957-0.0542 0.0811-0.0811 0.0542-0.0957 0.019z"/>
  </g>
 </g>
 <g fill="none" stroke-linecap="round" stroke-linejoin="round">
  <g stroke="#50FA7B" stroke-width=".2">
   <path d="m19.04 14.496-2.54 2.54"/>
   <path d="m24.18 14.496h-5.14"/>
   <path d="m50.215 9.2575v5.14"/>
   <path d="m50.215 14.398 2.54 2.54"/>
   <path d="m69.265 14.398 2.54 2.54"/>
   <path d="m69.265 9.2575v5.14"/>
   <path d="m88.315 14.398 2.54 2.54"/>
   <path d="m88.315 9.2575v5.14"/>
   <path d="m52.755 19.738h19.05"/>
   <path d="m71.805 19.738h19.05"/>
  </g>
  <g stroke="#8BE9FD" stroke-width=".15">
   <text x="19.1000" y="14.4562" font-size="1.3333" opacity="0" stroke-opacity="0" text-anchor="middle" lengthAdjust="spacingAndGlyphs" textLength="2.9167">ST1</text>
   <g class="stroked-text">
    <desc>ST1</desc>
    <path d="m17.957 14.363 0.1429 0.0477"/>
    <path d="m18.1 14.411h0.2381"/>
    <path d="m18.338 14.411 0.0952-0.0477"/>
    <path d="m18.433 14.363 0.0477-0.0476"/>
    <path d="m18.481 14.316 0.0476-0.0952"/>
    <path d="m18.529 14.221v-0.0952"/>
    <path d="m18.529 14.125-0.0476-0.0953"/>
    <path d="m18.481 14.03-0.0477-0.0476"/>
    <path d="m18.433 13.982-0.0952-0.0476"/>
    <path d="m18.338 13.935-0.1905-0.0476"/>
    <path d="m18.148 13.887-0.0952-0.0477"/>
    <path d="m18.052 13.84-0.0476-0.0476"/>
    <path d="m18.005 13.792-0.0477-0.0952"/>
    <path d="m17.957 13.697v-0.0953"/>
    <path d="m17.957 13.602 0.0477-0.0952"/>
    <path d="m18.005 13.506 0.0476-0.0476"/>
    <path d="m18.052 13.459 0.0952-0.0476"/>
    <path d="m18.148 13.411h0.2381"/>
    <path d="m18.386 13.411 0.1429 0.0476"/>
    <path d="m18.814 13.411h0.5714"/>
    <path d="m19.1 14.411v-1"/>
    <path d="m20.243 14.411h-0.5715"/>
    <path d="m19.957 14.411v-1"/>
    <path d="m19.957 13.411-0.0952 0.1428"/>
    <path d="m19.862 13.554-0.0952 0.0953"/>
    <path d="m19.767 13.649-0.0953 0.0476"/>
   </g>
   <text x="85.7750" y="6.8375" font-size="1.3333" opacity="0" stroke-opacity="0" text-anchor="middle" lengthAdjust="spacingAndGlyphs" textLength="3.2976">SW4</text>
   <g class="stroked-text">
    <desc>SW4</desc>
    <path d="m84.442 6.7447 0.1428 0.0476"/>
    <path d="m84.584 6.7923h0.2381"/>
    <path d="m84.823 6.7923 0.0953-0.0476"/>
    <path d="m84.918 6.7447 0.0476-0.0476"/>
    <path d="m84.966 6.6971 0.0476-0.0953"/>
    <path d="m85.013 6.6018v-0.0952"/>
    <path d="m85.013 6.5066-0.0476-0.0952"/>
    <path d="m84.966 6.4114-0.0476-0.0477"/>
    <path d="m84.918 6.3637-0.0953-0.0476"/>
    <path d="m84.823 6.3161-0.1905-0.0476"/>
    <path d="m84.632 6.2685-0.0952-0.0476"/>
    <path d="m84.537 6.2209-0.0476-0.0476"/>
    <path d="m84.489 6.1733-0.0476-0.0953"/>
    <path d="m84.442 6.078v-0.0952"/>
    <path d="m84.442 5.9828 0.0476-0.0952"/>
    <path d="m84.489 5.8876 0.0476-0.0477"/>
    <path d="m84.537 5.8399 0.0952-0.0476"/>
    <path d="m84.632 5.7923h0.2381"/>
    <path d="m84.87 5.7923 0.1429 0.0476"/>
    <path d="m85.346 5.7923 0.2381 1"/>
    <path d="m85.584 6.7923 0.1905-0.7143"/>
    <path d="m85.775 6.078 0.1905 0.7143"/>
    <path d="m85.966 6.7923 0.2381-1"/>
    <path d="m87.013 6.1257v0.6666"/>
    <path d="m86.775 5.7447-0.2381 0.7143"/>
    <path d="m86.537 6.459h0.6191"/>
   </g>
   <text x="66.7250" y="6.8375" font-size="1.3333" opacity="0" stroke-opacity="0" text-anchor="middle" lengthAdjust="spacingAndGlyphs" textLength="3.2976">SW3</text>
   <g class="stroked-text">
    <desc>SW3</desc>
    <path d="m65.392 6.7447 0.1428 0.0476"/>
    <path d="m65.534 6.7923h0.2381"/>
    <path d="m65.773 6.7923 0.0953-0.0476"/>
    <path d="m65.868 6.7447 0.0476-0.0476"/>
    <path d="m65.916 6.6971 0.0476-0.0953"/>
    <path d="m65.963 6.6018v-0.0952"/>
    <path d="m65.963 6.5066-0.0476-0.0952"/>
    <path d="m65.916 6.4114-0.0476-0.0477"/>
    <path d="m65.868 6.3637-0.0953-0.0476"/>
    <path d="m65.773 6.3161-0.1905-0.0476"/>
    <path d="m65.582 6.2685-0.0952-0.0476"/>
    <path d="m65.487 6.2209-0.0476-0.0476"/>
    <path d="m65.439 6.1733-0.0476-0.0953"/>
    <path d="m65.392 6.078v-0.0952"/>
    <path d="m65.392 5.9828 0.0476-0.0952"/>
    <path d="m65.439 5.8876 0.0476-0.0477"/>
    <path d="m65.487 5.8399 0.0952-0.0476"/>
    <path d="m65.582 5.7923h0.2381"/>
    <path d="m65.82 5.7923 0.1429 0.0476"/>
    <path d="m66.296 5.7923 0.2381 1"/>
    <path d="m66.534 6.7923 0.1905-0.7143"/>
    <path d="m66.725 6.078 0.1905 0.7143"/>
    <path d="m66.916 6.7923 0.2381-1"/>
    <path d="m67.439 5.7923h0.619"/>
    <path d="m68.058 5.7923-0.3333 0.381"/>
    <path d="m67.725 6.1733h0.1429"/>
    <path d="m67.868 6.1733 0.0952 0.0476"/>
    <path d="m67.963 6.2209 0.0476 0.0476"/>
    <path d="m68.011 6.2685 0.0476 0.0952"/>
    <path d="m68.058 6.3637v0.2381"/>
    <path d="m68.058 6.6018-0.0476 0.0953"/>
    <path d="m68.011 6.6971-0.0476 0.0476"/>
    <path d="m67.963 6.7447-0.0952 0.0476"/>
    <path d="m67.868 6.7923h-0.2858"/>
    <path d="m67.582 6.7923-0.0952-0.0476"/>
    <path d="m67.487 6.7447-0.0476-0.0476"/>
   </g>
   <text x="47.6750" y="6.8375" font-size="1.3333" opacity="0" stroke-opacity="0" text-anchor="middle" lengthAdjust="spacingAndGlyphs" textLength="3.2976">SW2</text>
   <g class="stroked-text">
    <desc>SW2</desc>
    <path d="m46.342 6.7447 0.1428 0.0476"/>
    <path d="m46.484 6.7923h0.2381"/>
    <path d="m46.723 6.7923 0.0953-0.0476"/>
    <path d="m46.818 6.7447 0.0476-0.0476"/>
    <path d="m46.866 6.6971 0.0476-0.0953"/>
    <path d="m46.913 6.6018v-0.0952"/>
    <path d="m46.913 6.5066-0.0476-0.0952"/>
    <path d="m46.866 6.4114-0.0476-0.0477"/>
    <path d="m46.818 6.3637-0.0953-0.0476"/>
    <path d="m46.723 6.3161-0.1905-0.0476"/>
    <path d="m46.532 6.2685-0.0952-0.0476"/>
    <path d="m46.437 6.2209-0.0476-0.0476"/>
    <path d="m46.389 6.1733-0.0476-0.0953"/>
    <path d="m46.342 6.078v-0.0952"/>
    <path d="m46.342 5.9828 0.0476-0.0952"/>
    <path d="m46.389 5.8876 0.0476-0.0477"/>
    <path d="m46.437 5.8399 0.0952-0.0476"/>
    <path d="m46.532 5.7923h0.2381"/>
    <path d="m46.77 5.7923 0.1429 0.0476"/>
    <path d="m47.246 5.7923 0.2381 1"/>
    <path d="m47.484 6.7923 0.1905-0.7143"/>
    <path d="m47.675 6.078 0.1905 0.7143"/>
    <path d="m47.866 6.7923 0.2381-1"/>
    <path d="m48.437 5.8876 0.0476-0.0477"/>
    <path d="m48.484 5.8399 0.0953-0.0476"/>
    <path d="m48.58 5.7923h0.2381"/>
    <path d="m48.818 5.7923 0.0952 0.0476"/>
    <path d="m48.913 5.8399 0.0476 0.0477"/>
    <path d="m48.961 5.8876 0.0476 0.0952"/>
    <path d="m49.008 5.9828v0.0952"/>
    <path d="m49.008 6.078-0.0476 0.1429"/>
    <path d="m48.961 6.2209-0.5714 0.5714"/>
    <path d="m48.389 6.7923h0.619"/>
   </g>
   <g transform="rotate(-90 27.1 11.956)">
    <text x="27.1000" y="12.4562" font-size="1.3333" opacity="0" stroke-opacity="0" text-anchor="middle" lengthAdjust="spacingAndGlyphs" textLength="3.2976">SW1</text>
   </g>
   <g class="stroked-text">
    <desc>SW1</desc>
    <path d="m27.507 13.29 0.0476-0.1429"/>
    <path d="m27.555 13.147v-0.2381"/>
    <path d="m27.555 12.909-0.0476-0.0952"/>
    <path d="m27.507 12.813-0.0476-0.0476"/>
    <path d="m27.46 12.766-0.0953-0.0476"/>
    <path d="m27.364 12.718h-0.0952"/>
    <path d="m27.269 12.718-0.0952 0.0476"/>
    <path d="m27.174 12.766-0.0477 0.0476"/>
    <path d="m27.126 12.813-0.0476 0.0952"/>
    <path d="m27.079 12.909-0.0476 0.1905"/>
    <path d="m27.031 13.099-0.0476 0.0952"/>
    <path d="m26.983 13.194-0.0476 0.0477"/>
    <path d="m26.936 13.242-0.0953 0.0476"/>
    <path d="m26.84 13.29h-0.0952"/>
    <path d="m26.745 13.29-0.0952-0.0476"/>
    <path d="m26.65 13.242-0.0477-0.0477"/>
    <path d="m26.602 13.194-0.0476-0.0952"/>
    <path d="m26.555 13.099v-0.2381"/>
    <path d="m26.555 12.861 0.0476-0.1428"/>
    <path d="m26.555 12.385 1-0.2381"/>
    <path d="m27.555 12.147-0.7143-0.1905"/>
    <path d="m26.84 11.956 0.7143-0.1904"/>
    <path d="m27.555 11.766-1-0.2381"/>
    <path d="m27.555 10.623v0.5714"/>
    <path d="m27.555 10.909h-1"/>
    <path d="m26.555 10.909 0.1429 0.0953"/>
    <path d="m26.698 11.004 0.0952 0.0952"/>
    <path d="m26.793 11.099 0.0476 0.0952"/>
   </g>
  </g>
  <g stroke="#8BE9FD" stroke-width=".12">
   <path d="m78.675 7.2375v14.2"/>
   <path d="m78.675 21.438h14.2"/>
   <path d="m92.875 7.2375h-14.2"/>
   <path d="m92.875 21.438v-14.2"/>
   <path d="m59.625 7.2375v14.2"/>
   <path d="m59.625 21.438h14.2"/>
   <path d="m73.825 7.2375h-14.2"/>
   <path d="m73.825 21.438v-14.2"/>
   <path d="m40.575 7.2375v14.2"/>
   <path d="m40.575 21.438h14.2"/>
   <path d="m54.775 7.2375h-14.2"/>
   <path d="m54.775 21.438v-14.2"/>
   <path d="m12 4.8563v14.2"/>
   <path d="m12 19.056h14.2"/>
   <path d="m26.2 4.8563h-14.2"/>
   <path d="m26.2 19.056v-14.2"/>
  </g>
  <g stroke="#BD93F9" stroke-width=".15">
   <g transform="rotate(-90 73.71 18.464)">
    <text transform="scale(-1 1) translate(-147.42)" x="73.7100" y="18.9645" font-size="1.3333" opacity="0" stroke-opacity="0" text-anchor="middle" lengthAdjust="spacingAndGlyphs" textLength="2.2024">D3</text>
   </g>
   <g class="stroked-text">
    <desc>D3</desc>
    <path d="m74.165 17.726h-1"/>
    <path d="m73.165 17.726v0.2381"/>
    <path d="m73.165 17.964 0.0476 0.1429"/>
    <path d="m73.212 18.107 0.0953 0.0952"/>
    <path d="m73.308 18.203 0.0952 0.0476"/>
    <path d="m73.403 18.25 0.1905 0.0476"/>
    <path d="m73.593 18.298h0.1428"/>
    <path d="m73.736 18.298 0.1905-0.0476"/>
    <path d="m73.927 18.25 0.0953-0.0476"/>
    <path d="m74.022 18.203 0.0952-0.0952"/>
    <path d="m74.117 18.107 0.0476-0.1429"/>
    <path d="m74.165 17.964v-0.2381"/>
    <path d="m73.165 18.631v0.619"/>
    <path d="m73.165 19.25 0.381-0.3333"/>
    <path d="m73.546 18.917v0.1428"/>
    <path d="m73.546 19.06 0.0476 0.0953"/>
    <path d="m73.593 19.155 0.0476 0.0476"/>
    <path d="m73.641 19.203 0.0952 0.0476"/>
    <path d="m73.736 19.25h0.2381"/>
    <path d="m73.974 19.25 0.0953-0.0476"/>
    <path d="m74.07 19.203 0.0476-0.0476"/>
    <path d="m74.117 19.155 0.0476-0.0953"/>
    <path d="m74.165 19.06v-0.2857"/>
    <path d="m74.165 18.774-0.0476-0.0952"/>
    <path d="m74.117 18.679-0.0476-0.0476"/>
   </g>
   <g transform="rotate(-90 92.76 18.464)">
    <text transform="scale(-1 1) translate(-185.52)" x="92.7600" y="18.9645" font-size="1.3333" opacity="0" stroke-opacity="0" text-anchor="middle" lengthAdjust="spacingAndGlyphs" textLength="2.2024">D4</text>
   </g>
   <g class="stroked-text">
    <desc>D4</desc>
    <path d="m93.215 17.726h-1"/>
    <path d="m92.215 17.726v0.2381"/>
    <path d="m92.215 17.964 0.0476 0.1429"/>
    <path d="m92.262 18.107 0.0953 0.0952"/>
    <path d="m92.358 18.203 0.0952 0.0476"/>
    <path d="m92.453 18.25 0.1905 0.0476"/>
    <path d="m92.643 18.298h0.1428"/>
    <path d="m92.786 18.298 0.1905-0.0476"/>
    <path d="m92.977 18.25 0.0953-0.0476"/>
    <path d="m93.072 18.203 0.0952-0.0952"/>
    <path d="m93.167 18.107 0.0476-0.1429"/>
    <path d="m93.215 17.964v-0.2381"/>
    <path d="m92.548 19.155h0.6666"/>
    <path d="m92.167 18.917 0.7143-0.2381"/>
    <path d="m92.882 18.679v0.619"/>
   </g>
   <text transform="scale(-1 1) translate(-29.946)" x="14.9730" y="19.4413" font-size="1.3333" opacity="0" stroke-opacity="0" text-anchor="middle" lengthAdjust="spacingAndGlyphs" textLength="2.2024">D1</text>
   <g class="stroked-text">
    <desc>D1</desc>
    <path d="m15.711 19.396v-1"/>
    <path d="m15.711 18.396h-0.2381"/>
    <path d="m15.473 18.396-0.1429 0.0476"/>
    <path d="m15.33 18.444-0.0952 0.0952"/>
    <path d="m15.235 18.539-0.0476 0.0953"/>
    <path d="m15.187 18.634-0.0476 0.1904"/>
    <path d="m15.14 18.825v0.1429"/>
    <path d="m15.14 18.968 0.0476 0.1905"/>
    <path d="m15.187 19.158 0.0476 0.0952"/>
    <path d="m15.235 19.253 0.0952 0.0952"/>
    <path d="m15.33 19.348 0.1429 0.0477"/>
    <path d="m15.473 19.396h0.2381"/>
    <path d="m14.187 19.396h0.5714"/>
    <path d="m14.473 19.396v-1"/>
    <path d="m14.473 18.396 0.0952 0.1428"/>
    <path d="m14.568 18.539 0.0953 0.0953"/>
    <path d="m14.664 18.634 0.0952 0.0476"/>
   </g>
   <g transform="rotate(-90 54.66 18.464)">
    <text transform="scale(-1 1) translate(-109.32)" x="54.6600" y="18.9645" font-size="1.3333" opacity="0" stroke-opacity="0" text-anchor="middle" lengthAdjust="spacingAndGlyphs" textLength="2.2024">D2</text>
   </g>
   <g class="stroked-text">
    <desc>D2</desc>
    <path d="m55.115 17.726h-1"/>
    <path d="m54.115 17.726v0.2381"/>
    <path d="m54.115 17.964 0.0476 0.1429"/>
    <path d="m54.162 18.107 0.0953 0.0952"/>
    <path d="m54.258 18.203 0.0952 0.0476"/>
    <path d="m54.353 18.25 0.1905 0.0476"/>
    <path d="m54.543 18.298h0.1428"/>
    <path d="m54.686 18.298 0.1905-0.0476"/>
    <path d="m54.877 18.25 0.0953-0.0476"/>
    <path d="m54.972 18.203 0.0952-0.0952"/>
    <path d="m55.067 18.107 0.0476-0.1429"/>
    <path d="m55.115 17.964v-0.2381"/>
    <path d="m54.21 18.679-0.0477 0.0476"/>
    <path d="m54.162 18.726-0.0476 0.0952"/>
    <path d="m54.115 18.822v0.2381"/>
    <path d="m54.115 19.06 0.0476 0.0953"/>
    <path d="m54.162 19.155 0.0477 0.0476"/>
    <path d="m54.21 19.203 0.0952 0.0476"/>
    <path d="m54.305 19.25h0.0952"/>
    <path d="m54.4 19.25 0.1429-0.0476"/>
    <path d="m54.543 19.203 0.5714-0.5714"/>
    <path d="m55.115 18.631v0.619"/>
   </g>
  </g>
  <g stroke="#BD93F9" stroke-width=".12">
   <path d="m70.805 20.548v-3.86"/>
   <path d="m72.805 20.548h-2"/>
   <path d="m72.805 20.548v-3.86"/>
   <path d="m89.855 20.548v-3.86"/>
   <path d="m91.855 20.548h-2"/>
   <path d="m91.855 20.548v-3.86"/>
   <path d="m12.89 16.036h3.86"/>
   <path d="m12.89 18.036v-2"/>
   <path d="m12.89 18.036h3.86"/>
   <path d="m51.755 20.548v-3.86"/>
   <path d="m53.755 20.548h-2"/>
   <path d="m53.755 20.548v-3.86"/>
  </g>
 </g>
 <g fill="#fff">
  <circle cx="31.038" cy="18.941" r="1.524"/>
  <circle cx="31.038" cy="3.7312" r="1.9939"/>
  <circle cx="7.162" cy="18.941" r="1.524"/>
  <circle cx="7.162" cy="3.7312" r="1.9939"/>
  <circle cx="80.695" cy="14.338" r=".875"/>
  <circle cx="85.775" cy="14.338" r="2"/>
  <circle cx="90.855" cy="14.338" r=".875"/>
  <circle cx="81.965" cy="11.798" r=".75"/>
  <circle cx="88.315" cy="9.2575" r=".75"/>
  <circle cx="61.645" cy="14.338" r=".875"/>
  <circle cx="66.725" cy="14.338" r="2"/>
  <circle cx="71.805" cy="14.338" r=".875"/>
  <circle cx="62.915" cy="11.798" r=".75"/>
  <circle cx="69.265" cy="9.2575" r=".75"/>
  <circle cx="42.595" cy="14.338" r=".875"/>
  <circle cx="47.675" cy="14.338" r="2"/>
  <circle cx="52.755" cy="14.338" r=".875"/>
  <circle cx="43.865" cy="11.798" r=".75"/>
  <circle cx="50.215" cy="9.2575" r=".75"/>
  <circle cx="19.1" cy="6.8762" r=".875"/>
  <circle cx="19.1" cy="11.956" r="2"/>
  <circle cx="19.1" cy="17.036" r=".875"/>
  <circle cx="21.64" cy="8.1463" r=".75"/>
  <circle cx="24.18" cy="14.496" r=".75"/>
 </g>
</svg>
