<?xml version="1.0" encoding="UTF-8"?>
<!DOCTYPE svg  PUBLIC '-//W3C//DTD SVG 1.1//EN'  'http://www.w3.org/Graphics/SVG/1.1/DTD/svg11.dtd'>
<svg width="142.95mm" height="66.751mm" version="1.1" viewBox="0 0 142.95 66.751" xmlns="http://www.w3.org/2000/svg">
 <title>SVG Image created as wazowski-23-19-rev0-render.svg date 2025/09/05 18:34:11</title>
 <desc>Image generated by PCBNEW</desc>
 <rect width="142.95mm" height="66.751mm" fill="#282A36"/>
 <g fill="none" stroke="#8BE9FD" stroke-linecap="round" stroke-linejoin="round" stroke-width=".15">
  <text x="90.5375" y="30.6500" font-size="1.3333" opacity="0" stroke-opacity="0" text-anchor="middle" lengthAdjust="spacingAndGlyphs" textLength="3.2976">SW9</text>
  <g class="stroked-text">
   <desc>SW9</desc>
   <path d="m89.204 30.557 0.1428 0.0476"/>
   <path d="m89.347 30.605h0.2381"/>
   <path d="m89.585 30.605 0.0953-0.0476"/>
   <path d="m89.68 30.557 0.0476-0.0476"/>
   <path d="m89.728 30.51 0.0476-0.0953"/>
   <path d="m89.776 30.414v-0.0952"/>
   <path d="m89.776 30.319-0.0476-0.0952"/>
   <path d="m89.728 30.224-0.0476-0.0477"/>
   <path d="m89.68 30.176-0.0953-0.0476"/>
   <path d="m89.585 30.129-0.1905-0.0476"/>
   <path d="m89.395 30.081-0.0952-0.0476"/>
   <path d="m89.299 30.033-0.0476-0.0476"/>
   <path d="m89.252 29.986-0.0476-0.0953"/>
   <path d="m89.204 29.89v-0.0952"/>
   <path d="m89.204 29.795 0.0476-0.0952"/>
   <path d="m89.252 29.7 0.0476-0.0477"/>
   <path d="m89.299 29.652 0.0952-0.0476"/>
   <path d="m89.395 29.605h0.2381"/>
   <path d="m89.633 29.605 0.1429 0.0476"/>
   <path d="m90.109 29.605 0.2381 1"/>
   <path d="m90.347 30.605 0.1905-0.7143"/>
   <path d="m90.538 29.89 0.1905 0.7143"/>
   <path d="m90.728 30.605 0.2381-1"/>
   <path d="m91.395 30.605h0.1905"/>
   <path d="m91.585 30.605 0.0953-0.0476"/>
   <path d="m91.68 30.557 0.0476-0.0476"/>
   <path d="m91.728 30.51 0.0952-0.1429"/>
   <path d="m91.823 30.367 0.0476-0.1905"/>
   <path d="m91.871 30.176v-0.3809"/>
   <path d="m91.871 29.795-0.0476-0.0952"/>
   <path d="m91.823 29.7-0.0476-0.0477"/>
   <path d="m91.776 29.652-0.0952-0.0476"/>
   <path d="m91.68 29.605h-0.1905"/>
   <path d="m91.49 29.605-0.0953 0.0476"/>
   <path d="m91.395 29.652-0.0476 0.0477"/>
   <path d="m91.347 29.7-0.0476 0.0952"/>
   <path d="m91.299 29.795v0.2381"/>
   <path d="m91.299 30.033 0.0476 0.0952"/>
   <path d="m91.347 30.129 0.0476 0.0476"/>
   <path d="m91.395 30.176 0.0953 0.0477"/>
   <path d="m91.49 30.224h0.1905"/>
   <path d="m91.68 30.224 0.0952-0.0477"/>
   <path d="m91.776 30.176 0.0476-0.0476"/>
   <path d="m91.823 30.129 0.0476-0.0952"/>
  </g>
  <text x="9.5750" y="37.7937" font-size="1.3333" opacity="0" stroke-opacity="0" text-anchor="middle" lengthAdjust="spacingAndGlyphs" textLength="3.2976">SW6</text>
  <g class="stroked-text">
   <desc>SW6</desc>
   <path d="m8.2417 37.701 0.1428 0.0477"/>
   <path d="m8.3845 37.749h0.2381"/>
   <path d="m8.6226 37.749 0.0953-0.0477"/>
   <path d="m8.7179 37.701 0.0476-0.0476"/>
   <path d="m8.7655 37.653 0.0476-0.0952"/>
   <path d="m8.8131 37.558v-0.0952"/>
   <path d="m8.8131 37.463-0.0476-0.0953"/>
   <path d="m8.7655 37.368-0.0476-0.0476"/>
   <path d="m8.7179 37.32-0.0953-0.0476"/>
   <path d="m8.6226 37.272-0.1905-0.0476"/>
   <path d="m8.4321 37.225-0.0952-0.0477"/>
   <path d="m8.3369 37.177-0.0476-0.0476"/>
   <path d="m8.2893 37.13-0.0476-0.0952"/>
   <path d="m8.2417 37.034v-0.0953"/>
   <path d="m8.2417 36.939 0.0476-0.0952"/>
   <path d="m8.2893 36.844 0.0476-0.0476"/>
   <path d="m8.3369 36.796 0.0952-0.0476"/>
   <path d="m8.4321 36.749h0.2381"/>
   <path d="m8.6702 36.749 0.1429 0.0476"/>
   <path d="m9.1464 36.749 0.2381 1"/>
   <path d="m9.3845 37.749 0.1905-0.7143"/>
   <path d="m9.575 37.034 0.1905 0.7143"/>
   <path d="m9.7655 37.749 0.2381-1"/>
   <path d="m10.813 36.749h-0.1905"/>
   <path d="m10.623 36.749-0.0952 0.0476"/>
   <path d="m10.527 36.796-0.0476 0.0476"/>
   <path d="m10.48 36.844-0.0953 0.1429"/>
   <path d="m10.384 36.987-0.0476 0.1904"/>
   <path d="m10.337 37.177v0.381"/>
   <path d="m10.337 37.558 0.0476 0.0952"/>
   <path d="m10.384 37.653 0.0476 0.0476"/>
   <path d="m10.432 37.701 0.0953 0.0477"/>
   <path d="m10.527 37.749h0.1905"/>
   <path d="m10.718 37.749 0.0952-0.0477"/>
   <path d="m10.813 37.701 0.0476-0.0476"/>
   <path d="m10.861 37.653 0.0476-0.0952"/>
   <path d="m10.908 37.558v-0.2381"/>
   <path d="m10.908 37.32-0.0476-0.0952"/>
   <path d="m10.861 37.225-0.0476-0.0477"/>
   <path d="m10.813 37.177-0.0952-0.0476"/>
   <path d="m10.718 37.13h-0.1905"/>
   <path d="m10.527 37.13-0.0953 0.0476"/>
   <path d="m10.432 37.177-0.0476 0.0477"/>
   <path d="m10.384 37.225-0.0476 0.0952"/>
  </g>
  <text x="54.8187" y="49.7000" font-size="1.3333" opacity="0" stroke-opacity="0" text-anchor="middle" lengthAdjust="spacingAndGlyphs" textLength="4.2500">SW12</text>
  <g class="stroked-text">
   <desc>SW12</desc>
   <path d="m53.009 49.607 0.1429 0.0476"/>
   <path d="m53.152 49.655h0.2381"/>
   <path d="m53.39 49.655 0.0952-0.0476"/>
   <path d="m53.485 49.607 0.0476-0.0476"/>
   <path d="m53.533 49.56 0.0477-0.0953"/>
   <path d="m53.581 49.464v-0.0952"/>
   <path d="m53.581 49.369-0.0477-0.0952"/>
   <path d="m53.533 49.274-0.0476-0.0477"/>
   <path d="m53.485 49.226-0.0952-0.0476"/>
   <path d="m53.39 49.179-0.1905-0.0476"/>
   <path d="m53.2 49.131-0.0952-0.0476"/>
   <path d="m53.104 49.083-0.0477-0.0476"/>
   <path d="m53.057 49.036-0.0476-0.0953"/>
   <path d="m53.009 48.94v-0.0952"/>
   <path d="m53.009 48.845 0.0476-0.0952"/>
   <path d="m53.057 48.75 0.0477-0.0477"/>
   <path d="m53.104 48.702 0.0952-0.0476"/>
   <path d="m53.2 48.655h0.2381"/>
   <path d="m53.438 48.655 0.1429 0.0476"/>
   <path d="m53.914 48.655 0.2381 1"/>
   <path d="m54.152 49.655 0.1905-0.7143"/>
   <path d="m54.343 48.94 0.1904 0.7143"/>
   <path d="m54.533 49.655 0.2381-1"/>
   <path d="m55.676 49.655h-0.5714"/>
   <path d="m55.39 49.655v-1"/>
   <path d="m55.39 48.655-0.0953 0.1429"/>
   <path d="m55.295 48.798-0.0952 0.0952"/>
   <path d="m55.2 48.893-0.0952 0.0476"/>
   <path d="m56.057 48.75 0.0477-0.0477"/>
   <path d="m56.104 48.702 0.0952-0.0476"/>
   <path d="m56.2 48.655h0.2381"/>
   <path d="m56.438 48.655 0.0952 0.0476"/>
   <path d="m56.533 48.702 0.0477 0.0477"/>
   <path d="m56.581 48.75 0.0476 0.0952"/>
   <path d="m56.628 48.845v0.0952"/>
   <path d="m56.628 48.94-0.0476 0.1429"/>
   <path d="m56.581 49.083-0.5715 0.5714"/>
   <path d="m56.009 49.655h0.6191"/>
  </g>
  <text x="90.5375" y="11.6000" font-size="1.3333" opacity="0" stroke-opacity="0" text-anchor="middle" lengthAdjust="spacingAndGlyphs" textLength="3.2976">SW4</text>
  <g class="stroked-text">
   <desc>SW4</desc>
   <path d="m89.204 11.507 0.1428 0.0476"/>
   <path d="m89.347 11.555h0.2381"/>
   <path d="m89.585 11.555 0.0953-0.0476"/>
   <path d="m89.68 11.507 0.0476-0.0476"/>
   <path d="m89.728 11.46 0.0476-0.0953"/>
   <path d="m89.776 11.364v-0.0952"/>
   <path d="m89.776 11.269-0.0476-0.0952"/>
   <path d="m89.728 11.174-0.0476-0.0477"/>
   <path d="m89.68 11.126-0.0953-0.0476"/>
   <path d="m89.585 11.079-0.1905-0.0476"/>
   <path d="m89.395 11.031-0.0952-0.0476"/>
   <path d="m89.299 10.983-0.0476-0.0476"/>
   <path d="m89.252 10.936-0.0476-0.0953"/>
   <path d="m89.204 10.84v-0.0952"/>
   <path d="m89.204 10.745 0.0476-0.0952"/>
   <path d="m89.252 10.65 0.0476-0.0477"/>
   <path d="m89.299 10.602 0.0952-0.0476"/>
   <path d="m89.395 10.555h0.2381"/>
   <path d="m89.633 10.555 0.1429 0.0476"/>
   <path d="m90.109 10.555 0.2381 1"/>
   <path d="m90.347 11.555 0.1905-0.7143"/>
   <path d="m90.538 10.84 0.1905 0.7143"/>
   <path d="m90.728 11.555 0.2381-1"/>
   <path d="m91.776 10.888v0.6666"/>
   <path d="m91.538 10.507-0.2381 0.7143"/>
   <path d="m91.299 11.222h0.6191"/>
  </g>
  <text x="45.2937" y="30.6500" font-size="1.3333" opacity="0" stroke-opacity="0" text-anchor="middle" lengthAdjust="spacingAndGlyphs" textLength="3.2976">SW7</text>
  <g class="stroked-text">
   <desc>SW7</desc>
   <path d="m43.96 30.557 0.1429 0.0476"/>
   <path d="m44.103 30.605h0.2381"/>
   <path d="m44.341 30.605 0.0952-0.0476"/>
   <path d="m44.437 30.557 0.0476-0.0476"/>
   <path d="m44.484 30.51 0.0476-0.0953"/>
   <path d="m44.532 30.414v-0.0952"/>
   <path d="m44.532 30.319-0.0476-0.0952"/>
   <path d="m44.484 30.224-0.0476-0.0477"/>
   <path d="m44.437 30.176-0.0952-0.0476"/>
   <path d="m44.341 30.129-0.1905-0.0476"/>
   <path d="m44.151 30.081-0.0952-0.0476"/>
   <path d="m44.056 30.033-0.0477-0.0476"/>
   <path d="m44.008 29.986-0.0476-0.0953"/>
   <path d="m43.96 29.89v-0.0952"/>
   <path d="m43.96 29.795 0.0476-0.0952"/>
   <path d="m44.008 29.7 0.0477-0.0477"/>
   <path d="m44.056 29.652 0.0952-0.0476"/>
   <path d="m44.151 29.605h0.2381"/>
   <path d="m44.389 29.605 0.1428 0.0476"/>
   <path d="m44.865 29.605 0.2381 1"/>
   <path d="m45.103 30.605 0.1904-0.7143"/>
   <path d="m45.294 29.89 0.1905 0.7143"/>
   <path d="m45.484 30.605 0.2381-1"/>
   <path d="m46.008 29.605h0.6667"/>
   <path d="m46.675 29.605-0.4286 1"/>
  </g>
  <text x="71.4875" y="11.6000" font-size="1.3333" opacity="0" stroke-opacity="0" text-anchor="middle" lengthAdjust="spacingAndGlyphs" textLength="3.2976">SW3</text>
  <g class="stroked-text">
   <desc>SW3</desc>
   <path d="m70.154 11.507 0.1428 0.0476"/>
   <path d="m70.297 11.555h0.2381"/>
   <path d="m70.535 11.555 0.0953-0.0476"/>
   <path d="m70.63 11.507 0.0476-0.0476"/>
   <path d="m70.678 11.46 0.0476-0.0953"/>
   <path d="m70.726 11.364v-0.0952"/>
   <path d="m70.726 11.269-0.0476-0.0952"/>
   <path d="m70.678 11.174-0.0476-0.0477"/>
   <path d="m70.63 11.126-0.0953-0.0476"/>
   <path d="m70.535 11.079-0.1905-0.0476"/>
   <path d="m70.345 11.031-0.0952-0.0476"/>
   <path d="m70.249 10.983-0.0476-0.0476"/>
   <path d="m70.202 10.936-0.0476-0.0953"/>
   <path d="m70.154 10.84v-0.0952"/>
   <path d="m70.154 10.745 0.0476-0.0952"/>
   <path d="m70.202 10.65 0.0476-0.0477"/>
   <path d="m70.249 10.602 0.0952-0.0476"/>
   <path d="m70.345 10.555h0.2381"/>
   <path d="m70.583 10.555 0.1429 0.0476"/>
   <path d="m71.059 10.555 0.2381 1"/>
   <path d="m71.297 11.555 0.1905-0.7143"/>
   <path d="m71.488 10.84 0.1905 0.7143"/>
   <path d="m71.678 11.555 0.2381-1"/>
   <path d="m72.202 10.555h0.619"/>
   <path d="m72.821 10.555-0.3333 0.381"/>
   <path d="m72.488 10.936h0.1429"/>
   <path d="m72.63 10.936 0.0952 0.0476"/>
   <path d="m72.726 10.983 0.0476 0.0476"/>
   <path d="m72.773 11.031 0.0476 0.0952"/>
   <path d="m72.821 11.126v0.2381"/>
   <path d="m72.821 11.364-0.0476 0.0953"/>
   <path d="m72.773 11.46-0.0476 0.0476"/>
   <path d="m72.726 11.507-0.0952 0.0476"/>
   <path d="m72.63 11.555h-0.2858"/>
   <path d="m72.345 11.555-0.0952-0.0476"/>
   <path d="m72.249 11.507-0.0476-0.0476"/>
  </g>
  <text x="114.3500" y="25.8875" font-size="1.3333" opacity="0" stroke-opacity="0" text-anchor="middle" lengthAdjust="spacingAndGlyphs" textLength="4.2500">SW10</text>
  <g class="stroked-text">
   <desc>SW10</desc>
   <path d="m112.54 25.795 0.1428 0.0476"/>
   <path d="m112.68 25.842h0.2381"/>
   <path d="m112.92 25.842 0.0953-0.0476"/>
   <path d="m113.02 25.795 0.0476-0.0476"/>
   <path d="m113.06 25.747 0.0476-0.0953"/>
   <path d="m113.11 25.652v-0.0952"/>
   <path d="m113.11 25.557-0.0476-0.0952"/>
   <path d="m113.06 25.461-0.0476-0.0477"/>
   <path d="m113.02 25.414-0.0953-0.0476"/>
   <path d="m112.92 25.366-0.1904-0.0476"/>
   <path d="m112.73 25.318-0.0953-0.0476"/>
   <path d="m112.64 25.271-0.0476-0.0476"/>
   <path d="m112.59 25.223-0.0476-0.0953"/>
   <path d="m112.54 25.128v-0.0952"/>
   <path d="m112.54 25.033 0.0476-0.0952"/>
   <path d="m112.59 24.938 0.0476-0.0477"/>
   <path d="m112.64 24.89 0.0953-0.0476"/>
   <path d="m112.73 24.842h0.238"/>
   <path d="m112.97 24.842 0.1429 0.0476"/>
   <path d="m113.45 24.842 0.2381 1"/>
   <path d="m113.68 25.842 0.1905-0.7143"/>
   <path d="m113.87 25.128 0.1905 0.7143"/>
   <path d="m114.06 25.842 0.2381-1"/>
   <path d="m115.21 25.842h-0.5714"/>
   <path d="m114.92 25.842v-1"/>
   <path d="m114.92 24.842-0.0952 0.1429"/>
   <path d="m114.83 24.985-0.0952 0.0952"/>
   <path d="m114.73 25.08-0.0953 0.0476"/>
   <path d="m115.83 24.842h0.0952"/>
   <path d="m115.92 24.842 0.0953 0.0476"/>
   <path d="m116.02 24.89 0.0476 0.0477"/>
   <path d="m116.06 24.938 0.0476 0.0952"/>
   <path d="m116.11 25.033 0.0476 0.1905"/>
   <path d="m116.16 25.223v0.2381"/>
   <path d="m116.16 25.461-0.0476 0.1904"/>
   <path d="m116.11 25.652-0.0476 0.0953"/>
   <path d="m116.06 25.747-0.0476 0.0476"/>
   <path d="m116.02 25.795-0.0953 0.0476"/>
   <path d="m115.92 25.842h-0.0952"/>
   <path d="m115.83 25.842-0.0952-0.0476"/>
   <path d="m115.73 25.795-0.0477-0.0476"/>
   <path d="m115.68 25.747-0.0476-0.0953"/>
   <path d="m115.64 25.652-0.0476-0.1904"/>
   <path d="m115.59 25.461v-0.2381"/>
   <path d="m115.59 25.223 0.0476-0.1905"/>
   <path d="m115.64 25.033 0.0476-0.0952"/>
   <path d="m115.68 24.938 0.0477-0.0477"/>
   <path d="m115.73 24.89 0.0952-0.0476"/>
  </g>
  <text x="52.4375" y="11.6000" font-size="1.3333" opacity="0" stroke-opacity="0" text-anchor="middle" lengthAdjust="spacingAndGlyphs" textLength="3.2976">SW2</text>
  <g class="stroked-text">
   <desc>SW2</desc>
   <path d="m51.104 11.507 0.1428 0.0476"/>
   <path d="m51.247 11.555h0.2381"/>
   <path d="m51.485 11.555 0.0953-0.0476"/>
   <path d="m51.58 11.507 0.0476-0.0476"/>
   <path d="m51.628 11.46 0.0476-0.0953"/>
   <path d="m51.676 11.364v-0.0952"/>
   <path d="m51.676 11.269-0.0476-0.0952"/>
   <path d="m51.628 11.174-0.0476-0.0477"/>
   <path d="m51.58 11.126-0.0953-0.0476"/>
   <path d="m51.485 11.079-0.1905-0.0476"/>
   <path d="m51.295 11.031-0.0952-0.0476"/>
   <path d="m51.199 10.983-0.0476-0.0476"/>
   <path d="m51.152 10.936-0.0476-0.0953"/>
   <path d="m51.104 10.84v-0.0952"/>
   <path d="m51.104 10.745 0.0476-0.0952"/>
   <path d="m51.152 10.65 0.0476-0.0477"/>
   <path d="m51.199 10.602 0.0952-0.0476"/>
   <path d="m51.295 10.555h0.2381"/>
   <path d="m51.533 10.555 0.1429 0.0476"/>
   <path d="m52.009 10.555 0.2381 1"/>
   <path d="m52.247 11.555 0.1905-0.7143"/>
   <path d="m52.438 10.84 0.1905 0.7143"/>
   <path d="m52.628 11.555 0.2381-1"/>
   <path d="m53.199 10.65 0.0476-0.0477"/>
   <path d="m53.247 10.602 0.0953-0.0476"/>
   <path d="m53.342 10.555h0.2381"/>
   <path d="m53.58 10.555 0.0952 0.0476"/>
   <path d="m53.676 10.602 0.0476 0.0477"/>
   <path d="m53.723 10.65 0.0476 0.0952"/>
   <path d="m53.771 10.745v0.0952"/>
   <path d="m53.771 10.84-0.0476 0.1429"/>
   <path d="m53.723 10.983-0.5714 0.5714"/>
   <path d="m53.152 11.555h0.619"/>
  </g>
  <text x="21.4812" y="2.0750" font-size="1.3333" opacity="0" stroke-opacity="0" text-anchor="middle" lengthAdjust="spacingAndGlyphs" textLength="3.2976">SW1</text>
  <g class="stroked-text">
   <desc>SW1</desc>
   <path d="m20.148 1.9822 0.1429 0.0476"/>
   <path d="m20.291 2.0298h0.2381"/>
   <path d="m20.529 2.0298 0.0952-0.0476"/>
   <path d="m20.624 1.9822 0.0476-0.0476"/>
   <path d="m20.672 1.9346 0.0476-0.0953"/>
   <path d="m20.719 1.8393v-0.0952"/>
   <path d="m20.719 1.7441-0.0476-0.0952"/>
   <path d="m20.672 1.6489-0.0476-0.0477"/>
   <path d="m20.624 1.6012-0.0952-0.0476"/>
   <path d="m20.529 1.5536-0.1905-0.0476"/>
   <path d="m20.338 1.506-0.0952-0.0476"/>
   <path d="m20.243 1.4584-0.0477-0.0476"/>
   <path d="m20.196 1.4108-0.0476-0.0953"/>
   <path d="m20.148 1.3155v-0.0952"/>
   <path d="m20.148 1.2203 0.0476-0.0952"/>
   <path d="m20.196 1.1251 0.0477-0.0477"/>
   <path d="m20.243 1.0774 0.0952-0.0476"/>
   <path d="m20.338 1.0298h0.2381"/>
   <path d="m20.576 1.0298 0.1428 0.0476"/>
   <path d="m21.053 1.0298 0.2381 1"/>
   <path d="m21.291 2.0298 0.1904-0.7143"/>
   <path d="m21.481 1.3155 0.1905 0.7143"/>
   <path d="m21.672 2.0298 0.2381-1"/>
   <path d="m22.815 2.0298h-0.5714"/>
   <path d="m22.529 2.0298v-1"/>
   <path d="m22.529 1.0298-0.0953 0.1429"/>
   <path d="m22.434 1.1727-0.0952 0.0952"/>
   <path d="m22.338 1.2679-0.0952 0.0476"/>
  </g>
  <text x="71.4875" y="30.6500" font-size="1.3333" opacity="0" stroke-opacity="0" text-anchor="middle" lengthAdjust="spacingAndGlyphs" textLength="3.2976">SW8</text>
  <g class="stroked-text">
   <desc>SW8</desc>
   <path d="m70.154 30.557 0.1428 0.0476"/>
   <path d="m70.297 30.605h0.2381"/>
   <path d="m70.535 30.605 0.0953-0.0476"/>
   <path d="m70.63 30.557 0.0476-0.0476"/>
   <path d="m70.678 30.51 0.0476-0.0953"/>
   <path d="m70.726 30.414v-0.0952"/>
   <path d="m70.726 30.319-0.0476-0.0952"/>
   <path d="m70.678 30.224-0.0476-0.0477"/>
   <path d="m70.63 30.176-0.0953-0.0476"/>
   <path d="m70.535 30.129-0.1905-0.0476"/>
   <path d="m70.345 30.081-0.0952-0.0476"/>
   <path d="m70.249 30.033-0.0476-0.0476"/>
   <path d="m70.202 29.986-0.0476-0.0953"/>
   <path d="m70.154 29.89v-0.0952"/>
   <path d="m70.154 29.795 0.0476-0.0952"/>
   <path d="m70.202 29.7 0.0476-0.0477"/>
   <path d="m70.249 29.652 0.0952-0.0476"/>
   <path d="m70.345 29.605h0.2381"/>
   <path d="m70.583 29.605 0.1429 0.0476"/>
   <path d="m71.059 29.605 0.2381 1"/>
   <path d="m71.297 30.605 0.1905-0.7143"/>
   <path d="m71.488 29.89 0.1905 0.7143"/>
   <path d="m71.678 30.605 0.2381-1"/>
   <path d="m72.44 30.033-0.0953-0.0476"/>
   <path d="m72.345 29.986-0.0476-0.0476"/>
   <path d="m72.297 29.938-0.0476-0.0953"/>
   <path d="m72.249 29.843v-0.0476"/>
   <path d="m72.249 29.795 0.0476-0.0952"/>
   <path d="m72.297 29.7 0.0476-0.0477"/>
   <path d="m72.345 29.652 0.0953-0.0476"/>
   <path d="m72.44 29.605h0.1905"/>
   <path d="m72.63 29.605 0.0952 0.0476"/>
   <path d="m72.726 29.652 0.0476 0.0477"/>
   <path d="m72.773 29.7 0.0476 0.0952"/>
   <path d="m72.821 29.795v0.0476"/>
   <path d="m72.821 29.843-0.0476 0.0953"/>
   <path d="m72.773 29.938-0.0476 0.0476"/>
   <path d="m72.726 29.986-0.0952 0.0476"/>
   <path d="m72.63 30.033h-0.1905"/>
   <path d="m72.44 30.033-0.0953 0.0476"/>
   <path d="m72.345 30.081-0.0476 0.0476"/>
   <path d="m72.297 30.129-0.0476 0.0953"/>
   <path d="m72.249 30.224v0.1904"/>
   <path d="m72.249 30.414 0.0476 0.0953"/>
   <path d="m72.297 30.51 0.0476 0.0476"/>
   <path d="m72.345 30.557 0.0953 0.0476"/>
   <path d="m72.44 30.605h0.1905"/>
   <path d="m72.63 30.605 0.0952-0.0476"/>
   <path d="m72.726 30.557 0.0476-0.0476"/>
   <path d="m72.773 30.51 0.0476-0.0953"/>
   <path d="m72.821 30.414v-0.1904"/>
   <path d="m72.821 30.224-0.0476-0.0953"/>
   <path d="m72.773 30.129-0.0476-0.0476"/>
   <path d="m72.726 30.081-0.0952-0.0476"/>
  </g>
  <text x="123.8750" y="49.7000" font-size="1.3333" opacity="0" stroke-opacity="0" text-anchor="middle" lengthAdjust="spacingAndGlyphs" textLength="3.2976">SW5</text>
  <g class="stroked-text">
   <desc>SW5</desc>
   <path d="m122.54 49.607 0.1428 0.0476"/>
   <path d="m122.68 49.655h0.2381"/>
   <path d="m122.92 49.655 0.0953-0.0476"/>
   <path d="m123.02 49.607 0.0476-0.0476"/>
   <path d="m123.07 49.56 0.0476-0.0953"/>
   <path d="m123.11 49.464v-0.0952"/>
   <path d="m123.11 49.369-0.0476-0.0952"/>
   <path d="m123.07 49.274-0.0476-0.0477"/>
   <path d="m123.02 49.226-0.0953-0.0476"/>
   <path d="m122.92 49.179-0.1905-0.0476"/>
   <path d="m122.73 49.131-0.0952-0.0476"/>
   <path d="m122.64 49.083-0.0476-0.0476"/>
   <path d="m122.59 49.036-0.0476-0.0953"/>
   <path d="m122.54 48.94v-0.0952"/>
   <path d="m122.54 48.845 0.0476-0.0952"/>
   <path d="m122.59 48.75 0.0476-0.0477"/>
   <path d="m122.64 48.702 0.0952-0.0476"/>
   <path d="m122.73 48.655h0.2381"/>
   <path d="m122.97 48.655 0.1429 0.0476"/>
   <path d="m123.45 48.655 0.2381 1"/>
   <path d="m123.68 49.655 0.1905-0.7143"/>
   <path d="m123.88 48.94 0.1905 0.7143"/>
   <path d="m124.07 49.655 0.2381-1"/>
   <path d="m125.16 48.655h-0.4762"/>
   <path d="m124.68 48.655-0.0476 0.4762"/>
   <path d="m124.64 49.131 0.0476-0.0476"/>
   <path d="m124.68 49.083 0.0953-0.0476"/>
   <path d="m124.78 49.036h0.2381"/>
   <path d="m125.02 49.036 0.0952 0.0476"/>
   <path d="m125.11 49.083 0.0476 0.0476"/>
   <path d="m125.16 49.131 0.0476 0.0952"/>
   <path d="m125.21 49.226v0.2381"/>
   <path d="m125.21 49.464-0.0476 0.0953"/>
   <path d="m125.16 49.56-0.0476 0.0476"/>
   <path d="m125.11 49.607-0.0952 0.0476"/>
   <path d="m125.02 49.655h-0.2381"/>
   <path d="m124.78 49.655-0.0953-0.0476"/>
   <path d="m124.68 49.607-0.0476-0.0476"/>
  </g>
  <text x="28.6250" y="49.7000" font-size="1.3333" opacity="0" stroke-opacity="0" text-anchor="middle" lengthAdjust="spacingAndGlyphs" textLength="4.2500">SW11</text>
  <g class="stroked-text">
   <desc>SW11</desc>
   <path d="m26.816 49.607 0.1428 0.0476"/>
   <path d="m26.958 49.655h0.2381"/>
   <path d="m27.196 49.655 0.0953-0.0476"/>
   <path d="m27.292 49.607 0.0476-0.0476"/>
   <path d="m27.339 49.56 0.0476-0.0953"/>
   <path d="m27.387 49.464v-0.0952"/>
   <path d="m27.387 49.369-0.0476-0.0952"/>
   <path d="m27.339 49.274-0.0476-0.0477"/>
   <path d="m27.292 49.226-0.0953-0.0476"/>
   <path d="m27.196 49.179-0.1904-0.0476"/>
   <path d="m27.006 49.131-0.0953-0.0476"/>
   <path d="m26.911 49.083-0.0476-0.0476"/>
   <path d="m26.863 49.036-0.0476-0.0953"/>
   <path d="m26.816 48.94v-0.0952"/>
   <path d="m26.816 48.845 0.0476-0.0952"/>
   <path d="m26.863 48.75 0.0476-0.0477"/>
   <path d="m26.911 48.702 0.0953-0.0476"/>
   <path d="m27.006 48.655h0.238"/>
   <path d="m27.244 48.655 0.1429 0.0476"/>
   <path d="m27.72 48.655 0.2381 1"/>
   <path d="m27.958 49.655 0.1905-0.7143"/>
   <path d="m28.149 48.94 0.1905 0.7143"/>
   <path d="m28.339 49.655 0.2381-1"/>
   <path d="m29.482 49.655h-0.5714"/>
   <path d="m29.196 49.655v-1"/>
   <path d="m29.196 48.655-0.0952 0.1429"/>
   <path d="m29.101 48.798-0.0952 0.0952"/>
   <path d="m29.006 48.893-0.0953 0.0476"/>
   <path d="m30.434 49.655h-0.5714"/>
   <path d="m30.149 49.655v-1"/>
   <path d="m30.149 48.655-0.0952 0.1429"/>
   <path d="m30.054 48.798-0.0953 0.0952"/>
   <path d="m29.958 48.893-0.0952 0.0476"/>
  </g>
  <text x="133.4000" y="25.8875" font-size="1.3333" opacity="0" stroke-opacity="0" text-anchor="middle" lengthAdjust="spacingAndGlyphs" textLength="4.2500">SW14</text>
  <g class="stroked-text">
   <desc>SW14</desc>
   <path d="m131.59 25.795 0.1428 0.0476"/>
   <path d="m131.73 25.842h0.2381"/>
   <path d="m131.97 25.842 0.0953-0.0476"/>
   <path d="m132.07 25.795 0.0476-0.0476"/>
   <path d="m132.11 25.747 0.0476-0.0953"/>
   <path d="m132.16 25.652v-0.0952"/>
   <path d="m132.16 25.557-0.0476-0.0952"/>
   <path d="m132.11 25.461-0.0476-0.0477"/>
   <path d="m132.07 25.414-0.0953-0.0476"/>
   <path d="m131.97 25.366-0.1904-0.0476"/>
   <path d="m131.78 25.318-0.0953-0.0476"/>
   <path d="m131.69 25.271-0.0476-0.0476"/>
   <path d="m131.64 25.223-0.0476-0.0953"/>
   <path d="m131.59 25.128v-0.0952"/>
   <path d="m131.59 25.033 0.0476-0.0952"/>
   <path d="m131.64 24.938 0.0476-0.0477"/>
   <path d="m131.69 24.89 0.0953-0.0476"/>
   <path d="m131.78 24.842h0.238"/>
   <path d="m132.02 24.842 0.1429 0.0476"/>
   <path d="m132.5 24.842 0.2381 1"/>
   <path d="m132.73 25.842 0.1905-0.7143"/>
   <path d="m132.92 25.128 0.1905 0.7143"/>
   <path d="m133.11 25.842 0.2381-1"/>
   <path d="m134.26 25.842h-0.5714"/>
   <path d="m133.97 25.842v-1"/>
   <path d="m133.97 24.842-0.0952 0.1429"/>
   <path d="m133.88 24.985-0.0952 0.0952"/>
   <path d="m133.78 25.08-0.0953 0.0476"/>
   <path d="m135.11 25.176v0.6666"/>
   <path d="m134.88 24.795-0.2381 0.7143"/>
   <path d="m134.64 25.509h0.619"/>
  </g>
  <text x="123.8750" y="2.0750" font-size="1.3333" opacity="0" stroke-opacity="0" text-anchor="middle" lengthAdjust="spacingAndGlyphs" textLength="4.2500">SW13</text>
  <g class="stroked-text">
   <desc>SW13</desc>
   <path d="m122.07 1.9822 0.1428 0.0476"/>
   <path d="m122.21 2.0298h0.2381"/>
   <path d="m122.45 2.0298 0.0953-0.0476"/>
   <path d="m122.54 1.9822 0.0476-0.0476"/>
   <path d="m122.59 1.9346 0.0476-0.0953"/>
   <path d="m122.64 1.8393v-0.0952"/>
   <path d="m122.64 1.7441-0.0476-0.0952"/>
   <path d="m122.59 1.6489-0.0476-0.0477"/>
   <path d="m122.54 1.6012-0.0953-0.0476"/>
   <path d="m122.45 1.5536-0.1904-0.0476"/>
   <path d="m122.26 1.506-0.0953-0.0476"/>
   <path d="m122.16 1.4584-0.0476-0.0476"/>
   <path d="m122.11 1.4108-0.0476-0.0953"/>
   <path d="m122.07 1.3155v-0.0952"/>
   <path d="m122.07 1.2203 0.0476-0.0952"/>
   <path d="m122.11 1.1251 0.0476-0.0477"/>
   <path d="m122.16 1.0774 0.0953-0.0476"/>
   <path d="m122.26 1.0298h0.238"/>
   <path d="m122.49 1.0298 0.1429 0.0476"/>
   <path d="m122.97 1.0298 0.2381 1"/>
   <path d="m123.21 2.0298 0.1905-0.7143"/>
   <path d="m123.4 1.3155 0.1905 0.7143"/>
   <path d="m123.59 2.0298 0.2381-1"/>
   <path d="m124.73 2.0298h-0.5714"/>
   <path d="m124.45 2.0298v-1"/>
   <path d="m124.45 1.0298-0.0952 0.1429"/>
   <path d="m124.35 1.1727-0.0952 0.0952"/>
   <path d="m124.26 1.2679-0.0953 0.0476"/>
   <path d="m125.07 1.0298h0.619"/>
   <path d="m125.68 1.0298-0.3333 0.381"/>
   <path d="m125.35 1.4108h0.1428"/>
   <path d="m125.49 1.4108 0.0953 0.0476"/>
   <path d="m125.59 1.4584 0.0476 0.0476"/>
   <path d="m125.64 1.506 0.0476 0.0952"/>
   <path d="m125.68 1.6012v0.2381"/>
   <path d="m125.68 1.8393-0.0476 0.0953"/>
   <path d="m125.64 1.9346-0.0476 0.0476"/>
   <path d="m125.59 1.9822-0.0953 0.0476"/>
   <path d="m125.49 2.0298h-0.2857"/>
   <path d="m125.21 2.0298-0.0952-0.0476"/>
   <path d="m125.11 1.9822-0.0476-0.0476"/>
  </g>
 </g>
 <g fill="none" stroke="#8BE9FD" stroke-linecap="round" stroke-linejoin="round" stroke-width=".12">
  <path d="m83.438 31.05v14.2"/>
  <path d="m83.438 45.25h14.2"/>
  <path d="m97.638 31.05h-14.2"/>
  <path d="m97.638 45.25v-14.2"/>
  <path d="m2.475 38.194v14.2"/>
  <path d="m2.475 52.394h14.2"/>
  <path d="m16.675 38.194h-14.2"/>
  <path d="m16.675 52.394v-14.2"/>
  <path d="m47.719 50.1v14.2"/>
  <path d="m47.719 64.3h14.2"/>
  <path d="m61.919 50.1h-14.2"/>
  <path d="m61.919 64.3v-14.2"/>
  <path d="m83.438 12v14.2"/>
  <path d="m83.438 26.2h14.2"/>
  <path d="m97.638 12h-14.2"/>
  <path d="m97.638 26.2v-14.2"/>
  <path d="m38.194 31.05v14.2"/>
  <path d="m38.194 45.25h14.2"/>
  <path d="m52.394 31.05h-14.2"/>
  <path d="m52.394 45.25v-14.2"/>
  <path d="m64.388 12v14.2"/>
  <path d="m64.388 26.2h14.2"/>
  <path d="m78.588 12h-14.2"/>
  <path d="m78.588 26.2v-14.2"/>
  <path d="m107.25 26.288v14.2"/>
  <path d="m107.25 40.488h14.2"/>
  <path d="m121.45 26.288h-14.2"/>
  <path d="m121.45 40.488v-14.2"/>
  <path d="m45.338 12v14.2"/>
  <path d="m45.338 26.2h14.2"/>
  <path d="m59.538 12h-14.2"/>
  <path d="m59.538 26.2v-14.2"/>
  <path d="m14.381 2.475v14.2"/>
  <path d="m14.381 16.675h14.2"/>
  <path d="m28.581 2.475h-14.2"/>
  <path d="m28.581 16.675v-14.2"/>
  <path d="m64.388 31.05v14.2"/>
  <path d="m64.388 45.25h14.2"/>
  <path d="m78.588 31.05h-14.2"/>
  <path d="m78.588 45.25v-14.2"/>
  <path d="m116.78 50.1v14.2"/>
  <path d="m116.78 64.3h14.2"/>
  <path d="m130.98 50.1h-14.2"/>
  <path d="m130.98 64.3v-14.2"/>
  <path d="m21.525 50.1v14.2"/>
  <path d="m21.525 64.3h14.2"/>
  <path d="m35.725 50.1h-14.2"/>
  <path d="m35.725 64.3v-14.2"/>
  <path d="m126.3 26.288v14.2"/>
  <path d="m126.3 40.488h14.2"/>
  <path d="m140.5 26.288h-14.2"/>
  <path d="m140.5 40.488v-14.2"/>
  <path d="m116.78 2.475v14.2"/>
  <path d="m116.78 16.675h14.2"/>
  <path d="m130.98 2.475h-14.2"/>
  <path d="m130.98 16.675v-14.2"/>
 </g>
 <g fill="#8BE9FD">
  <circle cx="85.458" cy="38.15" r=".875"/>
  <circle cx="90.538" cy="38.15" r="2"/>
  <circle cx="95.618" cy="38.15" r=".875"/>
  <circle cx="86.728" cy="35.61" r=".75"/>
  <circle cx="93.078" cy="33.07" r=".75"/>
  <circle cx="4.495" cy="45.294" r=".875"/>
  <circle cx="9.575" cy="45.294" r="2"/>
  <circle cx="14.655" cy="45.294" r=".875"/>
  <circle cx="5.765" cy="42.754" r=".75"/>
  <circle cx="12.115" cy="40.214" r=".75"/>
  <circle cx="49.739" cy="57.2" r=".875"/>
  <circle cx="54.819" cy="57.2" r="2"/>
  <circle cx="59.899" cy="57.2" r=".875"/>
  <circle cx="51.009" cy="54.66" r=".75"/>
  <circle cx="57.359" cy="52.12" r=".75"/>
  <circle cx="85.458" cy="19.1" r=".875"/>
  <circle cx="90.538" cy="19.1" r="2"/>
  <circle cx="95.618" cy="19.1" r=".875"/>
  <circle cx="86.728" cy="16.56" r=".75"/>
  <circle cx="93.078" cy="14.02" r=".75"/>
  <circle cx="40.214" cy="38.15" r=".875"/>
  <circle cx="45.294" cy="38.15" r="2"/>
  <circle cx="50.374" cy="38.15" r=".875"/>
  <circle cx="41.484" cy="35.61" r=".75"/>
  <circle cx="47.834" cy="33.07" r=".75"/>
  <circle cx="66.408" cy="19.1" r=".875"/>
  <circle cx="71.488" cy="19.1" r="2"/>
  <circle cx="76.568" cy="19.1" r=".875"/>
  <circle cx="67.678" cy="16.56" r=".75"/>
  <circle cx="74.028" cy="14.02" r=".75"/>
  <circle cx="109.27" cy="33.388" r=".875"/>
  <circle cx="114.35" cy="33.388" r="2"/>
  <circle cx="119.43" cy="33.388" r=".875"/>
  <circle cx="110.54" cy="30.848" r=".75"/>
  <circle cx="116.89" cy="28.308" r=".75"/>
  <circle cx="47.358" cy="19.1" r=".875"/>
  <circle cx="52.438" cy="19.1" r="2"/>
  <circle cx="57.518" cy="19.1" r=".875"/>
  <circle cx="48.628" cy="16.56" r=".75"/>
  <circle cx="54.978" cy="14.02" r=".75"/>
  <circle cx="16.401" cy="9.575" r=".875"/>
  <circle cx="21.481" cy="9.575" r="2"/>
  <circle cx="26.561" cy="9.575" r=".875"/>
  <circle cx="17.671" cy="7.035" r=".75"/>
  <circle cx="24.021" cy="4.495" r=".75"/>
  <circle cx="66.408" cy="38.15" r=".875"/>
  <circle cx="71.488" cy="38.15" r="2"/>
  <circle cx="76.568" cy="38.15" r=".875"/>
  <circle cx="67.678" cy="35.61" r=".75"/>
  <circle cx="74.028" cy="33.07" r=".75"/>
  <circle cx="118.8" cy="57.2" r=".875"/>
  <circle cx="123.88" cy="57.2" r="2"/>
  <circle cx="128.96" cy="57.2" r=".875"/>
  <circle cx="120.06" cy="54.66" r=".75"/>
  <circle cx="126.42" cy="52.12" r=".75"/>
  <circle cx="23.545" cy="57.2" r=".875"/>
  <circle cx="28.625" cy="57.2" r="2"/>
  <circle cx="33.705" cy="57.2" r=".875"/>
  <circle cx="24.815" cy="54.66" r=".75"/>
  <circle cx="31.165" cy="52.12" r=".75"/>
  <circle cx="128.32" cy="33.388" r=".875"/>
  <circle cx="133.4" cy="33.388" r="2"/>
  <circle cx="138.48" cy="33.388" r=".875"/>
  <circle cx="129.59" cy="30.848" r=".75"/>
  <circle cx="135.94" cy="28.308" r=".75"/>
  <circle cx="118.8" cy="9.575" r=".875"/>
  <circle cx="123.88" cy="9.575" r="2"/>
  <circle cx="128.96" cy="9.575" r=".875"/>
  <circle cx="120.06" cy="7.035" r=".75"/>
  <circle cx="126.42" cy="4.495" r=".75"/>
 </g>
 <g fill="none" stroke="#BD93F9" stroke-linecap="round" stroke-linejoin="round" stroke-width=".15">
  <g transform="rotate(-90 140.38 37.514)">
   <text transform="scale(-1 1) translate(-280.77)" x="140.3850" y="38.0145" font-size="1.3333" opacity="0" stroke-opacity="0" text-anchor="middle" lengthAdjust="spacingAndGlyphs" textLength="3.1548">D14</text>
  </g>
  <g class="stroked-text">
   <desc>D14</desc>
   <path d="m140.84 36.3h-1"/>
   <path d="m139.84 36.3v0.2381"/>
   <path d="m139.84 36.538 0.0476 0.1429"/>
   <path d="m139.89 36.681 0.0953 0.0952"/>
   <path d="m139.98 36.776 0.0952 0.0476"/>
   <path d="m140.08 36.824 0.1905 0.0476"/>
   <path d="m140.27 36.872h0.1428"/>
   <path d="m140.41 36.872 0.1905-0.0476"/>
   <path d="m140.6 36.824 0.0953-0.0476"/>
   <path d="m140.7 36.776 0.0952-0.0952"/>
   <path d="m140.79 36.681 0.0476-0.1429"/>
   <path d="m140.84 36.538v-0.2381"/>
   <path d="m140.84 37.824v-0.5714"/>
   <path d="m140.84 37.538h-1"/>
   <path d="m139.84 37.538 0.1429-0.0952"/>
   <path d="m139.98 37.443 0.0952-0.0953"/>
   <path d="m140.08 37.348 0.0476-0.0952"/>
   <path d="m140.17 38.681h0.6666"/>
   <path d="m139.79 38.443 0.7143-0.2381"/>
   <path d="m140.51 38.205v0.619"/>
  </g>
  <g transform="rotate(-90 61.804 61.327)">
   <text transform="scale(-1 1) translate(-123.61)" x="61.8037" y="61.8270" font-size="1.3333" opacity="0" stroke-opacity="0" text-anchor="middle" lengthAdjust="spacingAndGlyphs" textLength="3.1548">D12</text>
  </g>
  <g class="stroked-text">
   <desc>D12</desc>
   <path d="m62.259 60.113h-1"/>
   <path d="m61.259 60.113v0.2381"/>
   <path d="m61.259 60.351 0.0476 0.1429"/>
   <path d="m61.306 60.494 0.0952 0.0952"/>
   <path d="m61.401 60.589 0.0953 0.0476"/>
   <path d="m61.497 60.636 0.1904 0.0476"/>
   <path d="m61.687 60.684h0.1429"/>
   <path d="m61.83 60.684 0.1905-0.0476"/>
   <path d="m62.02 60.636 0.0952-0.0476"/>
   <path d="m62.116 60.589 0.0952-0.0952"/>
   <path d="m62.211 60.494 0.0477-0.1429"/>
   <path d="m62.259 60.351v-0.2381"/>
   <path d="m62.259 61.636v-0.5714"/>
   <path d="m62.259 61.351h-1"/>
   <path d="m61.259 61.351 0.1428-0.0952"/>
   <path d="m61.401 61.256 0.0953-0.0953"/>
   <path d="m61.497 61.16 0.0476-0.0952"/>
   <path d="m61.354 62.018-0.0476 0.0476"/>
   <path d="m61.306 62.065-0.0476 0.0952"/>
   <path d="m61.259 62.16v0.2381"/>
   <path d="m61.259 62.398 0.0476 0.0953"/>
   <path d="m61.306 62.494 0.0476 0.0476"/>
   <path d="m61.354 62.541 0.0952 0.0476"/>
   <path d="m61.449 62.589h0.0953"/>
   <path d="m61.544 62.589 0.1428-0.0476"/>
   <path d="m61.687 62.541 0.5715-0.5714"/>
   <path d="m62.259 61.97v0.619"/>
  </g>
  <g transform="rotate(-90 35.61 61.327)">
   <text transform="scale(-1 1) translate(-71.22)" x="35.6100" y="61.8270" font-size="1.3333" opacity="0" stroke-opacity="0" text-anchor="middle" lengthAdjust="spacingAndGlyphs" textLength="3.1548">D11</text>
  </g>
  <g class="stroked-text">
   <desc>D11</desc>
   <path d="m36.065 60.113h-1"/>
   <path d="m35.065 60.113v0.2381"/>
   <path d="m35.065 60.351 0.0476 0.1429"/>
   <path d="m35.112 60.494 0.0953 0.0952"/>
   <path d="m35.208 60.589 0.0952 0.0476"/>
   <path d="m35.303 60.636 0.1905 0.0476"/>
   <path d="m35.493 60.684h0.1428"/>
   <path d="m35.636 60.684 0.1905-0.0476"/>
   <path d="m35.827 60.636 0.0953-0.0476"/>
   <path d="m35.922 60.589 0.0952-0.0952"/>
   <path d="m36.017 60.494 0.0476-0.1429"/>
   <path d="m36.065 60.351v-0.2381"/>
   <path d="m36.065 61.636v-0.5714"/>
   <path d="m36.065 61.351h-1"/>
   <path d="m35.065 61.351 0.1429-0.0952"/>
   <path d="m35.208 61.256 0.0952-0.0953"/>
   <path d="m35.303 61.16 0.0476-0.0952"/>
   <path d="m36.065 62.589v-0.5714"/>
   <path d="m36.065 62.303h-1"/>
   <path d="m35.065 62.303 0.1429-0.0952"/>
   <path d="m35.208 62.208 0.0952-0.0953"/>
   <path d="m35.303 62.113 0.0476-0.0952"/>
  </g>
  <g transform="rotate(-90 130.86 13.702)">
   <text transform="scale(-1 1) translate(-261.72)" x="130.8600" y="14.2020" font-size="1.3333" opacity="0" stroke-opacity="0" text-anchor="middle" lengthAdjust="spacingAndGlyphs" textLength="3.1548">D13</text>
  </g>
  <g class="stroked-text">
   <desc>D13</desc>
   <path d="m131.31 12.488h-1"/>
   <path d="m130.31 12.488v0.2381"/>
   <path d="m130.31 12.726 0.0476 0.1429"/>
   <path d="m130.36 12.869 0.0953 0.0952"/>
   <path d="m130.46 12.964 0.0952 0.0476"/>
   <path d="m130.55 13.012 0.1905 0.0476"/>
   <path d="m130.74 13.059h0.1428"/>
   <path d="m130.89 13.059 0.1905-0.0476"/>
   <path d="m131.08 13.012 0.0953-0.0476"/>
   <path d="m131.17 12.964 0.0952-0.0952"/>
   <path d="m131.27 12.869 0.0476-0.1429"/>
   <path d="m131.31 12.726v-0.2381"/>
   <path d="m131.31 14.012v-0.5714"/>
   <path d="m131.31 13.726h-1"/>
   <path d="m130.31 13.726 0.1429-0.0952"/>
   <path d="m130.46 13.631 0.0952-0.0953"/>
   <path d="m130.55 13.535 0.0476-0.0952"/>
   <path d="m130.31 14.345v0.619"/>
   <path d="m130.31 14.964 0.381-0.3333"/>
   <path d="m130.7 14.631v0.1428"/>
   <path d="m130.7 14.773 0.0476 0.0953"/>
   <path d="m130.74 14.869 0.0476 0.0476"/>
   <path d="m130.79 14.916 0.0952 0.0476"/>
   <path d="m130.89 14.964h0.2381"/>
   <path d="m131.12 14.964 0.0953-0.0476"/>
   <path d="m131.22 14.916 0.0476-0.0476"/>
   <path d="m131.27 14.869 0.0476-0.0953"/>
   <path d="m131.31 14.773v-0.2857"/>
   <path d="m131.31 14.488-0.0476-0.0952"/>
   <path d="m131.27 14.392-0.0476-0.0476"/>
  </g>
  <g transform="rotate(-90 97.522 23.227)">
   <text transform="scale(-1 1) translate(-195.04)" x="97.5225" y="23.7270" font-size="1.3333" opacity="0" stroke-opacity="0" text-anchor="middle" lengthAdjust="spacingAndGlyphs" textLength="2.2024">D4</text>
  </g>
  <g class="stroked-text">
   <desc>D4</desc>
   <path d="m97.977 22.489h-1"/>
   <path d="m96.977 22.489v0.2381"/>
   <path d="m96.977 22.727 0.0476 0.1429"/>
   <path d="m97.025 22.87 0.0953 0.0952"/>
   <path d="m97.12 22.965 0.0952 0.0476"/>
   <path d="m97.215 23.013 0.1905 0.0476"/>
   <path d="m97.406 23.06h0.1428"/>
   <path d="m97.549 23.06 0.1905-0.0476"/>
   <path d="m97.739 23.013 0.0953-0.0476"/>
   <path d="m97.834 22.965 0.0952-0.0952"/>
   <path d="m97.93 22.87 0.0476-0.1429"/>
   <path d="m97.977 22.727v-0.2381"/>
   <path d="m97.311 23.918h0.6666"/>
   <path d="m96.93 23.679 0.7143-0.2381"/>
   <path d="m97.644 23.441v0.619"/>
  </g>
  <g transform="rotate(-90 16.56 49.421)">
   <text transform="scale(-1 1) translate(-33.12)" x="16.5600" y="49.9207" font-size="1.3333" opacity="0" stroke-opacity="0" text-anchor="middle" lengthAdjust="spacingAndGlyphs" textLength="2.2024">D6</text>
  </g>
  <g class="stroked-text">
   <desc>D6</desc>
   <path d="m17.015 48.683h-1"/>
   <path d="m16.015 48.683v0.238"/>
   <path d="m16.015 48.921 0.0476 0.1429"/>
   <path d="m16.062 49.064 0.0953 0.0952"/>
   <path d="m16.158 49.159 0.0952 0.0477"/>
   <path d="m16.253 49.206 0.1905 0.0476"/>
   <path d="m16.443 49.254h0.1428"/>
   <path d="m16.586 49.254 0.1905-0.0476"/>
   <path d="m16.777 49.206 0.0953-0.0477"/>
   <path d="m16.872 49.159 0.0952-0.0952"/>
   <path d="m16.967 49.064 0.0476-0.1429"/>
   <path d="m17.015 48.921v-0.238"/>
   <path d="m16.015 50.111v-0.1905"/>
   <path d="m16.015 49.921 0.0476-0.0952"/>
   <path d="m16.062 49.826 0.0477-0.0476"/>
   <path d="m16.11 49.778 0.1428-0.0952"/>
   <path d="m16.253 49.683 0.1905-0.0477"/>
   <path d="m16.443 49.635h0.3809"/>
   <path d="m16.824 49.635 0.0953 0.0477"/>
   <path d="m16.92 49.683 0.0476 0.0476"/>
   <path d="m16.967 49.73 0.0476 0.0952"/>
   <path d="m17.015 49.826v0.1905"/>
   <path d="m17.015 50.016-0.0476 0.0952"/>
   <path d="m16.967 50.111-0.0476 0.0476"/>
   <path d="m16.92 50.159-0.0953 0.0477"/>
   <path d="m16.824 50.206h-0.2381"/>
   <path d="m16.586 50.206-0.0952-0.0477"/>
   <path d="m16.491 50.159-0.0476-0.0476"/>
   <path d="m16.443 50.111-0.0476-0.0952"/>
   <path d="m16.396 50.016v-0.1905"/>
   <path d="m16.396 49.826 0.0476-0.0952"/>
   <path d="m16.443 49.73 0.0476-0.0476"/>
   <path d="m16.491 49.683 0.0952-0.0477"/>
  </g>
  <g transform="rotate(-90 59.422 23.227)">
   <text transform="scale(-1 1) translate(-118.84)" x="59.4225" y="23.7270" font-size="1.3333" opacity="0" stroke-opacity="0" text-anchor="middle" lengthAdjust="spacingAndGlyphs" textLength="2.2024">D2</text>
  </g>
  <g class="stroked-text">
   <desc>D2</desc>
   <path d="m59.877 22.489h-1"/>
   <path d="m58.877 22.489v0.2381"/>
   <path d="m58.877 22.727 0.0476 0.1429"/>
   <path d="m58.925 22.87 0.0953 0.0952"/>
   <path d="m59.02 22.965 0.0952 0.0476"/>
   <path d="m59.115 23.013 0.1905 0.0476"/>
   <path d="m59.306 23.06h0.1428"/>
   <path d="m59.449 23.06 0.1905-0.0476"/>
   <path d="m59.639 23.013 0.0953-0.0476"/>
   <path d="m59.734 22.965 0.0952-0.0952"/>
   <path d="m59.83 22.87 0.0476-0.1429"/>
   <path d="m59.877 22.727v-0.2381"/>
   <path d="m58.973 23.441-0.0477 0.0476"/>
   <path d="m58.925 23.489-0.0476 0.0952"/>
   <path d="m58.877 23.584v0.2381"/>
   <path d="m58.877 23.822 0.0476 0.0953"/>
   <path d="m58.925 23.918 0.0477 0.0476"/>
   <path d="m58.973 23.965 0.0952 0.0476"/>
   <path d="m59.068 24.013h0.0952"/>
   <path d="m59.163 24.013 0.1429-0.0476"/>
   <path d="m59.306 23.965 0.5714-0.5714"/>
   <path d="m59.877 23.394v0.619"/>
  </g>
  <g transform="rotate(-90 28.466 13.702)">
   <text transform="scale(-1 1) translate(-56.932)" x="28.4662" y="14.2020" font-size="1.3333" opacity="0" stroke-opacity="0" text-anchor="middle" lengthAdjust="spacingAndGlyphs" textLength="2.2024">D1</text>
  </g>
  <g class="stroked-text">
   <desc>D1</desc>
   <path d="m28.921 12.964h-1"/>
   <path d="m27.921 12.964v0.2381"/>
   <path d="m27.921 13.202 0.0476 0.1429"/>
   <path d="m27.969 13.345 0.0952 0.0952"/>
   <path d="m28.064 13.44 0.0953 0.0476"/>
   <path d="m28.159 13.488 0.1904 0.0476"/>
   <path d="m28.35 13.535h0.1429"/>
   <path d="m28.492 13.535 0.1905-0.0476"/>
   <path d="m28.683 13.488 0.0952-0.0476"/>
   <path d="m28.778 13.44 0.0952-0.0952"/>
   <path d="m28.873 13.345 0.0477-0.1429"/>
   <path d="m28.921 13.202v-0.2381"/>
   <path d="m28.921 14.488v-0.5714"/>
   <path d="m28.921 14.202h-1"/>
   <path d="m27.921 14.202 0.1428-0.0952"/>
   <path d="m28.064 14.107 0.0953-0.0953"/>
   <path d="m28.159 14.012 0.0476-0.0952"/>
  </g>
  <g transform="rotate(-90 130.86 61.327)">
   <text transform="scale(-1 1) translate(-261.72)" x="130.8600" y="61.8270" font-size="1.3333" opacity="0" stroke-opacity="0" text-anchor="middle" lengthAdjust="spacingAndGlyphs" textLength="2.2024">D5</text>
  </g>
  <g class="stroked-text">
   <desc>D5</desc>
   <path d="m131.31 60.589h-1"/>
   <path d="m130.31 60.589v0.2381"/>
   <path d="m130.31 60.827 0.0476 0.1429"/>
   <path d="m130.36 60.97 0.0953 0.0952"/>
   <path d="m130.46 61.065 0.0952 0.0476"/>
   <path d="m130.55 61.113 0.1905 0.0476"/>
   <path d="m130.74 61.16h0.1428"/>
   <path d="m130.89 61.16 0.1905-0.0476"/>
   <path d="m131.08 61.113 0.0953-0.0476"/>
   <path d="m131.17 61.065 0.0952-0.0952"/>
   <path d="m131.27 60.97 0.0476-0.1429"/>
   <path d="m131.31 60.827v-0.2381"/>
   <path d="m130.31 62.065v-0.4762"/>
   <path d="m130.31 61.589 0.4762-0.0476"/>
   <path d="m130.79 61.541-0.0476 0.0476"/>
   <path d="m130.74 61.589-0.0476 0.0952"/>
   <path d="m130.7 61.684v0.2381"/>
   <path d="m130.7 61.922 0.0476 0.0953"/>
   <path d="m130.74 62.018 0.0476 0.0476"/>
   <path d="m130.79 62.065 0.0952 0.0476"/>
   <path d="m130.89 62.113h0.2381"/>
   <path d="m131.12 62.113 0.0953-0.0476"/>
   <path d="m131.22 62.065 0.0476-0.0476"/>
   <path d="m131.27 62.018 0.0476-0.0953"/>
   <path d="m131.31 61.922v-0.2381"/>
   <path d="m131.31 61.684-0.0476-0.0952"/>
   <path d="m131.27 61.589-0.0476-0.0476"/>
  </g>
  <g transform="rotate(-90 78.472 23.227)">
   <text transform="scale(-1 1) translate(-156.94)" x="78.4725" y="23.7270" font-size="1.3333" opacity="0" stroke-opacity="0" text-anchor="middle" lengthAdjust="spacingAndGlyphs" textLength="2.2024">D3</text>
  </g>
  <g class="stroked-text">
   <desc>D3</desc>
   <path d="m78.927 22.489h-1"/>
   <path d="m77.927 22.489v0.2381"/>
   <path d="m77.927 22.727 0.0476 0.1429"/>
   <path d="m77.975 22.87 0.0953 0.0952"/>
   <path d="m78.07 22.965 0.0952 0.0476"/>
   <path d="m78.165 23.013 0.1905 0.0476"/>
   <path d="m78.356 23.06h0.1428"/>
   <path d="m78.499 23.06 0.1905-0.0476"/>
   <path d="m78.689 23.013 0.0953-0.0476"/>
   <path d="m78.784 22.965 0.0952-0.0952"/>
   <path d="m78.88 22.87 0.0476-0.1429"/>
   <path d="m78.927 22.727v-0.2381"/>
   <path d="m77.927 23.394v0.619"/>
   <path d="m77.927 24.013 0.381-0.3333"/>
   <path d="m78.308 23.679v0.1428"/>
   <path d="m78.308 23.822 0.0476 0.0953"/>
   <path d="m78.356 23.918 0.0476 0.0476"/>
   <path d="m78.404 23.965 0.0952 0.0476"/>
   <path d="m78.499 24.013h0.2381"/>
   <path d="m78.737 24.013 0.0953-0.0476"/>
   <path d="m78.832 23.965 0.0476-0.0476"/>
   <path d="m78.88 23.918 0.0476-0.0953"/>
   <path d="m78.927 23.822v-0.2857"/>
   <path d="m78.927 23.536-0.0476-0.0952"/>
   <path d="m78.88 23.441-0.0476-0.0476"/>
  </g>
  <g transform="rotate(-90 97.522 42.277)">
   <text transform="scale(-1 1) translate(-195.04)" x="97.5225" y="42.7770" font-size="1.3333" opacity="0" stroke-opacity="0" text-anchor="middle" lengthAdjust="spacingAndGlyphs" textLength="2.2024">D9</text>
  </g>
  <g class="stroked-text">
   <desc>D9</desc>
   <path d="m97.977 41.539h-1"/>
   <path d="m96.977 41.539v0.2381"/>
   <path d="m96.977 41.777 0.0476 0.1429"/>
   <path d="m97.025 41.92 0.0953 0.0952"/>
   <path d="m97.12 42.015 0.0952 0.0476"/>
   <path d="m97.215 42.063 0.1905 0.0476"/>
   <path d="m97.406 42.11h0.1428"/>
   <path d="m97.549 42.11 0.1905-0.0476"/>
   <path d="m97.739 42.063 0.0953-0.0476"/>
   <path d="m97.834 42.015 0.0952-0.0952"/>
   <path d="m97.93 41.92 0.0476-0.1429"/>
   <path d="m97.977 41.777v-0.2381"/>
   <path d="m97.977 42.586v0.1905"/>
   <path d="m97.977 42.777-0.0476 0.0952"/>
   <path d="m97.93 42.872-0.0476 0.0477"/>
   <path d="m97.882 42.92-0.1429 0.0952"/>
   <path d="m97.739 43.015-0.1905 0.0476"/>
   <path d="m97.549 43.063h-0.3809"/>
   <path d="m97.168 43.063-0.0952-0.0476"/>
   <path d="m97.073 43.015-0.0477-0.0476"/>
   <path d="m97.025 42.968-0.0476-0.0953"/>
   <path d="m96.977 42.872v-0.1904"/>
   <path d="m96.977 42.682 0.0476-0.0953"/>
   <path d="m97.025 42.586 0.0477-0.0476"/>
   <path d="m97.073 42.539 0.0952-0.0476"/>
   <path d="m97.168 42.491h0.2381"/>
   <path d="m97.406 42.491 0.0952 0.0476"/>
   <path d="m97.501 42.539 0.0476 0.0476"/>
   <path d="m97.549 42.586 0.0477 0.0953"/>
   <path d="m97.596 42.682v0.1904"/>
   <path d="m97.596 42.872-0.0477 0.0953"/>
   <path d="m97.549 42.968-0.0476 0.0476"/>
   <path d="m97.501 43.015-0.0952 0.0476"/>
  </g>
  <g transform="rotate(-90 121.34 37.514)">
   <text transform="scale(-1 1) translate(-242.67)" x="121.3350" y="38.0145" font-size="1.3333" opacity="0" stroke-opacity="0" text-anchor="middle" lengthAdjust="spacingAndGlyphs" textLength="3.1548">D10</text>
  </g>
  <g class="stroked-text">
   <desc>D10</desc>
   <path d="m121.79 36.3h-1"/>
   <path d="m120.79 36.3v0.2381"/>
   <path d="m120.79 36.538 0.0476 0.1429"/>
   <path d="m120.84 36.681 0.0953 0.0952"/>
   <path d="m120.93 36.776 0.0952 0.0476"/>
   <path d="m121.03 36.824 0.1905 0.0476"/>
   <path d="m121.22 36.872h0.1428"/>
   <path d="m121.36 36.872 0.1905-0.0476"/>
   <path d="m121.55 36.824 0.0953-0.0476"/>
   <path d="m121.65 36.776 0.0952-0.0952"/>
   <path d="m121.74 36.681 0.0476-0.1429"/>
   <path d="m121.79 36.538v-0.2381"/>
   <path d="m121.79 37.824v-0.5714"/>
   <path d="m121.79 37.538h-1"/>
   <path d="m120.79 37.538 0.1429-0.0952"/>
   <path d="m120.93 37.443 0.0952-0.0953"/>
   <path d="m121.03 37.348 0.0476-0.0952"/>
   <path d="m120.79 38.443v0.0952"/>
   <path d="m120.79 38.538 0.0476 0.0952"/>
   <path d="m120.84 38.634 0.0477 0.0477"/>
   <path d="m120.89 38.681 0.0952 0.0476"/>
   <path d="m120.98 38.729 0.1905 0.0476"/>
   <path d="m121.17 38.776h0.2381"/>
   <path d="m121.41 38.776 0.1904-0.0476"/>
   <path d="m121.6 38.729 0.0953-0.0476"/>
   <path d="m121.69 38.681 0.0476-0.0477"/>
   <path d="m121.74 38.634 0.0476-0.0952"/>
   <path d="m121.79 38.538v-0.0952"/>
   <path d="m121.79 38.443-0.0476-0.0953"/>
   <path d="m121.74 38.348-0.0476-0.0476"/>
   <path d="m121.69 38.3-0.0953-0.0476"/>
   <path d="m121.6 38.253-0.1904-0.0476"/>
   <path d="m121.41 38.205h-0.2381"/>
   <path d="m121.17 38.205-0.1905 0.0476"/>
   <path d="m120.98 38.253-0.0952 0.0476"/>
   <path d="m120.89 38.3-0.0477 0.0476"/>
   <path d="m120.84 38.348-0.0476 0.0953"/>
  </g>
  <g transform="rotate(-90 52.279 42.277)">
   <text transform="scale(-1 1) translate(-104.56)" x="52.2787" y="42.7770" font-size="1.3333" opacity="0" stroke-opacity="0" text-anchor="middle" lengthAdjust="spacingAndGlyphs" textLength="2.2024">D7</text>
  </g>
  <g class="stroked-text">
   <desc>D7</desc>
   <path d="m52.734 41.539h-1"/>
   <path d="m51.734 41.539v0.2381"/>
   <path d="m51.734 41.777 0.0476 0.1429"/>
   <path d="m51.781 41.92 0.0952 0.0952"/>
   <path d="m51.876 42.015 0.0953 0.0476"/>
   <path d="m51.972 42.063 0.1904 0.0476"/>
   <path d="m52.162 42.11h0.1429"/>
   <path d="m52.305 42.11 0.1905-0.0476"/>
   <path d="m52.496 42.063 0.0952-0.0476"/>
   <path d="m52.591 42.015 0.0952-0.0952"/>
   <path d="m52.686 41.92 0.0477-0.1429"/>
   <path d="m52.734 41.777v-0.2381"/>
   <path d="m51.734 42.444v0.6666"/>
   <path d="m51.734 43.11 1-0.4285"/>
  </g>
  <g transform="rotate(-90 78.472 42.277)">
   <text transform="scale(-1 1) translate(-156.94)" x="78.4725" y="42.7770" font-size="1.3333" opacity="0" stroke-opacity="0" text-anchor="middle" lengthAdjust="spacingAndGlyphs" textLength="2.2024">D8</text>
  </g>
  <g class="stroked-text">
   <desc>D8</desc>
   <path d="m78.927 41.539h-1"/>
   <path d="m77.927 41.539v0.2381"/>
   <path d="m77.927 41.777 0.0476 0.1429"/>
   <path d="m77.975 41.92 0.0953 0.0952"/>
   <path d="m78.07 42.015 0.0952 0.0476"/>
   <path d="m78.165 42.063 0.1905 0.0476"/>
   <path d="m78.356 42.11h0.1428"/>
   <path d="m78.499 42.11 0.1905-0.0476"/>
   <path d="m78.689 42.063 0.0953-0.0476"/>
   <path d="m78.784 42.015 0.0952-0.0952"/>
   <path d="m78.88 41.92 0.0476-0.1429"/>
   <path d="m78.927 41.777v-0.2381"/>
   <path d="m78.356 42.682-0.0476-0.0953"/>
   <path d="m78.308 42.586-0.0476-0.0476"/>
   <path d="m78.261 42.539-0.0953-0.0476"/>
   <path d="m78.165 42.491h-0.0476"/>
   <path d="m78.118 42.491-0.0952 0.0476"/>
   <path d="m78.023 42.539-0.0477 0.0476"/>
   <path d="m77.975 42.586-0.0476 0.0953"/>
   <path d="m77.927 42.682v0.1904"/>
   <path d="m77.927 42.872 0.0476 0.0953"/>
   <path d="m77.975 42.968 0.0477 0.0476"/>
   <path d="m78.023 43.015 0.0952 0.0476"/>
   <path d="m78.118 43.063h0.0476"/>
   <path d="m78.165 43.063 0.0953-0.0476"/>
   <path d="m78.261 43.015 0.0476-0.0476"/>
   <path d="m78.308 42.968 0.0476-0.0953"/>
   <path d="m78.356 42.872v-0.1904"/>
   <path d="m78.356 42.682 0.0476-0.0953"/>
   <path d="m78.404 42.586 0.0476-0.0476"/>
   <path d="m78.451 42.539 0.0953-0.0476"/>
   <path d="m78.546 42.491h0.1904"/>
   <path d="m78.737 42.491 0.0953 0.0476"/>
   <path d="m78.832 42.539 0.0476 0.0476"/>
   <path d="m78.88 42.586 0.0476 0.0953"/>
   <path d="m78.927 42.682v0.1904"/>
   <path d="m78.927 42.872-0.0476 0.0953"/>
   <path d="m78.88 42.968-0.0476 0.0476"/>
   <path d="m78.832 43.015-0.0953 0.0476"/>
   <path d="m78.737 43.063h-0.1904"/>
   <path d="m78.546 43.063-0.0953-0.0476"/>
   <path d="m78.451 43.015-0.0476-0.0476"/>
   <path d="m78.404 42.968-0.0476-0.0953"/>
  </g>
 </g>
 <g fill="none" stroke="#BD93F9" stroke-linecap="round" stroke-linejoin="round" stroke-width=".12">
  <path d="m137.48 35.738v3.86"/>
  <path d="m137.48 39.598h2"/>
  <path d="m139.48 35.738v3.86"/>
  <path d="m58.899 59.55v3.86"/>
  <path d="m58.899 63.41h2"/>
  <path d="m60.899 59.55v3.86"/>
  <path d="m32.705 59.55v3.86"/>
  <path d="m32.705 63.41h2"/>
  <path d="m34.705 59.55v3.86"/>
  <path d="m127.96 11.925v3.86"/>
  <path d="m127.96 15.785h2"/>
  <path d="m129.96 11.925v3.86"/>
  <path d="m94.618 21.45v3.86"/>
  <path d="m94.618 25.31h2"/>
  <path d="m96.618 21.45v3.86"/>
  <path d="m13.655 47.644v3.86"/>
  <path d="m13.655 51.504h2"/>
  <path d="m15.655 47.644v3.86"/>
  <path d="m56.518 21.45v3.86"/>
  <path d="m56.518 25.31h2"/>
  <path d="m58.518 21.45v3.86"/>
  <path d="m25.561 11.925v3.86"/>
  <path d="m25.561 15.785h2"/>
  <path d="m27.561 11.925v3.86"/>
  <path d="m127.96 59.55v3.86"/>
  <path d="m127.96 63.41h2"/>
  <path d="m129.96 59.55v3.86"/>
  <path d="m75.568 21.45v3.86"/>
  <path d="m75.568 25.31h2"/>
  <path d="m77.568 21.45v3.86"/>
  <path d="m94.618 40.5v3.86"/>
  <path d="m94.618 44.36h2"/>
  <path d="m96.618 40.5v3.86"/>
  <path d="m118.43 35.738v3.86"/>
  <path d="m118.43 39.598h2"/>
  <path d="m120.43 35.738v3.86"/>
  <path d="m49.374 40.5v3.86"/>
  <path d="m49.374 44.36h2"/>
  <path d="m51.374 40.5v3.86"/>
  <path d="m75.568 40.5v3.86"/>
  <path d="m75.568 44.36h2"/>
  <path d="m77.568 40.5v3.86"/>
 </g>
 <g>
  <g fill="#BD93F9">
   <circle cx="85.458" cy="38.15" r=".875"/>
   <circle cx="90.538" cy="38.15" r="2"/>
   <circle cx="95.618" cy="38.15" r=".875"/>
   <circle cx="86.728" cy="35.61" r=".75"/>
   <circle cx="93.078" cy="33.07" r=".75"/>
   <circle cx="4.495" cy="45.294" r=".875"/>
   <circle cx="9.575" cy="45.294" r="2"/>
   <circle cx="14.655" cy="45.294" r=".875"/>
   <circle cx="5.765" cy="42.754" r=".75"/>
   <circle cx="12.115" cy="40.214" r=".75"/>
   <circle cx="49.739" cy="57.2" r=".875"/>
   <circle cx="54.819" cy="57.2" r="2"/>
   <circle cx="59.899" cy="57.2" r=".875"/>
   <circle cx="51.009" cy="54.66" r=".75"/>
   <circle cx="57.359" cy="52.12" r=".75"/>
   <circle cx="85.458" cy="19.1" r=".875"/>
   <circle cx="90.538" cy="19.1" r="2"/>
   <circle cx="95.618" cy="19.1" r=".875"/>
   <circle cx="86.728" cy="16.56" r=".75"/>
   <circle cx="93.078" cy="14.02" r=".75"/>
   <circle cx="40.214" cy="38.15" r=".875"/>
   <circle cx="45.294" cy="38.15" r="2"/>
   <circle cx="50.374" cy="38.15" r=".875"/>
   <circle cx="41.484" cy="35.61" r=".75"/>
   <circle cx="47.834" cy="33.07" r=".75"/>
   <circle cx="66.408" cy="19.1" r=".875"/>
   <circle cx="71.488" cy="19.1" r="2"/>
   <circle cx="76.568" cy="19.1" r=".875"/>
   <circle cx="67.678" cy="16.56" r=".75"/>
   <circle cx="74.028" cy="14.02" r=".75"/>
   <circle cx="109.27" cy="33.388" r=".875"/>
   <circle cx="114.35" cy="33.388" r="2"/>
   <circle cx="119.43" cy="33.388" r=".875"/>
   <circle cx="110.54" cy="30.848" r=".75"/>
   <circle cx="116.89" cy="28.308" r=".75"/>
   <circle cx="47.358" cy="19.1" r=".875"/>
   <circle cx="52.438" cy="19.1" r="2"/>
   <circle cx="57.518" cy="19.1" r=".875"/>
   <circle cx="48.628" cy="16.56" r=".75"/>
   <circle cx="54.978" cy="14.02" r=".75"/>
   <circle cx="16.401" cy="9.575" r=".875"/>
   <circle cx="21.481" cy="9.575" r="2"/>
   <circle cx="26.561" cy="9.575" r=".875"/>
   <circle cx="17.671" cy="7.035" r=".75"/>
   <circle cx="24.021" cy="4.495" r=".75"/>
   <circle cx="66.408" cy="38.15" r=".875"/>
   <circle cx="71.488" cy="38.15" r="2"/>
   <circle cx="76.568" cy="38.15" r=".875"/>
   <circle cx="67.678" cy="35.61" r=".75"/>
   <circle cx="74.028" cy="33.07" r=".75"/>
   <circle cx="118.8" cy="57.2" r=".875"/>
   <circle cx="123.88" cy="57.2" r="2"/>
   <circle cx="128.96" cy="57.2" r=".875"/>
   <circle cx="120.06" cy="54.66" r=".75"/>
   <circle cx="126.42" cy="52.12" r=".75"/>
   <circle cx="23.545" cy="57.2" r=".875"/>
   <circle cx="28.625" cy="57.2" r="2"/>
   <circle cx="33.705" cy="57.2" r=".875"/>
   <circle cx="24.815" cy="54.66" r=".75"/>
   <circle cx="31.165" cy="52.12" r=".75"/>
   <circle cx="128.32" cy="33.388" r=".875"/>
   <circle cx="133.4" cy="33.388" r="2"/>
   <circle cx="138.48" cy="33.388" r=".875"/>
   <circle cx="129.59" cy="30.848" r=".75"/>
   <circle cx="135.94" cy="28.308" r=".75"/>
   <circle cx="118.8" cy="9.575" r=".875"/>
   <circle cx="123.88" cy="9.575" r="2"/>
   <circle cx="128.96" cy="9.575" r=".875"/>
   <circle cx="120.06" cy="7.035" r=".75"/>
   <circle cx="126.42" cy="4.495" r=".75"/>
  </g>
  <g>
   <circle cx="85.458" cy="38.15" r=".875"/>
   <circle cx="90.538" cy="38.15" r="2"/>
   <circle cx="95.618" cy="38.15" r=".875"/>
   <circle cx="86.728" cy="35.61" r=".75"/>
   <circle cx="93.078" cy="33.07" r=".75"/>
   <circle cx="4.495" cy="45.294" r=".875"/>
   <circle cx="9.575" cy="45.294" r="2"/>
   <circle cx="14.655" cy="45.294" r=".875"/>
   <circle cx="5.765" cy="42.754" r=".75"/>
   <circle cx="12.115" cy="40.214" r=".75"/>
   <circle cx="49.739" cy="57.2" r=".875"/>
   <circle cx="54.819" cy="57.2" r="2"/>
   <circle cx="59.899" cy="57.2" r=".875"/>
   <circle cx="51.009" cy="54.66" r=".75"/>
   <circle cx="57.359" cy="52.12" r=".75"/>
   <circle cx="85.458" cy="19.1" r=".875"/>
   <circle cx="90.538" cy="19.1" r="2"/>
   <circle cx="95.618" cy="19.1" r=".875"/>
   <circle cx="86.728" cy="16.56" r=".75"/>
   <circle cx="93.078" cy="14.02" r=".75"/>
   <circle cx="40.214" cy="38.15" r=".875"/>
   <circle cx="45.294" cy="38.15" r="2"/>
   <circle cx="50.374" cy="38.15" r=".875"/>
   <circle cx="41.484" cy="35.61" r=".75"/>
   <circle cx="47.834" cy="33.07" r=".75"/>
   <circle cx="66.408" cy="19.1" r=".875"/>
   <circle cx="71.488" cy="19.1" r="2"/>
   <circle cx="76.568" cy="19.1" r=".875"/>
   <circle cx="67.678" cy="16.56" r=".75"/>
   <circle cx="74.028" cy="14.02" r=".75"/>
   <circle cx="109.27" cy="33.388" r=".875"/>
   <circle cx="114.35" cy="33.388" r="2"/>
   <circle cx="119.43" cy="33.388" r=".875"/>
   <circle cx="110.54" cy="30.848" r=".75"/>
   <circle cx="116.89" cy="28.308" r=".75"/>
   <circle cx="47.358" cy="19.1" r=".875"/>
   <circle cx="52.438" cy="19.1" r="2"/>
   <circle cx="57.518" cy="19.1" r=".875"/>
   <circle cx="48.628" cy="16.56" r=".75"/>
   <circle cx="54.978" cy="14.02" r=".75"/>
   <circle cx="16.401" cy="9.575" r=".875"/>
   <circle cx="21.481" cy="9.575" r="2"/>
   <circle cx="26.561" cy="9.575" r=".875"/>
   <circle cx="17.671" cy="7.035" r=".75"/>
   <circle cx="24.021" cy="4.495" r=".75"/>
   <circle cx="66.408" cy="38.15" r=".875"/>
   <circle cx="71.488" cy="38.15" r="2"/>
   <circle cx="76.568" cy="38.15" r=".875"/>
   <circle cx="67.678" cy="35.61" r=".75"/>
   <circle cx="74.028" cy="33.07" r=".75"/>
   <circle cx="118.8" cy="57.2" r=".875"/>
   <circle cx="123.88" cy="57.2" r="2"/>
   <circle cx="128.96" cy="57.2" r=".875"/>
   <circle cx="120.06" cy="54.66" r=".75"/>
   <circle cx="126.42" cy="52.12" r=".75"/>
   <circle cx="23.545" cy="57.2" r=".875"/>
   <circle cx="28.625" cy="57.2" r="2"/>
   <circle cx="33.705" cy="57.2" r=".875"/>
   <circle cx="24.815" cy="54.66" r=".75"/>
   <circle cx="31.165" cy="52.12" r=".75"/>
   <circle cx="128.32" cy="33.388" r=".875"/>
   <circle cx="133.4" cy="33.388" r="2"/>
   <circle cx="138.48" cy="33.388" r=".875"/>
   <circle cx="129.59" cy="30.848" r=".75"/>
   <circle cx="135.94" cy="28.308" r=".75"/>
   <circle cx="118.8" cy="9.575" r=".875"/>
   <circle cx="123.88" cy="9.575" r="2"/>
   <circle cx="128.96" cy="9.575" r=".875"/>
   <circle cx="120.06" cy="7.035" r=".75"/>
   <circle cx="126.42" cy="4.495" r=".75"/>
  </g>
  <g fill="#f55">
   <circle cx="86.728" cy="35.61" r="1.25"/>
   <circle cx="93.078" cy="33.07" r="1.25"/>
   <circle cx="5.765" cy="42.754" r="1.25"/>
   <circle cx="12.115" cy="40.214" r="1.25"/>
   <circle cx="51.009" cy="54.66" r="1.25"/>
   <circle cx="57.359" cy="52.12" r="1.25"/>
   <circle cx="86.728" cy="16.56" r="1.25"/>
   <circle cx="93.078" cy="14.02" r="1.25"/>
   <circle cx="41.484" cy="35.61" r="1.25"/>
   <circle cx="47.834" cy="33.07" r="1.25"/>
   <circle cx="67.678" cy="16.56" r="1.25"/>
   <circle cx="74.028" cy="14.02" r="1.25"/>
   <circle cx="110.54" cy="30.848" r="1.25"/>
   <circle cx="116.89" cy="28.308" r="1.25"/>
   <circle cx="48.628" cy="16.56" r="1.25"/>
   <circle cx="54.978" cy="14.02" r="1.25"/>
   <circle cx="17.671" cy="7.035" r="1.25"/>
   <circle cx="24.021" cy="4.495" r="1.25"/>
   <circle cx="67.678" cy="35.61" r="1.25"/>
   <circle cx="74.028" cy="33.07" r="1.25"/>
   <circle cx="120.06" cy="54.66" r="1.25"/>
   <circle cx="126.42" cy="52.12" r="1.25"/>
   <circle cx="24.815" cy="54.66" r="1.25"/>
   <circle cx="31.165" cy="52.12" r="1.25"/>
   <circle cx="129.59" cy="30.848" r="1.25"/>
   <circle cx="135.94" cy="28.308" r="1.25"/>
   <circle cx="120.06" cy="7.035" r="1.25"/>
   <circle cx="126.42" cy="4.495" r="1.25"/>
  </g>
 </g>
 <g fill="none" stroke="#f55" stroke-linecap="round" stroke-linejoin="round" stroke-width=".2">
  <path d="m5.765 42.754 11.906-11.906"/>
  <path d="m17.671 30.848v-23.812"/>
  <path d="m41.484 45.135 9.5249 9.525"/>
  <path d="m41.484 35.61v9.525"/>
  <path d="m41.484 35.61 7.1437-7.1438"/>
  <path d="m48.628 28.466v-11.906"/>
  <path d="m67.678 16.56v19.05"/>
  <path d="m86.728 16.56 9.525-9.525"/>
  <path d="m96.252 7.035h23.812"/>
  <path d="m86.728 16.56v19.05"/>
  <path d="m110.54 30.848v14.288"/>
  <path d="m110.54 45.135 9.525 9.525"/>
  <path d="m110.54 30.848h19.05"/>
 </g>
 <g fill="#fff">
  <circle cx="85.458" cy="38.15" r=".875"/>
  <circle cx="90.538" cy="38.15" r="2"/>
  <circle cx="95.618" cy="38.15" r=".875"/>
  <circle cx="86.728" cy="35.61" r=".75"/>
  <circle cx="93.078" cy="33.07" r=".75"/>
  <circle cx="4.495" cy="45.294" r=".875"/>
  <circle cx="9.575" cy="45.294" r="2"/>
  <circle cx="14.655" cy="45.294" r=".875"/>
  <circle cx="5.765" cy="42.754" r=".75"/>
  <circle cx="12.115" cy="40.214" r=".75"/>
  <circle cx="49.739" cy="57.2" r=".875"/>
  <circle cx="54.819" cy="57.2" r="2"/>
  <circle cx="59.899" cy="57.2" r=".875"/>
  <circle cx="51.009" cy="54.66" r=".75"/>
  <circle cx="57.359" cy="52.12" r=".75"/>
  <circle cx="85.458" cy="19.1" r=".875"/>
  <circle cx="90.538" cy="19.1" r="2"/>
  <circle cx="95.618" cy="19.1" r=".875"/>
  <circle cx="86.728" cy="16.56" r=".75"/>
  <circle cx="93.078" cy="14.02" r=".75"/>
  <circle cx="40.214" cy="38.15" r=".875"/>
  <circle cx="45.294" cy="38.15" r="2"/>
  <circle cx="50.374" cy="38.15" r=".875"/>
  <circle cx="41.484" cy="35.61" r=".75"/>
  <circle cx="47.834" cy="33.07" r=".75"/>
  <circle cx="66.408" cy="19.1" r=".875"/>
  <circle cx="71.488" cy="19.1" r="2"/>
  <circle cx="76.568" cy="19.1" r=".875"/>
  <circle cx="67.678" cy="16.56" r=".75"/>
  <circle cx="74.028" cy="14.02" r=".75"/>
  <circle cx="109.27" cy="33.388" r=".875"/>
  <circle cx="114.35" cy="33.388" r="2"/>
  <circle cx="119.43" cy="33.388" r=".875"/>
  <circle cx="110.54" cy="30.848" r=".75"/>
  <circle cx="116.89" cy="28.308" r=".75"/>
  <circle cx="47.358" cy="19.1" r=".875"/>
  <circle cx="52.438" cy="19.1" r="2"/>
  <circle cx="57.518" cy="19.1" r=".875"/>
  <circle cx="48.628" cy="16.56" r=".75"/>
  <circle cx="54.978" cy="14.02" r=".75"/>
  <circle cx="16.401" cy="9.575" r=".875"/>
  <circle cx="21.481" cy="9.575" r="2"/>
  <circle cx="26.561" cy="9.575" r=".875"/>
  <circle cx="17.671" cy="7.035" r=".75"/>
  <circle cx="24.021" cy="4.495" r=".75"/>
  <circle cx="66.408" cy="38.15" r=".875"/>
  <circle cx="71.488" cy="38.15" r="2"/>
  <circle cx="76.568" cy="38.15" r=".875"/>
  <circle cx="67.678" cy="35.61" r=".75"/>
  <circle cx="74.028" cy="33.07" r=".75"/>
  <circle cx="118.8" cy="57.2" r=".875"/>
  <circle cx="123.88" cy="57.2" r="2"/>
  <circle cx="128.96" cy="57.2" r=".875"/>
  <circle cx="120.06" cy="54.66" r=".75"/>
  <circle cx="126.42" cy="52.12" r=".75"/>
  <circle cx="23.545" cy="57.2" r=".875"/>
  <circle cx="28.625" cy="57.2" r="2"/>
  <circle cx="33.705" cy="57.2" r=".875"/>
  <circle cx="24.815" cy="54.66" r=".75"/>
  <circle cx="31.165" cy="52.12" r=".75"/>
  <circle cx="128.32" cy="33.388" r=".875"/>
  <circle cx="133.4" cy="33.388" r="2"/>
  <circle cx="138.48" cy="33.388" r=".875"/>
  <circle cx="129.59" cy="30.848" r=".75"/>
  <circle cx="135.94" cy="28.308" r=".75"/>
  <circle cx="118.8" cy="9.575" r=".875"/>
  <circle cx="123.88" cy="9.575" r="2"/>
  <circle cx="128.96" cy="9.575" r=".875"/>
  <circle cx="120.06" cy="7.035" r=".75"/>
  <circle cx="126.42" cy="4.495" r=".75"/>
 </g>
 <g fill="#50FA7B">
  <circle cx="86.728" cy="35.61" r="1.25"/>
  <circle cx="93.078" cy="33.07" r="1.25"/>
  <circle cx="5.765" cy="42.754" r="1.25"/>
  <circle cx="12.115" cy="40.214" r="1.25"/>
  <circle cx="51.009" cy="54.66" r="1.25"/>
  <circle cx="57.359" cy="52.12" r="1.25"/>
  <circle cx="86.728" cy="16.56" r="1.25"/>
  <circle cx="93.078" cy="14.02" r="1.25"/>
  <circle cx="41.484" cy="35.61" r="1.25"/>
  <circle cx="47.834" cy="33.07" r="1.25"/>
  <circle cx="67.678" cy="16.56" r="1.25"/>
  <circle cx="74.028" cy="14.02" r="1.25"/>
  <circle cx="110.54" cy="30.848" r="1.25"/>
  <circle cx="116.89" cy="28.308" r="1.25"/>
  <circle cx="48.628" cy="16.56" r="1.25"/>
  <circle cx="54.978" cy="14.02" r="1.25"/>
  <circle cx="17.671" cy="7.035" r="1.25"/>
  <circle cx="24.021" cy="4.495" r="1.25"/>
  <circle cx="67.678" cy="35.61" r="1.25"/>
  <circle cx="74.028" cy="33.07" r="1.25"/>
  <circle cx="120.06" cy="54.66" r="1.25"/>
  <circle cx="126.42" cy="52.12" r="1.25"/>
  <circle cx="24.815" cy="54.66" r="1.25"/>
  <circle cx="31.165" cy="52.12" r="1.25"/>
  <circle cx="129.59" cy="30.848" r="1.25"/>
  <circle cx="135.94" cy="28.308" r="1.25"/>
  <circle cx="120.06" cy="7.035" r="1.25"/>
  <circle cx="126.42" cy="4.495" r="1.25"/>
  <g fill="#50FA7B" fill-rule="evenodd">
   <path d="m138.18 39.338-0.0957-0.019-0.0811-0.0542-0.0542-0.0811-0.019-0.0957v-0.6l0.019-0.0957 0.0542-0.0811 0.0811-0.0542 0.0957-0.019h0.6l0.0957 0.019 0.0811 0.0542 0.0542 0.0811 0.019 0.0957v0.6l-0.019 0.0957-0.0542 0.0811-0.0811 0.0542-0.0957 0.019z"/>
   <path d="m138.18 36.538-0.0957-0.019-0.0811-0.0542-0.0542-0.0811-0.019-0.0957v-0.6l0.019-0.0957 0.0542-0.0811 0.0811-0.0542 0.0957-0.019h0.6l0.0957 0.019 0.0811 0.0542 0.0542 0.0811 0.019 0.0957v0.6l-0.019 0.0957-0.0542 0.0811-0.0811 0.0542-0.0957 0.019z"/>
   <path d="m59.599 63.15-0.0956-0.019-0.0811-0.0542-0.0542-0.0811-0.0191-0.0957v-0.6l0.0191-0.0957 0.0542-0.0811 0.0811-0.0542 0.0956-0.019h0.6l0.0957 0.019 0.0811 0.0542 0.0542 0.0811 0.019 0.0957v0.6l-0.019 0.0957-0.0542 0.0811-0.0811 0.0542-0.0957 0.019z"/>
   <path d="m59.599 60.35-0.0956-0.019-0.0811-0.0542-0.0542-0.0811-0.0191-0.0957v-0.6l0.0191-0.0957 0.0542-0.0811 0.0811-0.0542 0.0956-0.019h0.6l0.0957 0.019 0.0811 0.0542 0.0542 0.0811 0.019 0.0957v0.6l-0.019 0.0957-0.0542 0.0811-0.0811 0.0542-0.0957 0.019z"/>
   <path d="m33.405 63.15-0.0957-0.019-0.0811-0.0542-0.0542-0.0811-0.019-0.0957v-0.6l0.019-0.0957 0.0542-0.0811 0.0811-0.0542 0.0957-0.019h0.6l0.0957 0.019 0.0811 0.0542 0.0542 0.0811 0.019 0.0957v0.6l-0.019 0.0957-0.0542 0.0811-0.0811 0.0542-0.0957 0.019z"/>
   <path d="m33.405 60.35-0.0957-0.019-0.0811-0.0542-0.0542-0.0811-0.019-0.0957v-0.6l0.019-0.0957 0.0542-0.0811 0.0811-0.0542 0.0957-0.019h0.6l0.0957 0.019 0.0811 0.0542 0.0542 0.0811 0.019 0.0957v0.6l-0.019 0.0957-0.0542 0.0811-0.0811 0.0542-0.0957 0.019z"/>
   <path d="m128.66 15.525-0.0957-0.019-0.0811-0.0542-0.0542-0.0811-0.019-0.0957v-0.6l0.019-0.0957 0.0542-0.0811 0.0811-0.0542 0.0957-0.019h0.6l0.0957 0.019 0.0811 0.0542 0.0542 0.0811 0.019 0.0957v0.6l-0.019 0.0957-0.0542 0.0811-0.0811 0.0542-0.0957 0.019z"/>
   <path d="m128.66 12.725-0.0957-0.019-0.0811-0.0542-0.0542-0.0811-0.019-0.0957v-0.6l0.019-0.0957 0.0542-0.0811 0.0811-0.0542 0.0957-0.019h0.6l0.0957 0.019 0.0811 0.0542 0.0542 0.0811 0.019 0.0957v0.6l-0.019 0.0957-0.0542 0.0811-0.0811 0.0542-0.0957 0.019z"/>
   <path d="m95.318 25.05-0.0957-0.019-0.0811-0.0542-0.0542-0.0811-0.019-0.0957v-0.6l0.019-0.0957 0.0542-0.0811 0.0811-0.0542 0.0957-0.019h0.6l0.0957 0.019 0.0811 0.0542 0.0542 0.0811 0.019 0.0957v0.6l-0.019 0.0957-0.0542 0.0811-0.0811 0.0542-0.0957 0.019z"/>
   <path d="m95.318 22.25-0.0957-0.019-0.0811-0.0542-0.0542-0.0811-0.019-0.0957v-0.6l0.019-0.0957 0.0542-0.0811 0.0811-0.0542 0.0957-0.019h0.6l0.0957 0.019 0.0811 0.0542 0.0542 0.0811 0.019 0.0957v0.6l-0.019 0.0957-0.0542 0.0811-0.0811 0.0542-0.0957 0.019z"/>
   <path d="m14.355 51.244-0.0957-0.019-0.0811-0.0542-0.0542-0.0811-0.019-0.0957v-0.6l0.019-0.0956 0.0542-0.0811 0.0811-0.0542 0.0957-0.0191h0.6l0.0957 0.0191 0.0811 0.0542 0.0542 0.0811 0.019 0.0956v0.6l-0.019 0.0957-0.0542 0.0811-0.0811 0.0542-0.0957 0.019z"/>
   <path d="m14.355 48.444-0.0957-0.019-0.0811-0.0542-0.0542-0.0811-0.019-0.0957v-0.5999l0.019-0.0957 0.0542-0.0811 0.0811-0.0542 0.0957-0.019h0.6l0.0957 0.019 0.0811 0.0542 0.0542 0.0811 0.019 0.0957v0.5999l-0.019 0.0957-0.0542 0.0811-0.0811 0.0542-0.0957 0.019z"/>
   <path d="m57.218 25.05-0.0957-0.019-0.0811-0.0542-0.0542-0.0811-0.019-0.0957v-0.6l0.019-0.0957 0.0542-0.0811 0.0811-0.0542 0.0957-0.019h0.6l0.0957 0.019 0.0811 0.0542 0.0542 0.0811 0.019 0.0957v0.6l-0.019 0.0957-0.0542 0.0811-0.0811 0.0542-0.0957 0.019z"/>
   <path d="m57.218 22.25-0.0957-0.019-0.0811-0.0542-0.0542-0.0811-0.019-0.0957v-0.6l0.019-0.0957 0.0542-0.0811 0.0811-0.0542 0.0957-0.019h0.6l0.0957 0.019 0.0811 0.0542 0.0542 0.0811 0.019 0.0957v0.6l-0.019 0.0957-0.0542 0.0811-0.0811 0.0542-0.0957 0.019z"/>
   <path d="m26.261 15.525-0.0957-0.019-0.0811-0.0542-0.0542-0.0811-0.019-0.0957v-0.6l0.019-0.0957 0.0542-0.0811 0.0811-0.0542 0.0957-0.019h0.5999l0.0957 0.019 0.0811 0.0542 0.0542 0.0811 0.019 0.0957v0.6l-0.019 0.0957-0.0542 0.0811-0.0811 0.0542-0.0957 0.019z"/>
   <path d="m26.261 12.725-0.0957-0.019-0.0811-0.0542-0.0542-0.0811-0.019-0.0957v-0.6l0.019-0.0957 0.0542-0.0811 0.0811-0.0542 0.0957-0.019h0.5999l0.0957 0.019 0.0811 0.0542 0.0542 0.0811 0.019 0.0957v0.6l-0.019 0.0957-0.0542 0.0811-0.0811 0.0542-0.0957 0.019z"/>
   <path d="m128.66 63.15-0.0957-0.019-0.0811-0.0542-0.0542-0.0811-0.019-0.0957v-0.6l0.019-0.0957 0.0542-0.0811 0.0811-0.0542 0.0957-0.019h0.6l0.0957 0.019 0.0811 0.0542 0.0542 0.0811 0.019 0.0957v0.6l-0.019 0.0957-0.0542 0.0811-0.0811 0.0542-0.0957 0.019z"/>
   <path d="m128.66 60.35-0.0957-0.019-0.0811-0.0542-0.0542-0.0811-0.019-0.0957v-0.6l0.019-0.0957 0.0542-0.0811 0.0811-0.0542 0.0957-0.019h0.6l0.0957 0.019 0.0811 0.0542 0.0542 0.0811 0.019 0.0957v0.6l-0.019 0.0957-0.0542 0.0811-0.0811 0.0542-0.0957 0.019z"/>
   <path d="m76.268 25.05-0.0957-0.019-0.0811-0.0542-0.0542-0.0811-0.019-0.0957v-0.6l0.019-0.0957 0.0542-0.0811 0.0811-0.0542 0.0957-0.019h0.6l0.0957 0.019 0.0811 0.0542 0.0542 0.0811 0.019 0.0957v0.6l-0.019 0.0957-0.0542 0.0811-0.0811 0.0542-0.0957 0.019z"/>
   <path d="m76.268 22.25-0.0957-0.019-0.0811-0.0542-0.0542-0.0811-0.019-0.0957v-0.6l0.019-0.0957 0.0542-0.0811 0.0811-0.0542 0.0957-0.019h0.6l0.0957 0.019 0.0811 0.0542 0.0542 0.0811 0.019 0.0957v0.6l-0.019 0.0957-0.0542 0.0811-0.0811 0.0542-0.0957 0.019z"/>
   <path d="m95.318 44.1-0.0957-0.019-0.0811-0.0542-0.0542-0.0811-0.019-0.0957v-0.6l0.019-0.0957 0.0542-0.0811 0.0811-0.0542 0.0957-0.019h0.6l0.0957 0.019 0.0811 0.0542 0.0542 0.0811 0.019 0.0957v0.6l-0.019 0.0957-0.0542 0.0811-0.0811 0.0542-0.0957 0.019z"/>
   <path d="m95.318 41.3-0.0957-0.019-0.0811-0.0542-0.0542-0.0811-0.019-0.0957v-0.6l0.019-0.0957 0.0542-0.0811 0.0811-0.0542 0.0957-0.019h0.6l0.0957 0.019 0.0811 0.0542 0.0542 0.0811 0.019 0.0957v0.6l-0.019 0.0957-0.0542 0.0811-0.0811 0.0542-0.0957 0.019z"/>
   <path d="m119.13 39.338-0.0957-0.019-0.0811-0.0542-0.0542-0.0811-0.019-0.0957v-0.6l0.019-0.0957 0.0542-0.0811 0.0811-0.0542 0.0957-0.019h0.6l0.0957 0.019 0.0811 0.0542 0.0542 0.0811 0.019 0.0957v0.6l-0.019 0.0957-0.0542 0.0811-0.0811 0.0542-0.0957 0.019z"/>
   <path d="m119.13 36.538-0.0957-0.019-0.0811-0.0542-0.0542-0.0811-0.019-0.0957v-0.6l0.019-0.0957 0.0542-0.0811 0.0811-0.0542 0.0957-0.019h0.6l0.0957 0.019 0.0811 0.0542 0.0542 0.0811 0.019 0.0957v0.6l-0.019 0.0957-0.0542 0.0811-0.0811 0.0542-0.0957 0.019z"/>
   <path d="m50.074 44.1-0.0956-0.019-0.0811-0.0542-0.0542-0.0811-0.0191-0.0957v-0.6l0.0191-0.0957 0.0542-0.0811 0.0811-0.0542 0.0956-0.019h0.6l0.0957 0.019 0.0811 0.0542 0.0542 0.0811 0.019 0.0957v0.6l-0.019 0.0957-0.0542 0.0811-0.0811 0.0542-0.0957 0.019z"/>
   <path d="m50.074 41.3-0.0956-0.019-0.0811-0.0542-0.0542-0.0811-0.0191-0.0957v-0.6l0.0191-0.0957 0.0542-0.0811 0.0811-0.0542 0.0956-0.019h0.6l0.0957 0.019 0.0811 0.0542 0.0542 0.0811 0.019 0.0957v0.6l-0.019 0.0957-0.0542 0.0811-0.0811 0.0542-0.0957 0.019z"/>
   <path d="m76.268 44.1-0.0957-0.019-0.0811-0.0542-0.0542-0.0811-0.019-0.0957v-0.6l0.019-0.0957 0.0542-0.0811 0.0811-0.0542 0.0957-0.019h0.6l0.0957 0.019 0.0811 0.0542 0.0542 0.0811 0.019 0.0957v0.6l-0.019 0.0957-0.0542 0.0811-0.0811 0.0542-0.0957 0.019z"/>
   <path d="m76.268 41.3-0.0957-0.019-0.0811-0.0542-0.0542-0.0811-0.019-0.0957v-0.6l0.019-0.0957 0.0542-0.0811 0.0811-0.0542 0.0957-0.019h0.6l0.0957 0.019 0.0811 0.0542 0.0542 0.0811 0.019 0.0957v0.6l-0.019 0.0957-0.0542 0.0811-0.0811 0.0542-0.0957 0.019z"/>
  </g>
 </g>
 <g fill="none" stroke="#50FA7B" stroke-linecap="round" stroke-linejoin="round" stroke-width=".2">
  <path d="m24.021 9.635 2.54 2.54"/>
  <path d="m24.021 4.495v5.14"/>
  <path d="m54.978 19.16 2.54 2.54"/>
  <path d="m54.978 14.02v5.14"/>
  <path d="m74.028 14.02v5.14"/>
  <path d="m74.028 19.16 2.54 2.54"/>
  <path d="m93.078 14.02v5.14"/>
  <path d="m93.078 19.16 2.54 2.54"/>
  <path d="m126.42 52.12v5.14"/>
  <path d="m126.42 57.26 2.54 2.54"/>
  <path d="m12.115 45.354 2.54 2.54"/>
  <path d="m12.115 40.214v5.14"/>
  <path d="m47.834 38.21 2.5401 2.54"/>
  <path d="m47.834 33.07v5.14"/>
  <path d="m74.028 38.21 2.54 2.54"/>
  <path d="m74.028 33.07v5.14"/>
  <path d="m93.078 33.07v5.14"/>
  <path d="m93.078 38.21 2.54 2.54"/>
  <path d="m116.89 33.448 2.54 2.54"/>
  <path d="m116.89 28.308v5.14"/>
  <path d="m31.165 57.26 2.54 2.54"/>
  <path d="m31.165 52.12v5.14"/>
  <path d="m57.359 57.26 2.5399 2.54"/>
  <path d="m57.359 52.12v5.14"/>
  <path d="m126.42 4.495v5.14"/>
  <path d="m126.42 9.635 2.54 2.54"/>
  <path d="m135.94 33.448 2.54 2.54"/>
  <path d="m135.94 28.308v5.14"/>
  <path d="m76.568 24.5h19.05"/>
  <path d="m36.086 24.5h21.431"/>
  <path d="m26.561 14.975 9.525 9.525"/>
  <path d="m57.518 24.5h19.05"/>
  <path d="m14.655 50.694 7.1437-7.1437"/>
  <path d="m114.67 43.55 4.7625-4.7625"/>
  <path d="m50.374 43.55h26.194"/>
  <path d="m21.799 43.55h28.575"/>
  <path d="m95.618 43.55h19.05"/>
  <path d="m33.705 62.6h26.194"/>
 </g>
 <g fill="#fff">
  <circle cx="85.458" cy="38.15" r=".875"/>
  <circle cx="90.538" cy="38.15" r="2"/>
  <circle cx="95.618" cy="38.15" r=".875"/>
  <circle cx="86.728" cy="35.61" r=".75"/>
  <circle cx="93.078" cy="33.07" r=".75"/>
  <circle cx="4.495" cy="45.294" r=".875"/>
  <circle cx="9.575" cy="45.294" r="2"/>
  <circle cx="14.655" cy="45.294" r=".875"/>
  <circle cx="5.765" cy="42.754" r=".75"/>
  <circle cx="12.115" cy="40.214" r=".75"/>
  <circle cx="49.739" cy="57.2" r=".875"/>
  <circle cx="54.819" cy="57.2" r="2"/>
  <circle cx="59.899" cy="57.2" r=".875"/>
  <circle cx="51.009" cy="54.66" r=".75"/>
  <circle cx="57.359" cy="52.12" r=".75"/>
  <circle cx="85.458" cy="19.1" r=".875"/>
  <circle cx="90.538" cy="19.1" r="2"/>
  <circle cx="95.618" cy="19.1" r=".875"/>
  <circle cx="86.728" cy="16.56" r=".75"/>
  <circle cx="93.078" cy="14.02" r=".75"/>
  <circle cx="40.214" cy="38.15" r=".875"/>
  <circle cx="45.294" cy="38.15" r="2"/>
  <circle cx="50.374" cy="38.15" r=".875"/>
  <circle cx="41.484" cy="35.61" r=".75"/>
  <circle cx="47.834" cy="33.07" r=".75"/>
  <circle cx="66.408" cy="19.1" r=".875"/>
  <circle cx="71.488" cy="19.1" r="2"/>
  <circle cx="76.568" cy="19.1" r=".875"/>
  <circle cx="67.678" cy="16.56" r=".75"/>
  <circle cx="74.028" cy="14.02" r=".75"/>
  <circle cx="109.27" cy="33.388" r=".875"/>
  <circle cx="114.35" cy="33.388" r="2"/>
  <circle cx="119.43" cy="33.388" r=".875"/>
  <circle cx="110.54" cy="30.848" r=".75"/>
  <circle cx="116.89" cy="28.308" r=".75"/>
  <circle cx="47.358" cy="19.1" r=".875"/>
  <circle cx="52.438" cy="19.1" r="2"/>
  <circle cx="57.518" cy="19.1" r=".875"/>
  <circle cx="48.628" cy="16.56" r=".75"/>
  <circle cx="54.978" cy="14.02" r=".75"/>
  <circle cx="16.401" cy="9.575" r=".875"/>
  <circle cx="21.481" cy="9.575" r="2"/>
  <circle cx="26.561" cy="9.575" r=".875"/>
  <circle cx="17.671" cy="7.035" r=".75"/>
  <circle cx="24.021" cy="4.495" r=".75"/>
  <circle cx="66.408" cy="38.15" r=".875"/>
  <circle cx="71.488" cy="38.15" r="2"/>
  <circle cx="76.568" cy="38.15" r=".875"/>
  <circle cx="67.678" cy="35.61" r=".75"/>
  <circle cx="74.028" cy="33.07" r=".75"/>
  <circle cx="118.8" cy="57.2" r=".875"/>
  <circle cx="123.88" cy="57.2" r="2"/>
  <circle cx="128.96" cy="57.2" r=".875"/>
  <circle cx="120.06" cy="54.66" r=".75"/>
  <circle cx="126.42" cy="52.12" r=".75"/>
  <circle cx="23.545" cy="57.2" r=".875"/>
  <circle cx="28.625" cy="57.2" r="2"/>
  <circle cx="33.705" cy="57.2" r=".875"/>
  <circle cx="24.815" cy="54.66" r=".75"/>
  <circle cx="31.165" cy="52.12" r=".75"/>
  <circle cx="128.32" cy="33.388" r=".875"/>
  <circle cx="133.4" cy="33.388" r="2"/>
  <circle cx="138.48" cy="33.388" r=".875"/>
  <circle cx="129.59" cy="30.848" r=".75"/>
  <circle cx="135.94" cy="28.308" r=".75"/>
  <circle cx="118.8" cy="9.575" r=".875"/>
  <circle cx="123.88" cy="9.575" r="2"/>
  <circle cx="128.96" cy="9.575" r=".875"/>
  <circle cx="120.06" cy="7.035" r=".75"/>
  <circle cx="126.42" cy="4.495" r=".75"/>
 </g>
</svg>
