<?xml version="1.0" encoding="UTF-8"?>
<!DOCTYPE svg  PUBLIC '-//W3C//DTD SVG 1.1//EN'  'http://www.w3.org/Graphics/SVG/1.1/DTD/svg11.dtd'>
<svg width="139.47mm" height="92.202mm" version="1.1" viewBox="0 0 139.47 92.202" xmlns="http://www.w3.org/2000/svg">
 <title>SVG Image created as craftwalk-render.svg date 2025/09/05 18:35:06</title>
 <desc>Image generated by PCBNEW</desc>
 <rect width="139.47mm" height="92.202mm" fill="#282A36"/>
 <g fill="none" stroke="#8BE9FD" stroke-linecap="round" stroke-linejoin="round" stroke-width=".15">
  <g transform="rotate(-12 9.6839 30.117)">
   <text x="9.6839" y="30.6167" font-size="1.3333" opacity="0" stroke-opacity="0" text-anchor="middle" lengthAdjust="spacingAndGlyphs" textLength="3.2976">SW4</text>
  </g>
  <g class="stroked-text">
   <desc>SW4</desc>
   <path d="m8.4644 30.792 0.1496 0.0169"/>
   <path d="m8.614 30.809 0.2329-0.0495"/>
   <path d="m8.8469 30.76 0.0833-0.0664"/>
   <path d="m8.9302 30.693 0.0366-0.0565"/>
   <path d="m8.9668 30.637 0.0268-0.1031"/>
   <path d="m8.9936 30.534-0.0198-0.0931"/>
   <path d="m8.9738 30.44-0.0664-0.0833"/>
   <path d="m8.9074 30.357-0.0564-0.0366"/>
   <path d="m8.851 30.321-0.1031-0.0268"/>
   <path d="m8.7479 30.294-0.1962-7e-3"/>
   <path d="m8.5517 30.287-0.1031-0.0268"/>
   <path d="m8.4486 30.26-0.0564-0.0367"/>
   <path d="m8.3922 30.223-0.0664-0.0832"/>
   <path d="m8.3258 30.14-0.0198-0.0932"/>
   <path d="m8.306 30.047 0.0268-0.103"/>
   <path d="m8.3328 29.944 0.0366-0.0565"/>
   <path d="m8.3694 29.887 0.0833-0.0664"/>
   <path d="m8.4527 29.821 0.2329-0.0495"/>
   <path d="m8.6856 29.772 0.1496 0.0169"/>
   <path d="m9.1514 29.672 0.4408 0.9287"/>
   <path d="m9.5922 30.601 0.0378-0.7383"/>
   <path d="m9.63 29.863 0.3348 0.6591"/>
   <path d="m9.9648 30.522 0.025-1.0277"/>
   <path d="m10.851 29.652 0.1386 0.6521"/>
   <path d="m10.539 29.329-0.0844 0.7482"/>
   <path d="m10.454 30.077 0.6056-0.1287"/>
  </g>
  <text x="76.0419" y="25.8875" font-size="1.3333" opacity="0" stroke-opacity="0" text-anchor="middle" lengthAdjust="spacingAndGlyphs" textLength="3.2976">SW7</text>
  <g class="stroked-text">
   <desc>SW7</desc>
   <path d="m74.708 25.795 0.1429 0.0476"/>
   <path d="m74.851 25.842h0.2381"/>
   <path d="m75.09 25.842 0.0952-0.0476"/>
   <path d="m75.185 25.795 0.0476-0.0476"/>
   <path d="m75.232 25.747 0.0477-0.0953"/>
   <path d="m75.28 25.652v-0.0952"/>
   <path d="m75.28 25.557-0.0477-0.0952"/>
   <path d="m75.232 25.461-0.0476-0.0477"/>
   <path d="m75.185 25.414-0.0952-0.0476"/>
   <path d="m75.09 25.366-0.1905-0.0476"/>
   <path d="m74.899 25.318-0.0952-0.0476"/>
   <path d="m74.804 25.271-0.0477-0.0476"/>
   <path d="m74.756 25.223-0.0476-0.0953"/>
   <path d="m74.708 25.128v-0.0952"/>
   <path d="m74.708 25.033 0.0476-0.0952"/>
   <path d="m74.756 24.938 0.0477-0.0477"/>
   <path d="m74.804 24.89 0.0952-0.0476"/>
   <path d="m74.899 24.842h0.2381"/>
   <path d="m75.137 24.842 0.1429 0.0476"/>
   <path d="m75.613 24.842 0.2381 1"/>
   <path d="m75.851 25.842 0.1905-0.7143"/>
   <path d="m76.042 25.128 0.1904 0.7143"/>
   <path d="m76.232 25.842 0.2381-1"/>
   <path d="m76.756 24.842h0.6667"/>
   <path d="m77.423 24.842-0.4286 1"/>
  </g>
  <g transform="rotate(-12 13.645 48.75)">
   <text x="13.6446" y="49.2504" font-size="1.3333" opacity="0" stroke-opacity="0" text-anchor="middle" lengthAdjust="spacingAndGlyphs" textLength="3.2976">SW8</text>
  </g>
  <g class="stroked-text">
   <desc>SW8</desc>
   <path d="m12.425 49.426 0.1496 0.0169"/>
   <path d="m12.575 49.443 0.2329-0.0495"/>
   <path d="m12.808 49.393 0.0833-0.0664"/>
   <path d="m12.891 49.327 0.0367-0.0565"/>
   <path d="m12.928 49.27 0.0267-0.103"/>
   <path d="m12.954 49.167-0.0198-0.0932"/>
   <path d="m12.934 49.074-0.0663-0.0833"/>
   <path d="m12.868 48.991-0.0565-0.0366"/>
   <path d="m12.812 48.954-0.1031-0.0268"/>
   <path d="m12.709 48.928-0.1962-7e-3"/>
   <path d="m12.512 48.92-0.103-0.0268"/>
   <path d="m12.409 48.894-0.0565-0.0366"/>
   <path d="m12.353 48.857-0.0664-0.0833"/>
   <path d="m12.286 48.774-0.0198-0.0932"/>
   <path d="m12.267 48.681 0.0268-0.103"/>
   <path d="m12.294 48.578 0.0366-0.0565"/>
   <path d="m12.33 48.521 0.0833-0.0664"/>
   <path d="m12.413 48.455 0.2329-0.0495"/>
   <path d="m12.646 48.405 0.1496 0.0169"/>
   <path d="m13.112 48.306 0.4408 0.9287"/>
   <path d="m13.553 49.235 0.0378-0.7383"/>
   <path d="m13.591 48.497 0.3348 0.6591"/>
   <path d="m13.926 49.156 0.025-1.0277"/>
   <path d="m14.552 48.438-0.1031-0.0268"/>
   <path d="m14.449 48.412-0.0565-0.0366"/>
   <path d="m14.392 48.375-0.0664-0.0833"/>
   <path d="m14.326 48.292-0.0099-0.0466"/>
   <path d="m14.316 48.245 0.0268-0.103"/>
   <path d="m14.343 48.142 0.0367-0.0565"/>
   <path d="m14.38 48.086 0.0833-0.0664"/>
   <path d="m14.463 48.019 0.1863-0.0396"/>
   <path d="m14.649 47.98 0.103 0.0268"/>
   <path d="m14.752 48.006 0.0565 0.0367"/>
   <path d="m14.809 48.043 0.0664 0.0832"/>
   <path d="m14.875 48.126 0.0099 0.0466"/>
   <path d="m14.885 48.173-0.0268 0.1031"/>
   <path d="m14.858 48.276-0.0367 0.0564"/>
   <path d="m14.822 48.332-0.0832 0.0664"/>
   <path d="m14.738 48.399-0.1863 0.0396"/>
   <path d="m14.552 48.438-0.0833 0.0664"/>
   <path d="m14.469 48.505-0.0367 0.0565"/>
   <path d="m14.432 48.561-0.0267 0.103"/>
   <path d="m14.405 48.664 0.0396 0.1863"/>
   <path d="m14.445 48.85 0.0663 0.0833"/>
   <path d="m14.511 48.934 0.0565 0.0367"/>
   <path d="m14.568 48.97 0.1031 0.0268"/>
   <path d="m14.671 48.997 0.1863-0.0396"/>
   <path d="m14.857 48.958 0.0832-0.0664"/>
   <path d="m14.94 48.891 0.0367-0.0565"/>
   <path d="m14.977 48.835 0.0268-0.1031"/>
   <path d="m15.004 48.732-0.0396-0.1863"/>
   <path d="m14.964 48.545-0.0664-0.0832"/>
   <path d="m14.898 48.462-0.0565-0.0367"/>
   <path d="m14.841 48.426-0.103-0.0268"/>
  </g>
  <text x="76.0419" y="6.8375" font-size="1.3333" opacity="0" stroke-opacity="0" text-anchor="middle" lengthAdjust="spacingAndGlyphs" textLength="3.2976">SW3</text>
  <g class="stroked-text">
   <desc>SW3</desc>
   <path d="m74.708 6.7447 0.1429 0.0476"/>
   <path d="m74.851 6.7923h0.2381"/>
   <path d="m75.09 6.7923 0.0952-0.0476"/>
   <path d="m75.185 6.7447 0.0476-0.0476"/>
   <path d="m75.232 6.6971 0.0477-0.0953"/>
   <path d="m75.28 6.6018v-0.0952"/>
   <path d="m75.28 6.5066-0.0477-0.0952"/>
   <path d="m75.232 6.4114-0.0476-0.0477"/>
   <path d="m75.185 6.3637-0.0952-0.0476"/>
   <path d="m75.09 6.3161-0.1905-0.0476"/>
   <path d="m74.899 6.2685-0.0952-0.0476"/>
   <path d="m74.804 6.2209-0.0477-0.0476"/>
   <path d="m74.756 6.1733-0.0476-0.0953"/>
   <path d="m74.708 6.078v-0.0952"/>
   <path d="m74.708 5.9828 0.0476-0.0952"/>
   <path d="m74.756 5.8876 0.0477-0.0477"/>
   <path d="m74.804 5.8399 0.0952-0.0476"/>
   <path d="m74.899 5.7923h0.2381"/>
   <path d="m75.137 5.7923 0.1429 0.0476"/>
   <path d="m75.613 5.7923 0.2381 1"/>
   <path d="m75.851 6.7923 0.1905-0.7143"/>
   <path d="m76.042 6.078 0.1904 0.7143"/>
   <path d="m76.232 6.7923 0.2381-1"/>
   <path d="m76.756 5.7923h0.6191"/>
   <path d="m77.375 5.7923-0.3333 0.381"/>
   <path d="m77.042 6.1733h0.1428"/>
   <path d="m77.185 6.1733 0.0953 0.0476"/>
   <path d="m77.28 6.2209 0.0476 0.0476"/>
   <path d="m77.328 6.2685 0.0476 0.0952"/>
   <path d="m77.375 6.3637v0.2381"/>
   <path d="m77.375 6.6018-0.0476 0.0953"/>
   <path d="m77.328 6.6971-0.0476 0.0476"/>
   <path d="m77.28 6.7447-0.0953 0.0476"/>
   <path d="m77.185 6.7923h-0.2857"/>
   <path d="m76.899 6.7923-0.0952-0.0476"/>
   <path d="m76.804 6.7447-0.0477-0.0476"/>
  </g>
  <text x="37.9419" y="6.8375" font-size="1.3333" opacity="0" stroke-opacity="0" text-anchor="middle" lengthAdjust="spacingAndGlyphs" textLength="3.2976">SW1</text>
  <g class="stroked-text">
   <desc>SW1</desc>
   <path d="m36.608 6.7447 0.1429 0.0476"/>
   <path d="m36.751 6.7923h0.2381"/>
   <path d="m36.99 6.7923 0.0952-0.0476"/>
   <path d="m37.085 6.7447 0.0476-0.0476"/>
   <path d="m37.132 6.6971 0.0477-0.0953"/>
   <path d="m37.18 6.6018v-0.0952"/>
   <path d="m37.18 6.5066-0.0477-0.0952"/>
   <path d="m37.132 6.4114-0.0476-0.0477"/>
   <path d="m37.085 6.3637-0.0952-0.0476"/>
   <path d="m36.99 6.3161-0.1905-0.0476"/>
   <path d="m36.799 6.2685-0.0952-0.0476"/>
   <path d="m36.704 6.2209-0.0477-0.0476"/>
   <path d="m36.656 6.1733-0.0476-0.0953"/>
   <path d="m36.608 6.078v-0.0952"/>
   <path d="m36.608 5.9828 0.0476-0.0952"/>
   <path d="m36.656 5.8876 0.0477-0.0477"/>
   <path d="m36.704 5.8399 0.0952-0.0476"/>
   <path d="m36.799 5.7923h0.2381"/>
   <path d="m37.037 5.7923 0.1429 0.0476"/>
   <path d="m37.513 5.7923 0.2381 1"/>
   <path d="m37.751 6.7923 0.1905-0.7143"/>
   <path d="m37.942 6.078 0.1904 0.7143"/>
   <path d="m38.132 6.7923 0.2381-1"/>
   <path d="m39.275 6.7923h-0.5714"/>
   <path d="m38.99 6.7923v-1"/>
   <path d="m38.99 5.7923-0.0953 0.1429"/>
   <path d="m38.894 5.9352-0.0952 0.0952"/>
   <path d="m38.799 6.0304-0.0952 0.0476"/>
  </g>
  <g transform="rotate(20 129.96 72.431)">
   <text x="129.9612" y="72.9312" font-size="1.3333" opacity="0" stroke-opacity="0" text-anchor="middle" lengthAdjust="spacingAndGlyphs" textLength="4.2500">SW14</text>
  </g>
  <g class="stroked-text">
   <desc>SW14</desc>
   <path d="m128.12 72.195 0.1179 0.0936"/>
   <path d="m128.24 72.289 0.2238 0.0814"/>
   <path d="m128.46 72.37 0.1057-0.0122"/>
   <path d="m128.57 72.358 0.0611-0.0284"/>
   <path d="m128.63 72.329 0.0773-0.0732"/>
   <path d="m128.71 72.256 0.0326-0.0895"/>
   <path d="m128.74 72.167-0.0122-0.1058"/>
   <path d="m128.73 72.061-0.0285-0.061"/>
   <path d="m128.7 72-0.0732-0.0774"/>
   <path d="m128.63 71.922-0.1627-0.1098"/>
   <path d="m128.46 71.813-0.0732-0.0774"/>
   <path d="m128.39 71.735-0.0284-0.061"/>
   <path d="m128.36 71.674-0.0122-0.1058"/>
   <path d="m128.35 71.568 0.0326-0.0895"/>
   <path d="m128.38 71.479 0.0773-0.0732"/>
   <path d="m128.46 71.406 0.061-0.0284"/>
   <path d="m128.52 71.377 0.1058-0.0122"/>
   <path d="m128.63 71.365 0.2237 0.0814"/>
   <path d="m128.85 71.447 0.118 0.0936"/>
   <path d="m129.3 71.61-0.1183 1.0211"/>
   <path d="m129.18 72.631 0.4233-0.6061"/>
   <path d="m129.6 72.024-0.0653 0.7364"/>
   <path d="m129.54 72.761 0.5658-0.8583"/>
   <path d="m130.61 73.152-0.5369-0.1955"/>
   <path d="m130.34 73.054 0.3421-0.9397"/>
   <path d="m130.68 72.114-0.1384 0.1016"/>
   <path d="m130.55 72.216-0.1221 0.057"/>
   <path d="m130.42 72.273-0.1057 0.0121"/>
   <path d="m131.64 72.818-0.228 0.6264"/>
   <path d="m131.55 72.379-0.4681 0.5897"/>
   <path d="m131.08 72.969 0.5817 0.2118"/>
  </g>
  <text x="56.9919" y="21.1250" font-size="1.3333" opacity="0" stroke-opacity="0" text-anchor="middle" lengthAdjust="spacingAndGlyphs" textLength="3.2976">SW6</text>
  <g class="stroked-text">
   <desc>SW6</desc>
   <path d="m55.658 21.032 0.1429 0.0476"/>
   <path d="m55.801 21.08h0.2381"/>
   <path d="m56.04 21.08 0.0952-0.0476"/>
   <path d="m56.135 21.032 0.0476-0.0476"/>
   <path d="m56.182 20.985 0.0477-0.0953"/>
   <path d="m56.23 20.889v-0.0952"/>
   <path d="m56.23 20.794-0.0477-0.0952"/>
   <path d="m56.182 20.699-0.0476-0.0477"/>
   <path d="m56.135 20.651-0.0952-0.0476"/>
   <path d="m56.04 20.604-0.1905-0.0476"/>
   <path d="m55.849 20.556-0.0952-0.0476"/>
   <path d="m55.754 20.508-0.0477-0.0476"/>
   <path d="m55.706 20.461-0.0476-0.0953"/>
   <path d="m55.658 20.366v-0.0952"/>
   <path d="m55.658 20.27 0.0476-0.0952"/>
   <path d="m55.706 20.175 0.0477-0.0477"/>
   <path d="m55.754 20.127 0.0952-0.0476"/>
   <path d="m55.849 20.08h0.2381"/>
   <path d="m56.087 20.08 0.1429 0.0476"/>
   <path d="m56.563 20.08 0.2381 1"/>
   <path d="m56.801 21.08 0.1905-0.7143"/>
   <path d="m56.992 20.366 0.1904 0.7143"/>
   <path d="m57.182 21.08 0.2381-1"/>
   <path d="m58.23 20.08h-0.1905"/>
   <path d="m58.04 20.08-0.0953 0.0476"/>
   <path d="m57.944 20.127-0.0476 0.0477"/>
   <path d="m57.897 20.175-0.0952 0.1428"/>
   <path d="m57.801 20.318-0.0476 0.1905"/>
   <path d="m57.754 20.508v0.3809"/>
   <path d="m57.754 20.889 0.0476 0.0953"/>
   <path d="m57.801 20.985 0.0476 0.0476"/>
   <path d="m57.849 21.032 0.0952 0.0476"/>
   <path d="m57.944 21.08h0.1905"/>
   <path d="m58.135 21.08 0.0953-0.0476"/>
   <path d="m58.23 21.032 0.0476-0.0476"/>
   <path d="m58.278 20.985 0.0476-0.0953"/>
   <path d="m58.325 20.889v-0.2381"/>
   <path d="m58.325 20.651-0.0476-0.0952"/>
   <path d="m58.278 20.556-0.0476-0.0476"/>
   <path d="m58.23 20.508-0.0953-0.0476"/>
   <path d="m58.135 20.461h-0.1905"/>
   <path d="m57.944 20.461-0.0952 0.0476"/>
   <path d="m57.849 20.508-0.0476 0.0476"/>
   <path d="m57.801 20.556-0.0476 0.0952"/>
  </g>
  <g transform="rotate(20 112.06 65.916)">
   <text x="112.0601" y="66.4157" font-size="1.3333" opacity="0" stroke-opacity="0" text-anchor="middle" lengthAdjust="spacingAndGlyphs" textLength="4.2500">SW13</text>
  </g>
  <g class="stroked-text">
   <desc>SW13</desc>
   <path d="m110.22 65.68 0.118 0.0936"/>
   <path d="m110.34 65.773 0.2237 0.0814"/>
   <path d="m110.56 65.854 0.1058-0.0121"/>
   <path d="m110.67 65.842 0.061-0.0285"/>
   <path d="m110.73 65.814 0.0774-0.0732"/>
   <path d="m110.81 65.741 0.0325-0.0895"/>
   <path d="m110.84 65.651-0.0121-0.1058"/>
   <path d="m110.83 65.545-0.0285-0.061"/>
   <path d="m110.8 65.484-0.0732-0.0773"/>
   <path d="m110.72 65.407-0.1627-0.1099"/>
   <path d="m110.56 65.297-0.0732-0.0774"/>
   <path d="m110.49 65.22-0.0285-0.061"/>
   <path d="m110.46 65.159-0.0122-0.1058"/>
   <path d="m110.45 65.053 0.0326-0.0895"/>
   <path d="m110.48 64.964 0.0773-0.0732"/>
   <path d="m110.56 64.89 0.0611-0.0284"/>
   <path d="m110.62 64.862 0.1057-0.0122"/>
   <path d="m110.73 64.85 0.2238 0.0814"/>
   <path d="m110.95 64.931 0.1179 0.0936"/>
   <path d="m111.4 65.094-0.1183 1.0211"/>
   <path d="m111.28 66.115 0.4233-0.606"/>
   <path d="m111.7 65.509-0.0653 0.7363"/>
   <path d="m111.64 66.245 0.5657-0.8582"/>
   <path d="m112.71 66.636-0.537-0.1954"/>
   <path d="m112.44 66.539 0.342-0.9397"/>
   <path d="m112.78 65.599-0.1383 0.1016"/>
   <path d="m112.65 65.7-0.1221 0.057"/>
   <path d="m112.52 65.758-0.1058 0.0121"/>
   <path d="m113.37 65.811 0.5818 0.2117"/>
   <path d="m113.95 66.022-0.4436 0.244"/>
   <path d="m113.5 66.266 0.1343 0.0489"/>
   <path d="m113.64 66.315 0.0732 0.0773"/>
   <path d="m113.71 66.392 0.0284 0.061"/>
   <path d="m113.74 66.454 0.0122 0.1058"/>
   <path d="m113.75 66.559-0.0814 0.2237"/>
   <path d="m113.67 66.783-0.0773 0.0732"/>
   <path d="m113.59 66.856-0.0611 0.0285"/>
   <path d="m113.53 66.885-0.1058 0.0122"/>
   <path d="m113.43 66.897-0.2684-0.0977"/>
   <path d="m113.16 66.799-0.0732-0.0774"/>
   <path d="m113.08 66.722-0.0285-0.061"/>
  </g>
  <text x="95.0919" y="40.1750" font-size="1.3333" opacity="0" stroke-opacity="0" text-anchor="middle" lengthAdjust="spacingAndGlyphs" textLength="4.2500">SW12</text>
  <g class="stroked-text">
   <desc>SW12</desc>
   <path d="m93.282 40.082 0.1429 0.0476"/>
   <path d="m93.425 40.13h0.2381"/>
   <path d="m93.663 40.13 0.0952-0.0476"/>
   <path d="m93.758 40.082 0.0476-0.0476"/>
   <path d="m93.806 40.035 0.0477-0.0953"/>
   <path d="m93.854 39.939v-0.0952"/>
   <path d="m93.854 39.844-0.0477-0.0952"/>
   <path d="m93.806 39.749-0.0476-0.0477"/>
   <path d="m93.758 39.701-0.0952-0.0476"/>
   <path d="m93.663 39.654-0.1905-0.0476"/>
   <path d="m93.473 39.606-0.0952-0.0476"/>
   <path d="m93.378 39.558-0.0476-0.0476"/>
   <path d="m93.33 39.511-0.0477-0.0953"/>
   <path d="m93.282 39.416v-0.0952"/>
   <path d="m93.282 39.32 0.0477-0.0952"/>
   <path d="m93.33 39.225 0.0476-0.0477"/>
   <path d="m93.378 39.177 0.0952-0.0476"/>
   <path d="m93.473 39.13h0.2381"/>
   <path d="m93.711 39.13 0.1429 0.0476"/>
   <path d="m94.187 39.13 0.2381 1"/>
   <path d="m94.425 40.13 0.1905-0.7143"/>
   <path d="m94.616 39.416 0.1904 0.7143"/>
   <path d="m94.806 40.13 0.2381-1"/>
   <path d="m95.949 40.13h-0.5714"/>
   <path d="m95.663 40.13v-1"/>
   <path d="m95.663 39.13-0.0953 0.1429"/>
   <path d="m95.568 39.273-0.0952 0.0952"/>
   <path d="m95.473 39.368-0.0952 0.0476"/>
   <path d="m96.33 39.225 0.0476-0.0477"/>
   <path d="m96.378 39.177 0.0952-0.0476"/>
   <path d="m96.473 39.13h0.2381"/>
   <path d="m96.711 39.13 0.0952 0.0476"/>
   <path d="m96.806 39.177 0.0477 0.0477"/>
   <path d="m96.854 39.225 0.0476 0.0952"/>
   <path d="m96.901 39.32v0.0952"/>
   <path d="m96.901 39.416-0.0476 0.1429"/>
   <path d="m96.854 39.558-0.5715 0.5714"/>
   <path d="m96.282 40.13h0.6191"/>
  </g>
  <text x="37.9419" y="25.8875" font-size="1.3333" opacity="0" stroke-opacity="0" text-anchor="middle" lengthAdjust="spacingAndGlyphs" textLength="3.2976">SW5</text>
  <g class="stroked-text">
   <desc>SW5</desc>
   <path d="m36.608 25.795 0.1429 0.0476"/>
   <path d="m36.751 25.842h0.2381"/>
   <path d="m36.99 25.842 0.0952-0.0476"/>
   <path d="m37.085 25.795 0.0476-0.0476"/>
   <path d="m37.132 25.747 0.0477-0.0953"/>
   <path d="m37.18 25.652v-0.0952"/>
   <path d="m37.18 25.557-0.0477-0.0952"/>
   <path d="m37.132 25.461-0.0476-0.0477"/>
   <path d="m37.085 25.414-0.0952-0.0476"/>
   <path d="m36.99 25.366-0.1905-0.0476"/>
   <path d="m36.799 25.318-0.0952-0.0476"/>
   <path d="m36.704 25.271-0.0477-0.0476"/>
   <path d="m36.656 25.223-0.0476-0.0953"/>
   <path d="m36.608 25.128v-0.0952"/>
   <path d="m36.608 25.033 0.0476-0.0952"/>
   <path d="m36.656 24.938 0.0477-0.0477"/>
   <path d="m36.704 24.89 0.0952-0.0476"/>
   <path d="m36.799 24.842h0.2381"/>
   <path d="m37.037 24.842 0.1429 0.0476"/>
   <path d="m37.513 24.842 0.2381 1"/>
   <path d="m37.751 25.842 0.1905-0.7143"/>
   <path d="m37.942 25.128 0.1904 0.7143"/>
   <path d="m38.132 25.842 0.2381-1"/>
   <path d="m39.228 24.842h-0.4762"/>
   <path d="m38.751 24.842-0.0476 0.4762"/>
   <path d="m38.704 25.318 0.0476-0.0476"/>
   <path d="m38.751 25.271 0.0952-0.0476"/>
   <path d="m38.847 25.223h0.2381"/>
   <path d="m39.085 25.223 0.0953 0.0476"/>
   <path d="m39.18 25.271 0.0476 0.0476"/>
   <path d="m39.228 25.318 0.0476 0.0952"/>
   <path d="m39.275 25.414v0.2381"/>
   <path d="m39.275 25.652-0.0476 0.0953"/>
   <path d="m39.228 25.747-0.0476 0.0476"/>
   <path d="m39.18 25.795-0.0953 0.0476"/>
   <path d="m39.085 25.842h-0.2381"/>
   <path d="m38.847 25.842-0.0952-0.0476"/>
   <path d="m38.751 25.795-0.0476-0.0476"/>
  </g>
  <text x="37.9419" y="44.9375" font-size="1.3333" opacity="0" stroke-opacity="0" text-anchor="middle" lengthAdjust="spacingAndGlyphs" textLength="3.2976">SW9</text>
  <g class="stroked-text">
   <desc>SW9</desc>
   <path d="m36.608 44.845 0.1429 0.0476"/>
   <path d="m36.751 44.892h0.2381"/>
   <path d="m36.99 44.892 0.0952-0.0476"/>
   <path d="m37.085 44.845 0.0476-0.0476"/>
   <path d="m37.132 44.797 0.0477-0.0953"/>
   <path d="m37.18 44.702v-0.0952"/>
   <path d="m37.18 44.607-0.0477-0.0952"/>
   <path d="m37.132 44.511-0.0476-0.0477"/>
   <path d="m37.085 44.464-0.0952-0.0476"/>
   <path d="m36.99 44.416-0.1905-0.0476"/>
   <path d="m36.799 44.368-0.0952-0.0476"/>
   <path d="m36.704 44.321-0.0477-0.0476"/>
   <path d="m36.656 44.273-0.0476-0.0953"/>
   <path d="m36.608 44.178v-0.0952"/>
   <path d="m36.608 44.083 0.0476-0.0952"/>
   <path d="m36.656 43.988 0.0477-0.0477"/>
   <path d="m36.704 43.94 0.0952-0.0476"/>
   <path d="m36.799 43.892h0.2381"/>
   <path d="m37.037 43.892 0.1429 0.0476"/>
   <path d="m37.513 43.892 0.2381 1"/>
   <path d="m37.751 44.892 0.1905-0.7143"/>
   <path d="m37.942 44.178 0.1904 0.7143"/>
   <path d="m38.132 44.892 0.2381-1"/>
   <path d="m38.799 44.892h0.1905"/>
   <path d="m38.99 44.892 0.0952-0.0476"/>
   <path d="m39.085 44.845 0.0476-0.0476"/>
   <path d="m39.132 44.797 0.0953-0.1429"/>
   <path d="m39.228 44.654 0.0476-0.1905"/>
   <path d="m39.275 44.464v-0.3809"/>
   <path d="m39.275 44.083-0.0476-0.0952"/>
   <path d="m39.228 43.988-0.0476-0.0477"/>
   <path d="m39.18 43.94-0.0953-0.0476"/>
   <path d="m39.085 43.892h-0.1905"/>
   <path d="m38.894 43.892-0.0952 0.0476"/>
   <path d="m38.799 43.94-0.0476 0.0477"/>
   <path d="m38.751 43.988-0.0476 0.0952"/>
   <path d="m38.704 44.083v0.2381"/>
   <path d="m38.704 44.321 0.0476 0.0952"/>
   <path d="m38.751 44.416 0.0476 0.0476"/>
   <path d="m38.799 44.464 0.0952 0.0477"/>
   <path d="m38.894 44.511h0.1905"/>
   <path d="m39.085 44.511 0.0953-0.0477"/>
   <path d="m39.18 44.464 0.0476-0.0476"/>
   <path d="m39.228 44.416 0.0476-0.0952"/>
  </g>
  <text x="56.9919" y="40.1750" font-size="1.3333" opacity="0" stroke-opacity="0" text-anchor="middle" lengthAdjust="spacingAndGlyphs" textLength="4.2500">SW10</text>
  <g class="stroked-text">
   <desc>SW10</desc>
   <path d="m55.182 40.082 0.1429 0.0476"/>
   <path d="m55.325 40.13h0.2381"/>
   <path d="m55.563 40.13 0.0952-0.0476"/>
   <path d="m55.658 40.082 0.0476-0.0476"/>
   <path d="m55.706 40.035 0.0477-0.0953"/>
   <path d="m55.754 39.939v-0.0952"/>
   <path d="m55.754 39.844-0.0477-0.0952"/>
   <path d="m55.706 39.749-0.0476-0.0477"/>
   <path d="m55.658 39.701-0.0952-0.0476"/>
   <path d="m55.563 39.654-0.1905-0.0476"/>
   <path d="m55.373 39.606-0.0952-0.0476"/>
   <path d="m55.278 39.558-0.0476-0.0476"/>
   <path d="m55.23 39.511-0.0477-0.0953"/>
   <path d="m55.182 39.416v-0.0952"/>
   <path d="m55.182 39.32 0.0477-0.0952"/>
   <path d="m55.23 39.225 0.0476-0.0477"/>
   <path d="m55.278 39.177 0.0952-0.0476"/>
   <path d="m55.373 39.13h0.2381"/>
   <path d="m55.611 39.13 0.1429 0.0476"/>
   <path d="m56.087 39.13 0.2381 1"/>
   <path d="m56.325 40.13 0.1905-0.7143"/>
   <path d="m56.516 39.416 0.1904 0.7143"/>
   <path d="m56.706 40.13 0.2381-1"/>
   <path d="m57.849 40.13h-0.5714"/>
   <path d="m57.563 40.13v-1"/>
   <path d="m57.563 39.13-0.0953 0.1429"/>
   <path d="m57.468 39.273-0.0952 0.0952"/>
   <path d="m57.373 39.368-0.0952 0.0476"/>
   <path d="m58.468 39.13h0.0953"/>
   <path d="m58.563 39.13 0.0952 0.0476"/>
   <path d="m58.658 39.177 0.0476 0.0477"/>
   <path d="m58.706 39.225 0.0477 0.0952"/>
   <path d="m58.754 39.32 0.0476 0.1905"/>
   <path d="m58.801 39.511v0.2381"/>
   <path d="m58.801 39.749-0.0476 0.1904"/>
   <path d="m58.754 39.939-0.0477 0.0953"/>
   <path d="m58.706 40.035-0.0476 0.0476"/>
   <path d="m58.658 40.082-0.0952 0.0476"/>
   <path d="m58.563 40.13h-0.0953"/>
   <path d="m58.468 40.13-0.0952-0.0476"/>
   <path d="m58.373 40.082-0.0476-0.0476"/>
   <path d="m58.325 40.035-0.0476-0.0953"/>
   <path d="m58.278 39.939-0.0476-0.1904"/>
   <path d="m58.23 39.749v-0.2381"/>
   <path d="m58.23 39.511 0.0476-0.1905"/>
   <path d="m58.278 39.32 0.0476-0.0952"/>
   <path d="m58.325 39.225 0.0476-0.0477"/>
   <path d="m58.373 39.177 0.0952-0.0476"/>
  </g>
  <text x="76.0419" y="44.9375" font-size="1.3333" opacity="0" stroke-opacity="0" text-anchor="middle" lengthAdjust="spacingAndGlyphs" textLength="4.2500">SW11</text>
  <g class="stroked-text">
   <desc>SW11</desc>
   <path d="m74.232 44.845 0.1429 0.0476"/>
   <path d="m74.375 44.892h0.2381"/>
   <path d="m74.613 44.892 0.0952-0.0476"/>
   <path d="m74.708 44.845 0.0476-0.0476"/>
   <path d="m74.756 44.797 0.0477-0.0953"/>
   <path d="m74.804 44.702v-0.0952"/>
   <path d="m74.804 44.607-0.0477-0.0952"/>
   <path d="m74.756 44.511-0.0476-0.0477"/>
   <path d="m74.708 44.464-0.0952-0.0476"/>
   <path d="m74.613 44.416-0.1905-0.0476"/>
   <path d="m74.423 44.368-0.0952-0.0476"/>
   <path d="m74.328 44.321-0.0476-0.0476"/>
   <path d="m74.28 44.273-0.0477-0.0953"/>
   <path d="m74.232 44.178v-0.0952"/>
   <path d="m74.232 44.083 0.0477-0.0952"/>
   <path d="m74.28 43.988 0.0476-0.0477"/>
   <path d="m74.328 43.94 0.0952-0.0476"/>
   <path d="m74.423 43.892h0.2381"/>
   <path d="m74.661 43.892 0.1429 0.0476"/>
   <path d="m75.137 43.892 0.2381 1"/>
   <path d="m75.375 44.892 0.1905-0.7143"/>
   <path d="m75.566 44.178 0.1904 0.7143"/>
   <path d="m75.756 44.892 0.2381-1"/>
   <path d="m76.899 44.892h-0.5714"/>
   <path d="m76.613 44.892v-1"/>
   <path d="m76.613 43.892-0.0953 0.1429"/>
   <path d="m76.518 44.035-0.0952 0.0952"/>
   <path d="m76.423 44.13-0.0952 0.0476"/>
   <path d="m77.851 44.892h-0.5714"/>
   <path d="m77.566 44.892v-1"/>
   <path d="m77.566 43.892-0.0953 0.1429"/>
   <path d="m77.47 44.035-0.0952 0.0952"/>
   <path d="m77.375 44.13-0.0952 0.0476"/>
  </g>
  <text x="56.9919" y="2.0750" font-size="1.3333" opacity="0" stroke-opacity="0" text-anchor="middle" lengthAdjust="spacingAndGlyphs" textLength="3.2976">SW2</text>
  <g class="stroked-text">
   <desc>SW2</desc>
   <path d="m55.658 1.9822 0.1429 0.0476"/>
   <path d="m55.801 2.0298h0.2381"/>
   <path d="m56.04 2.0298 0.0952-0.0476"/>
   <path d="m56.135 1.9822 0.0476-0.0476"/>
   <path d="m56.182 1.9346 0.0477-0.0953"/>
   <path d="m56.23 1.8393v-0.0952"/>
   <path d="m56.23 1.7441-0.0477-0.0952"/>
   <path d="m56.182 1.6489-0.0476-0.0477"/>
   <path d="m56.135 1.6012-0.0952-0.0476"/>
   <path d="m56.04 1.5536-0.1905-0.0476"/>
   <path d="m55.849 1.506-0.0952-0.0476"/>
   <path d="m55.754 1.4584-0.0477-0.0476"/>
   <path d="m55.706 1.4108-0.0476-0.0953"/>
   <path d="m55.658 1.3155v-0.0952"/>
   <path d="m55.658 1.2203 0.0476-0.0952"/>
   <path d="m55.706 1.1251 0.0477-0.0477"/>
   <path d="m55.754 1.0774 0.0952-0.0476"/>
   <path d="m55.849 1.0298h0.2381"/>
   <path d="m56.087 1.0298 0.1429 0.0476"/>
   <path d="m56.563 1.0298 0.2381 1"/>
   <path d="m56.801 2.0298 0.1905-0.7143"/>
   <path d="m56.992 1.3155 0.1904 0.7143"/>
   <path d="m57.182 2.0298 0.2381-1"/>
   <path d="m57.754 1.1251 0.0476-0.0477"/>
   <path d="m57.801 1.0774 0.0952-0.0476"/>
   <path d="m57.897 1.0298h0.2381"/>
   <path d="m58.135 1.0298 0.0953 0.0476"/>
   <path d="m58.23 1.0774 0.0476 0.0477"/>
   <path d="m58.278 1.1251 0.0476 0.0952"/>
   <path d="m58.325 1.2203v0.0952"/>
   <path d="m58.325 1.3155-0.0476 0.1429"/>
   <path d="m58.278 1.4584-0.5715 0.5714"/>
   <path d="m57.706 2.0298h0.6191"/>
  </g>
 </g>
 <g fill="none" stroke="#8BE9FD" stroke-linecap="round" stroke-linejoin="round" stroke-width=".12">
  <path d="m2.9262 32.473 2.9523 13.89"/>
  <path d="m5.8785 46.363 13.89-2.9524"/>
  <path d="m16.816 29.521-13.89 2.9524"/>
  <path d="m19.768 43.41-2.9523-13.89"/>
  <path d="m68.942 26.288v14.2"/>
  <path d="m68.942 40.488h14.2"/>
  <path d="m83.142 26.288h-14.2"/>
  <path d="m83.142 40.488v-14.2"/>
  <path d="m6.8869 51.107 2.9524 13.89"/>
  <path d="m9.8393 64.997 13.89-2.9524"/>
  <path d="m20.777 48.154-13.89 2.9524"/>
  <path d="m23.729 62.044-2.9524-13.89"/>
  <path d="m68.942 7.2375v14.2"/>
  <path d="m68.942 21.438h14.2"/>
  <path d="m83.142 7.2375h-14.2"/>
  <path d="m83.142 21.438v-14.2"/>
  <path d="m30.842 7.2375v14.2"/>
  <path d="m30.842 21.438h14.2"/>
  <path d="m45.042 7.2375h-14.2"/>
  <path d="m45.042 21.438v-14.2"/>
  <path d="m118.12 84.192 13.344 4.8567"/>
  <path d="m122.98 70.849-4.8567 13.344"/>
  <path d="m131.47 89.049 4.8566-13.344"/>
  <path d="m136.33 75.705-13.344-4.8567"/>
  <path d="m49.892 21.525v14.2"/>
  <path d="m49.892 35.725h14.2"/>
  <path d="m64.092 21.525h-14.2"/>
  <path d="m64.092 35.725v-14.2"/>
  <path d="m100.22 77.677 13.344 4.8566"/>
  <path d="m105.08 64.333-4.8567 13.344"/>
  <path d="m113.57 82.533 4.8567-13.344"/>
  <path d="m118.42 69.19-13.344-4.8567"/>
  <path d="m87.992 40.575v14.2"/>
  <path d="m87.992 54.775h14.2"/>
  <path d="m102.19 40.575h-14.2"/>
  <path d="m102.19 54.775v-14.2"/>
  <path d="m30.842 26.288v14.2"/>
  <path d="m30.842 40.488h14.2"/>
  <path d="m45.042 26.288h-14.2"/>
  <path d="m45.042 40.488v-14.2"/>
  <path d="m30.842 45.338v14.2"/>
  <path d="m30.842 59.538h14.2"/>
  <path d="m45.042 45.338h-14.2"/>
  <path d="m45.042 59.538v-14.2"/>
  <path d="m49.892 40.575v14.2"/>
  <path d="m49.892 54.775h14.2"/>
  <path d="m64.092 40.575h-14.2"/>
  <path d="m64.092 54.775v-14.2"/>
  <path d="m68.942 45.338v14.2"/>
  <path d="m68.942 59.538h14.2"/>
  <path d="m83.142 45.338h-14.2"/>
  <path d="m83.142 59.538v-14.2"/>
  <path d="m49.892 2.475v14.2"/>
  <path d="m49.892 16.675h14.2"/>
  <path d="m64.092 2.475h-14.2"/>
  <path d="m64.092 16.675v-14.2"/>
 </g>
 <g fill="#8BE9FD">
  <circle cx="6.3782" cy="38.998" r=".875"/>
  <circle cx="11.347" cy="37.942" r="2"/>
  <circle cx="16.316" cy="36.886" r=".875"/>
  <circle cx="7.0924" cy="36.25" r=".75"/>
  <circle cx="12.776" cy="32.445" r=".75"/>
  <circle cx="70.962" cy="33.388" r=".875"/>
  <circle cx="76.042" cy="33.388" r="2"/>
  <circle cx="81.122" cy="33.388" r=".875"/>
  <circle cx="72.232" cy="30.848" r=".75"/>
  <circle cx="78.582" cy="28.308" r=".75"/>
  <circle cx="10.339" cy="57.632" r=".875"/>
  <circle cx="15.308" cy="56.576" r="2"/>
  <circle cx="20.277" cy="55.519" r=".875"/>
  <circle cx="11.053" cy="54.883" r=".75"/>
  <circle cx="16.736" cy="51.078" r=".75"/>
  <circle cx="70.962" cy="14.338" r=".875"/>
  <circle cx="76.042" cy="14.338" r="2"/>
  <circle cx="81.122" cy="14.338" r=".875"/>
  <circle cx="72.232" cy="11.798" r=".75"/>
  <circle cx="78.582" cy="9.2575" r=".75"/>
  <circle cx="32.862" cy="14.338" r=".875"/>
  <circle cx="37.942" cy="14.338" r="2"/>
  <circle cx="43.022" cy="14.338" r=".875"/>
  <circle cx="34.132" cy="11.798" r=".75"/>
  <circle cx="40.482" cy="9.2575" r=".75"/>
  <circle cx="122.45" cy="78.211" r=".875"/>
  <circle cx="127.23" cy="79.949" r="2"/>
  <circle cx="132" cy="81.686" r=".875"/>
  <circle cx="124.51" cy="76.259" r=".75"/>
  <circle cx="131.35" cy="76.044" r=".75"/>
  <circle cx="51.912" cy="28.625" r=".875"/>
  <circle cx="56.992" cy="28.625" r="2"/>
  <circle cx="62.072" cy="28.625" r=".875"/>
  <circle cx="53.182" cy="26.085" r=".75"/>
  <circle cx="59.532" cy="23.545" r=".75"/>
  <circle cx="104.55" cy="71.696" r=".875"/>
  <circle cx="109.32" cy="73.433" r="2"/>
  <circle cx="114.1" cy="75.171" r=".875"/>
  <circle cx="106.61" cy="69.743" r=".75"/>
  <circle cx="113.45" cy="69.528" r=".75"/>
  <circle cx="90.012" cy="47.675" r=".875"/>
  <circle cx="95.092" cy="47.675" r="2"/>
  <circle cx="100.17" cy="47.675" r=".875"/>
  <circle cx="91.282" cy="45.135" r=".75"/>
  <circle cx="97.632" cy="42.595" r=".75"/>
  <circle cx="32.862" cy="33.388" r=".875"/>
  <circle cx="37.942" cy="33.388" r="2"/>
  <circle cx="43.022" cy="33.388" r=".875"/>
  <circle cx="34.132" cy="30.848" r=".75"/>
  <circle cx="40.482" cy="28.308" r=".75"/>
  <circle cx="32.862" cy="52.438" r=".875"/>
  <circle cx="37.942" cy="52.438" r="2"/>
  <circle cx="43.022" cy="52.438" r=".875"/>
  <circle cx="34.132" cy="49.898" r=".75"/>
  <circle cx="40.482" cy="47.358" r=".75"/>
  <circle cx="51.912" cy="47.675" r=".875"/>
  <circle cx="56.992" cy="47.675" r="2"/>
  <circle cx="62.072" cy="47.675" r=".875"/>
  <circle cx="53.182" cy="45.135" r=".75"/>
  <circle cx="59.532" cy="42.595" r=".75"/>
  <circle cx="70.962" cy="52.438" r=".875"/>
  <circle cx="76.042" cy="52.438" r="2"/>
  <circle cx="81.122" cy="52.438" r=".875"/>
  <circle cx="72.232" cy="49.898" r=".75"/>
  <circle cx="78.582" cy="47.358" r=".75"/>
  <circle cx="51.912" cy="9.575" r=".875"/>
  <circle cx="56.992" cy="9.575" r="2"/>
  <circle cx="62.072" cy="9.575" r=".875"/>
  <circle cx="53.182" cy="7.035" r=".75"/>
  <circle cx="59.532" cy="4.495" r=".75"/>
 </g>
 <g fill="none" stroke="#BD93F9" stroke-linecap="round" stroke-linejoin="round" stroke-width=".15">
  <g transform="rotate(-90 44.927 56.564)">
   <text transform="scale(-1 1) translate(-89.854)" x="44.9269" y="57.0645" font-size="1.3333" opacity="0" stroke-opacity="0" text-anchor="middle" lengthAdjust="spacingAndGlyphs" textLength="2.2024">D9</text>
  </g>
  <g class="stroked-text">
   <desc>D9</desc>
   <path d="m45.382 55.826h-1"/>
   <path d="m44.382 55.826v0.2381"/>
   <path d="m44.382 56.064 0.0476 0.1429"/>
   <path d="m44.429 56.207 0.0952 0.0952"/>
   <path d="m44.524 56.303 0.0953 0.0476"/>
   <path d="m44.62 56.35 0.1904 0.0476"/>
   <path d="m44.81 56.398h0.1429"/>
   <path d="m44.953 56.398 0.1905-0.0476"/>
   <path d="m45.144 56.35 0.0952-0.0476"/>
   <path d="m45.239 56.303 0.0953-0.0952"/>
   <path d="m45.334 56.207 0.0476-0.1429"/>
   <path d="m45.382 56.064v-0.2381"/>
   <path d="m45.382 56.874v0.1905"/>
   <path d="m45.382 57.064-0.0476 0.0952"/>
   <path d="m45.334 57.16-0.0477 0.0477"/>
   <path d="m45.286 57.207-0.1428 0.0952"/>
   <path d="m45.144 57.303-0.1905 0.0476"/>
   <path d="m44.953 57.35h-0.3809"/>
   <path d="m44.572 57.35-0.0953-0.0476"/>
   <path d="m44.477 57.303-0.0476-0.0476"/>
   <path d="m44.429 57.255-0.0476-0.0953"/>
   <path d="m44.382 57.16v-0.1904"/>
   <path d="m44.382 56.969 0.0476-0.0953"/>
   <path d="m44.429 56.874 0.0476-0.0476"/>
   <path d="m44.477 56.826 0.0953-0.0476"/>
   <path d="m44.572 56.779h0.238"/>
   <path d="m44.81 56.779 0.0953 0.0476"/>
   <path d="m44.906 56.826 0.0476 0.0476"/>
   <path d="m44.953 56.874 0.0476 0.0953"/>
   <path d="m45.001 56.969v0.1904"/>
   <path d="m45.001 57.16-0.0476 0.0953"/>
   <path d="m44.953 57.255-0.0476 0.0476"/>
   <path d="m44.906 57.303-0.0953 0.0476"/>
  </g>
  <g transform="rotate(-90 63.977 51.802)">
   <text transform="scale(-1 1) translate(-127.95)" x="63.9769" y="52.3020" font-size="1.3333" opacity="0" stroke-opacity="0" text-anchor="middle" lengthAdjust="spacingAndGlyphs" textLength="3.1548">D10</text>
  </g>
  <g class="stroked-text">
   <desc>D10</desc>
   <path d="m64.432 50.588h-1"/>
   <path d="m63.432 50.588v0.2381"/>
   <path d="m63.432 50.826 0.0476 0.1429"/>
   <path d="m63.479 50.969 0.0952 0.0952"/>
   <path d="m63.574 51.064 0.0953 0.0476"/>
   <path d="m63.67 51.112 0.1904 0.0476"/>
   <path d="m63.86 51.159h0.1429"/>
   <path d="m64.003 51.159 0.1905-0.0476"/>
   <path d="m64.194 51.112 0.0952-0.0476"/>
   <path d="m64.289 51.064 0.0953-0.0952"/>
   <path d="m64.384 50.969 0.0476-0.1429"/>
   <path d="m64.432 50.826v-0.2381"/>
   <path d="m64.432 52.112v-0.5714"/>
   <path d="m64.432 51.826h-1"/>
   <path d="m63.432 51.826 0.1428-0.0952"/>
   <path d="m63.574 51.731 0.0953-0.0953"/>
   <path d="m63.67 51.635 0.0476-0.0952"/>
   <path d="m63.432 52.731v0.0952"/>
   <path d="m63.432 52.826 0.0476 0.0952"/>
   <path d="m63.479 52.921 0.0476 0.0477"/>
   <path d="m63.527 52.969 0.0953 0.0476"/>
   <path d="m63.622 53.016 0.1904 0.0476"/>
   <path d="m63.813 53.064h0.2381"/>
   <path d="m64.051 53.064 0.1905-0.0476"/>
   <path d="m64.241 53.016 0.0952-0.0476"/>
   <path d="m64.336 52.969 0.0477-0.0477"/>
   <path d="m64.384 52.921 0.0476-0.0952"/>
   <path d="m64.432 52.826v-0.0952"/>
   <path d="m64.432 52.731-0.0476-0.0953"/>
   <path d="m64.384 52.635-0.0477-0.0476"/>
   <path d="m64.336 52.588-0.0952-0.0476"/>
   <path d="m64.241 52.54-0.1905-0.0476"/>
   <path d="m64.051 52.492h-0.2381"/>
   <path d="m63.813 52.492-0.1904 0.0476"/>
   <path d="m63.622 52.54-0.0953 0.0476"/>
   <path d="m63.527 52.588-0.0476 0.0476"/>
   <path d="m63.479 52.635-0.0476 0.0953"/>
  </g>
  <g transform="rotate(-90 102.08 51.802)">
   <text transform="scale(-1 1) translate(-204.15)" x="102.0769" y="52.3020" font-size="1.3333" opacity="0" stroke-opacity="0" text-anchor="middle" lengthAdjust="spacingAndGlyphs" textLength="3.1548">D12</text>
  </g>
  <g class="stroked-text">
   <desc>D12</desc>
   <path d="m102.53 50.588h-1"/>
   <path d="m101.53 50.588v0.2381"/>
   <path d="m101.53 50.826 0.0476 0.1429"/>
   <path d="m101.58 50.969 0.0952 0.0952"/>
   <path d="m101.67 51.064 0.0953 0.0476"/>
   <path d="m101.77 51.112 0.1904 0.0476"/>
   <path d="m101.96 51.159h0.1429"/>
   <path d="m102.1 51.159 0.1905-0.0476"/>
   <path d="m102.29 51.112 0.0952-0.0476"/>
   <path d="m102.39 51.064 0.0953-0.0952"/>
   <path d="m102.48 50.969 0.0476-0.1429"/>
   <path d="m102.53 50.826v-0.2381"/>
   <path d="m102.53 52.112v-0.5714"/>
   <path d="m102.53 51.826h-1"/>
   <path d="m101.53 51.826 0.1428-0.0952"/>
   <path d="m101.67 51.731 0.0953-0.0953"/>
   <path d="m101.77 51.635 0.0476-0.0952"/>
   <path d="m101.63 52.492-0.0476 0.0476"/>
   <path d="m101.58 52.54-0.0476 0.0952"/>
   <path d="m101.53 52.635v0.2381"/>
   <path d="m101.53 52.873 0.0476 0.0953"/>
   <path d="m101.58 52.969 0.0476 0.0476"/>
   <path d="m101.63 53.016 0.0953 0.0476"/>
   <path d="m101.72 53.064h0.0952"/>
   <path d="m101.82 53.064 0.1428-0.0476"/>
   <path d="m101.96 53.016 0.5715-0.5714"/>
   <path d="m102.53 52.445v0.619"/>
  </g>
  <g transform="rotate(78 22.998 59.16)">
   <text transform="scale(-1 1) translate(-45.997)" x="22.9983" y="59.6601" font-size="1.3333" opacity="0" stroke-opacity="0" text-anchor="middle" lengthAdjust="spacingAndGlyphs" textLength="2.2024">D8</text>
  </g>
  <g class="stroked-text">
   <desc>D8</desc>
   <path d="m22.707 59.977 0.9782-0.2079"/>
   <path d="m23.685 59.769-0.0495-0.2329"/>
   <path d="m23.636 59.536-0.0763-0.1298"/>
   <path d="m23.559 59.406-0.113-0.0733"/>
   <path d="m23.446 59.333-0.103-0.0268"/>
   <path d="m23.343 59.306-0.1962-7e-3"/>
   <path d="m23.147 59.299-0.1398 0.0297"/>
   <path d="m23.007 59.329-0.1764 0.0862"/>
   <path d="m22.831 59.415-0.0832 0.0664"/>
   <path d="m22.748 59.481-0.0734 0.1129"/>
   <path d="m22.674 59.594-0.0169 0.1497"/>
   <path d="m22.657 59.744 0.0495 0.2328"/>
   <path d="m23.028 58.74 0.0663 0.0832"/>
   <path d="m23.095 58.823 0.0565 0.0367"/>
   <path d="m23.151 58.86 0.1031 0.0268"/>
   <path d="m23.254 58.887 0.0465-0.0099"/>
   <path d="m23.301 58.877 0.0833-0.0664"/>
   <path d="m23.384 58.81 0.0367-0.0565"/>
   <path d="m23.421 58.754 0.0268-0.103"/>
   <path d="m23.448 58.651-0.0396-0.1864"/>
   <path d="m23.408 58.464-0.0664-0.0832"/>
   <path d="m23.342 58.381-0.0565-0.0367"/>
   <path d="m23.285 58.345-0.1031-0.0268"/>
   <path d="m23.182 58.318-0.0465 0.0099"/>
   <path d="m23.135 58.328-0.0833 0.0664"/>
   <path d="m23.052 58.394-0.0367 0.0565"/>
   <path d="m23.015 58.451-0.0268 0.103"/>
   <path d="m22.989 58.554 0.0397 0.1864"/>
   <path d="m23.028 58.74-0.0268 0.103"/>
   <path d="m23.002 58.843-0.0367 0.0565"/>
   <path d="m22.965 58.9-0.0833 0.0664"/>
   <path d="m22.882 58.966-0.1863 0.0396"/>
   <path d="m22.695 59.006-0.103-0.0268"/>
   <path d="m22.592 58.979-0.0565-0.0367"/>
   <path d="m22.536 58.942-0.0664-0.0832"/>
   <path d="m22.469 58.859-0.0396-0.1863"/>
   <path d="m22.43 58.672 0.0268-0.1031"/>
   <path d="m22.456 58.569 0.0367-0.0565"/>
   <path d="m22.493 58.513 0.0832-0.0664"/>
   <path d="m22.576 58.446 0.1863-0.0396"/>
   <path d="m22.763 58.407 0.1031 0.0268"/>
   <path d="m22.866 58.434 0.0565 0.0367"/>
   <path d="m22.922 58.47 0.0663 0.0832"/>
  </g>
  <g transform="rotate(-70 114.48 79.7)">
   <text transform="scale(-1 1) translate(-228.95)" x="114.4762" y="80.2004" font-size="1.3333" opacity="0" stroke-opacity="0" text-anchor="middle" lengthAdjust="spacingAndGlyphs" textLength="3.1548">D13</text>
  </g>
  <g class="stroked-text">
   <desc>D13</desc>
   <path d="m115.32 78.715-0.9397-0.342"/>
   <path d="m114.38 78.373-0.0815 0.2237"/>
   <path d="m114.3 78.597-0.0041 0.1506"/>
   <path d="m114.29 78.747 0.0569 0.122"/>
   <path d="m114.35 78.869 0.0733 0.0773"/>
   <path d="m114.42 78.946 0.1627 0.1099"/>
   <path d="m114.59 79.056 0.1342 0.0489"/>
   <path d="m114.72 79.105 0.1953 0.0204"/>
   <path d="m114.92 79.126 0.1058-0.0122"/>
   <path d="m115.02 79.114 0.122-0.0569"/>
   <path d="m115.14 79.057 0.0936-0.118"/>
   <path d="m115.24 78.939 0.0815-0.2237"/>
   <path d="m114.8 80.147 0.1954-0.5369"/>
   <path d="m114.9 79.878-0.9397-0.342"/>
   <path d="m113.96 79.536 0.1668-0.0406"/>
   <path d="m114.12 79.496 0.1221-0.0569"/>
   <path d="m114.24 79.439 0.0773-0.0732"/>
   <path d="m113.74 80.118-0.2117 0.5817"/>
   <path d="m113.53 80.7 0.472-0.1829"/>
   <path d="m114 80.517-0.0489 0.1342"/>
   <path d="m113.96 80.651 0.0122 0.1058"/>
   <path d="m113.97 80.757 0.0284 0.0611"/>
   <path d="m114 80.818 0.0732 0.0773"/>
   <path d="m114.07 80.895 0.2238 0.0814"/>
   <path d="m114.29 80.977 0.1058-0.0122"/>
   <path d="m114.4 80.964 0.061-0.0284"/>
   <path d="m114.46 80.936 0.0773-0.0732"/>
   <path d="m114.54 80.863 0.0977-0.2685"/>
   <path d="m114.63 80.594-0.0121-0.1058"/>
   <path d="m114.62 80.488-0.0285-0.061"/>
  </g>
  <g transform="rotate(-90 44.927 18.464)">
   <text transform="scale(-1 1) translate(-89.854)" x="44.9269" y="18.9645" font-size="1.3333" opacity="0" stroke-opacity="0" text-anchor="middle" lengthAdjust="spacingAndGlyphs" textLength="2.2024">D1</text>
  </g>
  <g class="stroked-text">
   <desc>D1</desc>
   <path d="m45.382 17.726h-1"/>
   <path d="m44.382 17.726v0.2381"/>
   <path d="m44.382 17.964 0.0476 0.1429"/>
   <path d="m44.429 18.107 0.0952 0.0952"/>
   <path d="m44.524 18.203 0.0953 0.0476"/>
   <path d="m44.62 18.25 0.1904 0.0476"/>
   <path d="m44.81 18.298h0.1429"/>
   <path d="m44.953 18.298 0.1905-0.0476"/>
   <path d="m45.144 18.25 0.0952-0.0476"/>
   <path d="m45.239 18.203 0.0953-0.0952"/>
   <path d="m45.334 18.107 0.0476-0.1429"/>
   <path d="m45.382 17.964v-0.2381"/>
   <path d="m45.382 19.25v-0.5714"/>
   <path d="m45.382 18.964h-1"/>
   <path d="m44.382 18.964 0.1428-0.0952"/>
   <path d="m44.524 18.869 0.0953-0.0953"/>
   <path d="m44.62 18.774 0.0476-0.0952"/>
  </g>
  <g transform="rotate(-90 44.927 37.514)">
   <text transform="scale(-1 1) translate(-89.854)" x="44.9269" y="38.0145" font-size="1.3333" opacity="0" stroke-opacity="0" text-anchor="middle" lengthAdjust="spacingAndGlyphs" textLength="2.2024">D5</text>
  </g>
  <g class="stroked-text">
   <desc>D5</desc>
   <path d="m45.382 36.776h-1"/>
   <path d="m44.382 36.776v0.2381"/>
   <path d="m44.382 37.014 0.0476 0.1429"/>
   <path d="m44.429 37.157 0.0952 0.0952"/>
   <path d="m44.524 37.253 0.0953 0.0476"/>
   <path d="m44.62 37.3 0.1904 0.0476"/>
   <path d="m44.81 37.348h0.1429"/>
   <path d="m44.953 37.348 0.1905-0.0476"/>
   <path d="m45.144 37.3 0.0952-0.0476"/>
   <path d="m45.239 37.253 0.0953-0.0952"/>
   <path d="m45.334 37.157 0.0476-0.1429"/>
   <path d="m45.382 37.014v-0.2381"/>
   <path d="m44.382 38.253v-0.4762"/>
   <path d="m44.382 37.776 0.4762-0.0476"/>
   <path d="m44.858 37.729-0.0477 0.0476"/>
   <path d="m44.81 37.776-0.0476 0.0952"/>
   <path d="m44.763 37.872v0.2381"/>
   <path d="m44.763 38.11 0.0476 0.0953"/>
   <path d="m44.81 38.205 0.0477 0.0476"/>
   <path d="m44.858 38.253 0.0952 0.0476"/>
   <path d="m44.953 38.3h0.2381"/>
   <path d="m45.191 38.3 0.0952-0.0476"/>
   <path d="m45.286 38.253 0.0477-0.0476"/>
   <path d="m45.334 38.205 0.0476-0.0953"/>
   <path d="m45.382 38.11v-0.2381"/>
   <path d="m45.382 37.872-0.0476-0.0952"/>
   <path d="m45.334 37.776-0.0477-0.0476"/>
  </g>
  <g transform="rotate(-90 83.027 37.514)">
   <text transform="scale(-1 1) translate(-166.05)" x="83.0269" y="38.0145" font-size="1.3333" opacity="0" stroke-opacity="0" text-anchor="middle" lengthAdjust="spacingAndGlyphs" textLength="2.2024">D7</text>
  </g>
  <g class="stroked-text">
   <desc>D7</desc>
   <path d="m83.482 36.776h-1"/>
   <path d="m82.482 36.776v0.2381"/>
   <path d="m82.482 37.014 0.0476 0.1429"/>
   <path d="m82.529 37.157 0.0952 0.0952"/>
   <path d="m82.624 37.253 0.0953 0.0476"/>
   <path d="m82.72 37.3 0.1904 0.0476"/>
   <path d="m82.91 37.348h0.1429"/>
   <path d="m83.053 37.348 0.1905-0.0476"/>
   <path d="m83.244 37.3 0.0952-0.0476"/>
   <path d="m83.339 37.253 0.0953-0.0952"/>
   <path d="m83.434 37.157 0.0476-0.1429"/>
   <path d="m83.482 37.014v-0.2381"/>
   <path d="m82.482 37.681v0.6666"/>
   <path d="m82.482 38.348 1-0.4285"/>
  </g>
  <g transform="rotate(78 19.038 40.526)">
   <text transform="scale(-1 1) translate(-38.075)" x="19.0376" y="41.0264" font-size="1.3333" opacity="0" stroke-opacity="0" text-anchor="middle" lengthAdjust="spacingAndGlyphs" textLength="2.2024">D4</text>
  </g>
  <g class="stroked-text">
   <desc>D4</desc>
   <path d="m18.746 41.343 0.9782-0.2079"/>
   <path d="m19.724 41.135-0.0496-0.2329"/>
   <path d="m19.675 40.902-0.0762-0.1298"/>
   <path d="m19.599 40.772-0.113-0.0734"/>
   <path d="m19.486 40.699-0.103-0.0267"/>
   <path d="m19.383 40.672-0.1963-7e-3"/>
   <path d="m19.186 40.665-0.1397 0.0297"/>
   <path d="m19.047 40.695-0.1764 0.0862"/>
   <path d="m18.87 40.781-0.0833 0.0663"/>
   <path d="m18.787 40.847-0.0733 0.113"/>
   <path d="m18.714 40.96-0.0169 0.1496"/>
   <path d="m18.697 41.11 0.0495 0.2329"/>
   <path d="m19.101 39.807-0.6521 0.1386"/>
   <path d="m19.523 39.961-0.6492 0.3814"/>
   <path d="m18.874 40.342-0.1287-0.6056"/>
  </g>
  <g transform="rotate(-90 83.027 56.564)">
   <text transform="scale(-1 1) translate(-166.05)" x="83.0269" y="57.0645" font-size="1.3333" opacity="0" stroke-opacity="0" text-anchor="middle" lengthAdjust="spacingAndGlyphs" textLength="3.1548">D11</text>
  </g>
  <g class="stroked-text">
   <desc>D11</desc>
   <path d="m83.482 55.35h-1"/>
   <path d="m82.482 55.35v0.2381"/>
   <path d="m82.482 55.588 0.0476 0.1429"/>
   <path d="m82.529 55.731 0.0952 0.0952"/>
   <path d="m82.624 55.826 0.0953 0.0476"/>
   <path d="m82.72 55.874 0.1904 0.0476"/>
   <path d="m82.91 55.922h0.1429"/>
   <path d="m83.053 55.922 0.1905-0.0476"/>
   <path d="m83.244 55.874 0.0952-0.0476"/>
   <path d="m83.339 55.826 0.0953-0.0952"/>
   <path d="m83.434 55.731 0.0476-0.1429"/>
   <path d="m83.482 55.588v-0.2381"/>
   <path d="m83.482 56.874v-0.5714"/>
   <path d="m83.482 56.588h-1"/>
   <path d="m82.482 56.588 0.1428-0.0952"/>
   <path d="m82.624 56.493 0.0953-0.0953"/>
   <path d="m82.72 56.398 0.0476-0.0952"/>
   <path d="m83.482 57.826v-0.5714"/>
   <path d="m83.482 57.541h-1"/>
   <path d="m82.482 57.541 0.1428-0.0952"/>
   <path d="m82.624 57.446 0.0953-0.0953"/>
   <path d="m82.72 57.35 0.0476-0.0952"/>
  </g>
  <g transform="rotate(-90 63.977 32.752)">
   <text transform="scale(-1 1) translate(-127.95)" x="63.9769" y="33.2520" font-size="1.3333" opacity="0" stroke-opacity="0" text-anchor="middle" lengthAdjust="spacingAndGlyphs" textLength="2.2024">D6</text>
  </g>
  <g class="stroked-text">
   <desc>D6</desc>
   <path d="m64.432 32.014h-1"/>
   <path d="m63.432 32.014v0.2381"/>
   <path d="m63.432 32.252 0.0476 0.1429"/>
   <path d="m63.479 32.395 0.0952 0.0952"/>
   <path d="m63.574 32.49 0.0953 0.0476"/>
   <path d="m63.67 32.538 0.1904 0.0476"/>
   <path d="m63.86 32.585h0.1429"/>
   <path d="m64.003 32.585 0.1905-0.0476"/>
   <path d="m64.194 32.538 0.0952-0.0476"/>
   <path d="m64.289 32.49 0.0953-0.0952"/>
   <path d="m64.384 32.395 0.0476-0.1429"/>
   <path d="m64.432 32.252v-0.2381"/>
   <path d="m63.432 33.442v-0.1905"/>
   <path d="m63.432 33.252 0.0476-0.0952"/>
   <path d="m63.479 33.157 0.0476-0.0477"/>
   <path d="m63.527 33.109 0.1429-0.0952"/>
   <path d="m63.67 33.014 0.1904-0.0476"/>
   <path d="m63.86 32.966h0.381"/>
   <path d="m64.241 32.966 0.0952 0.0476"/>
   <path d="m64.336 33.014 0.0477 0.0476"/>
   <path d="m64.384 33.062 0.0476 0.0953"/>
   <path d="m64.432 33.157v0.1904"/>
   <path d="m64.432 33.347-0.0476 0.0953"/>
   <path d="m64.384 33.442-0.0477 0.0476"/>
   <path d="m64.336 33.49-0.0952 0.0476"/>
   <path d="m64.241 33.538h-0.2381"/>
   <path d="m64.003 33.538-0.0952-0.0476"/>
   <path d="m63.908 33.49-0.0477-0.0476"/>
   <path d="m63.86 33.442-0.0476-0.0953"/>
   <path d="m63.813 33.347v-0.1904"/>
   <path d="m63.813 33.157 0.0476-0.0953"/>
   <path d="m63.86 33.062 0.0477-0.0476"/>
   <path d="m63.908 33.014 0.0952-0.0476"/>
  </g>
  <g transform="rotate(-90 63.977 13.702)">
   <text transform="scale(-1 1) translate(-127.95)" x="63.9769" y="14.2020" font-size="1.3333" opacity="0" stroke-opacity="0" text-anchor="middle" lengthAdjust="spacingAndGlyphs" textLength="2.2024">D2</text>
  </g>
  <g class="stroked-text">
   <desc>D2</desc>
   <path d="m64.432 12.964h-1"/>
   <path d="m63.432 12.964v0.2381"/>
   <path d="m63.432 13.202 0.0476 0.1429"/>
   <path d="m63.479 13.345 0.0952 0.0952"/>
   <path d="m63.574 13.44 0.0953 0.0476"/>
   <path d="m63.67 13.488 0.1904 0.0476"/>
   <path d="m63.86 13.535h0.1429"/>
   <path d="m64.003 13.535 0.1905-0.0476"/>
   <path d="m64.194 13.488 0.0952-0.0476"/>
   <path d="m64.289 13.44 0.0953-0.0952"/>
   <path d="m64.384 13.345 0.0476-0.1429"/>
   <path d="m64.432 13.202v-0.2381"/>
   <path d="m63.527 13.916-0.0476 0.0476"/>
   <path d="m63.479 13.964-0.0476 0.0952"/>
   <path d="m63.432 14.059v0.2381"/>
   <path d="m63.432 14.297 0.0476 0.0953"/>
   <path d="m63.479 14.392 0.0476 0.0476"/>
   <path d="m63.527 14.44 0.0953 0.0476"/>
   <path d="m63.622 14.488h0.0952"/>
   <path d="m63.717 14.488 0.1428-0.0476"/>
   <path d="m63.86 14.44 0.5715-0.5714"/>
   <path d="m64.432 13.869v0.619"/>
  </g>
  <g transform="rotate(-70 132.38 86.216)">
   <text transform="scale(-1 1) translate(-264.75)" x="132.3773" y="86.7159" font-size="1.3333" opacity="0" stroke-opacity="0" text-anchor="middle" lengthAdjust="spacingAndGlyphs" textLength="3.1548">D14</text>
  </g>
  <g class="stroked-text">
   <desc>D14</desc>
   <path d="m133.22 85.23-0.9397-0.342"/>
   <path d="m132.28 84.888-0.0814 0.2237"/>
   <path d="m132.2 85.112-0.0041 0.1505"/>
   <path d="m132.19 85.263 0.0569 0.1221"/>
   <path d="m132.25 85.385 0.0732 0.0773"/>
   <path d="m132.32 85.462 0.1627 0.1099"/>
   <path d="m132.49 85.572 0.1342 0.0489"/>
   <path d="m132.62 85.621 0.1953 0.0204"/>
   <path d="m132.82 85.641 0.1058-0.0122"/>
   <path d="m132.92 85.629 0.1221-0.0569"/>
   <path d="m133.04 85.572 0.0936-0.118"/>
   <path d="m133.14 85.454 0.0814-0.2237"/>
   <path d="m132.7 86.662 0.1955-0.537"/>
   <path d="m132.8 86.394-0.9397-0.342"/>
   <path d="m131.86 86.052 0.1668-0.0406"/>
   <path d="m132.02 86.011 0.122-0.057"/>
   <path d="m132.15 85.954 0.0774-0.0732"/>
   <path d="m131.78 87.24 0.6265 0.2281"/>
   <path d="m131.5 86.886 0.7526 0.0206"/>
   <path d="m132.26 86.906-0.2117 0.5817"/>
  </g>
  <g transform="rotate(-90 83.027 18.464)">
   <text transform="scale(-1 1) translate(-166.05)" x="83.0269" y="18.9645" font-size="1.3333" opacity="0" stroke-opacity="0" text-anchor="middle" lengthAdjust="spacingAndGlyphs" textLength="2.2024">D3</text>
  </g>
  <g class="stroked-text">
   <desc>D3</desc>
   <path d="m83.482 17.726h-1"/>
   <path d="m82.482 17.726v0.2381"/>
   <path d="m82.482 17.964 0.0476 0.1429"/>
   <path d="m82.529 18.107 0.0952 0.0952"/>
   <path d="m82.624 18.203 0.0953 0.0476"/>
   <path d="m82.72 18.25 0.1904 0.0476"/>
   <path d="m82.91 18.298h0.1429"/>
   <path d="m83.053 18.298 0.1905-0.0476"/>
   <path d="m83.244 18.25 0.0952-0.0476"/>
   <path d="m83.339 18.203 0.0953-0.0952"/>
   <path d="m83.434 18.107 0.0476-0.1429"/>
   <path d="m83.482 17.964v-0.2381"/>
   <path d="m82.482 18.631v0.619"/>
   <path d="m82.482 19.25 0.3809-0.3333"/>
   <path d="m82.863 18.917v0.1428"/>
   <path d="m82.863 19.06 0.0476 0.0953"/>
   <path d="m82.91 19.155 0.0477 0.0476"/>
   <path d="m82.958 19.203 0.0952 0.0476"/>
   <path d="m83.053 19.25h0.2381"/>
   <path d="m83.291 19.25 0.0952-0.0476"/>
   <path d="m83.386 19.203 0.0477-0.0476"/>
   <path d="m83.434 19.155 0.0476-0.0953"/>
   <path d="m83.482 19.06v-0.2857"/>
   <path d="m83.482 18.774-0.0476-0.0952"/>
   <path d="m83.434 18.679-0.0477-0.0476"/>
  </g>
 </g>
 <g fill="none" stroke="#BD93F9" stroke-linecap="round" stroke-linejoin="round" stroke-width=".12">
  <path d="m42.022 54.788v3.86"/>
  <path d="m42.022 58.648h2"/>
  <path d="m44.022 54.788v3.86"/>
  <path d="m61.072 50.025v3.86"/>
  <path d="m61.072 53.885h2"/>
  <path d="m63.072 50.025v3.86"/>
  <path d="m99.172 50.025v3.86"/>
  <path d="m99.172 53.885h2"/>
  <path d="m101.17 50.025v3.86"/>
  <path d="m19.787 58.026 0.8025 3.7757"/>
  <path d="m20.59 61.802 1.9563-0.4158"/>
  <path d="m21.744 57.61 0.8025 3.7757"/>
  <path d="m111.03 80.664 1.8794 0.6841"/>
  <path d="m112.35 77.037-1.3202 3.6272"/>
  <path d="m114.23 77.721-1.3202 3.6273"/>
  <path d="m42.022 16.688v3.86"/>
  <path d="m42.022 20.548h2"/>
  <path d="m44.022 16.688v3.86"/>
  <path d="m42.022 35.738v3.86"/>
  <path d="m42.022 39.598h2"/>
  <path d="m44.022 35.738v3.86"/>
  <path d="m80.122 35.738v3.86"/>
  <path d="m80.122 39.598h2"/>
  <path d="m82.122 35.738v3.86"/>
  <path d="m15.827 39.392 0.8026 3.7757"/>
  <path d="m16.629 43.168 1.9563-0.4159"/>
  <path d="m17.783 38.976 0.8026 3.7756"/>
  <path d="m80.122 54.788v3.86"/>
  <path d="m80.122 58.648h2"/>
  <path d="m82.122 54.788v3.86"/>
  <path d="m61.072 30.975v3.86"/>
  <path d="m61.072 34.835h2"/>
  <path d="m63.072 30.975v3.86"/>
  <path d="m61.072 11.925v3.86"/>
  <path d="m61.072 15.785h2"/>
  <path d="m63.072 11.925v3.86"/>
  <path d="m128.94 87.18 1.8794 0.684"/>
  <path d="m130.26 83.552-1.3202 3.6272"/>
  <path d="m132.13 84.236-1.3202 3.6272"/>
  <path d="m80.122 16.688v3.86"/>
  <path d="m80.122 20.548h2"/>
  <path d="m82.122 16.688v3.86"/>
 </g>
 <g>
  <g fill="#BD93F9">
   <circle cx="6.3782" cy="38.998" r=".875"/>
   <circle cx="11.347" cy="37.942" r="2"/>
   <circle cx="16.316" cy="36.886" r=".875"/>
   <circle cx="7.0924" cy="36.25" r=".75"/>
   <circle cx="12.776" cy="32.445" r=".75"/>
   <circle cx="70.962" cy="33.388" r=".875"/>
   <circle cx="76.042" cy="33.388" r="2"/>
   <circle cx="81.122" cy="33.388" r=".875"/>
   <circle cx="72.232" cy="30.848" r=".75"/>
   <circle cx="78.582" cy="28.308" r=".75"/>
   <circle cx="10.339" cy="57.632" r=".875"/>
   <circle cx="15.308" cy="56.576" r="2"/>
   <circle cx="20.277" cy="55.519" r=".875"/>
   <circle cx="11.053" cy="54.883" r=".75"/>
   <circle cx="16.736" cy="51.078" r=".75"/>
   <circle cx="70.962" cy="14.338" r=".875"/>
   <circle cx="76.042" cy="14.338" r="2"/>
   <circle cx="81.122" cy="14.338" r=".875"/>
   <circle cx="72.232" cy="11.798" r=".75"/>
   <circle cx="78.582" cy="9.2575" r=".75"/>
   <circle cx="32.862" cy="14.338" r=".875"/>
   <circle cx="37.942" cy="14.338" r="2"/>
   <circle cx="43.022" cy="14.338" r=".875"/>
   <circle cx="34.132" cy="11.798" r=".75"/>
   <circle cx="40.482" cy="9.2575" r=".75"/>
   <circle cx="122.45" cy="78.211" r=".875"/>
   <circle cx="127.23" cy="79.949" r="2"/>
   <circle cx="132" cy="81.686" r=".875"/>
   <circle cx="124.51" cy="76.259" r=".75"/>
   <circle cx="131.35" cy="76.044" r=".75"/>
   <circle cx="51.912" cy="28.625" r=".875"/>
   <circle cx="56.992" cy="28.625" r="2"/>
   <circle cx="62.072" cy="28.625" r=".875"/>
   <circle cx="53.182" cy="26.085" r=".75"/>
   <circle cx="59.532" cy="23.545" r=".75"/>
   <circle cx="104.55" cy="71.696" r=".875"/>
   <circle cx="109.32" cy="73.433" r="2"/>
   <circle cx="114.1" cy="75.171" r=".875"/>
   <circle cx="106.61" cy="69.743" r=".75"/>
   <circle cx="113.45" cy="69.528" r=".75"/>
   <circle cx="90.012" cy="47.675" r=".875"/>
   <circle cx="95.092" cy="47.675" r="2"/>
   <circle cx="100.17" cy="47.675" r=".875"/>
   <circle cx="91.282" cy="45.135" r=".75"/>
   <circle cx="97.632" cy="42.595" r=".75"/>
   <circle cx="32.862" cy="33.388" r=".875"/>
   <circle cx="37.942" cy="33.388" r="2"/>
   <circle cx="43.022" cy="33.388" r=".875"/>
   <circle cx="34.132" cy="30.848" r=".75"/>
   <circle cx="40.482" cy="28.308" r=".75"/>
   <circle cx="32.862" cy="52.438" r=".875"/>
   <circle cx="37.942" cy="52.438" r="2"/>
   <circle cx="43.022" cy="52.438" r=".875"/>
   <circle cx="34.132" cy="49.898" r=".75"/>
   <circle cx="40.482" cy="47.358" r=".75"/>
   <circle cx="51.912" cy="47.675" r=".875"/>
   <circle cx="56.992" cy="47.675" r="2"/>
   <circle cx="62.072" cy="47.675" r=".875"/>
   <circle cx="53.182" cy="45.135" r=".75"/>
   <circle cx="59.532" cy="42.595" r=".75"/>
   <circle cx="70.962" cy="52.438" r=".875"/>
   <circle cx="76.042" cy="52.438" r="2"/>
   <circle cx="81.122" cy="52.438" r=".875"/>
   <circle cx="72.232" cy="49.898" r=".75"/>
   <circle cx="78.582" cy="47.358" r=".75"/>
   <circle cx="51.912" cy="9.575" r=".875"/>
   <circle cx="56.992" cy="9.575" r="2"/>
   <circle cx="62.072" cy="9.575" r=".875"/>
   <circle cx="53.182" cy="7.035" r=".75"/>
   <circle cx="59.532" cy="4.495" r=".75"/>
  </g>
  <g>
   <circle cx="6.3782" cy="38.998" r=".875"/>
   <circle cx="11.347" cy="37.942" r="2"/>
   <circle cx="16.316" cy="36.886" r=".875"/>
   <circle cx="7.0924" cy="36.25" r=".75"/>
   <circle cx="12.776" cy="32.445" r=".75"/>
   <circle cx="70.962" cy="33.388" r=".875"/>
   <circle cx="76.042" cy="33.388" r="2"/>
   <circle cx="81.122" cy="33.388" r=".875"/>
   <circle cx="72.232" cy="30.848" r=".75"/>
   <circle cx="78.582" cy="28.308" r=".75"/>
   <circle cx="10.339" cy="57.632" r=".875"/>
   <circle cx="15.308" cy="56.576" r="2"/>
   <circle cx="20.277" cy="55.519" r=".875"/>
   <circle cx="11.053" cy="54.883" r=".75"/>
   <circle cx="16.736" cy="51.078" r=".75"/>
   <circle cx="70.962" cy="14.338" r=".875"/>
   <circle cx="76.042" cy="14.338" r="2"/>
   <circle cx="81.122" cy="14.338" r=".875"/>
   <circle cx="72.232" cy="11.798" r=".75"/>
   <circle cx="78.582" cy="9.2575" r=".75"/>
   <circle cx="32.862" cy="14.338" r=".875"/>
   <circle cx="37.942" cy="14.338" r="2"/>
   <circle cx="43.022" cy="14.338" r=".875"/>
   <circle cx="34.132" cy="11.798" r=".75"/>
   <circle cx="40.482" cy="9.2575" r=".75"/>
   <circle cx="122.45" cy="78.211" r=".875"/>
   <circle cx="127.23" cy="79.949" r="2"/>
   <circle cx="132" cy="81.686" r=".875"/>
   <circle cx="124.51" cy="76.259" r=".75"/>
   <circle cx="131.35" cy="76.044" r=".75"/>
   <circle cx="51.912" cy="28.625" r=".875"/>
   <circle cx="56.992" cy="28.625" r="2"/>
   <circle cx="62.072" cy="28.625" r=".875"/>
   <circle cx="53.182" cy="26.085" r=".75"/>
   <circle cx="59.532" cy="23.545" r=".75"/>
   <circle cx="104.55" cy="71.696" r=".875"/>
   <circle cx="109.32" cy="73.433" r="2"/>
   <circle cx="114.1" cy="75.171" r=".875"/>
   <circle cx="106.61" cy="69.743" r=".75"/>
   <circle cx="113.45" cy="69.528" r=".75"/>
   <circle cx="90.012" cy="47.675" r=".875"/>
   <circle cx="95.092" cy="47.675" r="2"/>
   <circle cx="100.17" cy="47.675" r=".875"/>
   <circle cx="91.282" cy="45.135" r=".75"/>
   <circle cx="97.632" cy="42.595" r=".75"/>
   <circle cx="32.862" cy="33.388" r=".875"/>
   <circle cx="37.942" cy="33.388" r="2"/>
   <circle cx="43.022" cy="33.388" r=".875"/>
   <circle cx="34.132" cy="30.848" r=".75"/>
   <circle cx="40.482" cy="28.308" r=".75"/>
   <circle cx="32.862" cy="52.438" r=".875"/>
   <circle cx="37.942" cy="52.438" r="2"/>
   <circle cx="43.022" cy="52.438" r=".875"/>
   <circle cx="34.132" cy="49.898" r=".75"/>
   <circle cx="40.482" cy="47.358" r=".75"/>
   <circle cx="51.912" cy="47.675" r=".875"/>
   <circle cx="56.992" cy="47.675" r="2"/>
   <circle cx="62.072" cy="47.675" r=".875"/>
   <circle cx="53.182" cy="45.135" r=".75"/>
   <circle cx="59.532" cy="42.595" r=".75"/>
   <circle cx="70.962" cy="52.438" r=".875"/>
   <circle cx="76.042" cy="52.438" r="2"/>
   <circle cx="81.122" cy="52.438" r=".875"/>
   <circle cx="72.232" cy="49.898" r=".75"/>
   <circle cx="78.582" cy="47.358" r=".75"/>
   <circle cx="51.912" cy="9.575" r=".875"/>
   <circle cx="56.992" cy="9.575" r="2"/>
   <circle cx="62.072" cy="9.575" r=".875"/>
   <circle cx="53.182" cy="7.035" r=".75"/>
   <circle cx="59.532" cy="4.495" r=".75"/>
  </g>
  <g fill="#f55">
   <circle cx="7.0924" cy="36.25" r="1.25"/>
   <circle cx="12.776" cy="32.445" r="1.25"/>
   <circle cx="72.232" cy="30.848" r="1.25"/>
   <circle cx="78.582" cy="28.308" r="1.25"/>
   <circle cx="11.053" cy="54.883" r="1.25"/>
   <circle cx="16.736" cy="51.078" r="1.25"/>
   <circle cx="72.232" cy="11.798" r="1.25"/>
   <circle cx="78.582" cy="9.2575" r="1.25"/>
   <circle cx="34.132" cy="11.798" r="1.25"/>
   <circle cx="40.482" cy="9.2575" r="1.25"/>
   <circle cx="124.51" cy="76.259" r="1.25"/>
   <circle cx="131.35" cy="76.044" r="1.25"/>
   <circle cx="53.182" cy="26.085" r="1.25"/>
   <circle cx="59.532" cy="23.545" r="1.25"/>
   <circle cx="106.61" cy="69.743" r="1.25"/>
   <circle cx="113.45" cy="69.528" r="1.25"/>
   <circle cx="91.282" cy="45.135" r="1.25"/>
   <circle cx="97.632" cy="42.595" r="1.25"/>
   <circle cx="34.132" cy="30.848" r="1.25"/>
   <circle cx="40.482" cy="28.308" r="1.25"/>
   <circle cx="34.132" cy="49.898" r="1.25"/>
   <circle cx="40.482" cy="47.358" r="1.25"/>
   <circle cx="53.182" cy="45.135" r="1.25"/>
   <circle cx="59.532" cy="42.595" r="1.25"/>
   <circle cx="72.232" cy="49.898" r="1.25"/>
   <circle cx="78.582" cy="47.358" r="1.25"/>
   <circle cx="53.182" cy="7.035" r="1.25"/>
   <circle cx="59.532" cy="4.495" r="1.25"/>
  </g>
 </g>
 <g fill="none" stroke="#f55" stroke-linecap="round" stroke-linejoin="round" stroke-width=".2">
  <path d="m7.0924 36.25 3.9607 18.634"/>
  <path d="m11.053 54.883"/>
  <path d="m34.132 11.798v19.05"/>
  <path d="m34.132 30.848v19.05"/>
  <path d="m53.182 26.085v19.05"/>
  <path d="m53.182 7.035v19.05"/>
  <path d="m72.232 11.798v19.05"/>
  <path d="m72.232 30.848v19.05"/>
 </g>
 <g fill="#fff">
  <circle cx="6.3782" cy="38.998" r=".875"/>
  <circle cx="11.347" cy="37.942" r="2"/>
  <circle cx="16.316" cy="36.886" r=".875"/>
  <circle cx="7.0924" cy="36.25" r=".75"/>
  <circle cx="12.776" cy="32.445" r=".75"/>
  <circle cx="70.962" cy="33.388" r=".875"/>
  <circle cx="76.042" cy="33.388" r="2"/>
  <circle cx="81.122" cy="33.388" r=".875"/>
  <circle cx="72.232" cy="30.848" r=".75"/>
  <circle cx="78.582" cy="28.308" r=".75"/>
  <circle cx="10.339" cy="57.632" r=".875"/>
  <circle cx="15.308" cy="56.576" r="2"/>
  <circle cx="20.277" cy="55.519" r=".875"/>
  <circle cx="11.053" cy="54.883" r=".75"/>
  <circle cx="16.736" cy="51.078" r=".75"/>
  <circle cx="70.962" cy="14.338" r=".875"/>
  <circle cx="76.042" cy="14.338" r="2"/>
  <circle cx="81.122" cy="14.338" r=".875"/>
  <circle cx="72.232" cy="11.798" r=".75"/>
  <circle cx="78.582" cy="9.2575" r=".75"/>
  <circle cx="32.862" cy="14.338" r=".875"/>
  <circle cx="37.942" cy="14.338" r="2"/>
  <circle cx="43.022" cy="14.338" r=".875"/>
  <circle cx="34.132" cy="11.798" r=".75"/>
  <circle cx="40.482" cy="9.2575" r=".75"/>
  <circle cx="122.45" cy="78.211" r=".875"/>
  <circle cx="127.23" cy="79.949" r="2"/>
  <circle cx="132" cy="81.686" r=".875"/>
  <circle cx="124.51" cy="76.259" r=".75"/>
  <circle cx="131.35" cy="76.044" r=".75"/>
  <circle cx="51.912" cy="28.625" r=".875"/>
  <circle cx="56.992" cy="28.625" r="2"/>
  <circle cx="62.072" cy="28.625" r=".875"/>
  <circle cx="53.182" cy="26.085" r=".75"/>
  <circle cx="59.532" cy="23.545" r=".75"/>
  <circle cx="104.55" cy="71.696" r=".875"/>
  <circle cx="109.32" cy="73.433" r="2"/>
  <circle cx="114.1" cy="75.171" r=".875"/>
  <circle cx="106.61" cy="69.743" r=".75"/>
  <circle cx="113.45" cy="69.528" r=".75"/>
  <circle cx="90.012" cy="47.675" r=".875"/>
  <circle cx="95.092" cy="47.675" r="2"/>
  <circle cx="100.17" cy="47.675" r=".875"/>
  <circle cx="91.282" cy="45.135" r=".75"/>
  <circle cx="97.632" cy="42.595" r=".75"/>
  <circle cx="32.862" cy="33.388" r=".875"/>
  <circle cx="37.942" cy="33.388" r="2"/>
  <circle cx="43.022" cy="33.388" r=".875"/>
  <circle cx="34.132" cy="30.848" r=".75"/>
  <circle cx="40.482" cy="28.308" r=".75"/>
  <circle cx="32.862" cy="52.438" r=".875"/>
  <circle cx="37.942" cy="52.438" r="2"/>
  <circle cx="43.022" cy="52.438" r=".875"/>
  <circle cx="34.132" cy="49.898" r=".75"/>
  <circle cx="40.482" cy="47.358" r=".75"/>
  <circle cx="51.912" cy="47.675" r=".875"/>
  <circle cx="56.992" cy="47.675" r="2"/>
  <circle cx="62.072" cy="47.675" r=".875"/>
  <circle cx="53.182" cy="45.135" r=".75"/>
  <circle cx="59.532" cy="42.595" r=".75"/>
  <circle cx="70.962" cy="52.438" r=".875"/>
  <circle cx="76.042" cy="52.438" r="2"/>
  <circle cx="81.122" cy="52.438" r=".875"/>
  <circle cx="72.232" cy="49.898" r=".75"/>
  <circle cx="78.582" cy="47.358" r=".75"/>
  <circle cx="51.912" cy="9.575" r=".875"/>
  <circle cx="56.992" cy="9.575" r="2"/>
  <circle cx="62.072" cy="9.575" r=".875"/>
  <circle cx="53.182" cy="7.035" r=".75"/>
  <circle cx="59.532" cy="4.495" r=".75"/>
 </g>
 <g fill="#50FA7B">
  <circle cx="7.0924" cy="36.25" r="1.25"/>
  <circle cx="12.776" cy="32.445" r="1.25"/>
  <circle cx="72.232" cy="30.848" r="1.25"/>
  <circle cx="78.582" cy="28.308" r="1.25"/>
  <circle cx="11.053" cy="54.883" r="1.25"/>
  <circle cx="16.736" cy="51.078" r="1.25"/>
  <circle cx="72.232" cy="11.798" r="1.25"/>
  <circle cx="78.582" cy="9.2575" r="1.25"/>
  <circle cx="34.132" cy="11.798" r="1.25"/>
  <circle cx="40.482" cy="9.2575" r="1.25"/>
  <circle cx="124.51" cy="76.259" r="1.25"/>
  <circle cx="131.35" cy="76.044" r="1.25"/>
  <circle cx="53.182" cy="26.085" r="1.25"/>
  <circle cx="59.532" cy="23.545" r="1.25"/>
  <circle cx="106.61" cy="69.743" r="1.25"/>
  <circle cx="113.45" cy="69.528" r="1.25"/>
  <circle cx="91.282" cy="45.135" r="1.25"/>
  <circle cx="97.632" cy="42.595" r="1.25"/>
  <circle cx="34.132" cy="30.848" r="1.25"/>
  <circle cx="40.482" cy="28.308" r="1.25"/>
  <circle cx="34.132" cy="49.898" r="1.25"/>
  <circle cx="40.482" cy="47.358" r="1.25"/>
  <circle cx="53.182" cy="45.135" r="1.25"/>
  <circle cx="59.532" cy="42.595" r="1.25"/>
  <circle cx="72.232" cy="49.898" r="1.25"/>
  <circle cx="78.582" cy="47.358" r="1.25"/>
  <circle cx="53.182" cy="7.035" r="1.25"/>
  <circle cx="59.532" cy="4.495" r="1.25"/>
  <g fill="#50FA7B" fill-rule="evenodd">
   <path d="m42.722 58.388-0.0957-0.019-0.0811-0.0542-0.0542-0.0811-0.019-0.0957v-0.6l0.019-0.0957 0.0542-0.0811 0.0811-0.0542 0.0957-0.019h0.6l0.0956 0.019 0.0811 0.0542 0.0542 0.0811 0.0191 0.0957v0.6l-0.0191 0.0957-0.0542 0.0811-0.0811 0.0542-0.0956 0.019z"/>
   <path d="m42.722 55.588-0.0957-0.019-0.0811-0.0542-0.0542-0.0811-0.019-0.0957v-0.6l0.019-0.0957 0.0542-0.0811 0.0811-0.0542 0.0957-0.019h0.6l0.0956 0.019 0.0811 0.0542 0.0542 0.0811 0.0191 0.0957v0.6l-0.0191 0.0957-0.0542 0.0811-0.0811 0.0542-0.0956 0.019z"/>
   <path d="m61.772 53.625-0.0957-0.019-0.0811-0.0542-0.0542-0.0811-0.019-0.0957v-0.6l0.019-0.0957 0.0542-0.0811 0.0811-0.0542 0.0957-0.019h0.6l0.0956 0.019 0.0811 0.0542 0.0542 0.0811 0.0191 0.0957v0.6l-0.0191 0.0957-0.0542 0.0811-0.0811 0.0542-0.0956 0.019z"/>
   <path d="m61.772 50.825-0.0957-0.019-0.0811-0.0542-0.0542-0.0811-0.019-0.0957v-0.6l0.019-0.0957 0.0542-0.0811 0.0811-0.0542 0.0957-0.019h0.6l0.0956 0.019 0.0811 0.0542 0.0542 0.0811 0.0191 0.0957v0.6l-0.0191 0.0957-0.0542 0.0811-0.0811 0.0542-0.0956 0.019z"/>
   <path d="m99.872 53.625-0.0957-0.019-0.0811-0.0542-0.0542-0.0811-0.019-0.0957v-0.6l0.019-0.0957 0.0542-0.0811 0.0811-0.0542 0.0957-0.019h0.6l0.0956 0.019 0.0811 0.0542 0.0542 0.0811 0.0191 0.0957v0.6l-0.0191 0.0957-0.0542 0.0811-0.0811 0.0542-0.0956 0.019z"/>
   <path d="m99.872 50.825-0.0957-0.019-0.0811-0.0542-0.0542-0.0811-0.019-0.0957v-0.6l0.019-0.0957 0.0542-0.0811 0.0811-0.0542 0.0957-0.019h0.6l0.0956 0.019 0.0811 0.0542 0.0542 0.0811 0.0191 0.0957v0.6l-0.0191 0.0957-0.0542 0.0811-0.0811 0.0542-0.0956 0.019z"/>
   <path d="m21.221 61.402-0.0976 0.0013-0.0906-0.0361-0.0699-0.0681-0.0385-0.0896-0.1247-0.5869-0.0013-0.0976 0.0362-0.0906 0.068-0.0698 0.0896-0.0385 0.5869-0.1248 0.0976-0.0013 0.0906 0.0362 0.0698 0.0681 0.0386 0.0896 0.1247 0.5869 0.0013 0.0975-0.0362 0.0906-0.068 0.0699-0.0897 0.0385z"/>
   <path d="m20.638 58.663-0.0975 0.0013-0.0906-0.0362-0.0699-0.068-0.0385-0.0896-0.1248-0.5869-0.0012-0.0976 0.0361-0.0906 0.0681-0.0698 0.0896-0.0385 0.5869-0.1248 0.0975-0.0013 0.0906 0.0362 0.0699 0.068 0.0385 0.0897 0.1247 0.5869 0.0013 0.0975-0.0361 0.0906-0.0681 0.0699-0.0896 0.0385z"/>
   <path d="m111.78 80.659-0.0834-0.0506-0.0576-0.0787-0.0232-0.0947 0.0148-0.0964 0.2052-0.5638 0.0506-0.0834 0.0787-0.0577 0.0948-0.0232 0.0964 0.0148 0.5638 0.2053 0.0834 0.0506 0.0577 0.0786 0.0231 0.0948-0.0148 0.0964-0.2052 0.5638-0.0506 0.0834-0.0787 0.0577-0.0947 0.0232-0.0964-0.0149z"/>
   <path d="m112.74 78.028-0.0834-0.0506-0.0577-0.0787-0.0232-0.0947 0.0149-0.0965 0.2052-0.5638 0.0506-0.0834 0.0787-0.0576 0.0947-0.0232 0.0964 0.0148 0.5638 0.2052 0.0834 0.0506 0.0577 0.0787 0.0232 0.0947-0.0148 0.0965-0.2053 0.5638-0.0506 0.0834-0.0786 0.0576-0.0948 0.0232-0.0964-0.0148z"/>
   <path d="m42.722 20.288-0.0957-0.019-0.0811-0.0542-0.0542-0.0811-0.019-0.0957v-0.6l0.019-0.0957 0.0542-0.0811 0.0811-0.0542 0.0957-0.019h0.6l0.0956 0.019 0.0811 0.0542 0.0542 0.0811 0.0191 0.0957v0.6l-0.0191 0.0957-0.0542 0.0811-0.0811 0.0542-0.0956 0.019z"/>
   <path d="m42.722 17.488-0.0957-0.019-0.0811-0.0542-0.0542-0.0811-0.019-0.0957v-0.6l0.019-0.0957 0.0542-0.0811 0.0811-0.0542 0.0957-0.019h0.6l0.0956 0.019 0.0811 0.0542 0.0542 0.0811 0.0191 0.0957v0.6l-0.0191 0.0957-0.0542 0.0811-0.0811 0.0542-0.0956 0.019z"/>
   <path d="m42.722 39.338-0.0957-0.019-0.0811-0.0542-0.0542-0.0811-0.019-0.0957v-0.6l0.019-0.0957 0.0542-0.0811 0.0811-0.0542 0.0957-0.019h0.6l0.0956 0.019 0.0811 0.0542 0.0542 0.0811 0.0191 0.0957v0.6l-0.0191 0.0957-0.0542 0.0811-0.0811 0.0542-0.0956 0.019z"/>
   <path d="m42.722 36.538-0.0957-0.019-0.0811-0.0542-0.0542-0.0811-0.019-0.0957v-0.6l0.019-0.0957 0.0542-0.0811 0.0811-0.0542 0.0957-0.019h0.6l0.0956 0.019 0.0811 0.0542 0.0542 0.0811 0.0191 0.0957v0.6l-0.0191 0.0957-0.0542 0.0811-0.0811 0.0542-0.0956 0.019z"/>
   <path d="m80.822 39.338-0.0957-0.019-0.0811-0.0542-0.0542-0.0811-0.019-0.0957v-0.6l0.019-0.0957 0.0542-0.0811 0.0811-0.0542 0.0957-0.019h0.6l0.0956 0.019 0.0811 0.0542 0.0542 0.0811 0.0191 0.0957v0.6l-0.0191 0.0957-0.0542 0.0811-0.0811 0.0542-0.0956 0.019z"/>
   <path d="m80.822 36.538-0.0957-0.019-0.0811-0.0542-0.0542-0.0811-0.019-0.0957v-0.6l0.019-0.0957 0.0542-0.0811 0.0811-0.0542 0.0957-0.019h0.6l0.0956 0.019 0.0811 0.0542 0.0542 0.0811 0.0191 0.0957v0.6l-0.0191 0.0957-0.0542 0.0811-0.0811 0.0542-0.0956 0.019z"/>
   <path d="m17.26 42.768-0.0975 0.0013-0.0906-0.0362-0.0699-0.068-0.0385-0.0896-0.1247-0.5869-0.0013-0.0976 0.0361-0.0906 0.0681-0.0698 0.0896-0.0385 0.5869-0.1248 0.0976-0.0013 0.0906 0.0362 0.0698 0.068 0.0385 0.0897 0.1248 0.5869 0.0013 0.0975-0.0362 0.0906-0.0681 0.0699-0.0896 0.0385z"/>
   <path d="m16.678 40.029-0.0976 0.0013-0.0906-0.0362-0.0698-0.068-0.0385-0.0897-0.1248-0.5868-0.0013-0.0976 0.0362-0.0906 0.0681-0.0699 0.0896-0.0385 0.5869-0.1247 0.0975-0.0013 0.0906 0.0362 0.0699 0.068 0.0385 0.0897 0.1247 0.5868 0.0013 0.0976-0.0361 0.0906-0.0681 0.0698-0.0896 0.0386z"/>
   <path d="m80.822 58.388-0.0957-0.019-0.0811-0.0542-0.0542-0.0811-0.019-0.0957v-0.6l0.019-0.0957 0.0542-0.0811 0.0811-0.0542 0.0957-0.019h0.6l0.0956 0.019 0.0811 0.0542 0.0542 0.0811 0.0191 0.0957v0.6l-0.0191 0.0957-0.0542 0.0811-0.0811 0.0542-0.0956 0.019z"/>
   <path d="m80.822 55.588-0.0957-0.019-0.0811-0.0542-0.0542-0.0811-0.019-0.0957v-0.6l0.019-0.0957 0.0542-0.0811 0.0811-0.0542 0.0957-0.019h0.6l0.0956 0.019 0.0811 0.0542 0.0542 0.0811 0.0191 0.0957v0.6l-0.0191 0.0957-0.0542 0.0811-0.0811 0.0542-0.0956 0.019z"/>
   <path d="m61.772 34.575-0.0957-0.019-0.0811-0.0542-0.0542-0.0811-0.019-0.0957v-0.6l0.019-0.0957 0.0542-0.0811 0.0811-0.0542 0.0957-0.019h0.6l0.0956 0.019 0.0811 0.0542 0.0542 0.0811 0.0191 0.0957v0.6l-0.0191 0.0957-0.0542 0.0811-0.0811 0.0542-0.0956 0.019z"/>
   <path d="m61.772 31.775-0.0957-0.019-0.0811-0.0542-0.0542-0.0811-0.019-0.0957v-0.6l0.019-0.0957 0.0542-0.0811 0.0811-0.0542 0.0957-0.019h0.6l0.0956 0.019 0.0811 0.0542 0.0542 0.0811 0.0191 0.0957v0.6l-0.0191 0.0957-0.0542 0.0811-0.0811 0.0542-0.0956 0.019z"/>
   <path d="m61.772 15.525-0.0957-0.019-0.0811-0.0542-0.0542-0.0811-0.019-0.0957v-0.6l0.019-0.0957 0.0542-0.0811 0.0811-0.0542 0.0957-0.019h0.6l0.0956 0.019 0.0811 0.0542 0.0542 0.0811 0.0191 0.0957v0.6l-0.0191 0.0957-0.0542 0.0811-0.0811 0.0542-0.0956 0.019z"/>
   <path d="m61.772 12.725-0.0957-0.019-0.0811-0.0542-0.0542-0.0811-0.019-0.0957v-0.6l0.019-0.0957 0.0542-0.0811 0.0811-0.0542 0.0957-0.019h0.6l0.0956 0.019 0.0811 0.0542 0.0542 0.0811 0.0191 0.0957v0.6l-0.0191 0.0957-0.0542 0.0811-0.0811 0.0542-0.0956 0.019z"/>
   <path d="m129.68 87.175-0.0834-0.0506-0.0577-0.0787-0.0232-0.0947 0.0149-0.0964 0.2052-0.5638 0.0506-0.0834 0.0786-0.0577 0.0948-0.0232 0.0964 0.0148 0.5638 0.2052 0.0834 0.0506 0.0577 0.0787 0.0232 0.0948-0.0149 0.0964-0.2052 0.5638-0.0506 0.0834-0.0786 0.0577-0.0948 0.0231-0.0964-0.0148z"/>
   <path d="m130.64 84.544-0.0834-0.0506-0.0576-0.0787-0.0232-0.0948 0.0148-0.0964 0.2052-0.5638 0.0506-0.0834 0.0787-0.0577 0.0948-0.0231 0.0964 0.0148 0.5638 0.2052 0.0834 0.0506 0.0577 0.0787 0.0231 0.0947-0.0148 0.0964-0.2052 0.5638-0.0506 0.0834-0.0787 0.0577-0.0947 0.0232-0.0964-0.0148z"/>
   <path d="m80.822 20.288-0.0957-0.019-0.0811-0.0542-0.0542-0.0811-0.019-0.0957v-0.6l0.019-0.0957 0.0542-0.0811 0.0811-0.0542 0.0957-0.019h0.6l0.0956 0.019 0.0811 0.0542 0.0542 0.0811 0.0191 0.0957v0.6l-0.0191 0.0957-0.0542 0.0811-0.0811 0.0542-0.0956 0.019z"/>
   <path d="m80.822 17.488-0.0957-0.019-0.0811-0.0542-0.0542-0.0811-0.019-0.0957v-0.6l0.019-0.0957 0.0542-0.0811 0.0811-0.0542 0.0957-0.019h0.6l0.0956 0.019 0.0811 0.0542 0.0542 0.0811 0.0191 0.0957v0.6l-0.0191 0.0957-0.0542 0.0811-0.0811 0.0542-0.0956 0.019z"/>
  </g>
 </g>
 <g fill="none" stroke="#50FA7B" stroke-linecap="round" stroke-linejoin="round" stroke-width=".2">
  <path d="m40.482 14.398 2.54 2.54"/>
  <path d="m40.482 9.2575v5.14"/>
  <path d="m59.532 9.635 2.54 2.54"/>
  <path d="m59.532 4.495v5.14"/>
  <path d="m78.582 14.398 2.54 2.54"/>
  <path d="m78.582 9.2575v5.14"/>
  <path d="m13.844 37.472 3.0126 1.9564"/>
  <path d="m12.776 32.445 1.0687 5.0276"/>
  <path d="m40.482 33.448 2.54 2.54"/>
  <path d="m40.482 28.308v5.14"/>
  <path d="m59.532 23.545v5.14"/>
  <path d="m59.532 28.685 2.54 2.54"/>
  <path d="m78.582 28.308v5.14"/>
  <path d="m78.582 33.448 2.54 2.54"/>
  <path d="m16.736 51.078 1.0687 5.0277"/>
  <path d="m17.805 56.106 3.0126 1.9564"/>
  <path d="m40.482 47.358v5.14"/>
  <path d="m40.482 52.498 2.54 2.54"/>
  <path d="m59.532 47.735 2.54 2.54"/>
  <path d="m59.532 42.595v5.14"/>
  <path d="m78.582 47.358v5.14"/>
  <path d="m78.582 52.498 2.54 2.54"/>
  <path d="m97.632 47.735 2.54 2.54"/>
  <path d="m97.632 42.595v5.14"/>
  <path d="m113.45 69.528-1.758 4.83"/>
  <path d="m111.69 74.358 1.5181 3.2555"/>
  <path d="m131.35 76.044-1.758 4.83"/>
  <path d="m129.59 80.874 1.5181 3.2555"/>
  <path d="m62.072 14.975 4.7625 4.7625"/>
  <path d="m66.834 19.738h14.288"/>
  <path d="m43.022 19.738h14.288"/>
  <path d="m57.309 19.738 4.7625-4.7625"/>
  <path d="m62.072 34.025 4.7625 4.7625"/>
  <path d="m57.309 38.788 4.7625-4.7625"/>
  <path d="m43.022 38.788h14.288"/>
  <path d="m66.834 38.788h14.288"/>
  <path d="m66.834 57.838h14.288"/>
  <path d="m95.409 57.838 4.7625-4.7625"/>
  <path d="m112.25 80.245 17.901 6.5155"/>
  <path d="m130.15 86.761"/>
  <path d="m81.122 57.838h14.288"/>
  <path d="m43.022 57.838h14.288"/>
  <path d="m57.309 57.838 4.7625-4.7625"/>
  <path d="m62.072 53.075 4.7625 4.7625"/>
 </g>
 <g fill="#fff">
  <circle cx="6.3782" cy="38.998" r=".875"/>
  <circle cx="11.347" cy="37.942" r="2"/>
  <circle cx="16.316" cy="36.886" r=".875"/>
  <circle cx="7.0924" cy="36.25" r=".75"/>
  <circle cx="12.776" cy="32.445" r=".75"/>
  <circle cx="70.962" cy="33.388" r=".875"/>
  <circle cx="76.042" cy="33.388" r="2"/>
  <circle cx="81.122" cy="33.388" r=".875"/>
  <circle cx="72.232" cy="30.848" r=".75"/>
  <circle cx="78.582" cy="28.308" r=".75"/>
  <circle cx="10.339" cy="57.632" r=".875"/>
  <circle cx="15.308" cy="56.576" r="2"/>
  <circle cx="20.277" cy="55.519" r=".875"/>
  <circle cx="11.053" cy="54.883" r=".75"/>
  <circle cx="16.736" cy="51.078" r=".75"/>
  <circle cx="70.962" cy="14.338" r=".875"/>
  <circle cx="76.042" cy="14.338" r="2"/>
  <circle cx="81.122" cy="14.338" r=".875"/>
  <circle cx="72.232" cy="11.798" r=".75"/>
  <circle cx="78.582" cy="9.2575" r=".75"/>
  <circle cx="32.862" cy="14.338" r=".875"/>
  <circle cx="37.942" cy="14.338" r="2"/>
  <circle cx="43.022" cy="14.338" r=".875"/>
  <circle cx="34.132" cy="11.798" r=".75"/>
  <circle cx="40.482" cy="9.2575" r=".75"/>
  <circle cx="122.45" cy="78.211" r=".875"/>
  <circle cx="127.23" cy="79.949" r="2"/>
  <circle cx="132" cy="81.686" r=".875"/>
  <circle cx="124.51" cy="76.259" r=".75"/>
  <circle cx="131.35" cy="76.044" r=".75"/>
  <circle cx="51.912" cy="28.625" r=".875"/>
  <circle cx="56.992" cy="28.625" r="2"/>
  <circle cx="62.072" cy="28.625" r=".875"/>
  <circle cx="53.182" cy="26.085" r=".75"/>
  <circle cx="59.532" cy="23.545" r=".75"/>
  <circle cx="104.55" cy="71.696" r=".875"/>
  <circle cx="109.32" cy="73.433" r="2"/>
  <circle cx="114.1" cy="75.171" r=".875"/>
  <circle cx="106.61" cy="69.743" r=".75"/>
  <circle cx="113.45" cy="69.528" r=".75"/>
  <circle cx="90.012" cy="47.675" r=".875"/>
  <circle cx="95.092" cy="47.675" r="2"/>
  <circle cx="100.17" cy="47.675" r=".875"/>
  <circle cx="91.282" cy="45.135" r=".75"/>
  <circle cx="97.632" cy="42.595" r=".75"/>
  <circle cx="32.862" cy="33.388" r=".875"/>
  <circle cx="37.942" cy="33.388" r="2"/>
  <circle cx="43.022" cy="33.388" r=".875"/>
  <circle cx="34.132" cy="30.848" r=".75"/>
  <circle cx="40.482" cy="28.308" r=".75"/>
  <circle cx="32.862" cy="52.438" r=".875"/>
  <circle cx="37.942" cy="52.438" r="2"/>
  <circle cx="43.022" cy="52.438" r=".875"/>
  <circle cx="34.132" cy="49.898" r=".75"/>
  <circle cx="40.482" cy="47.358" r=".75"/>
  <circle cx="51.912" cy="47.675" r=".875"/>
  <circle cx="56.992" cy="47.675" r="2"/>
  <circle cx="62.072" cy="47.675" r=".875"/>
  <circle cx="53.182" cy="45.135" r=".75"/>
  <circle cx="59.532" cy="42.595" r=".75"/>
  <circle cx="70.962" cy="52.438" r=".875"/>
  <circle cx="76.042" cy="52.438" r="2"/>
  <circle cx="81.122" cy="52.438" r=".875"/>
  <circle cx="72.232" cy="49.898" r=".75"/>
  <circle cx="78.582" cy="47.358" r=".75"/>
  <circle cx="51.912" cy="9.575" r=".875"/>
  <circle cx="56.992" cy="9.575" r="2"/>
  <circle cx="62.072" cy="9.575" r=".875"/>
  <circle cx="53.182" cy="7.035" r=".75"/>
  <circle cx="59.532" cy="4.495" r=".75"/>
 </g>
</svg>
