<svg xmlns="http://www.w3.org/2000/svg" xmlns:xlink="http://www.w3.org/1999/xlink" width="411" height="190" viewBox="0 0 411 190"><defs><g id="a" font-size="12"><text x="7" y="7" dominant-baseline="hanging"><tspan x="7" dy="0em">1,6</tspan></text><text x="396" y="172" text-anchor="end"><tspan x="396" dy="0em">0,0</tspan></text></g><g id="b" font-size="12"><text x="7" y="7" dominant-baseline="hanging"><tspan x="7" dy="0em">1,6</tspan></text><text x="396" y="172" text-anchor="end"><tspan x="396" dy="0em">0,1</tspan></text></g><g id="c"><rect width="52" height="78" fill="none" stroke="#000" stroke-width="2" rx="5"/><rect width="50" height="76" x="1" y="1" fill="#ccc" rx="4"/><rect width="40" height="66" x="6" y="4" fill="#fbfbfb" rx="5"/><text x="7" y="7" dominant-baseline="hanging" font-size="12"><tspan x="7" dy="0em">2,1</tspan></text><text x="45" y="68" font-size="12" text-anchor="end"><tspan x="45" dy="0em">0,1</tspan></text></g><g id="d"><rect width="52" height="78" fill="none" stroke="#000" stroke-width="2" rx="5"/><rect width="50" height="76" x="1" y="1" fill="#ccc" rx="4"/><rect width="40" height="66" x="6" y="4" fill="#fbfbfb" rx="5"/><text x="7" y="7" dominant-baseline="hanging" font-size="12"><tspan x="7" dy="0em">2,3</tspan></text><text x="45" y="68" font-size="12" text-anchor="end"><tspan x="45" dy="0em">0,1</tspan></text></g><g id="e"><rect width="52" height="78" fill="none" stroke="#000" stroke-width="2" rx="5"/><rect width="50" height="76" x="1" y="1" fill="#ccc" rx="4"/><rect width="40" height="66" x="6" y="4" fill="#fbfbfb" rx="5"/><text x="7" y="7" dominant-baseline="hanging" font-size="12"><tspan x="7" dy="0em">2,5</tspan></text><text x="45" y="68" font-size="12" text-anchor="end"><tspan x="45" dy="0em">0,1</tspan></text></g><g id="f"><rect width="52" height="78" fill="none" stroke="#000" stroke-width="2" rx="5"/><rect width="50" height="76" x="1" y="1" fill="#ccc" rx="4"/><rect width="40" height="66" x="6" y="4" fill="#fbfbfb" rx="5"/><text x="7" y="7" dominant-baseline="hanging" font-size="12"><tspan x="7" dy="0em">0,1</tspan></text><text x="45" y="68" font-size="12" text-anchor="end"><tspan x="45" dy="0em">0,0</tspan></text></g><g id="g"><rect width="52" height="78" fill="none" stroke="#000" stroke-width="2" rx="5"/><rect width="50" height="76" x="1" y="1" fill="#ccc" rx="4"/><rect width="40" height="66" x="6" y="4" fill="#fbfbfb" rx="5"/><text x="7" y="7" dominant-baseline="hanging" font-size="12"><tspan x="7" dy="0em">0,3</tspan></text><text x="45" y="68" font-size="12" text-anchor="end"><tspan x="45" dy="0em">0,0</tspan></text></g><g id="h"><rect width="52" height="78" fill="none" stroke="#000" stroke-width="2" rx="5"/><rect width="50" height="76" x="1" y="1" fill="#ccc" rx="4"/><rect width="40" height="66" x="6" y="4" fill="#fbfbfb" rx="5"/><text x="7" y="7" dominant-baseline="hanging" font-size="12"><tspan x="7" dy="0em">0,5</tspan></text><text x="45" y="68" font-size="12" text-anchor="end"><tspan x="45" dy="0em">0,0</tspan></text></g><g id="i"><rect width="78" height="78" fill="none" stroke="#000" stroke-width="2" rx="5"/><rect width="76" height="76" x="1" y="1" fill="#ccc" rx="4"/><rect width="66" height="66" x="6" y="4" fill="#fbfbfb" rx="5"/><text x="7" y="7" dominant-baseline="hanging" font-size="12"><tspan x="7" dy="0em">1,1</tspan></text><text x="71" y="68" font-size="12" text-anchor="end"><tspan x="71" dy="0em">0,0</tspan></text></g><g id="j"><rect width="78" height="78" fill="none" stroke="#000" stroke-width="2" rx="5"/><rect width="76" height="76" x="1" y="1" fill="#ccc" rx="4"/><rect width="66" height="66" x="6" y="4" fill="#fbfbfb" rx="5"/><text x="7" y="7" dominant-baseline="hanging" font-size="12"><tspan x="7" dy="0em">1,1</tspan></text><text x="71" y="68" font-size="12" text-anchor="end"><tspan x="71" dy="0em">0,1</tspan></text></g><g id="k"><rect width="26" height="52" fill="none" stroke="#000" stroke-width="2" rx="5"/><rect width="24" height="50" x="1" y="1" fill="#ccc" rx="4"/><rect width="14" height="40" x="6" y="4" fill="#fbfbfb" rx="5"/><text x="7" y="7" dominant-baseline="hanging" font-size="12"><tspan x="7" dy="0em">1,0</tspan></text><text x="19" y="42" font-size="12" text-anchor="end"><tspan x="19" dy="0em">0,0</tspan></text></g><g id="l"><rect width="26" height="52" fill="none" stroke="#000" stroke-width="2" rx="5"/><rect width="24" height="50" x="1" y="1" fill="#ccc" rx="4"/><rect width="14" height="40" x="6" y="4" fill="#fbfbfb" rx="5"/><text x="7" y="7" dominant-baseline="hanging" font-size="12"><tspan x="7" dy="0em">1,2</tspan></text><text x="19" y="42" font-size="12" text-anchor="end"><tspan x="19" dy="0em">0,0</tspan></text></g><g id="m"><rect width="26" height="52" fill="none" stroke="#000" stroke-width="2" rx="5"/><rect width="24" height="50" x="1" y="1" fill="#ccc" rx="4"/><rect width="14" height="40" x="6" y="4" fill="#fbfbfb" rx="5"/><text x="7" y="7" dominant-baseline="hanging" font-size="12"><tspan x="7" dy="0em">1,0</tspan></text><text x="19" y="42" font-size="12" text-anchor="end"><tspan x="19" dy="0em">0,1</tspan></text></g><g id="n"><rect width="26" height="52" fill="none" stroke="#000" stroke-width="2" rx="5"/><rect width="24" height="50" x="1" y="1" fill="#ccc" rx="4"/><rect width="14" height="40" x="6" y="4" fill="#fbfbfb" rx="5"/><text x="7" y="7" dominant-baseline="hanging" font-size="12"><tspan x="7" dy="0em">1,2</tspan></text><text x="19" y="42" font-size="12" text-anchor="end"><tspan x="19" dy="0em">0,1</tspan></text></g><g id="o"><rect width="52" height="78" fill="none" stroke="#000" stroke-width="2" rx="5"/><rect width="50" height="76" x="1" y="1" fill="#ccc" rx="4"/><rect width="40" height="66" x="6" y="4" fill="#fbfbfb" rx="5"/><text x="7" y="7" dominant-baseline="hanging" font-size="12"><tspan x="7" dy="0em">0,0</tspan></text><text x="45" y="68" font-size="12" text-anchor="end"><tspan x="45" dy="0em">0,1</tspan></text></g><g id="p"><rect width="52" height="78" fill="none" stroke="#000" stroke-width="2" rx="5"/><rect width="50" height="76" x="1" y="1" fill="#ccc" rx="4"/><rect width="40" height="66" x="6" y="4" fill="#fbfbfb" rx="5"/><text x="7" y="7" dominant-baseline="hanging" font-size="12"><tspan x="7" dy="0em">0,2</tspan></text><text x="45" y="68" font-size="12" text-anchor="end"><tspan x="45" dy="0em">0,1</tspan></text></g><g id="q"><rect width="52" height="78" fill="none" stroke="#000" stroke-width="2" rx="5"/><rect width="50" height="76" x="1" y="1" fill="#ccc" rx="4"/><rect width="40" height="66" x="6" y="4" fill="#fbfbfb" rx="5"/><text x="7" y="7" dominant-baseline="hanging" font-size="12"><tspan x="7" dy="0em">0,4</tspan></text><text x="45" y="68" font-size="12" text-anchor="end"><tspan x="45" dy="0em">0,1</tspan></text></g><g id="r"><rect width="52" height="78" fill="none" stroke="#000" stroke-width="2" rx="5"/><rect width="50" height="76" x="1" y="1" fill="#ccc" rx="4"/><rect width="40" height="66" x="6" y="4" fill="#fbfbfb" rx="5"/><text x="7" y="7" dominant-baseline="hanging" font-size="12"><tspan x="7" dy="0em">2,0</tspan></text><text x="45" y="68" font-size="12" text-anchor="end"><tspan x="45" dy="0em">0,0</tspan></text></g><g id="s"><rect width="52" height="78" fill="none" stroke="#000" stroke-width="2" rx="5"/><rect width="50" height="76" x="1" y="1" fill="#ccc" rx="4"/><rect width="40" height="66" x="6" y="4" fill="#fbfbfb" rx="5"/><text x="7" y="7" dominant-baseline="hanging" font-size="12"><tspan x="7" dy="0em">0,6</tspan></text><text x="45" y="68" font-size="12" text-anchor="end"><tspan x="45" dy="0em">0,1</tspan></text></g><g id="t"><rect width="52" height="78" fill="none" stroke="#000" stroke-width="2" rx="5"/><rect width="50" height="76" x="1" y="1" fill="#ccc" rx="4"/><rect width="40" height="66" x="6" y="4" fill="#fbfbfb" rx="5"/><text x="7" y="7" dominant-baseline="hanging" font-size="12"><tspan x="7" dy="0em">2,2</tspan></text><text x="45" y="68" font-size="12" text-anchor="end"><tspan x="45" dy="0em">0,0</tspan></text></g><g id="u"><rect width="52" height="78" fill="none" stroke="#000" stroke-width="2" rx="5"/><rect width="50" height="76" x="1" y="1" fill="#ccc" rx="4"/><rect width="40" height="66" x="6" y="4" fill="#fbfbfb" rx="5"/><text x="7" y="7" dominant-baseline="hanging" font-size="12"><tspan x="7" dy="0em">2,4</tspan></text><text x="45" y="68" font-size="12" text-anchor="end"><tspan x="45" dy="0em">0,0</tspan></text></g><g id="v"><rect width="52" height="78" fill="none" stroke="#000" stroke-width="2" rx="5"/><rect width="50" height="76" x="1" y="1" fill="#ccc" rx="4"/><rect width="40" height="66" x="6" y="4" fill="#fbfbfb" rx="5"/><text x="7" y="7" dominant-baseline="hanging" font-size="12"><tspan x="7" dy="0em">2,6</tspan></text><text x="45" y="68" font-size="12" text-anchor="end"><tspan x="45" dy="0em">0,0</tspan></text></g></defs><use xlink:href="#a" x="4" y="4"/><use xlink:href="#b" x="4" y="4"/><use xlink:href="#c" x="36.5" y="4"/><use xlink:href="#d" x="101.5" y="4"/><use xlink:href="#e" x="166.5" y="4"/><use xlink:href="#f" x="192.5" y="4"/><use xlink:href="#g" x="257.5" y="4"/><use xlink:href="#h" x="322.5" y="4"/><use xlink:href="#i" x="30" y="56"/><use xlink:href="#j" x="303" y="56"/><use xlink:href="#k" x="4" y="69"/><use xlink:href="#l" x="108" y="69"/><use xlink:href="#m" x="277" y="69"/><use xlink:href="#n" x="381" y="69"/><use xlink:href="#o" x="4" y="108"/><use xlink:href="#p" x="69" y="108"/><use xlink:href="#q" x="134" y="108"/><use xlink:href="#r" x="160" y="108"/><use xlink:href="#s" x="199" y="108"/><use xlink:href="#t" x="225" y="108"/><use xlink:href="#u" x="290" y="108"/><use xlink:href="#v" x="355" y="108"/></svg>