<?xml version="1.0" encoding="UTF-8"?>
<svg width="149.84mm" height="55.792mm" version="1.1" viewBox="21.662 29.695 149.84 55.792" xmlns="http://www.w3.org/2000/svg">
 <title>SVG Image created as solo-render.svg date 2024/01/04 11:25:34</title>
 <desc>Image generated by PCBNEW</desc>
 <g fill="#282a36">
  <rect x="21.662" y="29.695" width="149.84" height="55.792"/>
 </g>
 <g fill-opacity="0" stroke-width="0">
  <g fill="#C83434" stroke="#C83434" stroke-linecap="round" stroke-linejoin="round">
   <g fill-opacity="1" stroke-width="0">
    <circle cx="25.953" cy="55.797" r="1.25"/>
    <circle cx="32.303" cy="53.258" r="1.25"/>
    <circle cx="135.49" cy="74.847" r="1.25"/>
    <circle cx="141.84" cy="72.307" r="1.25"/>
    <circle cx="147.4" cy="36.747" r="1.25"/>
    <circle cx="153.75" cy="34.207" r="1.25"/>
    <circle cx="87.865" cy="74.847" r="1.25"/>
    <circle cx="94.215" cy="72.307" r="1.25"/>
    <circle cx="45.002" cy="55.797" r="1.25"/>
    <circle cx="51.352" cy="53.258" r="1.25"/>
    <circle cx="111.68" cy="74.847" r="1.25"/>
    <circle cx="118.03" cy="72.307" r="1.25"/>
    <circle cx="95.009" cy="55.797" r="1.25"/>
    <circle cx="101.36" cy="53.258" r="1.25"/>
    <circle cx="64.052" cy="55.797" r="1.25"/>
    <circle cx="70.403" cy="53.258" r="1.25"/>
    <circle cx="159.3" cy="74.847" r="1.25"/>
    <circle cx="165.65" cy="72.307" r="1.25"/>
    <circle cx="123.58" cy="36.747" r="1.25"/>
    <circle cx="129.93" cy="34.207" r="1.25"/>
    <circle cx="99.771" cy="36.747" r="1.25"/>
    <circle cx="106.12" cy="34.207" r="1.25"/>
   </g>
   <g fill-opacity="0" stroke-width=".25">
    <path d="m95.009 55.797h45.243"/>
    <path d="m140.25 55.797 19.05 19.05"/>
    <path d="m25.953 36.747h73.818"/>
    <path d="m45.002 55.797-19.049-19.05"/>
   </g>
  </g>
 </g>
 <g stroke-linecap="round" stroke-linejoin="round">
  <g fill-opacity="0" stroke="#000" stroke-width=".25">
   <g fill="#7FC87F" fill-opacity="1" stroke="#7FC87F" stroke-linecap="round" stroke-linejoin="round" stroke-width="0">
    <circle cx="25.953" cy="55.797" r="1.25"/>
    <circle cx="32.303" cy="53.258" r="1.25"/>
    <circle cx="135.49" cy="74.847" r="1.25"/>
    <circle cx="141.84" cy="72.307" r="1.25"/>
    <circle cx="147.4" cy="36.747" r="1.25"/>
    <circle cx="153.75" cy="34.207" r="1.25"/>
    <circle cx="87.865" cy="74.847" r="1.25"/>
    <circle cx="94.215" cy="72.307" r="1.25"/>
    <circle cx="45.002" cy="55.797" r="1.25"/>
    <circle cx="51.352" cy="53.258" r="1.25"/>
    <circle cx="111.68" cy="74.847" r="1.25"/>
    <circle cx="118.03" cy="72.307" r="1.25"/>
    <circle cx="95.009" cy="55.797" r="1.25"/>
    <circle cx="101.36" cy="53.258" r="1.25"/>
    <circle cx="64.052" cy="55.797" r="1.25"/>
    <circle cx="70.403" cy="53.258" r="1.25"/>
    <circle cx="159.3" cy="74.847" r="1.25"/>
    <circle cx="165.65" cy="72.307" r="1.25"/>
    <circle cx="123.58" cy="36.747" r="1.25"/>
    <circle cx="129.93" cy="34.207" r="1.25"/>
    <circle cx="99.771" cy="36.747" r="1.25"/>
    <circle cx="106.12" cy="34.207" r="1.25"/>
   </g>
  </g>
  <g stroke="#000" stroke-width=".021">
   <g fill="#CE7D2C" stroke="#CE7D2C" stroke-linecap="round" stroke-linejoin="round" stroke-width="0">
    <circle cx="25.953" cy="55.797" r="1.25"/>
    <circle cx="32.303" cy="53.258" r="1.25"/>
    <circle cx="135.49" cy="74.847" r="1.25"/>
    <circle cx="141.84" cy="72.307" r="1.25"/>
    <circle cx="147.4" cy="36.747" r="1.25"/>
    <circle cx="153.75" cy="34.207" r="1.25"/>
    <circle cx="87.865" cy="74.847" r="1.25"/>
    <circle cx="94.215" cy="72.307" r="1.25"/>
    <circle cx="45.002" cy="55.797" r="1.25"/>
    <circle cx="51.352" cy="53.258" r="1.25"/>
    <circle cx="111.68" cy="74.847" r="1.25"/>
    <circle cx="118.03" cy="72.307" r="1.25"/>
    <circle cx="95.009" cy="55.797" r="1.25"/>
    <circle cx="101.36" cy="53.258" r="1.25"/>
    <circle cx="64.052" cy="55.797" r="1.25"/>
    <circle cx="70.403" cy="53.258" r="1.25"/>
    <circle cx="159.3" cy="74.847" r="1.25"/>
    <circle cx="165.65" cy="72.307" r="1.25"/>
    <circle cx="123.58" cy="36.747" r="1.25"/>
    <circle cx="129.93" cy="34.207" r="1.25"/>
    <circle cx="99.771" cy="36.747" r="1.25"/>
    <circle cx="106.12" cy="34.207" r="1.25"/>
   </g>
   <g fill="#4FCBCB" stroke="#4FCBCB" stroke-linecap="round" stroke-linejoin="round" stroke-width="0">
    <circle cx="25.953" cy="55.797" r="1.25"/>
    <circle cx="32.303" cy="53.258" r="1.25"/>
    <circle cx="135.49" cy="74.847" r="1.25"/>
    <circle cx="141.84" cy="72.307" r="1.25"/>
    <circle cx="147.4" cy="36.747" r="1.25"/>
    <circle cx="153.75" cy="34.207" r="1.25"/>
    <circle cx="87.865" cy="74.847" r="1.25"/>
    <circle cx="94.215" cy="72.307" r="1.25"/>
    <circle cx="45.002" cy="55.797" r="1.25"/>
    <circle cx="51.352" cy="53.258" r="1.25"/>
    <circle cx="111.68" cy="74.847" r="1.25"/>
    <circle cx="118.03" cy="72.307" r="1.25"/>
    <circle cx="95.009" cy="55.797" r="1.25"/>
    <circle cx="101.36" cy="53.258" r="1.25"/>
    <circle cx="64.052" cy="55.797" r="1.25"/>
    <circle cx="70.403" cy="53.258" r="1.25"/>
    <circle cx="159.3" cy="74.847" r="1.25"/>
    <circle cx="165.65" cy="72.307" r="1.25"/>
    <circle cx="123.58" cy="36.747" r="1.25"/>
    <circle cx="129.93" cy="34.207" r="1.25"/>
    <circle cx="99.771" cy="36.747" r="1.25"/>
    <circle cx="106.12" cy="34.207" r="1.25"/>
   </g>
   <g fill="#DB628B" stroke="#DB628B" stroke-linecap="round" stroke-linejoin="round" stroke-width="0">
    <circle cx="25.953" cy="55.797" r="1.25"/>
    <circle cx="32.303" cy="53.258" r="1.25"/>
    <circle cx="135.49" cy="74.847" r="1.25"/>
    <circle cx="141.84" cy="72.307" r="1.25"/>
    <circle cx="147.4" cy="36.747" r="1.25"/>
    <circle cx="153.75" cy="34.207" r="1.25"/>
    <circle cx="87.865" cy="74.847" r="1.25"/>
    <circle cx="94.215" cy="72.307" r="1.25"/>
    <circle cx="45.002" cy="55.797" r="1.25"/>
    <circle cx="51.352" cy="53.258" r="1.25"/>
    <circle cx="111.68" cy="74.847" r="1.25"/>
    <circle cx="118.03" cy="72.307" r="1.25"/>
    <circle cx="95.009" cy="55.797" r="1.25"/>
    <circle cx="101.36" cy="53.258" r="1.25"/>
    <circle cx="64.052" cy="55.797" r="1.25"/>
    <circle cx="70.403" cy="53.258" r="1.25"/>
    <circle cx="159.3" cy="74.847" r="1.25"/>
    <circle cx="165.65" cy="72.307" r="1.25"/>
    <circle cx="123.58" cy="36.747" r="1.25"/>
    <circle cx="129.93" cy="34.207" r="1.25"/>
    <circle cx="99.771" cy="36.747" r="1.25"/>
    <circle cx="106.12" cy="34.207" r="1.25"/>
   </g>
   <g fill="#A7A5C6" stroke="#A7A5C6" stroke-linecap="round" stroke-linejoin="round" stroke-width="0">
    <circle cx="25.953" cy="55.797" r="1.25"/>
    <circle cx="32.303" cy="53.258" r="1.25"/>
    <circle cx="135.49" cy="74.847" r="1.25"/>
    <circle cx="141.84" cy="72.307" r="1.25"/>
    <circle cx="147.4" cy="36.747" r="1.25"/>
    <circle cx="153.75" cy="34.207" r="1.25"/>
    <circle cx="87.865" cy="74.847" r="1.25"/>
    <circle cx="94.215" cy="72.307" r="1.25"/>
    <circle cx="45.002" cy="55.797" r="1.25"/>
    <circle cx="51.352" cy="53.258" r="1.25"/>
    <circle cx="111.68" cy="74.847" r="1.25"/>
    <circle cx="118.03" cy="72.307" r="1.25"/>
    <circle cx="95.009" cy="55.797" r="1.25"/>
    <circle cx="101.36" cy="53.258" r="1.25"/>
    <circle cx="64.052" cy="55.797" r="1.25"/>
    <circle cx="70.403" cy="53.258" r="1.25"/>
    <circle cx="159.3" cy="74.847" r="1.25"/>
    <circle cx="165.65" cy="72.307" r="1.25"/>
    <circle cx="123.58" cy="36.747" r="1.25"/>
    <circle cx="129.93" cy="34.207" r="1.25"/>
    <circle cx="99.771" cy="36.747" r="1.25"/>
    <circle cx="106.12" cy="34.207" r="1.25"/>
   </g>
   <g fill="#28CCD9" stroke="#28CCD9" stroke-linecap="round" stroke-linejoin="round" stroke-width="0">
    <circle cx="25.953" cy="55.797" r="1.25"/>
    <circle cx="32.303" cy="53.258" r="1.25"/>
    <circle cx="135.49" cy="74.847" r="1.25"/>
    <circle cx="141.84" cy="72.307" r="1.25"/>
    <circle cx="147.4" cy="36.747" r="1.25"/>
    <circle cx="153.75" cy="34.207" r="1.25"/>
    <circle cx="87.865" cy="74.847" r="1.25"/>
    <circle cx="94.215" cy="72.307" r="1.25"/>
    <circle cx="45.002" cy="55.797" r="1.25"/>
    <circle cx="51.352" cy="53.258" r="1.25"/>
    <circle cx="111.68" cy="74.847" r="1.25"/>
    <circle cx="118.03" cy="72.307" r="1.25"/>
    <circle cx="95.009" cy="55.797" r="1.25"/>
    <circle cx="101.36" cy="53.258" r="1.25"/>
    <circle cx="64.052" cy="55.797" r="1.25"/>
    <circle cx="70.403" cy="53.258" r="1.25"/>
    <circle cx="159.3" cy="74.847" r="1.25"/>
    <circle cx="165.65" cy="72.307" r="1.25"/>
    <circle cx="123.58" cy="36.747" r="1.25"/>
    <circle cx="129.93" cy="34.207" r="1.25"/>
    <circle cx="99.771" cy="36.747" r="1.25"/>
    <circle cx="106.12" cy="34.207" r="1.25"/>
   </g>
   <g fill="#E8B2A7" stroke="#E8B2A7" stroke-linecap="round" stroke-linejoin="round" stroke-width="0">
    <circle cx="25.953" cy="55.797" r="1.25"/>
    <circle cx="32.303" cy="53.258" r="1.25"/>
    <circle cx="135.49" cy="74.847" r="1.25"/>
    <circle cx="141.84" cy="72.307" r="1.25"/>
    <circle cx="147.4" cy="36.747" r="1.25"/>
    <circle cx="153.75" cy="34.207" r="1.25"/>
    <circle cx="87.865" cy="74.847" r="1.25"/>
    <circle cx="94.215" cy="72.307" r="1.25"/>
    <circle cx="45.002" cy="55.797" r="1.25"/>
    <circle cx="51.352" cy="53.258" r="1.25"/>
    <circle cx="111.68" cy="74.847" r="1.25"/>
    <circle cx="118.03" cy="72.307" r="1.25"/>
    <circle cx="95.009" cy="55.797" r="1.25"/>
    <circle cx="101.36" cy="53.258" r="1.25"/>
    <circle cx="64.052" cy="55.797" r="1.25"/>
    <circle cx="70.403" cy="53.258" r="1.25"/>
    <circle cx="159.3" cy="74.847" r="1.25"/>
    <circle cx="165.65" cy="72.307" r="1.25"/>
    <circle cx="123.58" cy="36.747" r="1.25"/>
    <circle cx="129.93" cy="34.207" r="1.25"/>
    <circle cx="99.771" cy="36.747" r="1.25"/>
    <circle cx="106.12" cy="34.207" r="1.25"/>
   </g>
   <g fill="#F2EDA1" stroke="#F2EDA1" stroke-linecap="round" stroke-linejoin="round" stroke-width="0">
    <circle cx="25.953" cy="55.797" r="1.25"/>
    <circle cx="32.303" cy="53.258" r="1.25"/>
    <circle cx="135.49" cy="74.847" r="1.25"/>
    <circle cx="141.84" cy="72.307" r="1.25"/>
    <circle cx="147.4" cy="36.747" r="1.25"/>
    <circle cx="153.75" cy="34.207" r="1.25"/>
    <circle cx="87.865" cy="74.847" r="1.25"/>
    <circle cx="94.215" cy="72.307" r="1.25"/>
    <circle cx="45.002" cy="55.797" r="1.25"/>
    <circle cx="51.352" cy="53.258" r="1.25"/>
    <circle cx="111.68" cy="74.847" r="1.25"/>
    <circle cx="118.03" cy="72.307" r="1.25"/>
    <circle cx="95.009" cy="55.797" r="1.25"/>
    <circle cx="101.36" cy="53.258" r="1.25"/>
    <circle cx="64.052" cy="55.797" r="1.25"/>
    <circle cx="70.403" cy="53.258" r="1.25"/>
    <circle cx="159.3" cy="74.847" r="1.25"/>
    <circle cx="165.65" cy="72.307" r="1.25"/>
    <circle cx="123.58" cy="36.747" r="1.25"/>
    <circle cx="129.93" cy="34.207" r="1.25"/>
    <circle cx="99.771" cy="36.747" r="1.25"/>
    <circle cx="106.12" cy="34.207" r="1.25"/>
   </g>
   <g fill="#8DCB81" stroke="#8DCB81" stroke-linecap="round" stroke-linejoin="round" stroke-width="0">
    <circle cx="25.953" cy="55.797" r="1.25"/>
    <circle cx="32.303" cy="53.258" r="1.25"/>
    <circle cx="135.49" cy="74.847" r="1.25"/>
    <circle cx="141.84" cy="72.307" r="1.25"/>
    <circle cx="147.4" cy="36.747" r="1.25"/>
    <circle cx="153.75" cy="34.207" r="1.25"/>
    <circle cx="87.865" cy="74.847" r="1.25"/>
    <circle cx="94.215" cy="72.307" r="1.25"/>
    <circle cx="45.002" cy="55.797" r="1.25"/>
    <circle cx="51.352" cy="53.258" r="1.25"/>
    <circle cx="111.68" cy="74.847" r="1.25"/>
    <circle cx="118.03" cy="72.307" r="1.25"/>
    <circle cx="95.009" cy="55.797" r="1.25"/>
    <circle cx="101.36" cy="53.258" r="1.25"/>
    <circle cx="64.052" cy="55.797" r="1.25"/>
    <circle cx="70.403" cy="53.258" r="1.25"/>
    <circle cx="159.3" cy="74.847" r="1.25"/>
    <circle cx="165.65" cy="72.307" r="1.25"/>
    <circle cx="123.58" cy="36.747" r="1.25"/>
    <circle cx="129.93" cy="34.207" r="1.25"/>
    <circle cx="99.771" cy="36.747" r="1.25"/>
    <circle cx="106.12" cy="34.207" r="1.25"/>
   </g>
   <g fill="#ED7C33" stroke="#ED7C33" stroke-linecap="round" stroke-linejoin="round" stroke-width="0">
    <circle cx="25.953" cy="55.797" r="1.25"/>
    <circle cx="32.303" cy="53.258" r="1.25"/>
    <circle cx="135.49" cy="74.847" r="1.25"/>
    <circle cx="141.84" cy="72.307" r="1.25"/>
    <circle cx="147.4" cy="36.747" r="1.25"/>
    <circle cx="153.75" cy="34.207" r="1.25"/>
    <circle cx="87.865" cy="74.847" r="1.25"/>
    <circle cx="94.215" cy="72.307" r="1.25"/>
    <circle cx="45.002" cy="55.797" r="1.25"/>
    <circle cx="51.352" cy="53.258" r="1.25"/>
    <circle cx="111.68" cy="74.847" r="1.25"/>
    <circle cx="118.03" cy="72.307" r="1.25"/>
    <circle cx="95.009" cy="55.797" r="1.25"/>
    <circle cx="101.36" cy="53.258" r="1.25"/>
    <circle cx="64.052" cy="55.797" r="1.25"/>
    <circle cx="70.403" cy="53.258" r="1.25"/>
    <circle cx="159.3" cy="74.847" r="1.25"/>
    <circle cx="165.65" cy="72.307" r="1.25"/>
    <circle cx="123.58" cy="36.747" r="1.25"/>
    <circle cx="129.93" cy="34.207" r="1.25"/>
    <circle cx="99.771" cy="36.747" r="1.25"/>
    <circle cx="106.12" cy="34.207" r="1.25"/>
   </g>
   <g fill="#5BC3EB" stroke="#5BC3EB" stroke-linecap="round" stroke-linejoin="round" stroke-width="0">
    <circle cx="25.953" cy="55.797" r="1.25"/>
    <circle cx="32.303" cy="53.258" r="1.25"/>
    <circle cx="135.49" cy="74.847" r="1.25"/>
    <circle cx="141.84" cy="72.307" r="1.25"/>
    <circle cx="147.4" cy="36.747" r="1.25"/>
    <circle cx="153.75" cy="34.207" r="1.25"/>
    <circle cx="87.865" cy="74.847" r="1.25"/>
    <circle cx="94.215" cy="72.307" r="1.25"/>
    <circle cx="45.002" cy="55.797" r="1.25"/>
    <circle cx="51.352" cy="53.258" r="1.25"/>
    <circle cx="111.68" cy="74.847" r="1.25"/>
    <circle cx="118.03" cy="72.307" r="1.25"/>
    <circle cx="95.009" cy="55.797" r="1.25"/>
    <circle cx="101.36" cy="53.258" r="1.25"/>
    <circle cx="64.052" cy="55.797" r="1.25"/>
    <circle cx="70.403" cy="53.258" r="1.25"/>
    <circle cx="159.3" cy="74.847" r="1.25"/>
    <circle cx="165.65" cy="72.307" r="1.25"/>
    <circle cx="123.58" cy="36.747" r="1.25"/>
    <circle cx="129.93" cy="34.207" r="1.25"/>
    <circle cx="99.771" cy="36.747" r="1.25"/>
    <circle cx="106.12" cy="34.207" r="1.25"/>
   </g>
   <g fill="#F76F8E" stroke="#F76F8E" stroke-linecap="round" stroke-linejoin="round" stroke-width="0">
    <circle cx="25.953" cy="55.797" r="1.25"/>
    <circle cx="32.303" cy="53.258" r="1.25"/>
    <circle cx="135.49" cy="74.847" r="1.25"/>
    <circle cx="141.84" cy="72.307" r="1.25"/>
    <circle cx="147.4" cy="36.747" r="1.25"/>
    <circle cx="153.75" cy="34.207" r="1.25"/>
    <circle cx="87.865" cy="74.847" r="1.25"/>
    <circle cx="94.215" cy="72.307" r="1.25"/>
    <circle cx="45.002" cy="55.797" r="1.25"/>
    <circle cx="51.352" cy="53.258" r="1.25"/>
    <circle cx="111.68" cy="74.847" r="1.25"/>
    <circle cx="118.03" cy="72.307" r="1.25"/>
    <circle cx="95.009" cy="55.797" r="1.25"/>
    <circle cx="101.36" cy="53.258" r="1.25"/>
    <circle cx="64.052" cy="55.797" r="1.25"/>
    <circle cx="70.403" cy="53.258" r="1.25"/>
    <circle cx="159.3" cy="74.847" r="1.25"/>
    <circle cx="165.65" cy="72.307" r="1.25"/>
    <circle cx="123.58" cy="36.747" r="1.25"/>
    <circle cx="129.93" cy="34.207" r="1.25"/>
    <circle cx="99.771" cy="36.747" r="1.25"/>
    <circle cx="106.12" cy="34.207" r="1.25"/>
   </g>
   <g fill="#A7A5C6" stroke="#A7A5C6" stroke-linecap="round" stroke-linejoin="round" stroke-width="0">
    <circle cx="25.953" cy="55.797" r="1.25"/>
    <circle cx="32.303" cy="53.258" r="1.25"/>
    <circle cx="135.49" cy="74.847" r="1.25"/>
    <circle cx="141.84" cy="72.307" r="1.25"/>
    <circle cx="147.4" cy="36.747" r="1.25"/>
    <circle cx="153.75" cy="34.207" r="1.25"/>
    <circle cx="87.865" cy="74.847" r="1.25"/>
    <circle cx="94.215" cy="72.307" r="1.25"/>
    <circle cx="45.002" cy="55.797" r="1.25"/>
    <circle cx="51.352" cy="53.258" r="1.25"/>
    <circle cx="111.68" cy="74.847" r="1.25"/>
    <circle cx="118.03" cy="72.307" r="1.25"/>
    <circle cx="95.009" cy="55.797" r="1.25"/>
    <circle cx="101.36" cy="53.258" r="1.25"/>
    <circle cx="64.052" cy="55.797" r="1.25"/>
    <circle cx="70.403" cy="53.258" r="1.25"/>
    <circle cx="159.3" cy="74.847" r="1.25"/>
    <circle cx="165.65" cy="72.307" r="1.25"/>
    <circle cx="123.58" cy="36.747" r="1.25"/>
    <circle cx="129.93" cy="34.207" r="1.25"/>
    <circle cx="99.771" cy="36.747" r="1.25"/>
    <circle cx="106.12" cy="34.207" r="1.25"/>
   </g>
   <g fill="#28CCD9" stroke="#28CCD9" stroke-linecap="round" stroke-linejoin="round" stroke-width="0">
    <circle cx="25.953" cy="55.797" r="1.25"/>
    <circle cx="32.303" cy="53.258" r="1.25"/>
    <circle cx="135.49" cy="74.847" r="1.25"/>
    <circle cx="141.84" cy="72.307" r="1.25"/>
    <circle cx="147.4" cy="36.747" r="1.25"/>
    <circle cx="153.75" cy="34.207" r="1.25"/>
    <circle cx="87.865" cy="74.847" r="1.25"/>
    <circle cx="94.215" cy="72.307" r="1.25"/>
    <circle cx="45.002" cy="55.797" r="1.25"/>
    <circle cx="51.352" cy="53.258" r="1.25"/>
    <circle cx="111.68" cy="74.847" r="1.25"/>
    <circle cx="118.03" cy="72.307" r="1.25"/>
    <circle cx="95.009" cy="55.797" r="1.25"/>
    <circle cx="101.36" cy="53.258" r="1.25"/>
    <circle cx="64.052" cy="55.797" r="1.25"/>
    <circle cx="70.403" cy="53.258" r="1.25"/>
    <circle cx="159.3" cy="74.847" r="1.25"/>
    <circle cx="165.65" cy="72.307" r="1.25"/>
    <circle cx="123.58" cy="36.747" r="1.25"/>
    <circle cx="129.93" cy="34.207" r="1.25"/>
    <circle cx="99.771" cy="36.747" r="1.25"/>
    <circle cx="106.12" cy="34.207" r="1.25"/>
   </g>
   <g fill="#E8B2A7" stroke="#E8B2A7" stroke-linecap="round" stroke-linejoin="round" stroke-width="0">
    <circle cx="25.953" cy="55.797" r="1.25"/>
    <circle cx="32.303" cy="53.258" r="1.25"/>
    <circle cx="135.49" cy="74.847" r="1.25"/>
    <circle cx="141.84" cy="72.307" r="1.25"/>
    <circle cx="147.4" cy="36.747" r="1.25"/>
    <circle cx="153.75" cy="34.207" r="1.25"/>
    <circle cx="87.865" cy="74.847" r="1.25"/>
    <circle cx="94.215" cy="72.307" r="1.25"/>
    <circle cx="45.002" cy="55.797" r="1.25"/>
    <circle cx="51.352" cy="53.258" r="1.25"/>
    <circle cx="111.68" cy="74.847" r="1.25"/>
    <circle cx="118.03" cy="72.307" r="1.25"/>
    <circle cx="95.009" cy="55.797" r="1.25"/>
    <circle cx="101.36" cy="53.258" r="1.25"/>
    <circle cx="64.052" cy="55.797" r="1.25"/>
    <circle cx="70.403" cy="53.258" r="1.25"/>
    <circle cx="159.3" cy="74.847" r="1.25"/>
    <circle cx="165.65" cy="72.307" r="1.25"/>
    <circle cx="123.58" cy="36.747" r="1.25"/>
    <circle cx="129.93" cy="34.207" r="1.25"/>
    <circle cx="99.771" cy="36.747" r="1.25"/>
    <circle cx="106.12" cy="34.207" r="1.25"/>
   </g>
   <g fill="#F2EDA1" stroke="#F2EDA1" stroke-linecap="round" stroke-linejoin="round" stroke-width="0">
    <circle cx="25.953" cy="55.797" r="1.25"/>
    <circle cx="32.303" cy="53.258" r="1.25"/>
    <circle cx="135.49" cy="74.847" r="1.25"/>
    <circle cx="141.84" cy="72.307" r="1.25"/>
    <circle cx="147.4" cy="36.747" r="1.25"/>
    <circle cx="153.75" cy="34.207" r="1.25"/>
    <circle cx="87.865" cy="74.847" r="1.25"/>
    <circle cx="94.215" cy="72.307" r="1.25"/>
    <circle cx="45.002" cy="55.797" r="1.25"/>
    <circle cx="51.352" cy="53.258" r="1.25"/>
    <circle cx="111.68" cy="74.847" r="1.25"/>
    <circle cx="118.03" cy="72.307" r="1.25"/>
    <circle cx="95.009" cy="55.797" r="1.25"/>
    <circle cx="101.36" cy="53.258" r="1.25"/>
    <circle cx="64.052" cy="55.797" r="1.25"/>
    <circle cx="70.403" cy="53.258" r="1.25"/>
    <circle cx="159.3" cy="74.847" r="1.25"/>
    <circle cx="165.65" cy="72.307" r="1.25"/>
    <circle cx="123.58" cy="36.747" r="1.25"/>
    <circle cx="129.93" cy="34.207" r="1.25"/>
    <circle cx="99.771" cy="36.747" r="1.25"/>
    <circle cx="106.12" cy="34.207" r="1.25"/>
   </g>
   <g fill="#ED7C33" stroke="#ED7C33" stroke-linecap="round" stroke-linejoin="round" stroke-width="0">
    <circle cx="25.953" cy="55.797" r="1.25"/>
    <circle cx="32.303" cy="53.258" r="1.25"/>
    <circle cx="135.49" cy="74.847" r="1.25"/>
    <circle cx="141.84" cy="72.307" r="1.25"/>
    <circle cx="147.4" cy="36.747" r="1.25"/>
    <circle cx="153.75" cy="34.207" r="1.25"/>
    <circle cx="87.865" cy="74.847" r="1.25"/>
    <circle cx="94.215" cy="72.307" r="1.25"/>
    <circle cx="45.002" cy="55.797" r="1.25"/>
    <circle cx="51.352" cy="53.258" r="1.25"/>
    <circle cx="111.68" cy="74.847" r="1.25"/>
    <circle cx="118.03" cy="72.307" r="1.25"/>
    <circle cx="95.009" cy="55.797" r="1.25"/>
    <circle cx="101.36" cy="53.258" r="1.25"/>
    <circle cx="64.052" cy="55.797" r="1.25"/>
    <circle cx="70.403" cy="53.258" r="1.25"/>
    <circle cx="159.3" cy="74.847" r="1.25"/>
    <circle cx="165.65" cy="72.307" r="1.25"/>
    <circle cx="123.58" cy="36.747" r="1.25"/>
    <circle cx="129.93" cy="34.207" r="1.25"/>
    <circle cx="99.771" cy="36.747" r="1.25"/>
    <circle cx="106.12" cy="34.207" r="1.25"/>
   </g>
   <g fill="#5BC3EB" stroke="#5BC3EB" stroke-linecap="round" stroke-linejoin="round" stroke-width="0">
    <circle cx="25.953" cy="55.797" r="1.25"/>
    <circle cx="32.303" cy="53.258" r="1.25"/>
    <circle cx="135.49" cy="74.847" r="1.25"/>
    <circle cx="141.84" cy="72.307" r="1.25"/>
    <circle cx="147.4" cy="36.747" r="1.25"/>
    <circle cx="153.75" cy="34.207" r="1.25"/>
    <circle cx="87.865" cy="74.847" r="1.25"/>
    <circle cx="94.215" cy="72.307" r="1.25"/>
    <circle cx="45.002" cy="55.797" r="1.25"/>
    <circle cx="51.352" cy="53.258" r="1.25"/>
    <circle cx="111.68" cy="74.847" r="1.25"/>
    <circle cx="118.03" cy="72.307" r="1.25"/>
    <circle cx="95.009" cy="55.797" r="1.25"/>
    <circle cx="101.36" cy="53.258" r="1.25"/>
    <circle cx="64.052" cy="55.797" r="1.25"/>
    <circle cx="70.403" cy="53.258" r="1.25"/>
    <circle cx="159.3" cy="74.847" r="1.25"/>
    <circle cx="165.65" cy="72.307" r="1.25"/>
    <circle cx="123.58" cy="36.747" r="1.25"/>
    <circle cx="129.93" cy="34.207" r="1.25"/>
    <circle cx="99.771" cy="36.747" r="1.25"/>
    <circle cx="106.12" cy="34.207" r="1.25"/>
   </g>
   <g fill="#F76F8E" stroke="#F76F8E" stroke-linecap="round" stroke-linejoin="round" stroke-width="0">
    <circle cx="25.953" cy="55.797" r="1.25"/>
    <circle cx="32.303" cy="53.258" r="1.25"/>
    <circle cx="135.49" cy="74.847" r="1.25"/>
    <circle cx="141.84" cy="72.307" r="1.25"/>
    <circle cx="147.4" cy="36.747" r="1.25"/>
    <circle cx="153.75" cy="34.207" r="1.25"/>
    <circle cx="87.865" cy="74.847" r="1.25"/>
    <circle cx="94.215" cy="72.307" r="1.25"/>
    <circle cx="45.002" cy="55.797" r="1.25"/>
    <circle cx="51.352" cy="53.258" r="1.25"/>
    <circle cx="111.68" cy="74.847" r="1.25"/>
    <circle cx="118.03" cy="72.307" r="1.25"/>
    <circle cx="95.009" cy="55.797" r="1.25"/>
    <circle cx="101.36" cy="53.258" r="1.25"/>
    <circle cx="64.052" cy="55.797" r="1.25"/>
    <circle cx="70.403" cy="53.258" r="1.25"/>
    <circle cx="159.3" cy="74.847" r="1.25"/>
    <circle cx="165.65" cy="72.307" r="1.25"/>
    <circle cx="123.58" cy="36.747" r="1.25"/>
    <circle cx="129.93" cy="34.207" r="1.25"/>
    <circle cx="99.771" cy="36.747" r="1.25"/>
    <circle cx="106.12" cy="34.207" r="1.25"/>
   </g>
   <g fill="#A7A5C6" stroke="#A7A5C6" stroke-linecap="round" stroke-linejoin="round" stroke-width="0">
    <circle cx="25.953" cy="55.797" r="1.25"/>
    <circle cx="32.303" cy="53.258" r="1.25"/>
    <circle cx="135.49" cy="74.847" r="1.25"/>
    <circle cx="141.84" cy="72.307" r="1.25"/>
    <circle cx="147.4" cy="36.747" r="1.25"/>
    <circle cx="153.75" cy="34.207" r="1.25"/>
    <circle cx="87.865" cy="74.847" r="1.25"/>
    <circle cx="94.215" cy="72.307" r="1.25"/>
    <circle cx="45.002" cy="55.797" r="1.25"/>
    <circle cx="51.352" cy="53.258" r="1.25"/>
    <circle cx="111.68" cy="74.847" r="1.25"/>
    <circle cx="118.03" cy="72.307" r="1.25"/>
    <circle cx="95.009" cy="55.797" r="1.25"/>
    <circle cx="101.36" cy="53.258" r="1.25"/>
    <circle cx="64.052" cy="55.797" r="1.25"/>
    <circle cx="70.403" cy="53.258" r="1.25"/>
    <circle cx="159.3" cy="74.847" r="1.25"/>
    <circle cx="165.65" cy="72.307" r="1.25"/>
    <circle cx="123.58" cy="36.747" r="1.25"/>
    <circle cx="129.93" cy="34.207" r="1.25"/>
    <circle cx="99.771" cy="36.747" r="1.25"/>
    <circle cx="106.12" cy="34.207" r="1.25"/>
   </g>
   <g fill="#28CCD9" stroke="#28CCD9" stroke-linecap="round" stroke-linejoin="round" stroke-width="0">
    <circle cx="25.953" cy="55.797" r="1.25"/>
    <circle cx="32.303" cy="53.258" r="1.25"/>
    <circle cx="135.49" cy="74.847" r="1.25"/>
    <circle cx="141.84" cy="72.307" r="1.25"/>
    <circle cx="147.4" cy="36.747" r="1.25"/>
    <circle cx="153.75" cy="34.207" r="1.25"/>
    <circle cx="87.865" cy="74.847" r="1.25"/>
    <circle cx="94.215" cy="72.307" r="1.25"/>
    <circle cx="45.002" cy="55.797" r="1.25"/>
    <circle cx="51.352" cy="53.258" r="1.25"/>
    <circle cx="111.68" cy="74.847" r="1.25"/>
    <circle cx="118.03" cy="72.307" r="1.25"/>
    <circle cx="95.009" cy="55.797" r="1.25"/>
    <circle cx="101.36" cy="53.258" r="1.25"/>
    <circle cx="64.052" cy="55.797" r="1.25"/>
    <circle cx="70.403" cy="53.258" r="1.25"/>
    <circle cx="159.3" cy="74.847" r="1.25"/>
    <circle cx="165.65" cy="72.307" r="1.25"/>
    <circle cx="123.58" cy="36.747" r="1.25"/>
    <circle cx="129.93" cy="34.207" r="1.25"/>
    <circle cx="99.771" cy="36.747" r="1.25"/>
    <circle cx="106.12" cy="34.207" r="1.25"/>
   </g>
   <g fill="#E8B2A7" stroke="#E8B2A7" stroke-linecap="round" stroke-linejoin="round" stroke-width="0">
    <circle cx="25.953" cy="55.797" r="1.25"/>
    <circle cx="32.303" cy="53.258" r="1.25"/>
    <circle cx="135.49" cy="74.847" r="1.25"/>
    <circle cx="141.84" cy="72.307" r="1.25"/>
    <circle cx="147.4" cy="36.747" r="1.25"/>
    <circle cx="153.75" cy="34.207" r="1.25"/>
    <circle cx="87.865" cy="74.847" r="1.25"/>
    <circle cx="94.215" cy="72.307" r="1.25"/>
    <circle cx="45.002" cy="55.797" r="1.25"/>
    <circle cx="51.352" cy="53.258" r="1.25"/>
    <circle cx="111.68" cy="74.847" r="1.25"/>
    <circle cx="118.03" cy="72.307" r="1.25"/>
    <circle cx="95.009" cy="55.797" r="1.25"/>
    <circle cx="101.36" cy="53.258" r="1.25"/>
    <circle cx="64.052" cy="55.797" r="1.25"/>
    <circle cx="70.403" cy="53.258" r="1.25"/>
    <circle cx="159.3" cy="74.847" r="1.25"/>
    <circle cx="165.65" cy="72.307" r="1.25"/>
    <circle cx="123.58" cy="36.747" r="1.25"/>
    <circle cx="129.93" cy="34.207" r="1.25"/>
    <circle cx="99.771" cy="36.747" r="1.25"/>
    <circle cx="106.12" cy="34.207" r="1.25"/>
   </g>
   <g fill="#F2EDA1" stroke="#F2EDA1" stroke-linecap="round" stroke-linejoin="round" stroke-width="0">
    <circle cx="25.953" cy="55.797" r="1.25"/>
    <circle cx="32.303" cy="53.258" r="1.25"/>
    <circle cx="135.49" cy="74.847" r="1.25"/>
    <circle cx="141.84" cy="72.307" r="1.25"/>
    <circle cx="147.4" cy="36.747" r="1.25"/>
    <circle cx="153.75" cy="34.207" r="1.25"/>
    <circle cx="87.865" cy="74.847" r="1.25"/>
    <circle cx="94.215" cy="72.307" r="1.25"/>
    <circle cx="45.002" cy="55.797" r="1.25"/>
    <circle cx="51.352" cy="53.258" r="1.25"/>
    <circle cx="111.68" cy="74.847" r="1.25"/>
    <circle cx="118.03" cy="72.307" r="1.25"/>
    <circle cx="95.009" cy="55.797" r="1.25"/>
    <circle cx="101.36" cy="53.258" r="1.25"/>
    <circle cx="64.052" cy="55.797" r="1.25"/>
    <circle cx="70.403" cy="53.258" r="1.25"/>
    <circle cx="159.3" cy="74.847" r="1.25"/>
    <circle cx="165.65" cy="72.307" r="1.25"/>
    <circle cx="123.58" cy="36.747" r="1.25"/>
    <circle cx="129.93" cy="34.207" r="1.25"/>
    <circle cx="99.771" cy="36.747" r="1.25"/>
    <circle cx="106.12" cy="34.207" r="1.25"/>
   </g>
   <g fill="#ED7C33" stroke="#ED7C33" stroke-linecap="round" stroke-linejoin="round" stroke-width="0">
    <circle cx="25.953" cy="55.797" r="1.25"/>
    <circle cx="32.303" cy="53.258" r="1.25"/>
    <circle cx="135.49" cy="74.847" r="1.25"/>
    <circle cx="141.84" cy="72.307" r="1.25"/>
    <circle cx="147.4" cy="36.747" r="1.25"/>
    <circle cx="153.75" cy="34.207" r="1.25"/>
    <circle cx="87.865" cy="74.847" r="1.25"/>
    <circle cx="94.215" cy="72.307" r="1.25"/>
    <circle cx="45.002" cy="55.797" r="1.25"/>
    <circle cx="51.352" cy="53.258" r="1.25"/>
    <circle cx="111.68" cy="74.847" r="1.25"/>
    <circle cx="118.03" cy="72.307" r="1.25"/>
    <circle cx="95.009" cy="55.797" r="1.25"/>
    <circle cx="101.36" cy="53.258" r="1.25"/>
    <circle cx="64.052" cy="55.797" r="1.25"/>
    <circle cx="70.403" cy="53.258" r="1.25"/>
    <circle cx="159.3" cy="74.847" r="1.25"/>
    <circle cx="165.65" cy="72.307" r="1.25"/>
    <circle cx="123.58" cy="36.747" r="1.25"/>
    <circle cx="129.93" cy="34.207" r="1.25"/>
    <circle cx="99.771" cy="36.747" r="1.25"/>
    <circle cx="106.12" cy="34.207" r="1.25"/>
   </g>
   <g fill="#5BC3EB" stroke="#5BC3EB" stroke-linecap="round" stroke-linejoin="round" stroke-width="0">
    <circle cx="25.953" cy="55.797" r="1.25"/>
    <circle cx="32.303" cy="53.258" r="1.25"/>
    <circle cx="135.49" cy="74.847" r="1.25"/>
    <circle cx="141.84" cy="72.307" r="1.25"/>
    <circle cx="147.4" cy="36.747" r="1.25"/>
    <circle cx="153.75" cy="34.207" r="1.25"/>
    <circle cx="87.865" cy="74.847" r="1.25"/>
    <circle cx="94.215" cy="72.307" r="1.25"/>
    <circle cx="45.002" cy="55.797" r="1.25"/>
    <circle cx="51.352" cy="53.258" r="1.25"/>
    <circle cx="111.68" cy="74.847" r="1.25"/>
    <circle cx="118.03" cy="72.307" r="1.25"/>
    <circle cx="95.009" cy="55.797" r="1.25"/>
    <circle cx="101.36" cy="53.258" r="1.25"/>
    <circle cx="64.052" cy="55.797" r="1.25"/>
    <circle cx="70.403" cy="53.258" r="1.25"/>
    <circle cx="159.3" cy="74.847" r="1.25"/>
    <circle cx="165.65" cy="72.307" r="1.25"/>
    <circle cx="123.58" cy="36.747" r="1.25"/>
    <circle cx="129.93" cy="34.207" r="1.25"/>
    <circle cx="99.771" cy="36.747" r="1.25"/>
    <circle cx="106.12" cy="34.207" r="1.25"/>
   </g>
   <g fill="#F76F8E" stroke="#F76F8E" stroke-linecap="round" stroke-linejoin="round" stroke-width="0">
    <circle cx="25.953" cy="55.797" r="1.25"/>
    <circle cx="32.303" cy="53.258" r="1.25"/>
    <circle cx="135.49" cy="74.847" r="1.25"/>
    <circle cx="141.84" cy="72.307" r="1.25"/>
    <circle cx="147.4" cy="36.747" r="1.25"/>
    <circle cx="153.75" cy="34.207" r="1.25"/>
    <circle cx="87.865" cy="74.847" r="1.25"/>
    <circle cx="94.215" cy="72.307" r="1.25"/>
    <circle cx="45.002" cy="55.797" r="1.25"/>
    <circle cx="51.352" cy="53.258" r="1.25"/>
    <circle cx="111.68" cy="74.847" r="1.25"/>
    <circle cx="118.03" cy="72.307" r="1.25"/>
    <circle cx="95.009" cy="55.797" r="1.25"/>
    <circle cx="101.36" cy="53.258" r="1.25"/>
    <circle cx="64.052" cy="55.797" r="1.25"/>
    <circle cx="70.403" cy="53.258" r="1.25"/>
    <circle cx="159.3" cy="74.847" r="1.25"/>
    <circle cx="165.65" cy="72.307" r="1.25"/>
    <circle cx="123.58" cy="36.747" r="1.25"/>
    <circle cx="129.93" cy="34.207" r="1.25"/>
    <circle cx="99.771" cy="36.747" r="1.25"/>
    <circle cx="106.12" cy="34.207" r="1.25"/>
   </g>
   <g fill="#A7A5C6" stroke="#A7A5C6" stroke-linecap="round" stroke-linejoin="round" stroke-width="0">
    <circle cx="25.953" cy="55.797" r="1.25"/>
    <circle cx="32.303" cy="53.258" r="1.25"/>
    <circle cx="135.49" cy="74.847" r="1.25"/>
    <circle cx="141.84" cy="72.307" r="1.25"/>
    <circle cx="147.4" cy="36.747" r="1.25"/>
    <circle cx="153.75" cy="34.207" r="1.25"/>
    <circle cx="87.865" cy="74.847" r="1.25"/>
    <circle cx="94.215" cy="72.307" r="1.25"/>
    <circle cx="45.002" cy="55.797" r="1.25"/>
    <circle cx="51.352" cy="53.258" r="1.25"/>
    <circle cx="111.68" cy="74.847" r="1.25"/>
    <circle cx="118.03" cy="72.307" r="1.25"/>
    <circle cx="95.009" cy="55.797" r="1.25"/>
    <circle cx="101.36" cy="53.258" r="1.25"/>
    <circle cx="64.052" cy="55.797" r="1.25"/>
    <circle cx="70.403" cy="53.258" r="1.25"/>
    <circle cx="159.3" cy="74.847" r="1.25"/>
    <circle cx="165.65" cy="72.307" r="1.25"/>
    <circle cx="123.58" cy="36.747" r="1.25"/>
    <circle cx="129.93" cy="34.207" r="1.25"/>
    <circle cx="99.771" cy="36.747" r="1.25"/>
    <circle cx="106.12" cy="34.207" r="1.25"/>
   </g>
   <g fill="#28CCD9" stroke="#28CCD9" stroke-linecap="round" stroke-linejoin="round" stroke-width="0">
    <circle cx="25.953" cy="55.797" r="1.25"/>
    <circle cx="32.303" cy="53.258" r="1.25"/>
    <circle cx="135.49" cy="74.847" r="1.25"/>
    <circle cx="141.84" cy="72.307" r="1.25"/>
    <circle cx="147.4" cy="36.747" r="1.25"/>
    <circle cx="153.75" cy="34.207" r="1.25"/>
    <circle cx="87.865" cy="74.847" r="1.25"/>
    <circle cx="94.215" cy="72.307" r="1.25"/>
    <circle cx="45.002" cy="55.797" r="1.25"/>
    <circle cx="51.352" cy="53.258" r="1.25"/>
    <circle cx="111.68" cy="74.847" r="1.25"/>
    <circle cx="118.03" cy="72.307" r="1.25"/>
    <circle cx="95.009" cy="55.797" r="1.25"/>
    <circle cx="101.36" cy="53.258" r="1.25"/>
    <circle cx="64.052" cy="55.797" r="1.25"/>
    <circle cx="70.403" cy="53.258" r="1.25"/>
    <circle cx="159.3" cy="74.847" r="1.25"/>
    <circle cx="165.65" cy="72.307" r="1.25"/>
    <circle cx="123.58" cy="36.747" r="1.25"/>
    <circle cx="129.93" cy="34.207" r="1.25"/>
    <circle cx="99.771" cy="36.747" r="1.25"/>
    <circle cx="106.12" cy="34.207" r="1.25"/>
   </g>
   <g fill="#E8B2A7" stroke="#E8B2A7" stroke-linecap="round" stroke-linejoin="round" stroke-width="0">
    <circle cx="25.953" cy="55.797" r="1.25"/>
    <circle cx="32.303" cy="53.258" r="1.25"/>
    <circle cx="135.49" cy="74.847" r="1.25"/>
    <circle cx="141.84" cy="72.307" r="1.25"/>
    <circle cx="147.4" cy="36.747" r="1.25"/>
    <circle cx="153.75" cy="34.207" r="1.25"/>
    <circle cx="87.865" cy="74.847" r="1.25"/>
    <circle cx="94.215" cy="72.307" r="1.25"/>
    <circle cx="45.002" cy="55.797" r="1.25"/>
    <circle cx="51.352" cy="53.258" r="1.25"/>
    <circle cx="111.68" cy="74.847" r="1.25"/>
    <circle cx="118.03" cy="72.307" r="1.25"/>
    <circle cx="95.009" cy="55.797" r="1.25"/>
    <circle cx="101.36" cy="53.258" r="1.25"/>
    <circle cx="64.052" cy="55.797" r="1.25"/>
    <circle cx="70.403" cy="53.258" r="1.25"/>
    <circle cx="159.3" cy="74.847" r="1.25"/>
    <circle cx="165.65" cy="72.307" r="1.25"/>
    <circle cx="123.58" cy="36.747" r="1.25"/>
    <circle cx="129.93" cy="34.207" r="1.25"/>
    <circle cx="99.771" cy="36.747" r="1.25"/>
    <circle cx="106.12" cy="34.207" r="1.25"/>
   </g>
   <g fill="#F2EDA1" stroke="#F2EDA1" stroke-linecap="round" stroke-linejoin="round" stroke-width="0">
    <circle cx="25.953" cy="55.797" r="1.25"/>
    <circle cx="32.303" cy="53.258" r="1.25"/>
    <circle cx="135.49" cy="74.847" r="1.25"/>
    <circle cx="141.84" cy="72.307" r="1.25"/>
    <circle cx="147.4" cy="36.747" r="1.25"/>
    <circle cx="153.75" cy="34.207" r="1.25"/>
    <circle cx="87.865" cy="74.847" r="1.25"/>
    <circle cx="94.215" cy="72.307" r="1.25"/>
    <circle cx="45.002" cy="55.797" r="1.25"/>
    <circle cx="51.352" cy="53.258" r="1.25"/>
    <circle cx="111.68" cy="74.847" r="1.25"/>
    <circle cx="118.03" cy="72.307" r="1.25"/>
    <circle cx="95.009" cy="55.797" r="1.25"/>
    <circle cx="101.36" cy="53.258" r="1.25"/>
    <circle cx="64.052" cy="55.797" r="1.25"/>
    <circle cx="70.403" cy="53.258" r="1.25"/>
    <circle cx="159.3" cy="74.847" r="1.25"/>
    <circle cx="165.65" cy="72.307" r="1.25"/>
    <circle cx="123.58" cy="36.747" r="1.25"/>
    <circle cx="129.93" cy="34.207" r="1.25"/>
    <circle cx="99.771" cy="36.747" r="1.25"/>
    <circle cx="106.12" cy="34.207" r="1.25"/>
   </g>
   <g fill="#4D7FC4">
    <g stroke-width="0">
     <g stroke="#4D7FC4" stroke-linecap="round" stroke-linejoin="round">
      <circle cx="25.953" cy="55.797" r="1.25"/>
      <circle cx="32.303" cy="53.258" r="1.25"/>
      <circle cx="135.49" cy="74.847" r="1.25"/>
      <circle cx="141.84" cy="72.307" r="1.25"/>
      <circle cx="147.4" cy="36.747" r="1.25"/>
      <circle cx="153.75" cy="34.207" r="1.25"/>
      <circle cx="87.865" cy="74.847" r="1.25"/>
      <circle cx="94.215" cy="72.307" r="1.25"/>
      <circle cx="45.002" cy="55.797" r="1.25"/>
      <circle cx="51.352" cy="53.258" r="1.25"/>
      <circle cx="111.68" cy="74.847" r="1.25"/>
      <circle cx="118.03" cy="72.307" r="1.25"/>
      <circle cx="95.009" cy="55.797" r="1.25"/>
      <circle cx="101.36" cy="53.258" r="1.25"/>
      <circle cx="64.052" cy="55.797" r="1.25"/>
      <circle cx="70.403" cy="53.258" r="1.25"/>
      <circle cx="159.3" cy="74.847" r="1.25"/>
      <circle cx="165.65" cy="72.307" r="1.25"/>
      <circle cx="123.58" cy="36.747" r="1.25"/>
      <circle cx="129.93" cy="34.207" r="1.25"/>
      <circle cx="99.771" cy="36.747" r="1.25"/>
      <circle cx="106.12" cy="34.207" r="1.25"/>
     </g>
     <g fill-rule="evenodd">
      <path d="m104.15 62.717h-0.5v-0.5h0.5z"/>
      <path d="m104.15 60.517h-0.5v-0.5h0.5z"/>
      <path d="m120.82 81.767h-0.5v-0.5h0.5z"/>
      <path d="m120.82 79.567h-0.5v-0.5h0.5z"/>
      <path d="m54.142 62.717h-0.5v-0.5h0.5z"/>
      <path d="m54.142 60.517h-0.5v-0.5h0.5z"/>
      <path d="m132.72 43.667h-0.5v-0.5h0.5z"/>
      <path d="m132.72 41.468h-0.5v-0.5h0.5z"/>
      <path d="m97.005 81.767h-0.5v-0.5h0.5z"/>
      <path d="m97.005 79.567h-0.5v-0.5h0.5z"/>
      <path d="m144.63 81.767h-0.5v-0.5h0.5z"/>
      <path d="m144.63 79.567h-0.5v-0.5h0.5z"/>
      <path d="m156.54 43.667h-0.5v-0.5h0.5z"/>
      <path d="m156.54 41.468h-0.5v-0.5h0.5z"/>
      <path d="m168.44 81.767h-0.5v-0.5h0.5z"/>
      <path d="m168.44 79.567h-0.5v-0.5h0.5z"/>
      <path d="m35.093 62.717h-0.5v-0.5h0.5z"/>
      <path d="m35.093 60.517h-0.5v-0.5h0.5z"/>
      <path d="m73.192 62.717h-0.5v-0.5h0.5z"/>
      <path d="m73.192 60.517h-0.5v-0.5h0.5z"/>
      <path d="m108.91 43.667h-0.5v-0.5h0.5z"/>
      <path d="m108.91 41.468h-0.5v-0.5h0.5z"/>
     </g>
    </g>
    <g fill-opacity="0" stroke="#4D7FC4" stroke-linecap="round" stroke-linejoin="round" stroke-width=".25">
     <path d="m34.843 62.467h19.049"/>
     <path d="m53.892 62.467h19.05"/>
     <path d="m72.942 62.467h30.957"/>
     <path d="m101.36 53.258v4.469"/>
     <path d="m101.36 57.727 2.54 2.54"/>
     <path d="m132.47 43.417h23.812"/>
     <path d="m108.66 43.417h23.813"/>
     <path d="m106.12 34.207v4.47"/>
     <path d="m106.12 38.677 2.54 2.541"/>
     <path d="m129.93 34.207v4.47"/>
     <path d="m129.93 38.677 2.54 2.541"/>
     <path d="m153.75 34.207v4.47"/>
     <path d="m153.75 38.677 2.54 2.541"/>
     <path d="m51.352 53.258v4.469"/>
     <path d="m51.352 57.727 2.54 2.54"/>
     <path d="m32.303 53.258v4.469"/>
     <path d="m32.303 57.727 2.54 2.54"/>
     <path d="m70.403 53.258v4.469"/>
     <path d="m70.403 57.727 2.539 2.54"/>
     <path d="m120.57 81.517h23.813"/>
     <path d="m96.755 81.517h23.812"/>
     <path d="m144.38 81.517h23.812"/>
     <path d="m94.215 72.307v4.471"/>
     <path d="m94.215 76.778 2.54 2.539"/>
     <path d="m118.03 72.307v4.471"/>
     <path d="m118.03 76.778 2.54 2.539"/>
     <path d="m141.84 72.307v4.471"/>
     <path d="m141.84 76.778 2.54 2.539"/>
     <path d="m165.65 76.778 2.539 2.539"/>
     <path d="m165.65 72.307v4.471"/>
    </g>
   </g>
  </g>
  <g fill-opacity="0">
   <g stroke="#000" stroke-width=".25">
    <g fill="#00C2C2" fill-opacity=".9" fill-rule="evenodd" stroke-width="0">
     <path d="m104.15 62.717h-0.5v-0.5h0.5z"/>
     <path d="m104.15 60.517h-0.5v-0.5h0.5z"/>
     <path d="m120.82 81.767h-0.5v-0.5h0.5z"/>
     <path d="m120.82 79.567h-0.5v-0.5h0.5z"/>
     <path d="m54.142 62.717h-0.5v-0.5h0.5z"/>
     <path d="m54.142 60.517h-0.5v-0.5h0.5z"/>
     <path d="m132.72 43.667h-0.5v-0.5h0.5z"/>
     <path d="m132.72 41.468h-0.5v-0.5h0.5z"/>
     <path d="m97.005 81.767h-0.5v-0.5h0.5z"/>
     <path d="m97.005 79.567h-0.5v-0.5h0.5z"/>
     <path d="m144.63 81.767h-0.5v-0.5h0.5z"/>
     <path d="m144.63 79.567h-0.5v-0.5h0.5z"/>
     <path d="m156.54 43.667h-0.5v-0.5h0.5z"/>
     <path d="m156.54 41.468h-0.5v-0.5h0.5z"/>
     <path d="m168.44 81.767h-0.5v-0.5h0.5z"/>
     <path d="m168.44 79.567h-0.5v-0.5h0.5z"/>
     <path d="m35.093 62.717h-0.5v-0.5h0.5z"/>
     <path d="m35.093 60.517h-0.5v-0.5h0.5z"/>
     <path d="m73.192 62.717h-0.5v-0.5h0.5z"/>
     <path d="m73.192 60.517h-0.5v-0.5h0.5z"/>
     <path d="m108.91 43.667h-0.5v-0.5h0.5z"/>
     <path d="m108.91 41.468h-0.5v-0.5h0.5z"/>
    </g>
   </g>
   <g fill="#E8B2A7" stroke="#E8B2A7" stroke-width=".15">
    <g transform="rotate(-90 105.75 61.367)">
     <text transform="scale(-1 1) translate(-211.5)" x="105.749" y="61.867" font-size="1.333" opacity="0" text-anchor="middle" lengthAdjust="spacingAndGlyphs" textLength="2.202">D1</text>
    </g>
    <g class="stroked-text">
     <desc>D1</desc>
     <path d="m106.2 60.629h-1"/>
     <path d="m105.2 60.629v0.238"/>
     <path d="m105.2 60.867 0.047 0.143"/>
     <path d="m105.25 61.01 0.095 0.096"/>
     <path d="m105.35 61.106 0.096 0.047"/>
     <path d="m105.44 61.153 0.19 0.048"/>
     <path d="m105.63 61.201h0.143"/>
     <path d="m105.78 61.201 0.19-0.048"/>
     <path d="m105.96 61.153 0.096-0.047"/>
     <path d="m106.06 61.106 0.095-0.096"/>
     <path d="m106.16 61.01 0.048-0.143"/>
     <path d="m106.2 60.867v-0.238"/>
     <path d="m106.2 62.153v-0.571"/>
     <path d="m106.2 61.867h-1"/>
     <path d="m105.2 61.867 0.142-0.095"/>
     <path d="m105.35 61.772 0.096-0.095"/>
     <path d="m105.44 61.677 0.047-0.095"/>
    </g>
    <g transform="rotate(-90 122.42 80.417)">
     <text transform="scale(-1 1) translate(-244.84)" x="122.417" y="80.917" font-size="1.333" opacity="0" text-anchor="middle" lengthAdjust="spacingAndGlyphs" textLength="2.202">D9</text>
    </g>
    <g class="stroked-text">
     <desc>D9</desc>
     <path d="m122.87 79.679h-1"/>
     <path d="m121.87 79.679v0.238"/>
     <path d="m121.87 79.917 0.048 0.143"/>
     <path d="m121.92 80.06 0.095 0.096"/>
     <path d="m122.02 80.156 0.095 0.047"/>
     <path d="m122.11 80.203 0.191 0.048"/>
     <path d="m122.3 80.251h0.143"/>
     <path d="m122.44 80.251 0.19-0.048"/>
     <path d="m122.63 80.203 0.095-0.047"/>
     <path d="m122.73 80.156 0.096-0.096"/>
     <path d="m122.82 80.06 0.047-0.143"/>
     <path d="m122.87 79.917v-0.238"/>
     <path d="m122.87 80.727v0.19"/>
     <path d="m122.87 80.917-0.047 0.096"/>
     <path d="m122.82 81.013-0.048 0.047"/>
     <path d="m122.78 81.06-0.143 0.096"/>
     <path d="m122.63 81.156-0.19 0.047"/>
     <path d="m122.44 81.203h-0.381"/>
     <path d="m122.06 81.203-0.095-0.047"/>
     <path d="m121.97 81.156-0.048-0.048"/>
     <path d="m121.92 81.108-0.048-0.095"/>
     <path d="m121.87 81.013v-0.191"/>
     <path d="m121.87 80.822 0.048-0.095"/>
     <path d="m121.92 80.727 0.048-0.048"/>
     <path d="m121.97 80.679 0.095-0.047"/>
     <path d="m122.06 80.632h0.238"/>
     <path d="m122.3 80.632 0.095 0.047"/>
     <path d="m122.4 80.679 0.048 0.048"/>
     <path d="m122.44 80.727 0.047 0.095"/>
     <path d="m122.49 80.822v0.191"/>
     <path d="m122.49 81.013-0.047 0.095"/>
     <path d="m122.44 81.108-0.048 0.048"/>
     <path d="m122.4 81.156-0.095 0.047"/>
    </g>
    <g transform="rotate(-90 55.742 61.367)">
     <text transform="scale(-1 1) translate(-111.48)" x="55.742" y="61.867" font-size="1.333" opacity="0" text-anchor="middle" lengthAdjust="spacingAndGlyphs" textLength="2.202">D5</text>
    </g>
    <g class="stroked-text">
     <desc>D5</desc>
     <path d="m56.197 60.629h-1"/>
     <path d="m55.197 60.629v0.238"/>
     <path d="m55.197 60.867 0.048 0.143"/>
     <path d="m55.245 61.01 0.095 0.096"/>
     <path d="m55.34 61.106 0.095 0.047"/>
     <path d="m55.435 61.153 0.191 0.048"/>
     <path d="m55.626 61.201h0.143"/>
     <path d="m55.769 61.201 0.19-0.048"/>
     <path d="m55.959 61.153 0.095-0.047"/>
     <path d="m56.054 61.106 0.096-0.096"/>
     <path d="m56.15 61.01 0.047-0.143"/>
     <path d="m56.197 60.867v-0.238"/>
     <path d="m55.197 62.106v-0.477"/>
     <path d="m55.197 61.629 0.477-0.047"/>
     <path d="m55.674 61.582-0.048 0.047"/>
     <path d="m55.626 61.629-0.048 0.096"/>
     <path d="m55.578 61.725v0.238"/>
     <path d="m55.578 61.963 0.048 0.095"/>
     <path d="m55.626 62.058 0.048 0.048"/>
     <path d="m55.674 62.106 0.095 0.047"/>
     <path d="m55.769 62.153h0.238"/>
     <path d="m56.007 62.153 0.095-0.047"/>
     <path d="m56.102 62.106 0.048-0.048"/>
     <path d="m56.15 62.058 0.047-0.095"/>
     <path d="m56.197 61.963v-0.238"/>
     <path d="m56.197 61.725-0.047-0.096"/>
     <path d="m56.15 61.629-0.048-0.047"/>
    </g>
    <g transform="rotate(-90 134.32 42.317)">
     <text transform="scale(-1 1) translate(-268.65)" x="134.324" y="42.817" font-size="1.333" opacity="0" text-anchor="middle" lengthAdjust="spacingAndGlyphs" textLength="2.202">D3</text>
    </g>
    <g class="stroked-text">
     <desc>D3</desc>
     <path d="m134.78 41.579h-1"/>
     <path d="m133.78 41.579v0.238"/>
     <path d="m133.78 41.817 0.047 0.143"/>
     <path d="m133.83 41.96 0.095 0.096"/>
     <path d="m133.92 42.056 0.096 0.047"/>
     <path d="m134.02 42.103 0.19 0.048"/>
     <path d="m134.21 42.151h0.143"/>
     <path d="m134.35 42.151 0.19-0.048"/>
     <path d="m134.54 42.103 0.096-0.047"/>
     <path d="m134.64 42.056 0.095-0.096"/>
     <path d="m134.73 41.96 0.048-0.143"/>
     <path d="m134.78 41.817v-0.238"/>
     <path d="m133.78 42.484v0.619"/>
     <path d="m133.78 43.103 0.381-0.333"/>
     <path d="m134.16 42.77v0.143"/>
     <path d="m134.16 42.913 0.047 0.095"/>
     <path d="m134.21 43.008 0.048 0.048"/>
     <path d="m134.26 43.056 0.095 0.047"/>
     <path d="m134.35 43.103h0.238"/>
     <path d="m134.59 43.103 0.095-0.047"/>
     <path d="m134.68 43.056 0.048-0.048"/>
     <path d="m134.73 43.008 0.048-0.095"/>
     <path d="m134.78 42.913v-0.286"/>
     <path d="m134.78 42.627-0.048-0.095"/>
     <path d="m134.73 42.532-0.048-0.048"/>
    </g>
    <g transform="rotate(-90 98.605 80.417)">
     <text transform="scale(-1 1) translate(-197.21)" x="98.605" y="80.917" font-size="1.333" opacity="0" text-anchor="middle" lengthAdjust="spacingAndGlyphs" textLength="2.202">D8</text>
    </g>
    <g class="stroked-text">
     <desc>D8</desc>
     <path d="m99.06 79.679h-1"/>
     <path d="m98.06 79.679v0.238"/>
     <path d="m98.06 79.917 0.047 0.143"/>
     <path d="m98.107 80.06 0.096 0.096"/>
     <path d="m98.203 80.156 0.095 0.047"/>
     <path d="m98.298 80.203 0.19 0.048"/>
     <path d="m98.488 80.251h0.143"/>
     <path d="m98.631 80.251 0.191-0.048"/>
     <path d="m98.822 80.203 0.095-0.047"/>
     <path d="m98.917 80.156 0.095-0.096"/>
     <path d="m99.012 80.06 0.048-0.143"/>
     <path d="m99.06 79.917v-0.238"/>
     <path d="m98.488 80.822-0.047-0.095"/>
     <path d="m98.441 80.727-0.048-0.048"/>
     <path d="m98.393 80.679-0.095-0.047"/>
     <path d="m98.298 80.632h-0.048"/>
     <path d="m98.25 80.632-0.095 0.047"/>
     <path d="m98.155 80.679-0.048 0.048"/>
     <path d="m98.107 80.727-0.047 0.095"/>
     <path d="m98.06 80.822v0.191"/>
     <path d="m98.06 81.013 0.047 0.095"/>
     <path d="m98.107 81.108 0.048 0.048"/>
     <path d="m98.155 81.156 0.095 0.047"/>
     <path d="m98.25 81.203h0.048"/>
     <path d="m98.298 81.203 0.095-0.047"/>
     <path d="m98.393 81.156 0.048-0.048"/>
     <path d="m98.441 81.108 0.047-0.095"/>
     <path d="m98.488 81.013v-0.191"/>
     <path d="m98.488 80.822 0.048-0.095"/>
     <path d="m98.536 80.727 0.048-0.048"/>
     <path d="m98.584 80.679 0.095-0.047"/>
     <path d="m98.679 80.632h0.19"/>
     <path d="m98.869 80.632 0.096 0.047"/>
     <path d="m98.965 80.679 0.047 0.048"/>
     <path d="m99.012 80.727 0.048 0.095"/>
     <path d="m99.06 80.822v0.191"/>
     <path d="m99.06 81.013-0.048 0.095"/>
     <path d="m99.012 81.108-0.047 0.048"/>
     <path d="m98.965 81.156-0.096 0.047"/>
     <path d="m98.869 81.203h-0.19"/>
     <path d="m98.679 81.203-0.095-0.047"/>
     <path d="m98.584 81.156-0.048-0.048"/>
     <path d="m98.536 81.108-0.048-0.095"/>
    </g>
    <g transform="rotate(-90 146.23 80.417)">
     <text transform="scale(-1 1) translate(-292.46)" x="146.230" y="80.917" font-size="1.333" opacity="0" text-anchor="middle" lengthAdjust="spacingAndGlyphs" textLength="3.155">D10</text>
    </g>
    <g class="stroked-text">
     <desc>D10</desc>
     <path d="m146.68 79.203h-1"/>
     <path d="m145.68 79.203v0.238"/>
     <path d="m145.68 79.441 0.047 0.143"/>
     <path d="m145.73 79.584 0.096 0.095"/>
     <path d="m145.83 79.679 0.095 0.048"/>
     <path d="m145.92 79.727 0.19 0.048"/>
     <path d="m146.11 79.775h0.143"/>
     <path d="m146.26 79.775 0.191-0.048"/>
     <path d="m146.45 79.727 0.095-0.048"/>
     <path d="m146.54 79.679 0.095-0.095"/>
     <path d="m146.64 79.584 0.048-0.143"/>
     <path d="m146.68 79.441v-0.238"/>
     <path d="m146.68 80.727v-0.571"/>
     <path d="m146.68 80.441h-1"/>
     <path d="m145.68 80.441 0.143-0.095"/>
     <path d="m145.83 80.346 0.095-0.095"/>
     <path d="m145.92 80.251 0.048-0.095"/>
     <path d="m145.68 81.346v0.095"/>
     <path d="m145.68 81.441 0.047 0.096"/>
     <path d="m145.73 81.537 0.048 0.047"/>
     <path d="m145.78 81.584 0.095 0.048"/>
     <path d="m145.88 81.632 0.191 0.047"/>
     <path d="m146.07 81.679h0.238"/>
     <path d="m146.3 81.679 0.19-0.047"/>
     <path d="m146.49 81.632 0.096-0.048"/>
     <path d="m146.59 81.584 0.047-0.047"/>
     <path d="m146.64 81.537 0.048-0.096"/>
     <path d="m146.68 81.441v-0.095"/>
     <path d="m146.68 81.346-0.048-0.095"/>
     <path d="m146.64 81.251-0.047-0.048"/>
     <path d="m146.59 81.203-0.096-0.047"/>
     <path d="m146.49 81.156-0.19-0.048"/>
     <path d="m146.3 81.108h-0.238"/>
     <path d="m146.07 81.108-0.191 0.048"/>
     <path d="m145.88 81.156-0.095 0.047"/>
     <path d="m145.78 81.203-0.048 0.048"/>
     <path d="m145.73 81.251-0.047 0.095"/>
    </g>
    <g transform="rotate(-90 158.14 42.317)">
     <text transform="scale(-1 1) translate(-316.27)" x="158.136" y="42.817" font-size="1.333" opacity="0" text-anchor="middle" lengthAdjust="spacingAndGlyphs" textLength="2.202">D4</text>
    </g>
    <g class="stroked-text">
     <desc>D4</desc>
     <path d="m158.59 41.579h-1"/>
     <path d="m157.59 41.579v0.238"/>
     <path d="m157.59 41.817 0.048 0.143"/>
     <path d="m157.64 41.96 0.095 0.096"/>
     <path d="m157.73 42.056 0.095 0.047"/>
     <path d="m157.83 42.103 0.191 0.048"/>
     <path d="m158.02 42.151h0.142"/>
     <path d="m158.16 42.151 0.191-0.048"/>
     <path d="m158.35 42.103 0.095-0.047"/>
     <path d="m158.45 42.056 0.095-0.096"/>
     <path d="m158.54 41.96 0.048-0.143"/>
     <path d="m158.59 41.817v-0.238"/>
     <path d="m157.92 43.008h0.667"/>
     <path d="m157.54 42.77 0.715-0.238"/>
     <path d="m158.26 42.532v0.619"/>
    </g>
    <g transform="rotate(-90 170.04 80.417)">
     <text transform="scale(-1 1) translate(-340.08)" x="170.042" y="80.917" font-size="1.333" opacity="0" text-anchor="middle" lengthAdjust="spacingAndGlyphs" textLength="3.155">D11</text>
    </g>
    <g class="stroked-text">
     <desc>D11</desc>
     <path d="m170.5 79.203h-1"/>
     <path d="m169.5 79.203v0.238"/>
     <path d="m169.5 79.441 0.048 0.143"/>
     <path d="m169.54 79.584 0.095 0.095"/>
     <path d="m169.64 79.679 0.095 0.048"/>
     <path d="m169.74 79.727 0.191 0.048"/>
     <path d="m169.93 79.775h0.143"/>
     <path d="m170.07 79.775 0.19-0.048"/>
     <path d="m170.26 79.727 0.095-0.048"/>
     <path d="m170.35 79.679 0.096-0.095"/>
     <path d="m170.45 79.584 0.047-0.143"/>
     <path d="m170.5 79.441v-0.238"/>
     <path d="m170.5 80.727v-0.571"/>
     <path d="m170.5 80.441h-1"/>
     <path d="m169.5 80.441 0.143-0.095"/>
     <path d="m169.64 80.346 0.095-0.095"/>
     <path d="m169.74 80.251 0.048-0.095"/>
     <path d="m170.5 81.679v-0.571"/>
     <path d="m170.5 81.394h-1"/>
     <path d="m169.5 81.394 0.143-0.096"/>
     <path d="m169.64 81.298 0.095-0.095"/>
     <path d="m169.74 81.203 0.048-0.095"/>
    </g>
    <g transform="rotate(-90 36.692 61.367)">
     <text transform="scale(-1 1) translate(-73.385)" x="36.692" y="61.867" font-size="1.333" opacity="0" text-anchor="middle" lengthAdjust="spacingAndGlyphs" textLength="2.202">D6</text>
    </g>
    <g class="stroked-text">
     <desc>D6</desc>
     <path d="m37.147 60.629h-1"/>
     <path d="m36.147 60.629v0.238"/>
     <path d="m36.147 60.867 0.048 0.143"/>
     <path d="m36.195 61.01 0.095 0.096"/>
     <path d="m36.29 61.106 0.095 0.047"/>
     <path d="m36.385 61.153 0.191 0.048"/>
     <path d="m36.576 61.201h0.143"/>
     <path d="m36.719 61.201 0.19-0.048"/>
     <path d="m36.909 61.153 0.095-0.047"/>
     <path d="m37.004 61.106 0.096-0.096"/>
     <path d="m37.1 61.01 0.047-0.143"/>
     <path d="m37.147 60.867v-0.238"/>
     <path d="m36.147 62.058v-0.191"/>
     <path d="m36.147 61.867 0.048-0.095"/>
     <path d="m36.195 61.772 0.048-0.047"/>
     <path d="m36.243 61.725 0.142-0.096"/>
     <path d="m36.385 61.629 0.191-0.047"/>
     <path d="m36.576 61.582h0.381"/>
     <path d="m36.957 61.582 0.095 0.047"/>
     <path d="m37.052 61.629 0.048 0.048"/>
     <path d="m37.1 61.677 0.047 0.095"/>
     <path d="m37.147 61.772v0.191"/>
     <path d="m37.147 61.963-0.047 0.095"/>
     <path d="m37.1 62.058-0.048 0.048"/>
     <path d="m37.052 62.106-0.095 0.047"/>
     <path d="m36.957 62.153h-0.238"/>
     <path d="m36.719 62.153-0.095-0.047"/>
     <path d="m36.624 62.106-0.048-0.048"/>
     <path d="m36.576 62.058-0.048-0.095"/>
     <path d="m36.528 61.963v-0.191"/>
     <path d="m36.528 61.772 0.048-0.095"/>
     <path d="m36.576 61.677 0.048-0.048"/>
     <path d="m36.624 61.629 0.095-0.047"/>
    </g>
    <g transform="rotate(-90 74.792 61.367)">
     <text transform="scale(-1 1) translate(-149.58)" x="74.792" y="61.867" font-size="1.333" opacity="0" text-anchor="middle" lengthAdjust="spacingAndGlyphs" textLength="2.202">D7</text>
    </g>
    <g class="stroked-text">
     <desc>D7</desc>
     <path d="m75.247 60.629h-1"/>
     <path d="m74.247 60.629v0.238"/>
     <path d="m74.247 60.867 0.048 0.143"/>
     <path d="m74.295 61.01 0.095 0.096"/>
     <path d="m74.39 61.106 0.095 0.047"/>
     <path d="m74.485 61.153 0.191 0.048"/>
     <path d="m74.676 61.201h0.143"/>
     <path d="m74.819 61.201 0.19-0.048"/>
     <path d="m75.009 61.153 0.095-0.047"/>
     <path d="m75.104 61.106 0.096-0.096"/>
     <path d="m75.2 61.01 0.047-0.143"/>
     <path d="m75.247 60.867v-0.238"/>
     <path d="m74.247 61.534v0.667"/>
     <path d="m74.247 62.201 1-0.429"/>
    </g>
    <g transform="rotate(-90 110.51 42.317)">
     <text transform="scale(-1 1) translate(-221.02)" x="110.511" y="42.817" font-size="1.333" opacity="0" text-anchor="middle" lengthAdjust="spacingAndGlyphs" textLength="2.202">D2</text>
    </g>
    <g class="stroked-text">
     <desc>D2</desc>
     <path d="m110.97 41.579h-1"/>
     <path d="m109.97 41.579v0.238"/>
     <path d="m109.97 41.817 0.048 0.143"/>
     <path d="m110.01 41.96 0.095 0.096"/>
     <path d="m110.11 42.056 0.095 0.047"/>
     <path d="m110.2 42.103 0.191 0.048"/>
     <path d="m110.4 42.151h0.142"/>
     <path d="m110.54 42.151 0.191-0.048"/>
     <path d="m110.73 42.103 0.095-0.047"/>
     <path d="m110.82 42.056 0.095-0.096"/>
     <path d="m110.92 41.96 0.048-0.143"/>
     <path d="m110.97 41.817v-0.238"/>
     <path d="m110.06 42.532-0.047 0.047"/>
     <path d="m110.01 42.579-0.048 0.096"/>
     <path d="m109.97 42.675v0.238"/>
     <path d="m109.97 42.913 0.048 0.095"/>
     <path d="m110.01 43.008 0.047 0.048"/>
     <path d="m110.06 43.056 0.096 0.047"/>
     <path d="m110.16 43.103h0.095"/>
     <path d="m110.25 43.103 0.143-0.047"/>
     <path d="m110.4 43.056 0.571-0.572"/>
     <path d="m110.97 42.484v0.619"/>
    </g>
   </g>
   <g fill="#E8B2A7" stroke="#E8B2A7" stroke-width=".12">
    <path d="m103.05 62.867v-2.55"/>
    <path d="m104.75 62.867h-1.7"/>
    <path d="m104.75 62.867v-2.55"/>
    <path d="m119.72 81.917v-2.55"/>
    <path d="m121.42 81.917h-1.699"/>
    <path d="m121.42 81.917v-2.55"/>
    <path d="m53.042 62.867v-2.55"/>
    <path d="m54.742 62.867h-1.7"/>
    <path d="m54.742 62.867v-2.55"/>
    <path d="m131.62 43.817v-2.55"/>
    <path d="m133.32 43.817h-1.7"/>
    <path d="m133.32 43.817v-2.55"/>
    <path d="m95.905 81.917v-2.55"/>
    <path d="m97.605 81.917h-1.7"/>
    <path d="m97.605 81.917v-2.55"/>
    <path d="m143.53 81.917v-2.55"/>
    <path d="m145.23 81.917h-1.7"/>
    <path d="m145.23 81.917v-2.55"/>
    <path d="m155.44 43.817v-2.55"/>
    <path d="m157.14 43.817h-1.7"/>
    <path d="m157.14 43.817v-2.55"/>
    <path d="m167.34 81.917v-2.55"/>
    <path d="m169.04 81.917h-1.699"/>
    <path d="m169.04 81.917v-2.55"/>
    <path d="m33.992 62.867v-2.55"/>
    <path d="m35.692 62.867h-1.7"/>
    <path d="m35.692 62.867v-2.55"/>
    <path d="m72.093 62.867v-2.55"/>
    <path d="m73.792 62.867h-1.699"/>
    <path d="m73.792 62.867v-2.55"/>
    <path d="m107.81 43.817v-2.55"/>
    <path d="m109.51 43.817h-1.7"/>
    <path d="m109.51 43.817v-2.55"/>
   </g>
   <g fill="#F2EDA1" stroke="#F2EDA1" stroke-width=".15">
    <text x="29.762" y="50.837" font-size="1.333" opacity="0" text-anchor="middle" lengthAdjust="spacingAndGlyphs" textLength="3.298">SW6</text>
    <g class="stroked-text">
     <desc>SW6</desc>
     <path d="m28.429 50.745 0.143 0.047"/>
     <path d="m28.572 50.792h0.238"/>
     <path d="m28.81 50.792 0.095-0.047"/>
     <path d="m28.905 50.745 0.048-0.048"/>
     <path d="m28.953 50.697 0.048-0.095"/>
     <path d="m29.001 50.602v-0.095"/>
     <path d="m29.001 50.507-0.048-0.096"/>
     <path d="m28.953 50.411-0.048-0.047"/>
     <path d="m28.905 50.364-0.095-0.048"/>
     <path d="m28.81 50.316-0.19-0.047"/>
     <path d="m28.62 50.269-0.096-0.048"/>
     <path d="m28.524 50.221-0.047-0.048"/>
     <path d="m28.477 50.173-0.048-0.095"/>
     <path d="m28.429 50.078v-0.095"/>
     <path d="m28.429 49.983 0.048-0.095"/>
     <path d="m28.477 49.888 0.047-0.048"/>
     <path d="m28.524 49.84 0.096-0.048"/>
     <path d="m28.62 49.792h0.238"/>
     <path d="m28.858 49.792 0.143 0.048"/>
     <path d="m29.334 49.792 0.238 1"/>
     <path d="m29.572 50.792 0.19-0.714"/>
     <path d="m29.762 50.078 0.191 0.714"/>
     <path d="m29.953 50.792 0.238-1"/>
     <path d="m31.001 49.792h-0.191"/>
     <path d="m30.81 49.792-0.095 0.048"/>
     <path d="m30.715 49.84-0.048 0.048"/>
     <path d="m30.667 49.888-0.095 0.142"/>
     <path d="m30.572 50.03-0.048 0.191"/>
     <path d="m30.524 50.221v0.381"/>
     <path d="m30.524 50.602 0.048 0.095"/>
     <path d="m30.572 50.697 0.048 0.048"/>
     <path d="m30.62 50.745 0.095 0.047"/>
     <path d="m30.715 50.792h0.19"/>
     <path d="m30.905 50.792 0.096-0.047"/>
     <path d="m31.001 50.745 0.047-0.048"/>
     <path d="m31.048 50.697 0.048-0.095"/>
     <path d="m31.096 50.602v-0.238"/>
     <path d="m31.096 50.364-0.048-0.095"/>
     <path d="m31.048 50.269-0.047-0.048"/>
     <path d="m31.001 50.221-0.096-0.048"/>
     <path d="m30.905 50.173h-0.19"/>
     <path d="m30.715 50.173-0.095 0.048"/>
     <path d="m30.62 50.221-0.048 0.048"/>
     <path d="m30.572 50.269-0.048 0.095"/>
    </g>
    <text x="139.300" y="69.888" font-size="1.333" opacity="0" text-anchor="middle" lengthAdjust="spacingAndGlyphs" textLength="4.250">SW10</text>
    <g class="stroked-text">
     <desc>SW10</desc>
     <path d="m137.49 69.795 0.143 0.047"/>
     <path d="m137.63 69.842h0.238"/>
     <path d="m137.87 69.842 0.096-0.047"/>
     <path d="m137.97 69.795 0.047-0.048"/>
     <path d="m138.01 69.747 0.048-0.095"/>
     <path d="m138.06 69.652v-0.095"/>
     <path d="m138.06 69.557-0.048-0.096"/>
     <path d="m138.01 69.461-0.047-0.047"/>
     <path d="m137.97 69.414-0.096-0.048"/>
     <path d="m137.87 69.366-0.19-0.047"/>
     <path d="m137.68 69.319-0.095-0.048"/>
     <path d="m137.59 69.271-0.048-0.048"/>
     <path d="m137.54 69.223-0.048-0.095"/>
     <path d="m137.49 69.128v-0.095"/>
     <path d="m137.49 69.033 0.048-0.095"/>
     <path d="m137.54 68.938 0.048-0.048"/>
     <path d="m137.59 68.89 0.095-0.048"/>
     <path d="m137.68 68.842h0.238"/>
     <path d="m137.92 68.842 0.143 0.048"/>
     <path d="m138.4 68.842 0.238 1"/>
     <path d="m138.63 69.842 0.191-0.714"/>
     <path d="m138.82 69.128 0.19 0.714"/>
     <path d="m139.01 69.842 0.238-1"/>
     <path d="m140.16 69.842h-0.571"/>
     <path d="m139.87 69.842v-1"/>
     <path d="m139.87 68.842-0.095 0.143"/>
     <path d="m139.78 68.985-0.095 0.095"/>
     <path d="m139.68 69.08-0.095 0.048"/>
     <path d="m140.78 68.842h0.095"/>
     <path d="m140.87 68.842 0.096 0.048"/>
     <path d="m140.97 68.89 0.047 0.048"/>
     <path d="m141.01 68.938 0.048 0.095"/>
     <path d="m141.06 69.033 0.048 0.19"/>
     <path d="m141.11 69.223v0.238"/>
     <path d="m141.11 69.461-0.048 0.191"/>
     <path d="m141.06 69.652-0.048 0.095"/>
     <path d="m141.01 69.747-0.047 0.048"/>
     <path d="m140.97 69.795-0.096 0.047"/>
     <path d="m140.87 69.842h-0.095"/>
     <path d="m140.78 69.842-0.095-0.047"/>
     <path d="m140.68 69.795-0.048-0.048"/>
     <path d="m140.63 69.747-0.047-0.095"/>
     <path d="m140.59 69.652-0.048-0.191"/>
     <path d="m140.54 69.461v-0.238"/>
     <path d="m140.54 69.223 0.048-0.19"/>
     <path d="m140.59 69.033 0.047-0.095"/>
     <path d="m140.63 68.938 0.048-0.048"/>
     <path d="m140.68 68.89 0.095-0.048"/>
    </g>
    <text x="151.206" y="31.787" font-size="1.333" opacity="0" text-anchor="middle" lengthAdjust="spacingAndGlyphs" textLength="3.298">SW4</text>
    <g class="stroked-text">
     <desc>SW4</desc>
     <path d="m149.87 31.695 0.143 0.047"/>
     <path d="m150.02 31.742h0.238"/>
     <path d="m150.25 31.742 0.095-0.047"/>
     <path d="m150.35 31.695 0.048-0.048"/>
     <path d="m150.4 31.647 0.047-0.095"/>
     <path d="m150.44 31.552v-0.095"/>
     <path d="m150.44 31.457-0.047-0.096"/>
     <path d="m150.4 31.361-0.048-0.047"/>
     <path d="m150.35 31.314-0.095-0.048"/>
     <path d="m150.25 31.266-0.191-0.047"/>
     <path d="m150.06 31.219-0.095-0.048"/>
     <path d="m149.97 31.171-0.047-0.048"/>
     <path d="m149.92 31.123-0.048-0.095"/>
     <path d="m149.87 31.028v-0.095"/>
     <path d="m149.87 30.933 0.048-0.095"/>
     <path d="m149.92 30.838 0.047-0.048"/>
     <path d="m149.97 30.79 0.095-0.048"/>
     <path d="m150.06 30.742h0.238"/>
     <path d="m150.3 30.742 0.143 0.048"/>
     <path d="m150.78 30.742 0.238 1"/>
     <path d="m151.02 31.742 0.19-0.714"/>
     <path d="m151.21 31.028 0.191 0.714"/>
     <path d="m151.4 31.742 0.238-1"/>
     <path d="m152.44 31.076v0.666"/>
     <path d="m152.21 30.695-0.238 0.714"/>
     <path d="m151.97 31.409h0.619"/>
    </g>
    <text x="91.675" y="69.888" font-size="1.333" opacity="0" text-anchor="middle" lengthAdjust="spacingAndGlyphs" textLength="3.298">SW8</text>
    <g class="stroked-text">
     <desc>SW8</desc>
     <path d="m90.342 69.795 0.143 0.047"/>
     <path d="m90.485 69.842h0.238"/>
     <path d="m90.723 69.842 0.095-0.047"/>
     <path d="m90.818 69.795 0.047-0.048"/>
     <path d="m90.865 69.747 0.048-0.095"/>
     <path d="m90.913 69.652v-0.095"/>
     <path d="m90.913 69.557-0.048-0.096"/>
     <path d="m90.865 69.461-0.047-0.047"/>
     <path d="m90.818 69.414-0.095-0.048"/>
     <path d="m90.723 69.366-0.191-0.047"/>
     <path d="m90.532 69.319-0.095-0.048"/>
     <path d="m90.437 69.271-0.048-0.048"/>
     <path d="m90.389 69.223-0.047-0.095"/>
     <path d="m90.342 69.128v-0.095"/>
     <path d="m90.342 69.033 0.047-0.095"/>
     <path d="m90.389 68.938 0.048-0.048"/>
     <path d="m90.437 68.89 0.095-0.048"/>
     <path d="m90.532 68.842h0.238"/>
     <path d="m90.77 68.842 0.143 0.048"/>
     <path d="m91.246 68.842 0.239 1"/>
     <path d="m91.485 69.842 0.19-0.714"/>
     <path d="m91.675 69.128 0.19 0.714"/>
     <path d="m91.865 69.842 0.239-1"/>
     <path d="m92.627 69.271-0.095-0.048"/>
     <path d="m92.532 69.223-0.047-0.047"/>
     <path d="m92.485 69.176-0.048-0.096"/>
     <path d="m92.437 69.08v-0.047"/>
     <path d="m92.437 69.033 0.048-0.095"/>
     <path d="m92.485 68.938 0.047-0.048"/>
     <path d="m92.532 68.89 0.095-0.048"/>
     <path d="m92.627 68.842h0.191"/>
     <path d="m92.818 68.842 0.095 0.048"/>
     <path d="m92.913 68.89 0.048 0.048"/>
     <path d="m92.961 68.938 0.047 0.095"/>
     <path d="m93.008 69.033v0.047"/>
     <path d="m93.008 69.08-0.047 0.096"/>
     <path d="m92.961 69.176-0.048 0.047"/>
     <path d="m92.913 69.223-0.095 0.048"/>
     <path d="m92.818 69.271h-0.191"/>
     <path d="m92.627 69.271-0.095 0.048"/>
     <path d="m92.532 69.319-0.047 0.047"/>
     <path d="m92.485 69.366-0.048 0.095"/>
     <path d="m92.437 69.461v0.191"/>
     <path d="m92.437 69.652 0.048 0.095"/>
     <path d="m92.485 69.747 0.047 0.048"/>
     <path d="m92.532 69.795 0.095 0.047"/>
     <path d="m92.627 69.842h0.191"/>
     <path d="m92.818 69.842 0.095-0.047"/>
     <path d="m92.913 69.795 0.048-0.048"/>
     <path d="m92.961 69.747 0.047-0.095"/>
     <path d="m93.008 69.652v-0.191"/>
     <path d="m93.008 69.461-0.047-0.095"/>
     <path d="m92.961 69.366-0.048-0.047"/>
     <path d="m92.913 69.319-0.095-0.048"/>
    </g>
    <text x="48.812" y="50.837" font-size="1.333" opacity="0" text-anchor="middle" lengthAdjust="spacingAndGlyphs" textLength="3.298">SW5</text>
    <g class="stroked-text">
     <desc>SW5</desc>
     <path d="m47.479 50.745 0.143 0.047"/>
     <path d="m47.622 50.792h0.238"/>
     <path d="m47.86 50.792 0.095-0.047"/>
     <path d="m47.955 50.745 0.048-0.048"/>
     <path d="m48.003 50.697 0.048-0.095"/>
     <path d="m48.051 50.602v-0.095"/>
     <path d="m48.051 50.507-0.048-0.096"/>
     <path d="m48.003 50.411-0.048-0.047"/>
     <path d="m47.955 50.364-0.095-0.048"/>
     <path d="m47.86 50.316-0.19-0.047"/>
     <path d="m47.67 50.269-0.096-0.048"/>
     <path d="m47.574 50.221-0.047-0.048"/>
     <path d="m47.527 50.173-0.048-0.095"/>
     <path d="m47.479 50.078v-0.095"/>
     <path d="m47.479 49.983 0.048-0.095"/>
     <path d="m47.527 49.888 0.047-0.048"/>
     <path d="m47.574 49.84 0.096-0.048"/>
     <path d="m47.67 49.792h0.238"/>
     <path d="m47.908 49.792 0.143 0.048"/>
     <path d="m48.384 49.792 0.238 1"/>
     <path d="m48.622 50.792 0.19-0.714"/>
     <path d="m48.812 50.078 0.191 0.714"/>
     <path d="m49.003 50.792 0.238-1"/>
     <path d="m50.098 49.792h-0.476"/>
     <path d="m49.622 49.792-0.048 0.477"/>
     <path d="m49.574 50.269 0.048-0.048"/>
     <path d="m49.622 50.221 0.095-0.048"/>
     <path d="m49.717 50.173h0.238"/>
     <path d="m49.955 50.173 0.096 0.048"/>
     <path d="m50.051 50.221 0.047 0.048"/>
     <path d="m50.098 50.269 0.048 0.095"/>
     <path d="m50.146 50.364v0.238"/>
     <path d="m50.146 50.602-0.048 0.095"/>
     <path d="m50.098 50.697-0.047 0.048"/>
     <path d="m50.051 50.745-0.096 0.047"/>
     <path d="m49.955 50.792h-0.238"/>
     <path d="m49.717 50.792-0.095-0.047"/>
     <path d="m49.622 50.745-0.048-0.048"/>
    </g>
    <text x="115.487" y="69.888" font-size="1.333" opacity="0" text-anchor="middle" lengthAdjust="spacingAndGlyphs" textLength="3.298">SW9</text>
    <g class="stroked-text">
     <desc>SW9</desc>
     <path d="m114.15 69.795 0.143 0.047"/>
     <path d="m114.3 69.842h0.238"/>
     <path d="m114.54 69.842 0.095-0.047"/>
     <path d="m114.63 69.795 0.048-0.048"/>
     <path d="m114.68 69.747 0.048-0.095"/>
     <path d="m114.73 69.652v-0.095"/>
     <path d="m114.73 69.557-0.048-0.096"/>
     <path d="m114.68 69.461-0.048-0.047"/>
     <path d="m114.63 69.414-0.095-0.048"/>
     <path d="m114.54 69.366-0.19-0.047"/>
     <path d="m114.34 69.319-0.096-0.048"/>
     <path d="m114.25 69.271-0.047-0.048"/>
     <path d="m114.2 69.223-0.048-0.095"/>
     <path d="m114.15 69.128v-0.095"/>
     <path d="m114.15 69.033 0.048-0.095"/>
     <path d="m114.2 68.938 0.047-0.048"/>
     <path d="m114.25 68.89 0.096-0.048"/>
     <path d="m114.34 68.842h0.238"/>
     <path d="m114.58 68.842 0.143 0.048"/>
     <path d="m115.06 68.842 0.238 1"/>
     <path d="m115.3 69.842 0.19-0.714"/>
     <path d="m115.49 69.128 0.191 0.714"/>
     <path d="m115.68 69.842 0.238-1"/>
     <path d="m116.34 69.842h0.19"/>
     <path d="m116.54 69.842 0.095-0.047"/>
     <path d="m116.63 69.795 0.048-0.048"/>
     <path d="m116.68 69.747 0.095-0.143"/>
     <path d="m116.77 69.604 0.048-0.19"/>
     <path d="m116.82 69.414v-0.381"/>
     <path d="m116.82 69.033-0.048-0.095"/>
     <path d="m116.77 68.938-0.047-0.048"/>
     <path d="m116.73 68.89-0.096-0.048"/>
     <path d="m116.63 68.842h-0.19"/>
     <path d="m116.44 68.842-0.095 0.048"/>
     <path d="m116.34 68.89-0.048 0.048"/>
     <path d="m116.3 68.938-0.048 0.095"/>
     <path d="m116.25 69.033v0.238"/>
     <path d="m116.25 69.271 0.048 0.095"/>
     <path d="m116.3 69.366 0.048 0.048"/>
     <path d="m116.34 69.414 0.095 0.047"/>
     <path d="m116.44 69.461h0.19"/>
     <path d="m116.63 69.461 0.096-0.047"/>
     <path d="m116.73 69.414 0.047-0.048"/>
     <path d="m116.77 69.366 0.048-0.095"/>
    </g>
    <text x="98.819" y="50.837" font-size="1.333" opacity="0" text-anchor="middle" lengthAdjust="spacingAndGlyphs" textLength="3.298">SW1</text>
    <g class="stroked-text">
     <desc>SW1</desc>
     <path d="m97.485 50.745 0.143 0.047"/>
     <path d="m97.628 50.792h0.238"/>
     <path d="m97.866 50.792 0.096-0.047"/>
     <path d="m97.962 50.745 0.047-0.048"/>
     <path d="m98.009 50.697 0.048-0.095"/>
     <path d="m98.057 50.602v-0.095"/>
     <path d="m98.057 50.507-0.048-0.096"/>
     <path d="m98.009 50.411-0.047-0.047"/>
     <path d="m97.962 50.364-0.096-0.048"/>
     <path d="m97.866 50.316-0.19-0.047"/>
     <path d="m97.676 50.269-0.095-0.048"/>
     <path d="m97.581 50.221-0.048-0.048"/>
     <path d="m97.533 50.173-0.048-0.095"/>
     <path d="m97.485 50.078v-0.095"/>
     <path d="m97.485 49.983 0.048-0.095"/>
     <path d="m97.533 49.888 0.048-0.048"/>
     <path d="m97.581 49.84 0.095-0.048"/>
     <path d="m97.676 49.792h0.238"/>
     <path d="m97.914 49.792 0.143 0.048"/>
     <path d="m98.39 49.792 0.238 1"/>
     <path d="m98.628 50.792 0.191-0.714"/>
     <path d="m98.819 50.078 0.19 0.714"/>
     <path d="m99.009 50.792 0.238-1"/>
     <path d="m100.15 50.792h-0.571"/>
     <path d="m99.866 50.792v-1"/>
     <path d="m99.866 49.792-0.095 0.143"/>
     <path d="m99.771 49.935-0.095 0.095"/>
     <path d="m99.676 50.03-0.095 0.048"/>
    </g>
    <text x="67.862" y="50.837" font-size="1.333" opacity="0" text-anchor="middle" lengthAdjust="spacingAndGlyphs" textLength="3.298">SW7</text>
    <g class="stroked-text">
     <desc>SW7</desc>
     <path d="m66.529 50.745 0.143 0.047"/>
     <path d="m66.672 50.792h0.238"/>
     <path d="m66.91 50.792 0.095-0.047"/>
     <path d="m67.005 50.745 0.048-0.048"/>
     <path d="m67.053 50.697 0.048-0.095"/>
     <path d="m67.101 50.602v-0.095"/>
     <path d="m67.101 50.507-0.048-0.096"/>
     <path d="m67.053 50.411-0.048-0.047"/>
     <path d="m67.005 50.364-0.095-0.048"/>
     <path d="m66.91 50.316-0.19-0.047"/>
     <path d="m66.72 50.269-0.096-0.048"/>
     <path d="m66.624 50.221-0.047-0.048"/>
     <path d="m66.577 50.173-0.048-0.095"/>
     <path d="m66.529 50.078v-0.095"/>
     <path d="m66.529 49.983 0.048-0.095"/>
     <path d="m66.577 49.888 0.047-0.048"/>
     <path d="m66.624 49.84 0.096-0.048"/>
     <path d="m66.72 49.792h0.238"/>
     <path d="m66.958 49.792 0.143 0.048"/>
     <path d="m67.434 49.792 0.238 1"/>
     <path d="m67.672 50.792 0.19-0.714"/>
     <path d="m67.862 50.078 0.191 0.714"/>
     <path d="m68.053 50.792 0.238-1"/>
     <path d="m68.577 49.792h0.666"/>
     <path d="m69.243 49.792-0.428 1"/>
    </g>
    <text x="163.112" y="69.888" font-size="1.333" opacity="0" text-anchor="middle" lengthAdjust="spacingAndGlyphs" textLength="4.250">SW11</text>
    <g class="stroked-text">
     <desc>SW11</desc>
     <path d="m161.3 69.795 0.143 0.047"/>
     <path d="m161.45 69.842h0.238"/>
     <path d="m161.68 69.842 0.095-0.047"/>
     <path d="m161.78 69.795 0.048-0.048"/>
     <path d="m161.83 69.747 0.047-0.095"/>
     <path d="m161.87 69.652v-0.095"/>
     <path d="m161.87 69.557-0.047-0.096"/>
     <path d="m161.83 69.461-0.048-0.047"/>
     <path d="m161.78 69.414-0.095-0.048"/>
     <path d="m161.68 69.366-0.191-0.047"/>
     <path d="m161.49 69.319-0.095-0.048"/>
     <path d="m161.4 69.271-0.047-0.048"/>
     <path d="m161.35 69.223-0.048-0.095"/>
     <path d="m161.3 69.128v-0.095"/>
     <path d="m161.3 69.033 0.048-0.095"/>
     <path d="m161.35 68.938 0.047-0.048"/>
     <path d="m161.4 68.89 0.095-0.048"/>
     <path d="m161.49 68.842h0.239"/>
     <path d="m161.73 68.842 0.142 0.048"/>
     <path d="m162.21 68.842 0.238 1"/>
     <path d="m162.45 69.842 0.19-0.714"/>
     <path d="m162.64 69.128 0.191 0.714"/>
     <path d="m162.83 69.842 0.238-1"/>
     <path d="m163.97 69.842h-0.572"/>
     <path d="m163.68 69.842v-1"/>
     <path d="m163.68 68.842-0.095 0.143"/>
     <path d="m163.59 68.985-0.096 0.095"/>
     <path d="m163.49 69.08-0.095 0.048"/>
     <path d="m164.92 69.842h-0.571"/>
     <path d="m164.64 69.842v-1"/>
     <path d="m164.64 68.842-0.095 0.143"/>
     <path d="m164.54 68.985-0.095 0.095"/>
     <path d="m164.45 69.08-0.095 0.048"/>
    </g>
    <text x="127.394" y="31.787" font-size="1.333" opacity="0" text-anchor="middle" lengthAdjust="spacingAndGlyphs" textLength="3.298">SW3</text>
    <g class="stroked-text">
     <desc>SW3</desc>
     <path d="m126.06 31.695 0.143 0.047"/>
     <path d="m126.2 31.742h0.238"/>
     <path d="m126.44 31.742 0.096-0.047"/>
     <path d="m126.54 31.695 0.047-0.048"/>
     <path d="m126.58 31.647 0.048-0.095"/>
     <path d="m126.63 31.552v-0.095"/>
     <path d="m126.63 31.457-0.048-0.096"/>
     <path d="m126.58 31.361-0.047-0.047"/>
     <path d="m126.54 31.314-0.096-0.048"/>
     <path d="m126.44 31.266-0.19-0.047"/>
     <path d="m126.25 31.219-0.095-0.048"/>
     <path d="m126.16 31.171-0.048-0.048"/>
     <path d="m126.11 31.123-0.048-0.095"/>
     <path d="m126.06 31.028v-0.095"/>
     <path d="m126.06 30.933 0.048-0.095"/>
     <path d="m126.11 30.838 0.048-0.048"/>
     <path d="m126.16 30.79 0.095-0.048"/>
     <path d="m126.25 30.742h0.238"/>
     <path d="m126.49 30.742 0.143 0.048"/>
     <path d="m126.96 30.742 0.238 1"/>
     <path d="m127.2 31.742 0.191-0.714"/>
     <path d="m127.39 31.028 0.19 0.714"/>
     <path d="m127.58 31.742 0.238-1"/>
     <path d="m128.11 30.742h0.619"/>
     <path d="m128.73 30.742-0.333 0.381"/>
     <path d="m128.39 31.123h0.143"/>
     <path d="m128.54 31.123 0.095 0.048"/>
     <path d="m128.63 31.171 0.047 0.048"/>
     <path d="m128.68 31.219 0.048 0.095"/>
     <path d="m128.73 31.314v0.238"/>
     <path d="m128.73 31.552-0.048 0.095"/>
     <path d="m128.68 31.647-0.047 0.048"/>
     <path d="m128.63 31.695-0.095 0.047"/>
     <path d="m128.54 31.742h-0.286"/>
     <path d="m128.25 31.742-0.095-0.047"/>
     <path d="m128.16 31.695-0.048-0.048"/>
    </g>
    <text x="103.581" y="31.787" font-size="1.333" opacity="0" text-anchor="middle" lengthAdjust="spacingAndGlyphs" textLength="3.298">SW2</text>
    <g class="stroked-text">
     <desc>SW2</desc>
     <path d="m102.25 31.695 0.143 0.047"/>
     <path d="m102.39 31.742h0.238"/>
     <path d="m102.63 31.742 0.095-0.047"/>
     <path d="m102.72 31.695 0.048-0.048"/>
     <path d="m102.77 31.647 0.047-0.095"/>
     <path d="m102.82 31.552v-0.095"/>
     <path d="m102.82 31.457-0.047-0.096"/>
     <path d="m102.77 31.361-0.048-0.047"/>
     <path d="m102.72 31.314-0.095-0.048"/>
     <path d="m102.63 31.266-0.191-0.047"/>
     <path d="m102.44 31.219-0.095-0.048"/>
     <path d="m102.34 31.171-0.047-0.048"/>
     <path d="m102.3 31.123-0.048-0.095"/>
     <path d="m102.25 31.028v-0.095"/>
     <path d="m102.25 30.933 0.048-0.095"/>
     <path d="m102.3 30.838 0.047-0.048"/>
     <path d="m102.34 30.79 0.095-0.048"/>
     <path d="m102.44 30.742h0.238"/>
     <path d="m102.68 30.742 0.143 0.048"/>
     <path d="m103.15 30.742 0.238 1"/>
     <path d="m103.39 31.742 0.19-0.714"/>
     <path d="m103.58 31.028 0.191 0.714"/>
     <path d="m103.77 31.742 0.238-1"/>
     <path d="m104.34 30.838 0.048-0.048"/>
     <path d="m104.39 30.79 0.095-0.048"/>
     <path d="m104.49 30.742h0.238"/>
     <path d="m104.72 30.742 0.095 0.048"/>
     <path d="m104.82 30.79 0.048 0.048"/>
     <path d="m104.87 30.838 0.048 0.095"/>
     <path d="m104.92 30.933v0.095"/>
     <path d="m104.92 31.028-0.048 0.143"/>
     <path d="m104.87 31.171-0.571 0.571"/>
     <path d="m104.3 31.742h0.619"/>
    </g>
   </g>
   <g fill="#F2EDA1" stroke="#F2EDA1" stroke-width=".12">
    <path d="m22.662 51.237v14.201"/>
    <path d="m22.662 65.438h14.2"/>
    <path d="m36.862 51.237h-14.2"/>
    <path d="m36.862 65.438v-14.201"/>
    <path d="m132.2 70.287v14.2"/>
    <path d="m132.2 84.487h14.2"/>
    <path d="m146.4 70.287h-14.2"/>
    <path d="m146.4 84.487v-14.2"/>
    <path d="m144.11 32.188v14.199"/>
    <path d="m144.11 46.387h14.2"/>
    <path d="m158.31 32.188h-14.2"/>
    <path d="m158.31 46.387v-14.199"/>
    <path d="m84.575 70.287v14.2"/>
    <path d="m84.575 84.487h14.2"/>
    <path d="m98.775 70.287h-14.2"/>
    <path d="m98.775 84.487v-14.2"/>
    <path d="m41.712 51.237v14.201"/>
    <path d="m41.712 65.438h14.2"/>
    <path d="m55.912 51.237h-14.2"/>
    <path d="m55.912 65.438v-14.201"/>
    <path d="m108.39 70.287v14.2"/>
    <path d="m108.39 84.487h14.2"/>
    <path d="m122.59 70.287h-14.2"/>
    <path d="m122.59 84.487v-14.2"/>
    <path d="m91.719 51.237v14.201"/>
    <path d="m91.719 65.438h14.2"/>
    <path d="m105.92 51.237h-14.2"/>
    <path d="m105.92 65.438v-14.201"/>
    <path d="m60.762 51.237v14.201"/>
    <path d="m60.762 65.438h14.2"/>
    <path d="m74.962 51.237h-14.2"/>
    <path d="m74.962 65.438v-14.201"/>
    <path d="m156.01 70.287v14.2"/>
    <path d="m156.01 84.487h14.201"/>
    <path d="m170.21 70.287h-14.201"/>
    <path d="m170.21 84.487v-14.2"/>
    <path d="m120.29 32.188v14.199"/>
    <path d="m120.29 46.387h14.2"/>
    <path d="m134.49 32.188h-14.2"/>
    <path d="m134.49 46.387v-14.199"/>
    <path d="m96.481 32.188v14.199"/>
    <path d="m96.481 46.387h14.2"/>
    <path d="m110.68 32.188h-14.2"/>
    <path d="m110.68 46.387v-14.199"/>
   </g>
   <g stroke="#000" stroke-width=".12">
    <g fill="#02FFEE" fill-opacity=".4" stroke-width="0">
     <g stroke="#02FFEE" stroke-linecap="round" stroke-linejoin="round">
      <circle cx="24.682" cy="58.337" r=".875"/>
      <circle cx="29.762" cy="58.337" r="2"/>
      <circle cx="34.843" cy="58.337" r=".875"/>
      <circle cx="25.953" cy="55.797" r="1.25"/>
      <circle cx="32.303" cy="53.258" r="1.25"/>
      <circle cx="134.22" cy="77.388" r=".875"/>
      <circle cx="139.3" cy="77.388" r="2"/>
      <circle cx="144.38" cy="77.388" r=".875"/>
      <circle cx="135.49" cy="74.847" r="1.25"/>
      <circle cx="141.84" cy="72.307" r="1.25"/>
      <circle cx="146.13" cy="39.288" r=".875"/>
      <circle cx="151.21" cy="39.288" r="2"/>
      <circle cx="156.29" cy="39.288" r=".875"/>
      <circle cx="147.4" cy="36.747" r="1.25"/>
      <circle cx="153.75" cy="34.207" r="1.25"/>
      <circle cx="86.595" cy="77.388" r=".875"/>
      <circle cx="91.675" cy="77.388" r="2"/>
      <circle cx="96.755" cy="77.388" r=".875"/>
      <circle cx="87.865" cy="74.847" r="1.25"/>
      <circle cx="94.215" cy="72.307" r="1.25"/>
      <circle cx="43.732" cy="58.337" r=".875"/>
      <circle cx="48.812" cy="58.337" r="2"/>
      <circle cx="53.892" cy="58.337" r=".875"/>
      <circle cx="45.002" cy="55.797" r="1.25"/>
      <circle cx="51.352" cy="53.258" r="1.25"/>
      <circle cx="110.41" cy="77.388" r=".875"/>
      <circle cx="115.49" cy="77.388" r="2"/>
      <circle cx="120.57" cy="77.388" r=".875"/>
      <circle cx="111.68" cy="74.847" r="1.25"/>
      <circle cx="118.03" cy="72.307" r="1.25"/>
      <circle cx="93.739" cy="58.337" r=".875"/>
      <circle cx="98.819" cy="58.337" r="2"/>
      <circle cx="103.9" cy="58.337" r=".875"/>
      <circle cx="95.009" cy="55.797" r="1.25"/>
      <circle cx="101.36" cy="53.258" r="1.25"/>
      <circle cx="62.782" cy="58.337" r=".875"/>
      <circle cx="67.862" cy="58.337" r="2"/>
      <circle cx="72.942" cy="58.337" r=".875"/>
      <circle cx="64.052" cy="55.797" r="1.25"/>
      <circle cx="70.403" cy="53.258" r="1.25"/>
      <circle cx="158.03" cy="77.388" r=".875"/>
      <circle cx="163.11" cy="77.388" r="2"/>
      <circle cx="168.19" cy="77.388" r=".875"/>
      <circle cx="159.3" cy="74.847" r="1.25"/>
      <circle cx="165.65" cy="72.307" r="1.25"/>
      <circle cx="122.31" cy="39.288" r=".875"/>
      <circle cx="127.39" cy="39.288" r="2"/>
      <circle cx="132.47" cy="39.288" r=".875"/>
      <circle cx="123.58" cy="36.747" r="1.25"/>
      <circle cx="129.93" cy="34.207" r="1.25"/>
      <circle cx="98.501" cy="39.288" r=".875"/>
      <circle cx="103.58" cy="39.288" r="2"/>
      <circle cx="108.66" cy="39.288" r=".875"/>
      <circle cx="99.771" cy="36.747" r="1.25"/>
      <circle cx="106.12" cy="34.207" r="1.25"/>
     </g>
     <g fill-rule="evenodd">
      <path d="m104.15 62.717h-0.5v-0.5h0.5z"/>
      <path d="m104.15 60.517h-0.5v-0.5h0.5z"/>
      <path d="m120.82 81.767h-0.5v-0.5h0.5z"/>
      <path d="m120.82 79.567h-0.5v-0.5h0.5z"/>
      <path d="m54.142 62.717h-0.5v-0.5h0.5z"/>
      <path d="m54.142 60.517h-0.5v-0.5h0.5z"/>
      <path d="m132.72 43.667h-0.5v-0.5h0.5z"/>
      <path d="m132.72 41.468h-0.5v-0.5h0.5z"/>
      <path d="m97.005 81.767h-0.5v-0.5h0.5z"/>
      <path d="m97.005 79.567h-0.5v-0.5h0.5z"/>
      <path d="m144.63 81.767h-0.5v-0.5h0.5z"/>
      <path d="m144.63 79.567h-0.5v-0.5h0.5z"/>
      <path d="m156.54 43.667h-0.5v-0.5h0.5z"/>
      <path d="m156.54 41.468h-0.5v-0.5h0.5z"/>
      <path d="m168.44 81.767h-0.5v-0.5h0.5z"/>
      <path d="m168.44 79.567h-0.5v-0.5h0.5z"/>
      <path d="m35.093 62.717h-0.5v-0.5h0.5z"/>
      <path d="m35.093 60.517h-0.5v-0.5h0.5z"/>
      <path d="m73.192 62.717h-0.5v-0.5h0.5z"/>
      <path d="m73.192 60.517h-0.5v-0.5h0.5z"/>
      <path d="m108.91 43.667h-0.5v-0.5h0.5z"/>
      <path d="m108.91 41.468h-0.5v-0.5h0.5z"/>
     </g>
    </g>
   </g>
  </g>
 </g>
 <g stroke-width="0">
  <g fill="#D864FF" fill-opacity=".4" stroke="#D864FF" stroke-linecap="round" stroke-linejoin="round" stroke-width="0">
   <circle cx="24.682" cy="58.337" r=".875"/>
   <circle cx="29.762" cy="58.337" r="2"/>
   <circle cx="34.843" cy="58.337" r=".875"/>
   <circle cx="134.22" cy="77.388" r=".875"/>
   <circle cx="139.3" cy="77.388" r="2"/>
   <circle cx="144.38" cy="77.388" r=".875"/>
   <circle cx="146.13" cy="39.288" r=".875"/>
   <circle cx="151.21" cy="39.288" r="2"/>
   <circle cx="156.29" cy="39.288" r=".875"/>
   <circle cx="86.595" cy="77.388" r=".875"/>
   <circle cx="91.675" cy="77.388" r="2"/>
   <circle cx="96.755" cy="77.388" r=".875"/>
   <circle cx="43.732" cy="58.337" r=".875"/>
   <circle cx="48.812" cy="58.337" r="2"/>
   <circle cx="53.892" cy="58.337" r=".875"/>
   <circle cx="110.41" cy="77.388" r=".875"/>
   <circle cx="115.49" cy="77.388" r="2"/>
   <circle cx="120.57" cy="77.388" r=".875"/>
   <circle cx="93.739" cy="58.337" r=".875"/>
   <circle cx="98.819" cy="58.337" r="2"/>
   <circle cx="103.9" cy="58.337" r=".875"/>
   <circle cx="62.782" cy="58.337" r=".875"/>
   <circle cx="67.862" cy="58.337" r="2"/>
   <circle cx="72.942" cy="58.337" r=".875"/>
   <circle cx="158.03" cy="77.388" r=".875"/>
   <circle cx="163.11" cy="77.388" r="2"/>
   <circle cx="168.19" cy="77.388" r=".875"/>
   <circle cx="122.31" cy="39.288" r=".875"/>
   <circle cx="127.39" cy="39.288" r="2"/>
   <circle cx="132.47" cy="39.288" r=".875"/>
   <circle cx="98.501" cy="39.288" r=".875"/>
   <circle cx="103.58" cy="39.288" r="2"/>
   <circle cx="108.66" cy="39.288" r=".875"/>
  </g>
 </g>
</svg>
