<?xml version="1.0" encoding="UTF-8"?>
<svg xmlns="http://www.w3.org/2000/svg" xmlns:xlink="http://www.w3.org/1999/xlink"
     width="411" height="190" viewBox="0 0 411 190">
<defs>
<g id="d0">
<text x="7" y="7" font-size="12" text-anchor="start" dominant-baseline="hanging"><tspan x="7" dy="0em">1,6</tspan></text>
<text x="396.0" y="172.0" font-size="12" text-anchor="end" dominant-baseline="auto"><tspan x="396.0" dy="0em">0,0</tspan></text>
</g>
<g id="d1">
<text x="7" y="7" font-size="12" text-anchor="start" dominant-baseline="hanging"><tspan x="7" dy="0em">1,6</tspan></text>
<text x="396.0" y="172.0" font-size="12" text-anchor="end" dominant-baseline="auto"><tspan x="396.0" dy="0em">0,1</tspan></text>
</g>
<g id="d2">
<rect x="0" y="0" width="52" height="78.0" rx="5" fill="none" stroke="black" stroke-width="2" />
<rect x="1.0" y="1.0" width="50.0" height="76.0" rx="4.0" fill="#cccccc" />
<rect x="6" y="4" width="40" height="66.0" rx="5" fill="#fbfbfb" />
<text x="7" y="7" font-size="12" text-anchor="start" dominant-baseline="hanging"><tspan x="7" dy="0em">2,1</tspan></text>
<text x="45" y="68.0" font-size="12" text-anchor="end" dominant-baseline="auto"><tspan x="45" dy="0em">0,1</tspan></text>
</g>
<g id="d3">
<rect x="0" y="0" width="52" height="78.0" rx="5" fill="none" stroke="black" stroke-width="2" />
<rect x="1.0" y="1.0" width="50.0" height="76.0" rx="4.0" fill="#cccccc" />
<rect x="6" y="4" width="40" height="66.0" rx="5" fill="#fbfbfb" />
<text x="7" y="7" font-size="12" text-anchor="start" dominant-baseline="hanging"><tspan x="7" dy="0em">2,3</tspan></text>
<text x="45" y="68.0" font-size="12" text-anchor="end" dominant-baseline="auto"><tspan x="45" dy="0em">0,1</tspan></text>
</g>
<g id="d4">
<rect x="0" y="0" width="52" height="78.0" rx="5" fill="none" stroke="black" stroke-width="2" />
<rect x="1.0" y="1.0" width="50.0" height="76.0" rx="4.0" fill="#cccccc" />
<rect x="6" y="4" width="40" height="66.0" rx="5" fill="#fbfbfb" />
<text x="7" y="7" font-size="12" text-anchor="start" dominant-baseline="hanging"><tspan x="7" dy="0em">2,5</tspan></text>
<text x="45" y="68.0" font-size="12" text-anchor="end" dominant-baseline="auto"><tspan x="45" dy="0em">0,1</tspan></text>
</g>
<g id="d5">
<rect x="0" y="0" width="52" height="78.0" rx="5" fill="none" stroke="black" stroke-width="2" />
<rect x="1.0" y="1.0" width="50.0" height="76.0" rx="4.0" fill="#cccccc" />
<rect x="6" y="4" width="40" height="66.0" rx="5" fill="#fbfbfb" />
<text x="7" y="7" font-size="12" text-anchor="start" dominant-baseline="hanging"><tspan x="7" dy="0em">0,1</tspan></text>
<text x="45" y="68.0" font-size="12" text-anchor="end" dominant-baseline="auto"><tspan x="45" dy="0em">0,0</tspan></text>
</g>
<g id="d6">
<rect x="0" y="0" width="52" height="78.0" rx="5" fill="none" stroke="black" stroke-width="2" />
<rect x="1.0" y="1.0" width="50.0" height="76.0" rx="4.0" fill="#cccccc" />
<rect x="6" y="4" width="40" height="66.0" rx="5" fill="#fbfbfb" />
<text x="7" y="7" font-size="12" text-anchor="start" dominant-baseline="hanging"><tspan x="7" dy="0em">0,3</tspan></text>
<text x="45" y="68.0" font-size="12" text-anchor="end" dominant-baseline="auto"><tspan x="45" dy="0em">0,0</tspan></text>
</g>
<g id="d7">
<rect x="0" y="0" width="52" height="78.0" rx="5" fill="none" stroke="black" stroke-width="2" />
<rect x="1.0" y="1.0" width="50.0" height="76.0" rx="4.0" fill="#cccccc" />
<rect x="6" y="4" width="40" height="66.0" rx="5" fill="#fbfbfb" />
<text x="7" y="7" font-size="12" text-anchor="start" dominant-baseline="hanging"><tspan x="7" dy="0em">0,5</tspan></text>
<text x="45" y="68.0" font-size="12" text-anchor="end" dominant-baseline="auto"><tspan x="45" dy="0em">0,0</tspan></text>
</g>
<g id="d8">
<rect x="0" y="0" width="78.0" height="78.0" rx="5" fill="none" stroke="black" stroke-width="2" />
<rect x="1.0" y="1.0" width="76.0" height="76.0" rx="4.0" fill="#cccccc" />
<rect x="6" y="4" width="66.0" height="66.0" rx="5" fill="#fbfbfb" />
<text x="7" y="7" font-size="12" text-anchor="start" dominant-baseline="hanging"><tspan x="7" dy="0em">1,1</tspan></text>
<text x="71.0" y="68.0" font-size="12" text-anchor="end" dominant-baseline="auto"><tspan x="71.0" dy="0em">0,0</tspan></text>
</g>
<g id="d9">
<rect x="0" y="0" width="78.0" height="78.0" rx="5" fill="none" stroke="black" stroke-width="2" />
<rect x="1.0" y="1.0" width="76.0" height="76.0" rx="4.0" fill="#cccccc" />
<rect x="6" y="4" width="66.0" height="66.0" rx="5" fill="#fbfbfb" />
<text x="7" y="7" font-size="12" text-anchor="start" dominant-baseline="hanging"><tspan x="7" dy="0em">1,1</tspan></text>
<text x="71.0" y="68.0" font-size="12" text-anchor="end" dominant-baseline="auto"><tspan x="71.0" dy="0em">0,1</tspan></text>
</g>
<g id="d10">
<rect x="0" y="0" width="26.0" height="52" rx="5" fill="none" stroke="black" stroke-width="2" />
<rect x="1.0" y="1.0" width="24.0" height="50.0" rx="4.0" fill="#cccccc" />
<rect x="6" y="4" width="14.0" height="40" rx="5" fill="#fbfbfb" />
<text x="7" y="7" font-size="12" text-anchor="start" dominant-baseline="hanging"><tspan x="7" dy="0em">1,0</tspan></text>
<text x="19.0" y="42" font-size="12" text-anchor="end" dominant-baseline="auto"><tspan x="19.0" dy="0em">0,0</tspan></text>
</g>
<g id="d11">
<rect x="0" y="0" width="26.0" height="52" rx="5" fill="none" stroke="black" stroke-width="2" />
<rect x="1.0" y="1.0" width="24.0" height="50.0" rx="4.0" fill="#cccccc" />
<rect x="6" y="4" width="14.0" height="40" rx="5" fill="#fbfbfb" />
<text x="7" y="7" font-size="12" text-anchor="start" dominant-baseline="hanging"><tspan x="7" dy="0em">1,2</tspan></text>
<text x="19.0" y="42" font-size="12" text-anchor="end" dominant-baseline="auto"><tspan x="19.0" dy="0em">0,0</tspan></text>
</g>
<g id="d12">
<rect x="0" y="0" width="26.0" height="52" rx="5" fill="none" stroke="black" stroke-width="2" />
<rect x="1.0" y="1.0" width="24.0" height="50.0" rx="4.0" fill="#cccccc" />
<rect x="6" y="4" width="14.0" height="40" rx="5" fill="#fbfbfb" />
<text x="7" y="7" font-size="12" text-anchor="start" dominant-baseline="hanging"><tspan x="7" dy="0em">1,0</tspan></text>
<text x="19.0" y="42" font-size="12" text-anchor="end" dominant-baseline="auto"><tspan x="19.0" dy="0em">0,1</tspan></text>
</g>
<g id="d13">
<rect x="0" y="0" width="26.0" height="52" rx="5" fill="none" stroke="black" stroke-width="2" />
<rect x="1.0" y="1.0" width="24.0" height="50.0" rx="4.0" fill="#cccccc" />
<rect x="6" y="4" width="14.0" height="40" rx="5" fill="#fbfbfb" />
<text x="7" y="7" font-size="12" text-anchor="start" dominant-baseline="hanging"><tspan x="7" dy="0em">1,2</tspan></text>
<text x="19.0" y="42" font-size="12" text-anchor="end" dominant-baseline="auto"><tspan x="19.0" dy="0em">0,1</tspan></text>
</g>
<g id="d14">
<rect x="0" y="0" width="52" height="78.0" rx="5" fill="none" stroke="black" stroke-width="2" />
<rect x="1.0" y="1.0" width="50.0" height="76.0" rx="4.0" fill="#cccccc" />
<rect x="6" y="4" width="40" height="66.0" rx="5" fill="#fbfbfb" />
<text x="7" y="7" font-size="12" text-anchor="start" dominant-baseline="hanging"><tspan x="7" dy="0em">0,0</tspan></text>
<text x="45" y="68.0" font-size="12" text-anchor="end" dominant-baseline="auto"><tspan x="45" dy="0em">0,1</tspan></text>
</g>
<g id="d15">
<rect x="0" y="0" width="52" height="78.0" rx="5" fill="none" stroke="black" stroke-width="2" />
<rect x="1.0" y="1.0" width="50.0" height="76.0" rx="4.0" fill="#cccccc" />
<rect x="6" y="4" width="40" height="66.0" rx="5" fill="#fbfbfb" />
<text x="7" y="7" font-size="12" text-anchor="start" dominant-baseline="hanging"><tspan x="7" dy="0em">0,2</tspan></text>
<text x="45" y="68.0" font-size="12" text-anchor="end" dominant-baseline="auto"><tspan x="45" dy="0em">0,1</tspan></text>
</g>
<g id="d16">
<rect x="0" y="0" width="52" height="78.0" rx="5" fill="none" stroke="black" stroke-width="2" />
<rect x="1.0" y="1.0" width="50.0" height="76.0" rx="4.0" fill="#cccccc" />
<rect x="6" y="4" width="40" height="66.0" rx="5" fill="#fbfbfb" />
<text x="7" y="7" font-size="12" text-anchor="start" dominant-baseline="hanging"><tspan x="7" dy="0em">0,4</tspan></text>
<text x="45" y="68.0" font-size="12" text-anchor="end" dominant-baseline="auto"><tspan x="45" dy="0em">0,1</tspan></text>
</g>
<g id="d17">
<rect x="0" y="0" width="52" height="78.0" rx="5" fill="none" stroke="black" stroke-width="2" />
<rect x="1.0" y="1.0" width="50.0" height="76.0" rx="4.0" fill="#cccccc" />
<rect x="6" y="4" width="40" height="66.0" rx="5" fill="#fbfbfb" />
<text x="7" y="7" font-size="12" text-anchor="start" dominant-baseline="hanging"><tspan x="7" dy="0em">2,0</tspan></text>
<text x="45" y="68.0" font-size="12" text-anchor="end" dominant-baseline="auto"><tspan x="45" dy="0em">0,0</tspan></text>
</g>
<g id="d18">
<rect x="0" y="0" width="52" height="78.0" rx="5" fill="none" stroke="black" stroke-width="2" />
<rect x="1.0" y="1.0" width="50.0" height="76.0" rx="4.0" fill="#cccccc" />
<rect x="6" y="4" width="40" height="66.0" rx="5" fill="#fbfbfb" />
<text x="7" y="7" font-size="12" text-anchor="start" dominant-baseline="hanging"><tspan x="7" dy="0em">0,6</tspan></text>
<text x="45" y="68.0" font-size="12" text-anchor="end" dominant-baseline="auto"><tspan x="45" dy="0em">0,1</tspan></text>
</g>
<g id="d19">
<rect x="0" y="0" width="52" height="78.0" rx="5" fill="none" stroke="black" stroke-width="2" />
<rect x="1.0" y="1.0" width="50.0" height="76.0" rx="4.0" fill="#cccccc" />
<rect x="6" y="4" width="40" height="66.0" rx="5" fill="#fbfbfb" />
<text x="7" y="7" font-size="12" text-anchor="start" dominant-baseline="hanging"><tspan x="7" dy="0em">2,2</tspan></text>
<text x="45" y="68.0" font-size="12" text-anchor="end" dominant-baseline="auto"><tspan x="45" dy="0em">0,0</tspan></text>
</g>
<g id="d20">
<rect x="0" y="0" width="52" height="78.0" rx="5" fill="none" stroke="black" stroke-width="2" />
<rect x="1.0" y="1.0" width="50.0" height="76.0" rx="4.0" fill="#cccccc" />
<rect x="6" y="4" width="40" height="66.0" rx="5" fill="#fbfbfb" />
<text x="7" y="7" font-size="12" text-anchor="start" dominant-baseline="hanging"><tspan x="7" dy="0em">2,4</tspan></text>
<text x="45" y="68.0" font-size="12" text-anchor="end" dominant-baseline="auto"><tspan x="45" dy="0em">0,0</tspan></text>
</g>
<g id="d21">
<rect x="0" y="0" width="52" height="78.0" rx="5" fill="none" stroke="black" stroke-width="2" />
<rect x="1.0" y="1.0" width="50.0" height="76.0" rx="4.0" fill="#cccccc" />
<rect x="6" y="4" width="40" height="66.0" rx="5" fill="#fbfbfb" />
<text x="7" y="7" font-size="12" text-anchor="start" dominant-baseline="hanging"><tspan x="7" dy="0em">2,6</tspan></text>
<text x="45" y="68.0" font-size="12" text-anchor="end" dominant-baseline="auto"><tspan x="45" dy="0em">0,0</tspan></text>
</g>
</defs>
<use xlink:href="#d0" x="4" y="4" />
<use xlink:href="#d1" x="4.0" y="4" />
<use xlink:href="#d2" x="36.5" y="4" />
<use xlink:href="#d3" x="101.5" y="4" />
<use xlink:href="#d4" x="166.5" y="4" />
<use xlink:href="#d5" x="192.5" y="4" />
<use xlink:href="#d6" x="257.5" y="4" />
<use xlink:href="#d7" x="322.5" y="4" />
<use xlink:href="#d8" x="30.0" y="56" />
<use xlink:href="#d9" x="303.0" y="56" />
<use xlink:href="#d10" x="4" y="69.0" />
<use xlink:href="#d11" x="108.0" y="69.0" />
<use xlink:href="#d12" x="277.0" y="69.0" />
<use xlink:href="#d13" x="381.0" y="69.0" />
<use xlink:href="#d14" x="4" y="108.0" />
<use xlink:href="#d15" x="69.0" y="108.0" />
<use xlink:href="#d16" x="134.0" y="108.0" />
<use xlink:href="#d17" x="160.0" y="108.0" />
<use xlink:href="#d18" x="199.0" y="108.0" />
<use xlink:href="#d19" x="225.0" y="108.0" />
<use xlink:href="#d20" x="290.0" y="108.0" />
<use xlink:href="#d21" x="355.0" y="108.0" />
</svg>