<?xml version="1.0" encoding="UTF-8"?>
<!DOCTYPE svg  PUBLIC '-//W3C//DTD SVG 1.1//EN'  'http://www.w3.org/Graphics/SVG/1.1/DTD/svg11.dtd'>
<svg width="42.951mm" height="41.427mm" version="1.1" viewBox="0 0 42.951 41.427" xmlns="http://www.w3.org/2000/svg">
 <title>SVG Image created as pixie-render.svg date 2026/07/14 10:50:03</title>
 <desc>Image generated by PCBNEW</desc>
 <rect width="42.951mm" height="41.427mm" fill="#282A36"/>
 <g transform="translate(0) scale(1)" stroke="#000" stroke-linecap="round" stroke-linejoin="round">
  <path d="m1.075 6.5482v-2h2v2z" fill="#f55" fill-rule="evenodd" stroke="none"/>
 </g>
 <g fill="#f55">
  <circle cx="2.075" cy="10.548" r="1"/>
  <circle cx="2.075" cy="8.0482" r="1"/>
  <path d="m7.975 3.4482v-1.9999h3.2v1.9999z" fill="#f55" fill-rule="evenodd"/>
  <path d="m7.975 14.648v-2h3.2v2z" fill="#f55" fill-rule="evenodd"/>
  <circle cx="16.575" cy="10.548" r="1"/>
  <circle cx="16.575" cy="5.5482" r="1"/>
  <circle cx="29.578" cy="29.321" r="1.25"/>
  <circle cx="35.928" cy="26.781" r="1.25"/>
  <circle cx="5.765" cy="29.321" r="1.25"/>
  <circle cx="12.115" cy="26.781" r="1.25"/>
  <path d="m24.888 6.5482v-2h2v2z" fill="#f55" fill-rule="evenodd"/>
  <circle cx="25.888" cy="10.548" r="1"/>
  <circle cx="25.888" cy="8.0482" r="1"/>
  <path d="m31.788 3.4482v-1.9999h3.2v1.9999z" fill="#f55" fill-rule="evenodd"/>
  <path d="m31.788 14.648v-2h3.2v2z" fill="#f55" fill-rule="evenodd"/>
  <circle cx="40.388" cy="10.548" r="1"/>
  <circle cx="40.388" cy="5.5482" r="1"/>
 </g>
 <g fill="none" stroke="#f55" stroke-linecap="round" stroke-linejoin="round" stroke-width=".2">
  <path d="m5.765 29.321v-7.9626"/>
  <path d="m5.765 21.358 10.81-10.81"/>
  <path d="m29.578 21.358 10.81-10.81"/>
  <path d="m29.578 29.321v-7.9626"/>
  <path d="m1.075 6.5482v-2h2v2z" fill="#50FA7B" fill-rule="evenodd" stroke="none"/>
 </g>
 <g fill="#50FA7B">
  <circle cx="2.075" cy="10.548" r="1"/>
  <circle cx="2.075" cy="8.0482" r="1"/>
  <path d="m7.975 3.4482v-1.9999h3.2v1.9999z" fill="#50FA7B" fill-rule="evenodd"/>
  <path d="m7.975 14.648v-2h3.2v2z" fill="#50FA7B" fill-rule="evenodd"/>
  <circle cx="16.575" cy="10.548" r="1"/>
  <circle cx="16.575" cy="5.5482" r="1"/>
  <circle cx="29.578" cy="29.321" r="1.25"/>
  <circle cx="35.928" cy="26.781" r="1.25"/>
  <circle cx="5.765" cy="29.321" r="1.25"/>
  <circle cx="12.115" cy="26.781" r="1.25"/>
  <path d="m24.888 6.5482v-2h2v2z" fill="#50FA7B" fill-rule="evenodd"/>
  <circle cx="25.888" cy="10.548" r="1"/>
  <circle cx="25.888" cy="8.0482" r="1"/>
  <path d="m31.788 3.4482v-1.9999h3.2v1.9999z" fill="#50FA7B" fill-rule="evenodd"/>
  <path d="m31.788 14.648v-2h3.2v2z" fill="#50FA7B" fill-rule="evenodd"/>
  <circle cx="40.388" cy="10.548" r="1"/>
  <circle cx="40.388" cy="5.5482" r="1"/>
  <g fill="#50FA7B" fill-rule="evenodd">
   <path d="m30.668 11.498-0.0957-0.019-0.0811-0.0542-0.0542-0.0811-0.019-0.0957v-0.6l0.019-0.0956 0.0542-0.0811 0.0811-0.0542 0.0957-0.0191h0.6l0.0957 0.0191 0.0811 0.0542 0.0542 0.0811 0.019 0.0956v0.6l-0.019 0.0957-0.0542 0.0811-0.0811 0.0542-0.0957 0.019z"/>
   <path d="m30.668 8.6982-0.0957-0.019-0.0811-0.0542-0.0542-0.0811-0.019-0.0957v-0.6l0.019-0.0956 0.0542-0.0811 0.0811-0.0542 0.0957-0.0191h0.6l0.0957 0.0191 0.0811 0.0542 0.0542 0.0811 0.019 0.0956v0.6l-0.019 0.0957-0.0542 0.0811-0.0811 0.0542-0.0957 0.019z"/>
   <path d="m6.855 11.498-0.0957-0.019-0.0811-0.0542-0.0542-0.0811-0.019-0.0957v-0.6l0.019-0.0956 0.0542-0.0811 0.0811-0.0542 0.0957-0.0191h0.6l0.0957 0.0191 0.0811 0.0542 0.0542 0.0811 0.019 0.0956v0.6l-0.019 0.0957-0.0542 0.0811-0.0811 0.0542-0.0957 0.019z"/>
   <path d="m6.855 8.6982-0.0957-0.019-0.0811-0.0542-0.0542-0.0811-0.019-0.0957v-0.6l0.019-0.0956 0.0542-0.0811 0.0811-0.0542 0.0957-0.0191h0.6l0.0957 0.0191 0.0811 0.0542 0.0542 0.0811 0.019 0.0956v0.6l-0.019 0.0957-0.0542 0.0811-0.0811 0.0542-0.0957 0.019z"/>
   <path d="m38.168 37.811-0.0957-0.019-0.0811-0.0542-0.0542-0.0811-0.019-0.0957v-0.6l0.019-0.0956 0.0542-0.0811 0.0811-0.0542 0.0957-0.0191h0.6l0.0957 0.0191 0.0811 0.0542 0.0542 0.0811 0.019 0.0956v0.6l-0.019 0.0957-0.0542 0.0811-0.0811 0.0542-0.0957 0.019z"/>
   <path d="m38.168 35.011-0.0957-0.0191-0.0811-0.0542-0.0542-0.0811-0.019-0.0956v-0.6l0.019-0.0957 0.0542-0.0811 0.0811-0.0542 0.0957-0.019h0.6l0.0957 0.019 0.0811 0.0542 0.0542 0.0811 0.019 0.0957v0.6l-0.019 0.0956-0.0542 0.0811-0.0811 0.0542-0.0957 0.0191z"/>
   <path d="m14.355 37.811-0.0957-0.019-0.0811-0.0542-0.0542-0.0811-0.019-0.0957v-0.6l0.019-0.0956 0.0542-0.0811 0.0811-0.0542 0.0957-0.0191h0.6l0.0957 0.0191 0.0811 0.0542 0.0542 0.0811 0.019 0.0956v0.6l-0.019 0.0957-0.0542 0.0811-0.0811 0.0542-0.0957 0.019z"/>
   <path d="m14.355 35.011-0.0957-0.0191-0.0811-0.0542-0.0542-0.0811-0.019-0.0956v-0.6l0.019-0.0957 0.0542-0.0811 0.0811-0.0542 0.0957-0.019h0.6l0.0957 0.019 0.0811 0.0542 0.0542 0.0811 0.019 0.0957v0.6l-0.019 0.0956-0.0542 0.0811-0.0811 0.0542-0.0957 0.0191z"/>
  </g>
 </g>
 <g fill="none" stroke-linecap="round" stroke-linejoin="round">
  <g stroke="#50FA7B" stroke-width=".2">
   <path d="m16.575 5.5482h-6.82"/>
   <path d="m9.755 5.5482-2.6 2.6"/>
   <path d="m40.388 5.5482h-6.82"/>
   <path d="m33.568 5.5482-2.6 2.6"/>
   <path d="m12.115 31.921 2.54 2.54"/>
   <path d="m12.115 26.781v5.14"/>
   <path d="m35.928 26.781v5.14"/>
   <path d="m35.928 31.921 2.54 2.54"/>
   <path d="m14.655 37.261h23.812"/>
  </g>
  <g stroke="#8BE9FD" stroke-width=".15">
   <text x="4.8750" y="1.3482" font-size="1.3333" opacity="0" stroke-opacity="0" text-anchor="middle" lengthAdjust="spacingAndGlyphs" textLength="3.2976">SW1</text>
   <g class="stroked-text">
    <desc>SW1</desc>
    <path d="m3.5417 1.2554 0.1428 0.0477"/>
    <path d="m3.6845 1.3031h0.2381"/>
    <path d="m3.9226 1.3031 0.0953-0.0477"/>
    <path d="m4.0179 1.2554 0.0476-0.0476"/>
    <path d="m4.0655 1.2078 0.0476-0.0952"/>
    <path d="m4.1131 1.1126v-0.0952"/>
    <path d="m4.1131 1.0174-0.0476-0.0953"/>
    <path d="m4.0655 0.9221-0.0476-0.0476"/>
    <path d="m4.0179 0.8745-0.0953-0.0476"/>
    <path d="m3.9226 0.8269-0.1905-0.0476"/>
    <path d="m3.7321 0.7793-0.0952-0.0477"/>
    <path d="m3.6369 0.7316-0.0476-0.0476"/>
    <path d="m3.5893 0.684-0.0476-0.0952"/>
    <path d="m3.5417 0.5888v-0.0953"/>
    <path d="m3.5417 0.4935 0.0476-0.0952"/>
    <path d="m3.5893 0.3983 0.0476-0.0476"/>
    <path d="m3.6369 0.3507 0.0952-0.0476"/>
    <path d="m3.7321 0.3031h0.2381"/>
    <path d="m3.9702 0.3031 0.1429 0.0476"/>
    <path d="m4.4464 0.3031 0.2381 1"/>
    <path d="m4.6845 1.3031 0.1905-0.7143"/>
    <path d="m4.875 0.5888 0.1905 0.7143"/>
    <path d="m5.0655 1.3031 0.2381-1"/>
    <path d="m6.2083 1.3031h-0.5714"/>
    <path d="m5.9226 1.3031v-1"/>
    <path d="m5.9226 0.3031-0.0952 0.1428"/>
    <path d="m5.8274 0.4459-0.0953 0.0953"/>
    <path d="m5.7321 0.5412-0.0952 0.0476"/>
   </g>
   <text x="33.3875" y="24.3607" font-size="1.3333" opacity="0" stroke-opacity="0" text-anchor="middle" lengthAdjust="spacingAndGlyphs" textLength="3.2976">SW4</text>
   <g class="stroked-text">
    <desc>SW4</desc>
    <path d="m32.054 24.268 0.1428 0.0477"/>
    <path d="m32.197 24.316h0.2381"/>
    <path d="m32.435 24.316 0.0953-0.0477"/>
    <path d="m32.53 24.268 0.0476-0.0476"/>
    <path d="m32.578 24.22 0.0476-0.0952"/>
    <path d="m32.626 24.125v-0.0952"/>
    <path d="m32.626 24.03-0.0476-0.0953"/>
    <path d="m32.578 23.935-0.0476-0.0476"/>
    <path d="m32.53 23.887-0.0953-0.0476"/>
    <path d="m32.435 23.839-0.1905-0.0476"/>
    <path d="m32.245 23.792-0.0952-0.0477"/>
    <path d="m32.149 23.744-0.0476-0.0476"/>
    <path d="m32.102 23.696-0.0476-0.0952"/>
    <path d="m32.054 23.601v-0.0953"/>
    <path d="m32.054 23.506 0.0476-0.0952"/>
    <path d="m32.102 23.411 0.0476-0.0476"/>
    <path d="m32.149 23.363 0.0952-0.0476"/>
    <path d="m32.245 23.316h0.2381"/>
    <path d="m32.483 23.316 0.1429 0.0476"/>
    <path d="m32.959 23.316 0.2381 1"/>
    <path d="m33.197 24.316 0.1905-0.7143"/>
    <path d="m33.388 23.601 0.1905 0.7143"/>
    <path d="m33.578 24.316 0.2381-1"/>
    <path d="m34.626 23.649v0.6667"/>
    <path d="m34.388 23.268-0.2381 0.7143"/>
    <path d="m34.149 23.982h0.6191"/>
   </g>
   <text x="9.5750" y="24.3607" font-size="1.3333" opacity="0" stroke-opacity="0" text-anchor="middle" lengthAdjust="spacingAndGlyphs" textLength="3.2976">SW3</text>
   <g class="stroked-text">
    <desc>SW3</desc>
    <path d="m8.2417 24.268 0.1428 0.0477"/>
    <path d="m8.3845 24.316h0.2381"/>
    <path d="m8.6226 24.316 0.0953-0.0477"/>
    <path d="m8.7179 24.268 0.0476-0.0476"/>
    <path d="m8.7655 24.22 0.0476-0.0952"/>
    <path d="m8.8131 24.125v-0.0952"/>
    <path d="m8.8131 24.03-0.0476-0.0953"/>
    <path d="m8.7655 23.935-0.0476-0.0476"/>
    <path d="m8.7179 23.887-0.0953-0.0476"/>
    <path d="m8.6226 23.839-0.1905-0.0476"/>
    <path d="m8.4321 23.792-0.0952-0.0477"/>
    <path d="m8.3369 23.744-0.0476-0.0476"/>
    <path d="m8.2893 23.696-0.0476-0.0952"/>
    <path d="m8.2417 23.601v-0.0953"/>
    <path d="m8.2417 23.506 0.0476-0.0952"/>
    <path d="m8.2893 23.411 0.0476-0.0476"/>
    <path d="m8.3369 23.363 0.0952-0.0476"/>
    <path d="m8.4321 23.316h0.2381"/>
    <path d="m8.6702 23.316 0.1429 0.0476"/>
    <path d="m9.1464 23.316 0.2381 1"/>
    <path d="m9.3845 24.316 0.1905-0.7143"/>
    <path d="m9.575 23.601 0.1905 0.7143"/>
    <path d="m9.7655 24.316 0.2381-1"/>
    <path d="m10.289 23.316h0.619"/>
    <path d="m10.908 23.316-0.3333 0.3809"/>
    <path d="m10.575 23.696h0.1429"/>
    <path d="m10.718 23.696 0.0952 0.0476"/>
    <path d="m10.813 23.744 0.0476 0.0477"/>
    <path d="m10.861 23.792 0.0476 0.0952"/>
    <path d="m10.908 23.887v0.2381"/>
    <path d="m10.908 24.125-0.0476 0.0952"/>
    <path d="m10.861 24.22-0.0476 0.0476"/>
    <path d="m10.813 24.268-0.0952 0.0477"/>
    <path d="m10.718 24.316h-0.2858"/>
    <path d="m10.432 24.316-0.0952-0.0477"/>
    <path d="m10.337 24.268-0.0476-0.0476"/>
   </g>
   <text x="28.6875" y="1.3482" font-size="1.3333" opacity="0" stroke-opacity="0" text-anchor="middle" lengthAdjust="spacingAndGlyphs" textLength="3.2976">SW2</text>
   <g class="stroked-text">
    <desc>SW2</desc>
    <path d="m27.354 1.2554 0.1428 0.0477"/>
    <path d="m27.497 1.3031h0.2381"/>
    <path d="m27.735 1.3031 0.0953-0.0477"/>
    <path d="m27.83 1.2554 0.0476-0.0476"/>
    <path d="m27.878 1.2078 0.0476-0.0952"/>
    <path d="m27.926 1.1126v-0.0952"/>
    <path d="m27.926 1.0174-0.0476-0.0953"/>
    <path d="m27.878 0.9221-0.0476-0.0476"/>
    <path d="m27.83 0.8745-0.0953-0.0476"/>
    <path d="m27.735 0.8269-0.1905-0.0476"/>
    <path d="m27.545 0.7793-0.0952-0.0477"/>
    <path d="m27.449 0.7316-0.0476-0.0476"/>
    <path d="m27.402 0.684-0.0476-0.0952"/>
    <path d="m27.354 0.5888v-0.0953"/>
    <path d="m27.354 0.4935 0.0476-0.0952"/>
    <path d="m27.402 0.3983 0.0476-0.0476"/>
    <path d="m27.449 0.3507 0.0952-0.0476"/>
    <path d="m27.545 0.3031h0.2381"/>
    <path d="m27.783 0.3031 0.1429 0.0476"/>
    <path d="m28.259 0.3031 0.2381 1"/>
    <path d="m28.497 1.3031 0.1905-0.7143"/>
    <path d="m28.688 0.5888 0.1905 0.7143"/>
    <path d="m28.878 1.3031 0.2381-1"/>
    <path d="m29.449 0.3983 0.0476-0.0476"/>
    <path d="m29.497 0.3507 0.0953-0.0476"/>
    <path d="m29.592 0.3031h0.2381"/>
    <path d="m29.83 0.3031 0.0952 0.0476"/>
    <path d="m29.926 0.3507 0.0476 0.0476"/>
    <path d="m29.973 0.3983 0.0476 0.0952"/>
    <path d="m30.021 0.4935v0.0953"/>
    <path d="m30.021 0.5888-0.0476 0.1428"/>
    <path d="m29.973 0.7316-0.5714 0.5715"/>
    <path d="m29.402 1.3031h0.619"/>
   </g>
  </g>
  <g stroke="#8BE9FD" stroke-width=".12">
   <path d="m1.775 3.9482h0.6"/>
   <path d="m2.075 4.2482-0.3-0.3"/>
   <path d="m2.375 3.9482-0.3 0.3"/>
   <path d="m3.475 2.1482v11.8"/>
   <path d="m7.575 2.1482h-4.1"/>
   <path d="m7.575 13.948h-4.1"/>
   <path d="m9.075 8.0482h1"/>
   <path d="m9.575 7.5482v1"/>
   <path d="m11.575 2.1482h4.1"/>
   <path d="m15.675 2.1482v2.4"/>
   <path d="m15.675 6.7482v2.6001"/>
   <path d="m15.675 11.548v2.4"/>
   <path d="m15.675 13.948h-4.1"/>
   <circle cx="9.575" cy="8.0482" r="3"/>
   <path d="m26.288 24.761v14.2"/>
   <path d="m26.288 38.961h14.2"/>
   <path d="m40.488 24.761h-14.2"/>
   <path d="m40.488 38.961v-14.2"/>
   <path d="m2.475 24.761v14.2"/>
   <path d="m2.475 38.961h14.2"/>
   <path d="m16.675 24.761h-14.2"/>
   <path d="m16.675 38.961v-14.2"/>
   <path d="m25.588 3.9482h0.6"/>
   <path d="m25.888 4.2482-0.3-0.3"/>
   <path d="m26.188 3.9482-0.3 0.3"/>
   <path d="m27.288 2.1482v11.8"/>
   <path d="m31.388 2.1482h-4.1"/>
   <path d="m31.388 13.948h-4.1"/>
   <path d="m32.888 8.0482h1"/>
   <path d="m33.388 7.5482v1"/>
   <path d="m35.388 2.1482h4.1"/>
   <path d="m39.488 2.1482v2.4"/>
   <path d="m39.488 6.7482v2.6001"/>
   <path d="m39.488 11.548v2.4"/>
   <path d="m39.488 13.948h-4.1"/>
   <circle cx="33.388" cy="8.0482" r="3"/>
  </g>
  <g stroke="#BD93F9" stroke-width=".15">
   <g transform="rotate(-90 32.872 9.6753)">
    <text transform="scale(-1 1) translate(-65.745)" x="32.8725" y="10.1753" font-size="1.3333" opacity="0" stroke-opacity="0" text-anchor="middle" lengthAdjust="spacingAndGlyphs" textLength="2.2024">D2</text>
   </g>
   <g class="stroked-text">
    <desc>D2</desc>
    <path d="m33.327 8.9372h-1"/>
    <path d="m32.327 8.9372v0.2381"/>
    <path d="m32.327 9.1753 0.0476 0.1428"/>
    <path d="m32.375 9.3181 0.0953 0.0952"/>
    <path d="m32.47 9.4133 0.0952 0.0477"/>
    <path d="m32.565 9.461 0.1905 0.0476"/>
    <path d="m32.756 9.5086h0.1428"/>
    <path d="m32.899 9.5086 0.1905-0.0476"/>
    <path d="m33.089 9.461 0.0953-0.0477"/>
    <path d="m33.184 9.4133 0.0952-0.0952"/>
    <path d="m33.28 9.3181 0.0476-0.1428"/>
    <path d="m33.327 9.1753v-0.2381"/>
    <path d="m32.423 9.8895-0.0477 0.0477"/>
    <path d="m32.375 9.9372-0.0476 0.0952"/>
    <path d="m32.327 10.032v0.2381"/>
    <path d="m32.327 10.27 0.0476 0.0952"/>
    <path d="m32.375 10.366 0.0477 0.0476"/>
    <path d="m32.423 10.413 0.0952 0.0477"/>
    <path d="m32.518 10.461h0.0952"/>
    <path d="m32.613 10.461 0.1429-0.0477"/>
    <path d="m32.756 10.413 0.5714-0.5714"/>
    <path d="m33.327 9.8419v0.6191"/>
   </g>
   <g transform="rotate(-90 9.06 9.6753)">
    <text transform="scale(-1 1) translate(-18.12)" x="9.0600" y="10.1753" font-size="1.3333" opacity="0" stroke-opacity="0" text-anchor="middle" lengthAdjust="spacingAndGlyphs" textLength="2.2024">D1</text>
   </g>
   <g class="stroked-text">
    <desc>D1</desc>
    <path d="m9.5148 8.9372h-1"/>
    <path d="m8.5148 8.9372v0.2381"/>
    <path d="m8.5148 9.1753 0.0476 0.1428"/>
    <path d="m8.5624 9.3181 0.0953 0.0952"/>
    <path d="m8.6577 9.4133 0.0952 0.0477"/>
    <path d="m8.7529 9.461 0.1905 0.0476"/>
    <path d="m8.9434 9.5086h0.1428"/>
    <path d="m9.0862 9.5086 0.1905-0.0476"/>
    <path d="m9.2767 9.461 0.0953-0.0477"/>
    <path d="m9.372 9.4133 0.0952-0.0952"/>
    <path d="m9.4672 9.3181 0.0476-0.1428"/>
    <path d="m9.5148 9.1753v-0.2381"/>
    <path d="m9.5148 10.461v-0.5715"/>
    <path d="m9.5148 10.175h-1"/>
    <path d="m8.5148 10.175 0.1429-0.0953"/>
    <path d="m8.6577 10.08 0.0952-0.0952"/>
    <path d="m8.7529 9.9848 0.0476-0.0953"/>
   </g>
   <g transform="rotate(-90 40.372 35.988)">
    <text transform="scale(-1 1) translate(-80.745)" x="40.3725" y="36.4877" font-size="1.3333" opacity="0" stroke-opacity="0" text-anchor="middle" lengthAdjust="spacingAndGlyphs" textLength="2.2024">D4</text>
   </g>
   <g class="stroked-text">
    <desc>D4</desc>
    <path d="m40.827 35.25h-1"/>
    <path d="m39.827 35.25v0.238"/>
    <path d="m39.827 35.488 0.0476 0.1429"/>
    <path d="m39.875 35.631 0.0953 0.0952"/>
    <path d="m39.97 35.726 0.0952 0.0477"/>
    <path d="m40.065 35.774 0.1905 0.0476"/>
    <path d="m40.256 35.821h0.1428"/>
    <path d="m40.399 35.821 0.1905-0.0476"/>
    <path d="m40.589 35.774 0.0953-0.0477"/>
    <path d="m40.684 35.726 0.0952-0.0952"/>
    <path d="m40.78 35.631 0.0476-0.1429"/>
    <path d="m40.827 35.488v-0.238"/>
    <path d="m40.161 36.678h0.6666"/>
    <path d="m39.78 36.44 0.7143-0.2381"/>
    <path d="m40.494 36.202v0.6191"/>
   </g>
   <g transform="rotate(-90 16.56 35.988)">
    <text transform="scale(-1 1) translate(-33.12)" x="16.5600" y="36.4877" font-size="1.3333" opacity="0" stroke-opacity="0" text-anchor="middle" lengthAdjust="spacingAndGlyphs" textLength="2.2024">D3</text>
   </g>
   <g class="stroked-text">
    <desc>D3</desc>
    <path d="m17.015 35.25h-1"/>
    <path d="m16.015 35.25v0.238"/>
    <path d="m16.015 35.488 0.0476 0.1429"/>
    <path d="m16.062 35.631 0.0953 0.0952"/>
    <path d="m16.158 35.726 0.0952 0.0477"/>
    <path d="m16.253 35.774 0.1905 0.0476"/>
    <path d="m16.443 35.821h0.1428"/>
    <path d="m16.586 35.821 0.1905-0.0476"/>
    <path d="m16.777 35.774 0.0953-0.0477"/>
    <path d="m16.872 35.726 0.0952-0.0952"/>
    <path d="m16.967 35.631 0.0476-0.1429"/>
    <path d="m17.015 35.488v-0.238"/>
    <path d="m16.015 36.154v0.6191"/>
    <path d="m16.015 36.774 0.381-0.3334"/>
    <path d="m16.396 36.44v0.1429"/>
    <path d="m16.396 36.583 0.0476 0.0952"/>
    <path d="m16.443 36.678 0.0476 0.0476"/>
    <path d="m16.491 36.726 0.0952 0.0477"/>
    <path d="m16.586 36.774h0.2381"/>
    <path d="m16.824 36.774 0.0953-0.0477"/>
    <path d="m16.92 36.726 0.0476-0.0476"/>
    <path d="m16.967 36.678 0.0476-0.0952"/>
    <path d="m17.015 36.583v-0.2857"/>
    <path d="m17.015 36.297-0.0476-0.0953"/>
    <path d="m16.967 36.202-0.0476-0.0476"/>
   </g>
  </g>
  <g stroke="#BD93F9" stroke-width=".12">
   <path d="m29.968 11.758v-3.8601"/>
   <path d="m31.968 11.758h-2"/>
   <path d="m31.968 11.758v-3.8601"/>
   <path d="m6.155 11.758v-3.8601"/>
   <path d="m8.155 11.758h-2"/>
   <path d="m8.155 11.758v-3.8601"/>
   <path d="m37.468 38.071v-3.86"/>
   <path d="m39.468 38.071h-2"/>
   <path d="m39.468 38.071v-3.86"/>
   <path d="m13.655 38.071v-3.86"/>
   <path d="m15.655 38.071h-2"/>
   <path d="m15.655 38.071v-3.86"/>
  </g>
 </g>
 <g fill="#fff">
  <circle cx="2.075" cy="5.5482" r=".5"/>
  <circle cx="2.075" cy="10.548" r=".5"/>
  <circle cx="2.075" cy="8.0482" r=".5"/>
 </g>
 <g fill="none" stroke="#fff" stroke-linecap="round" stroke-linejoin="round" stroke-width="1.5">
  <path d="m8.925 2.4482h1.3"/>
  <path d="m8.925 13.648h1.3"/>
 </g>
 <g fill="#fff">
  <circle cx="16.575" cy="10.548" r=".5"/>
  <circle cx="16.575" cy="5.5482" r=".5"/>
  <circle cx="28.308" cy="31.861" r=".875"/>
  <circle cx="33.388" cy="31.861" r="2"/>
  <circle cx="38.468" cy="31.861" r=".875"/>
  <circle cx="29.578" cy="29.321" r=".75"/>
  <circle cx="35.928" cy="26.781" r=".75"/>
  <circle cx="4.495" cy="31.861" r=".875"/>
  <circle cx="9.575" cy="31.861" r="2"/>
  <circle cx="14.655" cy="31.861" r=".875"/>
  <circle cx="5.765" cy="29.321" r=".75"/>
  <circle cx="12.115" cy="26.781" r=".75"/>
  <circle cx="25.888" cy="5.5482" r=".5"/>
  <circle cx="25.888" cy="10.548" r=".5"/>
  <circle cx="25.888" cy="8.0482" r=".5"/>
 </g>
 <g fill="none" stroke="#fff" stroke-linecap="round" stroke-linejoin="round" stroke-width="1.5">
  <path d="m32.738 2.4482h1.3"/>
  <path d="m32.738 13.648h1.3"/>
 </g>
 <g fill="#fff">
  <circle cx="40.388" cy="10.548" r=".5"/>
  <circle cx="40.388" cy="5.5482" r=".5"/>
 </g>
</svg>
