<?xml version="1.0" encoding="UTF-8"?>
<!DOCTYPE svg  PUBLIC '-//W3C//DTD SVG 1.1//EN'  'http://www.w3.org/Graphics/SVG/1.1/DTD/svg11.dtd'>
<svg width="100.1mm" height="57.226mm" version="1.1" viewBox="0 0 100.1 57.226" xmlns="http://www.w3.org/2000/svg">
 <title>SVG Image created as fme-render.svg date 2025/09/05 18:34:05</title>
 <desc>Image generated by PCBNEW</desc>
 <rect width="100.1mm" height="57.226mm" fill="#282A36"/>
 <g fill="none" stroke="#8BE9FD" stroke-linecap="round" stroke-linejoin="round" stroke-width=".15">
  <text x="85.7750" y="2.0750" font-size="1.3333" opacity="0" stroke-opacity="0" text-anchor="middle" lengthAdjust="spacingAndGlyphs" textLength="3.2976">SW6</text>
  <g class="stroked-text">
   <desc>SW6</desc>
   <path d="m84.442 1.9822 0.1428 0.0476"/>
   <path d="m84.584 2.0298h0.2381"/>
   <path d="m84.823 2.0298 0.0953-0.0476"/>
   <path d="m84.918 1.9822 0.0476-0.0476"/>
   <path d="m84.966 1.9346 0.0476-0.0953"/>
   <path d="m85.013 1.8393v-0.0952"/>
   <path d="m85.013 1.7441-0.0476-0.0952"/>
   <path d="m84.966 1.6489-0.0476-0.0477"/>
   <path d="m84.918 1.6012-0.0953-0.0476"/>
   <path d="m84.823 1.5536-0.1905-0.0476"/>
   <path d="m84.632 1.506-0.0952-0.0476"/>
   <path d="m84.537 1.4584-0.0476-0.0476"/>
   <path d="m84.489 1.4108-0.0476-0.0953"/>
   <path d="m84.442 1.3155v-0.0952"/>
   <path d="m84.442 1.2203 0.0476-0.0952"/>
   <path d="m84.489 1.1251 0.0476-0.0477"/>
   <path d="m84.537 1.0774 0.0952-0.0476"/>
   <path d="m84.632 1.0298h0.2381"/>
   <path d="m84.87 1.0298 0.1429 0.0476"/>
   <path d="m85.346 1.0298 0.2381 1"/>
   <path d="m85.584 2.0298 0.1905-0.7143"/>
   <path d="m85.775 1.3155 0.1905 0.7143"/>
   <path d="m85.966 2.0298 0.2381-1"/>
   <path d="m87.013 1.0298h-0.1905"/>
   <path d="m86.823 1.0298-0.0952 0.0476"/>
   <path d="m86.727 1.0774-0.0476 0.0477"/>
   <path d="m86.68 1.1251-0.0953 0.1428"/>
   <path d="m86.584 1.2679-0.0476 0.1905"/>
   <path d="m86.537 1.4584v0.3809"/>
   <path d="m86.537 1.8393 0.0476 0.0953"/>
   <path d="m86.584 1.9346 0.0476 0.0476"/>
   <path d="m86.632 1.9822 0.0953 0.0476"/>
   <path d="m86.727 2.0298h0.1905"/>
   <path d="m86.918 2.0298 0.0952-0.0476"/>
   <path d="m87.013 1.9822 0.0476-0.0476"/>
   <path d="m87.061 1.9346 0.0476-0.0953"/>
   <path d="m87.108 1.8393v-0.2381"/>
   <path d="m87.108 1.6012-0.0476-0.0952"/>
   <path d="m87.061 1.506-0.0476-0.0476"/>
   <path d="m87.013 1.4584-0.0952-0.0476"/>
   <path d="m86.918 1.4108h-0.1905"/>
   <path d="m86.727 1.4108-0.0953 0.0476"/>
   <path d="m86.632 1.4584-0.0476 0.0476"/>
   <path d="m86.584 1.506-0.0476 0.0952"/>
  </g>
  <text x="33.3875" y="21.1250" font-size="1.3333" opacity="0" stroke-opacity="0" text-anchor="middle" lengthAdjust="spacingAndGlyphs" textLength="3.2976">SW5</text>
  <g class="stroked-text">
   <desc>SW5</desc>
   <path d="m32.054 21.032 0.1428 0.0476"/>
   <path d="m32.197 21.08h0.2381"/>
   <path d="m32.435 21.08 0.0953-0.0476"/>
   <path d="m32.53 21.032 0.0476-0.0476"/>
   <path d="m32.578 20.985 0.0476-0.0953"/>
   <path d="m32.626 20.889v-0.0952"/>
   <path d="m32.626 20.794-0.0476-0.0952"/>
   <path d="m32.578 20.699-0.0476-0.0477"/>
   <path d="m32.53 20.651-0.0953-0.0476"/>
   <path d="m32.435 20.604-0.1905-0.0476"/>
   <path d="m32.245 20.556-0.0952-0.0476"/>
   <path d="m32.149 20.508-0.0476-0.0476"/>
   <path d="m32.102 20.461-0.0476-0.0953"/>
   <path d="m32.054 20.366v-0.0952"/>
   <path d="m32.054 20.27 0.0476-0.0952"/>
   <path d="m32.102 20.175 0.0476-0.0477"/>
   <path d="m32.149 20.127 0.0952-0.0476"/>
   <path d="m32.245 20.08h0.2381"/>
   <path d="m32.483 20.08 0.1429 0.0476"/>
   <path d="m32.959 20.08 0.2381 1"/>
   <path d="m33.197 21.08 0.1905-0.7143"/>
   <path d="m33.388 20.366 0.1905 0.7143"/>
   <path d="m33.578 21.08 0.2381-1"/>
   <path d="m34.673 20.08h-0.4762"/>
   <path d="m34.197 20.08-0.0476 0.4762"/>
   <path d="m34.149 20.556 0.0476-0.0476"/>
   <path d="m34.197 20.508 0.0953-0.0476"/>
   <path d="m34.292 20.461h0.2381"/>
   <path d="m34.53 20.461 0.0952 0.0476"/>
   <path d="m34.626 20.508 0.0476 0.0476"/>
   <path d="m34.673 20.556 0.0476 0.0952"/>
   <path d="m34.721 20.651v0.2381"/>
   <path d="m34.721 20.889-0.0476 0.0953"/>
   <path d="m34.673 20.985-0.0476 0.0476"/>
   <path d="m34.626 21.032-0.0952 0.0476"/>
   <path d="m34.53 21.08h-0.2381"/>
   <path d="m34.292 21.08-0.0953-0.0476"/>
   <path d="m34.197 21.032-0.0476-0.0476"/>
  </g>
  <text x="28.6250" y="2.0750" font-size="1.3333" opacity="0" stroke-opacity="0" text-anchor="middle" lengthAdjust="spacingAndGlyphs" textLength="3.2976">SW9</text>
  <g class="stroked-text">
   <desc>SW9</desc>
   <path d="m27.292 1.9822 0.1428 0.0476"/>
   <path d="m27.434 2.0298h0.2381"/>
   <path d="m27.673 2.0298 0.0953-0.0476"/>
   <path d="m27.768 1.9822 0.0476-0.0476"/>
   <path d="m27.816 1.9346 0.0476-0.0953"/>
   <path d="m27.863 1.8393v-0.0952"/>
   <path d="m27.863 1.7441-0.0476-0.0952"/>
   <path d="m27.816 1.6489-0.0476-0.0477"/>
   <path d="m27.768 1.6012-0.0953-0.0476"/>
   <path d="m27.673 1.5536-0.1905-0.0476"/>
   <path d="m27.482 1.506-0.0952-0.0476"/>
   <path d="m27.387 1.4584-0.0476-0.0476"/>
   <path d="m27.339 1.4108-0.0476-0.0953"/>
   <path d="m27.292 1.3155v-0.0952"/>
   <path d="m27.292 1.2203 0.0476-0.0952"/>
   <path d="m27.339 1.1251 0.0476-0.0477"/>
   <path d="m27.387 1.0774 0.0952-0.0476"/>
   <path d="m27.482 1.0298h0.2381"/>
   <path d="m27.72 1.0298 0.1429 0.0476"/>
   <path d="m28.196 1.0298 0.2381 1"/>
   <path d="m28.434 2.0298 0.1905-0.7143"/>
   <path d="m28.625 1.3155 0.1905 0.7143"/>
   <path d="m28.816 2.0298 0.2381-1"/>
   <path d="m29.482 2.0298h0.1905"/>
   <path d="m29.673 2.0298 0.0953-0.0476"/>
   <path d="m29.768 1.9822 0.0476-0.0476"/>
   <path d="m29.816 1.9346 0.0952-0.1429"/>
   <path d="m29.911 1.7917 0.0476-0.1905"/>
   <path d="m29.958 1.6012v-0.3809"/>
   <path d="m29.958 1.2203-0.0476-0.0952"/>
   <path d="m29.911 1.1251-0.0476-0.0477"/>
   <path d="m29.863 1.0774-0.0952-0.0476"/>
   <path d="m29.768 1.0298h-0.1905"/>
   <path d="m29.577 1.0298-0.0953 0.0476"/>
   <path d="m29.482 1.0774-0.0476 0.0477"/>
   <path d="m29.434 1.1251-0.0476 0.0952"/>
   <path d="m29.387 1.2203v0.2381"/>
   <path d="m29.387 1.4584 0.0476 0.0952"/>
   <path d="m29.434 1.5536 0.0476 0.0476"/>
   <path d="m29.482 1.6012 0.0953 0.0477"/>
   <path d="m29.577 1.6489h0.1905"/>
   <path d="m29.768 1.6489 0.0952-0.0477"/>
   <path d="m29.863 1.6012 0.0476-0.0476"/>
   <path d="m29.911 1.5536 0.0476-0.0952"/>
  </g>
  <text x="47.6750" y="2.0750" font-size="1.3333" opacity="0" stroke-opacity="0" text-anchor="middle" lengthAdjust="spacingAndGlyphs" textLength="4.2500">SW10</text>
  <g class="stroked-text">
   <desc>SW10</desc>
   <path d="m45.866 1.9822 0.1428 0.0476"/>
   <path d="m46.008 2.0298h0.2381"/>
   <path d="m46.246 2.0298 0.0953-0.0476"/>
   <path d="m46.342 1.9822 0.0476-0.0476"/>
   <path d="m46.389 1.9346 0.0476-0.0953"/>
   <path d="m46.437 1.8393v-0.0952"/>
   <path d="m46.437 1.7441-0.0476-0.0952"/>
   <path d="m46.389 1.6489-0.0476-0.0477"/>
   <path d="m46.342 1.6012-0.0953-0.0476"/>
   <path d="m46.246 1.5536-0.1904-0.0476"/>
   <path d="m46.056 1.506-0.0953-0.0476"/>
   <path d="m45.961 1.4584-0.0476-0.0476"/>
   <path d="m45.913 1.4108-0.0476-0.0953"/>
   <path d="m45.866 1.3155v-0.0952"/>
   <path d="m45.866 1.2203 0.0476-0.0952"/>
   <path d="m45.913 1.1251 0.0476-0.0477"/>
   <path d="m45.961 1.0774 0.0953-0.0476"/>
   <path d="m46.056 1.0298h0.238"/>
   <path d="m46.294 1.0298 0.1429 0.0476"/>
   <path d="m46.77 1.0298 0.2381 1"/>
   <path d="m47.008 2.0298 0.1905-0.7143"/>
   <path d="m47.199 1.3155 0.1905 0.7143"/>
   <path d="m47.389 2.0298 0.2381-1"/>
   <path d="m48.532 2.0298h-0.5714"/>
   <path d="m48.246 2.0298v-1"/>
   <path d="m48.246 1.0298-0.0952 0.1429"/>
   <path d="m48.151 1.1727-0.0952 0.0952"/>
   <path d="m48.056 1.2679-0.0953 0.0476"/>
   <path d="m49.151 1.0298h0.0952"/>
   <path d="m49.246 1.0298 0.0953 0.0476"/>
   <path d="m49.342 1.0774 0.0476 0.0477"/>
   <path d="m49.389 1.1251 0.0476 0.0952"/>
   <path d="m49.437 1.2203 0.0476 0.1905"/>
   <path d="m49.484 1.4108v0.2381"/>
   <path d="m49.484 1.6489-0.0476 0.1904"/>
   <path d="m49.437 1.8393-0.0476 0.0953"/>
   <path d="m49.389 1.9346-0.0476 0.0476"/>
   <path d="m49.342 1.9822-0.0953 0.0476"/>
   <path d="m49.246 2.0298h-0.0952"/>
   <path d="m49.151 2.0298-0.0952-0.0476"/>
   <path d="m49.056 1.9822-0.0477-0.0476"/>
   <path d="m49.008 1.9346-0.0476-0.0953"/>
   <path d="m48.961 1.8393-0.0476-0.1904"/>
   <path d="m48.913 1.6489v-0.2381"/>
   <path d="m48.913 1.4108 0.0476-0.1905"/>
   <path d="m48.961 1.2203 0.0476-0.0952"/>
   <path d="m49.008 1.1251 0.0477-0.0477"/>
   <path d="m49.056 1.0774 0.0952-0.0476"/>
  </g>
  <text x="66.7250" y="2.0750" font-size="1.3333" opacity="0" stroke-opacity="0" text-anchor="middle" lengthAdjust="spacingAndGlyphs" textLength="3.2976">SW8</text>
  <g class="stroked-text">
   <desc>SW8</desc>
   <path d="m65.392 1.9822 0.1428 0.0476"/>
   <path d="m65.534 2.0298h0.2381"/>
   <path d="m65.773 2.0298 0.0953-0.0476"/>
   <path d="m65.868 1.9822 0.0476-0.0476"/>
   <path d="m65.916 1.9346 0.0476-0.0953"/>
   <path d="m65.963 1.8393v-0.0952"/>
   <path d="m65.963 1.7441-0.0476-0.0952"/>
   <path d="m65.916 1.6489-0.0476-0.0477"/>
   <path d="m65.868 1.6012-0.0953-0.0476"/>
   <path d="m65.773 1.5536-0.1905-0.0476"/>
   <path d="m65.582 1.506-0.0952-0.0476"/>
   <path d="m65.487 1.4584-0.0476-0.0476"/>
   <path d="m65.439 1.4108-0.0476-0.0953"/>
   <path d="m65.392 1.3155v-0.0952"/>
   <path d="m65.392 1.2203 0.0476-0.0952"/>
   <path d="m65.439 1.1251 0.0476-0.0477"/>
   <path d="m65.487 1.0774 0.0952-0.0476"/>
   <path d="m65.582 1.0298h0.2381"/>
   <path d="m65.82 1.0298 0.1429 0.0476"/>
   <path d="m66.296 1.0298 0.2381 1"/>
   <path d="m66.534 2.0298 0.1905-0.7143"/>
   <path d="m66.725 1.3155 0.1905 0.7143"/>
   <path d="m66.916 2.0298 0.2381-1"/>
   <path d="m67.677 1.4584-0.0953-0.0476"/>
   <path d="m67.582 1.4108-0.0476-0.0476"/>
   <path d="m67.534 1.3632-0.0476-0.0953"/>
   <path d="m67.487 1.2679v-0.0476"/>
   <path d="m67.487 1.2203 0.0476-0.0952"/>
   <path d="m67.534 1.1251 0.0476-0.0477"/>
   <path d="m67.582 1.0774 0.0953-0.0476"/>
   <path d="m67.677 1.0298h0.1905"/>
   <path d="m67.868 1.0298 0.0952 0.0476"/>
   <path d="m67.963 1.0774 0.0476 0.0477"/>
   <path d="m68.011 1.1251 0.0476 0.0952"/>
   <path d="m68.058 1.2203v0.0476"/>
   <path d="m68.058 1.2679-0.0476 0.0953"/>
   <path d="m68.011 1.3632-0.0476 0.0476"/>
   <path d="m67.963 1.4108-0.0952 0.0476"/>
   <path d="m67.868 1.4584h-0.1905"/>
   <path d="m67.677 1.4584-0.0953 0.0476"/>
   <path d="m67.582 1.506-0.0476 0.0476"/>
   <path d="m67.534 1.5536-0.0476 0.0953"/>
   <path d="m67.487 1.6489v0.1904"/>
   <path d="m67.487 1.8393 0.0476 0.0953"/>
   <path d="m67.534 1.9346 0.0476 0.0476"/>
   <path d="m67.582 1.9822 0.0953 0.0476"/>
   <path d="m67.677 2.0298h0.1905"/>
   <path d="m67.868 2.0298 0.0952-0.0476"/>
   <path d="m67.963 1.9822 0.0476-0.0476"/>
   <path d="m68.011 1.9346 0.0476-0.0953"/>
   <path d="m68.058 1.8393v-0.1904"/>
   <path d="m68.058 1.6489-0.0476-0.0953"/>
   <path d="m68.011 1.5536-0.0476-0.0476"/>
   <path d="m67.963 1.506-0.0952-0.0476"/>
  </g>
  <text x="81.0125" y="40.1750" font-size="1.3333" opacity="0" stroke-opacity="0" text-anchor="middle" lengthAdjust="spacingAndGlyphs" textLength="4.2500">SW11</text>
  <g class="stroked-text">
   <desc>SW11</desc>
   <path d="m79.203 40.082 0.1428 0.0476"/>
   <path d="m79.346 40.13h0.2381"/>
   <path d="m79.584 40.13 0.0953-0.0476"/>
   <path d="m79.679 40.082 0.0476-0.0476"/>
   <path d="m79.727 40.035 0.0476-0.0953"/>
   <path d="m79.774 39.939v-0.0952"/>
   <path d="m79.774 39.844-0.0476-0.0952"/>
   <path d="m79.727 39.749-0.0476-0.0477"/>
   <path d="m79.679 39.701-0.0953-0.0476"/>
   <path d="m79.584 39.654-0.1904-0.0476"/>
   <path d="m79.394 39.606-0.0953-0.0476"/>
   <path d="m79.298 39.558-0.0476-0.0476"/>
   <path d="m79.251 39.511-0.0476-0.0953"/>
   <path d="m79.203 39.416v-0.0952"/>
   <path d="m79.203 39.32 0.0476-0.0952"/>
   <path d="m79.251 39.225 0.0476-0.0477"/>
   <path d="m79.298 39.177 0.0953-0.0476"/>
   <path d="m79.394 39.13h0.238"/>
   <path d="m79.632 39.13 0.1429 0.0476"/>
   <path d="m80.108 39.13 0.2381 1"/>
   <path d="m80.346 40.13 0.1905-0.7143"/>
   <path d="m80.536 39.416 0.1905 0.7143"/>
   <path d="m80.727 40.13 0.2381-1"/>
   <path d="m81.87 40.13h-0.5714"/>
   <path d="m81.584 40.13v-1"/>
   <path d="m81.584 39.13-0.0952 0.1429"/>
   <path d="m81.489 39.273-0.0952 0.0952"/>
   <path d="m81.394 39.368-0.0953 0.0476"/>
   <path d="m82.822 40.13h-0.5714"/>
   <path d="m82.536 40.13v-1"/>
   <path d="m82.536 39.13-0.0952 0.1429"/>
   <path d="m82.441 39.273-0.0953 0.0952"/>
   <path d="m82.346 39.368-0.0952 0.0476"/>
  </g>
  <text x="31.0062" y="40.1750" font-size="1.3333" opacity="0" stroke-opacity="0" text-anchor="middle" lengthAdjust="spacingAndGlyphs" textLength="4.2500">SW12</text>
  <g class="stroked-text">
   <desc>SW12</desc>
   <path d="m29.197 40.082 0.1429 0.0476"/>
   <path d="m29.34 40.13h0.2381"/>
   <path d="m29.578 40.13 0.0952-0.0476"/>
   <path d="m29.673 40.082 0.0476-0.0476"/>
   <path d="m29.72 40.035 0.0477-0.0953"/>
   <path d="m29.768 39.939v-0.0952"/>
   <path d="m29.768 39.844-0.0477-0.0952"/>
   <path d="m29.72 39.749-0.0476-0.0477"/>
   <path d="m29.673 39.701-0.0952-0.0476"/>
   <path d="m29.578 39.654-0.1905-0.0476"/>
   <path d="m29.387 39.606-0.0952-0.0476"/>
   <path d="m29.292 39.558-0.0477-0.0476"/>
   <path d="m29.244 39.511-0.0476-0.0953"/>
   <path d="m29.197 39.416v-0.0952"/>
   <path d="m29.197 39.32 0.0476-0.0952"/>
   <path d="m29.244 39.225 0.0477-0.0477"/>
   <path d="m29.292 39.177 0.0952-0.0476"/>
   <path d="m29.387 39.13h0.2381"/>
   <path d="m29.625 39.13 0.1429 0.0476"/>
   <path d="m30.102 39.13 0.2381 1"/>
   <path d="m30.34 40.13 0.1905-0.7143"/>
   <path d="m30.53 39.416 0.1904 0.7143"/>
   <path d="m30.72 40.13 0.2381-1"/>
   <path d="m31.863 40.13h-0.5714"/>
   <path d="m31.578 40.13v-1"/>
   <path d="m31.578 39.13-0.0953 0.1429"/>
   <path d="m31.482 39.273-0.0952 0.0952"/>
   <path d="m31.387 39.368-0.0952 0.0476"/>
   <path d="m32.244 39.225 0.0477-0.0477"/>
   <path d="m32.292 39.177 0.0952-0.0476"/>
   <path d="m32.387 39.13h0.2381"/>
   <path d="m32.625 39.13 0.0952 0.0476"/>
   <path d="m32.72 39.177 0.0477 0.0477"/>
   <path d="m32.768 39.225 0.0476 0.0952"/>
   <path d="m32.816 39.32v0.0952"/>
   <path d="m32.816 39.416-0.0476 0.1429"/>
   <path d="m32.768 39.558-0.5715 0.5714"/>
   <path d="m32.197 40.13h0.6191"/>
  </g>
  <text x="52.4375" y="21.1250" font-size="1.3333" opacity="0" stroke-opacity="0" text-anchor="middle" lengthAdjust="spacingAndGlyphs" textLength="3.2976">SW3</text>
  <g class="stroked-text">
   <desc>SW3</desc>
   <path d="m51.104 21.032 0.1428 0.0476"/>
   <path d="m51.247 21.08h0.2381"/>
   <path d="m51.485 21.08 0.0953-0.0476"/>
   <path d="m51.58 21.032 0.0476-0.0476"/>
   <path d="m51.628 20.985 0.0476-0.0953"/>
   <path d="m51.676 20.889v-0.0952"/>
   <path d="m51.676 20.794-0.0476-0.0952"/>
   <path d="m51.628 20.699-0.0476-0.0477"/>
   <path d="m51.58 20.651-0.0953-0.0476"/>
   <path d="m51.485 20.604-0.1905-0.0476"/>
   <path d="m51.295 20.556-0.0952-0.0476"/>
   <path d="m51.199 20.508-0.0476-0.0476"/>
   <path d="m51.152 20.461-0.0476-0.0953"/>
   <path d="m51.104 20.366v-0.0952"/>
   <path d="m51.104 20.27 0.0476-0.0952"/>
   <path d="m51.152 20.175 0.0476-0.0477"/>
   <path d="m51.199 20.127 0.0952-0.0476"/>
   <path d="m51.295 20.08h0.2381"/>
   <path d="m51.533 20.08 0.1429 0.0476"/>
   <path d="m52.009 20.08 0.2381 1"/>
   <path d="m52.247 21.08 0.1905-0.7143"/>
   <path d="m52.438 20.366 0.1905 0.7143"/>
   <path d="m52.628 21.08 0.2381-1"/>
   <path d="m53.152 20.08h0.619"/>
   <path d="m53.771 20.08-0.3333 0.381"/>
   <path d="m53.438 20.461h0.1429"/>
   <path d="m53.58 20.461 0.0952 0.0476"/>
   <path d="m53.676 20.508 0.0476 0.0476"/>
   <path d="m53.723 20.556 0.0476 0.0952"/>
   <path d="m53.771 20.651v0.2381"/>
   <path d="m53.771 20.889-0.0476 0.0953"/>
   <path d="m53.723 20.985-0.0476 0.0476"/>
   <path d="m53.676 21.032-0.0952 0.0476"/>
   <path d="m53.58 21.08h-0.2858"/>
   <path d="m53.295 21.08-0.0952-0.0476"/>
   <path d="m53.199 21.032-0.0476-0.0476"/>
  </g>
  <text x="90.5375" y="40.1750" font-size="1.3333" opacity="0" stroke-opacity="0" text-anchor="middle" lengthAdjust="spacingAndGlyphs" textLength="3.2976">SW2</text>
  <g class="stroked-text">
   <desc>SW2</desc>
   <path d="m89.204 40.082 0.1428 0.0476"/>
   <path d="m89.347 40.13h0.2381"/>
   <path d="m89.585 40.13 0.0953-0.0476"/>
   <path d="m89.68 40.082 0.0476-0.0476"/>
   <path d="m89.728 40.035 0.0476-0.0953"/>
   <path d="m89.776 39.939v-0.0952"/>
   <path d="m89.776 39.844-0.0476-0.0952"/>
   <path d="m89.728 39.749-0.0476-0.0477"/>
   <path d="m89.68 39.701-0.0953-0.0476"/>
   <path d="m89.585 39.654-0.1905-0.0476"/>
   <path d="m89.395 39.606-0.0952-0.0476"/>
   <path d="m89.299 39.558-0.0476-0.0476"/>
   <path d="m89.252 39.511-0.0476-0.0953"/>
   <path d="m89.204 39.416v-0.0952"/>
   <path d="m89.204 39.32 0.0476-0.0952"/>
   <path d="m89.252 39.225 0.0476-0.0477"/>
   <path d="m89.299 39.177 0.0952-0.0476"/>
   <path d="m89.395 39.13h0.2381"/>
   <path d="m89.633 39.13 0.1429 0.0476"/>
   <path d="m90.109 39.13 0.2381 1"/>
   <path d="m90.347 40.13 0.1905-0.7143"/>
   <path d="m90.538 39.416 0.1905 0.7143"/>
   <path d="m90.728 40.13 0.2381-1"/>
   <path d="m91.299 39.225 0.0476-0.0477"/>
   <path d="m91.347 39.177 0.0953-0.0476"/>
   <path d="m91.442 39.13h0.2381"/>
   <path d="m91.68 39.13 0.0952 0.0476"/>
   <path d="m91.776 39.177 0.0476 0.0477"/>
   <path d="m91.823 39.225 0.0476 0.0952"/>
   <path d="m91.871 39.32v0.0952"/>
   <path d="m91.871 39.416-0.0476 0.1429"/>
   <path d="m91.823 39.558-0.5714 0.5714"/>
   <path d="m91.252 40.13h0.619"/>
  </g>
  <text x="14.3375" y="21.1250" font-size="1.3333" opacity="0" stroke-opacity="0" text-anchor="middle" lengthAdjust="spacingAndGlyphs" textLength="3.2976">SW7</text>
  <g class="stroked-text">
   <desc>SW7</desc>
   <path d="m13.004 21.032 0.1428 0.0476"/>
   <path d="m13.147 21.08h0.2381"/>
   <path d="m13.385 21.08 0.0953-0.0476"/>
   <path d="m13.48 21.032 0.0476-0.0476"/>
   <path d="m13.528 20.985 0.0476-0.0953"/>
   <path d="m13.576 20.889v-0.0952"/>
   <path d="m13.576 20.794-0.0476-0.0952"/>
   <path d="m13.528 20.699-0.0476-0.0477"/>
   <path d="m13.48 20.651-0.0953-0.0476"/>
   <path d="m13.385 20.604-0.1905-0.0476"/>
   <path d="m13.195 20.556-0.0952-0.0476"/>
   <path d="m13.099 20.508-0.0476-0.0476"/>
   <path d="m13.052 20.461-0.0476-0.0953"/>
   <path d="m13.004 20.366v-0.0952"/>
   <path d="m13.004 20.27 0.0476-0.0952"/>
   <path d="m13.052 20.175 0.0476-0.0477"/>
   <path d="m13.099 20.127 0.0952-0.0476"/>
   <path d="m13.195 20.08h0.2381"/>
   <path d="m13.433 20.08 0.1429 0.0476"/>
   <path d="m13.909 20.08 0.2381 1"/>
   <path d="m14.147 21.08 0.1905-0.7143"/>
   <path d="m14.338 20.366 0.1905 0.7143"/>
   <path d="m14.528 21.08 0.2381-1"/>
   <path d="m15.052 20.08h0.6667"/>
   <path d="m15.718 20.08-0.4286 1"/>
  </g>
  <text x="81.0125" y="21.1250" font-size="1.3333" opacity="0" stroke-opacity="0" text-anchor="middle" lengthAdjust="spacingAndGlyphs" textLength="3.2976">SW4</text>
  <g class="stroked-text">
   <desc>SW4</desc>
   <path d="m79.679 21.032 0.1428 0.0476"/>
   <path d="m79.822 21.08h0.2381"/>
   <path d="m80.06 21.08 0.0953-0.0476"/>
   <path d="m80.155 21.032 0.0476-0.0476"/>
   <path d="m80.203 20.985 0.0476-0.0953"/>
   <path d="m80.251 20.889v-0.0952"/>
   <path d="m80.251 20.794-0.0476-0.0952"/>
   <path d="m80.203 20.699-0.0476-0.0477"/>
   <path d="m80.155 20.651-0.0953-0.0476"/>
   <path d="m80.06 20.604-0.1905-0.0476"/>
   <path d="m79.87 20.556-0.0952-0.0476"/>
   <path d="m79.774 20.508-0.0476-0.0476"/>
   <path d="m79.727 20.461-0.0476-0.0953"/>
   <path d="m79.679 20.366v-0.0952"/>
   <path d="m79.679 20.27 0.0476-0.0952"/>
   <path d="m79.727 20.175 0.0476-0.0477"/>
   <path d="m79.774 20.127 0.0952-0.0476"/>
   <path d="m79.87 20.08h0.2381"/>
   <path d="m80.108 20.08 0.1429 0.0476"/>
   <path d="m80.584 20.08 0.2381 1"/>
   <path d="m80.822 21.08 0.1905-0.7143"/>
   <path d="m81.012 20.366 0.1905 0.7143"/>
   <path d="m81.203 21.08 0.2381-1"/>
   <path d="m82.251 20.413v0.6666"/>
   <path d="m82.012 20.032-0.2381 0.7143"/>
   <path d="m81.774 20.746h0.6191"/>
  </g>
  <text x="9.5750" y="2.0750" font-size="1.3333" opacity="0" stroke-opacity="0" text-anchor="middle" lengthAdjust="spacingAndGlyphs" textLength="3.2976">SW1</text>
  <g class="stroked-text">
   <desc>SW1</desc>
   <path d="m8.2417 1.9822 0.1428 0.0476"/>
   <path d="m8.3845 2.0298h0.2381"/>
   <path d="m8.6226 2.0298 0.0953-0.0476"/>
   <path d="m8.7179 1.9822 0.0476-0.0476"/>
   <path d="m8.7655 1.9346 0.0476-0.0953"/>
   <path d="m8.8131 1.8393v-0.0952"/>
   <path d="m8.8131 1.7441-0.0476-0.0952"/>
   <path d="m8.7655 1.6489-0.0476-0.0477"/>
   <path d="m8.7179 1.6012-0.0953-0.0476"/>
   <path d="m8.6226 1.5536-0.1905-0.0476"/>
   <path d="m8.4321 1.506-0.0952-0.0476"/>
   <path d="m8.3369 1.4584-0.0476-0.0476"/>
   <path d="m8.2893 1.4108-0.0476-0.0953"/>
   <path d="m8.2417 1.3155v-0.0952"/>
   <path d="m8.2417 1.2203 0.0476-0.0952"/>
   <path d="m8.2893 1.1251 0.0476-0.0477"/>
   <path d="m8.3369 1.0774 0.0952-0.0476"/>
   <path d="m8.4321 1.0298h0.2381"/>
   <path d="m8.6702 1.0298 0.1429 0.0476"/>
   <path d="m9.1464 1.0298 0.2381 1"/>
   <path d="m9.3845 2.0298 0.1905-0.7143"/>
   <path d="m9.575 1.3155 0.1905 0.7143"/>
   <path d="m9.7655 2.0298 0.2381-1"/>
   <path d="m10.908 2.0298h-0.5714"/>
   <path d="m10.623 2.0298v-1"/>
   <path d="m10.623 1.0298-0.0952 0.1429"/>
   <path d="m10.527 1.1727-0.0953 0.0952"/>
   <path d="m10.432 1.2679-0.0952 0.0476"/>
  </g>
  <text x="71.4875" y="40.1750" font-size="1.3333" opacity="0" stroke-opacity="0" text-anchor="middle" lengthAdjust="spacingAndGlyphs" textLength="4.2500">SW13</text>
  <g class="stroked-text">
   <desc>SW13</desc>
   <path d="m69.678 40.082 0.1428 0.0476"/>
   <path d="m69.821 40.13h0.2381"/>
   <path d="m70.059 40.13 0.0953-0.0476"/>
   <path d="m70.154 40.082 0.0476-0.0476"/>
   <path d="m70.202 40.035 0.0476-0.0953"/>
   <path d="m70.249 39.939v-0.0952"/>
   <path d="m70.249 39.844-0.0476-0.0952"/>
   <path d="m70.202 39.749-0.0476-0.0477"/>
   <path d="m70.154 39.701-0.0953-0.0476"/>
   <path d="m70.059 39.654-0.1904-0.0476"/>
   <path d="m69.868 39.606-0.0953-0.0476"/>
   <path d="m69.773 39.558-0.0476-0.0476"/>
   <path d="m69.726 39.511-0.0476-0.0953"/>
   <path d="m69.678 39.416v-0.0952"/>
   <path d="m69.678 39.32 0.0476-0.0952"/>
   <path d="m69.726 39.225 0.0476-0.0477"/>
   <path d="m69.773 39.177 0.0953-0.0476"/>
   <path d="m69.868 39.13h0.238"/>
   <path d="m70.106 39.13 0.1429 0.0476"/>
   <path d="m70.583 39.13 0.2381 1"/>
   <path d="m70.821 40.13 0.1905-0.7143"/>
   <path d="m71.011 39.416 0.1905 0.7143"/>
   <path d="m71.202 40.13 0.2381-1"/>
   <path d="m72.345 40.13h-0.5714"/>
   <path d="m72.059 40.13v-1"/>
   <path d="m72.059 39.13-0.0952 0.1429"/>
   <path d="m71.964 39.273-0.0952 0.0952"/>
   <path d="m71.868 39.368-0.0953 0.0476"/>
   <path d="m72.678 39.13h0.619"/>
   <path d="m73.297 39.13-0.3333 0.381"/>
   <path d="m72.964 39.511h0.1428"/>
   <path d="m73.106 39.511 0.0953 0.0476"/>
   <path d="m73.202 39.558 0.0476 0.0476"/>
   <path d="m73.249 39.606 0.0476 0.0952"/>
   <path d="m73.297 39.701v0.2381"/>
   <path d="m73.297 39.939-0.0476 0.0953"/>
   <path d="m73.249 40.035-0.0476 0.0476"/>
   <path d="m73.202 40.082-0.0953 0.0476"/>
   <path d="m73.106 40.13h-0.2857"/>
   <path d="m72.821 40.13-0.0952-0.0476"/>
   <path d="m72.726 40.082-0.0476-0.0476"/>
  </g>
 </g>
 <g fill="none" stroke="#8BE9FD" stroke-linecap="round" stroke-linejoin="round" stroke-width=".12">
  <path d="m78.675 2.475v14.2"/>
  <path d="m78.675 16.675h14.2"/>
  <path d="m92.875 2.475h-14.2"/>
  <path d="m92.875 16.675v-14.2"/>
  <path d="m26.288 21.525v14.2"/>
  <path d="m26.288 35.725h14.2"/>
  <path d="m40.488 21.525h-14.2"/>
  <path d="m40.488 35.725v-14.2"/>
  <path d="m21.525 2.475v14.2"/>
  <path d="m21.525 16.675h14.2"/>
  <path d="m35.725 2.475h-14.2"/>
  <path d="m35.725 16.675v-14.2"/>
  <path d="m40.575 2.475v14.2"/>
  <path d="m40.575 16.675h14.2"/>
  <path d="m54.775 2.475h-14.2"/>
  <path d="m54.775 16.675v-14.2"/>
  <path d="m59.625 2.475v14.2"/>
  <path d="m59.625 16.675h14.2"/>
  <path d="m73.825 2.475h-14.2"/>
  <path d="m73.825 16.675v-14.2"/>
  <path d="m73.912 40.575v14.2"/>
  <path d="m73.912 54.775h14.2"/>
  <path d="m88.112 40.575h-14.2"/>
  <path d="m88.112 54.775v-14.2"/>
  <path d="m23.906 40.575v14.2"/>
  <path d="m23.906 54.775h14.2"/>
  <path d="m38.106 40.575h-14.2"/>
  <path d="m38.106 54.775v-14.2"/>
  <path d="m45.338 21.525v14.2"/>
  <path d="m45.338 35.725h14.2"/>
  <path d="m59.538 21.525h-14.2"/>
  <path d="m59.538 35.725v-14.2"/>
  <path d="m83.438 40.575v14.2"/>
  <path d="m83.438 54.775h14.2"/>
  <path d="m97.638 40.575h-14.2"/>
  <path d="m97.638 54.775v-14.2"/>
  <path d="m7.2375 21.525v14.2"/>
  <path d="m7.2375 35.725h14.2"/>
  <path d="m21.438 21.525h-14.2"/>
  <path d="m21.438 35.725v-14.2"/>
  <path d="m73.912 21.525v14.2"/>
  <path d="m73.912 35.725h14.2"/>
  <path d="m88.112 21.525h-14.2"/>
  <path d="m88.112 35.725v-14.2"/>
  <path d="m2.475 2.475v14.2"/>
  <path d="m2.475 16.675h14.2"/>
  <path d="m16.675 2.475h-14.2"/>
  <path d="m16.675 16.675v-14.2"/>
  <path d="m64.388 40.575v14.2"/>
  <path d="m64.388 54.775h14.2"/>
  <path d="m78.588 40.575h-14.2"/>
  <path d="m78.588 54.775v-14.2"/>
 </g>
 <g fill="#8BE9FD">
  <circle cx="80.695" cy="9.575" r=".875"/>
  <circle cx="85.775" cy="9.575" r="2"/>
  <circle cx="90.855" cy="9.575" r=".875"/>
  <circle cx="81.965" cy="7.035" r=".75"/>
  <circle cx="88.315" cy="4.495" r=".75"/>
  <circle cx="28.308" cy="28.625" r=".875"/>
  <circle cx="33.388" cy="28.625" r="2"/>
  <circle cx="38.468" cy="28.625" r=".875"/>
  <circle cx="29.578" cy="26.085" r=".75"/>
  <circle cx="35.928" cy="23.545" r=".75"/>
  <circle cx="23.545" cy="9.575" r=".875"/>
  <circle cx="28.625" cy="9.575" r="2"/>
  <circle cx="33.705" cy="9.575" r=".875"/>
  <circle cx="24.815" cy="7.035" r=".75"/>
  <circle cx="31.165" cy="4.495" r=".75"/>
  <circle cx="42.595" cy="9.575" r=".875"/>
  <circle cx="47.675" cy="9.575" r="2"/>
  <circle cx="52.755" cy="9.575" r=".875"/>
  <circle cx="43.865" cy="7.035" r=".75"/>
  <circle cx="50.215" cy="4.495" r=".75"/>
  <circle cx="61.645" cy="9.575" r=".875"/>
  <circle cx="66.725" cy="9.575" r="2"/>
  <circle cx="71.805" cy="9.575" r=".875"/>
  <circle cx="62.915" cy="7.035" r=".75"/>
  <circle cx="69.265" cy="4.495" r=".75"/>
  <circle cx="75.932" cy="47.675" r=".875"/>
  <circle cx="81.012" cy="47.675" r="2"/>
  <circle cx="86.092" cy="47.675" r=".875"/>
  <circle cx="77.202" cy="45.135" r=".75"/>
  <circle cx="83.552" cy="42.595" r=".75"/>
  <circle cx="25.926" cy="47.675" r=".875"/>
  <circle cx="31.006" cy="47.675" r="2"/>
  <circle cx="36.086" cy="47.675" r=".875"/>
  <circle cx="27.196" cy="45.135" r=".75"/>
  <circle cx="33.546" cy="42.595" r=".75"/>
  <circle cx="47.358" cy="28.625" r=".875"/>
  <circle cx="52.438" cy="28.625" r="2"/>
  <circle cx="57.518" cy="28.625" r=".875"/>
  <circle cx="48.628" cy="26.085" r=".75"/>
  <circle cx="54.978" cy="23.545" r=".75"/>
  <circle cx="85.458" cy="47.675" r=".875"/>
  <circle cx="90.538" cy="47.675" r="2"/>
  <circle cx="95.618" cy="47.675" r=".875"/>
  <circle cx="86.728" cy="45.135" r=".75"/>
  <circle cx="93.078" cy="42.595" r=".75"/>
  <circle cx="9.2575" cy="28.625" r=".875"/>
  <circle cx="14.338" cy="28.625" r="2"/>
  <circle cx="19.418" cy="28.625" r=".875"/>
  <circle cx="10.528" cy="26.085" r=".75"/>
  <circle cx="16.878" cy="23.545" r=".75"/>
  <circle cx="75.932" cy="28.625" r=".875"/>
  <circle cx="81.012" cy="28.625" r="2"/>
  <circle cx="86.092" cy="28.625" r=".875"/>
  <circle cx="77.202" cy="26.085" r=".75"/>
  <circle cx="83.552" cy="23.545" r=".75"/>
  <circle cx="4.495" cy="9.575" r=".875"/>
  <circle cx="9.575" cy="9.575" r="2"/>
  <circle cx="14.655" cy="9.575" r=".875"/>
  <circle cx="5.765" cy="7.035" r=".75"/>
  <circle cx="12.115" cy="4.495" r=".75"/>
  <circle cx="66.408" cy="47.675" r=".875"/>
  <circle cx="71.488" cy="47.675" r="2"/>
  <circle cx="76.568" cy="47.675" r=".875"/>
  <circle cx="67.678" cy="45.135" r=".75"/>
  <circle cx="74.028" cy="42.595" r=".75"/>
 </g>
 <g fill="none" stroke="#BD93F9" stroke-linecap="round" stroke-linejoin="round" stroke-width=".15">
  <g transform="rotate(-90 87.998 51.802)">
   <text transform="scale(-1 1) translate(-176)" x="87.9975" y="52.3020" font-size="1.3333" opacity="0" stroke-opacity="0" text-anchor="middle" lengthAdjust="spacingAndGlyphs" textLength="3.1548">D11</text>
  </g>
  <g class="stroked-text">
   <desc>D11</desc>
   <path d="m88.452 50.588h-1"/>
   <path d="m87.452 50.588v0.2381"/>
   <path d="m87.452 50.826 0.0476 0.1429"/>
   <path d="m87.5 50.969 0.0953 0.0952"/>
   <path d="m87.595 51.064 0.0952 0.0476"/>
   <path d="m87.69 51.112 0.1905 0.0476"/>
   <path d="m87.881 51.159h0.1428"/>
   <path d="m88.024 51.159 0.1905-0.0476"/>
   <path d="m88.214 51.112 0.0953-0.0476"/>
   <path d="m88.31 51.064 0.0952-0.0952"/>
   <path d="m88.405 50.969 0.0476-0.1429"/>
   <path d="m88.452 50.826v-0.2381"/>
   <path d="m88.452 52.112v-0.5714"/>
   <path d="m88.452 51.826h-1"/>
   <path d="m87.452 51.826 0.1429-0.0952"/>
   <path d="m87.595 51.731 0.0952-0.0953"/>
   <path d="m87.69 51.635 0.0476-0.0952"/>
   <path d="m88.452 53.064v-0.5714"/>
   <path d="m88.452 52.778h-1"/>
   <path d="m87.452 52.778 0.1429-0.0952"/>
   <path d="m87.595 52.683 0.0952-0.0953"/>
   <path d="m87.69 52.588 0.0476-0.0952"/>
  </g>
  <g transform="rotate(-90 21.322 32.752)">
   <text transform="scale(-1 1) translate(-42.645)" x="21.3225" y="33.2520" font-size="1.3333" opacity="0" stroke-opacity="0" text-anchor="middle" lengthAdjust="spacingAndGlyphs" textLength="2.2024">D7</text>
  </g>
  <g class="stroked-text">
   <desc>D7</desc>
   <path d="m21.777 32.014h-1"/>
   <path d="m20.777 32.014v0.2381"/>
   <path d="m20.777 32.252 0.0476 0.1429"/>
   <path d="m20.825 32.395 0.0953 0.0952"/>
   <path d="m20.92 32.49 0.0952 0.0476"/>
   <path d="m21.015 32.538 0.1905 0.0476"/>
   <path d="m21.206 32.585h0.1428"/>
   <path d="m21.349 32.585 0.1905-0.0476"/>
   <path d="m21.539 32.538 0.0953-0.0476"/>
   <path d="m21.634 32.49 0.0952-0.0952"/>
   <path d="m21.73 32.395 0.0476-0.1429"/>
   <path d="m21.777 32.252v-0.2381"/>
   <path d="m20.777 32.919v0.6666"/>
   <path d="m20.777 33.585 1-0.4285"/>
  </g>
  <g transform="rotate(-90 73.71 13.702)">
   <text transform="scale(-1 1) translate(-147.42)" x="73.7100" y="14.2020" font-size="1.3333" opacity="0" stroke-opacity="0" text-anchor="middle" lengthAdjust="spacingAndGlyphs" textLength="2.2024">D8</text>
  </g>
  <g class="stroked-text">
   <desc>D8</desc>
   <path d="m74.165 12.964h-1"/>
   <path d="m73.165 12.964v0.2381"/>
   <path d="m73.165 13.202 0.0476 0.1429"/>
   <path d="m73.212 13.345 0.0953 0.0952"/>
   <path d="m73.308 13.44 0.0952 0.0476"/>
   <path d="m73.403 13.488 0.1905 0.0476"/>
   <path d="m73.593 13.535h0.1428"/>
   <path d="m73.736 13.535 0.1905-0.0476"/>
   <path d="m73.927 13.488 0.0953-0.0476"/>
   <path d="m74.022 13.44 0.0952-0.0952"/>
   <path d="m74.117 13.345 0.0476-0.1429"/>
   <path d="m74.165 13.202v-0.2381"/>
   <path d="m73.593 14.107-0.0476-0.0953"/>
   <path d="m73.546 14.012-0.0476-0.0476"/>
   <path d="m73.498 13.964-0.0953-0.0476"/>
   <path d="m73.403 13.916h-0.0476"/>
   <path d="m73.355 13.916-0.0952 0.0476"/>
   <path d="m73.26 13.964-0.0477 0.0476"/>
   <path d="m73.212 14.012-0.0476 0.0953"/>
   <path d="m73.165 14.107v0.1904"/>
   <path d="m73.165 14.297 0.0476 0.0953"/>
   <path d="m73.212 14.392 0.0477 0.0476"/>
   <path d="m73.26 14.44 0.0952 0.0476"/>
   <path d="m73.355 14.488h0.0476"/>
   <path d="m73.403 14.488 0.0953-0.0476"/>
   <path d="m73.498 14.44 0.0476-0.0476"/>
   <path d="m73.546 14.392 0.0476-0.0953"/>
   <path d="m73.593 14.297v-0.1904"/>
   <path d="m73.593 14.107 0.0476-0.0953"/>
   <path d="m73.641 14.012 0.0476-0.0476"/>
   <path d="m73.689 13.964 0.0953-0.0476"/>
   <path d="m73.784 13.916h0.1904"/>
   <path d="m73.974 13.916 0.0953 0.0476"/>
   <path d="m74.07 13.964 0.0476 0.0476"/>
   <path d="m74.117 14.012 0.0476 0.0953"/>
   <path d="m74.165 14.107v0.1904"/>
   <path d="m74.165 14.297-0.0476 0.0953"/>
   <path d="m74.117 14.392-0.0476 0.0476"/>
   <path d="m74.07 14.44-0.0953 0.0476"/>
   <path d="m73.974 14.488h-0.1904"/>
   <path d="m73.784 14.488-0.0953-0.0476"/>
   <path d="m73.689 14.44-0.0476-0.0476"/>
   <path d="m73.641 14.392-0.0476-0.0953"/>
  </g>
  <g transform="rotate(-90 59.422 32.752)">
   <text transform="scale(-1 1) translate(-118.84)" x="59.4225" y="33.2520" font-size="1.3333" opacity="0" stroke-opacity="0" text-anchor="middle" lengthAdjust="spacingAndGlyphs" textLength="2.2024">D3</text>
  </g>
  <g class="stroked-text">
   <desc>D3</desc>
   <path d="m59.877 32.014h-1"/>
   <path d="m58.877 32.014v0.2381"/>
   <path d="m58.877 32.252 0.0476 0.1429"/>
   <path d="m58.925 32.395 0.0953 0.0952"/>
   <path d="m59.02 32.49 0.0952 0.0476"/>
   <path d="m59.115 32.538 0.1905 0.0476"/>
   <path d="m59.306 32.585h0.1428"/>
   <path d="m59.449 32.585 0.1905-0.0476"/>
   <path d="m59.639 32.538 0.0953-0.0476"/>
   <path d="m59.734 32.49 0.0952-0.0952"/>
   <path d="m59.83 32.395 0.0476-0.1429"/>
   <path d="m59.877 32.252v-0.2381"/>
   <path d="m58.877 32.919v0.619"/>
   <path d="m58.877 33.538 0.381-0.3333"/>
   <path d="m59.258 33.204v0.1428"/>
   <path d="m59.258 33.347 0.0476 0.0953"/>
   <path d="m59.306 33.442 0.0476 0.0476"/>
   <path d="m59.354 33.49 0.0952 0.0476"/>
   <path d="m59.449 33.538h0.2381"/>
   <path d="m59.687 33.538 0.0953-0.0476"/>
   <path d="m59.782 33.49 0.0476-0.0476"/>
   <path d="m59.83 33.442 0.0476-0.0953"/>
   <path d="m59.877 33.347v-0.2857"/>
   <path d="m59.877 33.062-0.0476-0.0952"/>
   <path d="m59.83 32.966-0.0476-0.0476"/>
  </g>
  <g transform="rotate(-90 16.56 13.702)">
   <text transform="scale(-1 1) translate(-33.12)" x="16.5600" y="14.2020" font-size="1.3333" opacity="0" stroke-opacity="0" text-anchor="middle" lengthAdjust="spacingAndGlyphs" textLength="2.2024">D1</text>
  </g>
  <g class="stroked-text">
   <desc>D1</desc>
   <path d="m17.015 12.964h-1"/>
   <path d="m16.015 12.964v0.2381"/>
   <path d="m16.015 13.202 0.0476 0.1429"/>
   <path d="m16.062 13.345 0.0953 0.0952"/>
   <path d="m16.158 13.44 0.0952 0.0476"/>
   <path d="m16.253 13.488 0.1905 0.0476"/>
   <path d="m16.443 13.535h0.1428"/>
   <path d="m16.586 13.535 0.1905-0.0476"/>
   <path d="m16.777 13.488 0.0953-0.0476"/>
   <path d="m16.872 13.44 0.0952-0.0952"/>
   <path d="m16.967 13.345 0.0476-0.1429"/>
   <path d="m17.015 13.202v-0.2381"/>
   <path d="m17.015 14.488v-0.5714"/>
   <path d="m17.015 14.202h-1"/>
   <path d="m16.015 14.202 0.1429-0.0952"/>
   <path d="m16.158 14.107 0.0952-0.0953"/>
   <path d="m16.253 14.012 0.0476-0.0952"/>
  </g>
  <g transform="rotate(-90 40.372 32.752)">
   <text transform="scale(-1 1) translate(-80.745)" x="40.3725" y="33.2520" font-size="1.3333" opacity="0" stroke-opacity="0" text-anchor="middle" lengthAdjust="spacingAndGlyphs" textLength="2.2024">D5</text>
  </g>
  <g class="stroked-text">
   <desc>D5</desc>
   <path d="m40.827 32.014h-1"/>
   <path d="m39.827 32.014v0.2381"/>
   <path d="m39.827 32.252 0.0476 0.1429"/>
   <path d="m39.875 32.395 0.0953 0.0952"/>
   <path d="m39.97 32.49 0.0952 0.0476"/>
   <path d="m40.065 32.538 0.1905 0.0476"/>
   <path d="m40.256 32.585h0.1428"/>
   <path d="m40.399 32.585 0.1905-0.0476"/>
   <path d="m40.589 32.538 0.0953-0.0476"/>
   <path d="m40.684 32.49 0.0952-0.0952"/>
   <path d="m40.78 32.395 0.0476-0.1429"/>
   <path d="m40.827 32.252v-0.2381"/>
   <path d="m39.827 33.49v-0.4762"/>
   <path d="m39.827 33.014 0.4762-0.0476"/>
   <path d="m40.304 32.966-0.0476 0.0476"/>
   <path d="m40.256 33.014-0.0476 0.0952"/>
   <path d="m40.208 33.109v0.2381"/>
   <path d="m40.208 33.347 0.0476 0.0953"/>
   <path d="m40.256 33.442 0.0476 0.0476"/>
   <path d="m40.304 33.49 0.0952 0.0476"/>
   <path d="m40.399 33.538h0.2381"/>
   <path d="m40.637 33.538 0.0953-0.0476"/>
   <path d="m40.732 33.49 0.0476-0.0476"/>
   <path d="m40.78 33.442 0.0476-0.0953"/>
   <path d="m40.827 33.347v-0.2381"/>
   <path d="m40.827 33.109-0.0476-0.0952"/>
   <path d="m40.78 33.014-0.0476-0.0476"/>
  </g>
  <g transform="rotate(-90 92.76 13.702)">
   <text transform="scale(-1 1) translate(-185.52)" x="92.7600" y="14.2020" font-size="1.3333" opacity="0" stroke-opacity="0" text-anchor="middle" lengthAdjust="spacingAndGlyphs" textLength="2.2024">D6</text>
  </g>
  <g class="stroked-text">
   <desc>D6</desc>
   <path d="m93.215 12.964h-1"/>
   <path d="m92.215 12.964v0.2381"/>
   <path d="m92.215 13.202 0.0476 0.1429"/>
   <path d="m92.262 13.345 0.0953 0.0952"/>
   <path d="m92.358 13.44 0.0952 0.0476"/>
   <path d="m92.453 13.488 0.1905 0.0476"/>
   <path d="m92.643 13.535h0.1428"/>
   <path d="m92.786 13.535 0.1905-0.0476"/>
   <path d="m92.977 13.488 0.0953-0.0476"/>
   <path d="m93.072 13.44 0.0952-0.0952"/>
   <path d="m93.167 13.345 0.0476-0.1429"/>
   <path d="m93.215 13.202v-0.2381"/>
   <path d="m92.215 14.392v-0.1905"/>
   <path d="m92.215 14.202 0.0476-0.0952"/>
   <path d="m92.262 14.107 0.0477-0.0477"/>
   <path d="m92.31 14.059 0.1428-0.0952"/>
   <path d="m92.453 13.964 0.1905-0.0476"/>
   <path d="m92.643 13.916h0.3809"/>
   <path d="m93.024 13.916 0.0953 0.0476"/>
   <path d="m93.12 13.964 0.0476 0.0476"/>
   <path d="m93.167 14.012 0.0476 0.0953"/>
   <path d="m93.215 14.107v0.1904"/>
   <path d="m93.215 14.297-0.0476 0.0953"/>
   <path d="m93.167 14.392-0.0476 0.0476"/>
   <path d="m93.12 14.44-0.0953 0.0476"/>
   <path d="m93.024 14.488h-0.2381"/>
   <path d="m92.786 14.488-0.0952-0.0476"/>
   <path d="m92.691 14.44-0.0476-0.0476"/>
   <path d="m92.643 14.392-0.0476-0.0953"/>
   <path d="m92.596 14.297v-0.1904"/>
   <path d="m92.596 14.107 0.0476-0.0953"/>
   <path d="m92.643 14.012 0.0476-0.0476"/>
   <path d="m92.691 13.964 0.0952-0.0476"/>
  </g>
  <g transform="rotate(-90 37.991 51.802)">
   <text transform="scale(-1 1) translate(-75.982)" x="37.9913" y="52.3020" font-size="1.3333" opacity="0" stroke-opacity="0" text-anchor="middle" lengthAdjust="spacingAndGlyphs" textLength="3.1548">D12</text>
  </g>
  <g class="stroked-text">
   <desc>D12</desc>
   <path d="m38.446 50.588h-1"/>
   <path d="m37.446 50.588v0.2381"/>
   <path d="m37.446 50.826 0.0476 0.1429"/>
   <path d="m37.494 50.969 0.0952 0.0952"/>
   <path d="m37.589 51.064 0.0953 0.0476"/>
   <path d="m37.684 51.112 0.1904 0.0476"/>
   <path d="m37.875 51.159h0.1429"/>
   <path d="m38.018 51.159 0.1905-0.0476"/>
   <path d="m38.208 51.112 0.0952-0.0476"/>
   <path d="m38.303 51.064 0.0952-0.0952"/>
   <path d="m38.398 50.969 0.0477-0.1429"/>
   <path d="m38.446 50.826v-0.2381"/>
   <path d="m38.446 52.112v-0.5714"/>
   <path d="m38.446 51.826h-1"/>
   <path d="m37.446 51.826 0.1428-0.0952"/>
   <path d="m37.589 51.731 0.0953-0.0953"/>
   <path d="m37.684 51.635 0.0476-0.0952"/>
   <path d="m37.541 52.492-0.0476 0.0476"/>
   <path d="m37.494 52.54-0.0476 0.0952"/>
   <path d="m37.446 52.635v0.2381"/>
   <path d="m37.446 52.873 0.0476 0.0953"/>
   <path d="m37.494 52.969 0.0476 0.0476"/>
   <path d="m37.541 53.016 0.0952 0.0476"/>
   <path d="m37.636 53.064h0.0953"/>
   <path d="m37.732 53.064 0.1428-0.0476"/>
   <path d="m37.875 53.016 0.5715-0.5714"/>
   <path d="m38.446 52.445v0.619"/>
  </g>
  <g transform="rotate(-90 97.522 51.802)">
   <text transform="scale(-1 1) translate(-195.04)" x="97.5225" y="52.3020" font-size="1.3333" opacity="0" stroke-opacity="0" text-anchor="middle" lengthAdjust="spacingAndGlyphs" textLength="2.2024">D2</text>
  </g>
  <g class="stroked-text">
   <desc>D2</desc>
   <path d="m97.977 51.064h-1"/>
   <path d="m96.977 51.064v0.2381"/>
   <path d="m96.977 51.302 0.0476 0.1429"/>
   <path d="m97.025 51.445 0.0953 0.0952"/>
   <path d="m97.12 51.54 0.0952 0.0476"/>
   <path d="m97.215 51.588 0.1905 0.0476"/>
   <path d="m97.406 51.635h0.1428"/>
   <path d="m97.549 51.635 0.1905-0.0476"/>
   <path d="m97.739 51.588 0.0953-0.0476"/>
   <path d="m97.834 51.54 0.0952-0.0952"/>
   <path d="m97.93 51.445 0.0476-0.1429"/>
   <path d="m97.977 51.302v-0.2381"/>
   <path d="m97.073 52.016-0.0477 0.0476"/>
   <path d="m97.025 52.064-0.0476 0.0952"/>
   <path d="m96.977 52.159v0.2381"/>
   <path d="m96.977 52.397 0.0476 0.0953"/>
   <path d="m97.025 52.492 0.0477 0.0476"/>
   <path d="m97.073 52.54 0.0952 0.0476"/>
   <path d="m97.168 52.588h0.0952"/>
   <path d="m97.263 52.588 0.1429-0.0476"/>
   <path d="m97.406 52.54 0.5714-0.5714"/>
   <path d="m97.977 51.969v0.619"/>
  </g>
  <g transform="rotate(-90 54.66 13.702)">
   <text transform="scale(-1 1) translate(-109.32)" x="54.6600" y="14.2020" font-size="1.3333" opacity="0" stroke-opacity="0" text-anchor="middle" lengthAdjust="spacingAndGlyphs" textLength="3.1548">D10</text>
  </g>
  <g class="stroked-text">
   <desc>D10</desc>
   <path d="m55.115 12.488h-1"/>
   <path d="m54.115 12.488v0.2381"/>
   <path d="m54.115 12.726 0.0476 0.1429"/>
   <path d="m54.162 12.869 0.0953 0.0952"/>
   <path d="m54.258 12.964 0.0952 0.0476"/>
   <path d="m54.353 13.012 0.1905 0.0476"/>
   <path d="m54.543 13.059h0.1428"/>
   <path d="m54.686 13.059 0.1905-0.0476"/>
   <path d="m54.877 13.012 0.0953-0.0476"/>
   <path d="m54.972 12.964 0.0952-0.0952"/>
   <path d="m55.067 12.869 0.0476-0.1429"/>
   <path d="m55.115 12.726v-0.2381"/>
   <path d="m55.115 14.012v-0.5714"/>
   <path d="m55.115 13.726h-1"/>
   <path d="m54.115 13.726 0.1429-0.0952"/>
   <path d="m54.258 13.631 0.0952-0.0953"/>
   <path d="m54.353 13.535 0.0476-0.0952"/>
   <path d="m54.115 14.631v0.0952"/>
   <path d="m54.115 14.726 0.0476 0.0952"/>
   <path d="m54.162 14.821 0.0477 0.0477"/>
   <path d="m54.21 14.869 0.0952 0.0476"/>
   <path d="m54.305 14.916 0.1905 0.0476"/>
   <path d="m54.496 14.964h0.2381"/>
   <path d="m54.734 14.964 0.1904-0.0476"/>
   <path d="m54.924 14.916 0.0953-0.0476"/>
   <path d="m55.02 14.869 0.0476-0.0477"/>
   <path d="m55.067 14.821 0.0476-0.0952"/>
   <path d="m55.115 14.726v-0.0952"/>
   <path d="m55.115 14.631-0.0476-0.0953"/>
   <path d="m55.067 14.535-0.0476-0.0476"/>
   <path d="m55.02 14.488-0.0953-0.0476"/>
   <path d="m54.924 14.44-0.1904-0.0476"/>
   <path d="m54.734 14.392h-0.2381"/>
   <path d="m54.496 14.392-0.1905 0.0476"/>
   <path d="m54.305 14.44-0.0952 0.0476"/>
   <path d="m54.21 14.488-0.0477 0.0476"/>
   <path d="m54.162 14.535-0.0476 0.0953"/>
  </g>
  <g transform="rotate(-90 78.472 51.802)">
   <text transform="scale(-1 1) translate(-156.94)" x="78.4725" y="52.3020" font-size="1.3333" opacity="0" stroke-opacity="0" text-anchor="middle" lengthAdjust="spacingAndGlyphs" textLength="3.1548">D13</text>
  </g>
  <g class="stroked-text">
   <desc>D13</desc>
   <path d="m78.927 50.588h-1"/>
   <path d="m77.927 50.588v0.2381"/>
   <path d="m77.927 50.826 0.0476 0.1429"/>
   <path d="m77.975 50.969 0.0953 0.0952"/>
   <path d="m78.07 51.064 0.0952 0.0476"/>
   <path d="m78.165 51.112 0.1905 0.0476"/>
   <path d="m78.356 51.159h0.1428"/>
   <path d="m78.499 51.159 0.1905-0.0476"/>
   <path d="m78.689 51.112 0.0953-0.0476"/>
   <path d="m78.784 51.064 0.0952-0.0952"/>
   <path d="m78.88 50.969 0.0476-0.1429"/>
   <path d="m78.927 50.826v-0.2381"/>
   <path d="m78.927 52.112v-0.5714"/>
   <path d="m78.927 51.826h-1"/>
   <path d="m77.927 51.826 0.1429-0.0952"/>
   <path d="m78.07 51.731 0.0952-0.0953"/>
   <path d="m78.165 51.635 0.0476-0.0952"/>
   <path d="m77.927 52.445v0.619"/>
   <path d="m77.927 53.064 0.381-0.3333"/>
   <path d="m78.308 52.731v0.1428"/>
   <path d="m78.308 52.873 0.0476 0.0953"/>
   <path d="m78.356 52.969 0.0476 0.0476"/>
   <path d="m78.404 53.016 0.0952 0.0476"/>
   <path d="m78.499 53.064h0.2381"/>
   <path d="m78.737 53.064 0.0953-0.0476"/>
   <path d="m78.832 53.016 0.0476-0.0476"/>
   <path d="m78.88 52.969 0.0476-0.0953"/>
   <path d="m78.927 52.873v-0.2857"/>
   <path d="m78.927 52.588-0.0476-0.0952"/>
   <path d="m78.88 52.492-0.0476-0.0476"/>
  </g>
  <g transform="rotate(-90 35.61 13.702)">
   <text transform="scale(-1 1) translate(-71.22)" x="35.6100" y="14.2020" font-size="1.3333" opacity="0" stroke-opacity="0" text-anchor="middle" lengthAdjust="spacingAndGlyphs" textLength="2.2024">D9</text>
  </g>
  <g class="stroked-text">
   <desc>D9</desc>
   <path d="m36.065 12.964h-1"/>
   <path d="m35.065 12.964v0.2381"/>
   <path d="m35.065 13.202 0.0476 0.1429"/>
   <path d="m35.112 13.345 0.0953 0.0952"/>
   <path d="m35.208 13.44 0.0952 0.0476"/>
   <path d="m35.303 13.488 0.1905 0.0476"/>
   <path d="m35.493 13.535h0.1428"/>
   <path d="m35.636 13.535 0.1905-0.0476"/>
   <path d="m35.827 13.488 0.0953-0.0476"/>
   <path d="m35.922 13.44 0.0952-0.0952"/>
   <path d="m36.017 13.345 0.0476-0.1429"/>
   <path d="m36.065 13.202v-0.2381"/>
   <path d="m36.065 14.012v0.1905"/>
   <path d="m36.065 14.202-0.0476 0.0952"/>
   <path d="m36.017 14.297-0.0476 0.0477"/>
   <path d="m35.97 14.345-0.1429 0.0952"/>
   <path d="m35.827 14.44-0.1905 0.0476"/>
   <path d="m35.636 14.488h-0.3809"/>
   <path d="m35.255 14.488-0.0952-0.0476"/>
   <path d="m35.16 14.44-0.0477-0.0476"/>
   <path d="m35.112 14.392-0.0476-0.0953"/>
   <path d="m35.065 14.297v-0.1904"/>
   <path d="m35.065 14.107 0.0476-0.0953"/>
   <path d="m35.112 14.012 0.0477-0.0476"/>
   <path d="m35.16 13.964 0.0952-0.0476"/>
   <path d="m35.255 13.916h0.2381"/>
   <path d="m35.493 13.916 0.0952 0.0476"/>
   <path d="m35.589 13.964 0.0476 0.0476"/>
   <path d="m35.636 14.012 0.0477 0.0953"/>
   <path d="m35.684 14.107v0.1904"/>
   <path d="m35.684 14.297-0.0477 0.0953"/>
   <path d="m35.636 14.392-0.0476 0.0476"/>
   <path d="m35.589 14.44-0.0952 0.0476"/>
  </g>
  <g transform="rotate(-90 87.998 32.752)">
   <text transform="scale(-1 1) translate(-176)" x="87.9975" y="33.2520" font-size="1.3333" opacity="0" stroke-opacity="0" text-anchor="middle" lengthAdjust="spacingAndGlyphs" textLength="2.2024">D4</text>
  </g>
  <g class="stroked-text">
   <desc>D4</desc>
   <path d="m88.452 32.014h-1"/>
   <path d="m87.452 32.014v0.2381"/>
   <path d="m87.452 32.252 0.0476 0.1429"/>
   <path d="m87.5 32.395 0.0953 0.0952"/>
   <path d="m87.595 32.49 0.0952 0.0476"/>
   <path d="m87.69 32.538 0.1905 0.0476"/>
   <path d="m87.881 32.585h0.1428"/>
   <path d="m88.024 32.585 0.1905-0.0476"/>
   <path d="m88.214 32.538 0.0953-0.0476"/>
   <path d="m88.31 32.49 0.0952-0.0952"/>
   <path d="m88.405 32.395 0.0476-0.1429"/>
   <path d="m88.452 32.252v-0.2381"/>
   <path d="m87.786 33.442h0.6666"/>
   <path d="m87.405 33.204 0.7143-0.2381"/>
   <path d="m88.119 32.966v0.619"/>
  </g>
 </g>
 <g fill="none" stroke="#BD93F9" stroke-linecap="round" stroke-linejoin="round" stroke-width=".12">
  <path d="m85.092 50.025v3.86"/>
  <path d="m85.092 53.885h2"/>
  <path d="m87.092 50.025v3.86"/>
  <path d="m18.418 30.975v3.86"/>
  <path d="m18.418 34.835h2"/>
  <path d="m20.418 30.975v3.86"/>
  <path d="m70.805 11.925v3.86"/>
  <path d="m70.805 15.785h2"/>
  <path d="m72.805 11.925v3.86"/>
  <path d="m56.518 30.975v3.86"/>
  <path d="m56.518 34.835h2"/>
  <path d="m58.518 30.975v3.86"/>
  <path d="m13.655 11.925v3.86"/>
  <path d="m13.655 15.785h2"/>
  <path d="m15.655 11.925v3.86"/>
  <path d="m37.468 30.975v3.86"/>
  <path d="m37.468 34.835h2"/>
  <path d="m39.468 30.975v3.86"/>
  <path d="m89.855 11.925v3.86"/>
  <path d="m89.855 15.785h2"/>
  <path d="m91.855 11.925v3.86"/>
  <path d="m35.086 50.025v3.86"/>
  <path d="m35.086 53.885h2"/>
  <path d="m37.086 50.025v3.86"/>
  <path d="m94.618 50.025v3.86"/>
  <path d="m94.618 53.885h2"/>
  <path d="m96.618 50.025v3.86"/>
  <path d="m51.755 11.925v3.86"/>
  <path d="m51.755 15.785h2"/>
  <path d="m53.755 11.925v3.86"/>
  <path d="m75.568 50.025v3.86"/>
  <path d="m75.568 53.885h2"/>
  <path d="m77.568 50.025v3.86"/>
  <path d="m32.705 11.925v3.86"/>
  <path d="m32.705 15.785h2"/>
  <path d="m34.705 11.925v3.86"/>
  <path d="m85.092 30.975v3.86"/>
  <path d="m85.092 34.835h2"/>
  <path d="m87.092 30.975v3.86"/>
 </g>
 <g>
  <g fill="#BD93F9">
   <circle cx="80.695" cy="9.575" r=".875"/>
   <circle cx="85.775" cy="9.575" r="2"/>
   <circle cx="90.855" cy="9.575" r=".875"/>
   <circle cx="81.965" cy="7.035" r=".75"/>
   <circle cx="88.315" cy="4.495" r=".75"/>
   <circle cx="28.308" cy="28.625" r=".875"/>
   <circle cx="33.388" cy="28.625" r="2"/>
   <circle cx="38.468" cy="28.625" r=".875"/>
   <circle cx="29.578" cy="26.085" r=".75"/>
   <circle cx="35.928" cy="23.545" r=".75"/>
   <circle cx="23.545" cy="9.575" r=".875"/>
   <circle cx="28.625" cy="9.575" r="2"/>
   <circle cx="33.705" cy="9.575" r=".875"/>
   <circle cx="24.815" cy="7.035" r=".75"/>
   <circle cx="31.165" cy="4.495" r=".75"/>
   <circle cx="42.595" cy="9.575" r=".875"/>
   <circle cx="47.675" cy="9.575" r="2"/>
   <circle cx="52.755" cy="9.575" r=".875"/>
   <circle cx="43.865" cy="7.035" r=".75"/>
   <circle cx="50.215" cy="4.495" r=".75"/>
   <circle cx="61.645" cy="9.575" r=".875"/>
   <circle cx="66.725" cy="9.575" r="2"/>
   <circle cx="71.805" cy="9.575" r=".875"/>
   <circle cx="62.915" cy="7.035" r=".75"/>
   <circle cx="69.265" cy="4.495" r=".75"/>
   <circle cx="75.932" cy="47.675" r=".875"/>
   <circle cx="81.012" cy="47.675" r="2"/>
   <circle cx="86.092" cy="47.675" r=".875"/>
   <circle cx="77.202" cy="45.135" r=".75"/>
   <circle cx="83.552" cy="42.595" r=".75"/>
   <circle cx="25.926" cy="47.675" r=".875"/>
   <circle cx="31.006" cy="47.675" r="2"/>
   <circle cx="36.086" cy="47.675" r=".875"/>
   <circle cx="27.196" cy="45.135" r=".75"/>
   <circle cx="33.546" cy="42.595" r=".75"/>
   <circle cx="47.358" cy="28.625" r=".875"/>
   <circle cx="52.438" cy="28.625" r="2"/>
   <circle cx="57.518" cy="28.625" r=".875"/>
   <circle cx="48.628" cy="26.085" r=".75"/>
   <circle cx="54.978" cy="23.545" r=".75"/>
   <circle cx="85.458" cy="47.675" r=".875"/>
   <circle cx="90.538" cy="47.675" r="2"/>
   <circle cx="95.618" cy="47.675" r=".875"/>
   <circle cx="86.728" cy="45.135" r=".75"/>
   <circle cx="93.078" cy="42.595" r=".75"/>
   <circle cx="9.2575" cy="28.625" r=".875"/>
   <circle cx="14.338" cy="28.625" r="2"/>
   <circle cx="19.418" cy="28.625" r=".875"/>
   <circle cx="10.528" cy="26.085" r=".75"/>
   <circle cx="16.878" cy="23.545" r=".75"/>
   <circle cx="75.932" cy="28.625" r=".875"/>
   <circle cx="81.012" cy="28.625" r="2"/>
   <circle cx="86.092" cy="28.625" r=".875"/>
   <circle cx="77.202" cy="26.085" r=".75"/>
   <circle cx="83.552" cy="23.545" r=".75"/>
   <circle cx="4.495" cy="9.575" r=".875"/>
   <circle cx="9.575" cy="9.575" r="2"/>
   <circle cx="14.655" cy="9.575" r=".875"/>
   <circle cx="5.765" cy="7.035" r=".75"/>
   <circle cx="12.115" cy="4.495" r=".75"/>
   <circle cx="66.408" cy="47.675" r=".875"/>
   <circle cx="71.488" cy="47.675" r="2"/>
   <circle cx="76.568" cy="47.675" r=".875"/>
   <circle cx="67.678" cy="45.135" r=".75"/>
   <circle cx="74.028" cy="42.595" r=".75"/>
  </g>
  <g>
   <circle cx="80.695" cy="9.575" r=".875"/>
   <circle cx="85.775" cy="9.575" r="2"/>
   <circle cx="90.855" cy="9.575" r=".875"/>
   <circle cx="81.965" cy="7.035" r=".75"/>
   <circle cx="88.315" cy="4.495" r=".75"/>
   <circle cx="28.308" cy="28.625" r=".875"/>
   <circle cx="33.388" cy="28.625" r="2"/>
   <circle cx="38.468" cy="28.625" r=".875"/>
   <circle cx="29.578" cy="26.085" r=".75"/>
   <circle cx="35.928" cy="23.545" r=".75"/>
   <circle cx="23.545" cy="9.575" r=".875"/>
   <circle cx="28.625" cy="9.575" r="2"/>
   <circle cx="33.705" cy="9.575" r=".875"/>
   <circle cx="24.815" cy="7.035" r=".75"/>
   <circle cx="31.165" cy="4.495" r=".75"/>
   <circle cx="42.595" cy="9.575" r=".875"/>
   <circle cx="47.675" cy="9.575" r="2"/>
   <circle cx="52.755" cy="9.575" r=".875"/>
   <circle cx="43.865" cy="7.035" r=".75"/>
   <circle cx="50.215" cy="4.495" r=".75"/>
   <circle cx="61.645" cy="9.575" r=".875"/>
   <circle cx="66.725" cy="9.575" r="2"/>
   <circle cx="71.805" cy="9.575" r=".875"/>
   <circle cx="62.915" cy="7.035" r=".75"/>
   <circle cx="69.265" cy="4.495" r=".75"/>
   <circle cx="75.932" cy="47.675" r=".875"/>
   <circle cx="81.012" cy="47.675" r="2"/>
   <circle cx="86.092" cy="47.675" r=".875"/>
   <circle cx="77.202" cy="45.135" r=".75"/>
   <circle cx="83.552" cy="42.595" r=".75"/>
   <circle cx="25.926" cy="47.675" r=".875"/>
   <circle cx="31.006" cy="47.675" r="2"/>
   <circle cx="36.086" cy="47.675" r=".875"/>
   <circle cx="27.196" cy="45.135" r=".75"/>
   <circle cx="33.546" cy="42.595" r=".75"/>
   <circle cx="47.358" cy="28.625" r=".875"/>
   <circle cx="52.438" cy="28.625" r="2"/>
   <circle cx="57.518" cy="28.625" r=".875"/>
   <circle cx="48.628" cy="26.085" r=".75"/>
   <circle cx="54.978" cy="23.545" r=".75"/>
   <circle cx="85.458" cy="47.675" r=".875"/>
   <circle cx="90.538" cy="47.675" r="2"/>
   <circle cx="95.618" cy="47.675" r=".875"/>
   <circle cx="86.728" cy="45.135" r=".75"/>
   <circle cx="93.078" cy="42.595" r=".75"/>
   <circle cx="9.2575" cy="28.625" r=".875"/>
   <circle cx="14.338" cy="28.625" r="2"/>
   <circle cx="19.418" cy="28.625" r=".875"/>
   <circle cx="10.528" cy="26.085" r=".75"/>
   <circle cx="16.878" cy="23.545" r=".75"/>
   <circle cx="75.932" cy="28.625" r=".875"/>
   <circle cx="81.012" cy="28.625" r="2"/>
   <circle cx="86.092" cy="28.625" r=".875"/>
   <circle cx="77.202" cy="26.085" r=".75"/>
   <circle cx="83.552" cy="23.545" r=".75"/>
   <circle cx="4.495" cy="9.575" r=".875"/>
   <circle cx="9.575" cy="9.575" r="2"/>
   <circle cx="14.655" cy="9.575" r=".875"/>
   <circle cx="5.765" cy="7.035" r=".75"/>
   <circle cx="12.115" cy="4.495" r=".75"/>
   <circle cx="66.408" cy="47.675" r=".875"/>
   <circle cx="71.488" cy="47.675" r="2"/>
   <circle cx="76.568" cy="47.675" r=".875"/>
   <circle cx="67.678" cy="45.135" r=".75"/>
   <circle cx="74.028" cy="42.595" r=".75"/>
  </g>
  <g fill="#f55">
   <circle cx="81.965" cy="7.035" r="1.25"/>
   <circle cx="88.315" cy="4.495" r="1.25"/>
   <circle cx="29.578" cy="26.085" r="1.25"/>
   <circle cx="35.928" cy="23.545" r="1.25"/>
   <circle cx="24.815" cy="7.035" r="1.25"/>
   <circle cx="31.165" cy="4.495" r="1.25"/>
   <circle cx="43.865" cy="7.035" r="1.25"/>
   <circle cx="50.215" cy="4.495" r="1.25"/>
   <circle cx="62.915" cy="7.035" r="1.25"/>
   <circle cx="69.265" cy="4.495" r="1.25"/>
   <circle cx="77.202" cy="45.135" r="1.25"/>
   <circle cx="83.552" cy="42.595" r="1.25"/>
   <circle cx="27.196" cy="45.135" r="1.25"/>
   <circle cx="33.546" cy="42.595" r="1.25"/>
   <circle cx="48.628" cy="26.085" r="1.25"/>
   <circle cx="54.978" cy="23.545" r="1.25"/>
   <circle cx="86.728" cy="45.135" r="1.25"/>
   <circle cx="93.078" cy="42.595" r="1.25"/>
   <circle cx="10.528" cy="26.085" r="1.25"/>
   <circle cx="16.878" cy="23.545" r="1.25"/>
   <circle cx="77.202" cy="26.085" r="1.25"/>
   <circle cx="83.552" cy="23.545" r="1.25"/>
   <circle cx="5.765" cy="7.035" r="1.25"/>
   <circle cx="12.115" cy="4.495" r="1.25"/>
   <circle cx="67.678" cy="45.135" r="1.25"/>
   <circle cx="74.028" cy="42.595" r="1.25"/>
  </g>
 </g>
 <g fill="none" stroke="#f55" stroke-linecap="round" stroke-linejoin="round" stroke-width=".2">
  <path d="m77.202 45.135h9.525"/>
  <path d="m48.628 26.085 14.288-14.288"/>
  <path d="m27.196 45.135 19.05-19.05"/>
  <path d="m46.246 26.085h2.3813"/>
  <path d="m62.915 11.798v-4.7625"/>
  <path d="m29.578 26.085 14.288-14.288"/>
  <path d="m43.865 11.798v-4.7625"/>
 </g>
 <g fill="#fff">
  <circle cx="80.695" cy="9.575" r=".875"/>
  <circle cx="85.775" cy="9.575" r="2"/>
  <circle cx="90.855" cy="9.575" r=".875"/>
  <circle cx="81.965" cy="7.035" r=".75"/>
  <circle cx="88.315" cy="4.495" r=".75"/>
  <circle cx="28.308" cy="28.625" r=".875"/>
  <circle cx="33.388" cy="28.625" r="2"/>
  <circle cx="38.468" cy="28.625" r=".875"/>
  <circle cx="29.578" cy="26.085" r=".75"/>
  <circle cx="35.928" cy="23.545" r=".75"/>
  <circle cx="23.545" cy="9.575" r=".875"/>
  <circle cx="28.625" cy="9.575" r="2"/>
  <circle cx="33.705" cy="9.575" r=".875"/>
  <circle cx="24.815" cy="7.035" r=".75"/>
  <circle cx="31.165" cy="4.495" r=".75"/>
  <circle cx="42.595" cy="9.575" r=".875"/>
  <circle cx="47.675" cy="9.575" r="2"/>
  <circle cx="52.755" cy="9.575" r=".875"/>
  <circle cx="43.865" cy="7.035" r=".75"/>
  <circle cx="50.215" cy="4.495" r=".75"/>
  <circle cx="61.645" cy="9.575" r=".875"/>
  <circle cx="66.725" cy="9.575" r="2"/>
  <circle cx="71.805" cy="9.575" r=".875"/>
  <circle cx="62.915" cy="7.035" r=".75"/>
  <circle cx="69.265" cy="4.495" r=".75"/>
  <circle cx="75.932" cy="47.675" r=".875"/>
  <circle cx="81.012" cy="47.675" r="2"/>
  <circle cx="86.092" cy="47.675" r=".875"/>
  <circle cx="77.202" cy="45.135" r=".75"/>
  <circle cx="83.552" cy="42.595" r=".75"/>
  <circle cx="25.926" cy="47.675" r=".875"/>
  <circle cx="31.006" cy="47.675" r="2"/>
  <circle cx="36.086" cy="47.675" r=".875"/>
  <circle cx="27.196" cy="45.135" r=".75"/>
  <circle cx="33.546" cy="42.595" r=".75"/>
  <circle cx="47.358" cy="28.625" r=".875"/>
  <circle cx="52.438" cy="28.625" r="2"/>
  <circle cx="57.518" cy="28.625" r=".875"/>
  <circle cx="48.628" cy="26.085" r=".75"/>
  <circle cx="54.978" cy="23.545" r=".75"/>
  <circle cx="85.458" cy="47.675" r=".875"/>
  <circle cx="90.538" cy="47.675" r="2"/>
  <circle cx="95.618" cy="47.675" r=".875"/>
  <circle cx="86.728" cy="45.135" r=".75"/>
  <circle cx="93.078" cy="42.595" r=".75"/>
  <circle cx="9.2575" cy="28.625" r=".875"/>
  <circle cx="14.338" cy="28.625" r="2"/>
  <circle cx="19.418" cy="28.625" r=".875"/>
  <circle cx="10.528" cy="26.085" r=".75"/>
  <circle cx="16.878" cy="23.545" r=".75"/>
  <circle cx="75.932" cy="28.625" r=".875"/>
  <circle cx="81.012" cy="28.625" r="2"/>
  <circle cx="86.092" cy="28.625" r=".875"/>
  <circle cx="77.202" cy="26.085" r=".75"/>
  <circle cx="83.552" cy="23.545" r=".75"/>
  <circle cx="4.495" cy="9.575" r=".875"/>
  <circle cx="9.575" cy="9.575" r="2"/>
  <circle cx="14.655" cy="9.575" r=".875"/>
  <circle cx="5.765" cy="7.035" r=".75"/>
  <circle cx="12.115" cy="4.495" r=".75"/>
  <circle cx="66.408" cy="47.675" r=".875"/>
  <circle cx="71.488" cy="47.675" r="2"/>
  <circle cx="76.568" cy="47.675" r=".875"/>
  <circle cx="67.678" cy="45.135" r=".75"/>
  <circle cx="74.028" cy="42.595" r=".75"/>
 </g>
 <g fill="#50FA7B">
  <circle cx="81.965" cy="7.035" r="1.25"/>
  <circle cx="88.315" cy="4.495" r="1.25"/>
  <circle cx="29.578" cy="26.085" r="1.25"/>
  <circle cx="35.928" cy="23.545" r="1.25"/>
  <circle cx="24.815" cy="7.035" r="1.25"/>
  <circle cx="31.165" cy="4.495" r="1.25"/>
  <circle cx="43.865" cy="7.035" r="1.25"/>
  <circle cx="50.215" cy="4.495" r="1.25"/>
  <circle cx="62.915" cy="7.035" r="1.25"/>
  <circle cx="69.265" cy="4.495" r="1.25"/>
  <circle cx="77.202" cy="45.135" r="1.25"/>
  <circle cx="83.552" cy="42.595" r="1.25"/>
  <circle cx="27.196" cy="45.135" r="1.25"/>
  <circle cx="33.546" cy="42.595" r="1.25"/>
  <circle cx="48.628" cy="26.085" r="1.25"/>
  <circle cx="54.978" cy="23.545" r="1.25"/>
  <circle cx="86.728" cy="45.135" r="1.25"/>
  <circle cx="93.078" cy="42.595" r="1.25"/>
  <circle cx="10.528" cy="26.085" r="1.25"/>
  <circle cx="16.878" cy="23.545" r="1.25"/>
  <circle cx="77.202" cy="26.085" r="1.25"/>
  <circle cx="83.552" cy="23.545" r="1.25"/>
  <circle cx="5.765" cy="7.035" r="1.25"/>
  <circle cx="12.115" cy="4.495" r="1.25"/>
  <circle cx="67.678" cy="45.135" r="1.25"/>
  <circle cx="74.028" cy="42.595" r="1.25"/>
  <g fill="#50FA7B" fill-rule="evenodd">
   <path d="m85.792 53.625-0.0957-0.019-0.0811-0.0542-0.0542-0.0811-0.019-0.0957v-0.6l0.019-0.0957 0.0542-0.0811 0.0811-0.0542 0.0957-0.019h0.6l0.0957 0.019 0.0811 0.0542 0.0542 0.0811 0.019 0.0957v0.6l-0.019 0.0957-0.0542 0.0811-0.0811 0.0542-0.0957 0.019z"/>
   <path d="m85.792 50.825-0.0957-0.019-0.0811-0.0542-0.0542-0.0811-0.019-0.0957v-0.6l0.019-0.0957 0.0542-0.0811 0.0811-0.0542 0.0957-0.019h0.6l0.0957 0.019 0.0811 0.0542 0.0542 0.0811 0.019 0.0957v0.6l-0.019 0.0957-0.0542 0.0811-0.0811 0.0542-0.0957 0.019z"/>
   <path d="m19.118 34.575-0.0957-0.019-0.0811-0.0542-0.0542-0.0811-0.019-0.0957v-0.6l0.019-0.0957 0.0542-0.0811 0.0811-0.0542 0.0957-0.019h0.6l0.0957 0.019 0.0811 0.0542 0.0542 0.0811 0.019 0.0957v0.6l-0.019 0.0957-0.0542 0.0811-0.0811 0.0542-0.0957 0.019z"/>
   <path d="m19.118 31.775-0.0957-0.019-0.0811-0.0542-0.0542-0.0811-0.019-0.0957v-0.6l0.019-0.0957 0.0542-0.0811 0.0811-0.0542 0.0957-0.019h0.6l0.0957 0.019 0.0811 0.0542 0.0542 0.0811 0.019 0.0957v0.6l-0.019 0.0957-0.0542 0.0811-0.0811 0.0542-0.0957 0.019z"/>
   <path d="m71.505 15.525-0.0957-0.019-0.0811-0.0542-0.0542-0.0811-0.019-0.0957v-0.6l0.019-0.0957 0.0542-0.0811 0.0811-0.0542 0.0957-0.019h0.6l0.0957 0.019 0.0811 0.0542 0.0542 0.0811 0.019 0.0957v0.6l-0.019 0.0957-0.0542 0.0811-0.0811 0.0542-0.0957 0.019z"/>
   <path d="m71.505 12.725-0.0957-0.019-0.0811-0.0542-0.0542-0.0811-0.019-0.0957v-0.6l0.019-0.0957 0.0542-0.0811 0.0811-0.0542 0.0957-0.019h0.6l0.0957 0.019 0.0811 0.0542 0.0542 0.0811 0.019 0.0957v0.6l-0.019 0.0957-0.0542 0.0811-0.0811 0.0542-0.0957 0.019z"/>
   <path d="m57.218 34.575-0.0957-0.019-0.0811-0.0542-0.0542-0.0811-0.019-0.0957v-0.6l0.019-0.0957 0.0542-0.0811 0.0811-0.0542 0.0957-0.019h0.6l0.0957 0.019 0.0811 0.0542 0.0542 0.0811 0.019 0.0957v0.6l-0.019 0.0957-0.0542 0.0811-0.0811 0.0542-0.0957 0.019z"/>
   <path d="m57.218 31.775-0.0957-0.019-0.0811-0.0542-0.0542-0.0811-0.019-0.0957v-0.6l0.019-0.0957 0.0542-0.0811 0.0811-0.0542 0.0957-0.019h0.6l0.0957 0.019 0.0811 0.0542 0.0542 0.0811 0.019 0.0957v0.6l-0.019 0.0957-0.0542 0.0811-0.0811 0.0542-0.0957 0.019z"/>
   <path d="m14.355 15.525-0.0957-0.019-0.0811-0.0542-0.0542-0.0811-0.019-0.0957v-0.6l0.019-0.0957 0.0542-0.0811 0.0811-0.0542 0.0957-0.019h0.6l0.0957 0.019 0.0811 0.0542 0.0542 0.0811 0.019 0.0957v0.6l-0.019 0.0957-0.0542 0.0811-0.0811 0.0542-0.0957 0.019z"/>
   <path d="m14.355 12.725-0.0957-0.019-0.0811-0.0542-0.0542-0.0811-0.019-0.0957v-0.6l0.019-0.0957 0.0542-0.0811 0.0811-0.0542 0.0957-0.019h0.6l0.0957 0.019 0.0811 0.0542 0.0542 0.0811 0.019 0.0957v0.6l-0.019 0.0957-0.0542 0.0811-0.0811 0.0542-0.0957 0.019z"/>
   <path d="m38.168 34.575-0.0957-0.019-0.0811-0.0542-0.0542-0.0811-0.019-0.0957v-0.6l0.019-0.0957 0.0542-0.0811 0.0811-0.0542 0.0957-0.019h0.6l0.0957 0.019 0.0811 0.0542 0.0542 0.0811 0.019 0.0957v0.6l-0.019 0.0957-0.0542 0.0811-0.0811 0.0542-0.0957 0.019z"/>
   <path d="m38.168 31.775-0.0957-0.019-0.0811-0.0542-0.0542-0.0811-0.019-0.0957v-0.6l0.019-0.0957 0.0542-0.0811 0.0811-0.0542 0.0957-0.019h0.6l0.0957 0.019 0.0811 0.0542 0.0542 0.0811 0.019 0.0957v0.6l-0.019 0.0957-0.0542 0.0811-0.0811 0.0542-0.0957 0.019z"/>
   <path d="m90.555 15.525-0.0957-0.019-0.0811-0.0542-0.0542-0.0811-0.019-0.0957v-0.6l0.019-0.0957 0.0542-0.0811 0.0811-0.0542 0.0957-0.019h0.6l0.0957 0.019 0.0811 0.0542 0.0542 0.0811 0.019 0.0957v0.6l-0.019 0.0957-0.0542 0.0811-0.0811 0.0542-0.0957 0.019z"/>
   <path d="m90.555 12.725-0.0957-0.019-0.0811-0.0542-0.0542-0.0811-0.019-0.0957v-0.6l0.019-0.0957 0.0542-0.0811 0.0811-0.0542 0.0957-0.019h0.6l0.0957 0.019 0.0811 0.0542 0.0542 0.0811 0.019 0.0957v0.6l-0.019 0.0957-0.0542 0.0811-0.0811 0.0542-0.0957 0.019z"/>
   <path d="m35.786 53.625-0.0956-0.019-0.0811-0.0542-0.0542-0.0811-0.0191-0.0957v-0.6l0.0191-0.0957 0.0542-0.0811 0.0811-0.0542 0.0956-0.019h0.6l0.0957 0.019 0.0811 0.0542 0.0542 0.0811 0.019 0.0957v0.6l-0.019 0.0957-0.0542 0.0811-0.0811 0.0542-0.0957 0.019z"/>
   <path d="m35.786 50.825-0.0956-0.019-0.0811-0.0542-0.0542-0.0811-0.0191-0.0957v-0.6l0.0191-0.0957 0.0542-0.0811 0.0811-0.0542 0.0956-0.019h0.6l0.0957 0.019 0.0811 0.0542 0.0542 0.0811 0.019 0.0957v0.6l-0.019 0.0957-0.0542 0.0811-0.0811 0.0542-0.0957 0.019z"/>
   <path d="m95.318 53.625-0.0957-0.019-0.0811-0.0542-0.0542-0.0811-0.019-0.0957v-0.6l0.019-0.0957 0.0542-0.0811 0.0811-0.0542 0.0957-0.019h0.6l0.0957 0.019 0.0811 0.0542 0.0542 0.0811 0.019 0.0957v0.6l-0.019 0.0957-0.0542 0.0811-0.0811 0.0542-0.0957 0.019z"/>
   <path d="m95.318 50.825-0.0957-0.019-0.0811-0.0542-0.0542-0.0811-0.019-0.0957v-0.6l0.019-0.0957 0.0542-0.0811 0.0811-0.0542 0.0957-0.019h0.6l0.0957 0.019 0.0811 0.0542 0.0542 0.0811 0.019 0.0957v0.6l-0.019 0.0957-0.0542 0.0811-0.0811 0.0542-0.0957 0.019z"/>
   <path d="m52.455 15.525-0.0957-0.019-0.0811-0.0542-0.0542-0.0811-0.019-0.0957v-0.6l0.019-0.0957 0.0542-0.0811 0.0811-0.0542 0.0957-0.019h0.6l0.0957 0.019 0.0811 0.0542 0.0542 0.0811 0.019 0.0957v0.6l-0.019 0.0957-0.0542 0.0811-0.0811 0.0542-0.0957 0.019z"/>
   <path d="m52.455 12.725-0.0957-0.019-0.0811-0.0542-0.0542-0.0811-0.019-0.0957v-0.6l0.019-0.0957 0.0542-0.0811 0.0811-0.0542 0.0957-0.019h0.6l0.0957 0.019 0.0811 0.0542 0.0542 0.0811 0.019 0.0957v0.6l-0.019 0.0957-0.0542 0.0811-0.0811 0.0542-0.0957 0.019z"/>
   <path d="m76.268 53.625-0.0957-0.019-0.0811-0.0542-0.0542-0.0811-0.019-0.0957v-0.6l0.019-0.0957 0.0542-0.0811 0.0811-0.0542 0.0957-0.019h0.6l0.0957 0.019 0.0811 0.0542 0.0542 0.0811 0.019 0.0957v0.6l-0.019 0.0957-0.0542 0.0811-0.0811 0.0542-0.0957 0.019z"/>
   <path d="m76.268 50.825-0.0957-0.019-0.0811-0.0542-0.0542-0.0811-0.019-0.0957v-0.6l0.019-0.0957 0.0542-0.0811 0.0811-0.0542 0.0957-0.019h0.6l0.0957 0.019 0.0811 0.0542 0.0542 0.0811 0.019 0.0957v0.6l-0.019 0.0957-0.0542 0.0811-0.0811 0.0542-0.0957 0.019z"/>
   <path d="m33.405 15.525-0.0957-0.019-0.0811-0.0542-0.0542-0.0811-0.019-0.0957v-0.6l0.019-0.0957 0.0542-0.0811 0.0811-0.0542 0.0957-0.019h0.6l0.0957 0.019 0.0811 0.0542 0.0542 0.0811 0.019 0.0957v0.6l-0.019 0.0957-0.0542 0.0811-0.0811 0.0542-0.0957 0.019z"/>
   <path d="m33.405 12.725-0.0957-0.019-0.0811-0.0542-0.0542-0.0811-0.019-0.0957v-0.6l0.019-0.0957 0.0542-0.0811 0.0811-0.0542 0.0957-0.019h0.6l0.0957 0.019 0.0811 0.0542 0.0542 0.0811 0.019 0.0957v0.6l-0.019 0.0957-0.0542 0.0811-0.0811 0.0542-0.0957 0.019z"/>
   <path d="m85.792 34.575-0.0957-0.019-0.0811-0.0542-0.0542-0.0811-0.019-0.0957v-0.6l0.019-0.0957 0.0542-0.0811 0.0811-0.0542 0.0957-0.019h0.6l0.0957 0.019 0.0811 0.0542 0.0542 0.0811 0.019 0.0957v0.6l-0.019 0.0957-0.0542 0.0811-0.0811 0.0542-0.0957 0.019z"/>
   <path d="m85.792 31.775-0.0957-0.019-0.0811-0.0542-0.0542-0.0811-0.019-0.0957v-0.6l0.019-0.0957 0.0542-0.0811 0.0811-0.0542 0.0957-0.019h0.6l0.0957 0.019 0.0811 0.0542 0.0542 0.0811 0.019 0.0957v0.6l-0.019 0.0957-0.0542 0.0811-0.0811 0.0542-0.0957 0.019z"/>
  </g>
 </g>
 <g fill="none" stroke="#50FA7B" stroke-linecap="round" stroke-linejoin="round" stroke-width=".2">
  <path d="m12.115 4.495v5.14"/>
  <path d="m12.115 9.635 2.54 2.54"/>
  <path d="m93.078 42.595v5.14"/>
  <path d="m93.078 47.735 2.54 2.54"/>
  <path d="m54.978 28.685 2.54 2.54"/>
  <path d="m54.978 23.545v5.14"/>
  <path d="m83.552 28.685 2.54 2.54"/>
  <path d="m83.552 23.545v5.14"/>
  <path d="m35.928 23.545v5.14"/>
  <path d="m35.928 28.685 2.54 2.54"/>
  <path d="m88.315 9.635 2.54 2.54"/>
  <path d="m88.315 4.495v5.14"/>
  <path d="m16.878 23.545v5.14"/>
  <path d="m16.878 28.685 2.54 2.54"/>
  <path d="m69.265 9.635 2.54 2.54"/>
  <path d="m69.265 4.495v5.14"/>
  <path d="m31.165 9.635 2.54 2.54"/>
  <path d="m31.165 4.495v5.14"/>
  <path d="m50.215 4.495v5.14"/>
  <path d="m50.215 9.635 2.54 2.54"/>
  <path d="m83.552 42.595v5.14"/>
  <path d="m83.552 47.735 2.54 2.54"/>
  <path d="m33.546 47.735 2.5399 2.54"/>
  <path d="m33.546 42.595v5.14"/>
  <path d="m74.028 42.595v5.14"/>
  <path d="m74.028 47.735 2.54 2.54"/>
  <path d="m38.468 34.025h19.05"/>
  <path d="m57.518 34.025h28.575"/>
  <path d="m33.705 19.738v-4.7625"/>
  <path d="m19.418 34.025 14.288-14.288"/>
  <path d="m33.705 14.975h19.05"/>
  <path d="m71.805 14.975h19.05"/>
  <path d="m52.755 14.975h19.05"/>
 </g>
 <g fill="#fff">
  <circle cx="80.695" cy="9.575" r=".875"/>
  <circle cx="85.775" cy="9.575" r="2"/>
  <circle cx="90.855" cy="9.575" r=".875"/>
  <circle cx="81.965" cy="7.035" r=".75"/>
  <circle cx="88.315" cy="4.495" r=".75"/>
  <circle cx="28.308" cy="28.625" r=".875"/>
  <circle cx="33.388" cy="28.625" r="2"/>
  <circle cx="38.468" cy="28.625" r=".875"/>
  <circle cx="29.578" cy="26.085" r=".75"/>
  <circle cx="35.928" cy="23.545" r=".75"/>
  <circle cx="23.545" cy="9.575" r=".875"/>
  <circle cx="28.625" cy="9.575" r="2"/>
  <circle cx="33.705" cy="9.575" r=".875"/>
  <circle cx="24.815" cy="7.035" r=".75"/>
  <circle cx="31.165" cy="4.495" r=".75"/>
  <circle cx="42.595" cy="9.575" r=".875"/>
  <circle cx="47.675" cy="9.575" r="2"/>
  <circle cx="52.755" cy="9.575" r=".875"/>
  <circle cx="43.865" cy="7.035" r=".75"/>
  <circle cx="50.215" cy="4.495" r=".75"/>
  <circle cx="61.645" cy="9.575" r=".875"/>
  <circle cx="66.725" cy="9.575" r="2"/>
  <circle cx="71.805" cy="9.575" r=".875"/>
  <circle cx="62.915" cy="7.035" r=".75"/>
  <circle cx="69.265" cy="4.495" r=".75"/>
  <circle cx="75.932" cy="47.675" r=".875"/>
  <circle cx="81.012" cy="47.675" r="2"/>
  <circle cx="86.092" cy="47.675" r=".875"/>
  <circle cx="77.202" cy="45.135" r=".75"/>
  <circle cx="83.552" cy="42.595" r=".75"/>
  <circle cx="25.926" cy="47.675" r=".875"/>
  <circle cx="31.006" cy="47.675" r="2"/>
  <circle cx="36.086" cy="47.675" r=".875"/>
  <circle cx="27.196" cy="45.135" r=".75"/>
  <circle cx="33.546" cy="42.595" r=".75"/>
  <circle cx="47.358" cy="28.625" r=".875"/>
  <circle cx="52.438" cy="28.625" r="2"/>
  <circle cx="57.518" cy="28.625" r=".875"/>
  <circle cx="48.628" cy="26.085" r=".75"/>
  <circle cx="54.978" cy="23.545" r=".75"/>
  <circle cx="85.458" cy="47.675" r=".875"/>
  <circle cx="90.538" cy="47.675" r="2"/>
  <circle cx="95.618" cy="47.675" r=".875"/>
  <circle cx="86.728" cy="45.135" r=".75"/>
  <circle cx="93.078" cy="42.595" r=".75"/>
  <circle cx="9.2575" cy="28.625" r=".875"/>
  <circle cx="14.338" cy="28.625" r="2"/>
  <circle cx="19.418" cy="28.625" r=".875"/>
  <circle cx="10.528" cy="26.085" r=".75"/>
  <circle cx="16.878" cy="23.545" r=".75"/>
  <circle cx="75.932" cy="28.625" r=".875"/>
  <circle cx="81.012" cy="28.625" r="2"/>
  <circle cx="86.092" cy="28.625" r=".875"/>
  <circle cx="77.202" cy="26.085" r=".75"/>
  <circle cx="83.552" cy="23.545" r=".75"/>
  <circle cx="4.495" cy="9.575" r=".875"/>
  <circle cx="9.575" cy="9.575" r="2"/>
  <circle cx="14.655" cy="9.575" r=".875"/>
  <circle cx="5.765" cy="7.035" r=".75"/>
  <circle cx="12.115" cy="4.495" r=".75"/>
  <circle cx="66.408" cy="47.675" r=".875"/>
  <circle cx="71.488" cy="47.675" r="2"/>
  <circle cx="76.568" cy="47.675" r=".875"/>
  <circle cx="67.678" cy="45.135" r=".75"/>
  <circle cx="74.028" cy="42.595" r=".75"/>
 </g>
</svg>
