<svg xmlns="http://www.w3.org/2000/svg" xmlns:xlink="http://www.w3.org/1999/xlink" width="814" height="308" viewBox="26 13 814 308"><defs><g id="a"><rect width="52" height="52" fill="none" stroke="#000" stroke-width="2" rx="5"/><rect width="50" height="50" x="1" y="1" fill="#ccc" rx="4"/><rect width="40" height="40" x="6" y="4" fill="#fbfbfb" rx="5"/><text x="7" y="7" dominant-baseline="hanging" font-size="12"><tspan x="7" dy="0em">0,0</tspan></text><text x="26" y="26" dominant-baseline="middle" font-size="12" text-anchor="middle"><tspan x="26" dy="0em">e0</tspan></text><text x="45" y="42" font-size="12" text-anchor="end"><tspan x="45" dy="0em">0,1</tspan></text></g><g id="b"><rect width="52" height="52" fill="none" stroke="#000" stroke-width="2" rx="5"/><rect width="50" height="50" x="1" y="1" fill="#ccc" rx="4"/><rect width="40" height="40" x="6" y="4" fill="#fbfbfb" rx="5"/><text x="7" y="7" dominant-baseline="hanging" font-size="12"><tspan x="7" dy="0em">4,0</tspan></text><text x="26" y="26" dominant-baseline="middle" font-size="12" text-anchor="middle"><tspan x="26" dy="0em">e1</tspan></text><text x="45" y="42" font-size="12" text-anchor="end"><tspan x="45" dy="0em">1,1</tspan></text></g><g id="c"><rect width="52" height="52" fill="none" stroke="#000" stroke-width="2" rx="5"/><rect width="50" height="50" x="1" y="1" fill="#ccc" rx="4"/><rect width="40" height="40" x="6" y="4" fill="#fbfbfb" rx="5"/><text x="7" y="7" dominant-baseline="hanging" font-size="12"><tspan x="7" dy="0em">0,3</tspan></text></g><g id="d"><rect width="52" height="52" fill="none" stroke="#000" stroke-width="2" rx="5"/><rect width="50" height="50" x="1" y="1" fill="#ccc" rx="4"/><rect width="40" height="40" x="6" y="4" fill="#fbfbfb" rx="5"/><text x="7" y="7" dominant-baseline="hanging" font-size="12"><tspan x="7" dy="0em">4,3</tspan></text></g><g id="e"><rect width="52" height="52" fill="none" stroke="#000" stroke-width="2" rx="5"/><rect width="50" height="50" x="1" y="1" fill="#ccc" rx="4"/><rect width="40" height="40" x="6" y="4" fill="#fbfbfb" rx="5"/><text x="7" y="7" dominant-baseline="hanging" font-size="12"><tspan x="7" dy="0em">0,2</tspan></text></g><g id="f"><rect width="52" height="52" fill="none" stroke="#000" stroke-width="2" rx="5"/><rect width="50" height="50" x="1" y="1" fill="#ccc" rx="4"/><rect width="40" height="40" x="6" y="4" fill="#fbfbfb" rx="5"/><text x="7" y="7" dominant-baseline="hanging" font-size="12"><tspan x="7" dy="0em">0,4</tspan></text></g><g id="g"><rect width="52" height="52" fill="none" stroke="#000" stroke-width="2" rx="5"/><rect width="50" height="50" x="1" y="1" fill="#ccc" rx="4"/><rect width="40" height="40" x="6" y="4" fill="#fbfbfb" rx="5"/><text x="7" y="7" dominant-baseline="hanging" font-size="12"><tspan x="7" dy="0em">4,4</tspan></text></g><g id="h"><rect width="52" height="52" fill="none" stroke="#000" stroke-width="2" rx="5"/><rect width="50" height="50" x="1" y="1" fill="#ccc" rx="4"/><rect width="40" height="40" x="6" y="4" fill="#fbfbfb" rx="5"/><text x="7" y="7" dominant-baseline="hanging" font-size="12"><tspan x="7" dy="0em">4,2</tspan></text></g><g id="i"><rect width="52" height="52" fill="none" stroke="#000" stroke-width="2" rx="5"/><rect width="50" height="50" x="1" y="1" fill="#ccc" rx="4"/><rect width="40" height="40" x="6" y="4" fill="#fbfbfb" rx="5"/><text x="7" y="7" dominant-baseline="hanging" font-size="12"><tspan x="7" dy="0em">0,5</tspan></text></g><g id="j"><rect width="52" height="52" fill="none" stroke="#000" stroke-width="2" rx="5"/><rect width="50" height="50" x="1" y="1" fill="#ccc" rx="4"/><rect width="40" height="40" x="6" y="4" fill="#fbfbfb" rx="5"/><text x="7" y="7" dominant-baseline="hanging" font-size="12"><tspan x="7" dy="0em">4,5</tspan></text></g><g id="k"><rect width="52" height="52" fill="none" stroke="#000" stroke-width="2" rx="5"/><rect width="50" height="50" x="1" y="1" fill="#ccc" rx="4"/><rect width="40" height="40" x="6" y="4" fill="#fbfbfb" rx="5"/><text x="7" y="7" dominant-baseline="hanging" font-size="12"><tspan x="7" dy="0em">0,0</tspan></text><text x="45" y="42" font-size="12" text-anchor="end"><tspan x="45" dy="0em">0,0</tspan></text></g><g id="l"><rect width="52" height="52" fill="none" stroke="#000" stroke-width="2" rx="5"/><rect width="50" height="50" x="1" y="1" fill="#ccc" rx="4"/><rect width="40" height="40" x="6" y="4" fill="#fbfbfb" rx="5"/><text x="7" y="7" dominant-baseline="hanging" font-size="12"><tspan x="7" dy="0em">0,1</tspan></text></g><g id="m"><rect width="52" height="52" fill="none" stroke="#000" stroke-width="2" rx="5"/><rect width="50" height="50" x="1" y="1" fill="#ccc" rx="4"/><rect width="40" height="40" x="6" y="4" fill="#fbfbfb" rx="5"/><text x="7" y="7" dominant-baseline="hanging" font-size="12"><tspan x="7" dy="0em">4,1</tspan></text></g><g id="n"><rect width="52" height="52" fill="none" stroke="#000" stroke-width="2" rx="5"/><rect width="50" height="50" x="1" y="1" fill="#777" rx="4"/><rect width="40" height="40" x="6" y="4" fill="#919191" rx="5"/><text x="7" y="7" dominant-baseline="hanging" font-size="12"><tspan x="7" dy="0em">4,0</tspan></text><text x="45" y="42" font-size="12" text-anchor="end"><tspan x="45" dy="0em">1,0</tspan></text></g><g id="o"><rect width="52" height="52" fill="none" stroke="#000" stroke-width="2" rx="5"/><rect width="50" height="50" x="1" y="1" fill="#ccc" rx="4"/><rect width="40" height="40" x="6" y="4" fill="#fbfbfb" rx="5"/><text x="7" y="7" dominant-baseline="hanging" font-size="12"><tspan x="7" dy="0em">1,3</tspan></text></g><g id="p"><rect width="52" height="52" fill="none" stroke="#000" stroke-width="2" rx="5"/><rect width="50" height="50" x="1" y="1" fill="#ccc" rx="4"/><rect width="40" height="40" x="6" y="4" fill="#fbfbfb" rx="5"/><text x="7" y="7" dominant-baseline="hanging" font-size="12"><tspan x="7" dy="0em">5,3</tspan></text></g><g id="q"><rect width="52" height="52" fill="none" stroke="#000" stroke-width="2" rx="5"/><rect width="50" height="50" x="1" y="1" fill="#ccc" rx="4"/><rect width="40" height="40" x="6" y="4" fill="#fbfbfb" rx="5"/><text x="7" y="7" dominant-baseline="hanging" font-size="12"><tspan x="7" dy="0em">1,2</tspan></text></g><g id="r"><rect width="52" height="52" fill="none" stroke="#000" stroke-width="2" rx="5"/><rect width="50" height="50" x="1" y="1" fill="#ccc" rx="4"/><rect width="40" height="40" x="6" y="4" fill="#fbfbfb" rx="5"/><text x="7" y="7" dominant-baseline="hanging" font-size="12"><tspan x="7" dy="0em">1,4</tspan></text></g><g id="s"><rect width="52" height="52" fill="none" stroke="#000" stroke-width="2" rx="5"/><rect width="50" height="50" x="1" y="1" fill="#ccc" rx="4"/><rect width="40" height="40" x="6" y="4" fill="#fbfbfb" rx="5"/><text x="7" y="7" dominant-baseline="hanging" font-size="12"><tspan x="7" dy="0em">5,4</tspan></text></g><g id="t"><rect width="52" height="52" fill="none" stroke="#000" stroke-width="2" rx="5"/><rect width="50" height="50" x="1" y="1" fill="#ccc" rx="4"/><rect width="40" height="40" x="6" y="4" fill="#fbfbfb" rx="5"/><text x="7" y="7" dominant-baseline="hanging" font-size="12"><tspan x="7" dy="0em">5,2</tspan></text></g><g id="u"><rect width="52" height="52" fill="none" stroke="#000" stroke-width="2" rx="5"/><rect width="50" height="50" x="1" y="1" fill="#ccc" rx="4"/><rect width="40" height="40" x="6" y="4" fill="#fbfbfb" rx="5"/><text x="7" y="7" dominant-baseline="hanging" font-size="12"><tspan x="7" dy="0em">1,5</tspan></text></g><g id="v"><rect width="52" height="52" fill="none" stroke="#000" stroke-width="2" rx="5"/><rect width="50" height="50" x="1" y="1" fill="#ccc" rx="4"/><rect width="40" height="40" x="6" y="4" fill="#fbfbfb" rx="5"/><text x="7" y="7" dominant-baseline="hanging" font-size="12"><tspan x="7" dy="0em">5,5</tspan></text></g><g id="w"><rect width="52" height="52" fill="none" stroke="#000" stroke-width="2" rx="5"/><rect width="50" height="50" x="1" y="1" fill="#aaa" rx="4"/><rect width="40" height="40" x="6" y="4" fill="#d0d0d0" rx="5"/><text x="7" y="7" dominant-baseline="hanging" font-size="12"><tspan x="7" dy="0em">1,0</tspan></text></g><g id="x"><rect width="52" height="52" fill="none" stroke="#000" stroke-width="2" rx="5"/><rect width="50" height="50" x="1" y="1" fill="#ccc" rx="4"/><rect width="40" height="40" x="6" y="4" fill="#fbfbfb" rx="5"/><text x="7" y="7" dominant-baseline="hanging" font-size="12"><tspan x="7" dy="0em">1,1</tspan></text></g><g id="y"><rect width="52" height="52" fill="none" stroke="#000" stroke-width="2" rx="5"/><rect width="50" height="50" x="1" y="1" fill="#ccc" rx="4"/><rect width="40" height="40" x="6" y="4" fill="#fbfbfb" rx="5"/><text x="7" y="7" dominant-baseline="hanging" font-size="12"><tspan x="7" dy="0em">5,1</tspan></text></g><g id="z"><rect width="52" height="52" fill="none" stroke="#000" stroke-width="2" rx="5"/><rect width="50" height="50" x="1" y="1" fill="#ccc" rx="4"/><rect width="40" height="40" x="6" y="4" fill="#fbfbfb" rx="5"/><text x="7" y="7" dominant-baseline="hanging" font-size="12"><tspan x="7" dy="0em">5,0</tspan></text></g><g id="A"><rect width="52" height="52" fill="none" stroke="#000" stroke-width="2" rx="5"/><rect width="50" height="50" x="1" y="1" fill="#ccc" rx="4"/><rect width="40" height="40" x="6" y="4" fill="#fbfbfb" rx="5"/><text x="7" y="7" dominant-baseline="hanging" font-size="12"><tspan x="7" dy="0em">2,3</tspan></text></g><g id="B"><rect width="52" height="52" fill="none" stroke="#000" stroke-width="2" rx="5"/><rect width="50" height="50" x="1" y="1" fill="#ccc" rx="4"/><rect width="40" height="40" x="6" y="4" fill="#fbfbfb" rx="5"/><text x="7" y="7" dominant-baseline="hanging" font-size="12"><tspan x="7" dy="0em">6,3</tspan></text></g><g id="C"><rect width="52" height="52" fill="none" stroke="#000" stroke-width="2" rx="5"/><rect width="50" height="50" x="1" y="1" fill="#ccc" rx="4"/><rect width="40" height="40" x="6" y="4" fill="#fbfbfb" rx="5"/><text x="7" y="7" dominant-baseline="hanging" font-size="12"><tspan x="7" dy="0em">2,2</tspan></text></g><g id="D"><rect width="52" height="52" fill="none" stroke="#000" stroke-width="2" rx="5"/><rect width="50" height="50" x="1" y="1" fill="#ccc" rx="4"/><rect width="40" height="40" x="6" y="4" fill="#fbfbfb" rx="5"/><text x="7" y="7" dominant-baseline="hanging" font-size="12"><tspan x="7" dy="0em">2,4</tspan></text></g><g id="E"><rect width="52" height="52" fill="none" stroke="#000" stroke-width="2" rx="5"/><rect width="50" height="50" x="1" y="1" fill="#ccc" rx="4"/><rect width="40" height="40" x="6" y="4" fill="#fbfbfb" rx="5"/><text x="7" y="7" dominant-baseline="hanging" font-size="12"><tspan x="7" dy="0em">6,4</tspan></text></g><g id="F"><rect width="52" height="52" fill="none" stroke="#000" stroke-width="2" rx="5"/><rect width="50" height="50" x="1" y="1" fill="#ccc" rx="4"/><rect width="40" height="40" x="6" y="4" fill="#fbfbfb" rx="5"/><text x="7" y="7" dominant-baseline="hanging" font-size="12"><tspan x="7" dy="0em">6,2</tspan></text></g><g id="G"><rect width="52" height="52" fill="none" stroke="#000" stroke-width="2" rx="5"/><rect width="50" height="50" x="1" y="1" fill="#ccc" rx="4"/><rect width="40" height="40" x="6" y="4" fill="#fbfbfb" rx="5"/><text x="7" y="7" dominant-baseline="hanging" font-size="12"><tspan x="7" dy="0em">2,5</tspan></text></g><g id="H"><rect width="52" height="52" fill="none" stroke="#000" stroke-width="2" rx="5"/><rect width="50" height="50" x="1" y="1" fill="#ccc" rx="4"/><rect width="40" height="40" x="6" y="4" fill="#fbfbfb" rx="5"/><text x="7" y="7" dominant-baseline="hanging" font-size="12"><tspan x="7" dy="0em">6,5</tspan></text></g><g id="I"><rect width="52" height="52" fill="none" stroke="#000" stroke-width="2" rx="5"/><rect width="50" height="50" x="1" y="1" fill="#aaa" rx="4"/><rect width="40" height="40" x="6" y="4" fill="#d0d0d0" rx="5"/><text x="7" y="7" dominant-baseline="hanging" font-size="12"><tspan x="7" dy="0em">2,0</tspan></text></g><g id="J"><rect width="52" height="52" fill="none" stroke="#000" stroke-width="2" rx="5"/><rect width="50" height="50" x="1" y="1" fill="#ccc" rx="4"/><rect width="40" height="40" x="6" y="4" fill="#fbfbfb" rx="5"/><text x="7" y="7" dominant-baseline="hanging" font-size="12"><tspan x="7" dy="0em">2,1</tspan></text></g><g id="K"><rect width="52" height="52" fill="none" stroke="#000" stroke-width="2" rx="5"/><rect width="50" height="50" x="1" y="1" fill="#ccc" rx="4"/><rect width="40" height="40" x="6" y="4" fill="#fbfbfb" rx="5"/><text x="7" y="7" dominant-baseline="hanging" font-size="12"><tspan x="7" dy="0em">6,1</tspan></text></g><g id="L"><rect width="52" height="52" fill="none" stroke="#000" stroke-width="2" rx="5"/><rect width="50" height="50" x="1" y="1" fill="#777" rx="4"/><rect width="40" height="40" x="6" y="4" fill="#919191" rx="5"/><text x="7" y="7" dominant-baseline="hanging" font-size="12"><tspan x="7" dy="0em">6,0</tspan></text></g><g id="M"><rect width="52" height="52" fill="none" stroke="#000" stroke-width="2" rx="5"/><rect width="50" height="50" x="1" y="1" fill="#aaa" rx="4"/><rect width="40" height="40" x="6" y="4" fill="#d0d0d0" rx="5"/><text x="7" y="7" dominant-baseline="hanging" font-size="12"><tspan x="7" dy="0em">3,3</tspan></text></g><g id="N"><rect width="52" height="52" fill="none" stroke="#000" stroke-width="2" rx="5"/><rect width="50" height="50" x="1" y="1" fill="#aaa" rx="4"/><rect width="40" height="40" x="6" y="4" fill="#d0d0d0" rx="5"/><text x="7" y="7" dominant-baseline="hanging" font-size="12"><tspan x="7" dy="0em">7,3</tspan></text></g><g id="O"><rect width="52" height="52" fill="none" stroke="#000" stroke-width="2" rx="5"/><rect width="50" height="50" x="1" y="1" fill="#777" rx="4"/><rect width="40" height="40" x="6" y="4" fill="#919191" rx="5"/><text x="7" y="7" dominant-baseline="hanging" font-size="12"><tspan x="7" dy="0em">3,4</tspan></text></g><g id="P"><rect width="52" height="78" fill="none" stroke="#000" stroke-width="2" rx="5"/><rect width="50" height="76" x="1" y="1" fill="#777" rx="4"/><rect width="40" height="66" x="6" y="4" fill="#919191" rx="5"/><text x="7" y="7" dominant-baseline="hanging" font-size="12"><tspan x="7" dy="0em">3,5</tspan></text></g><g id="Q"><rect width="52" height="78" fill="none" stroke="#000" stroke-width="2" rx="5"/><rect width="50" height="76" x="1" y="1" fill="#777" rx="4"/><rect width="40" height="66" x="6" y="4" fill="#919191" rx="5"/><text x="7" y="7" dominant-baseline="hanging" font-size="12"><tspan x="7" dy="0em">7,5</tspan></text></g><g id="R"><rect width="52" height="52" fill="none" stroke="#000" stroke-width="2" rx="5"/><rect width="50" height="50" x="1" y="1" fill="#777" rx="4"/><rect width="40" height="40" x="6" y="4" fill="#919191" rx="5"/><text x="7" y="7" dominant-baseline="hanging" font-size="12"><tspan x="7" dy="0em">7,4</tspan></text></g></defs><use xlink:href="#a" x="30" y="17"/><use xlink:href="#b" x="784" y="17"/><use xlink:href="#c" x="186" y="56"/><use xlink:href="#d" x="628" y="56"/><use xlink:href="#e" x="134" y="62.5"/><use xlink:href="#f" x="238" y="62.5"/><use xlink:href="#g" x="576" y="62.5"/><use xlink:href="#h" x="680" y="62.5"/><use xlink:href="#i" x="290" y="69"/><use xlink:href="#j" x="524" y="69"/><use xlink:href="#k" x="30" y="75.5"/><use xlink:href="#l" x="82" y="75.5"/><use xlink:href="#m" x="732" y="75.5"/><use xlink:href="#n" x="784" y="75.5"/><use xlink:href="#o" x="186" y="108"/><use xlink:href="#p" x="628" y="108"/><use xlink:href="#q" x="134" y="114.5"/><use xlink:href="#r" x="238" y="114.5"/><use xlink:href="#s" x="576" y="114.5"/><use xlink:href="#t" x="680" y="114.5"/><use xlink:href="#u" x="290" y="121"/><use xlink:href="#v" x="524" y="121"/><use xlink:href="#w" x="30" y="127.5"/><use xlink:href="#x" x="82" y="127.5"/><use xlink:href="#y" x="732" y="127.5"/><use xlink:href="#z" x="784" y="127.5"/><use xlink:href="#A" x="186" y="160"/><use xlink:href="#B" x="628" y="160"/><use xlink:href="#C" x="134" y="166.5"/><use xlink:href="#D" x="238" y="166.5"/><use xlink:href="#E" x="576" y="166.5"/><use xlink:href="#F" x="680" y="166.5"/><use xlink:href="#G" x="290" y="173"/><use xlink:href="#H" x="524" y="173"/><use xlink:href="#I" x="30" y="179.5"/><use xlink:href="#J" x="82" y="179.5"/><use xlink:href="#K" x="732" y="179.5"/><use xlink:href="#L" x="784" y="179.5"/><use xlink:href="#M" x="212" y="225"/><use xlink:href="#N" x="602" y="225"/><use xlink:href="#O" x="212" y="225" transform="rotate(15 238 477.2)"/><use xlink:href="#P" x="212" y="225" transform="rotate(30 284.8 487.6)"/><use xlink:href="#Q" x="602" y="225" transform="rotate(-30 581.2 487.6)"/><use xlink:href="#R" x="602" y="225" transform="rotate(-15 628 477.2)"/></svg>