<?xml version="1.0" encoding="UTF-8"?>
<svg xmlns="http://www.w3.org/2000/svg" xmlns:xlink="http://www.w3.org/1999/xlink"
     width="814" height="272" viewBox="0 0 814 272">
<defs>
<g id="d0">
<rect x="0" y="0" width="52" height="52" rx="5" fill="none" stroke="black" stroke-width="2" />
<rect x="1.0" y="1.0" width="50.0" height="50.0" rx="4.0" fill="#cccccc" />
<rect x="6" y="4" width="40" height="40" rx="5" fill="#fbfbfb" />
<text x="7" y="7" font-size="12" text-anchor="start" dominant-baseline="hanging"><tspan x="7" dy="0em">0,3</tspan></text>
</g>
<g id="d1">
<rect x="0" y="0" width="52" height="52" rx="5" fill="none" stroke="black" stroke-width="2" />
<rect x="1.0" y="1.0" width="50.0" height="50.0" rx="4.0" fill="#cccccc" />
<rect x="6" y="4" width="40" height="40" rx="5" fill="#fbfbfb" />
<text x="7" y="7" font-size="12" text-anchor="start" dominant-baseline="hanging"><tspan x="7" dy="0em">6,3</tspan></text>
</g>
<g id="d2">
<rect x="0" y="0" width="52" height="52" rx="5" fill="none" stroke="black" stroke-width="2" />
<rect x="1.0" y="1.0" width="50.0" height="50.0" rx="4.0" fill="#cccccc" />
<rect x="6" y="4" width="40" height="40" rx="5" fill="#fbfbfb" />
<text x="7" y="7" font-size="12" text-anchor="start" dominant-baseline="hanging"><tspan x="7" dy="0em">0,2</tspan></text>
</g>
<g id="d3">
<rect x="0" y="0" width="52" height="52" rx="5" fill="none" stroke="black" stroke-width="2" />
<rect x="1.0" y="1.0" width="50.0" height="50.0" rx="4.0" fill="#cccccc" />
<rect x="6" y="4" width="40" height="40" rx="5" fill="#fbfbfb" />
<text x="7" y="7" font-size="12" text-anchor="start" dominant-baseline="hanging"><tspan x="7" dy="0em">0,4</tspan></text>
</g>
<g id="d4">
<rect x="0" y="0" width="52" height="52" rx="5" fill="none" stroke="black" stroke-width="2" />
<rect x="1.0" y="1.0" width="50.0" height="50.0" rx="4.0" fill="#cccccc" />
<rect x="6" y="4" width="40" height="40" rx="5" fill="#fbfbfb" />
<text x="7" y="7" font-size="12" text-anchor="start" dominant-baseline="hanging"><tspan x="7" dy="0em">6,4</tspan></text>
</g>
<g id="d5">
<rect x="0" y="0" width="52" height="52" rx="5" fill="none" stroke="black" stroke-width="2" />
<rect x="1.0" y="1.0" width="50.0" height="50.0" rx="4.0" fill="#cccccc" />
<rect x="6" y="4" width="40" height="40" rx="5" fill="#fbfbfb" />
<text x="7" y="7" font-size="12" text-anchor="start" dominant-baseline="hanging"><tspan x="7" dy="0em">6,2</tspan></text>
</g>
<g id="d6">
<rect x="0" y="0" width="52" height="52" rx="5" fill="none" stroke="black" stroke-width="2" />
<rect x="1.0" y="1.0" width="50.0" height="50.0" rx="4.0" fill="#cccccc" />
<rect x="6" y="4" width="40" height="40" rx="5" fill="#fbfbfb" />
<text x="7" y="7" font-size="12" text-anchor="start" dominant-baseline="hanging"><tspan x="7" dy="0em">0,5</tspan></text>
</g>
<g id="d7">
<rect x="0" y="0" width="52" height="52" rx="5" fill="none" stroke="black" stroke-width="2" />
<rect x="1.0" y="1.0" width="50.0" height="50.0" rx="4.0" fill="#cccccc" />
<rect x="6" y="4" width="40" height="40" rx="5" fill="#fbfbfb" />
<text x="7" y="7" font-size="12" text-anchor="start" dominant-baseline="hanging"><tspan x="7" dy="0em">6,5</tspan></text>
</g>
<g id="d8">
<rect x="0" y="0" width="52" height="52" rx="5" fill="none" stroke="black" stroke-width="2" />
<rect x="1.0" y="1.0" width="50.0" height="50.0" rx="4.0" fill="#cccccc" />
<rect x="6" y="4" width="40" height="40" rx="5" fill="#fbfbfb" />
<text x="7" y="7" font-size="12" text-anchor="start" dominant-baseline="hanging"><tspan x="7" dy="0em">0,0</tspan></text>
</g>
<g id="d9">
<rect x="0" y="0" width="52" height="52" rx="5" fill="none" stroke="black" stroke-width="2" />
<rect x="1.0" y="1.0" width="50.0" height="50.0" rx="4.0" fill="#cccccc" />
<rect x="6" y="4" width="40" height="40" rx="5" fill="#fbfbfb" />
<text x="7" y="7" font-size="12" text-anchor="start" dominant-baseline="hanging"><tspan x="7" dy="0em">0,1</tspan></text>
</g>
<g id="d10">
<rect x="0" y="0" width="52" height="52" rx="5" fill="none" stroke="black" stroke-width="2" />
<rect x="1.0" y="1.0" width="50.0" height="50.0" rx="4.0" fill="#cccccc" />
<rect x="6" y="4" width="40" height="40" rx="5" fill="#fbfbfb" />
<text x="7" y="7" font-size="12" text-anchor="start" dominant-baseline="hanging"><tspan x="7" dy="0em">6,1</tspan></text>
</g>
<g id="d11">
<rect x="0" y="0" width="52" height="52" rx="5" fill="none" stroke="black" stroke-width="2" />
<rect x="1.0" y="1.0" width="50.0" height="50.0" rx="4.0" fill="#cccccc" />
<rect x="6" y="4" width="40" height="40" rx="5" fill="#fbfbfb" />
<text x="7" y="7" font-size="12" text-anchor="start" dominant-baseline="hanging"><tspan x="7" dy="0em">6,0</tspan></text>
</g>
<g id="d12">
<rect x="0" y="0" width="52" height="52" rx="5" fill="none" stroke="black" stroke-width="2" />
<rect x="1.0" y="1.0" width="50.0" height="50.0" rx="4.0" fill="#cccccc" />
<rect x="6" y="4" width="40" height="40" rx="5" fill="#fbfbfb" />
<text x="7" y="7" font-size="12" text-anchor="start" dominant-baseline="hanging"><tspan x="7" dy="0em">1,3</tspan></text>
</g>
<g id="d13">
<rect x="0" y="0" width="52" height="52" rx="5" fill="none" stroke="black" stroke-width="2" />
<rect x="1.0" y="1.0" width="50.0" height="50.0" rx="4.0" fill="#cccccc" />
<rect x="6" y="4" width="40" height="40" rx="5" fill="#fbfbfb" />
<text x="7" y="7" font-size="12" text-anchor="start" dominant-baseline="hanging"><tspan x="7" dy="0em">5,3</tspan></text>
</g>
<g id="d14">
<rect x="0" y="0" width="52" height="52" rx="5" fill="none" stroke="black" stroke-width="2" />
<rect x="1.0" y="1.0" width="50.0" height="50.0" rx="4.0" fill="#cccccc" />
<rect x="6" y="4" width="40" height="40" rx="5" fill="#fbfbfb" />
<text x="7" y="7" font-size="12" text-anchor="start" dominant-baseline="hanging"><tspan x="7" dy="0em">1,2</tspan></text>
</g>
<g id="d15">
<rect x="0" y="0" width="52" height="52" rx="5" fill="none" stroke="black" stroke-width="2" />
<rect x="1.0" y="1.0" width="50.0" height="50.0" rx="4.0" fill="#cccccc" />
<rect x="6" y="4" width="40" height="40" rx="5" fill="#fbfbfb" />
<text x="7" y="7" font-size="12" text-anchor="start" dominant-baseline="hanging"><tspan x="7" dy="0em">1,4</tspan></text>
</g>
<g id="d16">
<rect x="0" y="0" width="52" height="52" rx="5" fill="none" stroke="black" stroke-width="2" />
<rect x="1.0" y="1.0" width="50.0" height="50.0" rx="4.0" fill="#cccccc" />
<rect x="6" y="4" width="40" height="40" rx="5" fill="#fbfbfb" />
<text x="7" y="7" font-size="12" text-anchor="start" dominant-baseline="hanging"><tspan x="7" dy="0em">5,4</tspan></text>
</g>
<g id="d17">
<rect x="0" y="0" width="52" height="52" rx="5" fill="none" stroke="black" stroke-width="2" />
<rect x="1.0" y="1.0" width="50.0" height="50.0" rx="4.0" fill="#cccccc" />
<rect x="6" y="4" width="40" height="40" rx="5" fill="#fbfbfb" />
<text x="7" y="7" font-size="12" text-anchor="start" dominant-baseline="hanging"><tspan x="7" dy="0em">5,2</tspan></text>
</g>
<g id="d18">
<rect x="0" y="0" width="52" height="52" rx="5" fill="none" stroke="black" stroke-width="2" />
<rect x="1.0" y="1.0" width="50.0" height="50.0" rx="4.0" fill="#cccccc" />
<rect x="6" y="4" width="40" height="40" rx="5" fill="#fbfbfb" />
<text x="7" y="7" font-size="12" text-anchor="start" dominant-baseline="hanging"><tspan x="7" dy="0em">1,5</tspan></text>
</g>
<g id="d19">
<rect x="0" y="0" width="52" height="52" rx="5" fill="none" stroke="black" stroke-width="2" />
<rect x="1.0" y="1.0" width="50.0" height="50.0" rx="4.0" fill="#cccccc" />
<rect x="6" y="4" width="40" height="40" rx="5" fill="#fbfbfb" />
<text x="7" y="7" font-size="12" text-anchor="start" dominant-baseline="hanging"><tspan x="7" dy="0em">5,5</tspan></text>
</g>
<g id="d20">
<rect x="0" y="0" width="52" height="52" rx="5" fill="none" stroke="black" stroke-width="2" />
<rect x="1.0" y="1.0" width="50.0" height="50.0" rx="4.0" fill="#cccccc" />
<rect x="6" y="4" width="40" height="40" rx="5" fill="#fbfbfb" />
<text x="7" y="7" font-size="12" text-anchor="start" dominant-baseline="hanging"><tspan x="7" dy="0em">1,0</tspan></text>
</g>
<g id="d21">
<rect x="0" y="0" width="52" height="52" rx="5" fill="none" stroke="black" stroke-width="2" />
<rect x="1.0" y="1.0" width="50.0" height="50.0" rx="4.0" fill="#cccccc" />
<rect x="6" y="4" width="40" height="40" rx="5" fill="#fbfbfb" />
<text x="7" y="7" font-size="12" text-anchor="start" dominant-baseline="hanging"><tspan x="7" dy="0em">1,1</tspan></text>
</g>
<g id="d22">
<rect x="0" y="0" width="52" height="52" rx="5" fill="none" stroke="black" stroke-width="2" />
<rect x="1.0" y="1.0" width="50.0" height="50.0" rx="4.0" fill="#cccccc" />
<rect x="6" y="4" width="40" height="40" rx="5" fill="#fbfbfb" />
<text x="7" y="7" font-size="12" text-anchor="start" dominant-baseline="hanging"><tspan x="7" dy="0em">5,1</tspan></text>
</g>
<g id="d23">
<rect x="0" y="0" width="52" height="52" rx="5" fill="none" stroke="black" stroke-width="2" />
<rect x="1.0" y="1.0" width="50.0" height="50.0" rx="4.0" fill="#cccccc" />
<rect x="6" y="4" width="40" height="40" rx="5" fill="#fbfbfb" />
<text x="7" y="7" font-size="12" text-anchor="start" dominant-baseline="hanging"><tspan x="7" dy="0em">5,0</tspan></text>
</g>
<g id="d24">
<rect x="0" y="0" width="52" height="52" rx="5" fill="none" stroke="black" stroke-width="2" />
<rect x="1.0" y="1.0" width="50.0" height="50.0" rx="4.0" fill="#cccccc" />
<rect x="6" y="4" width="40" height="40" rx="5" fill="#fbfbfb" />
<text x="7" y="7" font-size="12" text-anchor="start" dominant-baseline="hanging"><tspan x="7" dy="0em">2,3</tspan></text>
</g>
<g id="d25">
<rect x="0" y="0" width="52" height="52" rx="5" fill="none" stroke="black" stroke-width="2" />
<rect x="1.0" y="1.0" width="50.0" height="50.0" rx="4.0" fill="#cccccc" />
<rect x="6" y="4" width="40" height="40" rx="5" fill="#fbfbfb" />
<text x="7" y="7" font-size="12" text-anchor="start" dominant-baseline="hanging"><tspan x="7" dy="0em">4,3</tspan></text>
</g>
<g id="d26">
<rect x="0" y="0" width="52" height="52" rx="5" fill="none" stroke="black" stroke-width="2" />
<rect x="1.0" y="1.0" width="50.0" height="50.0" rx="4.0" fill="#cccccc" />
<rect x="6" y="4" width="40" height="40" rx="5" fill="#fbfbfb" />
<text x="7" y="7" font-size="12" text-anchor="start" dominant-baseline="hanging"><tspan x="7" dy="0em">2,2</tspan></text>
</g>
<g id="d27">
<rect x="0" y="0" width="52" height="52" rx="5" fill="none" stroke="black" stroke-width="2" />
<rect x="1.0" y="1.0" width="50.0" height="50.0" rx="4.0" fill="#cccccc" />
<rect x="6" y="4" width="40" height="40" rx="5" fill="#fbfbfb" />
<text x="7" y="7" font-size="12" text-anchor="start" dominant-baseline="hanging"><tspan x="7" dy="0em">2,4</tspan></text>
</g>
<g id="d28">
<rect x="0" y="0" width="52" height="52" rx="5" fill="none" stroke="black" stroke-width="2" />
<rect x="1.0" y="1.0" width="50.0" height="50.0" rx="4.0" fill="#cccccc" />
<rect x="6" y="4" width="40" height="40" rx="5" fill="#fbfbfb" />
<text x="7" y="7" font-size="12" text-anchor="start" dominant-baseline="hanging"><tspan x="7" dy="0em">4,4</tspan></text>
</g>
<g id="d29">
<rect x="0" y="0" width="52" height="52" rx="5" fill="none" stroke="black" stroke-width="2" />
<rect x="1.0" y="1.0" width="50.0" height="50.0" rx="4.0" fill="#cccccc" />
<rect x="6" y="4" width="40" height="40" rx="5" fill="#fbfbfb" />
<text x="7" y="7" font-size="12" text-anchor="start" dominant-baseline="hanging"><tspan x="7" dy="0em">4,2</tspan></text>
</g>
<g id="d30">
<rect x="0" y="0" width="52" height="52" rx="5" fill="none" stroke="black" stroke-width="2" />
<rect x="1.0" y="1.0" width="50.0" height="50.0" rx="4.0" fill="#cccccc" />
<rect x="6" y="4" width="40" height="40" rx="5" fill="#fbfbfb" />
<text x="7" y="7" font-size="12" text-anchor="start" dominant-baseline="hanging"><tspan x="7" dy="0em">2,5</tspan></text>
</g>
<g id="d31">
<rect x="0" y="0" width="52" height="52" rx="5" fill="none" stroke="black" stroke-width="2" />
<rect x="1.0" y="1.0" width="50.0" height="50.0" rx="4.0" fill="#cccccc" />
<rect x="6" y="4" width="40" height="40" rx="5" fill="#fbfbfb" />
<text x="7" y="7" font-size="12" text-anchor="start" dominant-baseline="hanging"><tspan x="7" dy="0em">4,5</tspan></text>
</g>
<g id="d32">
<rect x="0" y="0" width="52" height="52" rx="5" fill="none" stroke="black" stroke-width="2" />
<rect x="1.0" y="1.0" width="50.0" height="50.0" rx="4.0" fill="#cccccc" />
<rect x="6" y="4" width="40" height="40" rx="5" fill="#fbfbfb" />
<text x="7" y="7" font-size="12" text-anchor="start" dominant-baseline="hanging"><tspan x="7" dy="0em">2,0</tspan></text>
</g>
<g id="d33">
<rect x="0" y="0" width="52" height="52" rx="5" fill="none" stroke="black" stroke-width="2" />
<rect x="1.0" y="1.0" width="50.0" height="50.0" rx="4.0" fill="#cccccc" />
<rect x="6" y="4" width="40" height="40" rx="5" fill="#fbfbfb" />
<text x="7" y="7" font-size="12" text-anchor="start" dominant-baseline="hanging"><tspan x="7" dy="0em">2,1</tspan></text>
</g>
<g id="d34">
<rect x="0" y="0" width="52" height="52" rx="5" fill="none" stroke="black" stroke-width="2" />
<rect x="1.0" y="1.0" width="50.0" height="50.0" rx="4.0" fill="#cccccc" />
<rect x="6" y="4" width="40" height="40" rx="5" fill="#fbfbfb" />
<text x="7" y="7" font-size="12" text-anchor="start" dominant-baseline="hanging"><tspan x="7" dy="0em">4,1</tspan></text>
</g>
<g id="d35">
<rect x="0" y="0" width="52" height="52" rx="5" fill="none" stroke="black" stroke-width="2" />
<rect x="1.0" y="1.0" width="50.0" height="50.0" rx="4.0" fill="#cccccc" />
<rect x="6" y="4" width="40" height="40" rx="5" fill="#fbfbfb" />
<text x="7" y="7" font-size="12" text-anchor="start" dominant-baseline="hanging"><tspan x="7" dy="0em">4,0</tspan></text>
</g>
<g id="d36">
<rect x="0" y="0" width="52" height="52" rx="5" fill="none" stroke="black" stroke-width="2" />
<rect x="1.0" y="1.0" width="50.0" height="50.0" rx="4.0" fill="#cccccc" />
<rect x="6" y="4" width="40" height="40" rx="5" fill="#fbfbfb" />
<text x="7" y="7" font-size="12" text-anchor="start" dominant-baseline="hanging"><tspan x="7" dy="0em">3,0</tspan></text>
</g>
<g id="d37">
<rect x="0" y="0" width="52" height="52" rx="5" fill="none" stroke="black" stroke-width="2" />
<rect x="1.0" y="1.0" width="50.0" height="50.0" rx="4.0" fill="#cccccc" />
<rect x="6" y="4" width="40" height="40" rx="5" fill="#fbfbfb" />
<text x="7" y="7" font-size="12" text-anchor="start" dominant-baseline="hanging"><tspan x="7" dy="0em">3,5</tspan></text>
</g>
<g id="d38">
<rect x="0" y="0" width="52" height="52" rx="5" fill="none" stroke="black" stroke-width="2" />
<rect x="1.0" y="1.0" width="50.0" height="50.0" rx="4.0" fill="#cccccc" />
<rect x="6" y="4" width="40" height="40" rx="5" fill="#fbfbfb" />
<text x="7" y="7" font-size="12" text-anchor="start" dominant-baseline="hanging"><tspan x="7" dy="0em">3,1</tspan></text>
</g>
<g id="d39">
<rect x="0" y="0" width="52" height="78.0" rx="5" fill="none" stroke="black" stroke-width="2" />
<rect x="1.0" y="1.0" width="50.0" height="76.0" rx="4.0" fill="#cccccc" />
<rect x="6" y="4" width="40" height="66.0" rx="5" fill="#fbfbfb" />
<text x="7" y="7" font-size="12" text-anchor="start" dominant-baseline="hanging"><tspan x="7" dy="0em">3,2</tspan></text>
</g>
<g id="d40">
<rect x="0" y="0" width="52" height="78.0" rx="5" fill="none" stroke="black" stroke-width="2" />
<rect x="1.0" y="1.0" width="50.0" height="76.0" rx="4.0" fill="#cccccc" />
<rect x="6" y="4" width="40" height="66.0" rx="5" fill="#fbfbfb" />
<text x="7" y="7" font-size="12" text-anchor="start" dominant-baseline="hanging"><tspan x="7" dy="0em">3,3</tspan></text>
</g>
<g id="d41">
<rect x="0" y="0" width="52" height="52" rx="5" fill="none" stroke="black" stroke-width="2" />
<rect x="1.0" y="1.0" width="50.0" height="50.0" rx="4.0" fill="#cccccc" />
<rect x="6" y="4" width="40" height="40" rx="5" fill="#fbfbfb" />
<text x="7" y="7" font-size="12" text-anchor="start" dominant-baseline="hanging"><tspan x="7" dy="0em">3,4</tspan></text>
</g>
</defs>
<use xlink:href="#d0" x="160" y="4" />
<use xlink:href="#d1" x="602.0" y="4" />
<use xlink:href="#d2" x="108" y="10.76" />
<use xlink:href="#d3" x="212" y="10.76" />
<use xlink:href="#d4" x="550.0" y="10.76" />
<use xlink:href="#d5" x="654.0" y="10.76" />
<use xlink:href="#d6" x="264" y="17.52" />
<use xlink:href="#d7" x="498.0" y="17.52" />
<use xlink:href="#d8" x="4" y="24.28" />
<use xlink:href="#d9" x="56" y="24.28" />
<use xlink:href="#d10" x="706.0" y="24.28" />
<use xlink:href="#d11" x="758.0" y="24.28" />
<use xlink:href="#d12" x="160" y="56.571999999999996" />
<use xlink:href="#d13" x="602.0" y="56.571999999999996" />
<use xlink:href="#d14" x="108" y="63.332" />
<use xlink:href="#d15" x="212" y="63.332" />
<use xlink:href="#d16" x="550.0" y="63.332" />
<use xlink:href="#d17" x="654.0" y="63.332" />
<use xlink:href="#d18" x="264" y="70.092" />
<use xlink:href="#d19" x="498.0" y="70.092" />
<use xlink:href="#d20" x="4" y="76.852" />
<use xlink:href="#d21" x="56" y="76.852" />
<use xlink:href="#d22" x="706.0" y="76.852" />
<use xlink:href="#d23" x="758.0" y="76.852" />
<use xlink:href="#d24" x="160" y="109.14399999999999" />
<use xlink:href="#d25" x="602.0" y="109.14399999999999" />
<use xlink:href="#d26" x="108" y="115.90400000000001" />
<use xlink:href="#d27" x="212" y="115.90400000000001" />
<use xlink:href="#d28" x="550.0" y="115.90400000000001" />
<use xlink:href="#d29" x="654.0" y="115.90400000000001" />
<use xlink:href="#d30" x="264" y="122.664" />
<use xlink:href="#d31" x="498.0" y="122.664" />
<use xlink:href="#d32" x="4" y="129.42399999999998" />
<use xlink:href="#d33" x="56" y="129.42399999999998" />
<use xlink:href="#d34" x="706.0" y="129.42399999999998" />
<use xlink:href="#d35" x="758.0" y="129.42399999999998" />
<use xlink:href="#d36" x="186.0" y="174.716" />
<use xlink:href="#d37" x="576.0" y="174.716" />
<use xlink:href="#d38" x="251.0" y="162.5064" transform="rotate(15 195.0 169.0)" />
<use xlink:href="#d39" x="166.2296" y="194.32" transform="rotate(30 280.8 483.6)" />
<use xlink:href="#d40" x="603.0036" y="169.36" transform="rotate(-30 577.1999999999999 483.6)" />
<use xlink:href="#d41" x="590.0192000000001" y="169.36" transform="rotate(-15 624 473.2)" />
</svg>