<?xml version="1.0" encoding="UTF-8"?>
<svg xmlns="http://www.w3.org/2000/svg" xmlns:xlink="http://www.w3.org/1999/xlink"
     width="1040" height="360" viewBox="0 -2 1040 360">
<defs>
<g id="d0">
<rect x="0" y="0" width="52" height="52" rx="5" fill="none" stroke="black" stroke-width="2" />
<rect x="1.0" y="1.0" width="50.0" height="50.0" rx="4.0" fill="#cccccc" />
<rect x="6" y="4" width="40" height="40" rx="5" fill="#fbfbfb" />
<text x="7" y="7" font-size="12" text-anchor="start" dominant-baseline="hanging"><tspan x="7" dy="0em">0,0</tspan></text>
<text x="26.0" y="26.0" font-size="12" text-anchor="middle" dominant-baseline="middle"><tspan x="26.0" dy="0em">e0</tspan></text>
</g>
<g id="d1">
<rect x="0" y="0" width="52" height="52" rx="5" fill="none" stroke="black" stroke-width="2" />
<rect x="1.0" y="1.0" width="50.0" height="50.0" rx="4.0" fill="#777777" />
<rect x="6" y="4" width="40" height="40" rx="5" fill="#919191" />
<text x="7" y="7" font-size="12" text-anchor="start" dominant-baseline="hanging"><tspan x="7" dy="0em">0,1</tspan></text>
<text x="7" y="42" font-size="12" text-anchor="start" dominant-baseline="auto"><tspan x="7" dy="0em">ESC</tspan></text>
</g>
<g id="d2">
<rect x="0" y="0" width="52" height="52" rx="5" fill="none" stroke="black" stroke-width="2" />
<rect x="1.0" y="1.0" width="50.0" height="50.0" rx="4.0" fill="#aaaaaa" />
<rect x="6" y="4" width="40" height="40" rx="5" fill="#d0d0d0" />
<text x="7" y="7" font-size="12" text-anchor="start" dominant-baseline="hanging"><tspan x="7" dy="0em">0,2</tspan></text>
</g>
<g id="d3">
<rect x="0" y="0" width="52" height="52" rx="5" fill="none" stroke="black" stroke-width="2" />
<rect x="1.0" y="1.0" width="50.0" height="50.0" rx="4.0" fill="#aaaaaa" />
<rect x="6" y="4" width="40" height="40" rx="5" fill="#d0d0d0" />
<text x="7" y="7" font-size="12" text-anchor="start" dominant-baseline="hanging"><tspan x="7" dy="0em">0,3</tspan></text>
</g>
<g id="d4">
<rect x="0" y="0" width="52" height="52" rx="5" fill="none" stroke="black" stroke-width="2" />
<rect x="1.0" y="1.0" width="50.0" height="50.0" rx="4.0" fill="#aaaaaa" />
<rect x="6" y="4" width="40" height="40" rx="5" fill="#d0d0d0" />
<text x="7" y="7" font-size="12" text-anchor="start" dominant-baseline="hanging"><tspan x="7" dy="0em">0,12</tspan></text>
</g>
<g id="d5">
<rect x="0" y="0" width="52" height="52" rx="5" fill="none" stroke="black" stroke-width="2" />
<rect x="1.0" y="1.0" width="50.0" height="50.0" rx="4.0" fill="#aaaaaa" />
<rect x="6" y="4" width="40" height="40" rx="5" fill="#d0d0d0" />
<text x="7" y="7" font-size="12" text-anchor="start" dominant-baseline="hanging"><tspan x="7" dy="0em">0,13</tspan></text>
</g>
<g id="d6">
<rect x="0" y="0" width="52" height="52" rx="5" fill="none" stroke="black" stroke-width="2" />
<rect x="1.0" y="1.0" width="50.0" height="50.0" rx="4.0" fill="#aaaaaa" />
<rect x="6" y="4" width="40" height="40" rx="5" fill="#d0d0d0" />
<text x="7" y="7" font-size="12" text-anchor="start" dominant-baseline="hanging"><tspan x="7" dy="0em">0,14</tspan></text>
</g>
<g id="d7">
<rect x="0" y="0" width="52" height="52" rx="5" fill="none" stroke="black" stroke-width="2" />
<rect x="1.0" y="1.0" width="50.0" height="50.0" rx="4.0" fill="#aaaaaa" />
<rect x="6" y="4" width="40" height="40" rx="5" fill="#d0d0d0" />
<text x="7" y="7" font-size="12" text-anchor="start" dominant-baseline="hanging"><tspan x="7" dy="0em">0,15</tspan></text>
</g>
<g id="d8">
<rect x="0" y="0" width="52" height="52" rx="5" fill="none" stroke="black" stroke-width="2" />
<rect x="1.0" y="1.0" width="50.0" height="50.0" rx="4.0" fill="#cccccc" />
<rect x="6" y="4" width="40" height="40" rx="5" fill="#fbfbfb" />
<text x="7" y="7" font-size="12" text-anchor="start" dominant-baseline="hanging"><tspan x="7" dy="0em">1,0</tspan></text>
</g>
<g id="d9">
<rect x="0" y="0" width="52" height="52" rx="5" fill="none" stroke="black" stroke-width="2" />
<rect x="1.0" y="1.0" width="50.0" height="50.0" rx="4.0" fill="#aaaaaa" />
<rect x="6" y="4" width="40" height="40" rx="5" fill="#d0d0d0" />
<text x="7" y="7" font-size="12" text-anchor="start" dominant-baseline="hanging"><tspan x="7" dy="0em">1,1</tspan></text>
</g>
<g id="d10">
<rect x="0" y="0" width="52" height="52" rx="5" fill="none" stroke="black" stroke-width="2" />
<rect x="1.0" y="1.0" width="50.0" height="50.0" rx="4.0" fill="#cccccc" />
<rect x="6" y="4" width="40" height="40" rx="5" fill="#fbfbfb" />
<text x="7" y="7" font-size="12" text-anchor="start" dominant-baseline="hanging"><tspan x="7" dy="0em">1,2</tspan></text>
</g>
<g id="d11">
<rect x="0" y="0" width="52" height="52" rx="5" fill="none" stroke="black" stroke-width="2" />
<rect x="1.0" y="1.0" width="50.0" height="50.0" rx="4.0" fill="#cccccc" />
<rect x="6" y="4" width="40" height="40" rx="5" fill="#fbfbfb" />
<text x="7" y="7" font-size="12" text-anchor="start" dominant-baseline="hanging"><tspan x="7" dy="0em">1,3</tspan></text>
</g>
<g id="d12">
<rect x="0" y="0" width="52" height="52" rx="5" fill="none" stroke="black" stroke-width="2" />
<rect x="1.0" y="1.0" width="50.0" height="50.0" rx="4.0" fill="#cccccc" />
<rect x="6" y="4" width="40" height="40" rx="5" fill="#fbfbfb" />
<text x="7" y="7" font-size="12" text-anchor="start" dominant-baseline="hanging"><tspan x="7" dy="0em">1,12</tspan></text>
</g>
<g id="d13">
<rect x="0" y="0" width="52" height="52" rx="5" fill="none" stroke="black" stroke-width="2" />
<rect x="1.0" y="1.0" width="50.0" height="50.0" rx="4.0" fill="#cccccc" />
<rect x="6" y="4" width="40" height="40" rx="5" fill="#fbfbfb" />
<text x="7" y="7" font-size="12" text-anchor="start" dominant-baseline="hanging"><tspan x="7" dy="0em">1,13</tspan></text>
</g>
<g id="d14">
<rect x="0" y="0" width="104" height="52" rx="5" fill="none" stroke="black" stroke-width="2" />
<rect x="1.0" y="1.0" width="102.0" height="50.0" rx="4.0" fill="#aaaaaa" />
<rect x="6" y="4" width="92" height="40" rx="5" fill="#d0d0d0" />
<text x="7" y="7" font-size="12" text-anchor="start" dominant-baseline="hanging"><tspan x="7" dy="0em">1,14</tspan></text>
</g>
<g id="d15">
<rect x="0" y="0" width="52" height="52" rx="5" fill="none" stroke="black" stroke-width="2" />
<rect x="1.0" y="1.0" width="50.0" height="50.0" rx="4.0" fill="#aaaaaa" />
<rect x="6" y="4" width="40" height="40" rx="5" fill="#d0d0d0" />
<text x="7" y="7" font-size="12" text-anchor="start" dominant-baseline="hanging"><tspan x="7" dy="0em">1,15</tspan></text>
</g>
<g id="d16">
<rect x="0" y="0" width="52" height="52" rx="5" fill="none" stroke="black" stroke-width="2" />
<rect x="1.0" y="1.0" width="50.0" height="50.0" rx="4.0" fill="#cccccc" />
<rect x="6" y="4" width="40" height="40" rx="5" fill="#fbfbfb" />
<text x="7" y="7" font-size="12" text-anchor="start" dominant-baseline="hanging"><tspan x="7" dy="0em">2,0</tspan></text>
</g>
<g id="d17">
<rect x="0" y="0" width="78.0" height="52" rx="5" fill="none" stroke="black" stroke-width="2" />
<rect x="1.0" y="1.0" width="76.0" height="50.0" rx="4.0" fill="#aaaaaa" />
<rect x="6" y="4" width="66.0" height="40" rx="5" fill="#d0d0d0" />
<text x="7" y="7" font-size="12" text-anchor="start" dominant-baseline="hanging"><tspan x="7" dy="0em">2,1</tspan></text>
</g>
<g id="d18">
<rect x="0" y="0" width="52" height="52" rx="5" fill="none" stroke="black" stroke-width="2" />
<rect x="1.0" y="1.0" width="50.0" height="50.0" rx="4.0" fill="#cccccc" />
<rect x="6" y="4" width="40" height="40" rx="5" fill="#fbfbfb" />
<text x="7" y="7" font-size="12" text-anchor="start" dominant-baseline="hanging"><tspan x="7" dy="0em">2,2</tspan></text>
</g>
<g id="d19">
<rect x="0" y="0" width="52" height="52" rx="5" fill="none" stroke="black" stroke-width="2" />
<rect x="1.0" y="1.0" width="50.0" height="50.0" rx="4.0" fill="#cccccc" />
<rect x="6" y="4" width="40" height="40" rx="5" fill="#fbfbfb" />
<text x="7" y="7" font-size="12" text-anchor="start" dominant-baseline="hanging"><tspan x="7" dy="0em">2,12</tspan></text>
</g>
<g id="d20">
<rect x="0" y="0" width="52" height="52" rx="5" fill="none" stroke="black" stroke-width="2" />
<rect x="1.0" y="1.0" width="50.0" height="50.0" rx="4.0" fill="#cccccc" />
<rect x="6" y="4" width="40" height="40" rx="5" fill="#fbfbfb" />
<text x="7" y="7" font-size="12" text-anchor="start" dominant-baseline="hanging"><tspan x="7" dy="0em">2,13</tspan></text>
</g>
<g id="d21">
<rect x="0" y="0" width="65.0" height="104" rx="5" fill="none" stroke="black" stroke-width="2" />
<rect x="-13.0" y="0" width="78.0" height="52" rx="5" fill="none" stroke="black" stroke-width="2" />
<rect x="1.0" y="1.0" width="63.0" height="102.0" rx="4.0" fill="#777777" />
<rect x="-12.0" y="1.0" width="76.0" height="50.0" rx="4.0" fill="#777777" />
<rect x="6" y="4" width="53.0" height="92" rx="5" fill="#919191" />
<rect x="-7.0" y="4" width="66.0" height="40" rx="5" fill="#919191" />
<text x="7" y="7" font-size="12" text-anchor="start" dominant-baseline="hanging"><tspan x="7" dy="0em">2,14</tspan></text>
</g>
<g id="d22">
<rect x="0" y="0" width="52" height="52" rx="5" fill="none" stroke="black" stroke-width="2" />
<rect x="1.0" y="1.0" width="50.0" height="50.0" rx="4.0" fill="#aaaaaa" />
<rect x="6" y="4" width="40" height="40" rx="5" fill="#d0d0d0" />
<text x="7" y="7" font-size="12" text-anchor="start" dominant-baseline="hanging"><tspan x="7" dy="0em">2,15</tspan></text>
</g>
<g id="d23">
<rect x="0" y="0" width="52" height="52" rx="5" fill="none" stroke="black" stroke-width="2" />
<rect x="1.0" y="1.0" width="50.0" height="50.0" rx="4.0" fill="#cccccc" />
<rect x="6" y="4" width="40" height="40" rx="5" fill="#fbfbfb" />
<text x="7" y="7" font-size="12" text-anchor="start" dominant-baseline="hanging"><tspan x="7" dy="0em">3,0</tspan></text>
</g>
<g id="d24">
<rect x="0" y="0" width="91.0" height="52" rx="5" fill="none" stroke="black" stroke-width="2" />
<rect x="1.0" y="1.0" width="89.0" height="50.0" rx="4.0" fill="#aaaaaa" />
<rect x="6" y="4" width="79.0" height="40" rx="5" fill="#d0d0d0" />
<text x="7" y="7" font-size="12" text-anchor="start" dominant-baseline="hanging"><tspan x="7" dy="0em">3,1</tspan></text>
</g>
<g id="d25">
<rect x="0" y="0" width="52" height="52" rx="5" fill="none" stroke="black" stroke-width="2" />
<rect x="1.0" y="1.0" width="50.0" height="50.0" rx="4.0" fill="#cccccc" />
<rect x="6" y="4" width="40" height="40" rx="5" fill="#fbfbfb" />
<text x="7" y="7" font-size="12" text-anchor="start" dominant-baseline="hanging"><tspan x="7" dy="0em">3,2</tspan></text>
</g>
<g id="d26">
<rect x="0" y="0" width="52" height="52" rx="5" fill="none" stroke="black" stroke-width="2" />
<rect x="1.0" y="1.0" width="50.0" height="50.0" rx="4.0" fill="#cccccc" />
<rect x="6" y="4" width="40" height="40" rx="5" fill="#fbfbfb" />
<text x="7" y="7" font-size="12" text-anchor="start" dominant-baseline="hanging"><tspan x="7" dy="0em">3,12</tspan></text>
</g>
<g id="d27">
<rect x="0" y="0" width="52" height="52" rx="5" fill="none" stroke="black" stroke-width="2" />
<rect x="1.0" y="1.0" width="50.0" height="50.0" rx="4.0" fill="#cccccc" />
<rect x="6" y="4" width="40" height="40" rx="5" fill="#fbfbfb" />
<text x="7" y="7" font-size="12" text-anchor="start" dominant-baseline="hanging"><tspan x="7" dy="0em">3,13</tspan></text>
</g>
<g id="d28">
<rect x="0" y="0" width="52" height="52" rx="5" fill="none" stroke="black" stroke-width="2" />
<rect x="1.0" y="1.0" width="50.0" height="50.0" rx="4.0" fill="#cccccc" />
<rect x="6" y="4" width="40" height="40" rx="5" fill="#fbfbfb" />
<text x="7" y="7" font-size="12" text-anchor="start" dominant-baseline="hanging"><tspan x="7" dy="0em">3,14</tspan></text>
</g>
<g id="d29">
<rect x="0" y="0" width="52" height="52" rx="5" fill="none" stroke="black" stroke-width="2" />
<rect x="1.0" y="1.0" width="50.0" height="50.0" rx="4.0" fill="#aaaaaa" />
<rect x="6" y="4" width="40" height="40" rx="5" fill="#d0d0d0" />
<text x="7" y="7" font-size="12" text-anchor="start" dominant-baseline="hanging"><tspan x="7" dy="0em">3,15</tspan></text>
</g>
<g id="d30">
<rect x="0" y="0" width="52" height="52" rx="5" fill="none" stroke="black" stroke-width="2" />
<rect x="1.0" y="1.0" width="50.0" height="50.0" rx="4.0" fill="#cccccc" />
<rect x="6" y="4" width="40" height="40" rx="5" fill="#fbfbfb" />
<text x="7" y="7" font-size="12" text-anchor="start" dominant-baseline="hanging"><tspan x="7" dy="0em">4,0</tspan></text>
</g>
<g id="d31">
<rect x="0" y="0" width="65.0" height="52" rx="5" fill="none" stroke="black" stroke-width="2" />
<rect x="1.0" y="1.0" width="63.0" height="50.0" rx="4.0" fill="#aaaaaa" />
<rect x="6" y="4" width="53.0" height="40" rx="5" fill="#d0d0d0" />
<text x="7" y="7" font-size="12" text-anchor="start" dominant-baseline="hanging"><tspan x="7" dy="0em">4,1</tspan></text>
</g>
<g id="d32">
<rect x="0" y="0" width="52" height="52" rx="5" fill="none" stroke="black" stroke-width="2" />
<rect x="1.0" y="1.0" width="50.0" height="50.0" rx="4.0" fill="#cccccc" />
<rect x="6" y="4" width="40" height="40" rx="5" fill="#fbfbfb" />
<text x="7" y="7" font-size="12" text-anchor="start" dominant-baseline="hanging"><tspan x="7" dy="0em">4,2</tspan></text>
</g>
<g id="d33">
<rect x="0" y="0" width="52" height="52" rx="5" fill="none" stroke="black" stroke-width="2" />
<rect x="1.0" y="1.0" width="50.0" height="50.0" rx="4.0" fill="#cccccc" />
<rect x="6" y="4" width="40" height="40" rx="5" fill="#fbfbfb" />
<text x="7" y="7" font-size="12" text-anchor="start" dominant-baseline="hanging"><tspan x="7" dy="0em">4,3</tspan></text>
</g>
<g id="d34">
<rect x="0" y="0" width="52" height="52" rx="5" fill="none" stroke="black" stroke-width="2" />
<rect x="1.0" y="1.0" width="50.0" height="50.0" rx="4.0" fill="#cccccc" />
<rect x="6" y="4" width="40" height="40" rx="5" fill="#fbfbfb" />
<text x="7" y="7" font-size="12" text-anchor="start" dominant-baseline="hanging"><tspan x="7" dy="0em">4,13</tspan></text>
</g>
<g id="d35">
<rect x="0" y="0" width="91.0" height="52" rx="5" fill="none" stroke="black" stroke-width="2" />
<rect x="1.0" y="1.0" width="89.0" height="50.0" rx="4.0" fill="#aaaaaa" />
<rect x="6" y="4" width="79.0" height="40" rx="5" fill="#d0d0d0" />
<text x="7" y="7" font-size="12" text-anchor="start" dominant-baseline="hanging"><tspan x="7" dy="0em">4,14</tspan></text>
</g>
<g id="d36">
<rect x="0" y="0" width="52" height="52" rx="5" fill="none" stroke="black" stroke-width="2" />
<rect x="1.0" y="1.0" width="50.0" height="50.0" rx="4.0" fill="#777777" />
<rect x="6" y="4" width="40" height="40" rx="5" fill="#919191" />
<text x="7" y="7" font-size="12" text-anchor="start" dominant-baseline="hanging"><tspan x="7" dy="0em">4,15</tspan></text>
</g>
<g id="d37">
<rect x="0" y="0" width="52" height="52" rx="5" fill="none" stroke="black" stroke-width="2" />
<rect x="1.0" y="1.0" width="50.0" height="50.0" rx="4.0" fill="#cccccc" />
<rect x="6" y="4" width="40" height="40" rx="5" fill="#fbfbfb" />
<text x="7" y="7" font-size="12" text-anchor="start" dominant-baseline="hanging"><tspan x="7" dy="0em">5,0</tspan></text>
</g>
<g id="d38">
<rect x="0" y="0" width="65.0" height="52" rx="5" fill="none" stroke="black" stroke-width="2" />
<rect x="1.0" y="1.0" width="63.0" height="50.0" rx="4.0" fill="#aaaaaa" />
<rect x="6" y="4" width="53.0" height="40" rx="5" fill="#d0d0d0" />
<text x="7" y="7" font-size="12" text-anchor="start" dominant-baseline="hanging"><tspan x="7" dy="0em">5,1</tspan></text>
</g>
<g id="d39">
<rect x="0" y="0" width="65.0" height="52" rx="5" fill="none" stroke="black" stroke-width="2" />
<rect x="1.0" y="1.0" width="63.0" height="50.0" rx="4.0" fill="#aaaaaa" />
<rect x="6" y="4" width="53.0" height="40" rx="5" fill="#d0d0d0" />
<text x="7" y="7" font-size="12" text-anchor="start" dominant-baseline="hanging"><tspan x="7" dy="0em">5,2</tspan></text>
</g>
<g id="d40">
<rect x="0" y="0" width="52" height="52" rx="5" fill="none" stroke="black" stroke-width="2" />
<rect x="1.0" y="1.0" width="50.0" height="50.0" rx="4.0" fill="#777777" />
<rect x="6" y="4" width="40" height="40" rx="5" fill="#919191" />
<text x="7" y="7" font-size="12" text-anchor="start" dominant-baseline="hanging"><tspan x="7" dy="0em">5,13</tspan></text>
</g>
<g id="d41">
<rect x="0" y="0" width="52" height="52" rx="5" fill="none" stroke="black" stroke-width="2" />
<rect x="1.0" y="1.0" width="50.0" height="50.0" rx="4.0" fill="#777777" />
<rect x="6" y="4" width="40" height="40" rx="5" fill="#919191" />
<text x="7" y="7" font-size="12" text-anchor="start" dominant-baseline="hanging"><tspan x="7" dy="0em">5,14</tspan></text>
</g>
<g id="d42">
<rect x="0" y="0" width="52" height="52" rx="5" fill="none" stroke="black" stroke-width="2" />
<rect x="1.0" y="1.0" width="50.0" height="50.0" rx="4.0" fill="#777777" />
<rect x="6" y="4" width="40" height="40" rx="5" fill="#919191" />
<text x="7" y="7" font-size="12" text-anchor="start" dominant-baseline="hanging"><tspan x="7" dy="0em">5,15</tspan></text>
</g>
<g id="d43">
<rect x="0" y="0" width="52" height="52" rx="5" fill="none" stroke="black" stroke-width="2" />
<rect x="1.0" y="1.0" width="50.0" height="50.0" rx="4.0" fill="#aaaaaa" />
<rect x="6" y="4" width="40" height="40" rx="5" fill="#d0d0d0" />
<text x="7" y="7" font-size="12" text-anchor="start" dominant-baseline="hanging"><tspan x="7" dy="0em">0,4</tspan></text>
</g>
<g id="d44">
<rect x="0" y="0" width="52" height="52" rx="5" fill="none" stroke="black" stroke-width="2" />
<rect x="1.0" y="1.0" width="50.0" height="50.0" rx="4.0" fill="#aaaaaa" />
<rect x="6" y="4" width="40" height="40" rx="5" fill="#d0d0d0" />
<text x="7" y="7" font-size="12" text-anchor="start" dominant-baseline="hanging"><tspan x="7" dy="0em">0,5</tspan></text>
</g>
<g id="d45">
<rect x="0" y="0" width="52" height="52" rx="5" fill="none" stroke="black" stroke-width="2" />
<rect x="1.0" y="1.0" width="50.0" height="50.0" rx="4.0" fill="#aaaaaa" />
<rect x="6" y="4" width="40" height="40" rx="5" fill="#d0d0d0" />
<text x="7" y="7" font-size="12" text-anchor="start" dominant-baseline="hanging"><tspan x="7" dy="0em">0,6</tspan></text>
</g>
<g id="d46">
<rect x="0" y="0" width="52" height="52" rx="5" fill="none" stroke="black" stroke-width="2" />
<rect x="1.0" y="1.0" width="50.0" height="50.0" rx="4.0" fill="#aaaaaa" />
<rect x="6" y="4" width="40" height="40" rx="5" fill="#d0d0d0" />
<text x="7" y="7" font-size="12" text-anchor="start" dominant-baseline="hanging"><tspan x="7" dy="0em">0,7</tspan></text>
</g>
<g id="d47">
<rect x="0" y="0" width="52" height="52" rx="5" fill="none" stroke="black" stroke-width="2" />
<rect x="1.0" y="1.0" width="50.0" height="50.0" rx="4.0" fill="#cccccc" />
<rect x="6" y="4" width="40" height="40" rx="5" fill="#fbfbfb" />
<text x="7" y="7" font-size="12" text-anchor="start" dominant-baseline="hanging"><tspan x="7" dy="0em">1,4</tspan></text>
</g>
<g id="d48">
<rect x="0" y="0" width="52" height="52" rx="5" fill="none" stroke="black" stroke-width="2" />
<rect x="1.0" y="1.0" width="50.0" height="50.0" rx="4.0" fill="#cccccc" />
<rect x="6" y="4" width="40" height="40" rx="5" fill="#fbfbfb" />
<text x="7" y="7" font-size="12" text-anchor="start" dominant-baseline="hanging"><tspan x="7" dy="0em">1,5</tspan></text>
</g>
<g id="d49">
<rect x="0" y="0" width="52" height="52" rx="5" fill="none" stroke="black" stroke-width="2" />
<rect x="1.0" y="1.0" width="50.0" height="50.0" rx="4.0" fill="#cccccc" />
<rect x="6" y="4" width="40" height="40" rx="5" fill="#fbfbfb" />
<text x="7" y="7" font-size="12" text-anchor="start" dominant-baseline="hanging"><tspan x="7" dy="0em">1,6</tspan></text>
</g>
<g id="d50">
<rect x="0" y="0" width="52" height="52" rx="5" fill="none" stroke="black" stroke-width="2" />
<rect x="1.0" y="1.0" width="50.0" height="50.0" rx="4.0" fill="#cccccc" />
<rect x="6" y="4" width="40" height="40" rx="5" fill="#fbfbfb" />
<text x="7" y="7" font-size="12" text-anchor="start" dominant-baseline="hanging"><tspan x="7" dy="0em">1,7</tspan></text>
</g>
<g id="d51">
<rect x="0" y="0" width="52" height="52" rx="5" fill="none" stroke="black" stroke-width="2" />
<rect x="1.0" y="1.0" width="50.0" height="50.0" rx="4.0" fill="#cccccc" />
<rect x="6" y="4" width="40" height="40" rx="5" fill="#fbfbfb" />
<text x="7" y="7" font-size="12" text-anchor="start" dominant-baseline="hanging"><tspan x="7" dy="0em">2,3</tspan></text>
</g>
<g id="d52">
<rect x="0" y="0" width="52" height="52" rx="5" fill="none" stroke="black" stroke-width="2" />
<rect x="1.0" y="1.0" width="50.0" height="50.0" rx="4.0" fill="#cccccc" />
<rect x="6" y="4" width="40" height="40" rx="5" fill="#fbfbfb" />
<text x="7" y="7" font-size="12" text-anchor="start" dominant-baseline="hanging"><tspan x="7" dy="0em">2,4</tspan></text>
</g>
<g id="d53">
<rect x="0" y="0" width="52" height="52" rx="5" fill="none" stroke="black" stroke-width="2" />
<rect x="1.0" y="1.0" width="50.0" height="50.0" rx="4.0" fill="#cccccc" />
<rect x="6" y="4" width="40" height="40" rx="5" fill="#fbfbfb" />
<text x="7" y="7" font-size="12" text-anchor="start" dominant-baseline="hanging"><tspan x="7" dy="0em">2,5</tspan></text>
</g>
<g id="d54">
<rect x="0" y="0" width="52" height="52" rx="5" fill="none" stroke="black" stroke-width="2" />
<rect x="1.0" y="1.0" width="50.0" height="50.0" rx="4.0" fill="#cccccc" />
<rect x="6" y="4" width="40" height="40" rx="5" fill="#fbfbfb" />
<text x="7" y="7" font-size="12" text-anchor="start" dominant-baseline="hanging"><tspan x="7" dy="0em">2,6</tspan></text>
</g>
<g id="d55">
<rect x="0" y="0" width="52" height="52" rx="5" fill="none" stroke="black" stroke-width="2" />
<rect x="1.0" y="1.0" width="50.0" height="50.0" rx="4.0" fill="#cccccc" />
<rect x="6" y="4" width="40" height="40" rx="5" fill="#fbfbfb" />
<text x="7" y="7" font-size="12" text-anchor="start" dominant-baseline="hanging"><tspan x="7" dy="0em">3,3</tspan></text>
</g>
<g id="d56">
<rect x="0" y="0" width="52" height="52" rx="5" fill="none" stroke="black" stroke-width="2" />
<rect x="1.0" y="1.0" width="50.0" height="50.0" rx="4.0" fill="#cccccc" />
<rect x="6" y="4" width="40" height="40" rx="5" fill="#fbfbfb" />
<text x="7" y="7" font-size="12" text-anchor="start" dominant-baseline="hanging"><tspan x="7" dy="0em">3,4</tspan></text>
</g>
<g id="d57">
<rect x="0" y="0" width="52" height="52" rx="5" fill="none" stroke="black" stroke-width="2" />
<rect x="1.0" y="1.0" width="50.0" height="50.0" rx="4.0" fill="#cccccc" />
<rect x="6" y="4" width="40" height="40" rx="5" fill="#fbfbfb" />
<text x="7" y="7" font-size="12" text-anchor="start" dominant-baseline="hanging"><tspan x="7" dy="0em">3,5</tspan></text>
</g>
<g id="d58">
<rect x="0" y="0" width="52" height="52" rx="5" fill="none" stroke="black" stroke-width="2" />
<rect x="1.0" y="1.0" width="50.0" height="50.0" rx="4.0" fill="#cccccc" />
<rect x="6" y="4" width="40" height="40" rx="5" fill="#fbfbfb" />
<text x="7" y="7" font-size="12" text-anchor="start" dominant-baseline="hanging"><tspan x="7" dy="0em">3,6</tspan></text>
</g>
<g id="d59">
<rect x="0" y="0" width="52" height="52" rx="5" fill="none" stroke="black" stroke-width="2" />
<rect x="1.0" y="1.0" width="50.0" height="50.0" rx="4.0" fill="#cccccc" />
<rect x="6" y="4" width="40" height="40" rx="5" fill="#fbfbfb" />
<text x="7" y="7" font-size="12" text-anchor="start" dominant-baseline="hanging"><tspan x="7" dy="0em">4,4</tspan></text>
</g>
<g id="d60">
<rect x="0" y="0" width="52" height="52" rx="5" fill="none" stroke="black" stroke-width="2" />
<rect x="1.0" y="1.0" width="50.0" height="50.0" rx="4.0" fill="#cccccc" />
<rect x="6" y="4" width="40" height="40" rx="5" fill="#fbfbfb" />
<text x="7" y="7" font-size="12" text-anchor="start" dominant-baseline="hanging"><tspan x="7" dy="0em">4,5</tspan></text>
</g>
<g id="d61">
<rect x="0" y="0" width="52" height="52" rx="5" fill="none" stroke="black" stroke-width="2" />
<rect x="1.0" y="1.0" width="50.0" height="50.0" rx="4.0" fill="#cccccc" />
<rect x="6" y="4" width="40" height="40" rx="5" fill="#fbfbfb" />
<text x="7" y="7" font-size="12" text-anchor="start" dominant-baseline="hanging"><tspan x="7" dy="0em">4,6</tspan></text>
</g>
<g id="d62">
<rect x="0" y="0" width="52" height="52" rx="5" fill="none" stroke="black" stroke-width="2" />
<rect x="1.0" y="1.0" width="50.0" height="50.0" rx="4.0" fill="#cccccc" />
<rect x="6" y="4" width="40" height="40" rx="5" fill="#fbfbfb" />
<text x="7" y="7" font-size="12" text-anchor="start" dominant-baseline="hanging"><tspan x="7" dy="0em">4,7</tspan></text>
</g>
<g id="d63">
<rect x="0" y="0" width="65.0" height="52" rx="5" fill="none" stroke="black" stroke-width="2" />
<rect x="1.0" y="1.0" width="63.0" height="50.0" rx="4.0" fill="#aaaaaa" />
<rect x="6" y="4" width="53.0" height="40" rx="5" fill="#d0d0d0" />
<text x="7" y="7" font-size="12" text-anchor="start" dominant-baseline="hanging"><tspan x="7" dy="0em">5,3</tspan></text>
</g>
<g id="d64">
<rect x="0" y="0" width="117.0" height="52" rx="5" fill="none" stroke="black" stroke-width="2" />
<rect x="1.0" y="1.0" width="115.0" height="50.0" rx="4.0" fill="#cccccc" />
<rect x="6" y="4" width="105.0" height="40" rx="5" fill="#fbfbfb" />
<text x="7" y="7" font-size="12" text-anchor="start" dominant-baseline="hanging"><tspan x="7" dy="0em">5,4</tspan></text>
</g>
<g id="d65">
<rect x="0" y="0" width="52" height="52" rx="5" fill="none" stroke="black" stroke-width="2" />
<rect x="1.0" y="1.0" width="50.0" height="50.0" rx="4.0" fill="#aaaaaa" />
<rect x="6" y="4" width="40" height="40" rx="5" fill="#d0d0d0" />
<text x="7" y="7" font-size="12" text-anchor="start" dominant-baseline="hanging"><tspan x="7" dy="0em">5,7</tspan></text>
</g>
<g id="d66">
<rect x="0" y="0" width="52" height="52" rx="5" fill="none" stroke="black" stroke-width="2" />
<rect x="1.0" y="1.0" width="50.0" height="50.0" rx="4.0" fill="#aaaaaa" />
<rect x="6" y="4" width="40" height="40" rx="5" fill="#d0d0d0" />
<text x="7" y="7" font-size="12" text-anchor="start" dominant-baseline="hanging"><tspan x="7" dy="0em">0,8</tspan></text>
</g>
<g id="d67">
<rect x="0" y="0" width="52" height="52" rx="5" fill="none" stroke="black" stroke-width="2" />
<rect x="1.0" y="1.0" width="50.0" height="50.0" rx="4.0" fill="#aaaaaa" />
<rect x="6" y="4" width="40" height="40" rx="5" fill="#d0d0d0" />
<text x="7" y="7" font-size="12" text-anchor="start" dominant-baseline="hanging"><tspan x="7" dy="0em">0,9</tspan></text>
</g>
<g id="d68">
<rect x="0" y="0" width="52" height="52" rx="5" fill="none" stroke="black" stroke-width="2" />
<rect x="1.0" y="1.0" width="50.0" height="50.0" rx="4.0" fill="#aaaaaa" />
<rect x="6" y="4" width="40" height="40" rx="5" fill="#d0d0d0" />
<text x="7" y="7" font-size="12" text-anchor="start" dominant-baseline="hanging"><tspan x="7" dy="0em">0,10</tspan></text>
</g>
<g id="d69">
<rect x="0" y="0" width="52" height="52" rx="5" fill="none" stroke="black" stroke-width="2" />
<rect x="1.0" y="1.0" width="50.0" height="50.0" rx="4.0" fill="#aaaaaa" />
<rect x="6" y="4" width="40" height="40" rx="5" fill="#d0d0d0" />
<text x="7" y="7" font-size="12" text-anchor="start" dominant-baseline="hanging"><tspan x="7" dy="0em">0,11</tspan></text>
</g>
<g id="d70">
<rect x="0" y="0" width="52" height="52" rx="5" fill="none" stroke="black" stroke-width="2" />
<rect x="1.0" y="1.0" width="50.0" height="50.0" rx="4.0" fill="#cccccc" />
<rect x="6" y="4" width="40" height="40" rx="5" fill="#fbfbfb" />
<text x="7" y="7" font-size="12" text-anchor="start" dominant-baseline="hanging"><tspan x="7" dy="0em">1,8</tspan></text>
</g>
<g id="d71">
<rect x="0" y="0" width="52" height="52" rx="5" fill="none" stroke="black" stroke-width="2" />
<rect x="1.0" y="1.0" width="50.0" height="50.0" rx="4.0" fill="#cccccc" />
<rect x="6" y="4" width="40" height="40" rx="5" fill="#fbfbfb" />
<text x="7" y="7" font-size="12" text-anchor="start" dominant-baseline="hanging"><tspan x="7" dy="0em">1,9</tspan></text>
</g>
<g id="d72">
<rect x="0" y="0" width="52" height="52" rx="5" fill="none" stroke="black" stroke-width="2" />
<rect x="1.0" y="1.0" width="50.0" height="50.0" rx="4.0" fill="#cccccc" />
<rect x="6" y="4" width="40" height="40" rx="5" fill="#fbfbfb" />
<text x="7" y="7" font-size="12" text-anchor="start" dominant-baseline="hanging"><tspan x="7" dy="0em">1,10</tspan></text>
</g>
<g id="d73">
<rect x="0" y="0" width="52" height="52" rx="5" fill="none" stroke="black" stroke-width="2" />
<rect x="1.0" y="1.0" width="50.0" height="50.0" rx="4.0" fill="#cccccc" />
<rect x="6" y="4" width="40" height="40" rx="5" fill="#fbfbfb" />
<text x="7" y="7" font-size="12" text-anchor="start" dominant-baseline="hanging"><tspan x="7" dy="0em">1,11</tspan></text>
</g>
<g id="d74">
<rect x="0" y="0" width="52" height="52" rx="5" fill="none" stroke="black" stroke-width="2" />
<rect x="1.0" y="1.0" width="50.0" height="50.0" rx="4.0" fill="#cccccc" />
<rect x="6" y="4" width="40" height="40" rx="5" fill="#fbfbfb" />
<text x="7" y="7" font-size="12" text-anchor="start" dominant-baseline="hanging"><tspan x="7" dy="0em">2,7</tspan></text>
</g>
<g id="d75">
<rect x="0" y="0" width="52" height="52" rx="5" fill="none" stroke="black" stroke-width="2" />
<rect x="1.0" y="1.0" width="50.0" height="50.0" rx="4.0" fill="#cccccc" />
<rect x="6" y="4" width="40" height="40" rx="5" fill="#fbfbfb" />
<text x="7" y="7" font-size="12" text-anchor="start" dominant-baseline="hanging"><tspan x="7" dy="0em">2,8</tspan></text>
</g>
<g id="d76">
<rect x="0" y="0" width="52" height="52" rx="5" fill="none" stroke="black" stroke-width="2" />
<rect x="1.0" y="1.0" width="50.0" height="50.0" rx="4.0" fill="#cccccc" />
<rect x="6" y="4" width="40" height="40" rx="5" fill="#fbfbfb" />
<text x="7" y="7" font-size="12" text-anchor="start" dominant-baseline="hanging"><tspan x="7" dy="0em">2,9</tspan></text>
</g>
<g id="d77">
<rect x="0" y="0" width="52" height="52" rx="5" fill="none" stroke="black" stroke-width="2" />
<rect x="1.0" y="1.0" width="50.0" height="50.0" rx="4.0" fill="#cccccc" />
<rect x="6" y="4" width="40" height="40" rx="5" fill="#fbfbfb" />
<text x="7" y="7" font-size="12" text-anchor="start" dominant-baseline="hanging"><tspan x="7" dy="0em">2,10</tspan></text>
</g>
<g id="d78">
<rect x="0" y="0" width="52" height="52" rx="5" fill="none" stroke="black" stroke-width="2" />
<rect x="1.0" y="1.0" width="50.0" height="50.0" rx="4.0" fill="#cccccc" />
<rect x="6" y="4" width="40" height="40" rx="5" fill="#fbfbfb" />
<text x="7" y="7" font-size="12" text-anchor="start" dominant-baseline="hanging"><tspan x="7" dy="0em">2,11</tspan></text>
</g>
<g id="d79">
<rect x="0" y="0" width="52" height="52" rx="5" fill="none" stroke="black" stroke-width="2" />
<rect x="1.0" y="1.0" width="50.0" height="50.0" rx="4.0" fill="#cccccc" />
<rect x="6" y="4" width="40" height="40" rx="5" fill="#fbfbfb" />
<text x="7" y="7" font-size="12" text-anchor="start" dominant-baseline="hanging"><tspan x="7" dy="0em">3,8</tspan></text>
</g>
<g id="d80">
<rect x="0" y="0" width="52" height="52" rx="5" fill="none" stroke="black" stroke-width="2" />
<rect x="1.0" y="1.0" width="50.0" height="50.0" rx="4.0" fill="#cccccc" />
<rect x="6" y="4" width="40" height="40" rx="5" fill="#fbfbfb" />
<text x="7" y="7" font-size="12" text-anchor="start" dominant-baseline="hanging"><tspan x="7" dy="0em">3,9</tspan></text>
</g>
<g id="d81">
<rect x="0" y="0" width="52" height="52" rx="5" fill="none" stroke="black" stroke-width="2" />
<rect x="1.0" y="1.0" width="50.0" height="50.0" rx="4.0" fill="#cccccc" />
<rect x="6" y="4" width="40" height="40" rx="5" fill="#fbfbfb" />
<text x="7" y="7" font-size="12" text-anchor="start" dominant-baseline="hanging"><tspan x="7" dy="0em">3,10</tspan></text>
</g>
<g id="d82">
<rect x="0" y="0" width="52" height="52" rx="5" fill="none" stroke="black" stroke-width="2" />
<rect x="1.0" y="1.0" width="50.0" height="50.0" rx="4.0" fill="#cccccc" />
<rect x="6" y="4" width="40" height="40" rx="5" fill="#fbfbfb" />
<text x="7" y="7" font-size="12" text-anchor="start" dominant-baseline="hanging"><tspan x="7" dy="0em">3,11</tspan></text>
</g>
<g id="d83">
<rect x="0" y="0" width="52" height="52" rx="5" fill="none" stroke="black" stroke-width="2" />
<rect x="1.0" y="1.0" width="50.0" height="50.0" rx="4.0" fill="#cccccc" />
<rect x="6" y="4" width="40" height="40" rx="5" fill="#fbfbfb" />
<text x="7" y="7" font-size="12" text-anchor="start" dominant-baseline="hanging"><tspan x="7" dy="0em">4,8</tspan></text>
</g>
<g id="d84">
<rect x="0" y="0" width="52" height="52" rx="5" fill="none" stroke="black" stroke-width="2" />
<rect x="1.0" y="1.0" width="50.0" height="50.0" rx="4.0" fill="#cccccc" />
<rect x="6" y="4" width="40" height="40" rx="5" fill="#fbfbfb" />
<text x="7" y="7" font-size="12" text-anchor="start" dominant-baseline="hanging"><tspan x="7" dy="0em">4,9</tspan></text>
</g>
<g id="d85">
<rect x="0" y="0" width="52" height="52" rx="5" fill="none" stroke="black" stroke-width="2" />
<rect x="1.0" y="1.0" width="50.0" height="50.0" rx="4.0" fill="#cccccc" />
<rect x="6" y="4" width="40" height="40" rx="5" fill="#fbfbfb" />
<text x="7" y="7" font-size="12" text-anchor="start" dominant-baseline="hanging"><tspan x="7" dy="0em">4,10</tspan></text>
</g>
<g id="d86">
<rect x="0" y="0" width="52" height="52" rx="5" fill="none" stroke="black" stroke-width="2" />
<rect x="1.0" y="1.0" width="50.0" height="50.0" rx="4.0" fill="#cccccc" />
<rect x="6" y="4" width="40" height="40" rx="5" fill="#fbfbfb" />
<text x="7" y="7" font-size="12" text-anchor="start" dominant-baseline="hanging"><tspan x="7" dy="0em">4,11</tspan></text>
</g>
<g id="d87">
<rect x="0" y="0" width="52" height="52" rx="5" fill="none" stroke="black" stroke-width="2" />
<rect x="1.0" y="1.0" width="50.0" height="50.0" rx="4.0" fill="#cccccc" />
<rect x="6" y="4" width="40" height="40" rx="5" fill="#fbfbfb" />
<text x="7" y="7" font-size="12" text-anchor="start" dominant-baseline="hanging"><tspan x="7" dy="0em">4,12</tspan></text>
</g>
<g id="d88">
<rect x="0" y="0" width="132.6" height="52" rx="5" fill="none" stroke="black" stroke-width="2" />
<rect x="1.0" y="1.0" width="130.6" height="50.0" rx="4.0" fill="#cccccc" />
<rect x="6" y="4" width="120.6" height="40" rx="5" fill="#fbfbfb" />
<text x="7" y="7" font-size="12" text-anchor="start" dominant-baseline="hanging"><tspan x="7" dy="0em">5,8</tspan></text>
</g>
<g id="d89">
<rect x="0" y="0" width="52" height="52" rx="5" fill="none" stroke="black" stroke-width="2" />
<rect x="1.0" y="1.0" width="50.0" height="50.0" rx="4.0" fill="#aaaaaa" />
<rect x="6" y="4" width="40" height="40" rx="5" fill="#d0d0d0" />
<text x="7" y="7" font-size="12" text-anchor="start" dominant-baseline="hanging"><tspan x="7" dy="0em">5,9</tspan></text>
</g>
</defs>
<use xlink:href="#d0" x="30.0" y="4" />
<use xlink:href="#d1" x="108.0" y="4" />
<use xlink:href="#d2" x="173.0" y="4" />
<use xlink:href="#d3" x="225.0" y="4" />
<use xlink:href="#d4" x="763.1999999999999" y="4" />
<use xlink:href="#d5" x="815.1999999999999" y="4" />
<use xlink:href="#d6" x="880.2" y="4" />
<use xlink:href="#d7" x="945.2" y="4" />
<use xlink:href="#d8" x="43.0" y="69.0" />
<use xlink:href="#d9" x="121.0" y="69.0" />
<use xlink:href="#d10" x="173.0" y="69.0" />
<use xlink:href="#d11" x="225.0" y="69.0" />
<use xlink:href="#d12" x="726.8000000000001" y="69.0" />
<use xlink:href="#d13" x="778.8000000000001" y="69.0" />
<use xlink:href="#d14" x="830.8000000000001" y="69.0" />
<use xlink:href="#d15" x="966.0" y="69.0" />
<use xlink:href="#d16" x="30.0" y="121.0" />
<use xlink:href="#d17" x="108.0" y="121.0" />
<use xlink:href="#d18" x="186.0" y="121.0" />
<use xlink:href="#d19" x="776.1999999999999" y="121.0" />
<use xlink:href="#d20" x="828.1999999999999" y="121.0" />
<use xlink:href="#d21" x="893.2" y="121.0" />
<use xlink:href="#d22" x="973.8" y="121.0" />
<use xlink:href="#d23" x="17.0" y="173.0" />
<use xlink:href="#d24" x="95.0" y="173.0" />
<use xlink:href="#d25" x="186.0" y="173.0" />
<use xlink:href="#d26" x="737.1999999999999" y="173.0" />
<use xlink:href="#d27" x="789.1999999999999" y="173.0" />
<use xlink:href="#d28" x="841.2" y="173.0" />
<use xlink:href="#d29" x="984.2" y="173.0" />
<use xlink:href="#d30" x="4" y="225.0" />
<use xlink:href="#d31" x="82.0" y="225.0" />
<use xlink:href="#d32" x="147.0" y="225.0" />
<use xlink:href="#d33" x="199.0" y="225.0" />
<use xlink:href="#d34" x="768.4" y="225.0" />
<use xlink:href="#d35" x="820.4" y="225.0" />
<use xlink:href="#d36" x="924.4" y="238.0" />
<use xlink:href="#d37" x="4" y="277.0" />
<use xlink:href="#d38" x="82.0" y="277.0" />
<use xlink:href="#d39" x="147.0" y="277.0" />
<use xlink:href="#d40" x="872.4" y="290.0" />
<use xlink:href="#d41" x="924.4" y="290.0" />
<use xlink:href="#d42" x="976.4" y="290.0" />
<use xlink:href="#d43" x="284.8" y="-24.6" transform="rotate(6 0 0)" />
<use xlink:href="#d44" x="336.8" y="-24.6" transform="rotate(6 0 0)" />
<use xlink:href="#d45" x="401.8" y="-24.6" transform="rotate(6 0 0)" />
<use xlink:href="#d46" x="453.8" y="-24.6" transform="rotate(6 0 0)" />
<use xlink:href="#d47" x="292.59999999999997" y="40.4" transform="rotate(6 0 0)" />
<use xlink:href="#d48" x="344.59999999999997" y="40.4" transform="rotate(6 0 0)" />
<use xlink:href="#d49" x="396.59999999999997" y="40.4" transform="rotate(6 0 0)" />
<use xlink:href="#d50" x="448.6" y="40.4" transform="rotate(6 0 0)" />
<use xlink:href="#d51" x="258.8" y="92.39999999999999" transform="rotate(6 0 0)" />
<use xlink:href="#d52" x="310.8" y="92.39999999999999" transform="rotate(6 0 0)" />
<use xlink:href="#d53" x="362.8" y="92.39999999999999" transform="rotate(6 0 0)" />
<use xlink:href="#d54" x="414.8" y="92.39999999999999" transform="rotate(6 0 0)" />
<use xlink:href="#d55" x="264" y="144.4" transform="rotate(6 0 0)" />
<use xlink:href="#d56" x="316" y="144.4" transform="rotate(6 0 0)" />
<use xlink:href="#d57" x="368" y="144.4" transform="rotate(6 0 0)" />
<use xlink:href="#d58" x="420" y="144.4" transform="rotate(6 0 0)" />
<use xlink:href="#d59" x="282.2" y="196.4" transform="rotate(6 0 0)" />
<use xlink:href="#d60" x="334.2" y="196.4" transform="rotate(6 0 0)" />
<use xlink:href="#d61" x="386.2" y="196.4" transform="rotate(6 0 0)" />
<use xlink:href="#d62" x="438.2" y="196.4" transform="rotate(6 0 0)" />
<use xlink:href="#d63" x="282.2" y="248.4" transform="rotate(6 0 0)" />
<use xlink:href="#d64" x="347.2" y="248.4" transform="rotate(6 0 0)" />
<use xlink:href="#d65" x="464.2" y="248.4" transform="rotate(6 0 0)" />
<use xlink:href="#d66" x="526.6" y="79.39999999999999" transform="rotate(-6 0 0)" />
<use xlink:href="#d67" x="578.6" y="79.39999999999999" transform="rotate(-6 0 0)" />
<use xlink:href="#d68" x="643.6" y="79.39999999999999" transform="rotate(-6 0 0)" />
<use xlink:href="#d69" x="695.6" y="79.39999999999999" transform="rotate(-6 0 0)" />
<use xlink:href="#d70" x="492.8" y="144.4" transform="rotate(-6 0 0)" />
<use xlink:href="#d71" x="544.8000000000001" y="144.4" transform="rotate(-6 0 0)" />
<use xlink:href="#d72" x="596.8000000000001" y="144.4" transform="rotate(-6 0 0)" />
<use xlink:href="#d73" x="648.8000000000001" y="144.4" transform="rotate(-6 0 0)" />
<use xlink:href="#d74" x="466.8" y="196.4" transform="rotate(-6 0 0)" />
<use xlink:href="#d75" x="518.8000000000001" y="196.4" transform="rotate(-6 0 0)" />
<use xlink:href="#d76" x="570.8000000000001" y="196.4" transform="rotate(-6 0 0)" />
<use xlink:href="#d77" x="622.8000000000001" y="196.4" transform="rotate(-6 0 0)" />
<use xlink:href="#d78" x="674.8000000000001" y="196.4" transform="rotate(-6 0 0)" />
<use xlink:href="#d79" x="492.8" y="248.4" transform="rotate(-6 0 0)" />
<use xlink:href="#d80" x="544.8000000000001" y="248.4" transform="rotate(-6 0 0)" />
<use xlink:href="#d81" x="596.8000000000001" y="248.4" transform="rotate(-6 0 0)" />
<use xlink:href="#d82" x="648.8000000000001" y="248.4" transform="rotate(-6 0 0)" />
<use xlink:href="#d83" x="464.2" y="300.40000000000003" transform="rotate(-6 0 0)" />
<use xlink:href="#d84" x="516.1999999999999" y="300.40000000000003" transform="rotate(-6 0 0)" />
<use xlink:href="#d85" x="568.1999999999999" y="300.40000000000003" transform="rotate(-6 0 0)" />
<use xlink:href="#d86" x="620.1999999999999" y="300.40000000000003" transform="rotate(-6 0 0)" />
<use xlink:href="#d87" x="672.1999999999999" y="300.40000000000003" transform="rotate(-6 0 0)" />
<use xlink:href="#d88" x="464.2" y="352.40000000000003" transform="rotate(-6 0 0)" />
<use xlink:href="#d89" x="596.8000000000001" y="352.40000000000003" transform="rotate(-6 0 0)" />
</svg>