<?xml version="1.0" encoding="UTF-8"?>
<!DOCTYPE svg  PUBLIC '-//W3C//DTD SVG 1.1//EN'  'http://www.w3.org/Graphics/SVG/1.1/DTD/svg11.dtd'>
<svg width="76.276mm" height="38.176mm" version="1.1" viewBox="0 0 76.276 38.176" xmlns="http://www.w3.org/2000/svg">
 <title>SVG Image created as albacore-render.svg date 2025/09/05 18:36:47</title>
 <desc>Image generated by PCBNEW</desc>
 <rect width="76.276mm" height="38.176mm" fill="#282A36"/>
 <g fill="none" stroke="#8BE9FD" stroke-linecap="round" stroke-linejoin="round" stroke-width=".15">
  <text x="42.9125" y="2.0750" font-size="1.3333" opacity="0" stroke-opacity="0" text-anchor="middle" lengthAdjust="spacingAndGlyphs" textLength="3.2976">SW2</text>
  <g class="stroked-text">
   <desc>SW2</desc>
   <path d="m41.579 1.9822 0.1428 0.0476"/>
   <path d="m41.722 2.0298h0.2381"/>
   <path d="m41.96 2.0298 0.0953-0.0476"/>
   <path d="m42.055 1.9822 0.0476-0.0476"/>
   <path d="m42.103 1.9346 0.0476-0.0953"/>
   <path d="m42.151 1.8393v-0.0952"/>
   <path d="m42.151 1.7441-0.0476-0.0952"/>
   <path d="m42.103 1.6489-0.0476-0.0477"/>
   <path d="m42.055 1.6012-0.0953-0.0476"/>
   <path d="m41.96 1.5536-0.1905-0.0476"/>
   <path d="m41.77 1.506-0.0952-0.0476"/>
   <path d="m41.674 1.4584-0.0476-0.0476"/>
   <path d="m41.627 1.4108-0.0476-0.0953"/>
   <path d="m41.579 1.3155v-0.0952"/>
   <path d="m41.579 1.2203 0.0476-0.0952"/>
   <path d="m41.627 1.1251 0.0476-0.0477"/>
   <path d="m41.674 1.0774 0.0952-0.0476"/>
   <path d="m41.77 1.0298h0.2381"/>
   <path d="m42.008 1.0298 0.1429 0.0476"/>
   <path d="m42.484 1.0298 0.2381 1"/>
   <path d="m42.722 2.0298 0.1905-0.7143"/>
   <path d="m42.912 1.3155 0.1905 0.7143"/>
   <path d="m43.103 2.0298 0.2381-1"/>
   <path d="m43.674 1.1251 0.0476-0.0477"/>
   <path d="m43.722 1.0774 0.0953-0.0476"/>
   <path d="m43.817 1.0298h0.2381"/>
   <path d="m44.055 1.0298 0.0952 0.0476"/>
   <path d="m44.151 1.0774 0.0476 0.0477"/>
   <path d="m44.198 1.1251 0.0476 0.0952"/>
   <path d="m44.246 1.2203v0.0952"/>
   <path d="m44.246 1.3155-0.0476 0.1429"/>
   <path d="m44.198 1.4584-0.5714 0.5714"/>
   <path d="m43.627 2.0298h0.619"/>
  </g>
  <text x="47.6750" y="21.1250" font-size="1.3333" opacity="0" stroke-opacity="0" text-anchor="middle" lengthAdjust="spacingAndGlyphs" textLength="3.2976">SW6</text>
  <g class="stroked-text">
   <desc>SW6</desc>
   <path d="m46.342 21.032 0.1428 0.0476"/>
   <path d="m46.484 21.08h0.2381"/>
   <path d="m46.723 21.08 0.0953-0.0476"/>
   <path d="m46.818 21.032 0.0476-0.0476"/>
   <path d="m46.866 20.985 0.0476-0.0953"/>
   <path d="m46.913 20.889v-0.0952"/>
   <path d="m46.913 20.794-0.0476-0.0952"/>
   <path d="m46.866 20.699-0.0476-0.0477"/>
   <path d="m46.818 20.651-0.0953-0.0476"/>
   <path d="m46.723 20.604-0.1905-0.0476"/>
   <path d="m46.532 20.556-0.0952-0.0476"/>
   <path d="m46.437 20.508-0.0476-0.0476"/>
   <path d="m46.389 20.461-0.0476-0.0953"/>
   <path d="m46.342 20.366v-0.0952"/>
   <path d="m46.342 20.27 0.0476-0.0952"/>
   <path d="m46.389 20.175 0.0476-0.0477"/>
   <path d="m46.437 20.127 0.0952-0.0476"/>
   <path d="m46.532 20.08h0.2381"/>
   <path d="m46.77 20.08 0.1429 0.0476"/>
   <path d="m47.246 20.08 0.2381 1"/>
   <path d="m47.484 21.08 0.1905-0.7143"/>
   <path d="m47.675 20.366 0.1905 0.7143"/>
   <path d="m47.866 21.08 0.2381-1"/>
   <path d="m48.913 20.08h-0.1905"/>
   <path d="m48.723 20.08-0.0952 0.0476"/>
   <path d="m48.627 20.127-0.0476 0.0477"/>
   <path d="m48.58 20.175-0.0953 0.1428"/>
   <path d="m48.484 20.318-0.0476 0.1905"/>
   <path d="m48.437 20.508v0.3809"/>
   <path d="m48.437 20.889 0.0476 0.0953"/>
   <path d="m48.484 20.985 0.0476 0.0476"/>
   <path d="m48.532 21.032 0.0953 0.0476"/>
   <path d="m48.627 21.08h0.1905"/>
   <path d="m48.818 21.08 0.0952-0.0476"/>
   <path d="m48.913 21.032 0.0476-0.0476"/>
   <path d="m48.961 20.985 0.0476-0.0953"/>
   <path d="m49.008 20.889v-0.2381"/>
   <path d="m49.008 20.651-0.0476-0.0952"/>
   <path d="m48.961 20.556-0.0476-0.0476"/>
   <path d="m48.913 20.508-0.0952-0.0476"/>
   <path d="m48.818 20.461h-0.1905"/>
   <path d="m48.627 20.461-0.0953 0.0476"/>
   <path d="m48.532 20.508-0.0476 0.0476"/>
   <path d="m48.484 20.556-0.0476 0.0952"/>
  </g>
  <text x="66.7250" y="21.1250" font-size="1.3333" opacity="0" stroke-opacity="0" text-anchor="middle" lengthAdjust="spacingAndGlyphs" textLength="3.2976">SW7</text>
  <g class="stroked-text">
   <desc>SW7</desc>
   <path d="m65.392 21.032 0.1428 0.0476"/>
   <path d="m65.534 21.08h0.2381"/>
   <path d="m65.773 21.08 0.0953-0.0476"/>
   <path d="m65.868 21.032 0.0476-0.0476"/>
   <path d="m65.916 20.985 0.0476-0.0953"/>
   <path d="m65.963 20.889v-0.0952"/>
   <path d="m65.963 20.794-0.0476-0.0952"/>
   <path d="m65.916 20.699-0.0476-0.0477"/>
   <path d="m65.868 20.651-0.0953-0.0476"/>
   <path d="m65.773 20.604-0.1905-0.0476"/>
   <path d="m65.582 20.556-0.0952-0.0476"/>
   <path d="m65.487 20.508-0.0476-0.0476"/>
   <path d="m65.439 20.461-0.0476-0.0953"/>
   <path d="m65.392 20.366v-0.0952"/>
   <path d="m65.392 20.27 0.0476-0.0952"/>
   <path d="m65.439 20.175 0.0476-0.0477"/>
   <path d="m65.487 20.127 0.0952-0.0476"/>
   <path d="m65.582 20.08h0.2381"/>
   <path d="m65.82 20.08 0.1429 0.0476"/>
   <path d="m66.296 20.08 0.2381 1"/>
   <path d="m66.534 21.08 0.1905-0.7143"/>
   <path d="m66.725 20.366 0.1905 0.7143"/>
   <path d="m66.916 21.08 0.2381-1"/>
   <path d="m67.439 20.08h0.6667"/>
   <path d="m68.106 20.08-0.4286 1"/>
  </g>
  <text x="23.8625" y="2.0750" font-size="1.3333" opacity="0" stroke-opacity="0" text-anchor="middle" lengthAdjust="spacingAndGlyphs" textLength="3.2976">SW1</text>
  <g class="stroked-text">
   <desc>SW1</desc>
   <path d="m22.529 1.9822 0.1428 0.0476"/>
   <path d="m22.672 2.0298h0.2381"/>
   <path d="m22.91 2.0298 0.0953-0.0476"/>
   <path d="m23.005 1.9822 0.0476-0.0476"/>
   <path d="m23.053 1.9346 0.0476-0.0953"/>
   <path d="m23.101 1.8393v-0.0952"/>
   <path d="m23.101 1.7441-0.0476-0.0952"/>
   <path d="m23.053 1.6489-0.0476-0.0477"/>
   <path d="m23.005 1.6012-0.0953-0.0476"/>
   <path d="m22.91 1.5536-0.1905-0.0476"/>
   <path d="m22.72 1.506-0.0952-0.0476"/>
   <path d="m22.624 1.4584-0.0476-0.0476"/>
   <path d="m22.577 1.4108-0.0476-0.0953"/>
   <path d="m22.529 1.3155v-0.0952"/>
   <path d="m22.529 1.2203 0.0476-0.0952"/>
   <path d="m22.577 1.1251 0.0476-0.0477"/>
   <path d="m22.624 1.0774 0.0952-0.0476"/>
   <path d="m22.72 1.0298h0.2381"/>
   <path d="m22.958 1.0298 0.1429 0.0476"/>
   <path d="m23.434 1.0298 0.2381 1"/>
   <path d="m23.672 2.0298 0.1905-0.7143"/>
   <path d="m23.862 1.3155 0.1905 0.7143"/>
   <path d="m24.053 2.0298 0.2381-1"/>
   <path d="m25.196 2.0298h-0.5714"/>
   <path d="m24.91 2.0298v-1"/>
   <path d="m24.91 1.0298-0.0952 0.1429"/>
   <path d="m24.815 1.1727-0.0953 0.0952"/>
   <path d="m24.72 1.2679-0.0952 0.0476"/>
  </g>
  <text x="61.9625" y="2.0750" font-size="1.3333" opacity="0" stroke-opacity="0" text-anchor="middle" lengthAdjust="spacingAndGlyphs" textLength="3.2976">SW3</text>
  <g class="stroked-text">
   <desc>SW3</desc>
   <path d="m60.629 1.9822 0.1428 0.0476"/>
   <path d="m60.772 2.0298h0.2381"/>
   <path d="m61.01 2.0298 0.0953-0.0476"/>
   <path d="m61.105 1.9822 0.0476-0.0476"/>
   <path d="m61.153 1.9346 0.0476-0.0953"/>
   <path d="m61.201 1.8393v-0.0952"/>
   <path d="m61.201 1.7441-0.0476-0.0952"/>
   <path d="m61.153 1.6489-0.0476-0.0477"/>
   <path d="m61.105 1.6012-0.0953-0.0476"/>
   <path d="m61.01 1.5536-0.1905-0.0476"/>
   <path d="m60.82 1.506-0.0952-0.0476"/>
   <path d="m60.724 1.4584-0.0476-0.0476"/>
   <path d="m60.677 1.4108-0.0476-0.0953"/>
   <path d="m60.629 1.3155v-0.0952"/>
   <path d="m60.629 1.2203 0.0476-0.0952"/>
   <path d="m60.677 1.1251 0.0476-0.0477"/>
   <path d="m60.724 1.0774 0.0952-0.0476"/>
   <path d="m60.82 1.0298h0.2381"/>
   <path d="m61.058 1.0298 0.1429 0.0476"/>
   <path d="m61.534 1.0298 0.2381 1"/>
   <path d="m61.772 2.0298 0.1905-0.7143"/>
   <path d="m61.962 1.3155 0.1905 0.7143"/>
   <path d="m62.153 2.0298 0.2381-1"/>
   <path d="m62.677 1.0298h0.619"/>
   <path d="m63.296 1.0298-0.3333 0.381"/>
   <path d="m62.962 1.4108h0.1429"/>
   <path d="m63.105 1.4108 0.0952 0.0476"/>
   <path d="m63.201 1.4584 0.0476 0.0476"/>
   <path d="m63.248 1.506 0.0476 0.0952"/>
   <path d="m63.296 1.6012v0.2381"/>
   <path d="m63.296 1.8393-0.0476 0.0953"/>
   <path d="m63.248 1.9346-0.0476 0.0476"/>
   <path d="m63.201 1.9822-0.0952 0.0476"/>
   <path d="m63.105 2.0298h-0.2858"/>
   <path d="m62.82 2.0298-0.0952-0.0476"/>
   <path d="m62.724 1.9822-0.0476-0.0476"/>
  </g>
  <text x="28.6250" y="21.1250" font-size="1.3333" opacity="0" stroke-opacity="0" text-anchor="middle" lengthAdjust="spacingAndGlyphs" textLength="3.2976">SW5</text>
  <g class="stroked-text">
   <desc>SW5</desc>
   <path d="m27.292 21.032 0.1428 0.0476"/>
   <path d="m27.434 21.08h0.2381"/>
   <path d="m27.673 21.08 0.0953-0.0476"/>
   <path d="m27.768 21.032 0.0476-0.0476"/>
   <path d="m27.816 20.985 0.0476-0.0953"/>
   <path d="m27.863 20.889v-0.0952"/>
   <path d="m27.863 20.794-0.0476-0.0952"/>
   <path d="m27.816 20.699-0.0476-0.0477"/>
   <path d="m27.768 20.651-0.0953-0.0476"/>
   <path d="m27.673 20.604-0.1905-0.0476"/>
   <path d="m27.482 20.556-0.0952-0.0476"/>
   <path d="m27.387 20.508-0.0476-0.0476"/>
   <path d="m27.339 20.461-0.0476-0.0953"/>
   <path d="m27.292 20.366v-0.0952"/>
   <path d="m27.292 20.27 0.0476-0.0952"/>
   <path d="m27.339 20.175 0.0476-0.0477"/>
   <path d="m27.387 20.127 0.0952-0.0476"/>
   <path d="m27.482 20.08h0.2381"/>
   <path d="m27.72 20.08 0.1429 0.0476"/>
   <path d="m28.196 20.08 0.2381 1"/>
   <path d="m28.434 21.08 0.1905-0.7143"/>
   <path d="m28.625 20.366 0.1905 0.7143"/>
   <path d="m28.816 21.08 0.2381-1"/>
   <path d="m29.911 20.08h-0.4762"/>
   <path d="m29.434 20.08-0.0476 0.4762"/>
   <path d="m29.387 20.556 0.0476-0.0476"/>
   <path d="m29.434 20.508 0.0953-0.0476"/>
   <path d="m29.53 20.461h0.2381"/>
   <path d="m29.768 20.461 0.0952 0.0476"/>
   <path d="m29.863 20.508 0.0476 0.0476"/>
   <path d="m29.911 20.556 0.0476 0.0952"/>
   <path d="m29.958 20.651v0.2381"/>
   <path d="m29.958 20.889-0.0476 0.0953"/>
   <path d="m29.911 20.985-0.0476 0.0476"/>
   <path d="m29.863 21.032-0.0952 0.0476"/>
   <path d="m29.768 21.08h-0.2381"/>
   <path d="m29.53 21.08-0.0953-0.0476"/>
   <path d="m29.434 21.032-0.0476-0.0476"/>
  </g>
  <text x="9.5750" y="21.1250" font-size="1.3333" opacity="0" stroke-opacity="0" text-anchor="middle" lengthAdjust="spacingAndGlyphs" textLength="3.2976">SW4</text>
  <g class="stroked-text">
   <desc>SW4</desc>
   <path d="m8.2417 21.032 0.1428 0.0476"/>
   <path d="m8.3845 21.08h0.2381"/>
   <path d="m8.6226 21.08 0.0953-0.0476"/>
   <path d="m8.7179 21.032 0.0476-0.0476"/>
   <path d="m8.7655 20.985 0.0476-0.0953"/>
   <path d="m8.8131 20.889v-0.0952"/>
   <path d="m8.8131 20.794-0.0476-0.0952"/>
   <path d="m8.7655 20.699-0.0476-0.0477"/>
   <path d="m8.7179 20.651-0.0953-0.0476"/>
   <path d="m8.6226 20.604-0.1905-0.0476"/>
   <path d="m8.4321 20.556-0.0952-0.0476"/>
   <path d="m8.3369 20.508-0.0476-0.0476"/>
   <path d="m8.2893 20.461-0.0476-0.0953"/>
   <path d="m8.2417 20.366v-0.0952"/>
   <path d="m8.2417 20.27 0.0476-0.0952"/>
   <path d="m8.2893 20.175 0.0476-0.0477"/>
   <path d="m8.3369 20.127 0.0952-0.0476"/>
   <path d="m8.4321 20.08h0.2381"/>
   <path d="m8.6702 20.08 0.1429 0.0476"/>
   <path d="m9.1464 20.08 0.2381 1"/>
   <path d="m9.3845 21.08 0.1905-0.7143"/>
   <path d="m9.575 20.366 0.1905 0.7143"/>
   <path d="m9.7655 21.08 0.2381-1"/>
   <path d="m10.813 20.413v0.6666"/>
   <path d="m10.575 20.032-0.2381 0.7143"/>
   <path d="m10.337 20.746h0.6191"/>
  </g>
 </g>
 <g fill="none" stroke="#8BE9FD" stroke-linecap="round" stroke-linejoin="round" stroke-width=".12">
  <path d="m35.812 2.475v14.2"/>
  <path d="m35.812 16.675h14.2"/>
  <path d="m50.012 2.475h-14.2"/>
  <path d="m50.012 16.675v-14.2"/>
  <path d="m40.575 21.525v14.2"/>
  <path d="m40.575 35.725h14.2"/>
  <path d="m54.775 21.525h-14.2"/>
  <path d="m54.775 35.725v-14.2"/>
  <path d="m59.625 21.525v14.2"/>
  <path d="m59.625 35.725h14.2"/>
  <path d="m73.825 21.525h-14.2"/>
  <path d="m73.825 35.725v-14.2"/>
  <path d="m16.762 2.475v14.2"/>
  <path d="m16.762 16.675h14.2"/>
  <path d="m30.962 2.475h-14.2"/>
  <path d="m30.962 16.675v-14.2"/>
  <path d="m54.862 2.475v14.2"/>
  <path d="m54.862 16.675h14.2"/>
  <path d="m69.062 2.475h-14.2"/>
  <path d="m69.062 16.675v-14.2"/>
  <path d="m21.525 21.525v14.2"/>
  <path d="m21.525 35.725h14.2"/>
  <path d="m35.725 21.525h-14.2"/>
  <path d="m35.725 35.725v-14.2"/>
  <path d="m2.475 21.525v14.2"/>
  <path d="m2.475 35.725h14.2"/>
  <path d="m16.675 21.525h-14.2"/>
  <path d="m16.675 35.725v-14.2"/>
 </g>
 <g fill="#8BE9FD">
  <circle cx="37.832" cy="9.575" r=".875"/>
  <circle cx="42.912" cy="9.575" r="2"/>
  <circle cx="47.992" cy="9.575" r=".875"/>
  <circle cx="39.102" cy="7.035" r=".75"/>
  <circle cx="45.452" cy="4.495" r=".75"/>
  <circle cx="42.595" cy="28.625" r=".875"/>
  <circle cx="47.675" cy="28.625" r="2"/>
  <circle cx="52.755" cy="28.625" r=".875"/>
  <circle cx="43.865" cy="26.085" r=".75"/>
  <circle cx="50.215" cy="23.545" r=".75"/>
  <circle cx="61.645" cy="28.625" r=".875"/>
  <circle cx="66.725" cy="28.625" r="2"/>
  <circle cx="71.805" cy="28.625" r=".875"/>
  <circle cx="62.915" cy="26.085" r=".75"/>
  <circle cx="69.265" cy="23.545" r=".75"/>
  <circle cx="18.782" cy="9.575" r=".875"/>
  <circle cx="23.862" cy="9.575" r="2"/>
  <circle cx="28.942" cy="9.575" r=".875"/>
  <circle cx="20.052" cy="7.035" r=".75"/>
  <circle cx="26.402" cy="4.495" r=".75"/>
  <circle cx="56.882" cy="9.575" r=".875"/>
  <circle cx="61.962" cy="9.575" r="2"/>
  <circle cx="67.042" cy="9.575" r=".875"/>
  <circle cx="58.152" cy="7.035" r=".75"/>
  <circle cx="64.502" cy="4.495" r=".75"/>
  <circle cx="23.545" cy="28.625" r=".875"/>
  <circle cx="28.625" cy="28.625" r="2"/>
  <circle cx="33.705" cy="28.625" r=".875"/>
  <circle cx="24.815" cy="26.085" r=".75"/>
  <circle cx="31.165" cy="23.545" r=".75"/>
  <circle cx="4.495" cy="28.625" r=".875"/>
  <circle cx="9.575" cy="28.625" r="2"/>
  <circle cx="14.655" cy="28.625" r=".875"/>
  <circle cx="5.765" cy="26.085" r=".75"/>
  <circle cx="12.115" cy="23.545" r=".75"/>
 </g>
 <g fill="none" stroke="#BD93F9" stroke-linecap="round" stroke-linejoin="round" stroke-width=".15">
  <g transform="rotate(-90 73.71 32.752)">
   <text transform="scale(-1 1) translate(-147.42)" x="73.7100" y="33.2520" font-size="1.3333" opacity="0" stroke-opacity="0" text-anchor="middle" lengthAdjust="spacingAndGlyphs" textLength="2.2024">D7</text>
  </g>
  <g class="stroked-text">
   <desc>D7</desc>
   <path d="m74.165 32.014h-1"/>
   <path d="m73.165 32.014v0.2381"/>
   <path d="m73.165 32.252 0.0476 0.1429"/>
   <path d="m73.212 32.395 0.0953 0.0952"/>
   <path d="m73.308 32.49 0.0952 0.0476"/>
   <path d="m73.403 32.538 0.1905 0.0476"/>
   <path d="m73.593 32.585h0.1428"/>
   <path d="m73.736 32.585 0.1905-0.0476"/>
   <path d="m73.927 32.538 0.0953-0.0476"/>
   <path d="m74.022 32.49 0.0952-0.0952"/>
   <path d="m74.117 32.395 0.0476-0.1429"/>
   <path d="m74.165 32.252v-0.2381"/>
   <path d="m73.165 32.919v0.6666"/>
   <path d="m73.165 33.585 1-0.4285"/>
  </g>
  <g transform="rotate(-90 49.898 13.702)">
   <text transform="scale(-1 1) translate(-99.795)" x="49.8975" y="14.2020" font-size="1.3333" opacity="0" stroke-opacity="0" text-anchor="middle" lengthAdjust="spacingAndGlyphs" textLength="2.2024">D2</text>
  </g>
  <g class="stroked-text">
   <desc>D2</desc>
   <path d="m50.352 12.964h-1"/>
   <path d="m49.352 12.964v0.2381"/>
   <path d="m49.352 13.202 0.0476 0.1429"/>
   <path d="m49.4 13.345 0.0953 0.0952"/>
   <path d="m49.495 13.44 0.0952 0.0476"/>
   <path d="m49.59 13.488 0.1905 0.0476"/>
   <path d="m49.781 13.535h0.1428"/>
   <path d="m49.924 13.535 0.1905-0.0476"/>
   <path d="m50.114 13.488 0.0953-0.0476"/>
   <path d="m50.21 13.44 0.0952-0.0952"/>
   <path d="m50.305 13.345 0.0476-0.1429"/>
   <path d="m50.352 13.202v-0.2381"/>
   <path d="m49.448 13.916-0.0477 0.0476"/>
   <path d="m49.4 13.964-0.0476 0.0952"/>
   <path d="m49.352 14.059v0.2381"/>
   <path d="m49.352 14.297 0.0476 0.0953"/>
   <path d="m49.4 14.392 0.0477 0.0476"/>
   <path d="m49.448 14.44 0.0952 0.0476"/>
   <path d="m49.543 14.488h0.0952"/>
   <path d="m49.638 14.488 0.1429-0.0476"/>
   <path d="m49.781 14.44 0.5714-0.5714"/>
   <path d="m50.352 13.869v0.619"/>
  </g>
  <g transform="rotate(-90 68.948 13.702)">
   <text transform="scale(-1 1) translate(-137.9)" x="68.9475" y="14.2020" font-size="1.3333" opacity="0" stroke-opacity="0" text-anchor="middle" lengthAdjust="spacingAndGlyphs" textLength="2.2024">D3</text>
  </g>
  <g class="stroked-text">
   <desc>D3</desc>
   <path d="m69.402 12.964h-1"/>
   <path d="m68.402 12.964v0.2381"/>
   <path d="m68.402 13.202 0.0476 0.1429"/>
   <path d="m68.45 13.345 0.0953 0.0952"/>
   <path d="m68.545 13.44 0.0952 0.0476"/>
   <path d="m68.64 13.488 0.1905 0.0476"/>
   <path d="m68.831 13.535h0.1428"/>
   <path d="m68.974 13.535 0.1905-0.0476"/>
   <path d="m69.164 13.488 0.0953-0.0476"/>
   <path d="m69.26 13.44 0.0952-0.0952"/>
   <path d="m69.355 13.345 0.0476-0.1429"/>
   <path d="m69.402 13.202v-0.2381"/>
   <path d="m68.402 13.869v0.619"/>
   <path d="m68.402 14.488 0.381-0.3333"/>
   <path d="m68.783 14.154v0.1428"/>
   <path d="m68.783 14.297 0.0476 0.0953"/>
   <path d="m68.831 14.392 0.0476 0.0476"/>
   <path d="m68.878 14.44 0.0952 0.0476"/>
   <path d="m68.974 14.488h0.2381"/>
   <path d="m69.212 14.488 0.0953-0.0476"/>
   <path d="m69.307 14.44 0.0476-0.0476"/>
   <path d="m69.355 14.392 0.0476-0.0953"/>
   <path d="m69.402 14.297v-0.2857"/>
   <path d="m69.402 14.012-0.0476-0.0952"/>
   <path d="m69.355 13.916-0.0476-0.0476"/>
  </g>
  <g transform="rotate(-90 16.56 32.752)">
   <text transform="scale(-1 1) translate(-33.12)" x="16.5600" y="33.2520" font-size="1.3333" opacity="0" stroke-opacity="0" text-anchor="middle" lengthAdjust="spacingAndGlyphs" textLength="2.2024">D4</text>
  </g>
  <g class="stroked-text">
   <desc>D4</desc>
   <path d="m17.015 32.014h-1"/>
   <path d="m16.015 32.014v0.2381"/>
   <path d="m16.015 32.252 0.0476 0.1429"/>
   <path d="m16.062 32.395 0.0953 0.0952"/>
   <path d="m16.158 32.49 0.0952 0.0476"/>
   <path d="m16.253 32.538 0.1905 0.0476"/>
   <path d="m16.443 32.585h0.1428"/>
   <path d="m16.586 32.585 0.1905-0.0476"/>
   <path d="m16.777 32.538 0.0953-0.0476"/>
   <path d="m16.872 32.49 0.0952-0.0952"/>
   <path d="m16.967 32.395 0.0476-0.1429"/>
   <path d="m17.015 32.252v-0.2381"/>
   <path d="m16.348 33.442h0.6666"/>
   <path d="m15.967 33.204 0.7143-0.2381"/>
   <path d="m16.682 32.966v0.619"/>
  </g>
  <g transform="rotate(-90 54.66 32.752)">
   <text transform="scale(-1 1) translate(-109.32)" x="54.6600" y="33.2520" font-size="1.3333" opacity="0" stroke-opacity="0" text-anchor="middle" lengthAdjust="spacingAndGlyphs" textLength="2.2024">D6</text>
  </g>
  <g class="stroked-text">
   <desc>D6</desc>
   <path d="m55.115 32.014h-1"/>
   <path d="m54.115 32.014v0.2381"/>
   <path d="m54.115 32.252 0.0476 0.1429"/>
   <path d="m54.162 32.395 0.0953 0.0952"/>
   <path d="m54.258 32.49 0.0952 0.0476"/>
   <path d="m54.353 32.538 0.1905 0.0476"/>
   <path d="m54.543 32.585h0.1428"/>
   <path d="m54.686 32.585 0.1905-0.0476"/>
   <path d="m54.877 32.538 0.0953-0.0476"/>
   <path d="m54.972 32.49 0.0952-0.0952"/>
   <path d="m55.067 32.395 0.0476-0.1429"/>
   <path d="m55.115 32.252v-0.2381"/>
   <path d="m54.115 33.442v-0.1905"/>
   <path d="m54.115 33.252 0.0476-0.0952"/>
   <path d="m54.162 33.157 0.0477-0.0477"/>
   <path d="m54.21 33.109 0.1428-0.0952"/>
   <path d="m54.353 33.014 0.1905-0.0476"/>
   <path d="m54.543 32.966h0.3809"/>
   <path d="m54.924 32.966 0.0953 0.0476"/>
   <path d="m55.02 33.014 0.0476 0.0476"/>
   <path d="m55.067 33.062 0.0476 0.0953"/>
   <path d="m55.115 33.157v0.1904"/>
   <path d="m55.115 33.347-0.0476 0.0953"/>
   <path d="m55.067 33.442-0.0476 0.0476"/>
   <path d="m55.02 33.49-0.0953 0.0476"/>
   <path d="m54.924 33.538h-0.2381"/>
   <path d="m54.686 33.538-0.0952-0.0476"/>
   <path d="m54.591 33.49-0.0476-0.0476"/>
   <path d="m54.543 33.442-0.0476-0.0953"/>
   <path d="m54.496 33.347v-0.1904"/>
   <path d="m54.496 33.157 0.0476-0.0953"/>
   <path d="m54.543 33.062 0.0476-0.0476"/>
   <path d="m54.591 33.014 0.0952-0.0476"/>
  </g>
  <g transform="rotate(-90 35.61 32.752)">
   <text transform="scale(-1 1) translate(-71.22)" x="35.6100" y="33.2520" font-size="1.3333" opacity="0" stroke-opacity="0" text-anchor="middle" lengthAdjust="spacingAndGlyphs" textLength="2.2024">D5</text>
  </g>
  <g class="stroked-text">
   <desc>D5</desc>
   <path d="m36.065 32.014h-1"/>
   <path d="m35.065 32.014v0.2381"/>
   <path d="m35.065 32.252 0.0476 0.1429"/>
   <path d="m35.112 32.395 0.0953 0.0952"/>
   <path d="m35.208 32.49 0.0952 0.0476"/>
   <path d="m35.303 32.538 0.1905 0.0476"/>
   <path d="m35.493 32.585h0.1428"/>
   <path d="m35.636 32.585 0.1905-0.0476"/>
   <path d="m35.827 32.538 0.0953-0.0476"/>
   <path d="m35.922 32.49 0.0952-0.0952"/>
   <path d="m36.017 32.395 0.0476-0.1429"/>
   <path d="m36.065 32.252v-0.2381"/>
   <path d="m35.065 33.49v-0.4762"/>
   <path d="m35.065 33.014 0.4762-0.0476"/>
   <path d="m35.541 32.966-0.0476 0.0476"/>
   <path d="m35.493 33.014-0.0476 0.0952"/>
   <path d="m35.446 33.109v0.2381"/>
   <path d="m35.446 33.347 0.0476 0.0953"/>
   <path d="m35.493 33.442 0.0476 0.0476"/>
   <path d="m35.541 33.49 0.0952 0.0476"/>
   <path d="m35.636 33.538h0.2381"/>
   <path d="m35.874 33.538 0.0953-0.0476"/>
   <path d="m35.97 33.49 0.0476-0.0476"/>
   <path d="m36.017 33.442 0.0476-0.0953"/>
   <path d="m36.065 33.347v-0.2381"/>
   <path d="m36.065 33.109-0.0476-0.0952"/>
   <path d="m36.017 33.014-0.0476-0.0476"/>
  </g>
  <g transform="rotate(-90 30.848 13.702)">
   <text transform="scale(-1 1) translate(-61.695)" x="30.8475" y="14.2020" font-size="1.3333" opacity="0" stroke-opacity="0" text-anchor="middle" lengthAdjust="spacingAndGlyphs" textLength="2.2024">D1</text>
  </g>
  <g class="stroked-text">
   <desc>D1</desc>
   <path d="m31.302 12.964h-1"/>
   <path d="m30.302 12.964v0.2381"/>
   <path d="m30.302 13.202 0.0476 0.1429"/>
   <path d="m30.35 13.345 0.0953 0.0952"/>
   <path d="m30.445 13.44 0.0952 0.0476"/>
   <path d="m30.54 13.488 0.1905 0.0476"/>
   <path d="m30.731 13.535h0.1428"/>
   <path d="m30.874 13.535 0.1905-0.0476"/>
   <path d="m31.064 13.488 0.0953-0.0476"/>
   <path d="m31.16 13.44 0.0952-0.0952"/>
   <path d="m31.255 13.345 0.0476-0.1429"/>
   <path d="m31.302 13.202v-0.2381"/>
   <path d="m31.302 14.488v-0.5714"/>
   <path d="m31.302 14.202h-1"/>
   <path d="m30.302 14.202 0.1429-0.0952"/>
   <path d="m30.445 14.107 0.0952-0.0953"/>
   <path d="m30.54 14.012 0.0476-0.0952"/>
  </g>
 </g>
 <g fill="none" stroke="#BD93F9" stroke-linecap="round" stroke-linejoin="round" stroke-width=".12">
  <path d="m70.805 30.975v3.86"/>
  <path d="m70.805 34.835h2"/>
  <path d="m72.805 30.975v3.86"/>
  <path d="m46.992 11.925v3.86"/>
  <path d="m46.992 15.785h2"/>
  <path d="m48.992 11.925v3.86"/>
  <path d="m66.042 11.925v3.86"/>
  <path d="m66.042 15.785h2"/>
  <path d="m68.042 11.925v3.86"/>
  <path d="m13.655 30.975v3.86"/>
  <path d="m13.655 34.835h2"/>
  <path d="m15.655 30.975v3.86"/>
  <path d="m51.755 30.975v3.86"/>
  <path d="m51.755 34.835h2"/>
  <path d="m53.755 30.975v3.86"/>
  <path d="m32.705 30.975v3.86"/>
  <path d="m32.705 34.835h2"/>
  <path d="m34.705 30.975v3.86"/>
  <path d="m27.942 11.925v3.86"/>
  <path d="m27.942 15.785h2"/>
  <path d="m29.942 11.925v3.86"/>
 </g>
 <g>
  <g fill="#BD93F9">
   <circle cx="37.832" cy="9.575" r=".875"/>
   <circle cx="42.912" cy="9.575" r="2"/>
   <circle cx="47.992" cy="9.575" r=".875"/>
   <circle cx="39.102" cy="7.035" r=".75"/>
   <circle cx="45.452" cy="4.495" r=".75"/>
   <circle cx="42.595" cy="28.625" r=".875"/>
   <circle cx="47.675" cy="28.625" r="2"/>
   <circle cx="52.755" cy="28.625" r=".875"/>
   <circle cx="43.865" cy="26.085" r=".75"/>
   <circle cx="50.215" cy="23.545" r=".75"/>
   <circle cx="61.645" cy="28.625" r=".875"/>
   <circle cx="66.725" cy="28.625" r="2"/>
   <circle cx="71.805" cy="28.625" r=".875"/>
   <circle cx="62.915" cy="26.085" r=".75"/>
   <circle cx="69.265" cy="23.545" r=".75"/>
   <circle cx="18.782" cy="9.575" r=".875"/>
   <circle cx="23.862" cy="9.575" r="2"/>
   <circle cx="28.942" cy="9.575" r=".875"/>
   <circle cx="20.052" cy="7.035" r=".75"/>
   <circle cx="26.402" cy="4.495" r=".75"/>
   <circle cx="56.882" cy="9.575" r=".875"/>
   <circle cx="61.962" cy="9.575" r="2"/>
   <circle cx="67.042" cy="9.575" r=".875"/>
   <circle cx="58.152" cy="7.035" r=".75"/>
   <circle cx="64.502" cy="4.495" r=".75"/>
   <circle cx="23.545" cy="28.625" r=".875"/>
   <circle cx="28.625" cy="28.625" r="2"/>
   <circle cx="33.705" cy="28.625" r=".875"/>
   <circle cx="24.815" cy="26.085" r=".75"/>
   <circle cx="31.165" cy="23.545" r=".75"/>
   <circle cx="4.495" cy="28.625" r=".875"/>
   <circle cx="9.575" cy="28.625" r="2"/>
   <circle cx="14.655" cy="28.625" r=".875"/>
   <circle cx="5.765" cy="26.085" r=".75"/>
   <circle cx="12.115" cy="23.545" r=".75"/>
  </g>
  <g>
   <circle cx="37.832" cy="9.575" r=".875"/>
   <circle cx="42.912" cy="9.575" r="2"/>
   <circle cx="47.992" cy="9.575" r=".875"/>
   <circle cx="39.102" cy="7.035" r=".75"/>
   <circle cx="45.452" cy="4.495" r=".75"/>
   <circle cx="42.595" cy="28.625" r=".875"/>
   <circle cx="47.675" cy="28.625" r="2"/>
   <circle cx="52.755" cy="28.625" r=".875"/>
   <circle cx="43.865" cy="26.085" r=".75"/>
   <circle cx="50.215" cy="23.545" r=".75"/>
   <circle cx="61.645" cy="28.625" r=".875"/>
   <circle cx="66.725" cy="28.625" r="2"/>
   <circle cx="71.805" cy="28.625" r=".875"/>
   <circle cx="62.915" cy="26.085" r=".75"/>
   <circle cx="69.265" cy="23.545" r=".75"/>
   <circle cx="18.782" cy="9.575" r=".875"/>
   <circle cx="23.862" cy="9.575" r="2"/>
   <circle cx="28.942" cy="9.575" r=".875"/>
   <circle cx="20.052" cy="7.035" r=".75"/>
   <circle cx="26.402" cy="4.495" r=".75"/>
   <circle cx="56.882" cy="9.575" r=".875"/>
   <circle cx="61.962" cy="9.575" r="2"/>
   <circle cx="67.042" cy="9.575" r=".875"/>
   <circle cx="58.152" cy="7.035" r=".75"/>
   <circle cx="64.502" cy="4.495" r=".75"/>
   <circle cx="23.545" cy="28.625" r=".875"/>
   <circle cx="28.625" cy="28.625" r="2"/>
   <circle cx="33.705" cy="28.625" r=".875"/>
   <circle cx="24.815" cy="26.085" r=".75"/>
   <circle cx="31.165" cy="23.545" r=".75"/>
   <circle cx="4.495" cy="28.625" r=".875"/>
   <circle cx="9.575" cy="28.625" r="2"/>
   <circle cx="14.655" cy="28.625" r=".875"/>
   <circle cx="5.765" cy="26.085" r=".75"/>
   <circle cx="12.115" cy="23.545" r=".75"/>
  </g>
  <g fill="#f55">
   <circle cx="39.102" cy="7.035" r="1.25"/>
   <circle cx="45.452" cy="4.495" r="1.25"/>
   <circle cx="43.865" cy="26.085" r="1.25"/>
   <circle cx="50.215" cy="23.545" r="1.25"/>
   <circle cx="62.915" cy="26.085" r="1.25"/>
   <circle cx="69.265" cy="23.545" r="1.25"/>
   <circle cx="20.052" cy="7.035" r="1.25"/>
   <circle cx="26.402" cy="4.495" r="1.25"/>
   <circle cx="58.152" cy="7.035" r="1.25"/>
   <circle cx="64.502" cy="4.495" r="1.25"/>
   <circle cx="24.815" cy="26.085" r="1.25"/>
   <circle cx="31.165" cy="23.545" r="1.25"/>
   <circle cx="5.765" cy="26.085" r="1.25"/>
   <circle cx="12.115" cy="23.545" r="1.25"/>
  </g>
 </g>
 <g fill="none" stroke="#f55" stroke-linecap="round" stroke-linejoin="round" stroke-width=".2">
  <path d="m20.052 7.035v14.288"/>
  <path d="m20.052 21.322 4.7625 4.7625"/>
  <path d="m39.102 7.035v14.288"/>
  <path d="m39.102 21.322 4.7625 4.7625"/>
  <path d="m58.152 7.035v14.288"/>
  <path d="m58.152 21.322 4.7625 4.7625"/>
 </g>
 <g fill="#fff">
  <circle cx="37.832" cy="9.575" r=".875"/>
  <circle cx="42.912" cy="9.575" r="2"/>
  <circle cx="47.992" cy="9.575" r=".875"/>
  <circle cx="39.102" cy="7.035" r=".75"/>
  <circle cx="45.452" cy="4.495" r=".75"/>
  <circle cx="42.595" cy="28.625" r=".875"/>
  <circle cx="47.675" cy="28.625" r="2"/>
  <circle cx="52.755" cy="28.625" r=".875"/>
  <circle cx="43.865" cy="26.085" r=".75"/>
  <circle cx="50.215" cy="23.545" r=".75"/>
  <circle cx="61.645" cy="28.625" r=".875"/>
  <circle cx="66.725" cy="28.625" r="2"/>
  <circle cx="71.805" cy="28.625" r=".875"/>
  <circle cx="62.915" cy="26.085" r=".75"/>
  <circle cx="69.265" cy="23.545" r=".75"/>
  <circle cx="18.782" cy="9.575" r=".875"/>
  <circle cx="23.862" cy="9.575" r="2"/>
  <circle cx="28.942" cy="9.575" r=".875"/>
  <circle cx="20.052" cy="7.035" r=".75"/>
  <circle cx="26.402" cy="4.495" r=".75"/>
  <circle cx="56.882" cy="9.575" r=".875"/>
  <circle cx="61.962" cy="9.575" r="2"/>
  <circle cx="67.042" cy="9.575" r=".875"/>
  <circle cx="58.152" cy="7.035" r=".75"/>
  <circle cx="64.502" cy="4.495" r=".75"/>
  <circle cx="23.545" cy="28.625" r=".875"/>
  <circle cx="28.625" cy="28.625" r="2"/>
  <circle cx="33.705" cy="28.625" r=".875"/>
  <circle cx="24.815" cy="26.085" r=".75"/>
  <circle cx="31.165" cy="23.545" r=".75"/>
  <circle cx="4.495" cy="28.625" r=".875"/>
  <circle cx="9.575" cy="28.625" r="2"/>
  <circle cx="14.655" cy="28.625" r=".875"/>
  <circle cx="5.765" cy="26.085" r=".75"/>
  <circle cx="12.115" cy="23.545" r=".75"/>
 </g>
 <g fill="#50FA7B">
  <circle cx="39.102" cy="7.035" r="1.25"/>
  <circle cx="45.452" cy="4.495" r="1.25"/>
  <circle cx="43.865" cy="26.085" r="1.25"/>
  <circle cx="50.215" cy="23.545" r="1.25"/>
  <circle cx="62.915" cy="26.085" r="1.25"/>
  <circle cx="69.265" cy="23.545" r="1.25"/>
  <circle cx="20.052" cy="7.035" r="1.25"/>
  <circle cx="26.402" cy="4.495" r="1.25"/>
  <circle cx="58.152" cy="7.035" r="1.25"/>
  <circle cx="64.502" cy="4.495" r="1.25"/>
  <circle cx="24.815" cy="26.085" r="1.25"/>
  <circle cx="31.165" cy="23.545" r="1.25"/>
  <circle cx="5.765" cy="26.085" r="1.25"/>
  <circle cx="12.115" cy="23.545" r="1.25"/>
  <g fill="#50FA7B" fill-rule="evenodd">
   <path d="m71.505 34.575-0.0957-0.019-0.0811-0.0542-0.0542-0.0811-0.019-0.0957v-0.6l0.019-0.0957 0.0542-0.0811 0.0811-0.0542 0.0957-0.019h0.6l0.0957 0.019 0.0811 0.0542 0.0542 0.0811 0.019 0.0957v0.6l-0.019 0.0957-0.0542 0.0811-0.0811 0.0542-0.0957 0.019z"/>
   <path d="m71.505 31.775-0.0957-0.019-0.0811-0.0542-0.0542-0.0811-0.019-0.0957v-0.6l0.019-0.0957 0.0542-0.0811 0.0811-0.0542 0.0957-0.019h0.6l0.0957 0.019 0.0811 0.0542 0.0542 0.0811 0.019 0.0957v0.6l-0.019 0.0957-0.0542 0.0811-0.0811 0.0542-0.0957 0.019z"/>
   <path d="m47.692 15.525-0.0957-0.019-0.0811-0.0542-0.0542-0.0811-0.019-0.0957v-0.6l0.019-0.0957 0.0542-0.0811 0.0811-0.0542 0.0957-0.019h0.6l0.0957 0.019 0.0811 0.0542 0.0542 0.0811 0.019 0.0957v0.6l-0.019 0.0957-0.0542 0.0811-0.0811 0.0542-0.0957 0.019z"/>
   <path d="m47.692 12.725-0.0957-0.019-0.0811-0.0542-0.0542-0.0811-0.019-0.0957v-0.6l0.019-0.0957 0.0542-0.0811 0.0811-0.0542 0.0957-0.019h0.6l0.0957 0.019 0.0811 0.0542 0.0542 0.0811 0.019 0.0957v0.6l-0.019 0.0957-0.0542 0.0811-0.0811 0.0542-0.0957 0.019z"/>
   <path d="m66.742 15.525-0.0957-0.019-0.0811-0.0542-0.0542-0.0811-0.019-0.0957v-0.6l0.019-0.0957 0.0542-0.0811 0.0811-0.0542 0.0957-0.019h0.6l0.0957 0.019 0.0811 0.0542 0.0542 0.0811 0.019 0.0957v0.6l-0.019 0.0957-0.0542 0.0811-0.0811 0.0542-0.0957 0.019z"/>
   <path d="m66.742 12.725-0.0957-0.019-0.0811-0.0542-0.0542-0.0811-0.019-0.0957v-0.6l0.019-0.0957 0.0542-0.0811 0.0811-0.0542 0.0957-0.019h0.6l0.0957 0.019 0.0811 0.0542 0.0542 0.0811 0.019 0.0957v0.6l-0.019 0.0957-0.0542 0.0811-0.0811 0.0542-0.0957 0.019z"/>
   <path d="m14.355 34.575-0.0957-0.019-0.0811-0.0542-0.0542-0.0811-0.019-0.0957v-0.6l0.019-0.0957 0.0542-0.0811 0.0811-0.0542 0.0957-0.019h0.6l0.0957 0.019 0.0811 0.0542 0.0542 0.0811 0.019 0.0957v0.6l-0.019 0.0957-0.0542 0.0811-0.0811 0.0542-0.0957 0.019z"/>
   <path d="m14.355 31.775-0.0957-0.019-0.0811-0.0542-0.0542-0.0811-0.019-0.0957v-0.6l0.019-0.0957 0.0542-0.0811 0.0811-0.0542 0.0957-0.019h0.6l0.0957 0.019 0.0811 0.0542 0.0542 0.0811 0.019 0.0957v0.6l-0.019 0.0957-0.0542 0.0811-0.0811 0.0542-0.0957 0.019z"/>
   <path d="m52.455 34.575-0.0957-0.019-0.0811-0.0542-0.0542-0.0811-0.019-0.0957v-0.6l0.019-0.0957 0.0542-0.0811 0.0811-0.0542 0.0957-0.019h0.6l0.0957 0.019 0.0811 0.0542 0.0542 0.0811 0.019 0.0957v0.6l-0.019 0.0957-0.0542 0.0811-0.0811 0.0542-0.0957 0.019z"/>
   <path d="m52.455 31.775-0.0957-0.019-0.0811-0.0542-0.0542-0.0811-0.019-0.0957v-0.6l0.019-0.0957 0.0542-0.0811 0.0811-0.0542 0.0957-0.019h0.6l0.0957 0.019 0.0811 0.0542 0.0542 0.0811 0.019 0.0957v0.6l-0.019 0.0957-0.0542 0.0811-0.0811 0.0542-0.0957 0.019z"/>
   <path d="m33.405 34.575-0.0957-0.019-0.0811-0.0542-0.0542-0.0811-0.019-0.0957v-0.6l0.019-0.0957 0.0542-0.0811 0.0811-0.0542 0.0957-0.019h0.6l0.0957 0.019 0.0811 0.0542 0.0542 0.0811 0.019 0.0957v0.6l-0.019 0.0957-0.0542 0.0811-0.0811 0.0542-0.0957 0.019z"/>
   <path d="m33.405 31.775-0.0957-0.019-0.0811-0.0542-0.0542-0.0811-0.019-0.0957v-0.6l0.019-0.0957 0.0542-0.0811 0.0811-0.0542 0.0957-0.019h0.6l0.0957 0.019 0.0811 0.0542 0.0542 0.0811 0.019 0.0957v0.6l-0.019 0.0957-0.0542 0.0811-0.0811 0.0542-0.0957 0.019z"/>
   <path d="m28.642 15.525-0.0957-0.019-0.0811-0.0542-0.0542-0.0811-0.019-0.0957v-0.6l0.019-0.0957 0.0542-0.0811 0.0811-0.0542 0.0957-0.019h0.6l0.0957 0.019 0.0811 0.0542 0.0542 0.0811 0.019 0.0957v0.6l-0.019 0.0957-0.0542 0.0811-0.0811 0.0542-0.0957 0.019z"/>
   <path d="m28.642 12.725-0.0957-0.019-0.0811-0.0542-0.0542-0.0811-0.019-0.0957v-0.6l0.019-0.0957 0.0542-0.0811 0.0811-0.0542 0.0957-0.019h0.6l0.0957 0.019 0.0811 0.0542 0.0542 0.0811 0.019 0.0957v0.6l-0.019 0.0957-0.0542 0.0811-0.0811 0.0542-0.0957 0.019z"/>
  </g>
 </g>
 <g fill="none" stroke="#50FA7B" stroke-linecap="round" stroke-linejoin="round" stroke-width=".2">
  <path d="m26.402 4.495v5.14"/>
  <path d="m26.402 9.635 2.54 2.54"/>
  <path d="m45.452 9.635 2.54 2.54"/>
  <path d="m45.452 4.495v5.14"/>
  <path d="m64.502 9.635 2.54 2.54"/>
  <path d="m64.502 4.495v5.14"/>
  <path d="m12.115 28.685 2.54 2.54"/>
  <path d="m12.115 23.545v5.14"/>
  <path d="m31.165 23.545v5.14"/>
  <path d="m31.165 28.685 2.54 2.54"/>
  <path d="m50.215 28.685 2.54 2.54"/>
  <path d="m50.215 23.545v5.14"/>
  <path d="m69.265 23.545v5.14"/>
  <path d="m69.265 28.685 2.54 2.54"/>
  <path d="m28.942 14.975h19.05"/>
  <path d="m47.992 14.975h19.05"/>
  <path d="m52.755 34.025h19.05"/>
  <path d="m33.705 34.025h19.05"/>
  <path d="m14.655 34.025h19.05"/>
 </g>
 <g fill="#fff">
  <circle cx="37.832" cy="9.575" r=".875"/>
  <circle cx="42.912" cy="9.575" r="2"/>
  <circle cx="47.992" cy="9.575" r=".875"/>
  <circle cx="39.102" cy="7.035" r=".75"/>
  <circle cx="45.452" cy="4.495" r=".75"/>
  <circle cx="42.595" cy="28.625" r=".875"/>
  <circle cx="47.675" cy="28.625" r="2"/>
  <circle cx="52.755" cy="28.625" r=".875"/>
  <circle cx="43.865" cy="26.085" r=".75"/>
  <circle cx="50.215" cy="23.545" r=".75"/>
  <circle cx="61.645" cy="28.625" r=".875"/>
  <circle cx="66.725" cy="28.625" r="2"/>
  <circle cx="71.805" cy="28.625" r=".875"/>
  <circle cx="62.915" cy="26.085" r=".75"/>
  <circle cx="69.265" cy="23.545" r=".75"/>
  <circle cx="18.782" cy="9.575" r=".875"/>
  <circle cx="23.862" cy="9.575" r="2"/>
  <circle cx="28.942" cy="9.575" r=".875"/>
  <circle cx="20.052" cy="7.035" r=".75"/>
  <circle cx="26.402" cy="4.495" r=".75"/>
  <circle cx="56.882" cy="9.575" r=".875"/>
  <circle cx="61.962" cy="9.575" r="2"/>
  <circle cx="67.042" cy="9.575" r=".875"/>
  <circle cx="58.152" cy="7.035" r=".75"/>
  <circle cx="64.502" cy="4.495" r=".75"/>
  <circle cx="23.545" cy="28.625" r=".875"/>
  <circle cx="28.625" cy="28.625" r="2"/>
  <circle cx="33.705" cy="28.625" r=".875"/>
  <circle cx="24.815" cy="26.085" r=".75"/>
  <circle cx="31.165" cy="23.545" r=".75"/>
  <circle cx="4.495" cy="28.625" r=".875"/>
  <circle cx="9.575" cy="28.625" r="2"/>
  <circle cx="14.655" cy="28.625" r=".875"/>
  <circle cx="5.765" cy="26.085" r=".75"/>
  <circle cx="12.115" cy="23.545" r=".75"/>
 </g>
</svg>
