<?xml version="1.0" encoding="UTF-8"?>
<svg width="73.635mm" height="36.695mm" version="1.1" viewBox="26.425 24.98 73.635 36.695" xmlns="http://www.w3.org/2000/svg">
 <title>SVG Image created as albacore-render.svg date 2024/01/04 11:13:15</title>
 <desc>Image generated by PCBNEW</desc>
 <g fill="#282a36">
  <rect x="26.425" y="24.98" width="73.635" height="36.695"/>
 </g>
 <g fill-opacity="0" stroke-width="0">
  <g fill="#C83434" stroke="#C83434" stroke-linecap="round" stroke-linejoin="round">
   <g fill-opacity="1" stroke-width="0">
    <circle cx="87.865" cy="51.035" r="1.25"/>
    <circle cx="94.215" cy="48.495" r="1.25"/>
    <circle cx="45.002" cy="31.985" r="1.25"/>
    <circle cx="51.352" cy="29.445" r="1.25"/>
    <circle cx="68.815" cy="51.035" r="1.25"/>
    <circle cx="75.165" cy="48.495" r="1.25"/>
    <circle cx="49.765" cy="51.035" r="1.25"/>
    <circle cx="56.115" cy="48.495" r="1.25"/>
    <circle cx="83.102" cy="31.985" r="1.25"/>
    <circle cx="89.453" cy="29.445" r="1.25"/>
    <circle cx="64.052" cy="31.985" r="1.25"/>
    <circle cx="70.403" cy="29.445" r="1.25"/>
    <circle cx="30.715" cy="51.035" r="1.25"/>
    <circle cx="37.065" cy="48.495" r="1.25"/>
   </g>
   <g fill-opacity="0" stroke-width=".25">
    <path d="m45.002 31.985v14.288"/>
    <path d="m45.002 46.273 4.763 4.762"/>
    <path d="m64.052 46.273 4.763 4.762"/>
    <path d="m64.052 31.985v14.288"/>
    <path d="m83.102 46.273 4.763 4.762"/>
    <path d="m83.102 31.985v14.288"/>
   </g>
  </g>
 </g>
 <g stroke-linecap="round" stroke-linejoin="round">
  <g fill-opacity="0" stroke="#000" stroke-width=".25">
   <g fill="#7FC87F" fill-opacity="1" stroke="#7FC87F" stroke-linecap="round" stroke-linejoin="round" stroke-width="0">
    <circle cx="87.865" cy="51.035" r="1.25"/>
    <circle cx="94.215" cy="48.495" r="1.25"/>
    <circle cx="45.002" cy="31.985" r="1.25"/>
    <circle cx="51.352" cy="29.445" r="1.25"/>
    <circle cx="68.815" cy="51.035" r="1.25"/>
    <circle cx="75.165" cy="48.495" r="1.25"/>
    <circle cx="49.765" cy="51.035" r="1.25"/>
    <circle cx="56.115" cy="48.495" r="1.25"/>
    <circle cx="83.102" cy="31.985" r="1.25"/>
    <circle cx="89.453" cy="29.445" r="1.25"/>
    <circle cx="64.052" cy="31.985" r="1.25"/>
    <circle cx="70.403" cy="29.445" r="1.25"/>
    <circle cx="30.715" cy="51.035" r="1.25"/>
    <circle cx="37.065" cy="48.495" r="1.25"/>
   </g>
  </g>
  <g stroke="#000" stroke-width=".021">
   <g fill="#CE7D2C" stroke="#CE7D2C" stroke-linecap="round" stroke-linejoin="round" stroke-width="0">
    <circle cx="87.865" cy="51.035" r="1.25"/>
    <circle cx="94.215" cy="48.495" r="1.25"/>
    <circle cx="45.002" cy="31.985" r="1.25"/>
    <circle cx="51.352" cy="29.445" r="1.25"/>
    <circle cx="68.815" cy="51.035" r="1.25"/>
    <circle cx="75.165" cy="48.495" r="1.25"/>
    <circle cx="49.765" cy="51.035" r="1.25"/>
    <circle cx="56.115" cy="48.495" r="1.25"/>
    <circle cx="83.102" cy="31.985" r="1.25"/>
    <circle cx="89.453" cy="29.445" r="1.25"/>
    <circle cx="64.052" cy="31.985" r="1.25"/>
    <circle cx="70.403" cy="29.445" r="1.25"/>
    <circle cx="30.715" cy="51.035" r="1.25"/>
    <circle cx="37.065" cy="48.495" r="1.25"/>
   </g>
   <g fill="#4FCBCB" stroke="#4FCBCB" stroke-linecap="round" stroke-linejoin="round" stroke-width="0">
    <circle cx="87.865" cy="51.035" r="1.25"/>
    <circle cx="94.215" cy="48.495" r="1.25"/>
    <circle cx="45.002" cy="31.985" r="1.25"/>
    <circle cx="51.352" cy="29.445" r="1.25"/>
    <circle cx="68.815" cy="51.035" r="1.25"/>
    <circle cx="75.165" cy="48.495" r="1.25"/>
    <circle cx="49.765" cy="51.035" r="1.25"/>
    <circle cx="56.115" cy="48.495" r="1.25"/>
    <circle cx="83.102" cy="31.985" r="1.25"/>
    <circle cx="89.453" cy="29.445" r="1.25"/>
    <circle cx="64.052" cy="31.985" r="1.25"/>
    <circle cx="70.403" cy="29.445" r="1.25"/>
    <circle cx="30.715" cy="51.035" r="1.25"/>
    <circle cx="37.065" cy="48.495" r="1.25"/>
   </g>
   <g fill="#DB628B" stroke="#DB628B" stroke-linecap="round" stroke-linejoin="round" stroke-width="0">
    <circle cx="87.865" cy="51.035" r="1.25"/>
    <circle cx="94.215" cy="48.495" r="1.25"/>
    <circle cx="45.002" cy="31.985" r="1.25"/>
    <circle cx="51.352" cy="29.445" r="1.25"/>
    <circle cx="68.815" cy="51.035" r="1.25"/>
    <circle cx="75.165" cy="48.495" r="1.25"/>
    <circle cx="49.765" cy="51.035" r="1.25"/>
    <circle cx="56.115" cy="48.495" r="1.25"/>
    <circle cx="83.102" cy="31.985" r="1.25"/>
    <circle cx="89.453" cy="29.445" r="1.25"/>
    <circle cx="64.052" cy="31.985" r="1.25"/>
    <circle cx="70.403" cy="29.445" r="1.25"/>
    <circle cx="30.715" cy="51.035" r="1.25"/>
    <circle cx="37.065" cy="48.495" r="1.25"/>
   </g>
   <g fill="#A7A5C6" stroke="#A7A5C6" stroke-linecap="round" stroke-linejoin="round" stroke-width="0">
    <circle cx="87.865" cy="51.035" r="1.25"/>
    <circle cx="94.215" cy="48.495" r="1.25"/>
    <circle cx="45.002" cy="31.985" r="1.25"/>
    <circle cx="51.352" cy="29.445" r="1.25"/>
    <circle cx="68.815" cy="51.035" r="1.25"/>
    <circle cx="75.165" cy="48.495" r="1.25"/>
    <circle cx="49.765" cy="51.035" r="1.25"/>
    <circle cx="56.115" cy="48.495" r="1.25"/>
    <circle cx="83.102" cy="31.985" r="1.25"/>
    <circle cx="89.453" cy="29.445" r="1.25"/>
    <circle cx="64.052" cy="31.985" r="1.25"/>
    <circle cx="70.403" cy="29.445" r="1.25"/>
    <circle cx="30.715" cy="51.035" r="1.25"/>
    <circle cx="37.065" cy="48.495" r="1.25"/>
   </g>
   <g fill="#28CCD9" stroke="#28CCD9" stroke-linecap="round" stroke-linejoin="round" stroke-width="0">
    <circle cx="87.865" cy="51.035" r="1.25"/>
    <circle cx="94.215" cy="48.495" r="1.25"/>
    <circle cx="45.002" cy="31.985" r="1.25"/>
    <circle cx="51.352" cy="29.445" r="1.25"/>
    <circle cx="68.815" cy="51.035" r="1.25"/>
    <circle cx="75.165" cy="48.495" r="1.25"/>
    <circle cx="49.765" cy="51.035" r="1.25"/>
    <circle cx="56.115" cy="48.495" r="1.25"/>
    <circle cx="83.102" cy="31.985" r="1.25"/>
    <circle cx="89.453" cy="29.445" r="1.25"/>
    <circle cx="64.052" cy="31.985" r="1.25"/>
    <circle cx="70.403" cy="29.445" r="1.25"/>
    <circle cx="30.715" cy="51.035" r="1.25"/>
    <circle cx="37.065" cy="48.495" r="1.25"/>
   </g>
   <g fill="#E8B2A7" stroke="#E8B2A7" stroke-linecap="round" stroke-linejoin="round" stroke-width="0">
    <circle cx="87.865" cy="51.035" r="1.25"/>
    <circle cx="94.215" cy="48.495" r="1.25"/>
    <circle cx="45.002" cy="31.985" r="1.25"/>
    <circle cx="51.352" cy="29.445" r="1.25"/>
    <circle cx="68.815" cy="51.035" r="1.25"/>
    <circle cx="75.165" cy="48.495" r="1.25"/>
    <circle cx="49.765" cy="51.035" r="1.25"/>
    <circle cx="56.115" cy="48.495" r="1.25"/>
    <circle cx="83.102" cy="31.985" r="1.25"/>
    <circle cx="89.453" cy="29.445" r="1.25"/>
    <circle cx="64.052" cy="31.985" r="1.25"/>
    <circle cx="70.403" cy="29.445" r="1.25"/>
    <circle cx="30.715" cy="51.035" r="1.25"/>
    <circle cx="37.065" cy="48.495" r="1.25"/>
   </g>
   <g fill="#F2EDA1" stroke="#F2EDA1" stroke-linecap="round" stroke-linejoin="round" stroke-width="0">
    <circle cx="87.865" cy="51.035" r="1.25"/>
    <circle cx="94.215" cy="48.495" r="1.25"/>
    <circle cx="45.002" cy="31.985" r="1.25"/>
    <circle cx="51.352" cy="29.445" r="1.25"/>
    <circle cx="68.815" cy="51.035" r="1.25"/>
    <circle cx="75.165" cy="48.495" r="1.25"/>
    <circle cx="49.765" cy="51.035" r="1.25"/>
    <circle cx="56.115" cy="48.495" r="1.25"/>
    <circle cx="83.102" cy="31.985" r="1.25"/>
    <circle cx="89.453" cy="29.445" r="1.25"/>
    <circle cx="64.052" cy="31.985" r="1.25"/>
    <circle cx="70.403" cy="29.445" r="1.25"/>
    <circle cx="30.715" cy="51.035" r="1.25"/>
    <circle cx="37.065" cy="48.495" r="1.25"/>
   </g>
   <g fill="#8DCB81" stroke="#8DCB81" stroke-linecap="round" stroke-linejoin="round" stroke-width="0">
    <circle cx="87.865" cy="51.035" r="1.25"/>
    <circle cx="94.215" cy="48.495" r="1.25"/>
    <circle cx="45.002" cy="31.985" r="1.25"/>
    <circle cx="51.352" cy="29.445" r="1.25"/>
    <circle cx="68.815" cy="51.035" r="1.25"/>
    <circle cx="75.165" cy="48.495" r="1.25"/>
    <circle cx="49.765" cy="51.035" r="1.25"/>
    <circle cx="56.115" cy="48.495" r="1.25"/>
    <circle cx="83.102" cy="31.985" r="1.25"/>
    <circle cx="89.453" cy="29.445" r="1.25"/>
    <circle cx="64.052" cy="31.985" r="1.25"/>
    <circle cx="70.403" cy="29.445" r="1.25"/>
    <circle cx="30.715" cy="51.035" r="1.25"/>
    <circle cx="37.065" cy="48.495" r="1.25"/>
   </g>
   <g fill="#ED7C33" stroke="#ED7C33" stroke-linecap="round" stroke-linejoin="round" stroke-width="0">
    <circle cx="87.865" cy="51.035" r="1.25"/>
    <circle cx="94.215" cy="48.495" r="1.25"/>
    <circle cx="45.002" cy="31.985" r="1.25"/>
    <circle cx="51.352" cy="29.445" r="1.25"/>
    <circle cx="68.815" cy="51.035" r="1.25"/>
    <circle cx="75.165" cy="48.495" r="1.25"/>
    <circle cx="49.765" cy="51.035" r="1.25"/>
    <circle cx="56.115" cy="48.495" r="1.25"/>
    <circle cx="83.102" cy="31.985" r="1.25"/>
    <circle cx="89.453" cy="29.445" r="1.25"/>
    <circle cx="64.052" cy="31.985" r="1.25"/>
    <circle cx="70.403" cy="29.445" r="1.25"/>
    <circle cx="30.715" cy="51.035" r="1.25"/>
    <circle cx="37.065" cy="48.495" r="1.25"/>
   </g>
   <g fill="#5BC3EB" stroke="#5BC3EB" stroke-linecap="round" stroke-linejoin="round" stroke-width="0">
    <circle cx="87.865" cy="51.035" r="1.25"/>
    <circle cx="94.215" cy="48.495" r="1.25"/>
    <circle cx="45.002" cy="31.985" r="1.25"/>
    <circle cx="51.352" cy="29.445" r="1.25"/>
    <circle cx="68.815" cy="51.035" r="1.25"/>
    <circle cx="75.165" cy="48.495" r="1.25"/>
    <circle cx="49.765" cy="51.035" r="1.25"/>
    <circle cx="56.115" cy="48.495" r="1.25"/>
    <circle cx="83.102" cy="31.985" r="1.25"/>
    <circle cx="89.453" cy="29.445" r="1.25"/>
    <circle cx="64.052" cy="31.985" r="1.25"/>
    <circle cx="70.403" cy="29.445" r="1.25"/>
    <circle cx="30.715" cy="51.035" r="1.25"/>
    <circle cx="37.065" cy="48.495" r="1.25"/>
   </g>
   <g fill="#F76F8E" stroke="#F76F8E" stroke-linecap="round" stroke-linejoin="round" stroke-width="0">
    <circle cx="87.865" cy="51.035" r="1.25"/>
    <circle cx="94.215" cy="48.495" r="1.25"/>
    <circle cx="45.002" cy="31.985" r="1.25"/>
    <circle cx="51.352" cy="29.445" r="1.25"/>
    <circle cx="68.815" cy="51.035" r="1.25"/>
    <circle cx="75.165" cy="48.495" r="1.25"/>
    <circle cx="49.765" cy="51.035" r="1.25"/>
    <circle cx="56.115" cy="48.495" r="1.25"/>
    <circle cx="83.102" cy="31.985" r="1.25"/>
    <circle cx="89.453" cy="29.445" r="1.25"/>
    <circle cx="64.052" cy="31.985" r="1.25"/>
    <circle cx="70.403" cy="29.445" r="1.25"/>
    <circle cx="30.715" cy="51.035" r="1.25"/>
    <circle cx="37.065" cy="48.495" r="1.25"/>
   </g>
   <g fill="#A7A5C6" stroke="#A7A5C6" stroke-linecap="round" stroke-linejoin="round" stroke-width="0">
    <circle cx="87.865" cy="51.035" r="1.25"/>
    <circle cx="94.215" cy="48.495" r="1.25"/>
    <circle cx="45.002" cy="31.985" r="1.25"/>
    <circle cx="51.352" cy="29.445" r="1.25"/>
    <circle cx="68.815" cy="51.035" r="1.25"/>
    <circle cx="75.165" cy="48.495" r="1.25"/>
    <circle cx="49.765" cy="51.035" r="1.25"/>
    <circle cx="56.115" cy="48.495" r="1.25"/>
    <circle cx="83.102" cy="31.985" r="1.25"/>
    <circle cx="89.453" cy="29.445" r="1.25"/>
    <circle cx="64.052" cy="31.985" r="1.25"/>
    <circle cx="70.403" cy="29.445" r="1.25"/>
    <circle cx="30.715" cy="51.035" r="1.25"/>
    <circle cx="37.065" cy="48.495" r="1.25"/>
   </g>
   <g fill="#28CCD9" stroke="#28CCD9" stroke-linecap="round" stroke-linejoin="round" stroke-width="0">
    <circle cx="87.865" cy="51.035" r="1.25"/>
    <circle cx="94.215" cy="48.495" r="1.25"/>
    <circle cx="45.002" cy="31.985" r="1.25"/>
    <circle cx="51.352" cy="29.445" r="1.25"/>
    <circle cx="68.815" cy="51.035" r="1.25"/>
    <circle cx="75.165" cy="48.495" r="1.25"/>
    <circle cx="49.765" cy="51.035" r="1.25"/>
    <circle cx="56.115" cy="48.495" r="1.25"/>
    <circle cx="83.102" cy="31.985" r="1.25"/>
    <circle cx="89.453" cy="29.445" r="1.25"/>
    <circle cx="64.052" cy="31.985" r="1.25"/>
    <circle cx="70.403" cy="29.445" r="1.25"/>
    <circle cx="30.715" cy="51.035" r="1.25"/>
    <circle cx="37.065" cy="48.495" r="1.25"/>
   </g>
   <g fill="#E8B2A7" stroke="#E8B2A7" stroke-linecap="round" stroke-linejoin="round" stroke-width="0">
    <circle cx="87.865" cy="51.035" r="1.25"/>
    <circle cx="94.215" cy="48.495" r="1.25"/>
    <circle cx="45.002" cy="31.985" r="1.25"/>
    <circle cx="51.352" cy="29.445" r="1.25"/>
    <circle cx="68.815" cy="51.035" r="1.25"/>
    <circle cx="75.165" cy="48.495" r="1.25"/>
    <circle cx="49.765" cy="51.035" r="1.25"/>
    <circle cx="56.115" cy="48.495" r="1.25"/>
    <circle cx="83.102" cy="31.985" r="1.25"/>
    <circle cx="89.453" cy="29.445" r="1.25"/>
    <circle cx="64.052" cy="31.985" r="1.25"/>
    <circle cx="70.403" cy="29.445" r="1.25"/>
    <circle cx="30.715" cy="51.035" r="1.25"/>
    <circle cx="37.065" cy="48.495" r="1.25"/>
   </g>
   <g fill="#F2EDA1" stroke="#F2EDA1" stroke-linecap="round" stroke-linejoin="round" stroke-width="0">
    <circle cx="87.865" cy="51.035" r="1.25"/>
    <circle cx="94.215" cy="48.495" r="1.25"/>
    <circle cx="45.002" cy="31.985" r="1.25"/>
    <circle cx="51.352" cy="29.445" r="1.25"/>
    <circle cx="68.815" cy="51.035" r="1.25"/>
    <circle cx="75.165" cy="48.495" r="1.25"/>
    <circle cx="49.765" cy="51.035" r="1.25"/>
    <circle cx="56.115" cy="48.495" r="1.25"/>
    <circle cx="83.102" cy="31.985" r="1.25"/>
    <circle cx="89.453" cy="29.445" r="1.25"/>
    <circle cx="64.052" cy="31.985" r="1.25"/>
    <circle cx="70.403" cy="29.445" r="1.25"/>
    <circle cx="30.715" cy="51.035" r="1.25"/>
    <circle cx="37.065" cy="48.495" r="1.25"/>
   </g>
   <g fill="#ED7C33" stroke="#ED7C33" stroke-linecap="round" stroke-linejoin="round" stroke-width="0">
    <circle cx="87.865" cy="51.035" r="1.25"/>
    <circle cx="94.215" cy="48.495" r="1.25"/>
    <circle cx="45.002" cy="31.985" r="1.25"/>
    <circle cx="51.352" cy="29.445" r="1.25"/>
    <circle cx="68.815" cy="51.035" r="1.25"/>
    <circle cx="75.165" cy="48.495" r="1.25"/>
    <circle cx="49.765" cy="51.035" r="1.25"/>
    <circle cx="56.115" cy="48.495" r="1.25"/>
    <circle cx="83.102" cy="31.985" r="1.25"/>
    <circle cx="89.453" cy="29.445" r="1.25"/>
    <circle cx="64.052" cy="31.985" r="1.25"/>
    <circle cx="70.403" cy="29.445" r="1.25"/>
    <circle cx="30.715" cy="51.035" r="1.25"/>
    <circle cx="37.065" cy="48.495" r="1.25"/>
   </g>
   <g fill="#5BC3EB" stroke="#5BC3EB" stroke-linecap="round" stroke-linejoin="round" stroke-width="0">
    <circle cx="87.865" cy="51.035" r="1.25"/>
    <circle cx="94.215" cy="48.495" r="1.25"/>
    <circle cx="45.002" cy="31.985" r="1.25"/>
    <circle cx="51.352" cy="29.445" r="1.25"/>
    <circle cx="68.815" cy="51.035" r="1.25"/>
    <circle cx="75.165" cy="48.495" r="1.25"/>
    <circle cx="49.765" cy="51.035" r="1.25"/>
    <circle cx="56.115" cy="48.495" r="1.25"/>
    <circle cx="83.102" cy="31.985" r="1.25"/>
    <circle cx="89.453" cy="29.445" r="1.25"/>
    <circle cx="64.052" cy="31.985" r="1.25"/>
    <circle cx="70.403" cy="29.445" r="1.25"/>
    <circle cx="30.715" cy="51.035" r="1.25"/>
    <circle cx="37.065" cy="48.495" r="1.25"/>
   </g>
   <g fill="#F76F8E" stroke="#F76F8E" stroke-linecap="round" stroke-linejoin="round" stroke-width="0">
    <circle cx="87.865" cy="51.035" r="1.25"/>
    <circle cx="94.215" cy="48.495" r="1.25"/>
    <circle cx="45.002" cy="31.985" r="1.25"/>
    <circle cx="51.352" cy="29.445" r="1.25"/>
    <circle cx="68.815" cy="51.035" r="1.25"/>
    <circle cx="75.165" cy="48.495" r="1.25"/>
    <circle cx="49.765" cy="51.035" r="1.25"/>
    <circle cx="56.115" cy="48.495" r="1.25"/>
    <circle cx="83.102" cy="31.985" r="1.25"/>
    <circle cx="89.453" cy="29.445" r="1.25"/>
    <circle cx="64.052" cy="31.985" r="1.25"/>
    <circle cx="70.403" cy="29.445" r="1.25"/>
    <circle cx="30.715" cy="51.035" r="1.25"/>
    <circle cx="37.065" cy="48.495" r="1.25"/>
   </g>
   <g fill="#A7A5C6" stroke="#A7A5C6" stroke-linecap="round" stroke-linejoin="round" stroke-width="0">
    <circle cx="87.865" cy="51.035" r="1.25"/>
    <circle cx="94.215" cy="48.495" r="1.25"/>
    <circle cx="45.002" cy="31.985" r="1.25"/>
    <circle cx="51.352" cy="29.445" r="1.25"/>
    <circle cx="68.815" cy="51.035" r="1.25"/>
    <circle cx="75.165" cy="48.495" r="1.25"/>
    <circle cx="49.765" cy="51.035" r="1.25"/>
    <circle cx="56.115" cy="48.495" r="1.25"/>
    <circle cx="83.102" cy="31.985" r="1.25"/>
    <circle cx="89.453" cy="29.445" r="1.25"/>
    <circle cx="64.052" cy="31.985" r="1.25"/>
    <circle cx="70.403" cy="29.445" r="1.25"/>
    <circle cx="30.715" cy="51.035" r="1.25"/>
    <circle cx="37.065" cy="48.495" r="1.25"/>
   </g>
   <g fill="#28CCD9" stroke="#28CCD9" stroke-linecap="round" stroke-linejoin="round" stroke-width="0">
    <circle cx="87.865" cy="51.035" r="1.25"/>
    <circle cx="94.215" cy="48.495" r="1.25"/>
    <circle cx="45.002" cy="31.985" r="1.25"/>
    <circle cx="51.352" cy="29.445" r="1.25"/>
    <circle cx="68.815" cy="51.035" r="1.25"/>
    <circle cx="75.165" cy="48.495" r="1.25"/>
    <circle cx="49.765" cy="51.035" r="1.25"/>
    <circle cx="56.115" cy="48.495" r="1.25"/>
    <circle cx="83.102" cy="31.985" r="1.25"/>
    <circle cx="89.453" cy="29.445" r="1.25"/>
    <circle cx="64.052" cy="31.985" r="1.25"/>
    <circle cx="70.403" cy="29.445" r="1.25"/>
    <circle cx="30.715" cy="51.035" r="1.25"/>
    <circle cx="37.065" cy="48.495" r="1.25"/>
   </g>
   <g fill="#E8B2A7" stroke="#E8B2A7" stroke-linecap="round" stroke-linejoin="round" stroke-width="0">
    <circle cx="87.865" cy="51.035" r="1.25"/>
    <circle cx="94.215" cy="48.495" r="1.25"/>
    <circle cx="45.002" cy="31.985" r="1.25"/>
    <circle cx="51.352" cy="29.445" r="1.25"/>
    <circle cx="68.815" cy="51.035" r="1.25"/>
    <circle cx="75.165" cy="48.495" r="1.25"/>
    <circle cx="49.765" cy="51.035" r="1.25"/>
    <circle cx="56.115" cy="48.495" r="1.25"/>
    <circle cx="83.102" cy="31.985" r="1.25"/>
    <circle cx="89.453" cy="29.445" r="1.25"/>
    <circle cx="64.052" cy="31.985" r="1.25"/>
    <circle cx="70.403" cy="29.445" r="1.25"/>
    <circle cx="30.715" cy="51.035" r="1.25"/>
    <circle cx="37.065" cy="48.495" r="1.25"/>
   </g>
   <g fill="#F2EDA1" stroke="#F2EDA1" stroke-linecap="round" stroke-linejoin="round" stroke-width="0">
    <circle cx="87.865" cy="51.035" r="1.25"/>
    <circle cx="94.215" cy="48.495" r="1.25"/>
    <circle cx="45.002" cy="31.985" r="1.25"/>
    <circle cx="51.352" cy="29.445" r="1.25"/>
    <circle cx="68.815" cy="51.035" r="1.25"/>
    <circle cx="75.165" cy="48.495" r="1.25"/>
    <circle cx="49.765" cy="51.035" r="1.25"/>
    <circle cx="56.115" cy="48.495" r="1.25"/>
    <circle cx="83.102" cy="31.985" r="1.25"/>
    <circle cx="89.453" cy="29.445" r="1.25"/>
    <circle cx="64.052" cy="31.985" r="1.25"/>
    <circle cx="70.403" cy="29.445" r="1.25"/>
    <circle cx="30.715" cy="51.035" r="1.25"/>
    <circle cx="37.065" cy="48.495" r="1.25"/>
   </g>
   <g fill="#ED7C33" stroke="#ED7C33" stroke-linecap="round" stroke-linejoin="round" stroke-width="0">
    <circle cx="87.865" cy="51.035" r="1.25"/>
    <circle cx="94.215" cy="48.495" r="1.25"/>
    <circle cx="45.002" cy="31.985" r="1.25"/>
    <circle cx="51.352" cy="29.445" r="1.25"/>
    <circle cx="68.815" cy="51.035" r="1.25"/>
    <circle cx="75.165" cy="48.495" r="1.25"/>
    <circle cx="49.765" cy="51.035" r="1.25"/>
    <circle cx="56.115" cy="48.495" r="1.25"/>
    <circle cx="83.102" cy="31.985" r="1.25"/>
    <circle cx="89.453" cy="29.445" r="1.25"/>
    <circle cx="64.052" cy="31.985" r="1.25"/>
    <circle cx="70.403" cy="29.445" r="1.25"/>
    <circle cx="30.715" cy="51.035" r="1.25"/>
    <circle cx="37.065" cy="48.495" r="1.25"/>
   </g>
   <g fill="#5BC3EB" stroke="#5BC3EB" stroke-linecap="round" stroke-linejoin="round" stroke-width="0">
    <circle cx="87.865" cy="51.035" r="1.25"/>
    <circle cx="94.215" cy="48.495" r="1.25"/>
    <circle cx="45.002" cy="31.985" r="1.25"/>
    <circle cx="51.352" cy="29.445" r="1.25"/>
    <circle cx="68.815" cy="51.035" r="1.25"/>
    <circle cx="75.165" cy="48.495" r="1.25"/>
    <circle cx="49.765" cy="51.035" r="1.25"/>
    <circle cx="56.115" cy="48.495" r="1.25"/>
    <circle cx="83.102" cy="31.985" r="1.25"/>
    <circle cx="89.453" cy="29.445" r="1.25"/>
    <circle cx="64.052" cy="31.985" r="1.25"/>
    <circle cx="70.403" cy="29.445" r="1.25"/>
    <circle cx="30.715" cy="51.035" r="1.25"/>
    <circle cx="37.065" cy="48.495" r="1.25"/>
   </g>
   <g fill="#F76F8E" stroke="#F76F8E" stroke-linecap="round" stroke-linejoin="round" stroke-width="0">
    <circle cx="87.865" cy="51.035" r="1.25"/>
    <circle cx="94.215" cy="48.495" r="1.25"/>
    <circle cx="45.002" cy="31.985" r="1.25"/>
    <circle cx="51.352" cy="29.445" r="1.25"/>
    <circle cx="68.815" cy="51.035" r="1.25"/>
    <circle cx="75.165" cy="48.495" r="1.25"/>
    <circle cx="49.765" cy="51.035" r="1.25"/>
    <circle cx="56.115" cy="48.495" r="1.25"/>
    <circle cx="83.102" cy="31.985" r="1.25"/>
    <circle cx="89.453" cy="29.445" r="1.25"/>
    <circle cx="64.052" cy="31.985" r="1.25"/>
    <circle cx="70.403" cy="29.445" r="1.25"/>
    <circle cx="30.715" cy="51.035" r="1.25"/>
    <circle cx="37.065" cy="48.495" r="1.25"/>
   </g>
   <g fill="#A7A5C6" stroke="#A7A5C6" stroke-linecap="round" stroke-linejoin="round" stroke-width="0">
    <circle cx="87.865" cy="51.035" r="1.25"/>
    <circle cx="94.215" cy="48.495" r="1.25"/>
    <circle cx="45.002" cy="31.985" r="1.25"/>
    <circle cx="51.352" cy="29.445" r="1.25"/>
    <circle cx="68.815" cy="51.035" r="1.25"/>
    <circle cx="75.165" cy="48.495" r="1.25"/>
    <circle cx="49.765" cy="51.035" r="1.25"/>
    <circle cx="56.115" cy="48.495" r="1.25"/>
    <circle cx="83.102" cy="31.985" r="1.25"/>
    <circle cx="89.453" cy="29.445" r="1.25"/>
    <circle cx="64.052" cy="31.985" r="1.25"/>
    <circle cx="70.403" cy="29.445" r="1.25"/>
    <circle cx="30.715" cy="51.035" r="1.25"/>
    <circle cx="37.065" cy="48.495" r="1.25"/>
   </g>
   <g fill="#28CCD9" stroke="#28CCD9" stroke-linecap="round" stroke-linejoin="round" stroke-width="0">
    <circle cx="87.865" cy="51.035" r="1.25"/>
    <circle cx="94.215" cy="48.495" r="1.25"/>
    <circle cx="45.002" cy="31.985" r="1.25"/>
    <circle cx="51.352" cy="29.445" r="1.25"/>
    <circle cx="68.815" cy="51.035" r="1.25"/>
    <circle cx="75.165" cy="48.495" r="1.25"/>
    <circle cx="49.765" cy="51.035" r="1.25"/>
    <circle cx="56.115" cy="48.495" r="1.25"/>
    <circle cx="83.102" cy="31.985" r="1.25"/>
    <circle cx="89.453" cy="29.445" r="1.25"/>
    <circle cx="64.052" cy="31.985" r="1.25"/>
    <circle cx="70.403" cy="29.445" r="1.25"/>
    <circle cx="30.715" cy="51.035" r="1.25"/>
    <circle cx="37.065" cy="48.495" r="1.25"/>
   </g>
   <g fill="#E8B2A7" stroke="#E8B2A7" stroke-linecap="round" stroke-linejoin="round" stroke-width="0">
    <circle cx="87.865" cy="51.035" r="1.25"/>
    <circle cx="94.215" cy="48.495" r="1.25"/>
    <circle cx="45.002" cy="31.985" r="1.25"/>
    <circle cx="51.352" cy="29.445" r="1.25"/>
    <circle cx="68.815" cy="51.035" r="1.25"/>
    <circle cx="75.165" cy="48.495" r="1.25"/>
    <circle cx="49.765" cy="51.035" r="1.25"/>
    <circle cx="56.115" cy="48.495" r="1.25"/>
    <circle cx="83.102" cy="31.985" r="1.25"/>
    <circle cx="89.453" cy="29.445" r="1.25"/>
    <circle cx="64.052" cy="31.985" r="1.25"/>
    <circle cx="70.403" cy="29.445" r="1.25"/>
    <circle cx="30.715" cy="51.035" r="1.25"/>
    <circle cx="37.065" cy="48.495" r="1.25"/>
   </g>
   <g fill="#F2EDA1" stroke="#F2EDA1" stroke-linecap="round" stroke-linejoin="round" stroke-width="0">
    <circle cx="87.865" cy="51.035" r="1.25"/>
    <circle cx="94.215" cy="48.495" r="1.25"/>
    <circle cx="45.002" cy="31.985" r="1.25"/>
    <circle cx="51.352" cy="29.445" r="1.25"/>
    <circle cx="68.815" cy="51.035" r="1.25"/>
    <circle cx="75.165" cy="48.495" r="1.25"/>
    <circle cx="49.765" cy="51.035" r="1.25"/>
    <circle cx="56.115" cy="48.495" r="1.25"/>
    <circle cx="83.102" cy="31.985" r="1.25"/>
    <circle cx="89.453" cy="29.445" r="1.25"/>
    <circle cx="64.052" cy="31.985" r="1.25"/>
    <circle cx="70.403" cy="29.445" r="1.25"/>
    <circle cx="30.715" cy="51.035" r="1.25"/>
    <circle cx="37.065" cy="48.495" r="1.25"/>
   </g>
   <g fill="#4D7FC4">
    <g stroke-width="0">
     <g stroke="#4D7FC4" stroke-linecap="round" stroke-linejoin="round">
      <circle cx="87.865" cy="51.035" r="1.25"/>
      <circle cx="94.215" cy="48.495" r="1.25"/>
      <circle cx="45.002" cy="31.985" r="1.25"/>
      <circle cx="51.352" cy="29.445" r="1.25"/>
      <circle cx="68.815" cy="51.035" r="1.25"/>
      <circle cx="75.165" cy="48.495" r="1.25"/>
      <circle cx="49.765" cy="51.035" r="1.25"/>
      <circle cx="56.115" cy="48.495" r="1.25"/>
      <circle cx="83.102" cy="31.985" r="1.25"/>
      <circle cx="89.453" cy="29.445" r="1.25"/>
      <circle cx="64.052" cy="31.985" r="1.25"/>
      <circle cx="70.403" cy="29.445" r="1.25"/>
      <circle cx="30.715" cy="51.035" r="1.25"/>
      <circle cx="37.065" cy="48.495" r="1.25"/>
     </g>
     <g fill-rule="evenodd">
      <path d="m77.955 57.955h-0.5v-0.5h0.5z"/>
      <path d="m77.955 55.755h-0.5v-0.5h0.5z"/>
      <path d="m54.142 38.905h-0.5v-0.5h0.5z"/>
      <path d="m54.142 36.705h-0.5v-0.5h0.5z"/>
      <path d="m97.005 57.955h-0.5v-0.5h0.5z"/>
      <path d="m97.005 55.755h-0.5v-0.5h0.5z"/>
      <path d="m39.855 57.955h-0.5v-0.5h0.5z"/>
      <path d="m39.855 55.755h-0.5v-0.5h0.5z"/>
      <path d="m58.905 57.955h-0.5v-0.5h0.5z"/>
      <path d="m58.905 55.755h-0.5v-0.5h0.5z"/>
      <path d="m73.192 38.905h-0.5v-0.5h0.5z"/>
      <path d="m73.192 36.705h-0.5v-0.5h0.5z"/>
      <path d="m92.242 38.905h-0.5v-0.5h0.5z"/>
      <path d="m92.242 36.705h-0.5v-0.5h0.5z"/>
     </g>
    </g>
    <g fill-opacity="0" stroke="#4D7FC4" stroke-linecap="round" stroke-linejoin="round" stroke-width=".25">
     <path d="m53.892 38.655h19.05"/>
     <path d="m72.942 38.655h19.05"/>
     <path d="m51.352 33.915 2.54 2.54"/>
     <path d="m51.352 29.445v4.47"/>
     <path d="m70.403 33.915 2.539 2.54"/>
     <path d="m70.403 29.445v4.47"/>
     <path d="m89.453 29.445v4.47"/>
     <path d="m89.453 33.915 2.539 2.54"/>
     <path d="m58.655 57.705h19.05"/>
     <path d="m39.605 57.705h19.05"/>
     <path d="m77.705 57.705h19.05"/>
     <path d="m37.065 48.495v4.47"/>
     <path d="m37.065 52.965 2.54 2.54"/>
     <path d="m56.115 52.965 2.54 2.54"/>
     <path d="m56.115 48.495v4.47"/>
     <path d="m75.165 52.965 2.54 2.54"/>
     <path d="m75.165 48.495v4.47"/>
     <path d="m94.215 52.965 2.54 2.54"/>
     <path d="m94.215 48.495v4.47"/>
    </g>
   </g>
  </g>
  <g fill-opacity="0">
   <g stroke="#000" stroke-width=".25">
    <g fill="#00C2C2" fill-opacity=".9" fill-rule="evenodd" stroke-width="0">
     <path d="m77.955 57.955h-0.5v-0.5h0.5z"/>
     <path d="m77.955 55.755h-0.5v-0.5h0.5z"/>
     <path d="m54.142 38.905h-0.5v-0.5h0.5z"/>
     <path d="m54.142 36.705h-0.5v-0.5h0.5z"/>
     <path d="m97.005 57.955h-0.5v-0.5h0.5z"/>
     <path d="m97.005 55.755h-0.5v-0.5h0.5z"/>
     <path d="m39.855 57.955h-0.5v-0.5h0.5z"/>
     <path d="m39.855 55.755h-0.5v-0.5h0.5z"/>
     <path d="m58.905 57.955h-0.5v-0.5h0.5z"/>
     <path d="m58.905 55.755h-0.5v-0.5h0.5z"/>
     <path d="m73.192 38.905h-0.5v-0.5h0.5z"/>
     <path d="m73.192 36.705h-0.5v-0.5h0.5z"/>
     <path d="m92.242 38.905h-0.5v-0.5h0.5z"/>
     <path d="m92.242 36.705h-0.5v-0.5h0.5z"/>
    </g>
   </g>
   <g fill="#E8B2A7" stroke="#E8B2A7" stroke-width=".15">
    <g transform="rotate(-90 79.555 56.605)">
     <text transform="scale(-1 1) translate(-159.11)" x="79.555" y="57.105" font-size="1.333" opacity="0" text-anchor="middle" lengthAdjust="spacingAndGlyphs" textLength="2.202">D6</text>
    </g>
    <g class="stroked-text">
     <desc>D6</desc>
     <path d="m80.01 55.867h-1"/>
     <path d="m79.01 55.867v0.238"/>
     <path d="m79.01 56.105 0.047 0.143"/>
     <path d="m79.057 56.248 0.096 0.095"/>
     <path d="m79.153 56.343 0.095 0.048"/>
     <path d="m79.248 56.391 0.19 0.047"/>
     <path d="m79.438 56.438h0.143"/>
     <path d="m79.581 56.438 0.191-0.047"/>
     <path d="m79.772 56.391 0.095-0.048"/>
     <path d="m79.867 56.343 0.095-0.095"/>
     <path d="m79.962 56.248 0.048-0.143"/>
     <path d="m80.01 56.105v-0.238"/>
     <path d="m79.01 57.295v-0.19"/>
     <path d="m79.01 57.105 0.047-0.095"/>
     <path d="m79.057 57.01 0.048-0.048"/>
     <path d="m79.105 56.962 0.143-0.095"/>
     <path d="m79.248 56.867 0.19-0.048"/>
     <path d="m79.438 56.819h0.381"/>
     <path d="m79.819 56.819 0.096 0.048"/>
     <path d="m79.915 56.867 0.047 0.048"/>
     <path d="m79.962 56.915 0.048 0.095"/>
     <path d="m80.01 57.01v0.19"/>
     <path d="m80.01 57.2-0.048 0.095"/>
     <path d="m79.962 57.295-0.047 0.048"/>
     <path d="m79.915 57.343-0.096 0.048"/>
     <path d="m79.819 57.391h-0.238"/>
     <path d="m79.581 57.391-0.095-0.048"/>
     <path d="m79.486 57.343-0.048-0.048"/>
     <path d="m79.438 57.295-0.047-0.095"/>
     <path d="m79.391 57.2v-0.19"/>
     <path d="m79.391 57.01 0.047-0.095"/>
     <path d="m79.438 56.915 0.048-0.048"/>
     <path d="m79.486 56.867 0.095-0.048"/>
    </g>
    <g transform="rotate(-90 55.742 37.555)">
     <text transform="scale(-1 1) translate(-111.48)" x="55.742" y="38.055" font-size="1.333" opacity="0" text-anchor="middle" lengthAdjust="spacingAndGlyphs" textLength="2.202">D1</text>
    </g>
    <g class="stroked-text">
     <desc>D1</desc>
     <path d="m56.197 36.817h-1"/>
     <path d="m55.197 36.817v0.238"/>
     <path d="m55.197 37.055 0.048 0.143"/>
     <path d="m55.245 37.198 0.095 0.095"/>
     <path d="m55.34 37.293 0.095 0.048"/>
     <path d="m55.435 37.341 0.191 0.047"/>
     <path d="m55.626 37.388h0.143"/>
     <path d="m55.769 37.388 0.19-0.047"/>
     <path d="m55.959 37.341 0.095-0.048"/>
     <path d="m56.054 37.293 0.096-0.095"/>
     <path d="m56.15 37.198 0.047-0.143"/>
     <path d="m56.197 37.055v-0.238"/>
     <path d="m56.197 38.341v-0.572"/>
     <path d="m56.197 38.055h-1"/>
     <path d="m55.197 38.055 0.143-0.095"/>
     <path d="m55.34 37.96 0.095-0.095"/>
     <path d="m55.435 37.865 0.048-0.096"/>
    </g>
    <g transform="rotate(-90 98.605 56.605)">
     <text transform="scale(-1 1) translate(-197.21)" x="98.605" y="57.105" font-size="1.333" opacity="0" text-anchor="middle" lengthAdjust="spacingAndGlyphs" textLength="2.202">D7</text>
    </g>
    <g class="stroked-text">
     <desc>D7</desc>
     <path d="m99.06 55.867h-1"/>
     <path d="m98.06 55.867v0.238"/>
     <path d="m98.06 56.105 0.047 0.143"/>
     <path d="m98.107 56.248 0.096 0.095"/>
     <path d="m98.203 56.343 0.095 0.048"/>
     <path d="m98.298 56.391 0.19 0.047"/>
     <path d="m98.488 56.438h0.143"/>
     <path d="m98.631 56.438 0.191-0.047"/>
     <path d="m98.822 56.391 0.095-0.048"/>
     <path d="m98.917 56.343 0.095-0.095"/>
     <path d="m99.012 56.248 0.048-0.143"/>
     <path d="m99.06 56.105v-0.238"/>
     <path d="m98.06 56.772v0.666"/>
     <path d="m98.06 57.438 1-0.428"/>
    </g>
    <g transform="rotate(-90 41.455 56.605)">
     <text transform="scale(-1 1) translate(-82.91)" x="41.455" y="57.105" font-size="1.333" opacity="0" text-anchor="middle" lengthAdjust="spacingAndGlyphs" textLength="2.202">D4</text>
    </g>
    <g class="stroked-text">
     <desc>D4</desc>
     <path d="m41.91 55.867h-1"/>
     <path d="m40.91 55.867v0.238"/>
     <path d="m40.91 56.105 0.047 0.143"/>
     <path d="m40.957 56.248 0.096 0.095"/>
     <path d="m41.053 56.343 0.095 0.048"/>
     <path d="m41.148 56.391 0.19 0.047"/>
     <path d="m41.338 56.438h0.143"/>
     <path d="m41.481 56.438 0.191-0.047"/>
     <path d="m41.672 56.391 0.095-0.048"/>
     <path d="m41.767 56.343 0.095-0.095"/>
     <path d="m41.862 56.248 0.048-0.143"/>
     <path d="m41.91 56.105v-0.238"/>
     <path d="m41.243 57.295h0.667"/>
     <path d="m40.862 57.057 0.714-0.238"/>
     <path d="m41.576 56.819v0.619"/>
    </g>
    <g transform="rotate(-90 60.505 56.605)">
     <text transform="scale(-1 1) translate(-121.01)" x="60.505" y="57.105" font-size="1.333" opacity="0" text-anchor="middle" lengthAdjust="spacingAndGlyphs" textLength="2.202">D5</text>
    </g>
    <g class="stroked-text">
     <desc>D5</desc>
     <path d="m60.96 55.867h-1"/>
     <path d="m59.96 55.867v0.238"/>
     <path d="m59.96 56.105 0.047 0.143"/>
     <path d="m60.007 56.248 0.096 0.095"/>
     <path d="m60.103 56.343 0.095 0.048"/>
     <path d="m60.198 56.391 0.19 0.047"/>
     <path d="m60.388 56.438h0.143"/>
     <path d="m60.531 56.438 0.191-0.047"/>
     <path d="m60.722 56.391 0.095-0.048"/>
     <path d="m60.817 56.343 0.095-0.095"/>
     <path d="m60.912 56.248 0.048-0.143"/>
     <path d="m60.96 56.105v-0.238"/>
     <path d="m59.96 57.343v-0.476"/>
     <path d="m59.96 56.867 0.476-0.048"/>
     <path d="m60.436 56.819-0.048 0.048"/>
     <path d="m60.388 56.867-0.047 0.095"/>
     <path d="m60.341 56.962v0.238"/>
     <path d="m60.341 57.2 0.047 0.095"/>
     <path d="m60.388 57.295 0.048 0.048"/>
     <path d="m60.436 57.343 0.095 0.048"/>
     <path d="m60.531 57.391h0.238"/>
     <path d="m60.769 57.391 0.096-0.048"/>
     <path d="m60.865 57.343 0.047-0.048"/>
     <path d="m60.912 57.295 0.048-0.095"/>
     <path d="m60.96 57.2v-0.238"/>
     <path d="m60.96 56.962-0.048-0.095"/>
     <path d="m60.912 56.867-0.047-0.048"/>
    </g>
    <g transform="rotate(-90 74.792 37.555)">
     <text transform="scale(-1 1) translate(-149.58)" x="74.792" y="38.055" font-size="1.333" opacity="0" text-anchor="middle" lengthAdjust="spacingAndGlyphs" textLength="2.202">D2</text>
    </g>
    <g class="stroked-text">
     <desc>D2</desc>
     <path d="m75.247 36.817h-1"/>
     <path d="m74.247 36.817v0.238"/>
     <path d="m74.247 37.055 0.048 0.143"/>
     <path d="m74.295 37.198 0.095 0.095"/>
     <path d="m74.39 37.293 0.095 0.048"/>
     <path d="m74.485 37.341 0.191 0.047"/>
     <path d="m74.676 37.388h0.143"/>
     <path d="m74.819 37.388 0.19-0.047"/>
     <path d="m75.009 37.341 0.095-0.048"/>
     <path d="m75.104 37.293 0.096-0.095"/>
     <path d="m75.2 37.198 0.047-0.143"/>
     <path d="m75.247 37.055v-0.238"/>
     <path d="m74.343 37.769-0.048 0.048"/>
     <path d="m74.295 37.817-0.048 0.095"/>
     <path d="m74.247 37.912v0.238"/>
     <path d="m74.247 38.15 0.048 0.095"/>
     <path d="m74.295 38.245 0.048 0.048"/>
     <path d="m74.343 38.293 0.095 0.048"/>
     <path d="m74.438 38.341h0.095"/>
     <path d="m74.533 38.341 0.143-0.048"/>
     <path d="m74.676 38.293 0.571-0.571"/>
     <path d="m75.247 37.722v0.619"/>
    </g>
    <g transform="rotate(-90 93.843 37.555)">
     <text transform="scale(-1 1) translate(-187.68)" x="93.843" y="38.055" font-size="1.333" opacity="0" text-anchor="middle" lengthAdjust="spacingAndGlyphs" textLength="2.202">D3</text>
    </g>
    <g class="stroked-text">
     <desc>D3</desc>
     <path d="m94.297 36.817h-1"/>
     <path d="m93.297 36.817v0.238"/>
     <path d="m93.297 37.055 0.048 0.143"/>
     <path d="m93.345 37.198 0.095 0.095"/>
     <path d="m93.44 37.293 0.095 0.048"/>
     <path d="m93.535 37.341 0.191 0.047"/>
     <path d="m93.726 37.388h0.143"/>
     <path d="m93.869 37.388 0.19-0.047"/>
     <path d="m94.059 37.341 0.095-0.048"/>
     <path d="m94.154 37.293 0.096-0.095"/>
     <path d="m94.25 37.198 0.047-0.143"/>
     <path d="m94.297 37.055v-0.238"/>
     <path d="m93.297 37.722v0.619"/>
     <path d="m93.297 38.341 0.381-0.334"/>
     <path d="m93.678 38.007v0.143"/>
     <path d="m93.678 38.15 0.048 0.095"/>
     <path d="m93.726 38.245 0.048 0.048"/>
     <path d="m93.774 38.293 0.095 0.048"/>
     <path d="m93.869 38.341h0.238"/>
     <path d="m94.107 38.341 0.095-0.048"/>
     <path d="m94.202 38.293 0.048-0.048"/>
     <path d="m94.25 38.245 0.047-0.095"/>
     <path d="m94.297 38.15v-0.285"/>
     <path d="m94.297 37.865-0.047-0.096"/>
     <path d="m94.25 37.769-0.048-0.047"/>
    </g>
   </g>
   <g fill="#E8B2A7" stroke="#E8B2A7" stroke-width=".12">
    <path d="m76.855 58.105v-2.55"/>
    <path d="m78.555 58.105h-1.7"/>
    <path d="m78.555 58.105v-2.55"/>
    <path d="m53.042 39.055v-2.55"/>
    <path d="m54.742 39.055h-1.7"/>
    <path d="m54.742 39.055v-2.55"/>
    <path d="m95.905 58.105v-2.55"/>
    <path d="m97.605 58.105h-1.7"/>
    <path d="m97.605 58.105v-2.55"/>
    <path d="m38.755 58.105v-2.55"/>
    <path d="m40.455 58.105h-1.7"/>
    <path d="m40.455 58.105v-2.55"/>
    <path d="m57.805 58.105v-2.55"/>
    <path d="m59.505 58.105h-1.7"/>
    <path d="m59.505 58.105v-2.55"/>
    <path d="m72.093 39.055v-2.55"/>
    <path d="m73.792 39.055h-1.699"/>
    <path d="m73.792 39.055v-2.55"/>
    <path d="m91.142 39.055v-2.55"/>
    <path d="m92.843 39.055h-1.701"/>
    <path d="m92.843 39.055v-2.55"/>
   </g>
   <g fill="#F2EDA1" stroke="#F2EDA1" stroke-width=".15">
    <text x="91.675" y="46.075" font-size="1.333" opacity="0" text-anchor="middle" lengthAdjust="spacingAndGlyphs" textLength="3.298">SW7</text>
    <g class="stroked-text">
     <desc>SW7</desc>
     <path d="m90.342 45.982 0.143 0.048"/>
     <path d="m90.485 46.03h0.238"/>
     <path d="m90.723 46.03 0.095-0.048"/>
     <path d="m90.818 45.982 0.047-0.047"/>
     <path d="m90.865 45.935 0.048-0.096"/>
     <path d="m90.913 45.839v-0.095"/>
     <path d="m90.913 45.744-0.048-0.095"/>
     <path d="m90.865 45.649-0.047-0.048"/>
     <path d="m90.818 45.601-0.095-0.047"/>
     <path d="m90.723 45.554-0.191-0.048"/>
     <path d="m90.532 45.506-0.095-0.048"/>
     <path d="m90.437 45.458-0.048-0.047"/>
     <path d="m90.389 45.411-0.047-0.095"/>
     <path d="m90.342 45.316v-0.096"/>
     <path d="m90.342 45.22 0.047-0.095"/>
     <path d="m90.389 45.125 0.048-0.048"/>
     <path d="m90.437 45.077 0.095-0.047"/>
     <path d="m90.532 45.03h0.238"/>
     <path d="m90.77 45.03 0.143 0.047"/>
     <path d="m91.246 45.03 0.239 1"/>
     <path d="m91.485 46.03 0.19-0.714"/>
     <path d="m91.675 45.316 0.19 0.714"/>
     <path d="m91.865 46.03 0.239-1"/>
     <path d="m92.389 45.03h0.667"/>
     <path d="m93.056 45.03-0.429 1"/>
    </g>
    <text x="48.812" y="27.025" font-size="1.333" opacity="0" text-anchor="middle" lengthAdjust="spacingAndGlyphs" textLength="3.298">SW1</text>
    <g class="stroked-text">
     <desc>SW1</desc>
     <path d="m47.479 26.932 0.143 0.048"/>
     <path d="m47.622 26.98h0.238"/>
     <path d="m47.86 26.98 0.095-0.048"/>
     <path d="m47.955 26.932 0.048-0.047"/>
     <path d="m48.003 26.885 0.048-0.096"/>
     <path d="m48.051 26.789v-0.095"/>
     <path d="m48.051 26.694-0.048-0.095"/>
     <path d="m48.003 26.599-0.048-0.048"/>
     <path d="m47.955 26.551-0.095-0.047"/>
     <path d="m47.86 26.504-0.19-0.048"/>
     <path d="m47.67 26.456-0.096-0.048"/>
     <path d="m47.574 26.408-0.047-0.047"/>
     <path d="m47.527 26.361-0.048-0.095"/>
     <path d="m47.479 26.266v-0.096"/>
     <path d="m47.479 26.17 0.048-0.095"/>
     <path d="m47.527 26.075 0.047-0.048"/>
     <path d="m47.574 26.027 0.096-0.047"/>
     <path d="m47.67 25.98h0.238"/>
     <path d="m47.908 25.98 0.143 0.047"/>
     <path d="m48.384 25.98 0.238 1"/>
     <path d="m48.622 26.98 0.19-0.714"/>
     <path d="m48.812 26.266 0.191 0.714"/>
     <path d="m49.003 26.98 0.238-1"/>
     <path d="m50.146 26.98h-0.572"/>
     <path d="m49.86 26.98v-1"/>
     <path d="m49.86 25.98-0.095 0.143"/>
     <path d="m49.765 26.123-0.095 0.095"/>
     <path d="m49.67 26.218-0.096 0.048"/>
    </g>
    <text x="72.625" y="46.075" font-size="1.333" opacity="0" text-anchor="middle" lengthAdjust="spacingAndGlyphs" textLength="3.298">SW6</text>
    <g class="stroked-text">
     <desc>SW6</desc>
     <path d="m71.292 45.982 0.143 0.048"/>
     <path d="m71.435 46.03h0.238"/>
     <path d="m71.673 46.03 0.095-0.048"/>
     <path d="m71.768 45.982 0.047-0.047"/>
     <path d="m71.815 45.935 0.048-0.096"/>
     <path d="m71.863 45.839v-0.095"/>
     <path d="m71.863 45.744-0.048-0.095"/>
     <path d="m71.815 45.649-0.047-0.048"/>
     <path d="m71.768 45.601-0.095-0.047"/>
     <path d="m71.673 45.554-0.191-0.048"/>
     <path d="m71.482 45.506-0.095-0.048"/>
     <path d="m71.387 45.458-0.048-0.047"/>
     <path d="m71.339 45.411-0.047-0.095"/>
     <path d="m71.292 45.316v-0.096"/>
     <path d="m71.292 45.22 0.047-0.095"/>
     <path d="m71.339 45.125 0.048-0.048"/>
     <path d="m71.387 45.077 0.095-0.047"/>
     <path d="m71.482 45.03h0.238"/>
     <path d="m71.72 45.03 0.143 0.047"/>
     <path d="m72.196 45.03 0.239 1"/>
     <path d="m72.435 46.03 0.19-0.714"/>
     <path d="m72.625 45.316 0.19 0.714"/>
     <path d="m72.815 46.03 0.239-1"/>
     <path d="m73.863 45.03h-0.19"/>
     <path d="m73.673 45.03-0.096 0.047"/>
     <path d="m73.577 45.077-0.047 0.048"/>
     <path d="m73.53 45.125-0.095 0.143"/>
     <path d="m73.435 45.268-0.048 0.19"/>
     <path d="m73.387 45.458v0.381"/>
     <path d="m73.387 45.839 0.048 0.096"/>
     <path d="m73.435 45.935 0.047 0.047"/>
     <path d="m73.482 45.982 0.095 0.048"/>
     <path d="m73.577 46.03h0.191"/>
     <path d="m73.768 46.03 0.095-0.048"/>
     <path d="m73.863 45.982 0.048-0.047"/>
     <path d="m73.911 45.935 0.047-0.096"/>
     <path d="m73.958 45.839v-0.238"/>
     <path d="m73.958 45.601-0.047-0.095"/>
     <path d="m73.911 45.506-0.048-0.048"/>
     <path d="m73.863 45.458-0.095-0.047"/>
     <path d="m73.768 45.411h-0.191"/>
     <path d="m73.577 45.411-0.095 0.047"/>
     <path d="m73.482 45.458-0.047 0.048"/>
     <path d="m73.435 45.506-0.048 0.095"/>
    </g>
    <text x="53.575" y="46.075" font-size="1.333" opacity="0" text-anchor="middle" lengthAdjust="spacingAndGlyphs" textLength="3.298">SW5</text>
    <g class="stroked-text">
     <desc>SW5</desc>
     <path d="m52.242 45.982 0.143 0.048"/>
     <path d="m52.385 46.03h0.238"/>
     <path d="m52.623 46.03 0.095-0.048"/>
     <path d="m52.718 45.982 0.047-0.047"/>
     <path d="m52.765 45.935 0.048-0.096"/>
     <path d="m52.813 45.839v-0.095"/>
     <path d="m52.813 45.744-0.048-0.095"/>
     <path d="m52.765 45.649-0.047-0.048"/>
     <path d="m52.718 45.601-0.095-0.047"/>
     <path d="m52.623 45.554-0.191-0.048"/>
     <path d="m52.432 45.506-0.095-0.048"/>
     <path d="m52.337 45.458-0.048-0.047"/>
     <path d="m52.289 45.411-0.047-0.095"/>
     <path d="m52.242 45.316v-0.096"/>
     <path d="m52.242 45.22 0.047-0.095"/>
     <path d="m52.289 45.125 0.048-0.048"/>
     <path d="m52.337 45.077 0.095-0.047"/>
     <path d="m52.432 45.03h0.238"/>
     <path d="m52.67 45.03 0.143 0.047"/>
     <path d="m53.146 45.03 0.239 1"/>
     <path d="m53.385 46.03 0.19-0.714"/>
     <path d="m53.575 45.316 0.19 0.714"/>
     <path d="m53.765 46.03 0.239-1"/>
     <path d="m54.861 45.03h-0.476"/>
     <path d="m54.385 45.03-0.048 0.476"/>
     <path d="m54.337 45.506 0.048-0.048"/>
     <path d="m54.385 45.458 0.095-0.047"/>
     <path d="m54.48 45.411h0.238"/>
     <path d="m54.718 45.411 0.095 0.047"/>
     <path d="m54.813 45.458 0.048 0.048"/>
     <path d="m54.861 45.506 0.047 0.095"/>
     <path d="m54.908 45.601v0.238"/>
     <path d="m54.908 45.839-0.047 0.096"/>
     <path d="m54.861 45.935-0.048 0.047"/>
     <path d="m54.813 45.982-0.095 0.048"/>
     <path d="m54.718 46.03h-0.238"/>
     <path d="m54.48 46.03-0.095-0.048"/>
     <path d="m54.385 45.982-0.048-0.047"/>
    </g>
    <text x="86.912" y="27.025" font-size="1.333" opacity="0" text-anchor="middle" lengthAdjust="spacingAndGlyphs" textLength="3.298">SW3</text>
    <g class="stroked-text">
     <desc>SW3</desc>
     <path d="m85.579 26.932 0.143 0.048"/>
     <path d="m85.722 26.98h0.238"/>
     <path d="m85.96 26.98 0.095-0.048"/>
     <path d="m86.055 26.932 0.048-0.047"/>
     <path d="m86.103 26.885 0.048-0.096"/>
     <path d="m86.151 26.789v-0.095"/>
     <path d="m86.151 26.694-0.048-0.095"/>
     <path d="m86.103 26.599-0.048-0.048"/>
     <path d="m86.055 26.551-0.095-0.047"/>
     <path d="m85.96 26.504-0.19-0.048"/>
     <path d="m85.77 26.456-0.096-0.048"/>
     <path d="m85.674 26.408-0.047-0.047"/>
     <path d="m85.627 26.361-0.048-0.095"/>
     <path d="m85.579 26.266v-0.096"/>
     <path d="m85.579 26.17 0.048-0.095"/>
     <path d="m85.627 26.075 0.047-0.048"/>
     <path d="m85.674 26.027 0.096-0.047"/>
     <path d="m85.77 25.98h0.238"/>
     <path d="m86.008 25.98 0.143 0.047"/>
     <path d="m86.484 25.98 0.238 1"/>
     <path d="m86.722 26.98 0.19-0.714"/>
     <path d="m86.912 26.266 0.191 0.714"/>
     <path d="m87.103 26.98 0.238-1"/>
     <path d="m87.627 25.98h0.619"/>
     <path d="m88.246 25.98-0.334 0.381"/>
     <path d="m87.912 26.361h0.143"/>
     <path d="m88.055 26.361 0.096 0.047"/>
     <path d="m88.151 26.408 0.047 0.048"/>
     <path d="m88.198 26.456 0.048 0.095"/>
     <path d="m88.246 26.551v0.238"/>
     <path d="m88.246 26.789-0.048 0.096"/>
     <path d="m88.198 26.885-0.047 0.047"/>
     <path d="m88.151 26.932-0.096 0.048"/>
     <path d="m88.055 26.98h-0.285"/>
     <path d="m87.77 26.98-0.096-0.048"/>
     <path d="m87.674 26.932-0.047-0.047"/>
    </g>
    <text x="67.862" y="27.025" font-size="1.333" opacity="0" text-anchor="middle" lengthAdjust="spacingAndGlyphs" textLength="3.298">SW2</text>
    <g class="stroked-text">
     <desc>SW2</desc>
     <path d="m66.529 26.932 0.143 0.048"/>
     <path d="m66.672 26.98h0.238"/>
     <path d="m66.91 26.98 0.095-0.048"/>
     <path d="m67.005 26.932 0.048-0.047"/>
     <path d="m67.053 26.885 0.048-0.096"/>
     <path d="m67.101 26.789v-0.095"/>
     <path d="m67.101 26.694-0.048-0.095"/>
     <path d="m67.053 26.599-0.048-0.048"/>
     <path d="m67.005 26.551-0.095-0.047"/>
     <path d="m66.91 26.504-0.19-0.048"/>
     <path d="m66.72 26.456-0.096-0.048"/>
     <path d="m66.624 26.408-0.047-0.047"/>
     <path d="m66.577 26.361-0.048-0.095"/>
     <path d="m66.529 26.266v-0.096"/>
     <path d="m66.529 26.17 0.048-0.095"/>
     <path d="m66.577 26.075 0.047-0.048"/>
     <path d="m66.624 26.027 0.096-0.047"/>
     <path d="m66.72 25.98h0.238"/>
     <path d="m66.958 25.98 0.143 0.047"/>
     <path d="m67.434 25.98 0.238 1"/>
     <path d="m67.672 26.98 0.19-0.714"/>
     <path d="m67.862 26.266 0.191 0.714"/>
     <path d="m68.053 26.98 0.238-1"/>
     <path d="m68.624 26.075 0.048-0.048"/>
     <path d="m68.672 26.027 0.095-0.047"/>
     <path d="m68.767 25.98h0.238"/>
     <path d="m69.005 25.98 0.096 0.047"/>
     <path d="m69.101 26.027 0.047 0.048"/>
     <path d="m69.148 26.075 0.048 0.095"/>
     <path d="m69.196 26.17v0.096"/>
     <path d="m69.196 26.266-0.048 0.142"/>
     <path d="m69.148 26.408-0.571 0.572"/>
     <path d="m68.577 26.98h0.619"/>
    </g>
    <text x="34.525" y="46.075" font-size="1.333" opacity="0" text-anchor="middle" lengthAdjust="spacingAndGlyphs" textLength="3.298">SW4</text>
    <g class="stroked-text">
     <desc>SW4</desc>
     <path d="m33.192 45.982 0.143 0.048"/>
     <path d="m33.335 46.03h0.238"/>
     <path d="m33.573 46.03 0.095-0.048"/>
     <path d="m33.668 45.982 0.047-0.047"/>
     <path d="m33.715 45.935 0.048-0.096"/>
     <path d="m33.763 45.839v-0.095"/>
     <path d="m33.763 45.744-0.048-0.095"/>
     <path d="m33.715 45.649-0.047-0.048"/>
     <path d="m33.668 45.601-0.095-0.047"/>
     <path d="m33.573 45.554-0.191-0.048"/>
     <path d="m33.382 45.506-0.095-0.048"/>
     <path d="m33.287 45.458-0.048-0.047"/>
     <path d="m33.239 45.411-0.047-0.095"/>
     <path d="m33.192 45.316v-0.096"/>
     <path d="m33.192 45.22 0.047-0.095"/>
     <path d="m33.239 45.125 0.048-0.048"/>
     <path d="m33.287 45.077 0.095-0.047"/>
     <path d="m33.382 45.03h0.238"/>
     <path d="m33.62 45.03 0.143 0.047"/>
     <path d="m34.096 45.03 0.239 1"/>
     <path d="m34.335 46.03 0.19-0.714"/>
     <path d="m34.525 45.316 0.19 0.714"/>
     <path d="m34.715 46.03 0.239-1"/>
     <path d="m35.763 45.363v0.667"/>
     <path d="m35.525 44.982-0.238 0.714"/>
     <path d="m35.287 45.696h0.619"/>
    </g>
   </g>
   <g fill="#F2EDA1" stroke="#F2EDA1" stroke-width=".12">
    <path d="m84.575 46.475v14.2"/>
    <path d="m84.575 60.675h14.2"/>
    <path d="m98.775 46.475h-14.2"/>
    <path d="m98.775 60.675v-14.2"/>
    <path d="m41.712 27.425v14.2"/>
    <path d="m41.712 41.625h14.2"/>
    <path d="m55.912 27.425h-14.2"/>
    <path d="m55.912 41.625v-14.2"/>
    <path d="m65.525 46.475v14.2"/>
    <path d="m65.525 60.675h14.2"/>
    <path d="m79.725 46.475h-14.2"/>
    <path d="m79.725 60.675v-14.2"/>
    <path d="m46.475 46.475v14.2"/>
    <path d="m46.475 60.675h14.2"/>
    <path d="m60.675 46.475h-14.2"/>
    <path d="m60.675 60.675v-14.2"/>
    <path d="m79.812 27.425v14.2"/>
    <path d="m79.812 41.625h14.201"/>
    <path d="m94.013 27.425h-14.201"/>
    <path d="m94.013 41.625v-14.2"/>
    <path d="m60.762 27.425v14.2"/>
    <path d="m60.762 41.625h14.2"/>
    <path d="m74.962 27.425h-14.2"/>
    <path d="m74.962 41.625v-14.2"/>
    <path d="m27.425 46.475v14.2"/>
    <path d="m27.425 60.675h14.2"/>
    <path d="m41.625 46.475h-14.2"/>
    <path d="m41.625 60.675v-14.2"/>
   </g>
   <g stroke="#000" stroke-width=".12">
    <g fill="#02FFEE" fill-opacity=".4" stroke-width="0">
     <g stroke="#02FFEE" stroke-linecap="round" stroke-linejoin="round">
      <circle cx="86.595" cy="53.575" r=".875"/>
      <circle cx="91.675" cy="53.575" r="2"/>
      <circle cx="96.755" cy="53.575" r=".875"/>
      <circle cx="87.865" cy="51.035" r="1.25"/>
      <circle cx="94.215" cy="48.495" r="1.25"/>
      <circle cx="43.732" cy="34.525" r=".875"/>
      <circle cx="48.812" cy="34.525" r="2"/>
      <circle cx="53.892" cy="34.525" r=".875"/>
      <circle cx="45.002" cy="31.985" r="1.25"/>
      <circle cx="51.352" cy="29.445" r="1.25"/>
      <circle cx="67.545" cy="53.575" r=".875"/>
      <circle cx="72.625" cy="53.575" r="2"/>
      <circle cx="77.705" cy="53.575" r=".875"/>
      <circle cx="68.815" cy="51.035" r="1.25"/>
      <circle cx="75.165" cy="48.495" r="1.25"/>
      <circle cx="48.495" cy="53.575" r=".875"/>
      <circle cx="53.575" cy="53.575" r="2"/>
      <circle cx="58.655" cy="53.575" r=".875"/>
      <circle cx="49.765" cy="51.035" r="1.25"/>
      <circle cx="56.115" cy="48.495" r="1.25"/>
      <circle cx="81.832" cy="34.525" r=".875"/>
      <circle cx="86.912" cy="34.525" r="2"/>
      <circle cx="91.992" cy="34.525" r=".875"/>
      <circle cx="83.102" cy="31.985" r="1.25"/>
      <circle cx="89.453" cy="29.445" r="1.25"/>
      <circle cx="62.782" cy="34.525" r=".875"/>
      <circle cx="67.862" cy="34.525" r="2"/>
      <circle cx="72.942" cy="34.525" r=".875"/>
      <circle cx="64.052" cy="31.985" r="1.25"/>
      <circle cx="70.403" cy="29.445" r="1.25"/>
      <circle cx="29.445" cy="53.575" r=".875"/>
      <circle cx="34.525" cy="53.575" r="2"/>
      <circle cx="39.605" cy="53.575" r=".875"/>
      <circle cx="30.715" cy="51.035" r="1.25"/>
      <circle cx="37.065" cy="48.495" r="1.25"/>
     </g>
     <g fill-rule="evenodd">
      <path d="m77.955 57.955h-0.5v-0.5h0.5z"/>
      <path d="m77.955 55.755h-0.5v-0.5h0.5z"/>
      <path d="m54.142 38.905h-0.5v-0.5h0.5z"/>
      <path d="m54.142 36.705h-0.5v-0.5h0.5z"/>
      <path d="m97.005 57.955h-0.5v-0.5h0.5z"/>
      <path d="m97.005 55.755h-0.5v-0.5h0.5z"/>
      <path d="m39.855 57.955h-0.5v-0.5h0.5z"/>
      <path d="m39.855 55.755h-0.5v-0.5h0.5z"/>
      <path d="m58.905 57.955h-0.5v-0.5h0.5z"/>
      <path d="m58.905 55.755h-0.5v-0.5h0.5z"/>
      <path d="m73.192 38.905h-0.5v-0.5h0.5z"/>
      <path d="m73.192 36.705h-0.5v-0.5h0.5z"/>
      <path d="m92.242 38.905h-0.5v-0.5h0.5z"/>
      <path d="m92.242 36.705h-0.5v-0.5h0.5z"/>
     </g>
    </g>
   </g>
  </g>
 </g>
 <g stroke-width="0">
  <g fill="#D864FF" fill-opacity=".4" stroke="#D864FF" stroke-linecap="round" stroke-linejoin="round" stroke-width="0">
   <circle cx="86.595" cy="53.575" r=".875"/>
   <circle cx="91.675" cy="53.575" r="2"/>
   <circle cx="96.755" cy="53.575" r=".875"/>
   <circle cx="43.732" cy="34.525" r=".875"/>
   <circle cx="48.812" cy="34.525" r="2"/>
   <circle cx="53.892" cy="34.525" r=".875"/>
   <circle cx="67.545" cy="53.575" r=".875"/>
   <circle cx="72.625" cy="53.575" r="2"/>
   <circle cx="77.705" cy="53.575" r=".875"/>
   <circle cx="48.495" cy="53.575" r=".875"/>
   <circle cx="53.575" cy="53.575" r="2"/>
   <circle cx="58.655" cy="53.575" r=".875"/>
   <circle cx="81.832" cy="34.525" r=".875"/>
   <circle cx="86.912" cy="34.525" r="2"/>
   <circle cx="91.992" cy="34.525" r=".875"/>
   <circle cx="62.782" cy="34.525" r=".875"/>
   <circle cx="67.862" cy="34.525" r="2"/>
   <circle cx="72.942" cy="34.525" r=".875"/>
   <circle cx="29.445" cy="53.575" r=".875"/>
   <circle cx="34.525" cy="53.575" r="2"/>
   <circle cx="39.605" cy="53.575" r=".875"/>
  </g>
 </g>
</svg>
