<?xml version="1.0" encoding="UTF-8"?>
<!DOCTYPE svg  PUBLIC '-//W3C//DTD SVG 1.1//EN'  'http://www.w3.org/Graphics/SVG/1.1/DTD/svg11.dtd'>
<svg width="28.651mm" height="38.176mm" version="1.1" viewBox="0 0 28.651 38.176" xmlns="http://www.w3.org/2000/svg">
 <title>SVG Image created as is0gr-render.svg date 2026/07/14 10:41:21</title>
 <desc>Image generated by PCBNEW</desc>
 <rect width="28.651mm" height="38.176mm" fill="#282A36"/>
 <g fill="#f55">
  <circle cx="12.909" cy="16.56" r="1.25"/>
  <circle cx="19.259" cy="14.02" r="1.25"/>
 </g>
 <g fill="#50FA7B">
  <circle cx="12.909" cy="16.56" r="1.25"/>
  <circle cx="19.259" cy="14.02" r="1.25"/>
  <path d="m21.499 25.05-0.0956-0.019-0.0811-0.0542-0.0542-0.0811-0.0191-0.0957v-0.6l0.0191-0.0957 0.0542-0.0811 0.0811-0.0542 0.0956-0.019h0.6l0.0957 0.019 0.0811 0.0542 0.0542 0.0811 0.019 0.0957v0.6l-0.019 0.0957-0.0542 0.0811-0.0811 0.0542-0.0957 0.019z" fill="#50FA7B" fill-rule="evenodd"/>
  <path d="m21.499 22.25-0.0956-0.019-0.0811-0.0542-0.0542-0.0811-0.0191-0.0957v-0.6l0.0191-0.0957 0.0542-0.0811 0.0811-0.0542 0.0956-0.019h0.6l0.0957 0.019 0.0811 0.0542 0.0542 0.0811 0.019 0.0957v0.6l-0.019 0.0957-0.0542 0.0811-0.0811 0.0542-0.0957 0.019z" fill="#50FA7B" fill-rule="evenodd"/>
 </g>
 <g fill="none" stroke-linecap="round" stroke-linejoin="round">
  <g stroke="#50FA7B" stroke-width=".2">
   <path d="m19.259 19.16 2.54 2.54"/>
   <path d="m19.259 14.02v5.14"/>
  </g>
  <g stroke="#8BE9FD" stroke-width=".15">
   <text x="16.7188" y="11.6000" font-size="1.3333" opacity="0" stroke-opacity="0" text-anchor="middle" lengthAdjust="spacingAndGlyphs" textLength="3.2976">SW1</text>
   <g class="stroked-text">
    <desc>SW1</desc>
    <path d="m15.385 11.507 0.1429 0.0476"/>
    <path d="m15.528 11.555h0.2381"/>
    <path d="m15.766 11.555 0.0952-0.0476"/>
    <path d="m15.862 11.507 0.0476-0.0476"/>
    <path d="m15.909 11.46 0.0476-0.0953"/>
    <path d="m15.957 11.364v-0.0952"/>
    <path d="m15.957 11.269-0.0476-0.0952"/>
    <path d="m15.909 11.174-0.0476-0.0477"/>
    <path d="m15.862 11.126-0.0952-0.0476"/>
    <path d="m15.766 11.079-0.1905-0.0476"/>
    <path d="m15.576 11.031-0.0952-0.0476"/>
    <path d="m15.481 10.983-0.0477-0.0476"/>
    <path d="m15.433 10.936-0.0476-0.0953"/>
    <path d="m15.385 10.84v-0.0952"/>
    <path d="m15.385 10.745 0.0476-0.0952"/>
    <path d="m15.433 10.65 0.0477-0.0477"/>
    <path d="m15.481 10.602 0.0952-0.0476"/>
    <path d="m15.576 10.555h0.2381"/>
    <path d="m15.814 10.555 0.1428 0.0476"/>
    <path d="m16.29 10.555 0.2381 1"/>
    <path d="m16.528 11.555 0.1905-0.7143"/>
    <path d="m16.719 10.84 0.1904 0.7143"/>
    <path d="m16.909 11.555 0.2381-1"/>
    <path d="m18.052 11.555h-0.5714"/>
    <path d="m17.766 11.555v-1"/>
    <path d="m17.766 10.555-0.0953 0.1429"/>
    <path d="m17.671 10.698-0.0952 0.0952"/>
    <path d="m17.576 10.793-0.0952 0.0476"/>
   </g>
   <g transform="rotate(-90 18.719 19.1)">
    <text x="18.7188" y="19.6000" font-size="1.3333" opacity="0" stroke-opacity="0" text-anchor="middle" lengthAdjust="spacingAndGlyphs" textLength="2.9167">ST1</text>
   </g>
   <g class="stroked-text">
    <desc>ST1</desc>
    <path d="m19.126 20.243 0.0477-0.1429"/>
    <path d="m19.174 20.1v-0.2381"/>
    <path d="m19.174 19.862-0.0477-0.0952"/>
    <path d="m19.126 19.767-0.0476-0.0477"/>
    <path d="m19.078 19.719-0.0952-0.0476"/>
    <path d="m18.983 19.671h-0.0952"/>
    <path d="m18.888 19.671-0.0953 0.0476"/>
    <path d="m18.793 19.719-0.0476 0.0477"/>
    <path d="m18.745 19.767-0.0476 0.0952"/>
    <path d="m18.697 19.862-0.0476 0.1905"/>
    <path d="m18.65 20.052-0.0477 0.0952"/>
    <path d="m18.602 20.148-0.0476 0.0476"/>
    <path d="m18.554 20.195-0.0952 0.0477"/>
    <path d="m18.459 20.243h-0.0953"/>
    <path d="m18.364 20.243-0.0952-0.0477"/>
    <path d="m18.269 20.195-0.0476-0.0476"/>
    <path d="m18.221 20.148-0.0476-0.0952"/>
    <path d="m18.174 20.052v-0.2381"/>
    <path d="m18.174 19.814 0.0476-0.1429"/>
    <path d="m18.174 19.386v-0.5714"/>
    <path d="m19.174 19.1h-1"/>
    <path d="m19.174 17.957v0.5715"/>
    <path d="m19.174 18.243h-1"/>
    <path d="m18.174 18.243 0.1428 0.0952"/>
    <path d="m18.316 18.338 0.0953 0.0952"/>
    <path d="m18.412 18.433 0.0476 0.0953"/>
   </g>
  </g>
  <g stroke="#8BE9FD" stroke-width=".12">
   <path d="m9.6188 12v14.2"/>
   <path d="m9.6188 26.2h14.2"/>
   <path d="m23.819 12h-14.2"/>
   <path d="m23.819 26.2v-14.2"/>
  </g>
  <g stroke="#BD93F9" stroke-width=".15">
   <g transform="rotate(-90 23.704 23.227)">
    <text transform="scale(-1 1) translate(-47.408)" x="23.7037" y="23.7270" font-size="1.3333" opacity="0" stroke-opacity="0" text-anchor="middle" lengthAdjust="spacingAndGlyphs" textLength="2.2024">D1</text>
   </g>
   <g class="stroked-text">
    <desc>D1</desc>
    <path d="m24.159 22.489h-1"/>
    <path d="m23.159 22.489v0.2381"/>
    <path d="m23.159 22.727 0.0476 0.1429"/>
    <path d="m23.206 22.87 0.0952 0.0952"/>
    <path d="m23.301 22.965 0.0953 0.0476"/>
    <path d="m23.397 23.013 0.1904 0.0476"/>
    <path d="m23.587 23.06h0.1429"/>
    <path d="m23.73 23.06 0.1905-0.0476"/>
    <path d="m23.92 23.013 0.0952-0.0476"/>
    <path d="m24.016 22.965 0.0952-0.0952"/>
    <path d="m24.111 22.87 0.0477-0.1429"/>
    <path d="m24.159 22.727v-0.2381"/>
    <path d="m24.159 24.013v-0.5714"/>
    <path d="m24.159 23.727h-1"/>
    <path d="m23.159 23.727 0.1428-0.0952"/>
    <path d="m23.301 23.632 0.0953-0.0953"/>
    <path d="m23.397 23.536 0.0476-0.0952"/>
   </g>
  </g>
  <g stroke="#BD93F9" stroke-width=".12">
   <path d="m20.799 25.31v-3.86"/>
   <path d="m22.799 25.31h-2"/>
   <path d="m22.799 25.31v-3.86"/>
  </g>
 </g>
 <g fill="#fff">
  <circle cx="16.719" cy="19.1" r="2"/>
  <circle cx="12.909" cy="16.56" r=".75"/>
  <circle cx="19.259" cy="14.02" r=".75"/>
  <circle cx="23.704" cy="7.162" r="1.524"/>
  <circle cx="8.4938" cy="7.162" r="1.9939"/>
  <circle cx="23.704" cy="31.038" r="1.524"/>
  <circle cx="8.4938" cy="31.038" r="1.9939"/>
 </g>
</svg>
