<?xml version="1.0" encoding="UTF-8"?>
<!DOCTYPE svg  PUBLIC '-//W3C//DTD SVG 1.1//EN'  'http://www.w3.org/Graphics/SVG/1.1/DTD/svg11.dtd'>
<svg width="95.326mm" height="76.276mm" version="1.1" viewBox="0 0 95.326 76.276" xmlns="http://www.w3.org/2000/svg">
 <title>SVG Image created as bamfk1-rev1-render.svg date 2025/09/05 18:24:34</title>
 <desc>Image generated by PCBNEW</desc>
 <rect width="95.326mm" height="76.276mm" fill="#282A36"/>
 <g fill="none" stroke="#8BE9FD" stroke-linecap="round" stroke-linejoin="round" stroke-width=".15">
  <text x="47.6750" y="2.0750" font-size="1.3333" opacity="0" stroke-opacity="0" text-anchor="middle" lengthAdjust="spacingAndGlyphs" textLength="3.2976">SW1</text>
  <g class="stroked-text">
   <desc>SW1</desc>
   <path d="m46.342 1.9822 0.1428 0.0476"/>
   <path d="m46.484 2.0298h0.2381"/>
   <path d="m46.723 2.0298 0.0953-0.0476"/>
   <path d="m46.818 1.9822 0.0476-0.0476"/>
   <path d="m46.866 1.9346 0.0476-0.0953"/>
   <path d="m46.913 1.8393v-0.0952"/>
   <path d="m46.913 1.7441-0.0476-0.0952"/>
   <path d="m46.866 1.6489-0.0476-0.0477"/>
   <path d="m46.818 1.6012-0.0953-0.0476"/>
   <path d="m46.723 1.5536-0.1905-0.0476"/>
   <path d="m46.532 1.506-0.0952-0.0476"/>
   <path d="m46.437 1.4584-0.0476-0.0476"/>
   <path d="m46.389 1.4108-0.0476-0.0953"/>
   <path d="m46.342 1.3155v-0.0952"/>
   <path d="m46.342 1.2203 0.0476-0.0952"/>
   <path d="m46.389 1.1251 0.0476-0.0477"/>
   <path d="m46.437 1.0774 0.0952-0.0476"/>
   <path d="m46.532 1.0298h0.2381"/>
   <path d="m46.77 1.0298 0.1429 0.0476"/>
   <path d="m47.246 1.0298 0.2381 1"/>
   <path d="m47.484 2.0298 0.1905-0.7143"/>
   <path d="m47.675 1.3155 0.1905 0.7143"/>
   <path d="m47.866 2.0298 0.2381-1"/>
   <path d="m49.008 2.0298h-0.5714"/>
   <path d="m48.723 2.0298v-1"/>
   <path d="m48.723 1.0298-0.0952 0.1429"/>
   <path d="m48.627 1.1727-0.0953 0.0952"/>
   <path d="m48.532 1.2679-0.0952 0.0476"/>
  </g>
  <text x="19.1000" y="35.4125" font-size="1.3333" opacity="0" stroke-opacity="0" text-anchor="middle" lengthAdjust="spacingAndGlyphs" textLength="3.2976">SW2</text>
  <g class="stroked-text">
   <desc>SW2</desc>
   <path d="m17.767 35.32 0.1428 0.0476"/>
   <path d="m17.91 35.367h0.2381"/>
   <path d="m18.148 35.367 0.0953-0.0476"/>
   <path d="m18.243 35.32 0.0476-0.0476"/>
   <path d="m18.29 35.272 0.0476-0.0953"/>
   <path d="m18.338 35.177v-0.0952"/>
   <path d="m18.338 35.082-0.0476-0.0952"/>
   <path d="m18.29 34.986-0.0476-0.0477"/>
   <path d="m18.243 34.939-0.0953-0.0476"/>
   <path d="m18.148 34.891-0.1905-0.0476"/>
   <path d="m17.957 34.844-0.0952-0.0476"/>
   <path d="m17.862 34.796-0.0476-0.0476"/>
   <path d="m17.814 34.748-0.0476-0.0953"/>
   <path d="m17.767 34.653v-0.0952"/>
   <path d="m17.767 34.558 0.0476-0.0952"/>
   <path d="m17.814 34.463 0.0476-0.0477"/>
   <path d="m17.862 34.415 0.0952-0.0476"/>
   <path d="m17.957 34.367h0.2381"/>
   <path d="m18.195 34.367 0.1429 0.0476"/>
   <path d="m18.671 34.367 0.2381 1"/>
   <path d="m18.91 35.367 0.1905-0.7143"/>
   <path d="m19.1 34.653 0.1905 0.7143"/>
   <path d="m19.29 35.367 0.2381-1"/>
   <path d="m19.862 34.463 0.0476-0.0477"/>
   <path d="m19.91 34.415 0.0953-0.0476"/>
   <path d="m20.005 34.367h0.2381"/>
   <path d="m20.243 34.367 0.0952 0.0476"/>
   <path d="m20.338 34.415 0.0476 0.0477"/>
   <path d="m20.386 34.463 0.0476 0.0952"/>
   <path d="m20.433 34.558v0.0952"/>
   <path d="m20.433 34.653-0.0476 0.1429"/>
   <path d="m20.386 34.796-0.5714 0.5714"/>
   <path d="m19.814 35.367h0.619"/>
  </g>
  <text x="66.7250" y="59.2250" font-size="1.3333" opacity="0" stroke-opacity="0" text-anchor="middle" lengthAdjust="spacingAndGlyphs" textLength="3.2976">SW6</text>
  <g class="stroked-text">
   <desc>SW6</desc>
   <path d="m65.392 59.132 0.1428 0.0476"/>
   <path d="m65.534 59.18h0.2381"/>
   <path d="m65.773 59.18 0.0953-0.0476"/>
   <path d="m65.868 59.132 0.0476-0.0476"/>
   <path d="m65.916 59.085 0.0476-0.0953"/>
   <path d="m65.963 58.989v-0.0952"/>
   <path d="m65.963 58.894-0.0476-0.0952"/>
   <path d="m65.916 58.799-0.0476-0.0477"/>
   <path d="m65.868 58.751-0.0953-0.0476"/>
   <path d="m65.773 58.704-0.1905-0.0476"/>
   <path d="m65.582 58.656-0.0952-0.0476"/>
   <path d="m65.487 58.608-0.0476-0.0476"/>
   <path d="m65.439 58.561-0.0476-0.0953"/>
   <path d="m65.392 58.466v-0.0952"/>
   <path d="m65.392 58.37 0.0476-0.0952"/>
   <path d="m65.439 58.275 0.0476-0.0477"/>
   <path d="m65.487 58.227 0.0952-0.0476"/>
   <path d="m65.582 58.18h0.2381"/>
   <path d="m65.82 58.18 0.1429 0.0476"/>
   <path d="m66.296 58.18 0.2381 1"/>
   <path d="m66.534 59.18 0.1905-0.7143"/>
   <path d="m66.725 58.466 0.1905 0.7143"/>
   <path d="m66.916 59.18 0.2381-1"/>
   <path d="m67.963 58.18h-0.1905"/>
   <path d="m67.773 58.18-0.0952 0.0476"/>
   <path d="m67.677 58.227-0.0476 0.0477"/>
   <path d="m67.63 58.275-0.0953 0.1428"/>
   <path d="m67.534 58.418-0.0476 0.1905"/>
   <path d="m67.487 58.608v0.3809"/>
   <path d="m67.487 58.989 0.0476 0.0953"/>
   <path d="m67.534 59.085 0.0476 0.0476"/>
   <path d="m67.582 59.132 0.0953 0.0476"/>
   <path d="m67.677 59.18h0.1905"/>
   <path d="m67.868 59.18 0.0952-0.0476"/>
   <path d="m67.963 59.132 0.0476-0.0476"/>
   <path d="m68.011 59.085 0.0476-0.0953"/>
   <path d="m68.058 58.989v-0.2381"/>
   <path d="m68.058 58.751-0.0476-0.0952"/>
   <path d="m68.011 58.656-0.0476-0.0476"/>
   <path d="m67.963 58.608-0.0952-0.0476"/>
   <path d="m67.868 58.561h-0.1905"/>
   <path d="m67.677 58.561-0.0953 0.0476"/>
   <path d="m67.582 58.608-0.0476 0.0476"/>
   <path d="m67.534 58.656-0.0476 0.0952"/>
  </g>
  <text x="28.6250" y="59.2250" font-size="1.3333" opacity="0" stroke-opacity="0" text-anchor="middle" lengthAdjust="spacingAndGlyphs" textLength="3.2976">SW5</text>
  <g class="stroked-text">
   <desc>SW5</desc>
   <path d="m27.292 59.132 0.1428 0.0476"/>
   <path d="m27.434 59.18h0.2381"/>
   <path d="m27.673 59.18 0.0953-0.0476"/>
   <path d="m27.768 59.132 0.0476-0.0476"/>
   <path d="m27.816 59.085 0.0476-0.0953"/>
   <path d="m27.863 58.989v-0.0952"/>
   <path d="m27.863 58.894-0.0476-0.0952"/>
   <path d="m27.816 58.799-0.0476-0.0477"/>
   <path d="m27.768 58.751-0.0953-0.0476"/>
   <path d="m27.673 58.704-0.1905-0.0476"/>
   <path d="m27.482 58.656-0.0952-0.0476"/>
   <path d="m27.387 58.608-0.0476-0.0476"/>
   <path d="m27.339 58.561-0.0476-0.0953"/>
   <path d="m27.292 58.466v-0.0952"/>
   <path d="m27.292 58.37 0.0476-0.0952"/>
   <path d="m27.339 58.275 0.0476-0.0477"/>
   <path d="m27.387 58.227 0.0952-0.0476"/>
   <path d="m27.482 58.18h0.2381"/>
   <path d="m27.72 58.18 0.1429 0.0476"/>
   <path d="m28.196 58.18 0.2381 1"/>
   <path d="m28.434 59.18 0.1905-0.7143"/>
   <path d="m28.625 58.466 0.1905 0.7143"/>
   <path d="m28.816 59.18 0.2381-1"/>
   <path d="m29.911 58.18h-0.4762"/>
   <path d="m29.434 58.18-0.0476 0.4762"/>
   <path d="m29.387 58.656 0.0476-0.0476"/>
   <path d="m29.434 58.608 0.0953-0.0476"/>
   <path d="m29.53 58.561h0.2381"/>
   <path d="m29.768 58.561 0.0952 0.0476"/>
   <path d="m29.863 58.608 0.0476 0.0476"/>
   <path d="m29.911 58.656 0.0476 0.0952"/>
   <path d="m29.958 58.751v0.2381"/>
   <path d="m29.958 58.989-0.0476 0.0953"/>
   <path d="m29.911 59.085-0.0476 0.0476"/>
   <path d="m29.863 59.132-0.0952 0.0476"/>
   <path d="m29.768 59.18h-0.2381"/>
   <path d="m29.53 59.18-0.0953-0.0476"/>
   <path d="m29.434 59.132-0.0476-0.0476"/>
  </g>
  <text x="85.7750" y="59.2250" font-size="1.3333" opacity="0" stroke-opacity="0" text-anchor="middle" lengthAdjust="spacingAndGlyphs" textLength="3.2976">SW7</text>
  <g class="stroked-text">
   <desc>SW7</desc>
   <path d="m84.442 59.132 0.1428 0.0476"/>
   <path d="m84.584 59.18h0.2381"/>
   <path d="m84.823 59.18 0.0953-0.0476"/>
   <path d="m84.918 59.132 0.0476-0.0476"/>
   <path d="m84.966 59.085 0.0476-0.0953"/>
   <path d="m85.013 58.989v-0.0952"/>
   <path d="m85.013 58.894-0.0476-0.0952"/>
   <path d="m84.966 58.799-0.0476-0.0477"/>
   <path d="m84.918 58.751-0.0953-0.0476"/>
   <path d="m84.823 58.704-0.1905-0.0476"/>
   <path d="m84.632 58.656-0.0952-0.0476"/>
   <path d="m84.537 58.608-0.0476-0.0476"/>
   <path d="m84.489 58.561-0.0476-0.0953"/>
   <path d="m84.442 58.466v-0.0952"/>
   <path d="m84.442 58.37 0.0476-0.0952"/>
   <path d="m84.489 58.275 0.0476-0.0477"/>
   <path d="m84.537 58.227 0.0952-0.0476"/>
   <path d="m84.632 58.18h0.2381"/>
   <path d="m84.87 58.18 0.1429 0.0476"/>
   <path d="m85.346 58.18 0.2381 1"/>
   <path d="m85.584 59.18 0.1905-0.7143"/>
   <path d="m85.775 58.466 0.1905 0.7143"/>
   <path d="m85.966 59.18 0.2381-1"/>
   <path d="m86.489 58.18h0.6667"/>
   <path d="m87.156 58.18-0.4286 1"/>
  </g>
  <text x="76.2500" y="35.4125" font-size="1.3333" opacity="0" stroke-opacity="0" text-anchor="middle" lengthAdjust="spacingAndGlyphs" textLength="3.2976">SW3</text>
  <g class="stroked-text">
   <desc>SW3</desc>
   <path d="m74.917 35.32 0.1428 0.0476"/>
   <path d="m75.06 35.367h0.2381"/>
   <path d="m75.298 35.367 0.0953-0.0476"/>
   <path d="m75.393 35.32 0.0476-0.0476"/>
   <path d="m75.44 35.272 0.0476-0.0953"/>
   <path d="m75.488 35.177v-0.0952"/>
   <path d="m75.488 35.082-0.0476-0.0952"/>
   <path d="m75.44 34.986-0.0476-0.0477"/>
   <path d="m75.393 34.939-0.0953-0.0476"/>
   <path d="m75.298 34.891-0.1905-0.0476"/>
   <path d="m75.107 34.844-0.0952-0.0476"/>
   <path d="m75.012 34.796-0.0476-0.0476"/>
   <path d="m74.964 34.748-0.0476-0.0953"/>
   <path d="m74.917 34.653v-0.0952"/>
   <path d="m74.917 34.558 0.0476-0.0952"/>
   <path d="m74.964 34.463 0.0476-0.0477"/>
   <path d="m75.012 34.415 0.0952-0.0476"/>
   <path d="m75.107 34.367h0.2381"/>
   <path d="m75.345 34.367 0.1429 0.0476"/>
   <path d="m75.821 34.367 0.2381 1"/>
   <path d="m76.06 35.367 0.1905-0.7143"/>
   <path d="m76.25 34.653 0.1905 0.7143"/>
   <path d="m76.44 35.367 0.2381-1"/>
   <path d="m76.964 34.367h0.619"/>
   <path d="m77.583 34.367-0.3333 0.381"/>
   <path d="m77.25 34.748h0.1429"/>
   <path d="m77.393 34.748 0.0952 0.0476"/>
   <path d="m77.488 34.796 0.0476 0.0476"/>
   <path d="m77.536 34.844 0.0476 0.0952"/>
   <path d="m77.583 34.939v0.2381"/>
   <path d="m77.583 35.177-0.0476 0.0953"/>
   <path d="m77.536 35.272-0.0476 0.0476"/>
   <path d="m77.488 35.32-0.0952 0.0476"/>
   <path d="m77.393 35.367h-0.2858"/>
   <path d="m77.107 35.367-0.0952-0.0476"/>
   <path d="m77.012 35.32-0.0476-0.0476"/>
  </g>
  <text x="9.5750" y="59.2250" font-size="1.3333" opacity="0" stroke-opacity="0" text-anchor="middle" lengthAdjust="spacingAndGlyphs" textLength="3.2976">SW4</text>
  <g class="stroked-text">
   <desc>SW4</desc>
   <path d="m8.2417 59.132 0.1428 0.0476"/>
   <path d="m8.3845 59.18h0.2381"/>
   <path d="m8.6226 59.18 0.0953-0.0476"/>
   <path d="m8.7179 59.132 0.0476-0.0476"/>
   <path d="m8.7655 59.085 0.0476-0.0953"/>
   <path d="m8.8131 58.989v-0.0952"/>
   <path d="m8.8131 58.894-0.0476-0.0952"/>
   <path d="m8.7655 58.799-0.0476-0.0477"/>
   <path d="m8.7179 58.751-0.0953-0.0476"/>
   <path d="m8.6226 58.704-0.1905-0.0476"/>
   <path d="m8.4321 58.656-0.0952-0.0476"/>
   <path d="m8.3369 58.608-0.0476-0.0476"/>
   <path d="m8.2893 58.561-0.0476-0.0953"/>
   <path d="m8.2417 58.466v-0.0952"/>
   <path d="m8.2417 58.37 0.0476-0.0952"/>
   <path d="m8.2893 58.275 0.0476-0.0477"/>
   <path d="m8.3369 58.227 0.0952-0.0476"/>
   <path d="m8.4321 58.18h0.2381"/>
   <path d="m8.6702 58.18 0.1429 0.0476"/>
   <path d="m9.1464 58.18 0.2381 1"/>
   <path d="m9.3845 59.18 0.1905-0.7143"/>
   <path d="m9.575 58.466 0.1905 0.7143"/>
   <path d="m9.7655 59.18 0.2381-1"/>
   <path d="m10.813 58.513v0.6666"/>
   <path d="m10.575 58.132-0.2381 0.7143"/>
   <path d="m10.337 58.846h0.6191"/>
  </g>
 </g>
 <g fill="none" stroke="#8BE9FD" stroke-linecap="round" stroke-linejoin="round" stroke-width=".12">
  <path d="m40.575 2.475v14.2"/>
  <path d="m40.575 16.675h14.2"/>
  <path d="m54.775 2.475h-14.2"/>
  <path d="m54.775 16.675v-14.2"/>
  <path d="m12 35.812v14.2"/>
  <path d="m12 50.012h14.2"/>
  <path d="m26.2 35.812h-14.2"/>
  <path d="m26.2 50.012v-14.2"/>
  <path d="m59.625 59.625v14.2"/>
  <path d="m59.625 73.825h14.2"/>
  <path d="m73.825 59.625h-14.2"/>
  <path d="m73.825 73.825v-14.2"/>
  <path d="m21.525 59.625v14.2"/>
  <path d="m21.525 73.825h14.2"/>
  <path d="m35.725 59.625h-14.2"/>
  <path d="m35.725 73.825v-14.2"/>
  <path d="m78.675 59.625v14.2"/>
  <path d="m78.675 73.825h14.2"/>
  <path d="m92.875 59.625h-14.2"/>
  <path d="m92.875 73.825v-14.2"/>
  <path d="m69.15 35.812v14.2"/>
  <path d="m69.15 50.012h14.2"/>
  <path d="m83.35 35.812h-14.2"/>
  <path d="m83.35 50.012v-14.2"/>
  <path d="m2.475 59.625v14.2"/>
  <path d="m2.475 73.825h14.2"/>
  <path d="m16.675 59.625h-14.2"/>
  <path d="m16.675 73.825v-14.2"/>
 </g>
 <g fill="#8BE9FD">
  <circle cx="42.595" cy="9.575" r=".875"/>
  <circle cx="47.675" cy="9.575" r="2"/>
  <circle cx="52.755" cy="9.575" r=".875"/>
  <circle cx="43.865" cy="7.035" r=".75"/>
  <circle cx="50.215" cy="4.495" r=".75"/>
  <circle cx="14.02" cy="42.912" r=".875"/>
  <circle cx="19.1" cy="42.912" r="2"/>
  <circle cx="24.18" cy="42.912" r=".875"/>
  <circle cx="15.29" cy="40.372" r=".75"/>
  <circle cx="21.64" cy="37.832" r=".75"/>
  <circle cx="61.645" cy="66.725" r=".875"/>
  <circle cx="66.725" cy="66.725" r="2"/>
  <circle cx="71.805" cy="66.725" r=".875"/>
  <circle cx="62.915" cy="64.185" r=".75"/>
  <circle cx="69.265" cy="61.645" r=".75"/>
  <circle cx="23.545" cy="66.725" r=".875"/>
  <circle cx="28.625" cy="66.725" r="2"/>
  <circle cx="33.705" cy="66.725" r=".875"/>
  <circle cx="24.815" cy="64.185" r=".75"/>
  <circle cx="31.165" cy="61.645" r=".75"/>
  <circle cx="80.695" cy="66.725" r=".875"/>
  <circle cx="85.775" cy="66.725" r="2"/>
  <circle cx="90.855" cy="66.725" r=".875"/>
  <circle cx="81.965" cy="64.185" r=".75"/>
  <circle cx="88.315" cy="61.645" r=".75"/>
  <circle cx="71.17" cy="42.912" r=".875"/>
  <circle cx="76.25" cy="42.912" r="2"/>
  <circle cx="81.33" cy="42.912" r=".875"/>
  <circle cx="72.44" cy="40.372" r=".75"/>
  <circle cx="78.79" cy="37.832" r=".75"/>
  <circle cx="4.495" cy="66.725" r=".875"/>
  <circle cx="9.575" cy="66.725" r="2"/>
  <circle cx="14.655" cy="66.725" r=".875"/>
  <circle cx="5.765" cy="64.185" r=".75"/>
  <circle cx="12.115" cy="61.645" r=".75"/>
 </g>
 <g fill="none" stroke="#BD93F9" stroke-linecap="round" stroke-linejoin="round" stroke-width=".15">
  <g transform="rotate(-90 16.56 70.852)">
   <text transform="scale(-1 1) translate(-33.12)" x="16.5600" y="71.3520" font-size="1.3333" opacity="0" stroke-opacity="0" text-anchor="middle" lengthAdjust="spacingAndGlyphs" textLength="2.2024">D4</text>
  </g>
  <g class="stroked-text">
   <desc>D4</desc>
   <path d="m17.015 70.114h-1"/>
   <path d="m16.015 70.114v0.2381"/>
   <path d="m16.015 70.352 0.0476 0.1429"/>
   <path d="m16.062 70.495 0.0953 0.0952"/>
   <path d="m16.158 70.59 0.0952 0.0476"/>
   <path d="m16.253 70.638 0.1905 0.0476"/>
   <path d="m16.443 70.685h0.1428"/>
   <path d="m16.586 70.685 0.1905-0.0476"/>
   <path d="m16.777 70.638 0.0953-0.0476"/>
   <path d="m16.872 70.59 0.0952-0.0952"/>
   <path d="m16.967 70.495 0.0476-0.1429"/>
   <path d="m17.015 70.352v-0.2381"/>
   <path d="m16.348 71.542h0.6666"/>
   <path d="m15.967 71.304 0.7143-0.2381"/>
   <path d="m16.682 71.066v0.619"/>
  </g>
  <g transform="rotate(-90 73.71 70.852)">
   <text transform="scale(-1 1) translate(-147.42)" x="73.7100" y="71.3520" font-size="1.3333" opacity="0" stroke-opacity="0" text-anchor="middle" lengthAdjust="spacingAndGlyphs" textLength="2.2024">D6</text>
  </g>
  <g class="stroked-text">
   <desc>D6</desc>
   <path d="m74.165 70.114h-1"/>
   <path d="m73.165 70.114v0.2381"/>
   <path d="m73.165 70.352 0.0476 0.1429"/>
   <path d="m73.212 70.495 0.0953 0.0952"/>
   <path d="m73.308 70.59 0.0952 0.0476"/>
   <path d="m73.403 70.638 0.1905 0.0476"/>
   <path d="m73.593 70.685h0.1428"/>
   <path d="m73.736 70.685 0.1905-0.0476"/>
   <path d="m73.927 70.638 0.0953-0.0476"/>
   <path d="m74.022 70.59 0.0952-0.0952"/>
   <path d="m74.117 70.495 0.0476-0.1429"/>
   <path d="m74.165 70.352v-0.2381"/>
   <path d="m73.165 71.542v-0.1905"/>
   <path d="m73.165 71.352 0.0476-0.0952"/>
   <path d="m73.212 71.257 0.0477-0.0477"/>
   <path d="m73.26 71.209 0.1428-0.0952"/>
   <path d="m73.403 71.114 0.1905-0.0476"/>
   <path d="m73.593 71.066h0.3809"/>
   <path d="m73.974 71.066 0.0953 0.0476"/>
   <path d="m74.07 71.114 0.0476 0.0476"/>
   <path d="m74.117 71.162 0.0476 0.0953"/>
   <path d="m74.165 71.257v0.1904"/>
   <path d="m74.165 71.447-0.0476 0.0953"/>
   <path d="m74.117 71.542-0.0476 0.0476"/>
   <path d="m74.07 71.59-0.0953 0.0476"/>
   <path d="m73.974 71.638h-0.2381"/>
   <path d="m73.736 71.638-0.0952-0.0476"/>
   <path d="m73.641 71.59-0.0476-0.0476"/>
   <path d="m73.593 71.542-0.0476-0.0953"/>
   <path d="m73.546 71.447v-0.1904"/>
   <path d="m73.546 71.257 0.0476-0.0953"/>
   <path d="m73.593 71.162 0.0476-0.0476"/>
   <path d="m73.641 71.114 0.0952-0.0476"/>
  </g>
  <g transform="rotate(-90 92.76 70.852)">
   <text transform="scale(-1 1) translate(-185.52)" x="92.7600" y="71.3520" font-size="1.3333" opacity="0" stroke-opacity="0" text-anchor="middle" lengthAdjust="spacingAndGlyphs" textLength="2.2024">D7</text>
  </g>
  <g class="stroked-text">
   <desc>D7</desc>
   <path d="m93.215 70.114h-1"/>
   <path d="m92.215 70.114v0.2381"/>
   <path d="m92.215 70.352 0.0476 0.1429"/>
   <path d="m92.262 70.495 0.0953 0.0952"/>
   <path d="m92.358 70.59 0.0952 0.0476"/>
   <path d="m92.453 70.638 0.1905 0.0476"/>
   <path d="m92.643 70.685h0.1428"/>
   <path d="m92.786 70.685 0.1905-0.0476"/>
   <path d="m92.977 70.638 0.0953-0.0476"/>
   <path d="m93.072 70.59 0.0952-0.0952"/>
   <path d="m93.167 70.495 0.0476-0.1429"/>
   <path d="m93.215 70.352v-0.2381"/>
   <path d="m92.215 71.019v0.6666"/>
   <path d="m92.215 71.685 1-0.4285"/>
  </g>
  <g transform="rotate(-90 54.66 13.702)">
   <text transform="scale(-1 1) translate(-109.32)" x="54.6600" y="14.2020" font-size="1.3333" opacity="0" stroke-opacity="0" text-anchor="middle" lengthAdjust="spacingAndGlyphs" textLength="2.2024">D1</text>
  </g>
  <g class="stroked-text">
   <desc>D1</desc>
   <path d="m55.115 12.964h-1"/>
   <path d="m54.115 12.964v0.2381"/>
   <path d="m54.115 13.202 0.0476 0.1429"/>
   <path d="m54.162 13.345 0.0953 0.0952"/>
   <path d="m54.258 13.44 0.0952 0.0476"/>
   <path d="m54.353 13.488 0.1905 0.0476"/>
   <path d="m54.543 13.535h0.1428"/>
   <path d="m54.686 13.535 0.1905-0.0476"/>
   <path d="m54.877 13.488 0.0953-0.0476"/>
   <path d="m54.972 13.44 0.0952-0.0952"/>
   <path d="m55.067 13.345 0.0476-0.1429"/>
   <path d="m55.115 13.202v-0.2381"/>
   <path d="m55.115 14.488v-0.5714"/>
   <path d="m55.115 14.202h-1"/>
   <path d="m54.115 14.202 0.1429-0.0952"/>
   <path d="m54.258 14.107 0.0952-0.0953"/>
   <path d="m54.353 14.012 0.0476-0.0952"/>
  </g>
  <g transform="rotate(-90 83.235 47.04)">
   <text transform="scale(-1 1) translate(-166.47)" x="83.2350" y="47.5395" font-size="1.3333" opacity="0" stroke-opacity="0" text-anchor="middle" lengthAdjust="spacingAndGlyphs" textLength="2.2024">D3</text>
  </g>
  <g class="stroked-text">
   <desc>D3</desc>
   <path d="m83.69 46.301h-1"/>
   <path d="m82.69 46.301v0.2381"/>
   <path d="m82.69 46.54 0.0476 0.1429"/>
   <path d="m82.737 46.682 0.0953 0.0952"/>
   <path d="m82.833 46.778 0.0952 0.0476"/>
   <path d="m82.928 46.825 0.1905 0.0476"/>
   <path d="m83.118 46.873h0.1428"/>
   <path d="m83.261 46.873 0.1905-0.0476"/>
   <path d="m83.452 46.825 0.0953-0.0476"/>
   <path d="m83.547 46.778 0.0952-0.0952"/>
   <path d="m83.642 46.682 0.0476-0.1429"/>
   <path d="m83.69 46.54v-0.2381"/>
   <path d="m82.69 47.206v0.619"/>
   <path d="m82.69 47.825 0.381-0.3333"/>
   <path d="m83.071 47.492v0.1428"/>
   <path d="m83.071 47.635 0.0476 0.0953"/>
   <path d="m83.118 47.73 0.0476 0.0476"/>
   <path d="m83.166 47.778 0.0952 0.0476"/>
   <path d="m83.261 47.825h0.2381"/>
   <path d="m83.499 47.825 0.0953-0.0476"/>
   <path d="m83.595 47.778 0.0476-0.0476"/>
   <path d="m83.642 47.73 0.0476-0.0953"/>
   <path d="m83.69 47.635v-0.2857"/>
   <path d="m83.69 47.349-0.0476-0.0952"/>
   <path d="m83.642 47.254-0.0476-0.0476"/>
  </g>
  <g transform="rotate(-90 35.61 70.852)">
   <text transform="scale(-1 1) translate(-71.22)" x="35.6100" y="71.3520" font-size="1.3333" opacity="0" stroke-opacity="0" text-anchor="middle" lengthAdjust="spacingAndGlyphs" textLength="2.2024">D5</text>
  </g>
  <g class="stroked-text">
   <desc>D5</desc>
   <path d="m36.065 70.114h-1"/>
   <path d="m35.065 70.114v0.2381"/>
   <path d="m35.065 70.352 0.0476 0.1429"/>
   <path d="m35.112 70.495 0.0953 0.0952"/>
   <path d="m35.208 70.59 0.0952 0.0476"/>
   <path d="m35.303 70.638 0.1905 0.0476"/>
   <path d="m35.493 70.685h0.1428"/>
   <path d="m35.636 70.685 0.1905-0.0476"/>
   <path d="m35.827 70.638 0.0953-0.0476"/>
   <path d="m35.922 70.59 0.0952-0.0952"/>
   <path d="m36.017 70.495 0.0476-0.1429"/>
   <path d="m36.065 70.352v-0.2381"/>
   <path d="m35.065 71.59v-0.4762"/>
   <path d="m35.065 71.114 0.4762-0.0476"/>
   <path d="m35.541 71.066-0.0476 0.0476"/>
   <path d="m35.493 71.114-0.0476 0.0952"/>
   <path d="m35.446 71.209v0.2381"/>
   <path d="m35.446 71.447 0.0476 0.0953"/>
   <path d="m35.493 71.542 0.0476 0.0476"/>
   <path d="m35.541 71.59 0.0952 0.0476"/>
   <path d="m35.636 71.638h0.2381"/>
   <path d="m35.874 71.638 0.0953-0.0476"/>
   <path d="m35.97 71.59 0.0476-0.0476"/>
   <path d="m36.017 71.542 0.0476-0.0953"/>
   <path d="m36.065 71.447v-0.2381"/>
   <path d="m36.065 71.209-0.0476-0.0952"/>
   <path d="m36.017 71.114-0.0476-0.0476"/>
  </g>
  <g transform="rotate(-90 26.085 47.04)">
   <text transform="scale(-1 1) translate(-52.17)" x="26.0850" y="47.5395" font-size="1.3333" opacity="0" stroke-opacity="0" text-anchor="middle" lengthAdjust="spacingAndGlyphs" textLength="2.2024">D2</text>
  </g>
  <g class="stroked-text">
   <desc>D2</desc>
   <path d="m26.54 46.301h-1"/>
   <path d="m25.54 46.301v0.2381"/>
   <path d="m25.54 46.54 0.0476 0.1429"/>
   <path d="m25.587 46.682 0.0953 0.0952"/>
   <path d="m25.683 46.778 0.0952 0.0476"/>
   <path d="m25.778 46.825 0.1905 0.0476"/>
   <path d="m25.968 46.873h0.1428"/>
   <path d="m26.111 46.873 0.1905-0.0476"/>
   <path d="m26.302 46.825 0.0953-0.0476"/>
   <path d="m26.397 46.778 0.0952-0.0952"/>
   <path d="m26.492 46.682 0.0476-0.1429"/>
   <path d="m26.54 46.54v-0.2381"/>
   <path d="m25.635 47.254-0.0477 0.0476"/>
   <path d="m25.587 47.301-0.0476 0.0952"/>
   <path d="m25.54 47.397v0.2381"/>
   <path d="m25.54 47.635 0.0476 0.0953"/>
   <path d="m25.587 47.73 0.0477 0.0476"/>
   <path d="m25.635 47.778 0.0952 0.0476"/>
   <path d="m25.73 47.825h0.0952"/>
   <path d="m25.826 47.825 0.1429-0.0476"/>
   <path d="m25.968 47.778 0.5714-0.5714"/>
   <path d="m26.54 47.206v0.619"/>
  </g>
 </g>
 <g fill="none" stroke="#BD93F9" stroke-linecap="round" stroke-linejoin="round" stroke-width=".12">
  <path d="m13.655 69.075v3.86"/>
  <path d="m13.655 72.935h2"/>
  <path d="m15.655 69.075v3.86"/>
  <path d="m70.805 69.075v3.86"/>
  <path d="m70.805 72.935h2"/>
  <path d="m72.805 69.075v3.86"/>
  <path d="m89.855 69.075v3.86"/>
  <path d="m89.855 72.935h2"/>
  <path d="m91.855 69.075v3.86"/>
  <path d="m51.755 11.925v3.86"/>
  <path d="m51.755 15.785h2"/>
  <path d="m53.755 11.925v3.86"/>
  <path d="m80.33 45.262v3.86"/>
  <path d="m80.33 49.122h2"/>
  <path d="m82.33 45.262v3.86"/>
  <path d="m32.705 69.075v3.86"/>
  <path d="m32.705 72.935h2"/>
  <path d="m34.705 69.075v3.86"/>
  <path d="m23.18 45.262v3.86"/>
  <path d="m23.18 49.122h2"/>
  <path d="m25.18 45.262v3.86"/>
 </g>
 <g>
  <g fill="#BD93F9">
   <circle cx="42.595" cy="9.575" r=".875"/>
   <circle cx="47.675" cy="9.575" r="2"/>
   <circle cx="52.755" cy="9.575" r=".875"/>
   <circle cx="43.865" cy="7.035" r=".75"/>
   <circle cx="50.215" cy="4.495" r=".75"/>
   <circle cx="14.02" cy="42.912" r=".875"/>
   <circle cx="19.1" cy="42.912" r="2"/>
   <circle cx="24.18" cy="42.912" r=".875"/>
   <circle cx="15.29" cy="40.372" r=".75"/>
   <circle cx="21.64" cy="37.832" r=".75"/>
   <circle cx="61.645" cy="66.725" r=".875"/>
   <circle cx="66.725" cy="66.725" r="2"/>
   <circle cx="71.805" cy="66.725" r=".875"/>
   <circle cx="62.915" cy="64.185" r=".75"/>
   <circle cx="69.265" cy="61.645" r=".75"/>
   <circle cx="23.545" cy="66.725" r=".875"/>
   <circle cx="28.625" cy="66.725" r="2"/>
   <circle cx="33.705" cy="66.725" r=".875"/>
   <circle cx="24.815" cy="64.185" r=".75"/>
   <circle cx="31.165" cy="61.645" r=".75"/>
   <circle cx="80.695" cy="66.725" r=".875"/>
   <circle cx="85.775" cy="66.725" r="2"/>
   <circle cx="90.855" cy="66.725" r=".875"/>
   <circle cx="81.965" cy="64.185" r=".75"/>
   <circle cx="88.315" cy="61.645" r=".75"/>
   <circle cx="71.17" cy="42.912" r=".875"/>
   <circle cx="76.25" cy="42.912" r="2"/>
   <circle cx="81.33" cy="42.912" r=".875"/>
   <circle cx="72.44" cy="40.372" r=".75"/>
   <circle cx="78.79" cy="37.832" r=".75"/>
   <circle cx="4.495" cy="66.725" r=".875"/>
   <circle cx="9.575" cy="66.725" r="2"/>
   <circle cx="14.655" cy="66.725" r=".875"/>
   <circle cx="5.765" cy="64.185" r=".75"/>
   <circle cx="12.115" cy="61.645" r=".75"/>
  </g>
  <g>
   <circle cx="42.595" cy="9.575" r=".875"/>
   <circle cx="47.675" cy="9.575" r="2"/>
   <circle cx="52.755" cy="9.575" r=".875"/>
   <circle cx="43.865" cy="7.035" r=".75"/>
   <circle cx="50.215" cy="4.495" r=".75"/>
   <circle cx="14.02" cy="42.912" r=".875"/>
   <circle cx="19.1" cy="42.912" r="2"/>
   <circle cx="24.18" cy="42.912" r=".875"/>
   <circle cx="15.29" cy="40.372" r=".75"/>
   <circle cx="21.64" cy="37.832" r=".75"/>
   <circle cx="61.645" cy="66.725" r=".875"/>
   <circle cx="66.725" cy="66.725" r="2"/>
   <circle cx="71.805" cy="66.725" r=".875"/>
   <circle cx="62.915" cy="64.185" r=".75"/>
   <circle cx="69.265" cy="61.645" r=".75"/>
   <circle cx="23.545" cy="66.725" r=".875"/>
   <circle cx="28.625" cy="66.725" r="2"/>
   <circle cx="33.705" cy="66.725" r=".875"/>
   <circle cx="24.815" cy="64.185" r=".75"/>
   <circle cx="31.165" cy="61.645" r=".75"/>
   <circle cx="80.695" cy="66.725" r=".875"/>
   <circle cx="85.775" cy="66.725" r="2"/>
   <circle cx="90.855" cy="66.725" r=".875"/>
   <circle cx="81.965" cy="64.185" r=".75"/>
   <circle cx="88.315" cy="61.645" r=".75"/>
   <circle cx="71.17" cy="42.912" r=".875"/>
   <circle cx="76.25" cy="42.912" r="2"/>
   <circle cx="81.33" cy="42.912" r=".875"/>
   <circle cx="72.44" cy="40.372" r=".75"/>
   <circle cx="78.79" cy="37.832" r=".75"/>
   <circle cx="4.495" cy="66.725" r=".875"/>
   <circle cx="9.575" cy="66.725" r="2"/>
   <circle cx="14.655" cy="66.725" r=".875"/>
   <circle cx="5.765" cy="64.185" r=".75"/>
   <circle cx="12.115" cy="61.645" r=".75"/>
  </g>
  <g fill="#f55">
   <circle cx="43.865" cy="7.035" r="1.25"/>
   <circle cx="50.215" cy="4.495" r="1.25"/>
   <circle cx="15.29" cy="40.372" r="1.25"/>
   <circle cx="21.64" cy="37.832" r="1.25"/>
   <circle cx="62.915" cy="64.185" r="1.25"/>
   <circle cx="69.265" cy="61.645" r="1.25"/>
   <circle cx="24.815" cy="64.185" r="1.25"/>
   <circle cx="31.165" cy="61.645" r="1.25"/>
   <circle cx="81.965" cy="64.185" r="1.25"/>
   <circle cx="88.315" cy="61.645" r="1.25"/>
   <circle cx="72.44" cy="40.372" r="1.25"/>
   <circle cx="78.79" cy="37.832" r="1.25"/>
   <circle cx="5.765" cy="64.185" r="1.25"/>
   <circle cx="12.115" cy="61.645" r="1.25"/>
  </g>
 </g>
 <g fill="none" stroke="#f55" stroke-linecap="round" stroke-linejoin="round" stroke-width=".2">
  <path d="m43.865 26.085v-19.05"/>
  <path d="m5.765 64.185 38.1-38.1"/>
  <path d="m72.44 54.66v-14.288"/>
  <path d="m62.915 64.185 9.525-9.525"/>
 </g>
 <g fill="#fff">
  <circle cx="42.595" cy="9.575" r=".875"/>
  <circle cx="47.675" cy="9.575" r="2"/>
  <circle cx="52.755" cy="9.575" r=".875"/>
  <circle cx="43.865" cy="7.035" r=".75"/>
  <circle cx="50.215" cy="4.495" r=".75"/>
  <circle cx="14.02" cy="42.912" r=".875"/>
  <circle cx="19.1" cy="42.912" r="2"/>
  <circle cx="24.18" cy="42.912" r=".875"/>
  <circle cx="15.29" cy="40.372" r=".75"/>
  <circle cx="21.64" cy="37.832" r=".75"/>
  <circle cx="61.645" cy="66.725" r=".875"/>
  <circle cx="66.725" cy="66.725" r="2"/>
  <circle cx="71.805" cy="66.725" r=".875"/>
  <circle cx="62.915" cy="64.185" r=".75"/>
  <circle cx="69.265" cy="61.645" r=".75"/>
  <circle cx="23.545" cy="66.725" r=".875"/>
  <circle cx="28.625" cy="66.725" r="2"/>
  <circle cx="33.705" cy="66.725" r=".875"/>
  <circle cx="24.815" cy="64.185" r=".75"/>
  <circle cx="31.165" cy="61.645" r=".75"/>
  <circle cx="80.695" cy="66.725" r=".875"/>
  <circle cx="85.775" cy="66.725" r="2"/>
  <circle cx="90.855" cy="66.725" r=".875"/>
  <circle cx="81.965" cy="64.185" r=".75"/>
  <circle cx="88.315" cy="61.645" r=".75"/>
  <circle cx="71.17" cy="42.912" r=".875"/>
  <circle cx="76.25" cy="42.912" r="2"/>
  <circle cx="81.33" cy="42.912" r=".875"/>
  <circle cx="72.44" cy="40.372" r=".75"/>
  <circle cx="78.79" cy="37.832" r=".75"/>
  <circle cx="4.495" cy="66.725" r=".875"/>
  <circle cx="9.575" cy="66.725" r="2"/>
  <circle cx="14.655" cy="66.725" r=".875"/>
  <circle cx="5.765" cy="64.185" r=".75"/>
  <circle cx="12.115" cy="61.645" r=".75"/>
 </g>
 <g fill="#50FA7B">
  <circle cx="43.865" cy="7.035" r="1.25"/>
  <circle cx="50.215" cy="4.495" r="1.25"/>
  <circle cx="15.29" cy="40.372" r="1.25"/>
  <circle cx="21.64" cy="37.832" r="1.25"/>
  <circle cx="62.915" cy="64.185" r="1.25"/>
  <circle cx="69.265" cy="61.645" r="1.25"/>
  <circle cx="24.815" cy="64.185" r="1.25"/>
  <circle cx="31.165" cy="61.645" r="1.25"/>
  <circle cx="81.965" cy="64.185" r="1.25"/>
  <circle cx="88.315" cy="61.645" r="1.25"/>
  <circle cx="72.44" cy="40.372" r="1.25"/>
  <circle cx="78.79" cy="37.832" r="1.25"/>
  <circle cx="5.765" cy="64.185" r="1.25"/>
  <circle cx="12.115" cy="61.645" r="1.25"/>
  <g fill="#50FA7B" fill-rule="evenodd">
   <path d="m14.355 72.675-0.0957-0.019-0.0811-0.0542-0.0542-0.0811-0.019-0.0957v-0.6l0.019-0.0957 0.0542-0.0811 0.0811-0.0542 0.0957-0.019h0.6l0.0957 0.019 0.0811 0.0542 0.0542 0.0811 0.019 0.0957v0.6l-0.019 0.0957-0.0542 0.0811-0.0811 0.0542-0.0957 0.019z"/>
   <path d="m14.355 69.875-0.0957-0.019-0.0811-0.0542-0.0542-0.0811-0.019-0.0957v-0.6l0.019-0.0957 0.0542-0.0811 0.0811-0.0542 0.0957-0.019h0.6l0.0957 0.019 0.0811 0.0542 0.0542 0.0811 0.019 0.0957v0.6l-0.019 0.0957-0.0542 0.0811-0.0811 0.0542-0.0957 0.019z"/>
   <path d="m71.505 72.675-0.0957-0.019-0.0811-0.0542-0.0542-0.0811-0.019-0.0957v-0.6l0.019-0.0957 0.0542-0.0811 0.0811-0.0542 0.0957-0.019h0.6l0.0957 0.019 0.0811 0.0542 0.0542 0.0811 0.019 0.0957v0.6l-0.019 0.0957-0.0542 0.0811-0.0811 0.0542-0.0957 0.019z"/>
   <path d="m71.505 69.875-0.0957-0.019-0.0811-0.0542-0.0542-0.0811-0.019-0.0957v-0.6l0.019-0.0957 0.0542-0.0811 0.0811-0.0542 0.0957-0.019h0.6l0.0957 0.019 0.0811 0.0542 0.0542 0.0811 0.019 0.0957v0.6l-0.019 0.0957-0.0542 0.0811-0.0811 0.0542-0.0957 0.019z"/>
   <path d="m90.555 72.675-0.0957-0.019-0.0811-0.0542-0.0542-0.0811-0.019-0.0957v-0.6l0.019-0.0957 0.0542-0.0811 0.0811-0.0542 0.0957-0.019h0.6l0.0957 0.019 0.0811 0.0542 0.0542 0.0811 0.019 0.0957v0.6l-0.019 0.0957-0.0542 0.0811-0.0811 0.0542-0.0957 0.019z"/>
   <path d="m90.555 69.875-0.0957-0.019-0.0811-0.0542-0.0542-0.0811-0.019-0.0957v-0.6l0.019-0.0957 0.0542-0.0811 0.0811-0.0542 0.0957-0.019h0.6l0.0957 0.019 0.0811 0.0542 0.0542 0.0811 0.019 0.0957v0.6l-0.019 0.0957-0.0542 0.0811-0.0811 0.0542-0.0957 0.019z"/>
   <path d="m52.455 15.525-0.0957-0.019-0.0811-0.0542-0.0542-0.0811-0.019-0.0957v-0.6l0.019-0.0957 0.0542-0.0811 0.0811-0.0542 0.0957-0.019h0.6l0.0957 0.019 0.0811 0.0542 0.0542 0.0811 0.019 0.0957v0.6l-0.019 0.0957-0.0542 0.0811-0.0811 0.0542-0.0957 0.019z"/>
   <path d="m52.455 12.725-0.0957-0.019-0.0811-0.0542-0.0542-0.0811-0.019-0.0957v-0.6l0.019-0.0957 0.0542-0.0811 0.0811-0.0542 0.0957-0.019h0.6l0.0957 0.019 0.0811 0.0542 0.0542 0.0811 0.019 0.0957v0.6l-0.019 0.0957-0.0542 0.0811-0.0811 0.0542-0.0957 0.019z"/>
   <path d="m81.03 48.862-0.0957-0.019-0.0811-0.0542-0.0542-0.0811-0.019-0.0957v-0.6l0.019-0.0957 0.0542-0.0811 0.0811-0.0542 0.0957-0.019h0.6l0.0957 0.019 0.0811 0.0542 0.0542 0.0811 0.019 0.0957v0.6l-0.019 0.0957-0.0542 0.0811-0.0811 0.0542-0.0957 0.019z"/>
   <path d="m81.03 46.062-0.0957-0.019-0.0811-0.0542-0.0542-0.0811-0.019-0.0957v-0.6l0.019-0.0957 0.0542-0.0811 0.0811-0.0542 0.0957-0.019h0.6l0.0957 0.019 0.0811 0.0542 0.0542 0.0811 0.019 0.0957v0.6l-0.019 0.0957-0.0542 0.0811-0.0811 0.0542-0.0957 0.019z"/>
   <path d="m33.405 72.675-0.0957-0.019-0.0811-0.0542-0.0542-0.0811-0.019-0.0957v-0.6l0.019-0.0957 0.0542-0.0811 0.0811-0.0542 0.0957-0.019h0.6l0.0957 0.019 0.0811 0.0542 0.0542 0.0811 0.019 0.0957v0.6l-0.019 0.0957-0.0542 0.0811-0.0811 0.0542-0.0957 0.019z"/>
   <path d="m33.405 69.875-0.0957-0.019-0.0811-0.0542-0.0542-0.0811-0.019-0.0957v-0.6l0.019-0.0957 0.0542-0.0811 0.0811-0.0542 0.0957-0.019h0.6l0.0957 0.019 0.0811 0.0542 0.0542 0.0811 0.019 0.0957v0.6l-0.019 0.0957-0.0542 0.0811-0.0811 0.0542-0.0957 0.019z"/>
   <path d="m23.88 48.862-0.0957-0.019-0.0811-0.0542-0.0542-0.0811-0.019-0.0957v-0.6l0.019-0.0957 0.0542-0.0811 0.0811-0.0542 0.0957-0.019h0.6l0.0957 0.019 0.0811 0.0542 0.0542 0.0811 0.019 0.0957v0.6l-0.019 0.0957-0.0542 0.0811-0.0811 0.0542-0.0957 0.019z"/>
   <path d="m23.88 46.062-0.0957-0.019-0.0811-0.0542-0.0542-0.0811-0.019-0.0957v-0.6l0.019-0.0957 0.0542-0.0811 0.0811-0.0542 0.0957-0.019h0.6l0.0957 0.019 0.0811 0.0542 0.0542 0.0811 0.019 0.0957v0.6l-0.019 0.0957-0.0542 0.0811-0.0811 0.0542-0.0957 0.019z"/>
  </g>
 </g>
 <g fill="none" stroke="#50FA7B" stroke-linecap="round" stroke-linejoin="round" stroke-width=".2">
  <path d="m50.215 9.635 2.54 2.54"/>
  <path d="m50.215 4.495v5.14"/>
  <path d="m21.64 42.972 2.54 2.54"/>
  <path d="m21.64 37.832v5.14"/>
  <path d="m78.79 37.832v5.14"/>
  <path d="m78.79 42.972 2.54 2.54"/>
  <path d="m12.115 66.785 2.54 2.54"/>
  <path d="m12.115 61.645v5.14"/>
  <path d="m31.165 66.785 2.54 2.54"/>
  <path d="m31.165 61.645v5.14"/>
  <path d="m69.265 61.645v5.14"/>
  <path d="m69.265 66.785 2.54 2.54"/>
  <path d="m88.315 61.645v5.14"/>
  <path d="m88.315 66.785 2.54 2.54"/>
  <path d="m24.18 48.312 28.575-28.575"/>
  <path d="m52.755 14.975v4.7625"/>
  <path d="m52.755 19.738v-4.7625"/>
  <path d="m71.805 72.125h19.05"/>
  <path d="m14.655 72.125h19.05"/>
  <path d="m33.705 72.125h38.1"/>
 </g>
 <g fill="#fff">
  <circle cx="42.595" cy="9.575" r=".875"/>
  <circle cx="47.675" cy="9.575" r="2"/>
  <circle cx="52.755" cy="9.575" r=".875"/>
  <circle cx="43.865" cy="7.035" r=".75"/>
  <circle cx="50.215" cy="4.495" r=".75"/>
  <circle cx="14.02" cy="42.912" r=".875"/>
  <circle cx="19.1" cy="42.912" r="2"/>
  <circle cx="24.18" cy="42.912" r=".875"/>
  <circle cx="15.29" cy="40.372" r=".75"/>
  <circle cx="21.64" cy="37.832" r=".75"/>
  <circle cx="61.645" cy="66.725" r=".875"/>
  <circle cx="66.725" cy="66.725" r="2"/>
  <circle cx="71.805" cy="66.725" r=".875"/>
  <circle cx="62.915" cy="64.185" r=".75"/>
  <circle cx="69.265" cy="61.645" r=".75"/>
  <circle cx="23.545" cy="66.725" r=".875"/>
  <circle cx="28.625" cy="66.725" r="2"/>
  <circle cx="33.705" cy="66.725" r=".875"/>
  <circle cx="24.815" cy="64.185" r=".75"/>
  <circle cx="31.165" cy="61.645" r=".75"/>
  <circle cx="80.695" cy="66.725" r=".875"/>
  <circle cx="85.775" cy="66.725" r="2"/>
  <circle cx="90.855" cy="66.725" r=".875"/>
  <circle cx="81.965" cy="64.185" r=".75"/>
  <circle cx="88.315" cy="61.645" r=".75"/>
  <circle cx="71.17" cy="42.912" r=".875"/>
  <circle cx="76.25" cy="42.912" r="2"/>
  <circle cx="81.33" cy="42.912" r=".875"/>
  <circle cx="72.44" cy="40.372" r=".75"/>
  <circle cx="78.79" cy="37.832" r=".75"/>
  <circle cx="4.495" cy="66.725" r=".875"/>
  <circle cx="9.575" cy="66.725" r="2"/>
  <circle cx="14.655" cy="66.725" r=".875"/>
  <circle cx="5.765" cy="64.185" r=".75"/>
  <circle cx="12.115" cy="61.645" r=".75"/>
 </g>
</svg>
