<svg xmlns="http://www.w3.org/2000/svg" xmlns:xlink="http://www.w3.org/1999/xlink" width="216" height="177" viewBox="26 0 216 177"><defs><g id="a"><rect width="104" height="104" fill="none" stroke="#000" stroke-width="2" rx="5"/><rect width="102" height="102" x="1" y="1" fill="#ccc" rx="4"/><rect width="92" height="92" x="6" y="4" fill="#fbfbfb" rx="5"/><text x="7" y="7" dominant-baseline="hanging" font-size="12"><tspan x="7" dy="0em">0,0</tspan></text></g><g id="b"><rect width="52" height="52" fill="none" stroke="#000" stroke-width="2" rx="5"/><rect width="50" height="50" x="1" y="1" fill="#ccc" rx="4"/><rect width="40" height="40" x="6" y="4" fill="#fbfbfb" rx="5"/><text x="7" y="7" dominant-baseline="hanging" font-size="12"><tspan x="7" dy="0em">0,1</tspan></text><text x="26" y="26" dominant-baseline="middle" font-size="12" text-anchor="middle"><tspan x="26" dy="0em">e0</tspan></text></g><g id="c"><rect width="52" height="52" fill="none" stroke="#000" stroke-width="2" rx="5"/><rect width="50" height="50" x="1" y="1" fill="#ccc" rx="4"/><rect width="40" height="40" x="6" y="4" fill="#fbfbfb" rx="5"/><text x="7" y="7" dominant-baseline="hanging" font-size="12"><tspan x="7" dy="0em">0,2</tspan></text><text x="26" y="26" dominant-baseline="middle" font-size="12" text-anchor="middle"><tspan x="26" dy="0em">e1</tspan></text></g></defs><use xlink:href="#a" x="82" y="4"/><use xlink:href="#b" x="30" y="121"/><use xlink:href="#c" x="186" y="121"/></svg>