<?xml version="1.0" encoding="UTF-8"?>
<!DOCTYPE svg  PUBLIC '-//W3C//DTD SVG 1.1//EN'  'http://www.w3.org/Graphics/SVG/1.1/DTD/svg11.dtd'>
<svg width="76.276mm" height="52.476mm" version="1.1" viewBox="0 0 76.276 52.476" xmlns="http://www.w3.org/2000/svg">
 <title>SVG Image created as bamfk1-rev1a-render.svg date 2025/09/05 18:24:46</title>
 <desc>Image generated by PCBNEW</desc>
 <rect width="76.276mm" height="52.476mm" fill="#282A36"/>
 <g fill="none" stroke="#8BE9FD" stroke-linecap="round" stroke-linejoin="round" stroke-width=".15">
  <text x="9.5750" y="35.4125" font-size="1.3333" opacity="0" stroke-opacity="0" text-anchor="middle" lengthAdjust="spacingAndGlyphs" textLength="3.2976">SW2</text>
  <g class="stroked-text">
   <desc>SW2</desc>
   <path d="m8.2417 35.32 0.1428 0.0476"/>
   <path d="m8.3845 35.367h0.2381"/>
   <path d="m8.6226 35.367 0.0953-0.0476"/>
   <path d="m8.7179 35.32 0.0476-0.0476"/>
   <path d="m8.7655 35.272 0.0476-0.0953"/>
   <path d="m8.8131 35.177v-0.0952"/>
   <path d="m8.8131 35.082-0.0476-0.0952"/>
   <path d="m8.7655 34.986-0.0476-0.0477"/>
   <path d="m8.7179 34.939-0.0953-0.0476"/>
   <path d="m8.6226 34.891-0.1905-0.0476"/>
   <path d="m8.4321 34.844-0.0952-0.0476"/>
   <path d="m8.3369 34.796-0.0476-0.0476"/>
   <path d="m8.2893 34.748-0.0476-0.0953"/>
   <path d="m8.2417 34.653v-0.0952"/>
   <path d="m8.2417 34.558 0.0476-0.0952"/>
   <path d="m8.2893 34.463 0.0476-0.0477"/>
   <path d="m8.3369 34.415 0.0952-0.0476"/>
   <path d="m8.4321 34.367h0.2381"/>
   <path d="m8.6702 34.367 0.1429 0.0476"/>
   <path d="m9.1464 34.367 0.2381 1"/>
   <path d="m9.3845 35.367 0.1905-0.7143"/>
   <path d="m9.575 34.653 0.1905 0.7143"/>
   <path d="m9.7655 35.367 0.2381-1"/>
   <path d="m10.337 34.463 0.0476-0.0477"/>
   <path d="m10.384 34.415 0.0953-0.0476"/>
   <path d="m10.48 34.367h0.2381"/>
   <path d="m10.718 34.367 0.0952 0.0476"/>
   <path d="m10.813 34.415 0.0476 0.0477"/>
   <path d="m10.861 34.463 0.0476 0.0952"/>
   <path d="m10.908 34.558v0.0952"/>
   <path d="m10.908 34.653-0.0476 0.1429"/>
   <path d="m10.861 34.796-0.5714 0.5714"/>
   <path d="m10.289 35.367h0.619"/>
  </g>
  <text x="38.1500" y="2.0750" font-size="1.3333" opacity="0" stroke-opacity="0" text-anchor="middle" lengthAdjust="spacingAndGlyphs" textLength="3.2976">SW1</text>
  <g class="stroked-text">
   <desc>SW1</desc>
   <path d="m36.817 1.9822 0.1428 0.0476"/>
   <path d="m36.96 2.0298h0.2381"/>
   <path d="m37.198 2.0298 0.0953-0.0476"/>
   <path d="m37.293 1.9822 0.0476-0.0476"/>
   <path d="m37.34 1.9346 0.0476-0.0953"/>
   <path d="m37.388 1.8393v-0.0952"/>
   <path d="m37.388 1.7441-0.0476-0.0952"/>
   <path d="m37.34 1.6489-0.0476-0.0477"/>
   <path d="m37.293 1.6012-0.0953-0.0476"/>
   <path d="m37.198 1.5536-0.1905-0.0476"/>
   <path d="m37.007 1.506-0.0952-0.0476"/>
   <path d="m36.912 1.4584-0.0476-0.0476"/>
   <path d="m36.864 1.4108-0.0476-0.0953"/>
   <path d="m36.817 1.3155v-0.0952"/>
   <path d="m36.817 1.2203 0.0476-0.0952"/>
   <path d="m36.864 1.1251 0.0476-0.0477"/>
   <path d="m36.912 1.0774 0.0952-0.0476"/>
   <path d="m37.007 1.0298h0.2381"/>
   <path d="m37.245 1.0298 0.1429 0.0476"/>
   <path d="m37.721 1.0298 0.2381 1"/>
   <path d="m37.96 2.0298 0.1905-0.7143"/>
   <path d="m38.15 1.3155 0.1905 0.7143"/>
   <path d="m38.34 2.0298 0.2381-1"/>
   <path d="m39.483 2.0298h-0.5714"/>
   <path d="m39.198 2.0298v-1"/>
   <path d="m39.198 1.0298-0.0952 0.1429"/>
   <path d="m39.102 1.1727-0.0953 0.0952"/>
   <path d="m39.007 1.2679-0.0952 0.0476"/>
  </g>
  <text x="66.7250" y="35.4125" font-size="1.3333" opacity="0" stroke-opacity="0" text-anchor="middle" lengthAdjust="spacingAndGlyphs" textLength="3.2976">SW3</text>
  <g class="stroked-text">
   <desc>SW3</desc>
   <path d="m65.392 35.32 0.1428 0.0476"/>
   <path d="m65.534 35.367h0.2381"/>
   <path d="m65.773 35.367 0.0953-0.0476"/>
   <path d="m65.868 35.32 0.0476-0.0476"/>
   <path d="m65.916 35.272 0.0476-0.0953"/>
   <path d="m65.963 35.177v-0.0952"/>
   <path d="m65.963 35.082-0.0476-0.0952"/>
   <path d="m65.916 34.986-0.0476-0.0477"/>
   <path d="m65.868 34.939-0.0953-0.0476"/>
   <path d="m65.773 34.891-0.1905-0.0476"/>
   <path d="m65.582 34.844-0.0952-0.0476"/>
   <path d="m65.487 34.796-0.0476-0.0476"/>
   <path d="m65.439 34.748-0.0476-0.0953"/>
   <path d="m65.392 34.653v-0.0952"/>
   <path d="m65.392 34.558 0.0476-0.0952"/>
   <path d="m65.439 34.463 0.0476-0.0477"/>
   <path d="m65.487 34.415 0.0952-0.0476"/>
   <path d="m65.582 34.367h0.2381"/>
   <path d="m65.82 34.367 0.1429 0.0476"/>
   <path d="m66.296 34.367 0.2381 1"/>
   <path d="m66.534 35.367 0.1905-0.7143"/>
   <path d="m66.725 34.653 0.1905 0.7143"/>
   <path d="m66.916 35.367 0.2381-1"/>
   <path d="m67.439 34.367h0.619"/>
   <path d="m68.058 34.367-0.3333 0.381"/>
   <path d="m67.725 34.748h0.1429"/>
   <path d="m67.868 34.748 0.0952 0.0476"/>
   <path d="m67.963 34.796 0.0476 0.0476"/>
   <path d="m68.011 34.844 0.0476 0.0952"/>
   <path d="m68.058 34.939v0.2381"/>
   <path d="m68.058 35.177-0.0476 0.0953"/>
   <path d="m68.011 35.272-0.0476 0.0476"/>
   <path d="m67.963 35.32-0.0952 0.0476"/>
   <path d="m67.868 35.367h-0.2858"/>
   <path d="m67.582 35.367-0.0952-0.0476"/>
   <path d="m67.487 35.32-0.0476-0.0476"/>
  </g>
 </g>
 <g fill="none" stroke="#8BE9FD" stroke-linecap="round" stroke-linejoin="round" stroke-width=".12">
  <path d="m2.475 35.812v14.2"/>
  <path d="m2.475 50.012h14.2"/>
  <path d="m16.675 35.812h-14.2"/>
  <path d="m16.675 50.012v-14.2"/>
  <path d="m31.05 2.475v14.2"/>
  <path d="m31.05 16.675h14.2"/>
  <path d="m45.25 2.475h-14.2"/>
  <path d="m45.25 16.675v-14.2"/>
  <path d="m59.625 35.812v14.2"/>
  <path d="m59.625 50.012h14.2"/>
  <path d="m73.825 35.812h-14.2"/>
  <path d="m73.825 50.012v-14.2"/>
 </g>
 <g fill="#8BE9FD">
  <circle cx="4.495" cy="42.912" r=".875"/>
  <circle cx="9.575" cy="42.912" r="2"/>
  <circle cx="14.655" cy="42.912" r=".875"/>
  <circle cx="5.765" cy="40.372" r=".75"/>
  <circle cx="12.115" cy="37.832" r=".75"/>
  <circle cx="33.07" cy="9.575" r=".875"/>
  <circle cx="38.15" cy="9.575" r="2"/>
  <circle cx="43.23" cy="9.575" r=".875"/>
  <circle cx="34.34" cy="7.035" r=".75"/>
  <circle cx="40.69" cy="4.495" r=".75"/>
  <circle cx="61.645" cy="42.912" r=".875"/>
  <circle cx="66.725" cy="42.912" r="2"/>
  <circle cx="71.805" cy="42.912" r=".875"/>
  <circle cx="62.915" cy="40.372" r=".75"/>
  <circle cx="69.265" cy="37.832" r=".75"/>
 </g>
 <g fill="none" stroke="#BD93F9" stroke-linecap="round" stroke-linejoin="round" stroke-width=".15">
  <g transform="rotate(-90 73.71 47.04)">
   <text transform="scale(-1 1) translate(-147.42)" x="73.7100" y="47.5395" font-size="1.3333" opacity="0" stroke-opacity="0" text-anchor="middle" lengthAdjust="spacingAndGlyphs" textLength="2.2024">D3</text>
  </g>
  <g class="stroked-text">
   <desc>D3</desc>
   <path d="m74.165 46.301h-1"/>
   <path d="m73.165 46.301v0.2381"/>
   <path d="m73.165 46.54 0.0476 0.1429"/>
   <path d="m73.212 46.682 0.0953 0.0952"/>
   <path d="m73.308 46.778 0.0952 0.0476"/>
   <path d="m73.403 46.825 0.1905 0.0476"/>
   <path d="m73.593 46.873h0.1428"/>
   <path d="m73.736 46.873 0.1905-0.0476"/>
   <path d="m73.927 46.825 0.0953-0.0476"/>
   <path d="m74.022 46.778 0.0952-0.0952"/>
   <path d="m74.117 46.682 0.0476-0.1429"/>
   <path d="m74.165 46.54v-0.2381"/>
   <path d="m73.165 47.206v0.619"/>
   <path d="m73.165 47.825 0.381-0.3333"/>
   <path d="m73.546 47.492v0.1428"/>
   <path d="m73.546 47.635 0.0476 0.0953"/>
   <path d="m73.593 47.73 0.0476 0.0476"/>
   <path d="m73.641 47.778 0.0952 0.0476"/>
   <path d="m73.736 47.825h0.2381"/>
   <path d="m73.974 47.825 0.0953-0.0476"/>
   <path d="m74.07 47.778 0.0476-0.0476"/>
   <path d="m74.117 47.73 0.0476-0.0953"/>
   <path d="m74.165 47.635v-0.2857"/>
   <path d="m74.165 47.349-0.0476-0.0952"/>
   <path d="m74.117 47.254-0.0476-0.0476"/>
  </g>
  <g transform="rotate(-90 45.135 13.702)">
   <text transform="scale(-1 1) translate(-90.27)" x="45.1350" y="14.2020" font-size="1.3333" opacity="0" stroke-opacity="0" text-anchor="middle" lengthAdjust="spacingAndGlyphs" textLength="2.2024">D1</text>
  </g>
  <g class="stroked-text">
   <desc>D1</desc>
   <path d="m45.59 12.964h-1"/>
   <path d="m44.59 12.964v0.2381"/>
   <path d="m44.59 13.202 0.0476 0.1429"/>
   <path d="m44.637 13.345 0.0953 0.0952"/>
   <path d="m44.733 13.44 0.0952 0.0476"/>
   <path d="m44.828 13.488 0.1905 0.0476"/>
   <path d="m45.018 13.535h0.1428"/>
   <path d="m45.161 13.535 0.1905-0.0476"/>
   <path d="m45.352 13.488 0.0953-0.0476"/>
   <path d="m45.447 13.44 0.0952-0.0952"/>
   <path d="m45.542 13.345 0.0476-0.1429"/>
   <path d="m45.59 13.202v-0.2381"/>
   <path d="m45.59 14.488v-0.5714"/>
   <path d="m45.59 14.202h-1"/>
   <path d="m44.59 14.202 0.1429-0.0952"/>
   <path d="m44.733 14.107 0.0952-0.0953"/>
   <path d="m44.828 14.012 0.0476-0.0952"/>
  </g>
  <g transform="rotate(-90 16.56 47.04)">
   <text transform="scale(-1 1) translate(-33.12)" x="16.5600" y="47.5395" font-size="1.3333" opacity="0" stroke-opacity="0" text-anchor="middle" lengthAdjust="spacingAndGlyphs" textLength="2.2024">D2</text>
  </g>
  <g class="stroked-text">
   <desc>D2</desc>
   <path d="m17.015 46.301h-1"/>
   <path d="m16.015 46.301v0.2381"/>
   <path d="m16.015 46.54 0.0476 0.1429"/>
   <path d="m16.062 46.682 0.0953 0.0952"/>
   <path d="m16.158 46.778 0.0952 0.0476"/>
   <path d="m16.253 46.825 0.1905 0.0476"/>
   <path d="m16.443 46.873h0.1428"/>
   <path d="m16.586 46.873 0.1905-0.0476"/>
   <path d="m16.777 46.825 0.0953-0.0476"/>
   <path d="m16.872 46.778 0.0952-0.0952"/>
   <path d="m16.967 46.682 0.0476-0.1429"/>
   <path d="m17.015 46.54v-0.2381"/>
   <path d="m16.11 47.254-0.0477 0.0476"/>
   <path d="m16.062 47.301-0.0476 0.0952"/>
   <path d="m16.015 47.397v0.2381"/>
   <path d="m16.015 47.635 0.0476 0.0953"/>
   <path d="m16.062 47.73 0.0477 0.0476"/>
   <path d="m16.11 47.778 0.0952 0.0476"/>
   <path d="m16.205 47.825h0.0952"/>
   <path d="m16.3 47.825 0.1429-0.0476"/>
   <path d="m16.443 47.778 0.5714-0.5714"/>
   <path d="m17.015 47.206v0.619"/>
  </g>
 </g>
 <g fill="none" stroke="#BD93F9" stroke-linecap="round" stroke-linejoin="round" stroke-width=".12">
  <path d="m70.805 45.262v3.86"/>
  <path d="m70.805 49.122h2"/>
  <path d="m72.805 45.262v3.86"/>
  <path d="m42.23 11.925v3.86"/>
  <path d="m42.23 15.785h2"/>
  <path d="m44.23 11.925v3.86"/>
  <path d="m13.655 45.262v3.86"/>
  <path d="m13.655 49.122h2"/>
  <path d="m15.655 45.262v3.86"/>
 </g>
 <g>
  <g fill="#BD93F9">
   <circle cx="4.495" cy="42.912" r=".875"/>
   <circle cx="9.575" cy="42.912" r="2"/>
   <circle cx="14.655" cy="42.912" r=".875"/>
   <circle cx="5.765" cy="40.372" r=".75"/>
   <circle cx="12.115" cy="37.832" r=".75"/>
   <circle cx="33.07" cy="9.575" r=".875"/>
   <circle cx="38.15" cy="9.575" r="2"/>
   <circle cx="43.23" cy="9.575" r=".875"/>
   <circle cx="34.34" cy="7.035" r=".75"/>
   <circle cx="40.69" cy="4.495" r=".75"/>
   <circle cx="61.645" cy="42.912" r=".875"/>
   <circle cx="66.725" cy="42.912" r="2"/>
   <circle cx="71.805" cy="42.912" r=".875"/>
   <circle cx="62.915" cy="40.372" r=".75"/>
   <circle cx="69.265" cy="37.832" r=".75"/>
  </g>
  <g>
   <circle cx="4.495" cy="42.912" r=".875"/>
   <circle cx="9.575" cy="42.912" r="2"/>
   <circle cx="14.655" cy="42.912" r=".875"/>
   <circle cx="5.765" cy="40.372" r=".75"/>
   <circle cx="12.115" cy="37.832" r=".75"/>
   <circle cx="33.07" cy="9.575" r=".875"/>
   <circle cx="38.15" cy="9.575" r="2"/>
   <circle cx="43.23" cy="9.575" r=".875"/>
   <circle cx="34.34" cy="7.035" r=".75"/>
   <circle cx="40.69" cy="4.495" r=".75"/>
   <circle cx="61.645" cy="42.912" r=".875"/>
   <circle cx="66.725" cy="42.912" r="2"/>
   <circle cx="71.805" cy="42.912" r=".875"/>
   <circle cx="62.915" cy="40.372" r=".75"/>
   <circle cx="69.265" cy="37.832" r=".75"/>
  </g>
  <g fill="#f55">
   <circle cx="5.765" cy="40.372" r="1.25"/>
   <circle cx="12.115" cy="37.832" r="1.25"/>
   <circle cx="34.34" cy="7.035" r="1.25"/>
   <circle cx="40.69" cy="4.495" r="1.25"/>
   <circle cx="62.915" cy="40.372" r="1.25"/>
   <circle cx="69.265" cy="37.832" r="1.25"/>
  </g>
  <g fill="#fff">
   <circle cx="4.495" cy="42.912" r=".875"/>
   <circle cx="9.575" cy="42.912" r="2"/>
   <circle cx="14.655" cy="42.912" r=".875"/>
   <circle cx="5.765" cy="40.372" r=".75"/>
   <circle cx="12.115" cy="37.832" r=".75"/>
   <circle cx="33.07" cy="9.575" r=".875"/>
   <circle cx="38.15" cy="9.575" r="2"/>
   <circle cx="43.23" cy="9.575" r=".875"/>
   <circle cx="34.34" cy="7.035" r=".75"/>
   <circle cx="40.69" cy="4.495" r=".75"/>
   <circle cx="61.645" cy="42.912" r=".875"/>
   <circle cx="66.725" cy="42.912" r="2"/>
   <circle cx="71.805" cy="42.912" r=".875"/>
   <circle cx="62.915" cy="40.372" r=".75"/>
   <circle cx="69.265" cy="37.832" r=".75"/>
  </g>
  <g fill="#50FA7B">
   <circle cx="5.765" cy="40.372" r="1.25"/>
   <circle cx="12.115" cy="37.832" r="1.25"/>
   <circle cx="34.34" cy="7.035" r="1.25"/>
   <circle cx="40.69" cy="4.495" r="1.25"/>
   <circle cx="62.915" cy="40.372" r="1.25"/>
   <circle cx="69.265" cy="37.832" r="1.25"/>
   <g fill="#50FA7B" fill-rule="evenodd">
    <path d="m71.505 48.862-0.0957-0.019-0.0811-0.0542-0.0542-0.0811-0.019-0.0957v-0.6l0.019-0.0957 0.0542-0.0811 0.0811-0.0542 0.0957-0.019h0.6l0.0957 0.019 0.0811 0.0542 0.0542 0.0811 0.019 0.0957v0.6l-0.019 0.0957-0.0542 0.0811-0.0811 0.0542-0.0957 0.019z"/>
    <path d="m71.505 46.062-0.0957-0.019-0.0811-0.0542-0.0542-0.0811-0.019-0.0957v-0.6l0.019-0.0957 0.0542-0.0811 0.0811-0.0542 0.0957-0.019h0.6l0.0957 0.019 0.0811 0.0542 0.0542 0.0811 0.019 0.0957v0.6l-0.019 0.0957-0.0542 0.0811-0.0811 0.0542-0.0957 0.019z"/>
    <path d="m42.93 15.525-0.0957-0.019-0.0811-0.0542-0.0542-0.0811-0.019-0.0957v-0.6l0.019-0.0957 0.0542-0.0811 0.0811-0.0542 0.0957-0.019h0.6l0.0957 0.019 0.0811 0.0542 0.0542 0.0811 0.019 0.0957v0.6l-0.019 0.0957-0.0542 0.0811-0.0811 0.0542-0.0957 0.019z"/>
    <path d="m42.93 12.725-0.0957-0.019-0.0811-0.0542-0.0542-0.0811-0.019-0.0957v-0.6l0.019-0.0957 0.0542-0.0811 0.0811-0.0542 0.0957-0.019h0.6l0.0957 0.019 0.0811 0.0542 0.0542 0.0811 0.019 0.0957v0.6l-0.019 0.0957-0.0542 0.0811-0.0811 0.0542-0.0957 0.019z"/>
    <path d="m14.355 48.862-0.0957-0.019-0.0811-0.0542-0.0542-0.0811-0.019-0.0957v-0.6l0.019-0.0957 0.0542-0.0811 0.0811-0.0542 0.0957-0.019h0.6l0.0957 0.019 0.0811 0.0542 0.0542 0.0811 0.019 0.0957v0.6l-0.019 0.0957-0.0542 0.0811-0.0811 0.0542-0.0957 0.019z"/>
    <path d="m14.355 46.062-0.0957-0.019-0.0811-0.0542-0.0542-0.0811-0.019-0.0957v-0.6l0.019-0.0957 0.0542-0.0811 0.0811-0.0542 0.0957-0.019h0.6l0.0957 0.019 0.0811 0.0542 0.0542 0.0811 0.019 0.0957v0.6l-0.019 0.0957-0.0542 0.0811-0.0811 0.0542-0.0957 0.019z"/>
   </g>
  </g>
 </g>
 <g fill="none" stroke="#50FA7B" stroke-linecap="round" stroke-linejoin="round" stroke-width=".2">
  <path d="m40.69 4.495v5.14"/>
  <path d="m40.69 9.635 2.54 2.54"/>
  <path d="m12.115 37.832v5.14"/>
  <path d="m12.115 42.972 2.54 2.54"/>
  <path d="m69.265 37.832v5.14"/>
  <path d="m69.265 42.972 2.54 2.54"/>
  <path d="m43.23 19.738v-4.7625"/>
  <path d="m43.23 14.975v4.7625"/>
  <path d="m14.655 48.312 28.575-28.575"/>
 </g>
 <g fill="#fff">
  <circle cx="4.495" cy="42.912" r=".875"/>
  <circle cx="9.575" cy="42.912" r="2"/>
  <circle cx="14.655" cy="42.912" r=".875"/>
  <circle cx="5.765" cy="40.372" r=".75"/>
  <circle cx="12.115" cy="37.832" r=".75"/>
  <circle cx="33.07" cy="9.575" r=".875"/>
  <circle cx="38.15" cy="9.575" r="2"/>
  <circle cx="43.23" cy="9.575" r=".875"/>
  <circle cx="34.34" cy="7.035" r=".75"/>
  <circle cx="40.69" cy="4.495" r=".75"/>
  <circle cx="61.645" cy="42.912" r=".875"/>
  <circle cx="66.725" cy="42.912" r="2"/>
  <circle cx="71.805" cy="42.912" r=".875"/>
  <circle cx="62.915" cy="40.372" r=".75"/>
  <circle cx="69.265" cy="37.832" r=".75"/>
 </g>
</svg>
