<?xml version="1.0" encoding="UTF-8"?>
<svg width="92.74mm" height="74.795mm" version="1.1" viewBox="30 47.605 92.74 74.795" xmlns="http://www.w3.org/2000/svg">
 <title>SVG Image created as bamfk1-rev1-render.svg date 2024/03/28 10:17:21</title>
 <desc>Image generated by PCBNEW</desc>
 <g fill="#282a36">
  <rect x="30" y="47.605" width="92.74" height="74.795"/>
 </g>
 <g fill-opacity="0" stroke-width="0">
  <g fill="#C83434" stroke="#C83434" stroke-linecap="round" stroke-linejoin="round">
   <g fill-opacity="1" stroke-width="0">
    <circle cx="53.34" cy="111.76" r="1.25"/>
    <circle cx="59.69" cy="109.22" r="1.25"/>
    <circle cx="110.49" cy="111.76" r="1.25"/>
    <circle cx="116.84" cy="109.22" r="1.25"/>
    <circle cx="34.29" cy="111.76" r="1.25"/>
    <circle cx="40.64" cy="109.22" r="1.25"/>
    <circle cx="43.815" cy="87.947" r="1.25"/>
    <circle cx="50.165" cy="85.407" r="1.25"/>
    <circle cx="72.39" cy="54.61" r="1.25"/>
    <circle cx="78.74" cy="52.07" r="1.25"/>
    <circle cx="100.96" cy="87.947" r="1.25"/>
    <circle cx="107.32" cy="85.407" r="1.25"/>
    <circle cx="91.44" cy="111.76" r="1.25"/>
    <circle cx="97.79" cy="109.22" r="1.25"/>
   </g>
   <g fill-opacity="0" stroke-width=".25">
    <path d="m72.39 73.66v-19.05"/>
    <path d="m34.29 111.76 38.1-38.1"/>
    <path d="m91.44 111.76 9.525-9.525"/>
    <path d="m100.96 102.24v-14.288"/>
   </g>
  </g>
 </g>
 <g stroke-linecap="round" stroke-linejoin="round">
  <g fill-opacity="0" stroke="#000" stroke-width=".25">
   <g fill="#7FC87F" fill-opacity="1" stroke="#7FC87F" stroke-linecap="round" stroke-linejoin="round" stroke-width="0">
    <circle cx="53.34" cy="111.76" r="1.25"/>
    <circle cx="59.69" cy="109.22" r="1.25"/>
    <circle cx="110.49" cy="111.76" r="1.25"/>
    <circle cx="116.84" cy="109.22" r="1.25"/>
    <circle cx="34.29" cy="111.76" r="1.25"/>
    <circle cx="40.64" cy="109.22" r="1.25"/>
    <circle cx="43.815" cy="87.947" r="1.25"/>
    <circle cx="50.165" cy="85.407" r="1.25"/>
    <circle cx="72.39" cy="54.61" r="1.25"/>
    <circle cx="78.74" cy="52.07" r="1.25"/>
    <circle cx="100.96" cy="87.947" r="1.25"/>
    <circle cx="107.32" cy="85.407" r="1.25"/>
    <circle cx="91.44" cy="111.76" r="1.25"/>
    <circle cx="97.79" cy="109.22" r="1.25"/>
   </g>
  </g>
  <g stroke="#000" stroke-width=".021">
   <g fill="#CE7D2C" stroke="#CE7D2C" stroke-linecap="round" stroke-linejoin="round" stroke-width="0">
    <circle cx="53.34" cy="111.76" r="1.25"/>
    <circle cx="59.69" cy="109.22" r="1.25"/>
    <circle cx="110.49" cy="111.76" r="1.25"/>
    <circle cx="116.84" cy="109.22" r="1.25"/>
    <circle cx="34.29" cy="111.76" r="1.25"/>
    <circle cx="40.64" cy="109.22" r="1.25"/>
    <circle cx="43.815" cy="87.947" r="1.25"/>
    <circle cx="50.165" cy="85.407" r="1.25"/>
    <circle cx="72.39" cy="54.61" r="1.25"/>
    <circle cx="78.74" cy="52.07" r="1.25"/>
    <circle cx="100.96" cy="87.947" r="1.25"/>
    <circle cx="107.32" cy="85.407" r="1.25"/>
    <circle cx="91.44" cy="111.76" r="1.25"/>
    <circle cx="97.79" cy="109.22" r="1.25"/>
   </g>
   <g fill="#4FCBCB" stroke="#4FCBCB" stroke-linecap="round" stroke-linejoin="round" stroke-width="0">
    <circle cx="53.34" cy="111.76" r="1.25"/>
    <circle cx="59.69" cy="109.22" r="1.25"/>
    <circle cx="110.49" cy="111.76" r="1.25"/>
    <circle cx="116.84" cy="109.22" r="1.25"/>
    <circle cx="34.29" cy="111.76" r="1.25"/>
    <circle cx="40.64" cy="109.22" r="1.25"/>
    <circle cx="43.815" cy="87.947" r="1.25"/>
    <circle cx="50.165" cy="85.407" r="1.25"/>
    <circle cx="72.39" cy="54.61" r="1.25"/>
    <circle cx="78.74" cy="52.07" r="1.25"/>
    <circle cx="100.96" cy="87.947" r="1.25"/>
    <circle cx="107.32" cy="85.407" r="1.25"/>
    <circle cx="91.44" cy="111.76" r="1.25"/>
    <circle cx="97.79" cy="109.22" r="1.25"/>
   </g>
   <g fill="#DB628B" stroke="#DB628B" stroke-linecap="round" stroke-linejoin="round" stroke-width="0">
    <circle cx="53.34" cy="111.76" r="1.25"/>
    <circle cx="59.69" cy="109.22" r="1.25"/>
    <circle cx="110.49" cy="111.76" r="1.25"/>
    <circle cx="116.84" cy="109.22" r="1.25"/>
    <circle cx="34.29" cy="111.76" r="1.25"/>
    <circle cx="40.64" cy="109.22" r="1.25"/>
    <circle cx="43.815" cy="87.947" r="1.25"/>
    <circle cx="50.165" cy="85.407" r="1.25"/>
    <circle cx="72.39" cy="54.61" r="1.25"/>
    <circle cx="78.74" cy="52.07" r="1.25"/>
    <circle cx="100.96" cy="87.947" r="1.25"/>
    <circle cx="107.32" cy="85.407" r="1.25"/>
    <circle cx="91.44" cy="111.76" r="1.25"/>
    <circle cx="97.79" cy="109.22" r="1.25"/>
   </g>
   <g fill="#A7A5C6" stroke="#A7A5C6" stroke-linecap="round" stroke-linejoin="round" stroke-width="0">
    <circle cx="53.34" cy="111.76" r="1.25"/>
    <circle cx="59.69" cy="109.22" r="1.25"/>
    <circle cx="110.49" cy="111.76" r="1.25"/>
    <circle cx="116.84" cy="109.22" r="1.25"/>
    <circle cx="34.29" cy="111.76" r="1.25"/>
    <circle cx="40.64" cy="109.22" r="1.25"/>
    <circle cx="43.815" cy="87.947" r="1.25"/>
    <circle cx="50.165" cy="85.407" r="1.25"/>
    <circle cx="72.39" cy="54.61" r="1.25"/>
    <circle cx="78.74" cy="52.07" r="1.25"/>
    <circle cx="100.96" cy="87.947" r="1.25"/>
    <circle cx="107.32" cy="85.407" r="1.25"/>
    <circle cx="91.44" cy="111.76" r="1.25"/>
    <circle cx="97.79" cy="109.22" r="1.25"/>
   </g>
   <g fill="#28CCD9" stroke="#28CCD9" stroke-linecap="round" stroke-linejoin="round" stroke-width="0">
    <circle cx="53.34" cy="111.76" r="1.25"/>
    <circle cx="59.69" cy="109.22" r="1.25"/>
    <circle cx="110.49" cy="111.76" r="1.25"/>
    <circle cx="116.84" cy="109.22" r="1.25"/>
    <circle cx="34.29" cy="111.76" r="1.25"/>
    <circle cx="40.64" cy="109.22" r="1.25"/>
    <circle cx="43.815" cy="87.947" r="1.25"/>
    <circle cx="50.165" cy="85.407" r="1.25"/>
    <circle cx="72.39" cy="54.61" r="1.25"/>
    <circle cx="78.74" cy="52.07" r="1.25"/>
    <circle cx="100.96" cy="87.947" r="1.25"/>
    <circle cx="107.32" cy="85.407" r="1.25"/>
    <circle cx="91.44" cy="111.76" r="1.25"/>
    <circle cx="97.79" cy="109.22" r="1.25"/>
   </g>
   <g fill="#E8B2A7" stroke="#E8B2A7" stroke-linecap="round" stroke-linejoin="round" stroke-width="0">
    <circle cx="53.34" cy="111.76" r="1.25"/>
    <circle cx="59.69" cy="109.22" r="1.25"/>
    <circle cx="110.49" cy="111.76" r="1.25"/>
    <circle cx="116.84" cy="109.22" r="1.25"/>
    <circle cx="34.29" cy="111.76" r="1.25"/>
    <circle cx="40.64" cy="109.22" r="1.25"/>
    <circle cx="43.815" cy="87.947" r="1.25"/>
    <circle cx="50.165" cy="85.407" r="1.25"/>
    <circle cx="72.39" cy="54.61" r="1.25"/>
    <circle cx="78.74" cy="52.07" r="1.25"/>
    <circle cx="100.96" cy="87.947" r="1.25"/>
    <circle cx="107.32" cy="85.407" r="1.25"/>
    <circle cx="91.44" cy="111.76" r="1.25"/>
    <circle cx="97.79" cy="109.22" r="1.25"/>
   </g>
   <g fill="#F2EDA1" stroke="#F2EDA1" stroke-linecap="round" stroke-linejoin="round" stroke-width="0">
    <circle cx="53.34" cy="111.76" r="1.25"/>
    <circle cx="59.69" cy="109.22" r="1.25"/>
    <circle cx="110.49" cy="111.76" r="1.25"/>
    <circle cx="116.84" cy="109.22" r="1.25"/>
    <circle cx="34.29" cy="111.76" r="1.25"/>
    <circle cx="40.64" cy="109.22" r="1.25"/>
    <circle cx="43.815" cy="87.947" r="1.25"/>
    <circle cx="50.165" cy="85.407" r="1.25"/>
    <circle cx="72.39" cy="54.61" r="1.25"/>
    <circle cx="78.74" cy="52.07" r="1.25"/>
    <circle cx="100.96" cy="87.947" r="1.25"/>
    <circle cx="107.32" cy="85.407" r="1.25"/>
    <circle cx="91.44" cy="111.76" r="1.25"/>
    <circle cx="97.79" cy="109.22" r="1.25"/>
   </g>
   <g fill="#8DCB81" stroke="#8DCB81" stroke-linecap="round" stroke-linejoin="round" stroke-width="0">
    <circle cx="53.34" cy="111.76" r="1.25"/>
    <circle cx="59.69" cy="109.22" r="1.25"/>
    <circle cx="110.49" cy="111.76" r="1.25"/>
    <circle cx="116.84" cy="109.22" r="1.25"/>
    <circle cx="34.29" cy="111.76" r="1.25"/>
    <circle cx="40.64" cy="109.22" r="1.25"/>
    <circle cx="43.815" cy="87.947" r="1.25"/>
    <circle cx="50.165" cy="85.407" r="1.25"/>
    <circle cx="72.39" cy="54.61" r="1.25"/>
    <circle cx="78.74" cy="52.07" r="1.25"/>
    <circle cx="100.96" cy="87.947" r="1.25"/>
    <circle cx="107.32" cy="85.407" r="1.25"/>
    <circle cx="91.44" cy="111.76" r="1.25"/>
    <circle cx="97.79" cy="109.22" r="1.25"/>
   </g>
   <g fill="#ED7C33" stroke="#ED7C33" stroke-linecap="round" stroke-linejoin="round" stroke-width="0">
    <circle cx="53.34" cy="111.76" r="1.25"/>
    <circle cx="59.69" cy="109.22" r="1.25"/>
    <circle cx="110.49" cy="111.76" r="1.25"/>
    <circle cx="116.84" cy="109.22" r="1.25"/>
    <circle cx="34.29" cy="111.76" r="1.25"/>
    <circle cx="40.64" cy="109.22" r="1.25"/>
    <circle cx="43.815" cy="87.947" r="1.25"/>
    <circle cx="50.165" cy="85.407" r="1.25"/>
    <circle cx="72.39" cy="54.61" r="1.25"/>
    <circle cx="78.74" cy="52.07" r="1.25"/>
    <circle cx="100.96" cy="87.947" r="1.25"/>
    <circle cx="107.32" cy="85.407" r="1.25"/>
    <circle cx="91.44" cy="111.76" r="1.25"/>
    <circle cx="97.79" cy="109.22" r="1.25"/>
   </g>
   <g fill="#5BC3EB" stroke="#5BC3EB" stroke-linecap="round" stroke-linejoin="round" stroke-width="0">
    <circle cx="53.34" cy="111.76" r="1.25"/>
    <circle cx="59.69" cy="109.22" r="1.25"/>
    <circle cx="110.49" cy="111.76" r="1.25"/>
    <circle cx="116.84" cy="109.22" r="1.25"/>
    <circle cx="34.29" cy="111.76" r="1.25"/>
    <circle cx="40.64" cy="109.22" r="1.25"/>
    <circle cx="43.815" cy="87.947" r="1.25"/>
    <circle cx="50.165" cy="85.407" r="1.25"/>
    <circle cx="72.39" cy="54.61" r="1.25"/>
    <circle cx="78.74" cy="52.07" r="1.25"/>
    <circle cx="100.96" cy="87.947" r="1.25"/>
    <circle cx="107.32" cy="85.407" r="1.25"/>
    <circle cx="91.44" cy="111.76" r="1.25"/>
    <circle cx="97.79" cy="109.22" r="1.25"/>
   </g>
   <g fill="#F76F8E" stroke="#F76F8E" stroke-linecap="round" stroke-linejoin="round" stroke-width="0">
    <circle cx="53.34" cy="111.76" r="1.25"/>
    <circle cx="59.69" cy="109.22" r="1.25"/>
    <circle cx="110.49" cy="111.76" r="1.25"/>
    <circle cx="116.84" cy="109.22" r="1.25"/>
    <circle cx="34.29" cy="111.76" r="1.25"/>
    <circle cx="40.64" cy="109.22" r="1.25"/>
    <circle cx="43.815" cy="87.947" r="1.25"/>
    <circle cx="50.165" cy="85.407" r="1.25"/>
    <circle cx="72.39" cy="54.61" r="1.25"/>
    <circle cx="78.74" cy="52.07" r="1.25"/>
    <circle cx="100.96" cy="87.947" r="1.25"/>
    <circle cx="107.32" cy="85.407" r="1.25"/>
    <circle cx="91.44" cy="111.76" r="1.25"/>
    <circle cx="97.79" cy="109.22" r="1.25"/>
   </g>
   <g fill="#A7A5C6" stroke="#A7A5C6" stroke-linecap="round" stroke-linejoin="round" stroke-width="0">
    <circle cx="53.34" cy="111.76" r="1.25"/>
    <circle cx="59.69" cy="109.22" r="1.25"/>
    <circle cx="110.49" cy="111.76" r="1.25"/>
    <circle cx="116.84" cy="109.22" r="1.25"/>
    <circle cx="34.29" cy="111.76" r="1.25"/>
    <circle cx="40.64" cy="109.22" r="1.25"/>
    <circle cx="43.815" cy="87.947" r="1.25"/>
    <circle cx="50.165" cy="85.407" r="1.25"/>
    <circle cx="72.39" cy="54.61" r="1.25"/>
    <circle cx="78.74" cy="52.07" r="1.25"/>
    <circle cx="100.96" cy="87.947" r="1.25"/>
    <circle cx="107.32" cy="85.407" r="1.25"/>
    <circle cx="91.44" cy="111.76" r="1.25"/>
    <circle cx="97.79" cy="109.22" r="1.25"/>
   </g>
   <g fill="#28CCD9" stroke="#28CCD9" stroke-linecap="round" stroke-linejoin="round" stroke-width="0">
    <circle cx="53.34" cy="111.76" r="1.25"/>
    <circle cx="59.69" cy="109.22" r="1.25"/>
    <circle cx="110.49" cy="111.76" r="1.25"/>
    <circle cx="116.84" cy="109.22" r="1.25"/>
    <circle cx="34.29" cy="111.76" r="1.25"/>
    <circle cx="40.64" cy="109.22" r="1.25"/>
    <circle cx="43.815" cy="87.947" r="1.25"/>
    <circle cx="50.165" cy="85.407" r="1.25"/>
    <circle cx="72.39" cy="54.61" r="1.25"/>
    <circle cx="78.74" cy="52.07" r="1.25"/>
    <circle cx="100.96" cy="87.947" r="1.25"/>
    <circle cx="107.32" cy="85.407" r="1.25"/>
    <circle cx="91.44" cy="111.76" r="1.25"/>
    <circle cx="97.79" cy="109.22" r="1.25"/>
   </g>
   <g fill="#E8B2A7" stroke="#E8B2A7" stroke-linecap="round" stroke-linejoin="round" stroke-width="0">
    <circle cx="53.34" cy="111.76" r="1.25"/>
    <circle cx="59.69" cy="109.22" r="1.25"/>
    <circle cx="110.49" cy="111.76" r="1.25"/>
    <circle cx="116.84" cy="109.22" r="1.25"/>
    <circle cx="34.29" cy="111.76" r="1.25"/>
    <circle cx="40.64" cy="109.22" r="1.25"/>
    <circle cx="43.815" cy="87.947" r="1.25"/>
    <circle cx="50.165" cy="85.407" r="1.25"/>
    <circle cx="72.39" cy="54.61" r="1.25"/>
    <circle cx="78.74" cy="52.07" r="1.25"/>
    <circle cx="100.96" cy="87.947" r="1.25"/>
    <circle cx="107.32" cy="85.407" r="1.25"/>
    <circle cx="91.44" cy="111.76" r="1.25"/>
    <circle cx="97.79" cy="109.22" r="1.25"/>
   </g>
   <g fill="#F2EDA1" stroke="#F2EDA1" stroke-linecap="round" stroke-linejoin="round" stroke-width="0">
    <circle cx="53.34" cy="111.76" r="1.25"/>
    <circle cx="59.69" cy="109.22" r="1.25"/>
    <circle cx="110.49" cy="111.76" r="1.25"/>
    <circle cx="116.84" cy="109.22" r="1.25"/>
    <circle cx="34.29" cy="111.76" r="1.25"/>
    <circle cx="40.64" cy="109.22" r="1.25"/>
    <circle cx="43.815" cy="87.947" r="1.25"/>
    <circle cx="50.165" cy="85.407" r="1.25"/>
    <circle cx="72.39" cy="54.61" r="1.25"/>
    <circle cx="78.74" cy="52.07" r="1.25"/>
    <circle cx="100.96" cy="87.947" r="1.25"/>
    <circle cx="107.32" cy="85.407" r="1.25"/>
    <circle cx="91.44" cy="111.76" r="1.25"/>
    <circle cx="97.79" cy="109.22" r="1.25"/>
   </g>
   <g fill="#ED7C33" stroke="#ED7C33" stroke-linecap="round" stroke-linejoin="round" stroke-width="0">
    <circle cx="53.34" cy="111.76" r="1.25"/>
    <circle cx="59.69" cy="109.22" r="1.25"/>
    <circle cx="110.49" cy="111.76" r="1.25"/>
    <circle cx="116.84" cy="109.22" r="1.25"/>
    <circle cx="34.29" cy="111.76" r="1.25"/>
    <circle cx="40.64" cy="109.22" r="1.25"/>
    <circle cx="43.815" cy="87.947" r="1.25"/>
    <circle cx="50.165" cy="85.407" r="1.25"/>
    <circle cx="72.39" cy="54.61" r="1.25"/>
    <circle cx="78.74" cy="52.07" r="1.25"/>
    <circle cx="100.96" cy="87.947" r="1.25"/>
    <circle cx="107.32" cy="85.407" r="1.25"/>
    <circle cx="91.44" cy="111.76" r="1.25"/>
    <circle cx="97.79" cy="109.22" r="1.25"/>
   </g>
   <g fill="#5BC3EB" stroke="#5BC3EB" stroke-linecap="round" stroke-linejoin="round" stroke-width="0">
    <circle cx="53.34" cy="111.76" r="1.25"/>
    <circle cx="59.69" cy="109.22" r="1.25"/>
    <circle cx="110.49" cy="111.76" r="1.25"/>
    <circle cx="116.84" cy="109.22" r="1.25"/>
    <circle cx="34.29" cy="111.76" r="1.25"/>
    <circle cx="40.64" cy="109.22" r="1.25"/>
    <circle cx="43.815" cy="87.947" r="1.25"/>
    <circle cx="50.165" cy="85.407" r="1.25"/>
    <circle cx="72.39" cy="54.61" r="1.25"/>
    <circle cx="78.74" cy="52.07" r="1.25"/>
    <circle cx="100.96" cy="87.947" r="1.25"/>
    <circle cx="107.32" cy="85.407" r="1.25"/>
    <circle cx="91.44" cy="111.76" r="1.25"/>
    <circle cx="97.79" cy="109.22" r="1.25"/>
   </g>
   <g fill="#F76F8E" stroke="#F76F8E" stroke-linecap="round" stroke-linejoin="round" stroke-width="0">
    <circle cx="53.34" cy="111.76" r="1.25"/>
    <circle cx="59.69" cy="109.22" r="1.25"/>
    <circle cx="110.49" cy="111.76" r="1.25"/>
    <circle cx="116.84" cy="109.22" r="1.25"/>
    <circle cx="34.29" cy="111.76" r="1.25"/>
    <circle cx="40.64" cy="109.22" r="1.25"/>
    <circle cx="43.815" cy="87.947" r="1.25"/>
    <circle cx="50.165" cy="85.407" r="1.25"/>
    <circle cx="72.39" cy="54.61" r="1.25"/>
    <circle cx="78.74" cy="52.07" r="1.25"/>
    <circle cx="100.96" cy="87.947" r="1.25"/>
    <circle cx="107.32" cy="85.407" r="1.25"/>
    <circle cx="91.44" cy="111.76" r="1.25"/>
    <circle cx="97.79" cy="109.22" r="1.25"/>
   </g>
   <g fill="#A7A5C6" stroke="#A7A5C6" stroke-linecap="round" stroke-linejoin="round" stroke-width="0">
    <circle cx="53.34" cy="111.76" r="1.25"/>
    <circle cx="59.69" cy="109.22" r="1.25"/>
    <circle cx="110.49" cy="111.76" r="1.25"/>
    <circle cx="116.84" cy="109.22" r="1.25"/>
    <circle cx="34.29" cy="111.76" r="1.25"/>
    <circle cx="40.64" cy="109.22" r="1.25"/>
    <circle cx="43.815" cy="87.947" r="1.25"/>
    <circle cx="50.165" cy="85.407" r="1.25"/>
    <circle cx="72.39" cy="54.61" r="1.25"/>
    <circle cx="78.74" cy="52.07" r="1.25"/>
    <circle cx="100.96" cy="87.947" r="1.25"/>
    <circle cx="107.32" cy="85.407" r="1.25"/>
    <circle cx="91.44" cy="111.76" r="1.25"/>
    <circle cx="97.79" cy="109.22" r="1.25"/>
   </g>
   <g fill="#28CCD9" stroke="#28CCD9" stroke-linecap="round" stroke-linejoin="round" stroke-width="0">
    <circle cx="53.34" cy="111.76" r="1.25"/>
    <circle cx="59.69" cy="109.22" r="1.25"/>
    <circle cx="110.49" cy="111.76" r="1.25"/>
    <circle cx="116.84" cy="109.22" r="1.25"/>
    <circle cx="34.29" cy="111.76" r="1.25"/>
    <circle cx="40.64" cy="109.22" r="1.25"/>
    <circle cx="43.815" cy="87.947" r="1.25"/>
    <circle cx="50.165" cy="85.407" r="1.25"/>
    <circle cx="72.39" cy="54.61" r="1.25"/>
    <circle cx="78.74" cy="52.07" r="1.25"/>
    <circle cx="100.96" cy="87.947" r="1.25"/>
    <circle cx="107.32" cy="85.407" r="1.25"/>
    <circle cx="91.44" cy="111.76" r="1.25"/>
    <circle cx="97.79" cy="109.22" r="1.25"/>
   </g>
   <g fill="#E8B2A7" stroke="#E8B2A7" stroke-linecap="round" stroke-linejoin="round" stroke-width="0">
    <circle cx="53.34" cy="111.76" r="1.25"/>
    <circle cx="59.69" cy="109.22" r="1.25"/>
    <circle cx="110.49" cy="111.76" r="1.25"/>
    <circle cx="116.84" cy="109.22" r="1.25"/>
    <circle cx="34.29" cy="111.76" r="1.25"/>
    <circle cx="40.64" cy="109.22" r="1.25"/>
    <circle cx="43.815" cy="87.947" r="1.25"/>
    <circle cx="50.165" cy="85.407" r="1.25"/>
    <circle cx="72.39" cy="54.61" r="1.25"/>
    <circle cx="78.74" cy="52.07" r="1.25"/>
    <circle cx="100.96" cy="87.947" r="1.25"/>
    <circle cx="107.32" cy="85.407" r="1.25"/>
    <circle cx="91.44" cy="111.76" r="1.25"/>
    <circle cx="97.79" cy="109.22" r="1.25"/>
   </g>
   <g fill="#F2EDA1" stroke="#F2EDA1" stroke-linecap="round" stroke-linejoin="round" stroke-width="0">
    <circle cx="53.34" cy="111.76" r="1.25"/>
    <circle cx="59.69" cy="109.22" r="1.25"/>
    <circle cx="110.49" cy="111.76" r="1.25"/>
    <circle cx="116.84" cy="109.22" r="1.25"/>
    <circle cx="34.29" cy="111.76" r="1.25"/>
    <circle cx="40.64" cy="109.22" r="1.25"/>
    <circle cx="43.815" cy="87.947" r="1.25"/>
    <circle cx="50.165" cy="85.407" r="1.25"/>
    <circle cx="72.39" cy="54.61" r="1.25"/>
    <circle cx="78.74" cy="52.07" r="1.25"/>
    <circle cx="100.96" cy="87.947" r="1.25"/>
    <circle cx="107.32" cy="85.407" r="1.25"/>
    <circle cx="91.44" cy="111.76" r="1.25"/>
    <circle cx="97.79" cy="109.22" r="1.25"/>
   </g>
   <g fill="#ED7C33" stroke="#ED7C33" stroke-linecap="round" stroke-linejoin="round" stroke-width="0">
    <circle cx="53.34" cy="111.76" r="1.25"/>
    <circle cx="59.69" cy="109.22" r="1.25"/>
    <circle cx="110.49" cy="111.76" r="1.25"/>
    <circle cx="116.84" cy="109.22" r="1.25"/>
    <circle cx="34.29" cy="111.76" r="1.25"/>
    <circle cx="40.64" cy="109.22" r="1.25"/>
    <circle cx="43.815" cy="87.947" r="1.25"/>
    <circle cx="50.165" cy="85.407" r="1.25"/>
    <circle cx="72.39" cy="54.61" r="1.25"/>
    <circle cx="78.74" cy="52.07" r="1.25"/>
    <circle cx="100.96" cy="87.947" r="1.25"/>
    <circle cx="107.32" cy="85.407" r="1.25"/>
    <circle cx="91.44" cy="111.76" r="1.25"/>
    <circle cx="97.79" cy="109.22" r="1.25"/>
   </g>
   <g fill="#5BC3EB" stroke="#5BC3EB" stroke-linecap="round" stroke-linejoin="round" stroke-width="0">
    <circle cx="53.34" cy="111.76" r="1.25"/>
    <circle cx="59.69" cy="109.22" r="1.25"/>
    <circle cx="110.49" cy="111.76" r="1.25"/>
    <circle cx="116.84" cy="109.22" r="1.25"/>
    <circle cx="34.29" cy="111.76" r="1.25"/>
    <circle cx="40.64" cy="109.22" r="1.25"/>
    <circle cx="43.815" cy="87.947" r="1.25"/>
    <circle cx="50.165" cy="85.407" r="1.25"/>
    <circle cx="72.39" cy="54.61" r="1.25"/>
    <circle cx="78.74" cy="52.07" r="1.25"/>
    <circle cx="100.96" cy="87.947" r="1.25"/>
    <circle cx="107.32" cy="85.407" r="1.25"/>
    <circle cx="91.44" cy="111.76" r="1.25"/>
    <circle cx="97.79" cy="109.22" r="1.25"/>
   </g>
   <g fill="#F76F8E" stroke="#F76F8E" stroke-linecap="round" stroke-linejoin="round" stroke-width="0">
    <circle cx="53.34" cy="111.76" r="1.25"/>
    <circle cx="59.69" cy="109.22" r="1.25"/>
    <circle cx="110.49" cy="111.76" r="1.25"/>
    <circle cx="116.84" cy="109.22" r="1.25"/>
    <circle cx="34.29" cy="111.76" r="1.25"/>
    <circle cx="40.64" cy="109.22" r="1.25"/>
    <circle cx="43.815" cy="87.947" r="1.25"/>
    <circle cx="50.165" cy="85.407" r="1.25"/>
    <circle cx="72.39" cy="54.61" r="1.25"/>
    <circle cx="78.74" cy="52.07" r="1.25"/>
    <circle cx="100.96" cy="87.947" r="1.25"/>
    <circle cx="107.32" cy="85.407" r="1.25"/>
    <circle cx="91.44" cy="111.76" r="1.25"/>
    <circle cx="97.79" cy="109.22" r="1.25"/>
   </g>
   <g fill="#A7A5C6" stroke="#A7A5C6" stroke-linecap="round" stroke-linejoin="round" stroke-width="0">
    <circle cx="53.34" cy="111.76" r="1.25"/>
    <circle cx="59.69" cy="109.22" r="1.25"/>
    <circle cx="110.49" cy="111.76" r="1.25"/>
    <circle cx="116.84" cy="109.22" r="1.25"/>
    <circle cx="34.29" cy="111.76" r="1.25"/>
    <circle cx="40.64" cy="109.22" r="1.25"/>
    <circle cx="43.815" cy="87.947" r="1.25"/>
    <circle cx="50.165" cy="85.407" r="1.25"/>
    <circle cx="72.39" cy="54.61" r="1.25"/>
    <circle cx="78.74" cy="52.07" r="1.25"/>
    <circle cx="100.96" cy="87.947" r="1.25"/>
    <circle cx="107.32" cy="85.407" r="1.25"/>
    <circle cx="91.44" cy="111.76" r="1.25"/>
    <circle cx="97.79" cy="109.22" r="1.25"/>
   </g>
   <g fill="#28CCD9" stroke="#28CCD9" stroke-linecap="round" stroke-linejoin="round" stroke-width="0">
    <circle cx="53.34" cy="111.76" r="1.25"/>
    <circle cx="59.69" cy="109.22" r="1.25"/>
    <circle cx="110.49" cy="111.76" r="1.25"/>
    <circle cx="116.84" cy="109.22" r="1.25"/>
    <circle cx="34.29" cy="111.76" r="1.25"/>
    <circle cx="40.64" cy="109.22" r="1.25"/>
    <circle cx="43.815" cy="87.947" r="1.25"/>
    <circle cx="50.165" cy="85.407" r="1.25"/>
    <circle cx="72.39" cy="54.61" r="1.25"/>
    <circle cx="78.74" cy="52.07" r="1.25"/>
    <circle cx="100.96" cy="87.947" r="1.25"/>
    <circle cx="107.32" cy="85.407" r="1.25"/>
    <circle cx="91.44" cy="111.76" r="1.25"/>
    <circle cx="97.79" cy="109.22" r="1.25"/>
   </g>
   <g fill="#E8B2A7" stroke="#E8B2A7" stroke-linecap="round" stroke-linejoin="round" stroke-width="0">
    <circle cx="53.34" cy="111.76" r="1.25"/>
    <circle cx="59.69" cy="109.22" r="1.25"/>
    <circle cx="110.49" cy="111.76" r="1.25"/>
    <circle cx="116.84" cy="109.22" r="1.25"/>
    <circle cx="34.29" cy="111.76" r="1.25"/>
    <circle cx="40.64" cy="109.22" r="1.25"/>
    <circle cx="43.815" cy="87.947" r="1.25"/>
    <circle cx="50.165" cy="85.407" r="1.25"/>
    <circle cx="72.39" cy="54.61" r="1.25"/>
    <circle cx="78.74" cy="52.07" r="1.25"/>
    <circle cx="100.96" cy="87.947" r="1.25"/>
    <circle cx="107.32" cy="85.407" r="1.25"/>
    <circle cx="91.44" cy="111.76" r="1.25"/>
    <circle cx="97.79" cy="109.22" r="1.25"/>
   </g>
   <g fill="#F2EDA1" stroke="#F2EDA1" stroke-linecap="round" stroke-linejoin="round" stroke-width="0">
    <circle cx="53.34" cy="111.76" r="1.25"/>
    <circle cx="59.69" cy="109.22" r="1.25"/>
    <circle cx="110.49" cy="111.76" r="1.25"/>
    <circle cx="116.84" cy="109.22" r="1.25"/>
    <circle cx="34.29" cy="111.76" r="1.25"/>
    <circle cx="40.64" cy="109.22" r="1.25"/>
    <circle cx="43.815" cy="87.947" r="1.25"/>
    <circle cx="50.165" cy="85.407" r="1.25"/>
    <circle cx="72.39" cy="54.61" r="1.25"/>
    <circle cx="78.74" cy="52.07" r="1.25"/>
    <circle cx="100.96" cy="87.947" r="1.25"/>
    <circle cx="107.32" cy="85.407" r="1.25"/>
    <circle cx="91.44" cy="111.76" r="1.25"/>
    <circle cx="97.79" cy="109.22" r="1.25"/>
   </g>
   <g fill="#4D7FC4">
    <g stroke-width="0">
     <g stroke="#4D7FC4" stroke-linecap="round" stroke-linejoin="round">
      <circle cx="53.34" cy="111.76" r="1.25"/>
      <circle cx="59.69" cy="109.22" r="1.25"/>
      <circle cx="110.49" cy="111.76" r="1.25"/>
      <circle cx="116.84" cy="109.22" r="1.25"/>
      <circle cx="34.29" cy="111.76" r="1.25"/>
      <circle cx="40.64" cy="109.22" r="1.25"/>
      <circle cx="43.815" cy="87.947" r="1.25"/>
      <circle cx="50.165" cy="85.407" r="1.25"/>
      <circle cx="72.39" cy="54.61" r="1.25"/>
      <circle cx="78.74" cy="52.07" r="1.25"/>
      <circle cx="100.96" cy="87.947" r="1.25"/>
      <circle cx="107.32" cy="85.407" r="1.25"/>
      <circle cx="91.44" cy="111.76" r="1.25"/>
      <circle cx="97.79" cy="109.22" r="1.25"/>
     </g>
     <g fill-rule="evenodd">
      <path d="m119.08 120.25-0.096-0.019-0.081-0.054-0.054-0.081-0.019-0.096v-0.6l0.019-0.096 0.054-0.081 0.081-0.054 0.096-0.019h0.6l0.096 0.019 0.081 0.054 0.054 0.081 0.019 0.096v0.6l-0.019 0.096-0.054 0.081-0.081 0.054-0.096 0.019z"/>
      <path d="m119.08 117.45-0.096-0.019-0.081-0.054-0.054-0.081-0.019-0.096v-0.6l0.019-0.096 0.054-0.081 0.081-0.054 0.096-0.019h0.6l0.096 0.019 0.081 0.054 0.054 0.081 0.019 0.096v0.6l-0.019 0.096-0.054 0.081-0.081 0.054-0.096 0.019z"/>
      <path d="m109.56 96.438-0.096-0.02-0.081-0.054-0.054-0.081-0.019-0.095v-0.601l0.019-0.095 0.054-0.081 0.081-0.054 0.096-0.02h0.6l0.096 0.02 0.081 0.054 0.054 0.081 0.019 0.095v0.601l-0.019 0.095-0.054 0.081-0.081 0.054-0.096 0.02z"/>
      <path d="m109.56 93.638-0.096-0.02-0.081-0.054-0.054-0.081-0.019-0.095v-0.601l0.019-0.095 0.054-0.081 0.081-0.054 0.096-0.02h0.6l0.096 0.02 0.081 0.054 0.054 0.081 0.019 0.095v0.601l-0.019 0.095-0.054 0.081-0.081 0.054-0.096 0.02z"/>
      <path d="m52.405 96.438-0.096-0.02-0.081-0.054-0.054-0.081-0.019-0.095v-0.601l0.019-0.095 0.054-0.081 0.081-0.054 0.096-0.02h0.6l0.096 0.02 0.081 0.054 0.054 0.081 0.019 0.095v0.601l-0.019 0.095-0.054 0.081-0.081 0.054-0.096 0.02z"/>
      <path d="m52.405 93.638-0.096-0.02-0.081-0.054-0.054-0.081-0.019-0.095v-0.601l0.019-0.095 0.054-0.081 0.081-0.054 0.096-0.02h0.6l0.096 0.02 0.081 0.054 0.054 0.081 0.019 0.095v0.601l-0.019 0.095-0.054 0.081-0.081 0.054-0.096 0.02z"/>
      <path d="m61.93 120.25-0.096-0.019-0.081-0.054-0.054-0.081-0.019-0.096v-0.6l0.019-0.096 0.054-0.081 0.081-0.054 0.096-0.019h0.6l0.096 0.019 0.081 0.054 0.054 0.081 0.019 0.096v0.6l-0.019 0.096-0.054 0.081-0.081 0.054-0.096 0.019z"/>
      <path d="m61.93 117.45-0.096-0.019-0.081-0.054-0.054-0.081-0.019-0.096v-0.6l0.019-0.096 0.054-0.081 0.081-0.054 0.096-0.019h0.6l0.096 0.019 0.081 0.054 0.054 0.081 0.019 0.096v0.6l-0.019 0.096-0.054 0.081-0.081 0.054-0.096 0.019z"/>
      <path d="m100.03 120.25-0.096-0.019-0.081-0.054-0.054-0.081-0.019-0.096v-0.6l0.019-0.096 0.054-0.081 0.081-0.054 0.096-0.019h0.6l0.096 0.019 0.081 0.054 0.054 0.081 0.019 0.096v0.6l-0.019 0.096-0.054 0.081-0.081 0.054-0.096 0.019z"/>
      <path d="m100.03 117.45-0.096-0.019-0.081-0.054-0.054-0.081-0.019-0.096v-0.6l0.019-0.096 0.054-0.081 0.081-0.054 0.096-0.019h0.6l0.096 0.019 0.081 0.054 0.054 0.081 0.019 0.096v0.6l-0.019 0.096-0.054 0.081-0.081 0.054-0.096 0.019z"/>
      <path d="m80.98 63.1-0.096-0.019-0.081-0.054-0.054-0.081-0.019-0.096v-0.6l0.019-0.096 0.054-0.081 0.081-0.054 0.096-0.019h0.6l0.096 0.019 0.081 0.054 0.054 0.081 0.019 0.096v0.6l-0.019 0.096-0.054 0.081-0.081 0.054-0.096 0.019z"/>
      <path d="m80.98 60.3-0.096-0.019-0.081-0.054-0.054-0.081-0.019-0.096v-0.6l0.019-0.096 0.054-0.081 0.081-0.054 0.096-0.019h0.6l0.096 0.019 0.081 0.054 0.054 0.081 0.019 0.096v0.6l-0.019 0.096-0.054 0.081-0.081 0.054-0.096 0.019z"/>
      <path d="m42.88 120.25-0.096-0.019-0.081-0.054-0.054-0.081-0.019-0.096v-0.6l0.019-0.096 0.054-0.081 0.081-0.054 0.096-0.019h0.6l0.096 0.019 0.081 0.054 0.054 0.081 0.019 0.096v0.6l-0.019 0.096-0.054 0.081-0.081 0.054-0.096 0.019z"/>
      <path d="m42.88 117.45-0.096-0.019-0.081-0.054-0.054-0.081-0.019-0.096v-0.6l0.019-0.096 0.054-0.081 0.081-0.054 0.096-0.019h0.6l0.096 0.019 0.081 0.054 0.054 0.081 0.019 0.096v0.6l-0.019 0.096-0.054 0.081-0.081 0.054-0.096 0.019z"/>
     </g>
    </g>
    <g fill-opacity="0" stroke="#4D7FC4" stroke-linecap="round" stroke-linejoin="round" stroke-width=".25">
     <path d="m81.28 67.312v-4.762"/>
     <path d="m52.705 95.887 28.575-28.575"/>
     <path d="m81.28 62.55v4.762"/>
     <path d="m78.74 52.07v5.14"/>
     <path d="m78.74 57.21 2.54 2.54"/>
     <path d="m50.165 90.547 2.54 2.54"/>
     <path d="m50.165 85.407v5.14"/>
     <path d="m107.32 85.407v5.14"/>
     <path d="m107.32 90.547 2.54 2.54"/>
     <path d="m43.18 119.7h19.05"/>
     <path d="m62.23 119.7h38.1"/>
     <path d="m100.33 119.7h19.05"/>
     <path d="m40.64 114.36 2.54 2.54"/>
     <path d="m40.64 109.22v5.14"/>
     <path d="m59.69 109.22v5.14"/>
     <path d="m59.69 114.36 2.54 2.54"/>
     <path d="m97.79 114.36 2.54 2.54"/>
     <path d="m97.79 109.22v5.14"/>
     <path d="m116.84 109.22v5.14"/>
     <path d="m116.84 114.36 2.54 2.54"/>
    </g>
   </g>
  </g>
  <g fill-opacity="0">
   <g stroke="#000" stroke-width=".25">
    <g fill="#00C2C2" fill-opacity=".9" fill-rule="evenodd" stroke-width="0">
     <path d="m119.08 120.25-0.096-0.019-0.081-0.054-0.054-0.081-0.019-0.096v-0.6l0.019-0.096 0.054-0.081 0.081-0.054 0.096-0.019h0.6l0.096 0.019 0.081 0.054 0.054 0.081 0.019 0.096v0.6l-0.019 0.096-0.054 0.081-0.081 0.054-0.096 0.019z"/>
     <path d="m119.08 117.45-0.096-0.019-0.081-0.054-0.054-0.081-0.019-0.096v-0.6l0.019-0.096 0.054-0.081 0.081-0.054 0.096-0.019h0.6l0.096 0.019 0.081 0.054 0.054 0.081 0.019 0.096v0.6l-0.019 0.096-0.054 0.081-0.081 0.054-0.096 0.019z"/>
     <path d="m109.56 96.438-0.096-0.02-0.081-0.054-0.054-0.081-0.019-0.095v-0.601l0.019-0.095 0.054-0.081 0.081-0.054 0.096-0.02h0.6l0.096 0.02 0.081 0.054 0.054 0.081 0.019 0.095v0.601l-0.019 0.095-0.054 0.081-0.081 0.054-0.096 0.02z"/>
     <path d="m109.56 93.638-0.096-0.02-0.081-0.054-0.054-0.081-0.019-0.095v-0.601l0.019-0.095 0.054-0.081 0.081-0.054 0.096-0.02h0.6l0.096 0.02 0.081 0.054 0.054 0.081 0.019 0.095v0.601l-0.019 0.095-0.054 0.081-0.081 0.054-0.096 0.02z"/>
     <path d="m52.405 96.438-0.096-0.02-0.081-0.054-0.054-0.081-0.019-0.095v-0.601l0.019-0.095 0.054-0.081 0.081-0.054 0.096-0.02h0.6l0.096 0.02 0.081 0.054 0.054 0.081 0.019 0.095v0.601l-0.019 0.095-0.054 0.081-0.081 0.054-0.096 0.02z"/>
     <path d="m52.405 93.638-0.096-0.02-0.081-0.054-0.054-0.081-0.019-0.095v-0.601l0.019-0.095 0.054-0.081 0.081-0.054 0.096-0.02h0.6l0.096 0.02 0.081 0.054 0.054 0.081 0.019 0.095v0.601l-0.019 0.095-0.054 0.081-0.081 0.054-0.096 0.02z"/>
     <path d="m61.93 120.25-0.096-0.019-0.081-0.054-0.054-0.081-0.019-0.096v-0.6l0.019-0.096 0.054-0.081 0.081-0.054 0.096-0.019h0.6l0.096 0.019 0.081 0.054 0.054 0.081 0.019 0.096v0.6l-0.019 0.096-0.054 0.081-0.081 0.054-0.096 0.019z"/>
     <path d="m61.93 117.45-0.096-0.019-0.081-0.054-0.054-0.081-0.019-0.096v-0.6l0.019-0.096 0.054-0.081 0.081-0.054 0.096-0.019h0.6l0.096 0.019 0.081 0.054 0.054 0.081 0.019 0.096v0.6l-0.019 0.096-0.054 0.081-0.081 0.054-0.096 0.019z"/>
     <path d="m100.03 120.25-0.096-0.019-0.081-0.054-0.054-0.081-0.019-0.096v-0.6l0.019-0.096 0.054-0.081 0.081-0.054 0.096-0.019h0.6l0.096 0.019 0.081 0.054 0.054 0.081 0.019 0.096v0.6l-0.019 0.096-0.054 0.081-0.081 0.054-0.096 0.019z"/>
     <path d="m100.03 117.45-0.096-0.019-0.081-0.054-0.054-0.081-0.019-0.096v-0.6l0.019-0.096 0.054-0.081 0.081-0.054 0.096-0.019h0.6l0.096 0.019 0.081 0.054 0.054 0.081 0.019 0.096v0.6l-0.019 0.096-0.054 0.081-0.081 0.054-0.096 0.019z"/>
     <path d="m80.98 63.1-0.096-0.019-0.081-0.054-0.054-0.081-0.019-0.096v-0.6l0.019-0.096 0.054-0.081 0.081-0.054 0.096-0.019h0.6l0.096 0.019 0.081 0.054 0.054 0.081 0.019 0.096v0.6l-0.019 0.096-0.054 0.081-0.081 0.054-0.096 0.019z"/>
     <path d="m80.98 60.3-0.096-0.019-0.081-0.054-0.054-0.081-0.019-0.096v-0.6l0.019-0.096 0.054-0.081 0.081-0.054 0.096-0.019h0.6l0.096 0.019 0.081 0.054 0.054 0.081 0.019 0.096v0.6l-0.019 0.096-0.054 0.081-0.081 0.054-0.096 0.019z"/>
     <path d="m42.88 120.25-0.096-0.019-0.081-0.054-0.054-0.081-0.019-0.096v-0.6l0.019-0.096 0.054-0.081 0.081-0.054 0.096-0.019h0.6l0.096 0.019 0.081 0.054 0.054 0.081 0.019 0.096v0.6l-0.019 0.096-0.054 0.081-0.081 0.054-0.096 0.019z"/>
     <path d="m42.88 117.45-0.096-0.019-0.081-0.054-0.054-0.081-0.019-0.096v-0.6l0.019-0.096 0.054-0.081 0.081-0.054 0.096-0.019h0.6l0.096 0.019 0.081 0.054 0.054 0.081 0.019 0.096v0.6l-0.019 0.096-0.054 0.081-0.081 0.054-0.096 0.019z"/>
    </g>
   </g>
   <g fill="#E8B2A7" stroke="#E8B2A7" stroke-width=".15">
    <g transform="rotate(-90 121.28 118.43)">
     <text transform="scale(-1 1) translate(-242.57)" x="121.285" y="118.927" font-size="1.333" opacity="0" text-anchor="middle" lengthAdjust="spacingAndGlyphs" textLength="2.202">D7</text>
    </g>
    <g class="stroked-text">
     <desc>D7</desc>
     <path d="m121.74 117.69h-1"/>
     <path d="m120.74 117.69v0.238"/>
     <path d="m120.74 117.93 0.047 0.143"/>
     <path d="m120.79 118.07 0.096 0.095"/>
     <path d="m120.88 118.16 0.095 0.048"/>
     <path d="m120.98 118.21 0.19 0.047"/>
     <path d="m121.17 118.26h0.143"/>
     <path d="m121.31 118.26 0.191-0.047"/>
     <path d="m121.5 118.21 0.095-0.048"/>
     <path d="m121.6 118.16 0.095-0.095"/>
     <path d="m121.69 118.07 0.048-0.143"/>
     <path d="m121.74 117.93v-0.238"/>
     <path d="m120.74 118.59v0.666"/>
     <path d="m120.74 119.26 1-0.428"/>
    </g>
    <g transform="rotate(-90 111.76 94.614)">
     <text transform="scale(-1 1) translate(-223.52)" x="111.760" y="95.114" font-size="1.333" opacity="0" text-anchor="middle" lengthAdjust="spacingAndGlyphs" textLength="2.202">D3</text>
    </g>
    <g class="stroked-text">
     <desc>D3</desc>
     <path d="m112.22 93.876h-1"/>
     <path d="m111.22 93.876v0.238"/>
     <path d="m111.22 94.114 0.047 0.143"/>
     <path d="m111.26 94.257 0.096 0.096"/>
     <path d="m111.36 94.353 0.095 0.047"/>
     <path d="m111.45 94.4 0.19 0.048"/>
     <path d="m111.64 94.448h0.143"/>
     <path d="m111.79 94.448 0.191-0.048"/>
     <path d="m111.98 94.4 0.095-0.047"/>
     <path d="m112.07 94.353 0.095-0.096"/>
     <path d="m112.17 94.257 0.048-0.143"/>
     <path d="m112.22 94.114v-0.238"/>
     <path d="m111.22 94.781v0.619"/>
     <path d="m111.22 95.4 0.381-0.333"/>
     <path d="m111.6 95.067v0.143"/>
     <path d="m111.6 95.21 0.047 0.095"/>
     <path d="m111.64 95.305 0.048 0.048"/>
     <path d="m111.69 95.353 0.095 0.047"/>
     <path d="m111.79 95.4h0.238"/>
     <path d="m112.02 95.4 0.096-0.047"/>
     <path d="m112.12 95.353 0.047-0.048"/>
     <path d="m112.17 95.305 0.048-0.095"/>
     <path d="m112.22 95.21v-0.286"/>
     <path d="m112.22 94.924-0.048-0.095"/>
     <path d="m112.17 94.829-0.047-0.048"/>
    </g>
    <g transform="rotate(-90 54.61 94.614)">
     <text transform="scale(-1 1) translate(-109.22)" x="54.610" y="95.114" font-size="1.333" opacity="0" text-anchor="middle" lengthAdjust="spacingAndGlyphs" textLength="2.202">D2</text>
    </g>
    <g class="stroked-text">
     <desc>D2</desc>
     <path d="m55.065 93.876h-1"/>
     <path d="m54.065 93.876v0.238"/>
     <path d="m54.065 94.114 0.047 0.143"/>
     <path d="m54.112 94.257 0.096 0.096"/>
     <path d="m54.208 94.353 0.095 0.047"/>
     <path d="m54.303 94.4 0.19 0.048"/>
     <path d="m54.493 94.448h0.143"/>
     <path d="m54.636 94.448 0.191-0.048"/>
     <path d="m54.827 94.4 0.095-0.047"/>
     <path d="m54.922 94.353 0.095-0.096"/>
     <path d="m55.017 94.257 0.048-0.143"/>
     <path d="m55.065 94.114v-0.238"/>
     <path d="m54.16 94.829-0.048 0.047"/>
     <path d="m54.112 94.876-0.047 0.096"/>
     <path d="m54.065 94.972v0.238"/>
     <path d="m54.065 95.21 0.047 0.095"/>
     <path d="m54.112 95.305 0.048 0.048"/>
     <path d="m54.16 95.353 0.095 0.047"/>
     <path d="m54.255 95.4h0.096"/>
     <path d="m54.351 95.4 0.142-0.047"/>
     <path d="m54.493 95.353 0.572-0.572"/>
     <path d="m55.065 94.781v0.619"/>
    </g>
    <g transform="rotate(-90 64.135 118.43)">
     <text transform="scale(-1 1) translate(-128.27)" x="64.135" y="118.927" font-size="1.333" opacity="0" text-anchor="middle" lengthAdjust="spacingAndGlyphs" textLength="2.202">D5</text>
    </g>
    <g class="stroked-text">
     <desc>D5</desc>
     <path d="m64.59 117.69h-1"/>
     <path d="m63.59 117.69v0.238"/>
     <path d="m63.59 117.93 0.047 0.143"/>
     <path d="m63.637 118.07 0.096 0.095"/>
     <path d="m63.733 118.16 0.095 0.048"/>
     <path d="m63.828 118.21 0.19 0.047"/>
     <path d="m64.018 118.26h0.143"/>
     <path d="m64.161 118.26 0.191-0.047"/>
     <path d="m64.352 118.21 0.095-0.048"/>
     <path d="m64.447 118.16 0.095-0.095"/>
     <path d="m64.542 118.07 0.048-0.143"/>
     <path d="m64.59 117.93v-0.238"/>
     <path d="m63.59 119.16v-0.476"/>
     <path d="m63.59 118.69 0.476-0.048"/>
     <path d="m64.066 118.64-0.048 0.048"/>
     <path d="m64.018 118.69-0.047 0.095"/>
     <path d="m63.971 118.78v0.238"/>
     <path d="m63.971 119.02 0.047 0.095"/>
     <path d="m64.018 119.12 0.048 0.048"/>
     <path d="m64.066 119.16 0.095 0.048"/>
     <path d="m64.161 119.21h0.238"/>
     <path d="m64.399 119.21 0.096-0.048"/>
     <path d="m64.495 119.16 0.047-0.048"/>
     <path d="m64.542 119.12 0.048-0.095"/>
     <path d="m64.59 119.02v-0.238"/>
     <path d="m64.59 118.78-0.048-0.095"/>
     <path d="m64.542 118.69-0.047-0.048"/>
    </g>
    <g transform="rotate(-90 102.24 118.43)">
     <text transform="scale(-1 1) translate(-204.47)" x="102.235" y="118.927" font-size="1.333" opacity="0" text-anchor="middle" lengthAdjust="spacingAndGlyphs" textLength="2.202">D6</text>
    </g>
    <g class="stroked-text">
     <desc>D6</desc>
     <path d="m102.69 117.69h-1"/>
     <path d="m101.69 117.69v0.238"/>
     <path d="m101.69 117.93 0.047 0.143"/>
     <path d="m101.74 118.07 0.096 0.095"/>
     <path d="m101.83 118.16 0.095 0.048"/>
     <path d="m101.93 118.21 0.19 0.047"/>
     <path d="m102.12 118.26h0.143"/>
     <path d="m102.26 118.26 0.191-0.047"/>
     <path d="m102.45 118.21 0.095-0.048"/>
     <path d="m102.55 118.16 0.095-0.095"/>
     <path d="m102.64 118.07 0.048-0.143"/>
     <path d="m102.69 117.93v-0.238"/>
     <path d="m101.69 119.12v-0.19"/>
     <path d="m101.69 118.93 0.047-0.095"/>
     <path d="m101.74 118.83 0.048-0.048"/>
     <path d="m101.78 118.78 0.143-0.095"/>
     <path d="m101.93 118.69 0.19-0.048"/>
     <path d="m102.12 118.64h0.381"/>
     <path d="m102.5 118.64 0.096 0.048"/>
     <path d="m102.6 118.69 0.047 0.048"/>
     <path d="m102.64 118.74 0.048 0.095"/>
     <path d="m102.69 118.83v0.19"/>
     <path d="m102.69 119.02-0.048 0.095"/>
     <path d="m102.64 119.12-0.047 0.048"/>
     <path d="m102.6 119.16-0.096 0.048"/>
     <path d="m102.5 119.21h-0.238"/>
     <path d="m102.26 119.21-0.095-0.048"/>
     <path d="m102.17 119.16-0.048-0.048"/>
     <path d="m102.12 119.12-0.047-0.095"/>
     <path d="m102.07 119.02v-0.19"/>
     <path d="m102.07 118.83 0.047-0.095"/>
     <path d="m102.12 118.74 0.048-0.048"/>
     <path d="m102.17 118.69 0.095-0.048"/>
    </g>
    <g transform="rotate(-90 83.185 61.277)">
     <text transform="scale(-1 1) translate(-166.37)" x="83.185" y="61.777" font-size="1.333" opacity="0" text-anchor="middle" lengthAdjust="spacingAndGlyphs" textLength="2.202">D1</text>
    </g>
    <g class="stroked-text">
     <desc>D1</desc>
     <path d="m83.64 60.539h-1"/>
     <path d="m82.64 60.539v0.238"/>
     <path d="m82.64 60.777 0.047 0.143"/>
     <path d="m82.687 60.92 0.096 0.095"/>
     <path d="m82.783 61.015 0.095 0.048"/>
     <path d="m82.878 61.063 0.19 0.047"/>
     <path d="m83.068 61.11h0.143"/>
     <path d="m83.211 61.11 0.191-0.047"/>
     <path d="m83.402 61.063 0.095-0.048"/>
     <path d="m83.497 61.015 0.095-0.095"/>
     <path d="m83.592 60.92 0.048-0.143"/>
     <path d="m83.64 60.777v-0.238"/>
     <path d="m83.64 62.063v-0.572"/>
     <path d="m83.64 61.777h-1"/>
     <path d="m82.64 61.777 0.143-0.095"/>
     <path d="m82.783 61.682 0.095-0.095"/>
     <path d="m82.878 61.587 0.048-0.096"/>
    </g>
    <g transform="rotate(-90 45.085 118.43)">
     <text transform="scale(-1 1) translate(-90.17)" x="45.085" y="118.927" font-size="1.333" opacity="0" text-anchor="middle" lengthAdjust="spacingAndGlyphs" textLength="2.202">D4</text>
    </g>
    <g class="stroked-text">
     <desc>D4</desc>
     <path d="m45.54 117.69h-1"/>
     <path d="m44.54 117.69v0.238"/>
     <path d="m44.54 117.93 0.047 0.143"/>
     <path d="m44.587 118.07 0.096 0.095"/>
     <path d="m44.683 118.16 0.095 0.048"/>
     <path d="m44.778 118.21 0.19 0.047"/>
     <path d="m44.968 118.26h0.143"/>
     <path d="m45.111 118.26 0.191-0.047"/>
     <path d="m45.302 118.21 0.095-0.048"/>
     <path d="m45.397 118.16 0.095-0.095"/>
     <path d="m45.492 118.07 0.048-0.143"/>
     <path d="m45.54 117.93v-0.238"/>
     <path d="m44.873 119.12h0.667"/>
     <path d="m44.492 118.88 0.714-0.238"/>
     <path d="m45.206 118.64v0.619"/>
    </g>
   </g>
   <g fill="#E8B2A7" stroke="#E8B2A7" stroke-width=".12">
    <path d="m118.38 120.51v-3.86"/>
    <path d="m120.38 120.51h-2"/>
    <path d="m120.38 120.51v-3.86"/>
    <path d="m108.86 96.697v-3.86"/>
    <path d="m110.86 96.697h-2"/>
    <path d="m110.86 96.697v-3.86"/>
    <path d="m51.705 96.697v-3.86"/>
    <path d="m53.705 96.697h-2"/>
    <path d="m53.705 96.697v-3.86"/>
    <path d="m61.23 120.51v-3.86"/>
    <path d="m63.23 120.51h-2"/>
    <path d="m63.23 120.51v-3.86"/>
    <path d="m99.33 120.51v-3.86"/>
    <path d="m101.33 120.51h-2"/>
    <path d="m101.33 120.51v-3.86"/>
    <path d="m80.28 63.36v-3.86"/>
    <path d="m82.28 63.36h-2"/>
    <path d="m82.28 63.36v-3.86"/>
    <path d="m42.18 120.51v-3.86"/>
    <path d="m44.18 120.51h-2"/>
    <path d="m44.18 120.51v-3.86"/>
   </g>
   <g fill="#F2EDA1" stroke="#F2EDA1" stroke-width=".15">
    <text x="57.150" y="106.800" font-size="1.333" opacity="0" text-anchor="middle" lengthAdjust="spacingAndGlyphs" textLength="3.298">SW5</text>
    <g class="stroked-text">
     <desc>SW5</desc>
     <path d="m55.817 106.71 0.143 0.048"/>
     <path d="m55.96 106.76h0.238"/>
     <path d="m56.198 106.76 0.095-0.048"/>
     <path d="m56.293 106.71 0.047-0.047"/>
     <path d="m56.34 106.66 0.048-0.096"/>
     <path d="m56.388 106.56v-0.095"/>
     <path d="m56.388 106.47-0.048-0.095"/>
     <path d="m56.34 106.37-0.047-0.048"/>
     <path d="m56.293 106.33-0.095-0.047"/>
     <path d="m56.198 106.28-0.191-0.048"/>
     <path d="m56.007 106.23-0.095-0.048"/>
     <path d="m55.912 106.18-0.048-0.047"/>
     <path d="m55.864 106.14-0.047-0.095"/>
     <path d="m55.817 106.04v-0.096"/>
     <path d="m55.817 105.94 0.047-0.095"/>
     <path d="m55.864 105.85 0.048-0.048"/>
     <path d="m55.912 105.8 0.095-0.047"/>
     <path d="m56.007 105.76h0.238"/>
     <path d="m56.245 105.76 0.143 0.047"/>
     <path d="m56.721 105.76 0.239 1"/>
     <path d="m56.96 106.76 0.19-0.714"/>
     <path d="m57.15 106.04 0.19 0.714"/>
     <path d="m57.34 106.76 0.239-1"/>
     <path d="m58.436 105.76h-0.476"/>
     <path d="m57.96 105.76-0.048 0.476"/>
     <path d="m57.912 106.23 0.048-0.048"/>
     <path d="m57.96 106.18 0.095-0.047"/>
     <path d="m58.055 106.14h0.238"/>
     <path d="m58.293 106.14 0.095 0.047"/>
     <path d="m58.388 106.18 0.048 0.048"/>
     <path d="m58.436 106.23 0.047 0.095"/>
     <path d="m58.483 106.33v0.238"/>
     <path d="m58.483 106.56-0.047 0.096"/>
     <path d="m58.436 106.66-0.048 0.047"/>
     <path d="m58.388 106.71-0.095 0.048"/>
     <path d="m58.293 106.76h-0.238"/>
     <path d="m58.055 106.76-0.095-0.048"/>
     <path d="m57.96 106.71-0.048-0.047"/>
    </g>
    <text x="114.300" y="106.800" font-size="1.333" opacity="0" text-anchor="middle" lengthAdjust="spacingAndGlyphs" textLength="3.298">SW7</text>
    <g class="stroked-text">
     <desc>SW7</desc>
     <path d="m112.97 106.71 0.143 0.048"/>
     <path d="m113.11 106.76h0.238"/>
     <path d="m113.35 106.76 0.095-0.048"/>
     <path d="m113.44 106.71 0.047-0.047"/>
     <path d="m113.49 106.66 0.048-0.096"/>
     <path d="m113.54 106.56v-0.095"/>
     <path d="m113.54 106.47-0.048-0.095"/>
     <path d="m113.49 106.37-0.047-0.048"/>
     <path d="m113.44 106.33-0.095-0.047"/>
     <path d="m113.35 106.28-0.191-0.048"/>
     <path d="m113.16 106.23-0.095-0.048"/>
     <path d="m113.06 106.18-0.048-0.047"/>
     <path d="m113.01 106.14-0.047-0.095"/>
     <path d="m112.97 106.04v-0.096"/>
     <path d="m112.97 105.94 0.047-0.095"/>
     <path d="m113.01 105.85 0.048-0.048"/>
     <path d="m113.06 105.8 0.095-0.047"/>
     <path d="m113.16 105.76h0.238"/>
     <path d="m113.4 105.76 0.143 0.047"/>
     <path d="m113.87 105.76 0.239 1"/>
     <path d="m114.11 106.76 0.19-0.714"/>
     <path d="m114.3 106.04 0.19 0.714"/>
     <path d="m114.49 106.76 0.239-1"/>
     <path d="m115.01 105.76h0.667"/>
     <path d="m115.68 105.76-0.429 1"/>
    </g>
    <text x="38.100" y="106.800" font-size="1.333" opacity="0" text-anchor="middle" lengthAdjust="spacingAndGlyphs" textLength="3.298">SW4</text>
    <g class="stroked-text">
     <desc>SW4</desc>
     <path d="m36.767 106.71 0.143 0.048"/>
     <path d="m36.91 106.76h0.238"/>
     <path d="m37.148 106.76 0.095-0.048"/>
     <path d="m37.243 106.71 0.047-0.047"/>
     <path d="m37.29 106.66 0.048-0.096"/>
     <path d="m37.338 106.56v-0.095"/>
     <path d="m37.338 106.47-0.048-0.095"/>
     <path d="m37.29 106.37-0.047-0.048"/>
     <path d="m37.243 106.33-0.095-0.047"/>
     <path d="m37.148 106.28-0.191-0.048"/>
     <path d="m36.957 106.23-0.095-0.048"/>
     <path d="m36.862 106.18-0.048-0.047"/>
     <path d="m36.814 106.14-0.047-0.095"/>
     <path d="m36.767 106.04v-0.096"/>
     <path d="m36.767 105.94 0.047-0.095"/>
     <path d="m36.814 105.85 0.048-0.048"/>
     <path d="m36.862 105.8 0.095-0.047"/>
     <path d="m36.957 105.76h0.238"/>
     <path d="m37.195 105.76 0.143 0.047"/>
     <path d="m37.671 105.76 0.239 1"/>
     <path d="m37.91 106.76 0.19-0.714"/>
     <path d="m38.1 106.04 0.19 0.714"/>
     <path d="m38.29 106.76 0.239-1"/>
     <path d="m39.338 106.09v0.667"/>
     <path d="m39.1 105.71-0.238 0.714"/>
     <path d="m38.862 106.42h0.619"/>
    </g>
    <text x="47.625" y="82.987" font-size="1.333" opacity="0" text-anchor="middle" lengthAdjust="spacingAndGlyphs" textLength="3.298">SW2</text>
    <g class="stroked-text">
     <desc>SW2</desc>
     <path d="m46.292 82.895 0.143 0.047"/>
     <path d="m46.435 82.942h0.238"/>
     <path d="m46.673 82.942 0.095-0.047"/>
     <path d="m46.768 82.895 0.047-0.048"/>
     <path d="m46.815 82.847 0.048-0.095"/>
     <path d="m46.863 82.752v-0.095"/>
     <path d="m46.863 82.657-0.048-0.096"/>
     <path d="m46.815 82.561-0.047-0.047"/>
     <path d="m46.768 82.514-0.095-0.048"/>
     <path d="m46.673 82.466-0.191-0.047"/>
     <path d="m46.482 82.419-0.095-0.048"/>
     <path d="m46.387 82.371-0.048-0.048"/>
     <path d="m46.339 82.323-0.047-0.095"/>
     <path d="m46.292 82.228v-0.095"/>
     <path d="m46.292 82.133 0.047-0.095"/>
     <path d="m46.339 82.038 0.048-0.048"/>
     <path d="m46.387 81.99 0.095-0.048"/>
     <path d="m46.482 81.942h0.238"/>
     <path d="m46.72 81.942 0.143 0.048"/>
     <path d="m47.196 81.942 0.239 1"/>
     <path d="m47.435 82.942 0.19-0.714"/>
     <path d="m47.625 82.228 0.19 0.714"/>
     <path d="m47.815 82.942 0.239-1"/>
     <path d="m48.387 82.038 0.048-0.048"/>
     <path d="m48.435 81.99 0.095-0.048"/>
     <path d="m48.53 81.942h0.238"/>
     <path d="m48.768 81.942 0.095 0.048"/>
     <path d="m48.863 81.99 0.048 0.048"/>
     <path d="m48.911 82.038 0.047 0.095"/>
     <path d="m48.958 82.133v0.095"/>
     <path d="m48.958 82.228-0.047 0.143"/>
     <path d="m48.911 82.371-0.572 0.571"/>
     <path d="m48.339 82.942h0.619"/>
    </g>
    <text x="76.200" y="49.650" font-size="1.333" opacity="0" text-anchor="middle" lengthAdjust="spacingAndGlyphs" textLength="3.298">SW1</text>
    <g class="stroked-text">
     <desc>SW1</desc>
     <path d="m74.867 49.557 0.143 0.048"/>
     <path d="m75.01 49.605h0.238"/>
     <path d="m75.248 49.605 0.095-0.048"/>
     <path d="m75.343 49.557 0.047-0.047"/>
     <path d="m75.39 49.51 0.048-0.096"/>
     <path d="m75.438 49.414v-0.095"/>
     <path d="m75.438 49.319-0.048-0.095"/>
     <path d="m75.39 49.224-0.047-0.048"/>
     <path d="m75.343 49.176-0.095-0.047"/>
     <path d="m75.248 49.129-0.191-0.048"/>
     <path d="m75.057 49.081-0.095-0.048"/>
     <path d="m74.962 49.033-0.048-0.047"/>
     <path d="m74.914 48.986-0.047-0.095"/>
     <path d="m74.867 48.891v-0.096"/>
     <path d="m74.867 48.795 0.047-0.095"/>
     <path d="m74.914 48.7 0.048-0.048"/>
     <path d="m74.962 48.652 0.095-0.047"/>
     <path d="m75.057 48.605h0.238"/>
     <path d="m75.295 48.605 0.143 0.047"/>
     <path d="m75.771 48.605 0.239 1"/>
     <path d="m76.01 49.605 0.19-0.714"/>
     <path d="m76.2 48.891 0.19 0.714"/>
     <path d="m76.39 49.605 0.239-1"/>
     <path d="m77.533 49.605h-0.571"/>
     <path d="m77.248 49.605v-1"/>
     <path d="m77.248 48.605-0.096 0.143"/>
     <path d="m77.152 48.748-0.095 0.095"/>
     <path d="m77.057 48.843-0.095 0.048"/>
    </g>
    <text x="104.775" y="82.987" font-size="1.333" opacity="0" text-anchor="middle" lengthAdjust="spacingAndGlyphs" textLength="3.298">SW3</text>
    <g class="stroked-text">
     <desc>SW3</desc>
     <path d="m103.44 82.895 0.143 0.047"/>
     <path d="m103.58 82.942h0.238"/>
     <path d="m103.82 82.942 0.095-0.047"/>
     <path d="m103.92 82.895 0.047-0.048"/>
     <path d="m103.96 82.847 0.048-0.095"/>
     <path d="m104.01 82.752v-0.095"/>
     <path d="m104.01 82.657-0.048-0.096"/>
     <path d="m103.96 82.561-0.047-0.047"/>
     <path d="m103.92 82.514-0.095-0.048"/>
     <path d="m103.82 82.466-0.191-0.047"/>
     <path d="m103.63 82.419-0.095-0.048"/>
     <path d="m103.54 82.371-0.048-0.048"/>
     <path d="m103.49 82.323-0.047-0.095"/>
     <path d="m103.44 82.228v-0.095"/>
     <path d="m103.44 82.133 0.047-0.095"/>
     <path d="m103.49 82.038 0.048-0.048"/>
     <path d="m103.54 81.99 0.095-0.048"/>
     <path d="m103.63 81.942h0.238"/>
     <path d="m103.87 81.942 0.143 0.048"/>
     <path d="m104.35 81.942 0.239 1"/>
     <path d="m104.58 82.942 0.19-0.714"/>
     <path d="m104.78 82.228 0.19 0.714"/>
     <path d="m104.96 82.942 0.239-1"/>
     <path d="m105.49 81.942h0.619"/>
     <path d="m106.11 81.942-0.333 0.381"/>
     <path d="m105.78 82.323h0.143"/>
     <path d="m105.92 82.323 0.095 0.048"/>
     <path d="m106.01 82.371 0.048 0.048"/>
     <path d="m106.06 82.419 0.047 0.095"/>
     <path d="m106.11 82.514v0.238"/>
     <path d="m106.11 82.752-0.047 0.095"/>
     <path d="m106.06 82.847-0.048 0.048"/>
     <path d="m106.01 82.895-0.095 0.047"/>
     <path d="m105.92 82.942h-0.286"/>
     <path d="m105.63 82.942-0.095-0.047"/>
     <path d="m105.54 82.895-0.048-0.048"/>
    </g>
    <text x="95.250" y="106.800" font-size="1.333" opacity="0" text-anchor="middle" lengthAdjust="spacingAndGlyphs" textLength="3.298">SW6</text>
    <g class="stroked-text">
     <desc>SW6</desc>
     <path d="m93.917 106.71 0.143 0.048"/>
     <path d="m94.06 106.76h0.238"/>
     <path d="m94.298 106.76 0.095-0.048"/>
     <path d="m94.393 106.71 0.047-0.047"/>
     <path d="m94.44 106.66 0.048-0.096"/>
     <path d="m94.488 106.56v-0.095"/>
     <path d="m94.488 106.47-0.048-0.095"/>
     <path d="m94.44 106.37-0.047-0.048"/>
     <path d="m94.393 106.33-0.095-0.047"/>
     <path d="m94.298 106.28-0.191-0.048"/>
     <path d="m94.107 106.23-0.095-0.048"/>
     <path d="m94.012 106.18-0.048-0.047"/>
     <path d="m93.964 106.14-0.047-0.095"/>
     <path d="m93.917 106.04v-0.096"/>
     <path d="m93.917 105.94 0.047-0.095"/>
     <path d="m93.964 105.85 0.048-0.048"/>
     <path d="m94.012 105.8 0.095-0.047"/>
     <path d="m94.107 105.76h0.238"/>
     <path d="m94.345 105.76 0.143 0.047"/>
     <path d="m94.821 105.76 0.239 1"/>
     <path d="m95.06 106.76 0.19-0.714"/>
     <path d="m95.25 106.04 0.19 0.714"/>
     <path d="m95.44 106.76 0.239-1"/>
     <path d="m96.488 105.76h-0.19"/>
     <path d="m96.298 105.76-0.096 0.047"/>
     <path d="m96.202 105.8-0.047 0.048"/>
     <path d="m96.155 105.85-0.095 0.143"/>
     <path d="m96.06 105.99-0.048 0.19"/>
     <path d="m96.012 106.18v0.381"/>
     <path d="m96.012 106.56 0.048 0.096"/>
     <path d="m96.06 106.66 0.047 0.047"/>
     <path d="m96.107 106.71 0.095 0.048"/>
     <path d="m96.202 106.76h0.191"/>
     <path d="m96.393 106.76 0.095-0.048"/>
     <path d="m96.488 106.71 0.048-0.047"/>
     <path d="m96.536 106.66 0.047-0.096"/>
     <path d="m96.583 106.56v-0.238"/>
     <path d="m96.583 106.33-0.047-0.095"/>
     <path d="m96.536 106.23-0.048-0.048"/>
     <path d="m96.488 106.18-0.095-0.047"/>
     <path d="m96.393 106.14h-0.191"/>
     <path d="m96.202 106.14-0.095 0.047"/>
     <path d="m96.107 106.18-0.047 0.048"/>
     <path d="m96.06 106.23-0.048 0.095"/>
    </g>
   </g>
   <g fill="#F2EDA1" stroke="#F2EDA1" stroke-width=".12">
    <path d="m50.05 107.2v14.2"/>
    <path d="m50.05 121.4h14.2"/>
    <path d="m64.25 107.2h-14.2"/>
    <path d="m64.25 121.4v-14.2"/>
    <path d="m107.2 107.2v14.2"/>
    <path d="m107.2 121.4h14.2"/>
    <path d="m121.4 107.2h-14.2"/>
    <path d="m121.4 121.4v-14.2"/>
    <path d="m31 107.2v14.2"/>
    <path d="m31 121.4h14.2"/>
    <path d="m45.2 107.2h-14.2"/>
    <path d="m45.2 121.4v-14.2"/>
    <path d="m40.525 83.388v14.199"/>
    <path d="m40.525 97.587h14.2"/>
    <path d="m54.725 83.388h-14.2"/>
    <path d="m54.725 97.587v-14.199"/>
    <path d="m69.1 50.05v14.2"/>
    <path d="m69.1 64.25h14.2"/>
    <path d="m83.3 50.05h-14.2"/>
    <path d="m83.3 64.25v-14.2"/>
    <path d="m97.675 83.388v14.199"/>
    <path d="m97.675 97.587h14.2"/>
    <path d="m111.88 83.388h-14.2"/>
    <path d="m111.88 97.587v-14.199"/>
    <path d="m88.15 107.2v14.2"/>
    <path d="m88.15 121.4h14.2"/>
    <path d="m102.35 107.2h-14.2"/>
    <path d="m102.35 121.4v-14.2"/>
   </g>
   <g stroke="#000" stroke-width=".12">
    <g fill="#02FFEE" fill-opacity=".4" stroke-width="0">
     <g stroke="#02FFEE" stroke-linecap="round" stroke-linejoin="round">
      <circle cx="52.07" cy="114.3" r=".875"/>
      <circle cx="57.15" cy="114.3" r="2"/>
      <circle cx="62.23" cy="114.3" r=".875"/>
      <circle cx="53.34" cy="111.76" r="1.25"/>
      <circle cx="59.69" cy="109.22" r="1.25"/>
      <circle cx="109.22" cy="114.3" r=".875"/>
      <circle cx="114.3" cy="114.3" r="2"/>
      <circle cx="119.38" cy="114.3" r=".875"/>
      <circle cx="110.49" cy="111.76" r="1.25"/>
      <circle cx="116.84" cy="109.22" r="1.25"/>
      <circle cx="33.02" cy="114.3" r=".875"/>
      <circle cx="38.1" cy="114.3" r="2"/>
      <circle cx="43.18" cy="114.3" r=".875"/>
      <circle cx="34.29" cy="111.76" r="1.25"/>
      <circle cx="40.64" cy="109.22" r="1.25"/>
      <circle cx="42.545" cy="90.487" r=".875"/>
      <circle cx="47.625" cy="90.487" r="2"/>
      <circle cx="52.705" cy="90.487" r=".875"/>
      <circle cx="43.815" cy="87.947" r="1.25"/>
      <circle cx="50.165" cy="85.407" r="1.25"/>
      <circle cx="71.12" cy="57.15" r=".875"/>
      <circle cx="76.2" cy="57.15" r="2"/>
      <circle cx="81.28" cy="57.15" r=".875"/>
      <circle cx="72.39" cy="54.61" r="1.25"/>
      <circle cx="78.74" cy="52.07" r="1.25"/>
      <circle cx="99.695" cy="90.487" r=".875"/>
      <circle cx="104.78" cy="90.487" r="2"/>
      <circle cx="109.86" cy="90.487" r=".875"/>
      <circle cx="100.96" cy="87.947" r="1.25"/>
      <circle cx="107.32" cy="85.407" r="1.25"/>
      <circle cx="90.17" cy="114.3" r=".875"/>
      <circle cx="95.25" cy="114.3" r="2"/>
      <circle cx="100.33" cy="114.3" r=".875"/>
      <circle cx="91.44" cy="111.76" r="1.25"/>
      <circle cx="97.79" cy="109.22" r="1.25"/>
     </g>
     <g fill-rule="evenodd">
      <path d="m119.08 120.25-0.096-0.019-0.081-0.054-0.054-0.081-0.019-0.096v-0.6l0.019-0.096 0.054-0.081 0.081-0.054 0.096-0.019h0.6l0.096 0.019 0.081 0.054 0.054 0.081 0.019 0.096v0.6l-0.019 0.096-0.054 0.081-0.081 0.054-0.096 0.019z"/>
      <path d="m119.08 117.45-0.096-0.019-0.081-0.054-0.054-0.081-0.019-0.096v-0.6l0.019-0.096 0.054-0.081 0.081-0.054 0.096-0.019h0.6l0.096 0.019 0.081 0.054 0.054 0.081 0.019 0.096v0.6l-0.019 0.096-0.054 0.081-0.081 0.054-0.096 0.019z"/>
      <path d="m109.56 96.438-0.096-0.02-0.081-0.054-0.054-0.081-0.019-0.095v-0.601l0.019-0.095 0.054-0.081 0.081-0.054 0.096-0.02h0.6l0.096 0.02 0.081 0.054 0.054 0.081 0.019 0.095v0.601l-0.019 0.095-0.054 0.081-0.081 0.054-0.096 0.02z"/>
      <path d="m109.56 93.638-0.096-0.02-0.081-0.054-0.054-0.081-0.019-0.095v-0.601l0.019-0.095 0.054-0.081 0.081-0.054 0.096-0.02h0.6l0.096 0.02 0.081 0.054 0.054 0.081 0.019 0.095v0.601l-0.019 0.095-0.054 0.081-0.081 0.054-0.096 0.02z"/>
      <path d="m52.405 96.438-0.096-0.02-0.081-0.054-0.054-0.081-0.019-0.095v-0.601l0.019-0.095 0.054-0.081 0.081-0.054 0.096-0.02h0.6l0.096 0.02 0.081 0.054 0.054 0.081 0.019 0.095v0.601l-0.019 0.095-0.054 0.081-0.081 0.054-0.096 0.02z"/>
      <path d="m52.405 93.638-0.096-0.02-0.081-0.054-0.054-0.081-0.019-0.095v-0.601l0.019-0.095 0.054-0.081 0.081-0.054 0.096-0.02h0.6l0.096 0.02 0.081 0.054 0.054 0.081 0.019 0.095v0.601l-0.019 0.095-0.054 0.081-0.081 0.054-0.096 0.02z"/>
      <path d="m61.93 120.25-0.096-0.019-0.081-0.054-0.054-0.081-0.019-0.096v-0.6l0.019-0.096 0.054-0.081 0.081-0.054 0.096-0.019h0.6l0.096 0.019 0.081 0.054 0.054 0.081 0.019 0.096v0.6l-0.019 0.096-0.054 0.081-0.081 0.054-0.096 0.019z"/>
      <path d="m61.93 117.45-0.096-0.019-0.081-0.054-0.054-0.081-0.019-0.096v-0.6l0.019-0.096 0.054-0.081 0.081-0.054 0.096-0.019h0.6l0.096 0.019 0.081 0.054 0.054 0.081 0.019 0.096v0.6l-0.019 0.096-0.054 0.081-0.081 0.054-0.096 0.019z"/>
      <path d="m100.03 120.25-0.096-0.019-0.081-0.054-0.054-0.081-0.019-0.096v-0.6l0.019-0.096 0.054-0.081 0.081-0.054 0.096-0.019h0.6l0.096 0.019 0.081 0.054 0.054 0.081 0.019 0.096v0.6l-0.019 0.096-0.054 0.081-0.081 0.054-0.096 0.019z"/>
      <path d="m100.03 117.45-0.096-0.019-0.081-0.054-0.054-0.081-0.019-0.096v-0.6l0.019-0.096 0.054-0.081 0.081-0.054 0.096-0.019h0.6l0.096 0.019 0.081 0.054 0.054 0.081 0.019 0.096v0.6l-0.019 0.096-0.054 0.081-0.081 0.054-0.096 0.019z"/>
      <path d="m80.98 63.1-0.096-0.019-0.081-0.054-0.054-0.081-0.019-0.096v-0.6l0.019-0.096 0.054-0.081 0.081-0.054 0.096-0.019h0.6l0.096 0.019 0.081 0.054 0.054 0.081 0.019 0.096v0.6l-0.019 0.096-0.054 0.081-0.081 0.054-0.096 0.019z"/>
      <path d="m80.98 60.3-0.096-0.019-0.081-0.054-0.054-0.081-0.019-0.096v-0.6l0.019-0.096 0.054-0.081 0.081-0.054 0.096-0.019h0.6l0.096 0.019 0.081 0.054 0.054 0.081 0.019 0.096v0.6l-0.019 0.096-0.054 0.081-0.081 0.054-0.096 0.019z"/>
      <path d="m42.88 120.25-0.096-0.019-0.081-0.054-0.054-0.081-0.019-0.096v-0.6l0.019-0.096 0.054-0.081 0.081-0.054 0.096-0.019h0.6l0.096 0.019 0.081 0.054 0.054 0.081 0.019 0.096v0.6l-0.019 0.096-0.054 0.081-0.081 0.054-0.096 0.019z"/>
      <path d="m42.88 117.45-0.096-0.019-0.081-0.054-0.054-0.081-0.019-0.096v-0.6l0.019-0.096 0.054-0.081 0.081-0.054 0.096-0.019h0.6l0.096 0.019 0.081 0.054 0.054 0.081 0.019 0.096v0.6l-0.019 0.096-0.054 0.081-0.081 0.054-0.096 0.019z"/>
     </g>
    </g>
   </g>
  </g>
 </g>
 <g stroke-width="0">
  <g fill="#D864FF" fill-opacity=".4" stroke="#D864FF" stroke-linecap="round" stroke-linejoin="round" stroke-width="0">
   <circle cx="52.07" cy="114.3" r=".875"/>
   <circle cx="57.15" cy="114.3" r="2"/>
   <circle cx="62.23" cy="114.3" r=".875"/>
   <circle cx="109.22" cy="114.3" r=".875"/>
   <circle cx="114.3" cy="114.3" r="2"/>
   <circle cx="119.38" cy="114.3" r=".875"/>
   <circle cx="33.02" cy="114.3" r=".875"/>
   <circle cx="38.1" cy="114.3" r="2"/>
   <circle cx="43.18" cy="114.3" r=".875"/>
   <circle cx="42.545" cy="90.487" r=".875"/>
   <circle cx="47.625" cy="90.487" r="2"/>
   <circle cx="52.705" cy="90.487" r=".875"/>
   <circle cx="71.12" cy="57.15" r=".875"/>
   <circle cx="76.2" cy="57.15" r="2"/>
   <circle cx="81.28" cy="57.15" r=".875"/>
   <circle cx="99.695" cy="90.487" r=".875"/>
   <circle cx="104.78" cy="90.487" r="2"/>
   <circle cx="109.86" cy="90.487" r=".875"/>
   <circle cx="90.17" cy="114.3" r=".875"/>
   <circle cx="95.25" cy="114.3" r="2"/>
   <circle cx="100.33" cy="114.3" r=".875"/>
  </g>
 </g>
</svg>
