<?xml version="1.0" encoding="UTF-8"?>
<svg xmlns="http://www.w3.org/2000/svg" xmlns:xlink="http://www.w3.org/1999/xlink"
     width="216" height="333" viewBox="0 0 216 333">
<defs>
<g id="d0">
<rect x="0" y="0" width="52" height="52" rx="5" fill="none" stroke="black" stroke-width="2" />
<rect x="1.0" y="1.0" width="50.0" height="50.0" rx="4.0" fill="#aaaaaa" />
<rect x="6" y="4" width="40" height="40" rx="5" fill="#d0d0d0" />
<text x="7" y="7" font-size="12" text-anchor="start" dominant-baseline="hanging"><tspan x="7" dy="0em">0,0</tspan></text>
<text x="7" y="42" font-size="12" text-anchor="start" dominant-baseline="auto"><tspan x="7" dy="0em">Num Lock</tspan></text>
</g>
<g id="d1">
<rect x="0" y="0" width="52" height="52" rx="5" fill="none" stroke="black" stroke-width="2" />
<rect x="1.0" y="1.0" width="50.0" height="50.0" rx="4.0" fill="#cccccc" />
<rect x="6" y="4" width="40" height="40" rx="5" fill="#fbfbfb" />
<text x="7" y="7" font-size="12" text-anchor="start" dominant-baseline="hanging"><tspan x="7" dy="0em">0,1</tspan></text>
<text x="7" y="42" font-size="12" text-anchor="start" dominant-baseline="auto"><tspan x="7" dy="0em">/</tspan></text>
</g>
<g id="d2">
<rect x="0" y="0" width="52" height="52" rx="5" fill="none" stroke="black" stroke-width="2" />
<rect x="1.0" y="1.0" width="50.0" height="50.0" rx="4.0" fill="#cccccc" />
<rect x="6" y="4" width="40" height="40" rx="5" fill="#fbfbfb" />
<text x="7" y="7" font-size="12" text-anchor="start" dominant-baseline="hanging"><tspan x="7" dy="0em">0,2</tspan></text>
<text x="7" y="42" font-size="12" text-anchor="start" dominant-baseline="auto"><tspan x="7" dy="0em">*</tspan></text>
</g>
<g id="d3">
<rect x="0" y="0" width="52" height="52" rx="5" fill="none" stroke="black" stroke-width="2" />
<rect x="1.0" y="1.0" width="50.0" height="50.0" rx="4.0" fill="#cccccc" />
<rect x="6" y="4" width="40" height="40" rx="5" fill="#fbfbfb" />
<text x="7" y="7" font-size="12" text-anchor="start" dominant-baseline="hanging"><tspan x="7" dy="0em">0,3</tspan></text>
<text x="7" y="42" font-size="12" text-anchor="start" dominant-baseline="auto"><tspan x="7" dy="0em">-</tspan></text>
</g>
<g id="d4">
<rect x="0" y="0" width="52" height="52" rx="5" fill="none" stroke="black" stroke-width="2" />
<rect x="1.0" y="1.0" width="50.0" height="50.0" rx="4.0" fill="#cccccc" />
<rect x="6" y="4" width="40" height="40" rx="5" fill="#fbfbfb" />
<text x="7" y="7" font-size="12" text-anchor="start" dominant-baseline="hanging"><tspan x="7" dy="0em">1,0</tspan></text>
<text x="7" y="42" font-size="12" text-anchor="start" dominant-baseline="auto"><tspan x="7" dy="0em">7</tspan></text>
</g>
<g id="d5">
<rect x="0" y="0" width="52" height="52" rx="5" fill="none" stroke="black" stroke-width="2" />
<rect x="1.0" y="1.0" width="50.0" height="50.0" rx="4.0" fill="#cccccc" />
<rect x="6" y="4" width="40" height="40" rx="5" fill="#fbfbfb" />
<text x="7" y="7" font-size="12" text-anchor="start" dominant-baseline="hanging"><tspan x="7" dy="0em">1,1</tspan></text>
<text x="45" y="7" font-size="12" text-anchor="end" dominant-baseline="hanging"><tspan x="45" dy="0em">↑</tspan></text>
<text x="7" y="42" font-size="12" text-anchor="start" dominant-baseline="auto"><tspan x="7" dy="0em">8</tspan></text>
</g>
<g id="d6">
<rect x="0" y="0" width="52" height="52" rx="5" fill="none" stroke="black" stroke-width="2" />
<rect x="1.0" y="1.0" width="50.0" height="50.0" rx="4.0" fill="#cccccc" />
<rect x="6" y="4" width="40" height="40" rx="5" fill="#fbfbfb" />
<text x="7" y="7" font-size="12" text-anchor="start" dominant-baseline="hanging"><tspan x="7" dy="0em">1,2</tspan></text>
<text x="7" y="42" font-size="12" text-anchor="start" dominant-baseline="auto"><tspan x="7" dy="0em">9</tspan></text>
</g>
<g id="d7">
<rect x="0" y="0" width="52" height="104" rx="5" fill="none" stroke="black" stroke-width="2" />
<rect x="1.0" y="1.0" width="50.0" height="102.0" rx="4.0" fill="#cccccc" />
<rect x="6" y="4" width="40" height="92" rx="5" fill="#fbfbfb" />
<text x="7" y="7" font-size="12" text-anchor="start" dominant-baseline="hanging"><tspan x="7" dy="0em">1,3</tspan></text>
<text x="7" y="94" font-size="12" text-anchor="start" dominant-baseline="auto"><tspan x="7" dy="0em">+</tspan></text>
</g>
<g id="d8">
<rect x="0" y="0" width="52" height="52" rx="5" fill="none" stroke="black" stroke-width="2" />
<rect x="1.0" y="1.0" width="50.0" height="50.0" rx="4.0" fill="#cccccc" />
<rect x="6" y="4" width="40" height="40" rx="5" fill="#fbfbfb" />
<text x="7" y="7" font-size="12" text-anchor="start" dominant-baseline="hanging"><tspan x="7" dy="0em">2,0</tspan></text>
<text x="45" y="7" font-size="12" text-anchor="end" dominant-baseline="hanging"><tspan x="45" dy="0em">←</tspan></text>
<text x="7" y="42" font-size="12" text-anchor="start" dominant-baseline="auto"><tspan x="7" dy="0em">4</tspan></text>
</g>
<g id="d9">
<rect x="0" y="0" width="52" height="52" rx="5" fill="none" stroke="black" stroke-width="2" />
<rect x="1.0" y="1.0" width="50.0" height="50.0" rx="4.0" fill="#cccccc" />
<rect x="6" y="4" width="40" height="40" rx="5" fill="#fbfbfb" />
<text x="7" y="7" font-size="12" text-anchor="start" dominant-baseline="hanging"><tspan x="7" dy="0em">2,1</tspan></text>
<text x="7" y="42" font-size="12" text-anchor="start" dominant-baseline="auto"><tspan x="7" dy="0em">5</tspan></text>
</g>
<g id="d10">
<rect x="0" y="0" width="52" height="52" rx="5" fill="none" stroke="black" stroke-width="2" />
<rect x="1.0" y="1.0" width="50.0" height="50.0" rx="4.0" fill="#cccccc" />
<rect x="6" y="4" width="40" height="40" rx="5" fill="#fbfbfb" />
<text x="7" y="7" font-size="12" text-anchor="start" dominant-baseline="hanging"><tspan x="7" dy="0em">2,2</tspan></text>
<text x="45" y="7" font-size="12" text-anchor="end" dominant-baseline="hanging"><tspan x="45" dy="0em">→</tspan></text>
<text x="7" y="42" font-size="12" text-anchor="start" dominant-baseline="auto"><tspan x="7" dy="0em">6</tspan></text>
</g>
<g id="d11">
<rect x="0" y="0" width="52" height="52" rx="5" fill="none" stroke="black" stroke-width="2" />
<rect x="1.0" y="1.0" width="50.0" height="50.0" rx="4.0" fill="#cccccc" />
<rect x="6" y="4" width="40" height="40" rx="5" fill="#fbfbfb" />
<text x="7" y="7" font-size="12" text-anchor="start" dominant-baseline="hanging"><tspan x="7" dy="0em">3,0</tspan></text>
<text x="7" y="42" font-size="12" text-anchor="start" dominant-baseline="auto"><tspan x="7" dy="0em">1</tspan></text>
</g>
<g id="d12">
<rect x="0" y="0" width="52" height="52" rx="5" fill="none" stroke="black" stroke-width="2" />
<rect x="1.0" y="1.0" width="50.0" height="50.0" rx="4.0" fill="#cccccc" />
<rect x="6" y="4" width="40" height="40" rx="5" fill="#fbfbfb" />
<text x="7" y="7" font-size="12" text-anchor="start" dominant-baseline="hanging"><tspan x="7" dy="0em">3,1</tspan></text>
<text x="45" y="7" font-size="12" text-anchor="end" dominant-baseline="hanging"><tspan x="45" dy="0em">↓</tspan></text>
<text x="7" y="42" font-size="12" text-anchor="start" dominant-baseline="auto"><tspan x="7" dy="0em">2</tspan></text>
</g>
<g id="d13">
<rect x="0" y="0" width="52" height="52" rx="5" fill="none" stroke="black" stroke-width="2" />
<rect x="1.0" y="1.0" width="50.0" height="50.0" rx="4.0" fill="#cccccc" />
<rect x="6" y="4" width="40" height="40" rx="5" fill="#fbfbfb" />
<text x="7" y="7" font-size="12" text-anchor="start" dominant-baseline="hanging"><tspan x="7" dy="0em">3,2</tspan></text>
<text x="7" y="42" font-size="12" text-anchor="start" dominant-baseline="auto"><tspan x="7" dy="0em">3</tspan></text>
</g>
<g id="d14">
<rect x="0" y="0" width="52" height="104" rx="5" fill="none" stroke="black" stroke-width="2" />
<rect x="1.0" y="1.0" width="50.0" height="102.0" rx="4.0" fill="#777777" />
<rect x="6" y="4" width="40" height="92" rx="5" fill="#919191" />
<text x="7" y="7" font-size="12" text-anchor="start" dominant-baseline="hanging"><tspan x="7" dy="0em">4,3</tspan></text>
<text x="7" y="94" font-size="12" text-anchor="start" dominant-baseline="auto"><tspan x="7" dy="0em">Enter</tspan></text>
</g>
<g id="d15">
<rect x="0" y="0" width="52" height="52" rx="5" fill="none" stroke="black" stroke-width="2" />
<rect x="1.0" y="1.0" width="50.0" height="50.0" rx="4.0" fill="#cccccc" />
<rect x="6" y="4" width="40" height="40" rx="5" fill="#fbfbfb" />
<text x="7" y="7" font-size="12" text-anchor="start" dominant-baseline="hanging"><tspan x="7" dy="0em">4,0</tspan></text>
<text x="45" y="7" font-size="12" text-anchor="end" dominant-baseline="hanging"><tspan x="45" dy="0em">Ins</tspan></text>
<text x="7" y="42" font-size="12" text-anchor="start" dominant-baseline="auto"><tspan x="7" dy="0em">0</tspan></text>
<text x="45" y="42" font-size="12" text-anchor="end" dominant-baseline="auto"><tspan x="45" dy="0em">0,0</tspan></text>
</g>
<g id="d16">
<rect x="0" y="0" width="52" height="52" rx="5" fill="none" stroke="black" stroke-width="2" />
<rect x="1.0" y="1.0" width="50.0" height="50.0" rx="4.0" fill="#cccccc" />
<rect x="6" y="4" width="40" height="40" rx="5" fill="#fbfbfb" />
<text x="7" y="7" font-size="12" text-anchor="start" dominant-baseline="hanging"><tspan x="7" dy="0em">4,1</tspan></text>
<text x="7" y="42" font-size="12" text-anchor="start" dominant-baseline="auto"><tspan x="7" dy="0em">00</tspan></text>
<text x="45" y="42" font-size="12" text-anchor="end" dominant-baseline="auto"><tspan x="45" dy="0em">0,0</tspan></text>
</g>
<g id="d17">
<rect x="0" y="0" width="52" height="52" rx="5" fill="none" stroke="black" stroke-width="2" />
<rect x="1.0" y="1.0" width="50.0" height="50.0" rx="4.0" fill="#cccccc" />
<rect x="6" y="4" width="40" height="40" rx="5" fill="#fbfbfb" />
<text x="7" y="7" font-size="12" text-anchor="start" dominant-baseline="hanging"><tspan x="7" dy="0em">4,2</tspan></text>
<text x="45" y="7" font-size="12" text-anchor="end" dominant-baseline="hanging"><tspan x="45" dy="0em">Del</tspan></text>
<text x="7" y="42" font-size="12" text-anchor="start" dominant-baseline="auto"><tspan x="7" dy="0em">.</tspan></text>
</g>
<g id="d18">
<rect x="0" y="0" width="104" height="52" rx="5" fill="none" stroke="black" stroke-width="2" />
<rect x="1.0" y="1.0" width="102.0" height="50.0" rx="4.0" fill="#cccccc" />
<rect x="6" y="4" width="92" height="40" rx="5" fill="#fbfbfb" />
<text x="7" y="7" font-size="12" text-anchor="start" dominant-baseline="hanging"><tspan x="7" dy="0em">4,0</tspan></text>
<text x="97" y="7" font-size="12" text-anchor="end" dominant-baseline="hanging"><tspan x="97" dy="0em">Ins</tspan></text>
<text x="7" y="42" font-size="12" text-anchor="start" dominant-baseline="auto"><tspan x="7" dy="0em">0</tspan></text>
<text x="97" y="42" font-size="12" text-anchor="end" dominant-baseline="auto"><tspan x="97" dy="0em">0,1</tspan></text>
</g>
</defs>
<use xlink:href="#d0" x="4" y="4" />
<use xlink:href="#d1" x="56" y="4" />
<use xlink:href="#d2" x="108" y="4" />
<use xlink:href="#d3" x="160" y="4" />
<use xlink:href="#d4" x="4" y="56" />
<use xlink:href="#d5" x="56" y="56" />
<use xlink:href="#d6" x="108" y="56" />
<use xlink:href="#d7" x="160" y="56" />
<use xlink:href="#d8" x="4" y="108" />
<use xlink:href="#d9" x="56" y="108" />
<use xlink:href="#d10" x="108" y="108" />
<use xlink:href="#d11" x="4" y="160" />
<use xlink:href="#d12" x="56" y="160" />
<use xlink:href="#d13" x="108" y="160" />
<use xlink:href="#d14" x="160" y="160" />
<use xlink:href="#d15" x="4" y="212" />
<use xlink:href="#d16" x="56" y="212" />
<use xlink:href="#d17" x="108" y="212" />
<use xlink:href="#d18" x="4" y="277.0" />
</svg>