<?xml version="1.0" encoding="UTF-8"?>
<!DOCTYPE svg  PUBLIC '-//W3C//DTD SVG 1.1//EN'  'http://www.w3.org/Graphics/SVG/1.1/DTD/svg11.dtd'>
<svg width="290.6mm" height="19.126mm" version="1.1" viewBox="0 0 290.6 19.126" xmlns="http://www.w3.org/2000/svg">
 <title>SVG Image created as kb12-01-render.svg date 2025/09/05 18:43:16</title>
 <desc>Image generated by PCBNEW</desc>
 <rect width="290.6mm" height="19.126mm" fill="#282A36"/>
 <g fill="none" stroke="#8BE9FD" stroke-linecap="round" stroke-linejoin="round" stroke-width=".15">
  <text x="71.4875" y="2.0750" font-size="1.3333" opacity="0" stroke-opacity="0" text-anchor="middle" lengthAdjust="spacingAndGlyphs" textLength="3.2976">SW2</text>
  <g class="stroked-text">
   <desc>SW2</desc>
   <path d="m70.154 1.9822 0.1428 0.0476"/>
   <path d="m70.297 2.0298h0.2381"/>
   <path d="m70.535 2.0298 0.0953-0.0476"/>
   <path d="m70.63 1.9822 0.0476-0.0476"/>
   <path d="m70.678 1.9346 0.0476-0.0953"/>
   <path d="m70.726 1.8393v-0.0952"/>
   <path d="m70.726 1.7441-0.0476-0.0952"/>
   <path d="m70.678 1.6489-0.0476-0.0477"/>
   <path d="m70.63 1.6012-0.0953-0.0476"/>
   <path d="m70.535 1.5536-0.1905-0.0476"/>
   <path d="m70.345 1.506-0.0952-0.0476"/>
   <path d="m70.249 1.4584-0.0476-0.0476"/>
   <path d="m70.202 1.4108-0.0476-0.0953"/>
   <path d="m70.154 1.3155v-0.0952"/>
   <path d="m70.154 1.2203 0.0476-0.0952"/>
   <path d="m70.202 1.1251 0.0476-0.0477"/>
   <path d="m70.249 1.0774 0.0952-0.0476"/>
   <path d="m70.345 1.0298h0.2381"/>
   <path d="m70.583 1.0298 0.1429 0.0476"/>
   <path d="m71.059 1.0298 0.2381 1"/>
   <path d="m71.297 2.0298 0.1905-0.7143"/>
   <path d="m71.488 1.3155 0.1905 0.7143"/>
   <path d="m71.678 2.0298 0.2381-1"/>
   <path d="m72.249 1.1251 0.0476-0.0477"/>
   <path d="m72.297 1.0774 0.0953-0.0476"/>
   <path d="m72.392 1.0298h0.2381"/>
   <path d="m72.63 1.0298 0.0952 0.0476"/>
   <path d="m72.726 1.0774 0.0476 0.0477"/>
   <path d="m72.773 1.1251 0.0476 0.0952"/>
   <path d="m72.821 1.2203v0.0952"/>
   <path d="m72.821 1.3155-0.0476 0.1429"/>
   <path d="m72.773 1.4584-0.5714 0.5714"/>
   <path d="m72.202 2.0298h0.619"/>
  </g>
  <text x="242.9375" y="2.0750" font-size="1.3333" opacity="0" stroke-opacity="0" text-anchor="middle" lengthAdjust="spacingAndGlyphs" textLength="4.2500">SW11</text>
  <g class="stroked-text">
   <desc>SW11</desc>
   <path d="m241.13 1.9822 0.1428 0.0476"/>
   <path d="m241.27 2.0298h0.2381"/>
   <path d="m241.51 2.0298 0.0953-0.0476"/>
   <path d="m241.6 1.9822 0.0476-0.0476"/>
   <path d="m241.65 1.9346 0.0476-0.0953"/>
   <path d="m241.7 1.8393v-0.0952"/>
   <path d="m241.7 1.7441-0.0476-0.0952"/>
   <path d="m241.65 1.6489-0.0476-0.0477"/>
   <path d="m241.6 1.6012-0.0953-0.0476"/>
   <path d="m241.51 1.5536-0.1904-0.0476"/>
   <path d="m241.32 1.506-0.0953-0.0476"/>
   <path d="m241.22 1.4584-0.0476-0.0476"/>
   <path d="m241.18 1.4108-0.0476-0.0953"/>
   <path d="m241.13 1.3155v-0.0952"/>
   <path d="m241.13 1.2203 0.0476-0.0952"/>
   <path d="m241.18 1.1251 0.0476-0.0477"/>
   <path d="m241.22 1.0774 0.0953-0.0476"/>
   <path d="m241.32 1.0298h0.238"/>
   <path d="m241.56 1.0298 0.1429 0.0476"/>
   <path d="m242.03 1.0298 0.2381 1"/>
   <path d="m242.27 2.0298 0.1905-0.7143"/>
   <path d="m242.46 1.3155 0.1905 0.7143"/>
   <path d="m242.65 2.0298 0.2381-1"/>
   <path d="m243.79 2.0298h-0.5714"/>
   <path d="m243.51 2.0298v-1"/>
   <path d="m243.51 1.0298-0.0952 0.1429"/>
   <path d="m243.41 1.1727-0.0952 0.0952"/>
   <path d="m243.32 1.2679-0.0953 0.0476"/>
   <path d="m244.75 2.0298h-0.5714"/>
   <path d="m244.46 2.0298v-1"/>
   <path d="m244.46 1.0298-0.0952 0.1429"/>
   <path d="m244.37 1.1727-0.0953 0.0952"/>
   <path d="m244.27 1.2679-0.0952 0.0476"/>
  </g>
  <text x="52.4375" y="2.0750" font-size="1.3333" opacity="0" stroke-opacity="0" text-anchor="middle" lengthAdjust="spacingAndGlyphs" textLength="3.2976">SW1</text>
  <g class="stroked-text">
   <desc>SW1</desc>
   <path d="m51.104 1.9822 0.1428 0.0476"/>
   <path d="m51.247 2.0298h0.2381"/>
   <path d="m51.485 2.0298 0.0953-0.0476"/>
   <path d="m51.58 1.9822 0.0476-0.0476"/>
   <path d="m51.628 1.9346 0.0476-0.0953"/>
   <path d="m51.676 1.8393v-0.0952"/>
   <path d="m51.676 1.7441-0.0476-0.0952"/>
   <path d="m51.628 1.6489-0.0476-0.0477"/>
   <path d="m51.58 1.6012-0.0953-0.0476"/>
   <path d="m51.485 1.5536-0.1905-0.0476"/>
   <path d="m51.295 1.506-0.0952-0.0476"/>
   <path d="m51.199 1.4584-0.0476-0.0476"/>
   <path d="m51.152 1.4108-0.0476-0.0953"/>
   <path d="m51.104 1.3155v-0.0952"/>
   <path d="m51.104 1.2203 0.0476-0.0952"/>
   <path d="m51.152 1.1251 0.0476-0.0477"/>
   <path d="m51.199 1.0774 0.0952-0.0476"/>
   <path d="m51.295 1.0298h0.2381"/>
   <path d="m51.533 1.0298 0.1429 0.0476"/>
   <path d="m52.009 1.0298 0.2381 1"/>
   <path d="m52.247 2.0298 0.1905-0.7143"/>
   <path d="m52.438 1.3155 0.1905 0.7143"/>
   <path d="m52.628 2.0298 0.2381-1"/>
   <path d="m53.771 2.0298h-0.5714"/>
   <path d="m53.485 2.0298v-1"/>
   <path d="m53.485 1.0298-0.0952 0.1429"/>
   <path d="m53.39 1.1727-0.0953 0.0952"/>
   <path d="m53.295 1.2679-0.0952 0.0476"/>
  </g>
  <text x="223.8875" y="2.0750" font-size="1.3333" opacity="0" stroke-opacity="0" text-anchor="middle" lengthAdjust="spacingAndGlyphs" textLength="4.2500">SW10</text>
  <g class="stroked-text">
   <desc>SW10</desc>
   <path d="m222.08 1.9822 0.1428 0.0476"/>
   <path d="m222.22 2.0298h0.2381"/>
   <path d="m222.46 2.0298 0.0953-0.0476"/>
   <path d="m222.55 1.9822 0.0476-0.0476"/>
   <path d="m222.6 1.9346 0.0476-0.0953"/>
   <path d="m222.65 1.8393v-0.0952"/>
   <path d="m222.65 1.7441-0.0476-0.0952"/>
   <path d="m222.6 1.6489-0.0476-0.0477"/>
   <path d="m222.55 1.6012-0.0953-0.0476"/>
   <path d="m222.46 1.5536-0.1904-0.0476"/>
   <path d="m222.27 1.506-0.0953-0.0476"/>
   <path d="m222.17 1.4584-0.0476-0.0476"/>
   <path d="m222.13 1.4108-0.0476-0.0953"/>
   <path d="m222.08 1.3155v-0.0952"/>
   <path d="m222.08 1.2203 0.0476-0.0952"/>
   <path d="m222.13 1.1251 0.0476-0.0477"/>
   <path d="m222.17 1.0774 0.0953-0.0476"/>
   <path d="m222.27 1.0298h0.238"/>
   <path d="m222.51 1.0298 0.1429 0.0476"/>
   <path d="m222.98 1.0298 0.2381 1"/>
   <path d="m223.22 2.0298 0.1905-0.7143"/>
   <path d="m223.41 1.3155 0.1905 0.7143"/>
   <path d="m223.6 2.0298 0.2381-1"/>
   <path d="m224.74 2.0298h-0.5714"/>
   <path d="m224.46 2.0298v-1"/>
   <path d="m224.46 1.0298-0.0952 0.1429"/>
   <path d="m224.36 1.1727-0.0952 0.0952"/>
   <path d="m224.27 1.2679-0.0953 0.0476"/>
   <path d="m225.36 1.0298h0.0952"/>
   <path d="m225.46 1.0298 0.0953 0.0476"/>
   <path d="m225.55 1.0774 0.0476 0.0477"/>
   <path d="m225.6 1.1251 0.0476 0.0952"/>
   <path d="m225.65 1.2203 0.0476 0.1905"/>
   <path d="m225.7 1.4108v0.2381"/>
   <path d="m225.7 1.6489-0.0476 0.1904"/>
   <path d="m225.65 1.8393-0.0476 0.0953"/>
   <path d="m225.6 1.9346-0.0476 0.0476"/>
   <path d="m225.55 1.9822-0.0953 0.0476"/>
   <path d="m225.46 2.0298h-0.0952"/>
   <path d="m225.36 2.0298-0.0952-0.0476"/>
   <path d="m225.27 1.9822-0.0477-0.0476"/>
   <path d="m225.22 1.9346-0.0476-0.0953"/>
   <path d="m225.17 1.8393-0.0476-0.1904"/>
   <path d="m225.13 1.6489v-0.2381"/>
   <path d="m225.13 1.4108 0.0476-0.1905"/>
   <path d="m225.17 1.2203 0.0476-0.0952"/>
   <path d="m225.22 1.1251 0.0477-0.0477"/>
   <path d="m225.27 1.0774 0.0952-0.0476"/>
  </g>
  <text x="261.9875" y="2.0750" font-size="1.3333" opacity="0" stroke-opacity="0" text-anchor="middle" lengthAdjust="spacingAndGlyphs" textLength="4.2500">SW12</text>
  <g class="stroked-text">
   <desc>SW12</desc>
   <path d="m260.18 1.9822 0.1428 0.0476"/>
   <path d="m260.32 2.0298h0.2381"/>
   <path d="m260.56 2.0298 0.0953-0.0476"/>
   <path d="m260.65 1.9822 0.0476-0.0476"/>
   <path d="m260.7 1.9346 0.0476-0.0953"/>
   <path d="m260.75 1.8393v-0.0952"/>
   <path d="m260.75 1.7441-0.0476-0.0952"/>
   <path d="m260.7 1.6489-0.0476-0.0477"/>
   <path d="m260.65 1.6012-0.0953-0.0476"/>
   <path d="m260.56 1.5536-0.1904-0.0476"/>
   <path d="m260.37 1.506-0.0953-0.0476"/>
   <path d="m260.27 1.4584-0.0476-0.0476"/>
   <path d="m260.23 1.4108-0.0476-0.0953"/>
   <path d="m260.18 1.3155v-0.0952"/>
   <path d="m260.18 1.2203 0.0476-0.0952"/>
   <path d="m260.23 1.1251 0.0476-0.0477"/>
   <path d="m260.27 1.0774 0.0953-0.0476"/>
   <path d="m260.37 1.0298h0.238"/>
   <path d="m260.61 1.0298 0.1429 0.0476"/>
   <path d="m261.08 1.0298 0.2381 1"/>
   <path d="m261.32 2.0298 0.1905-0.7143"/>
   <path d="m261.51 1.3155 0.1905 0.7143"/>
   <path d="m261.7 2.0298 0.2381-1"/>
   <path d="m262.84 2.0298h-0.5714"/>
   <path d="m262.56 2.0298v-1"/>
   <path d="m262.56 1.0298-0.0952 0.1429"/>
   <path d="m262.46 1.1727-0.0952 0.0952"/>
   <path d="m262.37 1.2679-0.0953 0.0476"/>
   <path d="m263.23 1.1251 0.0476-0.0477"/>
   <path d="m263.27 1.0774 0.0953-0.0476"/>
   <path d="m263.37 1.0298h0.238"/>
   <path d="m263.61 1.0298 0.0953 0.0476"/>
   <path d="m263.7 1.0774 0.0476 0.0477"/>
   <path d="m263.75 1.1251 0.0476 0.0952"/>
   <path d="m263.8 1.2203v0.0952"/>
   <path d="m263.8 1.3155-0.0476 0.1429"/>
   <path d="m263.75 1.4584-0.5714 0.5714"/>
   <path d="m263.18 2.0298h0.619"/>
  </g>
  <text x="90.5375" y="2.0750" font-size="1.3333" opacity="0" stroke-opacity="0" text-anchor="middle" lengthAdjust="spacingAndGlyphs" textLength="3.2976">SW3</text>
  <g class="stroked-text">
   <desc>SW3</desc>
   <path d="m89.204 1.9822 0.1428 0.0476"/>
   <path d="m89.347 2.0298h0.2381"/>
   <path d="m89.585 2.0298 0.0953-0.0476"/>
   <path d="m89.68 1.9822 0.0476-0.0476"/>
   <path d="m89.728 1.9346 0.0476-0.0953"/>
   <path d="m89.776 1.8393v-0.0952"/>
   <path d="m89.776 1.7441-0.0476-0.0952"/>
   <path d="m89.728 1.6489-0.0476-0.0477"/>
   <path d="m89.68 1.6012-0.0953-0.0476"/>
   <path d="m89.585 1.5536-0.1905-0.0476"/>
   <path d="m89.395 1.506-0.0952-0.0476"/>
   <path d="m89.299 1.4584-0.0476-0.0476"/>
   <path d="m89.252 1.4108-0.0476-0.0953"/>
   <path d="m89.204 1.3155v-0.0952"/>
   <path d="m89.204 1.2203 0.0476-0.0952"/>
   <path d="m89.252 1.1251 0.0476-0.0477"/>
   <path d="m89.299 1.0774 0.0952-0.0476"/>
   <path d="m89.395 1.0298h0.2381"/>
   <path d="m89.633 1.0298 0.1429 0.0476"/>
   <path d="m90.109 1.0298 0.2381 1"/>
   <path d="m90.347 2.0298 0.1905-0.7143"/>
   <path d="m90.538 1.3155 0.1905 0.7143"/>
   <path d="m90.728 2.0298 0.2381-1"/>
   <path d="m91.252 1.0298h0.619"/>
   <path d="m91.871 1.0298-0.3333 0.381"/>
   <path d="m91.538 1.4108h0.1429"/>
   <path d="m91.68 1.4108 0.0952 0.0476"/>
   <path d="m91.776 1.4584 0.0476 0.0476"/>
   <path d="m91.823 1.506 0.0476 0.0952"/>
   <path d="m91.871 1.6012v0.2381"/>
   <path d="m91.871 1.8393-0.0476 0.0953"/>
   <path d="m91.823 1.9346-0.0476 0.0476"/>
   <path d="m91.776 1.9822-0.0952 0.0476"/>
   <path d="m91.68 2.0298h-0.2858"/>
   <path d="m91.395 2.0298-0.0952-0.0476"/>
   <path d="m91.299 1.9822-0.0476-0.0476"/>
  </g>
  <text x="109.5875" y="2.0750" font-size="1.3333" opacity="0" stroke-opacity="0" text-anchor="middle" lengthAdjust="spacingAndGlyphs" textLength="3.2976">SW4</text>
  <g class="stroked-text">
   <desc>SW4</desc>
   <path d="m108.25 1.9822 0.1428 0.0476"/>
   <path d="m108.4 2.0298h0.2381"/>
   <path d="m108.64 2.0298 0.0953-0.0476"/>
   <path d="m108.73 1.9822 0.0476-0.0476"/>
   <path d="m108.78 1.9346 0.0476-0.0953"/>
   <path d="m108.83 1.8393v-0.0952"/>
   <path d="m108.83 1.7441-0.0476-0.0952"/>
   <path d="m108.78 1.6489-0.0476-0.0477"/>
   <path d="m108.73 1.6012-0.0953-0.0476"/>
   <path d="m108.64 1.5536-0.1905-0.0476"/>
   <path d="m108.44 1.506-0.0952-0.0476"/>
   <path d="m108.35 1.4584-0.0476-0.0476"/>
   <path d="m108.3 1.4108-0.0476-0.0953"/>
   <path d="m108.25 1.3155v-0.0952"/>
   <path d="m108.25 1.2203 0.0476-0.0952"/>
   <path d="m108.3 1.1251 0.0476-0.0477"/>
   <path d="m108.35 1.0774 0.0952-0.0476"/>
   <path d="m108.44 1.0298h0.2381"/>
   <path d="m108.68 1.0298 0.1429 0.0476"/>
   <path d="m109.16 1.0298 0.2381 1"/>
   <path d="m109.4 2.0298 0.1905-0.7143"/>
   <path d="m109.59 1.3155 0.1905 0.7143"/>
   <path d="m109.78 2.0298 0.2381-1"/>
   <path d="m110.83 1.3632v0.6666"/>
   <path d="m110.59 0.9822-0.2381 0.7143"/>
   <path d="m110.35 1.6965h0.6191"/>
  </g>
  <text x="176.2625" y="2.0750" font-size="1.3333" opacity="0" stroke-opacity="0" text-anchor="middle" lengthAdjust="spacingAndGlyphs" textLength="3.2976">SW8</text>
  <g class="stroked-text">
   <desc>SW8</desc>
   <path d="m174.93 1.9822 0.1428 0.0476"/>
   <path d="m175.07 2.0298h0.2381"/>
   <path d="m175.31 2.0298 0.0953-0.0476"/>
   <path d="m175.41 1.9822 0.0476-0.0476"/>
   <path d="m175.45 1.9346 0.0476-0.0953"/>
   <path d="m175.5 1.8393v-0.0952"/>
   <path d="m175.5 1.7441-0.0476-0.0952"/>
   <path d="m175.45 1.6489-0.0476-0.0477"/>
   <path d="m175.41 1.6012-0.0953-0.0476"/>
   <path d="m175.31 1.5536-0.1905-0.0476"/>
   <path d="m175.12 1.506-0.0952-0.0476"/>
   <path d="m175.02 1.4584-0.0476-0.0476"/>
   <path d="m174.98 1.4108-0.0476-0.0953"/>
   <path d="m174.93 1.3155v-0.0952"/>
   <path d="m174.93 1.2203 0.0476-0.0952"/>
   <path d="m174.98 1.1251 0.0476-0.0477"/>
   <path d="m175.02 1.0774 0.0952-0.0476"/>
   <path d="m175.12 1.0298h0.2381"/>
   <path d="m175.36 1.0298 0.1429 0.0476"/>
   <path d="m175.83 1.0298 0.2381 1"/>
   <path d="m176.07 2.0298 0.1905-0.7143"/>
   <path d="m176.26 1.3155 0.1905 0.7143"/>
   <path d="m176.45 2.0298 0.2381-1"/>
   <path d="m177.21 1.4584-0.0953-0.0476"/>
   <path d="m177.12 1.4108-0.0476-0.0476"/>
   <path d="m177.07 1.3632-0.0476-0.0953"/>
   <path d="m177.02 1.2679v-0.0476"/>
   <path d="m177.02 1.2203 0.0476-0.0952"/>
   <path d="m177.07 1.1251 0.0476-0.0477"/>
   <path d="m177.12 1.0774 0.0953-0.0476"/>
   <path d="m177.21 1.0298h0.1905"/>
   <path d="m177.41 1.0298 0.0952 0.0476"/>
   <path d="m177.5 1.0774 0.0476 0.0477"/>
   <path d="m177.55 1.1251 0.0476 0.0952"/>
   <path d="m177.6 1.2203v0.0476"/>
   <path d="m177.6 1.2679-0.0476 0.0953"/>
   <path d="m177.55 1.3632-0.0476 0.0476"/>
   <path d="m177.5 1.4108-0.0952 0.0476"/>
   <path d="m177.41 1.4584h-0.1905"/>
   <path d="m177.21 1.4584-0.0953 0.0476"/>
   <path d="m177.12 1.506-0.0476 0.0476"/>
   <path d="m177.07 1.5536-0.0476 0.0953"/>
   <path d="m177.02 1.6489v0.1904"/>
   <path d="m177.02 1.8393 0.0476 0.0953"/>
   <path d="m177.07 1.9346 0.0476 0.0476"/>
   <path d="m177.12 1.9822 0.0953 0.0476"/>
   <path d="m177.21 2.0298h0.1905"/>
   <path d="m177.41 2.0298 0.0952-0.0476"/>
   <path d="m177.5 1.9822 0.0476-0.0476"/>
   <path d="m177.55 1.9346 0.0476-0.0953"/>
   <path d="m177.6 1.8393v-0.1904"/>
   <path d="m177.6 1.6489-0.0476-0.0953"/>
   <path d="m177.55 1.5536-0.0476-0.0476"/>
   <path d="m177.5 1.506-0.0952-0.0476"/>
  </g>
  <text x="195.3125" y="2.0750" font-size="1.3333" opacity="0" stroke-opacity="0" text-anchor="middle" lengthAdjust="spacingAndGlyphs" textLength="3.2976">SW9</text>
  <g class="stroked-text">
   <desc>SW9</desc>
   <path d="m193.98 1.9822 0.1428 0.0476"/>
   <path d="m194.12 2.0298h0.2381"/>
   <path d="m194.36 2.0298 0.0953-0.0476"/>
   <path d="m194.46 1.9822 0.0476-0.0476"/>
   <path d="m194.5 1.9346 0.0476-0.0953"/>
   <path d="m194.55 1.8393v-0.0952"/>
   <path d="m194.55 1.7441-0.0476-0.0952"/>
   <path d="m194.5 1.6489-0.0476-0.0477"/>
   <path d="m194.46 1.6012-0.0953-0.0476"/>
   <path d="m194.36 1.5536-0.1905-0.0476"/>
   <path d="m194.17 1.506-0.0952-0.0476"/>
   <path d="m194.07 1.4584-0.0476-0.0476"/>
   <path d="m194.03 1.4108-0.0476-0.0953"/>
   <path d="m193.98 1.3155v-0.0952"/>
   <path d="m193.98 1.2203 0.0476-0.0952"/>
   <path d="m194.03 1.1251 0.0476-0.0477"/>
   <path d="m194.07 1.0774 0.0952-0.0476"/>
   <path d="m194.17 1.0298h0.2381"/>
   <path d="m194.41 1.0298 0.1429 0.0476"/>
   <path d="m194.88 1.0298 0.2381 1"/>
   <path d="m195.12 2.0298 0.1905-0.7143"/>
   <path d="m195.31 1.3155 0.1905 0.7143"/>
   <path d="m195.5 2.0298 0.2381-1"/>
   <path d="m196.17 2.0298h0.1905"/>
   <path d="m196.36 2.0298 0.0953-0.0476"/>
   <path d="m196.46 1.9822 0.0476-0.0476"/>
   <path d="m196.5 1.9346 0.0952-0.1429"/>
   <path d="m196.6 1.7917 0.0476-0.1905"/>
   <path d="m196.65 1.6012v-0.3809"/>
   <path d="m196.65 1.2203-0.0476-0.0952"/>
   <path d="m196.6 1.1251-0.0476-0.0477"/>
   <path d="m196.55 1.0774-0.0952-0.0476"/>
   <path d="m196.46 1.0298h-0.1905"/>
   <path d="m196.26 1.0298-0.0953 0.0476"/>
   <path d="m196.17 1.0774-0.0476 0.0477"/>
   <path d="m196.12 1.1251-0.0476 0.0952"/>
   <path d="m196.07 1.2203v0.2381"/>
   <path d="m196.07 1.4584 0.0476 0.0952"/>
   <path d="m196.12 1.5536 0.0476 0.0476"/>
   <path d="m196.17 1.6012 0.0953 0.0477"/>
   <path d="m196.26 1.6489h0.1905"/>
   <path d="m196.46 1.6489 0.0952-0.0477"/>
   <path d="m196.55 1.6012 0.0476-0.0476"/>
   <path d="m196.6 1.5536 0.0476-0.0952"/>
  </g>
  <text x="281.0375" y="2.0750" font-size="1.3333" opacity="0" stroke-opacity="0" text-anchor="middle" lengthAdjust="spacingAndGlyphs" textLength="4.2500">SW13</text>
  <g class="stroked-text">
   <desc>SW13</desc>
   <path d="m279.23 1.9822 0.1428 0.0476"/>
   <path d="m279.37 2.0298h0.2381"/>
   <path d="m279.61 2.0298 0.0953-0.0476"/>
   <path d="m279.7 1.9822 0.0476-0.0476"/>
   <path d="m279.75 1.9346 0.0476-0.0953"/>
   <path d="m279.8 1.8393v-0.0952"/>
   <path d="m279.8 1.7441-0.0476-0.0952"/>
   <path d="m279.75 1.6489-0.0476-0.0477"/>
   <path d="m279.7 1.6012-0.0953-0.0476"/>
   <path d="m279.61 1.5536-0.1904-0.0476"/>
   <path d="m279.42 1.506-0.0953-0.0476"/>
   <path d="m279.32 1.4584-0.0476-0.0476"/>
   <path d="m279.28 1.4108-0.0476-0.0953"/>
   <path d="m279.23 1.3155v-0.0952"/>
   <path d="m279.23 1.2203 0.0476-0.0952"/>
   <path d="m279.28 1.1251 0.0476-0.0477"/>
   <path d="m279.32 1.0774 0.0953-0.0476"/>
   <path d="m279.42 1.0298h0.238"/>
   <path d="m279.66 1.0298 0.1429 0.0476"/>
   <path d="m280.13 1.0298 0.2381 1"/>
   <path d="m280.37 2.0298 0.1905-0.7143"/>
   <path d="m280.56 1.3155 0.1905 0.7143"/>
   <path d="m280.75 2.0298 0.2381-1"/>
   <path d="m281.89 2.0298h-0.5714"/>
   <path d="m281.61 2.0298v-1"/>
   <path d="m281.61 1.0298-0.0952 0.1429"/>
   <path d="m281.51 1.1727-0.0952 0.0952"/>
   <path d="m281.42 1.2679-0.0953 0.0476"/>
   <path d="m282.23 1.0298h0.619"/>
   <path d="m282.85 1.0298-0.3333 0.381"/>
   <path d="m282.51 1.4108h0.1428"/>
   <path d="m282.66 1.4108 0.0953 0.0476"/>
   <path d="m282.75 1.4584 0.0476 0.0476"/>
   <path d="m282.8 1.506 0.0476 0.0952"/>
   <path d="m282.85 1.6012v0.2381"/>
   <path d="m282.85 1.8393-0.0476 0.0953"/>
   <path d="m282.8 1.9346-0.0476 0.0476"/>
   <path d="m282.75 1.9822-0.0953 0.0476"/>
   <path d="m282.66 2.0298h-0.2857"/>
   <path d="m282.37 2.0298-0.0952-0.0476"/>
   <path d="m282.28 1.9822-0.0476-0.0476"/>
  </g>
  <text x="157.2125" y="2.0750" font-size="1.3333" opacity="0" stroke-opacity="0" text-anchor="middle" lengthAdjust="spacingAndGlyphs" textLength="3.2976">SW7</text>
  <g class="stroked-text">
   <desc>SW7</desc>
   <path d="m155.88 1.9822 0.1428 0.0476"/>
   <path d="m156.02 2.0298h0.2381"/>
   <path d="m156.26 2.0298 0.0953-0.0476"/>
   <path d="m156.36 1.9822 0.0476-0.0476"/>
   <path d="m156.4 1.9346 0.0476-0.0953"/>
   <path d="m156.45 1.8393v-0.0952"/>
   <path d="m156.45 1.7441-0.0476-0.0952"/>
   <path d="m156.4 1.6489-0.0476-0.0477"/>
   <path d="m156.36 1.6012-0.0953-0.0476"/>
   <path d="m156.26 1.5536-0.1905-0.0476"/>
   <path d="m156.07 1.506-0.0952-0.0476"/>
   <path d="m155.97 1.4584-0.0476-0.0476"/>
   <path d="m155.93 1.4108-0.0476-0.0953"/>
   <path d="m155.88 1.3155v-0.0952"/>
   <path d="m155.88 1.2203 0.0476-0.0952"/>
   <path d="m155.93 1.1251 0.0476-0.0477"/>
   <path d="m155.97 1.0774 0.0952-0.0476"/>
   <path d="m156.07 1.0298h0.2381"/>
   <path d="m156.31 1.0298 0.1429 0.0476"/>
   <path d="m156.78 1.0298 0.2381 1"/>
   <path d="m157.02 2.0298 0.1905-0.7143"/>
   <path d="m157.21 1.3155 0.1905 0.7143"/>
   <path d="m157.4 2.0298 0.2381-1"/>
   <path d="m157.93 1.0298h0.6667"/>
   <path d="m158.59 1.0298-0.4286 1"/>
  </g>
  <text x="9.5750" y="2.0750" font-size="1.3333" opacity="0" stroke-opacity="0" text-anchor="middle" lengthAdjust="spacingAndGlyphs" textLength="3.2976">SW5</text>
  <g class="stroked-text">
   <desc>SW5</desc>
   <path d="m8.2417 1.9822 0.1428 0.0476"/>
   <path d="m8.3845 2.0298h0.2381"/>
   <path d="m8.6226 2.0298 0.0953-0.0476"/>
   <path d="m8.7179 1.9822 0.0476-0.0476"/>
   <path d="m8.7655 1.9346 0.0476-0.0953"/>
   <path d="m8.8131 1.8393v-0.0952"/>
   <path d="m8.8131 1.7441-0.0476-0.0952"/>
   <path d="m8.7655 1.6489-0.0476-0.0477"/>
   <path d="m8.7179 1.6012-0.0953-0.0476"/>
   <path d="m8.6226 1.5536-0.1905-0.0476"/>
   <path d="m8.4321 1.506-0.0952-0.0476"/>
   <path d="m8.3369 1.4584-0.0476-0.0476"/>
   <path d="m8.2893 1.4108-0.0476-0.0953"/>
   <path d="m8.2417 1.3155v-0.0952"/>
   <path d="m8.2417 1.2203 0.0476-0.0952"/>
   <path d="m8.2893 1.1251 0.0476-0.0477"/>
   <path d="m8.3369 1.0774 0.0952-0.0476"/>
   <path d="m8.4321 1.0298h0.2381"/>
   <path d="m8.6702 1.0298 0.1429 0.0476"/>
   <path d="m9.1464 1.0298 0.2381 1"/>
   <path d="m9.3845 2.0298 0.1905-0.7143"/>
   <path d="m9.575 1.3155 0.1905 0.7143"/>
   <path d="m9.7655 2.0298 0.2381-1"/>
   <path d="m10.861 1.0298h-0.4762"/>
   <path d="m10.384 1.0298-0.0476 0.4762"/>
   <path d="m10.337 1.506 0.0476-0.0476"/>
   <path d="m10.384 1.4584 0.0953-0.0476"/>
   <path d="m10.48 1.4108h0.2381"/>
   <path d="m10.718 1.4108 0.0952 0.0476"/>
   <path d="m10.813 1.4584 0.0476 0.0476"/>
   <path d="m10.861 1.506 0.0476 0.0952"/>
   <path d="m10.908 1.6012v0.2381"/>
   <path d="m10.908 1.8393-0.0476 0.0953"/>
   <path d="m10.861 1.9346-0.0476 0.0476"/>
   <path d="m10.813 1.9822-0.0952 0.0476"/>
   <path d="m10.718 2.0298h-0.2381"/>
   <path d="m10.48 2.0298-0.0953-0.0476"/>
   <path d="m10.384 1.9822-0.0476-0.0476"/>
  </g>
  <text x="138.1625" y="2.0750" font-size="1.3333" opacity="0" stroke-opacity="0" text-anchor="middle" lengthAdjust="spacingAndGlyphs" textLength="3.2976">SW6</text>
  <g class="stroked-text">
   <desc>SW6</desc>
   <path d="m136.83 1.9822 0.1428 0.0476"/>
   <path d="m136.97 2.0298h0.2381"/>
   <path d="m137.21 2.0298 0.0953-0.0476"/>
   <path d="m137.31 1.9822 0.0476-0.0476"/>
   <path d="m137.35 1.9346 0.0476-0.0953"/>
   <path d="m137.4 1.8393v-0.0952"/>
   <path d="m137.4 1.7441-0.0476-0.0952"/>
   <path d="m137.35 1.6489-0.0476-0.0477"/>
   <path d="m137.31 1.6012-0.0953-0.0476"/>
   <path d="m137.21 1.5536-0.1905-0.0476"/>
   <path d="m137.02 1.506-0.0952-0.0476"/>
   <path d="m136.92 1.4584-0.0476-0.0476"/>
   <path d="m136.88 1.4108-0.0476-0.0953"/>
   <path d="m136.83 1.3155v-0.0952"/>
   <path d="m136.83 1.2203 0.0476-0.0952"/>
   <path d="m136.88 1.1251 0.0476-0.0477"/>
   <path d="m136.92 1.0774 0.0952-0.0476"/>
   <path d="m137.02 1.0298h0.2381"/>
   <path d="m137.26 1.0298 0.1429 0.0476"/>
   <path d="m137.73 1.0298 0.2381 1"/>
   <path d="m137.97 2.0298 0.1905-0.7143"/>
   <path d="m138.16 1.3155 0.1905 0.7143"/>
   <path d="m138.35 2.0298 0.2381-1"/>
   <path d="m139.4 1.0298h-0.1905"/>
   <path d="m139.21 1.0298-0.0952 0.0476"/>
   <path d="m139.11 1.0774-0.0476 0.0477"/>
   <path d="m139.07 1.1251-0.0953 0.1428"/>
   <path d="m138.97 1.2679-0.0476 0.1905"/>
   <path d="m138.92 1.4584v0.3809"/>
   <path d="m138.92 1.8393 0.0476 0.0953"/>
   <path d="m138.97 1.9346 0.0476 0.0476"/>
   <path d="m139.02 1.9822 0.0953 0.0476"/>
   <path d="m139.11 2.0298h0.1905"/>
   <path d="m139.31 2.0298 0.0952-0.0476"/>
   <path d="m139.4 1.9822 0.0476-0.0476"/>
   <path d="m139.45 1.9346 0.0476-0.0953"/>
   <path d="m139.5 1.8393v-0.2381"/>
   <path d="m139.5 1.6012-0.0476-0.0952"/>
   <path d="m139.45 1.506-0.0476-0.0476"/>
   <path d="m139.4 1.4584-0.0952-0.0476"/>
   <path d="m139.31 1.4108h-0.1905"/>
   <path d="m139.11 1.4108-0.0953 0.0476"/>
   <path d="m139.02 1.4584-0.0476 0.0476"/>
   <path d="m138.97 1.506-0.0476 0.0952"/>
  </g>
 </g>
 <g fill="none" stroke="#8BE9FD" stroke-linecap="round" stroke-linejoin="round" stroke-width=".12">
  <path d="m64.388 2.475v14.2"/>
  <path d="m64.388 16.675h14.2"/>
  <path d="m78.588 2.475h-14.2"/>
  <path d="m78.588 16.675v-14.2"/>
  <path d="m235.84 2.475v14.2"/>
  <path d="m235.84 16.675h14.2"/>
  <path d="m250.04 2.475h-14.2"/>
  <path d="m250.04 16.675v-14.2"/>
  <path d="m45.338 2.475v14.2"/>
  <path d="m45.338 16.675h14.2"/>
  <path d="m59.538 2.475h-14.2"/>
  <path d="m59.538 16.675v-14.2"/>
  <path d="m216.79 2.475v14.2"/>
  <path d="m216.79 16.675h14.2"/>
  <path d="m230.99 2.475h-14.2"/>
  <path d="m230.99 16.675v-14.2"/>
  <path d="m254.89 2.475v14.2"/>
  <path d="m254.89 16.675h14.2"/>
  <path d="m269.09 2.475h-14.2"/>
  <path d="m269.09 16.675v-14.2"/>
  <path d="m83.438 2.475v14.2"/>
  <path d="m83.438 16.675h14.2"/>
  <path d="m97.638 2.475h-14.2"/>
  <path d="m97.638 16.675v-14.2"/>
  <path d="m102.49 2.475v14.2"/>
  <path d="m102.49 16.675h14.2"/>
  <path d="m116.69 2.475h-14.2"/>
  <path d="m116.69 16.675v-14.2"/>
  <path d="m169.16 2.475v14.2"/>
  <path d="m169.16 16.675h14.2"/>
  <path d="m183.36 2.475h-14.2"/>
  <path d="m183.36 16.675v-14.2"/>
  <path d="m188.21 2.475v14.2"/>
  <path d="m188.21 16.675h14.2"/>
  <path d="m202.41 2.475h-14.2"/>
  <path d="m202.41 16.675v-14.2"/>
  <path d="m273.94 2.475v14.2"/>
  <path d="m273.94 16.675h14.2"/>
  <path d="m288.14 2.475h-14.2"/>
  <path d="m288.14 16.675v-14.2"/>
  <path d="m150.11 2.475v14.2"/>
  <path d="m150.11 16.675h14.2"/>
  <path d="m164.31 2.475h-14.2"/>
  <path d="m164.31 16.675v-14.2"/>
  <path d="m2.475 2.475v14.2"/>
  <path d="m2.475 16.675h14.2"/>
  <path d="m16.675 2.475h-14.2"/>
  <path d="m16.675 16.675v-14.2"/>
  <path d="m131.06 2.475v14.2"/>
  <path d="m131.06 16.675h14.2"/>
  <path d="m145.26 2.475h-14.2"/>
  <path d="m145.26 16.675v-14.2"/>
 </g>
 <g fill="#8BE9FD">
  <circle cx="66.408" cy="9.575" r=".875"/>
  <circle cx="71.488" cy="9.575" r="2"/>
  <circle cx="76.568" cy="9.575" r=".875"/>
  <circle cx="67.678" cy="7.035" r=".75"/>
  <circle cx="74.028" cy="4.495" r=".75"/>
  <circle cx="237.86" cy="9.575" r=".875"/>
  <circle cx="242.94" cy="9.575" r="2"/>
  <circle cx="248.02" cy="9.575" r=".875"/>
  <circle cx="239.13" cy="7.035" r=".75"/>
  <circle cx="245.48" cy="4.495" r=".75"/>
  <circle cx="47.358" cy="9.575" r=".875"/>
  <circle cx="52.438" cy="9.575" r="2"/>
  <circle cx="57.518" cy="9.575" r=".875"/>
  <circle cx="48.628" cy="7.035" r=".75"/>
  <circle cx="54.978" cy="4.495" r=".75"/>
  <circle cx="218.81" cy="9.575" r=".875"/>
  <circle cx="223.89" cy="9.575" r="2"/>
  <circle cx="228.97" cy="9.575" r=".875"/>
  <circle cx="220.08" cy="7.035" r=".75"/>
  <circle cx="226.43" cy="4.495" r=".75"/>
  <circle cx="256.91" cy="9.575" r=".875"/>
  <circle cx="261.99" cy="9.575" r="2"/>
  <circle cx="267.07" cy="9.575" r=".875"/>
  <circle cx="258.18" cy="7.035" r=".75"/>
  <circle cx="264.53" cy="4.495" r=".75"/>
  <circle cx="85.458" cy="9.575" r=".875"/>
  <circle cx="90.538" cy="9.575" r="2"/>
  <circle cx="95.618" cy="9.575" r=".875"/>
  <circle cx="86.728" cy="7.035" r=".75"/>
  <circle cx="93.078" cy="4.495" r=".75"/>
  <circle cx="104.51" cy="9.575" r=".875"/>
  <circle cx="109.59" cy="9.575" r="2"/>
  <circle cx="114.67" cy="9.575" r=".875"/>
  <circle cx="105.78" cy="7.035" r=".75"/>
  <circle cx="112.13" cy="4.495" r=".75"/>
  <circle cx="171.18" cy="9.575" r=".875"/>
  <circle cx="176.26" cy="9.575" r="2"/>
  <circle cx="181.34" cy="9.575" r=".875"/>
  <circle cx="172.45" cy="7.035" r=".75"/>
  <circle cx="178.8" cy="4.495" r=".75"/>
  <circle cx="190.23" cy="9.575" r=".875"/>
  <circle cx="195.31" cy="9.575" r="2"/>
  <circle cx="200.39" cy="9.575" r=".875"/>
  <circle cx="191.5" cy="7.035" r=".75"/>
  <circle cx="197.85" cy="4.495" r=".75"/>
  <circle cx="275.96" cy="9.575" r=".875"/>
  <circle cx="281.04" cy="9.575" r="2"/>
  <circle cx="286.12" cy="9.575" r=".875"/>
  <circle cx="277.23" cy="7.035" r=".75"/>
  <circle cx="283.58" cy="4.495" r=".75"/>
  <circle cx="152.13" cy="9.575" r=".875"/>
  <circle cx="157.21" cy="9.575" r="2"/>
  <circle cx="162.29" cy="9.575" r=".875"/>
  <circle cx="153.4" cy="7.035" r=".75"/>
  <circle cx="159.75" cy="4.495" r=".75"/>
  <circle cx="4.495" cy="9.575" r=".875"/>
  <circle cx="9.575" cy="9.575" r="2"/>
  <circle cx="14.655" cy="9.575" r=".875"/>
  <circle cx="5.765" cy="7.035" r=".75"/>
  <circle cx="12.115" cy="4.495" r=".75"/>
  <circle cx="133.08" cy="9.575" r=".875"/>
  <circle cx="138.16" cy="9.575" r="2"/>
  <circle cx="143.24" cy="9.575" r=".875"/>
  <circle cx="134.35" cy="7.035" r=".75"/>
  <circle cx="140.7" cy="4.495" r=".75"/>
 </g>
 <g fill="none" stroke="#BD93F9" stroke-linecap="round" stroke-linejoin="round" stroke-width=".15">
  <g transform="rotate(-90 288.02 13.702)">
   <text transform="scale(-1 1) translate(-576.04)" x="288.0225" y="14.2020" font-size="1.3333" opacity="0" stroke-opacity="0" text-anchor="middle" lengthAdjust="spacingAndGlyphs" textLength="3.1548">D13</text>
  </g>
  <g class="stroked-text">
   <desc>D13</desc>
   <path d="m288.48 12.488h-1"/>
   <path d="m287.48 12.488v0.2381"/>
   <path d="m287.48 12.726 0.0476 0.1429"/>
   <path d="m287.52 12.869 0.0953 0.0952"/>
   <path d="m287.62 12.964 0.0952 0.0476"/>
   <path d="m287.72 13.012 0.1905 0.0476"/>
   <path d="m287.91 13.059h0.1428"/>
   <path d="m288.05 13.059 0.1905-0.0476"/>
   <path d="m288.24 13.012 0.0953-0.0476"/>
   <path d="m288.33 12.964 0.0952-0.0952"/>
   <path d="m288.43 12.869 0.0476-0.1429"/>
   <path d="m288.48 12.726v-0.2381"/>
   <path d="m288.48 14.012v-0.5714"/>
   <path d="m288.48 13.726h-1"/>
   <path d="m287.48 13.726 0.1429-0.0952"/>
   <path d="m287.62 13.631 0.0952-0.0953"/>
   <path d="m287.72 13.535 0.0476-0.0952"/>
   <path d="m287.48 14.345v0.619"/>
   <path d="m287.48 14.964 0.381-0.3333"/>
   <path d="m287.86 14.631v0.1428"/>
   <path d="m287.86 14.773 0.0476 0.0953"/>
   <path d="m287.91 14.869 0.0476 0.0476"/>
   <path d="m287.95 14.916 0.0952 0.0476"/>
   <path d="m288.05 14.964h0.2381"/>
   <path d="m288.29 14.964 0.0953-0.0476"/>
   <path d="m288.38 14.916 0.0476-0.0476"/>
   <path d="m288.43 14.869 0.0476-0.0953"/>
   <path d="m288.48 14.773v-0.2857"/>
   <path d="m288.48 14.488-0.0476-0.0952"/>
   <path d="m288.43 14.392-0.0476-0.0476"/>
  </g>
  <g transform="rotate(-90 249.92 13.702)">
   <text transform="scale(-1 1) translate(-499.84)" x="249.9225" y="14.2020" font-size="1.3333" opacity="0" stroke-opacity="0" text-anchor="middle" lengthAdjust="spacingAndGlyphs" textLength="3.1548">D11</text>
  </g>
  <g class="stroked-text">
   <desc>D11</desc>
   <path d="m250.38 12.488h-1"/>
   <path d="m249.38 12.488v0.2381"/>
   <path d="m249.38 12.726 0.0476 0.1429"/>
   <path d="m249.42 12.869 0.0953 0.0952"/>
   <path d="m249.52 12.964 0.0952 0.0476"/>
   <path d="m249.62 13.012 0.1905 0.0476"/>
   <path d="m249.81 13.059h0.1428"/>
   <path d="m249.95 13.059 0.1905-0.0476"/>
   <path d="m250.14 13.012 0.0953-0.0476"/>
   <path d="m250.23 12.964 0.0952-0.0952"/>
   <path d="m250.33 12.869 0.0476-0.1429"/>
   <path d="m250.38 12.726v-0.2381"/>
   <path d="m250.38 14.012v-0.5714"/>
   <path d="m250.38 13.726h-1"/>
   <path d="m249.38 13.726 0.1429-0.0952"/>
   <path d="m249.52 13.631 0.0952-0.0953"/>
   <path d="m249.62 13.535 0.0476-0.0952"/>
   <path d="m250.38 14.964v-0.5714"/>
   <path d="m250.38 14.678h-1"/>
   <path d="m249.38 14.678 0.1429-0.0952"/>
   <path d="m249.52 14.583 0.0952-0.0953"/>
   <path d="m249.62 14.488 0.0476-0.0952"/>
  </g>
  <g transform="rotate(-90 268.97 13.702)">
   <text transform="scale(-1 1) translate(-537.94)" x="268.9725" y="14.2020" font-size="1.3333" opacity="0" stroke-opacity="0" text-anchor="middle" lengthAdjust="spacingAndGlyphs" textLength="3.1548">D12</text>
  </g>
  <g class="stroked-text">
   <desc>D12</desc>
   <path d="m269.43 12.488h-1"/>
   <path d="m268.43 12.488v0.2381"/>
   <path d="m268.43 12.726 0.0476 0.1429"/>
   <path d="m268.47 12.869 0.0953 0.0952"/>
   <path d="m268.57 12.964 0.0952 0.0476"/>
   <path d="m268.67 13.012 0.1905 0.0476"/>
   <path d="m268.86 13.059h0.1428"/>
   <path d="m269 13.059 0.1905-0.0476"/>
   <path d="m269.19 13.012 0.0953-0.0476"/>
   <path d="m269.28 12.964 0.0952-0.0952"/>
   <path d="m269.38 12.869 0.0476-0.1429"/>
   <path d="m269.43 12.726v-0.2381"/>
   <path d="m269.43 14.012v-0.5714"/>
   <path d="m269.43 13.726h-1"/>
   <path d="m268.43 13.726 0.1429-0.0952"/>
   <path d="m268.57 13.631 0.0952-0.0953"/>
   <path d="m268.67 13.535 0.0476-0.0952"/>
   <path d="m268.52 14.392-0.0477 0.0476"/>
   <path d="m268.47 14.44-0.0476 0.0952"/>
   <path d="m268.43 14.535v0.2381"/>
   <path d="m268.43 14.773 0.0476 0.0953"/>
   <path d="m268.47 14.869 0.0477 0.0476"/>
   <path d="m268.52 14.916 0.0952 0.0476"/>
   <path d="m268.62 14.964h0.0952"/>
   <path d="m268.71 14.964 0.1429-0.0476"/>
   <path d="m268.86 14.916 0.5714-0.5714"/>
   <path d="m269.43 14.345v0.619"/>
  </g>
  <g transform="rotate(-90 78.472 13.702)">
   <text transform="scale(-1 1) translate(-156.94)" x="78.4725" y="14.2020" font-size="1.3333" opacity="0" stroke-opacity="0" text-anchor="middle" lengthAdjust="spacingAndGlyphs" textLength="2.2024">D2</text>
  </g>
  <g class="stroked-text">
   <desc>D2</desc>
   <path d="m78.927 12.964h-1"/>
   <path d="m77.927 12.964v0.2381"/>
   <path d="m77.927 13.202 0.0476 0.1429"/>
   <path d="m77.975 13.345 0.0953 0.0952"/>
   <path d="m78.07 13.44 0.0952 0.0476"/>
   <path d="m78.165 13.488 0.1905 0.0476"/>
   <path d="m78.356 13.535h0.1428"/>
   <path d="m78.499 13.535 0.1905-0.0476"/>
   <path d="m78.689 13.488 0.0953-0.0476"/>
   <path d="m78.784 13.44 0.0952-0.0952"/>
   <path d="m78.88 13.345 0.0476-0.1429"/>
   <path d="m78.927 13.202v-0.2381"/>
   <path d="m78.023 13.916-0.0477 0.0476"/>
   <path d="m77.975 13.964-0.0476 0.0952"/>
   <path d="m77.927 14.059v0.2381"/>
   <path d="m77.927 14.297 0.0476 0.0953"/>
   <path d="m77.975 14.392 0.0477 0.0476"/>
   <path d="m78.023 14.44 0.0952 0.0476"/>
   <path d="m78.118 14.488h0.0952"/>
   <path d="m78.213 14.488 0.1429-0.0476"/>
   <path d="m78.356 14.44 0.5714-0.5714"/>
   <path d="m78.927 13.869v0.619"/>
  </g>
  <g transform="rotate(-90 97.522 13.702)">
   <text transform="scale(-1 1) translate(-195.04)" x="97.5225" y="14.2020" font-size="1.3333" opacity="0" stroke-opacity="0" text-anchor="middle" lengthAdjust="spacingAndGlyphs" textLength="2.2024">D3</text>
  </g>
  <g class="stroked-text">
   <desc>D3</desc>
   <path d="m97.977 12.964h-1"/>
   <path d="m96.977 12.964v0.2381"/>
   <path d="m96.977 13.202 0.0476 0.1429"/>
   <path d="m97.025 13.345 0.0953 0.0952"/>
   <path d="m97.12 13.44 0.0952 0.0476"/>
   <path d="m97.215 13.488 0.1905 0.0476"/>
   <path d="m97.406 13.535h0.1428"/>
   <path d="m97.549 13.535 0.1905-0.0476"/>
   <path d="m97.739 13.488 0.0953-0.0476"/>
   <path d="m97.834 13.44 0.0952-0.0952"/>
   <path d="m97.93 13.345 0.0476-0.1429"/>
   <path d="m97.977 13.202v-0.2381"/>
   <path d="m96.977 13.869v0.619"/>
   <path d="m96.977 14.488 0.381-0.3333"/>
   <path d="m97.358 14.154v0.1428"/>
   <path d="m97.358 14.297 0.0476 0.0953"/>
   <path d="m97.406 14.392 0.0476 0.0476"/>
   <path d="m97.454 14.44 0.0952 0.0476"/>
   <path d="m97.549 14.488h0.2381"/>
   <path d="m97.787 14.488 0.0953-0.0476"/>
   <path d="m97.882 14.44 0.0476-0.0476"/>
   <path d="m97.93 14.392 0.0476-0.0953"/>
   <path d="m97.977 14.297v-0.2857"/>
   <path d="m97.977 14.012-0.0476-0.0952"/>
   <path d="m97.93 13.916-0.0476-0.0476"/>
  </g>
  <g transform="rotate(-90 16.56 13.702)">
   <text transform="scale(-1 1) translate(-33.12)" x="16.5600" y="14.2020" font-size="1.3333" opacity="0" stroke-opacity="0" text-anchor="middle" lengthAdjust="spacingAndGlyphs" textLength="2.2024">D5</text>
  </g>
  <g class="stroked-text">
   <desc>D5</desc>
   <path d="m17.015 12.964h-1"/>
   <path d="m16.015 12.964v0.2381"/>
   <path d="m16.015 13.202 0.0476 0.1429"/>
   <path d="m16.062 13.345 0.0953 0.0952"/>
   <path d="m16.158 13.44 0.0952 0.0476"/>
   <path d="m16.253 13.488 0.1905 0.0476"/>
   <path d="m16.443 13.535h0.1428"/>
   <path d="m16.586 13.535 0.1905-0.0476"/>
   <path d="m16.777 13.488 0.0953-0.0476"/>
   <path d="m16.872 13.44 0.0952-0.0952"/>
   <path d="m16.967 13.345 0.0476-0.1429"/>
   <path d="m17.015 13.202v-0.2381"/>
   <path d="m16.015 14.44v-0.4762"/>
   <path d="m16.015 13.964 0.4762-0.0476"/>
   <path d="m16.491 13.916-0.0476 0.0476"/>
   <path d="m16.443 13.964-0.0476 0.0952"/>
   <path d="m16.396 14.059v0.2381"/>
   <path d="m16.396 14.297 0.0476 0.0953"/>
   <path d="m16.443 14.392 0.0476 0.0476"/>
   <path d="m16.491 14.44 0.0952 0.0476"/>
   <path d="m16.586 14.488h0.2381"/>
   <path d="m16.824 14.488 0.0953-0.0476"/>
   <path d="m16.92 14.44 0.0476-0.0476"/>
   <path d="m16.967 14.392 0.0476-0.0953"/>
   <path d="m17.015 14.297v-0.2381"/>
   <path d="m17.015 14.059-0.0476-0.0952"/>
   <path d="m16.967 13.964-0.0476-0.0476"/>
  </g>
  <g transform="rotate(-90 116.57 13.702)">
   <text transform="scale(-1 1) translate(-233.14)" x="116.5725" y="14.2020" font-size="1.3333" opacity="0" stroke-opacity="0" text-anchor="middle" lengthAdjust="spacingAndGlyphs" textLength="2.2024">D4</text>
  </g>
  <g class="stroked-text">
   <desc>D4</desc>
   <path d="m117.03 12.964h-1"/>
   <path d="m116.03 12.964v0.2381"/>
   <path d="m116.03 13.202 0.0476 0.1429"/>
   <path d="m116.07 13.345 0.0953 0.0952"/>
   <path d="m116.17 13.44 0.0952 0.0476"/>
   <path d="m116.27 13.488 0.1905 0.0476"/>
   <path d="m116.46 13.535h0.1428"/>
   <path d="m116.6 13.535 0.1905-0.0476"/>
   <path d="m116.79 13.488 0.0953-0.0476"/>
   <path d="m116.88 13.44 0.0952-0.0952"/>
   <path d="m116.98 13.345 0.0476-0.1429"/>
   <path d="m117.03 13.202v-0.2381"/>
   <path d="m116.36 14.392h0.6666"/>
   <path d="m115.98 14.154 0.7143-0.2381"/>
   <path d="m116.69 13.916v0.619"/>
  </g>
  <g transform="rotate(-90 164.2 13.702)">
   <text transform="scale(-1 1) translate(-328.4)" x="164.1975" y="14.2020" font-size="1.3333" opacity="0" stroke-opacity="0" text-anchor="middle" lengthAdjust="spacingAndGlyphs" textLength="2.2024">D7</text>
  </g>
  <g class="stroked-text">
   <desc>D7</desc>
   <path d="m164.65 12.964h-1"/>
   <path d="m163.65 12.964v0.2381"/>
   <path d="m163.65 13.202 0.0476 0.1429"/>
   <path d="m163.7 13.345 0.0953 0.0952"/>
   <path d="m163.8 13.44 0.0952 0.0476"/>
   <path d="m163.89 13.488 0.1905 0.0476"/>
   <path d="m164.08 13.535h0.1428"/>
   <path d="m164.22 13.535 0.1905-0.0476"/>
   <path d="m164.41 13.488 0.0953-0.0476"/>
   <path d="m164.51 13.44 0.0952-0.0952"/>
   <path d="m164.6 13.345 0.0476-0.1429"/>
   <path d="m164.65 13.202v-0.2381"/>
   <path d="m163.65 13.869v0.6666"/>
   <path d="m163.65 14.535 1-0.4285"/>
  </g>
  <g transform="rotate(-90 230.87 13.702)">
   <text transform="scale(-1 1) translate(-461.74)" x="230.8725" y="14.2020" font-size="1.3333" opacity="0" stroke-opacity="0" text-anchor="middle" lengthAdjust="spacingAndGlyphs" textLength="3.1548">D10</text>
  </g>
  <g class="stroked-text">
   <desc>D10</desc>
   <path d="m231.33 12.488h-1"/>
   <path d="m230.33 12.488v0.2381"/>
   <path d="m230.33 12.726 0.0476 0.1429"/>
   <path d="m230.37 12.869 0.0953 0.0952"/>
   <path d="m230.47 12.964 0.0952 0.0476"/>
   <path d="m230.57 13.012 0.1905 0.0476"/>
   <path d="m230.76 13.059h0.1428"/>
   <path d="m230.9 13.059 0.1905-0.0476"/>
   <path d="m231.09 13.012 0.0953-0.0476"/>
   <path d="m231.18 12.964 0.0952-0.0952"/>
   <path d="m231.28 12.869 0.0476-0.1429"/>
   <path d="m231.33 12.726v-0.2381"/>
   <path d="m231.33 14.012v-0.5714"/>
   <path d="m231.33 13.726h-1"/>
   <path d="m230.33 13.726 0.1429-0.0952"/>
   <path d="m230.47 13.631 0.0952-0.0953"/>
   <path d="m230.57 13.535 0.0476-0.0952"/>
   <path d="m230.33 14.631v0.0952"/>
   <path d="m230.33 14.726 0.0476 0.0952"/>
   <path d="m230.37 14.821 0.0477 0.0477"/>
   <path d="m230.42 14.869 0.0952 0.0476"/>
   <path d="m230.52 14.916 0.1905 0.0476"/>
   <path d="m230.71 14.964h0.2381"/>
   <path d="m230.95 14.964 0.1904-0.0476"/>
   <path d="m231.14 14.916 0.0953-0.0476"/>
   <path d="m231.23 14.869 0.0476-0.0477"/>
   <path d="m231.28 14.821 0.0476-0.0952"/>
   <path d="m231.33 14.726v-0.0952"/>
   <path d="m231.33 14.631-0.0476-0.0953"/>
   <path d="m231.28 14.535-0.0476-0.0476"/>
   <path d="m231.23 14.488-0.0953-0.0476"/>
   <path d="m231.14 14.44-0.1904-0.0476"/>
   <path d="m230.95 14.392h-0.2381"/>
   <path d="m230.71 14.392-0.1905 0.0476"/>
   <path d="m230.52 14.44-0.0952 0.0476"/>
   <path d="m230.42 14.488-0.0477 0.0476"/>
   <path d="m230.37 14.535-0.0476 0.0953"/>
  </g>
  <g transform="rotate(-90 202.3 13.702)">
   <text transform="scale(-1 1) translate(-404.6)" x="202.2975" y="14.2020" font-size="1.3333" opacity="0" stroke-opacity="0" text-anchor="middle" lengthAdjust="spacingAndGlyphs" textLength="2.2024">D9</text>
  </g>
  <g class="stroked-text">
   <desc>D9</desc>
   <path d="m202.75 12.964h-1"/>
   <path d="m201.75 12.964v0.2381"/>
   <path d="m201.75 13.202 0.0476 0.1429"/>
   <path d="m201.8 13.345 0.0953 0.0952"/>
   <path d="m201.9 13.44 0.0952 0.0476"/>
   <path d="m201.99 13.488 0.1905 0.0476"/>
   <path d="m202.18 13.535h0.1428"/>
   <path d="m202.32 13.535 0.1905-0.0476"/>
   <path d="m202.51 13.488 0.0953-0.0476"/>
   <path d="m202.61 13.44 0.0952-0.0952"/>
   <path d="m202.7 13.345 0.0476-0.1429"/>
   <path d="m202.75 13.202v-0.2381"/>
   <path d="m202.75 14.012v0.1905"/>
   <path d="m202.75 14.202-0.0476 0.0952"/>
   <path d="m202.7 14.297-0.0476 0.0477"/>
   <path d="m202.66 14.345-0.1429 0.0952"/>
   <path d="m202.51 14.44-0.1905 0.0476"/>
   <path d="m202.32 14.488h-0.3809"/>
   <path d="m201.94 14.488-0.0952-0.0476"/>
   <path d="m201.85 14.44-0.0477-0.0476"/>
   <path d="m201.8 14.392-0.0476-0.0953"/>
   <path d="m201.75 14.297v-0.1904"/>
   <path d="m201.75 14.107 0.0476-0.0953"/>
   <path d="m201.8 14.012 0.0477-0.0476"/>
   <path d="m201.85 13.964 0.0952-0.0476"/>
   <path d="m201.94 13.916h0.2381"/>
   <path d="m202.18 13.916 0.0952 0.0476"/>
   <path d="m202.28 13.964 0.0476 0.0476"/>
   <path d="m202.32 14.012 0.0477 0.0953"/>
   <path d="m202.37 14.107v0.1904"/>
   <path d="m202.37 14.297-0.0477 0.0953"/>
   <path d="m202.32 14.392-0.0476 0.0476"/>
   <path d="m202.28 14.44-0.0952 0.0476"/>
  </g>
  <g transform="rotate(-90 145.15 13.702)">
   <text transform="scale(-1 1) translate(-290.3)" x="145.1475" y="14.2020" font-size="1.3333" opacity="0" stroke-opacity="0" text-anchor="middle" lengthAdjust="spacingAndGlyphs" textLength="2.2024">D6</text>
  </g>
  <g class="stroked-text">
   <desc>D6</desc>
   <path d="m145.6 12.964h-1"/>
   <path d="m144.6 12.964v0.2381"/>
   <path d="m144.6 13.202 0.0476 0.1429"/>
   <path d="m144.65 13.345 0.0953 0.0952"/>
   <path d="m144.75 13.44 0.0952 0.0476"/>
   <path d="m144.84 13.488 0.1905 0.0476"/>
   <path d="m145.03 13.535h0.1428"/>
   <path d="m145.17 13.535 0.1905-0.0476"/>
   <path d="m145.36 13.488 0.0953-0.0476"/>
   <path d="m145.46 13.44 0.0952-0.0952"/>
   <path d="m145.55 13.345 0.0476-0.1429"/>
   <path d="m145.6 13.202v-0.2381"/>
   <path d="m144.6 14.392v-0.1905"/>
   <path d="m144.6 14.202 0.0476-0.0952"/>
   <path d="m144.65 14.107 0.0477-0.0477"/>
   <path d="m144.7 14.059 0.1428-0.0952"/>
   <path d="m144.84 13.964 0.1905-0.0476"/>
   <path d="m145.03 13.916h0.3809"/>
   <path d="m145.41 13.916 0.0953 0.0476"/>
   <path d="m145.51 13.964 0.0476 0.0476"/>
   <path d="m145.55 14.012 0.0476 0.0953"/>
   <path d="m145.6 14.107v0.1904"/>
   <path d="m145.6 14.297-0.0476 0.0953"/>
   <path d="m145.55 14.392-0.0476 0.0476"/>
   <path d="m145.51 14.44-0.0953 0.0476"/>
   <path d="m145.41 14.488h-0.2381"/>
   <path d="m145.17 14.488-0.0952-0.0476"/>
   <path d="m145.08 14.44-0.0476-0.0476"/>
   <path d="m145.03 14.392-0.0476-0.0953"/>
   <path d="m144.98 14.297v-0.1904"/>
   <path d="m144.98 14.107 0.0476-0.0953"/>
   <path d="m145.03 14.012 0.0476-0.0476"/>
   <path d="m145.08 13.964 0.0952-0.0476"/>
  </g>
  <g transform="rotate(-90 183.25 13.702)">
   <text transform="scale(-1 1) translate(-366.5)" x="183.2475" y="14.2020" font-size="1.3333" opacity="0" stroke-opacity="0" text-anchor="middle" lengthAdjust="spacingAndGlyphs" textLength="2.2024">D8</text>
  </g>
  <g class="stroked-text">
   <desc>D8</desc>
   <path d="m183.7 12.964h-1"/>
   <path d="m182.7 12.964v0.2381"/>
   <path d="m182.7 13.202 0.0476 0.1429"/>
   <path d="m182.75 13.345 0.0953 0.0952"/>
   <path d="m182.85 13.44 0.0952 0.0476"/>
   <path d="m182.94 13.488 0.1905 0.0476"/>
   <path d="m183.13 13.535h0.1428"/>
   <path d="m183.27 13.535 0.1905-0.0476"/>
   <path d="m183.46 13.488 0.0953-0.0476"/>
   <path d="m183.56 13.44 0.0952-0.0952"/>
   <path d="m183.65 13.345 0.0476-0.1429"/>
   <path d="m183.7 13.202v-0.2381"/>
   <path d="m183.13 14.107-0.0476-0.0953"/>
   <path d="m183.08 14.012-0.0476-0.0476"/>
   <path d="m183.04 13.964-0.0953-0.0476"/>
   <path d="m182.94 13.916h-0.0476"/>
   <path d="m182.89 13.916-0.0952 0.0476"/>
   <path d="m182.8 13.964-0.0477 0.0476"/>
   <path d="m182.75 14.012-0.0476 0.0953"/>
   <path d="m182.7 14.107v0.1904"/>
   <path d="m182.7 14.297 0.0476 0.0953"/>
   <path d="m182.75 14.392 0.0477 0.0476"/>
   <path d="m182.8 14.44 0.0952 0.0476"/>
   <path d="m182.89 14.488h0.0476"/>
   <path d="m182.94 14.488 0.0953-0.0476"/>
   <path d="m183.04 14.44 0.0476-0.0476"/>
   <path d="m183.08 14.392 0.0476-0.0953"/>
   <path d="m183.13 14.297v-0.1904"/>
   <path d="m183.13 14.107 0.0476-0.0953"/>
   <path d="m183.18 14.012 0.0476-0.0476"/>
   <path d="m183.23 13.964 0.0953-0.0476"/>
   <path d="m183.32 13.916h0.1904"/>
   <path d="m183.51 13.916 0.0953 0.0476"/>
   <path d="m183.61 13.964 0.0476 0.0476"/>
   <path d="m183.65 14.012 0.0476 0.0953"/>
   <path d="m183.7 14.107v0.1904"/>
   <path d="m183.7 14.297-0.0476 0.0953"/>
   <path d="m183.65 14.392-0.0476 0.0476"/>
   <path d="m183.61 14.44-0.0953 0.0476"/>
   <path d="m183.51 14.488h-0.1904"/>
   <path d="m183.32 14.488-0.0953-0.0476"/>
   <path d="m183.23 14.44-0.0476-0.0476"/>
   <path d="m183.18 14.392-0.0476-0.0953"/>
  </g>
  <g transform="rotate(-90 59.422 13.702)">
   <text transform="scale(-1 1) translate(-118.84)" x="59.4225" y="14.2020" font-size="1.3333" opacity="0" stroke-opacity="0" text-anchor="middle" lengthAdjust="spacingAndGlyphs" textLength="2.2024">D1</text>
  </g>
  <g class="stroked-text">
   <desc>D1</desc>
   <path d="m59.877 12.964h-1"/>
   <path d="m58.877 12.964v0.2381"/>
   <path d="m58.877 13.202 0.0476 0.1429"/>
   <path d="m58.925 13.345 0.0953 0.0952"/>
   <path d="m59.02 13.44 0.0952 0.0476"/>
   <path d="m59.115 13.488 0.1905 0.0476"/>
   <path d="m59.306 13.535h0.1428"/>
   <path d="m59.449 13.535 0.1905-0.0476"/>
   <path d="m59.639 13.488 0.0953-0.0476"/>
   <path d="m59.734 13.44 0.0952-0.0952"/>
   <path d="m59.83 13.345 0.0476-0.1429"/>
   <path d="m59.877 13.202v-0.2381"/>
   <path d="m59.877 14.488v-0.5714"/>
   <path d="m59.877 14.202h-1"/>
   <path d="m58.877 14.202 0.1429-0.0952"/>
   <path d="m59.02 14.107 0.0952-0.0953"/>
   <path d="m59.115 14.012 0.0476-0.0952"/>
  </g>
 </g>
 <g fill="none" stroke="#BD93F9" stroke-linecap="round" stroke-linejoin="round" stroke-width=".12">
  <path d="m285.12 11.925v3.86"/>
  <path d="m285.12 15.785h2"/>
  <path d="m287.12 11.925v3.86"/>
  <path d="m247.02 11.925v3.86"/>
  <path d="m247.02 15.785h2"/>
  <path d="m249.02 11.925v3.86"/>
  <path d="m266.07 11.925v3.86"/>
  <path d="m266.07 15.785h2"/>
  <path d="m268.07 11.925v3.86"/>
  <path d="m75.568 11.925v3.86"/>
  <path d="m75.568 15.785h2"/>
  <path d="m77.568 11.925v3.86"/>
  <path d="m94.618 11.925v3.86"/>
  <path d="m94.618 15.785h2"/>
  <path d="m96.618 11.925v3.86"/>
  <path d="m13.655 11.925v3.86"/>
  <path d="m13.655 15.785h2"/>
  <path d="m15.655 11.925v3.86"/>
  <path d="m113.67 11.925v3.86"/>
  <path d="m113.67 15.785h2"/>
  <path d="m115.67 11.925v3.86"/>
  <path d="m161.29 11.925v3.86"/>
  <path d="m161.29 15.785h2"/>
  <path d="m163.29 11.925v3.86"/>
  <path d="m227.97 11.925v3.86"/>
  <path d="m227.97 15.785h2"/>
  <path d="m229.97 11.925v3.86"/>
  <path d="m199.39 11.925v3.86"/>
  <path d="m199.39 15.785h2"/>
  <path d="m201.39 11.925v3.86"/>
  <path d="m142.24 11.925v3.86"/>
  <path d="m142.24 15.785h2"/>
  <path d="m144.24 11.925v3.86"/>
  <path d="m180.34 11.925v3.86"/>
  <path d="m180.34 15.785h2"/>
  <path d="m182.34 11.925v3.86"/>
  <path d="m56.518 11.925v3.86"/>
  <path d="m56.518 15.785h2"/>
  <path d="m58.518 11.925v3.86"/>
 </g>
 <g>
  <g fill="#BD93F9">
   <circle cx="66.408" cy="9.575" r=".875"/>
   <circle cx="71.488" cy="9.575" r="2"/>
   <circle cx="76.568" cy="9.575" r=".875"/>
   <circle cx="67.678" cy="7.035" r=".75"/>
   <circle cx="74.028" cy="4.495" r=".75"/>
   <circle cx="237.86" cy="9.575" r=".875"/>
   <circle cx="242.94" cy="9.575" r="2"/>
   <circle cx="248.02" cy="9.575" r=".875"/>
   <circle cx="239.13" cy="7.035" r=".75"/>
   <circle cx="245.48" cy="4.495" r=".75"/>
   <circle cx="47.358" cy="9.575" r=".875"/>
   <circle cx="52.438" cy="9.575" r="2"/>
   <circle cx="57.518" cy="9.575" r=".875"/>
   <circle cx="48.628" cy="7.035" r=".75"/>
   <circle cx="54.978" cy="4.495" r=".75"/>
   <circle cx="218.81" cy="9.575" r=".875"/>
   <circle cx="223.89" cy="9.575" r="2"/>
   <circle cx="228.97" cy="9.575" r=".875"/>
   <circle cx="220.08" cy="7.035" r=".75"/>
   <circle cx="226.43" cy="4.495" r=".75"/>
   <circle cx="256.91" cy="9.575" r=".875"/>
   <circle cx="261.99" cy="9.575" r="2"/>
   <circle cx="267.07" cy="9.575" r=".875"/>
   <circle cx="258.18" cy="7.035" r=".75"/>
   <circle cx="264.53" cy="4.495" r=".75"/>
   <circle cx="85.458" cy="9.575" r=".875"/>
   <circle cx="90.538" cy="9.575" r="2"/>
   <circle cx="95.618" cy="9.575" r=".875"/>
   <circle cx="86.728" cy="7.035" r=".75"/>
   <circle cx="93.078" cy="4.495" r=".75"/>
   <circle cx="104.51" cy="9.575" r=".875"/>
   <circle cx="109.59" cy="9.575" r="2"/>
   <circle cx="114.67" cy="9.575" r=".875"/>
   <circle cx="105.78" cy="7.035" r=".75"/>
   <circle cx="112.13" cy="4.495" r=".75"/>
   <circle cx="171.18" cy="9.575" r=".875"/>
   <circle cx="176.26" cy="9.575" r="2"/>
   <circle cx="181.34" cy="9.575" r=".875"/>
   <circle cx="172.45" cy="7.035" r=".75"/>
   <circle cx="178.8" cy="4.495" r=".75"/>
   <circle cx="190.23" cy="9.575" r=".875"/>
   <circle cx="195.31" cy="9.575" r="2"/>
   <circle cx="200.39" cy="9.575" r=".875"/>
   <circle cx="191.5" cy="7.035" r=".75"/>
   <circle cx="197.85" cy="4.495" r=".75"/>
   <circle cx="275.96" cy="9.575" r=".875"/>
   <circle cx="281.04" cy="9.575" r="2"/>
   <circle cx="286.12" cy="9.575" r=".875"/>
   <circle cx="277.23" cy="7.035" r=".75"/>
   <circle cx="283.58" cy="4.495" r=".75"/>
   <circle cx="152.13" cy="9.575" r=".875"/>
   <circle cx="157.21" cy="9.575" r="2"/>
   <circle cx="162.29" cy="9.575" r=".875"/>
   <circle cx="153.4" cy="7.035" r=".75"/>
   <circle cx="159.75" cy="4.495" r=".75"/>
   <circle cx="4.495" cy="9.575" r=".875"/>
   <circle cx="9.575" cy="9.575" r="2"/>
   <circle cx="14.655" cy="9.575" r=".875"/>
   <circle cx="5.765" cy="7.035" r=".75"/>
   <circle cx="12.115" cy="4.495" r=".75"/>
   <circle cx="133.08" cy="9.575" r=".875"/>
   <circle cx="138.16" cy="9.575" r="2"/>
   <circle cx="143.24" cy="9.575" r=".875"/>
   <circle cx="134.35" cy="7.035" r=".75"/>
   <circle cx="140.7" cy="4.495" r=".75"/>
  </g>
  <g>
   <circle cx="66.408" cy="9.575" r=".875"/>
   <circle cx="71.488" cy="9.575" r="2"/>
   <circle cx="76.568" cy="9.575" r=".875"/>
   <circle cx="67.678" cy="7.035" r=".75"/>
   <circle cx="74.028" cy="4.495" r=".75"/>
   <circle cx="237.86" cy="9.575" r=".875"/>
   <circle cx="242.94" cy="9.575" r="2"/>
   <circle cx="248.02" cy="9.575" r=".875"/>
   <circle cx="239.13" cy="7.035" r=".75"/>
   <circle cx="245.48" cy="4.495" r=".75"/>
   <circle cx="47.358" cy="9.575" r=".875"/>
   <circle cx="52.438" cy="9.575" r="2"/>
   <circle cx="57.518" cy="9.575" r=".875"/>
   <circle cx="48.628" cy="7.035" r=".75"/>
   <circle cx="54.978" cy="4.495" r=".75"/>
   <circle cx="218.81" cy="9.575" r=".875"/>
   <circle cx="223.89" cy="9.575" r="2"/>
   <circle cx="228.97" cy="9.575" r=".875"/>
   <circle cx="220.08" cy="7.035" r=".75"/>
   <circle cx="226.43" cy="4.495" r=".75"/>
   <circle cx="256.91" cy="9.575" r=".875"/>
   <circle cx="261.99" cy="9.575" r="2"/>
   <circle cx="267.07" cy="9.575" r=".875"/>
   <circle cx="258.18" cy="7.035" r=".75"/>
   <circle cx="264.53" cy="4.495" r=".75"/>
   <circle cx="85.458" cy="9.575" r=".875"/>
   <circle cx="90.538" cy="9.575" r="2"/>
   <circle cx="95.618" cy="9.575" r=".875"/>
   <circle cx="86.728" cy="7.035" r=".75"/>
   <circle cx="93.078" cy="4.495" r=".75"/>
   <circle cx="104.51" cy="9.575" r=".875"/>
   <circle cx="109.59" cy="9.575" r="2"/>
   <circle cx="114.67" cy="9.575" r=".875"/>
   <circle cx="105.78" cy="7.035" r=".75"/>
   <circle cx="112.13" cy="4.495" r=".75"/>
   <circle cx="171.18" cy="9.575" r=".875"/>
   <circle cx="176.26" cy="9.575" r="2"/>
   <circle cx="181.34" cy="9.575" r=".875"/>
   <circle cx="172.45" cy="7.035" r=".75"/>
   <circle cx="178.8" cy="4.495" r=".75"/>
   <circle cx="190.23" cy="9.575" r=".875"/>
   <circle cx="195.31" cy="9.575" r="2"/>
   <circle cx="200.39" cy="9.575" r=".875"/>
   <circle cx="191.5" cy="7.035" r=".75"/>
   <circle cx="197.85" cy="4.495" r=".75"/>
   <circle cx="275.96" cy="9.575" r=".875"/>
   <circle cx="281.04" cy="9.575" r="2"/>
   <circle cx="286.12" cy="9.575" r=".875"/>
   <circle cx="277.23" cy="7.035" r=".75"/>
   <circle cx="283.58" cy="4.495" r=".75"/>
   <circle cx="152.13" cy="9.575" r=".875"/>
   <circle cx="157.21" cy="9.575" r="2"/>
   <circle cx="162.29" cy="9.575" r=".875"/>
   <circle cx="153.4" cy="7.035" r=".75"/>
   <circle cx="159.75" cy="4.495" r=".75"/>
   <circle cx="4.495" cy="9.575" r=".875"/>
   <circle cx="9.575" cy="9.575" r="2"/>
   <circle cx="14.655" cy="9.575" r=".875"/>
   <circle cx="5.765" cy="7.035" r=".75"/>
   <circle cx="12.115" cy="4.495" r=".75"/>
   <circle cx="133.08" cy="9.575" r=".875"/>
   <circle cx="138.16" cy="9.575" r="2"/>
   <circle cx="143.24" cy="9.575" r=".875"/>
   <circle cx="134.35" cy="7.035" r=".75"/>
   <circle cx="140.7" cy="4.495" r=".75"/>
  </g>
  <g fill="#f55">
   <circle cx="67.678" cy="7.035" r="1.25"/>
   <circle cx="74.028" cy="4.495" r="1.25"/>
   <circle cx="239.13" cy="7.035" r="1.25"/>
   <circle cx="245.48" cy="4.495" r="1.25"/>
   <circle cx="48.628" cy="7.035" r="1.25"/>
   <circle cx="54.978" cy="4.495" r="1.25"/>
   <circle cx="220.08" cy="7.035" r="1.25"/>
   <circle cx="226.43" cy="4.495" r="1.25"/>
   <circle cx="258.18" cy="7.035" r="1.25"/>
   <circle cx="264.53" cy="4.495" r="1.25"/>
   <circle cx="86.728" cy="7.035" r="1.25"/>
   <circle cx="93.078" cy="4.495" r="1.25"/>
   <circle cx="105.78" cy="7.035" r="1.25"/>
   <circle cx="112.13" cy="4.495" r="1.25"/>
   <circle cx="172.45" cy="7.035" r="1.25"/>
   <circle cx="178.8" cy="4.495" r="1.25"/>
   <circle cx="191.5" cy="7.035" r="1.25"/>
   <circle cx="197.85" cy="4.495" r="1.25"/>
   <circle cx="277.23" cy="7.035" r="1.25"/>
   <circle cx="283.58" cy="4.495" r="1.25"/>
   <circle cx="153.4" cy="7.035" r="1.25"/>
   <circle cx="159.75" cy="4.495" r="1.25"/>
   <circle cx="5.765" cy="7.035" r="1.25"/>
   <circle cx="12.115" cy="4.495" r="1.25"/>
   <circle cx="134.35" cy="7.035" r="1.25"/>
   <circle cx="140.7" cy="4.495" r="1.25"/>
  </g>
  <g fill="#fff">
   <circle cx="66.408" cy="9.575" r=".875"/>
   <circle cx="71.488" cy="9.575" r="2"/>
   <circle cx="76.568" cy="9.575" r=".875"/>
   <circle cx="67.678" cy="7.035" r=".75"/>
   <circle cx="74.028" cy="4.495" r=".75"/>
   <circle cx="237.86" cy="9.575" r=".875"/>
   <circle cx="242.94" cy="9.575" r="2"/>
   <circle cx="248.02" cy="9.575" r=".875"/>
   <circle cx="239.13" cy="7.035" r=".75"/>
   <circle cx="245.48" cy="4.495" r=".75"/>
   <circle cx="47.358" cy="9.575" r=".875"/>
   <circle cx="52.438" cy="9.575" r="2"/>
   <circle cx="57.518" cy="9.575" r=".875"/>
   <circle cx="48.628" cy="7.035" r=".75"/>
   <circle cx="54.978" cy="4.495" r=".75"/>
   <circle cx="218.81" cy="9.575" r=".875"/>
   <circle cx="223.89" cy="9.575" r="2"/>
   <circle cx="228.97" cy="9.575" r=".875"/>
   <circle cx="220.08" cy="7.035" r=".75"/>
   <circle cx="226.43" cy="4.495" r=".75"/>
   <circle cx="256.91" cy="9.575" r=".875"/>
   <circle cx="261.99" cy="9.575" r="2"/>
   <circle cx="267.07" cy="9.575" r=".875"/>
   <circle cx="258.18" cy="7.035" r=".75"/>
   <circle cx="264.53" cy="4.495" r=".75"/>
   <circle cx="85.458" cy="9.575" r=".875"/>
   <circle cx="90.538" cy="9.575" r="2"/>
   <circle cx="95.618" cy="9.575" r=".875"/>
   <circle cx="86.728" cy="7.035" r=".75"/>
   <circle cx="93.078" cy="4.495" r=".75"/>
   <circle cx="104.51" cy="9.575" r=".875"/>
   <circle cx="109.59" cy="9.575" r="2"/>
   <circle cx="114.67" cy="9.575" r=".875"/>
   <circle cx="105.78" cy="7.035" r=".75"/>
   <circle cx="112.13" cy="4.495" r=".75"/>
   <circle cx="171.18" cy="9.575" r=".875"/>
   <circle cx="176.26" cy="9.575" r="2"/>
   <circle cx="181.34" cy="9.575" r=".875"/>
   <circle cx="172.45" cy="7.035" r=".75"/>
   <circle cx="178.8" cy="4.495" r=".75"/>
   <circle cx="190.23" cy="9.575" r=".875"/>
   <circle cx="195.31" cy="9.575" r="2"/>
   <circle cx="200.39" cy="9.575" r=".875"/>
   <circle cx="191.5" cy="7.035" r=".75"/>
   <circle cx="197.85" cy="4.495" r=".75"/>
   <circle cx="275.96" cy="9.575" r=".875"/>
   <circle cx="281.04" cy="9.575" r="2"/>
   <circle cx="286.12" cy="9.575" r=".875"/>
   <circle cx="277.23" cy="7.035" r=".75"/>
   <circle cx="283.58" cy="4.495" r=".75"/>
   <circle cx="152.13" cy="9.575" r=".875"/>
   <circle cx="157.21" cy="9.575" r="2"/>
   <circle cx="162.29" cy="9.575" r=".875"/>
   <circle cx="153.4" cy="7.035" r=".75"/>
   <circle cx="159.75" cy="4.495" r=".75"/>
   <circle cx="4.495" cy="9.575" r=".875"/>
   <circle cx="9.575" cy="9.575" r="2"/>
   <circle cx="14.655" cy="9.575" r=".875"/>
   <circle cx="5.765" cy="7.035" r=".75"/>
   <circle cx="12.115" cy="4.495" r=".75"/>
   <circle cx="133.08" cy="9.575" r=".875"/>
   <circle cx="138.16" cy="9.575" r="2"/>
   <circle cx="143.24" cy="9.575" r=".875"/>
   <circle cx="134.35" cy="7.035" r=".75"/>
   <circle cx="140.7" cy="4.495" r=".75"/>
  </g>
  <g fill="#50FA7B">
   <circle cx="67.678" cy="7.035" r="1.25"/>
   <circle cx="74.028" cy="4.495" r="1.25"/>
   <circle cx="239.13" cy="7.035" r="1.25"/>
   <circle cx="245.48" cy="4.495" r="1.25"/>
   <circle cx="48.628" cy="7.035" r="1.25"/>
   <circle cx="54.978" cy="4.495" r="1.25"/>
   <circle cx="220.08" cy="7.035" r="1.25"/>
   <circle cx="226.43" cy="4.495" r="1.25"/>
   <circle cx="258.18" cy="7.035" r="1.25"/>
   <circle cx="264.53" cy="4.495" r="1.25"/>
   <circle cx="86.728" cy="7.035" r="1.25"/>
   <circle cx="93.078" cy="4.495" r="1.25"/>
   <circle cx="105.78" cy="7.035" r="1.25"/>
   <circle cx="112.13" cy="4.495" r="1.25"/>
   <circle cx="172.45" cy="7.035" r="1.25"/>
   <circle cx="178.8" cy="4.495" r="1.25"/>
   <circle cx="191.5" cy="7.035" r="1.25"/>
   <circle cx="197.85" cy="4.495" r="1.25"/>
   <circle cx="277.23" cy="7.035" r="1.25"/>
   <circle cx="283.58" cy="4.495" r="1.25"/>
   <circle cx="153.4" cy="7.035" r="1.25"/>
   <circle cx="159.75" cy="4.495" r="1.25"/>
   <circle cx="5.765" cy="7.035" r="1.25"/>
   <circle cx="12.115" cy="4.495" r="1.25"/>
   <circle cx="134.35" cy="7.035" r="1.25"/>
   <circle cx="140.7" cy="4.495" r="1.25"/>
   <g fill="#50FA7B" fill-rule="evenodd">
    <path d="m285.82 15.525-0.0957-0.019-0.0811-0.0542-0.0542-0.0811-0.019-0.0957v-0.6l0.019-0.0957 0.0542-0.0811 0.0811-0.0542 0.0957-0.019h0.6l0.0957 0.019 0.0811 0.0542 0.0542 0.0811 0.019 0.0957v0.6l-0.019 0.0957-0.0542 0.0811-0.0811 0.0542-0.0957 0.019z"/>
    <path d="m285.82 12.725-0.0957-0.019-0.0811-0.0542-0.0542-0.0811-0.019-0.0957v-0.6l0.019-0.0957 0.0542-0.0811 0.0811-0.0542 0.0957-0.019h0.6l0.0957 0.019 0.0811 0.0542 0.0542 0.0811 0.019 0.0957v0.6l-0.019 0.0957-0.0542 0.0811-0.0811 0.0542-0.0957 0.019z"/>
    <path d="m247.72 15.525-0.0957-0.019-0.0811-0.0542-0.0542-0.0811-0.019-0.0957v-0.6l0.019-0.0957 0.0542-0.0811 0.0811-0.0542 0.0957-0.019h0.6l0.0957 0.019 0.0811 0.0542 0.0542 0.0811 0.019 0.0957v0.6l-0.019 0.0957-0.0542 0.0811-0.0811 0.0542-0.0957 0.019z"/>
    <path d="m247.72 12.725-0.0957-0.019-0.0811-0.0542-0.0542-0.0811-0.019-0.0957v-0.6l0.019-0.0957 0.0542-0.0811 0.0811-0.0542 0.0957-0.019h0.6l0.0957 0.019 0.0811 0.0542 0.0542 0.0811 0.019 0.0957v0.6l-0.019 0.0957-0.0542 0.0811-0.0811 0.0542-0.0957 0.019z"/>
    <path d="m266.77 15.525-0.0957-0.019-0.0811-0.0542-0.0542-0.0811-0.019-0.0957v-0.6l0.019-0.0957 0.0542-0.0811 0.0811-0.0542 0.0957-0.019h0.6l0.0957 0.019 0.0811 0.0542 0.0542 0.0811 0.019 0.0957v0.6l-0.019 0.0957-0.0542 0.0811-0.0811 0.0542-0.0957 0.019z"/>
    <path d="m266.77 12.725-0.0957-0.019-0.0811-0.0542-0.0542-0.0811-0.019-0.0957v-0.6l0.019-0.0957 0.0542-0.0811 0.0811-0.0542 0.0957-0.019h0.6l0.0957 0.019 0.0811 0.0542 0.0542 0.0811 0.019 0.0957v0.6l-0.019 0.0957-0.0542 0.0811-0.0811 0.0542-0.0957 0.019z"/>
    <path d="m76.268 15.525-0.0957-0.019-0.0811-0.0542-0.0542-0.0811-0.019-0.0957v-0.6l0.019-0.0957 0.0542-0.0811 0.0811-0.0542 0.0957-0.019h0.6l0.0957 0.019 0.0811 0.0542 0.0542 0.0811 0.019 0.0957v0.6l-0.019 0.0957-0.0542 0.0811-0.0811 0.0542-0.0957 0.019z"/>
    <path d="m76.268 12.725-0.0957-0.019-0.0811-0.0542-0.0542-0.0811-0.019-0.0957v-0.6l0.019-0.0957 0.0542-0.0811 0.0811-0.0542 0.0957-0.019h0.6l0.0957 0.019 0.0811 0.0542 0.0542 0.0811 0.019 0.0957v0.6l-0.019 0.0957-0.0542 0.0811-0.0811 0.0542-0.0957 0.019z"/>
    <path d="m95.318 15.525-0.0957-0.019-0.0811-0.0542-0.0542-0.0811-0.019-0.0957v-0.6l0.019-0.0957 0.0542-0.0811 0.0811-0.0542 0.0957-0.019h0.6l0.0957 0.019 0.0811 0.0542 0.0542 0.0811 0.019 0.0957v0.6l-0.019 0.0957-0.0542 0.0811-0.0811 0.0542-0.0957 0.019z"/>
    <path d="m95.318 12.725-0.0957-0.019-0.0811-0.0542-0.0542-0.0811-0.019-0.0957v-0.6l0.019-0.0957 0.0542-0.0811 0.0811-0.0542 0.0957-0.019h0.6l0.0957 0.019 0.0811 0.0542 0.0542 0.0811 0.019 0.0957v0.6l-0.019 0.0957-0.0542 0.0811-0.0811 0.0542-0.0957 0.019z"/>
    <path d="m14.355 15.525-0.0957-0.019-0.0811-0.0542-0.0542-0.0811-0.019-0.0957v-0.6l0.019-0.0957 0.0542-0.0811 0.0811-0.0542 0.0957-0.019h0.6l0.0957 0.019 0.0811 0.0542 0.0542 0.0811 0.019 0.0957v0.6l-0.019 0.0957-0.0542 0.0811-0.0811 0.0542-0.0957 0.019z"/>
    <path d="m14.355 12.725-0.0957-0.019-0.0811-0.0542-0.0542-0.0811-0.019-0.0957v-0.6l0.019-0.0957 0.0542-0.0811 0.0811-0.0542 0.0957-0.019h0.6l0.0957 0.019 0.0811 0.0542 0.0542 0.0811 0.019 0.0957v0.6l-0.019 0.0957-0.0542 0.0811-0.0811 0.0542-0.0957 0.019z"/>
    <path d="m114.37 15.525-0.0957-0.019-0.0811-0.0542-0.0542-0.0811-0.019-0.0957v-0.6l0.019-0.0957 0.0542-0.0811 0.0811-0.0542 0.0957-0.019h0.6l0.0957 0.019 0.0811 0.0542 0.0542 0.0811 0.019 0.0957v0.6l-0.019 0.0957-0.0542 0.0811-0.0811 0.0542-0.0957 0.019z"/>
    <path d="m114.37 12.725-0.0957-0.019-0.0811-0.0542-0.0542-0.0811-0.019-0.0957v-0.6l0.019-0.0957 0.0542-0.0811 0.0811-0.0542 0.0957-0.019h0.6l0.0957 0.019 0.0811 0.0542 0.0542 0.0811 0.019 0.0957v0.6l-0.019 0.0957-0.0542 0.0811-0.0811 0.0542-0.0957 0.019z"/>
    <path d="m161.99 15.525-0.0957-0.019-0.0811-0.0542-0.0542-0.0811-0.019-0.0957v-0.6l0.019-0.0957 0.0542-0.0811 0.0811-0.0542 0.0957-0.019h0.6l0.0957 0.019 0.0811 0.0542 0.0542 0.0811 0.019 0.0957v0.6l-0.019 0.0957-0.0542 0.0811-0.0811 0.0542-0.0957 0.019z"/>
    <path d="m161.99 12.725-0.0957-0.019-0.0811-0.0542-0.0542-0.0811-0.019-0.0957v-0.6l0.019-0.0957 0.0542-0.0811 0.0811-0.0542 0.0957-0.019h0.6l0.0957 0.019 0.0811 0.0542 0.0542 0.0811 0.019 0.0957v0.6l-0.019 0.0957-0.0542 0.0811-0.0811 0.0542-0.0957 0.019z"/>
    <path d="m228.67 15.525-0.0957-0.019-0.0811-0.0542-0.0542-0.0811-0.019-0.0957v-0.6l0.019-0.0957 0.0542-0.0811 0.0811-0.0542 0.0957-0.019h0.6l0.0957 0.019 0.0811 0.0542 0.0542 0.0811 0.019 0.0957v0.6l-0.019 0.0957-0.0542 0.0811-0.0811 0.0542-0.0957 0.019z"/>
    <path d="m228.67 12.725-0.0957-0.019-0.0811-0.0542-0.0542-0.0811-0.019-0.0957v-0.6l0.019-0.0957 0.0542-0.0811 0.0811-0.0542 0.0957-0.019h0.6l0.0957 0.019 0.0811 0.0542 0.0542 0.0811 0.019 0.0957v0.6l-0.019 0.0957-0.0542 0.0811-0.0811 0.0542-0.0957 0.019z"/>
    <path d="m200.09 15.525-0.0957-0.019-0.0811-0.0542-0.0542-0.0811-0.019-0.0957v-0.6l0.019-0.0957 0.0542-0.0811 0.0811-0.0542 0.0957-0.019h0.6l0.0957 0.019 0.0811 0.0542 0.0542 0.0811 0.019 0.0957v0.6l-0.019 0.0957-0.0542 0.0811-0.0811 0.0542-0.0957 0.019z"/>
    <path d="m200.09 12.725-0.0957-0.019-0.0811-0.0542-0.0542-0.0811-0.019-0.0957v-0.6l0.019-0.0957 0.0542-0.0811 0.0811-0.0542 0.0957-0.019h0.6l0.0957 0.019 0.0811 0.0542 0.0542 0.0811 0.019 0.0957v0.6l-0.019 0.0957-0.0542 0.0811-0.0811 0.0542-0.0957 0.019z"/>
    <path d="m142.94 15.525-0.0957-0.019-0.0811-0.0542-0.0542-0.0811-0.019-0.0957v-0.6l0.019-0.0957 0.0542-0.0811 0.0811-0.0542 0.0957-0.019h0.6l0.0957 0.019 0.0811 0.0542 0.0542 0.0811 0.019 0.0957v0.6l-0.019 0.0957-0.0542 0.0811-0.0811 0.0542-0.0957 0.019z"/>
    <path d="m142.94 12.725-0.0957-0.019-0.0811-0.0542-0.0542-0.0811-0.019-0.0957v-0.6l0.019-0.0957 0.0542-0.0811 0.0811-0.0542 0.0957-0.019h0.6l0.0957 0.019 0.0811 0.0542 0.0542 0.0811 0.019 0.0957v0.6l-0.019 0.0957-0.0542 0.0811-0.0811 0.0542-0.0957 0.019z"/>
    <path d="m181.04 15.525-0.0957-0.019-0.0811-0.0542-0.0542-0.0811-0.019-0.0957v-0.6l0.019-0.0957 0.0542-0.0811 0.0811-0.0542 0.0957-0.019h0.6l0.0957 0.019 0.0811 0.0542 0.0542 0.0811 0.019 0.0957v0.6l-0.019 0.0957-0.0542 0.0811-0.0811 0.0542-0.0957 0.019z"/>
    <path d="m181.04 12.725-0.0957-0.019-0.0811-0.0542-0.0542-0.0811-0.019-0.0957v-0.6l0.019-0.0957 0.0542-0.0811 0.0811-0.0542 0.0957-0.019h0.6l0.0957 0.019 0.0811 0.0542 0.0542 0.0811 0.019 0.0957v0.6l-0.019 0.0957-0.0542 0.0811-0.0811 0.0542-0.0957 0.019z"/>
    <path d="m57.218 15.525-0.0957-0.019-0.0811-0.0542-0.0542-0.0811-0.019-0.0957v-0.6l0.019-0.0957 0.0542-0.0811 0.0811-0.0542 0.0957-0.019h0.6l0.0957 0.019 0.0811 0.0542 0.0542 0.0811 0.019 0.0957v0.6l-0.019 0.0957-0.0542 0.0811-0.0811 0.0542-0.0957 0.019z"/>
    <path d="m57.218 12.725-0.0957-0.019-0.0811-0.0542-0.0542-0.0811-0.019-0.0957v-0.6l0.019-0.0957 0.0542-0.0811 0.0811-0.0542 0.0957-0.019h0.6l0.0957 0.019 0.0811 0.0542 0.0542 0.0811 0.019 0.0957v0.6l-0.019 0.0957-0.0542 0.0811-0.0811 0.0542-0.0957 0.019z"/>
   </g>
  </g>
 </g>
 <g fill="none" stroke="#50FA7B" stroke-linecap="round" stroke-linejoin="round" stroke-width=".2">
  <path d="m54.978 4.495v5.14"/>
  <path d="m54.978 9.635 2.54 2.54"/>
  <path d="m74.028 4.495v5.14"/>
  <path d="m74.028 9.635 2.54 2.54"/>
  <path d="m93.078 9.635 2.54 2.54"/>
  <path d="m93.078 4.495v5.14"/>
  <path d="m112.13 9.635 2.54 2.54"/>
  <path d="m112.13 4.495v5.14"/>
  <path d="m12.115 9.635 2.54 2.54"/>
  <path d="m12.115 4.495v5.14"/>
  <path d="m140.7 4.495v5.14"/>
  <path d="m140.7 9.635 2.54 2.54"/>
  <path d="m159.75 4.495v5.14"/>
  <path d="m159.75 9.635 2.54 2.54"/>
  <path d="m178.8 4.495v5.14"/>
  <path d="m178.8 9.635 2.54 2.54"/>
  <path d="m197.85 4.495v5.14"/>
  <path d="m197.85 9.635 2.54 2.54"/>
  <path d="m226.43 4.495v5.14"/>
  <path d="m226.43 9.635 2.54 2.54"/>
  <path d="m245.48 9.635 2.54 2.54"/>
  <path d="m245.48 4.495v5.14"/>
  <path d="m264.53 4.495v5.14"/>
  <path d="m264.53 9.635 2.54 2.54"/>
  <path d="m283.58 9.635 2.54 2.54"/>
  <path d="m283.58 4.495v5.14"/>
  <path d="m57.518 14.975h19.05"/>
  <path d="m95.618 14.975h19.05"/>
  <path d="m76.568 14.975h19.05"/>
  <path d="m14.655 14.975h42.862"/>
  <path d="m162.29 14.975h19.05"/>
  <path d="m181.34 14.975h19.05"/>
  <path d="m143.24 14.975h19.05"/>
  <path d="m248.02 14.975h19.05"/>
  <path d="m228.97 14.975h19.05"/>
  <path d="m267.07 14.975h19.05"/>
 </g>
 <g fill="#fff">
  <circle cx="66.408" cy="9.575" r=".875"/>
  <circle cx="71.488" cy="9.575" r="2"/>
  <circle cx="76.568" cy="9.575" r=".875"/>
  <circle cx="67.678" cy="7.035" r=".75"/>
  <circle cx="74.028" cy="4.495" r=".75"/>
  <circle cx="237.86" cy="9.575" r=".875"/>
  <circle cx="242.94" cy="9.575" r="2"/>
  <circle cx="248.02" cy="9.575" r=".875"/>
  <circle cx="239.13" cy="7.035" r=".75"/>
  <circle cx="245.48" cy="4.495" r=".75"/>
  <circle cx="47.358" cy="9.575" r=".875"/>
  <circle cx="52.438" cy="9.575" r="2"/>
  <circle cx="57.518" cy="9.575" r=".875"/>
  <circle cx="48.628" cy="7.035" r=".75"/>
  <circle cx="54.978" cy="4.495" r=".75"/>
  <circle cx="218.81" cy="9.575" r=".875"/>
  <circle cx="223.89" cy="9.575" r="2"/>
  <circle cx="228.97" cy="9.575" r=".875"/>
  <circle cx="220.08" cy="7.035" r=".75"/>
  <circle cx="226.43" cy="4.495" r=".75"/>
  <circle cx="256.91" cy="9.575" r=".875"/>
  <circle cx="261.99" cy="9.575" r="2"/>
  <circle cx="267.07" cy="9.575" r=".875"/>
  <circle cx="258.18" cy="7.035" r=".75"/>
  <circle cx="264.53" cy="4.495" r=".75"/>
  <circle cx="85.458" cy="9.575" r=".875"/>
  <circle cx="90.538" cy="9.575" r="2"/>
  <circle cx="95.618" cy="9.575" r=".875"/>
  <circle cx="86.728" cy="7.035" r=".75"/>
  <circle cx="93.078" cy="4.495" r=".75"/>
  <circle cx="104.51" cy="9.575" r=".875"/>
  <circle cx="109.59" cy="9.575" r="2"/>
  <circle cx="114.67" cy="9.575" r=".875"/>
  <circle cx="105.78" cy="7.035" r=".75"/>
  <circle cx="112.13" cy="4.495" r=".75"/>
  <circle cx="171.18" cy="9.575" r=".875"/>
  <circle cx="176.26" cy="9.575" r="2"/>
  <circle cx="181.34" cy="9.575" r=".875"/>
  <circle cx="172.45" cy="7.035" r=".75"/>
  <circle cx="178.8" cy="4.495" r=".75"/>
  <circle cx="190.23" cy="9.575" r=".875"/>
  <circle cx="195.31" cy="9.575" r="2"/>
  <circle cx="200.39" cy="9.575" r=".875"/>
  <circle cx="191.5" cy="7.035" r=".75"/>
  <circle cx="197.85" cy="4.495" r=".75"/>
  <circle cx="275.96" cy="9.575" r=".875"/>
  <circle cx="281.04" cy="9.575" r="2"/>
  <circle cx="286.12" cy="9.575" r=".875"/>
  <circle cx="277.23" cy="7.035" r=".75"/>
  <circle cx="283.58" cy="4.495" r=".75"/>
  <circle cx="152.13" cy="9.575" r=".875"/>
  <circle cx="157.21" cy="9.575" r="2"/>
  <circle cx="162.29" cy="9.575" r=".875"/>
  <circle cx="153.4" cy="7.035" r=".75"/>
  <circle cx="159.75" cy="4.495" r=".75"/>
  <circle cx="4.495" cy="9.575" r=".875"/>
  <circle cx="9.575" cy="9.575" r="2"/>
  <circle cx="14.655" cy="9.575" r=".875"/>
  <circle cx="5.765" cy="7.035" r=".75"/>
  <circle cx="12.115" cy="4.495" r=".75"/>
  <circle cx="133.08" cy="9.575" r=".875"/>
  <circle cx="138.16" cy="9.575" r="2"/>
  <circle cx="143.24" cy="9.575" r=".875"/>
  <circle cx="134.35" cy="7.035" r=".75"/>
  <circle cx="140.7" cy="4.495" r=".75"/>
 </g>
</svg>
