<svg xmlns="http://www.w3.org/2000/svg" xmlns:xlink="http://www.w3.org/1999/xlink" width="1308" height="437" viewBox="0 0 1308 437"><defs><g id="a" font-size="12"><text x="7" y="7" dominant-baseline="hanging"><tspan x="7" dy="0em">5,0</tspan></text><text x="45" y="42" text-anchor="end"><tspan x="45" dy="0em">1,2</tspan></text></g><g id="b"><rect width="52" height="52" fill="none" stroke="#000" stroke-width="2" rx="5"/><rect width="50" height="50" x="1" y="1" fill="#aaa" rx="4"/><rect width="40" height="40" x="6" y="4" fill="#d0d0d0" rx="5"/><text x="7" y="7" dominant-baseline="hanging" font-size="12"><tspan x="7" dy="0em">5,0</tspan></text><text x="26" y="26" dominant-baseline="middle" font-size="12" text-anchor="middle"><tspan x="26" dy="0em">e0</tspan></text><text x="45" y="42" font-size="12" text-anchor="end"><tspan x="45" dy="0em">1,0</tspan></text></g><g id="c"><rect width="52" height="52" fill="none" stroke="#000" stroke-width="2" rx="5"/><rect width="50" height="50" x="1" y="1" fill="#aaa" rx="4"/><rect width="40" height="40" x="6" y="4" fill="#d0d0d0" rx="5"/><text x="7" y="7" dominant-baseline="hanging" font-size="12"><tspan x="7" dy="0em">5,0</tspan></text><text x="45" y="42" font-size="12" text-anchor="end"><tspan x="45" dy="0em">1,1</tspan></text></g><g id="d"><rect width="52" height="52" fill="none" stroke="#000" stroke-width="2" rx="5"/><rect width="50" height="50" x="1" y="1" fill="#777" rx="4"/><rect width="40" height="40" x="6" y="4" fill="#919191" rx="5"/><text x="7" y="7" dominant-baseline="hanging" font-size="12"><tspan x="7" dy="0em">5,2</tspan></text></g><g id="e"><rect width="52" height="52" fill="none" stroke="#000" stroke-width="2" rx="5"/><rect width="50" height="50" x="1" y="1" fill="#ccc" rx="4"/><rect width="40" height="40" x="6" y="4" fill="#fbfbfb" rx="5"/><text x="7" y="7" dominant-baseline="hanging" font-size="12"><tspan x="7" dy="0em">5,3</tspan></text></g><g id="f"><rect width="52" height="52" fill="none" stroke="#000" stroke-width="2" rx="5"/><rect width="50" height="50" x="1" y="1" fill="#ccc" rx="4"/><rect width="40" height="40" x="6" y="4" fill="#fbfbfb" rx="5"/><text x="7" y="7" dominant-baseline="hanging" font-size="12"><tspan x="7" dy="0em">5,4</tspan></text></g><g id="g"><rect width="52" height="52" fill="none" stroke="#000" stroke-width="2" rx="5"/><rect width="50" height="50" x="1" y="1" fill="#ccc" rx="4"/><rect width="40" height="40" x="6" y="4" fill="#fbfbfb" rx="5"/><text x="7" y="7" dominant-baseline="hanging" font-size="12"><tspan x="7" dy="0em">5,5</tspan></text></g><g id="h"><rect width="52" height="52" fill="none" stroke="#000" stroke-width="2" rx="5"/><rect width="50" height="50" x="1" y="1" fill="#ccc" rx="4"/><rect width="40" height="40" x="6" y="4" fill="#fbfbfb" rx="5"/><text x="7" y="7" dominant-baseline="hanging" font-size="12"><tspan x="7" dy="0em">5,6</tspan></text></g><g id="i"><rect width="52" height="52" fill="none" stroke="#000" stroke-width="2" rx="5"/><rect width="50" height="50" x="1" y="1" fill="#aaa" rx="4"/><rect width="40" height="40" x="6" y="4" fill="#d0d0d0" rx="5"/><text x="7" y="7" dominant-baseline="hanging" font-size="12"><tspan x="7" dy="0em">5,7</tspan></text></g><g id="j"><rect width="52" height="52" fill="none" stroke="#000" stroke-width="2" rx="5"/><rect width="50" height="50" x="1" y="1" fill="#aaa" rx="4"/><rect width="40" height="40" x="6" y="4" fill="#d0d0d0" rx="5"/><text x="7" y="7" dominant-baseline="hanging" font-size="12"><tspan x="7" dy="0em">5,8</tspan></text></g><g id="k"><rect width="52" height="52" fill="none" stroke="#000" stroke-width="2" rx="5"/><rect width="50" height="50" x="1" y="1" fill="#aaa" rx="4"/><rect width="40" height="40" x="6" y="4" fill="#d0d0d0" rx="5"/><text x="7" y="7" dominant-baseline="hanging" font-size="12"><tspan x="7" dy="0em">11,1</tspan></text></g><g id="l"><rect width="52" height="52" fill="none" stroke="#000" stroke-width="2" rx="5"/><rect width="50" height="50" x="1" y="1" fill="#aaa" rx="4"/><rect width="40" height="40" x="6" y="4" fill="#d0d0d0" rx="5"/><text x="7" y="7" dominant-baseline="hanging" font-size="12"><tspan x="7" dy="0em">11,2</tspan></text></g><g id="m"><rect width="52" height="52" fill="none" stroke="#000" stroke-width="2" rx="5"/><rect width="50" height="50" x="1" y="1" fill="#ccc" rx="4"/><rect width="40" height="40" x="6" y="4" fill="#fbfbfb" rx="5"/><text x="7" y="7" dominant-baseline="hanging" font-size="12"><tspan x="7" dy="0em">11,3</tspan></text></g><g id="n"><rect width="52" height="52" fill="none" stroke="#000" stroke-width="2" rx="5"/><rect width="50" height="50" x="1" y="1" fill="#ccc" rx="4"/><rect width="40" height="40" x="6" y="4" fill="#fbfbfb" rx="5"/><text x="7" y="7" dominant-baseline="hanging" font-size="12"><tspan x="7" dy="0em">11,4</tspan></text></g><g id="o"><rect width="52" height="52" fill="none" stroke="#000" stroke-width="2" rx="5"/><rect width="50" height="50" x="1" y="1" fill="#ccc" rx="4"/><rect width="40" height="40" x="6" y="4" fill="#fbfbfb" rx="5"/><text x="7" y="7" dominant-baseline="hanging" font-size="12"><tspan x="7" dy="0em">11,5</tspan></text></g><g id="p"><rect width="52" height="52" fill="none" stroke="#000" stroke-width="2" rx="5"/><rect width="50" height="50" x="1" y="1" fill="#ccc" rx="4"/><rect width="40" height="40" x="6" y="4" fill="#fbfbfb" rx="5"/><text x="7" y="7" dominant-baseline="hanging" font-size="12"><tspan x="7" dy="0em">11,6</tspan></text></g><g id="q"><rect width="52" height="52" fill="none" stroke="#000" stroke-width="2" rx="5"/><rect width="50" height="50" x="1" y="1" fill="#ccc" rx="4"/><rect width="40" height="40" x="6" y="4" fill="#fbfbfb" rx="5"/><text x="7" y="7" dominant-baseline="hanging" font-size="12"><tspan x="7" dy="0em">11,7</tspan></text></g><g id="r"><rect width="52" height="52" fill="none" stroke="#000" stroke-width="2" rx="5"/><rect width="50" height="50" x="1" y="1" fill="#ccc" rx="4"/><rect width="40" height="40" x="6" y="4" fill="#fbfbfb" rx="5"/><text x="7" y="7" dominant-baseline="hanging" font-size="12"><tspan x="7" dy="0em">11,8</tspan></text><text x="26" y="26" dominant-baseline="middle" font-size="12" text-anchor="middle"><tspan x="26" dy="0em">e1</tspan></text><text x="45" y="42" font-size="12" text-anchor="end"><tspan x="45" dy="0em">4,0</tspan></text></g><g id="s"><rect width="52" height="52" fill="none" stroke="#000" stroke-width="2" rx="5"/><rect width="50" height="50" x="1" y="1" fill="#ccc" rx="4"/><rect width="40" height="40" x="6" y="4" fill="#fbfbfb" rx="5"/><text x="7" y="7" dominant-baseline="hanging" font-size="12"><tspan x="7" dy="0em">11,8</tspan></text><text x="45" y="42" font-size="12" text-anchor="end"><tspan x="45" dy="0em">4,1</tspan></text></g><g id="t" font-size="12"><text x="7" y="7" dominant-baseline="hanging"><tspan x="7" dy="0em">0,0</tspan></text><text x="45" y="42" text-anchor="end"><tspan x="45" dy="0em">0,1</tspan></text></g><g id="u" font-size="12"><text x="7" y="7" dominant-baseline="hanging"><tspan x="7" dy="0em">0,1</tspan></text><text x="45" y="42" text-anchor="end"><tspan x="45" dy="0em">0,1</tspan></text></g><g id="v"><rect width="52" height="52" fill="none" stroke="#000" stroke-width="2" rx="5"/><rect width="50" height="50" x="1" y="1" fill="#aaa" rx="4"/><rect width="40" height="40" x="6" y="4" fill="#d0d0d0" rx="5"/><text x="7" y="7" dominant-baseline="hanging" font-size="12"><tspan x="7" dy="0em">0,0</tspan></text><text x="45" y="42" font-size="12" text-anchor="end"><tspan x="45" dy="0em">0,0</tspan></text></g><g id="w"><rect width="52" height="52" fill="none" stroke="#000" stroke-width="2" rx="5"/><rect width="50" height="50" x="1" y="1" fill="#aaa" rx="4"/><rect width="40" height="40" x="6" y="4" fill="#d0d0d0" rx="5"/><text x="7" y="7" dominant-baseline="hanging" font-size="12"><tspan x="7" dy="0em">0,1</tspan></text><text x="45" y="42" font-size="12" text-anchor="end"><tspan x="45" dy="0em">0,0</tspan></text></g><g id="x"><rect width="52" height="52" fill="none" stroke="#000" stroke-width="2" rx="5"/><rect width="50" height="50" x="1" y="1" fill="#aaa" rx="4"/><rect width="40" height="40" x="6" y="4" fill="#d0d0d0" rx="5"/><text x="7" y="7" dominant-baseline="hanging" font-size="12"><tspan x="7" dy="0em">0,2</tspan></text></g><g id="y"><rect width="52" height="52" fill="none" stroke="#000" stroke-width="2" rx="5"/><rect width="50" height="50" x="1" y="1" fill="#ccc" rx="4"/><rect width="40" height="40" x="6" y="4" fill="#fbfbfb" rx="5"/><text x="7" y="7" dominant-baseline="hanging" font-size="12"><tspan x="7" dy="0em">0,3</tspan></text></g><g id="z"><rect width="52" height="52" fill="none" stroke="#000" stroke-width="2" rx="5"/><rect width="50" height="50" x="1" y="1" fill="#ccc" rx="4"/><rect width="40" height="40" x="6" y="4" fill="#fbfbfb" rx="5"/><text x="7" y="7" dominant-baseline="hanging" font-size="12"><tspan x="7" dy="0em">0,4</tspan></text></g><g id="A"><rect width="52" height="52" fill="none" stroke="#000" stroke-width="2" rx="5"/><rect width="50" height="50" x="1" y="1" fill="#ccc" rx="4"/><rect width="40" height="40" x="6" y="4" fill="#fbfbfb" rx="5"/><text x="7" y="7" dominant-baseline="hanging" font-size="12"><tspan x="7" dy="0em">0,5</tspan></text></g><g id="B"><rect width="52" height="52" fill="none" stroke="#000" stroke-width="2" rx="5"/><rect width="50" height="50" x="1" y="1" fill="#ccc" rx="4"/><rect width="40" height="40" x="6" y="4" fill="#fbfbfb" rx="5"/><text x="7" y="7" dominant-baseline="hanging" font-size="12"><tspan x="7" dy="0em">0,6</tspan></text></g><g id="C"><rect width="52" height="52" fill="none" stroke="#000" stroke-width="2" rx="5"/><rect width="50" height="50" x="1" y="1" fill="#ccc" rx="4"/><rect width="40" height="40" x="6" y="4" fill="#fbfbfb" rx="5"/><text x="7" y="7" dominant-baseline="hanging" font-size="12"><tspan x="7" dy="0em">0,7</tspan></text></g><g id="D"><rect width="52" height="52" fill="none" stroke="#000" stroke-width="2" rx="5"/><rect width="50" height="50" x="1" y="1" fill="#ccc" rx="4"/><rect width="40" height="40" x="6" y="4" fill="#fbfbfb" rx="5"/><text x="7" y="7" dominant-baseline="hanging" font-size="12"><tspan x="7" dy="0em">0,8</tspan></text></g><g id="E"><rect width="52" height="52" fill="none" stroke="#000" stroke-width="2" rx="5"/><rect width="50" height="50" x="1" y="1" fill="#ccc" rx="4"/><rect width="40" height="40" x="6" y="4" fill="#fbfbfb" rx="5"/><text x="7" y="7" dominant-baseline="hanging" font-size="12"><tspan x="7" dy="0em">6,0</tspan></text></g><g id="F"><rect width="52" height="52" fill="none" stroke="#000" stroke-width="2" rx="5"/><rect width="50" height="50" x="1" y="1" fill="#ccc" rx="4"/><rect width="40" height="40" x="6" y="4" fill="#fbfbfb" rx="5"/><text x="7" y="7" dominant-baseline="hanging" font-size="12"><tspan x="7" dy="0em">6,1</tspan></text></g><g id="G"><rect width="52" height="52" fill="none" stroke="#000" stroke-width="2" rx="5"/><rect width="50" height="50" x="1" y="1" fill="#ccc" rx="4"/><rect width="40" height="40" x="6" y="4" fill="#fbfbfb" rx="5"/><text x="7" y="7" dominant-baseline="hanging" font-size="12"><tspan x="7" dy="0em">6,2</tspan></text></g><g id="H"><rect width="52" height="52" fill="none" stroke="#000" stroke-width="2" rx="5"/><rect width="50" height="50" x="1" y="1" fill="#ccc" rx="4"/><rect width="40" height="40" x="6" y="4" fill="#fbfbfb" rx="5"/><text x="7" y="7" dominant-baseline="hanging" font-size="12"><tspan x="7" dy="0em">6,3</tspan></text></g><g id="I"><rect width="52" height="52" fill="none" stroke="#000" stroke-width="2" rx="5"/><rect width="50" height="50" x="1" y="1" fill="#ccc" rx="4"/><rect width="40" height="40" x="6" y="4" fill="#fbfbfb" rx="5"/><text x="7" y="7" dominant-baseline="hanging" font-size="12"><tspan x="7" dy="0em">6,4</tspan></text></g><g id="J"><rect width="52" height="52" fill="none" stroke="#000" stroke-width="2" rx="5"/><rect width="50" height="50" x="1" y="1" fill="#ccc" rx="4"/><rect width="40" height="40" x="6" y="4" fill="#fbfbfb" rx="5"/><text x="7" y="7" dominant-baseline="hanging" font-size="12"><tspan x="7" dy="0em">6,5</tspan></text></g><g id="K"><rect width="104" height="52" fill="none" stroke="#000" stroke-width="2" rx="5"/><rect width="102" height="50" x="1" y="1" fill="#aaa" rx="4"/><rect width="92" height="40" x="6" y="4" fill="#d0d0d0" rx="5"/><text x="7" y="7" dominant-baseline="hanging" font-size="12"><tspan x="7" dy="0em">6,7</tspan></text><text x="97" y="42" font-size="12" text-anchor="end"><tspan x="97" dy="0em">5,0</tspan></text></g><g id="L"><rect width="52" height="52" fill="none" stroke="#000" stroke-width="2" rx="5"/><rect width="50" height="50" x="1" y="1" fill="#aaa" rx="4"/><rect width="40" height="40" x="6" y="4" fill="#d0d0d0" rx="5"/><text x="7" y="7" dominant-baseline="hanging" font-size="12"><tspan x="7" dy="0em">6,8</tspan></text></g><g id="M"><rect width="52" height="52" fill="none" stroke="#000" stroke-width="2" rx="5"/><rect width="50" height="50" x="1" y="1" fill="#aaa" rx="4"/><rect width="40" height="40" x="6" y="4" fill="#d0d0d0" rx="5"/><text x="7" y="7" dominant-baseline="hanging" font-size="12"><tspan x="7" dy="0em">6,6</tspan></text><text x="45" y="42" font-size="12" text-anchor="end"><tspan x="45" dy="0em">5,1</tspan></text></g><g id="N"><rect width="52" height="52" fill="none" stroke="#000" stroke-width="2" rx="5"/><rect width="50" height="50" x="1" y="1" fill="#aaa" rx="4"/><rect width="40" height="40" x="6" y="4" fill="#d0d0d0" rx="5"/><text x="7" y="7" dominant-baseline="hanging" font-size="12"><tspan x="7" dy="0em">6,7</tspan></text><text x="45" y="42" font-size="12" text-anchor="end"><tspan x="45" dy="0em">5,1</tspan></text></g><g id="O" font-size="12"><text x="7" y="7" dominant-baseline="hanging"><tspan x="7" dy="0em">1,0</tspan></text><text x="45" y="42" text-anchor="end"><tspan x="45" dy="0em">0,1</tspan></text></g><g id="P" font-size="12"><text x="7" y="7" dominant-baseline="hanging"><tspan x="7" dy="0em">1,1</tspan></text><text x="45" y="42" text-anchor="end"><tspan x="45" dy="0em">0,1</tspan></text></g><g id="Q"><rect width="52" height="52" fill="none" stroke="#000" stroke-width="2" rx="5"/><rect width="50" height="50" x="1" y="1" fill="#aaa" rx="4"/><rect width="40" height="40" x="6" y="4" fill="#d0d0d0" rx="5"/><text x="7" y="7" dominant-baseline="hanging" font-size="12"><tspan x="7" dy="0em">1,0</tspan></text><text x="45" y="42" font-size="12" text-anchor="end"><tspan x="45" dy="0em">0,0</tspan></text></g><g id="R"><rect width="52" height="52" fill="none" stroke="#000" stroke-width="2" rx="5"/><rect width="50" height="50" x="1" y="1" fill="#aaa" rx="4"/><rect width="40" height="40" x="6" y="4" fill="#d0d0d0" rx="5"/><text x="7" y="7" dominant-baseline="hanging" font-size="12"><tspan x="7" dy="0em">1,1</tspan></text><text x="45" y="42" font-size="12" text-anchor="end"><tspan x="45" dy="0em">0,0</tspan></text></g><g id="S"><rect width="78" height="52" fill="none" stroke="#000" stroke-width="2" rx="5"/><rect width="76" height="50" x="1" y="1" fill="#aaa" rx="4"/><rect width="66" height="40" x="6" y="4" fill="#d0d0d0" rx="5"/><text x="7" y="7" dominant-baseline="hanging" font-size="12"><tspan x="7" dy="0em">1,2</tspan></text></g><g id="T"><rect width="52" height="52" fill="none" stroke="#000" stroke-width="2" rx="5"/><rect width="50" height="50" x="1" y="1" fill="#ccc" rx="4"/><rect width="40" height="40" x="6" y="4" fill="#fbfbfb" rx="5"/><text x="7" y="7" dominant-baseline="hanging" font-size="12"><tspan x="7" dy="0em">1,3</tspan></text></g><g id="U"><rect width="52" height="52" fill="none" stroke="#000" stroke-width="2" rx="5"/><rect width="50" height="50" x="1" y="1" fill="#ccc" rx="4"/><rect width="40" height="40" x="6" y="4" fill="#fbfbfb" rx="5"/><text x="7" y="7" dominant-baseline="hanging" font-size="12"><tspan x="7" dy="0em">1,4</tspan></text></g><g id="V"><rect width="52" height="52" fill="none" stroke="#000" stroke-width="2" rx="5"/><rect width="50" height="50" x="1" y="1" fill="#ccc" rx="4"/><rect width="40" height="40" x="6" y="4" fill="#fbfbfb" rx="5"/><text x="7" y="7" dominant-baseline="hanging" font-size="12"><tspan x="7" dy="0em">1,5</tspan></text></g><g id="W"><rect width="52" height="52" fill="none" stroke="#000" stroke-width="2" rx="5"/><rect width="50" height="50" x="1" y="1" fill="#ccc" rx="4"/><rect width="40" height="40" x="6" y="4" fill="#fbfbfb" rx="5"/><text x="7" y="7" dominant-baseline="hanging" font-size="12"><tspan x="7" dy="0em">1,6</tspan></text></g><g id="X"><rect width="52" height="52" fill="none" stroke="#000" stroke-width="2" rx="5"/><rect width="50" height="50" x="1" y="1" fill="#ccc" rx="4"/><rect width="40" height="40" x="6" y="4" fill="#fbfbfb" rx="5"/><text x="7" y="7" dominant-baseline="hanging" font-size="12"><tspan x="7" dy="0em">1,7</tspan></text></g><g id="Y"><rect width="52" height="52" fill="none" stroke="#000" stroke-width="2" rx="5"/><rect width="50" height="50" x="1" y="1" fill="#ccc" rx="4"/><rect width="40" height="40" x="6" y="4" fill="#fbfbfb" rx="5"/><text x="7" y="7" dominant-baseline="hanging" font-size="12"><tspan x="7" dy="0em">7,0</tspan></text></g><g id="Z"><rect width="52" height="52" fill="none" stroke="#000" stroke-width="2" rx="5"/><rect width="50" height="50" x="1" y="1" fill="#ccc" rx="4"/><rect width="40" height="40" x="6" y="4" fill="#fbfbfb" rx="5"/><text x="7" y="7" dominant-baseline="hanging" font-size="12"><tspan x="7" dy="0em">7,1</tspan></text></g><g id="aa"><rect width="52" height="52" fill="none" stroke="#000" stroke-width="2" rx="5"/><rect width="50" height="50" x="1" y="1" fill="#ccc" rx="4"/><rect width="40" height="40" x="6" y="4" fill="#fbfbfb" rx="5"/><text x="7" y="7" dominant-baseline="hanging" font-size="12"><tspan x="7" dy="0em">7,2</tspan></text></g><g id="ab"><rect width="52" height="52" fill="none" stroke="#000" stroke-width="2" rx="5"/><rect width="50" height="50" x="1" y="1" fill="#ccc" rx="4"/><rect width="40" height="40" x="6" y="4" fill="#fbfbfb" rx="5"/><text x="7" y="7" dominant-baseline="hanging" font-size="12"><tspan x="7" dy="0em">7,3</tspan></text></g><g id="ac"><rect width="52" height="52" fill="none" stroke="#000" stroke-width="2" rx="5"/><rect width="50" height="50" x="1" y="1" fill="#ccc" rx="4"/><rect width="40" height="40" x="6" y="4" fill="#fbfbfb" rx="5"/><text x="7" y="7" dominant-baseline="hanging" font-size="12"><tspan x="7" dy="0em">7,4</tspan></text></g><g id="ad"><rect width="52" height="52" fill="none" stroke="#000" stroke-width="2" rx="5"/><rect width="50" height="50" x="1" y="1" fill="#ccc" rx="4"/><rect width="40" height="40" x="6" y="4" fill="#fbfbfb" rx="5"/><text x="7" y="7" dominant-baseline="hanging" font-size="12"><tspan x="7" dy="0em">7,5</tspan></text></g><g id="ae"><rect width="52" height="52" fill="none" stroke="#000" stroke-width="2" rx="5"/><rect width="50" height="50" x="1" y="1" fill="#ccc" rx="4"/><rect width="40" height="40" x="6" y="4" fill="#fbfbfb" rx="5"/><text x="7" y="7" dominant-baseline="hanging" font-size="12"><tspan x="7" dy="0em">7,6</tspan></text></g><g id="af"><rect width="78" height="52" fill="none" stroke="#000" stroke-width="2" rx="5"/><rect width="76" height="50" x="1" y="1" fill="#ccc" rx="4"/><rect width="66" height="40" x="6" y="4" fill="#fbfbfb" rx="5"/><text x="7" y="7" dominant-baseline="hanging" font-size="12"><tspan x="7" dy="0em">7,7</tspan></text><text x="71" y="42" font-size="12" text-anchor="end"><tspan x="71" dy="0em">6,0</tspan></text></g><g id="ag"><rect width="52" height="52" fill="none" stroke="#000" stroke-width="2" rx="5"/><rect width="50" height="50" x="1" y="1" fill="#aaa" rx="4"/><rect width="40" height="40" x="6" y="4" fill="#d0d0d0" rx="5"/><text x="7" y="7" dominant-baseline="hanging" font-size="12"><tspan x="7" dy="0em">7,8</tspan></text></g><g id="ah"><rect width="65" height="104" fill="none" stroke="#000" stroke-width="2" rx="5"/><rect width="78" height="52" x="-13" fill="none" stroke="#000" stroke-width="2" rx="5"/><rect width="63" height="102" x="1" y="1" fill="#777" rx="4"/><rect width="76" height="50" x="-12" y="1" fill="#777" rx="4"/><rect width="53" height="92" x="6" y="4" fill="#919191" rx="5"/><rect width="66" height="40" x="-7" y="4" fill="#919191" rx="5"/><text x="7" y="7" dominant-baseline="hanging" font-size="12"><tspan x="7" dy="0em">8,7</tspan></text><text x="58" y="94" font-size="12" text-anchor="end"><tspan x="58" dy="0em">6,1</tspan></text></g><g id="ai" font-size="12"><text x="7" y="7" dominant-baseline="hanging"><tspan x="7" dy="0em">2,0</tspan></text><text x="45" y="42" text-anchor="end"><tspan x="45" dy="0em">0,1</tspan></text></g><g id="aj" font-size="12"><text x="7" y="7" dominant-baseline="hanging"><tspan x="7" dy="0em">2,1</tspan></text><text x="45" y="42" text-anchor="end"><tspan x="45" dy="0em">0,1</tspan></text></g><g id="ak"><rect width="52" height="52" fill="none" stroke="#000" stroke-width="2" rx="5"/><rect width="50" height="50" x="1" y="1" fill="#aaa" rx="4"/><rect width="40" height="40" x="6" y="4" fill="#d0d0d0" rx="5"/><text x="7" y="7" dominant-baseline="hanging" font-size="12"><tspan x="7" dy="0em">2,0</tspan></text><text x="45" y="42" font-size="12" text-anchor="end"><tspan x="45" dy="0em">0,0</tspan></text></g><g id="al"><rect width="52" height="52" fill="none" stroke="#000" stroke-width="2" rx="5"/><rect width="50" height="50" x="1" y="1" fill="#aaa" rx="4"/><rect width="40" height="40" x="6" y="4" fill="#d0d0d0" rx="5"/><text x="7" y="7" dominant-baseline="hanging" font-size="12"><tspan x="7" dy="0em">2,1</tspan></text><text x="45" y="42" font-size="12" text-anchor="end"><tspan x="45" dy="0em">0,0</tspan></text></g><g id="am"><rect width="91" height="52" fill="none" stroke="#000" stroke-width="2" rx="5"/><rect width="89" height="50" x="1" y="1" fill="#aaa" rx="4"/><rect width="79" height="40" x="6" y="4" fill="#d0d0d0" rx="5"/><text x="7" y="7" dominant-baseline="hanging" font-size="12"><tspan x="7" dy="0em">2,2</tspan></text></g><g id="an"><rect width="52" height="52" fill="none" stroke="#000" stroke-width="2" rx="5"/><rect width="50" height="50" x="1" y="1" fill="#ccc" rx="4"/><rect width="40" height="40" x="6" y="4" fill="#fbfbfb" rx="5"/><text x="7" y="7" dominant-baseline="hanging" font-size="12"><tspan x="7" dy="0em">2,3</tspan></text></g><g id="ao"><rect width="52" height="52" fill="none" stroke="#000" stroke-width="2" rx="5"/><rect width="50" height="50" x="1" y="1" fill="#ccc" rx="4"/><rect width="40" height="40" x="6" y="4" fill="#fbfbfb" rx="5"/><text x="7" y="7" dominant-baseline="hanging" font-size="12"><tspan x="7" dy="0em">2,4</tspan></text></g><g id="ap"><rect width="52" height="52" fill="none" stroke="#000" stroke-width="2" rx="5"/><rect width="50" height="50" x="1" y="1" fill="#ccc" rx="4"/><rect width="40" height="40" x="6" y="4" fill="#fbfbfb" rx="5"/><text x="7" y="7" dominant-baseline="hanging" font-size="12"><tspan x="7" dy="0em">2,5</tspan></text></g><g id="aq"><rect width="52" height="52" fill="none" stroke="#000" stroke-width="2" rx="5"/><rect width="50" height="50" x="1" y="1" fill="#ccc" rx="4"/><rect width="40" height="40" x="6" y="4" fill="#fbfbfb" rx="5"/><text x="7" y="7" dominant-baseline="hanging" font-size="12"><tspan x="7" dy="0em">2,6</tspan></text></g><g id="ar"><rect width="52" height="52" fill="none" stroke="#000" stroke-width="2" rx="5"/><rect width="50" height="50" x="1" y="1" fill="#ccc" rx="4"/><rect width="40" height="40" x="6" y="4" fill="#fbfbfb" rx="5"/><text x="7" y="7" dominant-baseline="hanging" font-size="12"><tspan x="7" dy="0em">2,7</tspan></text></g><g id="as"><rect width="52" height="52" fill="none" stroke="#000" stroke-width="2" rx="5"/><rect width="50" height="50" x="1" y="1" fill="#ccc" rx="4"/><rect width="40" height="40" x="6" y="4" fill="#fbfbfb" rx="5"/><text x="7" y="7" dominant-baseline="hanging" font-size="12"><tspan x="7" dy="0em">8,0</tspan></text></g><g id="at"><rect width="52" height="52" fill="none" stroke="#000" stroke-width="2" rx="5"/><rect width="50" height="50" x="1" y="1" fill="#ccc" rx="4"/><rect width="40" height="40" x="6" y="4" fill="#fbfbfb" rx="5"/><text x="7" y="7" dominant-baseline="hanging" font-size="12"><tspan x="7" dy="0em">8,1</tspan></text></g><g id="au"><rect width="52" height="52" fill="none" stroke="#000" stroke-width="2" rx="5"/><rect width="50" height="50" x="1" y="1" fill="#ccc" rx="4"/><rect width="40" height="40" x="6" y="4" fill="#fbfbfb" rx="5"/><text x="7" y="7" dominant-baseline="hanging" font-size="12"><tspan x="7" dy="0em">8,2</tspan></text></g><g id="av"><rect width="52" height="52" fill="none" stroke="#000" stroke-width="2" rx="5"/><rect width="50" height="50" x="1" y="1" fill="#ccc" rx="4"/><rect width="40" height="40" x="6" y="4" fill="#fbfbfb" rx="5"/><text x="7" y="7" dominant-baseline="hanging" font-size="12"><tspan x="7" dy="0em">8,3</tspan></text></g><g id="aw"><rect width="52" height="52" fill="none" stroke="#000" stroke-width="2" rx="5"/><rect width="50" height="50" x="1" y="1" fill="#ccc" rx="4"/><rect width="40" height="40" x="6" y="4" fill="#fbfbfb" rx="5"/><text x="7" y="7" dominant-baseline="hanging" font-size="12"><tspan x="7" dy="0em">8,4</tspan></text></g><g id="ax"><rect width="52" height="52" fill="none" stroke="#000" stroke-width="2" rx="5"/><rect width="50" height="50" x="1" y="1" fill="#ccc" rx="4"/><rect width="40" height="40" x="6" y="4" fill="#fbfbfb" rx="5"/><text x="7" y="7" dominant-baseline="hanging" font-size="12"><tspan x="7" dy="0em">8,5</tspan></text></g><g id="ay"><rect width="117" height="52" fill="none" stroke="#000" stroke-width="2" rx="5"/><rect width="115" height="50" x="1" y="1" fill="#777" rx="4"/><rect width="105" height="40" x="6" y="4" fill="#919191" rx="5"/><text x="7" y="7" dominant-baseline="hanging" font-size="12"><tspan x="7" dy="0em">8,7</tspan></text><text x="110" y="42" font-size="12" text-anchor="end"><tspan x="110" dy="0em">6,0</tspan></text></g><g id="az"><rect width="52" height="52" fill="none" stroke="#000" stroke-width="2" rx="5"/><rect width="50" height="50" x="1" y="1" fill="#aaa" rx="4"/><rect width="40" height="40" x="6" y="4" fill="#d0d0d0" rx="5"/><text x="7" y="7" dominant-baseline="hanging" font-size="12"><tspan x="7" dy="0em">8,8</tspan></text></g><g id="aA"><rect width="52" height="52" fill="none" stroke="#000" stroke-width="2" rx="5"/><rect width="50" height="50" x="1" y="1" fill="#ccc" rx="4"/><rect width="40" height="40" x="6" y="4" fill="#fbfbfb" rx="5"/><text x="7" y="7" dominant-baseline="hanging" font-size="12"><tspan x="7" dy="0em">8,6</tspan></text><text x="45" y="42" font-size="12" text-anchor="end"><tspan x="45" dy="0em">6,1</tspan></text></g><g id="aB" font-size="12"><text x="7" y="7" dominant-baseline="hanging"><tspan x="7" dy="0em">3,0</tspan></text><text x="45" y="42" text-anchor="end"><tspan x="45" dy="0em">0,1</tspan></text></g><g id="aC" font-size="12"><text x="7" y="7" dominant-baseline="hanging"><tspan x="7" dy="0em">3,1</tspan></text><text x="45" y="42" text-anchor="end"><tspan x="45" dy="0em">0,1</tspan></text></g><g id="aD"><rect width="52" height="52" fill="none" stroke="#000" stroke-width="2" rx="5"/><rect width="50" height="50" x="1" y="1" fill="#aaa" rx="4"/><rect width="40" height="40" x="6" y="4" fill="#d0d0d0" rx="5"/><text x="7" y="7" dominant-baseline="hanging" font-size="12"><tspan x="7" dy="0em">3,0</tspan></text><text x="45" y="42" font-size="12" text-anchor="end"><tspan x="45" dy="0em">0,0</tspan></text></g><g id="aE"><rect width="52" height="52" fill="none" stroke="#000" stroke-width="2" rx="5"/><rect width="50" height="50" x="1" y="1" fill="#aaa" rx="4"/><rect width="40" height="40" x="6" y="4" fill="#d0d0d0" rx="5"/><text x="7" y="7" dominant-baseline="hanging" font-size="12"><tspan x="7" dy="0em">3,1</tspan></text><text x="45" y="42" font-size="12" text-anchor="end"><tspan x="45" dy="0em">0,0</tspan></text></g><g id="aF"><rect width="117" height="52" fill="none" stroke="#000" stroke-width="2" rx="5"/><rect width="115" height="50" x="1" y="1" fill="#aaa" rx="4"/><rect width="105" height="40" x="6" y="4" fill="#d0d0d0" rx="5"/><text x="7" y="7" dominant-baseline="hanging" font-size="12"><tspan x="7" dy="0em">3,2</tspan></text><text x="110" y="42" font-size="12" text-anchor="end"><tspan x="110" dy="0em">2,0</tspan></text></g><g id="aG"><rect width="52" height="52" fill="none" stroke="#000" stroke-width="2" rx="5"/><rect width="50" height="50" x="1" y="1" fill="#ccc" rx="4"/><rect width="40" height="40" x="6" y="4" fill="#fbfbfb" rx="5"/><text x="7" y="7" dominant-baseline="hanging" font-size="12"><tspan x="7" dy="0em">3,4</tspan></text></g><g id="aH"><rect width="52" height="52" fill="none" stroke="#000" stroke-width="2" rx="5"/><rect width="50" height="50" x="1" y="1" fill="#ccc" rx="4"/><rect width="40" height="40" x="6" y="4" fill="#fbfbfb" rx="5"/><text x="7" y="7" dominant-baseline="hanging" font-size="12"><tspan x="7" dy="0em">3,5</tspan></text></g><g id="aI"><rect width="52" height="52" fill="none" stroke="#000" stroke-width="2" rx="5"/><rect width="50" height="50" x="1" y="1" fill="#ccc" rx="4"/><rect width="40" height="40" x="6" y="4" fill="#fbfbfb" rx="5"/><text x="7" y="7" dominant-baseline="hanging" font-size="12"><tspan x="7" dy="0em">3,6</tspan></text></g><g id="aJ"><rect width="52" height="52" fill="none" stroke="#000" stroke-width="2" rx="5"/><rect width="50" height="50" x="1" y="1" fill="#ccc" rx="4"/><rect width="40" height="40" x="6" y="4" fill="#fbfbfb" rx="5"/><text x="7" y="7" dominant-baseline="hanging" font-size="12"><tspan x="7" dy="0em">3,7</tspan></text></g><g id="aK"><rect width="52" height="52" fill="none" stroke="#000" stroke-width="2" rx="5"/><rect width="50" height="50" x="1" y="1" fill="#ccc" rx="4"/><rect width="40" height="40" x="6" y="4" fill="#fbfbfb" rx="5"/><text x="7" y="7" dominant-baseline="hanging" font-size="12"><tspan x="7" dy="0em">3,8</tspan></text></g><g id="aL"><rect width="52" height="52" fill="none" stroke="#000" stroke-width="2" rx="5"/><rect width="50" height="50" x="1" y="1" fill="#ccc" rx="4"/><rect width="40" height="40" x="6" y="4" fill="#fbfbfb" rx="5"/><text x="7" y="7" dominant-baseline="hanging" font-size="12"><tspan x="7" dy="0em">9,0</tspan></text></g><g id="aM"><rect width="52" height="52" fill="none" stroke="#000" stroke-width="2" rx="5"/><rect width="50" height="50" x="1" y="1" fill="#ccc" rx="4"/><rect width="40" height="40" x="6" y="4" fill="#fbfbfb" rx="5"/><text x="7" y="7" dominant-baseline="hanging" font-size="12"><tspan x="7" dy="0em">9,1</tspan></text></g><g id="aN"><rect width="52" height="52" fill="none" stroke="#000" stroke-width="2" rx="5"/><rect width="50" height="50" x="1" y="1" fill="#ccc" rx="4"/><rect width="40" height="40" x="6" y="4" fill="#fbfbfb" rx="5"/><text x="7" y="7" dominant-baseline="hanging" font-size="12"><tspan x="7" dy="0em">9,2</tspan></text></g><g id="aO"><rect width="52" height="52" fill="none" stroke="#000" stroke-width="2" rx="5"/><rect width="50" height="50" x="1" y="1" fill="#ccc" rx="4"/><rect width="40" height="40" x="6" y="4" fill="#fbfbfb" rx="5"/><text x="7" y="7" dominant-baseline="hanging" font-size="12"><tspan x="7" dy="0em">9,3</tspan></text></g><g id="aP"><rect width="52" height="52" fill="none" stroke="#000" stroke-width="2" rx="5"/><rect width="50" height="50" x="1" y="1" fill="#ccc" rx="4"/><rect width="40" height="40" x="6" y="4" fill="#fbfbfb" rx="5"/><text x="7" y="7" dominant-baseline="hanging" font-size="12"><tspan x="7" dy="0em">9,4</tspan></text></g><g id="aQ"><rect width="91" height="52" fill="none" stroke="#000" stroke-width="2" rx="5"/><rect width="89" height="50" x="1" y="1" fill="#aaa" rx="4"/><rect width="79" height="40" x="6" y="4" fill="#d0d0d0" rx="5"/><text x="7" y="7" dominant-baseline="hanging" font-size="12"><tspan x="7" dy="0em">9,6</tspan></text><text x="84" y="42" font-size="12" text-anchor="end"><tspan x="84" dy="0em">7,0</tspan></text></g><g id="aR"><rect width="52" height="52" fill="none" stroke="#000" stroke-width="2" rx="5"/><rect width="50" height="50" x="1" y="1" fill="#aaa" rx="4"/><rect width="40" height="40" x="6" y="4" fill="#d0d0d0" rx="5"/><text x="7" y="7" dominant-baseline="hanging" font-size="12"><tspan x="7" dy="0em">9,7</tspan></text><text x="45" y="42" font-size="12" text-anchor="end"><tspan x="45" dy="0em">7,0</tspan></text></g><g id="aS"><rect width="52" height="52" fill="none" stroke="#000" stroke-width="2" rx="5"/><rect width="50" height="50" x="1" y="1" fill="#aaa" rx="4"/><rect width="40" height="40" x="6" y="4" fill="#d0d0d0" rx="5"/><text x="7" y="7" dominant-baseline="hanging" font-size="12"><tspan x="7" dy="0em">9,8</tspan></text></g><g id="aT"><rect width="143" height="52" fill="none" stroke="#000" stroke-width="2" rx="5"/><rect width="141" height="50" x="1" y="1" fill="#aaa" rx="4"/><rect width="131" height="40" x="6" y="4" fill="#d0d0d0" rx="5"/><text x="7" y="7" dominant-baseline="hanging" font-size="12"><tspan x="7" dy="0em">9,6</tspan></text><text x="136" y="42" font-size="12" text-anchor="end"><tspan x="136" dy="0em">7,1</tspan></text></g><g id="aU" font-size="12"><text x="7" y="7" dominant-baseline="hanging"><tspan x="7" dy="0em">4,0</tspan></text><text x="45" y="42" text-anchor="end"><tspan x="45" dy="0em">0,1</tspan></text></g><g id="aV" font-size="12"><text x="7" y="7" dominant-baseline="hanging"><tspan x="7" dy="0em">4,1</tspan></text><text x="45" y="42" text-anchor="end"><tspan x="45" dy="0em">0,1</tspan></text></g><g id="aW"><rect width="52" height="52" fill="none" stroke="#000" stroke-width="2" rx="5"/><rect width="50" height="50" x="1" y="1" fill="#aaa" rx="4"/><rect width="40" height="40" x="6" y="4" fill="#d0d0d0" rx="5"/><text x="7" y="7" dominant-baseline="hanging" font-size="12"><tspan x="7" dy="0em">4,0</tspan></text><text x="45" y="42" font-size="12" text-anchor="end"><tspan x="45" dy="0em">0,0</tspan></text></g><g id="aX"><rect width="52" height="52" fill="none" stroke="#000" stroke-width="2" rx="5"/><rect width="50" height="50" x="1" y="1" fill="#aaa" rx="4"/><rect width="40" height="40" x="6" y="4" fill="#d0d0d0" rx="5"/><text x="7" y="7" dominant-baseline="hanging" font-size="12"><tspan x="7" dy="0em">4,1</tspan></text><text x="45" y="42" font-size="12" text-anchor="end"><tspan x="45" dy="0em">0,0</tspan></text></g><g id="aY"><rect width="65" height="52" fill="none" stroke="#000" stroke-width="2" rx="5"/><rect width="63" height="50" x="1" y="1" fill="#aaa" rx="4"/><rect width="53" height="40" x="6" y="4" fill="#d0d0d0" rx="5"/><text x="7" y="7" dominant-baseline="hanging" font-size="12"><tspan x="7" dy="0em">4,2</tspan></text></g><g id="aZ"><rect width="65" height="52" fill="none" stroke="#000" stroke-width="2" rx="5"/><rect width="63" height="50" x="1" y="1" fill="#aaa" rx="4"/><rect width="53" height="40" x="6" y="4" fill="#d0d0d0" rx="5"/><text x="7" y="7" dominant-baseline="hanging" font-size="12"><tspan x="7" dy="0em">4,3</tspan></text></g><g id="ba"><rect width="65" height="52" fill="none" stroke="#000" stroke-width="2" rx="5"/><rect width="63" height="50" x="1" y="1" fill="#aaa" rx="4"/><rect width="53" height="40" x="6" y="4" fill="#d0d0d0" rx="5"/><text x="7" y="7" dominant-baseline="hanging" font-size="12"><tspan x="7" dy="0em">4,4</tspan></text></g><g id="bb"><rect width="65" height="52" fill="none" stroke="#000" stroke-width="2" rx="5"/><rect width="63" height="50" x="1" y="1" fill="#aaa" rx="4"/><rect width="53" height="40" x="6" y="4" fill="#d0d0d0" rx="5"/><text x="7" y="7" dominant-baseline="hanging" font-size="12"><tspan x="7" dy="0em">4,5</tspan></text><text x="58" y="42" font-size="12" text-anchor="end"><tspan x="58" dy="0em">3,0</tspan></text></g><g id="bc"><rect width="117" height="52" fill="none" stroke="#000" stroke-width="2" rx="5"/><rect width="115" height="50" x="1" y="1" fill="#ccc" rx="4"/><rect width="105" height="40" x="6" y="4" fill="#fbfbfb" rx="5"/><text x="7" y="7" dominant-baseline="hanging" font-size="12"><tspan x="7" dy="0em">4,7</tspan></text><text x="110" y="42" font-size="12" text-anchor="end"><tspan x="110" dy="0em">3,0</tspan></text></g><g id="bd"><rect width="143" height="52" fill="none" stroke="#000" stroke-width="2" rx="5"/><rect width="141" height="50" x="1" y="1" fill="#ccc" rx="4"/><rect width="131" height="40" x="6" y="4" fill="#fbfbfb" rx="5"/><text x="7" y="7" dominant-baseline="hanging" font-size="12"><tspan x="7" dy="0em">10,1</tspan></text><text x="136" y="42" font-size="12" text-anchor="end"><tspan x="136" dy="0em">9,0</tspan></text></g><g id="be"><rect width="52" height="52" fill="none" stroke="#000" stroke-width="2" rx="5"/><rect width="50" height="50" x="1" y="1" fill="#aaa" rx="4"/><rect width="40" height="40" x="6" y="4" fill="#d0d0d0" rx="5"/><text x="7" y="7" dominant-baseline="hanging" font-size="12"><tspan x="7" dy="0em">10,2</tspan></text><text x="45" y="42" font-size="12" text-anchor="end"><tspan x="45" dy="0em">8,0</tspan></text></g><g id="bf"><rect width="52" height="52" fill="none" stroke="#000" stroke-width="2" rx="5"/><rect width="50" height="50" x="1" y="1" fill="#aaa" rx="4"/><rect width="40" height="40" x="6" y="4" fill="#d0d0d0" rx="5"/><text x="7" y="7" dominant-baseline="hanging" font-size="12"><tspan x="7" dy="0em">10,3</tspan></text><text x="45" y="42" font-size="12" text-anchor="end"><tspan x="45" dy="0em">8,0</tspan></text></g><g id="bg"><rect width="52" height="52" fill="none" stroke="#000" stroke-width="2" rx="5"/><rect width="50" height="50" x="1" y="1" fill="#aaa" rx="4"/><rect width="40" height="40" x="6" y="4" fill="#d0d0d0" rx="5"/><text x="7" y="7" dominant-baseline="hanging" font-size="12"><tspan x="7" dy="0em">10,4</tspan></text><text x="45" y="42" font-size="12" text-anchor="end"><tspan x="45" dy="0em">8,0</tspan></text></g><g id="bh"><rect width="52" height="52" fill="none" stroke="#000" stroke-width="2" rx="5"/><rect width="50" height="50" x="1" y="1" fill="#aaa" rx="4"/><rect width="40" height="40" x="6" y="4" fill="#d0d0d0" rx="5"/><text x="7" y="7" dominant-baseline="hanging" font-size="12"><tspan x="7" dy="0em">10,6</tspan></text><text x="45" y="42" font-size="12" text-anchor="end"><tspan x="45" dy="0em">8,0</tspan></text></g><g id="bi"><rect width="52" height="52" fill="none" stroke="#000" stroke-width="2" rx="5"/><rect width="50" height="50" x="1" y="1" fill="#aaa" rx="4"/><rect width="40" height="40" x="6" y="4" fill="#d0d0d0" rx="5"/><text x="7" y="7" dominant-baseline="hanging" font-size="12"><tspan x="7" dy="0em">10,7</tspan></text><text x="45" y="42" font-size="12" text-anchor="end"><tspan x="45" dy="0em">8,0</tspan></text></g><g id="bj"><rect width="52" height="52" fill="none" stroke="#000" stroke-width="2" rx="5"/><rect width="50" height="50" x="1" y="1" fill="#aaa" rx="4"/><rect width="40" height="40" x="6" y="4" fill="#d0d0d0" rx="5"/><text x="7" y="7" dominant-baseline="hanging" font-size="12"><tspan x="7" dy="0em">10,8</tspan></text></g><g id="bk"><rect width="65" height="52" fill="none" stroke="#000" stroke-width="2" rx="5"/><rect width="63" height="50" x="1" y="1" fill="#aaa" rx="4"/><rect width="53" height="40" x="6" y="4" fill="#d0d0d0" rx="5"/><text x="7" y="7" dominant-baseline="hanging" font-size="12"><tspan x="7" dy="0em">3,2</tspan></text><text x="58" y="42" font-size="12" text-anchor="end"><tspan x="58" dy="0em">2,1</tspan></text></g><g id="bl"><rect width="52" height="52" fill="none" stroke="#000" stroke-width="2" rx="5"/><rect width="50" height="50" x="1" y="1" fill="#aaa" rx="4"/><rect width="40" height="40" x="6" y="4" fill="#d0d0d0" rx="5"/><text x="7" y="7" dominant-baseline="hanging" font-size="12"><tspan x="7" dy="0em">3,3</tspan></text><text x="45" y="42" font-size="12" text-anchor="end"><tspan x="45" dy="0em">2,1</tspan></text></g><g id="bm"><rect width="117" height="52" fill="none" stroke="#000" stroke-width="2" rx="5"/><rect width="115" height="50" x="1" y="1" fill="#aaa" rx="4"/><rect width="105" height="40" x="6" y="4" fill="#d0d0d0" rx="5"/><text x="7" y="7" dominant-baseline="hanging" font-size="12"><tspan x="7" dy="0em">4,5</tspan></text><text x="110" y="42" font-size="12" text-anchor="end"><tspan x="110" dy="0em">3,1</tspan></text></g><g id="bn"><rect width="65" height="52" fill="none" stroke="#000" stroke-width="2" rx="5"/><rect width="63" height="50" x="1" y="1" fill="#aaa" rx="4"/><rect width="53" height="40" x="6" y="4" fill="#d0d0d0" rx="5"/><text x="7" y="7" dominant-baseline="hanging" font-size="12"><tspan x="7" dy="0em">4,7</tspan></text><text x="58" y="42" font-size="12" text-anchor="end"><tspan x="58" dy="0em">3,1</tspan></text></g><g id="bo"><rect width="65" height="52" fill="none" stroke="#000" stroke-width="2" rx="5"/><rect width="63" height="50" x="1" y="1" fill="#aaa" rx="4"/><rect width="53" height="40" x="6" y="4" fill="#d0d0d0" rx="5"/><text x="7" y="7" dominant-baseline="hanging" font-size="12"><tspan x="7" dy="0em">10,0</tspan></text><text x="58" y="42" font-size="12" text-anchor="end"><tspan x="58" dy="0em">9,1</tspan></text></g><g id="bp"><rect width="78" height="52" fill="none" stroke="#000" stroke-width="2" rx="5"/><rect width="76" height="50" x="1" y="1" fill="#aaa" rx="4"/><rect width="66" height="40" x="6" y="4" fill="#d0d0d0" rx="5"/><text x="7" y="7" dominant-baseline="hanging" font-size="12"><tspan x="7" dy="0em">10,1</tspan></text><text x="71" y="42" font-size="12" text-anchor="end"><tspan x="71" dy="0em">9,1</tspan></text></g><g id="bq"><rect width="65" height="52" fill="none" stroke="#000" stroke-width="2" rx="5"/><rect width="63" height="50" x="1" y="1" fill="#aaa" rx="4"/><rect width="53" height="40" x="6" y="4" fill="#d0d0d0" rx="5"/><text x="7" y="7" dominant-baseline="hanging" font-size="12"><tspan x="7" dy="0em">10,2</tspan></text><text x="58" y="42" font-size="12" text-anchor="end"><tspan x="58" dy="0em">8,1</tspan></text></g><g id="br"><rect width="65" height="52" fill="none" stroke="#000" stroke-width="2" rx="5"/><rect width="63" height="50" x="1" y="1" fill="#aaa" rx="4"/><rect width="53" height="40" x="6" y="4" fill="#d0d0d0" rx="5"/><text x="7" y="7" dominant-baseline="hanging" font-size="12"><tspan x="7" dy="0em">10,3</tspan></text><text x="58" y="42" font-size="12" text-anchor="end"><tspan x="58" dy="0em">8,1</tspan></text></g><g id="bs"><rect width="65" height="52" fill="none" stroke="#000" stroke-width="2" rx="5"/><rect width="63" height="50" x="1" y="1" fill="#aaa" rx="4"/><rect width="53" height="40" x="6" y="4" fill="#d0d0d0" rx="5"/><text x="7" y="7" dominant-baseline="hanging" font-size="12"><tspan x="7" dy="0em">10,6</tspan></text><text x="58" y="42" font-size="12" text-anchor="end"><tspan x="58" dy="0em">8,1</tspan></text></g><g id="bt"><rect width="65" height="52" fill="none" stroke="#000" stroke-width="2" rx="5"/><rect width="63" height="50" x="1" y="1" fill="#aaa" rx="4"/><rect width="53" height="40" x="6" y="4" fill="#d0d0d0" rx="5"/><text x="7" y="7" dominant-baseline="hanging" font-size="12"><tspan x="7" dy="0em">10,7</tspan></text><text x="58" y="42" font-size="12" text-anchor="end"><tspan x="58" dy="0em">8,1</tspan></text></g><g id="bu"><rect width="65" height="52" fill="none" stroke="#000" stroke-width="2" rx="5"/><rect width="63" height="50" x="1" y="1" fill="#aaa" rx="4"/><rect width="53" height="40" x="6" y="4" fill="#d0d0d0" rx="5"/><text x="7" y="7" dominant-baseline="hanging" font-size="12"><tspan x="7" dy="0em">4,5</tspan></text><text x="58" y="42" font-size="12" text-anchor="end"><tspan x="58" dy="0em">3,2</tspan></text></g><g id="bv"><rect width="52" height="52" fill="none" stroke="#000" stroke-width="2" rx="5"/><rect width="50" height="50" x="1" y="1" fill="#aaa" rx="4"/><rect width="40" height="40" x="6" y="4" fill="#d0d0d0" rx="5"/><text x="7" y="7" dominant-baseline="hanging" font-size="12"><tspan x="7" dy="0em">4,6</tspan></text><text x="45" y="42" font-size="12" text-anchor="end"><tspan x="45" dy="0em">3,2</tspan></text></g><g id="bw"><rect width="65" height="52" fill="none" stroke="#000" stroke-width="2" rx="5"/><rect width="63" height="50" x="1" y="1" fill="#aaa" rx="4"/><rect width="53" height="40" x="6" y="4" fill="#d0d0d0" rx="5"/><text x="7" y="7" dominant-baseline="hanging" font-size="12"><tspan x="7" dy="0em">4,7</tspan></text><text x="58" y="42" font-size="12" text-anchor="end"><tspan x="58" dy="0em">3,2</tspan></text></g></defs><use xlink:href="#a" x="4" y="4"/><use xlink:href="#b" x="121" y="4"/><use xlink:href="#c" x="173" y="4"/><use xlink:href="#d" x="251" y="4"/><use xlink:href="#e" x="316" y="4"/><use xlink:href="#f" x="368" y="4"/><use xlink:href="#g" x="420" y="4"/><use xlink:href="#h" x="472" y="4"/><use xlink:href="#i" x="537" y="4"/><use xlink:href="#j" x="589" y="4"/><use xlink:href="#k" x="693" y="4"/><use xlink:href="#l" x="745" y="4"/><use xlink:href="#m" x="810" y="4"/><use xlink:href="#n" x="862" y="4"/><use xlink:href="#o" x="914" y="4"/><use xlink:href="#p" x="966" y="4"/><use xlink:href="#q" x="1031" y="4"/><use xlink:href="#r" x="1083" y="4"/><use xlink:href="#s" x="1174" y="4"/><use xlink:href="#t" x="4" y="69"/><use xlink:href="#u" x="56" y="69"/><use xlink:href="#v" x="121" y="69"/><use xlink:href="#w" x="173" y="69"/><use xlink:href="#x" x="251" y="69"/><use xlink:href="#y" x="303" y="69"/><use xlink:href="#z" x="355" y="69"/><use xlink:href="#A" x="407" y="69"/><use xlink:href="#B" x="459" y="69"/><use xlink:href="#C" x="511" y="69"/><use xlink:href="#D" x="563" y="69"/><use xlink:href="#E" x="667" y="69"/><use xlink:href="#F" x="719" y="69"/><use xlink:href="#G" x="771" y="69"/><use xlink:href="#H" x="823" y="69"/><use xlink:href="#I" x="875" y="69"/><use xlink:href="#J" x="927" y="69"/><use xlink:href="#K" x="979" y="69"/><use xlink:href="#L" x="1083" y="69"/><use xlink:href="#M" x="1174" y="69"/><use xlink:href="#N" x="1226" y="69"/><use xlink:href="#O" x="4" y="121"/><use xlink:href="#P" x="56" y="121"/><use xlink:href="#Q" x="121" y="121"/><use xlink:href="#R" x="173" y="121"/><use xlink:href="#S" x="251" y="121"/><use xlink:href="#T" x="329" y="121"/><use xlink:href="#U" x="381" y="121"/><use xlink:href="#V" x="433" y="121"/><use xlink:href="#W" x="485" y="121"/><use xlink:href="#X" x="537" y="121"/><use xlink:href="#Y" x="641" y="121"/><use xlink:href="#Z" x="693" y="121"/><use xlink:href="#aa" x="745" y="121"/><use xlink:href="#ab" x="797" y="121"/><use xlink:href="#ac" x="849" y="121"/><use xlink:href="#ad" x="901" y="121"/><use xlink:href="#ae" x="953" y="121"/><use xlink:href="#af" x="1005" y="121"/><use xlink:href="#ag" x="1083" y="121"/><use xlink:href="#ah" x="1239" y="121"/><use xlink:href="#ai" x="4" y="173"/><use xlink:href="#aj" x="56" y="173"/><use xlink:href="#ak" x="121" y="173"/><use xlink:href="#al" x="173" y="173"/><use xlink:href="#am" x="251" y="173"/><use xlink:href="#an" x="342" y="173"/><use xlink:href="#ao" x="394" y="173"/><use xlink:href="#ap" x="446" y="173"/><use xlink:href="#aq" x="498" y="173"/><use xlink:href="#ar" x="550" y="173"/><use xlink:href="#as" x="654" y="173"/><use xlink:href="#at" x="706" y="173"/><use xlink:href="#au" x="758" y="173"/><use xlink:href="#av" x="810" y="173"/><use xlink:href="#aw" x="862" y="173"/><use xlink:href="#ax" x="914" y="173"/><use xlink:href="#ay" x="966" y="173"/><use xlink:href="#az" x="1083" y="173"/><use xlink:href="#aA" x="1187" y="173"/><use xlink:href="#aB" x="4" y="225"/><use xlink:href="#aC" x="56" y="225"/><use xlink:href="#aD" x="121" y="225"/><use xlink:href="#aE" x="173" y="225"/><use xlink:href="#aF" x="251" y="225"/><use xlink:href="#aG" x="368" y="225"/><use xlink:href="#aH" x="420" y="225"/><use xlink:href="#aI" x="472" y="225"/><use xlink:href="#aJ" x="524" y="225"/><use xlink:href="#aK" x="576" y="225"/><use xlink:href="#aL" x="680" y="225"/><use xlink:href="#aM" x="732" y="225"/><use xlink:href="#aN" x="784" y="225"/><use xlink:href="#aO" x="836" y="225"/><use xlink:href="#aP" x="888" y="225"/><use xlink:href="#aQ" x="940" y="225"/><use xlink:href="#aR" x="1031" y="225"/><use xlink:href="#aS" x="1083" y="225"/><use xlink:href="#aT" x="1161" y="225"/><use xlink:href="#aU" x="4" y="277"/><use xlink:href="#aV" x="56" y="277"/><use xlink:href="#aW" x="121" y="277"/><use xlink:href="#aX" x="173" y="277"/><use xlink:href="#aY" x="251" y="277"/><use xlink:href="#aZ" x="316" y="277"/><use xlink:href="#ba" x="381" y="277"/><use xlink:href="#bb" x="446" y="277"/><use xlink:href="#bc" x="511" y="277"/><use xlink:href="#bd" x="680" y="277"/><use xlink:href="#be" x="823" y="277"/><use xlink:href="#bf" x="875" y="277"/><use xlink:href="#bg" x="927" y="277"/><use xlink:href="#bh" x="979" y="277"/><use xlink:href="#bi" x="1031" y="277"/><use xlink:href="#bj" x="1083" y="277"/><use xlink:href="#bk" x="251" y="329"/><use xlink:href="#bl" x="316" y="329"/><use xlink:href="#bm" x="446" y="329"/><use xlink:href="#bn" x="563" y="329"/><use xlink:href="#bo" x="680" y="329"/><use xlink:href="#bp" x="745" y="329"/><use xlink:href="#bq" x="823" y="329"/><use xlink:href="#br" x="888" y="329"/><use xlink:href="#bs" x="953" y="329"/><use xlink:href="#bt" x="1018" y="329"/><use xlink:href="#bu" x="446" y="381"/><use xlink:href="#bv" x="511" y="381"/><use xlink:href="#bw" x="563" y="381"/></svg>