<?xml version="1.0" encoding="UTF-8"?>
<!DOCTYPE svg  PUBLIC '-//W3C//DTD SVG 1.1//EN'  'http://www.w3.org/Graphics/SVG/1.1/DTD/svg11.dtd'>
<svg width="38.176mm" height="66.751mm" version="1.1" viewBox="0 0 38.176 66.751" xmlns="http://www.w3.org/2000/svg">
 <title>SVG Image created as retropad-render.svg date 2025/09/05 18:40:51</title>
 <desc>Image generated by PCBNEW</desc>
 <rect width="38.176mm" height="66.751mm" fill="#282A36"/>
 <g fill="none" stroke="#8BE9FD" stroke-linecap="round" stroke-linejoin="round" stroke-width=".15">
  <text x="9.5750" y="49.7000" font-size="1.3333" opacity="0" stroke-opacity="0" text-anchor="middle" lengthAdjust="spacingAndGlyphs" textLength="3.2976">SW4</text>
  <g class="stroked-text">
   <desc>SW4</desc>
   <path d="m8.2417 49.607 0.1428 0.0476"/>
   <path d="m8.3845 49.655h0.2381"/>
   <path d="m8.6226 49.655 0.0953-0.0476"/>
   <path d="m8.7179 49.607 0.0476-0.0476"/>
   <path d="m8.7655 49.56 0.0476-0.0953"/>
   <path d="m8.8131 49.464v-0.0952"/>
   <path d="m8.8131 49.369-0.0476-0.0952"/>
   <path d="m8.7655 49.274-0.0476-0.0477"/>
   <path d="m8.7179 49.226-0.0953-0.0476"/>
   <path d="m8.6226 49.179-0.1905-0.0476"/>
   <path d="m8.4321 49.131-0.0952-0.0476"/>
   <path d="m8.3369 49.083-0.0476-0.0476"/>
   <path d="m8.2893 49.036-0.0476-0.0953"/>
   <path d="m8.2417 48.94v-0.0952"/>
   <path d="m8.2417 48.845 0.0476-0.0952"/>
   <path d="m8.2893 48.75 0.0476-0.0477"/>
   <path d="m8.3369 48.702 0.0952-0.0476"/>
   <path d="m8.4321 48.655h0.2381"/>
   <path d="m8.6702 48.655 0.1429 0.0476"/>
   <path d="m9.1464 48.655 0.2381 1"/>
   <path d="m9.3845 49.655 0.1905-0.7143"/>
   <path d="m9.575 48.94 0.1905 0.7143"/>
   <path d="m9.7655 49.655 0.2381-1"/>
   <path d="m10.813 48.988v0.6666"/>
   <path d="m10.575 48.607-0.2381 0.7143"/>
   <path d="m10.337 49.322h0.6191"/>
  </g>
  <text x="9.5750" y="30.6500" font-size="1.3333" opacity="0" stroke-opacity="0" text-anchor="middle" lengthAdjust="spacingAndGlyphs" textLength="3.2976">SW2</text>
  <g class="stroked-text">
   <desc>SW2</desc>
   <path d="m8.2417 30.557 0.1428 0.0476"/>
   <path d="m8.3845 30.605h0.2381"/>
   <path d="m8.6226 30.605 0.0953-0.0476"/>
   <path d="m8.7179 30.557 0.0476-0.0476"/>
   <path d="m8.7655 30.51 0.0476-0.0953"/>
   <path d="m8.8131 30.414v-0.0952"/>
   <path d="m8.8131 30.319-0.0476-0.0952"/>
   <path d="m8.7655 30.224-0.0476-0.0477"/>
   <path d="m8.7179 30.176-0.0953-0.0476"/>
   <path d="m8.6226 30.129-0.1905-0.0476"/>
   <path d="m8.4321 30.081-0.0952-0.0476"/>
   <path d="m8.3369 30.033-0.0476-0.0476"/>
   <path d="m8.2893 29.986-0.0476-0.0953"/>
   <path d="m8.2417 29.89v-0.0952"/>
   <path d="m8.2417 29.795 0.0476-0.0952"/>
   <path d="m8.2893 29.7 0.0476-0.0477"/>
   <path d="m8.3369 29.652 0.0952-0.0476"/>
   <path d="m8.4321 29.605h0.2381"/>
   <path d="m8.6702 29.605 0.1429 0.0476"/>
   <path d="m9.1464 29.605 0.2381 1"/>
   <path d="m9.3845 30.605 0.1905-0.7143"/>
   <path d="m9.575 29.89 0.1905 0.7143"/>
   <path d="m9.7655 30.605 0.2381-1"/>
   <path d="m10.337 29.7 0.0476-0.0477"/>
   <path d="m10.384 29.652 0.0953-0.0476"/>
   <path d="m10.48 29.605h0.2381"/>
   <path d="m10.718 29.605 0.0952 0.0476"/>
   <path d="m10.813 29.652 0.0476 0.0477"/>
   <path d="m10.861 29.7 0.0476 0.0952"/>
   <path d="m10.908 29.795v0.0952"/>
   <path d="m10.908 29.89-0.0476 0.1429"/>
   <path d="m10.861 30.033-0.5714 0.5714"/>
   <path d="m10.289 30.605h0.619"/>
  </g>
  <text x="19.1000" y="2.0750" font-size="1.3333" opacity="0" stroke-opacity="0" text-anchor="middle" lengthAdjust="spacingAndGlyphs" textLength="3.2976">SW1</text>
  <g class="stroked-text">
   <desc>SW1</desc>
   <path d="m17.767 1.9822 0.1428 0.0476"/>
   <path d="m17.91 2.0298h0.2381"/>
   <path d="m18.148 2.0298 0.0953-0.0476"/>
   <path d="m18.243 1.9822 0.0476-0.0476"/>
   <path d="m18.29 1.9346 0.0476-0.0953"/>
   <path d="m18.338 1.8393v-0.0952"/>
   <path d="m18.338 1.7441-0.0476-0.0952"/>
   <path d="m18.29 1.6489-0.0476-0.0477"/>
   <path d="m18.243 1.6012-0.0953-0.0476"/>
   <path d="m18.148 1.5536-0.1905-0.0476"/>
   <path d="m17.957 1.506-0.0952-0.0476"/>
   <path d="m17.862 1.4584-0.0476-0.0476"/>
   <path d="m17.814 1.4108-0.0476-0.0953"/>
   <path d="m17.767 1.3155v-0.0952"/>
   <path d="m17.767 1.2203 0.0476-0.0952"/>
   <path d="m17.814 1.1251 0.0476-0.0477"/>
   <path d="m17.862 1.0774 0.0952-0.0476"/>
   <path d="m17.957 1.0298h0.2381"/>
   <path d="m18.195 1.0298 0.1429 0.0476"/>
   <path d="m18.671 1.0298 0.2381 1"/>
   <path d="m18.91 2.0298 0.1905-0.7143"/>
   <path d="m19.1 1.3155 0.1905 0.7143"/>
   <path d="m19.29 2.0298 0.2381-1"/>
   <path d="m20.433 2.0298h-0.5714"/>
   <path d="m20.148 2.0298v-1"/>
   <path d="m20.148 1.0298-0.0952 0.1429"/>
   <path d="m20.052 1.1727-0.0953 0.0952"/>
   <path d="m19.957 1.2679-0.0952 0.0476"/>
  </g>
  <text x="28.6250" y="49.7000" font-size="1.3333" opacity="0" stroke-opacity="0" text-anchor="middle" lengthAdjust="spacingAndGlyphs" textLength="3.2976">SW5</text>
  <g class="stroked-text">
   <desc>SW5</desc>
   <path d="m27.292 49.607 0.1428 0.0476"/>
   <path d="m27.434 49.655h0.2381"/>
   <path d="m27.673 49.655 0.0953-0.0476"/>
   <path d="m27.768 49.607 0.0476-0.0476"/>
   <path d="m27.816 49.56 0.0476-0.0953"/>
   <path d="m27.863 49.464v-0.0952"/>
   <path d="m27.863 49.369-0.0476-0.0952"/>
   <path d="m27.816 49.274-0.0476-0.0477"/>
   <path d="m27.768 49.226-0.0953-0.0476"/>
   <path d="m27.673 49.179-0.1905-0.0476"/>
   <path d="m27.482 49.131-0.0952-0.0476"/>
   <path d="m27.387 49.083-0.0476-0.0476"/>
   <path d="m27.339 49.036-0.0476-0.0953"/>
   <path d="m27.292 48.94v-0.0952"/>
   <path d="m27.292 48.845 0.0476-0.0952"/>
   <path d="m27.339 48.75 0.0476-0.0477"/>
   <path d="m27.387 48.702 0.0952-0.0476"/>
   <path d="m27.482 48.655h0.2381"/>
   <path d="m27.72 48.655 0.1429 0.0476"/>
   <path d="m28.196 48.655 0.2381 1"/>
   <path d="m28.434 49.655 0.1905-0.7143"/>
   <path d="m28.625 48.94 0.1905 0.7143"/>
   <path d="m28.816 49.655 0.2381-1"/>
   <path d="m29.911 48.655h-0.4762"/>
   <path d="m29.434 48.655-0.0476 0.4762"/>
   <path d="m29.387 49.131 0.0476-0.0476"/>
   <path d="m29.434 49.083 0.0953-0.0476"/>
   <path d="m29.53 49.036h0.2381"/>
   <path d="m29.768 49.036 0.0952 0.0476"/>
   <path d="m29.863 49.083 0.0476 0.0476"/>
   <path d="m29.911 49.131 0.0476 0.0952"/>
   <path d="m29.958 49.226v0.2381"/>
   <path d="m29.958 49.464-0.0476 0.0953"/>
   <path d="m29.911 49.56-0.0476 0.0476"/>
   <path d="m29.863 49.607-0.0952 0.0476"/>
   <path d="m29.768 49.655h-0.2381"/>
   <path d="m29.53 49.655-0.0953-0.0476"/>
   <path d="m29.434 49.607-0.0476-0.0476"/>
  </g>
  <text x="28.6250" y="30.6500" font-size="1.3333" opacity="0" stroke-opacity="0" text-anchor="middle" lengthAdjust="spacingAndGlyphs" textLength="3.2976">SW3</text>
  <g class="stroked-text">
   <desc>SW3</desc>
   <path d="m27.292 30.557 0.1428 0.0476"/>
   <path d="m27.434 30.605h0.2381"/>
   <path d="m27.673 30.605 0.0953-0.0476"/>
   <path d="m27.768 30.557 0.0476-0.0476"/>
   <path d="m27.816 30.51 0.0476-0.0953"/>
   <path d="m27.863 30.414v-0.0952"/>
   <path d="m27.863 30.319-0.0476-0.0952"/>
   <path d="m27.816 30.224-0.0476-0.0477"/>
   <path d="m27.768 30.176-0.0953-0.0476"/>
   <path d="m27.673 30.129-0.1905-0.0476"/>
   <path d="m27.482 30.081-0.0952-0.0476"/>
   <path d="m27.387 30.033-0.0476-0.0476"/>
   <path d="m27.339 29.986-0.0476-0.0953"/>
   <path d="m27.292 29.89v-0.0952"/>
   <path d="m27.292 29.795 0.0476-0.0952"/>
   <path d="m27.339 29.7 0.0476-0.0477"/>
   <path d="m27.387 29.652 0.0952-0.0476"/>
   <path d="m27.482 29.605h0.2381"/>
   <path d="m27.72 29.605 0.1429 0.0476"/>
   <path d="m28.196 29.605 0.2381 1"/>
   <path d="m28.434 30.605 0.1905-0.7143"/>
   <path d="m28.625 29.89 0.1905 0.7143"/>
   <path d="m28.816 30.605 0.2381-1"/>
   <path d="m29.339 29.605h0.619"/>
   <path d="m29.958 29.605-0.3333 0.381"/>
   <path d="m29.625 29.986h0.1429"/>
   <path d="m29.768 29.986 0.0952 0.0476"/>
   <path d="m29.863 30.033 0.0476 0.0476"/>
   <path d="m29.911 30.081 0.0476 0.0952"/>
   <path d="m29.958 30.176v0.2381"/>
   <path d="m29.958 30.414-0.0476 0.0953"/>
   <path d="m29.911 30.51-0.0476 0.0476"/>
   <path d="m29.863 30.557-0.0952 0.0476"/>
   <path d="m29.768 30.605h-0.2858"/>
   <path d="m29.482 30.605-0.0952-0.0476"/>
   <path d="m29.387 30.557-0.0476-0.0476"/>
  </g>
 </g>
 <g fill="none" stroke="#8BE9FD" stroke-linecap="round" stroke-linejoin="round" stroke-width=".12">
  <path d="m2.475 50.1v14.2"/>
  <path d="m2.475 64.3h14.2"/>
  <path d="m16.675 50.1h-14.2"/>
  <path d="m16.675 64.3v-14.2"/>
  <path d="m2.475 31.05v14.2"/>
  <path d="m2.475 45.25h14.2"/>
  <path d="m16.675 31.05h-14.2"/>
  <path d="m16.675 45.25v-14.2"/>
  <path d="m12 2.475v14.2"/>
  <path d="m12 16.675h14.2"/>
  <path d="m26.2 2.475h-14.2"/>
  <path d="m26.2 16.675v-14.2"/>
  <path d="m21.525 50.1v14.2"/>
  <path d="m21.525 64.3h14.2"/>
  <path d="m35.725 50.1h-14.2"/>
  <path d="m35.725 64.3v-14.2"/>
  <path d="m21.525 31.05v14.2"/>
  <path d="m21.525 45.25h14.2"/>
  <path d="m35.725 31.05h-14.2"/>
  <path d="m35.725 45.25v-14.2"/>
 </g>
 <g fill="#8BE9FD">
  <circle cx="4.495" cy="57.2" r=".875"/>
  <circle cx="9.575" cy="57.2" r="2"/>
  <circle cx="14.655" cy="57.2" r=".875"/>
  <circle cx="5.765" cy="54.66" r=".75"/>
  <circle cx="12.115" cy="52.12" r=".75"/>
  <circle cx="4.495" cy="38.15" r=".875"/>
  <circle cx="9.575" cy="38.15" r="2"/>
  <circle cx="14.655" cy="38.15" r=".875"/>
  <circle cx="5.765" cy="35.61" r=".75"/>
  <circle cx="12.115" cy="33.07" r=".75"/>
  <circle cx="14.02" cy="9.575" r=".875"/>
  <circle cx="19.1" cy="9.575" r="2"/>
  <circle cx="24.18" cy="9.575" r=".875"/>
  <circle cx="15.29" cy="7.035" r=".75"/>
  <circle cx="21.64" cy="4.495" r=".75"/>
  <circle cx="23.545" cy="57.2" r=".875"/>
  <circle cx="28.625" cy="57.2" r="2"/>
  <circle cx="33.705" cy="57.2" r=".875"/>
  <circle cx="24.815" cy="54.66" r=".75"/>
  <circle cx="31.165" cy="52.12" r=".75"/>
  <circle cx="23.545" cy="38.15" r=".875"/>
  <circle cx="28.625" cy="38.15" r="2"/>
  <circle cx="33.705" cy="38.15" r=".875"/>
  <circle cx="24.815" cy="35.61" r=".75"/>
  <circle cx="31.165" cy="33.07" r=".75"/>
 </g>
 <g fill="none" stroke="#BD93F9" stroke-linecap="round" stroke-linejoin="round" stroke-width=".15">
  <g transform="rotate(-90 35.61 42.277)">
   <text transform="scale(-1 1) translate(-71.22)" x="35.6100" y="42.7770" font-size="1.3333" opacity="0" stroke-opacity="0" text-anchor="middle" lengthAdjust="spacingAndGlyphs" textLength="2.2024">D3</text>
  </g>
  <g class="stroked-text">
   <desc>D3</desc>
   <path d="m36.065 41.539h-1"/>
   <path d="m35.065 41.539v0.2381"/>
   <path d="m35.065 41.777 0.0476 0.1429"/>
   <path d="m35.112 41.92 0.0953 0.0952"/>
   <path d="m35.208 42.015 0.0952 0.0476"/>
   <path d="m35.303 42.063 0.1905 0.0476"/>
   <path d="m35.493 42.11h0.1428"/>
   <path d="m35.636 42.11 0.1905-0.0476"/>
   <path d="m35.827 42.063 0.0953-0.0476"/>
   <path d="m35.922 42.015 0.0952-0.0952"/>
   <path d="m36.017 41.92 0.0476-0.1429"/>
   <path d="m36.065 41.777v-0.2381"/>
   <path d="m35.065 42.444v0.619"/>
   <path d="m35.065 43.063 0.381-0.3333"/>
   <path d="m35.446 42.729v0.1428"/>
   <path d="m35.446 42.872 0.0476 0.0953"/>
   <path d="m35.493 42.968 0.0476 0.0476"/>
   <path d="m35.541 43.015 0.0952 0.0476"/>
   <path d="m35.636 43.063h0.2381"/>
   <path d="m35.874 43.063 0.0953-0.0476"/>
   <path d="m35.97 43.015 0.0476-0.0476"/>
   <path d="m36.017 42.968 0.0476-0.0953"/>
   <path d="m36.065 42.872v-0.2857"/>
   <path d="m36.065 42.586-0.0476-0.0952"/>
   <path d="m36.017 42.491-0.0476-0.0476"/>
  </g>
  <g transform="rotate(-90 26.085 13.702)">
   <text transform="scale(-1 1) translate(-52.17)" x="26.0850" y="14.2020" font-size="1.3333" opacity="0" stroke-opacity="0" text-anchor="middle" lengthAdjust="spacingAndGlyphs" textLength="2.2024">D1</text>
  </g>
  <g class="stroked-text">
   <desc>D1</desc>
   <path d="m26.54 12.964h-1"/>
   <path d="m25.54 12.964v0.2381"/>
   <path d="m25.54 13.202 0.0476 0.1429"/>
   <path d="m25.587 13.345 0.0953 0.0952"/>
   <path d="m25.683 13.44 0.0952 0.0476"/>
   <path d="m25.778 13.488 0.1905 0.0476"/>
   <path d="m25.968 13.535h0.1428"/>
   <path d="m26.111 13.535 0.1905-0.0476"/>
   <path d="m26.302 13.488 0.0953-0.0476"/>
   <path d="m26.397 13.44 0.0952-0.0952"/>
   <path d="m26.492 13.345 0.0476-0.1429"/>
   <path d="m26.54 13.202v-0.2381"/>
   <path d="m26.54 14.488v-0.5714"/>
   <path d="m26.54 14.202h-1"/>
   <path d="m25.54 14.202 0.1429-0.0952"/>
   <path d="m25.683 14.107 0.0952-0.0953"/>
   <path d="m25.778 14.012 0.0476-0.0952"/>
  </g>
  <g transform="rotate(-90 35.61 61.327)">
   <text transform="scale(-1 1) translate(-71.22)" x="35.6100" y="61.8270" font-size="1.3333" opacity="0" stroke-opacity="0" text-anchor="middle" lengthAdjust="spacingAndGlyphs" textLength="2.2024">D5</text>
  </g>
  <g class="stroked-text">
   <desc>D5</desc>
   <path d="m36.065 60.589h-1"/>
   <path d="m35.065 60.589v0.2381"/>
   <path d="m35.065 60.827 0.0476 0.1429"/>
   <path d="m35.112 60.97 0.0953 0.0952"/>
   <path d="m35.208 61.065 0.0952 0.0476"/>
   <path d="m35.303 61.113 0.1905 0.0476"/>
   <path d="m35.493 61.16h0.1428"/>
   <path d="m35.636 61.16 0.1905-0.0476"/>
   <path d="m35.827 61.113 0.0953-0.0476"/>
   <path d="m35.922 61.065 0.0952-0.0952"/>
   <path d="m36.017 60.97 0.0476-0.1429"/>
   <path d="m36.065 60.827v-0.2381"/>
   <path d="m35.065 62.065v-0.4762"/>
   <path d="m35.065 61.589 0.4762-0.0476"/>
   <path d="m35.541 61.541-0.0476 0.0476"/>
   <path d="m35.493 61.589-0.0476 0.0952"/>
   <path d="m35.446 61.684v0.2381"/>
   <path d="m35.446 61.922 0.0476 0.0953"/>
   <path d="m35.493 62.018 0.0476 0.0476"/>
   <path d="m35.541 62.065 0.0952 0.0476"/>
   <path d="m35.636 62.113h0.2381"/>
   <path d="m35.874 62.113 0.0953-0.0476"/>
   <path d="m35.97 62.065 0.0476-0.0476"/>
   <path d="m36.017 62.018 0.0476-0.0953"/>
   <path d="m36.065 61.922v-0.2381"/>
   <path d="m36.065 61.684-0.0476-0.0952"/>
   <path d="m36.017 61.589-0.0476-0.0476"/>
  </g>
  <g transform="rotate(-90 16.56 42.277)">
   <text transform="scale(-1 1) translate(-33.12)" x="16.5600" y="42.7770" font-size="1.3333" opacity="0" stroke-opacity="0" text-anchor="middle" lengthAdjust="spacingAndGlyphs" textLength="2.2024">D2</text>
  </g>
  <g class="stroked-text">
   <desc>D2</desc>
   <path d="m17.015 41.539h-1"/>
   <path d="m16.015 41.539v0.2381"/>
   <path d="m16.015 41.777 0.0476 0.1429"/>
   <path d="m16.062 41.92 0.0953 0.0952"/>
   <path d="m16.158 42.015 0.0952 0.0476"/>
   <path d="m16.253 42.063 0.1905 0.0476"/>
   <path d="m16.443 42.11h0.1428"/>
   <path d="m16.586 42.11 0.1905-0.0476"/>
   <path d="m16.777 42.063 0.0953-0.0476"/>
   <path d="m16.872 42.015 0.0952-0.0952"/>
   <path d="m16.967 41.92 0.0476-0.1429"/>
   <path d="m17.015 41.777v-0.2381"/>
   <path d="m16.11 42.491-0.0477 0.0476"/>
   <path d="m16.062 42.539-0.0476 0.0952"/>
   <path d="m16.015 42.634v0.2381"/>
   <path d="m16.015 42.872 0.0476 0.0953"/>
   <path d="m16.062 42.968 0.0477 0.0476"/>
   <path d="m16.11 43.015 0.0952 0.0476"/>
   <path d="m16.205 43.063h0.0952"/>
   <path d="m16.3 43.063 0.1429-0.0476"/>
   <path d="m16.443 43.015 0.5714-0.5714"/>
   <path d="m17.015 42.444v0.619"/>
  </g>
  <g transform="rotate(-90 16.56 61.327)">
   <text transform="scale(-1 1) translate(-33.12)" x="16.5600" y="61.8270" font-size="1.3333" opacity="0" stroke-opacity="0" text-anchor="middle" lengthAdjust="spacingAndGlyphs" textLength="2.2024">D4</text>
  </g>
  <g class="stroked-text">
   <desc>D4</desc>
   <path d="m17.015 60.589h-1"/>
   <path d="m16.015 60.589v0.2381"/>
   <path d="m16.015 60.827 0.0476 0.1429"/>
   <path d="m16.062 60.97 0.0953 0.0952"/>
   <path d="m16.158 61.065 0.0952 0.0476"/>
   <path d="m16.253 61.113 0.1905 0.0476"/>
   <path d="m16.443 61.16h0.1428"/>
   <path d="m16.586 61.16 0.1905-0.0476"/>
   <path d="m16.777 61.113 0.0953-0.0476"/>
   <path d="m16.872 61.065 0.0952-0.0952"/>
   <path d="m16.967 60.97 0.0476-0.1429"/>
   <path d="m17.015 60.827v-0.2381"/>
   <path d="m16.348 62.018h0.6666"/>
   <path d="m15.967 61.779 0.7143-0.2381"/>
   <path d="m16.682 61.541v0.619"/>
  </g>
 </g>
 <g fill="none" stroke="#BD93F9" stroke-linecap="round" stroke-linejoin="round" stroke-width=".12">
  <path d="m32.705 40.5v3.86"/>
  <path d="m32.705 44.36h2"/>
  <path d="m34.705 40.5v3.86"/>
  <path d="m23.18 11.925v3.86"/>
  <path d="m23.18 15.785h2"/>
  <path d="m25.18 11.925v3.86"/>
  <path d="m32.705 59.55v3.86"/>
  <path d="m32.705 63.41h2"/>
  <path d="m34.705 59.55v3.86"/>
  <path d="m13.655 40.5v3.86"/>
  <path d="m13.655 44.36h2"/>
  <path d="m15.655 40.5v3.86"/>
  <path d="m13.655 59.55v3.86"/>
  <path d="m13.655 63.41h2"/>
  <path d="m15.655 59.55v3.86"/>
 </g>
 <g>
  <g fill="#BD93F9">
   <circle cx="4.495" cy="57.2" r=".875"/>
   <circle cx="9.575" cy="57.2" r="2"/>
   <circle cx="14.655" cy="57.2" r=".875"/>
   <circle cx="5.765" cy="54.66" r=".75"/>
   <circle cx="12.115" cy="52.12" r=".75"/>
   <circle cx="4.495" cy="38.15" r=".875"/>
   <circle cx="9.575" cy="38.15" r="2"/>
   <circle cx="14.655" cy="38.15" r=".875"/>
   <circle cx="5.765" cy="35.61" r=".75"/>
   <circle cx="12.115" cy="33.07" r=".75"/>
   <circle cx="14.02" cy="9.575" r=".875"/>
   <circle cx="19.1" cy="9.575" r="2"/>
   <circle cx="24.18" cy="9.575" r=".875"/>
   <circle cx="15.29" cy="7.035" r=".75"/>
   <circle cx="21.64" cy="4.495" r=".75"/>
   <circle cx="23.545" cy="57.2" r=".875"/>
   <circle cx="28.625" cy="57.2" r="2"/>
   <circle cx="33.705" cy="57.2" r=".875"/>
   <circle cx="24.815" cy="54.66" r=".75"/>
   <circle cx="31.165" cy="52.12" r=".75"/>
   <circle cx="23.545" cy="38.15" r=".875"/>
   <circle cx="28.625" cy="38.15" r="2"/>
   <circle cx="33.705" cy="38.15" r=".875"/>
   <circle cx="24.815" cy="35.61" r=".75"/>
   <circle cx="31.165" cy="33.07" r=".75"/>
  </g>
  <g>
   <circle cx="4.495" cy="57.2" r=".875"/>
   <circle cx="9.575" cy="57.2" r="2"/>
   <circle cx="14.655" cy="57.2" r=".875"/>
   <circle cx="5.765" cy="54.66" r=".75"/>
   <circle cx="12.115" cy="52.12" r=".75"/>
   <circle cx="4.495" cy="38.15" r=".875"/>
   <circle cx="9.575" cy="38.15" r="2"/>
   <circle cx="14.655" cy="38.15" r=".875"/>
   <circle cx="5.765" cy="35.61" r=".75"/>
   <circle cx="12.115" cy="33.07" r=".75"/>
   <circle cx="14.02" cy="9.575" r=".875"/>
   <circle cx="19.1" cy="9.575" r="2"/>
   <circle cx="24.18" cy="9.575" r=".875"/>
   <circle cx="15.29" cy="7.035" r=".75"/>
   <circle cx="21.64" cy="4.495" r=".75"/>
   <circle cx="23.545" cy="57.2" r=".875"/>
   <circle cx="28.625" cy="57.2" r="2"/>
   <circle cx="33.705" cy="57.2" r=".875"/>
   <circle cx="24.815" cy="54.66" r=".75"/>
   <circle cx="31.165" cy="52.12" r=".75"/>
   <circle cx="23.545" cy="38.15" r=".875"/>
   <circle cx="28.625" cy="38.15" r="2"/>
   <circle cx="33.705" cy="38.15" r=".875"/>
   <circle cx="24.815" cy="35.61" r=".75"/>
   <circle cx="31.165" cy="33.07" r=".75"/>
  </g>
  <g fill="#f55">
   <circle cx="5.765" cy="54.66" r="1.25"/>
   <circle cx="12.115" cy="52.12" r="1.25"/>
   <circle cx="5.765" cy="35.61" r="1.25"/>
   <circle cx="12.115" cy="33.07" r="1.25"/>
   <circle cx="15.29" cy="7.035" r="1.25"/>
   <circle cx="21.64" cy="4.495" r="1.25"/>
   <circle cx="24.815" cy="54.66" r="1.25"/>
   <circle cx="31.165" cy="52.12" r="1.25"/>
   <circle cx="24.815" cy="35.61" r="1.25"/>
   <circle cx="31.165" cy="33.07" r="1.25"/>
  </g>
 </g>
 <g fill="none" stroke="#f55" stroke-linecap="round" stroke-linejoin="round" stroke-width=".2">
  <path d="m5.765 35.61v19.05"/>
  <path d="m24.815 35.61v19.05"/>
  <path d="m15.29 7.035v19.05"/>
  <path d="m15.29 26.085 9.525 9.525"/>
 </g>
 <g fill="#fff">
  <circle cx="4.495" cy="57.2" r=".875"/>
  <circle cx="9.575" cy="57.2" r="2"/>
  <circle cx="14.655" cy="57.2" r=".875"/>
  <circle cx="5.765" cy="54.66" r=".75"/>
  <circle cx="12.115" cy="52.12" r=".75"/>
  <circle cx="4.495" cy="38.15" r=".875"/>
  <circle cx="9.575" cy="38.15" r="2"/>
  <circle cx="14.655" cy="38.15" r=".875"/>
  <circle cx="5.765" cy="35.61" r=".75"/>
  <circle cx="12.115" cy="33.07" r=".75"/>
  <circle cx="14.02" cy="9.575" r=".875"/>
  <circle cx="19.1" cy="9.575" r="2"/>
  <circle cx="24.18" cy="9.575" r=".875"/>
  <circle cx="15.29" cy="7.035" r=".75"/>
  <circle cx="21.64" cy="4.495" r=".75"/>
  <circle cx="23.545" cy="57.2" r=".875"/>
  <circle cx="28.625" cy="57.2" r="2"/>
  <circle cx="33.705" cy="57.2" r=".875"/>
  <circle cx="24.815" cy="54.66" r=".75"/>
  <circle cx="31.165" cy="52.12" r=".75"/>
  <circle cx="23.545" cy="38.15" r=".875"/>
  <circle cx="28.625" cy="38.15" r="2"/>
  <circle cx="33.705" cy="38.15" r=".875"/>
  <circle cx="24.815" cy="35.61" r=".75"/>
  <circle cx="31.165" cy="33.07" r=".75"/>
 </g>
 <g fill="#50FA7B">
  <circle cx="5.765" cy="54.66" r="1.25"/>
  <circle cx="12.115" cy="52.12" r="1.25"/>
  <circle cx="5.765" cy="35.61" r="1.25"/>
  <circle cx="12.115" cy="33.07" r="1.25"/>
  <circle cx="15.29" cy="7.035" r="1.25"/>
  <circle cx="21.64" cy="4.495" r="1.25"/>
  <circle cx="24.815" cy="54.66" r="1.25"/>
  <circle cx="31.165" cy="52.12" r="1.25"/>
  <circle cx="24.815" cy="35.61" r="1.25"/>
  <circle cx="31.165" cy="33.07" r="1.25"/>
  <g fill="#50FA7B" fill-rule="evenodd">
   <path d="m33.405 44.1-0.0957-0.019-0.0811-0.0542-0.0542-0.0811-0.019-0.0957v-0.6l0.019-0.0957 0.0542-0.0811 0.0811-0.0542 0.0957-0.019h0.6l0.0957 0.019 0.0811 0.0542 0.0542 0.0811 0.019 0.0957v0.6l-0.019 0.0957-0.0542 0.0811-0.0811 0.0542-0.0957 0.019z"/>
   <path d="m33.405 41.3-0.0957-0.019-0.0811-0.0542-0.0542-0.0811-0.019-0.0957v-0.6l0.019-0.0957 0.0542-0.0811 0.0811-0.0542 0.0957-0.019h0.6l0.0957 0.019 0.0811 0.0542 0.0542 0.0811 0.019 0.0957v0.6l-0.019 0.0957-0.0542 0.0811-0.0811 0.0542-0.0957 0.019z"/>
   <path d="m23.88 15.525-0.0957-0.019-0.0811-0.0542-0.0542-0.0811-0.019-0.0957v-0.6l0.019-0.0957 0.0542-0.0811 0.0811-0.0542 0.0957-0.019h0.6l0.0957 0.019 0.0811 0.0542 0.0542 0.0811 0.019 0.0957v0.6l-0.019 0.0957-0.0542 0.0811-0.0811 0.0542-0.0957 0.019z"/>
   <path d="m23.88 12.725-0.0957-0.019-0.0811-0.0542-0.0542-0.0811-0.019-0.0957v-0.6l0.019-0.0957 0.0542-0.0811 0.0811-0.0542 0.0957-0.019h0.6l0.0957 0.019 0.0811 0.0542 0.0542 0.0811 0.019 0.0957v0.6l-0.019 0.0957-0.0542 0.0811-0.0811 0.0542-0.0957 0.019z"/>
   <path d="m33.405 63.15-0.0957-0.019-0.0811-0.0542-0.0542-0.0811-0.019-0.0957v-0.6l0.019-0.0957 0.0542-0.0811 0.0811-0.0542 0.0957-0.019h0.6l0.0957 0.019 0.0811 0.0542 0.0542 0.0811 0.019 0.0957v0.6l-0.019 0.0957-0.0542 0.0811-0.0811 0.0542-0.0957 0.019z"/>
   <path d="m33.405 60.35-0.0957-0.019-0.0811-0.0542-0.0542-0.0811-0.019-0.0957v-0.6l0.019-0.0957 0.0542-0.0811 0.0811-0.0542 0.0957-0.019h0.6l0.0957 0.019 0.0811 0.0542 0.0542 0.0811 0.019 0.0957v0.6l-0.019 0.0957-0.0542 0.0811-0.0811 0.0542-0.0957 0.019z"/>
   <path d="m14.355 44.1-0.0957-0.019-0.0811-0.0542-0.0542-0.0811-0.019-0.0957v-0.6l0.019-0.0957 0.0542-0.0811 0.0811-0.0542 0.0957-0.019h0.6l0.0957 0.019 0.0811 0.0542 0.0542 0.0811 0.019 0.0957v0.6l-0.019 0.0957-0.0542 0.0811-0.0811 0.0542-0.0957 0.019z"/>
   <path d="m14.355 41.3-0.0957-0.019-0.0811-0.0542-0.0542-0.0811-0.019-0.0957v-0.6l0.019-0.0957 0.0542-0.0811 0.0811-0.0542 0.0957-0.019h0.6l0.0957 0.019 0.0811 0.0542 0.0542 0.0811 0.019 0.0957v0.6l-0.019 0.0957-0.0542 0.0811-0.0811 0.0542-0.0957 0.019z"/>
   <path d="m14.355 63.15-0.0957-0.019-0.0811-0.0542-0.0542-0.0811-0.019-0.0957v-0.6l0.019-0.0957 0.0542-0.0811 0.0811-0.0542 0.0957-0.019h0.6l0.0957 0.019 0.0811 0.0542 0.0542 0.0811 0.019 0.0957v0.6l-0.019 0.0957-0.0542 0.0811-0.0811 0.0542-0.0957 0.019z"/>
   <path d="m14.355 60.35-0.0957-0.019-0.0811-0.0542-0.0542-0.0811-0.019-0.0957v-0.6l0.019-0.0957 0.0542-0.0811 0.0811-0.0542 0.0957-0.019h0.6l0.0957 0.019 0.0811 0.0542 0.0542 0.0811 0.019 0.0957v0.6l-0.019 0.0957-0.0542 0.0811-0.0811 0.0542-0.0957 0.019z"/>
  </g>
 </g>
 <g fill="none" stroke="#50FA7B" stroke-linecap="round" stroke-linejoin="round" stroke-width=".2">
  <path d="m21.64 4.495v5.14"/>
  <path d="m21.64 9.635 2.54 2.54"/>
  <path d="m12.115 38.21 2.54 2.54"/>
  <path d="m12.115 33.07v5.14"/>
  <path d="m31.165 33.07v5.14"/>
  <path d="m31.165 38.21 2.54 2.54"/>
  <path d="m12.115 57.26 2.54 2.54"/>
  <path d="m12.115 52.12v5.14"/>
  <path d="m31.165 57.26 2.54 2.54"/>
  <path d="m31.165 52.12v5.14"/>
  <path d="m14.655 43.55h19.05"/>
  <path d="m14.655 62.6h19.05"/>
 </g>
 <g fill="#fff">
  <circle cx="4.495" cy="57.2" r=".875"/>
  <circle cx="9.575" cy="57.2" r="2"/>
  <circle cx="14.655" cy="57.2" r=".875"/>
  <circle cx="5.765" cy="54.66" r=".75"/>
  <circle cx="12.115" cy="52.12" r=".75"/>
  <circle cx="4.495" cy="38.15" r=".875"/>
  <circle cx="9.575" cy="38.15" r="2"/>
  <circle cx="14.655" cy="38.15" r=".875"/>
  <circle cx="5.765" cy="35.61" r=".75"/>
  <circle cx="12.115" cy="33.07" r=".75"/>
  <circle cx="14.02" cy="9.575" r=".875"/>
  <circle cx="19.1" cy="9.575" r="2"/>
  <circle cx="24.18" cy="9.575" r=".875"/>
  <circle cx="15.29" cy="7.035" r=".75"/>
  <circle cx="21.64" cy="4.495" r=".75"/>
  <circle cx="23.545" cy="57.2" r=".875"/>
  <circle cx="28.625" cy="57.2" r="2"/>
  <circle cx="33.705" cy="57.2" r=".875"/>
  <circle cx="24.815" cy="54.66" r=".75"/>
  <circle cx="31.165" cy="52.12" r=".75"/>
  <circle cx="23.545" cy="38.15" r=".875"/>
  <circle cx="28.625" cy="38.15" r="2"/>
  <circle cx="33.705" cy="38.15" r=".875"/>
  <circle cx="24.815" cy="35.61" r=".75"/>
  <circle cx="31.165" cy="33.07" r=".75"/>
 </g>
</svg>
