<?xml version="1.0" encoding="UTF-8"?>
<svg width="78.397mm" height="17.693mm" version="1.1" viewBox="26.425 24.932 78.397 17.693" xmlns="http://www.w3.org/2000/svg">
 <title>SVG Image created as uc1-render.svg date 2024/01/04 11:02:23</title>
 <desc>Image generated by PCBNEW</desc>
 <g fill="#282a36">
  <rect x="26.425" y="24.932" width="78.397" height="17.693"/>
 </g>
 <g fill-opacity="0" stroke-width="0">
  <g fill="#C83434" fill-opacity="1" stroke="#C83434" stroke-linecap="round" stroke-linejoin="round" stroke-width="0">
   <circle cx="92.627" cy="31.985" r="1.25"/>
   <circle cx="98.977" cy="29.445" r="1.25"/>
   <circle cx="30.715" cy="31.985" r="1.25"/>
   <circle cx="37.065" cy="29.445" r="1.25"/>
   <circle cx="54.527" cy="31.985" r="1.25"/>
   <circle cx="60.877" cy="29.445" r="1.25"/>
   <circle cx="73.578" cy="31.985" r="1.25"/>
   <circle cx="79.927" cy="29.445" r="1.25"/>
  </g>
 </g>
 <g stroke="#000" stroke-linecap="round" stroke-linejoin="round" stroke-width=".021">
  <g fill="#7FC87F" stroke="#7FC87F" stroke-linecap="round" stroke-linejoin="round" stroke-width="0">
   <circle cx="92.627" cy="31.985" r="1.25"/>
   <circle cx="98.977" cy="29.445" r="1.25"/>
   <circle cx="30.715" cy="31.985" r="1.25"/>
   <circle cx="37.065" cy="29.445" r="1.25"/>
   <circle cx="54.527" cy="31.985" r="1.25"/>
   <circle cx="60.877" cy="29.445" r="1.25"/>
   <circle cx="73.578" cy="31.985" r="1.25"/>
   <circle cx="79.927" cy="29.445" r="1.25"/>
  </g>
  <g fill="#CE7D2C" stroke="#CE7D2C" stroke-linecap="round" stroke-linejoin="round" stroke-width="0">
   <circle cx="92.627" cy="31.985" r="1.25"/>
   <circle cx="98.977" cy="29.445" r="1.25"/>
   <circle cx="30.715" cy="31.985" r="1.25"/>
   <circle cx="37.065" cy="29.445" r="1.25"/>
   <circle cx="54.527" cy="31.985" r="1.25"/>
   <circle cx="60.877" cy="29.445" r="1.25"/>
   <circle cx="73.578" cy="31.985" r="1.25"/>
   <circle cx="79.927" cy="29.445" r="1.25"/>
  </g>
  <g fill="#4FCBCB" stroke="#4FCBCB" stroke-linecap="round" stroke-linejoin="round" stroke-width="0">
   <circle cx="92.627" cy="31.985" r="1.25"/>
   <circle cx="98.977" cy="29.445" r="1.25"/>
   <circle cx="30.715" cy="31.985" r="1.25"/>
   <circle cx="37.065" cy="29.445" r="1.25"/>
   <circle cx="54.527" cy="31.985" r="1.25"/>
   <circle cx="60.877" cy="29.445" r="1.25"/>
   <circle cx="73.578" cy="31.985" r="1.25"/>
   <circle cx="79.927" cy="29.445" r="1.25"/>
  </g>
  <g fill="#DB628B" stroke="#DB628B" stroke-linecap="round" stroke-linejoin="round" stroke-width="0">
   <circle cx="92.627" cy="31.985" r="1.25"/>
   <circle cx="98.977" cy="29.445" r="1.25"/>
   <circle cx="30.715" cy="31.985" r="1.25"/>
   <circle cx="37.065" cy="29.445" r="1.25"/>
   <circle cx="54.527" cy="31.985" r="1.25"/>
   <circle cx="60.877" cy="29.445" r="1.25"/>
   <circle cx="73.578" cy="31.985" r="1.25"/>
   <circle cx="79.927" cy="29.445" r="1.25"/>
  </g>
  <g fill="#A7A5C6" stroke="#A7A5C6" stroke-linecap="round" stroke-linejoin="round" stroke-width="0">
   <circle cx="92.627" cy="31.985" r="1.25"/>
   <circle cx="98.977" cy="29.445" r="1.25"/>
   <circle cx="30.715" cy="31.985" r="1.25"/>
   <circle cx="37.065" cy="29.445" r="1.25"/>
   <circle cx="54.527" cy="31.985" r="1.25"/>
   <circle cx="60.877" cy="29.445" r="1.25"/>
   <circle cx="73.578" cy="31.985" r="1.25"/>
   <circle cx="79.927" cy="29.445" r="1.25"/>
  </g>
  <g fill="#28CCD9" stroke="#28CCD9" stroke-linecap="round" stroke-linejoin="round" stroke-width="0">
   <circle cx="92.627" cy="31.985" r="1.25"/>
   <circle cx="98.977" cy="29.445" r="1.25"/>
   <circle cx="30.715" cy="31.985" r="1.25"/>
   <circle cx="37.065" cy="29.445" r="1.25"/>
   <circle cx="54.527" cy="31.985" r="1.25"/>
   <circle cx="60.877" cy="29.445" r="1.25"/>
   <circle cx="73.578" cy="31.985" r="1.25"/>
   <circle cx="79.927" cy="29.445" r="1.25"/>
  </g>
  <g fill="#E8B2A7" stroke="#E8B2A7" stroke-linecap="round" stroke-linejoin="round" stroke-width="0">
   <circle cx="92.627" cy="31.985" r="1.25"/>
   <circle cx="98.977" cy="29.445" r="1.25"/>
   <circle cx="30.715" cy="31.985" r="1.25"/>
   <circle cx="37.065" cy="29.445" r="1.25"/>
   <circle cx="54.527" cy="31.985" r="1.25"/>
   <circle cx="60.877" cy="29.445" r="1.25"/>
   <circle cx="73.578" cy="31.985" r="1.25"/>
   <circle cx="79.927" cy="29.445" r="1.25"/>
  </g>
  <g fill="#F2EDA1" stroke="#F2EDA1" stroke-linecap="round" stroke-linejoin="round" stroke-width="0">
   <circle cx="92.627" cy="31.985" r="1.25"/>
   <circle cx="98.977" cy="29.445" r="1.25"/>
   <circle cx="30.715" cy="31.985" r="1.25"/>
   <circle cx="37.065" cy="29.445" r="1.25"/>
   <circle cx="54.527" cy="31.985" r="1.25"/>
   <circle cx="60.877" cy="29.445" r="1.25"/>
   <circle cx="73.578" cy="31.985" r="1.25"/>
   <circle cx="79.927" cy="29.445" r="1.25"/>
  </g>
  <g fill="#8DCB81" stroke="#8DCB81" stroke-linecap="round" stroke-linejoin="round" stroke-width="0">
   <circle cx="92.627" cy="31.985" r="1.25"/>
   <circle cx="98.977" cy="29.445" r="1.25"/>
   <circle cx="30.715" cy="31.985" r="1.25"/>
   <circle cx="37.065" cy="29.445" r="1.25"/>
   <circle cx="54.527" cy="31.985" r="1.25"/>
   <circle cx="60.877" cy="29.445" r="1.25"/>
   <circle cx="73.578" cy="31.985" r="1.25"/>
   <circle cx="79.927" cy="29.445" r="1.25"/>
  </g>
  <g fill="#ED7C33" stroke="#ED7C33" stroke-linecap="round" stroke-linejoin="round" stroke-width="0">
   <circle cx="92.627" cy="31.985" r="1.25"/>
   <circle cx="98.977" cy="29.445" r="1.25"/>
   <circle cx="30.715" cy="31.985" r="1.25"/>
   <circle cx="37.065" cy="29.445" r="1.25"/>
   <circle cx="54.527" cy="31.985" r="1.25"/>
   <circle cx="60.877" cy="29.445" r="1.25"/>
   <circle cx="73.578" cy="31.985" r="1.25"/>
   <circle cx="79.927" cy="29.445" r="1.25"/>
  </g>
  <g fill="#5BC3EB" stroke="#5BC3EB" stroke-linecap="round" stroke-linejoin="round" stroke-width="0">
   <circle cx="92.627" cy="31.985" r="1.25"/>
   <circle cx="98.977" cy="29.445" r="1.25"/>
   <circle cx="30.715" cy="31.985" r="1.25"/>
   <circle cx="37.065" cy="29.445" r="1.25"/>
   <circle cx="54.527" cy="31.985" r="1.25"/>
   <circle cx="60.877" cy="29.445" r="1.25"/>
   <circle cx="73.578" cy="31.985" r="1.25"/>
   <circle cx="79.927" cy="29.445" r="1.25"/>
  </g>
  <g fill="#F76F8E" stroke="#F76F8E" stroke-linecap="round" stroke-linejoin="round" stroke-width="0">
   <circle cx="92.627" cy="31.985" r="1.25"/>
   <circle cx="98.977" cy="29.445" r="1.25"/>
   <circle cx="30.715" cy="31.985" r="1.25"/>
   <circle cx="37.065" cy="29.445" r="1.25"/>
   <circle cx="54.527" cy="31.985" r="1.25"/>
   <circle cx="60.877" cy="29.445" r="1.25"/>
   <circle cx="73.578" cy="31.985" r="1.25"/>
   <circle cx="79.927" cy="29.445" r="1.25"/>
  </g>
  <g fill="#A7A5C6" stroke="#A7A5C6" stroke-linecap="round" stroke-linejoin="round" stroke-width="0">
   <circle cx="92.627" cy="31.985" r="1.25"/>
   <circle cx="98.977" cy="29.445" r="1.25"/>
   <circle cx="30.715" cy="31.985" r="1.25"/>
   <circle cx="37.065" cy="29.445" r="1.25"/>
   <circle cx="54.527" cy="31.985" r="1.25"/>
   <circle cx="60.877" cy="29.445" r="1.25"/>
   <circle cx="73.578" cy="31.985" r="1.25"/>
   <circle cx="79.927" cy="29.445" r="1.25"/>
  </g>
  <g fill="#28CCD9" stroke="#28CCD9" stroke-linecap="round" stroke-linejoin="round" stroke-width="0">
   <circle cx="92.627" cy="31.985" r="1.25"/>
   <circle cx="98.977" cy="29.445" r="1.25"/>
   <circle cx="30.715" cy="31.985" r="1.25"/>
   <circle cx="37.065" cy="29.445" r="1.25"/>
   <circle cx="54.527" cy="31.985" r="1.25"/>
   <circle cx="60.877" cy="29.445" r="1.25"/>
   <circle cx="73.578" cy="31.985" r="1.25"/>
   <circle cx="79.927" cy="29.445" r="1.25"/>
  </g>
  <g fill="#E8B2A7" stroke="#E8B2A7" stroke-linecap="round" stroke-linejoin="round" stroke-width="0">
   <circle cx="92.627" cy="31.985" r="1.25"/>
   <circle cx="98.977" cy="29.445" r="1.25"/>
   <circle cx="30.715" cy="31.985" r="1.25"/>
   <circle cx="37.065" cy="29.445" r="1.25"/>
   <circle cx="54.527" cy="31.985" r="1.25"/>
   <circle cx="60.877" cy="29.445" r="1.25"/>
   <circle cx="73.578" cy="31.985" r="1.25"/>
   <circle cx="79.927" cy="29.445" r="1.25"/>
  </g>
  <g fill="#F2EDA1" stroke="#F2EDA1" stroke-linecap="round" stroke-linejoin="round" stroke-width="0">
   <circle cx="92.627" cy="31.985" r="1.25"/>
   <circle cx="98.977" cy="29.445" r="1.25"/>
   <circle cx="30.715" cy="31.985" r="1.25"/>
   <circle cx="37.065" cy="29.445" r="1.25"/>
   <circle cx="54.527" cy="31.985" r="1.25"/>
   <circle cx="60.877" cy="29.445" r="1.25"/>
   <circle cx="73.578" cy="31.985" r="1.25"/>
   <circle cx="79.927" cy="29.445" r="1.25"/>
  </g>
  <g fill="#ED7C33" stroke="#ED7C33" stroke-linecap="round" stroke-linejoin="round" stroke-width="0">
   <circle cx="92.627" cy="31.985" r="1.25"/>
   <circle cx="98.977" cy="29.445" r="1.25"/>
   <circle cx="30.715" cy="31.985" r="1.25"/>
   <circle cx="37.065" cy="29.445" r="1.25"/>
   <circle cx="54.527" cy="31.985" r="1.25"/>
   <circle cx="60.877" cy="29.445" r="1.25"/>
   <circle cx="73.578" cy="31.985" r="1.25"/>
   <circle cx="79.927" cy="29.445" r="1.25"/>
  </g>
  <g fill="#5BC3EB" stroke="#5BC3EB" stroke-linecap="round" stroke-linejoin="round" stroke-width="0">
   <circle cx="92.627" cy="31.985" r="1.25"/>
   <circle cx="98.977" cy="29.445" r="1.25"/>
   <circle cx="30.715" cy="31.985" r="1.25"/>
   <circle cx="37.065" cy="29.445" r="1.25"/>
   <circle cx="54.527" cy="31.985" r="1.25"/>
   <circle cx="60.877" cy="29.445" r="1.25"/>
   <circle cx="73.578" cy="31.985" r="1.25"/>
   <circle cx="79.927" cy="29.445" r="1.25"/>
  </g>
  <g fill="#F76F8E" stroke="#F76F8E" stroke-linecap="round" stroke-linejoin="round" stroke-width="0">
   <circle cx="92.627" cy="31.985" r="1.25"/>
   <circle cx="98.977" cy="29.445" r="1.25"/>
   <circle cx="30.715" cy="31.985" r="1.25"/>
   <circle cx="37.065" cy="29.445" r="1.25"/>
   <circle cx="54.527" cy="31.985" r="1.25"/>
   <circle cx="60.877" cy="29.445" r="1.25"/>
   <circle cx="73.578" cy="31.985" r="1.25"/>
   <circle cx="79.927" cy="29.445" r="1.25"/>
  </g>
  <g fill="#A7A5C6" stroke="#A7A5C6" stroke-linecap="round" stroke-linejoin="round" stroke-width="0">
   <circle cx="92.627" cy="31.985" r="1.25"/>
   <circle cx="98.977" cy="29.445" r="1.25"/>
   <circle cx="30.715" cy="31.985" r="1.25"/>
   <circle cx="37.065" cy="29.445" r="1.25"/>
   <circle cx="54.527" cy="31.985" r="1.25"/>
   <circle cx="60.877" cy="29.445" r="1.25"/>
   <circle cx="73.578" cy="31.985" r="1.25"/>
   <circle cx="79.927" cy="29.445" r="1.25"/>
  </g>
  <g fill="#28CCD9" stroke="#28CCD9" stroke-linecap="round" stroke-linejoin="round" stroke-width="0">
   <circle cx="92.627" cy="31.985" r="1.25"/>
   <circle cx="98.977" cy="29.445" r="1.25"/>
   <circle cx="30.715" cy="31.985" r="1.25"/>
   <circle cx="37.065" cy="29.445" r="1.25"/>
   <circle cx="54.527" cy="31.985" r="1.25"/>
   <circle cx="60.877" cy="29.445" r="1.25"/>
   <circle cx="73.578" cy="31.985" r="1.25"/>
   <circle cx="79.927" cy="29.445" r="1.25"/>
  </g>
  <g fill="#E8B2A7" stroke="#E8B2A7" stroke-linecap="round" stroke-linejoin="round" stroke-width="0">
   <circle cx="92.627" cy="31.985" r="1.25"/>
   <circle cx="98.977" cy="29.445" r="1.25"/>
   <circle cx="30.715" cy="31.985" r="1.25"/>
   <circle cx="37.065" cy="29.445" r="1.25"/>
   <circle cx="54.527" cy="31.985" r="1.25"/>
   <circle cx="60.877" cy="29.445" r="1.25"/>
   <circle cx="73.578" cy="31.985" r="1.25"/>
   <circle cx="79.927" cy="29.445" r="1.25"/>
  </g>
  <g fill="#F2EDA1" stroke="#F2EDA1" stroke-linecap="round" stroke-linejoin="round" stroke-width="0">
   <circle cx="92.627" cy="31.985" r="1.25"/>
   <circle cx="98.977" cy="29.445" r="1.25"/>
   <circle cx="30.715" cy="31.985" r="1.25"/>
   <circle cx="37.065" cy="29.445" r="1.25"/>
   <circle cx="54.527" cy="31.985" r="1.25"/>
   <circle cx="60.877" cy="29.445" r="1.25"/>
   <circle cx="73.578" cy="31.985" r="1.25"/>
   <circle cx="79.927" cy="29.445" r="1.25"/>
  </g>
  <g fill="#ED7C33" stroke="#ED7C33" stroke-linecap="round" stroke-linejoin="round" stroke-width="0">
   <circle cx="92.627" cy="31.985" r="1.25"/>
   <circle cx="98.977" cy="29.445" r="1.25"/>
   <circle cx="30.715" cy="31.985" r="1.25"/>
   <circle cx="37.065" cy="29.445" r="1.25"/>
   <circle cx="54.527" cy="31.985" r="1.25"/>
   <circle cx="60.877" cy="29.445" r="1.25"/>
   <circle cx="73.578" cy="31.985" r="1.25"/>
   <circle cx="79.927" cy="29.445" r="1.25"/>
  </g>
  <g fill="#5BC3EB" stroke="#5BC3EB" stroke-linecap="round" stroke-linejoin="round" stroke-width="0">
   <circle cx="92.627" cy="31.985" r="1.25"/>
   <circle cx="98.977" cy="29.445" r="1.25"/>
   <circle cx="30.715" cy="31.985" r="1.25"/>
   <circle cx="37.065" cy="29.445" r="1.25"/>
   <circle cx="54.527" cy="31.985" r="1.25"/>
   <circle cx="60.877" cy="29.445" r="1.25"/>
   <circle cx="73.578" cy="31.985" r="1.25"/>
   <circle cx="79.927" cy="29.445" r="1.25"/>
  </g>
  <g fill="#F76F8E" stroke="#F76F8E" stroke-linecap="round" stroke-linejoin="round" stroke-width="0">
   <circle cx="92.627" cy="31.985" r="1.25"/>
   <circle cx="98.977" cy="29.445" r="1.25"/>
   <circle cx="30.715" cy="31.985" r="1.25"/>
   <circle cx="37.065" cy="29.445" r="1.25"/>
   <circle cx="54.527" cy="31.985" r="1.25"/>
   <circle cx="60.877" cy="29.445" r="1.25"/>
   <circle cx="73.578" cy="31.985" r="1.25"/>
   <circle cx="79.927" cy="29.445" r="1.25"/>
  </g>
  <g fill="#A7A5C6" stroke="#A7A5C6" stroke-linecap="round" stroke-linejoin="round" stroke-width="0">
   <circle cx="92.627" cy="31.985" r="1.25"/>
   <circle cx="98.977" cy="29.445" r="1.25"/>
   <circle cx="30.715" cy="31.985" r="1.25"/>
   <circle cx="37.065" cy="29.445" r="1.25"/>
   <circle cx="54.527" cy="31.985" r="1.25"/>
   <circle cx="60.877" cy="29.445" r="1.25"/>
   <circle cx="73.578" cy="31.985" r="1.25"/>
   <circle cx="79.927" cy="29.445" r="1.25"/>
  </g>
  <g fill="#28CCD9" stroke="#28CCD9" stroke-linecap="round" stroke-linejoin="round" stroke-width="0">
   <circle cx="92.627" cy="31.985" r="1.25"/>
   <circle cx="98.977" cy="29.445" r="1.25"/>
   <circle cx="30.715" cy="31.985" r="1.25"/>
   <circle cx="37.065" cy="29.445" r="1.25"/>
   <circle cx="54.527" cy="31.985" r="1.25"/>
   <circle cx="60.877" cy="29.445" r="1.25"/>
   <circle cx="73.578" cy="31.985" r="1.25"/>
   <circle cx="79.927" cy="29.445" r="1.25"/>
  </g>
  <g fill="#E8B2A7" stroke="#E8B2A7" stroke-linecap="round" stroke-linejoin="round" stroke-width="0">
   <circle cx="92.627" cy="31.985" r="1.25"/>
   <circle cx="98.977" cy="29.445" r="1.25"/>
   <circle cx="30.715" cy="31.985" r="1.25"/>
   <circle cx="37.065" cy="29.445" r="1.25"/>
   <circle cx="54.527" cy="31.985" r="1.25"/>
   <circle cx="60.877" cy="29.445" r="1.25"/>
   <circle cx="73.578" cy="31.985" r="1.25"/>
   <circle cx="79.927" cy="29.445" r="1.25"/>
  </g>
  <g fill="#F2EDA1" stroke="#F2EDA1" stroke-linecap="round" stroke-linejoin="round" stroke-width="0">
   <circle cx="92.627" cy="31.985" r="1.25"/>
   <circle cx="98.977" cy="29.445" r="1.25"/>
   <circle cx="30.715" cy="31.985" r="1.25"/>
   <circle cx="37.065" cy="29.445" r="1.25"/>
   <circle cx="54.527" cy="31.985" r="1.25"/>
   <circle cx="60.877" cy="29.445" r="1.25"/>
   <circle cx="73.578" cy="31.985" r="1.25"/>
   <circle cx="79.927" cy="29.445" r="1.25"/>
  </g>
  <g fill="#4D7FC4">
   <g stroke-width="0">
    <g stroke="#4D7FC4" stroke-linecap="round" stroke-linejoin="round">
     <circle cx="92.627" cy="31.985" r="1.25"/>
     <circle cx="98.977" cy="29.445" r="1.25"/>
     <circle cx="30.715" cy="31.985" r="1.25"/>
     <circle cx="37.065" cy="29.445" r="1.25"/>
     <circle cx="54.527" cy="31.985" r="1.25"/>
     <circle cx="60.877" cy="29.445" r="1.25"/>
     <circle cx="73.578" cy="31.985" r="1.25"/>
     <circle cx="79.927" cy="29.445" r="1.25"/>
    </g>
    <g fill-rule="evenodd">
     <path d="m101.77 38.905h-0.5v-0.5h0.5z"/>
     <path d="m101.77 36.705h-0.5v-0.5h0.5z"/>
     <path d="m39.855 38.905h-0.5v-0.5h0.5z"/>
     <path d="m39.855 36.705h-0.5v-0.5h0.5z"/>
     <path d="m82.718 38.905h-0.5v-0.5h0.5z"/>
     <path d="m82.718 36.705h-0.5v-0.5h0.5z"/>
     <path d="m63.667 38.905h-0.5v-0.5h0.5z"/>
     <path d="m63.667 36.705h-0.5v-0.5h0.5z"/>
    </g>
   </g>
   <g fill-opacity="0" stroke="#4D7FC4" stroke-linecap="round" stroke-linejoin="round" stroke-width=".25">
    <path d="m37.065 29.445v4.47"/>
    <path d="m37.065 33.915 2.54 2.54"/>
    <path d="m63.417 38.655h19.051"/>
    <path d="m60.877 33.915 2.54 2.54"/>
    <path d="m60.877 29.445v4.47"/>
    <path d="m79.927 29.445v4.47"/>
    <path d="m79.927 33.915 2.541 2.54"/>
    <path d="m98.977 33.915 2.54 2.54"/>
    <path d="m98.977 29.445v4.47"/>
   </g>
  </g>
 </g>
 <g fill-opacity="0" stroke-linecap="round" stroke-linejoin="round">
  <g stroke="#000" stroke-width=".25">
   <g fill="#00C2C2" fill-opacity=".9" fill-rule="evenodd" stroke-width="0">
    <path d="m101.77 38.905h-0.5v-0.5h0.5z"/>
    <path d="m101.77 36.705h-0.5v-0.5h0.5z"/>
    <path d="m39.855 38.905h-0.5v-0.5h0.5z"/>
    <path d="m39.855 36.705h-0.5v-0.5h0.5z"/>
    <path d="m82.718 38.905h-0.5v-0.5h0.5z"/>
    <path d="m82.718 36.705h-0.5v-0.5h0.5z"/>
    <path d="m63.667 38.905h-0.5v-0.5h0.5z"/>
    <path d="m63.667 36.705h-0.5v-0.5h0.5z"/>
   </g>
  </g>
  <g fill="#E8B2A7" stroke="#E8B2A7" stroke-width=".15">
   <g transform="rotate(-90 103.37 37.555)">
    <text transform="scale(-1 1) translate(-206.74)" x="103.367" y="38.055" font-size="1.333" opacity="0" text-anchor="middle" lengthAdjust="spacingAndGlyphs" textLength="2.202">D4</text>
   </g>
   <g class="stroked-text">
    <desc>D4</desc>
    <path d="m103.82 36.817h-1"/>
    <path d="m102.82 36.817v0.238"/>
    <path d="m102.82 37.055 0.048 0.143"/>
    <path d="m102.87 37.198 0.095 0.095"/>
    <path d="m102.96 37.293 0.095 0.048"/>
    <path d="m103.06 37.341 0.191 0.047"/>
    <path d="m103.25 37.388h0.143"/>
    <path d="m103.39 37.388 0.19-0.047"/>
    <path d="m103.58 37.341 0.095-0.048"/>
    <path d="m103.68 37.293 0.096-0.095"/>
    <path d="m103.78 37.198 0.047-0.143"/>
    <path d="m103.82 37.055v-0.238"/>
    <path d="m103.16 38.245h0.666"/>
    <path d="m102.78 38.007 0.714-0.238"/>
    <path d="m103.49 37.769v0.619"/>
   </g>
   <g transform="rotate(-90 41.455 37.555)">
    <text transform="scale(-1 1) translate(-82.91)" x="41.455" y="38.055" font-size="1.333" opacity="0" text-anchor="middle" lengthAdjust="spacingAndGlyphs" textLength="2.202">D1</text>
   </g>
   <g class="stroked-text">
    <desc>D1</desc>
    <path d="m41.91 36.817h-1"/>
    <path d="m40.91 36.817v0.238"/>
    <path d="m40.91 37.055 0.047 0.143"/>
    <path d="m40.957 37.198 0.096 0.095"/>
    <path d="m41.053 37.293 0.095 0.048"/>
    <path d="m41.148 37.341 0.19 0.047"/>
    <path d="m41.338 37.388h0.143"/>
    <path d="m41.481 37.388 0.191-0.047"/>
    <path d="m41.672 37.341 0.095-0.048"/>
    <path d="m41.767 37.293 0.095-0.095"/>
    <path d="m41.862 37.198 0.048-0.143"/>
    <path d="m41.91 37.055v-0.238"/>
    <path d="m41.91 38.341v-0.572"/>
    <path d="m41.91 38.055h-1"/>
    <path d="m40.91 38.055 0.143-0.095"/>
    <path d="m41.053 37.96 0.095-0.095"/>
    <path d="m41.148 37.865 0.048-0.096"/>
   </g>
   <g transform="rotate(-90 84.317 37.555)">
    <text transform="scale(-1 1) translate(-168.64)" x="84.317" y="38.055" font-size="1.333" opacity="0" text-anchor="middle" lengthAdjust="spacingAndGlyphs" textLength="2.202">D3</text>
   </g>
   <g class="stroked-text">
    <desc>D3</desc>
    <path d="m84.772 36.817h-1"/>
    <path d="m83.772 36.817v0.238"/>
    <path d="m83.772 37.055 0.048 0.143"/>
    <path d="m83.82 37.198 0.095 0.095"/>
    <path d="m83.915 37.293 0.095 0.048"/>
    <path d="m84.01 37.341 0.191 0.047"/>
    <path d="m84.201 37.388h0.143"/>
    <path d="m84.344 37.388 0.19-0.047"/>
    <path d="m84.534 37.341 0.095-0.048"/>
    <path d="m84.629 37.293 0.096-0.095"/>
    <path d="m84.725 37.198 0.047-0.143"/>
    <path d="m84.772 37.055v-0.238"/>
    <path d="m83.772 37.722v0.619"/>
    <path d="m83.772 38.341 0.381-0.334"/>
    <path d="m84.153 38.007v0.143"/>
    <path d="m84.153 38.15 0.048 0.095"/>
    <path d="m84.201 38.245 0.048 0.048"/>
    <path d="m84.249 38.293 0.095 0.048"/>
    <path d="m84.344 38.341h0.238"/>
    <path d="m84.582 38.341 0.095-0.048"/>
    <path d="m84.677 38.293 0.048-0.048"/>
    <path d="m84.725 38.245 0.047-0.095"/>
    <path d="m84.772 38.15v-0.285"/>
    <path d="m84.772 37.865-0.047-0.096"/>
    <path d="m84.725 37.769-0.048-0.047"/>
   </g>
   <g transform="rotate(-90 65.267 37.555)">
    <text transform="scale(-1 1) translate(-130.54)" x="65.267" y="38.055" font-size="1.333" opacity="0" text-anchor="middle" lengthAdjust="spacingAndGlyphs" textLength="2.202">D2</text>
   </g>
   <g class="stroked-text">
    <desc>D2</desc>
    <path d="m65.722 36.817h-1"/>
    <path d="m64.722 36.817v0.238"/>
    <path d="m64.722 37.055 0.048 0.143"/>
    <path d="m64.77 37.198 0.095 0.095"/>
    <path d="m64.865 37.293 0.095 0.048"/>
    <path d="m64.96 37.341 0.191 0.047"/>
    <path d="m65.151 37.388h0.143"/>
    <path d="m65.294 37.388 0.19-0.047"/>
    <path d="m65.484 37.341 0.095-0.048"/>
    <path d="m65.579 37.293 0.096-0.095"/>
    <path d="m65.675 37.198 0.047-0.143"/>
    <path d="m65.722 37.055v-0.238"/>
    <path d="m64.818 37.769-0.048 0.048"/>
    <path d="m64.77 37.817-0.048 0.095"/>
    <path d="m64.722 37.912v0.238"/>
    <path d="m64.722 38.15 0.048 0.095"/>
    <path d="m64.77 38.245 0.048 0.048"/>
    <path d="m64.818 38.293 0.095 0.048"/>
    <path d="m64.913 38.341h0.095"/>
    <path d="m65.008 38.341 0.143-0.048"/>
    <path d="m65.151 38.293 0.571-0.571"/>
    <path d="m65.722 37.722v0.619"/>
   </g>
  </g>
  <g fill="#E8B2A7" stroke="#E8B2A7" stroke-width=".12">
   <path d="m100.67 39.055v-2.55"/>
   <path d="m102.37 39.055h-1.7"/>
   <path d="m102.37 39.055v-2.55"/>
   <path d="m38.755 39.055v-2.55"/>
   <path d="m40.455 39.055h-1.7"/>
   <path d="m40.455 39.055v-2.55"/>
   <path d="m81.617 39.055v-2.55"/>
   <path d="m83.317 39.055h-1.7"/>
   <path d="m83.317 39.055v-2.55"/>
   <path d="m62.567 39.055v-2.55"/>
   <path d="m64.267 39.055h-1.7"/>
   <path d="m64.267 39.055v-2.55"/>
  </g>
  <g fill="#F2EDA1" stroke="#F2EDA1" stroke-width=".15">
   <text x="96.438" y="27.025" font-size="1.333" opacity="0" text-anchor="middle" lengthAdjust="spacingAndGlyphs" textLength="3.298">SW4</text>
   <g class="stroked-text">
    <desc>SW4</desc>
    <path d="m95.104 26.932 0.143 0.048"/>
    <path d="m95.247 26.98h0.238"/>
    <path d="m95.485 26.98 0.095-0.048"/>
    <path d="m95.58 26.932 0.048-0.047"/>
    <path d="m95.628 26.885 0.048-0.096"/>
    <path d="m95.676 26.789v-0.095"/>
    <path d="m95.676 26.694-0.048-0.095"/>
    <path d="m95.628 26.599-0.048-0.048"/>
    <path d="m95.58 26.551-0.095-0.047"/>
    <path d="m95.485 26.504-0.19-0.048"/>
    <path d="m95.295 26.456-0.096-0.048"/>
    <path d="m95.199 26.408-0.047-0.047"/>
    <path d="m95.152 26.361-0.048-0.095"/>
    <path d="m95.104 26.266v-0.096"/>
    <path d="m95.104 26.17 0.048-0.095"/>
    <path d="m95.152 26.075 0.047-0.048"/>
    <path d="m95.199 26.027 0.096-0.047"/>
    <path d="m95.295 25.98h0.238"/>
    <path d="m95.533 25.98 0.143 0.047"/>
    <path d="m96.009 25.98 0.238 1"/>
    <path d="m96.247 26.98 0.191-0.714"/>
    <path d="m96.438 26.266 0.19 0.714"/>
    <path d="m96.628 26.98 0.238-1"/>
    <path d="m97.676 26.313v0.667"/>
    <path d="m97.438 25.932-0.239 0.714"/>
    <path d="m97.199 26.646h0.619"/>
   </g>
   <text x="34.525" y="27.025" font-size="1.333" opacity="0" text-anchor="middle" lengthAdjust="spacingAndGlyphs" textLength="3.298">SW1</text>
   <g class="stroked-text">
    <desc>SW1</desc>
    <path d="m33.192 26.932 0.143 0.048"/>
    <path d="m33.335 26.98h0.238"/>
    <path d="m33.573 26.98 0.095-0.048"/>
    <path d="m33.668 26.932 0.047-0.047"/>
    <path d="m33.715 26.885 0.048-0.096"/>
    <path d="m33.763 26.789v-0.095"/>
    <path d="m33.763 26.694-0.048-0.095"/>
    <path d="m33.715 26.599-0.047-0.048"/>
    <path d="m33.668 26.551-0.095-0.047"/>
    <path d="m33.573 26.504-0.191-0.048"/>
    <path d="m33.382 26.456-0.095-0.048"/>
    <path d="m33.287 26.408-0.048-0.047"/>
    <path d="m33.239 26.361-0.047-0.095"/>
    <path d="m33.192 26.266v-0.096"/>
    <path d="m33.192 26.17 0.047-0.095"/>
    <path d="m33.239 26.075 0.048-0.048"/>
    <path d="m33.287 26.027 0.095-0.047"/>
    <path d="m33.382 25.98h0.238"/>
    <path d="m33.62 25.98 0.143 0.047"/>
    <path d="m34.096 25.98 0.239 1"/>
    <path d="m34.335 26.98 0.19-0.714"/>
    <path d="m34.525 26.266 0.19 0.714"/>
    <path d="m34.715 26.98 0.239-1"/>
    <path d="m35.858 26.98h-0.571"/>
    <path d="m35.573 26.98v-1"/>
    <path d="m35.573 25.98-0.096 0.143"/>
    <path d="m35.477 26.123-0.095 0.095"/>
    <path d="m35.382 26.218-0.095 0.048"/>
   </g>
   <text x="58.337" y="27.025" font-size="1.333" opacity="0" text-anchor="middle" lengthAdjust="spacingAndGlyphs" textLength="3.298">SW2</text>
   <g class="stroked-text">
    <desc>SW2</desc>
    <path d="m57.004 26.932 0.143 0.048"/>
    <path d="m57.147 26.98h0.238"/>
    <path d="m57.385 26.98 0.095-0.048"/>
    <path d="m57.48 26.932 0.048-0.047"/>
    <path d="m57.528 26.885 0.048-0.096"/>
    <path d="m57.576 26.789v-0.095"/>
    <path d="m57.576 26.694-0.048-0.095"/>
    <path d="m57.528 26.599-0.048-0.048"/>
    <path d="m57.48 26.551-0.095-0.047"/>
    <path d="m57.385 26.504-0.19-0.048"/>
    <path d="m57.195 26.456-0.096-0.048"/>
    <path d="m57.099 26.408-0.047-0.047"/>
    <path d="m57.052 26.361-0.048-0.095"/>
    <path d="m57.004 26.266v-0.096"/>
    <path d="m57.004 26.17 0.048-0.095"/>
    <path d="m57.052 26.075 0.047-0.048"/>
    <path d="m57.099 26.027 0.096-0.047"/>
    <path d="m57.195 25.98h0.238"/>
    <path d="m57.433 25.98 0.143 0.047"/>
    <path d="m57.909 25.98 0.238 1"/>
    <path d="m58.147 26.98 0.19-0.714"/>
    <path d="m58.337 26.266 0.191 0.714"/>
    <path d="m58.528 26.98 0.238-1"/>
    <path d="m59.099 26.075 0.048-0.048"/>
    <path d="m59.147 26.027 0.095-0.047"/>
    <path d="m59.242 25.98h0.238"/>
    <path d="m59.48 25.98 0.096 0.047"/>
    <path d="m59.576 26.027 0.047 0.048"/>
    <path d="m59.623 26.075 0.048 0.095"/>
    <path d="m59.671 26.17v0.096"/>
    <path d="m59.671 26.266-0.048 0.142"/>
    <path d="m59.623 26.408-0.571 0.572"/>
    <path d="m59.052 26.98h0.619"/>
   </g>
   <text x="77.388" y="27.025" font-size="1.333" opacity="0" text-anchor="middle" lengthAdjust="spacingAndGlyphs" textLength="3.298">SW3</text>
   <g class="stroked-text">
    <desc>SW3</desc>
    <path d="m76.054 26.932 0.143 0.048"/>
    <path d="m76.197 26.98h0.238"/>
    <path d="m76.435 26.98 0.095-0.048"/>
    <path d="m76.53 26.932 0.048-0.047"/>
    <path d="m76.578 26.885 0.048-0.096"/>
    <path d="m76.626 26.789v-0.095"/>
    <path d="m76.626 26.694-0.048-0.095"/>
    <path d="m76.578 26.599-0.048-0.048"/>
    <path d="m76.53 26.551-0.095-0.047"/>
    <path d="m76.435 26.504-0.19-0.048"/>
    <path d="m76.245 26.456-0.096-0.048"/>
    <path d="m76.149 26.408-0.047-0.047"/>
    <path d="m76.102 26.361-0.048-0.095"/>
    <path d="m76.054 26.266v-0.096"/>
    <path d="m76.054 26.17 0.048-0.095"/>
    <path d="m76.102 26.075 0.047-0.048"/>
    <path d="m76.149 26.027 0.096-0.047"/>
    <path d="m76.245 25.98h0.238"/>
    <path d="m76.483 25.98 0.143 0.047"/>
    <path d="m76.959 25.98 0.238 1"/>
    <path d="m77.197 26.98 0.191-0.714"/>
    <path d="m77.388 26.266 0.19 0.714"/>
    <path d="m77.578 26.98 0.238-1"/>
    <path d="m78.102 25.98h0.619"/>
    <path d="m78.721 25.98-0.333 0.381"/>
    <path d="m78.388 26.361h0.142"/>
    <path d="m78.53 26.361 0.096 0.047"/>
    <path d="m78.626 26.408 0.047 0.048"/>
    <path d="m78.673 26.456 0.048 0.095"/>
    <path d="m78.721 26.551v0.238"/>
    <path d="m78.721 26.789-0.048 0.096"/>
    <path d="m78.673 26.885-0.047 0.047"/>
    <path d="m78.626 26.932-0.096 0.048"/>
    <path d="m78.53 26.98h-0.285"/>
    <path d="m78.245 26.98-0.096-0.048"/>
    <path d="m78.149 26.932-0.047-0.047"/>
   </g>
  </g>
  <g fill="#F2EDA1" stroke="#F2EDA1" stroke-width=".12">
   <path d="m89.337 27.425v14.2"/>
   <path d="m89.337 41.625h14.2"/>
   <path d="m103.54 27.425h-14.2"/>
   <path d="m103.54 41.625v-14.2"/>
   <path d="m27.425 27.425v14.2"/>
   <path d="m27.425 41.625h14.2"/>
   <path d="m41.625 27.425h-14.2"/>
   <path d="m41.625 41.625v-14.2"/>
   <path d="m51.237 27.425v14.2"/>
   <path d="m51.237 41.625h14.201"/>
   <path d="m65.438 27.425h-14.201"/>
   <path d="m65.438 41.625v-14.2"/>
   <path d="m70.287 27.425v14.2"/>
   <path d="m70.287 41.625h14.2"/>
   <path d="m84.487 27.425h-14.2"/>
   <path d="m84.487 41.625v-14.2"/>
  </g>
  <g stroke="#000" stroke-width=".12">
   <g fill="#02FFEE" fill-opacity=".4" stroke-width="0">
    <g stroke="#02FFEE" stroke-linecap="round" stroke-linejoin="round">
     <circle cx="91.358" cy="34.525" r=".875"/>
     <circle cx="96.438" cy="34.525" r="2"/>
     <circle cx="101.52" cy="34.525" r=".875"/>
     <circle cx="92.627" cy="31.985" r="1.25"/>
     <circle cx="98.977" cy="29.445" r="1.25"/>
     <circle cx="29.445" cy="34.525" r=".875"/>
     <circle cx="34.525" cy="34.525" r="2"/>
     <circle cx="39.605" cy="34.525" r=".875"/>
     <circle cx="30.715" cy="31.985" r="1.25"/>
     <circle cx="37.065" cy="29.445" r="1.25"/>
     <circle cx="53.258" cy="34.525" r=".875"/>
     <circle cx="58.337" cy="34.525" r="2"/>
     <circle cx="63.417" cy="34.525" r=".875"/>
     <circle cx="54.527" cy="31.985" r="1.25"/>
     <circle cx="60.877" cy="29.445" r="1.25"/>
     <circle cx="72.307" cy="34.525" r=".875"/>
     <circle cx="77.388" cy="34.525" r="2"/>
     <circle cx="82.468" cy="34.525" r=".875"/>
     <circle cx="73.578" cy="31.985" r="1.25"/>
     <circle cx="79.927" cy="29.445" r="1.25"/>
    </g>
    <g fill-rule="evenodd">
     <path d="m101.77 38.905h-0.5v-0.5h0.5z"/>
     <path d="m101.77 36.705h-0.5v-0.5h0.5z"/>
     <path d="m39.855 38.905h-0.5v-0.5h0.5z"/>
     <path d="m39.855 36.705h-0.5v-0.5h0.5z"/>
     <path d="m82.718 38.905h-0.5v-0.5h0.5z"/>
     <path d="m82.718 36.705h-0.5v-0.5h0.5z"/>
     <path d="m63.667 38.905h-0.5v-0.5h0.5z"/>
     <path d="m63.667 36.705h-0.5v-0.5h0.5z"/>
    </g>
   </g>
  </g>
 </g>
 <g stroke-width="0">
  <g fill="#D864FF" fill-opacity=".4" stroke="#D864FF" stroke-linecap="round" stroke-linejoin="round" stroke-width="0">
   <circle cx="91.358" cy="34.525" r=".875"/>
   <circle cx="96.438" cy="34.525" r="2"/>
   <circle cx="101.52" cy="34.525" r=".875"/>
   <circle cx="29.445" cy="34.525" r=".875"/>
   <circle cx="34.525" cy="34.525" r="2"/>
   <circle cx="39.605" cy="34.525" r=".875"/>
   <circle cx="53.258" cy="34.525" r=".875"/>
   <circle cx="58.337" cy="34.525" r="2"/>
   <circle cx="63.417" cy="34.525" r=".875"/>
   <circle cx="72.307" cy="34.525" r=".875"/>
   <circle cx="77.388" cy="34.525" r="2"/>
   <circle cx="82.468" cy="34.525" r=".875"/>
  </g>
 </g>
</svg>
