<?xml version="1.0" encoding="UTF-8"?>
<!DOCTYPE svg  PUBLIC '-//W3C//DTD SVG 1.1//EN'  'http://www.w3.org/Graphics/SVG/1.1/DTD/svg11.dtd'>
<svg width="76.276mm" height="113.51mm" version="1.1" viewBox="0 0 76.276 113.51" xmlns="http://www.w3.org/2000/svg">
 <title>SVG Image created as ps17-render.svg date 2026/07/14 10:48:17</title>
 <desc>Image generated by PCBNEW</desc>
 <rect width="76.276mm" height="113.51mm" fill="#282A36"/>
 <g fill="#f55">
  <circle cx="62.915" cy="53.133" r="1.25"/>
  <circle cx="69.265" cy="50.593" r="1.25"/>
  <circle cx="5.765" cy="81.708" r="1.25"/>
  <circle cx="12.115" cy="79.168" r="1.25"/>
  <circle cx="15.29" cy="100.76" r="1.25"/>
  <circle cx="21.64" cy="98.218" r="1.25"/>
  <circle cx="24.815" cy="24.558" r="1.25"/>
  <circle cx="31.165" cy="22.018" r="1.25"/>
  <circle cx="43.865" cy="43.608" r="1.25"/>
  <circle cx="50.215" cy="41.068" r="1.25"/>
  <circle cx="43.865" cy="62.658" r="1.25"/>
  <circle cx="50.215" cy="60.118" r="1.25"/>
  <circle cx="62.915" cy="24.558" r="1.25"/>
  <circle cx="69.265" cy="22.018" r="1.25"/>
  <circle cx="43.865" cy="81.708" r="1.25"/>
  <circle cx="50.215" cy="79.168" r="1.25"/>
  <circle cx="62.915" cy="91.233" r="1.25"/>
  <circle cx="69.265" cy="88.693" r="1.25"/>
  <circle cx="43.865" cy="24.558" r="1.25"/>
  <circle cx="50.215" cy="22.018" r="1.25"/>
  <path d="m1.075 6.5482v-2h2v2z" fill="#f55" fill-rule="evenodd"/>
  <circle cx="2.075" cy="10.548" r="1"/>
  <circle cx="2.075" cy="8.0482" r="1"/>
  <path d="m7.975 3.4482v-1.9999h3.2v1.9999z" fill="#f55" fill-rule="evenodd"/>
  <path d="m7.975 14.648v-2h3.2v2z" fill="#f55" fill-rule="evenodd"/>
  <circle cx="16.575" cy="10.548" r="1"/>
  <circle cx="16.575" cy="5.5482" r="1"/>
  <circle cx="24.815" cy="62.658" r="1.25"/>
  <circle cx="31.165" cy="60.118" r="1.25"/>
  <circle cx="5.765" cy="62.658" r="1.25"/>
  <circle cx="12.115" cy="60.118" r="1.25"/>
  <circle cx="24.815" cy="81.708" r="1.25"/>
  <circle cx="31.165" cy="79.168" r="1.25"/>
  <circle cx="5.765" cy="24.558" r="1.25"/>
  <circle cx="12.115" cy="22.018" r="1.25"/>
  <circle cx="43.865" cy="100.76" r="1.25"/>
  <circle cx="50.215" cy="98.218" r="1.25"/>
  <circle cx="24.815" cy="43.608" r="1.25"/>
  <circle cx="31.165" cy="41.068" r="1.25"/>
  <circle cx="5.765" cy="43.608" r="1.25"/>
  <circle cx="12.115" cy="41.068" r="1.25"/>
 </g>
 <g fill="none" stroke="#f55" stroke-linecap="round" stroke-linejoin="round" stroke-width=".2">
  <path d="m5.765 24.558v19.05"/>
  <path d="m5.765 62.658v19.05"/>
  <path d="m5.765 91.233 9.525 9.525"/>
  <path d="m5.765 81.708v9.525"/>
  <path d="m5.765 43.608v19.05"/>
  <path d="m16.575 16.318 8.24 8.24"/>
  <path d="m16.575 10.548v5.77"/>
  <path d="m24.815 62.658v19.05"/>
  <path d="m24.815 24.558v19.05"/>
  <path d="m24.815 43.608v19.05"/>
  <path d="m43.865 81.708v19.05"/>
  <path d="m43.865 24.558v19.05"/>
  <path d="m43.865 62.658v19.05"/>
  <path d="m43.865 43.608v19.05"/>
  <path d="m62.915 24.558v28.575"/>
  <path d="m62.915 53.133v38.1"/>
 </g>
 <g fill="#50FA7B">
  <circle cx="62.915" cy="53.133" r="1.25"/>
  <circle cx="69.265" cy="50.593" r="1.25"/>
  <circle cx="5.765" cy="81.708" r="1.25"/>
  <circle cx="12.115" cy="79.168" r="1.25"/>
  <circle cx="15.29" cy="100.76" r="1.25"/>
  <circle cx="21.64" cy="98.218" r="1.25"/>
  <circle cx="24.815" cy="24.558" r="1.25"/>
  <circle cx="31.165" cy="22.018" r="1.25"/>
  <circle cx="43.865" cy="43.608" r="1.25"/>
  <circle cx="50.215" cy="41.068" r="1.25"/>
  <circle cx="43.865" cy="62.658" r="1.25"/>
  <circle cx="50.215" cy="60.118" r="1.25"/>
  <circle cx="62.915" cy="24.558" r="1.25"/>
  <circle cx="69.265" cy="22.018" r="1.25"/>
  <circle cx="43.865" cy="81.708" r="1.25"/>
  <circle cx="50.215" cy="79.168" r="1.25"/>
  <circle cx="62.915" cy="91.233" r="1.25"/>
  <circle cx="69.265" cy="88.693" r="1.25"/>
  <circle cx="43.865" cy="24.558" r="1.25"/>
  <circle cx="50.215" cy="22.018" r="1.25"/>
  <path d="m1.075 6.5482v-2h2v2z" fill="#50FA7B" fill-rule="evenodd"/>
  <circle cx="2.075" cy="10.548" r="1"/>
  <circle cx="2.075" cy="8.0482" r="1"/>
  <path d="m7.975 3.4482v-1.9999h3.2v1.9999z" fill="#50FA7B" fill-rule="evenodd"/>
  <path d="m7.975 14.648v-2h3.2v2z" fill="#50FA7B" fill-rule="evenodd"/>
  <circle cx="16.575" cy="10.548" r="1"/>
  <circle cx="16.575" cy="5.5482" r="1"/>
  <circle cx="24.815" cy="62.658" r="1.25"/>
  <circle cx="31.165" cy="60.118" r="1.25"/>
  <circle cx="5.765" cy="62.658" r="1.25"/>
  <circle cx="12.115" cy="60.118" r="1.25"/>
  <circle cx="24.815" cy="81.708" r="1.25"/>
  <circle cx="31.165" cy="79.168" r="1.25"/>
  <circle cx="5.765" cy="24.558" r="1.25"/>
  <circle cx="12.115" cy="22.018" r="1.25"/>
  <circle cx="43.865" cy="100.76" r="1.25"/>
  <circle cx="50.215" cy="98.218" r="1.25"/>
  <circle cx="24.815" cy="43.608" r="1.25"/>
  <circle cx="31.165" cy="41.068" r="1.25"/>
  <circle cx="5.765" cy="43.608" r="1.25"/>
  <circle cx="12.115" cy="41.068" r="1.25"/>
  <g fill="#50FA7B" fill-rule="evenodd">
   <path d="m52.455 109.25-0.0957-0.019-0.0811-0.0542-0.0542-0.0811-0.019-0.0957v-0.6l0.019-0.0956 0.0542-0.0811 0.0811-0.0542 0.0957-0.0191h0.6l0.0957 0.0191 0.0811 0.0542 0.0542 0.0811 0.019 0.0956v0.6l-0.019 0.0957-0.0542 0.0811-0.0811 0.0542-0.0957 0.019z"/>
   <path d="m52.455 106.45-0.0957-0.0191-0.0811-0.0542-0.0542-0.0811-0.019-0.0956v-0.6001l0.019-0.0956 0.0542-0.0811 0.0811-0.0542 0.0957-0.0191h0.6l0.0957 0.0191 0.0811 0.0542 0.0542 0.0811 0.019 0.0956v0.6001l-0.019 0.0956-0.0542 0.0811-0.0811 0.0542-0.0957 0.0191z"/>
   <path d="m33.405 71.148-0.0957-0.019-0.0811-0.0542-0.0542-0.0811-0.019-0.0957v-0.6l0.019-0.0956 0.0542-0.0811 0.0811-0.0542 0.0957-0.0191h0.6l0.0957 0.0191 0.0811 0.0542 0.0542 0.0811 0.019 0.0956v0.6l-0.019 0.0957-0.0542 0.0811-0.0811 0.0542-0.0957 0.019z"/>
   <path d="m33.405 68.348-0.0957-0.019-0.0811-0.0542-0.0542-0.0811-0.019-0.0957v-0.6l0.019-0.0956 0.0542-0.0811 0.0811-0.0542 0.0957-0.0191h0.6l0.0957 0.0191 0.0811 0.0542 0.0542 0.0811 0.019 0.0956v0.6l-0.019 0.0957-0.0542 0.0811-0.0811 0.0542-0.0957 0.019z"/>
   <path d="m14.355 90.198-0.0957-0.0191-0.0811-0.0542-0.0542-0.0811-0.019-0.0956v-0.6001l0.019-0.0956 0.0542-0.0811 0.0811-0.0542 0.0957-0.0191h0.6l0.0957 0.0191 0.0811 0.0542 0.0542 0.0811 0.019 0.0956v0.6001l-0.019 0.0956-0.0542 0.0811-0.0811 0.0542-0.0957 0.0191z"/>
   <path d="m14.355 87.398-0.0957-0.019-0.0811-0.0542-0.0542-0.0811-0.019-0.0957v-0.6l0.019-0.0956 0.0542-0.0811 0.0811-0.0542 0.0957-0.0191h0.6l0.0957 0.0191 0.0811 0.0542 0.0542 0.0811 0.019 0.0956v0.6l-0.019 0.0957-0.0542 0.0811-0.0811 0.0542-0.0957 0.019z"/>
   <path d="m14.355 71.148-0.0957-0.019-0.0811-0.0542-0.0542-0.0811-0.019-0.0957v-0.6l0.019-0.0956 0.0542-0.0811 0.0811-0.0542 0.0957-0.0191h0.6l0.0957 0.0191 0.0811 0.0542 0.0542 0.0811 0.019 0.0956v0.6l-0.019 0.0957-0.0542 0.0811-0.0811 0.0542-0.0957 0.019z"/>
   <path d="m14.355 68.348-0.0957-0.019-0.0811-0.0542-0.0542-0.0811-0.019-0.0957v-0.6l0.019-0.0956 0.0542-0.0811 0.0811-0.0542 0.0957-0.0191h0.6l0.0957 0.0191 0.0811 0.0542 0.0542 0.0811 0.019 0.0956v0.6l-0.019 0.0957-0.0542 0.0811-0.0811 0.0542-0.0957 0.019z"/>
   <path d="m33.405 33.048-0.0957-0.019-0.0811-0.0542-0.0542-0.0811-0.019-0.0957v-0.5999l0.019-0.0957 0.0542-0.0811 0.0811-0.0542 0.0957-0.0191h0.6l0.0957 0.0191 0.0811 0.0542 0.0542 0.0811 0.019 0.0957v0.5999l-0.019 0.0957-0.0542 0.0811-0.0811 0.0542-0.0957 0.019z"/>
   <path d="m33.405 30.248-0.0957-0.019-0.0811-0.0542-0.0542-0.0811-0.019-0.0957v-0.6l0.019-0.0956 0.0542-0.0811 0.0811-0.0542 0.0957-0.0191h0.6l0.0957 0.0191 0.0811 0.0542 0.0542 0.0811 0.019 0.0956v0.6l-0.019 0.0957-0.0542 0.0811-0.0811 0.0542-0.0957 0.019z"/>
   <path d="m52.455 71.148-0.0957-0.019-0.0811-0.0542-0.0542-0.0811-0.019-0.0957v-0.6l0.019-0.0956 0.0542-0.0811 0.0811-0.0542 0.0957-0.0191h0.6l0.0957 0.0191 0.0811 0.0542 0.0542 0.0811 0.019 0.0956v0.6l-0.019 0.0957-0.0542 0.0811-0.0811 0.0542-0.0957 0.019z"/>
   <path d="m52.455 68.348-0.0957-0.019-0.0811-0.0542-0.0542-0.0811-0.019-0.0957v-0.6l0.019-0.0956 0.0542-0.0811 0.0811-0.0542 0.0957-0.0191h0.6l0.0957 0.0191 0.0811 0.0542 0.0542 0.0811 0.019 0.0956v0.6l-0.019 0.0957-0.0542 0.0811-0.0811 0.0542-0.0957 0.019z"/>
   <path d="m33.405 52.098-0.0957-0.0191-0.0811-0.0542-0.0542-0.0811-0.019-0.0956v-0.6001l0.019-0.0956 0.0542-0.0811 0.0811-0.0542 0.0957-0.0191h0.6l0.0957 0.0191 0.0811 0.0542 0.0542 0.0811 0.019 0.0956v0.6001l-0.019 0.0956-0.0542 0.0811-0.0811 0.0542-0.0957 0.0191z"/>
   <path d="m33.405 49.298-0.0957-0.019-0.0811-0.0542-0.0542-0.0811-0.019-0.0957v-0.6l0.019-0.0956 0.0542-0.0811 0.0811-0.0542 0.0957-0.0191h0.6l0.0957 0.0191 0.0811 0.0542 0.0542 0.0811 0.019 0.0956v0.6l-0.019 0.0957-0.0542 0.0811-0.0811 0.0542-0.0957 0.019z"/>
   <path d="m52.455 52.098-0.0957-0.0191-0.0811-0.0542-0.0542-0.0811-0.019-0.0956v-0.6001l0.019-0.0956 0.0542-0.0811 0.0811-0.0542 0.0957-0.0191h0.6l0.0957 0.0191 0.0811 0.0542 0.0542 0.0811 0.019 0.0956v0.6001l-0.019 0.0956-0.0542 0.0811-0.0811 0.0542-0.0957 0.0191z"/>
   <path d="m52.455 49.298-0.0957-0.019-0.0811-0.0542-0.0542-0.0811-0.019-0.0957v-0.6l0.019-0.0956 0.0542-0.0811 0.0811-0.0542 0.0957-0.0191h0.6l0.0957 0.0191 0.0811 0.0542 0.0542 0.0811 0.019 0.0956v0.6l-0.019 0.0957-0.0542 0.0811-0.0811 0.0542-0.0957 0.019z"/>
   <path d="m71.505 99.723-0.0957-0.019-0.0811-0.0542-0.0542-0.0811-0.019-0.0957v-0.6l0.019-0.0956 0.0542-0.0811 0.0811-0.0542 0.0957-0.0191h0.6l0.0957 0.0191 0.0811 0.0542 0.0542 0.0811 0.019 0.0956v0.6l-0.019 0.0957-0.0542 0.0811-0.0811 0.0542-0.0957 0.019z"/>
   <path d="m71.505 96.923-0.0957-0.019-0.0811-0.0542-0.0542-0.0811-0.019-0.0957v-0.5999l0.019-0.0957 0.0542-0.0811 0.0811-0.0542 0.0957-0.019h0.6l0.0957 0.019 0.0811 0.0542 0.0542 0.0811 0.019 0.0957v0.5999l-0.019 0.0957-0.0542 0.0811-0.0811 0.0542-0.0957 0.019z"/>
   <path d="m14.355 52.098-0.0957-0.0191-0.0811-0.0542-0.0542-0.0811-0.019-0.0956v-0.6001l0.019-0.0956 0.0542-0.0811 0.0811-0.0542 0.0957-0.0191h0.6l0.0957 0.0191 0.0811 0.0542 0.0542 0.0811 0.019 0.0956v0.6001l-0.019 0.0956-0.0542 0.0811-0.0811 0.0542-0.0957 0.0191z"/>
   <path d="m14.355 49.298-0.0957-0.019-0.0811-0.0542-0.0542-0.0811-0.019-0.0957v-0.6l0.019-0.0956 0.0542-0.0811 0.0811-0.0542 0.0957-0.0191h0.6l0.0957 0.0191 0.0811 0.0542 0.0542 0.0811 0.019 0.0956v0.6l-0.019 0.0957-0.0542 0.0811-0.0811 0.0542-0.0957 0.019z"/>
   <path d="m33.405 90.198-0.0957-0.0191-0.0811-0.0542-0.0542-0.0811-0.019-0.0956v-0.6001l0.019-0.0956 0.0542-0.0811 0.0811-0.0542 0.0957-0.0191h0.6l0.0957 0.0191 0.0811 0.0542 0.0542 0.0811 0.019 0.0956v0.6001l-0.019 0.0956-0.0542 0.0811-0.0811 0.0542-0.0957 0.0191z"/>
   <path d="m33.405 87.398-0.0957-0.019-0.0811-0.0542-0.0542-0.0811-0.019-0.0957v-0.6l0.019-0.0956 0.0542-0.0811 0.0811-0.0542 0.0957-0.0191h0.6l0.0957 0.0191 0.0811 0.0542 0.0542 0.0811 0.019 0.0956v0.6l-0.019 0.0957-0.0542 0.0811-0.0811 0.0542-0.0957 0.019z"/>
   <path d="m6.855 11.498-0.0957-0.019-0.0811-0.0542-0.0542-0.0811-0.019-0.0957v-0.6l0.019-0.0956 0.0542-0.0811 0.0811-0.0542 0.0957-0.0191h0.6l0.0957 0.0191 0.0811 0.0542 0.0542 0.0811 0.019 0.0956v0.6l-0.019 0.0957-0.0542 0.0811-0.0811 0.0542-0.0957 0.019z"/>
   <path d="m6.855 8.6982-0.0957-0.019-0.0811-0.0542-0.0542-0.0811-0.019-0.0957v-0.6l0.019-0.0956 0.0542-0.0811 0.0811-0.0542 0.0957-0.0191h0.6l0.0957 0.0191 0.0811 0.0542 0.0542 0.0811 0.019 0.0956v0.6l-0.019 0.0957-0.0542 0.0811-0.0811 0.0542-0.0957 0.019z"/>
   <path d="m52.455 33.048-0.0957-0.019-0.0811-0.0542-0.0542-0.0811-0.019-0.0957v-0.5999l0.019-0.0957 0.0542-0.0811 0.0811-0.0542 0.0957-0.0191h0.6l0.0957 0.0191 0.0811 0.0542 0.0542 0.0811 0.019 0.0957v0.5999l-0.019 0.0957-0.0542 0.0811-0.0811 0.0542-0.0957 0.019z"/>
   <path d="m52.455 30.248-0.0957-0.019-0.0811-0.0542-0.0542-0.0811-0.019-0.0957v-0.6l0.019-0.0956 0.0542-0.0811 0.0811-0.0542 0.0957-0.0191h0.6l0.0957 0.0191 0.0811 0.0542 0.0542 0.0811 0.019 0.0956v0.6l-0.019 0.0957-0.0542 0.0811-0.0811 0.0542-0.0957 0.019z"/>
   <path d="m52.455 90.198-0.0957-0.0191-0.0811-0.0542-0.0542-0.0811-0.019-0.0956v-0.6001l0.019-0.0956 0.0542-0.0811 0.0811-0.0542 0.0957-0.0191h0.6l0.0957 0.0191 0.0811 0.0542 0.0542 0.0811 0.019 0.0956v0.6001l-0.019 0.0956-0.0542 0.0811-0.0811 0.0542-0.0957 0.0191z"/>
   <path d="m52.455 87.398-0.0957-0.019-0.0811-0.0542-0.0542-0.0811-0.019-0.0957v-0.6l0.019-0.0956 0.0542-0.0811 0.0811-0.0542 0.0957-0.0191h0.6l0.0957 0.0191 0.0811 0.0542 0.0542 0.0811 0.019 0.0956v0.6l-0.019 0.0957-0.0542 0.0811-0.0811 0.0542-0.0957 0.019z"/>
   <path d="m71.505 61.623-0.0957-0.019-0.0811-0.0542-0.0542-0.0811-0.019-0.0957v-0.6l0.019-0.0956 0.0542-0.0811 0.0811-0.0542 0.0957-0.0191h0.6l0.0957 0.0191 0.0811 0.0542 0.0542 0.0811 0.019 0.0956v0.6l-0.019 0.0957-0.0542 0.0811-0.0811 0.0542-0.0957 0.019z"/>
   <path d="m71.505 58.823-0.0957-0.019-0.0811-0.0542-0.0542-0.0811-0.019-0.0957v-0.5999l0.019-0.0957 0.0542-0.0811 0.0811-0.0542 0.0957-0.019h0.6l0.0957 0.019 0.0811 0.0542 0.0542 0.0811 0.019 0.0957v0.5999l-0.019 0.0957-0.0542 0.0811-0.0811 0.0542-0.0957 0.019z"/>
   <path d="m23.88 109.25-0.0957-0.019-0.0811-0.0542-0.0542-0.0811-0.019-0.0957v-0.6l0.019-0.0956 0.0542-0.0811 0.0811-0.0542 0.0957-0.0191h0.6l0.0957 0.0191 0.0811 0.0542 0.0542 0.0811 0.019 0.0956v0.6l-0.019 0.0957-0.0542 0.0811-0.0811 0.0542-0.0957 0.019z"/>
   <path d="m23.88 106.45-0.0957-0.0191-0.0811-0.0542-0.0542-0.0811-0.019-0.0956v-0.6001l0.019-0.0956 0.0542-0.0811 0.0811-0.0542 0.0957-0.0191h0.6l0.0957 0.0191 0.0811 0.0542 0.0542 0.0811 0.019 0.0956v0.6001l-0.019 0.0956-0.0542 0.0811-0.0811 0.0542-0.0957 0.0191z"/>
   <path d="m71.505 33.048-0.0957-0.019-0.0811-0.0542-0.0542-0.0811-0.019-0.0957v-0.5999l0.019-0.0957 0.0542-0.0811 0.0811-0.0542 0.0957-0.0191h0.6l0.0957 0.0191 0.0811 0.0542 0.0542 0.0811 0.019 0.0957v0.5999l-0.019 0.0957-0.0542 0.0811-0.0811 0.0542-0.0957 0.019z"/>
   <path d="m71.505 30.248-0.0957-0.019-0.0811-0.0542-0.0542-0.0811-0.019-0.0957v-0.6l0.019-0.0956 0.0542-0.0811 0.0811-0.0542 0.0957-0.0191h0.6l0.0957 0.0191 0.0811 0.0542 0.0542 0.0811 0.019 0.0956v0.6l-0.019 0.0957-0.0542 0.0811-0.0811 0.0542-0.0957 0.019z"/>
   <path d="m14.355 33.048-0.0957-0.019-0.0811-0.0542-0.0542-0.0811-0.019-0.0957v-0.5999l0.019-0.0957 0.0542-0.0811 0.0811-0.0542 0.0957-0.0191h0.6l0.0957 0.0191 0.0811 0.0542 0.0542 0.0811 0.019 0.0957v0.5999l-0.019 0.0957-0.0542 0.0811-0.0811 0.0542-0.0957 0.019z"/>
   <path d="m14.355 30.248-0.0957-0.019-0.0811-0.0542-0.0542-0.0811-0.019-0.0957v-0.6l0.019-0.0956 0.0542-0.0811 0.0811-0.0542 0.0957-0.0191h0.6l0.0957 0.0191 0.0811 0.0542 0.0542 0.0811 0.019 0.0956v0.6l-0.019 0.0957-0.0542 0.0811-0.0811 0.0542-0.0957 0.019z"/>
  </g>
 </g>
 <g fill="none" stroke-linecap="round" stroke-linejoin="round">
  <g stroke="#50FA7B" stroke-width=".2">
   <path d="m9.755 5.5482-2.6 2.6"/>
   <path d="m16.575 5.5482h-6.82"/>
   <path d="m12.115 65.258 2.54 2.5399"/>
   <path d="m12.115 60.118v5.1401"/>
   <path d="m31.165 60.118v5.1401"/>
   <path d="m31.165 65.258 2.54 2.5399"/>
   <path d="m50.215 60.118v5.1401"/>
   <path d="m50.215 65.258 2.54 2.5399"/>
   <path d="m12.115 79.168v5.14"/>
   <path d="m12.115 84.308 2.54 2.5399"/>
   <path d="m31.165 84.308 2.54 2.5399"/>
   <path d="m31.165 79.168v5.14"/>
   <path d="m50.215 79.168v5.14"/>
   <path d="m50.215 84.308 2.54 2.5399"/>
   <path d="m69.265 93.833 2.54 2.54"/>
   <path d="m69.265 88.693v5.14"/>
   <path d="m21.64 103.36 2.54 2.54"/>
   <path d="m21.64 98.218v5.14"/>
   <path d="m50.215 103.36 2.54 2.54"/>
   <path d="m50.215 98.218v5.14"/>
   <path d="m12.115 27.158 2.54 2.54"/>
   <path d="m12.115 22.018v5.14"/>
   <path d="m31.165 27.158 2.54 2.54"/>
   <path d="m31.165 22.018v5.14"/>
   <path d="m50.215 27.158 2.54 2.54"/>
   <path d="m50.215 22.018v5.14"/>
   <path d="m69.265 22.018v5.14"/>
   <path d="m69.265 27.158 2.54 2.54"/>
   <path d="m12.115 41.068v5.14"/>
   <path d="m12.115 46.208 2.54 2.54"/>
   <path d="m31.165 41.068v5.14"/>
   <path d="m31.165 46.208 2.54 2.54"/>
   <path d="m50.215 41.068v5.14"/>
   <path d="m50.215 46.208 2.54 2.54"/>
   <path d="m69.265 50.593v5.14"/>
   <path d="m69.265 55.733 2.54 2.54"/>
   <path d="m33.705 32.498h19.05"/>
   <path d="m52.755 32.498h19.05"/>
   <path d="m14.655 32.498h19.05"/>
   <path d="m52.755 51.548 9.525 9.525"/>
   <path d="m14.655 51.548h19.05"/>
   <path d="m62.28 61.073h9.525"/>
   <path d="m33.705 51.548h19.05"/>
   <path d="m14.655 70.598h19.05"/>
   <path d="m33.705 70.598h19.05"/>
   <path d="m52.755 89.648 9.525 9.525"/>
   <path d="m14.655 89.648h19.05"/>
   <path d="m62.28 99.173h9.525"/>
   <path d="m33.705 89.648h19.05"/>
   <path d="m24.18 108.7h28.575"/>
  </g>
  <g stroke="#8BE9FD" stroke-width=".15">
   <text x="19.1000" y="101.7982" font-size="1.3333" opacity="0" stroke-opacity="0" text-anchor="middle" lengthAdjust="spacingAndGlyphs" textLength="3.8690">ST17</text>
   <g class="stroked-text">
    <desc>ST17</desc>
    <path d="m17.481 101.71 0.1428 0.0477"/>
    <path d="m17.624 101.75h0.2381"/>
    <path d="m17.862 101.75 0.0952-0.0477"/>
    <path d="m17.957 101.71 0.0477-0.0476"/>
    <path d="m18.005 101.66 0.0476-0.0952"/>
    <path d="m18.052 101.56v-0.0952"/>
    <path d="m18.052 101.47-0.0476-0.0953"/>
    <path d="m18.005 101.37-0.0477-0.0476"/>
    <path d="m17.957 101.32-0.0952-0.0476"/>
    <path d="m17.862 101.28-0.1905-0.0476"/>
    <path d="m17.671 101.23-0.0952-0.0477"/>
    <path d="m17.576 101.18-0.0476-0.0476"/>
    <path d="m17.529 101.13-0.0476-0.0952"/>
    <path d="m17.481 101.04v-0.0953"/>
    <path d="m17.481 100.94 0.0476-0.0952"/>
    <path d="m17.529 100.85 0.0476-0.0476"/>
    <path d="m17.576 100.8 0.0952-0.0476"/>
    <path d="m17.671 100.75h0.2381"/>
    <path d="m17.91 100.75 0.1429 0.0476"/>
    <path d="m18.338 100.75h0.5714"/>
    <path d="m18.624 101.75v-1"/>
    <path d="m19.767 101.75h-0.5715"/>
    <path d="m19.481 101.75v-1"/>
    <path d="m19.481 100.75-0.0953 0.1428"/>
    <path d="m19.386 100.9-0.0952 0.0953"/>
    <path d="m19.29 100.99-0.0953 0.0476"/>
    <path d="m20.1 100.75h0.6667"/>
    <path d="m20.767 100.75-0.4286 1"/>
   </g>
   <text x="66.7250" y="48.1732" font-size="1.3333" opacity="0" stroke-opacity="0" text-anchor="middle" lengthAdjust="spacingAndGlyphs" textLength="3.2976">SW9</text>
   <g class="stroked-text">
    <desc>SW9</desc>
    <path d="m65.392 48.08 0.1428 0.0477"/>
    <path d="m65.534 48.128h0.2381"/>
    <path d="m65.773 48.128 0.0953-0.0477"/>
    <path d="m65.868 48.08 0.0476-0.0476"/>
    <path d="m65.916 48.033 0.0476-0.0952"/>
    <path d="m65.963 47.938v-0.0952"/>
    <path d="m65.963 47.842-0.0476-0.0953"/>
    <path d="m65.916 47.747-0.0476-0.0476"/>
    <path d="m65.868 47.7-0.0953-0.0476"/>
    <path d="m65.773 47.652-0.1905-0.0476"/>
    <path d="m65.582 47.604-0.0952-0.0477"/>
    <path d="m65.487 47.557-0.0476-0.0476"/>
    <path d="m65.439 47.509-0.0476-0.0952"/>
    <path d="m65.392 47.414v-0.0953"/>
    <path d="m65.392 47.318 0.0476-0.0952"/>
    <path d="m65.439 47.223 0.0476-0.0476"/>
    <path d="m65.487 47.176 0.0952-0.0476"/>
    <path d="m65.582 47.128h0.2381"/>
    <path d="m65.82 47.128 0.1429 0.0476"/>
    <path d="m66.296 47.128 0.2381 1"/>
    <path d="m66.534 48.128 0.1905-0.7143"/>
    <path d="m66.725 47.414 0.1905 0.7143"/>
    <path d="m66.916 48.128 0.2381-1"/>
    <path d="m67.582 48.128h0.1905"/>
    <path d="m67.773 48.128 0.0953-0.0477"/>
    <path d="m67.868 48.08 0.0476-0.0476"/>
    <path d="m67.916 48.033 0.0952-0.1428"/>
    <path d="m68.011 47.89 0.0476-0.1905"/>
    <path d="m68.058 47.7v-0.381"/>
    <path d="m68.058 47.318-0.0476-0.0952"/>
    <path d="m68.011 47.223-0.0476-0.0476"/>
    <path d="m67.963 47.176-0.0952-0.0476"/>
    <path d="m67.868 47.128h-0.1905"/>
    <path d="m67.677 47.128-0.0953 0.0476"/>
    <path d="m67.582 47.176-0.0476 0.0476"/>
    <path d="m67.534 47.223-0.0476 0.0952"/>
    <path d="m67.487 47.318v0.2381"/>
    <path d="m67.487 47.557 0.0476 0.0953"/>
    <path d="m67.534 47.652 0.0476 0.0476"/>
    <path d="m67.582 47.7 0.0953 0.0476"/>
    <path d="m67.677 47.747h0.1905"/>
    <path d="m67.868 47.747 0.0952-0.0476"/>
    <path d="m67.963 47.7 0.0476-0.0476"/>
    <path d="m68.011 47.652 0.0476-0.0953"/>
   </g>
   <text x="9.5750" y="76.7482" font-size="1.3333" opacity="0" stroke-opacity="0" text-anchor="middle" lengthAdjust="spacingAndGlyphs" textLength="4.2500">SW13</text>
   <g class="stroked-text">
    <desc>SW13</desc>
    <path d="m7.7655 76.656 0.1428 0.0476"/>
    <path d="m7.9083 76.703h0.2381"/>
    <path d="m8.1464 76.703 0.0953-0.0476"/>
    <path d="m8.2417 76.656 0.0476-0.0477"/>
    <path d="m8.2893 76.608 0.0476-0.0952"/>
    <path d="m8.3369 76.513v-0.0952"/>
    <path d="m8.3369 76.417-0.0476-0.0953"/>
    <path d="m8.2893 76.322-0.0476-0.0476"/>
    <path d="m8.2417 76.274-0.0953-0.0476"/>
    <path d="m8.1464 76.227-0.1904-0.0476"/>
    <path d="m7.956 76.179-0.0953-0.0477"/>
    <path d="m7.8607 76.132-0.0476-0.0476"/>
    <path d="m7.8131 76.084-0.0476-0.0952"/>
    <path d="m7.7655 75.989v-0.0953"/>
    <path d="m7.7655 75.894 0.0476-0.0952"/>
    <path d="m7.8131 75.798 0.0476-0.0476"/>
    <path d="m7.8607 75.751 0.0953-0.0476"/>
    <path d="m7.956 75.703h0.238"/>
    <path d="m8.194 75.703 0.1429 0.0476"/>
    <path d="m8.6702 75.703 0.2381 1"/>
    <path d="m8.9083 76.703 0.1905-0.7143"/>
    <path d="m9.0988 75.989 0.1905 0.7143"/>
    <path d="m9.2893 76.703 0.2381-1"/>
    <path d="m10.432 76.703h-0.5714"/>
    <path d="m10.146 76.703v-1"/>
    <path d="m10.146 75.703-0.0952 0.1428"/>
    <path d="m10.051 75.846-0.0952 0.0953"/>
    <path d="m9.956 75.941-0.0953 0.0476"/>
    <path d="m10.766 75.703h0.619"/>
    <path d="m11.384 75.703-0.3333 0.3809"/>
    <path d="m11.051 76.084h0.1428"/>
    <path d="m11.194 76.084 0.0953 0.0476"/>
    <path d="m11.289 76.132 0.0476 0.0477"/>
    <path d="m11.337 76.179 0.0476 0.0952"/>
    <path d="m11.384 76.274v0.2381"/>
    <path d="m11.384 76.513-0.0476 0.0952"/>
    <path d="m11.337 76.608-0.0476 0.0477"/>
    <path d="m11.289 76.656-0.0953 0.0476"/>
    <path d="m11.194 76.703h-0.2857"/>
    <path d="m10.908 76.703-0.0952-0.0476"/>
    <path d="m10.813 76.656-0.0476-0.0477"/>
   </g>
   <text x="19.1000" y="95.7982" font-size="1.3333" opacity="0" stroke-opacity="0" text-anchor="middle" lengthAdjust="spacingAndGlyphs" textLength="4.2500">SW17</text>
   <g class="stroked-text">
    <desc>SW17</desc>
    <path d="m17.29 95.705 0.1428 0.0477"/>
    <path d="m17.433 95.753h0.2381"/>
    <path d="m17.671 95.753 0.0953-0.0477"/>
    <path d="m17.767 95.705 0.0476-0.0476"/>
    <path d="m17.814 95.658 0.0476-0.0952"/>
    <path d="m17.862 95.563v-0.0952"/>
    <path d="m17.862 95.467-0.0476-0.0953"/>
    <path d="m17.814 95.372-0.0476-0.0476"/>
    <path d="m17.767 95.324-0.0953-0.0476"/>
    <path d="m17.671 95.277-0.1904-0.0476"/>
    <path d="m17.481 95.229-0.0953-0.0477"/>
    <path d="m17.386 95.182-0.0476-0.0476"/>
    <path d="m17.338 95.134-0.0476-0.0952"/>
    <path d="m17.29 95.039v-0.0953"/>
    <path d="m17.29 94.944 0.0476-0.0952"/>
    <path d="m17.338 94.848 0.0476-0.0476"/>
    <path d="m17.386 94.801 0.0953-0.0476"/>
    <path d="m17.481 94.753h0.238"/>
    <path d="m17.719 94.753 0.1429 0.0476"/>
    <path d="m18.195 94.753 0.2381 1"/>
    <path d="m18.433 95.753 0.1905-0.7143"/>
    <path d="m18.624 95.039 0.1905 0.7143"/>
    <path d="m18.814 95.753 0.2381-1"/>
    <path d="m19.957 95.753h-0.5714"/>
    <path d="m19.671 95.753v-1"/>
    <path d="m19.671 94.753-0.0952 0.1428"/>
    <path d="m19.576 94.896-0.0952 0.0953"/>
    <path d="m19.481 94.991-0.0953 0.0476"/>
    <path d="m20.29 94.753h0.6666"/>
    <path d="m20.957 94.753-0.4285 1"/>
   </g>
   <g transform="rotate(-90 68.725 55.673)">
    <text x="68.7250" y="56.1732" font-size="1.3333" opacity="0" stroke-opacity="0" text-anchor="middle" lengthAdjust="spacingAndGlyphs" textLength="2.9167">ST9</text>
   </g>
   <g class="stroked-text">
    <desc>ST9</desc>
    <path d="m69.132 56.816 0.0476-0.1429"/>
    <path d="m69.18 56.673v-0.238"/>
    <path d="m69.18 56.435-0.0476-0.0953"/>
    <path d="m69.132 56.34-0.0476-0.0476"/>
    <path d="m69.085 56.292-0.0953-0.0476"/>
    <path d="m68.989 56.245h-0.0952"/>
    <path d="m68.894 56.245-0.0952 0.0476"/>
    <path d="m68.799 56.292-0.0477 0.0476"/>
    <path d="m68.751 56.34-0.0476 0.0953"/>
    <path d="m68.704 56.435-0.0476 0.1904"/>
    <path d="m68.656 56.626-0.0476 0.0953"/>
    <path d="m68.608 56.721-0.0476 0.0476"/>
    <path d="m68.561 56.768-0.0953 0.0476"/>
    <path d="m68.466 56.816h-0.0952"/>
    <path d="m68.37 56.816-0.0952-0.0476"/>
    <path d="m68.275 56.768-0.0477-0.0476"/>
    <path d="m68.227 56.721-0.0476-0.0953"/>
    <path d="m68.18 56.626v-0.2381"/>
    <path d="m68.18 56.388 0.0476-0.1428"/>
    <path d="m68.18 55.959v-0.5715"/>
    <path d="m69.18 55.673h-1"/>
    <path d="m69.18 55.007v-0.1905"/>
    <path d="m69.18 54.816-0.0476-0.0952"/>
    <path d="m69.132 54.721-0.0476-0.0477"/>
    <path d="m69.085 54.673-0.1429-0.0952"/>
    <path d="m68.942 54.578-0.1905-0.0476"/>
    <path d="m68.751 54.53h-0.3809"/>
    <path d="m68.37 54.53-0.0952 0.0476"/>
    <path d="m68.275 54.578-0.0477 0.0476"/>
    <path d="m68.227 54.626-0.0476 0.0953"/>
    <path d="m68.18 54.721v0.1904"/>
    <path d="m68.18 54.911 0.0476 0.0953"/>
    <path d="m68.227 55.007 0.0477 0.0476"/>
    <path d="m68.275 55.054 0.0952 0.0476"/>
    <path d="m68.37 55.102h0.2381"/>
    <path d="m68.608 55.102 0.0952-0.0476"/>
    <path d="m68.704 55.054 0.0476-0.0476"/>
    <path d="m68.751 55.007 0.0477-0.0953"/>
    <path d="m68.799 54.911v-0.1904"/>
    <path d="m68.799 54.721-0.0477-0.0953"/>
    <path d="m68.751 54.626-0.0476-0.0476"/>
    <path d="m68.704 54.578-0.0952-0.0476"/>
   </g>
   <text x="28.6250" y="19.5983" font-size="1.3333" opacity="0" stroke-opacity="0" text-anchor="middle" lengthAdjust="spacingAndGlyphs" textLength="3.2976">SW3</text>
   <g class="stroked-text">
    <desc>SW3</desc>
    <path d="m27.292 19.505 0.1428 0.0477"/>
    <path d="m27.434 19.553h0.2381"/>
    <path d="m27.673 19.553 0.0953-0.0477"/>
    <path d="m27.768 19.505 0.0476-0.0476"/>
    <path d="m27.816 19.458 0.0476-0.0952"/>
    <path d="m27.863 19.363v-0.0952"/>
    <path d="m27.863 19.267-0.0476-0.0953"/>
    <path d="m27.816 19.172-0.0476-0.0476"/>
    <path d="m27.768 19.124-0.0953-0.0476"/>
    <path d="m27.673 19.077-0.1905-0.0476"/>
    <path d="m27.482 19.029-0.0952-0.0477"/>
    <path d="m27.387 18.982-0.0476-0.0476"/>
    <path d="m27.339 18.934-0.0476-0.0952"/>
    <path d="m27.292 18.839v-0.0953"/>
    <path d="m27.292 18.744 0.0476-0.0952"/>
    <path d="m27.339 18.648 0.0476-0.0476"/>
    <path d="m27.387 18.601 0.0952-0.0476"/>
    <path d="m27.482 18.553h0.2381"/>
    <path d="m27.72 18.553 0.1429 0.0476"/>
    <path d="m28.196 18.553 0.2381 1"/>
    <path d="m28.434 19.553 0.1905-0.7143"/>
    <path d="m28.625 18.839 0.1905 0.7143"/>
    <path d="m28.816 19.553 0.2381-1"/>
    <path d="m29.339 18.553h0.619"/>
    <path d="m29.958 18.553-0.3333 0.3809"/>
    <path d="m29.625 18.934h0.1429"/>
    <path d="m29.768 18.934 0.0952 0.0476"/>
    <path d="m29.863 18.982 0.0476 0.0477"/>
    <path d="m29.911 19.029 0.0476 0.0952"/>
    <path d="m29.958 19.124v0.2381"/>
    <path d="m29.958 19.363-0.0476 0.0952"/>
    <path d="m29.911 19.458-0.0476 0.0476"/>
    <path d="m29.863 19.505-0.0952 0.0477"/>
    <path d="m29.768 19.553h-0.2858"/>
    <path d="m29.482 19.553-0.0952-0.0477"/>
    <path d="m29.387 19.505-0.0476-0.0476"/>
   </g>
   <text x="47.6750" y="38.6482" font-size="1.3333" opacity="0" stroke-opacity="0" text-anchor="middle" lengthAdjust="spacingAndGlyphs" textLength="3.2976">SW8</text>
   <g class="stroked-text">
    <desc>SW8</desc>
    <path d="m46.342 38.556 0.1428 0.0476"/>
    <path d="m46.484 38.603h0.2381"/>
    <path d="m46.723 38.603 0.0953-0.0476"/>
    <path d="m46.818 38.556 0.0476-0.0477"/>
    <path d="m46.866 38.508 0.0476-0.0952"/>
    <path d="m46.913 38.413v-0.0952"/>
    <path d="m46.913 38.317-0.0476-0.0953"/>
    <path d="m46.866 38.222-0.0476-0.0476"/>
    <path d="m46.818 38.174-0.0953-0.0476"/>
    <path d="m46.723 38.127-0.1905-0.0476"/>
    <path d="m46.532 38.079-0.0952-0.0477"/>
    <path d="m46.437 38.032-0.0476-0.0476"/>
    <path d="m46.389 37.984-0.0476-0.0952"/>
    <path d="m46.342 37.889v-0.0953"/>
    <path d="m46.342 37.794 0.0476-0.0952"/>
    <path d="m46.389 37.698 0.0476-0.0476"/>
    <path d="m46.437 37.651 0.0952-0.0476"/>
    <path d="m46.532 37.603h0.2381"/>
    <path d="m46.77 37.603 0.1429 0.0476"/>
    <path d="m47.246 37.603 0.2381 1"/>
    <path d="m47.484 38.603 0.1905-0.7143"/>
    <path d="m47.675 37.889 0.1905 0.7143"/>
    <path d="m47.866 38.603 0.2381-1"/>
    <path d="m48.627 38.032-0.0953-0.0476"/>
    <path d="m48.532 37.984-0.0476-0.0476"/>
    <path d="m48.484 37.936-0.0476-0.0952"/>
    <path d="m48.437 37.841v-0.0477"/>
    <path d="m48.437 37.794 0.0476-0.0952"/>
    <path d="m48.484 37.698 0.0476-0.0476"/>
    <path d="m48.532 37.651 0.0953-0.0476"/>
    <path d="m48.627 37.603h0.1905"/>
    <path d="m48.818 37.603 0.0952 0.0476"/>
    <path d="m48.913 37.651 0.0476 0.0476"/>
    <path d="m48.961 37.698 0.0476 0.0952"/>
    <path d="m49.008 37.794v0.0477"/>
    <path d="m49.008 37.841-0.0476 0.0952"/>
    <path d="m48.961 37.936-0.0476 0.0476"/>
    <path d="m48.913 37.984-0.0952 0.0476"/>
    <path d="m48.818 38.032h-0.1905"/>
    <path d="m48.627 38.032-0.0953 0.0477"/>
    <path d="m48.532 38.079-0.0476 0.0476"/>
    <path d="m48.484 38.127-0.0476 0.0952"/>
    <path d="m48.437 38.222v0.1905"/>
    <path d="m48.437 38.413 0.0476 0.0952"/>
    <path d="m48.484 38.508 0.0476 0.0477"/>
    <path d="m48.532 38.556 0.0953 0.0476"/>
    <path d="m48.627 38.603h0.1905"/>
    <path d="m48.818 38.603 0.0952-0.0476"/>
    <path d="m48.913 38.556 0.0476-0.0477"/>
    <path d="m48.961 38.508 0.0476-0.0952"/>
    <path d="m49.008 38.413v-0.1905"/>
    <path d="m49.008 38.222-0.0476-0.0952"/>
    <path d="m48.961 38.127-0.0476-0.0476"/>
    <path d="m48.913 38.079-0.0952-0.0477"/>
   </g>
   <text x="47.6750" y="57.6982" font-size="1.3333" opacity="0" stroke-opacity="0" text-anchor="middle" lengthAdjust="spacingAndGlyphs" textLength="4.2500">SW12</text>
   <g class="stroked-text">
    <desc>SW12</desc>
    <path d="m45.866 57.605 0.1428 0.0477"/>
    <path d="m46.008 57.653h0.2381"/>
    <path d="m46.246 57.653 0.0953-0.0477"/>
    <path d="m46.342 57.605 0.0476-0.0476"/>
    <path d="m46.389 57.558 0.0476-0.0952"/>
    <path d="m46.437 57.463v-0.0952"/>
    <path d="m46.437 57.367-0.0476-0.0953"/>
    <path d="m46.389 57.272-0.0476-0.0476"/>
    <path d="m46.342 57.224-0.0953-0.0476"/>
    <path d="m46.246 57.177-0.1904-0.0476"/>
    <path d="m46.056 57.129-0.0953-0.0477"/>
    <path d="m45.961 57.082-0.0476-0.0476"/>
    <path d="m45.913 57.034-0.0476-0.0952"/>
    <path d="m45.866 56.939v-0.0953"/>
    <path d="m45.866 56.844 0.0476-0.0952"/>
    <path d="m45.913 56.748 0.0476-0.0476"/>
    <path d="m45.961 56.701 0.0953-0.0476"/>
    <path d="m46.056 56.653h0.238"/>
    <path d="m46.294 56.653 0.1429 0.0476"/>
    <path d="m46.77 56.653 0.2381 1"/>
    <path d="m47.008 57.653 0.1905-0.7143"/>
    <path d="m47.199 56.939 0.1905 0.7143"/>
    <path d="m47.389 57.653 0.2381-1"/>
    <path d="m48.532 57.653h-0.5714"/>
    <path d="m48.246 57.653v-1"/>
    <path d="m48.246 56.653-0.0952 0.1428"/>
    <path d="m48.151 56.796-0.0952 0.0953"/>
    <path d="m48.056 56.891-0.0953 0.0476"/>
    <path d="m48.913 56.748 0.0476-0.0476"/>
    <path d="m48.961 56.701 0.0953-0.0476"/>
    <path d="m49.056 56.653h0.238"/>
    <path d="m49.294 56.653 0.0953 0.0476"/>
    <path d="m49.389 56.701 0.0476 0.0476"/>
    <path d="m49.437 56.748 0.0476 0.0952"/>
    <path d="m49.484 56.844v0.0953"/>
    <path d="m49.484 56.939-0.0476 0.1428"/>
    <path d="m49.437 57.082-0.5714 0.5715"/>
    <path d="m48.866 57.653h0.619"/>
   </g>
   <text x="66.7250" y="19.5983" font-size="1.3333" opacity="0" stroke-opacity="0" text-anchor="middle" lengthAdjust="spacingAndGlyphs" textLength="3.2976">SW5</text>
   <g class="stroked-text">
    <desc>SW5</desc>
    <path d="m65.392 19.505 0.1428 0.0477"/>
    <path d="m65.534 19.553h0.2381"/>
    <path d="m65.773 19.553 0.0953-0.0477"/>
    <path d="m65.868 19.505 0.0476-0.0476"/>
    <path d="m65.916 19.458 0.0476-0.0952"/>
    <path d="m65.963 19.363v-0.0952"/>
    <path d="m65.963 19.267-0.0476-0.0953"/>
    <path d="m65.916 19.172-0.0476-0.0476"/>
    <path d="m65.868 19.124-0.0953-0.0476"/>
    <path d="m65.773 19.077-0.1905-0.0476"/>
    <path d="m65.582 19.029-0.0952-0.0477"/>
    <path d="m65.487 18.982-0.0476-0.0476"/>
    <path d="m65.439 18.934-0.0476-0.0952"/>
    <path d="m65.392 18.839v-0.0953"/>
    <path d="m65.392 18.744 0.0476-0.0952"/>
    <path d="m65.439 18.648 0.0476-0.0476"/>
    <path d="m65.487 18.601 0.0952-0.0476"/>
    <path d="m65.582 18.553h0.2381"/>
    <path d="m65.82 18.553 0.1429 0.0476"/>
    <path d="m66.296 18.553 0.2381 1"/>
    <path d="m66.534 19.553 0.1905-0.7143"/>
    <path d="m66.725 18.839 0.1905 0.7143"/>
    <path d="m66.916 19.553 0.2381-1"/>
    <path d="m68.011 18.553h-0.4762"/>
    <path d="m67.534 18.553-0.0476 0.4762"/>
    <path d="m67.487 19.029 0.0476-0.0477"/>
    <path d="m67.534 18.982 0.0953-0.0476"/>
    <path d="m67.63 18.934h0.2381"/>
    <path d="m67.868 18.934 0.0952 0.0476"/>
    <path d="m67.963 18.982 0.0476 0.0477"/>
    <path d="m68.011 19.029 0.0476 0.0952"/>
    <path d="m68.058 19.124v0.2381"/>
    <path d="m68.058 19.363-0.0476 0.0952"/>
    <path d="m68.011 19.458-0.0476 0.0476"/>
    <path d="m67.963 19.505-0.0952 0.0477"/>
    <path d="m67.868 19.553h-0.2381"/>
    <path d="m67.63 19.553-0.0953-0.0477"/>
    <path d="m67.534 19.505-0.0476-0.0476"/>
   </g>
   <text x="47.6750" y="76.7482" font-size="1.3333" opacity="0" stroke-opacity="0" text-anchor="middle" lengthAdjust="spacingAndGlyphs" textLength="4.2500">SW15</text>
   <g class="stroked-text">
    <desc>SW15</desc>
    <path d="m45.866 76.656 0.1428 0.0476"/>
    <path d="m46.008 76.703h0.2381"/>
    <path d="m46.246 76.703 0.0953-0.0476"/>
    <path d="m46.342 76.656 0.0476-0.0477"/>
    <path d="m46.389 76.608 0.0476-0.0952"/>
    <path d="m46.437 76.513v-0.0952"/>
    <path d="m46.437 76.417-0.0476-0.0953"/>
    <path d="m46.389 76.322-0.0476-0.0476"/>
    <path d="m46.342 76.274-0.0953-0.0476"/>
    <path d="m46.246 76.227-0.1904-0.0476"/>
    <path d="m46.056 76.179-0.0953-0.0477"/>
    <path d="m45.961 76.132-0.0476-0.0476"/>
    <path d="m45.913 76.084-0.0476-0.0952"/>
    <path d="m45.866 75.989v-0.0953"/>
    <path d="m45.866 75.894 0.0476-0.0952"/>
    <path d="m45.913 75.798 0.0476-0.0476"/>
    <path d="m45.961 75.751 0.0953-0.0476"/>
    <path d="m46.056 75.703h0.238"/>
    <path d="m46.294 75.703 0.1429 0.0476"/>
    <path d="m46.77 75.703 0.2381 1"/>
    <path d="m47.008 76.703 0.1905-0.7143"/>
    <path d="m47.199 75.989 0.1905 0.7143"/>
    <path d="m47.389 76.703 0.2381-1"/>
    <path d="m48.532 76.703h-0.5714"/>
    <path d="m48.246 76.703v-1"/>
    <path d="m48.246 75.703-0.0952 0.1428"/>
    <path d="m48.151 75.846-0.0952 0.0953"/>
    <path d="m48.056 75.941-0.0953 0.0476"/>
    <path d="m49.437 75.703h-0.4762"/>
    <path d="m48.961 75.703-0.0476 0.4762"/>
    <path d="m48.913 76.179 0.0476-0.0477"/>
    <path d="m48.961 76.132 0.0953-0.0476"/>
    <path d="m49.056 76.084h0.238"/>
    <path d="m49.294 76.084 0.0953 0.0476"/>
    <path d="m49.389 76.132 0.0476 0.0477"/>
    <path d="m49.437 76.179 0.0476 0.0952"/>
    <path d="m49.484 76.274v0.2381"/>
    <path d="m49.484 76.513-0.0476 0.0952"/>
    <path d="m49.437 76.608-0.0476 0.0477"/>
    <path d="m49.389 76.656-0.0953 0.0476"/>
    <path d="m49.294 76.703h-0.238"/>
    <path d="m49.056 76.703-0.0953-0.0476"/>
    <path d="m48.961 76.656-0.0476-0.0477"/>
   </g>
   <text x="66.7250" y="86.2732" font-size="1.3333" opacity="0" stroke-opacity="0" text-anchor="middle" lengthAdjust="spacingAndGlyphs" textLength="4.2500">SW16</text>
   <g class="stroked-text">
    <desc>SW16</desc>
    <path d="m64.916 86.18 0.1428 0.0477"/>
    <path d="m65.058 86.228h0.2381"/>
    <path d="m65.296 86.228 0.0953-0.0477"/>
    <path d="m65.392 86.18 0.0476-0.0476"/>
    <path d="m65.439 86.133 0.0476-0.0952"/>
    <path d="m65.487 86.038v-0.0952"/>
    <path d="m65.487 85.942-0.0476-0.0953"/>
    <path d="m65.439 85.847-0.0476-0.0476"/>
    <path d="m65.392 85.8-0.0953-0.0476"/>
    <path d="m65.296 85.752-0.1904-0.0476"/>
    <path d="m65.106 85.704-0.0953-0.0477"/>
    <path d="m65.011 85.657-0.0476-0.0476"/>
    <path d="m64.963 85.609-0.0476-0.0952"/>
    <path d="m64.916 85.514v-0.0953"/>
    <path d="m64.916 85.418 0.0476-0.0952"/>
    <path d="m64.963 85.323 0.0476-0.0476"/>
    <path d="m65.011 85.276 0.0953-0.0476"/>
    <path d="m65.106 85.228h0.238"/>
    <path d="m65.344 85.228 0.1429 0.0476"/>
    <path d="m65.82 85.228 0.2381 1"/>
    <path d="m66.058 86.228 0.1905-0.7143"/>
    <path d="m66.249 85.514 0.1905 0.7143"/>
    <path d="m66.439 86.228 0.2381-1"/>
    <path d="m67.582 86.228h-0.5714"/>
    <path d="m67.296 86.228v-1"/>
    <path d="m67.296 85.228-0.0952 0.1428"/>
    <path d="m67.201 85.371-0.0952 0.0953"/>
    <path d="m67.106 85.466-0.0953 0.0476"/>
    <path d="m68.439 85.228h-0.1905"/>
    <path d="m68.249 85.228-0.0952 0.0476"/>
    <path d="m68.154 85.276-0.0476 0.0476"/>
    <path d="m68.106 85.323-0.0953 0.1429"/>
    <path d="m68.011 85.466-0.0476 0.1904"/>
    <path d="m67.963 85.657v0.381"/>
    <path d="m67.963 86.038 0.0476 0.0952"/>
    <path d="m68.011 86.133 0.0476 0.0476"/>
    <path d="m68.058 86.18 0.0953 0.0477"/>
    <path d="m68.154 86.228h0.1904"/>
    <path d="m68.344 86.228 0.0953-0.0477"/>
    <path d="m68.439 86.18 0.0476-0.0476"/>
    <path d="m68.487 86.133 0.0476-0.0952"/>
    <path d="m68.534 86.038v-0.2381"/>
    <path d="m68.534 85.8-0.0476-0.0952"/>
    <path d="m68.487 85.704-0.0476-0.0477"/>
    <path d="m68.439 85.657-0.0953-0.0476"/>
    <path d="m68.344 85.609h-0.1904"/>
    <path d="m68.154 85.609-0.0953 0.0476"/>
    <path d="m68.058 85.657-0.0476 0.0477"/>
    <path d="m68.011 85.704-0.0476 0.0952"/>
   </g>
   <text x="47.6750" y="19.5983" font-size="1.3333" opacity="0" stroke-opacity="0" text-anchor="middle" lengthAdjust="spacingAndGlyphs" textLength="3.2976">SW4</text>
   <g class="stroked-text">
    <desc>SW4</desc>
    <path d="m46.342 19.505 0.1428 0.0477"/>
    <path d="m46.484 19.553h0.2381"/>
    <path d="m46.723 19.553 0.0953-0.0477"/>
    <path d="m46.818 19.505 0.0476-0.0476"/>
    <path d="m46.866 19.458 0.0476-0.0952"/>
    <path d="m46.913 19.363v-0.0952"/>
    <path d="m46.913 19.267-0.0476-0.0953"/>
    <path d="m46.866 19.172-0.0476-0.0476"/>
    <path d="m46.818 19.124-0.0953-0.0476"/>
    <path d="m46.723 19.077-0.1905-0.0476"/>
    <path d="m46.532 19.029-0.0952-0.0477"/>
    <path d="m46.437 18.982-0.0476-0.0476"/>
    <path d="m46.389 18.934-0.0476-0.0952"/>
    <path d="m46.342 18.839v-0.0953"/>
    <path d="m46.342 18.744 0.0476-0.0952"/>
    <path d="m46.389 18.648 0.0476-0.0476"/>
    <path d="m46.437 18.601 0.0952-0.0476"/>
    <path d="m46.532 18.553h0.2381"/>
    <path d="m46.77 18.553 0.1429 0.0476"/>
    <path d="m47.246 18.553 0.2381 1"/>
    <path d="m47.484 19.553 0.1905-0.7143"/>
    <path d="m47.675 18.839 0.1905 0.7143"/>
    <path d="m47.866 19.553 0.2381-1"/>
    <path d="m48.913 18.886v0.6667"/>
    <path d="m48.675 18.505-0.2381 0.7143"/>
    <path d="m48.437 19.22h0.6191"/>
   </g>
   <text x="4.8750" y="1.3482" font-size="1.3333" opacity="0" stroke-opacity="0" text-anchor="middle" lengthAdjust="spacingAndGlyphs" textLength="3.2976">SW1</text>
   <g class="stroked-text">
    <desc>SW1</desc>
    <path d="m3.5417 1.2554 0.1428 0.0477"/>
    <path d="m3.6845 1.3031h0.2381"/>
    <path d="m3.9226 1.3031 0.0953-0.0477"/>
    <path d="m4.0179 1.2554 0.0476-0.0476"/>
    <path d="m4.0655 1.2078 0.0476-0.0952"/>
    <path d="m4.1131 1.1126v-0.0952"/>
    <path d="m4.1131 1.0174-0.0476-0.0953"/>
    <path d="m4.0655 0.9221-0.0476-0.0476"/>
    <path d="m4.0179 0.8745-0.0953-0.0476"/>
    <path d="m3.9226 0.8269-0.1905-0.0476"/>
    <path d="m3.7321 0.7793-0.0952-0.0477"/>
    <path d="m3.6369 0.7316-0.0476-0.0476"/>
    <path d="m3.5893 0.684-0.0476-0.0952"/>
    <path d="m3.5417 0.5888v-0.0953"/>
    <path d="m3.5417 0.4935 0.0476-0.0952"/>
    <path d="m3.5893 0.3983 0.0476-0.0476"/>
    <path d="m3.6369 0.3507 0.0952-0.0476"/>
    <path d="m3.7321 0.3031h0.2381"/>
    <path d="m3.9702 0.3031 0.1429 0.0476"/>
    <path d="m4.4464 0.3031 0.2381 1"/>
    <path d="m4.6845 1.3031 0.1905-0.7143"/>
    <path d="m4.875 0.5888 0.1905 0.7143"/>
    <path d="m5.0655 1.3031 0.2381-1"/>
    <path d="m6.2083 1.3031h-0.5714"/>
    <path d="m5.9226 1.3031v-1"/>
    <path d="m5.9226 0.3031-0.0952 0.1428"/>
    <path d="m5.8274 0.4459-0.0953 0.0953"/>
    <path d="m5.7321 0.5412-0.0952 0.0476"/>
   </g>
   <text x="28.6250" y="57.6982" font-size="1.3333" opacity="0" stroke-opacity="0" text-anchor="middle" lengthAdjust="spacingAndGlyphs" textLength="4.2500">SW11</text>
   <g class="stroked-text">
    <desc>SW11</desc>
    <path d="m26.816 57.605 0.1428 0.0477"/>
    <path d="m26.958 57.653h0.2381"/>
    <path d="m27.196 57.653 0.0953-0.0477"/>
    <path d="m27.292 57.605 0.0476-0.0476"/>
    <path d="m27.339 57.558 0.0476-0.0952"/>
    <path d="m27.387 57.463v-0.0952"/>
    <path d="m27.387 57.367-0.0476-0.0953"/>
    <path d="m27.339 57.272-0.0476-0.0476"/>
    <path d="m27.292 57.224-0.0953-0.0476"/>
    <path d="m27.196 57.177-0.1904-0.0476"/>
    <path d="m27.006 57.129-0.0953-0.0477"/>
    <path d="m26.911 57.082-0.0476-0.0476"/>
    <path d="m26.863 57.034-0.0476-0.0952"/>
    <path d="m26.816 56.939v-0.0953"/>
    <path d="m26.816 56.844 0.0476-0.0952"/>
    <path d="m26.863 56.748 0.0476-0.0476"/>
    <path d="m26.911 56.701 0.0953-0.0476"/>
    <path d="m27.006 56.653h0.238"/>
    <path d="m27.244 56.653 0.1429 0.0476"/>
    <path d="m27.72 56.653 0.2381 1"/>
    <path d="m27.958 57.653 0.1905-0.7143"/>
    <path d="m28.149 56.939 0.1905 0.7143"/>
    <path d="m28.339 57.653 0.2381-1"/>
    <path d="m29.482 57.653h-0.5714"/>
    <path d="m29.196 57.653v-1"/>
    <path d="m29.196 56.653-0.0952 0.1428"/>
    <path d="m29.101 56.796-0.0952 0.0953"/>
    <path d="m29.006 56.891-0.0953 0.0476"/>
    <path d="m30.434 57.653h-0.5714"/>
    <path d="m30.149 57.653v-1"/>
    <path d="m30.149 56.653-0.0952 0.1428"/>
    <path d="m30.054 56.796-0.0953 0.0953"/>
    <path d="m29.958 56.891-0.0952 0.0476"/>
   </g>
   <text x="9.5750" y="57.6982" font-size="1.3333" opacity="0" stroke-opacity="0" text-anchor="middle" lengthAdjust="spacingAndGlyphs" textLength="4.2500">SW10</text>
   <g class="stroked-text">
    <desc>SW10</desc>
    <path d="m7.7655 57.605 0.1428 0.0477"/>
    <path d="m7.9083 57.653h0.2381"/>
    <path d="m8.1464 57.653 0.0953-0.0477"/>
    <path d="m8.2417 57.605 0.0476-0.0476"/>
    <path d="m8.2893 57.558 0.0476-0.0952"/>
    <path d="m8.3369 57.463v-0.0952"/>
    <path d="m8.3369 57.367-0.0476-0.0953"/>
    <path d="m8.2893 57.272-0.0476-0.0476"/>
    <path d="m8.2417 57.224-0.0953-0.0476"/>
    <path d="m8.1464 57.177-0.1904-0.0476"/>
    <path d="m7.956 57.129-0.0953-0.0477"/>
    <path d="m7.8607 57.082-0.0476-0.0476"/>
    <path d="m7.8131 57.034-0.0476-0.0952"/>
    <path d="m7.7655 56.939v-0.0953"/>
    <path d="m7.7655 56.844 0.0476-0.0952"/>
    <path d="m7.8131 56.748 0.0476-0.0476"/>
    <path d="m7.8607 56.701 0.0953-0.0476"/>
    <path d="m7.956 56.653h0.238"/>
    <path d="m8.194 56.653 0.1429 0.0476"/>
    <path d="m8.6702 56.653 0.2381 1"/>
    <path d="m8.9083 57.653 0.1905-0.7143"/>
    <path d="m9.0988 56.939 0.1905 0.7143"/>
    <path d="m9.2893 57.653 0.2381-1"/>
    <path d="m10.432 57.653h-0.5714"/>
    <path d="m10.146 57.653v-1"/>
    <path d="m10.146 56.653-0.0952 0.1428"/>
    <path d="m10.051 56.796-0.0952 0.0953"/>
    <path d="m9.956 56.891-0.0953 0.0476"/>
    <path d="m11.051 56.653h0.0952"/>
    <path d="m11.146 56.653 0.0953 0.0476"/>
    <path d="m11.242 56.701 0.0476 0.0476"/>
    <path d="m11.289 56.748 0.0476 0.0952"/>
    <path d="m11.337 56.844 0.0476 0.1905"/>
    <path d="m11.384 57.034v0.2381"/>
    <path d="m11.384 57.272-0.0476 0.1905"/>
    <path d="m11.337 57.463-0.0476 0.0952"/>
    <path d="m11.289 57.558-0.0476 0.0476"/>
    <path d="m11.242 57.605-0.0953 0.0477"/>
    <path d="m11.146 57.653h-0.0952"/>
    <path d="m11.051 57.653-0.0952-0.0477"/>
    <path d="m10.956 57.605-0.0477-0.0476"/>
    <path d="m10.908 57.558-0.0476-0.0952"/>
    <path d="m10.861 57.463-0.0476-0.1905"/>
    <path d="m10.813 57.272v-0.2381"/>
    <path d="m10.813 57.034 0.0476-0.1905"/>
    <path d="m10.861 56.844 0.0476-0.0952"/>
    <path d="m10.908 56.748 0.0477-0.0476"/>
    <path d="m10.956 56.701 0.0952-0.0476"/>
   </g>
   <g transform="rotate(-90 68.725 93.773)">
    <text x="68.7250" y="94.2732" font-size="1.3333" opacity="0" stroke-opacity="0" text-anchor="middle" lengthAdjust="spacingAndGlyphs" textLength="3.8690">ST16</text>
   </g>
   <g class="stroked-text">
    <desc>ST16</desc>
    <path d="m69.132 95.392 0.0476-0.1429"/>
    <path d="m69.18 95.249v-0.2381"/>
    <path d="m69.18 95.011-0.0476-0.0952"/>
    <path d="m69.132 94.916-0.0476-0.0476"/>
    <path d="m69.085 94.868-0.0953-0.0476"/>
    <path d="m68.989 94.821h-0.0952"/>
    <path d="m68.894 94.821-0.0952 0.0476"/>
    <path d="m68.799 94.868-0.0477 0.0476"/>
    <path d="m68.751 94.916-0.0476 0.0952"/>
    <path d="m68.704 95.011-0.0476 0.1905"/>
    <path d="m68.656 95.202-0.0476 0.0953"/>
    <path d="m68.608 95.297-0.0476 0.0476"/>
    <path d="m68.561 95.345-0.0953 0.0476"/>
    <path d="m68.466 95.392h-0.0952"/>
    <path d="m68.37 95.392-0.0952-0.0476"/>
    <path d="m68.275 95.345-0.0477-0.0476"/>
    <path d="m68.227 95.297-0.0476-0.0953"/>
    <path d="m68.18 95.202v-0.2381"/>
    <path d="m68.18 94.964 0.0476-0.1428"/>
    <path d="m68.18 94.535v-0.5715"/>
    <path d="m69.18 94.249h-1"/>
    <path d="m69.18 93.107v0.5714"/>
    <path d="m69.18 93.392h-1"/>
    <path d="m68.18 93.392 0.1429 0.0952"/>
    <path d="m68.323 93.488 0.0952 0.0953"/>
    <path d="m68.418 93.583 0.0476 0.0952"/>
    <path d="m68.18 92.249v0.1905"/>
    <path d="m68.18 92.44 0.0476 0.0953"/>
    <path d="m68.227 92.535 0.0477 0.0476"/>
    <path d="m68.275 92.583 0.1428 0.0952"/>
    <path d="m68.418 92.678 0.1905 0.0476"/>
    <path d="m68.608 92.726h0.3809"/>
    <path d="m68.989 92.726 0.0953-0.0476"/>
    <path d="m69.085 92.678 0.0476-0.0476"/>
    <path d="m69.132 92.63 0.0476-0.0952"/>
    <path d="m69.18 92.535v-0.1905"/>
    <path d="m69.18 92.345-0.0476-0.0953"/>
    <path d="m69.132 92.249-0.0476-0.0476"/>
    <path d="m69.085 92.202-0.0953-0.0476"/>
    <path d="m68.989 92.154h-0.2381"/>
    <path d="m68.751 92.154-0.0952 0.0476"/>
    <path d="m68.656 92.202-0.0476 0.0476"/>
    <path d="m68.608 92.249-0.0476 0.0953"/>
    <path d="m68.561 92.345v0.1905"/>
    <path d="m68.561 92.535 0.0476 0.0952"/>
    <path d="m68.608 92.63 0.0476 0.0476"/>
    <path d="m68.656 92.678 0.0952 0.0476"/>
   </g>
   <text x="28.6250" y="76.7482" font-size="1.3333" opacity="0" stroke-opacity="0" text-anchor="middle" lengthAdjust="spacingAndGlyphs" textLength="4.2500">SW14</text>
   <g class="stroked-text">
    <desc>SW14</desc>
    <path d="m26.816 76.656 0.1428 0.0476"/>
    <path d="m26.958 76.703h0.2381"/>
    <path d="m27.196 76.703 0.0953-0.0476"/>
    <path d="m27.292 76.656 0.0476-0.0477"/>
    <path d="m27.339 76.608 0.0476-0.0952"/>
    <path d="m27.387 76.513v-0.0952"/>
    <path d="m27.387 76.417-0.0476-0.0953"/>
    <path d="m27.339 76.322-0.0476-0.0476"/>
    <path d="m27.292 76.274-0.0953-0.0476"/>
    <path d="m27.196 76.227-0.1904-0.0476"/>
    <path d="m27.006 76.179-0.0953-0.0477"/>
    <path d="m26.911 76.132-0.0476-0.0476"/>
    <path d="m26.863 76.084-0.0476-0.0952"/>
    <path d="m26.816 75.989v-0.0953"/>
    <path d="m26.816 75.894 0.0476-0.0952"/>
    <path d="m26.863 75.798 0.0476-0.0476"/>
    <path d="m26.911 75.751 0.0953-0.0476"/>
    <path d="m27.006 75.703h0.238"/>
    <path d="m27.244 75.703 0.1429 0.0476"/>
    <path d="m27.72 75.703 0.2381 1"/>
    <path d="m27.958 76.703 0.1905-0.7143"/>
    <path d="m28.149 75.989 0.1905 0.7143"/>
    <path d="m28.339 76.703 0.2381-1"/>
    <path d="m29.482 76.703h-0.5714"/>
    <path d="m29.196 76.703v-1"/>
    <path d="m29.196 75.703-0.0952 0.1428"/>
    <path d="m29.101 75.846-0.0952 0.0953"/>
    <path d="m29.006 75.941-0.0953 0.0476"/>
    <path d="m30.339 76.036v0.6667"/>
    <path d="m30.101 75.656-0.2381 0.7142"/>
    <path d="m29.863 76.37h0.619"/>
   </g>
   <text x="9.5750" y="19.5983" font-size="1.3333" opacity="0" stroke-opacity="0" text-anchor="middle" lengthAdjust="spacingAndGlyphs" textLength="3.2976">SW2</text>
   <g class="stroked-text">
    <desc>SW2</desc>
    <path d="m8.2417 19.505 0.1428 0.0477"/>
    <path d="m8.3845 19.553h0.2381"/>
    <path d="m8.6226 19.553 0.0953-0.0477"/>
    <path d="m8.7179 19.505 0.0476-0.0476"/>
    <path d="m8.7655 19.458 0.0476-0.0952"/>
    <path d="m8.8131 19.363v-0.0952"/>
    <path d="m8.8131 19.267-0.0476-0.0953"/>
    <path d="m8.7655 19.172-0.0476-0.0476"/>
    <path d="m8.7179 19.124-0.0953-0.0476"/>
    <path d="m8.6226 19.077-0.1905-0.0476"/>
    <path d="m8.4321 19.029-0.0952-0.0477"/>
    <path d="m8.3369 18.982-0.0476-0.0476"/>
    <path d="m8.2893 18.934-0.0476-0.0952"/>
    <path d="m8.2417 18.839v-0.0953"/>
    <path d="m8.2417 18.744 0.0476-0.0952"/>
    <path d="m8.2893 18.648 0.0476-0.0476"/>
    <path d="m8.3369 18.601 0.0952-0.0476"/>
    <path d="m8.4321 18.553h0.2381"/>
    <path d="m8.6702 18.553 0.1429 0.0476"/>
    <path d="m9.1464 18.553 0.2381 1"/>
    <path d="m9.3845 19.553 0.1905-0.7143"/>
    <path d="m9.575 18.839 0.1905 0.7143"/>
    <path d="m9.7655 19.553 0.2381-1"/>
    <path d="m10.337 18.648 0.0476-0.0476"/>
    <path d="m10.384 18.601 0.0953-0.0476"/>
    <path d="m10.48 18.553h0.2381"/>
    <path d="m10.718 18.553 0.0952 0.0476"/>
    <path d="m10.813 18.601 0.0476 0.0476"/>
    <path d="m10.861 18.648 0.0476 0.0952"/>
    <path d="m10.908 18.744v0.0953"/>
    <path d="m10.908 18.839-0.0476 0.1428"/>
    <path d="m10.861 18.982-0.5714 0.5715"/>
    <path d="m10.289 19.553h0.619"/>
   </g>
   <text x="47.6750" y="95.7982" font-size="1.3333" opacity="0" stroke-opacity="0" text-anchor="middle" lengthAdjust="spacingAndGlyphs" textLength="4.2500">SW18</text>
   <g class="stroked-text">
    <desc>SW18</desc>
    <path d="m45.866 95.705 0.1428 0.0477"/>
    <path d="m46.008 95.753h0.2381"/>
    <path d="m46.246 95.753 0.0953-0.0477"/>
    <path d="m46.342 95.705 0.0476-0.0476"/>
    <path d="m46.389 95.658 0.0476-0.0952"/>
    <path d="m46.437 95.563v-0.0952"/>
    <path d="m46.437 95.467-0.0476-0.0953"/>
    <path d="m46.389 95.372-0.0476-0.0476"/>
    <path d="m46.342 95.324-0.0953-0.0476"/>
    <path d="m46.246 95.277-0.1904-0.0476"/>
    <path d="m46.056 95.229-0.0953-0.0477"/>
    <path d="m45.961 95.182-0.0476-0.0476"/>
    <path d="m45.913 95.134-0.0476-0.0952"/>
    <path d="m45.866 95.039v-0.0953"/>
    <path d="m45.866 94.944 0.0476-0.0952"/>
    <path d="m45.913 94.848 0.0476-0.0476"/>
    <path d="m45.961 94.801 0.0953-0.0476"/>
    <path d="m46.056 94.753h0.238"/>
    <path d="m46.294 94.753 0.1429 0.0476"/>
    <path d="m46.77 94.753 0.2381 1"/>
    <path d="m47.008 95.753 0.1905-0.7143"/>
    <path d="m47.199 95.039 0.1905 0.7143"/>
    <path d="m47.389 95.753 0.2381-1"/>
    <path d="m48.532 95.753h-0.5714"/>
    <path d="m48.246 95.753v-1"/>
    <path d="m48.246 94.753-0.0952 0.1428"/>
    <path d="m48.151 94.896-0.0952 0.0953"/>
    <path d="m48.056 94.991-0.0953 0.0476"/>
    <path d="m49.104 95.182-0.0953-0.0476"/>
    <path d="m49.008 95.134-0.0476-0.0476"/>
    <path d="m48.961 95.086-0.0476-0.0952"/>
    <path d="m48.913 94.991v-0.0477"/>
    <path d="m48.913 94.944 0.0476-0.0952"/>
    <path d="m48.961 94.848 0.0476-0.0476"/>
    <path d="m49.008 94.801 0.0953-0.0476"/>
    <path d="m49.104 94.753h0.1904"/>
    <path d="m49.294 94.753 0.0953 0.0476"/>
    <path d="m49.389 94.801 0.0476 0.0476"/>
    <path d="m49.437 94.848 0.0476 0.0952"/>
    <path d="m49.484 94.944v0.0477"/>
    <path d="m49.484 94.991-0.0476 0.0952"/>
    <path d="m49.437 95.086-0.0476 0.0476"/>
    <path d="m49.389 95.134-0.0953 0.0476"/>
    <path d="m49.294 95.182h-0.1904"/>
    <path d="m49.104 95.182-0.0953 0.0477"/>
    <path d="m49.008 95.229-0.0476 0.0476"/>
    <path d="m48.961 95.277-0.0476 0.0952"/>
    <path d="m48.913 95.372v0.1905"/>
    <path d="m48.913 95.563 0.0476 0.0952"/>
    <path d="m48.961 95.658 0.0476 0.0476"/>
    <path d="m49.008 95.705 0.0953 0.0477"/>
    <path d="m49.104 95.753h0.1904"/>
    <path d="m49.294 95.753 0.0953-0.0477"/>
    <path d="m49.389 95.705 0.0476-0.0476"/>
    <path d="m49.437 95.658 0.0476-0.0952"/>
    <path d="m49.484 95.563v-0.1905"/>
    <path d="m49.484 95.372-0.0476-0.0952"/>
    <path d="m49.437 95.277-0.0476-0.0476"/>
    <path d="m49.389 95.229-0.0953-0.0477"/>
   </g>
   <text x="28.6250" y="38.6482" font-size="1.3333" opacity="0" stroke-opacity="0" text-anchor="middle" lengthAdjust="spacingAndGlyphs" textLength="3.2976">SW7</text>
   <g class="stroked-text">
    <desc>SW7</desc>
    <path d="m27.292 38.556 0.1428 0.0476"/>
    <path d="m27.434 38.603h0.2381"/>
    <path d="m27.673 38.603 0.0953-0.0476"/>
    <path d="m27.768 38.556 0.0476-0.0477"/>
    <path d="m27.816 38.508 0.0476-0.0952"/>
    <path d="m27.863 38.413v-0.0952"/>
    <path d="m27.863 38.317-0.0476-0.0953"/>
    <path d="m27.816 38.222-0.0476-0.0476"/>
    <path d="m27.768 38.174-0.0953-0.0476"/>
    <path d="m27.673 38.127-0.1905-0.0476"/>
    <path d="m27.482 38.079-0.0952-0.0477"/>
    <path d="m27.387 38.032-0.0476-0.0476"/>
    <path d="m27.339 37.984-0.0476-0.0952"/>
    <path d="m27.292 37.889v-0.0953"/>
    <path d="m27.292 37.794 0.0476-0.0952"/>
    <path d="m27.339 37.698 0.0476-0.0476"/>
    <path d="m27.387 37.651 0.0952-0.0476"/>
    <path d="m27.482 37.603h0.2381"/>
    <path d="m27.72 37.603 0.1429 0.0476"/>
    <path d="m28.196 37.603 0.2381 1"/>
    <path d="m28.434 38.603 0.1905-0.7143"/>
    <path d="m28.625 37.889 0.1905 0.7143"/>
    <path d="m28.816 38.603 0.2381-1"/>
    <path d="m29.339 37.603h0.6667"/>
    <path d="m30.006 37.603-0.4286 1"/>
   </g>
   <text x="9.5750" y="38.6482" font-size="1.3333" opacity="0" stroke-opacity="0" text-anchor="middle" lengthAdjust="spacingAndGlyphs" textLength="3.2976">SW6</text>
   <g class="stroked-text">
    <desc>SW6</desc>
    <path d="m8.2417 38.556 0.1428 0.0476"/>
    <path d="m8.3845 38.603h0.2381"/>
    <path d="m8.6226 38.603 0.0953-0.0476"/>
    <path d="m8.7179 38.556 0.0476-0.0477"/>
    <path d="m8.7655 38.508 0.0476-0.0952"/>
    <path d="m8.8131 38.413v-0.0952"/>
    <path d="m8.8131 38.317-0.0476-0.0953"/>
    <path d="m8.7655 38.222-0.0476-0.0476"/>
    <path d="m8.7179 38.174-0.0953-0.0476"/>
    <path d="m8.6226 38.127-0.1905-0.0476"/>
    <path d="m8.4321 38.079-0.0952-0.0477"/>
    <path d="m8.3369 38.032-0.0476-0.0476"/>
    <path d="m8.2893 37.984-0.0476-0.0952"/>
    <path d="m8.2417 37.889v-0.0953"/>
    <path d="m8.2417 37.794 0.0476-0.0952"/>
    <path d="m8.2893 37.698 0.0476-0.0476"/>
    <path d="m8.3369 37.651 0.0952-0.0476"/>
    <path d="m8.4321 37.603h0.2381"/>
    <path d="m8.6702 37.603 0.1429 0.0476"/>
    <path d="m9.1464 37.603 0.2381 1"/>
    <path d="m9.3845 38.603 0.1905-0.7143"/>
    <path d="m9.575 37.889 0.1905 0.7143"/>
    <path d="m9.7655 38.603 0.2381-1"/>
    <path d="m10.813 37.603h-0.1905"/>
    <path d="m10.623 37.603-0.0952 0.0476"/>
    <path d="m10.527 37.651-0.0476 0.0476"/>
    <path d="m10.48 37.698-0.0953 0.1429"/>
    <path d="m10.384 37.841-0.0476 0.1904"/>
    <path d="m10.337 38.032v0.381"/>
    <path d="m10.337 38.413 0.0476 0.0952"/>
    <path d="m10.384 38.508 0.0476 0.0477"/>
    <path d="m10.432 38.556 0.0953 0.0476"/>
    <path d="m10.527 38.603h0.1905"/>
    <path d="m10.718 38.603 0.0952-0.0476"/>
    <path d="m10.813 38.556 0.0476-0.0477"/>
    <path d="m10.861 38.508 0.0476-0.0952"/>
    <path d="m10.908 38.413v-0.2381"/>
    <path d="m10.908 38.174-0.0476-0.0952"/>
    <path d="m10.861 38.079-0.0476-0.0477"/>
    <path d="m10.813 38.032-0.0952-0.0476"/>
    <path d="m10.718 37.984h-0.1905"/>
    <path d="m10.527 37.984-0.0953 0.0476"/>
    <path d="m10.432 38.032-0.0476 0.0477"/>
    <path d="m10.384 38.079-0.0476 0.0952"/>
   </g>
  </g>
  <g stroke="#8BE9FD" stroke-width=".12">
   <path d="m59.625 48.573v14.2"/>
   <path d="m59.625 62.773h14.2"/>
   <path d="m73.825 48.573h-14.2"/>
   <path d="m73.825 62.773v-14.2"/>
   <path d="m2.475 77.148v14.2"/>
   <path d="m2.475 91.348h14.2"/>
   <path d="m16.675 77.148h-14.2"/>
   <path d="m16.675 91.348v-14.2"/>
   <path d="m12 96.198v14.2"/>
   <path d="m12 110.4h14.2"/>
   <path d="m26.2 96.198h-14.2"/>
   <path d="m26.2 110.4v-14.2"/>
   <path d="m21.525 19.998v14.2"/>
   <path d="m21.525 34.198h14.2"/>
   <path d="m35.725 19.998h-14.2"/>
   <path d="m35.725 34.198v-14.2"/>
   <path d="m40.575 39.048v14.2"/>
   <path d="m40.575 53.248h14.2"/>
   <path d="m54.775 39.048h-14.2"/>
   <path d="m54.775 53.248v-14.2"/>
   <path d="m40.575 58.098v14.2"/>
   <path d="m40.575 72.298h14.2"/>
   <path d="m54.775 58.098h-14.2"/>
   <path d="m54.775 72.298v-14.2"/>
   <path d="m59.625 19.998v14.2"/>
   <path d="m59.625 34.198h14.2"/>
   <path d="m73.825 19.998h-14.2"/>
   <path d="m73.825 34.198v-14.2"/>
   <path d="m40.575 77.148v14.2"/>
   <path d="m40.575 91.348h14.2"/>
   <path d="m54.775 77.148h-14.2"/>
   <path d="m54.775 91.348v-14.2"/>
   <path d="m59.625 86.673v14.2"/>
   <path d="m59.625 100.87h14.2"/>
   <path d="m73.825 86.673h-14.2"/>
   <path d="m73.825 100.87v-14.2"/>
   <path d="m40.575 19.998v14.2"/>
   <path d="m40.575 34.198h14.2"/>
   <path d="m54.775 19.998h-14.2"/>
   <path d="m54.775 34.198v-14.2"/>
   <path d="m1.775 3.9482h0.6"/>
   <path d="m2.075 4.2482-0.3-0.3"/>
   <path d="m2.375 3.9482-0.3 0.3"/>
   <path d="m3.475 2.1482v11.8"/>
   <path d="m7.575 2.1482h-4.1"/>
   <path d="m7.575 13.948h-4.1"/>
   <path d="m9.075 8.0482h1"/>
   <path d="m9.575 7.5482v1"/>
   <path d="m11.575 2.1482h4.1"/>
   <path d="m15.675 2.1482v2.4"/>
   <path d="m15.675 6.7482v2.6001"/>
   <path d="m15.675 11.548v2.4"/>
   <path d="m15.675 13.948h-4.1"/>
   <circle cx="9.575" cy="8.0482" r="3"/>
   <path d="m21.525 58.098v14.2"/>
   <path d="m21.525 72.298h14.2"/>
   <path d="m35.725 58.098h-14.2"/>
   <path d="m35.725 72.298v-14.2"/>
   <path d="m2.475 58.098v14.2"/>
   <path d="m2.475 72.298h14.2"/>
   <path d="m16.675 58.098h-14.2"/>
   <path d="m16.675 72.298v-14.2"/>
   <path d="m21.525 77.148v14.2"/>
   <path d="m21.525 91.348h14.2"/>
   <path d="m35.725 77.148h-14.2"/>
   <path d="m35.725 91.348v-14.2"/>
   <path d="m2.475 19.998v14.2"/>
   <path d="m2.475 34.198h14.2"/>
   <path d="m16.675 19.998h-14.2"/>
   <path d="m16.675 34.198v-14.2"/>
   <path d="m40.575 96.198v14.2"/>
   <path d="m40.575 110.4h14.2"/>
   <path d="m54.775 96.198h-14.2"/>
   <path d="m54.775 110.4v-14.2"/>
   <path d="m21.525 39.048v14.2"/>
   <path d="m21.525 53.248h14.2"/>
   <path d="m35.725 39.048h-14.2"/>
   <path d="m35.725 53.248v-14.2"/>
   <path d="m2.475 39.048v14.2"/>
   <path d="m2.475 53.248h14.2"/>
   <path d="m16.675 39.048h-14.2"/>
   <path d="m16.675 53.248v-14.2"/>
  </g>
  <g stroke="#BD93F9" stroke-width=".15">
   <g transform="rotate(-90 54.66 107.43)">
    <text transform="scale(-1 1) translate(-109.32)" x="54.6600" y="107.9252" font-size="1.3333" opacity="0" stroke-opacity="0" text-anchor="middle" lengthAdjust="spacingAndGlyphs" textLength="3.1548">D18</text>
   </g>
   <g class="stroked-text">
    <desc>D18</desc>
    <path d="m55.115 106.21h-1"/>
    <path d="m54.115 106.21v0.2381"/>
    <path d="m54.115 106.45 0.0476 0.1428"/>
    <path d="m54.162 106.59 0.0953 0.0953"/>
    <path d="m54.258 106.69 0.0952 0.0476"/>
    <path d="m54.353 106.73 0.1905 0.0476"/>
    <path d="m54.543 106.78h0.1428"/>
    <path d="m54.686 106.78 0.1905-0.0476"/>
    <path d="m54.877 106.73 0.0953-0.0476"/>
    <path d="m54.972 106.69 0.0952-0.0953"/>
    <path d="m55.067 106.59 0.0476-0.1428"/>
    <path d="m55.115 106.45v-0.2381"/>
    <path d="m55.115 107.73v-0.5715"/>
    <path d="m55.115 107.45h-1"/>
    <path d="m54.115 107.45 0.1429-0.0953"/>
    <path d="m54.258 107.35 0.0952-0.0952"/>
    <path d="m54.353 107.26 0.0476-0.0953"/>
    <path d="m54.543 108.31-0.0476-0.0952"/>
    <path d="m54.496 108.21-0.0476-0.0477"/>
    <path d="m54.448 108.16-0.0953-0.0476"/>
    <path d="m54.353 108.12h-0.0476"/>
    <path d="m54.305 108.12-0.0952 0.0476"/>
    <path d="m54.21 108.16-0.0477 0.0477"/>
    <path d="m54.162 108.21-0.0476 0.0952"/>
    <path d="m54.115 108.31v0.1905"/>
    <path d="m54.115 108.5 0.0476 0.0952"/>
    <path d="m54.162 108.59 0.0477 0.0476"/>
    <path d="m54.21 108.64 0.0952 0.0477"/>
    <path d="m54.305 108.69h0.0476"/>
    <path d="m54.353 108.69 0.0953-0.0477"/>
    <path d="m54.448 108.64 0.0476-0.0476"/>
    <path d="m54.496 108.59 0.0476-0.0952"/>
    <path d="m54.543 108.5v-0.1905"/>
    <path d="m54.543 108.31 0.0476-0.0952"/>
    <path d="m54.591 108.21 0.0476-0.0477"/>
    <path d="m54.639 108.16 0.0953-0.0476"/>
    <path d="m54.734 108.12h0.1904"/>
    <path d="m54.924 108.12 0.0953 0.0476"/>
    <path d="m55.02 108.16 0.0476 0.0477"/>
    <path d="m55.067 108.21 0.0476 0.0952"/>
    <path d="m55.115 108.31v0.1905"/>
    <path d="m55.115 108.5-0.0476 0.0952"/>
    <path d="m55.067 108.59-0.0476 0.0476"/>
    <path d="m55.02 108.64-0.0953 0.0477"/>
    <path d="m54.924 108.69h-0.1904"/>
    <path d="m54.734 108.69-0.0953-0.0477"/>
    <path d="m54.639 108.64-0.0476-0.0476"/>
    <path d="m54.591 108.59-0.0476-0.0952"/>
   </g>
   <g transform="rotate(-90 35.61 69.325)">
    <text transform="scale(-1 1) translate(-71.22)" x="35.6100" y="69.8252" font-size="1.3333" opacity="0" stroke-opacity="0" text-anchor="middle" lengthAdjust="spacingAndGlyphs" textLength="3.1548">D11</text>
   </g>
   <g class="stroked-text">
    <desc>D11</desc>
    <path d="m36.065 68.111h-1"/>
    <path d="m35.065 68.111v0.2381"/>
    <path d="m35.065 68.349 0.0476 0.1428"/>
    <path d="m35.112 68.492 0.0953 0.0953"/>
    <path d="m35.208 68.587 0.0952 0.0476"/>
    <path d="m35.303 68.635 0.1905 0.0476"/>
    <path d="m35.493 68.682h0.1428"/>
    <path d="m35.636 68.682 0.1905-0.0476"/>
    <path d="m35.827 68.635 0.0953-0.0476"/>
    <path d="m35.922 68.587 0.0952-0.0953"/>
    <path d="m36.017 68.492 0.0476-0.1428"/>
    <path d="m36.065 68.349v-0.2381"/>
    <path d="m36.065 69.635v-0.5715"/>
    <path d="m36.065 69.349h-1"/>
    <path d="m35.065 69.349 0.1429-0.0953"/>
    <path d="m35.208 69.254 0.0952-0.0952"/>
    <path d="m35.303 69.159 0.0476-0.0953"/>
    <path d="m36.065 70.587v-0.5715"/>
    <path d="m36.065 70.301h-1"/>
    <path d="m35.065 70.301 0.1429-0.0952"/>
    <path d="m35.208 70.206 0.0952-0.0952"/>
    <path d="m35.303 70.111 0.0476-0.0953"/>
   </g>
   <g transform="rotate(-90 16.56 88.375)">
    <text transform="scale(-1 1) translate(-33.12)" x="16.5600" y="88.8752" font-size="1.3333" opacity="0" stroke-opacity="0" text-anchor="middle" lengthAdjust="spacingAndGlyphs" textLength="3.1548">D13</text>
   </g>
   <g class="stroked-text">
    <desc>D13</desc>
    <path d="m17.015 87.161h-1"/>
    <path d="m16.015 87.161v0.2381"/>
    <path d="m16.015 87.399 0.0476 0.1428"/>
    <path d="m16.062 87.542 0.0953 0.0953"/>
    <path d="m16.158 87.637 0.0952 0.0476"/>
    <path d="m16.253 87.685 0.1905 0.0476"/>
    <path d="m16.443 87.732h0.1428"/>
    <path d="m16.586 87.732 0.1905-0.0476"/>
    <path d="m16.777 87.685 0.0953-0.0476"/>
    <path d="m16.872 87.637 0.0952-0.0953"/>
    <path d="m16.967 87.542 0.0476-0.1428"/>
    <path d="m17.015 87.399v-0.2381"/>
    <path d="m17.015 88.685v-0.5715"/>
    <path d="m17.015 88.399h-1"/>
    <path d="m16.015 88.399 0.1429-0.0953"/>
    <path d="m16.158 88.304 0.0952-0.0952"/>
    <path d="m16.253 88.209 0.0476-0.0953"/>
    <path d="m16.015 89.018v0.6191"/>
    <path d="m16.015 89.637 0.381-0.3334"/>
    <path d="m16.396 89.304v0.1429"/>
    <path d="m16.396 89.447 0.0476 0.0952"/>
    <path d="m16.443 89.542 0.0476 0.0476"/>
    <path d="m16.491 89.59 0.0952 0.0477"/>
    <path d="m16.586 89.637h0.2381"/>
    <path d="m16.824 89.637 0.0953-0.0477"/>
    <path d="m16.92 89.59 0.0476-0.0476"/>
    <path d="m16.967 89.542 0.0476-0.0952"/>
    <path d="m17.015 89.447v-0.2857"/>
    <path d="m17.015 89.161-0.0476-0.0953"/>
    <path d="m16.967 89.066-0.0476-0.0476"/>
   </g>
   <g transform="rotate(-90 16.56 69.325)">
    <text transform="scale(-1 1) translate(-33.12)" x="16.5600" y="69.8252" font-size="1.3333" opacity="0" stroke-opacity="0" text-anchor="middle" lengthAdjust="spacingAndGlyphs" textLength="3.1548">D10</text>
   </g>
   <g class="stroked-text">
    <desc>D10</desc>
    <path d="m17.015 68.111h-1"/>
    <path d="m16.015 68.111v0.2381"/>
    <path d="m16.015 68.349 0.0476 0.1428"/>
    <path d="m16.062 68.492 0.0953 0.0953"/>
    <path d="m16.158 68.587 0.0952 0.0476"/>
    <path d="m16.253 68.635 0.1905 0.0476"/>
    <path d="m16.443 68.682h0.1428"/>
    <path d="m16.586 68.682 0.1905-0.0476"/>
    <path d="m16.777 68.635 0.0953-0.0476"/>
    <path d="m16.872 68.587 0.0952-0.0953"/>
    <path d="m16.967 68.492 0.0476-0.1428"/>
    <path d="m17.015 68.349v-0.2381"/>
    <path d="m17.015 69.635v-0.5715"/>
    <path d="m17.015 69.349h-1"/>
    <path d="m16.015 69.349 0.1429-0.0953"/>
    <path d="m16.158 69.254 0.0952-0.0952"/>
    <path d="m16.253 69.159 0.0476-0.0953"/>
    <path d="m16.015 70.254v0.0953"/>
    <path d="m16.015 70.349 0.0476 0.0952"/>
    <path d="m16.062 70.444 0.0477 0.0476"/>
    <path d="m16.11 70.492 0.0952 0.0476"/>
    <path d="m16.205 70.54 0.1905 0.0477"/>
    <path d="m16.396 70.587h0.2381"/>
    <path d="m16.634 70.587 0.1904-0.0477"/>
    <path d="m16.824 70.54 0.0953-0.0476"/>
    <path d="m16.92 70.492 0.0476-0.0476"/>
    <path d="m16.967 70.444 0.0476-0.0952"/>
    <path d="m17.015 70.349v-0.0953"/>
    <path d="m17.015 70.254-0.0476-0.0952"/>
    <path d="m16.967 70.159-0.0476-0.0476"/>
    <path d="m16.92 70.111-0.0953-0.0477"/>
    <path d="m16.824 70.063-0.1904-0.0476"/>
    <path d="m16.634 70.016h-0.2381"/>
    <path d="m16.396 70.016-0.1905 0.0476"/>
    <path d="m16.205 70.063-0.0952 0.0477"/>
    <path d="m16.11 70.111-0.0477 0.0476"/>
    <path d="m16.062 70.159-0.0476 0.0952"/>
   </g>
   <g transform="rotate(-90 35.61 31.225)">
    <text transform="scale(-1 1) translate(-71.22)" x="35.6100" y="31.7252" font-size="1.3333" opacity="0" stroke-opacity="0" text-anchor="middle" lengthAdjust="spacingAndGlyphs" textLength="2.2024">D3</text>
   </g>
   <g class="stroked-text">
    <desc>D3</desc>
    <path d="m36.065 30.487h-1"/>
    <path d="m35.065 30.487v0.238"/>
    <path d="m35.065 30.725 0.0476 0.1429"/>
    <path d="m35.112 30.868 0.0953 0.0952"/>
    <path d="m35.208 30.963 0.0952 0.0477"/>
    <path d="m35.303 31.011 0.1905 0.0476"/>
    <path d="m35.493 31.059h0.1428"/>
    <path d="m35.636 31.059 0.1905-0.0476"/>
    <path d="m35.827 31.011 0.0953-0.0477"/>
    <path d="m35.922 30.963 0.0952-0.0952"/>
    <path d="m36.017 30.868 0.0476-0.1429"/>
    <path d="m36.065 30.725v-0.238"/>
    <path d="m35.065 31.392v0.6191"/>
    <path d="m35.065 32.011 0.381-0.3334"/>
    <path d="m35.446 31.678v0.1429"/>
    <path d="m35.446 31.82 0.0476 0.0952"/>
    <path d="m35.493 31.916 0.0476 0.0476"/>
    <path d="m35.541 31.963 0.0952 0.0477"/>
    <path d="m35.636 32.011h0.2381"/>
    <path d="m35.874 32.011 0.0953-0.0477"/>
    <path d="m35.97 31.963 0.0476-0.0476"/>
    <path d="m36.017 31.916 0.0476-0.0952"/>
    <path d="m36.065 31.82v-0.2857"/>
    <path d="m36.065 31.535-0.0476-0.0953"/>
    <path d="m36.017 31.44-0.0476-0.0476"/>
   </g>
   <g transform="rotate(-90 54.66 69.325)">
    <text transform="scale(-1 1) translate(-109.32)" x="54.6600" y="69.8252" font-size="1.3333" opacity="0" stroke-opacity="0" text-anchor="middle" lengthAdjust="spacingAndGlyphs" textLength="3.1548">D12</text>
   </g>
   <g class="stroked-text">
    <desc>D12</desc>
    <path d="m55.115 68.111h-1"/>
    <path d="m54.115 68.111v0.2381"/>
    <path d="m54.115 68.349 0.0476 0.1428"/>
    <path d="m54.162 68.492 0.0953 0.0953"/>
    <path d="m54.258 68.587 0.0952 0.0476"/>
    <path d="m54.353 68.635 0.1905 0.0476"/>
    <path d="m54.543 68.682h0.1428"/>
    <path d="m54.686 68.682 0.1905-0.0476"/>
    <path d="m54.877 68.635 0.0953-0.0476"/>
    <path d="m54.972 68.587 0.0952-0.0953"/>
    <path d="m55.067 68.492 0.0476-0.1428"/>
    <path d="m55.115 68.349v-0.2381"/>
    <path d="m55.115 69.635v-0.5715"/>
    <path d="m55.115 69.349h-1"/>
    <path d="m54.115 69.349 0.1429-0.0953"/>
    <path d="m54.258 69.254 0.0952-0.0952"/>
    <path d="m54.353 69.159 0.0476-0.0953"/>
    <path d="m54.21 70.016-0.0477 0.0476"/>
    <path d="m54.162 70.063-0.0476 0.0953"/>
    <path d="m54.115 70.159v0.2381"/>
    <path d="m54.115 70.397 0.0476 0.0952"/>
    <path d="m54.162 70.492 0.0477 0.0476"/>
    <path d="m54.21 70.54 0.0952 0.0477"/>
    <path d="m54.305 70.587h0.0952"/>
    <path d="m54.4 70.587 0.1429-0.0477"/>
    <path d="m54.543 70.54 0.5714-0.5714"/>
    <path d="m55.115 69.968v0.6191"/>
   </g>
   <g transform="rotate(-90 35.61 50.275)">
    <text transform="scale(-1 1) translate(-71.22)" x="35.6100" y="50.7752" font-size="1.3333" opacity="0" stroke-opacity="0" text-anchor="middle" lengthAdjust="spacingAndGlyphs" textLength="2.2024">D7</text>
   </g>
   <g class="stroked-text">
    <desc>D7</desc>
    <path d="m36.065 49.537h-1"/>
    <path d="m35.065 49.537v0.238"/>
    <path d="m35.065 49.775 0.0476 0.1429"/>
    <path d="m35.112 49.918 0.0953 0.0952"/>
    <path d="m35.208 50.013 0.0952 0.0477"/>
    <path d="m35.303 50.061 0.1905 0.0476"/>
    <path d="m35.493 50.109h0.1428"/>
    <path d="m35.636 50.109 0.1905-0.0476"/>
    <path d="m35.827 50.061 0.0953-0.0477"/>
    <path d="m35.922 50.013 0.0952-0.0952"/>
    <path d="m36.017 49.918 0.0476-0.1429"/>
    <path d="m36.065 49.775v-0.238"/>
    <path d="m35.065 50.442v0.6667"/>
    <path d="m35.065 51.109 1-0.4286"/>
   </g>
   <g transform="rotate(-90 54.66 50.275)">
    <text transform="scale(-1 1) translate(-109.32)" x="54.6600" y="50.7752" font-size="1.3333" opacity="0" stroke-opacity="0" text-anchor="middle" lengthAdjust="spacingAndGlyphs" textLength="2.2024">D8</text>
   </g>
   <g class="stroked-text">
    <desc>D8</desc>
    <path d="m55.115 49.537h-1"/>
    <path d="m54.115 49.537v0.238"/>
    <path d="m54.115 49.775 0.0476 0.1429"/>
    <path d="m54.162 49.918 0.0953 0.0952"/>
    <path d="m54.258 50.013 0.0952 0.0477"/>
    <path d="m54.353 50.061 0.1905 0.0476"/>
    <path d="m54.543 50.109h0.1428"/>
    <path d="m54.686 50.109 0.1905-0.0476"/>
    <path d="m54.877 50.061 0.0953-0.0477"/>
    <path d="m54.972 50.013 0.0952-0.0952"/>
    <path d="m55.067 49.918 0.0476-0.1429"/>
    <path d="m55.115 49.775v-0.238"/>
    <path d="m54.543 50.68-0.0476-0.0952"/>
    <path d="m54.496 50.585-0.0476-0.0476"/>
    <path d="m54.448 50.537-0.0953-0.0477"/>
    <path d="m54.353 50.49h-0.0476"/>
    <path d="m54.305 50.49-0.0952 0.0477"/>
    <path d="m54.21 50.537-0.0477 0.0476"/>
    <path d="m54.162 50.585-0.0476 0.0952"/>
    <path d="m54.115 50.68v0.1905"/>
    <path d="m54.115 50.87 0.0476 0.0952"/>
    <path d="m54.162 50.966 0.0477 0.0476"/>
    <path d="m54.21 51.013 0.0952 0.0477"/>
    <path d="m54.305 51.061h0.0476"/>
    <path d="m54.353 51.061 0.0953-0.0477"/>
    <path d="m54.448 51.013 0.0476-0.0476"/>
    <path d="m54.496 50.966 0.0476-0.0952"/>
    <path d="m54.543 50.87v-0.1905"/>
    <path d="m54.543 50.68 0.0476-0.0952"/>
    <path d="m54.591 50.585 0.0476-0.0476"/>
    <path d="m54.639 50.537 0.0953-0.0477"/>
    <path d="m54.734 50.49h0.1904"/>
    <path d="m54.924 50.49 0.0953 0.0477"/>
    <path d="m55.02 50.537 0.0476 0.0476"/>
    <path d="m55.067 50.585 0.0476 0.0952"/>
    <path d="m55.115 50.68v0.1905"/>
    <path d="m55.115 50.87-0.0476 0.0952"/>
    <path d="m55.067 50.966-0.0476 0.0476"/>
    <path d="m55.02 51.013-0.0953 0.0477"/>
    <path d="m54.924 51.061h-0.1904"/>
    <path d="m54.734 51.061-0.0953-0.0477"/>
    <path d="m54.639 51.013-0.0476-0.0476"/>
    <path d="m54.591 50.966-0.0476-0.0952"/>
   </g>
   <g transform="rotate(-90 73.71 97.9)">
    <text transform="scale(-1 1) translate(-147.42)" x="73.7100" y="98.4002" font-size="1.3333" opacity="0" stroke-opacity="0" text-anchor="middle" lengthAdjust="spacingAndGlyphs" textLength="3.1548">D16</text>
   </g>
   <g class="stroked-text">
    <desc>D16</desc>
    <path d="m74.165 96.686h-1"/>
    <path d="m73.165 96.686v0.2381"/>
    <path d="m73.165 96.924 0.0476 0.1428"/>
    <path d="m73.212 97.067 0.0953 0.0953"/>
    <path d="m73.308 97.162 0.0952 0.0476"/>
    <path d="m73.403 97.21 0.1905 0.0476"/>
    <path d="m73.593 97.257h0.1428"/>
    <path d="m73.736 97.257 0.1905-0.0476"/>
    <path d="m73.927 97.21 0.0953-0.0476"/>
    <path d="m74.022 97.162 0.0952-0.0953"/>
    <path d="m74.117 97.067 0.0476-0.1428"/>
    <path d="m74.165 96.924v-0.2381"/>
    <path d="m74.165 98.21v-0.5715"/>
    <path d="m74.165 97.924h-1"/>
    <path d="m73.165 97.924 0.1429-0.0953"/>
    <path d="m73.308 97.829 0.0952-0.0952"/>
    <path d="m73.403 97.734 0.0476-0.0953"/>
    <path d="m73.165 99.067v-0.1905"/>
    <path d="m73.165 98.876 0.0476-0.0952"/>
    <path d="m73.212 98.781 0.0477-0.0476"/>
    <path d="m73.26 98.734 0.1428-0.0953"/>
    <path d="m73.403 98.638 0.1905-0.0476"/>
    <path d="m73.593 98.591h0.3809"/>
    <path d="m73.974 98.591 0.0953 0.0476"/>
    <path d="m74.07 98.638 0.0476 0.0477"/>
    <path d="m74.117 98.686 0.0476 0.0952"/>
    <path d="m74.165 98.781v0.1905"/>
    <path d="m74.165 98.972-0.0476 0.0952"/>
    <path d="m74.117 99.067-0.0476 0.0476"/>
    <path d="m74.07 99.114-0.0953 0.0477"/>
    <path d="m73.974 99.162h-0.2381"/>
    <path d="m73.736 99.162-0.0952-0.0477"/>
    <path d="m73.641 99.114-0.0476-0.0476"/>
    <path d="m73.593 99.067-0.0476-0.0952"/>
    <path d="m73.546 98.972v-0.1905"/>
    <path d="m73.546 98.781 0.0476-0.0952"/>
    <path d="m73.593 98.686 0.0476-0.0477"/>
    <path d="m73.641 98.638 0.0952-0.0476"/>
   </g>
   <g transform="rotate(-90 16.56 50.275)">
    <text transform="scale(-1 1) translate(-33.12)" x="16.5600" y="50.7752" font-size="1.3333" opacity="0" stroke-opacity="0" text-anchor="middle" lengthAdjust="spacingAndGlyphs" textLength="2.2024">D6</text>
   </g>
   <g class="stroked-text">
    <desc>D6</desc>
    <path d="m17.015 49.537h-1"/>
    <path d="m16.015 49.537v0.238"/>
    <path d="m16.015 49.775 0.0476 0.1429"/>
    <path d="m16.062 49.918 0.0953 0.0952"/>
    <path d="m16.158 50.013 0.0952 0.0477"/>
    <path d="m16.253 50.061 0.1905 0.0476"/>
    <path d="m16.443 50.109h0.1428"/>
    <path d="m16.586 50.109 0.1905-0.0476"/>
    <path d="m16.777 50.061 0.0953-0.0477"/>
    <path d="m16.872 50.013 0.0952-0.0952"/>
    <path d="m16.967 49.918 0.0476-0.1429"/>
    <path d="m17.015 49.775v-0.238"/>
    <path d="m16.015 50.966v-0.1905"/>
    <path d="m16.015 50.775 0.0476-0.0952"/>
    <path d="m16.062 50.68 0.0477-0.0476"/>
    <path d="m16.11 50.632 0.1428-0.0952"/>
    <path d="m16.253 50.537 0.1905-0.0477"/>
    <path d="m16.443 50.49h0.3809"/>
    <path d="m16.824 50.49 0.0953 0.0477"/>
    <path d="m16.92 50.537 0.0476 0.0476"/>
    <path d="m16.967 50.585 0.0476 0.0952"/>
    <path d="m17.015 50.68v0.1905"/>
    <path d="m17.015 50.87-0.0476 0.0952"/>
    <path d="m16.967 50.966-0.0476 0.0476"/>
    <path d="m16.92 51.013-0.0953 0.0477"/>
    <path d="m16.824 51.061h-0.2381"/>
    <path d="m16.586 51.061-0.0952-0.0477"/>
    <path d="m16.491 51.013-0.0476-0.0476"/>
    <path d="m16.443 50.966-0.0476-0.0952"/>
    <path d="m16.396 50.87v-0.1905"/>
    <path d="m16.396 50.68 0.0476-0.0952"/>
    <path d="m16.443 50.585 0.0476-0.0476"/>
    <path d="m16.491 50.537 0.0952-0.0477"/>
   </g>
   <g transform="rotate(-90 35.61 88.375)">
    <text transform="scale(-1 1) translate(-71.22)" x="35.6100" y="88.8752" font-size="1.3333" opacity="0" stroke-opacity="0" text-anchor="middle" lengthAdjust="spacingAndGlyphs" textLength="3.1548">D14</text>
   </g>
   <g class="stroked-text">
    <desc>D14</desc>
    <path d="m36.065 87.161h-1"/>
    <path d="m35.065 87.161v0.2381"/>
    <path d="m35.065 87.399 0.0476 0.1428"/>
    <path d="m35.112 87.542 0.0953 0.0953"/>
    <path d="m35.208 87.637 0.0952 0.0476"/>
    <path d="m35.303 87.685 0.1905 0.0476"/>
    <path d="m35.493 87.732h0.1428"/>
    <path d="m35.636 87.732 0.1905-0.0476"/>
    <path d="m35.827 87.685 0.0953-0.0476"/>
    <path d="m35.922 87.637 0.0952-0.0953"/>
    <path d="m36.017 87.542 0.0476-0.1428"/>
    <path d="m36.065 87.399v-0.2381"/>
    <path d="m36.065 88.685v-0.5715"/>
    <path d="m36.065 88.399h-1"/>
    <path d="m35.065 88.399 0.1429-0.0953"/>
    <path d="m35.208 88.304 0.0952-0.0952"/>
    <path d="m35.303 88.209 0.0476-0.0953"/>
    <path d="m35.398 89.542h0.6666"/>
    <path d="m35.017 89.304 0.7143-0.2381"/>
    <path d="m35.732 89.066v0.6191"/>
   </g>
   <g transform="rotate(-90 9.06 9.6753)">
    <text transform="scale(-1 1) translate(-18.12)" x="9.0600" y="10.1753" font-size="1.3333" opacity="0" stroke-opacity="0" text-anchor="middle" lengthAdjust="spacingAndGlyphs" textLength="2.2024">D1</text>
   </g>
   <g class="stroked-text">
    <desc>D1</desc>
    <path d="m9.5148 8.9372h-1"/>
    <path d="m8.5148 8.9372v0.2381"/>
    <path d="m8.5148 9.1753 0.0476 0.1428"/>
    <path d="m8.5624 9.3181 0.0953 0.0952"/>
    <path d="m8.6577 9.4133 0.0952 0.0477"/>
    <path d="m8.7529 9.461 0.1905 0.0476"/>
    <path d="m8.9434 9.5086h0.1428"/>
    <path d="m9.0862 9.5086 0.1905-0.0476"/>
    <path d="m9.2767 9.461 0.0953-0.0477"/>
    <path d="m9.372 9.4133 0.0952-0.0952"/>
    <path d="m9.4672 9.3181 0.0476-0.1428"/>
    <path d="m9.5148 9.1753v-0.2381"/>
    <path d="m9.5148 10.461v-0.5715"/>
    <path d="m9.5148 10.175h-1"/>
    <path d="m8.5148 10.175 0.1429-0.0953"/>
    <path d="m8.6577 10.08 0.0952-0.0952"/>
    <path d="m8.7529 9.9848 0.0476-0.0953"/>
   </g>
   <g transform="rotate(-90 54.66 31.225)">
    <text transform="scale(-1 1) translate(-109.32)" x="54.6600" y="31.7252" font-size="1.3333" opacity="0" stroke-opacity="0" text-anchor="middle" lengthAdjust="spacingAndGlyphs" textLength="2.2024">D4</text>
   </g>
   <g class="stroked-text">
    <desc>D4</desc>
    <path d="m55.115 30.487h-1"/>
    <path d="m54.115 30.487v0.238"/>
    <path d="m54.115 30.725 0.0476 0.1429"/>
    <path d="m54.162 30.868 0.0953 0.0952"/>
    <path d="m54.258 30.963 0.0952 0.0477"/>
    <path d="m54.353 31.011 0.1905 0.0476"/>
    <path d="m54.543 31.059h0.1428"/>
    <path d="m54.686 31.059 0.1905-0.0476"/>
    <path d="m54.877 31.011 0.0953-0.0477"/>
    <path d="m54.972 30.963 0.0952-0.0952"/>
    <path d="m55.067 30.868 0.0476-0.1429"/>
    <path d="m55.115 30.725v-0.238"/>
    <path d="m54.448 31.916h0.6666"/>
    <path d="m54.067 31.678 0.7143-0.2381"/>
    <path d="m54.782 31.44v0.6191"/>
   </g>
   <g transform="rotate(-90 54.66 88.375)">
    <text transform="scale(-1 1) translate(-109.32)" x="54.6600" y="88.8752" font-size="1.3333" opacity="0" stroke-opacity="0" text-anchor="middle" lengthAdjust="spacingAndGlyphs" textLength="3.1548">D15</text>
   </g>
   <g class="stroked-text">
    <desc>D15</desc>
    <path d="m55.115 87.161h-1"/>
    <path d="m54.115 87.161v0.2381"/>
    <path d="m54.115 87.399 0.0476 0.1428"/>
    <path d="m54.162 87.542 0.0953 0.0953"/>
    <path d="m54.258 87.637 0.0952 0.0476"/>
    <path d="m54.353 87.685 0.1905 0.0476"/>
    <path d="m54.543 87.732h0.1428"/>
    <path d="m54.686 87.732 0.1905-0.0476"/>
    <path d="m54.877 87.685 0.0953-0.0476"/>
    <path d="m54.972 87.637 0.0952-0.0953"/>
    <path d="m55.067 87.542 0.0476-0.1428"/>
    <path d="m55.115 87.399v-0.2381"/>
    <path d="m55.115 88.685v-0.5715"/>
    <path d="m55.115 88.399h-1"/>
    <path d="m54.115 88.399 0.1429-0.0953"/>
    <path d="m54.258 88.304 0.0952-0.0952"/>
    <path d="m54.353 88.209 0.0476-0.0953"/>
    <path d="m54.115 89.59v-0.4762"/>
    <path d="m54.115 89.113 0.4762-0.0476"/>
    <path d="m54.591 89.066-0.0476 0.0476"/>
    <path d="m54.543 89.113-0.0476 0.0953"/>
    <path d="m54.496 89.209v0.2381"/>
    <path d="m54.496 89.447 0.0476 0.0952"/>
    <path d="m54.543 89.542 0.0476 0.0476"/>
    <path d="m54.591 89.59 0.0952 0.0477"/>
    <path d="m54.686 89.637h0.2381"/>
    <path d="m54.924 89.637 0.0953-0.0477"/>
    <path d="m55.02 89.59 0.0476-0.0476"/>
    <path d="m55.067 89.542 0.0476-0.0952"/>
    <path d="m55.115 89.447v-0.2381"/>
    <path d="m55.115 89.209-0.0476-0.0953"/>
    <path d="m55.067 89.113-0.0476-0.0476"/>
   </g>
   <g transform="rotate(-90 73.71 59.8)">
    <text transform="scale(-1 1) translate(-147.42)" x="73.7100" y="60.3002" font-size="1.3333" opacity="0" stroke-opacity="0" text-anchor="middle" lengthAdjust="spacingAndGlyphs" textLength="2.2024">D9</text>
   </g>
   <g class="stroked-text">
    <desc>D9</desc>
    <path d="m74.165 59.062h-1"/>
    <path d="m73.165 59.062v0.238"/>
    <path d="m73.165 59.3 0.0476 0.1429"/>
    <path d="m73.212 59.443 0.0953 0.0952"/>
    <path d="m73.308 59.538 0.0952 0.0477"/>
    <path d="m73.403 59.586 0.1905 0.0476"/>
    <path d="m73.593 59.634h0.1428"/>
    <path d="m73.736 59.634 0.1905-0.0476"/>
    <path d="m73.927 59.586 0.0953-0.0477"/>
    <path d="m74.022 59.538 0.0952-0.0952"/>
    <path d="m74.117 59.443 0.0476-0.1429"/>
    <path d="m74.165 59.3v-0.238"/>
    <path d="m74.165 60.11v0.1904"/>
    <path d="m74.165 60.3-0.0476 0.0953"/>
    <path d="m74.117 60.396-0.0476 0.0476"/>
    <path d="m74.07 60.443-0.1429 0.0952"/>
    <path d="m73.927 60.538-0.1905 0.0477"/>
    <path d="m73.736 60.586h-0.3809"/>
    <path d="m73.355 60.586-0.0952-0.0477"/>
    <path d="m73.26 60.538-0.0477-0.0476"/>
    <path d="m73.212 60.491-0.0476-0.0952"/>
    <path d="m73.165 60.396v-0.1905"/>
    <path d="m73.165 60.205 0.0476-0.0952"/>
    <path d="m73.212 60.11 0.0477-0.0476"/>
    <path d="m73.26 60.062 0.0952-0.0477"/>
    <path d="m73.355 60.014h0.2381"/>
    <path d="m73.593 60.014 0.0952 0.0477"/>
    <path d="m73.689 60.062 0.0476 0.0476"/>
    <path d="m73.736 60.11 0.0477 0.0952"/>
    <path d="m73.784 60.205v0.1905"/>
    <path d="m73.784 60.396-0.0477 0.0952"/>
    <path d="m73.736 60.491-0.0476 0.0476"/>
    <path d="m73.689 60.538-0.0952 0.0477"/>
   </g>
   <g transform="rotate(-90 26.085 107.43)">
    <text transform="scale(-1 1) translate(-52.17)" x="26.0850" y="107.9252" font-size="1.3333" opacity="0" stroke-opacity="0" text-anchor="middle" lengthAdjust="spacingAndGlyphs" textLength="3.1548">D17</text>
   </g>
   <g class="stroked-text">
    <desc>D17</desc>
    <path d="m26.54 106.21h-1"/>
    <path d="m25.54 106.21v0.2381"/>
    <path d="m25.54 106.45 0.0476 0.1428"/>
    <path d="m25.587 106.59 0.0953 0.0953"/>
    <path d="m25.683 106.69 0.0952 0.0476"/>
    <path d="m25.778 106.73 0.1905 0.0476"/>
    <path d="m25.968 106.78h0.1428"/>
    <path d="m26.111 106.78 0.1905-0.0476"/>
    <path d="m26.302 106.73 0.0953-0.0476"/>
    <path d="m26.397 106.69 0.0952-0.0953"/>
    <path d="m26.492 106.59 0.0476-0.1428"/>
    <path d="m26.54 106.45v-0.2381"/>
    <path d="m26.54 107.73v-0.5715"/>
    <path d="m26.54 107.45h-1"/>
    <path d="m25.54 107.45 0.1429-0.0953"/>
    <path d="m25.683 107.35 0.0952-0.0952"/>
    <path d="m25.778 107.26 0.0476-0.0953"/>
    <path d="m25.54 108.07v0.6667"/>
    <path d="m25.54 108.73 1-0.4286"/>
   </g>
   <g transform="rotate(-90 73.71 31.225)">
    <text transform="scale(-1 1) translate(-147.42)" x="73.7100" y="31.7252" font-size="1.3333" opacity="0" stroke-opacity="0" text-anchor="middle" lengthAdjust="spacingAndGlyphs" textLength="2.2024">D5</text>
   </g>
   <g class="stroked-text">
    <desc>D5</desc>
    <path d="m74.165 30.487h-1"/>
    <path d="m73.165 30.487v0.238"/>
    <path d="m73.165 30.725 0.0476 0.1429"/>
    <path d="m73.212 30.868 0.0953 0.0952"/>
    <path d="m73.308 30.963 0.0952 0.0477"/>
    <path d="m73.403 31.011 0.1905 0.0476"/>
    <path d="m73.593 31.059h0.1428"/>
    <path d="m73.736 31.059 0.1905-0.0476"/>
    <path d="m73.927 31.011 0.0953-0.0477"/>
    <path d="m74.022 30.963 0.0952-0.0952"/>
    <path d="m74.117 30.868 0.0476-0.1429"/>
    <path d="m74.165 30.725v-0.238"/>
    <path d="m73.165 31.963v-0.4761"/>
    <path d="m73.165 31.487 0.4762-0.0477"/>
    <path d="m73.641 31.44-0.0476 0.0477"/>
    <path d="m73.593 31.487-0.0476 0.0952"/>
    <path d="m73.546 31.582v0.2381"/>
    <path d="m73.546 31.82 0.0476 0.0952"/>
    <path d="m73.593 31.916 0.0476 0.0476"/>
    <path d="m73.641 31.963 0.0952 0.0477"/>
    <path d="m73.736 32.011h0.2381"/>
    <path d="m73.974 32.011 0.0953-0.0477"/>
    <path d="m74.07 31.963 0.0476-0.0476"/>
    <path d="m74.117 31.916 0.0476-0.0952"/>
    <path d="m74.165 31.82v-0.2381"/>
    <path d="m74.165 31.582-0.0476-0.0952"/>
    <path d="m74.117 31.487-0.0476-0.0477"/>
   </g>
   <g transform="rotate(-90 16.56 31.225)">
    <text transform="scale(-1 1) translate(-33.12)" x="16.5600" y="31.7252" font-size="1.3333" opacity="0" stroke-opacity="0" text-anchor="middle" lengthAdjust="spacingAndGlyphs" textLength="2.2024">D2</text>
   </g>
   <g class="stroked-text">
    <desc>D2</desc>
    <path d="m17.015 30.487h-1"/>
    <path d="m16.015 30.487v0.238"/>
    <path d="m16.015 30.725 0.0476 0.1429"/>
    <path d="m16.062 30.868 0.0953 0.0952"/>
    <path d="m16.158 30.963 0.0952 0.0477"/>
    <path d="m16.253 31.011 0.1905 0.0476"/>
    <path d="m16.443 31.059h0.1428"/>
    <path d="m16.586 31.059 0.1905-0.0476"/>
    <path d="m16.777 31.011 0.0953-0.0477"/>
    <path d="m16.872 30.963 0.0952-0.0952"/>
    <path d="m16.967 30.868 0.0476-0.1429"/>
    <path d="m17.015 30.725v-0.238"/>
    <path d="m16.11 31.44-0.0477 0.0477"/>
    <path d="m16.062 31.487-0.0476 0.0952"/>
    <path d="m16.015 31.582v0.2381"/>
    <path d="m16.015 31.82 0.0476 0.0952"/>
    <path d="m16.062 31.916 0.0477 0.0476"/>
    <path d="m16.11 31.963 0.0952 0.0477"/>
    <path d="m16.205 32.011h0.0952"/>
    <path d="m16.3 32.011 0.1429-0.0477"/>
    <path d="m16.443 31.963 0.5714-0.5714"/>
    <path d="m17.015 31.392v0.6191"/>
   </g>
  </g>
  <g stroke="#BD93F9" stroke-width=".12">
   <path d="m51.755 109.51v-3.86"/>
   <path d="m53.755 109.51h-2"/>
   <path d="m53.755 109.51v-3.86"/>
   <path d="m32.705 71.408v-3.86"/>
   <path d="m34.705 71.408h-2"/>
   <path d="m34.705 71.408v-3.86"/>
   <path d="m13.655 90.458v-3.86"/>
   <path d="m15.655 90.458h-2"/>
   <path d="m15.655 90.458v-3.86"/>
   <path d="m13.655 71.408v-3.86"/>
   <path d="m15.655 71.408h-2"/>
   <path d="m15.655 71.408v-3.86"/>
   <path d="m32.705 33.308v-3.8601"/>
   <path d="m34.705 33.308h-2"/>
   <path d="m34.705 33.308v-3.8601"/>
   <path d="m51.755 71.408v-3.86"/>
   <path d="m53.755 71.408h-2"/>
   <path d="m53.755 71.408v-3.86"/>
   <path d="m32.705 52.358v-3.86"/>
   <path d="m34.705 52.358h-2"/>
   <path d="m34.705 52.358v-3.86"/>
   <path d="m51.755 52.358v-3.86"/>
   <path d="m53.755 52.358h-2"/>
   <path d="m53.755 52.358v-3.86"/>
   <path d="m70.805 99.983v-3.86"/>
   <path d="m72.805 99.983h-2"/>
   <path d="m72.805 99.983v-3.86"/>
   <path d="m13.655 52.358v-3.86"/>
   <path d="m15.655 52.358h-2"/>
   <path d="m15.655 52.358v-3.86"/>
   <path d="m32.705 90.458v-3.86"/>
   <path d="m34.705 90.458h-2"/>
   <path d="m34.705 90.458v-3.86"/>
   <path d="m6.155 11.758v-3.8601"/>
   <path d="m8.155 11.758h-2"/>
   <path d="m8.155 11.758v-3.8601"/>
   <path d="m51.755 33.308v-3.8601"/>
   <path d="m53.755 33.308h-2"/>
   <path d="m53.755 33.308v-3.8601"/>
   <path d="m51.755 90.458v-3.86"/>
   <path d="m53.755 90.458h-2"/>
   <path d="m53.755 90.458v-3.86"/>
   <path d="m70.805 61.883v-3.86"/>
   <path d="m72.805 61.883h-2"/>
   <path d="m72.805 61.883v-3.86"/>
   <path d="m23.18 109.51v-3.86"/>
   <path d="m25.18 109.51h-2"/>
   <path d="m25.18 109.51v-3.86"/>
   <path d="m70.805 33.308v-3.8601"/>
   <path d="m72.805 33.308h-2"/>
   <path d="m72.805 33.308v-3.8601"/>
   <path d="m13.655 33.308v-3.8601"/>
   <path d="m15.655 33.308h-2"/>
   <path d="m15.655 33.308v-3.8601"/>
  </g>
 </g>
 <g fill="#fff">
  <circle cx="7.162" cy="96.313" r="1.524"/>
  <circle cx="7.162" cy="111.52" r="1.9939"/>
  <circle cx="31.038" cy="96.313" r="1.524"/>
  <circle cx="31.038" cy="111.52" r="1.9939"/>
  <circle cx="61.645" cy="55.673" r=".875"/>
  <circle cx="66.725" cy="55.673" r="2"/>
  <circle cx="71.805" cy="55.673" r=".875"/>
  <circle cx="62.915" cy="53.133" r=".75"/>
  <circle cx="69.265" cy="50.593" r=".75"/>
  <circle cx="4.495" cy="84.248" r=".875"/>
  <circle cx="9.575" cy="84.248" r="2"/>
  <circle cx="14.655" cy="84.248" r=".875"/>
  <circle cx="5.765" cy="81.708" r=".75"/>
  <circle cx="12.115" cy="79.168" r=".75"/>
  <circle cx="14.02" cy="103.3" r=".875"/>
  <circle cx="19.1" cy="103.3" r="2"/>
  <circle cx="24.18" cy="103.3" r=".875"/>
  <circle cx="15.29" cy="100.76" r=".75"/>
  <circle cx="21.64" cy="98.218" r=".75"/>
  <circle cx="73.71" cy="43.735" r="1.524"/>
  <circle cx="58.5" cy="43.735" r="1.9939"/>
  <circle cx="73.71" cy="67.611" r="1.524"/>
  <circle cx="58.5" cy="67.611" r="1.9939"/>
  <circle cx="23.545" cy="27.098" r=".875"/>
  <circle cx="28.625" cy="27.098" r="2"/>
  <circle cx="33.705" cy="27.098" r=".875"/>
  <circle cx="24.815" cy="24.558" r=".75"/>
  <circle cx="31.165" cy="22.018" r=".75"/>
  <circle cx="42.595" cy="46.148" r=".875"/>
  <circle cx="47.675" cy="46.148" r="2"/>
  <circle cx="52.755" cy="46.148" r=".875"/>
  <circle cx="43.865" cy="43.608" r=".75"/>
  <circle cx="50.215" cy="41.068" r=".75"/>
  <circle cx="42.595" cy="65.198" r=".875"/>
  <circle cx="47.675" cy="65.198" r="2"/>
  <circle cx="52.755" cy="65.198" r=".875"/>
  <circle cx="43.865" cy="62.658" r=".75"/>
  <circle cx="50.215" cy="60.118" r=".75"/>
  <circle cx="61.645" cy="27.098" r=".875"/>
  <circle cx="66.725" cy="27.098" r="2"/>
  <circle cx="71.805" cy="27.098" r=".875"/>
  <circle cx="62.915" cy="24.558" r=".75"/>
  <circle cx="69.265" cy="22.018" r=".75"/>
  <circle cx="42.595" cy="84.248" r=".875"/>
  <circle cx="47.675" cy="84.248" r="2"/>
  <circle cx="52.755" cy="84.248" r=".875"/>
  <circle cx="43.865" cy="81.708" r=".75"/>
  <circle cx="50.215" cy="79.168" r=".75"/>
  <circle cx="61.645" cy="93.773" r=".875"/>
  <circle cx="66.725" cy="93.773" r="2"/>
  <circle cx="71.805" cy="93.773" r=".875"/>
  <circle cx="62.915" cy="91.233" r=".75"/>
  <circle cx="69.265" cy="88.693" r=".75"/>
  <circle cx="42.595" cy="27.098" r=".875"/>
  <circle cx="47.675" cy="27.098" r="2"/>
  <circle cx="52.755" cy="27.098" r=".875"/>
  <circle cx="43.865" cy="24.558" r=".75"/>
  <circle cx="50.215" cy="22.018" r=".75"/>
  <circle cx="2.075" cy="5.5482" r=".5"/>
  <circle cx="2.075" cy="10.548" r=".5"/>
  <circle cx="2.075" cy="8.0482" r=".5"/>
 </g>
 <g fill="none" stroke="#fff" stroke-linecap="round" stroke-linejoin="round" stroke-width="1.5">
  <path d="m8.925 2.4482h1.3"/>
  <path d="m8.925 13.648h1.3"/>
 </g>
 <g fill="#fff">
  <circle cx="16.575" cy="10.548" r=".5"/>
  <circle cx="16.575" cy="5.5482" r=".5"/>
  <circle cx="23.545" cy="65.198" r=".875"/>
  <circle cx="28.625" cy="65.198" r="2"/>
  <circle cx="33.705" cy="65.198" r=".875"/>
  <circle cx="24.815" cy="62.658" r=".75"/>
  <circle cx="31.165" cy="60.118" r=".75"/>
  <circle cx="4.495" cy="65.198" r=".875"/>
  <circle cx="9.575" cy="65.198" r="2"/>
  <circle cx="14.655" cy="65.198" r=".875"/>
  <circle cx="5.765" cy="62.658" r=".75"/>
  <circle cx="12.115" cy="60.118" r=".75"/>
  <circle cx="73.71" cy="81.835" r="1.524"/>
  <circle cx="58.5" cy="81.835" r="1.9939"/>
  <circle cx="73.71" cy="105.71" r="1.524"/>
  <circle cx="58.5" cy="105.71" r="1.9939"/>
  <circle cx="23.545" cy="84.248" r=".875"/>
  <circle cx="28.625" cy="84.248" r="2"/>
  <circle cx="33.705" cy="84.248" r=".875"/>
  <circle cx="24.815" cy="81.708" r=".75"/>
  <circle cx="31.165" cy="79.168" r=".75"/>
  <circle cx="4.495" cy="27.098" r=".875"/>
  <circle cx="9.575" cy="27.098" r="2"/>
  <circle cx="14.655" cy="27.098" r=".875"/>
  <circle cx="5.765" cy="24.558" r=".75"/>
  <circle cx="12.115" cy="22.018" r=".75"/>
  <circle cx="42.595" cy="103.3" r=".875"/>
  <circle cx="47.675" cy="103.3" r="2"/>
  <circle cx="52.755" cy="103.3" r=".875"/>
  <circle cx="43.865" cy="100.76" r=".75"/>
  <circle cx="50.215" cy="98.218" r=".75"/>
  <circle cx="23.545" cy="46.148" r=".875"/>
  <circle cx="28.625" cy="46.148" r="2"/>
  <circle cx="33.705" cy="46.148" r=".875"/>
  <circle cx="24.815" cy="43.608" r=".75"/>
  <circle cx="31.165" cy="41.068" r=".75"/>
  <circle cx="4.495" cy="46.148" r=".875"/>
  <circle cx="9.575" cy="46.148" r="2"/>
  <circle cx="14.655" cy="46.148" r=".875"/>
  <circle cx="5.765" cy="43.608" r=".75"/>
  <circle cx="12.115" cy="41.068" r=".75"/>
 </g>
</svg>
