<svg xmlns="http://www.w3.org/2000/svg" xmlns:xlink="http://www.w3.org/1999/xlink" width="710" height="541" viewBox="0 13 710 541"><defs><g id="a"><rect width="52" height="52" fill="none" stroke="#000" stroke-width="2" rx="5"/><rect width="50" height="50" x="1" y="1" fill="#777" rx="4"/><rect width="40" height="40" x="6" y="4" fill="#919191" rx="5"/><text x="7" y="7" dominant-baseline="hanging" font-size="12"><tspan x="7" dy="0em">0,0</tspan></text></g><g id="b"><rect width="52" height="52" fill="none" stroke="#000" stroke-width="2" rx="5"/><rect width="50" height="50" x="1" y="1" fill="#ccc" rx="4"/><rect width="40" height="40" x="6" y="4" fill="#fbfbfb" rx="5"/><text x="7" y="7" dominant-baseline="hanging" font-size="12"><tspan x="7" dy="0em">0,1</tspan></text></g><g id="c"><rect width="52" height="52" fill="none" stroke="#000" stroke-width="2" rx="5"/><rect width="50" height="50" x="1" y="1" fill="#ccc" rx="4"/><rect width="40" height="40" x="6" y="4" fill="#fbfbfb" rx="5"/><text x="7" y="7" dominant-baseline="hanging" font-size="12"><tspan x="7" dy="0em">0,2</tspan></text></g><g id="d"><rect width="52" height="52" fill="none" stroke="#000" stroke-width="2" rx="5"/><rect width="50" height="50" x="1" y="1" fill="#ccc" rx="4"/><rect width="40" height="40" x="6" y="4" fill="#fbfbfb" rx="5"/><text x="7" y="7" dominant-baseline="hanging" font-size="12"><tspan x="7" dy="0em">0,3</tspan></text></g><g id="e"><rect width="52" height="52" fill="none" stroke="#000" stroke-width="2" rx="5"/><rect width="50" height="50" x="1" y="1" fill="#ccc" rx="4"/><rect width="40" height="40" x="6" y="4" fill="#fbfbfb" rx="5"/><text x="7" y="7" dominant-baseline="hanging" font-size="12"><tspan x="7" dy="0em">0,4</tspan></text></g><g id="f"><rect width="52" height="52" fill="none" stroke="#000" stroke-width="2" rx="5"/><rect width="50" height="50" x="1" y="1" fill="#ccc" rx="4"/><rect width="40" height="40" x="6" y="4" fill="#fbfbfb" rx="5"/><text x="7" y="7" dominant-baseline="hanging" font-size="12"><tspan x="7" dy="0em">0,5</tspan></text></g><g id="g"><rect width="52" height="52" fill="none" stroke="#000" stroke-width="2" rx="5"/><rect width="50" height="50" x="1" y="1" fill="#ccc" rx="4"/><rect width="40" height="40" x="6" y="4" fill="#fbfbfb" rx="5"/><text x="7" y="7" dominant-baseline="hanging" font-size="12"><tspan x="7" dy="0em">5,0</tspan></text></g><g id="h"><rect width="52" height="52" fill="none" stroke="#000" stroke-width="2" rx="5"/><rect width="50" height="50" x="1" y="1" fill="#ccc" rx="4"/><rect width="40" height="40" x="6" y="4" fill="#fbfbfb" rx="5"/><text x="7" y="7" dominant-baseline="hanging" font-size="12"><tspan x="7" dy="0em">5,1</tspan></text></g><g id="i"><rect width="52" height="52" fill="none" stroke="#000" stroke-width="2" rx="5"/><rect width="50" height="50" x="1" y="1" fill="#ccc" rx="4"/><rect width="40" height="40" x="6" y="4" fill="#fbfbfb" rx="5"/><text x="7" y="7" dominant-baseline="hanging" font-size="12"><tspan x="7" dy="0em">5,2</tspan></text></g><g id="j"><rect width="52" height="52" fill="none" stroke="#000" stroke-width="2" rx="5"/><rect width="50" height="50" x="1" y="1" fill="#ccc" rx="4"/><rect width="40" height="40" x="6" y="4" fill="#fbfbfb" rx="5"/><text x="7" y="7" dominant-baseline="hanging" font-size="12"><tspan x="7" dy="0em">5,3</tspan></text></g><g id="k"><rect width="52" height="52" fill="none" stroke="#000" stroke-width="2" rx="5"/><rect width="50" height="50" x="1" y="1" fill="#ccc" rx="4"/><rect width="40" height="40" x="6" y="4" fill="#fbfbfb" rx="5"/><text x="7" y="7" dominant-baseline="hanging" font-size="12"><tspan x="7" dy="0em">5,4</tspan></text></g><g id="l"><rect width="52" height="52" fill="none" stroke="#000" stroke-width="2" rx="5"/><rect width="50" height="50" x="1" y="1" fill="#aaa" rx="4"/><rect width="40" height="40" x="6" y="4" fill="#d0d0d0" rx="5"/><text x="7" y="7" dominant-baseline="hanging" font-size="12"><tspan x="7" dy="0em">5,5</tspan></text></g><g id="m"><rect width="52" height="52" fill="none" stroke="#000" stroke-width="2" rx="5"/><rect width="50" height="50" x="1" y="1" fill="#aaa" rx="4"/><rect width="40" height="40" x="6" y="4" fill="#d0d0d0" rx="5"/><text x="7" y="7" dominant-baseline="hanging" font-size="12"><tspan x="7" dy="0em">1,0</tspan></text></g><g id="n"><rect width="52" height="52" fill="none" stroke="#000" stroke-width="2" rx="5"/><rect width="50" height="50" x="1" y="1" fill="#ccc" rx="4"/><rect width="40" height="40" x="6" y="4" fill="#fbfbfb" rx="5"/><text x="7" y="7" dominant-baseline="hanging" font-size="12"><tspan x="7" dy="0em">1,1</tspan></text></g><g id="o"><rect width="52" height="52" fill="none" stroke="#000" stroke-width="2" rx="5"/><rect width="50" height="50" x="1" y="1" fill="#ccc" rx="4"/><rect width="40" height="40" x="6" y="4" fill="#fbfbfb" rx="5"/><text x="7" y="7" dominant-baseline="hanging" font-size="12"><tspan x="7" dy="0em">1,2</tspan></text></g><g id="p"><rect width="52" height="52" fill="none" stroke="#000" stroke-width="2" rx="5"/><rect width="50" height="50" x="1" y="1" fill="#ccc" rx="4"/><rect width="40" height="40" x="6" y="4" fill="#fbfbfb" rx="5"/><text x="7" y="7" dominant-baseline="hanging" font-size="12"><tspan x="7" dy="0em">1,3</tspan></text></g><g id="q"><rect width="52" height="52" fill="none" stroke="#000" stroke-width="2" rx="5"/><rect width="50" height="50" x="1" y="1" fill="#ccc" rx="4"/><rect width="40" height="40" x="6" y="4" fill="#fbfbfb" rx="5"/><text x="7" y="7" dominant-baseline="hanging" font-size="12"><tspan x="7" dy="0em">1,4</tspan></text></g><g id="r"><rect width="52" height="52" fill="none" stroke="#000" stroke-width="2" rx="5"/><rect width="50" height="50" x="1" y="1" fill="#ccc" rx="4"/><rect width="40" height="40" x="6" y="4" fill="#fbfbfb" rx="5"/><text x="7" y="7" dominant-baseline="hanging" font-size="12"><tspan x="7" dy="0em">1,5</tspan></text></g><g id="s"><rect width="52" height="52" fill="none" stroke="#000" stroke-width="2" rx="5"/><rect width="50" height="50" x="1" y="1" fill="#ccc" rx="4"/><rect width="40" height="40" x="6" y="4" fill="#fbfbfb" rx="5"/><text x="7" y="7" dominant-baseline="hanging" font-size="12"><tspan x="7" dy="0em">6,0</tspan></text></g><g id="t"><rect width="52" height="52" fill="none" stroke="#000" stroke-width="2" rx="5"/><rect width="50" height="50" x="1" y="1" fill="#ccc" rx="4"/><rect width="40" height="40" x="6" y="4" fill="#fbfbfb" rx="5"/><text x="7" y="7" dominant-baseline="hanging" font-size="12"><tspan x="7" dy="0em">6,1</tspan></text></g><g id="u"><rect width="52" height="52" fill="none" stroke="#000" stroke-width="2" rx="5"/><rect width="50" height="50" x="1" y="1" fill="#ccc" rx="4"/><rect width="40" height="40" x="6" y="4" fill="#fbfbfb" rx="5"/><text x="7" y="7" dominant-baseline="hanging" font-size="12"><tspan x="7" dy="0em">6,2</tspan></text></g><g id="v"><rect width="52" height="52" fill="none" stroke="#000" stroke-width="2" rx="5"/><rect width="50" height="50" x="1" y="1" fill="#ccc" rx="4"/><rect width="40" height="40" x="6" y="4" fill="#fbfbfb" rx="5"/><text x="7" y="7" dominant-baseline="hanging" font-size="12"><tspan x="7" dy="0em">6,3</tspan></text></g><g id="w"><rect width="52" height="52" fill="none" stroke="#000" stroke-width="2" rx="5"/><rect width="50" height="50" x="1" y="1" fill="#ccc" rx="4"/><rect width="40" height="40" x="6" y="4" fill="#fbfbfb" rx="5"/><text x="7" y="7" dominant-baseline="hanging" font-size="12"><tspan x="7" dy="0em">6,4</tspan></text></g><g id="x"><rect width="52" height="52" fill="none" stroke="#000" stroke-width="2" rx="5"/><rect width="50" height="50" x="1" y="1" fill="#ccc" rx="4"/><rect width="40" height="40" x="6" y="4" fill="#fbfbfb" rx="5"/><text x="7" y="7" dominant-baseline="hanging" font-size="12"><tspan x="7" dy="0em">6,5</tspan></text></g><g id="y"><rect width="52" height="52" fill="none" stroke="#000" stroke-width="2" rx="5"/><rect width="50" height="50" x="1" y="1" fill="#777" rx="4"/><rect width="40" height="40" x="6" y="4" fill="#919191" rx="5"/><text x="7" y="7" dominant-baseline="hanging" font-size="12"><tspan x="7" dy="0em">3,6</tspan></text><text x="26" y="26" dominant-baseline="middle" font-size="12" text-anchor="middle"><tspan x="26" dy="0em">e0</tspan></text><text x="45" y="42" font-size="12" text-anchor="end"><tspan x="45" dy="0em">1,1</tspan></text></g><g id="z"><rect width="52" height="52" fill="none" stroke="#000" stroke-width="2" rx="5"/><rect width="50" height="50" x="1" y="1" fill="#aaa" rx="4"/><rect width="40" height="40" x="6" y="4" fill="#d0d0d0" rx="5"/><text x="7" y="7" dominant-baseline="hanging" font-size="12"><tspan x="7" dy="0em">2,0</tspan></text></g><g id="A"><rect width="52" height="52" fill="none" stroke="#000" stroke-width="2" rx="5"/><rect width="50" height="50" x="1" y="1" fill="#ccc" rx="4"/><rect width="40" height="40" x="6" y="4" fill="#fbfbfb" rx="5"/><text x="7" y="7" dominant-baseline="hanging" font-size="12"><tspan x="7" dy="0em">2,1</tspan></text></g><g id="B"><rect width="52" height="52" fill="none" stroke="#000" stroke-width="2" rx="5"/><rect width="50" height="50" x="1" y="1" fill="#ccc" rx="4"/><rect width="40" height="40" x="6" y="4" fill="#fbfbfb" rx="5"/><text x="7" y="7" dominant-baseline="hanging" font-size="12"><tspan x="7" dy="0em">2,2</tspan></text></g><g id="C"><rect width="52" height="52" fill="none" stroke="#000" stroke-width="2" rx="5"/><rect width="50" height="50" x="1" y="1" fill="#ccc" rx="4"/><rect width="40" height="40" x="6" y="4" fill="#fbfbfb" rx="5"/><text x="7" y="7" dominant-baseline="hanging" font-size="12"><tspan x="7" dy="0em">2,3</tspan></text></g><g id="D"><rect width="52" height="52" fill="none" stroke="#000" stroke-width="2" rx="5"/><rect width="50" height="50" x="1" y="1" fill="#ccc" rx="4"/><rect width="40" height="40" x="6" y="4" fill="#fbfbfb" rx="5"/><text x="7" y="7" dominant-baseline="hanging" font-size="12"><tspan x="7" dy="0em">2,4</tspan></text></g><g id="E"><rect width="52" height="52" fill="none" stroke="#000" stroke-width="2" rx="5"/><rect width="50" height="50" x="1" y="1" fill="#ccc" rx="4"/><rect width="40" height="40" x="6" y="4" fill="#fbfbfb" rx="5"/><text x="7" y="7" dominant-baseline="hanging" font-size="12"><tspan x="7" dy="0em">2,5</tspan></text></g><g id="F"><rect width="52" height="52" fill="none" stroke="#000" stroke-width="2" rx="5"/><rect width="50" height="50" x="1" y="1" fill="#ccc" rx="4"/><rect width="40" height="40" x="6" y="4" fill="#fbfbfb" rx="5"/><text x="7" y="7" dominant-baseline="hanging" font-size="12"><tspan x="7" dy="0em">7,0</tspan></text></g><g id="G"><rect width="52" height="52" fill="none" stroke="#000" stroke-width="2" rx="5"/><rect width="50" height="50" x="1" y="1" fill="#ccc" rx="4"/><rect width="40" height="40" x="6" y="4" fill="#fbfbfb" rx="5"/><text x="7" y="7" dominant-baseline="hanging" font-size="12"><tspan x="7" dy="0em">7,1</tspan></text></g><g id="H"><rect width="52" height="52" fill="none" stroke="#000" stroke-width="2" rx="5"/><rect width="50" height="50" x="1" y="1" fill="#ccc" rx="4"/><rect width="40" height="40" x="6" y="4" fill="#fbfbfb" rx="5"/><text x="7" y="7" dominant-baseline="hanging" font-size="12"><tspan x="7" dy="0em">7,2</tspan></text></g><g id="I"><rect width="52" height="52" fill="none" stroke="#000" stroke-width="2" rx="5"/><rect width="50" height="50" x="1" y="1" fill="#ccc" rx="4"/><rect width="40" height="40" x="6" y="4" fill="#fbfbfb" rx="5"/><text x="7" y="7" dominant-baseline="hanging" font-size="12"><tspan x="7" dy="0em">7,3</tspan></text></g><g id="J"><rect width="52" height="52" fill="none" stroke="#000" stroke-width="2" rx="5"/><rect width="50" height="50" x="1" y="1" fill="#ccc" rx="4"/><rect width="40" height="40" x="6" y="4" fill="#fbfbfb" rx="5"/><text x="7" y="7" dominant-baseline="hanging" font-size="12"><tspan x="7" dy="0em">7,4</tspan></text></g><g id="K"><rect width="52" height="52" fill="none" stroke="#000" stroke-width="2" rx="5"/><rect width="50" height="50" x="1" y="1" fill="#777" rx="4"/><rect width="40" height="40" x="6" y="4" fill="#919191" rx="5"/><text x="7" y="7" dominant-baseline="hanging" font-size="12"><tspan x="7" dy="0em">7,5</tspan></text></g><g id="L"><rect width="52" height="52" fill="none" stroke="#000" stroke-width="2" rx="5"/><rect width="50" height="50" x="1" y="1" fill="#777" rx="4"/><rect width="40" height="40" x="6" y="4" fill="#919191" rx="5"/><text x="7" y="7" dominant-baseline="hanging" font-size="12"><tspan x="7" dy="0em">3,6</tspan></text><text x="45" y="42" font-size="12" text-anchor="end"><tspan x="45" dy="0em">1,0</tspan></text></g><g id="M"><rect width="52" height="52" fill="none" stroke="#000" stroke-width="2" rx="5"/><rect width="50" height="50" x="1" y="1" fill="#aaa" rx="4"/><rect width="40" height="40" x="6" y="4" fill="#d0d0d0" rx="5"/><text x="7" y="7" dominant-baseline="hanging" font-size="12"><tspan x="7" dy="0em">3,0</tspan></text></g><g id="N"><rect width="52" height="52" fill="none" stroke="#000" stroke-width="2" rx="5"/><rect width="50" height="50" x="1" y="1" fill="#ccc" rx="4"/><rect width="40" height="40" x="6" y="4" fill="#fbfbfb" rx="5"/><text x="7" y="7" dominant-baseline="hanging" font-size="12"><tspan x="7" dy="0em">3,1</tspan></text></g><g id="O"><rect width="52" height="52" fill="none" stroke="#000" stroke-width="2" rx="5"/><rect width="50" height="50" x="1" y="1" fill="#ccc" rx="4"/><rect width="40" height="40" x="6" y="4" fill="#fbfbfb" rx="5"/><text x="7" y="7" dominant-baseline="hanging" font-size="12"><tspan x="7" dy="0em">3,2</tspan></text></g><g id="P"><rect width="52" height="52" fill="none" stroke="#000" stroke-width="2" rx="5"/><rect width="50" height="50" x="1" y="1" fill="#ccc" rx="4"/><rect width="40" height="40" x="6" y="4" fill="#fbfbfb" rx="5"/><text x="7" y="7" dominant-baseline="hanging" font-size="12"><tspan x="7" dy="0em">3,3</tspan></text></g><g id="Q"><rect width="52" height="52" fill="none" stroke="#000" stroke-width="2" rx="5"/><rect width="50" height="50" x="1" y="1" fill="#ccc" rx="4"/><rect width="40" height="40" x="6" y="4" fill="#fbfbfb" rx="5"/><text x="7" y="7" dominant-baseline="hanging" font-size="12"><tspan x="7" dy="0em">3,4</tspan></text></g><g id="R"><rect width="52" height="52" fill="none" stroke="#000" stroke-width="2" rx="5"/><rect width="50" height="50" x="1" y="1" fill="#ccc" rx="4"/><rect width="40" height="40" x="6" y="4" fill="#fbfbfb" rx="5"/><text x="7" y="7" dominant-baseline="hanging" font-size="12"><tspan x="7" dy="0em">3,5</tspan></text></g><g id="S"><rect width="52" height="52" fill="none" stroke="#000" stroke-width="2" rx="5"/><rect width="50" height="50" x="1" y="1" fill="#ccc" rx="4"/><rect width="40" height="40" x="6" y="4" fill="#fbfbfb" rx="5"/><text x="7" y="7" dominant-baseline="hanging" font-size="12"><tspan x="7" dy="0em">8,0</tspan></text></g><g id="T"><rect width="52" height="52" fill="none" stroke="#000" stroke-width="2" rx="5"/><rect width="50" height="50" x="1" y="1" fill="#ccc" rx="4"/><rect width="40" height="40" x="6" y="4" fill="#fbfbfb" rx="5"/><text x="7" y="7" dominant-baseline="hanging" font-size="12"><tspan x="7" dy="0em">8,1</tspan></text></g><g id="U"><rect width="52" height="52" fill="none" stroke="#000" stroke-width="2" rx="5"/><rect width="50" height="50" x="1" y="1" fill="#ccc" rx="4"/><rect width="40" height="40" x="6" y="4" fill="#fbfbfb" rx="5"/><text x="7" y="7" dominant-baseline="hanging" font-size="12"><tspan x="7" dy="0em">8,2</tspan></text></g><g id="V"><rect width="52" height="52" fill="none" stroke="#000" stroke-width="2" rx="5"/><rect width="50" height="50" x="1" y="1" fill="#ccc" rx="4"/><rect width="40" height="40" x="6" y="4" fill="#fbfbfb" rx="5"/><text x="7" y="7" dominant-baseline="hanging" font-size="12"><tspan x="7" dy="0em">8,3</tspan></text></g><g id="W"><rect width="52" height="52" fill="none" stroke="#000" stroke-width="2" rx="5"/><rect width="50" height="50" x="1" y="1" fill="#ccc" rx="4"/><rect width="40" height="40" x="6" y="4" fill="#fbfbfb" rx="5"/><text x="7" y="7" dominant-baseline="hanging" font-size="12"><tspan x="7" dy="0em">8,4</tspan></text></g><g id="X"><rect width="52" height="52" fill="none" stroke="#000" stroke-width="2" rx="5"/><rect width="50" height="50" x="1" y="1" fill="#aaa" rx="4"/><rect width="40" height="40" x="6" y="4" fill="#d0d0d0" rx="5"/><text x="7" y="7" dominant-baseline="hanging" font-size="12"><tspan x="7" dy="0em">8,5</tspan></text></g><g id="Y"><rect width="52" height="52" fill="none" stroke="#000" stroke-width="2" rx="5"/><rect width="50" height="50" x="1" y="1" fill="#aaa" rx="4"/><rect width="40" height="40" x="6" y="4" fill="#d0d0d0" rx="5"/><text x="7" y="7" dominant-baseline="hanging" font-size="12"><tspan x="7" dy="0em">4,0</tspan></text></g><g id="Z"><rect width="52" height="52" fill="none" stroke="#000" stroke-width="2" rx="5"/><rect width="50" height="50" x="1" y="1" fill="#aaa" rx="4"/><rect width="40" height="40" x="6" y="4" fill="#d0d0d0" rx="5"/><text x="7" y="7" dominant-baseline="hanging" font-size="12"><tspan x="7" dy="0em">4,1</tspan></text></g><g id="aa"><rect width="52" height="52" fill="none" stroke="#000" stroke-width="2" rx="5"/><rect width="50" height="50" x="1" y="1" fill="#aaa" rx="4"/><rect width="40" height="40" x="6" y="4" fill="#d0d0d0" rx="5"/><text x="7" y="7" dominant-baseline="hanging" font-size="12"><tspan x="7" dy="0em">4,2</tspan></text></g><g id="ab"><rect width="364" height="52" fill="none" stroke="#000" stroke-width="2" rx="5"/><rect width="362" height="50" x="1" y="1" fill="#ccc" rx="4"/><rect width="352" height="40" x="6" y="4" fill="#fbfbfb" rx="5"/><text x="7" y="7" dominant-baseline="hanging" font-size="12"><tspan x="7" dy="0em">4,6</tspan></text><text x="357" y="42" font-size="12" text-anchor="end"><tspan x="357" dy="0em">0,0</tspan></text></g><g id="ac"><rect width="52" height="52" fill="none" stroke="#000" stroke-width="2" rx="5"/><rect width="50" height="50" x="1" y="1" fill="#aaa" rx="4"/><rect width="40" height="40" x="6" y="4" fill="#d0d0d0" rx="5"/><text x="7" y="7" dominant-baseline="hanging" font-size="12"><tspan x="7" dy="0em">9,3</tspan></text></g><g id="ad"><rect width="52" height="52" fill="none" stroke="#000" stroke-width="2" rx="5"/><rect width="50" height="50" x="1" y="1" fill="#aaa" rx="4"/><rect width="40" height="40" x="6" y="4" fill="#d0d0d0" rx="5"/><text x="7" y="7" dominant-baseline="hanging" font-size="12"><tspan x="7" dy="0em">9,4</tspan></text></g><g id="ae"><rect width="52" height="52" fill="none" stroke="#000" stroke-width="2" rx="5"/><rect width="50" height="50" x="1" y="1" fill="#aaa" rx="4"/><rect width="40" height="40" x="6" y="4" fill="#d0d0d0" rx="5"/><text x="7" y="7" dominant-baseline="hanging" font-size="12"><tspan x="7" dy="0em">9,5</tspan></text></g><g id="af"><rect width="104" height="52" fill="none" stroke="#000" stroke-width="2" rx="5"/><rect width="102" height="50" x="1" y="1" fill="#aaa" rx="4"/><rect width="92" height="40" x="6" y="4" fill="#d0d0d0" rx="5"/><text x="7" y="7" dominant-baseline="hanging" font-size="12"><tspan x="7" dy="0em">4,3</tspan></text><text x="97" y="42" font-size="12" text-anchor="end"><tspan x="97" dy="0em">0,1</tspan></text></g><g id="ag"><rect width="52" height="52" fill="none" stroke="#000" stroke-width="2" rx="5"/><rect width="50" height="50" x="1" y="1" fill="#aaa" rx="4"/><rect width="40" height="40" x="6" y="4" fill="#d0d0d0" rx="5"/><text x="7" y="7" dominant-baseline="hanging" font-size="12"><tspan x="7" dy="0em">4,5</tspan></text><text x="45" y="42" font-size="12" text-anchor="end"><tspan x="45" dy="0em">0,1</tspan></text></g><g id="ah"><rect width="52" height="52" fill="none" stroke="#000" stroke-width="2" rx="5"/><rect width="50" height="50" x="1" y="1" fill="#aaa" rx="4"/><rect width="40" height="40" x="6" y="4" fill="#d0d0d0" rx="5"/><text x="7" y="7" dominant-baseline="hanging" font-size="12"><tspan x="7" dy="0em">4,6</tspan></text><text x="45" y="42" font-size="12" text-anchor="end"><tspan x="45" dy="0em">0,1</tspan></text></g><g id="ai"><rect width="52" height="52" fill="none" stroke="#000" stroke-width="2" rx="5"/><rect width="50" height="50" x="1" y="1" fill="#aaa" rx="4"/><rect width="40" height="40" x="6" y="4" fill="#d0d0d0" rx="5"/><text x="7" y="7" dominant-baseline="hanging" font-size="12"><tspan x="7" dy="0em">9,0</tspan></text><text x="45" y="42" font-size="12" text-anchor="end"><tspan x="45" dy="0em">0,1</tspan></text></g><g id="aj"><rect width="104" height="52" fill="none" stroke="#000" stroke-width="2" rx="5"/><rect width="102" height="50" x="1" y="1" fill="#aaa" rx="4"/><rect width="92" height="40" x="6" y="4" fill="#d0d0d0" rx="5"/><text x="7" y="7" dominant-baseline="hanging" font-size="12"><tspan x="7" dy="0em">9,2</tspan></text><text x="97" y="42" font-size="12" text-anchor="end"><tspan x="97" dy="0em">0,1</tspan></text></g><g id="ak"><rect width="104" height="52" fill="none" stroke="#000" stroke-width="2" rx="5"/><rect width="102" height="50" x="1" y="1" fill="#aaa" rx="4"/><rect width="92" height="40" x="6" y="4" fill="#d0d0d0" rx="5"/><text x="7" y="7" dominant-baseline="hanging" font-size="12"><tspan x="7" dy="0em">4,3</tspan></text><text x="97" y="42" font-size="12" text-anchor="end"><tspan x="97" dy="0em">0,2</tspan></text></g><g id="al"><rect width="156" height="52" fill="none" stroke="#000" stroke-width="2" rx="5"/><rect width="154" height="50" x="1" y="1" fill="#aaa" rx="4"/><rect width="144" height="40" x="6" y="4" fill="#d0d0d0" rx="5"/><text x="7" y="7" dominant-baseline="hanging" font-size="12"><tspan x="7" dy="0em">4,6</tspan></text><text x="149" y="42" font-size="12" text-anchor="end"><tspan x="149" dy="0em">0,2</tspan></text></g><g id="am"><rect width="104" height="52" fill="none" stroke="#000" stroke-width="2" rx="5"/><rect width="102" height="50" x="1" y="1" fill="#aaa" rx="4"/><rect width="92" height="40" x="6" y="4" fill="#d0d0d0" rx="5"/><text x="7" y="7" dominant-baseline="hanging" font-size="12"><tspan x="7" dy="0em">9,2</tspan></text><text x="97" y="42" font-size="12" text-anchor="end"><tspan x="97" dy="0em">0,2</tspan></text></g><g id="an"><rect width="52" height="52" fill="none" stroke="#000" stroke-width="2" rx="5"/><rect width="50" height="50" x="1" y="1" fill="#aaa" rx="4"/><rect width="40" height="40" x="6" y="4" fill="#d0d0d0" rx="5"/><text x="7" y="7" dominant-baseline="hanging" font-size="12"><tspan x="7" dy="0em">4,3</tspan></text><text x="45" y="42" font-size="12" text-anchor="end"><tspan x="45" dy="0em">0,3</tspan></text></g><g id="ao"><rect width="52" height="52" fill="none" stroke="#000" stroke-width="2" rx="5"/><rect width="50" height="50" x="1" y="1" fill="#aaa" rx="4"/><rect width="40" height="40" x="6" y="4" fill="#d0d0d0" rx="5"/><text x="7" y="7" dominant-baseline="hanging" font-size="12"><tspan x="7" dy="0em">4,4</tspan></text><text x="45" y="42" font-size="12" text-anchor="end"><tspan x="45" dy="0em">0,3</tspan></text></g><g id="ap"><rect width="156" height="52" fill="none" stroke="#000" stroke-width="2" rx="5"/><rect width="154" height="50" x="1" y="1" fill="#aaa" rx="4"/><rect width="144" height="40" x="6" y="4" fill="#d0d0d0" rx="5"/><text x="7" y="7" dominant-baseline="hanging" font-size="12"><tspan x="7" dy="0em">4,6</tspan></text><text x="149" y="42" font-size="12" text-anchor="end"><tspan x="149" dy="0em">0,3</tspan></text></g><g id="aq"><rect width="52" height="52" fill="none" stroke="#000" stroke-width="2" rx="5"/><rect width="50" height="50" x="1" y="1" fill="#aaa" rx="4"/><rect width="40" height="40" x="6" y="4" fill="#d0d0d0" rx="5"/><text x="7" y="7" dominant-baseline="hanging" font-size="12"><tspan x="7" dy="0em">9,1</tspan></text><text x="45" y="42" font-size="12" text-anchor="end"><tspan x="45" dy="0em">0,3</tspan></text></g><g id="ar"><rect width="52" height="52" fill="none" stroke="#000" stroke-width="2" rx="5"/><rect width="50" height="50" x="1" y="1" fill="#aaa" rx="4"/><rect width="40" height="40" x="6" y="4" fill="#d0d0d0" rx="5"/><text x="7" y="7" dominant-baseline="hanging" font-size="12"><tspan x="7" dy="0em">9,2</tspan></text><text x="45" y="42" font-size="12" text-anchor="end"><tspan x="45" dy="0em">0,3</tspan></text></g><g id="as"><rect width="52" height="52" fill="none" stroke="#000" stroke-width="2" rx="5"/><rect width="50" height="50" x="1" y="1" fill="#aaa" rx="4"/><rect width="40" height="40" x="6" y="4" fill="#d0d0d0" rx="5"/><text x="7" y="7" dominant-baseline="hanging" font-size="12"><tspan x="7" dy="0em">4,3</tspan></text><text x="45" y="42" font-size="12" text-anchor="end"><tspan x="45" dy="0em">0,4</tspan></text></g><g id="at"><rect width="52" height="52" fill="none" stroke="#000" stroke-width="2" rx="5"/><rect width="50" height="50" x="1" y="1" fill="#aaa" rx="4"/><rect width="40" height="40" x="6" y="4" fill="#d0d0d0" rx="5"/><text x="7" y="7" dominant-baseline="hanging" font-size="12"><tspan x="7" dy="0em">4,4</tspan></text><text x="45" y="42" font-size="12" text-anchor="end"><tspan x="45" dy="0em">0,4</tspan></text></g><g id="au"><rect width="52" height="52" fill="none" stroke="#000" stroke-width="2" rx="5"/><rect width="50" height="50" x="1" y="1" fill="#aaa" rx="4"/><rect width="40" height="40" x="6" y="4" fill="#d0d0d0" rx="5"/><text x="7" y="7" dominant-baseline="hanging" font-size="12"><tspan x="7" dy="0em">4,5</tspan></text><text x="45" y="42" font-size="12" text-anchor="end"><tspan x="45" dy="0em">0,4</tspan></text></g><g id="av"><rect width="52" height="52" fill="none" stroke="#000" stroke-width="2" rx="5"/><rect width="50" height="50" x="1" y="1" fill="#aaa" rx="4"/><rect width="40" height="40" x="6" y="4" fill="#d0d0d0" rx="5"/><text x="7" y="7" dominant-baseline="hanging" font-size="12"><tspan x="7" dy="0em">4,6</tspan></text><text x="45" y="42" font-size="12" text-anchor="end"><tspan x="45" dy="0em">0,4</tspan></text></g><g id="aw"><rect width="52" height="52" fill="none" stroke="#000" stroke-width="2" rx="5"/><rect width="50" height="50" x="1" y="1" fill="#aaa" rx="4"/><rect width="40" height="40" x="6" y="4" fill="#d0d0d0" rx="5"/><text x="7" y="7" dominant-baseline="hanging" font-size="12"><tspan x="7" dy="0em">9,0</tspan></text><text x="45" y="42" font-size="12" text-anchor="end"><tspan x="45" dy="0em">0,4</tspan></text></g><g id="ax"><rect width="52" height="52" fill="none" stroke="#000" stroke-width="2" rx="5"/><rect width="50" height="50" x="1" y="1" fill="#aaa" rx="4"/><rect width="40" height="40" x="6" y="4" fill="#d0d0d0" rx="5"/><text x="7" y="7" dominant-baseline="hanging" font-size="12"><tspan x="7" dy="0em">9,1</tspan></text><text x="45" y="42" font-size="12" text-anchor="end"><tspan x="45" dy="0em">0,4</tspan></text></g><g id="ay"><rect width="52" height="52" fill="none" stroke="#000" stroke-width="2" rx="5"/><rect width="50" height="50" x="1" y="1" fill="#aaa" rx="4"/><rect width="40" height="40" x="6" y="4" fill="#d0d0d0" rx="5"/><text x="7" y="7" dominant-baseline="hanging" font-size="12"><tspan x="7" dy="0em">9,2</tspan></text><text x="45" y="42" font-size="12" text-anchor="end"><tspan x="45" dy="0em">0,4</tspan></text></g><g id="az"><rect width="52" height="52" fill="none" stroke="#000" stroke-width="2" rx="5"/><rect width="50" height="50" x="1" y="1" fill="#aaa" rx="4"/><rect width="40" height="40" x="6" y="4" fill="#d0d0d0" rx="5"/><text x="7" y="7" dominant-baseline="hanging" font-size="12"><tspan x="7" dy="0em">4,3</tspan></text><text x="45" y="42" font-size="12" text-anchor="end"><tspan x="45" dy="0em">0,5</tspan></text></g><g id="aA"><rect width="104" height="52" fill="none" stroke="#000" stroke-width="2" rx="5"/><rect width="102" height="50" x="1" y="1" fill="#aaa" rx="4"/><rect width="92" height="40" x="6" y="4" fill="#d0d0d0" rx="5"/><text x="7" y="7" dominant-baseline="hanging" font-size="12"><tspan x="7" dy="0em">4,4</tspan></text><text x="97" y="42" font-size="12" text-anchor="end"><tspan x="97" dy="0em">0,5</tspan></text></g><g id="aB"><rect width="52" height="52" fill="none" stroke="#000" stroke-width="2" rx="5"/><rect width="50" height="50" x="1" y="1" fill="#aaa" rx="4"/><rect width="40" height="40" x="6" y="4" fill="#d0d0d0" rx="5"/><text x="7" y="7" dominant-baseline="hanging" font-size="12"><tspan x="7" dy="0em">4,6</tspan></text><text x="45" y="42" font-size="12" text-anchor="end"><tspan x="45" dy="0em">0,5</tspan></text></g><g id="aC"><rect width="104" height="52" fill="none" stroke="#000" stroke-width="2" rx="5"/><rect width="102" height="50" x="1" y="1" fill="#aaa" rx="4"/><rect width="92" height="40" x="6" y="4" fill="#d0d0d0" rx="5"/><text x="7" y="7" dominant-baseline="hanging" font-size="12"><tspan x="7" dy="0em">9,1</tspan></text><text x="97" y="42" font-size="12" text-anchor="end"><tspan x="97" dy="0em">0,5</tspan></text></g><g id="aD"><rect width="52" height="52" fill="none" stroke="#000" stroke-width="2" rx="5"/><rect width="50" height="50" x="1" y="1" fill="#aaa" rx="4"/><rect width="40" height="40" x="6" y="4" fill="#d0d0d0" rx="5"/><text x="7" y="7" dominant-baseline="hanging" font-size="12"><tspan x="7" dy="0em">9,2</tspan></text><text x="45" y="42" font-size="12" text-anchor="end"><tspan x="45" dy="0em">0,5</tspan></text></g></defs><use xlink:href="#a" x="4" y="17"/><use xlink:href="#b" x="56" y="17"/><use xlink:href="#c" x="108" y="17"/><use xlink:href="#d" x="160" y="17"/><use xlink:href="#e" x="212" y="17"/><use xlink:href="#f" x="264" y="17"/><use xlink:href="#g" x="394" y="17"/><use xlink:href="#h" x="446" y="17"/><use xlink:href="#i" x="498" y="17"/><use xlink:href="#j" x="550" y="17"/><use xlink:href="#k" x="602" y="17"/><use xlink:href="#l" x="654" y="17"/><use xlink:href="#m" x="4" y="69"/><use xlink:href="#n" x="56" y="69"/><use xlink:href="#o" x="108" y="69"/><use xlink:href="#p" x="160" y="69"/><use xlink:href="#q" x="212" y="69"/><use xlink:href="#r" x="264" y="69"/><use xlink:href="#s" x="394" y="69"/><use xlink:href="#t" x="446" y="69"/><use xlink:href="#u" x="498" y="69"/><use xlink:href="#v" x="550" y="69"/><use xlink:href="#w" x="602" y="69"/><use xlink:href="#x" x="654" y="69"/><use xlink:href="#y" x="329" y="110.34"/><use xlink:href="#z" x="4" y="121"/><use xlink:href="#A" x="56" y="121"/><use xlink:href="#B" x="108" y="121"/><use xlink:href="#C" x="160" y="121"/><use xlink:href="#D" x="212" y="121"/><use xlink:href="#E" x="264" y="121"/><use xlink:href="#F" x="394" y="121"/><use xlink:href="#G" x="446" y="121"/><use xlink:href="#H" x="498" y="121"/><use xlink:href="#I" x="550" y="121"/><use xlink:href="#J" x="602" y="121"/><use xlink:href="#K" x="654" y="121"/><use xlink:href="#L" x="329" y="162.34"/><use xlink:href="#M" x="4" y="173"/><use xlink:href="#N" x="56" y="173"/><use xlink:href="#O" x="108" y="173"/><use xlink:href="#P" x="160" y="173"/><use xlink:href="#Q" x="212" y="173"/><use xlink:href="#R" x="264" y="173"/><use xlink:href="#S" x="394" y="173"/><use xlink:href="#T" x="446" y="173"/><use xlink:href="#U" x="498" y="173"/><use xlink:href="#V" x="550" y="173"/><use xlink:href="#W" x="602" y="173"/><use xlink:href="#X" x="654" y="173"/><use xlink:href="#Y" x="17" y="225"/><use xlink:href="#Z" x="69" y="225"/><use xlink:href="#aa" x="121" y="225"/><use xlink:href="#ab" x="173" y="225"/><use xlink:href="#ac" x="537" y="225"/><use xlink:href="#ad" x="589" y="225"/><use xlink:href="#ae" x="641" y="225"/><use xlink:href="#af" x="173" y="290"/><use xlink:href="#ag" x="277" y="290"/><use xlink:href="#ah" x="329" y="290"/><use xlink:href="#ai" x="381" y="290"/><use xlink:href="#aj" x="433" y="290"/><use xlink:href="#ak" x="173" y="342"/><use xlink:href="#al" x="277" y="342"/><use xlink:href="#am" x="433" y="342"/><use xlink:href="#an" x="173" y="394"/><use xlink:href="#ao" x="225" y="394"/><use xlink:href="#ap" x="277" y="394"/><use xlink:href="#aq" x="433" y="394"/><use xlink:href="#ar" x="485" y="394"/><use xlink:href="#as" x="173" y="446"/><use xlink:href="#at" x="225" y="446"/><use xlink:href="#au" x="277" y="446"/><use xlink:href="#av" x="329" y="446"/><use xlink:href="#aw" x="381" y="446"/><use xlink:href="#ax" x="433" y="446"/><use xlink:href="#ay" x="485" y="446"/><use xlink:href="#az" x="173" y="498"/><use xlink:href="#aA" x="225" y="498"/><use xlink:href="#aB" x="329" y="498"/><use xlink:href="#aC" x="381" y="498"/><use xlink:href="#aD" x="485" y="498"/></svg>