<?xml version="1.0" encoding="UTF-8"?>
<svg xmlns="http://www.w3.org/2000/svg" xmlns:xlink="http://www.w3.org/1999/xlink"
     width="840" height="351" viewBox="0 0 840 351">
<defs>
<g id="d0">
<rect x="0" y="0" width="52" height="52" rx="5" fill="none" stroke="black" stroke-width="2" />
<rect x="1" y="1" width="50" height="50" rx="5" fill="#cccccc" />
<rect x="6" y="4" width="40" height="40" rx="5" fill="#fbfbfb" />
<text x="7" y="5" font-size="12" text-anchor="start" dominant-baseline="hanging"><tspan x="7" dy="0em">0,3</tspan></text>
</g>
<g id="d1">
<rect x="0" y="0" width="52" height="52" rx="5" fill="none" stroke="black" stroke-width="2" />
<rect x="1" y="1" width="50" height="50" rx="5" fill="#cccccc" />
<rect x="6" y="4" width="40" height="40" rx="5" fill="#fbfbfb" />
<text x="7" y="5" font-size="12" text-anchor="start" dominant-baseline="hanging"><tspan x="7" dy="0em">5,3</tspan></text>
</g>
<g id="d2">
<rect x="0" y="0" width="52" height="52" rx="5" fill="none" stroke="black" stroke-width="2" />
<rect x="1" y="1" width="50" height="50" rx="5" fill="#cccccc" />
<rect x="6" y="4" width="40" height="40" rx="5" fill="#fbfbfb" />
<text x="7" y="5" font-size="12" text-anchor="start" dominant-baseline="hanging"><tspan x="7" dy="0em">0,2</tspan></text>
</g>
<g id="d3">
<rect x="0" y="0" width="52" height="52" rx="5" fill="none" stroke="black" stroke-width="2" />
<rect x="1" y="1" width="50" height="50" rx="5" fill="#cccccc" />
<rect x="6" y="4" width="40" height="40" rx="5" fill="#fbfbfb" />
<text x="7" y="5" font-size="12" text-anchor="start" dominant-baseline="hanging"><tspan x="7" dy="0em">0,4</tspan></text>
</g>
<g id="d4">
<rect x="0" y="0" width="52" height="52" rx="5" fill="none" stroke="black" stroke-width="2" />
<rect x="1" y="1" width="50" height="50" rx="5" fill="#cccccc" />
<rect x="6" y="4" width="40" height="40" rx="5" fill="#fbfbfb" />
<text x="7" y="5" font-size="12" text-anchor="start" dominant-baseline="hanging"><tspan x="7" dy="0em">5,4</tspan></text>
</g>
<g id="d5">
<rect x="0" y="0" width="52" height="52" rx="5" fill="none" stroke="black" stroke-width="2" />
<rect x="1" y="1" width="50" height="50" rx="5" fill="#cccccc" />
<rect x="6" y="4" width="40" height="40" rx="5" fill="#fbfbfb" />
<text x="7" y="5" font-size="12" text-anchor="start" dominant-baseline="hanging"><tspan x="7" dy="0em">5,2</tspan></text>
</g>
<g id="d6">
<rect x="0" y="0" width="52" height="52" rx="5" fill="none" stroke="black" stroke-width="2" />
<rect x="1" y="1" width="50" height="50" rx="5" fill="#cccccc" />
<rect x="6" y="4" width="40" height="40" rx="5" fill="#fbfbfb" />
<text x="7" y="5" font-size="12" text-anchor="start" dominant-baseline="hanging"><tspan x="7" dy="0em">0,5</tspan></text>
</g>
<g id="d7">
<rect x="0" y="0" width="52" height="52" rx="5" fill="none" stroke="black" stroke-width="2" />
<rect x="1" y="1" width="50" height="50" rx="5" fill="#cccccc" />
<rect x="6" y="4" width="40" height="40" rx="5" fill="#fbfbfb" />
<text x="7" y="5" font-size="12" text-anchor="start" dominant-baseline="hanging"><tspan x="7" dy="0em">5,5</tspan></text>
</g>
<g id="d8">
<rect x="0" y="0" width="52" height="52" rx="5" fill="none" stroke="black" stroke-width="2" />
<rect x="1" y="1" width="50" height="50" rx="5" fill="#777777" />
<rect x="6" y="4" width="40" height="40" rx="5" fill="#919191" />
<text x="7" y="5" font-size="12" text-anchor="start" dominant-baseline="hanging"><tspan x="7" dy="0em">0,0</tspan></text>
</g>
<g id="d9">
<rect x="0" y="0" width="52" height="52" rx="5" fill="none" stroke="black" stroke-width="2" />
<rect x="1" y="1" width="50" height="50" rx="5" fill="#cccccc" />
<rect x="6" y="4" width="40" height="40" rx="5" fill="#fbfbfb" />
<text x="7" y="5" font-size="12" text-anchor="start" dominant-baseline="hanging"><tspan x="7" dy="0em">0,1</tspan></text>
</g>
<g id="d10">
<rect x="0" y="0" width="52" height="52" rx="5" fill="none" stroke="black" stroke-width="2" />
<rect x="1" y="1" width="50" height="50" rx="5" fill="#cccccc" />
<rect x="6" y="4" width="40" height="40" rx="5" fill="#fbfbfb" />
<text x="7" y="5" font-size="12" text-anchor="start" dominant-baseline="hanging"><tspan x="7" dy="0em">5,1</tspan></text>
</g>
<g id="d11">
<rect x="0" y="0" width="52" height="52" rx="5" fill="none" stroke="black" stroke-width="2" />
<rect x="1" y="1" width="50" height="50" rx="5" fill="#aaaaaa" />
<rect x="6" y="4" width="40" height="40" rx="5" fill="#d0d0d0" />
<text x="7" y="5" font-size="12" text-anchor="start" dominant-baseline="hanging"><tspan x="7" dy="0em">5,0</tspan></text>
</g>
<g id="d12">
<rect x="0" y="0" width="52" height="52" rx="5" fill="none" stroke="black" stroke-width="2" />
<rect x="1" y="1" width="50" height="50" rx="5" fill="#cccccc" />
<rect x="6" y="4" width="40" height="40" rx="5" fill="#fbfbfb" />
<text x="7" y="5" font-size="12" text-anchor="start" dominant-baseline="hanging"><tspan x="7" dy="0em">1,3</tspan></text>
</g>
<g id="d13">
<rect x="0" y="0" width="52" height="52" rx="5" fill="none" stroke="black" stroke-width="2" />
<rect x="1" y="1" width="50" height="50" rx="5" fill="#cccccc" />
<rect x="6" y="4" width="40" height="40" rx="5" fill="#fbfbfb" />
<text x="7" y="5" font-size="12" text-anchor="start" dominant-baseline="hanging"><tspan x="7" dy="0em">6,3</tspan></text>
</g>
<g id="d14">
<rect x="0" y="0" width="52" height="52" rx="5" fill="none" stroke="black" stroke-width="2" />
<rect x="1" y="1" width="50" height="50" rx="5" fill="#cccccc" />
<rect x="6" y="4" width="40" height="40" rx="5" fill="#fbfbfb" />
<text x="7" y="5" font-size="12" text-anchor="start" dominant-baseline="hanging"><tspan x="7" dy="0em">1,2</tspan></text>
</g>
<g id="d15">
<rect x="0" y="0" width="52" height="52" rx="5" fill="none" stroke="black" stroke-width="2" />
<rect x="1" y="1" width="50" height="50" rx="5" fill="#cccccc" />
<rect x="6" y="4" width="40" height="40" rx="5" fill="#fbfbfb" />
<text x="7" y="5" font-size="12" text-anchor="start" dominant-baseline="hanging"><tspan x="7" dy="0em">1,4</tspan></text>
</g>
<g id="d16">
<rect x="0" y="0" width="52" height="52" rx="5" fill="none" stroke="black" stroke-width="2" />
<rect x="1" y="1" width="50" height="50" rx="5" fill="#cccccc" />
<rect x="6" y="4" width="40" height="40" rx="5" fill="#fbfbfb" />
<text x="7" y="5" font-size="12" text-anchor="start" dominant-baseline="hanging"><tspan x="7" dy="0em">6,4</tspan></text>
</g>
<g id="d17">
<rect x="0" y="0" width="52" height="52" rx="5" fill="none" stroke="black" stroke-width="2" />
<rect x="1" y="1" width="50" height="50" rx="5" fill="#cccccc" />
<rect x="6" y="4" width="40" height="40" rx="5" fill="#fbfbfb" />
<text x="7" y="5" font-size="12" text-anchor="start" dominant-baseline="hanging"><tspan x="7" dy="0em">6,2</tspan></text>
</g>
<g id="d18">
<rect x="0" y="0" width="52" height="52" rx="5" fill="none" stroke="black" stroke-width="2" />
<rect x="1" y="1" width="50" height="50" rx="5" fill="#cccccc" />
<rect x="6" y="4" width="40" height="40" rx="5" fill="#fbfbfb" />
<text x="7" y="5" font-size="12" text-anchor="start" dominant-baseline="hanging"><tspan x="7" dy="0em">1,5</tspan></text>
</g>
<g id="d19">
<rect x="0" y="0" width="52" height="52" rx="5" fill="none" stroke="black" stroke-width="2" />
<rect x="1" y="1" width="50" height="50" rx="5" fill="#cccccc" />
<rect x="6" y="4" width="40" height="40" rx="5" fill="#fbfbfb" />
<text x="7" y="5" font-size="12" text-anchor="start" dominant-baseline="hanging"><tspan x="7" dy="0em">6,5</tspan></text>
</g>
<g id="d20">
<rect x="0" y="0" width="52" height="52" rx="5" fill="none" stroke="black" stroke-width="2" />
<rect x="1" y="1" width="50" height="50" rx="5" fill="#aaaaaa" />
<rect x="6" y="4" width="40" height="40" rx="5" fill="#d0d0d0" />
<text x="7" y="5" font-size="12" text-anchor="start" dominant-baseline="hanging"><tspan x="7" dy="0em">1,0</tspan></text>
</g>
<g id="d21">
<rect x="0" y="0" width="52" height="52" rx="5" fill="none" stroke="black" stroke-width="2" />
<rect x="1" y="1" width="50" height="50" rx="5" fill="#cccccc" />
<rect x="6" y="4" width="40" height="40" rx="5" fill="#fbfbfb" />
<text x="7" y="5" font-size="12" text-anchor="start" dominant-baseline="hanging"><tspan x="7" dy="0em">1,1</tspan></text>
</g>
<g id="d22">
<rect x="0" y="0" width="52" height="52" rx="5" fill="none" stroke="black" stroke-width="2" />
<rect x="1" y="1" width="50" height="50" rx="5" fill="#cccccc" />
<rect x="6" y="4" width="40" height="40" rx="5" fill="#fbfbfb" />
<text x="7" y="5" font-size="12" text-anchor="start" dominant-baseline="hanging"><tspan x="7" dy="0em">6,1</tspan></text>
</g>
<g id="d23">
<rect x="0" y="0" width="52" height="52" rx="5" fill="none" stroke="black" stroke-width="2" />
<rect x="1" y="1" width="50" height="50" rx="5" fill="#aaaaaa" />
<rect x="6" y="4" width="40" height="40" rx="5" fill="#d0d0d0" />
<text x="7" y="5" font-size="12" text-anchor="start" dominant-baseline="hanging"><tspan x="7" dy="0em">6,0</tspan></text>
</g>
<g id="d24">
<rect x="0" y="0" width="52" height="52" rx="5" fill="none" stroke="black" stroke-width="2" />
<rect x="1" y="1" width="50" height="50" rx="5" fill="#cccccc" />
<rect x="6" y="4" width="40" height="40" rx="5" fill="#fbfbfb" />
<text x="7" y="5" font-size="12" text-anchor="start" dominant-baseline="hanging"><tspan x="7" dy="0em">2,3</tspan></text>
</g>
<g id="d25">
<rect x="0" y="0" width="52" height="52" rx="5" fill="none" stroke="black" stroke-width="2" />
<rect x="1" y="1" width="50" height="50" rx="5" fill="#cccccc" />
<rect x="6" y="4" width="40" height="40" rx="5" fill="#fbfbfb" />
<text x="7" y="5" font-size="12" text-anchor="start" dominant-baseline="hanging"><tspan x="7" dy="0em">7,3</tspan></text>
</g>
<g id="d26">
<rect x="0" y="0" width="52" height="52" rx="5" fill="none" stroke="black" stroke-width="2" />
<rect x="1" y="1" width="50" height="50" rx="5" fill="#cccccc" />
<rect x="6" y="4" width="40" height="40" rx="5" fill="#fbfbfb" />
<text x="7" y="5" font-size="12" text-anchor="start" dominant-baseline="hanging"><tspan x="7" dy="0em">2,2</tspan></text>
</g>
<g id="d27">
<rect x="0" y="0" width="52" height="52" rx="5" fill="none" stroke="black" stroke-width="2" />
<rect x="1" y="1" width="50" height="50" rx="5" fill="#cccccc" />
<rect x="6" y="4" width="40" height="40" rx="5" fill="#fbfbfb" />
<text x="7" y="5" font-size="12" text-anchor="start" dominant-baseline="hanging"><tspan x="7" dy="0em">2,4</tspan></text>
</g>
<g id="d28">
<rect x="0" y="0" width="52" height="52" rx="5" fill="none" stroke="black" stroke-width="2" />
<rect x="1" y="1" width="50" height="50" rx="5" fill="#cccccc" />
<rect x="6" y="4" width="40" height="40" rx="5" fill="#fbfbfb" />
<text x="7" y="5" font-size="12" text-anchor="start" dominant-baseline="hanging"><tspan x="7" dy="0em">7,4</tspan></text>
</g>
<g id="d29">
<rect x="0" y="0" width="52" height="52" rx="5" fill="none" stroke="black" stroke-width="2" />
<rect x="1" y="1" width="50" height="50" rx="5" fill="#cccccc" />
<rect x="6" y="4" width="40" height="40" rx="5" fill="#fbfbfb" />
<text x="7" y="5" font-size="12" text-anchor="start" dominant-baseline="hanging"><tspan x="7" dy="0em">7,2</tspan></text>
</g>
<g id="d30">
<rect x="0" y="0" width="52" height="52" rx="5" fill="none" stroke="black" stroke-width="2" />
<rect x="1" y="1" width="50" height="50" rx="5" fill="#cccccc" />
<rect x="6" y="4" width="40" height="40" rx="5" fill="#fbfbfb" />
<text x="7" y="5" font-size="12" text-anchor="start" dominant-baseline="hanging"><tspan x="7" dy="0em">2,5</tspan></text>
</g>
<g id="d31">
<rect x="0" y="0" width="52" height="52" rx="5" fill="none" stroke="black" stroke-width="2" />
<rect x="1" y="1" width="50" height="50" rx="5" fill="#cccccc" />
<rect x="6" y="4" width="40" height="40" rx="5" fill="#fbfbfb" />
<text x="7" y="5" font-size="12" text-anchor="start" dominant-baseline="hanging"><tspan x="7" dy="0em">7,5</tspan></text>
</g>
<g id="d32">
<rect x="0" y="0" width="52" height="52" rx="5" fill="none" stroke="black" stroke-width="2" />
<rect x="1" y="1" width="50" height="50" rx="5" fill="#aaaaaa" />
<rect x="6" y="4" width="40" height="40" rx="5" fill="#d0d0d0" />
<text x="7" y="5" font-size="12" text-anchor="start" dominant-baseline="hanging"><tspan x="7" dy="0em">2,0</tspan></text>
</g>
<g id="d33">
<rect x="0" y="0" width="52" height="52" rx="5" fill="none" stroke="black" stroke-width="2" />
<rect x="1" y="1" width="50" height="50" rx="5" fill="#cccccc" />
<rect x="6" y="4" width="40" height="40" rx="5" fill="#fbfbfb" />
<text x="7" y="5" font-size="12" text-anchor="start" dominant-baseline="hanging"><tspan x="7" dy="0em">2,1</tspan></text>
</g>
<g id="d34">
<rect x="0" y="0" width="52" height="52" rx="5" fill="none" stroke="black" stroke-width="2" />
<rect x="1" y="1" width="50" height="50" rx="5" fill="#cccccc" />
<rect x="6" y="4" width="40" height="40" rx="5" fill="#fbfbfb" />
<text x="7" y="5" font-size="12" text-anchor="start" dominant-baseline="hanging"><tspan x="7" dy="0em">7,1</tspan></text>
</g>
<g id="d35">
<rect x="0" y="0" width="52" height="52" rx="5" fill="none" stroke="black" stroke-width="2" />
<rect x="1" y="1" width="50" height="50" rx="5" fill="#aaaaaa" />
<rect x="6" y="4" width="40" height="40" rx="5" fill="#d0d0d0" />
<text x="7" y="5" font-size="12" text-anchor="start" dominant-baseline="hanging"><tspan x="7" dy="0em">7,0</tspan></text>
</g>
<g id="d36">
<rect x="0" y="0" width="52" height="52" rx="5" fill="none" stroke="black" stroke-width="2" />
<rect x="1" y="1" width="50" height="50" rx="5" fill="#cccccc" />
<rect x="6" y="4" width="40" height="40" rx="5" fill="#fbfbfb" />
<text x="7" y="5" font-size="12" text-anchor="start" dominant-baseline="hanging"><tspan x="7" dy="0em">3,3</tspan></text>
</g>
<g id="d37">
<rect x="0" y="0" width="52" height="52" rx="5" fill="none" stroke="black" stroke-width="2" />
<rect x="1" y="1" width="50" height="50" rx="5" fill="#cccccc" />
<rect x="6" y="4" width="40" height="40" rx="5" fill="#fbfbfb" />
<text x="7" y="5" font-size="12" text-anchor="start" dominant-baseline="hanging"><tspan x="7" dy="0em">8,3</tspan></text>
</g>
<g id="d38">
<rect x="0" y="0" width="52" height="52" rx="5" fill="none" stroke="black" stroke-width="2" />
<rect x="1" y="1" width="50" height="50" rx="5" fill="#cccccc" />
<rect x="6" y="4" width="40" height="40" rx="5" fill="#fbfbfb" />
<text x="7" y="5" font-size="12" text-anchor="start" dominant-baseline="hanging"><tspan x="7" dy="0em">3,2</tspan></text>
</g>
<g id="d39">
<rect x="0" y="0" width="52" height="52" rx="5" fill="none" stroke="black" stroke-width="2" />
<rect x="1" y="1" width="50" height="50" rx="5" fill="#cccccc" />
<rect x="6" y="4" width="40" height="40" rx="5" fill="#fbfbfb" />
<text x="7" y="5" font-size="12" text-anchor="start" dominant-baseline="hanging"><tspan x="7" dy="0em">3,4</tspan></text>
</g>
<g id="d40">
<rect x="0" y="0" width="52" height="52" rx="5" fill="none" stroke="black" stroke-width="2" />
<rect x="1" y="1" width="50" height="50" rx="5" fill="#cccccc" />
<rect x="6" y="4" width="40" height="40" rx="5" fill="#fbfbfb" />
<text x="7" y="5" font-size="12" text-anchor="start" dominant-baseline="hanging"><tspan x="7" dy="0em">8,4</tspan></text>
</g>
<g id="d41">
<rect x="0" y="0" width="52" height="52" rx="5" fill="none" stroke="black" stroke-width="2" />
<rect x="1" y="1" width="50" height="50" rx="5" fill="#cccccc" />
<rect x="6" y="4" width="40" height="40" rx="5" fill="#fbfbfb" />
<text x="7" y="5" font-size="12" text-anchor="start" dominant-baseline="hanging"><tspan x="7" dy="0em">8,2</tspan></text>
</g>
<g id="d42">
<rect x="0" y="0" width="52" height="52" rx="5" fill="none" stroke="black" stroke-width="2" />
<rect x="1" y="1" width="50" height="50" rx="5" fill="#cccccc" />
<rect x="6" y="4" width="40" height="40" rx="5" fill="#fbfbfb" />
<text x="7" y="5" font-size="12" text-anchor="start" dominant-baseline="hanging"><tspan x="7" dy="0em">3,5</tspan></text>
</g>
<g id="d43">
<rect x="0" y="0" width="52" height="52" rx="5" fill="none" stroke="black" stroke-width="2" />
<rect x="1" y="1" width="50" height="50" rx="5" fill="#cccccc" />
<rect x="6" y="4" width="40" height="40" rx="5" fill="#fbfbfb" />
<text x="7" y="5" font-size="12" text-anchor="start" dominant-baseline="hanging"><tspan x="7" dy="0em">8,5</tspan></text>
</g>
<g id="d44">
<rect x="0" y="0" width="52" height="52" rx="5" fill="none" stroke="black" stroke-width="2" />
<rect x="1" y="1" width="50" height="50" rx="5" fill="#aaaaaa" />
<rect x="6" y="4" width="40" height="40" rx="5" fill="#d0d0d0" />
<text x="7" y="5" font-size="12" text-anchor="start" dominant-baseline="hanging"><tspan x="7" dy="0em">3,0</tspan></text>
</g>
<g id="d45">
<rect x="0" y="0" width="52" height="52" rx="5" fill="none" stroke="black" stroke-width="2" />
<rect x="1" y="1" width="50" height="50" rx="5" fill="#cccccc" />
<rect x="6" y="4" width="40" height="40" rx="5" fill="#fbfbfb" />
<text x="7" y="5" font-size="12" text-anchor="start" dominant-baseline="hanging"><tspan x="7" dy="0em">3,1</tspan></text>
</g>
<g id="d46">
<rect x="0" y="0" width="52" height="52" rx="5" fill="none" stroke="black" stroke-width="2" />
<rect x="1" y="1" width="50" height="50" rx="5" fill="#cccccc" />
<rect x="6" y="4" width="40" height="40" rx="5" fill="#fbfbfb" />
<text x="7" y="5" font-size="12" text-anchor="start" dominant-baseline="hanging"><tspan x="7" dy="0em">8,1</tspan></text>
</g>
<g id="d47">
<rect x="0" y="0" width="52" height="52" rx="5" fill="none" stroke="black" stroke-width="2" />
<rect x="1" y="1" width="50" height="50" rx="5" fill="#aaaaaa" />
<rect x="6" y="4" width="40" height="40" rx="5" fill="#d0d0d0" />
<text x="7" y="5" font-size="12" text-anchor="start" dominant-baseline="hanging"><tspan x="7" dy="0em">8,0</tspan></text>
</g>
<g id="d48">
<rect x="0" y="0" width="52" height="52" rx="5" fill="none" stroke="black" stroke-width="2" />
<rect x="1" y="1" width="50" height="50" rx="5" fill="#aaaaaa" />
<rect x="6" y="4" width="40" height="40" rx="5" fill="#d0d0d0" />
<text x="7" y="5" font-size="12" text-anchor="start" dominant-baseline="hanging"><tspan x="7" dy="0em">4,2</tspan></text>
</g>
<g id="d49">
<rect x="0" y="0" width="52" height="52" rx="5" fill="none" stroke="black" stroke-width="2" />
<rect x="1" y="1" width="50" height="50" rx="5" fill="#aaaaaa" />
<rect x="6" y="4" width="40" height="40" rx="5" fill="#d0d0d0" />
<text x="7" y="5" font-size="12" text-anchor="start" dominant-baseline="hanging"><tspan x="7" dy="0em">9,2</tspan></text>
</g>
<g id="d50">
<rect x="0" y="0" width="52" height="52" rx="5" fill="none" stroke="black" stroke-width="2" />
<rect x="1" y="1" width="50" height="50" rx="5" fill="#aaaaaa" />
<rect x="6" y="4" width="40" height="40" rx="5" fill="#d0d0d0" />
<text x="7" y="5" font-size="12" text-anchor="start" dominant-baseline="hanging"><tspan x="7" dy="0em">4,3</tspan></text>
</g>
<g id="d51">
<rect x="0" y="0" width="52" height="52" rx="5" fill="none" stroke="black" stroke-width="2" />
<rect x="1" y="1" width="50" height="50" rx="5" fill="#aaaaaa" />
<rect x="6" y="4" width="40" height="40" rx="5" fill="#d0d0d0" />
<text x="7" y="5" font-size="12" text-anchor="start" dominant-baseline="hanging"><tspan x="7" dy="0em">9,3</tspan></text>
</g>
<g id="d52">
<rect x="0" y="0" width="52" height="52" rx="5" fill="none" stroke="black" stroke-width="2" />
<rect x="1" y="1" width="50" height="50" rx="5" fill="#777777" />
<rect x="6" y="4" width="40" height="40" rx="5" fill="#919191" />
<text x="7" y="5" font-size="12" text-anchor="start" dominant-baseline="hanging"><tspan x="7" dy="0em">4,5</tspan></text>
<text x="45" y="42" font-size="12" text-anchor="end" dominant-baseline="auto"><tspan x="45" dy="0em">0,0</tspan></text>
</g>
<g id="d53">
<rect x="0" y="0" width="52" height="104" rx="5" fill="none" stroke="black" stroke-width="2" />
<rect x="1" y="1" width="50" height="102" rx="5" fill="#777777" />
<rect x="6" y="4" width="40" height="92" rx="5" fill="#919191" />
<text x="7" y="5" font-size="12" text-anchor="start" dominant-baseline="hanging"><tspan x="7" dy="0em">4,5</tspan></text>
<text x="45" y="94" font-size="12" text-anchor="end" dominant-baseline="auto"><tspan x="45" dy="0em">0,1</tspan></text>
</g>
<g id="d54">
<rect x="0" y="0" width="52" height="52" rx="5" fill="none" stroke="black" stroke-width="2" />
<rect x="1" y="1" width="50" height="50" rx="5" fill="#777777" />
<rect x="6" y="4" width="40" height="40" rx="5" fill="#919191" />
<text x="7" y="5" font-size="12" text-anchor="start" dominant-baseline="hanging"><tspan x="7" dy="0em">4,4</tspan></text>
<text x="45" y="42" font-size="12" text-anchor="end" dominant-baseline="auto"><tspan x="45" dy="0em">0,0</tspan></text>
</g>
<g id="d55">
<rect x="0" y="0" width="52" height="104" rx="5" fill="none" stroke="black" stroke-width="2" />
<rect x="1" y="1" width="50" height="102" rx="5" fill="#777777" />
<rect x="6" y="4" width="40" height="92" rx="5" fill="#919191" />
<text x="7" y="5" font-size="12" text-anchor="start" dominant-baseline="hanging"><tspan x="7" dy="0em">9,4</tspan></text>
<text x="45" y="94" font-size="12" text-anchor="end" dominant-baseline="auto"><tspan x="45" dy="0em">1,1</tspan></text>
</g>
<g id="d56">
<rect x="0" y="0" width="52" height="52" rx="5" fill="none" stroke="black" stroke-width="2" />
<rect x="1" y="1" width="50" height="50" rx="5" fill="#777777" />
<rect x="6" y="4" width="40" height="40" rx="5" fill="#919191" />
<text x="7" y="5" font-size="12" text-anchor="start" dominant-baseline="hanging"><tspan x="7" dy="0em">9,5</tspan></text>
<text x="45" y="42" font-size="12" text-anchor="end" dominant-baseline="auto"><tspan x="45" dy="0em">1,0</tspan></text>
</g>
<g id="d57">
<rect x="0" y="0" width="52" height="52" rx="5" fill="none" stroke="black" stroke-width="2" />
<rect x="1" y="1" width="50" height="50" rx="5" fill="#777777" />
<rect x="6" y="4" width="40" height="40" rx="5" fill="#919191" />
<text x="7" y="5" font-size="12" text-anchor="start" dominant-baseline="hanging"><tspan x="7" dy="0em">9,4</tspan></text>
<text x="45" y="42" font-size="12" text-anchor="end" dominant-baseline="auto"><tspan x="45" dy="0em">1,0</tspan></text>
</g>
</defs>
<use xlink:href="#d0" x="160" y="4" />
<use xlink:href="#d1" x="628" y="4" />
<use xlink:href="#d2" x="108" y="10.5" />
<use xlink:href="#d3" x="212" y="10.5" />
<use xlink:href="#d4" x="576" y="10.5" />
<use xlink:href="#d5" x="680" y="10.5" />
<use xlink:href="#d6" x="264" y="17.0" />
<use xlink:href="#d7" x="524" y="17.0" />
<use xlink:href="#d8" x="4" y="23.5" />
<use xlink:href="#d9" x="56" y="23.5" />
<use xlink:href="#d10" x="732" y="23.5" />
<use xlink:href="#d11" x="784" y="23.5" />
<use xlink:href="#d12" x="160" y="56.0" />
<use xlink:href="#d13" x="628" y="56.0" />
<use xlink:href="#d14" x="108" y="62.5" />
<use xlink:href="#d15" x="212" y="62.5" />
<use xlink:href="#d16" x="576" y="62.5" />
<use xlink:href="#d17" x="680" y="62.5" />
<use xlink:href="#d18" x="264" y="69.0" />
<use xlink:href="#d19" x="524" y="69.0" />
<use xlink:href="#d20" x="4" y="75.5" />
<use xlink:href="#d21" x="56" y="75.5" />
<use xlink:href="#d22" x="732" y="75.5" />
<use xlink:href="#d23" x="784" y="75.5" />
<use xlink:href="#d24" x="160" y="108.0" />
<use xlink:href="#d25" x="628" y="108.0" />
<use xlink:href="#d26" x="108" y="114.5" />
<use xlink:href="#d27" x="212" y="114.5" />
<use xlink:href="#d28" x="576" y="114.5" />
<use xlink:href="#d29" x="680" y="114.5" />
<use xlink:href="#d30" x="264" y="121.0" />
<use xlink:href="#d31" x="524" y="121.0" />
<use xlink:href="#d32" x="4" y="127.5" />
<use xlink:href="#d33" x="56" y="127.5" />
<use xlink:href="#d34" x="732" y="127.5" />
<use xlink:href="#d35" x="784" y="127.5" />
<use xlink:href="#d36" x="160" y="160.0" />
<use xlink:href="#d37" x="628" y="160.0" />
<use xlink:href="#d38" x="108" y="166.5" />
<use xlink:href="#d39" x="212" y="166.5" />
<use xlink:href="#d40" x="576" y="166.5" />
<use xlink:href="#d41" x="680" y="166.5" />
<use xlink:href="#d42" x="264" y="173.0" />
<use xlink:href="#d43" x="524" y="173.0" />
<use xlink:href="#d44" x="4" y="179.5" />
<use xlink:href="#d45" x="56" y="179.5" />
<use xlink:href="#d46" x="732" y="179.5" />
<use xlink:href="#d47" x="784" y="179.5" />
<use xlink:href="#d48" x="186.0" y="225.0" />
<use xlink:href="#d49" x="602.0" y="225.0" />
<use xlink:href="#d50" x="238.0" y="231.5" />
<use xlink:href="#d51" x="550.0" y="231.5" />
<use xlink:href="#d52" x="451.2" y="218.76" transform="rotate(30 416 0)" />
<use xlink:href="#d53" x="503.2" y="218.76" transform="rotate(30 416 0)" />
<use xlink:href="#d54" x="451.2" y="270.76" transform="rotate(30 416 0)" />
<use xlink:href="#d55" x="284.8" y="218.76" transform="rotate(-30 416 0)" />
<use xlink:href="#d56" x="336.8" y="218.76" transform="rotate(-30 416 0)" />
<use xlink:href="#d57" x="336.8" y="270.76" transform="rotate(-30 416 0)" />
</svg>