<?xml version="1.0" encoding="UTF-8"?>
<!DOCTYPE svg  PUBLIC '-//W3C//DTD SVG 1.1//EN'  'http://www.w3.org/Graphics/SVG/1.1/DTD/svg11.dtd'>
<svg width="76.276mm" height="60.477mm" version="1.1" viewBox="0 0 76.276 60.477" xmlns="http://www.w3.org/2000/svg">
 <title>SVG Image created as gpad8_2r-render.svg date 2026/07/14 10:49:51</title>
 <desc>Image generated by PCBNEW</desc>
 <rect width="76.276mm" height="60.477mm" fill="#282A36"/>
 <g fill="#f55">
  <circle cx="5.765" cy="29.321" r="1.25"/>
  <circle cx="12.115" cy="26.781" r="1.25"/>
  <circle cx="43.865" cy="48.371" r="1.25"/>
  <circle cx="50.215" cy="45.831" r="1.25"/>
  <circle cx="24.815" cy="29.321" r="1.25"/>
  <circle cx="31.165" cy="26.781" r="1.25"/>
  <circle cx="62.915" cy="29.321" r="1.25"/>
  <circle cx="69.265" cy="26.781" r="1.25"/>
  <circle cx="24.815" cy="48.371" r="1.25"/>
  <circle cx="31.165" cy="45.831" r="1.25"/>
  <circle cx="43.865" cy="29.321" r="1.25"/>
  <circle cx="50.215" cy="26.781" r="1.25"/>
  <circle cx="5.765" cy="48.371" r="1.25"/>
  <circle cx="12.115" cy="45.831" r="1.25"/>
  <path d="m1.075 6.5482v-2h2v2z" fill="#f55" fill-rule="evenodd"/>
  <circle cx="2.075" cy="10.548" r="1"/>
  <circle cx="2.075" cy="8.0482" r="1"/>
  <path d="m7.975 3.4482v-1.9999h3.2v1.9999z" fill="#f55" fill-rule="evenodd"/>
  <path d="m7.975 14.648v-2h3.2v2z" fill="#f55" fill-rule="evenodd"/>
  <circle cx="16.575" cy="10.548" r="1"/>
  <circle cx="16.575" cy="5.5482" r="1"/>
  <circle cx="62.915" cy="48.371" r="1.25"/>
  <circle cx="69.265" cy="45.831" r="1.25"/>
  <path d="m58.225 6.5482v-2h2v2z" fill="#f55" fill-rule="evenodd"/>
  <circle cx="59.225" cy="10.548" r="1"/>
  <circle cx="59.225" cy="8.0482" r="1"/>
  <path d="m65.125 3.4482v-1.9999h3.2v1.9999z" fill="#f55" fill-rule="evenodd"/>
  <path d="m65.125 14.648v-2h3.2v2z" fill="#f55" fill-rule="evenodd"/>
  <circle cx="73.725" cy="10.548" r="1"/>
  <circle cx="73.725" cy="5.5482" r="1"/>
 </g>
 <g fill="none" stroke="#f55" stroke-linecap="round" stroke-linejoin="round" stroke-width=".2">
  <path d="m5.765 21.358 10.81-10.81"/>
  <path d="m5.765 29.321v-7.9626"/>
  <path d="m5.765 29.321v19.05"/>
  <path d="m24.815 29.321v19.05"/>
  <path d="m43.865 29.321v19.05"/>
  <path d="m62.915 29.321v19.05"/>
  <path d="m62.915 21.358 10.81-10.81"/>
  <path d="m62.915 29.321v-7.9626"/>
 </g>
 <g fill="#50FA7B">
  <circle cx="5.765" cy="29.321" r="1.25"/>
  <circle cx="12.115" cy="26.781" r="1.25"/>
  <circle cx="43.865" cy="48.371" r="1.25"/>
  <circle cx="50.215" cy="45.831" r="1.25"/>
  <circle cx="24.815" cy="29.321" r="1.25"/>
  <circle cx="31.165" cy="26.781" r="1.25"/>
  <circle cx="62.915" cy="29.321" r="1.25"/>
  <circle cx="69.265" cy="26.781" r="1.25"/>
  <circle cx="24.815" cy="48.371" r="1.25"/>
  <circle cx="31.165" cy="45.831" r="1.25"/>
  <circle cx="43.865" cy="29.321" r="1.25"/>
  <circle cx="50.215" cy="26.781" r="1.25"/>
  <circle cx="5.765" cy="48.371" r="1.25"/>
  <circle cx="12.115" cy="45.831" r="1.25"/>
  <path d="m1.075 6.5482v-2h2v2z" fill="#50FA7B" fill-rule="evenodd"/>
  <circle cx="2.075" cy="10.548" r="1"/>
  <circle cx="2.075" cy="8.0482" r="1"/>
  <path d="m7.975 3.4482v-1.9999h3.2v1.9999z" fill="#50FA7B" fill-rule="evenodd"/>
  <path d="m7.975 14.648v-2h3.2v2z" fill="#50FA7B" fill-rule="evenodd"/>
  <circle cx="16.575" cy="10.548" r="1"/>
  <circle cx="16.575" cy="5.5482" r="1"/>
  <circle cx="62.915" cy="48.371" r="1.25"/>
  <circle cx="69.265" cy="45.831" r="1.25"/>
  <path d="m58.225 6.5482v-2h2v2z" fill="#50FA7B" fill-rule="evenodd"/>
  <circle cx="59.225" cy="10.548" r="1"/>
  <circle cx="59.225" cy="8.0482" r="1"/>
  <path d="m65.125 3.4482v-1.9999h3.2v1.9999z" fill="#50FA7B" fill-rule="evenodd"/>
  <path d="m65.125 14.648v-2h3.2v2z" fill="#50FA7B" fill-rule="evenodd"/>
  <circle cx="73.725" cy="10.548" r="1"/>
  <circle cx="73.725" cy="5.5482" r="1"/>
  <g fill="#50FA7B" fill-rule="evenodd">
   <path d="m71.505 37.811-0.0957-0.019-0.0811-0.0542-0.0542-0.0811-0.019-0.0957v-0.6l0.019-0.0956 0.0542-0.0811 0.0811-0.0542 0.0957-0.0191h0.6l0.0957 0.0191 0.0811 0.0542 0.0542 0.0811 0.019 0.0956v0.6l-0.019 0.0957-0.0542 0.0811-0.0811 0.0542-0.0957 0.019z"/>
   <path d="m71.505 35.011-0.0957-0.0191-0.0811-0.0542-0.0542-0.0811-0.019-0.0956v-0.6l0.019-0.0957 0.0542-0.0811 0.0811-0.0542 0.0957-0.019h0.6l0.0957 0.019 0.0811 0.0542 0.0542 0.0811 0.019 0.0957v0.6l-0.019 0.0956-0.0542 0.0811-0.0811 0.0542-0.0957 0.0191z"/>
   <path d="m52.455 56.861-0.0957-0.019-0.0811-0.0542-0.0542-0.0811-0.019-0.0957v-0.6l0.019-0.0956 0.0542-0.0811 0.0811-0.0542 0.0957-0.0191h0.6l0.0957 0.0191 0.0811 0.0542 0.0542 0.0811 0.019 0.0956v0.6l-0.019 0.0957-0.0542 0.0811-0.0811 0.0542-0.0957 0.019z"/>
   <path d="m52.455 54.061-0.0957-0.019-0.0811-0.0542-0.0542-0.0811-0.019-0.0957v-0.6l0.019-0.0956 0.0542-0.0811 0.0811-0.0542 0.0957-0.0191h0.6l0.0957 0.0191 0.0811 0.0542 0.0542 0.0811 0.019 0.0956v0.6l-0.019 0.0957-0.0542 0.0811-0.0811 0.0542-0.0957 0.019z"/>
   <path d="m14.355 56.861-0.0957-0.019-0.0811-0.0542-0.0542-0.0811-0.019-0.0957v-0.6l0.019-0.0956 0.0542-0.0811 0.0811-0.0542 0.0957-0.0191h0.6l0.0957 0.0191 0.0811 0.0542 0.0542 0.0811 0.019 0.0956v0.6l-0.019 0.0957-0.0542 0.0811-0.0811 0.0542-0.0957 0.019z"/>
   <path d="m14.355 54.061-0.0957-0.019-0.0811-0.0542-0.0542-0.0811-0.019-0.0957v-0.6l0.019-0.0956 0.0542-0.0811 0.0811-0.0542 0.0957-0.0191h0.6l0.0957 0.0191 0.0811 0.0542 0.0542 0.0811 0.019 0.0956v0.6l-0.019 0.0957-0.0542 0.0811-0.0811 0.0542-0.0957 0.019z"/>
   <path d="m64.005 11.498-0.0957-0.019-0.0811-0.0542-0.0542-0.0811-0.019-0.0957v-0.6l0.019-0.0956 0.0542-0.0811 0.0811-0.0542 0.0957-0.0191h0.6l0.0957 0.0191 0.0811 0.0542 0.0542 0.0811 0.019 0.0956v0.6l-0.019 0.0957-0.0542 0.0811-0.0811 0.0542-0.0957 0.019z"/>
   <path d="m64.005 8.6982-0.0957-0.019-0.0811-0.0542-0.0542-0.0811-0.019-0.0957v-0.6l0.019-0.0956 0.0542-0.0811 0.0811-0.0542 0.0957-0.0191h0.6l0.0957 0.0191 0.0811 0.0542 0.0542 0.0811 0.019 0.0956v0.6l-0.019 0.0957-0.0542 0.0811-0.0811 0.0542-0.0957 0.019z"/>
   <path d="m6.855 11.498-0.0957-0.019-0.0811-0.0542-0.0542-0.0811-0.019-0.0957v-0.6l0.019-0.0956 0.0542-0.0811 0.0811-0.0542 0.0957-0.0191h0.6l0.0957 0.0191 0.0811 0.0542 0.0542 0.0811 0.019 0.0956v0.6l-0.019 0.0957-0.0542 0.0811-0.0811 0.0542-0.0957 0.019z"/>
   <path d="m6.855 8.6982-0.0957-0.019-0.0811-0.0542-0.0542-0.0811-0.019-0.0957v-0.6l0.019-0.0956 0.0542-0.0811 0.0811-0.0542 0.0957-0.0191h0.6l0.0957 0.0191 0.0811 0.0542 0.0542 0.0811 0.019 0.0956v0.6l-0.019 0.0957-0.0542 0.0811-0.0811 0.0542-0.0957 0.019z"/>
   <path d="m33.405 56.861-0.0957-0.019-0.0811-0.0542-0.0542-0.0811-0.019-0.0957v-0.6l0.019-0.0956 0.0542-0.0811 0.0811-0.0542 0.0957-0.0191h0.6l0.0957 0.0191 0.0811 0.0542 0.0542 0.0811 0.019 0.0956v0.6l-0.019 0.0957-0.0542 0.0811-0.0811 0.0542-0.0957 0.019z"/>
   <path d="m33.405 54.061-0.0957-0.019-0.0811-0.0542-0.0542-0.0811-0.019-0.0957v-0.6l0.019-0.0956 0.0542-0.0811 0.0811-0.0542 0.0957-0.0191h0.6l0.0957 0.0191 0.0811 0.0542 0.0542 0.0811 0.019 0.0956v0.6l-0.019 0.0957-0.0542 0.0811-0.0811 0.0542-0.0957 0.019z"/>
   <path d="m71.505 56.861-0.0957-0.019-0.0811-0.0542-0.0542-0.0811-0.019-0.0957v-0.6l0.019-0.0956 0.0542-0.0811 0.0811-0.0542 0.0957-0.0191h0.6l0.0957 0.0191 0.0811 0.0542 0.0542 0.0811 0.019 0.0956v0.6l-0.019 0.0957-0.0542 0.0811-0.0811 0.0542-0.0957 0.019z"/>
   <path d="m71.505 54.061-0.0957-0.019-0.0811-0.0542-0.0542-0.0811-0.019-0.0957v-0.6l0.019-0.0956 0.0542-0.0811 0.0811-0.0542 0.0957-0.0191h0.6l0.0957 0.0191 0.0811 0.0542 0.0542 0.0811 0.019 0.0956v0.6l-0.019 0.0957-0.0542 0.0811-0.0811 0.0542-0.0957 0.019z"/>
   <path d="m33.405 37.811-0.0957-0.019-0.0811-0.0542-0.0542-0.0811-0.019-0.0957v-0.6l0.019-0.0956 0.0542-0.0811 0.0811-0.0542 0.0957-0.0191h0.6l0.0957 0.0191 0.0811 0.0542 0.0542 0.0811 0.019 0.0956v0.6l-0.019 0.0957-0.0542 0.0811-0.0811 0.0542-0.0957 0.019z"/>
   <path d="m33.405 35.011-0.0957-0.0191-0.0811-0.0542-0.0542-0.0811-0.019-0.0956v-0.6l0.019-0.0957 0.0542-0.0811 0.0811-0.0542 0.0957-0.019h0.6l0.0957 0.019 0.0811 0.0542 0.0542 0.0811 0.019 0.0957v0.6l-0.019 0.0956-0.0542 0.0811-0.0811 0.0542-0.0957 0.0191z"/>
   <path d="m52.455 37.811-0.0957-0.019-0.0811-0.0542-0.0542-0.0811-0.019-0.0957v-0.6l0.019-0.0956 0.0542-0.0811 0.0811-0.0542 0.0957-0.0191h0.6l0.0957 0.0191 0.0811 0.0542 0.0542 0.0811 0.019 0.0956v0.6l-0.019 0.0957-0.0542 0.0811-0.0811 0.0542-0.0957 0.019z"/>
   <path d="m52.455 35.011-0.0957-0.0191-0.0811-0.0542-0.0542-0.0811-0.019-0.0956v-0.6l0.019-0.0957 0.0542-0.0811 0.0811-0.0542 0.0957-0.019h0.6l0.0957 0.019 0.0811 0.0542 0.0542 0.0811 0.019 0.0957v0.6l-0.019 0.0956-0.0542 0.0811-0.0811 0.0542-0.0957 0.0191z"/>
   <path d="m14.355 37.811-0.0957-0.019-0.0811-0.0542-0.0542-0.0811-0.019-0.0957v-0.6l0.019-0.0956 0.0542-0.0811 0.0811-0.0542 0.0957-0.0191h0.6l0.0957 0.0191 0.0811 0.0542 0.0542 0.0811 0.019 0.0956v0.6l-0.019 0.0957-0.0542 0.0811-0.0811 0.0542-0.0957 0.019z"/>
   <path d="m14.355 35.011-0.0957-0.0191-0.0811-0.0542-0.0542-0.0811-0.019-0.0956v-0.6l0.019-0.0957 0.0542-0.0811 0.0811-0.0542 0.0957-0.019h0.6l0.0957 0.019 0.0811 0.0542 0.0542 0.0811 0.019 0.0957v0.6l-0.019 0.0956-0.0542 0.0811-0.0811 0.0542-0.0957 0.0191z"/>
  </g>
 </g>
 <g fill="none" stroke-linecap="round" stroke-linejoin="round">
  <g stroke="#50FA7B" stroke-width=".2">
   <path d="m9.755 5.5482-2.6 2.6"/>
   <path d="m16.575 5.5482h-6.82"/>
   <path d="m69.265 45.831v5.14"/>
   <path d="m69.265 50.971 2.54 2.54"/>
   <path d="m66.905 5.5482-2.6 2.6"/>
   <path d="m73.725 5.5482h-6.82"/>
   <path d="m12.115 31.921 2.54 2.54"/>
   <path d="m12.115 26.781v5.14"/>
   <path d="m31.165 26.781v5.14"/>
   <path d="m31.165 31.921 2.54 2.54"/>
   <path d="m50.215 31.921 2.54 2.54"/>
   <path d="m50.215 26.781v5.14"/>
   <path d="m69.265 26.781v5.14"/>
   <path d="m69.265 31.921 2.54 2.54"/>
   <path d="m12.115 45.831v5.14"/>
   <path d="m12.115 50.971 2.54 2.54"/>
   <path d="m31.165 45.831v5.14"/>
   <path d="m31.165 50.971 2.54 2.54"/>
   <path d="m50.215 45.831v5.14"/>
   <path d="m50.215 50.971 2.54 2.54"/>
   <path d="m14.655 37.261h19.05"/>
   <path d="m33.705 37.261h19.05"/>
   <path d="m52.755 37.261h19.05"/>
   <path d="m14.655 56.311h19.05"/>
   <path d="m52.755 56.311h19.05"/>
   <path d="m33.705 56.311h19.05"/>
  </g>
  <g stroke="#8BE9FD" stroke-width=".15">
   <text x="9.5750" y="24.3607" font-size="1.3333" opacity="0" stroke-opacity="0" text-anchor="middle" lengthAdjust="spacingAndGlyphs" textLength="3.2976">SW3</text>
   <g class="stroked-text">
    <desc>SW3</desc>
    <path d="m8.2417 24.268 0.1428 0.0477"/>
    <path d="m8.3845 24.316h0.2381"/>
    <path d="m8.6226 24.316 0.0953-0.0477"/>
    <path d="m8.7179 24.268 0.0476-0.0476"/>
    <path d="m8.7655 24.22 0.0476-0.0952"/>
    <path d="m8.8131 24.125v-0.0952"/>
    <path d="m8.8131 24.03-0.0476-0.0953"/>
    <path d="m8.7655 23.935-0.0476-0.0476"/>
    <path d="m8.7179 23.887-0.0953-0.0476"/>
    <path d="m8.6226 23.839-0.1905-0.0476"/>
    <path d="m8.4321 23.792-0.0952-0.0477"/>
    <path d="m8.3369 23.744-0.0476-0.0476"/>
    <path d="m8.2893 23.696-0.0476-0.0952"/>
    <path d="m8.2417 23.601v-0.0953"/>
    <path d="m8.2417 23.506 0.0476-0.0952"/>
    <path d="m8.2893 23.411 0.0476-0.0476"/>
    <path d="m8.3369 23.363 0.0952-0.0476"/>
    <path d="m8.4321 23.316h0.2381"/>
    <path d="m8.6702 23.316 0.1429 0.0476"/>
    <path d="m9.1464 23.316 0.2381 1"/>
    <path d="m9.3845 24.316 0.1905-0.7143"/>
    <path d="m9.575 23.601 0.1905 0.7143"/>
    <path d="m9.7655 24.316 0.2381-1"/>
    <path d="m10.289 23.316h0.619"/>
    <path d="m10.908 23.316-0.3333 0.3809"/>
    <path d="m10.575 23.696h0.1429"/>
    <path d="m10.718 23.696 0.0952 0.0476"/>
    <path d="m10.813 23.744 0.0476 0.0477"/>
    <path d="m10.861 23.792 0.0476 0.0952"/>
    <path d="m10.908 23.887v0.2381"/>
    <path d="m10.908 24.125-0.0476 0.0952"/>
    <path d="m10.861 24.22-0.0476 0.0476"/>
    <path d="m10.813 24.268-0.0952 0.0477"/>
    <path d="m10.718 24.316h-0.2858"/>
    <path d="m10.432 24.316-0.0952-0.0477"/>
    <path d="m10.337 24.268-0.0476-0.0476"/>
   </g>
   <text x="47.6750" y="43.4108" font-size="1.3333" opacity="0" stroke-opacity="0" text-anchor="middle" lengthAdjust="spacingAndGlyphs" textLength="3.2976">SW9</text>
   <g class="stroked-text">
    <desc>SW9</desc>
    <path d="m46.342 43.318 0.1428 0.0477"/>
    <path d="m46.484 43.366h0.2381"/>
    <path d="m46.723 43.366 0.0953-0.0477"/>
    <path d="m46.818 43.318 0.0476-0.0476"/>
    <path d="m46.866 43.27 0.0476-0.0952"/>
    <path d="m46.913 43.175v-0.0952"/>
    <path d="m46.913 43.08-0.0476-0.0953"/>
    <path d="m46.866 42.985-0.0476-0.0476"/>
    <path d="m46.818 42.937-0.0953-0.0476"/>
    <path d="m46.723 42.889-0.1905-0.0476"/>
    <path d="m46.532 42.842-0.0952-0.0477"/>
    <path d="m46.437 42.794-0.0476-0.0476"/>
    <path d="m46.389 42.746-0.0476-0.0952"/>
    <path d="m46.342 42.651v-0.0953"/>
    <path d="m46.342 42.556 0.0476-0.0952"/>
    <path d="m46.389 42.461 0.0476-0.0476"/>
    <path d="m46.437 42.413 0.0952-0.0476"/>
    <path d="m46.532 42.366h0.2381"/>
    <path d="m46.77 42.366 0.1429 0.0476"/>
    <path d="m47.246 42.366 0.2381 1"/>
    <path d="m47.484 43.366 0.1905-0.7143"/>
    <path d="m47.675 42.651 0.1905 0.7143"/>
    <path d="m47.866 43.366 0.2381-1"/>
    <path d="m48.532 43.366h0.1905"/>
    <path d="m48.723 43.366 0.0953-0.0477"/>
    <path d="m48.818 43.318 0.0476-0.0476"/>
    <path d="m48.866 43.27 0.0952-0.1428"/>
    <path d="m48.961 43.128 0.0476-0.1905"/>
    <path d="m49.008 42.937v-0.381"/>
    <path d="m49.008 42.556-0.0476-0.0952"/>
    <path d="m48.961 42.461-0.0476-0.0476"/>
    <path d="m48.913 42.413-0.0952-0.0476"/>
    <path d="m48.818 42.366h-0.1905"/>
    <path d="m48.627 42.366-0.0953 0.0476"/>
    <path d="m48.532 42.413-0.0476 0.0476"/>
    <path d="m48.484 42.461-0.0476 0.0952"/>
    <path d="m48.437 42.556v0.2381"/>
    <path d="m48.437 42.794 0.0476 0.0953"/>
    <path d="m48.484 42.889 0.0476 0.0476"/>
    <path d="m48.532 42.937 0.0953 0.0476"/>
    <path d="m48.627 42.985h0.1905"/>
    <path d="m48.818 42.985 0.0952-0.0476"/>
    <path d="m48.913 42.937 0.0476-0.0476"/>
    <path d="m48.961 42.889 0.0476-0.0953"/>
   </g>
   <text x="28.6250" y="24.3607" font-size="1.3333" opacity="0" stroke-opacity="0" text-anchor="middle" lengthAdjust="spacingAndGlyphs" textLength="3.2976">SW4</text>
   <g class="stroked-text">
    <desc>SW4</desc>
    <path d="m27.292 24.268 0.1428 0.0477"/>
    <path d="m27.434 24.316h0.2381"/>
    <path d="m27.673 24.316 0.0953-0.0477"/>
    <path d="m27.768 24.268 0.0476-0.0476"/>
    <path d="m27.816 24.22 0.0476-0.0952"/>
    <path d="m27.863 24.125v-0.0952"/>
    <path d="m27.863 24.03-0.0476-0.0953"/>
    <path d="m27.816 23.935-0.0476-0.0476"/>
    <path d="m27.768 23.887-0.0953-0.0476"/>
    <path d="m27.673 23.839-0.1905-0.0476"/>
    <path d="m27.482 23.792-0.0952-0.0477"/>
    <path d="m27.387 23.744-0.0476-0.0476"/>
    <path d="m27.339 23.696-0.0476-0.0952"/>
    <path d="m27.292 23.601v-0.0953"/>
    <path d="m27.292 23.506 0.0476-0.0952"/>
    <path d="m27.339 23.411 0.0476-0.0476"/>
    <path d="m27.387 23.363 0.0952-0.0476"/>
    <path d="m27.482 23.316h0.2381"/>
    <path d="m27.72 23.316 0.1429 0.0476"/>
    <path d="m28.196 23.316 0.2381 1"/>
    <path d="m28.434 24.316 0.1905-0.7143"/>
    <path d="m28.625 23.601 0.1905 0.7143"/>
    <path d="m28.816 24.316 0.2381-1"/>
    <path d="m29.863 23.649v0.6667"/>
    <path d="m29.625 23.268-0.2381 0.7143"/>
    <path d="m29.387 23.982h0.6191"/>
   </g>
   <text x="66.7250" y="24.3607" font-size="1.3333" opacity="0" stroke-opacity="0" text-anchor="middle" lengthAdjust="spacingAndGlyphs" textLength="3.2976">SW6</text>
   <g class="stroked-text">
    <desc>SW6</desc>
    <path d="m65.392 24.268 0.1428 0.0477"/>
    <path d="m65.534 24.316h0.2381"/>
    <path d="m65.773 24.316 0.0953-0.0477"/>
    <path d="m65.868 24.268 0.0476-0.0476"/>
    <path d="m65.916 24.22 0.0476-0.0952"/>
    <path d="m65.963 24.125v-0.0952"/>
    <path d="m65.963 24.03-0.0476-0.0953"/>
    <path d="m65.916 23.935-0.0476-0.0476"/>
    <path d="m65.868 23.887-0.0953-0.0476"/>
    <path d="m65.773 23.839-0.1905-0.0476"/>
    <path d="m65.582 23.792-0.0952-0.0477"/>
    <path d="m65.487 23.744-0.0476-0.0476"/>
    <path d="m65.439 23.696-0.0476-0.0952"/>
    <path d="m65.392 23.601v-0.0953"/>
    <path d="m65.392 23.506 0.0476-0.0952"/>
    <path d="m65.439 23.411 0.0476-0.0476"/>
    <path d="m65.487 23.363 0.0952-0.0476"/>
    <path d="m65.582 23.316h0.2381"/>
    <path d="m65.82 23.316 0.1429 0.0476"/>
    <path d="m66.296 23.316 0.2381 1"/>
    <path d="m66.534 24.316 0.1905-0.7143"/>
    <path d="m66.725 23.601 0.1905 0.7143"/>
    <path d="m66.916 24.316 0.2381-1"/>
    <path d="m67.963 23.316h-0.1905"/>
    <path d="m67.773 23.316-0.0952 0.0476"/>
    <path d="m67.677 23.363-0.0476 0.0476"/>
    <path d="m67.63 23.411-0.0953 0.1429"/>
    <path d="m67.534 23.554-0.0476 0.1904"/>
    <path d="m67.487 23.744v0.381"/>
    <path d="m67.487 24.125 0.0476 0.0952"/>
    <path d="m67.534 24.22 0.0476 0.0476"/>
    <path d="m67.582 24.268 0.0953 0.0477"/>
    <path d="m67.677 24.316h0.1905"/>
    <path d="m67.868 24.316 0.0952-0.0477"/>
    <path d="m67.963 24.268 0.0476-0.0476"/>
    <path d="m68.011 24.22 0.0476-0.0952"/>
    <path d="m68.058 24.125v-0.2381"/>
    <path d="m68.058 23.887-0.0476-0.0952"/>
    <path d="m68.011 23.792-0.0476-0.0477"/>
    <path d="m67.963 23.744-0.0952-0.0476"/>
    <path d="m67.868 23.696h-0.1905"/>
    <path d="m67.677 23.696-0.0953 0.0476"/>
    <path d="m67.582 23.744-0.0476 0.0477"/>
    <path d="m67.534 23.792-0.0476 0.0952"/>
   </g>
   <text x="28.6250" y="43.4108" font-size="1.3333" opacity="0" stroke-opacity="0" text-anchor="middle" lengthAdjust="spacingAndGlyphs" textLength="3.2976">SW8</text>
   <g class="stroked-text">
    <desc>SW8</desc>
    <path d="m27.292 43.318 0.1428 0.0477"/>
    <path d="m27.434 43.366h0.2381"/>
    <path d="m27.673 43.366 0.0953-0.0477"/>
    <path d="m27.768 43.318 0.0476-0.0476"/>
    <path d="m27.816 43.27 0.0476-0.0952"/>
    <path d="m27.863 43.175v-0.0952"/>
    <path d="m27.863 43.08-0.0476-0.0953"/>
    <path d="m27.816 42.985-0.0476-0.0476"/>
    <path d="m27.768 42.937-0.0953-0.0476"/>
    <path d="m27.673 42.889-0.1905-0.0476"/>
    <path d="m27.482 42.842-0.0952-0.0477"/>
    <path d="m27.387 42.794-0.0476-0.0476"/>
    <path d="m27.339 42.746-0.0476-0.0952"/>
    <path d="m27.292 42.651v-0.0953"/>
    <path d="m27.292 42.556 0.0476-0.0952"/>
    <path d="m27.339 42.461 0.0476-0.0476"/>
    <path d="m27.387 42.413 0.0952-0.0476"/>
    <path d="m27.482 42.366h0.2381"/>
    <path d="m27.72 42.366 0.1429 0.0476"/>
    <path d="m28.196 42.366 0.2381 1"/>
    <path d="m28.434 43.366 0.1905-0.7143"/>
    <path d="m28.625 42.651 0.1905 0.7143"/>
    <path d="m28.816 43.366 0.2381-1"/>
    <path d="m29.577 42.794-0.0953-0.0476"/>
    <path d="m29.482 42.746-0.0476-0.0476"/>
    <path d="m29.434 42.699-0.0476-0.0952"/>
    <path d="m29.387 42.604v-0.0477"/>
    <path d="m29.387 42.556 0.0476-0.0952"/>
    <path d="m29.434 42.461 0.0476-0.0476"/>
    <path d="m29.482 42.413 0.0953-0.0476"/>
    <path d="m29.577 42.366h0.1905"/>
    <path d="m29.768 42.366 0.0952 0.0476"/>
    <path d="m29.863 42.413 0.0476 0.0476"/>
    <path d="m29.911 42.461 0.0476 0.0952"/>
    <path d="m29.958 42.556v0.0477"/>
    <path d="m29.958 42.604-0.0476 0.0952"/>
    <path d="m29.911 42.699-0.0476 0.0476"/>
    <path d="m29.863 42.746-0.0952 0.0476"/>
    <path d="m29.768 42.794h-0.1905"/>
    <path d="m29.577 42.794-0.0953 0.0477"/>
    <path d="m29.482 42.842-0.0476 0.0476"/>
    <path d="m29.434 42.889-0.0476 0.0952"/>
    <path d="m29.387 42.985v0.1905"/>
    <path d="m29.387 43.175 0.0476 0.0952"/>
    <path d="m29.434 43.27 0.0476 0.0476"/>
    <path d="m29.482 43.318 0.0953 0.0477"/>
    <path d="m29.577 43.366h0.1905"/>
    <path d="m29.768 43.366 0.0952-0.0477"/>
    <path d="m29.863 43.318 0.0476-0.0476"/>
    <path d="m29.911 43.27 0.0476-0.0952"/>
    <path d="m29.958 43.175v-0.1905"/>
    <path d="m29.958 42.985-0.0476-0.0952"/>
    <path d="m29.911 42.889-0.0476-0.0476"/>
    <path d="m29.863 42.842-0.0952-0.0477"/>
   </g>
   <text x="47.6750" y="24.3607" font-size="1.3333" opacity="0" stroke-opacity="0" text-anchor="middle" lengthAdjust="spacingAndGlyphs" textLength="3.2976">SW5</text>
   <g class="stroked-text">
    <desc>SW5</desc>
    <path d="m46.342 24.268 0.1428 0.0477"/>
    <path d="m46.484 24.316h0.2381"/>
    <path d="m46.723 24.316 0.0953-0.0477"/>
    <path d="m46.818 24.268 0.0476-0.0476"/>
    <path d="m46.866 24.22 0.0476-0.0952"/>
    <path d="m46.913 24.125v-0.0952"/>
    <path d="m46.913 24.03-0.0476-0.0953"/>
    <path d="m46.866 23.935-0.0476-0.0476"/>
    <path d="m46.818 23.887-0.0953-0.0476"/>
    <path d="m46.723 23.839-0.1905-0.0476"/>
    <path d="m46.532 23.792-0.0952-0.0477"/>
    <path d="m46.437 23.744-0.0476-0.0476"/>
    <path d="m46.389 23.696-0.0476-0.0952"/>
    <path d="m46.342 23.601v-0.0953"/>
    <path d="m46.342 23.506 0.0476-0.0952"/>
    <path d="m46.389 23.411 0.0476-0.0476"/>
    <path d="m46.437 23.363 0.0952-0.0476"/>
    <path d="m46.532 23.316h0.2381"/>
    <path d="m46.77 23.316 0.1429 0.0476"/>
    <path d="m47.246 23.316 0.2381 1"/>
    <path d="m47.484 24.316 0.1905-0.7143"/>
    <path d="m47.675 23.601 0.1905 0.7143"/>
    <path d="m47.866 24.316 0.2381-1"/>
    <path d="m48.961 23.316h-0.4762"/>
    <path d="m48.484 23.316-0.0476 0.4762"/>
    <path d="m48.437 23.792 0.0476-0.0477"/>
    <path d="m48.484 23.744 0.0953-0.0476"/>
    <path d="m48.58 23.696h0.2381"/>
    <path d="m48.818 23.696 0.0952 0.0476"/>
    <path d="m48.913 23.744 0.0476 0.0477"/>
    <path d="m48.961 23.792 0.0476 0.0952"/>
    <path d="m49.008 23.887v0.2381"/>
    <path d="m49.008 24.125-0.0476 0.0952"/>
    <path d="m48.961 24.22-0.0476 0.0476"/>
    <path d="m48.913 24.268-0.0952 0.0477"/>
    <path d="m48.818 24.316h-0.2381"/>
    <path d="m48.58 24.316-0.0953-0.0477"/>
    <path d="m48.484 24.268-0.0476-0.0476"/>
   </g>
   <text x="9.5750" y="43.4108" font-size="1.3333" opacity="0" stroke-opacity="0" text-anchor="middle" lengthAdjust="spacingAndGlyphs" textLength="3.2976">SW7</text>
   <g class="stroked-text">
    <desc>SW7</desc>
    <path d="m8.2417 43.318 0.1428 0.0477"/>
    <path d="m8.3845 43.366h0.2381"/>
    <path d="m8.6226 43.366 0.0953-0.0477"/>
    <path d="m8.7179 43.318 0.0476-0.0476"/>
    <path d="m8.7655 43.27 0.0476-0.0952"/>
    <path d="m8.8131 43.175v-0.0952"/>
    <path d="m8.8131 43.08-0.0476-0.0953"/>
    <path d="m8.7655 42.985-0.0476-0.0476"/>
    <path d="m8.7179 42.937-0.0953-0.0476"/>
    <path d="m8.6226 42.889-0.1905-0.0476"/>
    <path d="m8.4321 42.842-0.0952-0.0477"/>
    <path d="m8.3369 42.794-0.0476-0.0476"/>
    <path d="m8.2893 42.746-0.0476-0.0952"/>
    <path d="m8.2417 42.651v-0.0953"/>
    <path d="m8.2417 42.556 0.0476-0.0952"/>
    <path d="m8.2893 42.461 0.0476-0.0476"/>
    <path d="m8.3369 42.413 0.0952-0.0476"/>
    <path d="m8.4321 42.366h0.2381"/>
    <path d="m8.6702 42.366 0.1429 0.0476"/>
    <path d="m9.1464 42.366 0.2381 1"/>
    <path d="m9.3845 43.366 0.1905-0.7143"/>
    <path d="m9.575 42.651 0.1905 0.7143"/>
    <path d="m9.7655 43.366 0.2381-1"/>
    <path d="m10.289 42.366h0.6667"/>
    <path d="m10.956 42.366-0.4286 1"/>
   </g>
   <text x="4.8750" y="1.3482" font-size="1.3333" opacity="0" stroke-opacity="0" text-anchor="middle" lengthAdjust="spacingAndGlyphs" textLength="3.2976">SW1</text>
   <g class="stroked-text">
    <desc>SW1</desc>
    <path d="m3.5417 1.2554 0.1428 0.0477"/>
    <path d="m3.6845 1.3031h0.2381"/>
    <path d="m3.9226 1.3031 0.0953-0.0477"/>
    <path d="m4.0179 1.2554 0.0476-0.0476"/>
    <path d="m4.0655 1.2078 0.0476-0.0952"/>
    <path d="m4.1131 1.1126v-0.0952"/>
    <path d="m4.1131 1.0174-0.0476-0.0953"/>
    <path d="m4.0655 0.9221-0.0476-0.0476"/>
    <path d="m4.0179 0.8745-0.0953-0.0476"/>
    <path d="m3.9226 0.8269-0.1905-0.0476"/>
    <path d="m3.7321 0.7793-0.0952-0.0477"/>
    <path d="m3.6369 0.7316-0.0476-0.0476"/>
    <path d="m3.5893 0.684-0.0476-0.0952"/>
    <path d="m3.5417 0.5888v-0.0953"/>
    <path d="m3.5417 0.4935 0.0476-0.0952"/>
    <path d="m3.5893 0.3983 0.0476-0.0476"/>
    <path d="m3.6369 0.3507 0.0952-0.0476"/>
    <path d="m3.7321 0.3031h0.2381"/>
    <path d="m3.9702 0.3031 0.1429 0.0476"/>
    <path d="m4.4464 0.3031 0.2381 1"/>
    <path d="m4.6845 1.3031 0.1905-0.7143"/>
    <path d="m4.875 0.5888 0.1905 0.7143"/>
    <path d="m5.0655 1.3031 0.2381-1"/>
    <path d="m6.2083 1.3031h-0.5714"/>
    <path d="m5.9226 1.3031v-1"/>
    <path d="m5.9226 0.3031-0.0952 0.1428"/>
    <path d="m5.8274 0.4459-0.0953 0.0953"/>
    <path d="m5.7321 0.5412-0.0952 0.0476"/>
   </g>
   <text x="66.7250" y="43.4108" font-size="1.3333" opacity="0" stroke-opacity="0" text-anchor="middle" lengthAdjust="spacingAndGlyphs" textLength="4.2500">SW10</text>
   <g class="stroked-text">
    <desc>SW10</desc>
    <path d="m64.916 43.318 0.1428 0.0477"/>
    <path d="m65.058 43.366h0.2381"/>
    <path d="m65.296 43.366 0.0953-0.0477"/>
    <path d="m65.392 43.318 0.0476-0.0476"/>
    <path d="m65.439 43.27 0.0476-0.0952"/>
    <path d="m65.487 43.175v-0.0952"/>
    <path d="m65.487 43.08-0.0476-0.0953"/>
    <path d="m65.439 42.985-0.0476-0.0476"/>
    <path d="m65.392 42.937-0.0953-0.0476"/>
    <path d="m65.296 42.889-0.1904-0.0476"/>
    <path d="m65.106 42.842-0.0953-0.0477"/>
    <path d="m65.011 42.794-0.0476-0.0476"/>
    <path d="m64.963 42.746-0.0476-0.0952"/>
    <path d="m64.916 42.651v-0.0953"/>
    <path d="m64.916 42.556 0.0476-0.0952"/>
    <path d="m64.963 42.461 0.0476-0.0476"/>
    <path d="m65.011 42.413 0.0953-0.0476"/>
    <path d="m65.106 42.366h0.238"/>
    <path d="m65.344 42.366 0.1429 0.0476"/>
    <path d="m65.82 42.366 0.2381 1"/>
    <path d="m66.058 43.366 0.1905-0.7143"/>
    <path d="m66.249 42.651 0.1905 0.7143"/>
    <path d="m66.439 43.366 0.2381-1"/>
    <path d="m67.582 43.366h-0.5714"/>
    <path d="m67.296 43.366v-1"/>
    <path d="m67.296 42.366-0.0952 0.1428"/>
    <path d="m67.201 42.508-0.0952 0.0953"/>
    <path d="m67.106 42.604-0.0953 0.0476"/>
    <path d="m68.201 42.366h0.0952"/>
    <path d="m68.296 42.366 0.0953 0.0476"/>
    <path d="m68.392 42.413 0.0476 0.0476"/>
    <path d="m68.439 42.461 0.0476 0.0952"/>
    <path d="m68.487 42.556 0.0476 0.1905"/>
    <path d="m68.534 42.746v0.2381"/>
    <path d="m68.534 42.985-0.0476 0.1905"/>
    <path d="m68.487 43.175-0.0476 0.0952"/>
    <path d="m68.439 43.27-0.0476 0.0476"/>
    <path d="m68.392 43.318-0.0953 0.0477"/>
    <path d="m68.296 43.366h-0.0952"/>
    <path d="m68.201 43.366-0.0952-0.0477"/>
    <path d="m68.106 43.318-0.0477-0.0476"/>
    <path d="m68.058 43.27-0.0476-0.0952"/>
    <path d="m68.011 43.175-0.0476-0.1905"/>
    <path d="m67.963 42.985v-0.2381"/>
    <path d="m67.963 42.746 0.0476-0.1905"/>
    <path d="m68.011 42.556 0.0476-0.0952"/>
    <path d="m68.058 42.461 0.0477-0.0476"/>
    <path d="m68.106 42.413 0.0952-0.0476"/>
   </g>
   <text x="62.0250" y="1.3482" font-size="1.3333" opacity="0" stroke-opacity="0" text-anchor="middle" lengthAdjust="spacingAndGlyphs" textLength="3.2976">SW2</text>
   <g class="stroked-text">
    <desc>SW2</desc>
    <path d="m60.692 1.2554 0.1428 0.0477"/>
    <path d="m60.834 1.3031h0.2381"/>
    <path d="m61.073 1.3031 0.0953-0.0477"/>
    <path d="m61.168 1.2554 0.0476-0.0476"/>
    <path d="m61.216 1.2078 0.0476-0.0952"/>
    <path d="m61.263 1.1126v-0.0952"/>
    <path d="m61.263 1.0174-0.0476-0.0953"/>
    <path d="m61.216 0.9221-0.0476-0.0476"/>
    <path d="m61.168 0.8745-0.0953-0.0476"/>
    <path d="m61.073 0.8269-0.1905-0.0476"/>
    <path d="m60.882 0.7793-0.0952-0.0477"/>
    <path d="m60.787 0.7316-0.0476-0.0476"/>
    <path d="m60.739 0.684-0.0476-0.0952"/>
    <path d="m60.692 0.5888v-0.0953"/>
    <path d="m60.692 0.4935 0.0476-0.0952"/>
    <path d="m60.739 0.3983 0.0476-0.0476"/>
    <path d="m60.787 0.3507 0.0952-0.0476"/>
    <path d="m60.882 0.3031h0.2381"/>
    <path d="m61.12 0.3031 0.1429 0.0476"/>
    <path d="m61.596 0.3031 0.2381 1"/>
    <path d="m61.834 1.3031 0.1905-0.7143"/>
    <path d="m62.025 0.5888 0.1905 0.7143"/>
    <path d="m62.216 1.3031 0.2381-1"/>
    <path d="m62.787 0.3983 0.0476-0.0476"/>
    <path d="m62.834 0.3507 0.0953-0.0476"/>
    <path d="m62.93 0.3031h0.2381"/>
    <path d="m63.168 0.3031 0.0952 0.0476"/>
    <path d="m63.263 0.3507 0.0476 0.0476"/>
    <path d="m63.311 0.3983 0.0476 0.0952"/>
    <path d="m63.358 0.4935v0.0953"/>
    <path d="m63.358 0.5888-0.0476 0.1428"/>
    <path d="m63.311 0.7316-0.5714 0.5715"/>
    <path d="m62.739 1.3031h0.619"/>
   </g>
  </g>
  <g stroke="#8BE9FD" stroke-width=".12">
   <path d="m2.475 24.761v14.2"/>
   <path d="m2.475 38.961h14.2"/>
   <path d="m16.675 24.761h-14.2"/>
   <path d="m16.675 38.961v-14.2"/>
   <path d="m40.575 43.811v14.2"/>
   <path d="m40.575 58.011h14.2"/>
   <path d="m54.775 43.811h-14.2"/>
   <path d="m54.775 58.011v-14.2"/>
   <path d="m21.525 24.761v14.2"/>
   <path d="m21.525 38.961h14.2"/>
   <path d="m35.725 24.761h-14.2"/>
   <path d="m35.725 38.961v-14.2"/>
   <path d="m59.625 24.761v14.2"/>
   <path d="m59.625 38.961h14.2"/>
   <path d="m73.825 24.761h-14.2"/>
   <path d="m73.825 38.961v-14.2"/>
   <path d="m21.525 43.811v14.2"/>
   <path d="m21.525 58.011h14.2"/>
   <path d="m35.725 43.811h-14.2"/>
   <path d="m35.725 58.011v-14.2"/>
   <path d="m40.575 24.761v14.2"/>
   <path d="m40.575 38.961h14.2"/>
   <path d="m54.775 24.761h-14.2"/>
   <path d="m54.775 38.961v-14.2"/>
   <path d="m2.475 43.811v14.2"/>
   <path d="m2.475 58.011h14.2"/>
   <path d="m16.675 43.811h-14.2"/>
   <path d="m16.675 58.011v-14.2"/>
   <path d="m1.775 3.9482h0.6"/>
   <path d="m2.075 4.2482-0.3-0.3"/>
   <path d="m2.375 3.9482-0.3 0.3"/>
   <path d="m3.475 2.1482v11.8"/>
   <path d="m7.575 2.1482h-4.1"/>
   <path d="m7.575 13.948h-4.1"/>
   <path d="m9.075 8.0482h1"/>
   <path d="m9.575 7.5482v1"/>
   <path d="m11.575 2.1482h4.1"/>
   <path d="m15.675 2.1482v2.4"/>
   <path d="m15.675 6.7482v2.6001"/>
   <path d="m15.675 11.548v2.4"/>
   <path d="m15.675 13.948h-4.1"/>
   <circle cx="9.575" cy="8.0482" r="3"/>
   <path d="m59.625 43.811v14.2"/>
   <path d="m59.625 58.011h14.2"/>
   <path d="m73.825 43.811h-14.2"/>
   <path d="m73.825 58.011v-14.2"/>
   <path d="m58.925 3.9482h0.6"/>
   <path d="m59.225 4.2482-0.3-0.3"/>
   <path d="m59.525 3.9482-0.3 0.3"/>
   <path d="m60.625 2.1482v11.8"/>
   <path d="m64.725 2.1482h-4.1"/>
   <path d="m64.725 13.948h-4.1"/>
   <path d="m66.225 8.0482h1"/>
   <path d="m66.725 7.5482v1"/>
   <path d="m68.725 2.1482h4.1"/>
   <path d="m72.825 2.1482v2.4"/>
   <path d="m72.825 6.7482v2.6001"/>
   <path d="m72.825 11.548v2.4"/>
   <path d="m72.825 13.948h-4.1"/>
   <circle cx="66.725" cy="8.0482" r="3"/>
  </g>
  <g stroke="#BD93F9" stroke-width=".15">
   <g transform="rotate(-90 73.71 35.988)">
    <text transform="scale(-1 1) translate(-147.42)" x="73.7100" y="36.4877" font-size="1.3333" opacity="0" stroke-opacity="0" text-anchor="middle" lengthAdjust="spacingAndGlyphs" textLength="2.2024">D6</text>
   </g>
   <g class="stroked-text">
    <desc>D6</desc>
    <path d="m74.165 35.25h-1"/>
    <path d="m73.165 35.25v0.238"/>
    <path d="m73.165 35.488 0.0476 0.1429"/>
    <path d="m73.212 35.631 0.0953 0.0952"/>
    <path d="m73.308 35.726 0.0952 0.0477"/>
    <path d="m73.403 35.774 0.1905 0.0476"/>
    <path d="m73.593 35.821h0.1428"/>
    <path d="m73.736 35.821 0.1905-0.0476"/>
    <path d="m73.927 35.774 0.0953-0.0477"/>
    <path d="m74.022 35.726 0.0952-0.0952"/>
    <path d="m74.117 35.631 0.0476-0.1429"/>
    <path d="m74.165 35.488v-0.238"/>
    <path d="m73.165 36.678v-0.1905"/>
    <path d="m73.165 36.488 0.0476-0.0952"/>
    <path d="m73.212 36.392 0.0477-0.0476"/>
    <path d="m73.26 36.345 0.1428-0.0952"/>
    <path d="m73.403 36.25 0.1905-0.0477"/>
    <path d="m73.593 36.202h0.3809"/>
    <path d="m73.974 36.202 0.0953 0.0477"/>
    <path d="m74.07 36.25 0.0476 0.0476"/>
    <path d="m74.117 36.297 0.0476 0.0952"/>
    <path d="m74.165 36.392v0.1905"/>
    <path d="m74.165 36.583-0.0476 0.0952"/>
    <path d="m74.117 36.678-0.0476 0.0476"/>
    <path d="m74.07 36.726-0.0953 0.0477"/>
    <path d="m73.974 36.774h-0.2381"/>
    <path d="m73.736 36.774-0.0952-0.0477"/>
    <path d="m73.641 36.726-0.0476-0.0476"/>
    <path d="m73.593 36.678-0.0476-0.0952"/>
    <path d="m73.546 36.583v-0.1905"/>
    <path d="m73.546 36.392 0.0476-0.0952"/>
    <path d="m73.593 36.297 0.0476-0.0476"/>
    <path d="m73.641 36.25 0.0952-0.0477"/>
   </g>
   <g transform="rotate(-90 54.66 55.038)">
    <text transform="scale(-1 1) translate(-109.32)" x="54.6600" y="55.5377" font-size="1.3333" opacity="0" stroke-opacity="0" text-anchor="middle" lengthAdjust="spacingAndGlyphs" textLength="2.2024">D9</text>
   </g>
   <g class="stroked-text">
    <desc>D9</desc>
    <path d="m55.115 54.3h-1"/>
    <path d="m54.115 54.3v0.238"/>
    <path d="m54.115 54.538 0.0476 0.1429"/>
    <path d="m54.162 54.681 0.0953 0.0952"/>
    <path d="m54.258 54.776 0.0952 0.0477"/>
    <path d="m54.353 54.824 0.1905 0.0476"/>
    <path d="m54.543 54.871h0.1428"/>
    <path d="m54.686 54.871 0.1905-0.0476"/>
    <path d="m54.877 54.824 0.0953-0.0477"/>
    <path d="m54.972 54.776 0.0952-0.0952"/>
    <path d="m55.067 54.681 0.0476-0.1429"/>
    <path d="m55.115 54.538v-0.238"/>
    <path d="m55.115 55.347v0.1904"/>
    <path d="m55.115 55.538-0.0476 0.0953"/>
    <path d="m55.067 55.633-0.0476 0.0476"/>
    <path d="m55.02 55.681-0.1429 0.0952"/>
    <path d="m54.877 55.776-0.1905 0.0477"/>
    <path d="m54.686 55.824h-0.3809"/>
    <path d="m54.305 55.824-0.0952-0.0477"/>
    <path d="m54.21 55.776-0.0477-0.0476"/>
    <path d="m54.162 55.728-0.0476-0.0952"/>
    <path d="m54.115 55.633v-0.1905"/>
    <path d="m54.115 55.442 0.0476-0.0952"/>
    <path d="m54.162 55.347 0.0477-0.0476"/>
    <path d="m54.21 55.3 0.0952-0.0477"/>
    <path d="m54.305 55.252h0.2381"/>
    <path d="m54.543 55.252 0.0952 0.0477"/>
    <path d="m54.639 55.3 0.0476 0.0476"/>
    <path d="m54.686 55.347 0.0477 0.0952"/>
    <path d="m54.734 55.442v0.1905"/>
    <path d="m54.734 55.633-0.0477 0.0952"/>
    <path d="m54.686 55.728-0.0476 0.0476"/>
    <path d="m54.639 55.776-0.0952 0.0477"/>
   </g>
   <g transform="rotate(-90 16.56 55.038)">
    <text transform="scale(-1 1) translate(-33.12)" x="16.5600" y="55.5377" font-size="1.3333" opacity="0" stroke-opacity="0" text-anchor="middle" lengthAdjust="spacingAndGlyphs" textLength="2.2024">D7</text>
   </g>
   <g class="stroked-text">
    <desc>D7</desc>
    <path d="m17.015 54.3h-1"/>
    <path d="m16.015 54.3v0.238"/>
    <path d="m16.015 54.538 0.0476 0.1429"/>
    <path d="m16.062 54.681 0.0953 0.0952"/>
    <path d="m16.158 54.776 0.0952 0.0477"/>
    <path d="m16.253 54.824 0.1905 0.0476"/>
    <path d="m16.443 54.871h0.1428"/>
    <path d="m16.586 54.871 0.1905-0.0476"/>
    <path d="m16.777 54.824 0.0953-0.0477"/>
    <path d="m16.872 54.776 0.0952-0.0952"/>
    <path d="m16.967 54.681 0.0476-0.1429"/>
    <path d="m17.015 54.538v-0.238"/>
    <path d="m16.015 55.204v0.6667"/>
    <path d="m16.015 55.871 1-0.4286"/>
   </g>
   <g transform="rotate(-90 66.21 9.6753)">
    <text transform="scale(-1 1) translate(-132.42)" x="66.2100" y="10.1753" font-size="1.3333" opacity="0" stroke-opacity="0" text-anchor="middle" lengthAdjust="spacingAndGlyphs" textLength="2.2024">D2</text>
   </g>
   <g class="stroked-text">
    <desc>D2</desc>
    <path d="m66.665 8.9372h-1"/>
    <path d="m65.665 8.9372v0.2381"/>
    <path d="m65.665 9.1753 0.0476 0.1428"/>
    <path d="m65.712 9.3181 0.0953 0.0952"/>
    <path d="m65.808 9.4133 0.0952 0.0477"/>
    <path d="m65.903 9.461 0.1905 0.0476"/>
    <path d="m66.093 9.5086h0.1428"/>
    <path d="m66.236 9.5086 0.1905-0.0476"/>
    <path d="m66.427 9.461 0.0953-0.0477"/>
    <path d="m66.522 9.4133 0.0952-0.0952"/>
    <path d="m66.617 9.3181 0.0476-0.1428"/>
    <path d="m66.665 9.1753v-0.2381"/>
    <path d="m65.76 9.8895-0.0477 0.0477"/>
    <path d="m65.712 9.9372-0.0476 0.0952"/>
    <path d="m65.665 10.032v0.2381"/>
    <path d="m65.665 10.27 0.0476 0.0952"/>
    <path d="m65.712 10.366 0.0477 0.0476"/>
    <path d="m65.76 10.413 0.0952 0.0477"/>
    <path d="m65.855 10.461h0.0952"/>
    <path d="m65.95 10.461 0.1429-0.0477"/>
    <path d="m66.093 10.413 0.5714-0.5714"/>
    <path d="m66.665 9.8419v0.6191"/>
   </g>
   <g transform="rotate(-90 9.06 9.6753)">
    <text transform="scale(-1 1) translate(-18.12)" x="9.0600" y="10.1753" font-size="1.3333" opacity="0" stroke-opacity="0" text-anchor="middle" lengthAdjust="spacingAndGlyphs" textLength="2.2024">D1</text>
   </g>
   <g class="stroked-text">
    <desc>D1</desc>
    <path d="m9.5148 8.9372h-1"/>
    <path d="m8.5148 8.9372v0.2381"/>
    <path d="m8.5148 9.1753 0.0476 0.1428"/>
    <path d="m8.5624 9.3181 0.0953 0.0952"/>
    <path d="m8.6577 9.4133 0.0952 0.0477"/>
    <path d="m8.7529 9.461 0.1905 0.0476"/>
    <path d="m8.9434 9.5086h0.1428"/>
    <path d="m9.0862 9.5086 0.1905-0.0476"/>
    <path d="m9.2767 9.461 0.0953-0.0477"/>
    <path d="m9.372 9.4133 0.0952-0.0952"/>
    <path d="m9.4672 9.3181 0.0476-0.1428"/>
    <path d="m9.5148 9.1753v-0.2381"/>
    <path d="m9.5148 10.461v-0.5715"/>
    <path d="m9.5148 10.175h-1"/>
    <path d="m8.5148 10.175 0.1429-0.0953"/>
    <path d="m8.6577 10.08 0.0952-0.0952"/>
    <path d="m8.7529 9.9848 0.0476-0.0953"/>
   </g>
   <g transform="rotate(-90 35.61 55.038)">
    <text transform="scale(-1 1) translate(-71.22)" x="35.6100" y="55.5377" font-size="1.3333" opacity="0" stroke-opacity="0" text-anchor="middle" lengthAdjust="spacingAndGlyphs" textLength="2.2024">D8</text>
   </g>
   <g class="stroked-text">
    <desc>D8</desc>
    <path d="m36.065 54.3h-1"/>
    <path d="m35.065 54.3v0.238"/>
    <path d="m35.065 54.538 0.0476 0.1429"/>
    <path d="m35.112 54.681 0.0953 0.0952"/>
    <path d="m35.208 54.776 0.0952 0.0477"/>
    <path d="m35.303 54.824 0.1905 0.0476"/>
    <path d="m35.493 54.871h0.1428"/>
    <path d="m35.636 54.871 0.1905-0.0476"/>
    <path d="m35.827 54.824 0.0953-0.0477"/>
    <path d="m35.922 54.776 0.0952-0.0952"/>
    <path d="m36.017 54.681 0.0476-0.1429"/>
    <path d="m36.065 54.538v-0.238"/>
    <path d="m35.493 55.442-0.0476-0.0952"/>
    <path d="m35.446 55.347-0.0476-0.0476"/>
    <path d="m35.398 55.3-0.0953-0.0477"/>
    <path d="m35.303 55.252h-0.0476"/>
    <path d="m35.255 55.252-0.0952 0.0477"/>
    <path d="m35.16 55.3-0.0477 0.0476"/>
    <path d="m35.112 55.347-0.0476 0.0952"/>
    <path d="m35.065 55.442v0.1905"/>
    <path d="m35.065 55.633 0.0476 0.0952"/>
    <path d="m35.112 55.728 0.0477 0.0476"/>
    <path d="m35.16 55.776 0.0952 0.0477"/>
    <path d="m35.255 55.824h0.0476"/>
    <path d="m35.303 55.824 0.0953-0.0477"/>
    <path d="m35.398 55.776 0.0476-0.0476"/>
    <path d="m35.446 55.728 0.0476-0.0952"/>
    <path d="m35.493 55.633v-0.1905"/>
    <path d="m35.493 55.442 0.0476-0.0952"/>
    <path d="m35.541 55.347 0.0476-0.0476"/>
    <path d="m35.589 55.3 0.0953-0.0477"/>
    <path d="m35.684 55.252h0.1904"/>
    <path d="m35.874 55.252 0.0953 0.0477"/>
    <path d="m35.97 55.3 0.0476 0.0476"/>
    <path d="m36.017 55.347 0.0476 0.0952"/>
    <path d="m36.065 55.442v0.1905"/>
    <path d="m36.065 55.633-0.0476 0.0952"/>
    <path d="m36.017 55.728-0.0476 0.0476"/>
    <path d="m35.97 55.776-0.0953 0.0477"/>
    <path d="m35.874 55.824h-0.1904"/>
    <path d="m35.684 55.824-0.0953-0.0477"/>
    <path d="m35.589 55.776-0.0476-0.0476"/>
    <path d="m35.541 55.728-0.0476-0.0952"/>
   </g>
   <g transform="rotate(-90 73.71 55.038)">
    <text transform="scale(-1 1) translate(-147.42)" x="73.7100" y="55.5377" font-size="1.3333" opacity="0" stroke-opacity="0" text-anchor="middle" lengthAdjust="spacingAndGlyphs" textLength="3.1548">D10</text>
   </g>
   <g class="stroked-text">
    <desc>D10</desc>
    <path d="m74.165 53.824h-1"/>
    <path d="m73.165 53.824v0.2381"/>
    <path d="m73.165 54.062 0.0476 0.1428"/>
    <path d="m73.212 54.204 0.0953 0.0953"/>
    <path d="m73.308 54.3 0.0952 0.0476"/>
    <path d="m73.403 54.347 0.1905 0.0476"/>
    <path d="m73.593 54.395h0.1428"/>
    <path d="m73.736 54.395 0.1905-0.0476"/>
    <path d="m73.927 54.347 0.0953-0.0476"/>
    <path d="m74.022 54.3 0.0952-0.0953"/>
    <path d="m74.117 54.204 0.0476-0.1428"/>
    <path d="m74.165 54.062v-0.2381"/>
    <path d="m74.165 55.347v-0.5715"/>
    <path d="m74.165 55.062h-1"/>
    <path d="m73.165 55.062 0.1429-0.0953"/>
    <path d="m73.308 54.966 0.0952-0.0952"/>
    <path d="m73.403 54.871 0.0476-0.0953"/>
    <path d="m73.165 55.966v0.0953"/>
    <path d="m73.165 56.062 0.0476 0.0952"/>
    <path d="m73.212 56.157 0.0477 0.0476"/>
    <path d="m73.26 56.204 0.0952 0.0476"/>
    <path d="m73.355 56.252 0.1905 0.0477"/>
    <path d="m73.546 56.3h0.2381"/>
    <path d="m73.784 56.3 0.1904-0.0477"/>
    <path d="m73.974 56.252 0.0953-0.0476"/>
    <path d="m74.07 56.204 0.0476-0.0476"/>
    <path d="m74.117 56.157 0.0476-0.0952"/>
    <path d="m74.165 56.062v-0.0953"/>
    <path d="m74.165 55.966-0.0476-0.0952"/>
    <path d="m74.117 55.871-0.0476-0.0476"/>
    <path d="m74.07 55.824-0.0953-0.0477"/>
    <path d="m73.974 55.776-0.1904-0.0476"/>
    <path d="m73.784 55.728h-0.2381"/>
    <path d="m73.546 55.728-0.1905 0.0476"/>
    <path d="m73.355 55.776-0.0952 0.0477"/>
    <path d="m73.26 55.824-0.0477 0.0476"/>
    <path d="m73.212 55.871-0.0476 0.0952"/>
   </g>
   <g transform="rotate(-90 35.61 35.988)">
    <text transform="scale(-1 1) translate(-71.22)" x="35.6100" y="36.4877" font-size="1.3333" opacity="0" stroke-opacity="0" text-anchor="middle" lengthAdjust="spacingAndGlyphs" textLength="2.2024">D4</text>
   </g>
   <g class="stroked-text">
    <desc>D4</desc>
    <path d="m36.065 35.25h-1"/>
    <path d="m35.065 35.25v0.238"/>
    <path d="m35.065 35.488 0.0476 0.1429"/>
    <path d="m35.112 35.631 0.0953 0.0952"/>
    <path d="m35.208 35.726 0.0952 0.0477"/>
    <path d="m35.303 35.774 0.1905 0.0476"/>
    <path d="m35.493 35.821h0.1428"/>
    <path d="m35.636 35.821 0.1905-0.0476"/>
    <path d="m35.827 35.774 0.0953-0.0477"/>
    <path d="m35.922 35.726 0.0952-0.0952"/>
    <path d="m36.017 35.631 0.0476-0.1429"/>
    <path d="m36.065 35.488v-0.238"/>
    <path d="m35.398 36.678h0.6666"/>
    <path d="m35.017 36.44 0.7143-0.2381"/>
    <path d="m35.732 36.202v0.6191"/>
   </g>
   <g transform="rotate(-90 54.66 35.988)">
    <text transform="scale(-1 1) translate(-109.32)" x="54.6600" y="36.4877" font-size="1.3333" opacity="0" stroke-opacity="0" text-anchor="middle" lengthAdjust="spacingAndGlyphs" textLength="2.2024">D5</text>
   </g>
   <g class="stroked-text">
    <desc>D5</desc>
    <path d="m55.115 35.25h-1"/>
    <path d="m54.115 35.25v0.238"/>
    <path d="m54.115 35.488 0.0476 0.1429"/>
    <path d="m54.162 35.631 0.0953 0.0952"/>
    <path d="m54.258 35.726 0.0952 0.0477"/>
    <path d="m54.353 35.774 0.1905 0.0476"/>
    <path d="m54.543 35.821h0.1428"/>
    <path d="m54.686 35.821 0.1905-0.0476"/>
    <path d="m54.877 35.774 0.0953-0.0477"/>
    <path d="m54.972 35.726 0.0952-0.0952"/>
    <path d="m55.067 35.631 0.0476-0.1429"/>
    <path d="m55.115 35.488v-0.238"/>
    <path d="m54.115 36.726v-0.4761"/>
    <path d="m54.115 36.25 0.4762-0.0477"/>
    <path d="m54.591 36.202-0.0476 0.0477"/>
    <path d="m54.543 36.25-0.0476 0.0952"/>
    <path d="m54.496 36.345v0.2381"/>
    <path d="m54.496 36.583 0.0476 0.0952"/>
    <path d="m54.543 36.678 0.0476 0.0476"/>
    <path d="m54.591 36.726 0.0952 0.0477"/>
    <path d="m54.686 36.774h0.2381"/>
    <path d="m54.924 36.774 0.0953-0.0477"/>
    <path d="m55.02 36.726 0.0476-0.0476"/>
    <path d="m55.067 36.678 0.0476-0.0952"/>
    <path d="m55.115 36.583v-0.2381"/>
    <path d="m55.115 36.345-0.0476-0.0952"/>
    <path d="m55.067 36.25-0.0476-0.0477"/>
   </g>
   <g transform="rotate(-90 16.56 35.988)">
    <text transform="scale(-1 1) translate(-33.12)" x="16.5600" y="36.4877" font-size="1.3333" opacity="0" stroke-opacity="0" text-anchor="middle" lengthAdjust="spacingAndGlyphs" textLength="2.2024">D3</text>
   </g>
   <g class="stroked-text">
    <desc>D3</desc>
    <path d="m17.015 35.25h-1"/>
    <path d="m16.015 35.25v0.238"/>
    <path d="m16.015 35.488 0.0476 0.1429"/>
    <path d="m16.062 35.631 0.0953 0.0952"/>
    <path d="m16.158 35.726 0.0952 0.0477"/>
    <path d="m16.253 35.774 0.1905 0.0476"/>
    <path d="m16.443 35.821h0.1428"/>
    <path d="m16.586 35.821 0.1905-0.0476"/>
    <path d="m16.777 35.774 0.0953-0.0477"/>
    <path d="m16.872 35.726 0.0952-0.0952"/>
    <path d="m16.967 35.631 0.0476-0.1429"/>
    <path d="m17.015 35.488v-0.238"/>
    <path d="m16.015 36.154v0.6191"/>
    <path d="m16.015 36.774 0.381-0.3334"/>
    <path d="m16.396 36.44v0.1429"/>
    <path d="m16.396 36.583 0.0476 0.0952"/>
    <path d="m16.443 36.678 0.0476 0.0476"/>
    <path d="m16.491 36.726 0.0952 0.0477"/>
    <path d="m16.586 36.774h0.2381"/>
    <path d="m16.824 36.774 0.0953-0.0477"/>
    <path d="m16.92 36.726 0.0476-0.0476"/>
    <path d="m16.967 36.678 0.0476-0.0952"/>
    <path d="m17.015 36.583v-0.2857"/>
    <path d="m17.015 36.297-0.0476-0.0953"/>
    <path d="m16.967 36.202-0.0476-0.0476"/>
   </g>
  </g>
  <g stroke="#BD93F9" stroke-width=".12">
   <path d="m70.805 38.071v-3.86"/>
   <path d="m72.805 38.071h-2"/>
   <path d="m72.805 38.071v-3.86"/>
   <path d="m51.755 57.121v-3.86"/>
   <path d="m53.755 57.121h-2"/>
   <path d="m53.755 57.121v-3.86"/>
   <path d="m13.655 57.121v-3.86"/>
   <path d="m15.655 57.121h-2"/>
   <path d="m15.655 57.121v-3.86"/>
   <path d="m63.305 11.758v-3.8601"/>
   <path d="m65.305 11.758h-2"/>
   <path d="m65.305 11.758v-3.8601"/>
   <path d="m6.155 11.758v-3.8601"/>
   <path d="m8.155 11.758h-2"/>
   <path d="m8.155 11.758v-3.8601"/>
   <path d="m32.705 57.121v-3.86"/>
   <path d="m34.705 57.121h-2"/>
   <path d="m34.705 57.121v-3.86"/>
   <path d="m70.805 57.121v-3.86"/>
   <path d="m72.805 57.121h-2"/>
   <path d="m72.805 57.121v-3.86"/>
   <path d="m32.705 38.071v-3.86"/>
   <path d="m34.705 38.071h-2"/>
   <path d="m34.705 38.071v-3.86"/>
   <path d="m51.755 38.071v-3.86"/>
   <path d="m53.755 38.071h-2"/>
   <path d="m53.755 38.071v-3.86"/>
   <path d="m13.655 38.071v-3.86"/>
   <path d="m15.655 38.071h-2"/>
   <path d="m15.655 38.071v-3.86"/>
  </g>
 </g>
 <g fill="#fff">
  <circle cx="4.495" cy="31.861" r=".875"/>
  <circle cx="9.575" cy="31.861" r="2"/>
  <circle cx="14.655" cy="31.861" r=".875"/>
  <circle cx="5.765" cy="29.321" r=".75"/>
  <circle cx="12.115" cy="26.781" r=".75"/>
  <circle cx="42.595" cy="50.911" r=".875"/>
  <circle cx="47.675" cy="50.911" r="2"/>
  <circle cx="52.755" cy="50.911" r=".875"/>
  <circle cx="43.865" cy="48.371" r=".75"/>
  <circle cx="50.215" cy="45.831" r=".75"/>
  <circle cx="23.545" cy="31.861" r=".875"/>
  <circle cx="28.625" cy="31.861" r="2"/>
  <circle cx="33.705" cy="31.861" r=".875"/>
  <circle cx="24.815" cy="29.321" r=".75"/>
  <circle cx="31.165" cy="26.781" r=".75"/>
  <circle cx="61.645" cy="31.861" r=".875"/>
  <circle cx="66.725" cy="31.861" r="2"/>
  <circle cx="71.805" cy="31.861" r=".875"/>
  <circle cx="62.915" cy="29.321" r=".75"/>
  <circle cx="69.265" cy="26.781" r=".75"/>
  <circle cx="23.545" cy="50.911" r=".875"/>
  <circle cx="28.625" cy="50.911" r="2"/>
  <circle cx="33.705" cy="50.911" r=".875"/>
  <circle cx="24.815" cy="48.371" r=".75"/>
  <circle cx="31.165" cy="45.831" r=".75"/>
  <circle cx="42.595" cy="31.861" r=".875"/>
  <circle cx="47.675" cy="31.861" r="2"/>
  <circle cx="52.755" cy="31.861" r=".875"/>
  <circle cx="43.865" cy="29.321" r=".75"/>
  <circle cx="50.215" cy="26.781" r=".75"/>
  <circle cx="4.495" cy="50.911" r=".875"/>
  <circle cx="9.575" cy="50.911" r="2"/>
  <circle cx="14.655" cy="50.911" r=".875"/>
  <circle cx="5.765" cy="48.371" r=".75"/>
  <circle cx="12.115" cy="45.831" r=".75"/>
  <circle cx="2.075" cy="5.5482" r=".5"/>
  <circle cx="2.075" cy="10.548" r=".5"/>
  <circle cx="2.075" cy="8.0482" r=".5"/>
 </g>
 <g fill="none" stroke="#fff" stroke-linecap="round" stroke-linejoin="round" stroke-width="1.5">
  <path d="m8.925 2.4482h1.3"/>
  <path d="m8.925 13.648h1.3"/>
 </g>
 <g fill="#fff">
  <circle cx="16.575" cy="10.548" r=".5"/>
  <circle cx="16.575" cy="5.5482" r=".5"/>
  <circle cx="61.645" cy="50.911" r=".875"/>
  <circle cx="66.725" cy="50.911" r="2"/>
  <circle cx="71.805" cy="50.911" r=".875"/>
  <circle cx="62.915" cy="48.371" r=".75"/>
  <circle cx="69.265" cy="45.831" r=".75"/>
  <circle cx="59.225" cy="5.5482" r=".5"/>
  <circle cx="59.225" cy="10.548" r=".5"/>
  <circle cx="59.225" cy="8.0482" r=".5"/>
 </g>
 <g fill="none" stroke="#fff" stroke-linecap="round" stroke-linejoin="round" stroke-width="1.5">
  <path d="m66.075 2.4482h1.3"/>
  <path d="m66.075 13.648h1.3"/>
 </g>
 <g fill="#fff">
  <circle cx="73.725" cy="10.548" r=".5"/>
  <circle cx="73.725" cy="5.5482" r=".5"/>
 </g>
</svg>
