<?xml version="1.0" encoding="UTF-8"?>
<svg width="54.64mm" height="55.745mm" version="1.1" viewBox="30 28.555 54.64 55.745" xmlns="http://www.w3.org/2000/svg">
 <title>SVG Image created as ymd09-render.svg date 2024/03/28 10:08:39</title>
 <desc>Image generated by PCBNEW</desc>
 <g fill="#282a36">
  <rect x="30" y="28.555" width="54.64" height="55.745"/>
 </g>
 <g fill-opacity="0" stroke-width="0">
  <g fill="#C83434" stroke="#C83434" stroke-linecap="round" stroke-linejoin="round">
   <g fill-opacity="1" stroke-width="0">
    <circle cx="34.29" cy="73.66" r="1.25"/>
    <circle cx="40.64" cy="71.12" r="1.25"/>
    <circle cx="72.39" cy="73.66" r="1.25"/>
    <circle cx="78.74" cy="71.12" r="1.25"/>
    <circle cx="72.39" cy="35.56" r="1.25"/>
    <circle cx="78.74" cy="33.02" r="1.25"/>
    <circle cx="72.39" cy="54.61" r="1.25"/>
    <circle cx="78.74" cy="52.07" r="1.25"/>
    <circle cx="53.34" cy="54.61" r="1.25"/>
    <circle cx="59.69" cy="52.07" r="1.25"/>
    <circle cx="53.34" cy="35.56" r="1.25"/>
    <circle cx="59.69" cy="33.02" r="1.25"/>
    <circle cx="34.29" cy="35.56" r="1.25"/>
    <circle cx="40.64" cy="33.02" r="1.25"/>
    <circle cx="53.34" cy="73.66" r="1.25"/>
    <circle cx="59.69" cy="71.12" r="1.25"/>
    <circle cx="34.29" cy="54.61" r="1.25"/>
    <circle cx="40.64" cy="52.07" r="1.25"/>
   </g>
   <g fill-opacity="0" stroke-width=".25">
    <path d="m34.29 54.61v19.05"/>
    <path d="m34.29 35.56v19.05"/>
    <path d="m53.34 54.61v19.05"/>
    <path d="m53.34 35.56v19.05"/>
    <path d="m72.39 54.61v19.05"/>
    <path d="m72.39 35.56v19.05"/>
   </g>
  </g>
 </g>
 <g stroke-linecap="round" stroke-linejoin="round">
  <g fill-opacity="0" stroke="#000" stroke-width=".25">
   <g fill="#7FC87F" fill-opacity="1" stroke="#7FC87F" stroke-linecap="round" stroke-linejoin="round" stroke-width="0">
    <circle cx="34.29" cy="73.66" r="1.25"/>
    <circle cx="40.64" cy="71.12" r="1.25"/>
    <circle cx="72.39" cy="73.66" r="1.25"/>
    <circle cx="78.74" cy="71.12" r="1.25"/>
    <circle cx="72.39" cy="35.56" r="1.25"/>
    <circle cx="78.74" cy="33.02" r="1.25"/>
    <circle cx="72.39" cy="54.61" r="1.25"/>
    <circle cx="78.74" cy="52.07" r="1.25"/>
    <circle cx="53.34" cy="54.61" r="1.25"/>
    <circle cx="59.69" cy="52.07" r="1.25"/>
    <circle cx="53.34" cy="35.56" r="1.25"/>
    <circle cx="59.69" cy="33.02" r="1.25"/>
    <circle cx="34.29" cy="35.56" r="1.25"/>
    <circle cx="40.64" cy="33.02" r="1.25"/>
    <circle cx="53.34" cy="73.66" r="1.25"/>
    <circle cx="59.69" cy="71.12" r="1.25"/>
    <circle cx="34.29" cy="54.61" r="1.25"/>
    <circle cx="40.64" cy="52.07" r="1.25"/>
   </g>
  </g>
  <g stroke="#000" stroke-width=".021">
   <g fill="#CE7D2C" stroke="#CE7D2C" stroke-linecap="round" stroke-linejoin="round" stroke-width="0">
    <circle cx="34.29" cy="73.66" r="1.25"/>
    <circle cx="40.64" cy="71.12" r="1.25"/>
    <circle cx="72.39" cy="73.66" r="1.25"/>
    <circle cx="78.74" cy="71.12" r="1.25"/>
    <circle cx="72.39" cy="35.56" r="1.25"/>
    <circle cx="78.74" cy="33.02" r="1.25"/>
    <circle cx="72.39" cy="54.61" r="1.25"/>
    <circle cx="78.74" cy="52.07" r="1.25"/>
    <circle cx="53.34" cy="54.61" r="1.25"/>
    <circle cx="59.69" cy="52.07" r="1.25"/>
    <circle cx="53.34" cy="35.56" r="1.25"/>
    <circle cx="59.69" cy="33.02" r="1.25"/>
    <circle cx="34.29" cy="35.56" r="1.25"/>
    <circle cx="40.64" cy="33.02" r="1.25"/>
    <circle cx="53.34" cy="73.66" r="1.25"/>
    <circle cx="59.69" cy="71.12" r="1.25"/>
    <circle cx="34.29" cy="54.61" r="1.25"/>
    <circle cx="40.64" cy="52.07" r="1.25"/>
   </g>
   <g fill="#4FCBCB" stroke="#4FCBCB" stroke-linecap="round" stroke-linejoin="round" stroke-width="0">
    <circle cx="34.29" cy="73.66" r="1.25"/>
    <circle cx="40.64" cy="71.12" r="1.25"/>
    <circle cx="72.39" cy="73.66" r="1.25"/>
    <circle cx="78.74" cy="71.12" r="1.25"/>
    <circle cx="72.39" cy="35.56" r="1.25"/>
    <circle cx="78.74" cy="33.02" r="1.25"/>
    <circle cx="72.39" cy="54.61" r="1.25"/>
    <circle cx="78.74" cy="52.07" r="1.25"/>
    <circle cx="53.34" cy="54.61" r="1.25"/>
    <circle cx="59.69" cy="52.07" r="1.25"/>
    <circle cx="53.34" cy="35.56" r="1.25"/>
    <circle cx="59.69" cy="33.02" r="1.25"/>
    <circle cx="34.29" cy="35.56" r="1.25"/>
    <circle cx="40.64" cy="33.02" r="1.25"/>
    <circle cx="53.34" cy="73.66" r="1.25"/>
    <circle cx="59.69" cy="71.12" r="1.25"/>
    <circle cx="34.29" cy="54.61" r="1.25"/>
    <circle cx="40.64" cy="52.07" r="1.25"/>
   </g>
   <g fill="#DB628B" stroke="#DB628B" stroke-linecap="round" stroke-linejoin="round" stroke-width="0">
    <circle cx="34.29" cy="73.66" r="1.25"/>
    <circle cx="40.64" cy="71.12" r="1.25"/>
    <circle cx="72.39" cy="73.66" r="1.25"/>
    <circle cx="78.74" cy="71.12" r="1.25"/>
    <circle cx="72.39" cy="35.56" r="1.25"/>
    <circle cx="78.74" cy="33.02" r="1.25"/>
    <circle cx="72.39" cy="54.61" r="1.25"/>
    <circle cx="78.74" cy="52.07" r="1.25"/>
    <circle cx="53.34" cy="54.61" r="1.25"/>
    <circle cx="59.69" cy="52.07" r="1.25"/>
    <circle cx="53.34" cy="35.56" r="1.25"/>
    <circle cx="59.69" cy="33.02" r="1.25"/>
    <circle cx="34.29" cy="35.56" r="1.25"/>
    <circle cx="40.64" cy="33.02" r="1.25"/>
    <circle cx="53.34" cy="73.66" r="1.25"/>
    <circle cx="59.69" cy="71.12" r="1.25"/>
    <circle cx="34.29" cy="54.61" r="1.25"/>
    <circle cx="40.64" cy="52.07" r="1.25"/>
   </g>
   <g fill="#A7A5C6" stroke="#A7A5C6" stroke-linecap="round" stroke-linejoin="round" stroke-width="0">
    <circle cx="34.29" cy="73.66" r="1.25"/>
    <circle cx="40.64" cy="71.12" r="1.25"/>
    <circle cx="72.39" cy="73.66" r="1.25"/>
    <circle cx="78.74" cy="71.12" r="1.25"/>
    <circle cx="72.39" cy="35.56" r="1.25"/>
    <circle cx="78.74" cy="33.02" r="1.25"/>
    <circle cx="72.39" cy="54.61" r="1.25"/>
    <circle cx="78.74" cy="52.07" r="1.25"/>
    <circle cx="53.34" cy="54.61" r="1.25"/>
    <circle cx="59.69" cy="52.07" r="1.25"/>
    <circle cx="53.34" cy="35.56" r="1.25"/>
    <circle cx="59.69" cy="33.02" r="1.25"/>
    <circle cx="34.29" cy="35.56" r="1.25"/>
    <circle cx="40.64" cy="33.02" r="1.25"/>
    <circle cx="53.34" cy="73.66" r="1.25"/>
    <circle cx="59.69" cy="71.12" r="1.25"/>
    <circle cx="34.29" cy="54.61" r="1.25"/>
    <circle cx="40.64" cy="52.07" r="1.25"/>
   </g>
   <g fill="#28CCD9" stroke="#28CCD9" stroke-linecap="round" stroke-linejoin="round" stroke-width="0">
    <circle cx="34.29" cy="73.66" r="1.25"/>
    <circle cx="40.64" cy="71.12" r="1.25"/>
    <circle cx="72.39" cy="73.66" r="1.25"/>
    <circle cx="78.74" cy="71.12" r="1.25"/>
    <circle cx="72.39" cy="35.56" r="1.25"/>
    <circle cx="78.74" cy="33.02" r="1.25"/>
    <circle cx="72.39" cy="54.61" r="1.25"/>
    <circle cx="78.74" cy="52.07" r="1.25"/>
    <circle cx="53.34" cy="54.61" r="1.25"/>
    <circle cx="59.69" cy="52.07" r="1.25"/>
    <circle cx="53.34" cy="35.56" r="1.25"/>
    <circle cx="59.69" cy="33.02" r="1.25"/>
    <circle cx="34.29" cy="35.56" r="1.25"/>
    <circle cx="40.64" cy="33.02" r="1.25"/>
    <circle cx="53.34" cy="73.66" r="1.25"/>
    <circle cx="59.69" cy="71.12" r="1.25"/>
    <circle cx="34.29" cy="54.61" r="1.25"/>
    <circle cx="40.64" cy="52.07" r="1.25"/>
   </g>
   <g fill="#E8B2A7" stroke="#E8B2A7" stroke-linecap="round" stroke-linejoin="round" stroke-width="0">
    <circle cx="34.29" cy="73.66" r="1.25"/>
    <circle cx="40.64" cy="71.12" r="1.25"/>
    <circle cx="72.39" cy="73.66" r="1.25"/>
    <circle cx="78.74" cy="71.12" r="1.25"/>
    <circle cx="72.39" cy="35.56" r="1.25"/>
    <circle cx="78.74" cy="33.02" r="1.25"/>
    <circle cx="72.39" cy="54.61" r="1.25"/>
    <circle cx="78.74" cy="52.07" r="1.25"/>
    <circle cx="53.34" cy="54.61" r="1.25"/>
    <circle cx="59.69" cy="52.07" r="1.25"/>
    <circle cx="53.34" cy="35.56" r="1.25"/>
    <circle cx="59.69" cy="33.02" r="1.25"/>
    <circle cx="34.29" cy="35.56" r="1.25"/>
    <circle cx="40.64" cy="33.02" r="1.25"/>
    <circle cx="53.34" cy="73.66" r="1.25"/>
    <circle cx="59.69" cy="71.12" r="1.25"/>
    <circle cx="34.29" cy="54.61" r="1.25"/>
    <circle cx="40.64" cy="52.07" r="1.25"/>
   </g>
   <g fill="#F2EDA1" stroke="#F2EDA1" stroke-linecap="round" stroke-linejoin="round" stroke-width="0">
    <circle cx="34.29" cy="73.66" r="1.25"/>
    <circle cx="40.64" cy="71.12" r="1.25"/>
    <circle cx="72.39" cy="73.66" r="1.25"/>
    <circle cx="78.74" cy="71.12" r="1.25"/>
    <circle cx="72.39" cy="35.56" r="1.25"/>
    <circle cx="78.74" cy="33.02" r="1.25"/>
    <circle cx="72.39" cy="54.61" r="1.25"/>
    <circle cx="78.74" cy="52.07" r="1.25"/>
    <circle cx="53.34" cy="54.61" r="1.25"/>
    <circle cx="59.69" cy="52.07" r="1.25"/>
    <circle cx="53.34" cy="35.56" r="1.25"/>
    <circle cx="59.69" cy="33.02" r="1.25"/>
    <circle cx="34.29" cy="35.56" r="1.25"/>
    <circle cx="40.64" cy="33.02" r="1.25"/>
    <circle cx="53.34" cy="73.66" r="1.25"/>
    <circle cx="59.69" cy="71.12" r="1.25"/>
    <circle cx="34.29" cy="54.61" r="1.25"/>
    <circle cx="40.64" cy="52.07" r="1.25"/>
   </g>
   <g fill="#8DCB81" stroke="#8DCB81" stroke-linecap="round" stroke-linejoin="round" stroke-width="0">
    <circle cx="34.29" cy="73.66" r="1.25"/>
    <circle cx="40.64" cy="71.12" r="1.25"/>
    <circle cx="72.39" cy="73.66" r="1.25"/>
    <circle cx="78.74" cy="71.12" r="1.25"/>
    <circle cx="72.39" cy="35.56" r="1.25"/>
    <circle cx="78.74" cy="33.02" r="1.25"/>
    <circle cx="72.39" cy="54.61" r="1.25"/>
    <circle cx="78.74" cy="52.07" r="1.25"/>
    <circle cx="53.34" cy="54.61" r="1.25"/>
    <circle cx="59.69" cy="52.07" r="1.25"/>
    <circle cx="53.34" cy="35.56" r="1.25"/>
    <circle cx="59.69" cy="33.02" r="1.25"/>
    <circle cx="34.29" cy="35.56" r="1.25"/>
    <circle cx="40.64" cy="33.02" r="1.25"/>
    <circle cx="53.34" cy="73.66" r="1.25"/>
    <circle cx="59.69" cy="71.12" r="1.25"/>
    <circle cx="34.29" cy="54.61" r="1.25"/>
    <circle cx="40.64" cy="52.07" r="1.25"/>
   </g>
   <g fill="#ED7C33" stroke="#ED7C33" stroke-linecap="round" stroke-linejoin="round" stroke-width="0">
    <circle cx="34.29" cy="73.66" r="1.25"/>
    <circle cx="40.64" cy="71.12" r="1.25"/>
    <circle cx="72.39" cy="73.66" r="1.25"/>
    <circle cx="78.74" cy="71.12" r="1.25"/>
    <circle cx="72.39" cy="35.56" r="1.25"/>
    <circle cx="78.74" cy="33.02" r="1.25"/>
    <circle cx="72.39" cy="54.61" r="1.25"/>
    <circle cx="78.74" cy="52.07" r="1.25"/>
    <circle cx="53.34" cy="54.61" r="1.25"/>
    <circle cx="59.69" cy="52.07" r="1.25"/>
    <circle cx="53.34" cy="35.56" r="1.25"/>
    <circle cx="59.69" cy="33.02" r="1.25"/>
    <circle cx="34.29" cy="35.56" r="1.25"/>
    <circle cx="40.64" cy="33.02" r="1.25"/>
    <circle cx="53.34" cy="73.66" r="1.25"/>
    <circle cx="59.69" cy="71.12" r="1.25"/>
    <circle cx="34.29" cy="54.61" r="1.25"/>
    <circle cx="40.64" cy="52.07" r="1.25"/>
   </g>
   <g fill="#5BC3EB" stroke="#5BC3EB" stroke-linecap="round" stroke-linejoin="round" stroke-width="0">
    <circle cx="34.29" cy="73.66" r="1.25"/>
    <circle cx="40.64" cy="71.12" r="1.25"/>
    <circle cx="72.39" cy="73.66" r="1.25"/>
    <circle cx="78.74" cy="71.12" r="1.25"/>
    <circle cx="72.39" cy="35.56" r="1.25"/>
    <circle cx="78.74" cy="33.02" r="1.25"/>
    <circle cx="72.39" cy="54.61" r="1.25"/>
    <circle cx="78.74" cy="52.07" r="1.25"/>
    <circle cx="53.34" cy="54.61" r="1.25"/>
    <circle cx="59.69" cy="52.07" r="1.25"/>
    <circle cx="53.34" cy="35.56" r="1.25"/>
    <circle cx="59.69" cy="33.02" r="1.25"/>
    <circle cx="34.29" cy="35.56" r="1.25"/>
    <circle cx="40.64" cy="33.02" r="1.25"/>
    <circle cx="53.34" cy="73.66" r="1.25"/>
    <circle cx="59.69" cy="71.12" r="1.25"/>
    <circle cx="34.29" cy="54.61" r="1.25"/>
    <circle cx="40.64" cy="52.07" r="1.25"/>
   </g>
   <g fill="#F76F8E" stroke="#F76F8E" stroke-linecap="round" stroke-linejoin="round" stroke-width="0">
    <circle cx="34.29" cy="73.66" r="1.25"/>
    <circle cx="40.64" cy="71.12" r="1.25"/>
    <circle cx="72.39" cy="73.66" r="1.25"/>
    <circle cx="78.74" cy="71.12" r="1.25"/>
    <circle cx="72.39" cy="35.56" r="1.25"/>
    <circle cx="78.74" cy="33.02" r="1.25"/>
    <circle cx="72.39" cy="54.61" r="1.25"/>
    <circle cx="78.74" cy="52.07" r="1.25"/>
    <circle cx="53.34" cy="54.61" r="1.25"/>
    <circle cx="59.69" cy="52.07" r="1.25"/>
    <circle cx="53.34" cy="35.56" r="1.25"/>
    <circle cx="59.69" cy="33.02" r="1.25"/>
    <circle cx="34.29" cy="35.56" r="1.25"/>
    <circle cx="40.64" cy="33.02" r="1.25"/>
    <circle cx="53.34" cy="73.66" r="1.25"/>
    <circle cx="59.69" cy="71.12" r="1.25"/>
    <circle cx="34.29" cy="54.61" r="1.25"/>
    <circle cx="40.64" cy="52.07" r="1.25"/>
   </g>
   <g fill="#A7A5C6" stroke="#A7A5C6" stroke-linecap="round" stroke-linejoin="round" stroke-width="0">
    <circle cx="34.29" cy="73.66" r="1.25"/>
    <circle cx="40.64" cy="71.12" r="1.25"/>
    <circle cx="72.39" cy="73.66" r="1.25"/>
    <circle cx="78.74" cy="71.12" r="1.25"/>
    <circle cx="72.39" cy="35.56" r="1.25"/>
    <circle cx="78.74" cy="33.02" r="1.25"/>
    <circle cx="72.39" cy="54.61" r="1.25"/>
    <circle cx="78.74" cy="52.07" r="1.25"/>
    <circle cx="53.34" cy="54.61" r="1.25"/>
    <circle cx="59.69" cy="52.07" r="1.25"/>
    <circle cx="53.34" cy="35.56" r="1.25"/>
    <circle cx="59.69" cy="33.02" r="1.25"/>
    <circle cx="34.29" cy="35.56" r="1.25"/>
    <circle cx="40.64" cy="33.02" r="1.25"/>
    <circle cx="53.34" cy="73.66" r="1.25"/>
    <circle cx="59.69" cy="71.12" r="1.25"/>
    <circle cx="34.29" cy="54.61" r="1.25"/>
    <circle cx="40.64" cy="52.07" r="1.25"/>
   </g>
   <g fill="#28CCD9" stroke="#28CCD9" stroke-linecap="round" stroke-linejoin="round" stroke-width="0">
    <circle cx="34.29" cy="73.66" r="1.25"/>
    <circle cx="40.64" cy="71.12" r="1.25"/>
    <circle cx="72.39" cy="73.66" r="1.25"/>
    <circle cx="78.74" cy="71.12" r="1.25"/>
    <circle cx="72.39" cy="35.56" r="1.25"/>
    <circle cx="78.74" cy="33.02" r="1.25"/>
    <circle cx="72.39" cy="54.61" r="1.25"/>
    <circle cx="78.74" cy="52.07" r="1.25"/>
    <circle cx="53.34" cy="54.61" r="1.25"/>
    <circle cx="59.69" cy="52.07" r="1.25"/>
    <circle cx="53.34" cy="35.56" r="1.25"/>
    <circle cx="59.69" cy="33.02" r="1.25"/>
    <circle cx="34.29" cy="35.56" r="1.25"/>
    <circle cx="40.64" cy="33.02" r="1.25"/>
    <circle cx="53.34" cy="73.66" r="1.25"/>
    <circle cx="59.69" cy="71.12" r="1.25"/>
    <circle cx="34.29" cy="54.61" r="1.25"/>
    <circle cx="40.64" cy="52.07" r="1.25"/>
   </g>
   <g fill="#E8B2A7" stroke="#E8B2A7" stroke-linecap="round" stroke-linejoin="round" stroke-width="0">
    <circle cx="34.29" cy="73.66" r="1.25"/>
    <circle cx="40.64" cy="71.12" r="1.25"/>
    <circle cx="72.39" cy="73.66" r="1.25"/>
    <circle cx="78.74" cy="71.12" r="1.25"/>
    <circle cx="72.39" cy="35.56" r="1.25"/>
    <circle cx="78.74" cy="33.02" r="1.25"/>
    <circle cx="72.39" cy="54.61" r="1.25"/>
    <circle cx="78.74" cy="52.07" r="1.25"/>
    <circle cx="53.34" cy="54.61" r="1.25"/>
    <circle cx="59.69" cy="52.07" r="1.25"/>
    <circle cx="53.34" cy="35.56" r="1.25"/>
    <circle cx="59.69" cy="33.02" r="1.25"/>
    <circle cx="34.29" cy="35.56" r="1.25"/>
    <circle cx="40.64" cy="33.02" r="1.25"/>
    <circle cx="53.34" cy="73.66" r="1.25"/>
    <circle cx="59.69" cy="71.12" r="1.25"/>
    <circle cx="34.29" cy="54.61" r="1.25"/>
    <circle cx="40.64" cy="52.07" r="1.25"/>
   </g>
   <g fill="#F2EDA1" stroke="#F2EDA1" stroke-linecap="round" stroke-linejoin="round" stroke-width="0">
    <circle cx="34.29" cy="73.66" r="1.25"/>
    <circle cx="40.64" cy="71.12" r="1.25"/>
    <circle cx="72.39" cy="73.66" r="1.25"/>
    <circle cx="78.74" cy="71.12" r="1.25"/>
    <circle cx="72.39" cy="35.56" r="1.25"/>
    <circle cx="78.74" cy="33.02" r="1.25"/>
    <circle cx="72.39" cy="54.61" r="1.25"/>
    <circle cx="78.74" cy="52.07" r="1.25"/>
    <circle cx="53.34" cy="54.61" r="1.25"/>
    <circle cx="59.69" cy="52.07" r="1.25"/>
    <circle cx="53.34" cy="35.56" r="1.25"/>
    <circle cx="59.69" cy="33.02" r="1.25"/>
    <circle cx="34.29" cy="35.56" r="1.25"/>
    <circle cx="40.64" cy="33.02" r="1.25"/>
    <circle cx="53.34" cy="73.66" r="1.25"/>
    <circle cx="59.69" cy="71.12" r="1.25"/>
    <circle cx="34.29" cy="54.61" r="1.25"/>
    <circle cx="40.64" cy="52.07" r="1.25"/>
   </g>
   <g fill="#ED7C33" stroke="#ED7C33" stroke-linecap="round" stroke-linejoin="round" stroke-width="0">
    <circle cx="34.29" cy="73.66" r="1.25"/>
    <circle cx="40.64" cy="71.12" r="1.25"/>
    <circle cx="72.39" cy="73.66" r="1.25"/>
    <circle cx="78.74" cy="71.12" r="1.25"/>
    <circle cx="72.39" cy="35.56" r="1.25"/>
    <circle cx="78.74" cy="33.02" r="1.25"/>
    <circle cx="72.39" cy="54.61" r="1.25"/>
    <circle cx="78.74" cy="52.07" r="1.25"/>
    <circle cx="53.34" cy="54.61" r="1.25"/>
    <circle cx="59.69" cy="52.07" r="1.25"/>
    <circle cx="53.34" cy="35.56" r="1.25"/>
    <circle cx="59.69" cy="33.02" r="1.25"/>
    <circle cx="34.29" cy="35.56" r="1.25"/>
    <circle cx="40.64" cy="33.02" r="1.25"/>
    <circle cx="53.34" cy="73.66" r="1.25"/>
    <circle cx="59.69" cy="71.12" r="1.25"/>
    <circle cx="34.29" cy="54.61" r="1.25"/>
    <circle cx="40.64" cy="52.07" r="1.25"/>
   </g>
   <g fill="#5BC3EB" stroke="#5BC3EB" stroke-linecap="round" stroke-linejoin="round" stroke-width="0">
    <circle cx="34.29" cy="73.66" r="1.25"/>
    <circle cx="40.64" cy="71.12" r="1.25"/>
    <circle cx="72.39" cy="73.66" r="1.25"/>
    <circle cx="78.74" cy="71.12" r="1.25"/>
    <circle cx="72.39" cy="35.56" r="1.25"/>
    <circle cx="78.74" cy="33.02" r="1.25"/>
    <circle cx="72.39" cy="54.61" r="1.25"/>
    <circle cx="78.74" cy="52.07" r="1.25"/>
    <circle cx="53.34" cy="54.61" r="1.25"/>
    <circle cx="59.69" cy="52.07" r="1.25"/>
    <circle cx="53.34" cy="35.56" r="1.25"/>
    <circle cx="59.69" cy="33.02" r="1.25"/>
    <circle cx="34.29" cy="35.56" r="1.25"/>
    <circle cx="40.64" cy="33.02" r="1.25"/>
    <circle cx="53.34" cy="73.66" r="1.25"/>
    <circle cx="59.69" cy="71.12" r="1.25"/>
    <circle cx="34.29" cy="54.61" r="1.25"/>
    <circle cx="40.64" cy="52.07" r="1.25"/>
   </g>
   <g fill="#F76F8E" stroke="#F76F8E" stroke-linecap="round" stroke-linejoin="round" stroke-width="0">
    <circle cx="34.29" cy="73.66" r="1.25"/>
    <circle cx="40.64" cy="71.12" r="1.25"/>
    <circle cx="72.39" cy="73.66" r="1.25"/>
    <circle cx="78.74" cy="71.12" r="1.25"/>
    <circle cx="72.39" cy="35.56" r="1.25"/>
    <circle cx="78.74" cy="33.02" r="1.25"/>
    <circle cx="72.39" cy="54.61" r="1.25"/>
    <circle cx="78.74" cy="52.07" r="1.25"/>
    <circle cx="53.34" cy="54.61" r="1.25"/>
    <circle cx="59.69" cy="52.07" r="1.25"/>
    <circle cx="53.34" cy="35.56" r="1.25"/>
    <circle cx="59.69" cy="33.02" r="1.25"/>
    <circle cx="34.29" cy="35.56" r="1.25"/>
    <circle cx="40.64" cy="33.02" r="1.25"/>
    <circle cx="53.34" cy="73.66" r="1.25"/>
    <circle cx="59.69" cy="71.12" r="1.25"/>
    <circle cx="34.29" cy="54.61" r="1.25"/>
    <circle cx="40.64" cy="52.07" r="1.25"/>
   </g>
   <g fill="#A7A5C6" stroke="#A7A5C6" stroke-linecap="round" stroke-linejoin="round" stroke-width="0">
    <circle cx="34.29" cy="73.66" r="1.25"/>
    <circle cx="40.64" cy="71.12" r="1.25"/>
    <circle cx="72.39" cy="73.66" r="1.25"/>
    <circle cx="78.74" cy="71.12" r="1.25"/>
    <circle cx="72.39" cy="35.56" r="1.25"/>
    <circle cx="78.74" cy="33.02" r="1.25"/>
    <circle cx="72.39" cy="54.61" r="1.25"/>
    <circle cx="78.74" cy="52.07" r="1.25"/>
    <circle cx="53.34" cy="54.61" r="1.25"/>
    <circle cx="59.69" cy="52.07" r="1.25"/>
    <circle cx="53.34" cy="35.56" r="1.25"/>
    <circle cx="59.69" cy="33.02" r="1.25"/>
    <circle cx="34.29" cy="35.56" r="1.25"/>
    <circle cx="40.64" cy="33.02" r="1.25"/>
    <circle cx="53.34" cy="73.66" r="1.25"/>
    <circle cx="59.69" cy="71.12" r="1.25"/>
    <circle cx="34.29" cy="54.61" r="1.25"/>
    <circle cx="40.64" cy="52.07" r="1.25"/>
   </g>
   <g fill="#28CCD9" stroke="#28CCD9" stroke-linecap="round" stroke-linejoin="round" stroke-width="0">
    <circle cx="34.29" cy="73.66" r="1.25"/>
    <circle cx="40.64" cy="71.12" r="1.25"/>
    <circle cx="72.39" cy="73.66" r="1.25"/>
    <circle cx="78.74" cy="71.12" r="1.25"/>
    <circle cx="72.39" cy="35.56" r="1.25"/>
    <circle cx="78.74" cy="33.02" r="1.25"/>
    <circle cx="72.39" cy="54.61" r="1.25"/>
    <circle cx="78.74" cy="52.07" r="1.25"/>
    <circle cx="53.34" cy="54.61" r="1.25"/>
    <circle cx="59.69" cy="52.07" r="1.25"/>
    <circle cx="53.34" cy="35.56" r="1.25"/>
    <circle cx="59.69" cy="33.02" r="1.25"/>
    <circle cx="34.29" cy="35.56" r="1.25"/>
    <circle cx="40.64" cy="33.02" r="1.25"/>
    <circle cx="53.34" cy="73.66" r="1.25"/>
    <circle cx="59.69" cy="71.12" r="1.25"/>
    <circle cx="34.29" cy="54.61" r="1.25"/>
    <circle cx="40.64" cy="52.07" r="1.25"/>
   </g>
   <g fill="#E8B2A7" stroke="#E8B2A7" stroke-linecap="round" stroke-linejoin="round" stroke-width="0">
    <circle cx="34.29" cy="73.66" r="1.25"/>
    <circle cx="40.64" cy="71.12" r="1.25"/>
    <circle cx="72.39" cy="73.66" r="1.25"/>
    <circle cx="78.74" cy="71.12" r="1.25"/>
    <circle cx="72.39" cy="35.56" r="1.25"/>
    <circle cx="78.74" cy="33.02" r="1.25"/>
    <circle cx="72.39" cy="54.61" r="1.25"/>
    <circle cx="78.74" cy="52.07" r="1.25"/>
    <circle cx="53.34" cy="54.61" r="1.25"/>
    <circle cx="59.69" cy="52.07" r="1.25"/>
    <circle cx="53.34" cy="35.56" r="1.25"/>
    <circle cx="59.69" cy="33.02" r="1.25"/>
    <circle cx="34.29" cy="35.56" r="1.25"/>
    <circle cx="40.64" cy="33.02" r="1.25"/>
    <circle cx="53.34" cy="73.66" r="1.25"/>
    <circle cx="59.69" cy="71.12" r="1.25"/>
    <circle cx="34.29" cy="54.61" r="1.25"/>
    <circle cx="40.64" cy="52.07" r="1.25"/>
   </g>
   <g fill="#F2EDA1" stroke="#F2EDA1" stroke-linecap="round" stroke-linejoin="round" stroke-width="0">
    <circle cx="34.29" cy="73.66" r="1.25"/>
    <circle cx="40.64" cy="71.12" r="1.25"/>
    <circle cx="72.39" cy="73.66" r="1.25"/>
    <circle cx="78.74" cy="71.12" r="1.25"/>
    <circle cx="72.39" cy="35.56" r="1.25"/>
    <circle cx="78.74" cy="33.02" r="1.25"/>
    <circle cx="72.39" cy="54.61" r="1.25"/>
    <circle cx="78.74" cy="52.07" r="1.25"/>
    <circle cx="53.34" cy="54.61" r="1.25"/>
    <circle cx="59.69" cy="52.07" r="1.25"/>
    <circle cx="53.34" cy="35.56" r="1.25"/>
    <circle cx="59.69" cy="33.02" r="1.25"/>
    <circle cx="34.29" cy="35.56" r="1.25"/>
    <circle cx="40.64" cy="33.02" r="1.25"/>
    <circle cx="53.34" cy="73.66" r="1.25"/>
    <circle cx="59.69" cy="71.12" r="1.25"/>
    <circle cx="34.29" cy="54.61" r="1.25"/>
    <circle cx="40.64" cy="52.07" r="1.25"/>
   </g>
   <g fill="#ED7C33" stroke="#ED7C33" stroke-linecap="round" stroke-linejoin="round" stroke-width="0">
    <circle cx="34.29" cy="73.66" r="1.25"/>
    <circle cx="40.64" cy="71.12" r="1.25"/>
    <circle cx="72.39" cy="73.66" r="1.25"/>
    <circle cx="78.74" cy="71.12" r="1.25"/>
    <circle cx="72.39" cy="35.56" r="1.25"/>
    <circle cx="78.74" cy="33.02" r="1.25"/>
    <circle cx="72.39" cy="54.61" r="1.25"/>
    <circle cx="78.74" cy="52.07" r="1.25"/>
    <circle cx="53.34" cy="54.61" r="1.25"/>
    <circle cx="59.69" cy="52.07" r="1.25"/>
    <circle cx="53.34" cy="35.56" r="1.25"/>
    <circle cx="59.69" cy="33.02" r="1.25"/>
    <circle cx="34.29" cy="35.56" r="1.25"/>
    <circle cx="40.64" cy="33.02" r="1.25"/>
    <circle cx="53.34" cy="73.66" r="1.25"/>
    <circle cx="59.69" cy="71.12" r="1.25"/>
    <circle cx="34.29" cy="54.61" r="1.25"/>
    <circle cx="40.64" cy="52.07" r="1.25"/>
   </g>
   <g fill="#5BC3EB" stroke="#5BC3EB" stroke-linecap="round" stroke-linejoin="round" stroke-width="0">
    <circle cx="34.29" cy="73.66" r="1.25"/>
    <circle cx="40.64" cy="71.12" r="1.25"/>
    <circle cx="72.39" cy="73.66" r="1.25"/>
    <circle cx="78.74" cy="71.12" r="1.25"/>
    <circle cx="72.39" cy="35.56" r="1.25"/>
    <circle cx="78.74" cy="33.02" r="1.25"/>
    <circle cx="72.39" cy="54.61" r="1.25"/>
    <circle cx="78.74" cy="52.07" r="1.25"/>
    <circle cx="53.34" cy="54.61" r="1.25"/>
    <circle cx="59.69" cy="52.07" r="1.25"/>
    <circle cx="53.34" cy="35.56" r="1.25"/>
    <circle cx="59.69" cy="33.02" r="1.25"/>
    <circle cx="34.29" cy="35.56" r="1.25"/>
    <circle cx="40.64" cy="33.02" r="1.25"/>
    <circle cx="53.34" cy="73.66" r="1.25"/>
    <circle cx="59.69" cy="71.12" r="1.25"/>
    <circle cx="34.29" cy="54.61" r="1.25"/>
    <circle cx="40.64" cy="52.07" r="1.25"/>
   </g>
   <g fill="#F76F8E" stroke="#F76F8E" stroke-linecap="round" stroke-linejoin="round" stroke-width="0">
    <circle cx="34.29" cy="73.66" r="1.25"/>
    <circle cx="40.64" cy="71.12" r="1.25"/>
    <circle cx="72.39" cy="73.66" r="1.25"/>
    <circle cx="78.74" cy="71.12" r="1.25"/>
    <circle cx="72.39" cy="35.56" r="1.25"/>
    <circle cx="78.74" cy="33.02" r="1.25"/>
    <circle cx="72.39" cy="54.61" r="1.25"/>
    <circle cx="78.74" cy="52.07" r="1.25"/>
    <circle cx="53.34" cy="54.61" r="1.25"/>
    <circle cx="59.69" cy="52.07" r="1.25"/>
    <circle cx="53.34" cy="35.56" r="1.25"/>
    <circle cx="59.69" cy="33.02" r="1.25"/>
    <circle cx="34.29" cy="35.56" r="1.25"/>
    <circle cx="40.64" cy="33.02" r="1.25"/>
    <circle cx="53.34" cy="73.66" r="1.25"/>
    <circle cx="59.69" cy="71.12" r="1.25"/>
    <circle cx="34.29" cy="54.61" r="1.25"/>
    <circle cx="40.64" cy="52.07" r="1.25"/>
   </g>
   <g fill="#A7A5C6" stroke="#A7A5C6" stroke-linecap="round" stroke-linejoin="round" stroke-width="0">
    <circle cx="34.29" cy="73.66" r="1.25"/>
    <circle cx="40.64" cy="71.12" r="1.25"/>
    <circle cx="72.39" cy="73.66" r="1.25"/>
    <circle cx="78.74" cy="71.12" r="1.25"/>
    <circle cx="72.39" cy="35.56" r="1.25"/>
    <circle cx="78.74" cy="33.02" r="1.25"/>
    <circle cx="72.39" cy="54.61" r="1.25"/>
    <circle cx="78.74" cy="52.07" r="1.25"/>
    <circle cx="53.34" cy="54.61" r="1.25"/>
    <circle cx="59.69" cy="52.07" r="1.25"/>
    <circle cx="53.34" cy="35.56" r="1.25"/>
    <circle cx="59.69" cy="33.02" r="1.25"/>
    <circle cx="34.29" cy="35.56" r="1.25"/>
    <circle cx="40.64" cy="33.02" r="1.25"/>
    <circle cx="53.34" cy="73.66" r="1.25"/>
    <circle cx="59.69" cy="71.12" r="1.25"/>
    <circle cx="34.29" cy="54.61" r="1.25"/>
    <circle cx="40.64" cy="52.07" r="1.25"/>
   </g>
   <g fill="#28CCD9" stroke="#28CCD9" stroke-linecap="round" stroke-linejoin="round" stroke-width="0">
    <circle cx="34.29" cy="73.66" r="1.25"/>
    <circle cx="40.64" cy="71.12" r="1.25"/>
    <circle cx="72.39" cy="73.66" r="1.25"/>
    <circle cx="78.74" cy="71.12" r="1.25"/>
    <circle cx="72.39" cy="35.56" r="1.25"/>
    <circle cx="78.74" cy="33.02" r="1.25"/>
    <circle cx="72.39" cy="54.61" r="1.25"/>
    <circle cx="78.74" cy="52.07" r="1.25"/>
    <circle cx="53.34" cy="54.61" r="1.25"/>
    <circle cx="59.69" cy="52.07" r="1.25"/>
    <circle cx="53.34" cy="35.56" r="1.25"/>
    <circle cx="59.69" cy="33.02" r="1.25"/>
    <circle cx="34.29" cy="35.56" r="1.25"/>
    <circle cx="40.64" cy="33.02" r="1.25"/>
    <circle cx="53.34" cy="73.66" r="1.25"/>
    <circle cx="59.69" cy="71.12" r="1.25"/>
    <circle cx="34.29" cy="54.61" r="1.25"/>
    <circle cx="40.64" cy="52.07" r="1.25"/>
   </g>
   <g fill="#E8B2A7" stroke="#E8B2A7" stroke-linecap="round" stroke-linejoin="round" stroke-width="0">
    <circle cx="34.29" cy="73.66" r="1.25"/>
    <circle cx="40.64" cy="71.12" r="1.25"/>
    <circle cx="72.39" cy="73.66" r="1.25"/>
    <circle cx="78.74" cy="71.12" r="1.25"/>
    <circle cx="72.39" cy="35.56" r="1.25"/>
    <circle cx="78.74" cy="33.02" r="1.25"/>
    <circle cx="72.39" cy="54.61" r="1.25"/>
    <circle cx="78.74" cy="52.07" r="1.25"/>
    <circle cx="53.34" cy="54.61" r="1.25"/>
    <circle cx="59.69" cy="52.07" r="1.25"/>
    <circle cx="53.34" cy="35.56" r="1.25"/>
    <circle cx="59.69" cy="33.02" r="1.25"/>
    <circle cx="34.29" cy="35.56" r="1.25"/>
    <circle cx="40.64" cy="33.02" r="1.25"/>
    <circle cx="53.34" cy="73.66" r="1.25"/>
    <circle cx="59.69" cy="71.12" r="1.25"/>
    <circle cx="34.29" cy="54.61" r="1.25"/>
    <circle cx="40.64" cy="52.07" r="1.25"/>
   </g>
   <g fill="#F2EDA1" stroke="#F2EDA1" stroke-linecap="round" stroke-linejoin="round" stroke-width="0">
    <circle cx="34.29" cy="73.66" r="1.25"/>
    <circle cx="40.64" cy="71.12" r="1.25"/>
    <circle cx="72.39" cy="73.66" r="1.25"/>
    <circle cx="78.74" cy="71.12" r="1.25"/>
    <circle cx="72.39" cy="35.56" r="1.25"/>
    <circle cx="78.74" cy="33.02" r="1.25"/>
    <circle cx="72.39" cy="54.61" r="1.25"/>
    <circle cx="78.74" cy="52.07" r="1.25"/>
    <circle cx="53.34" cy="54.61" r="1.25"/>
    <circle cx="59.69" cy="52.07" r="1.25"/>
    <circle cx="53.34" cy="35.56" r="1.25"/>
    <circle cx="59.69" cy="33.02" r="1.25"/>
    <circle cx="34.29" cy="35.56" r="1.25"/>
    <circle cx="40.64" cy="33.02" r="1.25"/>
    <circle cx="53.34" cy="73.66" r="1.25"/>
    <circle cx="59.69" cy="71.12" r="1.25"/>
    <circle cx="34.29" cy="54.61" r="1.25"/>
    <circle cx="40.64" cy="52.07" r="1.25"/>
   </g>
   <g fill="#4D7FC4">
    <g stroke-width="0">
     <g stroke="#4D7FC4" stroke-linecap="round" stroke-linejoin="round">
      <circle cx="34.29" cy="73.66" r="1.25"/>
      <circle cx="40.64" cy="71.12" r="1.25"/>
      <circle cx="72.39" cy="73.66" r="1.25"/>
      <circle cx="78.74" cy="71.12" r="1.25"/>
      <circle cx="72.39" cy="35.56" r="1.25"/>
      <circle cx="78.74" cy="33.02" r="1.25"/>
      <circle cx="72.39" cy="54.61" r="1.25"/>
      <circle cx="78.74" cy="52.07" r="1.25"/>
      <circle cx="53.34" cy="54.61" r="1.25"/>
      <circle cx="59.69" cy="52.07" r="1.25"/>
      <circle cx="53.34" cy="35.56" r="1.25"/>
      <circle cx="59.69" cy="33.02" r="1.25"/>
      <circle cx="34.29" cy="35.56" r="1.25"/>
      <circle cx="40.64" cy="33.02" r="1.25"/>
      <circle cx="53.34" cy="73.66" r="1.25"/>
      <circle cx="59.69" cy="71.12" r="1.25"/>
      <circle cx="34.29" cy="54.61" r="1.25"/>
      <circle cx="40.64" cy="52.07" r="1.25"/>
     </g>
     <g fill-rule="evenodd">
      <path d="m80.98 44.05-0.096-0.019-0.081-0.054-0.054-0.081-0.019-0.096v-0.6l0.019-0.096 0.054-0.081 0.081-0.054 0.096-0.019h0.6l0.096 0.019 0.081 0.054 0.054 0.081 0.019 0.096v0.6l-0.019 0.096-0.054 0.081-0.081 0.054-0.096 0.019z"/>
      <path d="m80.98 41.25-0.096-0.019-0.081-0.054-0.054-0.081-0.019-0.096v-0.6l0.019-0.096 0.054-0.081 0.081-0.054 0.096-0.019h0.6l0.096 0.019 0.081 0.054 0.054 0.081 0.019 0.096v0.6l-0.019 0.096-0.054 0.081-0.081 0.054-0.096 0.019z"/>
      <path d="m80.98 63.1-0.096-0.019-0.081-0.054-0.054-0.081-0.019-0.096v-0.6l0.019-0.096 0.054-0.081 0.081-0.054 0.096-0.019h0.6l0.096 0.019 0.081 0.054 0.054 0.081 0.019 0.096v0.6l-0.019 0.096-0.054 0.081-0.081 0.054-0.096 0.019z"/>
      <path d="m80.98 60.3-0.096-0.019-0.081-0.054-0.054-0.081-0.019-0.096v-0.6l0.019-0.096 0.054-0.081 0.081-0.054 0.096-0.019h0.6l0.096 0.019 0.081 0.054 0.054 0.081 0.019 0.096v0.6l-0.019 0.096-0.054 0.081-0.081 0.054-0.096 0.019z"/>
      <path d="m61.93 82.15-0.096-0.019-0.081-0.054-0.054-0.081-0.019-0.096v-0.6l0.019-0.096 0.054-0.081 0.081-0.054 0.096-0.019h0.6l0.096 0.019 0.081 0.054 0.054 0.081 0.019 0.096v0.6l-0.019 0.096-0.054 0.081-0.081 0.054-0.096 0.019z"/>
      <path d="m61.93 79.35-0.096-0.019-0.081-0.054-0.054-0.081-0.019-0.096v-0.6l0.019-0.096 0.054-0.081 0.081-0.054 0.096-0.019h0.6l0.096 0.019 0.081 0.054 0.054 0.081 0.019 0.096v0.6l-0.019 0.096-0.054 0.081-0.081 0.054-0.096 0.019z"/>
      <path d="m42.88 63.1-0.096-0.019-0.081-0.054-0.054-0.081-0.019-0.096v-0.6l0.019-0.096 0.054-0.081 0.081-0.054 0.096-0.019h0.6l0.096 0.019 0.081 0.054 0.054 0.081 0.019 0.096v0.6l-0.019 0.096-0.054 0.081-0.081 0.054-0.096 0.019z"/>
      <path d="m42.88 60.3-0.096-0.019-0.081-0.054-0.054-0.081-0.019-0.096v-0.6l0.019-0.096 0.054-0.081 0.081-0.054 0.096-0.019h0.6l0.096 0.019 0.081 0.054 0.054 0.081 0.019 0.096v0.6l-0.019 0.096-0.054 0.081-0.081 0.054-0.096 0.019z"/>
      <path d="m61.93 63.1-0.096-0.019-0.081-0.054-0.054-0.081-0.019-0.096v-0.6l0.019-0.096 0.054-0.081 0.081-0.054 0.096-0.019h0.6l0.096 0.019 0.081 0.054 0.054 0.081 0.019 0.096v0.6l-0.019 0.096-0.054 0.081-0.081 0.054-0.096 0.019z"/>
      <path d="m61.93 60.3-0.096-0.019-0.081-0.054-0.054-0.081-0.019-0.096v-0.6l0.019-0.096 0.054-0.081 0.081-0.054 0.096-0.019h0.6l0.096 0.019 0.081 0.054 0.054 0.081 0.019 0.096v0.6l-0.019 0.096-0.054 0.081-0.081 0.054-0.096 0.019z"/>
      <path d="m61.93 44.05-0.096-0.019-0.081-0.054-0.054-0.081-0.019-0.096v-0.6l0.019-0.096 0.054-0.081 0.081-0.054 0.096-0.019h0.6l0.096 0.019 0.081 0.054 0.054 0.081 0.019 0.096v0.6l-0.019 0.096-0.054 0.081-0.081 0.054-0.096 0.019z"/>
      <path d="m61.93 41.25-0.096-0.019-0.081-0.054-0.054-0.081-0.019-0.096v-0.6l0.019-0.096 0.054-0.081 0.081-0.054 0.096-0.019h0.6l0.096 0.019 0.081 0.054 0.054 0.081 0.019 0.096v0.6l-0.019 0.096-0.054 0.081-0.081 0.054-0.096 0.019z"/>
      <path d="m42.88 82.15-0.096-0.019-0.081-0.054-0.054-0.081-0.019-0.096v-0.6l0.019-0.096 0.054-0.081 0.081-0.054 0.096-0.019h0.6l0.096 0.019 0.081 0.054 0.054 0.081 0.019 0.096v0.6l-0.019 0.096-0.054 0.081-0.081 0.054-0.096 0.019z"/>
      <path d="m42.88 79.35-0.096-0.019-0.081-0.054-0.054-0.081-0.019-0.096v-0.6l0.019-0.096 0.054-0.081 0.081-0.054 0.096-0.019h0.6l0.096 0.019 0.081 0.054 0.054 0.081 0.019 0.096v0.6l-0.019 0.096-0.054 0.081-0.081 0.054-0.096 0.019z"/>
      <path d="m80.98 82.15-0.096-0.019-0.081-0.054-0.054-0.081-0.019-0.096v-0.6l0.019-0.096 0.054-0.081 0.081-0.054 0.096-0.019h0.6l0.096 0.019 0.081 0.054 0.054 0.081 0.019 0.096v0.6l-0.019 0.096-0.054 0.081-0.081 0.054-0.096 0.019z"/>
      <path d="m80.98 79.35-0.096-0.019-0.081-0.054-0.054-0.081-0.019-0.096v-0.6l0.019-0.096 0.054-0.081 0.081-0.054 0.096-0.019h0.6l0.096 0.019 0.081 0.054 0.054 0.081 0.019 0.096v0.6l-0.019 0.096-0.054 0.081-0.081 0.054-0.096 0.019z"/>
      <path d="m42.88 44.05-0.096-0.019-0.081-0.054-0.054-0.081-0.019-0.096v-0.6l0.019-0.096 0.054-0.081 0.081-0.054 0.096-0.019h0.6l0.096 0.019 0.081 0.054 0.054 0.081 0.019 0.096v0.6l-0.019 0.096-0.054 0.081-0.081 0.054-0.096 0.019z"/>
      <path d="m42.88 41.25-0.096-0.019-0.081-0.054-0.054-0.081-0.019-0.096v-0.6l0.019-0.096 0.054-0.081 0.081-0.054 0.096-0.019h0.6l0.096 0.019 0.081 0.054 0.054 0.081 0.019 0.096v0.6l-0.019 0.096-0.054 0.081-0.081 0.054-0.096 0.019z"/>
     </g>
    </g>
    <g fill-opacity="0" stroke="#4D7FC4" stroke-linecap="round" stroke-linejoin="round" stroke-width=".25">
     <path d="m62.23 43.5h19.05"/>
     <path d="m43.18 43.5h19.05"/>
     <path d="m40.64 33.02v5.14"/>
     <path d="m40.64 38.16 2.54 2.54"/>
     <path d="m59.69 38.16 2.54 2.54"/>
     <path d="m59.69 33.02v5.14"/>
     <path d="m78.74 33.02v5.14"/>
     <path d="m78.74 38.16 2.54 2.54"/>
     <path d="m62.23 62.55h19.05"/>
     <path d="m43.18 62.55h19.05"/>
     <path d="m40.64 57.21 2.54 2.54"/>
     <path d="m40.64 52.07v5.14"/>
     <path d="m59.69 57.21 2.54 2.54"/>
     <path d="m59.69 52.07v5.14"/>
     <path d="m78.74 52.07v5.14"/>
     <path d="m78.74 57.21 2.54 2.54"/>
     <path d="m62.23 81.6h19.05"/>
     <path d="m43.18 81.6h19.05"/>
     <path d="m40.64 71.12v5.14"/>
     <path d="m40.64 76.26 2.54 2.54"/>
     <path d="m59.69 71.12v5.14"/>
     <path d="m59.69 76.26 2.54 2.54"/>
     <path d="m78.74 76.26 2.54 2.54"/>
     <path d="m78.74 71.12v5.14"/>
    </g>
   </g>
  </g>
  <g fill-opacity="0">
   <g stroke="#000" stroke-width=".25">
    <g fill="#00C2C2" fill-opacity=".9" fill-rule="evenodd" stroke-width="0">
     <path d="m80.98 44.05-0.096-0.019-0.081-0.054-0.054-0.081-0.019-0.096v-0.6l0.019-0.096 0.054-0.081 0.081-0.054 0.096-0.019h0.6l0.096 0.019 0.081 0.054 0.054 0.081 0.019 0.096v0.6l-0.019 0.096-0.054 0.081-0.081 0.054-0.096 0.019z"/>
     <path d="m80.98 41.25-0.096-0.019-0.081-0.054-0.054-0.081-0.019-0.096v-0.6l0.019-0.096 0.054-0.081 0.081-0.054 0.096-0.019h0.6l0.096 0.019 0.081 0.054 0.054 0.081 0.019 0.096v0.6l-0.019 0.096-0.054 0.081-0.081 0.054-0.096 0.019z"/>
     <path d="m80.98 63.1-0.096-0.019-0.081-0.054-0.054-0.081-0.019-0.096v-0.6l0.019-0.096 0.054-0.081 0.081-0.054 0.096-0.019h0.6l0.096 0.019 0.081 0.054 0.054 0.081 0.019 0.096v0.6l-0.019 0.096-0.054 0.081-0.081 0.054-0.096 0.019z"/>
     <path d="m80.98 60.3-0.096-0.019-0.081-0.054-0.054-0.081-0.019-0.096v-0.6l0.019-0.096 0.054-0.081 0.081-0.054 0.096-0.019h0.6l0.096 0.019 0.081 0.054 0.054 0.081 0.019 0.096v0.6l-0.019 0.096-0.054 0.081-0.081 0.054-0.096 0.019z"/>
     <path d="m61.93 82.15-0.096-0.019-0.081-0.054-0.054-0.081-0.019-0.096v-0.6l0.019-0.096 0.054-0.081 0.081-0.054 0.096-0.019h0.6l0.096 0.019 0.081 0.054 0.054 0.081 0.019 0.096v0.6l-0.019 0.096-0.054 0.081-0.081 0.054-0.096 0.019z"/>
     <path d="m61.93 79.35-0.096-0.019-0.081-0.054-0.054-0.081-0.019-0.096v-0.6l0.019-0.096 0.054-0.081 0.081-0.054 0.096-0.019h0.6l0.096 0.019 0.081 0.054 0.054 0.081 0.019 0.096v0.6l-0.019 0.096-0.054 0.081-0.081 0.054-0.096 0.019z"/>
     <path d="m42.88 63.1-0.096-0.019-0.081-0.054-0.054-0.081-0.019-0.096v-0.6l0.019-0.096 0.054-0.081 0.081-0.054 0.096-0.019h0.6l0.096 0.019 0.081 0.054 0.054 0.081 0.019 0.096v0.6l-0.019 0.096-0.054 0.081-0.081 0.054-0.096 0.019z"/>
     <path d="m42.88 60.3-0.096-0.019-0.081-0.054-0.054-0.081-0.019-0.096v-0.6l0.019-0.096 0.054-0.081 0.081-0.054 0.096-0.019h0.6l0.096 0.019 0.081 0.054 0.054 0.081 0.019 0.096v0.6l-0.019 0.096-0.054 0.081-0.081 0.054-0.096 0.019z"/>
     <path d="m61.93 63.1-0.096-0.019-0.081-0.054-0.054-0.081-0.019-0.096v-0.6l0.019-0.096 0.054-0.081 0.081-0.054 0.096-0.019h0.6l0.096 0.019 0.081 0.054 0.054 0.081 0.019 0.096v0.6l-0.019 0.096-0.054 0.081-0.081 0.054-0.096 0.019z"/>
     <path d="m61.93 60.3-0.096-0.019-0.081-0.054-0.054-0.081-0.019-0.096v-0.6l0.019-0.096 0.054-0.081 0.081-0.054 0.096-0.019h0.6l0.096 0.019 0.081 0.054 0.054 0.081 0.019 0.096v0.6l-0.019 0.096-0.054 0.081-0.081 0.054-0.096 0.019z"/>
     <path d="m61.93 44.05-0.096-0.019-0.081-0.054-0.054-0.081-0.019-0.096v-0.6l0.019-0.096 0.054-0.081 0.081-0.054 0.096-0.019h0.6l0.096 0.019 0.081 0.054 0.054 0.081 0.019 0.096v0.6l-0.019 0.096-0.054 0.081-0.081 0.054-0.096 0.019z"/>
     <path d="m61.93 41.25-0.096-0.019-0.081-0.054-0.054-0.081-0.019-0.096v-0.6l0.019-0.096 0.054-0.081 0.081-0.054 0.096-0.019h0.6l0.096 0.019 0.081 0.054 0.054 0.081 0.019 0.096v0.6l-0.019 0.096-0.054 0.081-0.081 0.054-0.096 0.019z"/>
     <path d="m42.88 82.15-0.096-0.019-0.081-0.054-0.054-0.081-0.019-0.096v-0.6l0.019-0.096 0.054-0.081 0.081-0.054 0.096-0.019h0.6l0.096 0.019 0.081 0.054 0.054 0.081 0.019 0.096v0.6l-0.019 0.096-0.054 0.081-0.081 0.054-0.096 0.019z"/>
     <path d="m42.88 79.35-0.096-0.019-0.081-0.054-0.054-0.081-0.019-0.096v-0.6l0.019-0.096 0.054-0.081 0.081-0.054 0.096-0.019h0.6l0.096 0.019 0.081 0.054 0.054 0.081 0.019 0.096v0.6l-0.019 0.096-0.054 0.081-0.081 0.054-0.096 0.019z"/>
     <path d="m80.98 82.15-0.096-0.019-0.081-0.054-0.054-0.081-0.019-0.096v-0.6l0.019-0.096 0.054-0.081 0.081-0.054 0.096-0.019h0.6l0.096 0.019 0.081 0.054 0.054 0.081 0.019 0.096v0.6l-0.019 0.096-0.054 0.081-0.081 0.054-0.096 0.019z"/>
     <path d="m80.98 79.35-0.096-0.019-0.081-0.054-0.054-0.081-0.019-0.096v-0.6l0.019-0.096 0.054-0.081 0.081-0.054 0.096-0.019h0.6l0.096 0.019 0.081 0.054 0.054 0.081 0.019 0.096v0.6l-0.019 0.096-0.054 0.081-0.081 0.054-0.096 0.019z"/>
     <path d="m42.88 44.05-0.096-0.019-0.081-0.054-0.054-0.081-0.019-0.096v-0.6l0.019-0.096 0.054-0.081 0.081-0.054 0.096-0.019h0.6l0.096 0.019 0.081 0.054 0.054 0.081 0.019 0.096v0.6l-0.019 0.096-0.054 0.081-0.081 0.054-0.096 0.019z"/>
     <path d="m42.88 41.25-0.096-0.019-0.081-0.054-0.054-0.081-0.019-0.096v-0.6l0.019-0.096 0.054-0.081 0.081-0.054 0.096-0.019h0.6l0.096 0.019 0.081 0.054 0.054 0.081 0.019 0.096v0.6l-0.019 0.096-0.054 0.081-0.081 0.054-0.096 0.019z"/>
    </g>
   </g>
   <g fill="#E8B2A7" stroke="#E8B2A7" stroke-width=".15">
    <g transform="rotate(-90 83.185 42.227)">
     <text transform="scale(-1 1) translate(-166.37)" x="83.185" y="42.727" font-size="1.333" opacity="0" text-anchor="middle" lengthAdjust="spacingAndGlyphs" textLength="2.202">D3</text>
    </g>
    <g class="stroked-text">
     <desc>D3</desc>
     <path d="m83.64 41.489h-1"/>
     <path d="m82.64 41.489v0.238"/>
     <path d="m82.64 41.727 0.047 0.143"/>
     <path d="m82.687 41.87 0.096 0.095"/>
     <path d="m82.783 41.965 0.095 0.048"/>
     <path d="m82.878 42.013 0.19 0.047"/>
     <path d="m83.068 42.06h0.143"/>
     <path d="m83.211 42.06 0.191-0.047"/>
     <path d="m83.402 42.013 0.095-0.048"/>
     <path d="m83.497 41.965 0.095-0.095"/>
     <path d="m83.592 41.87 0.048-0.143"/>
     <path d="m83.64 41.727v-0.238"/>
     <path d="m82.64 42.394v0.619"/>
     <path d="m82.64 43.013 0.381-0.334"/>
     <path d="m83.021 42.679v0.143"/>
     <path d="m83.021 42.822 0.047 0.095"/>
     <path d="m83.068 42.917 0.048 0.048"/>
     <path d="m83.116 42.965 0.095 0.048"/>
     <path d="m83.211 43.013h0.238"/>
     <path d="m83.449 43.013 0.096-0.048"/>
     <path d="m83.545 42.965 0.047-0.048"/>
     <path d="m83.592 42.917 0.048-0.095"/>
     <path d="m83.64 42.822v-0.285"/>
     <path d="m83.64 42.537-0.048-0.096"/>
     <path d="m83.592 42.441-0.047-0.047"/>
    </g>
    <g transform="rotate(-90 83.185 61.277)">
     <text transform="scale(-1 1) translate(-166.37)" x="83.185" y="61.777" font-size="1.333" opacity="0" text-anchor="middle" lengthAdjust="spacingAndGlyphs" textLength="2.202">D6</text>
    </g>
    <g class="stroked-text">
     <desc>D6</desc>
     <path d="m83.64 60.539h-1"/>
     <path d="m82.64 60.539v0.238"/>
     <path d="m82.64 60.777 0.047 0.143"/>
     <path d="m82.687 60.92 0.096 0.095"/>
     <path d="m82.783 61.015 0.095 0.048"/>
     <path d="m82.878 61.063 0.19 0.047"/>
     <path d="m83.068 61.11h0.143"/>
     <path d="m83.211 61.11 0.191-0.047"/>
     <path d="m83.402 61.063 0.095-0.048"/>
     <path d="m83.497 61.015 0.095-0.095"/>
     <path d="m83.592 60.92 0.048-0.143"/>
     <path d="m83.64 60.777v-0.238"/>
     <path d="m82.64 61.967v-0.19"/>
     <path d="m82.64 61.777 0.047-0.095"/>
     <path d="m82.687 61.682 0.048-0.048"/>
     <path d="m82.735 61.634 0.143-0.095"/>
     <path d="m82.878 61.539 0.19-0.048"/>
     <path d="m83.068 61.491h0.381"/>
     <path d="m83.449 61.491 0.096 0.048"/>
     <path d="m83.545 61.539 0.047 0.048"/>
     <path d="m83.592 61.587 0.048 0.095"/>
     <path d="m83.64 61.682v0.19"/>
     <path d="m83.64 61.872-0.048 0.095"/>
     <path d="m83.592 61.967-0.047 0.048"/>
     <path d="m83.545 62.015-0.096 0.048"/>
     <path d="m83.449 62.063h-0.238"/>
     <path d="m83.211 62.063-0.095-0.048"/>
     <path d="m83.116 62.015-0.048-0.048"/>
     <path d="m83.068 61.967-0.047-0.095"/>
     <path d="m83.021 61.872v-0.19"/>
     <path d="m83.021 61.682 0.047-0.095"/>
     <path d="m83.068 61.587 0.048-0.048"/>
     <path d="m83.116 61.539 0.095-0.048"/>
    </g>
    <g transform="rotate(-90 64.135 80.327)">
     <text transform="scale(-1 1) translate(-128.27)" x="64.135" y="80.827" font-size="1.333" opacity="0" text-anchor="middle" lengthAdjust="spacingAndGlyphs" textLength="2.202">D8</text>
    </g>
    <g class="stroked-text">
     <desc>D8</desc>
     <path d="m64.59 79.589h-1"/>
     <path d="m63.59 79.589v0.238"/>
     <path d="m63.59 79.827 0.047 0.143"/>
     <path d="m63.637 79.97 0.096 0.095"/>
     <path d="m63.733 80.065 0.095 0.048"/>
     <path d="m63.828 80.113 0.19 0.047"/>
     <path d="m64.018 80.16h0.143"/>
     <path d="m64.161 80.16 0.191-0.047"/>
     <path d="m64.352 80.113 0.095-0.048"/>
     <path d="m64.447 80.065 0.095-0.095"/>
     <path d="m64.542 79.97 0.048-0.143"/>
     <path d="m64.59 79.827v-0.238"/>
     <path d="m64.018 80.732-0.047-0.095"/>
     <path d="m63.971 80.637-0.048-0.048"/>
     <path d="m63.923 80.589-0.095-0.048"/>
     <path d="m63.828 80.541h-0.048"/>
     <path d="m63.78 80.541-0.095 0.048"/>
     <path d="m63.685 80.589-0.048 0.048"/>
     <path d="m63.637 80.637-0.047 0.095"/>
     <path d="m63.59 80.732v0.19"/>
     <path d="m63.59 80.922 0.047 0.095"/>
     <path d="m63.637 81.017 0.048 0.048"/>
     <path d="m63.685 81.065 0.095 0.048"/>
     <path d="m63.78 81.113h0.048"/>
     <path d="m63.828 81.113 0.095-0.048"/>
     <path d="m63.923 81.065 0.048-0.048"/>
     <path d="m63.971 81.017 0.047-0.095"/>
     <path d="m64.018 80.922v-0.19"/>
     <path d="m64.018 80.732 0.048-0.095"/>
     <path d="m64.066 80.637 0.048-0.048"/>
     <path d="m64.114 80.589 0.095-0.048"/>
     <path d="m64.209 80.541h0.19"/>
     <path d="m64.399 80.541 0.096 0.048"/>
     <path d="m64.495 80.589 0.047 0.048"/>
     <path d="m64.542 80.637 0.048 0.095"/>
     <path d="m64.59 80.732v0.19"/>
     <path d="m64.59 80.922-0.048 0.095"/>
     <path d="m64.542 81.017-0.047 0.048"/>
     <path d="m64.495 81.065-0.096 0.048"/>
     <path d="m64.399 81.113h-0.19"/>
     <path d="m64.209 81.113-0.095-0.048"/>
     <path d="m64.114 81.065-0.048-0.048"/>
     <path d="m64.066 81.017-0.048-0.095"/>
    </g>
    <g transform="rotate(-90 45.085 61.277)">
     <text transform="scale(-1 1) translate(-90.17)" x="45.085" y="61.777" font-size="1.333" opacity="0" text-anchor="middle" lengthAdjust="spacingAndGlyphs" textLength="2.202">D4</text>
    </g>
    <g class="stroked-text">
     <desc>D4</desc>
     <path d="m45.54 60.539h-1"/>
     <path d="m44.54 60.539v0.238"/>
     <path d="m44.54 60.777 0.047 0.143"/>
     <path d="m44.587 60.92 0.096 0.095"/>
     <path d="m44.683 61.015 0.095 0.048"/>
     <path d="m44.778 61.063 0.19 0.047"/>
     <path d="m44.968 61.11h0.143"/>
     <path d="m45.111 61.11 0.191-0.047"/>
     <path d="m45.302 61.063 0.095-0.048"/>
     <path d="m45.397 61.015 0.095-0.095"/>
     <path d="m45.492 60.92 0.048-0.143"/>
     <path d="m45.54 60.777v-0.238"/>
     <path d="m44.873 61.967h0.667"/>
     <path d="m44.492 61.729 0.714-0.238"/>
     <path d="m45.206 61.491v0.619"/>
    </g>
    <g transform="rotate(-90 64.135 61.277)">
     <text transform="scale(-1 1) translate(-128.27)" x="64.135" y="61.777" font-size="1.333" opacity="0" text-anchor="middle" lengthAdjust="spacingAndGlyphs" textLength="2.202">D5</text>
    </g>
    <g class="stroked-text">
     <desc>D5</desc>
     <path d="m64.59 60.539h-1"/>
     <path d="m63.59 60.539v0.238"/>
     <path d="m63.59 60.777 0.047 0.143"/>
     <path d="m63.637 60.92 0.096 0.095"/>
     <path d="m63.733 61.015 0.095 0.048"/>
     <path d="m63.828 61.063 0.19 0.047"/>
     <path d="m64.018 61.11h0.143"/>
     <path d="m64.161 61.11 0.191-0.047"/>
     <path d="m64.352 61.063 0.095-0.048"/>
     <path d="m64.447 61.015 0.095-0.095"/>
     <path d="m64.542 60.92 0.048-0.143"/>
     <path d="m64.59 60.777v-0.238"/>
     <path d="m63.59 62.015v-0.476"/>
     <path d="m63.59 61.539 0.476-0.048"/>
     <path d="m64.066 61.491-0.048 0.048"/>
     <path d="m64.018 61.539-0.047 0.095"/>
     <path d="m63.971 61.634v0.238"/>
     <path d="m63.971 61.872 0.047 0.095"/>
     <path d="m64.018 61.967 0.048 0.048"/>
     <path d="m64.066 62.015 0.095 0.048"/>
     <path d="m64.161 62.063h0.238"/>
     <path d="m64.399 62.063 0.096-0.048"/>
     <path d="m64.495 62.015 0.047-0.048"/>
     <path d="m64.542 61.967 0.048-0.095"/>
     <path d="m64.59 61.872v-0.238"/>
     <path d="m64.59 61.634-0.048-0.095"/>
     <path d="m64.542 61.539-0.047-0.048"/>
    </g>
    <g transform="rotate(-90 64.135 42.227)">
     <text transform="scale(-1 1) translate(-128.27)" x="64.135" y="42.727" font-size="1.333" opacity="0" text-anchor="middle" lengthAdjust="spacingAndGlyphs" textLength="2.202">D2</text>
    </g>
    <g class="stroked-text">
     <desc>D2</desc>
     <path d="m64.59 41.489h-1"/>
     <path d="m63.59 41.489v0.238"/>
     <path d="m63.59 41.727 0.047 0.143"/>
     <path d="m63.637 41.87 0.096 0.095"/>
     <path d="m63.733 41.965 0.095 0.048"/>
     <path d="m63.828 42.013 0.19 0.047"/>
     <path d="m64.018 42.06h0.143"/>
     <path d="m64.161 42.06 0.191-0.047"/>
     <path d="m64.352 42.013 0.095-0.048"/>
     <path d="m64.447 41.965 0.095-0.095"/>
     <path d="m64.542 41.87 0.048-0.143"/>
     <path d="m64.59 41.727v-0.238"/>
     <path d="m63.685 42.441-0.048 0.048"/>
     <path d="m63.637 42.489-0.047 0.095"/>
     <path d="m63.59 42.584v0.238"/>
     <path d="m63.59 42.822 0.047 0.095"/>
     <path d="m63.637 42.917 0.048 0.048"/>
     <path d="m63.685 42.965 0.095 0.048"/>
     <path d="m63.78 43.013h0.096"/>
     <path d="m63.876 43.013 0.142-0.048"/>
     <path d="m64.018 42.965 0.572-0.571"/>
     <path d="m64.59 42.394v0.619"/>
    </g>
    <g transform="rotate(-90 45.085 80.327)">
     <text transform="scale(-1 1) translate(-90.17)" x="45.085" y="80.827" font-size="1.333" opacity="0" text-anchor="middle" lengthAdjust="spacingAndGlyphs" textLength="2.202">D7</text>
    </g>
    <g class="stroked-text">
     <desc>D7</desc>
     <path d="m45.54 79.589h-1"/>
     <path d="m44.54 79.589v0.238"/>
     <path d="m44.54 79.827 0.047 0.143"/>
     <path d="m44.587 79.97 0.096 0.095"/>
     <path d="m44.683 80.065 0.095 0.048"/>
     <path d="m44.778 80.113 0.19 0.047"/>
     <path d="m44.968 80.16h0.143"/>
     <path d="m45.111 80.16 0.191-0.047"/>
     <path d="m45.302 80.113 0.095-0.048"/>
     <path d="m45.397 80.065 0.095-0.095"/>
     <path d="m45.492 79.97 0.048-0.143"/>
     <path d="m45.54 79.827v-0.238"/>
     <path d="m44.54 80.494v0.666"/>
     <path d="m44.54 81.16 1-0.428"/>
    </g>
    <g transform="rotate(-90 83.185 80.327)">
     <text transform="scale(-1 1) translate(-166.37)" x="83.185" y="80.827" font-size="1.333" opacity="0" text-anchor="middle" lengthAdjust="spacingAndGlyphs" textLength="2.202">D9</text>
    </g>
    <g class="stroked-text">
     <desc>D9</desc>
     <path d="m83.64 79.589h-1"/>
     <path d="m82.64 79.589v0.238"/>
     <path d="m82.64 79.827 0.047 0.143"/>
     <path d="m82.687 79.97 0.096 0.095"/>
     <path d="m82.783 80.065 0.095 0.048"/>
     <path d="m82.878 80.113 0.19 0.047"/>
     <path d="m83.068 80.16h0.143"/>
     <path d="m83.211 80.16 0.191-0.047"/>
     <path d="m83.402 80.113 0.095-0.048"/>
     <path d="m83.497 80.065 0.095-0.095"/>
     <path d="m83.592 79.97 0.048-0.143"/>
     <path d="m83.64 79.827v-0.238"/>
     <path d="m83.64 80.637v0.19"/>
     <path d="m83.64 80.827-0.048 0.095"/>
     <path d="m83.592 80.922-0.047 0.048"/>
     <path d="m83.545 80.97-0.143 0.095"/>
     <path d="m83.402 81.065-0.191 0.048"/>
     <path d="m83.211 81.113h-0.381"/>
     <path d="m82.83 81.113-0.095-0.048"/>
     <path d="m82.735 81.065-0.048-0.048"/>
     <path d="m82.687 81.017-0.047-0.095"/>
     <path d="m82.64 80.922v-0.19"/>
     <path d="m82.64 80.732 0.047-0.095"/>
     <path d="m82.687 80.637 0.048-0.048"/>
     <path d="m82.735 80.589 0.095-0.048"/>
     <path d="m82.83 80.541h0.238"/>
     <path d="m83.068 80.541 0.096 0.048"/>
     <path d="m83.164 80.589 0.047 0.048"/>
     <path d="m83.211 80.637 0.048 0.095"/>
     <path d="m83.259 80.732v0.19"/>
     <path d="m83.259 80.922-0.048 0.095"/>
     <path d="m83.211 81.017-0.047 0.048"/>
     <path d="m83.164 81.065-0.096 0.048"/>
    </g>
    <g transform="rotate(-90 45.085 42.227)">
     <text transform="scale(-1 1) translate(-90.17)" x="45.085" y="42.727" font-size="1.333" opacity="0" text-anchor="middle" lengthAdjust="spacingAndGlyphs" textLength="2.202">D1</text>
    </g>
    <g class="stroked-text">
     <desc>D1</desc>
     <path d="m45.54 41.489h-1"/>
     <path d="m44.54 41.489v0.238"/>
     <path d="m44.54 41.727 0.047 0.143"/>
     <path d="m44.587 41.87 0.096 0.095"/>
     <path d="m44.683 41.965 0.095 0.048"/>
     <path d="m44.778 42.013 0.19 0.047"/>
     <path d="m44.968 42.06h0.143"/>
     <path d="m45.111 42.06 0.191-0.047"/>
     <path d="m45.302 42.013 0.095-0.048"/>
     <path d="m45.397 41.965 0.095-0.095"/>
     <path d="m45.492 41.87 0.048-0.143"/>
     <path d="m45.54 41.727v-0.238"/>
     <path d="m45.54 43.013v-0.572"/>
     <path d="m45.54 42.727h-1"/>
     <path d="m44.54 42.727 0.143-0.095"/>
     <path d="m44.683 42.632 0.095-0.095"/>
     <path d="m44.778 42.537 0.048-0.096"/>
    </g>
   </g>
   <g fill="#E8B2A7" stroke="#E8B2A7" stroke-width=".12">
    <path d="m80.28 44.31v-3.86"/>
    <path d="m82.28 44.31h-2"/>
    <path d="m82.28 44.31v-3.86"/>
    <path d="m80.28 63.36v-3.86"/>
    <path d="m82.28 63.36h-2"/>
    <path d="m82.28 63.36v-3.86"/>
    <path d="m61.23 82.41v-3.86"/>
    <path d="m63.23 82.41h-2"/>
    <path d="m63.23 82.41v-3.86"/>
    <path d="m42.18 63.36v-3.86"/>
    <path d="m44.18 63.36h-2"/>
    <path d="m44.18 63.36v-3.86"/>
    <path d="m61.23 63.36v-3.86"/>
    <path d="m63.23 63.36h-2"/>
    <path d="m63.23 63.36v-3.86"/>
    <path d="m61.23 44.31v-3.86"/>
    <path d="m63.23 44.31h-2"/>
    <path d="m63.23 44.31v-3.86"/>
    <path d="m42.18 82.41v-3.86"/>
    <path d="m44.18 82.41h-2"/>
    <path d="m44.18 82.41v-3.86"/>
    <path d="m80.28 82.41v-3.86"/>
    <path d="m82.28 82.41h-2"/>
    <path d="m82.28 82.41v-3.86"/>
    <path d="m42.18 44.31v-3.86"/>
    <path d="m44.18 44.31h-2"/>
    <path d="m44.18 44.31v-3.86"/>
   </g>
   <g fill="#F2EDA1" stroke="#F2EDA1" stroke-width=".15">
    <text x="38.100" y="68.700" font-size="1.333" opacity="0" text-anchor="middle" lengthAdjust="spacingAndGlyphs" textLength="3.298">SW7</text>
    <g class="stroked-text">
     <desc>SW7</desc>
     <path d="m36.767 68.607 0.143 0.048"/>
     <path d="m36.91 68.655h0.238"/>
     <path d="m37.148 68.655 0.095-0.048"/>
     <path d="m37.243 68.607 0.047-0.047"/>
     <path d="m37.29 68.56 0.048-0.096"/>
     <path d="m37.338 68.464v-0.095"/>
     <path d="m37.338 68.369-0.048-0.095"/>
     <path d="m37.29 68.274-0.047-0.048"/>
     <path d="m37.243 68.226-0.095-0.047"/>
     <path d="m37.148 68.179-0.191-0.048"/>
     <path d="m36.957 68.131-0.095-0.048"/>
     <path d="m36.862 68.083-0.048-0.047"/>
     <path d="m36.814 68.036-0.047-0.095"/>
     <path d="m36.767 67.941v-0.096"/>
     <path d="m36.767 67.845 0.047-0.095"/>
     <path d="m36.814 67.75 0.048-0.048"/>
     <path d="m36.862 67.702 0.095-0.047"/>
     <path d="m36.957 67.655h0.238"/>
     <path d="m37.195 67.655 0.143 0.047"/>
     <path d="m37.671 67.655 0.239 1"/>
     <path d="m37.91 68.655 0.19-0.714"/>
     <path d="m38.1 67.941 0.19 0.714"/>
     <path d="m38.29 68.655 0.239-1"/>
     <path d="m38.814 67.655h0.667"/>
     <path d="m39.481 67.655-0.429 1"/>
    </g>
    <text x="76.200" y="68.700" font-size="1.333" opacity="0" text-anchor="middle" lengthAdjust="spacingAndGlyphs" textLength="3.298">SW9</text>
    <g class="stroked-text">
     <desc>SW9</desc>
     <path d="m74.867 68.607 0.143 0.048"/>
     <path d="m75.01 68.655h0.238"/>
     <path d="m75.248 68.655 0.095-0.048"/>
     <path d="m75.343 68.607 0.047-0.047"/>
     <path d="m75.39 68.56 0.048-0.096"/>
     <path d="m75.438 68.464v-0.095"/>
     <path d="m75.438 68.369-0.048-0.095"/>
     <path d="m75.39 68.274-0.047-0.048"/>
     <path d="m75.343 68.226-0.095-0.047"/>
     <path d="m75.248 68.179-0.191-0.048"/>
     <path d="m75.057 68.131-0.095-0.048"/>
     <path d="m74.962 68.083-0.048-0.047"/>
     <path d="m74.914 68.036-0.047-0.095"/>
     <path d="m74.867 67.941v-0.096"/>
     <path d="m74.867 67.845 0.047-0.095"/>
     <path d="m74.914 67.75 0.048-0.048"/>
     <path d="m74.962 67.702 0.095-0.047"/>
     <path d="m75.057 67.655h0.238"/>
     <path d="m75.295 67.655 0.143 0.047"/>
     <path d="m75.771 67.655 0.239 1"/>
     <path d="m76.01 68.655 0.19-0.714"/>
     <path d="m76.2 67.941 0.19 0.714"/>
     <path d="m76.39 68.655 0.239-1"/>
     <path d="m77.057 68.655h0.191"/>
     <path d="m77.248 68.655 0.095-0.048"/>
     <path d="m77.343 68.607 0.047-0.047"/>
     <path d="m77.39 68.56 0.096-0.143"/>
     <path d="m77.486 68.417 0.047-0.191"/>
     <path d="m77.533 68.226v-0.381"/>
     <path d="m77.533 67.845-0.047-0.095"/>
     <path d="m77.486 67.75-0.048-0.048"/>
     <path d="m77.438 67.702-0.095-0.047"/>
     <path d="m77.343 67.655h-0.191"/>
     <path d="m77.152 67.655-0.095 0.047"/>
     <path d="m77.057 67.702-0.047 0.048"/>
     <path d="m77.01 67.75-0.048 0.095"/>
     <path d="m76.962 67.845v0.238"/>
     <path d="m76.962 68.083 0.048 0.096"/>
     <path d="m77.01 68.179 0.047 0.047"/>
     <path d="m77.057 68.226 0.095 0.048"/>
     <path d="m77.152 68.274h0.191"/>
     <path d="m77.343 68.274 0.095-0.048"/>
     <path d="m77.438 68.226 0.048-0.047"/>
     <path d="m77.486 68.179 0.047-0.096"/>
    </g>
    <text x="76.200" y="30.600" font-size="1.333" opacity="0" text-anchor="middle" lengthAdjust="spacingAndGlyphs" textLength="3.298">SW3</text>
    <g class="stroked-text">
     <desc>SW3</desc>
     <path d="m74.867 30.507 0.143 0.048"/>
     <path d="m75.01 30.555h0.238"/>
     <path d="m75.248 30.555 0.095-0.048"/>
     <path d="m75.343 30.507 0.047-0.047"/>
     <path d="m75.39 30.46 0.048-0.096"/>
     <path d="m75.438 30.364v-0.095"/>
     <path d="m75.438 30.269-0.048-0.095"/>
     <path d="m75.39 30.174-0.047-0.048"/>
     <path d="m75.343 30.126-0.095-0.047"/>
     <path d="m75.248 30.079-0.191-0.048"/>
     <path d="m75.057 30.031-0.095-0.048"/>
     <path d="m74.962 29.983-0.048-0.047"/>
     <path d="m74.914 29.936-0.047-0.095"/>
     <path d="m74.867 29.841v-0.096"/>
     <path d="m74.867 29.745 0.047-0.095"/>
     <path d="m74.914 29.65 0.048-0.048"/>
     <path d="m74.962 29.602 0.095-0.047"/>
     <path d="m75.057 29.555h0.238"/>
     <path d="m75.295 29.555 0.143 0.047"/>
     <path d="m75.771 29.555 0.239 1"/>
     <path d="m76.01 30.555 0.19-0.714"/>
     <path d="m76.2 29.841 0.19 0.714"/>
     <path d="m76.39 30.555 0.239-1"/>
     <path d="m76.914 29.555h0.619"/>
     <path d="m77.533 29.555-0.333 0.381"/>
     <path d="m77.2 29.936h0.143"/>
     <path d="m77.343 29.936 0.095 0.047"/>
     <path d="m77.438 29.983 0.048 0.048"/>
     <path d="m77.486 30.031 0.047 0.095"/>
     <path d="m77.533 30.126v0.238"/>
     <path d="m77.533 30.364-0.047 0.096"/>
     <path d="m77.486 30.46-0.048 0.047"/>
     <path d="m77.438 30.507-0.095 0.048"/>
     <path d="m77.343 30.555h-0.286"/>
     <path d="m77.057 30.555-0.095-0.048"/>
     <path d="m76.962 30.507-0.048-0.047"/>
    </g>
    <text x="76.200" y="49.650" font-size="1.333" opacity="0" text-anchor="middle" lengthAdjust="spacingAndGlyphs" textLength="3.298">SW6</text>
    <g class="stroked-text">
     <desc>SW6</desc>
     <path d="m74.867 49.557 0.143 0.048"/>
     <path d="m75.01 49.605h0.238"/>
     <path d="m75.248 49.605 0.095-0.048"/>
     <path d="m75.343 49.557 0.047-0.047"/>
     <path d="m75.39 49.51 0.048-0.096"/>
     <path d="m75.438 49.414v-0.095"/>
     <path d="m75.438 49.319-0.048-0.095"/>
     <path d="m75.39 49.224-0.047-0.048"/>
     <path d="m75.343 49.176-0.095-0.047"/>
     <path d="m75.248 49.129-0.191-0.048"/>
     <path d="m75.057 49.081-0.095-0.048"/>
     <path d="m74.962 49.033-0.048-0.047"/>
     <path d="m74.914 48.986-0.047-0.095"/>
     <path d="m74.867 48.891v-0.096"/>
     <path d="m74.867 48.795 0.047-0.095"/>
     <path d="m74.914 48.7 0.048-0.048"/>
     <path d="m74.962 48.652 0.095-0.047"/>
     <path d="m75.057 48.605h0.238"/>
     <path d="m75.295 48.605 0.143 0.047"/>
     <path d="m75.771 48.605 0.239 1"/>
     <path d="m76.01 49.605 0.19-0.714"/>
     <path d="m76.2 48.891 0.19 0.714"/>
     <path d="m76.39 49.605 0.239-1"/>
     <path d="m77.438 48.605h-0.19"/>
     <path d="m77.248 48.605-0.096 0.047"/>
     <path d="m77.152 48.652-0.047 0.048"/>
     <path d="m77.105 48.7-0.095 0.143"/>
     <path d="m77.01 48.843-0.048 0.19"/>
     <path d="m76.962 49.033v0.381"/>
     <path d="m76.962 49.414 0.048 0.096"/>
     <path d="m77.01 49.51 0.047 0.047"/>
     <path d="m77.057 49.557 0.095 0.048"/>
     <path d="m77.152 49.605h0.191"/>
     <path d="m77.343 49.605 0.095-0.048"/>
     <path d="m77.438 49.557 0.048-0.047"/>
     <path d="m77.486 49.51 0.047-0.096"/>
     <path d="m77.533 49.414v-0.238"/>
     <path d="m77.533 49.176-0.047-0.095"/>
     <path d="m77.486 49.081-0.048-0.048"/>
     <path d="m77.438 49.033-0.095-0.047"/>
     <path d="m77.343 48.986h-0.191"/>
     <path d="m77.152 48.986-0.095 0.047"/>
     <path d="m77.057 49.033-0.047 0.048"/>
     <path d="m77.01 49.081-0.048 0.095"/>
    </g>
    <text x="57.150" y="49.650" font-size="1.333" opacity="0" text-anchor="middle" lengthAdjust="spacingAndGlyphs" textLength="3.298">SW5</text>
    <g class="stroked-text">
     <desc>SW5</desc>
     <path d="m55.817 49.557 0.143 0.048"/>
     <path d="m55.96 49.605h0.238"/>
     <path d="m56.198 49.605 0.095-0.048"/>
     <path d="m56.293 49.557 0.047-0.047"/>
     <path d="m56.34 49.51 0.048-0.096"/>
     <path d="m56.388 49.414v-0.095"/>
     <path d="m56.388 49.319-0.048-0.095"/>
     <path d="m56.34 49.224-0.047-0.048"/>
     <path d="m56.293 49.176-0.095-0.047"/>
     <path d="m56.198 49.129-0.191-0.048"/>
     <path d="m56.007 49.081-0.095-0.048"/>
     <path d="m55.912 49.033-0.048-0.047"/>
     <path d="m55.864 48.986-0.047-0.095"/>
     <path d="m55.817 48.891v-0.096"/>
     <path d="m55.817 48.795 0.047-0.095"/>
     <path d="m55.864 48.7 0.048-0.048"/>
     <path d="m55.912 48.652 0.095-0.047"/>
     <path d="m56.007 48.605h0.238"/>
     <path d="m56.245 48.605 0.143 0.047"/>
     <path d="m56.721 48.605 0.239 1"/>
     <path d="m56.96 49.605 0.19-0.714"/>
     <path d="m57.15 48.891 0.19 0.714"/>
     <path d="m57.34 49.605 0.239-1"/>
     <path d="m58.436 48.605h-0.476"/>
     <path d="m57.96 48.605-0.048 0.476"/>
     <path d="m57.912 49.081 0.048-0.048"/>
     <path d="m57.96 49.033 0.095-0.047"/>
     <path d="m58.055 48.986h0.238"/>
     <path d="m58.293 48.986 0.095 0.047"/>
     <path d="m58.388 49.033 0.048 0.048"/>
     <path d="m58.436 49.081 0.047 0.095"/>
     <path d="m58.483 49.176v0.238"/>
     <path d="m58.483 49.414-0.047 0.096"/>
     <path d="m58.436 49.51-0.048 0.047"/>
     <path d="m58.388 49.557-0.095 0.048"/>
     <path d="m58.293 49.605h-0.238"/>
     <path d="m58.055 49.605-0.095-0.048"/>
     <path d="m57.96 49.557-0.048-0.047"/>
    </g>
    <text x="57.150" y="30.600" font-size="1.333" opacity="0" text-anchor="middle" lengthAdjust="spacingAndGlyphs" textLength="3.298">SW2</text>
    <g class="stroked-text">
     <desc>SW2</desc>
     <path d="m55.817 30.507 0.143 0.048"/>
     <path d="m55.96 30.555h0.238"/>
     <path d="m56.198 30.555 0.095-0.048"/>
     <path d="m56.293 30.507 0.047-0.047"/>
     <path d="m56.34 30.46 0.048-0.096"/>
     <path d="m56.388 30.364v-0.095"/>
     <path d="m56.388 30.269-0.048-0.095"/>
     <path d="m56.34 30.174-0.047-0.048"/>
     <path d="m56.293 30.126-0.095-0.047"/>
     <path d="m56.198 30.079-0.191-0.048"/>
     <path d="m56.007 30.031-0.095-0.048"/>
     <path d="m55.912 29.983-0.048-0.047"/>
     <path d="m55.864 29.936-0.047-0.095"/>
     <path d="m55.817 29.841v-0.096"/>
     <path d="m55.817 29.745 0.047-0.095"/>
     <path d="m55.864 29.65 0.048-0.048"/>
     <path d="m55.912 29.602 0.095-0.047"/>
     <path d="m56.007 29.555h0.238"/>
     <path d="m56.245 29.555 0.143 0.047"/>
     <path d="m56.721 29.555 0.239 1"/>
     <path d="m56.96 30.555 0.19-0.714"/>
     <path d="m57.15 29.841 0.19 0.714"/>
     <path d="m57.34 30.555 0.239-1"/>
     <path d="m57.912 29.65 0.048-0.048"/>
     <path d="m57.96 29.602 0.095-0.047"/>
     <path d="m58.055 29.555h0.238"/>
     <path d="m58.293 29.555 0.095 0.047"/>
     <path d="m58.388 29.602 0.048 0.048"/>
     <path d="m58.436 29.65 0.047 0.095"/>
     <path d="m58.483 29.745v0.096"/>
     <path d="m58.483 29.841-0.047 0.142"/>
     <path d="m58.436 29.983-0.572 0.572"/>
     <path d="m57.864 30.555h0.619"/>
    </g>
    <text x="38.100" y="30.600" font-size="1.333" opacity="0" text-anchor="middle" lengthAdjust="spacingAndGlyphs" textLength="3.298">SW1</text>
    <g class="stroked-text">
     <desc>SW1</desc>
     <path d="m36.767 30.507 0.143 0.048"/>
     <path d="m36.91 30.555h0.238"/>
     <path d="m37.148 30.555 0.095-0.048"/>
     <path d="m37.243 30.507 0.047-0.047"/>
     <path d="m37.29 30.46 0.048-0.096"/>
     <path d="m37.338 30.364v-0.095"/>
     <path d="m37.338 30.269-0.048-0.095"/>
     <path d="m37.29 30.174-0.047-0.048"/>
     <path d="m37.243 30.126-0.095-0.047"/>
     <path d="m37.148 30.079-0.191-0.048"/>
     <path d="m36.957 30.031-0.095-0.048"/>
     <path d="m36.862 29.983-0.048-0.047"/>
     <path d="m36.814 29.936-0.047-0.095"/>
     <path d="m36.767 29.841v-0.096"/>
     <path d="m36.767 29.745 0.047-0.095"/>
     <path d="m36.814 29.65 0.048-0.048"/>
     <path d="m36.862 29.602 0.095-0.047"/>
     <path d="m36.957 29.555h0.238"/>
     <path d="m37.195 29.555 0.143 0.047"/>
     <path d="m37.671 29.555 0.239 1"/>
     <path d="m37.91 30.555 0.19-0.714"/>
     <path d="m38.1 29.841 0.19 0.714"/>
     <path d="m38.29 30.555 0.239-1"/>
     <path d="m39.433 30.555h-0.571"/>
     <path d="m39.148 30.555v-1"/>
     <path d="m39.148 29.555-0.096 0.143"/>
     <path d="m39.052 29.698-0.095 0.095"/>
     <path d="m38.957 29.793-0.095 0.048"/>
    </g>
    <text x="57.150" y="68.700" font-size="1.333" opacity="0" text-anchor="middle" lengthAdjust="spacingAndGlyphs" textLength="3.298">SW8</text>
    <g class="stroked-text">
     <desc>SW8</desc>
     <path d="m55.817 68.607 0.143 0.048"/>
     <path d="m55.96 68.655h0.238"/>
     <path d="m56.198 68.655 0.095-0.048"/>
     <path d="m56.293 68.607 0.047-0.047"/>
     <path d="m56.34 68.56 0.048-0.096"/>
     <path d="m56.388 68.464v-0.095"/>
     <path d="m56.388 68.369-0.048-0.095"/>
     <path d="m56.34 68.274-0.047-0.048"/>
     <path d="m56.293 68.226-0.095-0.047"/>
     <path d="m56.198 68.179-0.191-0.048"/>
     <path d="m56.007 68.131-0.095-0.048"/>
     <path d="m55.912 68.083-0.048-0.047"/>
     <path d="m55.864 68.036-0.047-0.095"/>
     <path d="m55.817 67.941v-0.096"/>
     <path d="m55.817 67.845 0.047-0.095"/>
     <path d="m55.864 67.75 0.048-0.048"/>
     <path d="m55.912 67.702 0.095-0.047"/>
     <path d="m56.007 67.655h0.238"/>
     <path d="m56.245 67.655 0.143 0.047"/>
     <path d="m56.721 67.655 0.239 1"/>
     <path d="m56.96 68.655 0.19-0.714"/>
     <path d="m57.15 67.941 0.19 0.714"/>
     <path d="m57.34 68.655 0.239-1"/>
     <path d="m58.102 68.083-0.095-0.047"/>
     <path d="m58.007 68.036-0.047-0.048"/>
     <path d="m57.96 67.988-0.048-0.095"/>
     <path d="m57.912 67.893v-0.048"/>
     <path d="m57.912 67.845 0.048-0.095"/>
     <path d="m57.96 67.75 0.047-0.048"/>
     <path d="m58.007 67.702 0.095-0.047"/>
     <path d="m58.102 67.655h0.191"/>
     <path d="m58.293 67.655 0.095 0.047"/>
     <path d="m58.388 67.702 0.048 0.048"/>
     <path d="m58.436 67.75 0.047 0.095"/>
     <path d="m58.483 67.845v0.048"/>
     <path d="m58.483 67.893-0.047 0.095"/>
     <path d="m58.436 67.988-0.048 0.048"/>
     <path d="m58.388 68.036-0.095 0.047"/>
     <path d="m58.293 68.083h-0.191"/>
     <path d="m58.102 68.083-0.095 0.048"/>
     <path d="m58.007 68.131-0.047 0.048"/>
     <path d="m57.96 68.179-0.048 0.095"/>
     <path d="m57.912 68.274v0.19"/>
     <path d="m57.912 68.464 0.048 0.096"/>
     <path d="m57.96 68.56 0.047 0.047"/>
     <path d="m58.007 68.607 0.095 0.048"/>
     <path d="m58.102 68.655h0.191"/>
     <path d="m58.293 68.655 0.095-0.048"/>
     <path d="m58.388 68.607 0.048-0.047"/>
     <path d="m58.436 68.56 0.047-0.096"/>
     <path d="m58.483 68.464v-0.19"/>
     <path d="m58.483 68.274-0.047-0.095"/>
     <path d="m58.436 68.179-0.048-0.048"/>
     <path d="m58.388 68.131-0.095-0.048"/>
    </g>
    <text x="38.100" y="49.650" font-size="1.333" opacity="0" text-anchor="middle" lengthAdjust="spacingAndGlyphs" textLength="3.298">SW4</text>
    <g class="stroked-text">
     <desc>SW4</desc>
     <path d="m36.767 49.557 0.143 0.048"/>
     <path d="m36.91 49.605h0.238"/>
     <path d="m37.148 49.605 0.095-0.048"/>
     <path d="m37.243 49.557 0.047-0.047"/>
     <path d="m37.29 49.51 0.048-0.096"/>
     <path d="m37.338 49.414v-0.095"/>
     <path d="m37.338 49.319-0.048-0.095"/>
     <path d="m37.29 49.224-0.047-0.048"/>
     <path d="m37.243 49.176-0.095-0.047"/>
     <path d="m37.148 49.129-0.191-0.048"/>
     <path d="m36.957 49.081-0.095-0.048"/>
     <path d="m36.862 49.033-0.048-0.047"/>
     <path d="m36.814 48.986-0.047-0.095"/>
     <path d="m36.767 48.891v-0.096"/>
     <path d="m36.767 48.795 0.047-0.095"/>
     <path d="m36.814 48.7 0.048-0.048"/>
     <path d="m36.862 48.652 0.095-0.047"/>
     <path d="m36.957 48.605h0.238"/>
     <path d="m37.195 48.605 0.143 0.047"/>
     <path d="m37.671 48.605 0.239 1"/>
     <path d="m37.91 49.605 0.19-0.714"/>
     <path d="m38.1 48.891 0.19 0.714"/>
     <path d="m38.29 49.605 0.239-1"/>
     <path d="m39.338 48.938v0.667"/>
     <path d="m39.1 48.557-0.238 0.714"/>
     <path d="m38.862 49.271h0.619"/>
    </g>
   </g>
   <g fill="#F2EDA1" stroke="#F2EDA1" stroke-width=".12">
    <path d="m31 69.1v14.2"/>
    <path d="m31 83.3h14.2"/>
    <path d="m45.2 69.1h-14.2"/>
    <path d="m45.2 83.3v-14.2"/>
    <path d="m69.1 69.1v14.2"/>
    <path d="m69.1 83.3h14.2"/>
    <path d="m83.3 69.1h-14.2"/>
    <path d="m83.3 83.3v-14.2"/>
    <path d="m69.1 31v14.2"/>
    <path d="m69.1 45.2h14.2"/>
    <path d="m83.3 31h-14.2"/>
    <path d="m83.3 45.2v-14.2"/>
    <path d="m69.1 50.05v14.2"/>
    <path d="m69.1 64.25h14.2"/>
    <path d="m83.3 50.05h-14.2"/>
    <path d="m83.3 64.25v-14.2"/>
    <path d="m50.05 50.05v14.2"/>
    <path d="m50.05 64.25h14.2"/>
    <path d="m64.25 50.05h-14.2"/>
    <path d="m64.25 64.25v-14.2"/>
    <path d="m50.05 31v14.2"/>
    <path d="m50.05 45.2h14.2"/>
    <path d="m64.25 31h-14.2"/>
    <path d="m64.25 45.2v-14.2"/>
    <path d="m31 31v14.2"/>
    <path d="m31 45.2h14.2"/>
    <path d="m45.2 31h-14.2"/>
    <path d="m45.2 45.2v-14.2"/>
    <path d="m50.05 69.1v14.2"/>
    <path d="m50.05 83.3h14.2"/>
    <path d="m64.25 69.1h-14.2"/>
    <path d="m64.25 83.3v-14.2"/>
    <path d="m31 50.05v14.2"/>
    <path d="m31 64.25h14.2"/>
    <path d="m45.2 50.05h-14.2"/>
    <path d="m45.2 64.25v-14.2"/>
   </g>
   <g stroke="#000" stroke-width=".12">
    <g fill="#02FFEE" fill-opacity=".4" stroke-width="0">
     <g stroke="#02FFEE" stroke-linecap="round" stroke-linejoin="round">
      <circle cx="33.02" cy="76.2" r=".875"/>
      <circle cx="38.1" cy="76.2" r="2"/>
      <circle cx="43.18" cy="76.2" r=".875"/>
      <circle cx="34.29" cy="73.66" r="1.25"/>
      <circle cx="40.64" cy="71.12" r="1.25"/>
      <circle cx="71.12" cy="76.2" r=".875"/>
      <circle cx="76.2" cy="76.2" r="2"/>
      <circle cx="81.28" cy="76.2" r=".875"/>
      <circle cx="72.39" cy="73.66" r="1.25"/>
      <circle cx="78.74" cy="71.12" r="1.25"/>
      <circle cx="71.12" cy="38.1" r=".875"/>
      <circle cx="76.2" cy="38.1" r="2"/>
      <circle cx="81.28" cy="38.1" r=".875"/>
      <circle cx="72.39" cy="35.56" r="1.25"/>
      <circle cx="78.74" cy="33.02" r="1.25"/>
      <circle cx="71.12" cy="57.15" r=".875"/>
      <circle cx="76.2" cy="57.15" r="2"/>
      <circle cx="81.28" cy="57.15" r=".875"/>
      <circle cx="72.39" cy="54.61" r="1.25"/>
      <circle cx="78.74" cy="52.07" r="1.25"/>
      <circle cx="52.07" cy="57.15" r=".875"/>
      <circle cx="57.15" cy="57.15" r="2"/>
      <circle cx="62.23" cy="57.15" r=".875"/>
      <circle cx="53.34" cy="54.61" r="1.25"/>
      <circle cx="59.69" cy="52.07" r="1.25"/>
      <circle cx="52.07" cy="38.1" r=".875"/>
      <circle cx="57.15" cy="38.1" r="2"/>
      <circle cx="62.23" cy="38.1" r=".875"/>
      <circle cx="53.34" cy="35.56" r="1.25"/>
      <circle cx="59.69" cy="33.02" r="1.25"/>
      <circle cx="33.02" cy="38.1" r=".875"/>
      <circle cx="38.1" cy="38.1" r="2"/>
      <circle cx="43.18" cy="38.1" r=".875"/>
      <circle cx="34.29" cy="35.56" r="1.25"/>
      <circle cx="40.64" cy="33.02" r="1.25"/>
      <circle cx="52.07" cy="76.2" r=".875"/>
      <circle cx="57.15" cy="76.2" r="2"/>
      <circle cx="62.23" cy="76.2" r=".875"/>
      <circle cx="53.34" cy="73.66" r="1.25"/>
      <circle cx="59.69" cy="71.12" r="1.25"/>
      <circle cx="33.02" cy="57.15" r=".875"/>
      <circle cx="38.1" cy="57.15" r="2"/>
      <circle cx="43.18" cy="57.15" r=".875"/>
      <circle cx="34.29" cy="54.61" r="1.25"/>
      <circle cx="40.64" cy="52.07" r="1.25"/>
     </g>
     <g fill-rule="evenodd">
      <path d="m80.98 44.05-0.096-0.019-0.081-0.054-0.054-0.081-0.019-0.096v-0.6l0.019-0.096 0.054-0.081 0.081-0.054 0.096-0.019h0.6l0.096 0.019 0.081 0.054 0.054 0.081 0.019 0.096v0.6l-0.019 0.096-0.054 0.081-0.081 0.054-0.096 0.019z"/>
      <path d="m80.98 41.25-0.096-0.019-0.081-0.054-0.054-0.081-0.019-0.096v-0.6l0.019-0.096 0.054-0.081 0.081-0.054 0.096-0.019h0.6l0.096 0.019 0.081 0.054 0.054 0.081 0.019 0.096v0.6l-0.019 0.096-0.054 0.081-0.081 0.054-0.096 0.019z"/>
      <path d="m80.98 63.1-0.096-0.019-0.081-0.054-0.054-0.081-0.019-0.096v-0.6l0.019-0.096 0.054-0.081 0.081-0.054 0.096-0.019h0.6l0.096 0.019 0.081 0.054 0.054 0.081 0.019 0.096v0.6l-0.019 0.096-0.054 0.081-0.081 0.054-0.096 0.019z"/>
      <path d="m80.98 60.3-0.096-0.019-0.081-0.054-0.054-0.081-0.019-0.096v-0.6l0.019-0.096 0.054-0.081 0.081-0.054 0.096-0.019h0.6l0.096 0.019 0.081 0.054 0.054 0.081 0.019 0.096v0.6l-0.019 0.096-0.054 0.081-0.081 0.054-0.096 0.019z"/>
      <path d="m61.93 82.15-0.096-0.019-0.081-0.054-0.054-0.081-0.019-0.096v-0.6l0.019-0.096 0.054-0.081 0.081-0.054 0.096-0.019h0.6l0.096 0.019 0.081 0.054 0.054 0.081 0.019 0.096v0.6l-0.019 0.096-0.054 0.081-0.081 0.054-0.096 0.019z"/>
      <path d="m61.93 79.35-0.096-0.019-0.081-0.054-0.054-0.081-0.019-0.096v-0.6l0.019-0.096 0.054-0.081 0.081-0.054 0.096-0.019h0.6l0.096 0.019 0.081 0.054 0.054 0.081 0.019 0.096v0.6l-0.019 0.096-0.054 0.081-0.081 0.054-0.096 0.019z"/>
      <path d="m42.88 63.1-0.096-0.019-0.081-0.054-0.054-0.081-0.019-0.096v-0.6l0.019-0.096 0.054-0.081 0.081-0.054 0.096-0.019h0.6l0.096 0.019 0.081 0.054 0.054 0.081 0.019 0.096v0.6l-0.019 0.096-0.054 0.081-0.081 0.054-0.096 0.019z"/>
      <path d="m42.88 60.3-0.096-0.019-0.081-0.054-0.054-0.081-0.019-0.096v-0.6l0.019-0.096 0.054-0.081 0.081-0.054 0.096-0.019h0.6l0.096 0.019 0.081 0.054 0.054 0.081 0.019 0.096v0.6l-0.019 0.096-0.054 0.081-0.081 0.054-0.096 0.019z"/>
      <path d="m61.93 63.1-0.096-0.019-0.081-0.054-0.054-0.081-0.019-0.096v-0.6l0.019-0.096 0.054-0.081 0.081-0.054 0.096-0.019h0.6l0.096 0.019 0.081 0.054 0.054 0.081 0.019 0.096v0.6l-0.019 0.096-0.054 0.081-0.081 0.054-0.096 0.019z"/>
      <path d="m61.93 60.3-0.096-0.019-0.081-0.054-0.054-0.081-0.019-0.096v-0.6l0.019-0.096 0.054-0.081 0.081-0.054 0.096-0.019h0.6l0.096 0.019 0.081 0.054 0.054 0.081 0.019 0.096v0.6l-0.019 0.096-0.054 0.081-0.081 0.054-0.096 0.019z"/>
      <path d="m61.93 44.05-0.096-0.019-0.081-0.054-0.054-0.081-0.019-0.096v-0.6l0.019-0.096 0.054-0.081 0.081-0.054 0.096-0.019h0.6l0.096 0.019 0.081 0.054 0.054 0.081 0.019 0.096v0.6l-0.019 0.096-0.054 0.081-0.081 0.054-0.096 0.019z"/>
      <path d="m61.93 41.25-0.096-0.019-0.081-0.054-0.054-0.081-0.019-0.096v-0.6l0.019-0.096 0.054-0.081 0.081-0.054 0.096-0.019h0.6l0.096 0.019 0.081 0.054 0.054 0.081 0.019 0.096v0.6l-0.019 0.096-0.054 0.081-0.081 0.054-0.096 0.019z"/>
      <path d="m42.88 82.15-0.096-0.019-0.081-0.054-0.054-0.081-0.019-0.096v-0.6l0.019-0.096 0.054-0.081 0.081-0.054 0.096-0.019h0.6l0.096 0.019 0.081 0.054 0.054 0.081 0.019 0.096v0.6l-0.019 0.096-0.054 0.081-0.081 0.054-0.096 0.019z"/>
      <path d="m42.88 79.35-0.096-0.019-0.081-0.054-0.054-0.081-0.019-0.096v-0.6l0.019-0.096 0.054-0.081 0.081-0.054 0.096-0.019h0.6l0.096 0.019 0.081 0.054 0.054 0.081 0.019 0.096v0.6l-0.019 0.096-0.054 0.081-0.081 0.054-0.096 0.019z"/>
      <path d="m80.98 82.15-0.096-0.019-0.081-0.054-0.054-0.081-0.019-0.096v-0.6l0.019-0.096 0.054-0.081 0.081-0.054 0.096-0.019h0.6l0.096 0.019 0.081 0.054 0.054 0.081 0.019 0.096v0.6l-0.019 0.096-0.054 0.081-0.081 0.054-0.096 0.019z"/>
      <path d="m80.98 79.35-0.096-0.019-0.081-0.054-0.054-0.081-0.019-0.096v-0.6l0.019-0.096 0.054-0.081 0.081-0.054 0.096-0.019h0.6l0.096 0.019 0.081 0.054 0.054 0.081 0.019 0.096v0.6l-0.019 0.096-0.054 0.081-0.081 0.054-0.096 0.019z"/>
      <path d="m42.88 44.05-0.096-0.019-0.081-0.054-0.054-0.081-0.019-0.096v-0.6l0.019-0.096 0.054-0.081 0.081-0.054 0.096-0.019h0.6l0.096 0.019 0.081 0.054 0.054 0.081 0.019 0.096v0.6l-0.019 0.096-0.054 0.081-0.081 0.054-0.096 0.019z"/>
      <path d="m42.88 41.25-0.096-0.019-0.081-0.054-0.054-0.081-0.019-0.096v-0.6l0.019-0.096 0.054-0.081 0.081-0.054 0.096-0.019h0.6l0.096 0.019 0.081 0.054 0.054 0.081 0.019 0.096v0.6l-0.019 0.096-0.054 0.081-0.081 0.054-0.096 0.019z"/>
     </g>
    </g>
   </g>
  </g>
 </g>
 <g stroke-width="0">
  <g fill="#D864FF" fill-opacity=".4" stroke="#D864FF" stroke-linecap="round" stroke-linejoin="round" stroke-width="0">
   <circle cx="33.02" cy="76.2" r=".875"/>
   <circle cx="38.1" cy="76.2" r="2"/>
   <circle cx="43.18" cy="76.2" r=".875"/>
   <circle cx="71.12" cy="76.2" r=".875"/>
   <circle cx="76.2" cy="76.2" r="2"/>
   <circle cx="81.28" cy="76.2" r=".875"/>
   <circle cx="71.12" cy="38.1" r=".875"/>
   <circle cx="76.2" cy="38.1" r="2"/>
   <circle cx="81.28" cy="38.1" r=".875"/>
   <circle cx="71.12" cy="57.15" r=".875"/>
   <circle cx="76.2" cy="57.15" r="2"/>
   <circle cx="81.28" cy="57.15" r=".875"/>
   <circle cx="52.07" cy="57.15" r=".875"/>
   <circle cx="57.15" cy="57.15" r="2"/>
   <circle cx="62.23" cy="57.15" r=".875"/>
   <circle cx="52.07" cy="38.1" r=".875"/>
   <circle cx="57.15" cy="38.1" r="2"/>
   <circle cx="62.23" cy="38.1" r=".875"/>
   <circle cx="33.02" cy="38.1" r=".875"/>
   <circle cx="38.1" cy="38.1" r="2"/>
   <circle cx="43.18" cy="38.1" r=".875"/>
   <circle cx="52.07" cy="76.2" r=".875"/>
   <circle cx="57.15" cy="76.2" r="2"/>
   <circle cx="62.23" cy="76.2" r=".875"/>
   <circle cx="33.02" cy="57.15" r=".875"/>
   <circle cx="38.1" cy="57.15" r="2"/>
   <circle cx="43.18" cy="57.15" r=".875"/>
  </g>
 </g>
</svg>
