<?xml version="1.0" encoding="UTF-8"?>
<svg width="16.485mm" height="17.645mm" version="1.1" viewBox="55 53.555 16.485 17.645" xmlns="http://www.w3.org/2000/svg">
 <title>SVG Image created as bigswitch-render.svg date 2024/01/04 10:28:23</title>
 <desc>Image generated by PCBNEW</desc>
 <g fill="#282a36">
  <rect x="55" y="53.555" width="16.485" height="17.645"/>
 </g>
 <g stroke-linecap="round" stroke-linejoin="round">
  <g fill="#C83434" stroke="#C83434" stroke-width="0">
   <circle cx="59.29" cy="60.56" r="1.25"/>
   <circle cx="65.64" cy="58.02" r="1.25"/>
  </g>
  <g stroke-width="0">
   <g fill="#7FC87F" stroke="#7FC87F">
    <circle cx="59.29" cy="60.56" r="1.25"/>
    <circle cx="65.64" cy="58.02" r="1.25"/>
   </g>
   <g fill="#CE7D2C" stroke="#CE7D2C">
    <circle cx="59.29" cy="60.56" r="1.25"/>
    <circle cx="65.64" cy="58.02" r="1.25"/>
   </g>
   <g fill="#4FCBCB" stroke="#4FCBCB">
    <circle cx="59.29" cy="60.56" r="1.25"/>
    <circle cx="65.64" cy="58.02" r="1.25"/>
   </g>
   <g fill="#DB628B" stroke="#DB628B">
    <circle cx="59.29" cy="60.56" r="1.25"/>
    <circle cx="65.64" cy="58.02" r="1.25"/>
   </g>
   <g fill="#A7A5C6" stroke="#A7A5C6">
    <circle cx="59.29" cy="60.56" r="1.25"/>
    <circle cx="65.64" cy="58.02" r="1.25"/>
   </g>
   <g fill="#28CCD9" stroke="#28CCD9">
    <circle cx="59.29" cy="60.56" r="1.25"/>
    <circle cx="65.64" cy="58.02" r="1.25"/>
   </g>
   <g fill="#E8B2A7" stroke="#E8B2A7">
    <circle cx="59.29" cy="60.56" r="1.25"/>
    <circle cx="65.64" cy="58.02" r="1.25"/>
   </g>
   <g fill="#F2EDA1" stroke="#F2EDA1">
    <circle cx="59.29" cy="60.56" r="1.25"/>
    <circle cx="65.64" cy="58.02" r="1.25"/>
   </g>
   <g fill="#8DCB81" stroke="#8DCB81">
    <circle cx="59.29" cy="60.56" r="1.25"/>
    <circle cx="65.64" cy="58.02" r="1.25"/>
   </g>
   <g fill="#ED7C33" stroke="#ED7C33">
    <circle cx="59.29" cy="60.56" r="1.25"/>
    <circle cx="65.64" cy="58.02" r="1.25"/>
   </g>
   <g fill="#5BC3EB" stroke="#5BC3EB">
    <circle cx="59.29" cy="60.56" r="1.25"/>
    <circle cx="65.64" cy="58.02" r="1.25"/>
   </g>
   <g fill="#F76F8E" stroke="#F76F8E">
    <circle cx="59.29" cy="60.56" r="1.25"/>
    <circle cx="65.64" cy="58.02" r="1.25"/>
   </g>
   <g fill="#A7A5C6" stroke="#A7A5C6">
    <circle cx="59.29" cy="60.56" r="1.25"/>
    <circle cx="65.64" cy="58.02" r="1.25"/>
   </g>
   <g fill="#28CCD9" stroke="#28CCD9">
    <circle cx="59.29" cy="60.56" r="1.25"/>
    <circle cx="65.64" cy="58.02" r="1.25"/>
   </g>
   <g fill="#E8B2A7" stroke="#E8B2A7">
    <circle cx="59.29" cy="60.56" r="1.25"/>
    <circle cx="65.64" cy="58.02" r="1.25"/>
   </g>
   <g fill="#F2EDA1" stroke="#F2EDA1">
    <circle cx="59.29" cy="60.56" r="1.25"/>
    <circle cx="65.64" cy="58.02" r="1.25"/>
   </g>
   <g fill="#ED7C33" stroke="#ED7C33">
    <circle cx="59.29" cy="60.56" r="1.25"/>
    <circle cx="65.64" cy="58.02" r="1.25"/>
   </g>
   <g fill="#5BC3EB" stroke="#5BC3EB">
    <circle cx="59.29" cy="60.56" r="1.25"/>
    <circle cx="65.64" cy="58.02" r="1.25"/>
   </g>
   <g fill="#F76F8E" stroke="#F76F8E">
    <circle cx="59.29" cy="60.56" r="1.25"/>
    <circle cx="65.64" cy="58.02" r="1.25"/>
   </g>
   <g fill="#A7A5C6" stroke="#A7A5C6">
    <circle cx="59.29" cy="60.56" r="1.25"/>
    <circle cx="65.64" cy="58.02" r="1.25"/>
   </g>
   <g fill="#28CCD9" stroke="#28CCD9">
    <circle cx="59.29" cy="60.56" r="1.25"/>
    <circle cx="65.64" cy="58.02" r="1.25"/>
   </g>
   <g fill="#E8B2A7" stroke="#E8B2A7">
    <circle cx="59.29" cy="60.56" r="1.25"/>
    <circle cx="65.64" cy="58.02" r="1.25"/>
   </g>
   <g fill="#F2EDA1" stroke="#F2EDA1">
    <circle cx="59.29" cy="60.56" r="1.25"/>
    <circle cx="65.64" cy="58.02" r="1.25"/>
   </g>
   <g fill="#ED7C33" stroke="#ED7C33">
    <circle cx="59.29" cy="60.56" r="1.25"/>
    <circle cx="65.64" cy="58.02" r="1.25"/>
   </g>
   <g fill="#5BC3EB" stroke="#5BC3EB">
    <circle cx="59.29" cy="60.56" r="1.25"/>
    <circle cx="65.64" cy="58.02" r="1.25"/>
   </g>
   <g fill="#F76F8E" stroke="#F76F8E">
    <circle cx="59.29" cy="60.56" r="1.25"/>
    <circle cx="65.64" cy="58.02" r="1.25"/>
   </g>
   <g fill="#A7A5C6" stroke="#A7A5C6">
    <circle cx="59.29" cy="60.56" r="1.25"/>
    <circle cx="65.64" cy="58.02" r="1.25"/>
   </g>
   <g fill="#28CCD9" stroke="#28CCD9">
    <circle cx="59.29" cy="60.56" r="1.25"/>
    <circle cx="65.64" cy="58.02" r="1.25"/>
   </g>
   <g fill="#E8B2A7" stroke="#E8B2A7">
    <circle cx="59.29" cy="60.56" r="1.25"/>
    <circle cx="65.64" cy="58.02" r="1.25"/>
   </g>
   <g fill="#F2EDA1" stroke="#F2EDA1">
    <circle cx="59.29" cy="60.56" r="1.25"/>
    <circle cx="65.64" cy="58.02" r="1.25"/>
   </g>
  </g>
  <g stroke="#000" stroke-width=".021">
   <g fill="#4D7FC4">
    <g stroke-width="0">
     <g stroke="#4D7FC4" stroke-linecap="round" stroke-linejoin="round">
      <circle cx="59.29" cy="60.56" r="1.25"/>
      <circle cx="65.64" cy="58.02" r="1.25"/>
     </g>
     <g fill-rule="evenodd">
      <path d="m68.43 67.48h-0.5v-0.5h0.5z"/>
      <path d="m68.43 65.28h-0.5v-0.5h0.5z"/>
     </g>
    </g>
    <g fill-opacity="0" stroke="#4D7FC4" stroke-linecap="round" stroke-linejoin="round" stroke-width=".25">
     <path d="m65.64 62.49 2.54 2.54"/>
     <path d="m65.64 58.02v4.47"/>
    </g>
   </g>
  </g>
  <g fill-opacity="0">
   <g stroke="#000" stroke-width=".25">
    <g fill="#00C2C2" fill-opacity=".9" fill-rule="evenodd" stroke-width="0">
     <path d="m68.43 67.48h-0.5v-0.5h0.5z"/>
     <path d="m68.43 65.28h-0.5v-0.5h0.5z"/>
    </g>
   </g>
   <g fill="#E8B2A7" stroke="#E8B2A7" stroke-width=".15">
    <g transform="rotate(-90 70.03 66.13)">
     <text transform="scale(-1 1) translate(-140.06)" x="70.030" y="66.630" font-size="1.333" opacity="0" text-anchor="middle" lengthAdjust="spacingAndGlyphs" textLength="2.202">D1</text>
    </g>
    <g class="stroked-text">
     <desc>D1</desc>
     <path d="m70.485 65.392h-1"/>
     <path d="m69.485 65.392v0.238"/>
     <path d="m69.485 65.63 0.047 0.143"/>
     <path d="m69.532 65.773 0.096 0.095"/>
     <path d="m69.628 65.868 0.095 0.048"/>
     <path d="m69.723 65.916 0.19 0.047"/>
     <path d="m69.913 65.963h0.143"/>
     <path d="m70.056 65.963 0.191-0.047"/>
     <path d="m70.247 65.916 0.095-0.048"/>
     <path d="m70.342 65.868 0.095-0.095"/>
     <path d="m70.437 65.773 0.048-0.143"/>
     <path d="m70.485 65.63v-0.238"/>
     <path d="m70.485 66.916v-0.572"/>
     <path d="m70.485 66.63h-1"/>
     <path d="m69.485 66.63 0.143-0.095"/>
     <path d="m69.628 66.535 0.095-0.095"/>
     <path d="m69.723 66.44 0.048-0.096"/>
    </g>
   </g>
   <g fill="#E8B2A7" stroke="#E8B2A7" stroke-width=".12">
    <path d="m67.33 67.63v-2.55"/>
    <path d="m69.03 67.63h-1.7"/>
    <path d="m69.03 67.63v-2.55"/>
   </g>
   <g fill="#F2EDA1" stroke="#F2EDA1" stroke-width=".15">
    <text x="63.100" y="55.600" font-size="1.333" opacity="0" text-anchor="middle" lengthAdjust="spacingAndGlyphs" textLength="3.298">SW1</text>
    <g class="stroked-text">
     <desc>SW1</desc>
     <path d="m61.767 55.507 0.143 0.048"/>
     <path d="m61.91 55.555h0.238"/>
     <path d="m62.148 55.555 0.095-0.048"/>
     <path d="m62.243 55.507 0.047-0.047"/>
     <path d="m62.29 55.46 0.048-0.096"/>
     <path d="m62.338 55.364v-0.095"/>
     <path d="m62.338 55.269-0.048-0.095"/>
     <path d="m62.29 55.174-0.047-0.048"/>
     <path d="m62.243 55.126-0.095-0.047"/>
     <path d="m62.148 55.079-0.191-0.048"/>
     <path d="m61.957 55.031-0.095-0.048"/>
     <path d="m61.862 54.983-0.048-0.047"/>
     <path d="m61.814 54.936-0.047-0.095"/>
     <path d="m61.767 54.841v-0.096"/>
     <path d="m61.767 54.745 0.047-0.095"/>
     <path d="m61.814 54.65 0.048-0.048"/>
     <path d="m61.862 54.602 0.095-0.047"/>
     <path d="m61.957 54.555h0.238"/>
     <path d="m62.195 54.555 0.143 0.047"/>
     <path d="m62.671 54.555 0.239 1"/>
     <path d="m62.91 55.555 0.19-0.714"/>
     <path d="m63.1 54.841 0.19 0.714"/>
     <path d="m63.29 55.555 0.239-1"/>
     <path d="m64.433 55.555h-0.571"/>
     <path d="m64.148 55.555v-1"/>
     <path d="m64.148 54.555-0.096 0.143"/>
     <path d="m64.052 54.698-0.095 0.095"/>
     <path d="m63.957 54.793-0.095 0.048"/>
    </g>
   </g>
   <g fill="#F2EDA1" stroke="#F2EDA1" stroke-width=".12">
    <path d="m56 56v14.2"/>
    <path d="m56 70.2h14.2"/>
    <path d="m70.2 56h-14.2"/>
    <path d="m70.2 70.2v-14.2"/>
   </g>
   <g stroke="#000" stroke-width=".12">
    <g fill="#02FFEE" fill-opacity=".4" stroke-width="0">
     <g stroke="#02FFEE" stroke-linecap="round" stroke-linejoin="round">
      <circle cx="58.02" cy="63.1" r=".875"/>
      <circle cx="63.1" cy="63.1" r="2"/>
      <circle cx="68.18" cy="63.1" r=".875"/>
      <circle cx="59.29" cy="60.56" r="1.25"/>
      <circle cx="65.64" cy="58.02" r="1.25"/>
     </g>
     <g fill-rule="evenodd">
      <path d="m68.43 67.48h-0.5v-0.5h0.5z"/>
      <path d="m68.43 65.28h-0.5v-0.5h0.5z"/>
     </g>
    </g>
   </g>
  </g>
 </g>
 <g stroke-width="0">
  <g fill="#D864FF" fill-opacity=".4" stroke="#D864FF" stroke-linecap="round" stroke-linejoin="round" stroke-width="0">
   <circle cx="58.02" cy="63.1" r=".875"/>
   <circle cx="63.1" cy="63.1" r="2"/>
   <circle cx="68.18" cy="63.1" r=".875"/>
  </g>
 </g>
</svg>
