<?xml version="1.0" encoding="UTF-8"?>
<!DOCTYPE svg  PUBLIC '-//W3C//DTD SVG 1.1//EN'  'http://www.w3.org/Graphics/SVG/1.1/DTD/svg11.dtd'>
<svg width="76.276mm" height="19.126mm" version="1.1" viewBox="0 0 76.276 19.126" xmlns="http://www.w3.org/2000/svg">
 <title>SVG Image created as bigswitch-render.svg date 2026/07/14 10:48:09</title>
 <desc>Image generated by PCBNEW</desc>
 <rect width="76.276mm" height="19.126mm" fill="#282A36"/>
 <g fill="#f55">
  <circle cx="34.34" cy="7.035" r="1.25"/>
  <circle cx="40.69" cy="4.495" r="1.25"/>
 </g>
 <g fill="#50FA7B">
  <circle cx="34.34" cy="7.035" r="1.25"/>
  <circle cx="40.69" cy="4.495" r="1.25"/>
  <path d="m42.93 15.525-0.0957-0.019-0.0811-0.0542-0.0542-0.0811-0.019-0.0957v-0.6l0.019-0.0957 0.0542-0.0811 0.0811-0.0542 0.0957-0.019h0.6l0.0957 0.019 0.0811 0.0542 0.0542 0.0811 0.019 0.0957v0.6l-0.019 0.0957-0.0542 0.0811-0.0811 0.0542-0.0957 0.019z" fill="#50FA7B" fill-rule="evenodd"/>
  <path d="m42.93 12.725-0.0957-0.019-0.0811-0.0542-0.0542-0.0811-0.019-0.0957v-0.6l0.019-0.0957 0.0542-0.0811 0.0811-0.0542 0.0957-0.019h0.6l0.0957 0.019 0.0811 0.0542 0.0542 0.0811 0.019 0.0957v0.6l-0.019 0.0957-0.0542 0.0811-0.0811 0.0542-0.0957 0.019z" fill="#50FA7B" fill-rule="evenodd"/>
 </g>
 <g fill="none" stroke-linecap="round" stroke-linejoin="round">
  <g stroke="#50FA7B" stroke-width=".2">
   <path d="m40.69 9.635 2.54 2.54"/>
   <path d="m40.69 4.495v5.14"/>
  </g>
  <g stroke="#8BE9FD" stroke-width=".15">
   <text x="38.1500" y="2.0750" font-size="1.3333" opacity="0" stroke-opacity="0" text-anchor="middle" lengthAdjust="spacingAndGlyphs" textLength="3.2976">SW1</text>
   <g class="stroked-text">
    <desc>SW1</desc>
    <path d="m36.817 1.9822 0.1428 0.0476"/>
    <path d="m36.96 2.0298h0.2381"/>
    <path d="m37.198 2.0298 0.0953-0.0476"/>
    <path d="m37.293 1.9822 0.0476-0.0476"/>
    <path d="m37.34 1.9346 0.0476-0.0953"/>
    <path d="m37.388 1.8393v-0.0952"/>
    <path d="m37.388 1.7441-0.0476-0.0952"/>
    <path d="m37.34 1.6489-0.0476-0.0477"/>
    <path d="m37.293 1.6012-0.0953-0.0476"/>
    <path d="m37.198 1.5536-0.1905-0.0476"/>
    <path d="m37.007 1.506-0.0952-0.0476"/>
    <path d="m36.912 1.4584-0.0476-0.0476"/>
    <path d="m36.864 1.4108-0.0476-0.0953"/>
    <path d="m36.817 1.3155v-0.0952"/>
    <path d="m36.817 1.2203 0.0476-0.0952"/>
    <path d="m36.864 1.1251 0.0476-0.0477"/>
    <path d="m36.912 1.0774 0.0952-0.0476"/>
    <path d="m37.007 1.0298h0.2381"/>
    <path d="m37.245 1.0298 0.1429 0.0476"/>
    <path d="m37.721 1.0298 0.2381 1"/>
    <path d="m37.96 2.0298 0.1905-0.7143"/>
    <path d="m38.15 1.3155 0.1905 0.7143"/>
    <path d="m38.34 2.0298 0.2381-1"/>
    <path d="m39.483 2.0298h-0.5714"/>
    <path d="m39.198 2.0298v-1"/>
    <path d="m39.198 1.0298-0.0952 0.1429"/>
    <path d="m39.102 1.1727-0.0953 0.0952"/>
    <path d="m39.007 1.2679-0.0952 0.0476"/>
   </g>
  </g>
  <g stroke="#8BE9FD" stroke-width=".12">
   <path d="m31.05 2.475v14.2"/>
   <path d="m31.05 16.675h14.2"/>
   <path d="m45.25 2.475h-14.2"/>
   <path d="m45.25 16.675v-14.2"/>
  </g>
  <g stroke="#BD93F9" stroke-width=".15">
   <g transform="rotate(-90 45.135 13.702)">
    <text transform="scale(-1 1) translate(-90.27)" x="45.1350" y="14.2020" font-size="1.3333" opacity="0" stroke-opacity="0" text-anchor="middle" lengthAdjust="spacingAndGlyphs" textLength="2.2024">D1</text>
   </g>
   <g class="stroked-text">
    <desc>D1</desc>
    <path d="m45.59 12.964h-1"/>
    <path d="m44.59 12.964v0.2381"/>
    <path d="m44.59 13.202 0.0476 0.1429"/>
    <path d="m44.637 13.345 0.0953 0.0952"/>
    <path d="m44.733 13.44 0.0952 0.0476"/>
    <path d="m44.828 13.488 0.1905 0.0476"/>
    <path d="m45.018 13.535h0.1428"/>
    <path d="m45.161 13.535 0.1905-0.0476"/>
    <path d="m45.352 13.488 0.0953-0.0476"/>
    <path d="m45.447 13.44 0.0952-0.0952"/>
    <path d="m45.542 13.345 0.0476-0.1429"/>
    <path d="m45.59 13.202v-0.2381"/>
    <path d="m45.59 14.488v-0.5714"/>
    <path d="m45.59 14.202h-1"/>
    <path d="m44.59 14.202 0.1429-0.0952"/>
    <path d="m44.733 14.107 0.0952-0.0953"/>
    <path d="m44.828 14.012 0.0476-0.0952"/>
   </g>
  </g>
  <g stroke="#BD93F9" stroke-width=".12">
   <path d="m42.23 15.785v-3.86"/>
   <path d="m44.23 15.785h-2"/>
   <path d="m44.23 15.785v-3.86"/>
  </g>
 </g>
 <g fill="#fff">
  <circle cx="33.07" cy="9.575" r=".875"/>
  <circle cx="38.15" cy="9.575" r="2"/>
  <circle cx="43.23" cy="9.575" r=".875"/>
  <circle cx="34.34" cy="7.035" r=".75"/>
  <circle cx="40.69" cy="4.495" r=".75"/>
 </g>
</svg>
