<?xml version="1.0" encoding="UTF-8"?>
<!DOCTYPE svg  PUBLIC '-//W3C//DTD SVG 1.1//EN'  'http://www.w3.org/Graphics/SVG/1.1/DTD/svg11.dtd'>
<svg width="57.226mm" height="93.802mm" version="1.1" viewBox="0 0 57.226 93.802" xmlns="http://www.w3.org/2000/svg">
 <title>SVG Image created as macropad-render.svg date 2026/07/14 10:44:34</title>
 <desc>Image generated by PCBNEW</desc>
 <rect width="57.226mm" height="93.802mm" fill="#282A36"/>
 <g fill="#f55">
  <circle cx="24.815" cy="24.558" r="1.25"/>
  <circle cx="31.165" cy="22.018" r="1.25"/>
  <circle cx="43.865" cy="24.558" r="1.25"/>
  <circle cx="50.215" cy="22.018" r="1.25"/>
  <circle cx="24.815" cy="43.608" r="1.25"/>
  <circle cx="31.165" cy="41.068" r="1.25"/>
  <circle cx="24.815" cy="81.708" r="1.25"/>
  <circle cx="31.165" cy="79.168" r="1.25"/>
  <path d="m39.175 6.5482v-2h2v2z" fill="#f55" fill-rule="evenodd"/>
  <circle cx="40.175" cy="10.548" r="1"/>
  <circle cx="40.175" cy="8.0482" r="1"/>
  <path d="m46.075 3.4482v-1.9999h3.2v1.9999z" fill="#f55" fill-rule="evenodd"/>
  <path d="m46.075 14.648v-2h3.2v2z" fill="#f55" fill-rule="evenodd"/>
  <circle cx="54.675" cy="10.548" r="1"/>
  <circle cx="54.675" cy="5.5482" r="1"/>
  <circle cx="5.765" cy="24.558" r="1.25"/>
  <circle cx="12.115" cy="22.018" r="1.25"/>
  <circle cx="43.865" cy="43.608" r="1.25"/>
  <circle cx="50.215" cy="41.068" r="1.25"/>
  <circle cx="5.765" cy="81.708" r="1.25"/>
  <circle cx="12.115" cy="79.168" r="1.25"/>
  <circle cx="5.765" cy="43.608" r="1.25"/>
  <circle cx="12.115" cy="41.068" r="1.25"/>
  <circle cx="5.765" cy="62.658" r="1.25"/>
  <circle cx="12.115" cy="60.118" r="1.25"/>
  <circle cx="43.865" cy="62.658" r="1.25"/>
  <circle cx="50.215" cy="60.118" r="1.25"/>
  <circle cx="43.865" cy="81.708" r="1.25"/>
  <circle cx="50.215" cy="79.168" r="1.25"/>
  <circle cx="24.815" cy="62.658" r="1.25"/>
  <circle cx="31.165" cy="60.118" r="1.25"/>
 </g>
 <g fill="none" stroke="#f55" stroke-linecap="round" stroke-linejoin="round" stroke-width=".2">
  <path d="m5.765 62.658v19.05"/>
  <path d="m5.765 43.608v19.05"/>
  <path d="m5.765 24.558v19.05"/>
  <path d="m24.815 62.658v19.05"/>
  <path d="m24.815 43.608v19.05"/>
  <path d="m24.815 24.558v19.05"/>
  <path d="m43.865 24.558v-3.2"/>
  <path d="m43.865 24.558v19.05"/>
  <path d="m43.865 21.358 10.81-10.81"/>
  <path d="m43.865 43.608v19.05"/>
  <path d="m43.865 62.658v19.05"/>
 </g>
 <g fill="#50FA7B">
  <circle cx="24.815" cy="24.558" r="1.25"/>
  <circle cx="31.165" cy="22.018" r="1.25"/>
  <circle cx="43.865" cy="24.558" r="1.25"/>
  <circle cx="50.215" cy="22.018" r="1.25"/>
  <circle cx="24.815" cy="43.608" r="1.25"/>
  <circle cx="31.165" cy="41.068" r="1.25"/>
  <circle cx="24.815" cy="81.708" r="1.25"/>
  <circle cx="31.165" cy="79.168" r="1.25"/>
  <path d="m39.175 6.5482v-2h2v2z" fill="#50FA7B" fill-rule="evenodd"/>
  <circle cx="40.175" cy="10.548" r="1"/>
  <circle cx="40.175" cy="8.0482" r="1"/>
  <path d="m46.075 3.4482v-1.9999h3.2v1.9999z" fill="#50FA7B" fill-rule="evenodd"/>
  <path d="m46.075 14.648v-2h3.2v2z" fill="#50FA7B" fill-rule="evenodd"/>
  <circle cx="54.675" cy="10.548" r="1"/>
  <circle cx="54.675" cy="5.5482" r="1"/>
  <circle cx="5.765" cy="24.558" r="1.25"/>
  <circle cx="12.115" cy="22.018" r="1.25"/>
  <circle cx="43.865" cy="43.608" r="1.25"/>
  <circle cx="50.215" cy="41.068" r="1.25"/>
  <circle cx="5.765" cy="81.708" r="1.25"/>
  <circle cx="12.115" cy="79.168" r="1.25"/>
  <circle cx="5.765" cy="43.608" r="1.25"/>
  <circle cx="12.115" cy="41.068" r="1.25"/>
  <circle cx="5.765" cy="62.658" r="1.25"/>
  <circle cx="12.115" cy="60.118" r="1.25"/>
  <circle cx="43.865" cy="62.658" r="1.25"/>
  <circle cx="50.215" cy="60.118" r="1.25"/>
  <circle cx="43.865" cy="81.708" r="1.25"/>
  <circle cx="50.215" cy="79.168" r="1.25"/>
  <circle cx="24.815" cy="62.658" r="1.25"/>
  <circle cx="31.165" cy="60.118" r="1.25"/>
  <g fill="#50FA7B" fill-rule="evenodd">
   <path d="m52.455 90.198-0.0957-0.0191-0.0811-0.0542-0.0542-0.0811-0.019-0.0956v-0.6001l0.019-0.0956 0.0542-0.0811 0.0811-0.0542 0.0957-0.0191h0.6l0.0957 0.0191 0.0811 0.0542 0.0542 0.0811 0.019 0.0956v0.6001l-0.019 0.0956-0.0542 0.0811-0.0811 0.0542-0.0957 0.0191z"/>
   <path d="m52.455 87.398-0.0957-0.019-0.0811-0.0542-0.0542-0.0811-0.019-0.0957v-0.6l0.019-0.0956 0.0542-0.0811 0.0811-0.0542 0.0957-0.0191h0.6l0.0957 0.0191 0.0811 0.0542 0.0542 0.0811 0.019 0.0956v0.6l-0.019 0.0957-0.0542 0.0811-0.0811 0.0542-0.0957 0.019z"/>
   <path d="m33.405 52.098-0.0957-0.0191-0.0811-0.0542-0.0542-0.0811-0.019-0.0956v-0.6001l0.019-0.0956 0.0542-0.0811 0.0811-0.0542 0.0957-0.0191h0.6l0.0957 0.0191 0.0811 0.0542 0.0542 0.0811 0.019 0.0956v0.6001l-0.019 0.0956-0.0542 0.0811-0.0811 0.0542-0.0957 0.0191z"/>
   <path d="m33.405 49.298-0.0957-0.019-0.0811-0.0542-0.0542-0.0811-0.019-0.0957v-0.6l0.019-0.0956 0.0542-0.0811 0.0811-0.0542 0.0957-0.0191h0.6l0.0957 0.0191 0.0811 0.0542 0.0542 0.0811 0.019 0.0956v0.6l-0.019 0.0957-0.0542 0.0811-0.0811 0.0542-0.0957 0.019z"/>
   <path d="m33.405 90.198-0.0957-0.0191-0.0811-0.0542-0.0542-0.0811-0.019-0.0956v-0.6001l0.019-0.0956 0.0542-0.0811 0.0811-0.0542 0.0957-0.0191h0.6l0.0957 0.0191 0.0811 0.0542 0.0542 0.0811 0.019 0.0956v0.6001l-0.019 0.0956-0.0542 0.0811-0.0811 0.0542-0.0957 0.0191z"/>
   <path d="m33.405 87.398-0.0957-0.019-0.0811-0.0542-0.0542-0.0811-0.019-0.0957v-0.6l0.019-0.0956 0.0542-0.0811 0.0811-0.0542 0.0957-0.0191h0.6l0.0957 0.0191 0.0811 0.0542 0.0542 0.0811 0.019 0.0956v0.6l-0.019 0.0957-0.0542 0.0811-0.0811 0.0542-0.0957 0.019z"/>
   <path d="m33.405 33.048-0.0957-0.019-0.0811-0.0542-0.0542-0.0811-0.019-0.0957v-0.5999l0.019-0.0957 0.0542-0.0811 0.0811-0.0542 0.0957-0.0191h0.6l0.0957 0.0191 0.0811 0.0542 0.0542 0.0811 0.019 0.0957v0.5999l-0.019 0.0957-0.0542 0.0811-0.0811 0.0542-0.0957 0.019z"/>
   <path d="m33.405 30.248-0.0957-0.019-0.0811-0.0542-0.0542-0.0811-0.019-0.0957v-0.6l0.019-0.0956 0.0542-0.0811 0.0811-0.0542 0.0957-0.0191h0.6l0.0957 0.0191 0.0811 0.0542 0.0542 0.0811 0.019 0.0956v0.6l-0.019 0.0957-0.0542 0.0811-0.0811 0.0542-0.0957 0.019z"/>
   <path d="m52.455 71.148-0.0957-0.019-0.0811-0.0542-0.0542-0.0811-0.019-0.0957v-0.6l0.019-0.0956 0.0542-0.0811 0.0811-0.0542 0.0957-0.0191h0.6l0.0957 0.0191 0.0811 0.0542 0.0542 0.0811 0.019 0.0956v0.6l-0.019 0.0957-0.0542 0.0811-0.0811 0.0542-0.0957 0.019z"/>
   <path d="m52.455 68.348-0.0957-0.019-0.0811-0.0542-0.0542-0.0811-0.019-0.0957v-0.6l0.019-0.0956 0.0542-0.0811 0.0811-0.0542 0.0957-0.0191h0.6l0.0957 0.0191 0.0811 0.0542 0.0542 0.0811 0.019 0.0956v0.6l-0.019 0.0957-0.0542 0.0811-0.0811 0.0542-0.0957 0.019z"/>
   <path d="m52.455 33.048-0.0957-0.019-0.0811-0.0542-0.0542-0.0811-0.019-0.0957v-0.5999l0.019-0.0957 0.0542-0.0811 0.0811-0.0542 0.0957-0.0191h0.6l0.0957 0.0191 0.0811 0.0542 0.0542 0.0811 0.019 0.0957v0.5999l-0.019 0.0957-0.0542 0.0811-0.0811 0.0542-0.0957 0.019z"/>
   <path d="m52.455 30.248-0.0957-0.019-0.0811-0.0542-0.0542-0.0811-0.019-0.0957v-0.6l0.019-0.0956 0.0542-0.0811 0.0811-0.0542 0.0957-0.0191h0.6l0.0957 0.0191 0.0811 0.0542 0.0542 0.0811 0.019 0.0956v0.6l-0.019 0.0957-0.0542 0.0811-0.0811 0.0542-0.0957 0.019z"/>
   <path d="m14.355 33.048-0.0957-0.019-0.0811-0.0542-0.0542-0.0811-0.019-0.0957v-0.5999l0.019-0.0957 0.0542-0.0811 0.0811-0.0542 0.0957-0.0191h0.6l0.0957 0.0191 0.0811 0.0542 0.0542 0.0811 0.019 0.0957v0.5999l-0.019 0.0957-0.0542 0.0811-0.0811 0.0542-0.0957 0.019z"/>
   <path d="m14.355 30.248-0.0957-0.019-0.0811-0.0542-0.0542-0.0811-0.019-0.0957v-0.6l0.019-0.0956 0.0542-0.0811 0.0811-0.0542 0.0957-0.0191h0.6l0.0957 0.0191 0.0811 0.0542 0.0542 0.0811 0.019 0.0956v0.6l-0.019 0.0957-0.0542 0.0811-0.0811 0.0542-0.0957 0.019z"/>
   <path d="m52.455 52.098-0.0957-0.0191-0.0811-0.0542-0.0542-0.0811-0.019-0.0956v-0.6001l0.019-0.0956 0.0542-0.0811 0.0811-0.0542 0.0957-0.0191h0.6l0.0957 0.0191 0.0811 0.0542 0.0542 0.0811 0.019 0.0956v0.6001l-0.019 0.0956-0.0542 0.0811-0.0811 0.0542-0.0957 0.0191z"/>
   <path d="m52.455 49.298-0.0957-0.019-0.0811-0.0542-0.0542-0.0811-0.019-0.0957v-0.6l0.019-0.0956 0.0542-0.0811 0.0811-0.0542 0.0957-0.0191h0.6l0.0957 0.0191 0.0811 0.0542 0.0542 0.0811 0.019 0.0956v0.6l-0.019 0.0957-0.0542 0.0811-0.0811 0.0542-0.0957 0.019z"/>
   <path d="m14.355 52.098-0.0957-0.0191-0.0811-0.0542-0.0542-0.0811-0.019-0.0956v-0.6001l0.019-0.0956 0.0542-0.0811 0.0811-0.0542 0.0957-0.0191h0.6l0.0957 0.0191 0.0811 0.0542 0.0542 0.0811 0.019 0.0956v0.6001l-0.019 0.0956-0.0542 0.0811-0.0811 0.0542-0.0957 0.0191z"/>
   <path d="m14.355 49.298-0.0957-0.019-0.0811-0.0542-0.0542-0.0811-0.019-0.0957v-0.6l0.019-0.0956 0.0542-0.0811 0.0811-0.0542 0.0957-0.0191h0.6l0.0957 0.0191 0.0811 0.0542 0.0542 0.0811 0.019 0.0956v0.6l-0.019 0.0957-0.0542 0.0811-0.0811 0.0542-0.0957 0.019z"/>
   <path d="m14.355 71.148-0.0957-0.019-0.0811-0.0542-0.0542-0.0811-0.019-0.0957v-0.6l0.019-0.0956 0.0542-0.0811 0.0811-0.0542 0.0957-0.0191h0.6l0.0957 0.0191 0.0811 0.0542 0.0542 0.0811 0.019 0.0956v0.6l-0.019 0.0957-0.0542 0.0811-0.0811 0.0542-0.0957 0.019z"/>
   <path d="m14.355 68.348-0.0957-0.019-0.0811-0.0542-0.0542-0.0811-0.019-0.0957v-0.6l0.019-0.0956 0.0542-0.0811 0.0811-0.0542 0.0957-0.0191h0.6l0.0957 0.0191 0.0811 0.0542 0.0542 0.0811 0.019 0.0956v0.6l-0.019 0.0957-0.0542 0.0811-0.0811 0.0542-0.0957 0.019z"/>
   <path d="m14.355 90.198-0.0957-0.0191-0.0811-0.0542-0.0542-0.0811-0.019-0.0956v-0.6001l0.019-0.0956 0.0542-0.0811 0.0811-0.0542 0.0957-0.0191h0.6l0.0957 0.0191 0.0811 0.0542 0.0542 0.0811 0.019 0.0956v0.6001l-0.019 0.0956-0.0542 0.0811-0.0811 0.0542-0.0957 0.0191z"/>
   <path d="m14.355 87.398-0.0957-0.019-0.0811-0.0542-0.0542-0.0811-0.019-0.0957v-0.6l0.019-0.0956 0.0542-0.0811 0.0811-0.0542 0.0957-0.0191h0.6l0.0957 0.0191 0.0811 0.0542 0.0542 0.0811 0.019 0.0956v0.6l-0.019 0.0957-0.0542 0.0811-0.0811 0.0542-0.0957 0.019z"/>
   <path d="m33.405 71.148-0.0957-0.019-0.0811-0.0542-0.0542-0.0811-0.019-0.0957v-0.6l0.019-0.0956 0.0542-0.0811 0.0811-0.0542 0.0957-0.0191h0.6l0.0957 0.0191 0.0811 0.0542 0.0542 0.0811 0.019 0.0956v0.6l-0.019 0.0957-0.0542 0.0811-0.0811 0.0542-0.0957 0.019z"/>
   <path d="m33.405 68.348-0.0957-0.019-0.0811-0.0542-0.0542-0.0811-0.019-0.0957v-0.6l0.019-0.0956 0.0542-0.0811 0.0811-0.0542 0.0957-0.0191h0.6l0.0957 0.0191 0.0811 0.0542 0.0542 0.0811 0.019 0.0956v0.6l-0.019 0.0957-0.0542 0.0811-0.0811 0.0542-0.0957 0.019z"/>
   <path d="m44.955 11.498-0.0957-0.019-0.0811-0.0542-0.0542-0.0811-0.019-0.0957v-0.6l0.019-0.0956 0.0542-0.0811 0.0811-0.0542 0.0957-0.0191h0.6l0.0957 0.0191 0.0811 0.0542 0.0542 0.0811 0.019 0.0956v0.6l-0.019 0.0957-0.0542 0.0811-0.0811 0.0542-0.0957 0.019z"/>
   <path d="m44.955 8.6982-0.0957-0.019-0.0811-0.0542-0.0542-0.0811-0.019-0.0957v-0.6l0.019-0.0956 0.0542-0.0811 0.0811-0.0542 0.0957-0.0191h0.6l0.0957 0.0191 0.0811 0.0542 0.0542 0.0811 0.019 0.0956v0.6l-0.019 0.0957-0.0542 0.0811-0.0811 0.0542-0.0957 0.019z"/>
  </g>
 </g>
 <g fill="none" stroke-linecap="round" stroke-linejoin="round">
  <g stroke="#50FA7B" stroke-width=".2">
   <path d="m54.675 5.5482h-6.82"/>
   <path d="m47.855 5.5482-2.6 2.6"/>
   <path d="m50.215 65.258 2.54 2.5399"/>
   <path d="m50.215 60.118v5.1401"/>
   <path d="m12.115 79.168v5.14"/>
   <path d="m12.115 84.308 2.54 2.5399"/>
   <path d="m31.165 79.168v5.14"/>
   <path d="m31.165 84.308 2.54 2.5399"/>
   <path d="m50.215 84.308 2.54 2.5399"/>
   <path d="m50.215 79.168v5.14"/>
   <path d="m12.115 22.018v5.14"/>
   <path d="m12.115 27.158 2.54 2.54"/>
   <path d="m31.165 27.158 2.54 2.54"/>
   <path d="m31.165 22.018v5.14"/>
   <path d="m50.215 22.018v5.14"/>
   <path d="m50.215 27.158 2.54 2.54"/>
   <path d="m12.115 41.068v5.14"/>
   <path d="m12.115 46.208 2.54 2.54"/>
   <path d="m31.165 46.208 2.54 2.54"/>
   <path d="m31.165 41.068v5.14"/>
   <path d="m50.215 46.208 2.54 2.54"/>
   <path d="m50.215 41.068v5.14"/>
   <path d="m12.115 60.118v5.1401"/>
   <path d="m12.115 65.258 2.54 2.5399"/>
   <path d="m31.165 65.258 2.54 2.5399"/>
   <path d="m31.165 60.118v5.1401"/>
   <path d="m14.655 32.498h19.05"/>
   <path d="m33.705 32.498h19.05"/>
   <path d="m14.655 51.548h19.05"/>
   <path d="m33.705 51.548h19.05"/>
   <path d="m33.705 70.598h19.05"/>
   <path d="m14.655 70.598h19.05"/>
   <path d="m14.655 89.648h19.05"/>
   <path d="m33.705 89.648h19.05"/>
  </g>
  <g stroke="#8BE9FD" stroke-width=".15">
   <text x="28.6250" y="19.5983" font-size="1.3333" opacity="0" stroke-opacity="0" text-anchor="middle" lengthAdjust="spacingAndGlyphs" textLength="3.2976">SW3</text>
   <g class="stroked-text">
    <desc>SW3</desc>
    <path d="m27.292 19.505 0.1428 0.0477"/>
    <path d="m27.434 19.553h0.2381"/>
    <path d="m27.673 19.553 0.0953-0.0477"/>
    <path d="m27.768 19.505 0.0476-0.0476"/>
    <path d="m27.816 19.458 0.0476-0.0952"/>
    <path d="m27.863 19.363v-0.0952"/>
    <path d="m27.863 19.267-0.0476-0.0953"/>
    <path d="m27.816 19.172-0.0476-0.0476"/>
    <path d="m27.768 19.124-0.0953-0.0476"/>
    <path d="m27.673 19.077-0.1905-0.0476"/>
    <path d="m27.482 19.029-0.0952-0.0477"/>
    <path d="m27.387 18.982-0.0476-0.0476"/>
    <path d="m27.339 18.934-0.0476-0.0952"/>
    <path d="m27.292 18.839v-0.0953"/>
    <path d="m27.292 18.744 0.0476-0.0952"/>
    <path d="m27.339 18.648 0.0476-0.0476"/>
    <path d="m27.387 18.601 0.0952-0.0476"/>
    <path d="m27.482 18.553h0.2381"/>
    <path d="m27.72 18.553 0.1429 0.0476"/>
    <path d="m28.196 18.553 0.2381 1"/>
    <path d="m28.434 19.553 0.1905-0.7143"/>
    <path d="m28.625 18.839 0.1905 0.7143"/>
    <path d="m28.816 19.553 0.2381-1"/>
    <path d="m29.339 18.553h0.619"/>
    <path d="m29.958 18.553-0.3333 0.3809"/>
    <path d="m29.625 18.934h0.1429"/>
    <path d="m29.768 18.934 0.0952 0.0476"/>
    <path d="m29.863 18.982 0.0476 0.0477"/>
    <path d="m29.911 19.029 0.0476 0.0952"/>
    <path d="m29.958 19.124v0.2381"/>
    <path d="m29.958 19.363-0.0476 0.0952"/>
    <path d="m29.911 19.458-0.0476 0.0476"/>
    <path d="m29.863 19.505-0.0952 0.0477"/>
    <path d="m29.768 19.553h-0.2858"/>
    <path d="m29.482 19.553-0.0952-0.0477"/>
    <path d="m29.387 19.505-0.0476-0.0476"/>
   </g>
   <text x="47.6750" y="19.5983" font-size="1.3333" opacity="0" stroke-opacity="0" text-anchor="middle" lengthAdjust="spacingAndGlyphs" textLength="3.2976">SW4</text>
   <g class="stroked-text">
    <desc>SW4</desc>
    <path d="m46.342 19.505 0.1428 0.0477"/>
    <path d="m46.484 19.553h0.2381"/>
    <path d="m46.723 19.553 0.0953-0.0477"/>
    <path d="m46.818 19.505 0.0476-0.0476"/>
    <path d="m46.866 19.458 0.0476-0.0952"/>
    <path d="m46.913 19.363v-0.0952"/>
    <path d="m46.913 19.267-0.0476-0.0953"/>
    <path d="m46.866 19.172-0.0476-0.0476"/>
    <path d="m46.818 19.124-0.0953-0.0476"/>
    <path d="m46.723 19.077-0.1905-0.0476"/>
    <path d="m46.532 19.029-0.0952-0.0477"/>
    <path d="m46.437 18.982-0.0476-0.0476"/>
    <path d="m46.389 18.934-0.0476-0.0952"/>
    <path d="m46.342 18.839v-0.0953"/>
    <path d="m46.342 18.744 0.0476-0.0952"/>
    <path d="m46.389 18.648 0.0476-0.0476"/>
    <path d="m46.437 18.601 0.0952-0.0476"/>
    <path d="m46.532 18.553h0.2381"/>
    <path d="m46.77 18.553 0.1429 0.0476"/>
    <path d="m47.246 18.553 0.2381 1"/>
    <path d="m47.484 19.553 0.1905-0.7143"/>
    <path d="m47.675 18.839 0.1905 0.7143"/>
    <path d="m47.866 19.553 0.2381-1"/>
    <path d="m48.913 18.886v0.6667"/>
    <path d="m48.675 18.505-0.2381 0.7143"/>
    <path d="m48.437 19.22h0.6191"/>
   </g>
   <text x="28.6250" y="38.6482" font-size="1.3333" opacity="0" stroke-opacity="0" text-anchor="middle" lengthAdjust="spacingAndGlyphs" textLength="3.2976">SW6</text>
   <g class="stroked-text">
    <desc>SW6</desc>
    <path d="m27.292 38.556 0.1428 0.0476"/>
    <path d="m27.434 38.603h0.2381"/>
    <path d="m27.673 38.603 0.0953-0.0476"/>
    <path d="m27.768 38.556 0.0476-0.0477"/>
    <path d="m27.816 38.508 0.0476-0.0952"/>
    <path d="m27.863 38.413v-0.0952"/>
    <path d="m27.863 38.317-0.0476-0.0953"/>
    <path d="m27.816 38.222-0.0476-0.0476"/>
    <path d="m27.768 38.174-0.0953-0.0476"/>
    <path d="m27.673 38.127-0.1905-0.0476"/>
    <path d="m27.482 38.079-0.0952-0.0477"/>
    <path d="m27.387 38.032-0.0476-0.0476"/>
    <path d="m27.339 37.984-0.0476-0.0952"/>
    <path d="m27.292 37.889v-0.0953"/>
    <path d="m27.292 37.794 0.0476-0.0952"/>
    <path d="m27.339 37.698 0.0476-0.0476"/>
    <path d="m27.387 37.651 0.0952-0.0476"/>
    <path d="m27.482 37.603h0.2381"/>
    <path d="m27.72 37.603 0.1429 0.0476"/>
    <path d="m28.196 37.603 0.2381 1"/>
    <path d="m28.434 38.603 0.1905-0.7143"/>
    <path d="m28.625 37.889 0.1905 0.7143"/>
    <path d="m28.816 38.603 0.2381-1"/>
    <path d="m29.863 37.603h-0.1905"/>
    <path d="m29.673 37.603-0.0952 0.0476"/>
    <path d="m29.577 37.651-0.0476 0.0476"/>
    <path d="m29.53 37.698-0.0953 0.1429"/>
    <path d="m29.434 37.841-0.0476 0.1904"/>
    <path d="m29.387 38.032v0.381"/>
    <path d="m29.387 38.413 0.0476 0.0952"/>
    <path d="m29.434 38.508 0.0476 0.0477"/>
    <path d="m29.482 38.556 0.0953 0.0476"/>
    <path d="m29.577 38.603h0.1905"/>
    <path d="m29.768 38.603 0.0952-0.0476"/>
    <path d="m29.863 38.556 0.0476-0.0477"/>
    <path d="m29.911 38.508 0.0476-0.0952"/>
    <path d="m29.958 38.413v-0.2381"/>
    <path d="m29.958 38.174-0.0476-0.0952"/>
    <path d="m29.911 38.079-0.0476-0.0477"/>
    <path d="m29.863 38.032-0.0952-0.0476"/>
    <path d="m29.768 37.984h-0.1905"/>
    <path d="m29.577 37.984-0.0953 0.0476"/>
    <path d="m29.482 38.032-0.0476 0.0477"/>
    <path d="m29.434 38.079-0.0476 0.0952"/>
   </g>
   <text x="28.6250" y="76.7482" font-size="1.3333" opacity="0" stroke-opacity="0" text-anchor="middle" lengthAdjust="spacingAndGlyphs" textLength="4.2500">SW12</text>
   <g class="stroked-text">
    <desc>SW12</desc>
    <path d="m26.816 76.656 0.1428 0.0476"/>
    <path d="m26.958 76.703h0.2381"/>
    <path d="m27.196 76.703 0.0953-0.0476"/>
    <path d="m27.292 76.656 0.0476-0.0477"/>
    <path d="m27.339 76.608 0.0476-0.0952"/>
    <path d="m27.387 76.513v-0.0952"/>
    <path d="m27.387 76.417-0.0476-0.0953"/>
    <path d="m27.339 76.322-0.0476-0.0476"/>
    <path d="m27.292 76.274-0.0953-0.0476"/>
    <path d="m27.196 76.227-0.1904-0.0476"/>
    <path d="m27.006 76.179-0.0953-0.0477"/>
    <path d="m26.911 76.132-0.0476-0.0476"/>
    <path d="m26.863 76.084-0.0476-0.0952"/>
    <path d="m26.816 75.989v-0.0953"/>
    <path d="m26.816 75.894 0.0476-0.0952"/>
    <path d="m26.863 75.798 0.0476-0.0476"/>
    <path d="m26.911 75.751 0.0953-0.0476"/>
    <path d="m27.006 75.703h0.238"/>
    <path d="m27.244 75.703 0.1429 0.0476"/>
    <path d="m27.72 75.703 0.2381 1"/>
    <path d="m27.958 76.703 0.1905-0.7143"/>
    <path d="m28.149 75.989 0.1905 0.7143"/>
    <path d="m28.339 76.703 0.2381-1"/>
    <path d="m29.482 76.703h-0.5714"/>
    <path d="m29.196 76.703v-1"/>
    <path d="m29.196 75.703-0.0952 0.1428"/>
    <path d="m29.101 75.846-0.0952 0.0953"/>
    <path d="m29.006 75.941-0.0953 0.0476"/>
    <path d="m29.863 75.798 0.0476-0.0476"/>
    <path d="m29.911 75.751 0.0953-0.0476"/>
    <path d="m30.006 75.703h0.238"/>
    <path d="m30.244 75.703 0.0953 0.0476"/>
    <path d="m30.339 75.751 0.0476 0.0476"/>
    <path d="m30.387 75.798 0.0476 0.0952"/>
    <path d="m30.434 75.894v0.0953"/>
    <path d="m30.434 75.989-0.0476 0.1428"/>
    <path d="m30.387 76.132-0.5714 0.5715"/>
    <path d="m29.816 76.703h0.619"/>
   </g>
   <text x="42.9750" y="1.3482" font-size="1.3333" opacity="0" stroke-opacity="0" text-anchor="middle" lengthAdjust="spacingAndGlyphs" textLength="3.2976">SW1</text>
   <g class="stroked-text">
    <desc>SW1</desc>
    <path d="m41.642 1.2554 0.1428 0.0477"/>
    <path d="m41.784 1.3031h0.2381"/>
    <path d="m42.023 1.3031 0.0953-0.0477"/>
    <path d="m42.118 1.2554 0.0476-0.0476"/>
    <path d="m42.166 1.2078 0.0476-0.0952"/>
    <path d="m42.213 1.1126v-0.0952"/>
    <path d="m42.213 1.0174-0.0476-0.0953"/>
    <path d="m42.166 0.9221-0.0476-0.0476"/>
    <path d="m42.118 0.8745-0.0953-0.0476"/>
    <path d="m42.023 0.8269-0.1905-0.0476"/>
    <path d="m41.832 0.7793-0.0952-0.0477"/>
    <path d="m41.737 0.7316-0.0476-0.0476"/>
    <path d="m41.689 0.684-0.0476-0.0952"/>
    <path d="m41.642 0.5888v-0.0953"/>
    <path d="m41.642 0.4935 0.0476-0.0952"/>
    <path d="m41.689 0.3983 0.0476-0.0476"/>
    <path d="m41.737 0.3507 0.0952-0.0476"/>
    <path d="m41.832 0.3031h0.2381"/>
    <path d="m42.07 0.3031 0.1429 0.0476"/>
    <path d="m42.546 0.3031 0.2381 1"/>
    <path d="m42.784 1.3031 0.1905-0.7143"/>
    <path d="m42.975 0.5888 0.1905 0.7143"/>
    <path d="m43.166 1.3031 0.2381-1"/>
    <path d="m44.308 1.3031h-0.5714"/>
    <path d="m44.023 1.3031v-1"/>
    <path d="m44.023 0.3031-0.0952 0.1428"/>
    <path d="m43.927 0.4459-0.0953 0.0953"/>
    <path d="m43.832 0.5412-0.0952 0.0476"/>
   </g>
   <text x="9.5750" y="19.5983" font-size="1.3333" opacity="0" stroke-opacity="0" text-anchor="middle" lengthAdjust="spacingAndGlyphs" textLength="3.2976">SW2</text>
   <g class="stroked-text">
    <desc>SW2</desc>
    <path d="m8.2417 19.505 0.1428 0.0477"/>
    <path d="m8.3845 19.553h0.2381"/>
    <path d="m8.6226 19.553 0.0953-0.0477"/>
    <path d="m8.7179 19.505 0.0476-0.0476"/>
    <path d="m8.7655 19.458 0.0476-0.0952"/>
    <path d="m8.8131 19.363v-0.0952"/>
    <path d="m8.8131 19.267-0.0476-0.0953"/>
    <path d="m8.7655 19.172-0.0476-0.0476"/>
    <path d="m8.7179 19.124-0.0953-0.0476"/>
    <path d="m8.6226 19.077-0.1905-0.0476"/>
    <path d="m8.4321 19.029-0.0952-0.0477"/>
    <path d="m8.3369 18.982-0.0476-0.0476"/>
    <path d="m8.2893 18.934-0.0476-0.0952"/>
    <path d="m8.2417 18.839v-0.0953"/>
    <path d="m8.2417 18.744 0.0476-0.0952"/>
    <path d="m8.2893 18.648 0.0476-0.0476"/>
    <path d="m8.3369 18.601 0.0952-0.0476"/>
    <path d="m8.4321 18.553h0.2381"/>
    <path d="m8.6702 18.553 0.1429 0.0476"/>
    <path d="m9.1464 18.553 0.2381 1"/>
    <path d="m9.3845 19.553 0.1905-0.7143"/>
    <path d="m9.575 18.839 0.1905 0.7143"/>
    <path d="m9.7655 19.553 0.2381-1"/>
    <path d="m10.337 18.648 0.0476-0.0476"/>
    <path d="m10.384 18.601 0.0953-0.0476"/>
    <path d="m10.48 18.553h0.2381"/>
    <path d="m10.718 18.553 0.0952 0.0476"/>
    <path d="m10.813 18.601 0.0476 0.0476"/>
    <path d="m10.861 18.648 0.0476 0.0952"/>
    <path d="m10.908 18.744v0.0953"/>
    <path d="m10.908 18.839-0.0476 0.1428"/>
    <path d="m10.861 18.982-0.5714 0.5715"/>
    <path d="m10.289 19.553h0.619"/>
   </g>
   <text x="47.6750" y="38.6482" font-size="1.3333" opacity="0" stroke-opacity="0" text-anchor="middle" lengthAdjust="spacingAndGlyphs" textLength="3.2976">SW7</text>
   <g class="stroked-text">
    <desc>SW7</desc>
    <path d="m46.342 38.556 0.1428 0.0476"/>
    <path d="m46.484 38.603h0.2381"/>
    <path d="m46.723 38.603 0.0953-0.0476"/>
    <path d="m46.818 38.556 0.0476-0.0477"/>
    <path d="m46.866 38.508 0.0476-0.0952"/>
    <path d="m46.913 38.413v-0.0952"/>
    <path d="m46.913 38.317-0.0476-0.0953"/>
    <path d="m46.866 38.222-0.0476-0.0476"/>
    <path d="m46.818 38.174-0.0953-0.0476"/>
    <path d="m46.723 38.127-0.1905-0.0476"/>
    <path d="m46.532 38.079-0.0952-0.0477"/>
    <path d="m46.437 38.032-0.0476-0.0476"/>
    <path d="m46.389 37.984-0.0476-0.0952"/>
    <path d="m46.342 37.889v-0.0953"/>
    <path d="m46.342 37.794 0.0476-0.0952"/>
    <path d="m46.389 37.698 0.0476-0.0476"/>
    <path d="m46.437 37.651 0.0952-0.0476"/>
    <path d="m46.532 37.603h0.2381"/>
    <path d="m46.77 37.603 0.1429 0.0476"/>
    <path d="m47.246 37.603 0.2381 1"/>
    <path d="m47.484 38.603 0.1905-0.7143"/>
    <path d="m47.675 37.889 0.1905 0.7143"/>
    <path d="m47.866 38.603 0.2381-1"/>
    <path d="m48.389 37.603h0.6667"/>
    <path d="m49.056 37.603-0.4286 1"/>
   </g>
   <text x="9.5750" y="76.7482" font-size="1.3333" opacity="0" stroke-opacity="0" text-anchor="middle" lengthAdjust="spacingAndGlyphs" textLength="4.2500">SW11</text>
   <g class="stroked-text">
    <desc>SW11</desc>
    <path d="m7.7655 76.656 0.1428 0.0476"/>
    <path d="m7.9083 76.703h0.2381"/>
    <path d="m8.1464 76.703 0.0953-0.0476"/>
    <path d="m8.2417 76.656 0.0476-0.0477"/>
    <path d="m8.2893 76.608 0.0476-0.0952"/>
    <path d="m8.3369 76.513v-0.0952"/>
    <path d="m8.3369 76.417-0.0476-0.0953"/>
    <path d="m8.2893 76.322-0.0476-0.0476"/>
    <path d="m8.2417 76.274-0.0953-0.0476"/>
    <path d="m8.1464 76.227-0.1904-0.0476"/>
    <path d="m7.956 76.179-0.0953-0.0477"/>
    <path d="m7.8607 76.132-0.0476-0.0476"/>
    <path d="m7.8131 76.084-0.0476-0.0952"/>
    <path d="m7.7655 75.989v-0.0953"/>
    <path d="m7.7655 75.894 0.0476-0.0952"/>
    <path d="m7.8131 75.798 0.0476-0.0476"/>
    <path d="m7.8607 75.751 0.0953-0.0476"/>
    <path d="m7.956 75.703h0.238"/>
    <path d="m8.194 75.703 0.1429 0.0476"/>
    <path d="m8.6702 75.703 0.2381 1"/>
    <path d="m8.9083 76.703 0.1905-0.7143"/>
    <path d="m9.0988 75.989 0.1905 0.7143"/>
    <path d="m9.2893 76.703 0.2381-1"/>
    <path d="m10.432 76.703h-0.5714"/>
    <path d="m10.146 76.703v-1"/>
    <path d="m10.146 75.703-0.0952 0.1428"/>
    <path d="m10.051 75.846-0.0952 0.0953"/>
    <path d="m9.956 75.941-0.0953 0.0476"/>
    <path d="m11.384 76.703h-0.5714"/>
    <path d="m11.099 76.703v-1"/>
    <path d="m11.099 75.703-0.0952 0.1428"/>
    <path d="m11.004 75.846-0.0953 0.0953"/>
    <path d="m10.908 75.941-0.0952 0.0476"/>
   </g>
   <text x="9.5750" y="38.6482" font-size="1.3333" opacity="0" stroke-opacity="0" text-anchor="middle" lengthAdjust="spacingAndGlyphs" textLength="3.2976">SW5</text>
   <g class="stroked-text">
    <desc>SW5</desc>
    <path d="m8.2417 38.556 0.1428 0.0476"/>
    <path d="m8.3845 38.603h0.2381"/>
    <path d="m8.6226 38.603 0.0953-0.0476"/>
    <path d="m8.7179 38.556 0.0476-0.0477"/>
    <path d="m8.7655 38.508 0.0476-0.0952"/>
    <path d="m8.8131 38.413v-0.0952"/>
    <path d="m8.8131 38.317-0.0476-0.0953"/>
    <path d="m8.7655 38.222-0.0476-0.0476"/>
    <path d="m8.7179 38.174-0.0953-0.0476"/>
    <path d="m8.6226 38.127-0.1905-0.0476"/>
    <path d="m8.4321 38.079-0.0952-0.0477"/>
    <path d="m8.3369 38.032-0.0476-0.0476"/>
    <path d="m8.2893 37.984-0.0476-0.0952"/>
    <path d="m8.2417 37.889v-0.0953"/>
    <path d="m8.2417 37.794 0.0476-0.0952"/>
    <path d="m8.2893 37.698 0.0476-0.0476"/>
    <path d="m8.3369 37.651 0.0952-0.0476"/>
    <path d="m8.4321 37.603h0.2381"/>
    <path d="m8.6702 37.603 0.1429 0.0476"/>
    <path d="m9.1464 37.603 0.2381 1"/>
    <path d="m9.3845 38.603 0.1905-0.7143"/>
    <path d="m9.575 37.889 0.1905 0.7143"/>
    <path d="m9.7655 38.603 0.2381-1"/>
    <path d="m10.861 37.603h-0.4762"/>
    <path d="m10.384 37.603-0.0476 0.4762"/>
    <path d="m10.337 38.079 0.0476-0.0477"/>
    <path d="m10.384 38.032 0.0953-0.0476"/>
    <path d="m10.48 37.984h0.2381"/>
    <path d="m10.718 37.984 0.0952 0.0476"/>
    <path d="m10.813 38.032 0.0476 0.0477"/>
    <path d="m10.861 38.079 0.0476 0.0952"/>
    <path d="m10.908 38.174v0.2381"/>
    <path d="m10.908 38.413-0.0476 0.0952"/>
    <path d="m10.861 38.508-0.0476 0.0477"/>
    <path d="m10.813 38.556-0.0952 0.0476"/>
    <path d="m10.718 38.603h-0.2381"/>
    <path d="m10.48 38.603-0.0953-0.0476"/>
    <path d="m10.384 38.556-0.0476-0.0477"/>
   </g>
   <text x="9.5750" y="57.6982" font-size="1.3333" opacity="0" stroke-opacity="0" text-anchor="middle" lengthAdjust="spacingAndGlyphs" textLength="3.2976">SW8</text>
   <g class="stroked-text">
    <desc>SW8</desc>
    <path d="m8.2417 57.605 0.1428 0.0477"/>
    <path d="m8.3845 57.653h0.2381"/>
    <path d="m8.6226 57.653 0.0953-0.0477"/>
    <path d="m8.7179 57.605 0.0476-0.0476"/>
    <path d="m8.7655 57.558 0.0476-0.0952"/>
    <path d="m8.8131 57.463v-0.0952"/>
    <path d="m8.8131 57.367-0.0476-0.0953"/>
    <path d="m8.7655 57.272-0.0476-0.0476"/>
    <path d="m8.7179 57.224-0.0953-0.0476"/>
    <path d="m8.6226 57.177-0.1905-0.0476"/>
    <path d="m8.4321 57.129-0.0952-0.0477"/>
    <path d="m8.3369 57.082-0.0476-0.0476"/>
    <path d="m8.2893 57.034-0.0476-0.0952"/>
    <path d="m8.2417 56.939v-0.0953"/>
    <path d="m8.2417 56.844 0.0476-0.0952"/>
    <path d="m8.2893 56.748 0.0476-0.0476"/>
    <path d="m8.3369 56.701 0.0952-0.0476"/>
    <path d="m8.4321 56.653h0.2381"/>
    <path d="m8.6702 56.653 0.1429 0.0476"/>
    <path d="m9.1464 56.653 0.2381 1"/>
    <path d="m9.3845 57.653 0.1905-0.7143"/>
    <path d="m9.575 56.939 0.1905 0.7143"/>
    <path d="m9.7655 57.653 0.2381-1"/>
    <path d="m10.527 57.082-0.0953-0.0476"/>
    <path d="m10.432 57.034-0.0476-0.0476"/>
    <path d="m10.384 56.986-0.0476-0.0952"/>
    <path d="m10.337 56.891v-0.0477"/>
    <path d="m10.337 56.844 0.0476-0.0952"/>
    <path d="m10.384 56.748 0.0476-0.0476"/>
    <path d="m10.432 56.701 0.0953-0.0476"/>
    <path d="m10.527 56.653h0.1905"/>
    <path d="m10.718 56.653 0.0952 0.0476"/>
    <path d="m10.813 56.701 0.0476 0.0476"/>
    <path d="m10.861 56.748 0.0476 0.0952"/>
    <path d="m10.908 56.844v0.0477"/>
    <path d="m10.908 56.891-0.0476 0.0952"/>
    <path d="m10.861 56.986-0.0476 0.0476"/>
    <path d="m10.813 57.034-0.0952 0.0476"/>
    <path d="m10.718 57.082h-0.1905"/>
    <path d="m10.527 57.082-0.0953 0.0477"/>
    <path d="m10.432 57.129-0.0476 0.0476"/>
    <path d="m10.384 57.177-0.0476 0.0952"/>
    <path d="m10.337 57.272v0.1905"/>
    <path d="m10.337 57.463 0.0476 0.0952"/>
    <path d="m10.384 57.558 0.0476 0.0476"/>
    <path d="m10.432 57.605 0.0953 0.0477"/>
    <path d="m10.527 57.653h0.1905"/>
    <path d="m10.718 57.653 0.0952-0.0477"/>
    <path d="m10.813 57.605 0.0476-0.0476"/>
    <path d="m10.861 57.558 0.0476-0.0952"/>
    <path d="m10.908 57.463v-0.1905"/>
    <path d="m10.908 57.272-0.0476-0.0952"/>
    <path d="m10.861 57.177-0.0476-0.0476"/>
    <path d="m10.813 57.129-0.0952-0.0477"/>
   </g>
   <text x="47.6750" y="57.6982" font-size="1.3333" opacity="0" stroke-opacity="0" text-anchor="middle" lengthAdjust="spacingAndGlyphs" textLength="4.2500">SW10</text>
   <g class="stroked-text">
    <desc>SW10</desc>
    <path d="m45.866 57.605 0.1428 0.0477"/>
    <path d="m46.008 57.653h0.2381"/>
    <path d="m46.246 57.653 0.0953-0.0477"/>
    <path d="m46.342 57.605 0.0476-0.0476"/>
    <path d="m46.389 57.558 0.0476-0.0952"/>
    <path d="m46.437 57.463v-0.0952"/>
    <path d="m46.437 57.367-0.0476-0.0953"/>
    <path d="m46.389 57.272-0.0476-0.0476"/>
    <path d="m46.342 57.224-0.0953-0.0476"/>
    <path d="m46.246 57.177-0.1904-0.0476"/>
    <path d="m46.056 57.129-0.0953-0.0477"/>
    <path d="m45.961 57.082-0.0476-0.0476"/>
    <path d="m45.913 57.034-0.0476-0.0952"/>
    <path d="m45.866 56.939v-0.0953"/>
    <path d="m45.866 56.844 0.0476-0.0952"/>
    <path d="m45.913 56.748 0.0476-0.0476"/>
    <path d="m45.961 56.701 0.0953-0.0476"/>
    <path d="m46.056 56.653h0.238"/>
    <path d="m46.294 56.653 0.1429 0.0476"/>
    <path d="m46.77 56.653 0.2381 1"/>
    <path d="m47.008 57.653 0.1905-0.7143"/>
    <path d="m47.199 56.939 0.1905 0.7143"/>
    <path d="m47.389 57.653 0.2381-1"/>
    <path d="m48.532 57.653h-0.5714"/>
    <path d="m48.246 57.653v-1"/>
    <path d="m48.246 56.653-0.0952 0.1428"/>
    <path d="m48.151 56.796-0.0952 0.0953"/>
    <path d="m48.056 56.891-0.0953 0.0476"/>
    <path d="m49.151 56.653h0.0952"/>
    <path d="m49.246 56.653 0.0953 0.0476"/>
    <path d="m49.342 56.701 0.0476 0.0476"/>
    <path d="m49.389 56.748 0.0476 0.0952"/>
    <path d="m49.437 56.844 0.0476 0.1905"/>
    <path d="m49.484 57.034v0.2381"/>
    <path d="m49.484 57.272-0.0476 0.1905"/>
    <path d="m49.437 57.463-0.0476 0.0952"/>
    <path d="m49.389 57.558-0.0476 0.0476"/>
    <path d="m49.342 57.605-0.0953 0.0477"/>
    <path d="m49.246 57.653h-0.0952"/>
    <path d="m49.151 57.653-0.0952-0.0477"/>
    <path d="m49.056 57.605-0.0477-0.0476"/>
    <path d="m49.008 57.558-0.0476-0.0952"/>
    <path d="m48.961 57.463-0.0476-0.1905"/>
    <path d="m48.913 57.272v-0.2381"/>
    <path d="m48.913 57.034 0.0476-0.1905"/>
    <path d="m48.961 56.844 0.0476-0.0952"/>
    <path d="m49.008 56.748 0.0477-0.0476"/>
    <path d="m49.056 56.701 0.0952-0.0476"/>
   </g>
   <text x="47.6750" y="76.7482" font-size="1.3333" opacity="0" stroke-opacity="0" text-anchor="middle" lengthAdjust="spacingAndGlyphs" textLength="4.2500">SW13</text>
   <g class="stroked-text">
    <desc>SW13</desc>
    <path d="m45.866 76.656 0.1428 0.0476"/>
    <path d="m46.008 76.703h0.2381"/>
    <path d="m46.246 76.703 0.0953-0.0476"/>
    <path d="m46.342 76.656 0.0476-0.0477"/>
    <path d="m46.389 76.608 0.0476-0.0952"/>
    <path d="m46.437 76.513v-0.0952"/>
    <path d="m46.437 76.417-0.0476-0.0953"/>
    <path d="m46.389 76.322-0.0476-0.0476"/>
    <path d="m46.342 76.274-0.0953-0.0476"/>
    <path d="m46.246 76.227-0.1904-0.0476"/>
    <path d="m46.056 76.179-0.0953-0.0477"/>
    <path d="m45.961 76.132-0.0476-0.0476"/>
    <path d="m45.913 76.084-0.0476-0.0952"/>
    <path d="m45.866 75.989v-0.0953"/>
    <path d="m45.866 75.894 0.0476-0.0952"/>
    <path d="m45.913 75.798 0.0476-0.0476"/>
    <path d="m45.961 75.751 0.0953-0.0476"/>
    <path d="m46.056 75.703h0.238"/>
    <path d="m46.294 75.703 0.1429 0.0476"/>
    <path d="m46.77 75.703 0.2381 1"/>
    <path d="m47.008 76.703 0.1905-0.7143"/>
    <path d="m47.199 75.989 0.1905 0.7143"/>
    <path d="m47.389 76.703 0.2381-1"/>
    <path d="m48.532 76.703h-0.5714"/>
    <path d="m48.246 76.703v-1"/>
    <path d="m48.246 75.703-0.0952 0.1428"/>
    <path d="m48.151 75.846-0.0952 0.0953"/>
    <path d="m48.056 75.941-0.0953 0.0476"/>
    <path d="m48.866 75.703h0.619"/>
    <path d="m49.484 75.703-0.3333 0.3809"/>
    <path d="m49.151 76.084h0.1428"/>
    <path d="m49.294 76.084 0.0953 0.0476"/>
    <path d="m49.389 76.132 0.0476 0.0477"/>
    <path d="m49.437 76.179 0.0476 0.0952"/>
    <path d="m49.484 76.274v0.2381"/>
    <path d="m49.484 76.513-0.0476 0.0952"/>
    <path d="m49.437 76.608-0.0476 0.0477"/>
    <path d="m49.389 76.656-0.0953 0.0476"/>
    <path d="m49.294 76.703h-0.2857"/>
    <path d="m49.008 76.703-0.0952-0.0476"/>
    <path d="m48.913 76.656-0.0476-0.0477"/>
   </g>
   <text x="28.6250" y="57.6982" font-size="1.3333" opacity="0" stroke-opacity="0" text-anchor="middle" lengthAdjust="spacingAndGlyphs" textLength="3.2976">SW9</text>
   <g class="stroked-text">
    <desc>SW9</desc>
    <path d="m27.292 57.605 0.1428 0.0477"/>
    <path d="m27.434 57.653h0.2381"/>
    <path d="m27.673 57.653 0.0953-0.0477"/>
    <path d="m27.768 57.605 0.0476-0.0476"/>
    <path d="m27.816 57.558 0.0476-0.0952"/>
    <path d="m27.863 57.463v-0.0952"/>
    <path d="m27.863 57.367-0.0476-0.0953"/>
    <path d="m27.816 57.272-0.0476-0.0476"/>
    <path d="m27.768 57.224-0.0953-0.0476"/>
    <path d="m27.673 57.177-0.1905-0.0476"/>
    <path d="m27.482 57.129-0.0952-0.0477"/>
    <path d="m27.387 57.082-0.0476-0.0476"/>
    <path d="m27.339 57.034-0.0476-0.0952"/>
    <path d="m27.292 56.939v-0.0953"/>
    <path d="m27.292 56.844 0.0476-0.0952"/>
    <path d="m27.339 56.748 0.0476-0.0476"/>
    <path d="m27.387 56.701 0.0952-0.0476"/>
    <path d="m27.482 56.653h0.2381"/>
    <path d="m27.72 56.653 0.1429 0.0476"/>
    <path d="m28.196 56.653 0.2381 1"/>
    <path d="m28.434 57.653 0.1905-0.7143"/>
    <path d="m28.625 56.939 0.1905 0.7143"/>
    <path d="m28.816 57.653 0.2381-1"/>
    <path d="m29.482 57.653h0.1905"/>
    <path d="m29.673 57.653 0.0953-0.0477"/>
    <path d="m29.768 57.605 0.0476-0.0476"/>
    <path d="m29.816 57.558 0.0952-0.1428"/>
    <path d="m29.911 57.415 0.0476-0.1905"/>
    <path d="m29.958 57.224v-0.381"/>
    <path d="m29.958 56.844-0.0476-0.0952"/>
    <path d="m29.911 56.748-0.0476-0.0476"/>
    <path d="m29.863 56.701-0.0952-0.0476"/>
    <path d="m29.768 56.653h-0.1905"/>
    <path d="m29.577 56.653-0.0953 0.0476"/>
    <path d="m29.482 56.701-0.0476 0.0476"/>
    <path d="m29.434 56.748-0.0476 0.0952"/>
    <path d="m29.387 56.844v0.2381"/>
    <path d="m29.387 57.082 0.0476 0.0953"/>
    <path d="m29.434 57.177 0.0476 0.0476"/>
    <path d="m29.482 57.224 0.0953 0.0476"/>
    <path d="m29.577 57.272h0.1905"/>
    <path d="m29.768 57.272 0.0952-0.0476"/>
    <path d="m29.863 57.224 0.0476-0.0476"/>
    <path d="m29.911 57.177 0.0476-0.0953"/>
   </g>
  </g>
  <g stroke="#8BE9FD" stroke-width=".12">
   <path d="m21.525 19.998v14.2"/>
   <path d="m21.525 34.198h14.2"/>
   <path d="m35.725 19.998h-14.2"/>
   <path d="m35.725 34.198v-14.2"/>
   <path d="m40.575 19.998v14.2"/>
   <path d="m40.575 34.198h14.2"/>
   <path d="m54.775 19.998h-14.2"/>
   <path d="m54.775 34.198v-14.2"/>
   <path d="m21.525 39.048v14.2"/>
   <path d="m21.525 53.248h14.2"/>
   <path d="m35.725 39.048h-14.2"/>
   <path d="m35.725 53.248v-14.2"/>
   <path d="m21.525 77.148v14.2"/>
   <path d="m21.525 91.348h14.2"/>
   <path d="m35.725 77.148h-14.2"/>
   <path d="m35.725 91.348v-14.2"/>
   <path d="m39.875 3.9482h0.6"/>
   <path d="m40.175 4.2482-0.3-0.3"/>
   <path d="m40.475 3.9482-0.3 0.3"/>
   <path d="m41.575 2.1482v11.8"/>
   <path d="m45.675 2.1482h-4.1"/>
   <path d="m45.675 13.948h-4.1"/>
   <path d="m47.175 8.0482h1"/>
   <path d="m47.675 7.5482v1"/>
   <path d="m49.675 2.1482h4.1"/>
   <path d="m53.775 2.1482v2.4"/>
   <path d="m53.775 6.7482v2.6001"/>
   <path d="m53.775 11.548v2.4"/>
   <path d="m53.775 13.948h-4.1"/>
   <circle cx="47.675" cy="8.0482" r="3"/>
   <path d="m2.475 19.998v14.2"/>
   <path d="m2.475 34.198h14.2"/>
   <path d="m16.675 19.998h-14.2"/>
   <path d="m16.675 34.198v-14.2"/>
   <path d="m40.575 39.048v14.2"/>
   <path d="m40.575 53.248h14.2"/>
   <path d="m54.775 39.048h-14.2"/>
   <path d="m54.775 53.248v-14.2"/>
   <path d="m2.475 77.148v14.2"/>
   <path d="m2.475 91.348h14.2"/>
   <path d="m16.675 77.148h-14.2"/>
   <path d="m16.675 91.348v-14.2"/>
   <path d="m2.475 39.048v14.2"/>
   <path d="m2.475 53.248h14.2"/>
   <path d="m16.675 39.048h-14.2"/>
   <path d="m16.675 53.248v-14.2"/>
   <path d="m2.475 58.098v14.2"/>
   <path d="m2.475 72.298h14.2"/>
   <path d="m16.675 58.098h-14.2"/>
   <path d="m16.675 72.298v-14.2"/>
   <path d="m40.575 58.098v14.2"/>
   <path d="m40.575 72.298h14.2"/>
   <path d="m54.775 58.098h-14.2"/>
   <path d="m54.775 72.298v-14.2"/>
   <path d="m40.575 77.148v14.2"/>
   <path d="m40.575 91.348h14.2"/>
   <path d="m54.775 77.148h-14.2"/>
   <path d="m54.775 91.348v-14.2"/>
   <path d="m21.525 58.098v14.2"/>
   <path d="m21.525 72.298h14.2"/>
   <path d="m35.725 58.098h-14.2"/>
   <path d="m35.725 72.298v-14.2"/>
  </g>
  <g stroke="#BD93F9" stroke-width=".15">
   <g transform="rotate(-90 54.66 88.375)">
    <text transform="scale(-1 1) translate(-109.32)" x="54.6600" y="88.8752" font-size="1.3333" opacity="0" stroke-opacity="0" text-anchor="middle" lengthAdjust="spacingAndGlyphs" textLength="3.1548">D13</text>
   </g>
   <g class="stroked-text">
    <desc>D13</desc>
    <path d="m55.115 87.161h-1"/>
    <path d="m54.115 87.161v0.2381"/>
    <path d="m54.115 87.399 0.0476 0.1428"/>
    <path d="m54.162 87.542 0.0953 0.0953"/>
    <path d="m54.258 87.637 0.0952 0.0476"/>
    <path d="m54.353 87.685 0.1905 0.0476"/>
    <path d="m54.543 87.732h0.1428"/>
    <path d="m54.686 87.732 0.1905-0.0476"/>
    <path d="m54.877 87.685 0.0953-0.0476"/>
    <path d="m54.972 87.637 0.0952-0.0953"/>
    <path d="m55.067 87.542 0.0476-0.1428"/>
    <path d="m55.115 87.399v-0.2381"/>
    <path d="m55.115 88.685v-0.5715"/>
    <path d="m55.115 88.399h-1"/>
    <path d="m54.115 88.399 0.1429-0.0953"/>
    <path d="m54.258 88.304 0.0952-0.0952"/>
    <path d="m54.353 88.209 0.0476-0.0953"/>
    <path d="m54.115 89.018v0.6191"/>
    <path d="m54.115 89.637 0.381-0.3334"/>
    <path d="m54.496 89.304v0.1429"/>
    <path d="m54.496 89.447 0.0476 0.0952"/>
    <path d="m54.543 89.542 0.0476 0.0476"/>
    <path d="m54.591 89.59 0.0952 0.0477"/>
    <path d="m54.686 89.637h0.2381"/>
    <path d="m54.924 89.637 0.0953-0.0477"/>
    <path d="m55.02 89.59 0.0476-0.0476"/>
    <path d="m55.067 89.542 0.0476-0.0952"/>
    <path d="m55.115 89.447v-0.2857"/>
    <path d="m55.115 89.161-0.0476-0.0953"/>
    <path d="m55.067 89.066-0.0476-0.0476"/>
   </g>
   <g transform="rotate(-90 35.61 50.275)">
    <text transform="scale(-1 1) translate(-71.22)" x="35.6100" y="50.7752" font-size="1.3333" opacity="0" stroke-opacity="0" text-anchor="middle" lengthAdjust="spacingAndGlyphs" textLength="2.2024">D6</text>
   </g>
   <g class="stroked-text">
    <desc>D6</desc>
    <path d="m36.065 49.537h-1"/>
    <path d="m35.065 49.537v0.238"/>
    <path d="m35.065 49.775 0.0476 0.1429"/>
    <path d="m35.112 49.918 0.0953 0.0952"/>
    <path d="m35.208 50.013 0.0952 0.0477"/>
    <path d="m35.303 50.061 0.1905 0.0476"/>
    <path d="m35.493 50.109h0.1428"/>
    <path d="m35.636 50.109 0.1905-0.0476"/>
    <path d="m35.827 50.061 0.0953-0.0477"/>
    <path d="m35.922 50.013 0.0952-0.0952"/>
    <path d="m36.017 49.918 0.0476-0.1429"/>
    <path d="m36.065 49.775v-0.238"/>
    <path d="m35.065 50.966v-0.1905"/>
    <path d="m35.065 50.775 0.0476-0.0952"/>
    <path d="m35.112 50.68 0.0477-0.0476"/>
    <path d="m35.16 50.632 0.1428-0.0952"/>
    <path d="m35.303 50.537 0.1905-0.0477"/>
    <path d="m35.493 50.49h0.3809"/>
    <path d="m35.874 50.49 0.0953 0.0477"/>
    <path d="m35.97 50.537 0.0476 0.0476"/>
    <path d="m36.017 50.585 0.0476 0.0952"/>
    <path d="m36.065 50.68v0.1905"/>
    <path d="m36.065 50.87-0.0476 0.0952"/>
    <path d="m36.017 50.966-0.0476 0.0476"/>
    <path d="m35.97 51.013-0.0953 0.0477"/>
    <path d="m35.874 51.061h-0.2381"/>
    <path d="m35.636 51.061-0.0952-0.0477"/>
    <path d="m35.541 51.013-0.0476-0.0476"/>
    <path d="m35.493 50.966-0.0476-0.0952"/>
    <path d="m35.446 50.87v-0.1905"/>
    <path d="m35.446 50.68 0.0476-0.0952"/>
    <path d="m35.493 50.585 0.0476-0.0476"/>
    <path d="m35.541 50.537 0.0952-0.0477"/>
   </g>
   <g transform="rotate(-90 35.61 88.375)">
    <text transform="scale(-1 1) translate(-71.22)" x="35.6100" y="88.8752" font-size="1.3333" opacity="0" stroke-opacity="0" text-anchor="middle" lengthAdjust="spacingAndGlyphs" textLength="3.1548">D12</text>
   </g>
   <g class="stroked-text">
    <desc>D12</desc>
    <path d="m36.065 87.161h-1"/>
    <path d="m35.065 87.161v0.2381"/>
    <path d="m35.065 87.399 0.0476 0.1428"/>
    <path d="m35.112 87.542 0.0953 0.0953"/>
    <path d="m35.208 87.637 0.0952 0.0476"/>
    <path d="m35.303 87.685 0.1905 0.0476"/>
    <path d="m35.493 87.732h0.1428"/>
    <path d="m35.636 87.732 0.1905-0.0476"/>
    <path d="m35.827 87.685 0.0953-0.0476"/>
    <path d="m35.922 87.637 0.0952-0.0953"/>
    <path d="m36.017 87.542 0.0476-0.1428"/>
    <path d="m36.065 87.399v-0.2381"/>
    <path d="m36.065 88.685v-0.5715"/>
    <path d="m36.065 88.399h-1"/>
    <path d="m35.065 88.399 0.1429-0.0953"/>
    <path d="m35.208 88.304 0.0952-0.0952"/>
    <path d="m35.303 88.209 0.0476-0.0953"/>
    <path d="m35.16 89.066-0.0477 0.0476"/>
    <path d="m35.112 89.113-0.0476 0.0953"/>
    <path d="m35.065 89.209v0.2381"/>
    <path d="m35.065 89.447 0.0476 0.0952"/>
    <path d="m35.112 89.542 0.0477 0.0476"/>
    <path d="m35.16 89.59 0.0952 0.0477"/>
    <path d="m35.255 89.637h0.0952"/>
    <path d="m35.35 89.637 0.1429-0.0477"/>
    <path d="m35.493 89.59 0.5714-0.5714"/>
    <path d="m36.065 89.018v0.6191"/>
   </g>
   <g transform="rotate(-90 35.61 31.225)">
    <text transform="scale(-1 1) translate(-71.22)" x="35.6100" y="31.7252" font-size="1.3333" opacity="0" stroke-opacity="0" text-anchor="middle" lengthAdjust="spacingAndGlyphs" textLength="2.2024">D3</text>
   </g>
   <g class="stroked-text">
    <desc>D3</desc>
    <path d="m36.065 30.487h-1"/>
    <path d="m35.065 30.487v0.238"/>
    <path d="m35.065 30.725 0.0476 0.1429"/>
    <path d="m35.112 30.868 0.0953 0.0952"/>
    <path d="m35.208 30.963 0.0952 0.0477"/>
    <path d="m35.303 31.011 0.1905 0.0476"/>
    <path d="m35.493 31.059h0.1428"/>
    <path d="m35.636 31.059 0.1905-0.0476"/>
    <path d="m35.827 31.011 0.0953-0.0477"/>
    <path d="m35.922 30.963 0.0952-0.0952"/>
    <path d="m36.017 30.868 0.0476-0.1429"/>
    <path d="m36.065 30.725v-0.238"/>
    <path d="m35.065 31.392v0.6191"/>
    <path d="m35.065 32.011 0.381-0.3334"/>
    <path d="m35.446 31.678v0.1429"/>
    <path d="m35.446 31.82 0.0476 0.0952"/>
    <path d="m35.493 31.916 0.0476 0.0476"/>
    <path d="m35.541 31.963 0.0952 0.0477"/>
    <path d="m35.636 32.011h0.2381"/>
    <path d="m35.874 32.011 0.0953-0.0477"/>
    <path d="m35.97 31.963 0.0476-0.0476"/>
    <path d="m36.017 31.916 0.0476-0.0952"/>
    <path d="m36.065 31.82v-0.2857"/>
    <path d="m36.065 31.535-0.0476-0.0953"/>
    <path d="m36.017 31.44-0.0476-0.0476"/>
   </g>
   <g transform="rotate(-90 54.66 69.325)">
    <text transform="scale(-1 1) translate(-109.32)" x="54.6600" y="69.8252" font-size="1.3333" opacity="0" stroke-opacity="0" text-anchor="middle" lengthAdjust="spacingAndGlyphs" textLength="3.1548">D10</text>
   </g>
   <g class="stroked-text">
    <desc>D10</desc>
    <path d="m55.115 68.111h-1"/>
    <path d="m54.115 68.111v0.2381"/>
    <path d="m54.115 68.349 0.0476 0.1428"/>
    <path d="m54.162 68.492 0.0953 0.0953"/>
    <path d="m54.258 68.587 0.0952 0.0476"/>
    <path d="m54.353 68.635 0.1905 0.0476"/>
    <path d="m54.543 68.682h0.1428"/>
    <path d="m54.686 68.682 0.1905-0.0476"/>
    <path d="m54.877 68.635 0.0953-0.0476"/>
    <path d="m54.972 68.587 0.0952-0.0953"/>
    <path d="m55.067 68.492 0.0476-0.1428"/>
    <path d="m55.115 68.349v-0.2381"/>
    <path d="m55.115 69.635v-0.5715"/>
    <path d="m55.115 69.349h-1"/>
    <path d="m54.115 69.349 0.1429-0.0953"/>
    <path d="m54.258 69.254 0.0952-0.0952"/>
    <path d="m54.353 69.159 0.0476-0.0953"/>
    <path d="m54.115 70.254v0.0953"/>
    <path d="m54.115 70.349 0.0476 0.0952"/>
    <path d="m54.162 70.444 0.0477 0.0476"/>
    <path d="m54.21 70.492 0.0952 0.0476"/>
    <path d="m54.305 70.54 0.1905 0.0477"/>
    <path d="m54.496 70.587h0.2381"/>
    <path d="m54.734 70.587 0.1904-0.0477"/>
    <path d="m54.924 70.54 0.0953-0.0476"/>
    <path d="m55.02 70.492 0.0476-0.0476"/>
    <path d="m55.067 70.444 0.0476-0.0952"/>
    <path d="m55.115 70.349v-0.0953"/>
    <path d="m55.115 70.254-0.0476-0.0952"/>
    <path d="m55.067 70.159-0.0476-0.0476"/>
    <path d="m55.02 70.111-0.0953-0.0477"/>
    <path d="m54.924 70.063-0.1904-0.0476"/>
    <path d="m54.734 70.016h-0.2381"/>
    <path d="m54.496 70.016-0.1905 0.0476"/>
    <path d="m54.305 70.063-0.0952 0.0477"/>
    <path d="m54.21 70.111-0.0477 0.0476"/>
    <path d="m54.162 70.159-0.0476 0.0952"/>
   </g>
   <g transform="rotate(-90 54.66 31.225)">
    <text transform="scale(-1 1) translate(-109.32)" x="54.6600" y="31.7252" font-size="1.3333" opacity="0" stroke-opacity="0" text-anchor="middle" lengthAdjust="spacingAndGlyphs" textLength="2.2024">D4</text>
   </g>
   <g class="stroked-text">
    <desc>D4</desc>
    <path d="m55.115 30.487h-1"/>
    <path d="m54.115 30.487v0.238"/>
    <path d="m54.115 30.725 0.0476 0.1429"/>
    <path d="m54.162 30.868 0.0953 0.0952"/>
    <path d="m54.258 30.963 0.0952 0.0477"/>
    <path d="m54.353 31.011 0.1905 0.0476"/>
    <path d="m54.543 31.059h0.1428"/>
    <path d="m54.686 31.059 0.1905-0.0476"/>
    <path d="m54.877 31.011 0.0953-0.0477"/>
    <path d="m54.972 30.963 0.0952-0.0952"/>
    <path d="m55.067 30.868 0.0476-0.1429"/>
    <path d="m55.115 30.725v-0.238"/>
    <path d="m54.448 31.916h0.6666"/>
    <path d="m54.067 31.678 0.7143-0.2381"/>
    <path d="m54.782 31.44v0.6191"/>
   </g>
   <g transform="rotate(-90 16.56 31.225)">
    <text transform="scale(-1 1) translate(-33.12)" x="16.5600" y="31.7252" font-size="1.3333" opacity="0" stroke-opacity="0" text-anchor="middle" lengthAdjust="spacingAndGlyphs" textLength="2.2024">D2</text>
   </g>
   <g class="stroked-text">
    <desc>D2</desc>
    <path d="m17.015 30.487h-1"/>
    <path d="m16.015 30.487v0.238"/>
    <path d="m16.015 30.725 0.0476 0.1429"/>
    <path d="m16.062 30.868 0.0953 0.0952"/>
    <path d="m16.158 30.963 0.0952 0.0477"/>
    <path d="m16.253 31.011 0.1905 0.0476"/>
    <path d="m16.443 31.059h0.1428"/>
    <path d="m16.586 31.059 0.1905-0.0476"/>
    <path d="m16.777 31.011 0.0953-0.0477"/>
    <path d="m16.872 30.963 0.0952-0.0952"/>
    <path d="m16.967 30.868 0.0476-0.1429"/>
    <path d="m17.015 30.725v-0.238"/>
    <path d="m16.11 31.44-0.0477 0.0477"/>
    <path d="m16.062 31.487-0.0476 0.0952"/>
    <path d="m16.015 31.582v0.2381"/>
    <path d="m16.015 31.82 0.0476 0.0952"/>
    <path d="m16.062 31.916 0.0477 0.0476"/>
    <path d="m16.11 31.963 0.0952 0.0477"/>
    <path d="m16.205 32.011h0.0952"/>
    <path d="m16.3 32.011 0.1429-0.0477"/>
    <path d="m16.443 31.963 0.5714-0.5714"/>
    <path d="m17.015 31.392v0.6191"/>
   </g>
   <g transform="rotate(-90 54.66 50.275)">
    <text transform="scale(-1 1) translate(-109.32)" x="54.6600" y="50.7752" font-size="1.3333" opacity="0" stroke-opacity="0" text-anchor="middle" lengthAdjust="spacingAndGlyphs" textLength="2.2024">D7</text>
   </g>
   <g class="stroked-text">
    <desc>D7</desc>
    <path d="m55.115 49.537h-1"/>
    <path d="m54.115 49.537v0.238"/>
    <path d="m54.115 49.775 0.0476 0.1429"/>
    <path d="m54.162 49.918 0.0953 0.0952"/>
    <path d="m54.258 50.013 0.0952 0.0477"/>
    <path d="m54.353 50.061 0.1905 0.0476"/>
    <path d="m54.543 50.109h0.1428"/>
    <path d="m54.686 50.109 0.1905-0.0476"/>
    <path d="m54.877 50.061 0.0953-0.0477"/>
    <path d="m54.972 50.013 0.0952-0.0952"/>
    <path d="m55.067 49.918 0.0476-0.1429"/>
    <path d="m55.115 49.775v-0.238"/>
    <path d="m54.115 50.442v0.6667"/>
    <path d="m54.115 51.109 1-0.4286"/>
   </g>
   <g transform="rotate(-90 16.56 50.275)">
    <text transform="scale(-1 1) translate(-33.12)" x="16.5600" y="50.7752" font-size="1.3333" opacity="0" stroke-opacity="0" text-anchor="middle" lengthAdjust="spacingAndGlyphs" textLength="2.2024">D5</text>
   </g>
   <g class="stroked-text">
    <desc>D5</desc>
    <path d="m17.015 49.537h-1"/>
    <path d="m16.015 49.537v0.238"/>
    <path d="m16.015 49.775 0.0476 0.1429"/>
    <path d="m16.062 49.918 0.0953 0.0952"/>
    <path d="m16.158 50.013 0.0952 0.0477"/>
    <path d="m16.253 50.061 0.1905 0.0476"/>
    <path d="m16.443 50.109h0.1428"/>
    <path d="m16.586 50.109 0.1905-0.0476"/>
    <path d="m16.777 50.061 0.0953-0.0477"/>
    <path d="m16.872 50.013 0.0952-0.0952"/>
    <path d="m16.967 49.918 0.0476-0.1429"/>
    <path d="m17.015 49.775v-0.238"/>
    <path d="m16.015 51.013v-0.4761"/>
    <path d="m16.015 50.537 0.4762-0.0477"/>
    <path d="m16.491 50.49-0.0476 0.0477"/>
    <path d="m16.443 50.537-0.0476 0.0952"/>
    <path d="m16.396 50.632v0.2381"/>
    <path d="m16.396 50.87 0.0476 0.0952"/>
    <path d="m16.443 50.966 0.0476 0.0476"/>
    <path d="m16.491 51.013 0.0952 0.0477"/>
    <path d="m16.586 51.061h0.2381"/>
    <path d="m16.824 51.061 0.0953-0.0477"/>
    <path d="m16.92 51.013 0.0476-0.0476"/>
    <path d="m16.967 50.966 0.0476-0.0952"/>
    <path d="m17.015 50.87v-0.2381"/>
    <path d="m17.015 50.632-0.0476-0.0952"/>
    <path d="m16.967 50.537-0.0476-0.0477"/>
   </g>
   <g transform="rotate(-90 16.56 69.325)">
    <text transform="scale(-1 1) translate(-33.12)" x="16.5600" y="69.8252" font-size="1.3333" opacity="0" stroke-opacity="0" text-anchor="middle" lengthAdjust="spacingAndGlyphs" textLength="2.2024">D8</text>
   </g>
   <g class="stroked-text">
    <desc>D8</desc>
    <path d="m17.015 68.587h-1"/>
    <path d="m16.015 68.587v0.238"/>
    <path d="m16.015 68.825 0.0476 0.1429"/>
    <path d="m16.062 68.968 0.0953 0.0952"/>
    <path d="m16.158 69.063 0.0952 0.0477"/>
    <path d="m16.253 69.111 0.1905 0.0476"/>
    <path d="m16.443 69.159h0.1428"/>
    <path d="m16.586 69.159 0.1905-0.0476"/>
    <path d="m16.777 69.111 0.0953-0.0477"/>
    <path d="m16.872 69.063 0.0952-0.0952"/>
    <path d="m16.967 68.968 0.0476-0.1429"/>
    <path d="m17.015 68.825v-0.238"/>
    <path d="m16.443 69.73-0.0476-0.0952"/>
    <path d="m16.396 69.635-0.0476-0.0476"/>
    <path d="m16.348 69.587-0.0953-0.0477"/>
    <path d="m16.253 69.54h-0.0476"/>
    <path d="m16.205 69.54-0.0952 0.0477"/>
    <path d="m16.11 69.587-0.0477 0.0476"/>
    <path d="m16.062 69.635-0.0476 0.0952"/>
    <path d="m16.015 69.73v0.1905"/>
    <path d="m16.015 69.92 0.0476 0.0952"/>
    <path d="m16.062 70.016 0.0477 0.0476"/>
    <path d="m16.11 70.063 0.0952 0.0477"/>
    <path d="m16.205 70.111h0.0476"/>
    <path d="m16.253 70.111 0.0953-0.0477"/>
    <path d="m16.348 70.063 0.0476-0.0476"/>
    <path d="m16.396 70.016 0.0476-0.0952"/>
    <path d="m16.443 69.92v-0.1905"/>
    <path d="m16.443 69.73 0.0476-0.0952"/>
    <path d="m16.491 69.635 0.0476-0.0476"/>
    <path d="m16.539 69.587 0.0953-0.0477"/>
    <path d="m16.634 69.54h0.1904"/>
    <path d="m16.824 69.54 0.0953 0.0477"/>
    <path d="m16.92 69.587 0.0476 0.0476"/>
    <path d="m16.967 69.635 0.0476 0.0952"/>
    <path d="m17.015 69.73v0.1905"/>
    <path d="m17.015 69.92-0.0476 0.0952"/>
    <path d="m16.967 70.016-0.0476 0.0476"/>
    <path d="m16.92 70.063-0.0953 0.0477"/>
    <path d="m16.824 70.111h-0.1904"/>
    <path d="m16.634 70.111-0.0953-0.0477"/>
    <path d="m16.539 70.063-0.0476-0.0476"/>
    <path d="m16.491 70.016-0.0476-0.0952"/>
   </g>
   <g transform="rotate(-90 16.56 88.375)">
    <text transform="scale(-1 1) translate(-33.12)" x="16.5600" y="88.8752" font-size="1.3333" opacity="0" stroke-opacity="0" text-anchor="middle" lengthAdjust="spacingAndGlyphs" textLength="3.1548">D11</text>
   </g>
   <g class="stroked-text">
    <desc>D11</desc>
    <path d="m17.015 87.161h-1"/>
    <path d="m16.015 87.161v0.2381"/>
    <path d="m16.015 87.399 0.0476 0.1428"/>
    <path d="m16.062 87.542 0.0953 0.0953"/>
    <path d="m16.158 87.637 0.0952 0.0476"/>
    <path d="m16.253 87.685 0.1905 0.0476"/>
    <path d="m16.443 87.732h0.1428"/>
    <path d="m16.586 87.732 0.1905-0.0476"/>
    <path d="m16.777 87.685 0.0953-0.0476"/>
    <path d="m16.872 87.637 0.0952-0.0953"/>
    <path d="m16.967 87.542 0.0476-0.1428"/>
    <path d="m17.015 87.399v-0.2381"/>
    <path d="m17.015 88.685v-0.5715"/>
    <path d="m17.015 88.399h-1"/>
    <path d="m16.015 88.399 0.1429-0.0953"/>
    <path d="m16.158 88.304 0.0952-0.0952"/>
    <path d="m16.253 88.209 0.0476-0.0953"/>
    <path d="m17.015 89.637v-0.5715"/>
    <path d="m17.015 89.351h-1"/>
    <path d="m16.015 89.351 0.1429-0.0952"/>
    <path d="m16.158 89.256 0.0952-0.0952"/>
    <path d="m16.253 89.161 0.0476-0.0953"/>
   </g>
   <g transform="rotate(-90 35.61 69.325)">
    <text transform="scale(-1 1) translate(-71.22)" x="35.6100" y="69.8252" font-size="1.3333" opacity="0" stroke-opacity="0" text-anchor="middle" lengthAdjust="spacingAndGlyphs" textLength="2.2024">D9</text>
   </g>
   <g class="stroked-text">
    <desc>D9</desc>
    <path d="m36.065 68.587h-1"/>
    <path d="m35.065 68.587v0.238"/>
    <path d="m35.065 68.825 0.0476 0.1429"/>
    <path d="m35.112 68.968 0.0953 0.0952"/>
    <path d="m35.208 69.063 0.0952 0.0477"/>
    <path d="m35.303 69.111 0.1905 0.0476"/>
    <path d="m35.493 69.159h0.1428"/>
    <path d="m35.636 69.159 0.1905-0.0476"/>
    <path d="m35.827 69.111 0.0953-0.0477"/>
    <path d="m35.922 69.063 0.0952-0.0952"/>
    <path d="m36.017 68.968 0.0476-0.1429"/>
    <path d="m36.065 68.825v-0.238"/>
    <path d="m36.065 69.635v0.1904"/>
    <path d="m36.065 69.825-0.0476 0.0953"/>
    <path d="m36.017 69.92-0.0476 0.0476"/>
    <path d="m35.97 69.968-0.1429 0.0952"/>
    <path d="m35.827 70.063-0.1905 0.0477"/>
    <path d="m35.636 70.111h-0.3809"/>
    <path d="m35.255 70.111-0.0952-0.0477"/>
    <path d="m35.16 70.063-0.0477-0.0476"/>
    <path d="m35.112 70.016-0.0476-0.0952"/>
    <path d="m35.065 69.92v-0.1905"/>
    <path d="m35.065 69.73 0.0476-0.0952"/>
    <path d="m35.112 69.635 0.0477-0.0476"/>
    <path d="m35.16 69.587 0.0952-0.0477"/>
    <path d="m35.255 69.54h0.2381"/>
    <path d="m35.493 69.54 0.0952 0.0477"/>
    <path d="m35.589 69.587 0.0476 0.0476"/>
    <path d="m35.636 69.635 0.0477 0.0952"/>
    <path d="m35.684 69.73v0.1905"/>
    <path d="m35.684 69.92-0.0477 0.0952"/>
    <path d="m35.636 70.016-0.0476 0.0476"/>
    <path d="m35.589 70.063-0.0952 0.0477"/>
   </g>
   <g transform="rotate(-90 47.16 9.6753)">
    <text transform="scale(-1 1) translate(-94.32)" x="47.1600" y="10.1753" font-size="1.3333" opacity="0" stroke-opacity="0" text-anchor="middle" lengthAdjust="spacingAndGlyphs" textLength="2.2024">D1</text>
   </g>
   <g class="stroked-text">
    <desc>D1</desc>
    <path d="m47.615 8.9372h-1"/>
    <path d="m46.615 8.9372v0.2381"/>
    <path d="m46.615 9.1753 0.0476 0.1428"/>
    <path d="m46.662 9.3181 0.0953 0.0952"/>
    <path d="m46.758 9.4133 0.0952 0.0477"/>
    <path d="m46.853 9.461 0.1905 0.0476"/>
    <path d="m47.043 9.5086h0.1428"/>
    <path d="m47.186 9.5086 0.1905-0.0476"/>
    <path d="m47.377 9.461 0.0953-0.0477"/>
    <path d="m47.472 9.4133 0.0952-0.0952"/>
    <path d="m47.567 9.3181 0.0476-0.1428"/>
    <path d="m47.615 9.1753v-0.2381"/>
    <path d="m47.615 10.461v-0.5715"/>
    <path d="m47.615 10.175h-1"/>
    <path d="m46.615 10.175 0.1429-0.0953"/>
    <path d="m46.758 10.08 0.0952-0.0952"/>
    <path d="m46.853 9.9848 0.0476-0.0953"/>
   </g>
  </g>
  <g stroke="#BD93F9" stroke-width=".12">
   <path d="m51.755 90.458v-3.86"/>
   <path d="m53.755 90.458h-2"/>
   <path d="m53.755 90.458v-3.86"/>
   <path d="m32.705 52.358v-3.86"/>
   <path d="m34.705 52.358h-2"/>
   <path d="m34.705 52.358v-3.86"/>
   <path d="m32.705 90.458v-3.86"/>
   <path d="m34.705 90.458h-2"/>
   <path d="m34.705 90.458v-3.86"/>
   <path d="m32.705 33.308v-3.8601"/>
   <path d="m34.705 33.308h-2"/>
   <path d="m34.705 33.308v-3.8601"/>
   <path d="m51.755 71.408v-3.86"/>
   <path d="m53.755 71.408h-2"/>
   <path d="m53.755 71.408v-3.86"/>
   <path d="m51.755 33.308v-3.8601"/>
   <path d="m53.755 33.308h-2"/>
   <path d="m53.755 33.308v-3.8601"/>
   <path d="m13.655 33.308v-3.8601"/>
   <path d="m15.655 33.308h-2"/>
   <path d="m15.655 33.308v-3.8601"/>
   <path d="m51.755 52.358v-3.86"/>
   <path d="m53.755 52.358h-2"/>
   <path d="m53.755 52.358v-3.86"/>
   <path d="m13.655 52.358v-3.86"/>
   <path d="m15.655 52.358h-2"/>
   <path d="m15.655 52.358v-3.86"/>
   <path d="m13.655 71.408v-3.86"/>
   <path d="m15.655 71.408h-2"/>
   <path d="m15.655 71.408v-3.86"/>
   <path d="m13.655 90.458v-3.86"/>
   <path d="m15.655 90.458h-2"/>
   <path d="m15.655 90.458v-3.86"/>
   <path d="m32.705 71.408v-3.86"/>
   <path d="m34.705 71.408h-2"/>
   <path d="m34.705 71.408v-3.86"/>
   <path d="m44.255 11.758v-3.8601"/>
   <path d="m46.255 11.758h-2"/>
   <path d="m46.255 11.758v-3.8601"/>
  </g>
 </g>
 <g fill="#fff">
  <circle cx="23.545" cy="27.098" r=".875"/>
  <circle cx="28.625" cy="27.098" r="2"/>
  <circle cx="33.705" cy="27.098" r=".875"/>
  <circle cx="24.815" cy="24.558" r=".75"/>
  <circle cx="31.165" cy="22.018" r=".75"/>
  <circle cx="42.595" cy="27.098" r=".875"/>
  <circle cx="47.675" cy="27.098" r="2"/>
  <circle cx="52.755" cy="27.098" r=".875"/>
  <circle cx="43.865" cy="24.558" r=".75"/>
  <circle cx="50.215" cy="22.018" r=".75"/>
  <circle cx="23.545" cy="46.148" r=".875"/>
  <circle cx="28.625" cy="46.148" r="2"/>
  <circle cx="33.705" cy="46.148" r=".875"/>
  <circle cx="24.815" cy="43.608" r=".75"/>
  <circle cx="31.165" cy="41.068" r=".75"/>
  <circle cx="23.545" cy="84.248" r=".875"/>
  <circle cx="28.625" cy="84.248" r="2"/>
  <circle cx="33.705" cy="84.248" r=".875"/>
  <circle cx="24.815" cy="81.708" r=".75"/>
  <circle cx="31.165" cy="79.168" r=".75"/>
  <circle cx="40.175" cy="5.5482" r=".5"/>
  <circle cx="40.175" cy="10.548" r=".5"/>
  <circle cx="40.175" cy="8.0482" r=".5"/>
 </g>
 <g fill="none" stroke="#fff" stroke-linecap="round" stroke-linejoin="round" stroke-width="1.5">
  <path d="m47.025 2.4482h1.3"/>
  <path d="m47.025 13.648h1.3"/>
 </g>
 <g fill="#fff">
  <circle cx="54.675" cy="10.548" r=".5"/>
  <circle cx="54.675" cy="5.5482" r=".5"/>
  <circle cx="4.495" cy="27.098" r=".875"/>
  <circle cx="9.575" cy="27.098" r="2"/>
  <circle cx="14.655" cy="27.098" r=".875"/>
  <circle cx="5.765" cy="24.558" r=".75"/>
  <circle cx="12.115" cy="22.018" r=".75"/>
  <circle cx="42.595" cy="46.148" r=".875"/>
  <circle cx="47.675" cy="46.148" r="2"/>
  <circle cx="52.755" cy="46.148" r=".875"/>
  <circle cx="43.865" cy="43.608" r=".75"/>
  <circle cx="50.215" cy="41.068" r=".75"/>
  <circle cx="4.495" cy="84.248" r=".875"/>
  <circle cx="9.575" cy="84.248" r="2"/>
  <circle cx="14.655" cy="84.248" r=".875"/>
  <circle cx="5.765" cy="81.708" r=".75"/>
  <circle cx="12.115" cy="79.168" r=".75"/>
  <circle cx="4.495" cy="46.148" r=".875"/>
  <circle cx="9.575" cy="46.148" r="2"/>
  <circle cx="14.655" cy="46.148" r=".875"/>
  <circle cx="5.765" cy="43.608" r=".75"/>
  <circle cx="12.115" cy="41.068" r=".75"/>
  <circle cx="4.495" cy="65.198" r=".875"/>
  <circle cx="9.575" cy="65.198" r="2"/>
  <circle cx="14.655" cy="65.198" r=".875"/>
  <circle cx="5.765" cy="62.658" r=".75"/>
  <circle cx="12.115" cy="60.118" r=".75"/>
  <circle cx="42.595" cy="65.198" r=".875"/>
  <circle cx="47.675" cy="65.198" r="2"/>
  <circle cx="52.755" cy="65.198" r=".875"/>
  <circle cx="43.865" cy="62.658" r=".75"/>
  <circle cx="50.215" cy="60.118" r=".75"/>
  <circle cx="42.595" cy="84.248" r=".875"/>
  <circle cx="47.675" cy="84.248" r="2"/>
  <circle cx="52.755" cy="84.248" r=".875"/>
  <circle cx="43.865" cy="81.708" r=".75"/>
  <circle cx="50.215" cy="79.168" r=".75"/>
  <circle cx="23.545" cy="65.198" r=".875"/>
  <circle cx="28.625" cy="65.198" r="2"/>
  <circle cx="33.705" cy="65.198" r=".875"/>
  <circle cx="24.815" cy="62.658" r=".75"/>
  <circle cx="31.165" cy="60.118" r=".75"/>
 </g>
</svg>
