<?xml version="1.0" encoding="UTF-8"?>
<!DOCTYPE svg  PUBLIC '-//W3C//DTD SVG 1.1//EN'  'http://www.w3.org/Graphics/SVG/1.1/DTD/svg11.dtd'>
<svg width="86.97mm" height="83.845mm" version="1.1" viewBox="0 0 86.97 83.845" xmlns="http://www.w3.org/2000/svg">
 <title>SVG Image created as flowerpad-render.svg date 2025/09/05 18:27:39</title>
 <desc>Image generated by PCBNEW</desc>
 <rect width="86.97mm" height="83.845mm" fill="#282A36"/>
 <g fill="none" stroke="#8BE9FD" stroke-linecap="round" stroke-linejoin="round" stroke-width=".15">
  <text x="43.3660" y="35.6030" font-size="1.3333" opacity="0" stroke-opacity="0" text-anchor="middle" lengthAdjust="spacingAndGlyphs" textLength="3.2976">SW3</text>
  <g class="stroked-text">
   <desc>SW3</desc>
   <path d="m42.033 35.51 0.1428 0.0476"/>
   <path d="m42.176 35.558h0.2381"/>
   <path d="m42.414 35.558 0.0953-0.0476"/>
   <path d="m42.509 35.51 0.0476-0.0476"/>
   <path d="m42.556 35.463 0.0476-0.0953"/>
   <path d="m42.604 35.367v-0.0952"/>
   <path d="m42.604 35.272-0.0476-0.0952"/>
   <path d="m42.556 35.177-0.0476-0.0477"/>
   <path d="m42.509 35.129-0.0953-0.0476"/>
   <path d="m42.414 35.082-0.1904-0.0476"/>
   <path d="m42.223 35.034-0.0953-0.0476"/>
   <path d="m42.128 34.986-0.0476-0.0476"/>
   <path d="m42.08 34.939-0.0476-0.0953"/>
   <path d="m42.033 34.844v-0.0952"/>
   <path d="m42.033 34.748 0.0476-0.0952"/>
   <path d="m42.08 34.653 0.0476-0.0477"/>
   <path d="m42.128 34.605 0.0953-0.0476"/>
   <path d="m42.223 34.558h0.2381"/>
   <path d="m42.461 34.558 0.1428 0.0476"/>
   <path d="m42.937 34.558 0.2381 1"/>
   <path d="m43.176 35.558 0.1905-0.7143"/>
   <path d="m43.366 34.844 0.1905 0.7143"/>
   <path d="m43.556 35.558 0.2381-1"/>
   <path d="m44.08 34.558h0.6191"/>
   <path d="m44.699 34.558-0.3334 0.381"/>
   <path d="m44.366 34.939h0.1429"/>
   <path d="m44.509 34.939 0.0952 0.0476"/>
   <path d="m44.604 34.986 0.0476 0.0476"/>
   <path d="m44.652 35.034 0.0477 0.0952"/>
   <path d="m44.699 35.129v0.2381"/>
   <path d="m44.699 35.367-0.0477 0.0953"/>
   <path d="m44.652 35.463-0.0476 0.0476"/>
   <path d="m44.604 35.51-0.0952 0.0476"/>
   <path d="m44.509 35.558h-0.2857"/>
   <path d="m44.223 35.558-0.0953-0.0476"/>
   <path d="m44.128 35.51-0.0476-0.0476"/>
  </g>
  <g transform="rotate(36 28.649 64.032)">
   <text x="28.6490" y="64.5324" font-size="1.3333" opacity="0" stroke-opacity="0" text-anchor="middle" lengthAdjust="spacingAndGlyphs" textLength="3.2976">SW5</text>
  </g>
  <g class="stroked-text">
   <desc>SW5</desc>
   <path d="m27.331 63.578 0.0876 0.1225"/>
   <path d="m27.419 63.701 0.1926 0.14"/>
   <path d="m27.611 63.841 0.105 0.0174"/>
   <path d="m27.716 63.858 0.0666-0.0105"/>
   <path d="m27.783 63.848 0.0945-0.0491"/>
   <path d="m27.877 63.798 0.0559-0.077"/>
   <path d="m27.933 63.721 0.0175-0.1051"/>
   <path d="m27.951 63.616-0.0105-0.0665"/>
   <path d="m27.94 63.55-0.0491-0.0945"/>
   <path d="m27.891 63.455-0.1261-0.1505"/>
   <path d="m27.765 63.305-0.0491-0.0945"/>
   <path d="m27.716 63.21-0.0105-0.0665"/>
   <path d="m27.705 63.144 0.0175-0.105"/>
   <path d="m27.723 63.039 0.0559-0.0771"/>
   <path d="m27.779 62.962 0.0945-0.049"/>
   <path d="m27.873 62.913 0.0666-0.0106"/>
   <path d="m27.94 62.902 0.105 0.0175"/>
   <path d="m28.045 62.92 0.1926 0.1399"/>
   <path d="m28.238 63.06 0.0876 0.1225"/>
   <path d="m28.623 63.339-0.3952 0.949"/>
   <path d="m28.228 64.288 0.5739-0.4659"/>
   <path d="m28.802 63.822-0.2657 0.6898"/>
   <path d="m28.536 64.512 0.7804-0.669"/>
   <path d="m30.01 64.347-0.3852-0.2799"/>
   <path d="m29.624 64.067-0.3184 0.3572"/>
   <path d="m29.306 64.424 0.0665-0.0105"/>
   <path d="m29.372 64.414 0.105 0.0174"/>
   <path d="m29.478 64.431 0.1927 0.14"/>
   <path d="m29.67 64.571 0.049 0.0945"/>
   <path d="m29.719 64.666 0.0106 0.0665"/>
   <path d="m29.73 64.732-0.0175 0.1051"/>
   <path d="m29.712 64.837-0.14 0.1926"/>
   <path d="m29.572 65.03-0.0945 0.049"/>
   <path d="m29.478 65.079-0.0665 0.0106"/>
   <path d="m29.411 65.09-0.105-0.0175"/>
   <path d="m29.306 65.072-0.1926-0.1399"/>
   <path d="m29.114 64.932-0.0491-0.0945"/>
   <path d="m29.065 64.838-0.0105-0.0666"/>
  </g>
  <g transform="rotate(19.5 14.879 25.05)">
   <text x="14.8786" y="25.5505" font-size="1.3333" opacity="0" stroke-opacity="0" text-anchor="middle" lengthAdjust="spacingAndGlyphs" textLength="3.2976">SW2</text>
  </g>
  <g class="stroked-text">
   <desc>SW2</desc>
   <path d="m13.486 24.989 0.1188 0.0926"/>
   <path d="m13.605 25.082 0.2244 0.0795"/>
   <path d="m13.829 25.161 0.1057-0.0131"/>
   <path d="m13.935 25.148 0.0608-0.029"/>
   <path d="m13.996 25.119 0.0767-0.0739"/>
   <path d="m14.072 25.045 0.0318-0.0898"/>
   <path d="m14.104 24.956-0.0131-0.1057"/>
   <path d="m14.091 24.85-0.029-0.0607"/>
   <path d="m14.062 24.789-0.0739-0.0767"/>
   <path d="m13.988 24.712-0.1636-0.1085"/>
   <path d="m13.824 24.604-0.0739-0.0767"/>
   <path d="m13.75 24.527-0.029-0.0608"/>
   <path d="m13.722 24.466-0.0131-0.1056"/>
   <path d="m13.708 24.361 0.0318-0.0898"/>
   <path d="m13.74 24.271 0.0767-0.0739"/>
   <path d="m13.817 24.197 0.0607-0.029"/>
   <path d="m13.878 24.168 0.1057-0.0131"/>
   <path d="m13.983 24.155 0.2244 0.0795"/>
   <path d="m14.208 24.235 0.1188 0.0926"/>
   <path d="m14.657 24.394-0.1093 1.0221"/>
   <path d="m14.547 25.416 0.4179-0.6097"/>
   <path d="m14.965 24.806-0.0588 0.7369"/>
   <path d="m14.906 25.543 0.5582-0.8632"/>
   <path d="m15.747 24.881 0.0608-0.029"/>
   <path d="m15.808 24.852 0.1057-0.0131"/>
   <path d="m15.914 24.839 0.2244 0.0795"/>
   <path d="m16.138 24.918 0.0739 0.0767"/>
   <path d="m16.212 24.995 0.029 0.0608"/>
   <path d="m16.241 25.056 0.0131 0.1057"/>
   <path d="m16.254 25.161-0.0318 0.0897"/>
   <path d="m16.222 25.251-0.0926 0.1188"/>
   <path d="m16.13 25.37-0.7294 0.3479"/>
   <path d="m15.4 25.718 0.5836 0.2066"/>
  </g>
  <text x="43.3660" y="2.0750" font-size="1.3333" opacity="0" stroke-opacity="0" text-anchor="middle" lengthAdjust="spacingAndGlyphs" textLength="3.2976">SW1</text>
  <g class="stroked-text">
   <desc>SW1</desc>
   <path d="m42.033 1.9822 0.1428 0.0476"/>
   <path d="m42.176 2.0298h0.2381"/>
   <path d="m42.414 2.0298 0.0953-0.0476"/>
   <path d="m42.509 1.9822 0.0476-0.0476"/>
   <path d="m42.556 1.9346 0.0476-0.0953"/>
   <path d="m42.604 1.8393v-0.0952"/>
   <path d="m42.604 1.7441-0.0476-0.0952"/>
   <path d="m42.556 1.6489-0.0476-0.0477"/>
   <path d="m42.509 1.6012-0.0953-0.0476"/>
   <path d="m42.414 1.5536-0.1904-0.0476"/>
   <path d="m42.223 1.506-0.0953-0.0476"/>
   <path d="m42.128 1.4584-0.0476-0.0476"/>
   <path d="m42.08 1.4108-0.0476-0.0953"/>
   <path d="m42.033 1.3155v-0.0952"/>
   <path d="m42.033 1.2203 0.0476-0.0952"/>
   <path d="m42.08 1.1251 0.0476-0.0477"/>
   <path d="m42.128 1.0774 0.0953-0.0476"/>
   <path d="m42.223 1.0298h0.2381"/>
   <path d="m42.461 1.0298 0.1428 0.0476"/>
   <path d="m42.937 1.0298 0.2381 1"/>
   <path d="m43.176 2.0298 0.1905-0.7143"/>
   <path d="m43.366 1.3155 0.1905 0.7143"/>
   <path d="m43.556 2.0298 0.2381-1"/>
   <path d="m44.699 2.0298h-0.5715"/>
   <path d="m44.414 2.0298v-1"/>
   <path d="m44.414 1.0298-0.0952 0.1429"/>
   <path d="m44.318 1.1727-0.0952 0.0952"/>
   <path d="m44.223 1.2679-0.0953 0.0476"/>
  </g>
  <g transform="rotate(-36 58.255 63.503)">
   <text x="58.2548" y="64.0031" font-size="1.3333" opacity="0" stroke-opacity="0" text-anchor="middle" lengthAdjust="spacingAndGlyphs" textLength="3.2976">SW6</text>
  </g>
  <g class="stroked-text">
   <desc>SW6</desc>
   <path d="m57.415 64.616 0.1436-0.0454"/>
   <path d="m57.559 64.571 0.1926-0.14"/>
   <path d="m57.752 64.431 0.0491-0.0945"/>
   <path d="m57.801 64.336 0.0105-0.0665"/>
   <path d="m57.811 64.27-0.0174-0.105"/>
   <path d="m57.794 64.165-0.056-0.0771"/>
   <path d="m57.738 64.088-0.0945-0.049"/>
   <path d="m57.643 64.039-0.0665-0.0106"/>
   <path d="m57.577 64.028-0.1051 0.0175"/>
   <path d="m57.472 64.046-0.1821 0.0734"/>
   <path d="m57.29 64.119-0.105 0.0175"/>
   <path d="m57.185 64.136-0.0665-0.0105"/>
   <path d="m57.118 64.126-0.0945-0.0491"/>
   <path d="m57.024 64.077-0.056-0.0771"/>
   <path d="m56.968 64-0.0175-0.105"/>
   <path d="m56.95 63.895 0.0106-0.0665"/>
   <path d="m56.961 63.828 0.049-0.0945"/>
   <path d="m57.01 63.734 0.1927-0.14"/>
   <path d="m57.202 63.594 0.1435-0.0454"/>
   <path d="m57.588 63.314 0.7804 0.6691"/>
   <path d="m58.368 63.983-0.2657-0.6898"/>
   <path d="m58.102 63.293 0.5739 0.4659"/>
   <path d="m58.676 63.759-0.3951-0.949"/>
   <path d="m58.936 62.334-0.1541 0.112"/>
   <path d="m58.782 62.446-0.0491 0.0945"/>
   <path d="m58.733 62.541-0.0105 0.0665"/>
   <path d="m58.722 62.607 0.0069 0.1715"/>
   <path d="m58.729 62.779 0.0734 0.1821"/>
   <path d="m58.803 62.961 0.224 0.3082"/>
   <path d="m59.027 63.269 0.0945 0.0491"/>
   <path d="m59.121 63.318 0.0665 0.0105"/>
   <path d="m59.188 63.329 0.105-0.0174"/>
   <path d="m59.293 63.311 0.1541-0.112"/>
   <path d="m59.447 63.199 0.0491-0.0945"/>
   <path d="m59.496 63.105 0.0105-0.0665"/>
   <path d="m59.506 63.038-0.0175-0.1051"/>
   <path d="m59.489 62.933-0.1399-0.1926"/>
   <path d="m59.349 62.741-0.0945-0.049"/>
   <path d="m59.254 62.692-0.0665-0.0106"/>
   <path d="m59.188 62.681-0.1051 0.0175"/>
   <path d="m59.083 62.698-0.1541 0.1119"/>
   <path d="m58.929 62.81-0.049 0.0945"/>
   <path d="m58.88 62.905-0.0106 0.0666"/>
   <path d="m58.869 62.972 0.0175 0.105"/>
  </g>
  <g transform="rotate(-19.5 72.094 24.978)">
   <text x="72.0942" y="25.4780" font-size="1.3333" opacity="0" stroke-opacity="0" text-anchor="middle" lengthAdjust="spacingAndGlyphs" textLength="3.2976">SW4</text>
  </g>
  <g class="stroked-text">
   <desc>SW4</desc>
   <path d="m70.973 25.807 0.1506-0.0028"/>
   <path d="m71.124 25.804 0.2244-0.0794"/>
   <path d="m71.348 25.725 0.0739-0.0767"/>
   <path d="m71.422 25.648 0.029-0.0608"/>
   <path d="m71.451 25.587 0.0131-0.1057"/>
   <path d="m71.464 25.482-0.0318-0.0897"/>
   <path d="m71.432 25.392-0.0767-0.0739"/>
   <path d="m71.356 25.318-0.0608-0.029"/>
   <path d="m71.295 25.289-0.1057-0.0131"/>
   <path d="m71.189 25.276-0.1954 0.0187"/>
   <path d="m70.994 25.294-0.1057-0.0131"/>
   <path d="m70.888 25.281-0.0608-0.029"/>
   <path d="m70.827 25.252-0.0766-0.0739"/>
   <path d="m70.751 25.178-0.0318-0.0898"/>
   <path d="m70.719 25.089 0.0131-0.1056"/>
   <path d="m70.732 24.983 0.029-0.0608"/>
   <path d="m70.761 24.922 0.0738-0.0767"/>
   <path d="m70.835 24.846 0.2245-0.0795"/>
   <path d="m71.059 24.766 0.1505-0.0028"/>
   <path d="m71.508 24.607 0.5582 0.8631"/>
   <path d="m72.066 25.47-0.0589-0.7369"/>
   <path d="m72.008 24.733 0.418 0.6098"/>
   <path d="m72.426 25.343-0.1094-1.0222"/>
   <path d="m73.191 24.365 0.2225 0.6285"/>
   <path d="m72.839 24.085 0.014 0.7528"/>
   <path d="m72.853 24.838 0.5835-0.2066"/>
  </g>
 </g>
 <g fill="none" stroke="#8BE9FD" stroke-linecap="round" stroke-linejoin="round" stroke-width=".12">
  <path d="m36.266 36.003v14.2"/>
  <path d="m36.266 50.203h14.2"/>
  <path d="m50.466 36.003h-14.2"/>
  <path d="m50.466 50.203v-14.2"/>
  <path d="m14.03 72.075 11.488 8.3465"/>
  <path d="m22.376 60.587-8.3465 11.488"/>
  <path d="m25.518 80.422 8.3465-11.488"/>
  <path d="m33.864 68.934-11.488-8.3466"/>
  <path d="m3.1454 36.914 13.386 4.7401"/>
  <path d="m7.8854 23.529-4.74 13.386"/>
  <path d="m16.531 41.654 4.7401-13.386"/>
  <path d="m21.271 28.269-13.386-4.74"/>
  <path d="m36.266 2.475v14.2"/>
  <path d="m36.266 16.675h14.2"/>
  <path d="m50.466 2.475h-14.2"/>
  <path d="m50.466 16.675v-14.2"/>
  <path d="m53.04 68.404 8.3465 11.488"/>
  <path d="m61.386 79.892 11.488-8.3465"/>
  <path d="m64.528 60.058-11.488 8.3466"/>
  <path d="m72.874 71.546-8.3466-11.488"/>
  <path d="m65.702 28.196 4.7401 13.386"/>
  <path d="m70.442 41.582 13.386-4.74"/>
  <path d="m79.087 23.456-13.386 4.74"/>
  <path d="m83.828 36.842-4.7401-13.386"/>
 </g>
 <g fill="#8BE9FD">
  <circle cx="38.286" cy="43.103" r=".875"/>
  <circle cx="43.366" cy="43.103" r="2"/>
  <circle cx="48.446" cy="43.103" r=".875"/>
  <circle cx="39.556" cy="40.563" r=".75"/>
  <circle cx="45.906" cy="38.023" r=".75"/>
  <circle cx="19.837" cy="67.519" r=".875"/>
  <circle cx="23.947" cy="70.504" r="2"/>
  <circle cx="28.057" cy="73.49" r=".875"/>
  <circle cx="22.357" cy="66.21" r=".75"/>
  <circle cx="28.988" cy="67.888" r=".75"/>
  <circle cx="7.4196" cy="30.896" r=".875"/>
  <circle cx="12.208" cy="32.592" r="2"/>
  <circle cx="16.997" cy="34.287" r=".875"/>
  <circle cx="9.4646" cy="28.926" r=".75"/>
  <circle cx="16.298" cy="28.651" r=".75"/>
  <circle cx="38.286" cy="9.575" r=".875"/>
  <circle cx="43.366" cy="9.575" r="2"/>
  <circle cx="48.446" cy="9.575" r=".875"/>
  <circle cx="39.556" cy="7.035" r=".75"/>
  <circle cx="45.906" cy="4.495" r=".75"/>
  <circle cx="58.847" cy="72.961" r=".875"/>
  <circle cx="62.957" cy="69.975" r="2"/>
  <circle cx="67.067" cy="66.989" r=".875"/>
  <circle cx="58.382" cy="70.16" r=".75"/>
  <circle cx="62.026" cy="64.372" r=".75"/>
  <circle cx="69.976" cy="34.215" r=".875"/>
  <circle cx="74.765" cy="32.519" r="2"/>
  <circle cx="79.553" cy="30.823" r=".875"/>
  <circle cx="70.325" cy="31.397" r=".75"/>
  <circle cx="75.463" cy="26.883" r=".75"/>
 </g>
 <g fill="none" stroke="#BD93F9" stroke-linecap="round" stroke-linejoin="round" stroke-width=".15">
  <g transform="rotate(54 71.034 69.208)">
   <text transform="scale(-1 1) translate(-142.07)" x="71.0338" y="69.7084" font-size="1.3333" opacity="0" stroke-opacity="0" text-anchor="middle" lengthAdjust="spacingAndGlyphs" textLength="2.2024">D6</text>
  </g>
  <g class="stroked-text">
   <desc>D6</desc>
   <path d="m71.1 70.073 0.809-0.5878"/>
   <path d="m71.909 69.485-0.1399-0.1926"/>
   <path d="m71.769 69.292-0.1225-0.0876"/>
   <path d="m71.646 69.205-0.133-0.021"/>
   <path d="m71.513 69.184-0.1051 0.0174"/>
   <path d="m71.408 69.201-0.1821 0.0735"/>
   <path d="m71.226 69.275-0.1155 0.0839"/>
   <path d="m71.111 69.359-0.1261 0.1505"/>
   <path d="m70.984 69.509-0.0491 0.0945"/>
   <path d="m70.935 69.604-0.0211 0.133"/>
   <path d="m70.914 69.737 0.0455 0.1436"/>
   <path d="m70.96 69.88 0.1399 0.1926"/>
   <path d="m71.069 68.329 0.112 0.1541"/>
   <path d="m71.181 68.483 0.0175 0.105"/>
   <path d="m71.198 68.588-0.0106 0.0666"/>
   <path d="m71.188 68.655-0.0596 0.161"/>
   <path d="m71.128 68.816-0.1261 0.1505"/>
   <path d="m71.002 68.966-0.3082 0.2239"/>
   <path d="m70.694 69.19-0.105 0.0174"/>
   <path d="m70.589 69.208-0.0665-0.0105"/>
   <path d="m70.522 69.197-0.0945-0.0491"/>
   <path d="m70.428 69.148-0.112-0.1541"/>
   <path d="m70.316 68.994-0.0174-0.105"/>
   <path d="m70.299 68.889 0.0105-0.0665"/>
   <path d="m70.309 68.823 0.049-0.0945"/>
   <path d="m70.358 68.728 0.1927-0.14"/>
   <path d="m70.551 68.588 0.105-0.0174"/>
   <path d="m70.656 68.571 0.0665 0.0105"/>
   <path d="m70.722 68.581 0.0945 0.0491"/>
   <path d="m70.817 68.63 0.112 0.1541"/>
   <path d="m70.929 68.784 0.0174 0.105"/>
   <path d="m70.946 68.889-0.0105 0.0665"/>
   <path d="m70.936 68.956-0.0491 0.0945"/>
  </g>
  <g transform="rotate(70.5 82.727 34.078)">
   <text transform="scale(-1 1) translate(-165.45)" x="82.7267" y="34.5778" font-size="1.3333" opacity="0" stroke-opacity="0" text-anchor="middle" lengthAdjust="spacingAndGlyphs" textLength="2.2024">D4</text>
  </g>
  <g class="stroked-text">
   <desc>D4</desc>
   <path d="m82.544 34.925 0.9427-0.3338"/>
   <path d="m83.487 34.592-0.0795-0.2245"/>
   <path d="m83.408 34.367-0.0926-0.1187"/>
   <path d="m83.315 34.248-0.1216-0.058"/>
   <path d="m83.193 34.19-0.1056-0.0131"/>
   <path d="m83.088 34.177-0.1955 0.0187"/>
   <path d="m82.892 34.196-0.1346 0.0477"/>
   <path d="m82.758 34.244-0.1637 0.1084"/>
   <path d="m82.594 34.352-0.0739 0.0767"/>
   <path d="m82.52 34.429-0.058 0.1216"/>
   <path d="m82.462 34.55 0.0028 0.1505"/>
   <path d="m82.465 34.701 0.0795 0.2245"/>
   <path d="m82.696 33.356-0.6285 0.2225"/>
   <path d="m83.134 33.454-0.5939 0.4628"/>
   <path d="m82.541 33.916-0.2066-0.5835"/>
  </g>
  <g transform="rotate(-90 50.351 47.23)">
   <text transform="scale(-1 1) translate(-100.7)" x="50.3510" y="47.7300" font-size="1.3333" opacity="0" stroke-opacity="0" text-anchor="middle" lengthAdjust="spacingAndGlyphs" textLength="2.2024">D3</text>
  </g>
  <g class="stroked-text">
   <desc>D3</desc>
   <path d="m50.806 46.492h-1"/>
   <path d="m49.806 46.492v0.2381"/>
   <path d="m49.806 46.73 0.0477 0.1429"/>
   <path d="m49.854 46.873 0.0952 0.0952"/>
   <path d="m49.949 46.968 0.0952 0.0476"/>
   <path d="m50.044 47.016 0.1905 0.0476"/>
   <path d="m50.234 47.063h0.1429"/>
   <path d="m50.377 47.063 0.1904-0.0476"/>
   <path d="m50.568 47.016 0.0953-0.0476"/>
   <path d="m50.663 46.968 0.0952-0.0952"/>
   <path d="m50.758 46.873 0.0476-0.1429"/>
   <path d="m50.806 46.73v-0.2381"/>
   <path d="m49.806 47.397v0.619"/>
   <path d="m49.806 48.016 0.381-0.3333"/>
   <path d="m50.187 47.682v0.1428"/>
   <path d="m50.187 47.825 0.0476 0.0953"/>
   <path d="m50.234 47.92 0.0476 0.0476"/>
   <path d="m50.282 47.968 0.0953 0.0476"/>
   <path d="m50.377 48.016h0.2381"/>
   <path d="m50.615 48.016 0.0952-0.0476"/>
   <path d="m50.711 47.968 0.0476-0.0476"/>
   <path d="m50.758 47.92 0.0476-0.0953"/>
   <path d="m50.806 47.825v-0.2857"/>
   <path d="m50.806 47.54-0.0476-0.0952"/>
   <path d="m50.758 47.444-0.0476-0.0476"/>
  </g>
  <g transform="rotate(-70.5 17.415 38.814)">
   <text transform="scale(-1 1) translate(-34.83)" x="17.4149" y="39.3136" font-size="1.3333" opacity="0" stroke-opacity="0" text-anchor="middle" lengthAdjust="spacingAndGlyphs" textLength="2.2024">D2</text>
  </g>
  <g class="stroked-text">
   <desc>D2</desc>
   <path d="m18.09 38.27-0.9426-0.3339"/>
   <path d="m17.147 37.936-0.0795 0.2245"/>
   <path d="m17.068 38.16-0.0028 0.1505"/>
   <path d="m17.065 38.311 0.058 0.1216"/>
   <path d="m17.123 38.432 0.0739 0.0767"/>
   <path d="m17.197 38.509 0.1636 0.1085"/>
   <path d="m17.361 38.618 0.1347 0.0476"/>
   <path d="m17.495 38.665 0.1954 0.0187"/>
   <path d="m17.691 38.684 0.1057-0.0131"/>
   <path d="m17.796 38.671 0.1216-0.0579"/>
   <path d="m17.918 38.613 0.0925-0.1188"/>
   <path d="m18.01 38.494 0.0795-0.2244"/>
   <path d="m16.919 38.865-0.0607 0.029"/>
   <path d="m16.858 38.894-0.0767 0.0739"/>
   <path d="m16.782 38.968-0.0795 0.2244"/>
   <path d="m16.702 39.193 0.0131 0.1057"/>
   <path d="m16.715 39.298 0.029 0.0608"/>
   <path d="m16.744 39.359 0.0739 0.0766"/>
   <path d="m16.818 39.436 0.0897 0.0318"/>
   <path d="m16.908 39.468 0.1506 0.0028"/>
   <path d="m17.059 39.47 0.7294-0.3479"/>
   <path d="m17.788 39.122-0.2066 0.5836"/>
  </g>
  <g transform="rotate(-54 27.172 77.949)">
   <text transform="scale(-1 1) translate(-54.344)" x="27.1719" y="78.4490" font-size="1.3333" opacity="0" stroke-opacity="0" text-anchor="middle" lengthAdjust="spacingAndGlyphs" textLength="2.2024">D5</text>
  </g>
  <g class="stroked-text">
   <desc>D5</desc>
   <path d="m27.974 77.619-0.809-0.5877"/>
   <path d="m27.165 77.032-0.1399 0.1926"/>
   <path d="m27.025 77.224-0.0455 0.1435"/>
   <path d="m26.979 77.368 0.0211 0.1331"/>
   <path d="m27 77.501 0.0491 0.0945"/>
   <path d="m27.05 77.595 0.1261 0.1505"/>
   <path d="m27.176 77.746 0.1155 0.0839"/>
   <path d="m27.291 77.83 0.1821 0.0735"/>
   <path d="m27.473 77.903 0.1051 0.0174"/>
   <path d="m27.578 77.92 0.133-0.0211"/>
   <path d="m27.711 77.899 0.1225-0.0875"/>
   <path d="m27.834 77.812 0.1399-0.1927"/>
   <path d="m26.297 78.226 0.2799-0.3852"/>
   <path d="m26.577 77.84 0.4133 0.2413"/>
   <path d="m26.99 78.082-0.0665 0.0106"/>
   <path d="m26.924 78.092-0.0945 0.049"/>
   <path d="m26.829 78.141-0.14 0.1927"/>
   <path d="m26.689 78.334-0.0174 0.105"/>
   <path d="m26.672 78.439 0.0105 0.0665"/>
   <path d="m26.682 78.506 0.049 0.0945"/>
   <path d="m26.731 78.6 0.1927 0.14"/>
   <path d="m26.924 78.74 0.105 0.0174"/>
   <path d="m27.029 78.758 0.0665-0.0105"/>
   <path d="m27.096 78.747 0.0945-0.0491"/>
   <path d="m27.19 78.698 0.14-0.1926"/>
   <path d="m27.33 78.505 0.0174-0.105"/>
   <path d="m27.347 78.4-0.0105-0.0665"/>
  </g>
  <g transform="rotate(-90 50.351 13.702)">
   <text transform="scale(-1 1) translate(-100.7)" x="50.3510" y="14.2020" font-size="1.3333" opacity="0" stroke-opacity="0" text-anchor="middle" lengthAdjust="spacingAndGlyphs" textLength="2.2024">D1</text>
  </g>
  <g class="stroked-text">
   <desc>D1</desc>
   <path d="m50.806 12.964h-1"/>
   <path d="m49.806 12.964v0.2381"/>
   <path d="m49.806 13.202 0.0477 0.1429"/>
   <path d="m49.854 13.345 0.0952 0.0952"/>
   <path d="m49.949 13.44 0.0952 0.0476"/>
   <path d="m50.044 13.488 0.1905 0.0476"/>
   <path d="m50.234 13.535h0.1429"/>
   <path d="m50.377 13.535 0.1904-0.0476"/>
   <path d="m50.568 13.488 0.0953-0.0476"/>
   <path d="m50.663 13.44 0.0952-0.0952"/>
   <path d="m50.758 13.345 0.0476-0.1429"/>
   <path d="m50.806 13.202v-0.2381"/>
   <path d="m50.806 14.488v-0.5714"/>
   <path d="m50.806 14.202h-1"/>
   <path d="m49.806 14.202 0.1429-0.0952"/>
   <path d="m49.949 14.107 0.0952-0.0953"/>
   <path d="m50.044 14.012 0.0477-0.0952"/>
  </g>
 </g>
 <g fill="none" stroke="#BD93F9" stroke-linecap="round" stroke-linejoin="round" stroke-width=".12">
  <path d="m67.639 69.478 2.2689 3.1228"/>
  <path d="m69.257 68.303 2.2688 3.1228"/>
  <path d="m69.908 72.601 1.618-1.1756"/>
  <path d="m79.395 33.372 1.2885 3.6386"/>
  <path d="m80.684 37.011 1.8853-0.6676"/>
  <path d="m81.28 32.705 1.2885 3.6386"/>
  <path d="m47.446 45.453v3.86"/>
  <path d="m47.446 49.313h2"/>
  <path d="m49.446 45.453v3.86"/>
  <path d="m13.981 39.807 1.8853 0.6676"/>
  <path d="m15.27 36.169-1.2885 3.6386"/>
  <path d="m17.155 36.836-1.2885 3.6386"/>
  <path d="m23.597 77.927 1.618 1.1756"/>
  <path d="m25.866 74.804-2.2688 3.1228"/>
  <path d="m27.484 75.98-2.2689 3.1228"/>
  <path d="m47.446 11.925v3.86"/>
  <path d="m47.446 15.785h2"/>
  <path d="m49.446 11.925v3.86"/>
 </g>
 <g>
  <g fill="#BD93F9">
   <circle cx="38.286" cy="43.103" r=".875"/>
   <circle cx="43.366" cy="43.103" r="2"/>
   <circle cx="48.446" cy="43.103" r=".875"/>
   <circle cx="39.556" cy="40.563" r=".75"/>
   <circle cx="45.906" cy="38.023" r=".75"/>
   <circle cx="19.837" cy="67.519" r=".875"/>
   <circle cx="23.947" cy="70.504" r="2"/>
   <circle cx="28.057" cy="73.49" r=".875"/>
   <circle cx="22.357" cy="66.21" r=".75"/>
   <circle cx="28.988" cy="67.888" r=".75"/>
   <circle cx="7.4196" cy="30.896" r=".875"/>
   <circle cx="12.208" cy="32.592" r="2"/>
   <circle cx="16.997" cy="34.287" r=".875"/>
   <circle cx="9.4646" cy="28.926" r=".75"/>
   <circle cx="16.298" cy="28.651" r=".75"/>
   <circle cx="38.286" cy="9.575" r=".875"/>
   <circle cx="43.366" cy="9.575" r="2"/>
   <circle cx="48.446" cy="9.575" r=".875"/>
   <circle cx="39.556" cy="7.035" r=".75"/>
   <circle cx="45.906" cy="4.495" r=".75"/>
   <circle cx="58.847" cy="72.961" r=".875"/>
   <circle cx="62.957" cy="69.975" r="2"/>
   <circle cx="67.067" cy="66.989" r=".875"/>
   <circle cx="58.382" cy="70.16" r=".75"/>
   <circle cx="62.026" cy="64.372" r=".75"/>
   <circle cx="69.976" cy="34.215" r=".875"/>
   <circle cx="74.765" cy="32.519" r="2"/>
   <circle cx="79.553" cy="30.823" r=".875"/>
   <circle cx="70.325" cy="31.397" r=".75"/>
   <circle cx="75.463" cy="26.883" r=".75"/>
  </g>
  <g>
   <circle cx="38.286" cy="43.103" r=".875"/>
   <circle cx="43.366" cy="43.103" r="2"/>
   <circle cx="48.446" cy="43.103" r=".875"/>
   <circle cx="39.556" cy="40.563" r=".75"/>
   <circle cx="45.906" cy="38.023" r=".75"/>
   <circle cx="19.837" cy="67.519" r=".875"/>
   <circle cx="23.947" cy="70.504" r="2"/>
   <circle cx="28.057" cy="73.49" r=".875"/>
   <circle cx="22.357" cy="66.21" r=".75"/>
   <circle cx="28.988" cy="67.888" r=".75"/>
   <circle cx="7.4196" cy="30.896" r=".875"/>
   <circle cx="12.208" cy="32.592" r="2"/>
   <circle cx="16.997" cy="34.287" r=".875"/>
   <circle cx="9.4646" cy="28.926" r=".75"/>
   <circle cx="16.298" cy="28.651" r=".75"/>
   <circle cx="38.286" cy="9.575" r=".875"/>
   <circle cx="43.366" cy="9.575" r="2"/>
   <circle cx="48.446" cy="9.575" r=".875"/>
   <circle cx="39.556" cy="7.035" r=".75"/>
   <circle cx="45.906" cy="4.495" r=".75"/>
   <circle cx="58.847" cy="72.961" r=".875"/>
   <circle cx="62.957" cy="69.975" r="2"/>
   <circle cx="67.067" cy="66.989" r=".875"/>
   <circle cx="58.382" cy="70.16" r=".75"/>
   <circle cx="62.026" cy="64.372" r=".75"/>
   <circle cx="69.976" cy="34.215" r=".875"/>
   <circle cx="74.765" cy="32.519" r="2"/>
   <circle cx="79.553" cy="30.823" r=".875"/>
   <circle cx="70.325" cy="31.397" r=".75"/>
   <circle cx="75.463" cy="26.883" r=".75"/>
  </g>
  <g fill="#f55">
   <circle cx="39.556" cy="40.563" r="1.25"/>
   <circle cx="45.906" cy="38.023" r="1.25"/>
   <circle cx="22.357" cy="66.21" r="1.25"/>
   <circle cx="28.988" cy="67.888" r="1.25"/>
   <circle cx="9.4646" cy="28.926" r="1.25"/>
   <circle cx="16.298" cy="28.651" r="1.25"/>
   <circle cx="39.556" cy="7.035" r="1.25"/>
   <circle cx="45.906" cy="4.495" r="1.25"/>
   <circle cx="58.382" cy="70.16" r="1.25"/>
   <circle cx="62.026" cy="64.372" r="1.25"/>
   <circle cx="70.325" cy="31.397" r="1.25"/>
   <circle cx="75.463" cy="26.883" r="1.25"/>
  </g>
 </g>
 <g fill="none" stroke="#f55" stroke-linecap="round" stroke-linejoin="round" stroke-width=".2">
  <path d="m39.556 7.035v33.528"/>
 </g>
 <g fill="#fff">
  <circle cx="38.286" cy="43.103" r=".875"/>
  <circle cx="43.366" cy="43.103" r="2"/>
  <circle cx="48.446" cy="43.103" r=".875"/>
  <circle cx="39.556" cy="40.563" r=".75"/>
  <circle cx="45.906" cy="38.023" r=".75"/>
  <circle cx="19.837" cy="67.519" r=".875"/>
  <circle cx="23.947" cy="70.504" r="2"/>
  <circle cx="28.057" cy="73.49" r=".875"/>
  <circle cx="22.357" cy="66.21" r=".75"/>
  <circle cx="28.988" cy="67.888" r=".75"/>
  <circle cx="7.4196" cy="30.896" r=".875"/>
  <circle cx="12.208" cy="32.592" r="2"/>
  <circle cx="16.997" cy="34.287" r=".875"/>
  <circle cx="9.4646" cy="28.926" r=".75"/>
  <circle cx="16.298" cy="28.651" r=".75"/>
  <circle cx="38.286" cy="9.575" r=".875"/>
  <circle cx="43.366" cy="9.575" r="2"/>
  <circle cx="48.446" cy="9.575" r=".875"/>
  <circle cx="39.556" cy="7.035" r=".75"/>
  <circle cx="45.906" cy="4.495" r=".75"/>
  <circle cx="58.847" cy="72.961" r=".875"/>
  <circle cx="62.957" cy="69.975" r="2"/>
  <circle cx="67.067" cy="66.989" r=".875"/>
  <circle cx="58.382" cy="70.16" r=".75"/>
  <circle cx="62.026" cy="64.372" r=".75"/>
  <circle cx="69.976" cy="34.215" r=".875"/>
  <circle cx="74.765" cy="32.519" r="2"/>
  <circle cx="79.553" cy="30.823" r=".875"/>
  <circle cx="70.325" cy="31.397" r=".75"/>
  <circle cx="75.463" cy="26.883" r=".75"/>
 </g>
 <g fill="#50FA7B">
  <circle cx="39.556" cy="40.563" r="1.25"/>
  <circle cx="45.906" cy="38.023" r="1.25"/>
  <circle cx="22.357" cy="66.21" r="1.25"/>
  <circle cx="28.988" cy="67.888" r="1.25"/>
  <circle cx="9.4646" cy="28.926" r="1.25"/>
  <circle cx="16.298" cy="28.651" r="1.25"/>
  <circle cx="39.556" cy="7.035" r="1.25"/>
  <circle cx="45.906" cy="4.495" r="1.25"/>
  <circle cx="58.382" cy="70.16" r="1.25"/>
  <circle cx="62.026" cy="64.372" r="1.25"/>
  <circle cx="70.325" cy="31.397" r="1.25"/>
  <circle cx="75.463" cy="26.883" r="1.25"/>
  <g fill="#50FA7B" fill-rule="evenodd">
   <path d="m70.322 71.979-0.0886 0.0408-0.0975 0.0038-0.0915-0.0337-0.0716-0.0662-0.3527-0.4854-0.0408-0.0886-0.0039-0.0975 0.0338-0.0915 0.0662-0.0717 0.4854-0.3526 0.0886-0.0409 0.0975-0.0038 0.0915 0.0338 0.0716 0.0662 0.3527 0.4854 0.0408 0.0886 0.0039 0.0975-0.0338 0.0915-0.0662 0.0716z"/>
   <path d="m68.676 69.714-0.0886 0.0409-0.0975 0.0038-0.0915-0.0338-0.0716-0.0662-0.3527-0.4854-0.0408-0.0886-0.0039-0.0975 0.0338-0.0915 0.0662-0.0716 0.4854-0.3527 0.0886-0.0408 0.0975-0.0038 0.0915 0.0337 0.0716 0.0662 0.3527 0.4854 0.0408 0.0886 0.0039 0.0975-0.0338 0.0915-0.0662 0.0717z"/>
   <path d="m81.257 36.532-0.0966 0.014-0.0945-0.024-0.0782-0.0584-0.0498-0.0838-0.2003-0.5656-0.014-0.0966 0.024-0.0945 0.0583-0.0782 0.0839-0.0498 0.5656-0.2003 0.0965-0.014 0.0945 0.024 0.0782 0.0584 0.0499 0.0838 0.2003 0.5656 0.014 0.0965-0.0241 0.0946-0.0583 0.0781-0.0838 0.0499z"/>
   <path d="m80.322 33.893-0.0965 0.014-0.0946-0.024-0.0781-0.0584-0.0499-0.0838-0.2003-0.5656-0.014-0.0966 0.024-0.0945 0.0584-0.0782 0.0838-0.0498 0.5656-0.2003 0.0965-0.014 0.0946 0.024 0.0781 0.0584 0.0499 0.0838 0.2003 0.5656 0.014 0.0965-0.024 0.0946-0.0584 0.0781-0.0838 0.0499z"/>
   <path d="m48.146 49.053-0.0957-0.019-0.0811-0.0542-0.0541-0.0811-0.0191-0.0957v-0.6l0.0191-0.0957 0.0541-0.0811 0.0811-0.0542 0.0957-0.019h0.6l0.0957 0.019 0.0811 0.0542 0.0542 0.0811 0.019 0.0957v0.6l-0.019 0.0957-0.0542 0.0811-0.0811 0.0542-0.0957 0.019z"/>
   <path d="m48.146 46.253-0.0957-0.019-0.0811-0.0542-0.0541-0.0811-0.0191-0.0957v-0.6l0.0191-0.0957 0.0541-0.0811 0.0811-0.0542 0.0957-0.019h0.6l0.0957 0.019 0.0811 0.0542 0.0542 0.0811 0.019 0.0957v0.6l-0.019 0.0957-0.0542 0.0811-0.0811 0.0542-0.0957 0.019z"/>
   <path d="m14.728 39.796-0.0838-0.0499-0.0583-0.0781-0.0241-0.0946 0.014-0.0965 0.2003-0.5656 0.0499-0.0838 0.0782-0.0584 0.0945-0.024 0.0965 0.014 0.5656 0.2003 0.0838 0.0498 0.0584 0.0782 0.024 0.0945-0.014 0.0966-0.2003 0.5656-0.0498 0.0838-0.0782 0.0584-0.0945 0.024-0.0966-0.014z"/>
   <path d="m15.662 37.157-0.0838-0.0499-0.0584-0.0781-0.024-0.0946 0.014-0.0965 0.2003-0.5656 0.0499-0.0838 0.0781-0.0584 0.0946-0.024 0.0965 0.014 0.5656 0.2003 0.0838 0.0498 0.0584 0.0782 0.024 0.0945-0.014 0.0966-0.2003 0.5656-0.0499 0.0838-0.0781 0.0584-0.0946 0.024-0.0965-0.014z"/>
   <path d="m24.316 78.128-0.0662-0.0716-0.0337-0.0915 0.0038-0.0975 0.0408-0.0886 0.3527-0.4854 0.0716-0.0662 0.0915-0.0338 0.0975 0.0038 0.0886 0.0409 0.4854 0.3527 0.0662 0.0716 0.0338 0.0915-0.0038 0.0975-0.0409 0.0886-0.3527 0.4854-0.0716 0.0662-0.0915 0.0337-0.0975-0.0038-0.0886-0.0408z"/>
   <path d="m25.962 75.863-0.0662-0.0717-0.0337-0.0915 0.0038-0.0975 0.0408-0.0885 0.3527-0.4855 0.0716-0.0662 0.0915-0.0337 0.0975 0.0038 0.0886 0.0408 0.4854 0.3527 0.0662 0.0716 0.0338 0.0916-0.0039 0.0974-0.0408 0.0886-0.3527 0.4854-0.0716 0.0662-0.0915 0.0338-0.0975-0.0038-0.0886-0.0409z"/>
   <path d="m48.146 15.525-0.0957-0.019-0.0811-0.0542-0.0541-0.0811-0.0191-0.0957v-0.6l0.0191-0.0957 0.0541-0.0811 0.0811-0.0542 0.0957-0.019h0.6l0.0957 0.019 0.0811 0.0542 0.0542 0.0811 0.019 0.0957v0.6l-0.019 0.0957-0.0542 0.0811-0.0811 0.0542-0.0957 0.019z"/>
   <path d="m48.146 12.725-0.0957-0.019-0.0811-0.0542-0.0541-0.0811-0.0191-0.0957v-0.6l0.0191-0.0957 0.0541-0.0811 0.0811-0.0542 0.0957-0.019h0.6l0.0957 0.019 0.0811 0.0542 0.0542 0.0811 0.019 0.0957v0.6l-0.019 0.0957-0.0542 0.0811-0.0811 0.0542-0.0957 0.019z"/>
  </g>
 </g>
 <g fill="none" stroke="#50FA7B" stroke-linecap="round" stroke-linejoin="round" stroke-width=".2">
  <path d="m45.906 4.495v5.14"/>
  <path d="m45.906 9.635 2.54 2.54"/>
  <path d="m14.582 33.496 1.5464 3.2422"/>
  <path d="m16.298 28.651-1.7157 4.8452"/>
  <path d="m45.906 43.163 2.54 2.54"/>
  <path d="m45.906 38.023v5.14"/>
  <path d="m75.463 26.883 1.7157 4.8451"/>
  <path d="m77.179 31.728 3.2422 1.5465"/>
  <path d="m28.988 67.888-3.0212 4.1584"/>
  <path d="m25.966 72.046 0.5619 3.5478"/>
  <path d="m62.026 64.372 3.0212 4.1583"/>
  <path d="m65.047 68.531 3.5479 0.5619"/>
 </g>
 <g fill="#fff">
  <circle cx="38.286" cy="43.103" r=".875"/>
  <circle cx="43.366" cy="43.103" r="2"/>
  <circle cx="48.446" cy="43.103" r=".875"/>
  <circle cx="39.556" cy="40.563" r=".75"/>
  <circle cx="45.906" cy="38.023" r=".75"/>
  <circle cx="19.837" cy="67.519" r=".875"/>
  <circle cx="23.947" cy="70.504" r="2"/>
  <circle cx="28.057" cy="73.49" r=".875"/>
  <circle cx="22.357" cy="66.21" r=".75"/>
  <circle cx="28.988" cy="67.888" r=".75"/>
  <circle cx="7.4196" cy="30.896" r=".875"/>
  <circle cx="12.208" cy="32.592" r="2"/>
  <circle cx="16.997" cy="34.287" r=".875"/>
  <circle cx="9.4646" cy="28.926" r=".75"/>
  <circle cx="16.298" cy="28.651" r=".75"/>
  <circle cx="38.286" cy="9.575" r=".875"/>
  <circle cx="43.366" cy="9.575" r="2"/>
  <circle cx="48.446" cy="9.575" r=".875"/>
  <circle cx="39.556" cy="7.035" r=".75"/>
  <circle cx="45.906" cy="4.495" r=".75"/>
  <circle cx="58.847" cy="72.961" r=".875"/>
  <circle cx="62.957" cy="69.975" r="2"/>
  <circle cx="67.067" cy="66.989" r=".875"/>
  <circle cx="58.382" cy="70.16" r=".75"/>
  <circle cx="62.026" cy="64.372" r=".75"/>
  <circle cx="69.976" cy="34.215" r=".875"/>
  <circle cx="74.765" cy="32.519" r="2"/>
  <circle cx="79.553" cy="30.823" r=".875"/>
  <circle cx="70.325" cy="31.397" r=".75"/>
  <circle cx="75.463" cy="26.883" r=".75"/>
 </g>
</svg>
