<?xml version="1.0" encoding="UTF-8"?>
<svg xmlns="http://www.w3.org/2000/svg" xmlns:xlink="http://www.w3.org/1999/xlink"
     width="244" height="236" viewBox="-40 -29 244 236">
<defs>
<g id="d0">
<rect x="0" y="0" width="52" height="52" rx="5" fill="none" stroke="black" stroke-width="2" />
<rect x="1.0" y="1.0" width="50.0" height="50.0" rx="4.0" fill="#cccccc" />
<rect x="6" y="4" width="40" height="40" rx="5" fill="#fbfbfb" />
<text x="7" y="7" font-size="12" text-anchor="start" dominant-baseline="hanging"><tspan x="7" dy="0em">0,1</tspan></text>
</g>
<g id="d1">
<rect x="0" y="0" width="52" height="52" rx="5" fill="none" stroke="black" stroke-width="2" />
<rect x="1.0" y="1.0" width="50.0" height="50.0" rx="4.0" fill="#cccccc" />
<rect x="6" y="4" width="40" height="40" rx="5" fill="#fbfbfb" />
<text x="7" y="7" font-size="12" text-anchor="start" dominant-baseline="hanging"><tspan x="7" dy="0em">1,1</tspan></text>
</g>
<g id="d2">
<rect x="0" y="0" width="52" height="52" rx="5" fill="none" stroke="black" stroke-width="2" />
<rect x="1.0" y="1.0" width="50.0" height="50.0" rx="4.0" fill="#cccccc" />
<rect x="6" y="4" width="40" height="40" rx="5" fill="#fbfbfb" />
<text x="7" y="7" font-size="12" text-anchor="start" dominant-baseline="hanging"><tspan x="7" dy="0em">1,0</tspan></text>
</g>
<g id="d3">
<rect x="0" y="0" width="52" height="52" rx="5" fill="none" stroke="black" stroke-width="2" />
<rect x="1.0" y="1.0" width="50.0" height="50.0" rx="4.0" fill="#cccccc" />
<rect x="6" y="4" width="40" height="40" rx="5" fill="#fbfbfb" />
<text x="7" y="7" font-size="12" text-anchor="start" dominant-baseline="hanging"><tspan x="7" dy="0em">2,0</tspan></text>
</g>
<g id="d4">
<rect x="0" y="0" width="52" height="52" rx="5" fill="none" stroke="black" stroke-width="2" />
<rect x="1.0" y="1.0" width="50.0" height="50.0" rx="4.0" fill="#cccccc" />
<rect x="6" y="4" width="40" height="40" rx="5" fill="#fbfbfb" />
<text x="7" y="7" font-size="12" text-anchor="start" dominant-baseline="hanging"><tspan x="7" dy="0em">2,2</tspan></text>
</g>
<g id="d5">
<rect x="0" y="0" width="52" height="52" rx="5" fill="none" stroke="black" stroke-width="2" />
<rect x="1.0" y="1.0" width="50.0" height="50.0" rx="4.0" fill="#cccccc" />
<rect x="6" y="4" width="40" height="40" rx="5" fill="#fbfbfb" />
<text x="7" y="7" font-size="12" text-anchor="start" dominant-baseline="hanging"><tspan x="7" dy="0em">1,2</tspan></text>
</g>
</defs>
<use xlink:href="#d0" x="56" y="-25.120000000000005" />
<use xlink:href="#d1" x="56.0" y="66.4" />
<use xlink:href="#d2" x="-18.88" y="30.52" transform="rotate(19.5 -22.88 26.52)" />
<use xlink:href="#d3" x="23.24" y="130.88" transform="rotate(36 19.24 126.88)" />
<use xlink:href="#d4" x="99.16" y="160" transform="rotate(-36 95.16 156)" />
<use xlink:href="#d5" x="134.51999999999998" y="47.68" transform="rotate(-19.5 130.51999999999998 43.68)" />
</svg>