<?xml version="1.0" encoding="UTF-8"?>
<!DOCTYPE svg  PUBLIC '-//W3C//DTD SVG 1.1//EN'  'http://www.w3.org/Graphics/SVG/1.1/DTD/svg11.dtd'>
<svg width="57.226mm" height="74.752mm" version="1.1" viewBox="0 0 57.226 74.752" xmlns="http://www.w3.org/2000/svg">
 <title>SVG Image created as momokai_aurora-render.svg date 2026/07/14 10:40:33</title>
 <desc>Image generated by PCBNEW</desc>
 <rect width="57.226mm" height="74.752mm" fill="#282A36"/>
 <g fill="#f55">
  <circle cx="5.765" cy="43.608" r="1.25"/>
  <circle cx="12.115" cy="41.068" r="1.25"/>
  <circle cx="24.815" cy="43.608" r="1.25"/>
  <circle cx="31.165" cy="41.068" r="1.25"/>
  <path d="m20.125 6.5482v-2h2v2z" fill="#f55" fill-rule="evenodd"/>
  <circle cx="21.125" cy="10.548" r="1"/>
  <circle cx="21.125" cy="8.0482" r="1"/>
  <path d="m27.025 3.4482v-1.9999h3.2v1.9999z" fill="#f55" fill-rule="evenodd"/>
  <path d="m27.025 14.648v-2h3.2v2z" fill="#f55" fill-rule="evenodd"/>
  <circle cx="35.625" cy="10.548" r="1"/>
  <circle cx="35.625" cy="5.5482" r="1"/>
  <circle cx="24.815" cy="62.658" r="1.25"/>
  <circle cx="31.165" cy="60.118" r="1.25"/>
  <circle cx="43.865" cy="43.608" r="1.25"/>
  <circle cx="50.215" cy="41.068" r="1.25"/>
  <circle cx="5.765" cy="62.658" r="1.25"/>
  <circle cx="12.115" cy="60.118" r="1.25"/>
  <circle cx="43.865" cy="62.658" r="1.25"/>
  <circle cx="50.215" cy="60.118" r="1.25"/>
 </g>
 <g fill="none" stroke="#f55" stroke-linecap="round" stroke-linejoin="round" stroke-width=".2">
  <path d="m5.765 43.608v19.05"/>
  <path d="m24.815 21.358 10.81-10.81"/>
  <path d="m24.815 43.608v19.05"/>
  <path d="m24.815 43.608v-22.25"/>
  <path d="m43.865 43.608v19.05"/>
 </g>
 <g fill="#50FA7B">
  <circle cx="5.765" cy="43.608" r="1.25"/>
  <circle cx="12.115" cy="41.068" r="1.25"/>
  <circle cx="24.815" cy="43.608" r="1.25"/>
  <circle cx="31.165" cy="41.068" r="1.25"/>
  <path d="m20.125 6.5482v-2h2v2z" fill="#50FA7B" fill-rule="evenodd"/>
  <circle cx="21.125" cy="10.548" r="1"/>
  <circle cx="21.125" cy="8.0482" r="1"/>
  <path d="m27.025 3.4482v-1.9999h3.2v1.9999z" fill="#50FA7B" fill-rule="evenodd"/>
  <path d="m27.025 14.648v-2h3.2v2z" fill="#50FA7B" fill-rule="evenodd"/>
  <circle cx="35.625" cy="10.548" r="1"/>
  <circle cx="35.625" cy="5.5482" r="1"/>
  <circle cx="24.815" cy="62.658" r="1.25"/>
  <circle cx="31.165" cy="60.118" r="1.25"/>
  <circle cx="43.865" cy="43.608" r="1.25"/>
  <circle cx="50.215" cy="41.068" r="1.25"/>
  <circle cx="5.765" cy="62.658" r="1.25"/>
  <circle cx="12.115" cy="60.118" r="1.25"/>
  <circle cx="43.865" cy="62.658" r="1.25"/>
  <circle cx="50.215" cy="60.118" r="1.25"/>
  <g fill="#50FA7B" fill-rule="evenodd">
   <path d="m52.455 52.098-0.0957-0.0191-0.0811-0.0542-0.0542-0.0811-0.019-0.0956v-0.6001l0.019-0.0956 0.0542-0.0811 0.0811-0.0542 0.0957-0.0191h0.6l0.0957 0.0191 0.0811 0.0542 0.0542 0.0811 0.019 0.0956v0.6001l-0.019 0.0956-0.0542 0.0811-0.0811 0.0542-0.0957 0.0191z"/>
   <path d="m52.455 49.298-0.0957-0.019-0.0811-0.0542-0.0542-0.0811-0.019-0.0957v-0.6l0.019-0.0956 0.0542-0.0811 0.0811-0.0542 0.0957-0.0191h0.6l0.0957 0.0191 0.0811 0.0542 0.0542 0.0811 0.019 0.0956v0.6l-0.019 0.0957-0.0542 0.0811-0.0811 0.0542-0.0957 0.019z"/>
   <path d="m14.355 52.098-0.0957-0.0191-0.0811-0.0542-0.0542-0.0811-0.019-0.0956v-0.6001l0.019-0.0956 0.0542-0.0811 0.0811-0.0542 0.0957-0.0191h0.6l0.0957 0.0191 0.0811 0.0542 0.0542 0.0811 0.019 0.0956v0.6001l-0.019 0.0956-0.0542 0.0811-0.0811 0.0542-0.0957 0.0191z"/>
   <path d="m14.355 49.298-0.0957-0.019-0.0811-0.0542-0.0542-0.0811-0.019-0.0957v-0.6l0.019-0.0956 0.0542-0.0811 0.0811-0.0542 0.0957-0.0191h0.6l0.0957 0.0191 0.0811 0.0542 0.0542 0.0811 0.019 0.0956v0.6l-0.019 0.0957-0.0542 0.0811-0.0811 0.0542-0.0957 0.019z"/>
   <path d="m33.405 71.148-0.0957-0.019-0.0811-0.0542-0.0542-0.0811-0.019-0.0957v-0.6l0.019-0.0956 0.0542-0.0811 0.0811-0.0542 0.0957-0.0191h0.6l0.0957 0.0191 0.0811 0.0542 0.0542 0.0811 0.019 0.0956v0.6l-0.019 0.0957-0.0542 0.0811-0.0811 0.0542-0.0957 0.019z"/>
   <path d="m33.405 68.348-0.0957-0.019-0.0811-0.0542-0.0542-0.0811-0.019-0.0957v-0.6l0.019-0.0956 0.0542-0.0811 0.0811-0.0542 0.0957-0.0191h0.6l0.0957 0.0191 0.0811 0.0542 0.0542 0.0811 0.019 0.0956v0.6l-0.019 0.0957-0.0542 0.0811-0.0811 0.0542-0.0957 0.019z"/>
   <path d="m52.455 71.148-0.0957-0.019-0.0811-0.0542-0.0542-0.0811-0.019-0.0957v-0.6l0.019-0.0956 0.0542-0.0811 0.0811-0.0542 0.0957-0.0191h0.6l0.0957 0.0191 0.0811 0.0542 0.0542 0.0811 0.019 0.0956v0.6l-0.019 0.0957-0.0542 0.0811-0.0811 0.0542-0.0957 0.019z"/>
   <path d="m52.455 68.348-0.0957-0.019-0.0811-0.0542-0.0542-0.0811-0.019-0.0957v-0.6l0.019-0.0956 0.0542-0.0811 0.0811-0.0542 0.0957-0.0191h0.6l0.0957 0.0191 0.0811 0.0542 0.0542 0.0811 0.019 0.0956v0.6l-0.019 0.0957-0.0542 0.0811-0.0811 0.0542-0.0957 0.019z"/>
   <path d="m14.355 71.148-0.0957-0.019-0.0811-0.0542-0.0542-0.0811-0.019-0.0957v-0.6l0.019-0.0956 0.0542-0.0811 0.0811-0.0542 0.0957-0.0191h0.6l0.0957 0.0191 0.0811 0.0542 0.0542 0.0811 0.019 0.0956v0.6l-0.019 0.0957-0.0542 0.0811-0.0811 0.0542-0.0957 0.019z"/>
   <path d="m14.355 68.348-0.0957-0.019-0.0811-0.0542-0.0542-0.0811-0.019-0.0957v-0.6l0.019-0.0956 0.0542-0.0811 0.0811-0.0542 0.0957-0.0191h0.6l0.0957 0.0191 0.0811 0.0542 0.0542 0.0811 0.019 0.0956v0.6l-0.019 0.0957-0.0542 0.0811-0.0811 0.0542-0.0957 0.019z"/>
   <path d="m33.405 52.098-0.0957-0.0191-0.0811-0.0542-0.0542-0.0811-0.019-0.0956v-0.6001l0.019-0.0956 0.0542-0.0811 0.0811-0.0542 0.0957-0.0191h0.6l0.0957 0.0191 0.0811 0.0542 0.0542 0.0811 0.019 0.0956v0.6001l-0.019 0.0956-0.0542 0.0811-0.0811 0.0542-0.0957 0.0191z"/>
   <path d="m33.405 49.298-0.0957-0.019-0.0811-0.0542-0.0542-0.0811-0.019-0.0957v-0.6l0.019-0.0956 0.0542-0.0811 0.0811-0.0542 0.0957-0.0191h0.6l0.0957 0.0191 0.0811 0.0542 0.0542 0.0811 0.019 0.0956v0.6l-0.019 0.0957-0.0542 0.0811-0.0811 0.0542-0.0957 0.019z"/>
   <path d="m25.905 11.498-0.0957-0.019-0.0811-0.0542-0.0542-0.0811-0.019-0.0957v-0.6l0.019-0.0956 0.0542-0.0811 0.0811-0.0542 0.0957-0.0191h0.6l0.0957 0.0191 0.0811 0.0542 0.0542 0.0811 0.019 0.0956v0.6l-0.019 0.0957-0.0542 0.0811-0.0811 0.0542-0.0957 0.019z"/>
   <path d="m25.905 8.6982-0.0957-0.019-0.0811-0.0542-0.0542-0.0811-0.019-0.0957v-0.6l0.019-0.0956 0.0542-0.0811 0.0811-0.0542 0.0957-0.0191h0.6l0.0957 0.0191 0.0811 0.0542 0.0542 0.0811 0.019 0.0956v0.6l-0.019 0.0957-0.0542 0.0811-0.0811 0.0542-0.0957 0.019z"/>
  </g>
 </g>
 <g fill="none" stroke-linecap="round" stroke-linejoin="round">
  <g stroke="#50FA7B" stroke-width=".2">
   <path d="m28.805 5.5482-2.6 2.6"/>
   <path d="m35.625 5.5482h-6.82"/>
   <path d="m12.115 46.208 2.54 2.54"/>
   <path d="m12.115 41.068v5.14"/>
   <path d="m31.165 46.208 2.54 2.54"/>
   <path d="m31.165 41.068v5.14"/>
   <path d="m50.215 46.208 2.54 2.54"/>
   <path d="m50.215 41.068v5.14"/>
   <path d="m12.115 65.258 2.54 2.5399"/>
   <path d="m12.115 60.118v5.1401"/>
   <path d="m31.165 60.118v5.1401"/>
   <path d="m31.165 65.258 2.54 2.5399"/>
   <path d="m50.215 65.258 2.54 2.5399"/>
   <path d="m50.215 60.118v5.1401"/>
   <path d="m14.655 51.548h19.05"/>
   <path d="m33.705 51.548h19.05"/>
   <path d="m33.705 70.598h19.05"/>
   <path d="m14.655 70.598h19.05"/>
  </g>
  <g stroke="#8BE9FD" stroke-width=".15">
   <text x="9.5750" y="38.6482" font-size="1.3333" opacity="0" stroke-opacity="0" text-anchor="middle" lengthAdjust="spacingAndGlyphs" textLength="3.2976">SW2</text>
   <g class="stroked-text">
    <desc>SW2</desc>
    <path d="m8.2417 38.556 0.1428 0.0476"/>
    <path d="m8.3845 38.603h0.2381"/>
    <path d="m8.6226 38.603 0.0953-0.0476"/>
    <path d="m8.7179 38.556 0.0476-0.0477"/>
    <path d="m8.7655 38.508 0.0476-0.0952"/>
    <path d="m8.8131 38.413v-0.0952"/>
    <path d="m8.8131 38.317-0.0476-0.0953"/>
    <path d="m8.7655 38.222-0.0476-0.0476"/>
    <path d="m8.7179 38.174-0.0953-0.0476"/>
    <path d="m8.6226 38.127-0.1905-0.0476"/>
    <path d="m8.4321 38.079-0.0952-0.0477"/>
    <path d="m8.3369 38.032-0.0476-0.0476"/>
    <path d="m8.2893 37.984-0.0476-0.0952"/>
    <path d="m8.2417 37.889v-0.0953"/>
    <path d="m8.2417 37.794 0.0476-0.0952"/>
    <path d="m8.2893 37.698 0.0476-0.0476"/>
    <path d="m8.3369 37.651 0.0952-0.0476"/>
    <path d="m8.4321 37.603h0.2381"/>
    <path d="m8.6702 37.603 0.1429 0.0476"/>
    <path d="m9.1464 37.603 0.2381 1"/>
    <path d="m9.3845 38.603 0.1905-0.7143"/>
    <path d="m9.575 37.889 0.1905 0.7143"/>
    <path d="m9.7655 38.603 0.2381-1"/>
    <path d="m10.337 37.698 0.0476-0.0476"/>
    <path d="m10.384 37.651 0.0953-0.0476"/>
    <path d="m10.48 37.603h0.2381"/>
    <path d="m10.718 37.603 0.0952 0.0476"/>
    <path d="m10.813 37.651 0.0476 0.0476"/>
    <path d="m10.861 37.698 0.0476 0.0952"/>
    <path d="m10.908 37.794v0.0953"/>
    <path d="m10.908 37.889-0.0476 0.1428"/>
    <path d="m10.861 38.032-0.5714 0.5715"/>
    <path d="m10.289 38.603h0.619"/>
   </g>
   <text x="28.6250" y="38.6482" font-size="1.3333" opacity="0" stroke-opacity="0" text-anchor="middle" lengthAdjust="spacingAndGlyphs" textLength="3.2976">SW3</text>
   <g class="stroked-text">
    <desc>SW3</desc>
    <path d="m27.292 38.556 0.1428 0.0476"/>
    <path d="m27.434 38.603h0.2381"/>
    <path d="m27.673 38.603 0.0953-0.0476"/>
    <path d="m27.768 38.556 0.0476-0.0477"/>
    <path d="m27.816 38.508 0.0476-0.0952"/>
    <path d="m27.863 38.413v-0.0952"/>
    <path d="m27.863 38.317-0.0476-0.0953"/>
    <path d="m27.816 38.222-0.0476-0.0476"/>
    <path d="m27.768 38.174-0.0953-0.0476"/>
    <path d="m27.673 38.127-0.1905-0.0476"/>
    <path d="m27.482 38.079-0.0952-0.0477"/>
    <path d="m27.387 38.032-0.0476-0.0476"/>
    <path d="m27.339 37.984-0.0476-0.0952"/>
    <path d="m27.292 37.889v-0.0953"/>
    <path d="m27.292 37.794 0.0476-0.0952"/>
    <path d="m27.339 37.698 0.0476-0.0476"/>
    <path d="m27.387 37.651 0.0952-0.0476"/>
    <path d="m27.482 37.603h0.2381"/>
    <path d="m27.72 37.603 0.1429 0.0476"/>
    <path d="m28.196 37.603 0.2381 1"/>
    <path d="m28.434 38.603 0.1905-0.7143"/>
    <path d="m28.625 37.889 0.1905 0.7143"/>
    <path d="m28.816 38.603 0.2381-1"/>
    <path d="m29.339 37.603h0.619"/>
    <path d="m29.958 37.603-0.3333 0.3809"/>
    <path d="m29.625 37.984h0.1429"/>
    <path d="m29.768 37.984 0.0952 0.0476"/>
    <path d="m29.863 38.032 0.0476 0.0477"/>
    <path d="m29.911 38.079 0.0476 0.0952"/>
    <path d="m29.958 38.174v0.2381"/>
    <path d="m29.958 38.413-0.0476 0.0952"/>
    <path d="m29.911 38.508-0.0476 0.0477"/>
    <path d="m29.863 38.556-0.0952 0.0476"/>
    <path d="m29.768 38.603h-0.2858"/>
    <path d="m29.482 38.603-0.0952-0.0476"/>
    <path d="m29.387 38.556-0.0476-0.0477"/>
   </g>
   <text x="23.9250" y="1.3482" font-size="1.3333" opacity="0" stroke-opacity="0" text-anchor="middle" lengthAdjust="spacingAndGlyphs" textLength="3.2976">SW1</text>
   <g class="stroked-text">
    <desc>SW1</desc>
    <path d="m22.592 1.2554 0.1428 0.0477"/>
    <path d="m22.734 1.3031h0.2381"/>
    <path d="m22.973 1.3031 0.0953-0.0477"/>
    <path d="m23.068 1.2554 0.0476-0.0476"/>
    <path d="m23.116 1.2078 0.0476-0.0952"/>
    <path d="m23.163 1.1126v-0.0952"/>
    <path d="m23.163 1.0174-0.0476-0.0953"/>
    <path d="m23.116 0.9221-0.0476-0.0476"/>
    <path d="m23.068 0.8745-0.0953-0.0476"/>
    <path d="m22.973 0.8269-0.1905-0.0476"/>
    <path d="m22.782 0.7793-0.0952-0.0477"/>
    <path d="m22.687 0.7316-0.0476-0.0476"/>
    <path d="m22.639 0.684-0.0476-0.0952"/>
    <path d="m22.592 0.5888v-0.0953"/>
    <path d="m22.592 0.4935 0.0476-0.0952"/>
    <path d="m22.639 0.3983 0.0476-0.0476"/>
    <path d="m22.687 0.3507 0.0952-0.0476"/>
    <path d="m22.782 0.3031h0.2381"/>
    <path d="m23.02 0.3031 0.1429 0.0476"/>
    <path d="m23.496 0.3031 0.2381 1"/>
    <path d="m23.734 1.3031 0.1905-0.7143"/>
    <path d="m23.925 0.5888 0.1905 0.7143"/>
    <path d="m24.116 1.3031 0.2381-1"/>
    <path d="m25.258 1.3031h-0.5714"/>
    <path d="m24.973 1.3031v-1"/>
    <path d="m24.973 0.3031-0.0952 0.1428"/>
    <path d="m24.877 0.4459-0.0953 0.0953"/>
    <path d="m24.782 0.5412-0.0952 0.0476"/>
   </g>
   <text x="28.6250" y="57.6982" font-size="1.3333" opacity="0" stroke-opacity="0" text-anchor="middle" lengthAdjust="spacingAndGlyphs" textLength="3.2976">SW6</text>
   <g class="stroked-text">
    <desc>SW6</desc>
    <path d="m27.292 57.605 0.1428 0.0477"/>
    <path d="m27.434 57.653h0.2381"/>
    <path d="m27.673 57.653 0.0953-0.0477"/>
    <path d="m27.768 57.605 0.0476-0.0476"/>
    <path d="m27.816 57.558 0.0476-0.0952"/>
    <path d="m27.863 57.463v-0.0952"/>
    <path d="m27.863 57.367-0.0476-0.0953"/>
    <path d="m27.816 57.272-0.0476-0.0476"/>
    <path d="m27.768 57.224-0.0953-0.0476"/>
    <path d="m27.673 57.177-0.1905-0.0476"/>
    <path d="m27.482 57.129-0.0952-0.0477"/>
    <path d="m27.387 57.082-0.0476-0.0476"/>
    <path d="m27.339 57.034-0.0476-0.0952"/>
    <path d="m27.292 56.939v-0.0953"/>
    <path d="m27.292 56.844 0.0476-0.0952"/>
    <path d="m27.339 56.748 0.0476-0.0476"/>
    <path d="m27.387 56.701 0.0952-0.0476"/>
    <path d="m27.482 56.653h0.2381"/>
    <path d="m27.72 56.653 0.1429 0.0476"/>
    <path d="m28.196 56.653 0.2381 1"/>
    <path d="m28.434 57.653 0.1905-0.7143"/>
    <path d="m28.625 56.939 0.1905 0.7143"/>
    <path d="m28.816 57.653 0.2381-1"/>
    <path d="m29.863 56.653h-0.1905"/>
    <path d="m29.673 56.653-0.0952 0.0476"/>
    <path d="m29.577 56.701-0.0476 0.0476"/>
    <path d="m29.53 56.748-0.0953 0.1429"/>
    <path d="m29.434 56.891-0.0476 0.1904"/>
    <path d="m29.387 57.082v0.381"/>
    <path d="m29.387 57.463 0.0476 0.0952"/>
    <path d="m29.434 57.558 0.0476 0.0476"/>
    <path d="m29.482 57.605 0.0953 0.0477"/>
    <path d="m29.577 57.653h0.1905"/>
    <path d="m29.768 57.653 0.0952-0.0477"/>
    <path d="m29.863 57.605 0.0476-0.0476"/>
    <path d="m29.911 57.558 0.0476-0.0952"/>
    <path d="m29.958 57.463v-0.2381"/>
    <path d="m29.958 57.224-0.0476-0.0952"/>
    <path d="m29.911 57.129-0.0476-0.0477"/>
    <path d="m29.863 57.082-0.0952-0.0476"/>
    <path d="m29.768 57.034h-0.1905"/>
    <path d="m29.577 57.034-0.0953 0.0476"/>
    <path d="m29.482 57.082-0.0476 0.0477"/>
    <path d="m29.434 57.129-0.0476 0.0952"/>
   </g>
   <text x="47.6750" y="38.6482" font-size="1.3333" opacity="0" stroke-opacity="0" text-anchor="middle" lengthAdjust="spacingAndGlyphs" textLength="3.2976">SW4</text>
   <g class="stroked-text">
    <desc>SW4</desc>
    <path d="m46.342 38.556 0.1428 0.0476"/>
    <path d="m46.484 38.603h0.2381"/>
    <path d="m46.723 38.603 0.0953-0.0476"/>
    <path d="m46.818 38.556 0.0476-0.0477"/>
    <path d="m46.866 38.508 0.0476-0.0952"/>
    <path d="m46.913 38.413v-0.0952"/>
    <path d="m46.913 38.317-0.0476-0.0953"/>
    <path d="m46.866 38.222-0.0476-0.0476"/>
    <path d="m46.818 38.174-0.0953-0.0476"/>
    <path d="m46.723 38.127-0.1905-0.0476"/>
    <path d="m46.532 38.079-0.0952-0.0477"/>
    <path d="m46.437 38.032-0.0476-0.0476"/>
    <path d="m46.389 37.984-0.0476-0.0952"/>
    <path d="m46.342 37.889v-0.0953"/>
    <path d="m46.342 37.794 0.0476-0.0952"/>
    <path d="m46.389 37.698 0.0476-0.0476"/>
    <path d="m46.437 37.651 0.0952-0.0476"/>
    <path d="m46.532 37.603h0.2381"/>
    <path d="m46.77 37.603 0.1429 0.0476"/>
    <path d="m47.246 37.603 0.2381 1"/>
    <path d="m47.484 38.603 0.1905-0.7143"/>
    <path d="m47.675 37.889 0.1905 0.7143"/>
    <path d="m47.866 38.603 0.2381-1"/>
    <path d="m48.913 37.936v0.6667"/>
    <path d="m48.675 37.556-0.2381 0.7142"/>
    <path d="m48.437 38.27h0.6191"/>
   </g>
   <text x="9.5750" y="57.6982" font-size="1.3333" opacity="0" stroke-opacity="0" text-anchor="middle" lengthAdjust="spacingAndGlyphs" textLength="3.2976">SW5</text>
   <g class="stroked-text">
    <desc>SW5</desc>
    <path d="m8.2417 57.605 0.1428 0.0477"/>
    <path d="m8.3845 57.653h0.2381"/>
    <path d="m8.6226 57.653 0.0953-0.0477"/>
    <path d="m8.7179 57.605 0.0476-0.0476"/>
    <path d="m8.7655 57.558 0.0476-0.0952"/>
    <path d="m8.8131 57.463v-0.0952"/>
    <path d="m8.8131 57.367-0.0476-0.0953"/>
    <path d="m8.7655 57.272-0.0476-0.0476"/>
    <path d="m8.7179 57.224-0.0953-0.0476"/>
    <path d="m8.6226 57.177-0.1905-0.0476"/>
    <path d="m8.4321 57.129-0.0952-0.0477"/>
    <path d="m8.3369 57.082-0.0476-0.0476"/>
    <path d="m8.2893 57.034-0.0476-0.0952"/>
    <path d="m8.2417 56.939v-0.0953"/>
    <path d="m8.2417 56.844 0.0476-0.0952"/>
    <path d="m8.2893 56.748 0.0476-0.0476"/>
    <path d="m8.3369 56.701 0.0952-0.0476"/>
    <path d="m8.4321 56.653h0.2381"/>
    <path d="m8.6702 56.653 0.1429 0.0476"/>
    <path d="m9.1464 56.653 0.2381 1"/>
    <path d="m9.3845 57.653 0.1905-0.7143"/>
    <path d="m9.575 56.939 0.1905 0.7143"/>
    <path d="m9.7655 57.653 0.2381-1"/>
    <path d="m10.861 56.653h-0.4762"/>
    <path d="m10.384 56.653-0.0476 0.4762"/>
    <path d="m10.337 57.129 0.0476-0.0477"/>
    <path d="m10.384 57.082 0.0953-0.0476"/>
    <path d="m10.48 57.034h0.2381"/>
    <path d="m10.718 57.034 0.0952 0.0476"/>
    <path d="m10.813 57.082 0.0476 0.0477"/>
    <path d="m10.861 57.129 0.0476 0.0952"/>
    <path d="m10.908 57.224v0.2381"/>
    <path d="m10.908 57.463-0.0476 0.0952"/>
    <path d="m10.861 57.558-0.0476 0.0476"/>
    <path d="m10.813 57.605-0.0952 0.0477"/>
    <path d="m10.718 57.653h-0.2381"/>
    <path d="m10.48 57.653-0.0953-0.0477"/>
    <path d="m10.384 57.605-0.0476-0.0476"/>
   </g>
   <text x="47.6750" y="57.6982" font-size="1.3333" opacity="0" stroke-opacity="0" text-anchor="middle" lengthAdjust="spacingAndGlyphs" textLength="3.2976">SW7</text>
   <g class="stroked-text">
    <desc>SW7</desc>
    <path d="m46.342 57.605 0.1428 0.0477"/>
    <path d="m46.484 57.653h0.2381"/>
    <path d="m46.723 57.653 0.0953-0.0477"/>
    <path d="m46.818 57.605 0.0476-0.0476"/>
    <path d="m46.866 57.558 0.0476-0.0952"/>
    <path d="m46.913 57.463v-0.0952"/>
    <path d="m46.913 57.367-0.0476-0.0953"/>
    <path d="m46.866 57.272-0.0476-0.0476"/>
    <path d="m46.818 57.224-0.0953-0.0476"/>
    <path d="m46.723 57.177-0.1905-0.0476"/>
    <path d="m46.532 57.129-0.0952-0.0477"/>
    <path d="m46.437 57.082-0.0476-0.0476"/>
    <path d="m46.389 57.034-0.0476-0.0952"/>
    <path d="m46.342 56.939v-0.0953"/>
    <path d="m46.342 56.844 0.0476-0.0952"/>
    <path d="m46.389 56.748 0.0476-0.0476"/>
    <path d="m46.437 56.701 0.0952-0.0476"/>
    <path d="m46.532 56.653h0.2381"/>
    <path d="m46.77 56.653 0.1429 0.0476"/>
    <path d="m47.246 56.653 0.2381 1"/>
    <path d="m47.484 57.653 0.1905-0.7143"/>
    <path d="m47.675 56.939 0.1905 0.7143"/>
    <path d="m47.866 57.653 0.2381-1"/>
    <path d="m48.389 56.653h0.6667"/>
    <path d="m49.056 56.653-0.4286 1"/>
   </g>
  </g>
  <g stroke="#8BE9FD" stroke-width=".12">
   <path d="m2.475 39.048v14.2"/>
   <path d="m2.475 53.248h14.2"/>
   <path d="m16.675 39.048h-14.2"/>
   <path d="m16.675 53.248v-14.2"/>
   <path d="m21.525 39.048v14.2"/>
   <path d="m21.525 53.248h14.2"/>
   <path d="m35.725 39.048h-14.2"/>
   <path d="m35.725 53.248v-14.2"/>
   <path d="m20.825 3.9482h0.6"/>
   <path d="m21.125 4.2482-0.3-0.3"/>
   <path d="m21.425 3.9482-0.3 0.3"/>
   <path d="m22.525 2.1482v11.8"/>
   <path d="m26.625 2.1482h-4.1"/>
   <path d="m26.625 13.948h-4.1"/>
   <path d="m28.125 8.0482h1"/>
   <path d="m28.625 7.5482v1"/>
   <path d="m30.625 2.1482h4.1"/>
   <path d="m34.725 2.1482v2.4"/>
   <path d="m34.725 6.7482v2.6001"/>
   <path d="m34.725 11.548v2.4"/>
   <path d="m34.725 13.948h-4.1"/>
   <circle cx="28.625" cy="8.0482" r="3"/>
   <path d="m21.525 58.098v14.2"/>
   <path d="m21.525 72.298h14.2"/>
   <path d="m35.725 58.098h-14.2"/>
   <path d="m35.725 72.298v-14.2"/>
   <path d="m40.575 39.048v14.2"/>
   <path d="m40.575 53.248h14.2"/>
   <path d="m54.775 39.048h-14.2"/>
   <path d="m54.775 53.248v-14.2"/>
   <path d="m2.475 58.098v14.2"/>
   <path d="m2.475 72.298h14.2"/>
   <path d="m16.675 58.098h-14.2"/>
   <path d="m16.675 72.298v-14.2"/>
   <path d="m40.575 58.098v14.2"/>
   <path d="m40.575 72.298h14.2"/>
   <path d="m54.775 58.098h-14.2"/>
   <path d="m54.775 72.298v-14.2"/>
  </g>
  <g stroke="#BD93F9" stroke-width=".15">
   <g transform="rotate(-90 54.66 50.275)">
    <text transform="scale(-1 1) translate(-109.32)" x="54.6600" y="50.7752" font-size="1.3333" opacity="0" stroke-opacity="0" text-anchor="middle" lengthAdjust="spacingAndGlyphs" textLength="2.2024">D4</text>
   </g>
   <g class="stroked-text">
    <desc>D4</desc>
    <path d="m55.115 49.537h-1"/>
    <path d="m54.115 49.537v0.238"/>
    <path d="m54.115 49.775 0.0476 0.1429"/>
    <path d="m54.162 49.918 0.0953 0.0952"/>
    <path d="m54.258 50.013 0.0952 0.0477"/>
    <path d="m54.353 50.061 0.1905 0.0476"/>
    <path d="m54.543 50.109h0.1428"/>
    <path d="m54.686 50.109 0.1905-0.0476"/>
    <path d="m54.877 50.061 0.0953-0.0477"/>
    <path d="m54.972 50.013 0.0952-0.0952"/>
    <path d="m55.067 49.918 0.0476-0.1429"/>
    <path d="m55.115 49.775v-0.238"/>
    <path d="m54.448 50.966h0.6666"/>
    <path d="m54.067 50.728 0.7143-0.2381"/>
    <path d="m54.782 50.49v0.6191"/>
   </g>
   <g transform="rotate(-90 16.56 50.275)">
    <text transform="scale(-1 1) translate(-33.12)" x="16.5600" y="50.7752" font-size="1.3333" opacity="0" stroke-opacity="0" text-anchor="middle" lengthAdjust="spacingAndGlyphs" textLength="2.2024">D2</text>
   </g>
   <g class="stroked-text">
    <desc>D2</desc>
    <path d="m17.015 49.537h-1"/>
    <path d="m16.015 49.537v0.238"/>
    <path d="m16.015 49.775 0.0476 0.1429"/>
    <path d="m16.062 49.918 0.0953 0.0952"/>
    <path d="m16.158 50.013 0.0952 0.0477"/>
    <path d="m16.253 50.061 0.1905 0.0476"/>
    <path d="m16.443 50.109h0.1428"/>
    <path d="m16.586 50.109 0.1905-0.0476"/>
    <path d="m16.777 50.061 0.0953-0.0477"/>
    <path d="m16.872 50.013 0.0952-0.0952"/>
    <path d="m16.967 49.918 0.0476-0.1429"/>
    <path d="m17.015 49.775v-0.238"/>
    <path d="m16.11 50.49-0.0477 0.0477"/>
    <path d="m16.062 50.537-0.0476 0.0952"/>
    <path d="m16.015 50.632v0.2381"/>
    <path d="m16.015 50.87 0.0476 0.0952"/>
    <path d="m16.062 50.966 0.0477 0.0476"/>
    <path d="m16.11 51.013 0.0952 0.0477"/>
    <path d="m16.205 51.061h0.0952"/>
    <path d="m16.3 51.061 0.1429-0.0477"/>
    <path d="m16.443 51.013 0.5714-0.5714"/>
    <path d="m17.015 50.442v0.6191"/>
   </g>
   <g transform="rotate(-90 35.61 69.325)">
    <text transform="scale(-1 1) translate(-71.22)" x="35.6100" y="69.8252" font-size="1.3333" opacity="0" stroke-opacity="0" text-anchor="middle" lengthAdjust="spacingAndGlyphs" textLength="2.2024">D6</text>
   </g>
   <g class="stroked-text">
    <desc>D6</desc>
    <path d="m36.065 68.587h-1"/>
    <path d="m35.065 68.587v0.238"/>
    <path d="m35.065 68.825 0.0476 0.1429"/>
    <path d="m35.112 68.968 0.0953 0.0952"/>
    <path d="m35.208 69.063 0.0952 0.0477"/>
    <path d="m35.303 69.111 0.1905 0.0476"/>
    <path d="m35.493 69.159h0.1428"/>
    <path d="m35.636 69.159 0.1905-0.0476"/>
    <path d="m35.827 69.111 0.0953-0.0477"/>
    <path d="m35.922 69.063 0.0952-0.0952"/>
    <path d="m36.017 68.968 0.0476-0.1429"/>
    <path d="m36.065 68.825v-0.238"/>
    <path d="m35.065 70.016v-0.1905"/>
    <path d="m35.065 69.825 0.0476-0.0952"/>
    <path d="m35.112 69.73 0.0477-0.0476"/>
    <path d="m35.16 69.682 0.1428-0.0952"/>
    <path d="m35.303 69.587 0.1905-0.0477"/>
    <path d="m35.493 69.54h0.3809"/>
    <path d="m35.874 69.54 0.0953 0.0477"/>
    <path d="m35.97 69.587 0.0476 0.0476"/>
    <path d="m36.017 69.635 0.0476 0.0952"/>
    <path d="m36.065 69.73v0.1905"/>
    <path d="m36.065 69.92-0.0476 0.0952"/>
    <path d="m36.017 70.016-0.0476 0.0476"/>
    <path d="m35.97 70.063-0.0953 0.0477"/>
    <path d="m35.874 70.111h-0.2381"/>
    <path d="m35.636 70.111-0.0952-0.0477"/>
    <path d="m35.541 70.063-0.0476-0.0476"/>
    <path d="m35.493 70.016-0.0476-0.0952"/>
    <path d="m35.446 69.92v-0.1905"/>
    <path d="m35.446 69.73 0.0476-0.0952"/>
    <path d="m35.493 69.635 0.0476-0.0476"/>
    <path d="m35.541 69.587 0.0952-0.0477"/>
   </g>
   <g transform="rotate(-90 54.66 69.325)">
    <text transform="scale(-1 1) translate(-109.32)" x="54.6600" y="69.8252" font-size="1.3333" opacity="0" stroke-opacity="0" text-anchor="middle" lengthAdjust="spacingAndGlyphs" textLength="2.2024">D7</text>
   </g>
   <g class="stroked-text">
    <desc>D7</desc>
    <path d="m55.115 68.587h-1"/>
    <path d="m54.115 68.587v0.238"/>
    <path d="m54.115 68.825 0.0476 0.1429"/>
    <path d="m54.162 68.968 0.0953 0.0952"/>
    <path d="m54.258 69.063 0.0952 0.0477"/>
    <path d="m54.353 69.111 0.1905 0.0476"/>
    <path d="m54.543 69.159h0.1428"/>
    <path d="m54.686 69.159 0.1905-0.0476"/>
    <path d="m54.877 69.111 0.0953-0.0477"/>
    <path d="m54.972 69.063 0.0952-0.0952"/>
    <path d="m55.067 68.968 0.0476-0.1429"/>
    <path d="m55.115 68.825v-0.238"/>
    <path d="m54.115 69.492v0.6667"/>
    <path d="m54.115 70.159 1-0.4286"/>
   </g>
   <g transform="rotate(-90 16.56 69.325)">
    <text transform="scale(-1 1) translate(-33.12)" x="16.5600" y="69.8252" font-size="1.3333" opacity="0" stroke-opacity="0" text-anchor="middle" lengthAdjust="spacingAndGlyphs" textLength="2.2024">D5</text>
   </g>
   <g class="stroked-text">
    <desc>D5</desc>
    <path d="m17.015 68.587h-1"/>
    <path d="m16.015 68.587v0.238"/>
    <path d="m16.015 68.825 0.0476 0.1429"/>
    <path d="m16.062 68.968 0.0953 0.0952"/>
    <path d="m16.158 69.063 0.0952 0.0477"/>
    <path d="m16.253 69.111 0.1905 0.0476"/>
    <path d="m16.443 69.159h0.1428"/>
    <path d="m16.586 69.159 0.1905-0.0476"/>
    <path d="m16.777 69.111 0.0953-0.0477"/>
    <path d="m16.872 69.063 0.0952-0.0952"/>
    <path d="m16.967 68.968 0.0476-0.1429"/>
    <path d="m17.015 68.825v-0.238"/>
    <path d="m16.015 70.063v-0.4761"/>
    <path d="m16.015 69.587 0.4762-0.0477"/>
    <path d="m16.491 69.54-0.0476 0.0477"/>
    <path d="m16.443 69.587-0.0476 0.0952"/>
    <path d="m16.396 69.682v0.2381"/>
    <path d="m16.396 69.92 0.0476 0.0952"/>
    <path d="m16.443 70.016 0.0476 0.0476"/>
    <path d="m16.491 70.063 0.0952 0.0477"/>
    <path d="m16.586 70.111h0.2381"/>
    <path d="m16.824 70.111 0.0953-0.0477"/>
    <path d="m16.92 70.063 0.0476-0.0476"/>
    <path d="m16.967 70.016 0.0476-0.0952"/>
    <path d="m17.015 69.92v-0.2381"/>
    <path d="m17.015 69.682-0.0476-0.0952"/>
    <path d="m16.967 69.587-0.0476-0.0477"/>
   </g>
   <g transform="rotate(-90 35.61 50.275)">
    <text transform="scale(-1 1) translate(-71.22)" x="35.6100" y="50.7752" font-size="1.3333" opacity="0" stroke-opacity="0" text-anchor="middle" lengthAdjust="spacingAndGlyphs" textLength="2.2024">D3</text>
   </g>
   <g class="stroked-text">
    <desc>D3</desc>
    <path d="m36.065 49.537h-1"/>
    <path d="m35.065 49.537v0.238"/>
    <path d="m35.065 49.775 0.0476 0.1429"/>
    <path d="m35.112 49.918 0.0953 0.0952"/>
    <path d="m35.208 50.013 0.0952 0.0477"/>
    <path d="m35.303 50.061 0.1905 0.0476"/>
    <path d="m35.493 50.109h0.1428"/>
    <path d="m35.636 50.109 0.1905-0.0476"/>
    <path d="m35.827 50.061 0.0953-0.0477"/>
    <path d="m35.922 50.013 0.0952-0.0952"/>
    <path d="m36.017 49.918 0.0476-0.1429"/>
    <path d="m36.065 49.775v-0.238"/>
    <path d="m35.065 50.442v0.6191"/>
    <path d="m35.065 51.061 0.381-0.3334"/>
    <path d="m35.446 50.728v0.1429"/>
    <path d="m35.446 50.87 0.0476 0.0952"/>
    <path d="m35.493 50.966 0.0476 0.0476"/>
    <path d="m35.541 51.013 0.0952 0.0477"/>
    <path d="m35.636 51.061h0.2381"/>
    <path d="m35.874 51.061 0.0953-0.0477"/>
    <path d="m35.97 51.013 0.0476-0.0476"/>
    <path d="m36.017 50.966 0.0476-0.0952"/>
    <path d="m36.065 50.87v-0.2857"/>
    <path d="m36.065 50.585-0.0476-0.0953"/>
    <path d="m36.017 50.49-0.0476-0.0476"/>
   </g>
   <g transform="rotate(-90 28.11 9.6753)">
    <text transform="scale(-1 1) translate(-56.22)" x="28.1100" y="10.1753" font-size="1.3333" opacity="0" stroke-opacity="0" text-anchor="middle" lengthAdjust="spacingAndGlyphs" textLength="2.2024">D1</text>
   </g>
   <g class="stroked-text">
    <desc>D1</desc>
    <path d="m28.565 8.9372h-1"/>
    <path d="m27.565 8.9372v0.2381"/>
    <path d="m27.565 9.1753 0.0476 0.1428"/>
    <path d="m27.612 9.3181 0.0953 0.0952"/>
    <path d="m27.708 9.4133 0.0952 0.0477"/>
    <path d="m27.803 9.461 0.1905 0.0476"/>
    <path d="m27.993 9.5086h0.1428"/>
    <path d="m28.136 9.5086 0.1905-0.0476"/>
    <path d="m28.327 9.461 0.0953-0.0477"/>
    <path d="m28.422 9.4133 0.0952-0.0952"/>
    <path d="m28.517 9.3181 0.0476-0.1428"/>
    <path d="m28.565 9.1753v-0.2381"/>
    <path d="m28.565 10.461v-0.5715"/>
    <path d="m28.565 10.175h-1"/>
    <path d="m27.565 10.175 0.1429-0.0953"/>
    <path d="m27.708 10.08 0.0952-0.0952"/>
    <path d="m27.803 9.9848 0.0476-0.0953"/>
   </g>
  </g>
  <g stroke="#BD93F9" stroke-width=".12">
   <path d="m51.755 52.358v-3.86"/>
   <path d="m53.755 52.358h-2"/>
   <path d="m53.755 52.358v-3.86"/>
   <path d="m13.655 52.358v-3.86"/>
   <path d="m15.655 52.358h-2"/>
   <path d="m15.655 52.358v-3.86"/>
   <path d="m32.705 71.408v-3.86"/>
   <path d="m34.705 71.408h-2"/>
   <path d="m34.705 71.408v-3.86"/>
   <path d="m51.755 71.408v-3.86"/>
   <path d="m53.755 71.408h-2"/>
   <path d="m53.755 71.408v-3.86"/>
   <path d="m13.655 71.408v-3.86"/>
   <path d="m15.655 71.408h-2"/>
   <path d="m15.655 71.408v-3.86"/>
   <path d="m32.705 52.358v-3.86"/>
   <path d="m34.705 52.358h-2"/>
   <path d="m34.705 52.358v-3.86"/>
   <path d="m25.205 11.758v-3.8601"/>
   <path d="m27.205 11.758h-2"/>
   <path d="m27.205 11.758v-3.8601"/>
  </g>
 </g>
 <g fill="#fff">
  <circle cx="4.495" cy="46.148" r=".875"/>
  <circle cx="9.575" cy="46.148" r="2"/>
  <circle cx="14.655" cy="46.148" r=".875"/>
  <circle cx="5.765" cy="43.608" r=".75"/>
  <circle cx="12.115" cy="41.068" r=".75"/>
  <circle cx="23.545" cy="46.148" r=".875"/>
  <circle cx="28.625" cy="46.148" r="2"/>
  <circle cx="33.705" cy="46.148" r=".875"/>
  <circle cx="24.815" cy="43.608" r=".75"/>
  <circle cx="31.165" cy="41.068" r=".75"/>
  <circle cx="21.125" cy="5.5482" r=".5"/>
  <circle cx="21.125" cy="10.548" r=".5"/>
  <circle cx="21.125" cy="8.0482" r=".5"/>
 </g>
 <g fill="none" stroke="#fff" stroke-linecap="round" stroke-linejoin="round" stroke-width="1.5">
  <path d="m27.975 2.4482h1.3"/>
  <path d="m27.975 13.648h1.3"/>
 </g>
 <g fill="#fff">
  <circle cx="35.625" cy="10.548" r=".5"/>
  <circle cx="35.625" cy="5.5482" r=".5"/>
  <circle cx="23.545" cy="65.198" r=".875"/>
  <circle cx="28.625" cy="65.198" r="2"/>
  <circle cx="33.705" cy="65.198" r=".875"/>
  <circle cx="24.815" cy="62.658" r=".75"/>
  <circle cx="31.165" cy="60.118" r=".75"/>
  <circle cx="42.595" cy="46.148" r=".875"/>
  <circle cx="47.675" cy="46.148" r="2"/>
  <circle cx="52.755" cy="46.148" r=".875"/>
  <circle cx="43.865" cy="43.608" r=".75"/>
  <circle cx="50.215" cy="41.068" r=".75"/>
  <circle cx="4.495" cy="65.198" r=".875"/>
  <circle cx="9.575" cy="65.198" r="2"/>
  <circle cx="14.655" cy="65.198" r=".875"/>
  <circle cx="5.765" cy="62.658" r=".75"/>
  <circle cx="12.115" cy="60.118" r=".75"/>
  <circle cx="42.595" cy="65.198" r=".875"/>
  <circle cx="47.675" cy="65.198" r="2"/>
  <circle cx="52.755" cy="65.198" r=".875"/>
  <circle cx="43.865" cy="62.658" r=".75"/>
  <circle cx="50.215" cy="60.118" r=".75"/>
 </g>
</svg>
