<?xml version="1.0" encoding="UTF-8"?>
<!DOCTYPE svg  PUBLIC '-//W3C//DTD SVG 1.1//EN'  'http://www.w3.org/Graphics/SVG/1.1/DTD/svg11.dtd'>
<svg width="66.751mm" height="42.951mm" version="1.1" viewBox="0 0 66.751 42.951" xmlns="http://www.w3.org/2000/svg">
 <title>SVG Image created as momokai_tap_duo-render.svg date 2026/07/14 10:40:36</title>
 <desc>Image generated by PCBNEW</desc>
 <rect width="66.751mm" height="42.951mm" fill="#282A36"/>
 <g fill="#f55">
  <circle cx="39.102" cy="7.035" r="1.25"/>
  <circle cx="45.452" cy="4.495" r="1.25"/>
  <circle cx="53.39" cy="30.848" r="1.25"/>
  <circle cx="59.74" cy="28.308" r="1.25"/>
  <circle cx="10.528" cy="7.035" r="1.25"/>
  <circle cx="16.878" cy="4.495" r="1.25"/>
  <circle cx="15.29" cy="30.848" r="1.25"/>
  <circle cx="21.64" cy="28.308" r="1.25"/>
  <circle cx="34.34" cy="30.848" r="1.25"/>
  <circle cx="40.69" cy="28.308" r="1.25"/>
 </g>
 <g fill="#50FA7B">
  <circle cx="39.102" cy="7.035" r="1.25"/>
  <circle cx="45.452" cy="4.495" r="1.25"/>
  <circle cx="53.39" cy="30.848" r="1.25"/>
  <circle cx="59.74" cy="28.308" r="1.25"/>
  <circle cx="10.528" cy="7.035" r="1.25"/>
  <circle cx="16.878" cy="4.495" r="1.25"/>
  <circle cx="15.29" cy="30.848" r="1.25"/>
  <circle cx="21.64" cy="28.308" r="1.25"/>
  <circle cx="34.34" cy="30.848" r="1.25"/>
  <circle cx="40.69" cy="28.308" r="1.25"/>
  <g fill="#50FA7B" fill-rule="evenodd">
   <path d="m19.118 15.525-0.0957-0.019-0.0811-0.0542-0.0542-0.0811-0.019-0.0957v-0.6l0.019-0.0957 0.0542-0.0811 0.0811-0.0542 0.0957-0.019h0.6l0.0957 0.019 0.0811 0.0542 0.0542 0.0811 0.019 0.0957v0.6l-0.019 0.0957-0.0542 0.0811-0.0811 0.0542-0.0957 0.019z"/>
   <path d="m19.118 12.725-0.0957-0.019-0.0811-0.0542-0.0542-0.0811-0.019-0.0957v-0.6l0.019-0.0957 0.0542-0.0811 0.0811-0.0542 0.0957-0.019h0.6l0.0957 0.019 0.0811 0.0542 0.0542 0.0811 0.019 0.0957v0.6l-0.019 0.0957-0.0542 0.0811-0.0811 0.0542-0.0957 0.019z"/>
   <path d="m23.88 39.338-0.0957-0.019-0.0811-0.0542-0.0542-0.0811-0.019-0.0957v-0.6l0.019-0.0957 0.0542-0.0811 0.0811-0.0542 0.0957-0.019h0.6l0.0957 0.019 0.0811 0.0542 0.0542 0.0811 0.019 0.0957v0.6l-0.019 0.0957-0.0542 0.0811-0.0811 0.0542-0.0957 0.019z"/>
   <path d="m23.88 36.538-0.0957-0.019-0.0811-0.0542-0.0542-0.0811-0.019-0.0957v-0.6l0.019-0.0957 0.0542-0.0811 0.0811-0.0542 0.0957-0.019h0.6l0.0957 0.019 0.0811 0.0542 0.0542 0.0811 0.019 0.0957v0.6l-0.019 0.0957-0.0542 0.0811-0.0811 0.0542-0.0957 0.019z"/>
   <path d="m42.93 39.338-0.0957-0.019-0.0811-0.0542-0.0542-0.0811-0.019-0.0957v-0.6l0.019-0.0957 0.0542-0.0811 0.0811-0.0542 0.0957-0.019h0.6l0.0957 0.019 0.0811 0.0542 0.0542 0.0811 0.019 0.0957v0.6l-0.019 0.0957-0.0542 0.0811-0.0811 0.0542-0.0957 0.019z"/>
   <path d="m42.93 36.538-0.0957-0.019-0.0811-0.0542-0.0542-0.0811-0.019-0.0957v-0.6l0.019-0.0957 0.0542-0.0811 0.0811-0.0542 0.0957-0.019h0.6l0.0957 0.019 0.0811 0.0542 0.0542 0.0811 0.019 0.0957v0.6l-0.019 0.0957-0.0542 0.0811-0.0811 0.0542-0.0957 0.019z"/>
   <path d="m61.98 39.338-0.0957-0.019-0.0811-0.0542-0.0542-0.0811-0.019-0.0957v-0.6l0.019-0.0957 0.0542-0.0811 0.0811-0.0542 0.0957-0.019h0.6l0.0957 0.019 0.0811 0.0542 0.0542 0.0811 0.019 0.0957v0.6l-0.019 0.0957-0.0542 0.0811-0.0811 0.0542-0.0957 0.019z"/>
   <path d="m61.98 36.538-0.0957-0.019-0.0811-0.0542-0.0542-0.0811-0.019-0.0957v-0.6l0.019-0.0957 0.0542-0.0811 0.0811-0.0542 0.0957-0.019h0.6l0.0957 0.019 0.0811 0.0542 0.0542 0.0811 0.019 0.0957v0.6l-0.019 0.0957-0.0542 0.0811-0.0811 0.0542-0.0957 0.019z"/>
   <path d="m47.692 15.525-0.0957-0.019-0.0811-0.0542-0.0542-0.0811-0.019-0.0957v-0.6l0.019-0.0957 0.0542-0.0811 0.0811-0.0542 0.0957-0.019h0.6l0.0957 0.019 0.0811 0.0542 0.0542 0.0811 0.019 0.0957v0.6l-0.019 0.0957-0.0542 0.0811-0.0811 0.0542-0.0957 0.019z"/>
   <path d="m47.692 12.725-0.0957-0.019-0.0811-0.0542-0.0542-0.0811-0.019-0.0957v-0.6l0.019-0.0957 0.0542-0.0811 0.0811-0.0542 0.0957-0.019h0.6l0.0957 0.019 0.0811 0.0542 0.0542 0.0811 0.019 0.0957v0.6l-0.019 0.0957-0.0542 0.0811-0.0811 0.0542-0.0957 0.019z"/>
  </g>
 </g>
 <g fill="none" stroke-linecap="round" stroke-linejoin="round">
  <g stroke="#50FA7B" stroke-width=".2">
   <path d="m16.878 4.495v5.14"/>
   <path d="m16.878 9.635 2.54 2.54"/>
   <path d="m45.452 9.635 2.54 2.54"/>
   <path d="m45.452 4.495v5.14"/>
   <path d="m21.64 28.308v5.14"/>
   <path d="m21.64 33.448 2.54 2.54"/>
   <path d="m40.69 28.308v5.14"/>
   <path d="m40.69 33.448 2.54 2.54"/>
   <path d="m59.74 28.308v5.14"/>
   <path d="m59.74 33.448 2.54 2.54"/>
   <path d="m43.23 38.788h19.05"/>
   <path d="m24.18 38.788h19.05"/>
   <path d="m47.992 34.025v-19.05"/>
   <path d="m43.23 38.788 4.7625-4.7625"/>
  </g>
  <g stroke="#8BE9FD" stroke-width=".15">
   <text x="42.9125" y="2.0750" font-size="1.3333" opacity="0" stroke-opacity="0" text-anchor="middle" lengthAdjust="spacingAndGlyphs" textLength="3.2976">SW2</text>
   <g class="stroked-text">
    <desc>SW2</desc>
    <path d="m41.579 1.9822 0.1428 0.0476"/>
    <path d="m41.722 2.0298h0.2381"/>
    <path d="m41.96 2.0298 0.0953-0.0476"/>
    <path d="m42.055 1.9822 0.0476-0.0476"/>
    <path d="m42.103 1.9346 0.0476-0.0953"/>
    <path d="m42.151 1.8393v-0.0952"/>
    <path d="m42.151 1.7441-0.0476-0.0952"/>
    <path d="m42.103 1.6489-0.0476-0.0477"/>
    <path d="m42.055 1.6012-0.0953-0.0476"/>
    <path d="m41.96 1.5536-0.1905-0.0476"/>
    <path d="m41.77 1.506-0.0952-0.0476"/>
    <path d="m41.674 1.4584-0.0476-0.0476"/>
    <path d="m41.627 1.4108-0.0476-0.0953"/>
    <path d="m41.579 1.3155v-0.0952"/>
    <path d="m41.579 1.2203 0.0476-0.0952"/>
    <path d="m41.627 1.1251 0.0476-0.0477"/>
    <path d="m41.674 1.0774 0.0952-0.0476"/>
    <path d="m41.77 1.0298h0.2381"/>
    <path d="m42.008 1.0298 0.1429 0.0476"/>
    <path d="m42.484 1.0298 0.2381 1"/>
    <path d="m42.722 2.0298 0.1905-0.7143"/>
    <path d="m42.912 1.3155 0.1905 0.7143"/>
    <path d="m43.103 2.0298 0.2381-1"/>
    <path d="m43.674 1.1251 0.0476-0.0477"/>
    <path d="m43.722 1.0774 0.0953-0.0476"/>
    <path d="m43.817 1.0298h0.2381"/>
    <path d="m44.055 1.0298 0.0952 0.0476"/>
    <path d="m44.151 1.0774 0.0476 0.0477"/>
    <path d="m44.198 1.1251 0.0476 0.0952"/>
    <path d="m44.246 1.2203v0.0952"/>
    <path d="m44.246 1.3155-0.0476 0.1429"/>
    <path d="m44.198 1.4584-0.5714 0.5714"/>
    <path d="m43.627 2.0298h0.619"/>
   </g>
   <text x="57.2000" y="25.8875" font-size="1.3333" opacity="0" stroke-opacity="0" text-anchor="middle" lengthAdjust="spacingAndGlyphs" textLength="3.2976">SW5</text>
   <g class="stroked-text">
    <desc>SW5</desc>
    <path d="m55.867 25.795 0.1428 0.0476"/>
    <path d="m56.01 25.842h0.2381"/>
    <path d="m56.248 25.842 0.0953-0.0476"/>
    <path d="m56.343 25.795 0.0476-0.0476"/>
    <path d="m56.39 25.747 0.0476-0.0953"/>
    <path d="m56.438 25.652v-0.0952"/>
    <path d="m56.438 25.557-0.0476-0.0952"/>
    <path d="m56.39 25.461-0.0476-0.0477"/>
    <path d="m56.343 25.414-0.0953-0.0476"/>
    <path d="m56.248 25.366-0.1905-0.0476"/>
    <path d="m56.057 25.318-0.0952-0.0476"/>
    <path d="m55.962 25.271-0.0476-0.0476"/>
    <path d="m55.914 25.223-0.0476-0.0953"/>
    <path d="m55.867 25.128v-0.0952"/>
    <path d="m55.867 25.033 0.0476-0.0952"/>
    <path d="m55.914 24.938 0.0476-0.0477"/>
    <path d="m55.962 24.89 0.0952-0.0476"/>
    <path d="m56.057 24.842h0.2381"/>
    <path d="m56.295 24.842 0.1429 0.0476"/>
    <path d="m56.771 24.842 0.2381 1"/>
    <path d="m57.01 25.842 0.1905-0.7143"/>
    <path d="m57.2 25.128 0.1905 0.7143"/>
    <path d="m57.39 25.842 0.2381-1"/>
    <path d="m58.486 24.842h-0.4762"/>
    <path d="m58.01 24.842-0.0476 0.4762"/>
    <path d="m57.962 25.318 0.0476-0.0476"/>
    <path d="m58.01 25.271 0.0953-0.0476"/>
    <path d="m58.105 25.223h0.2381"/>
    <path d="m58.343 25.223 0.0952 0.0476"/>
    <path d="m58.438 25.271 0.0476 0.0476"/>
    <path d="m58.486 25.318 0.0476 0.0952"/>
    <path d="m58.533 25.414v0.2381"/>
    <path d="m58.533 25.652-0.0476 0.0953"/>
    <path d="m58.486 25.747-0.0476 0.0476"/>
    <path d="m58.438 25.795-0.0952 0.0476"/>
    <path d="m58.343 25.842h-0.2381"/>
    <path d="m58.105 25.842-0.0953-0.0476"/>
    <path d="m58.01 25.795-0.0476-0.0476"/>
   </g>
   <text x="14.3375" y="2.0750" font-size="1.3333" opacity="0" stroke-opacity="0" text-anchor="middle" lengthAdjust="spacingAndGlyphs" textLength="3.2976">SW1</text>
   <g class="stroked-text">
    <desc>SW1</desc>
    <path d="m13.004 1.9822 0.1428 0.0476"/>
    <path d="m13.147 2.0298h0.2381"/>
    <path d="m13.385 2.0298 0.0953-0.0476"/>
    <path d="m13.48 1.9822 0.0476-0.0476"/>
    <path d="m13.528 1.9346 0.0476-0.0953"/>
    <path d="m13.576 1.8393v-0.0952"/>
    <path d="m13.576 1.7441-0.0476-0.0952"/>
    <path d="m13.528 1.6489-0.0476-0.0477"/>
    <path d="m13.48 1.6012-0.0953-0.0476"/>
    <path d="m13.385 1.5536-0.1905-0.0476"/>
    <path d="m13.195 1.506-0.0952-0.0476"/>
    <path d="m13.099 1.4584-0.0476-0.0476"/>
    <path d="m13.052 1.4108-0.0476-0.0953"/>
    <path d="m13.004 1.3155v-0.0952"/>
    <path d="m13.004 1.2203 0.0476-0.0952"/>
    <path d="m13.052 1.1251 0.0476-0.0477"/>
    <path d="m13.099 1.0774 0.0952-0.0476"/>
    <path d="m13.195 1.0298h0.2381"/>
    <path d="m13.433 1.0298 0.1429 0.0476"/>
    <path d="m13.909 1.0298 0.2381 1"/>
    <path d="m14.147 2.0298 0.1905-0.7143"/>
    <path d="m14.338 1.3155 0.1905 0.7143"/>
    <path d="m14.528 2.0298 0.2381-1"/>
    <path d="m15.671 2.0298h-0.5714"/>
    <path d="m15.385 2.0298v-1"/>
    <path d="m15.385 1.0298-0.0952 0.1429"/>
    <path d="m15.29 1.1727-0.0953 0.0952"/>
    <path d="m15.195 1.2679-0.0952 0.0476"/>
   </g>
   <text x="19.1000" y="25.8875" font-size="1.3333" opacity="0" stroke-opacity="0" text-anchor="middle" lengthAdjust="spacingAndGlyphs" textLength="3.2976">SW3</text>
   <g class="stroked-text">
    <desc>SW3</desc>
    <path d="m17.767 25.795 0.1428 0.0476"/>
    <path d="m17.91 25.842h0.2381"/>
    <path d="m18.148 25.842 0.0953-0.0476"/>
    <path d="m18.243 25.795 0.0476-0.0476"/>
    <path d="m18.29 25.747 0.0476-0.0953"/>
    <path d="m18.338 25.652v-0.0952"/>
    <path d="m18.338 25.557-0.0476-0.0952"/>
    <path d="m18.29 25.461-0.0476-0.0477"/>
    <path d="m18.243 25.414-0.0953-0.0476"/>
    <path d="m18.148 25.366-0.1905-0.0476"/>
    <path d="m17.957 25.318-0.0952-0.0476"/>
    <path d="m17.862 25.271-0.0476-0.0476"/>
    <path d="m17.814 25.223-0.0476-0.0953"/>
    <path d="m17.767 25.128v-0.0952"/>
    <path d="m17.767 25.033 0.0476-0.0952"/>
    <path d="m17.814 24.938 0.0476-0.0477"/>
    <path d="m17.862 24.89 0.0952-0.0476"/>
    <path d="m17.957 24.842h0.2381"/>
    <path d="m18.195 24.842 0.1429 0.0476"/>
    <path d="m18.671 24.842 0.2381 1"/>
    <path d="m18.91 25.842 0.1905-0.7143"/>
    <path d="m19.1 25.128 0.1905 0.7143"/>
    <path d="m19.29 25.842 0.2381-1"/>
    <path d="m19.814 24.842h0.619"/>
    <path d="m20.433 24.842-0.3333 0.381"/>
    <path d="m20.1 25.223h0.1429"/>
    <path d="m20.243 25.223 0.0952 0.0476"/>
    <path d="m20.338 25.271 0.0476 0.0476"/>
    <path d="m20.386 25.318 0.0476 0.0952"/>
    <path d="m20.433 25.414v0.2381"/>
    <path d="m20.433 25.652-0.0476 0.0953"/>
    <path d="m20.386 25.747-0.0476 0.0476"/>
    <path d="m20.338 25.795-0.0952 0.0476"/>
    <path d="m20.243 25.842h-0.2858"/>
    <path d="m19.957 25.842-0.0952-0.0476"/>
    <path d="m19.862 25.795-0.0476-0.0476"/>
   </g>
   <text x="38.1500" y="25.8875" font-size="1.3333" opacity="0" stroke-opacity="0" text-anchor="middle" lengthAdjust="spacingAndGlyphs" textLength="3.2976">SW4</text>
   <g class="stroked-text">
    <desc>SW4</desc>
    <path d="m36.817 25.795 0.1428 0.0476"/>
    <path d="m36.96 25.842h0.2381"/>
    <path d="m37.198 25.842 0.0953-0.0476"/>
    <path d="m37.293 25.795 0.0476-0.0476"/>
    <path d="m37.34 25.747 0.0476-0.0953"/>
    <path d="m37.388 25.652v-0.0952"/>
    <path d="m37.388 25.557-0.0476-0.0952"/>
    <path d="m37.34 25.461-0.0476-0.0477"/>
    <path d="m37.293 25.414-0.0953-0.0476"/>
    <path d="m37.198 25.366-0.1905-0.0476"/>
    <path d="m37.007 25.318-0.0952-0.0476"/>
    <path d="m36.912 25.271-0.0476-0.0476"/>
    <path d="m36.864 25.223-0.0476-0.0953"/>
    <path d="m36.817 25.128v-0.0952"/>
    <path d="m36.817 25.033 0.0476-0.0952"/>
    <path d="m36.864 24.938 0.0476-0.0477"/>
    <path d="m36.912 24.89 0.0952-0.0476"/>
    <path d="m37.007 24.842h0.2381"/>
    <path d="m37.245 24.842 0.1429 0.0476"/>
    <path d="m37.721 24.842 0.2381 1"/>
    <path d="m37.96 25.842 0.1905-0.7143"/>
    <path d="m38.15 25.128 0.1905 0.7143"/>
    <path d="m38.34 25.842 0.2381-1"/>
    <path d="m39.388 25.176v0.6666"/>
    <path d="m39.15 24.795-0.2381 0.7143"/>
    <path d="m38.912 25.509h0.6191"/>
   </g>
  </g>
  <g stroke="#8BE9FD" stroke-width=".12">
   <path d="m35.812 2.475v14.2"/>
   <path d="m35.812 16.675h14.2"/>
   <path d="m50.012 2.475h-14.2"/>
   <path d="m50.012 16.675v-14.2"/>
   <path d="m50.1 26.288v14.2"/>
   <path d="m50.1 40.488h14.2"/>
   <path d="m64.3 26.288h-14.2"/>
   <path d="m64.3 40.488v-14.2"/>
   <path d="m7.2375 2.475v14.2"/>
   <path d="m7.2375 16.675h14.2"/>
   <path d="m21.438 2.475h-14.2"/>
   <path d="m21.438 16.675v-14.2"/>
   <path d="m12 26.288v14.2"/>
   <path d="m12 40.488h14.2"/>
   <path d="m26.2 26.288h-14.2"/>
   <path d="m26.2 40.488v-14.2"/>
   <path d="m31.05 26.288v14.2"/>
   <path d="m31.05 40.488h14.2"/>
   <path d="m45.25 26.288h-14.2"/>
   <path d="m45.25 40.488v-14.2"/>
  </g>
  <g stroke="#BD93F9" stroke-width=".15">
   <g transform="rotate(-90 21.322 13.702)">
    <text transform="scale(-1 1) translate(-42.645)" x="21.3225" y="14.2020" font-size="1.3333" opacity="0" stroke-opacity="0" text-anchor="middle" lengthAdjust="spacingAndGlyphs" textLength="2.2024">D1</text>
   </g>
   <g class="stroked-text">
    <desc>D1</desc>
    <path d="m21.777 12.964h-1"/>
    <path d="m20.777 12.964v0.2381"/>
    <path d="m20.777 13.202 0.0476 0.1429"/>
    <path d="m20.825 13.345 0.0953 0.0952"/>
    <path d="m20.92 13.44 0.0952 0.0476"/>
    <path d="m21.015 13.488 0.1905 0.0476"/>
    <path d="m21.206 13.535h0.1428"/>
    <path d="m21.349 13.535 0.1905-0.0476"/>
    <path d="m21.539 13.488 0.0953-0.0476"/>
    <path d="m21.634 13.44 0.0952-0.0952"/>
    <path d="m21.73 13.345 0.0476-0.1429"/>
    <path d="m21.777 13.202v-0.2381"/>
    <path d="m21.777 14.488v-0.5714"/>
    <path d="m21.777 14.202h-1"/>
    <path d="m20.777 14.202 0.1429-0.0952"/>
    <path d="m20.92 14.107 0.0952-0.0953"/>
    <path d="m21.015 14.012 0.0476-0.0952"/>
   </g>
   <g transform="rotate(-90 26.085 37.514)">
    <text transform="scale(-1 1) translate(-52.17)" x="26.0850" y="38.0145" font-size="1.3333" opacity="0" stroke-opacity="0" text-anchor="middle" lengthAdjust="spacingAndGlyphs" textLength="2.2024">D3</text>
   </g>
   <g class="stroked-text">
    <desc>D3</desc>
    <path d="m26.54 36.776h-1"/>
    <path d="m25.54 36.776v0.2381"/>
    <path d="m25.54 37.014 0.0476 0.1429"/>
    <path d="m25.587 37.157 0.0953 0.0952"/>
    <path d="m25.683 37.253 0.0952 0.0476"/>
    <path d="m25.778 37.3 0.1905 0.0476"/>
    <path d="m25.968 37.348h0.1428"/>
    <path d="m26.111 37.348 0.1905-0.0476"/>
    <path d="m26.302 37.3 0.0953-0.0476"/>
    <path d="m26.397 37.253 0.0952-0.0952"/>
    <path d="m26.492 37.157 0.0476-0.1429"/>
    <path d="m26.54 37.014v-0.2381"/>
    <path d="m25.54 37.681v0.619"/>
    <path d="m25.54 38.3 0.381-0.3333"/>
    <path d="m25.921 37.967v0.1428"/>
    <path d="m25.921 38.11 0.0476 0.0953"/>
    <path d="m25.968 38.205 0.0476 0.0476"/>
    <path d="m26.016 38.253 0.0952 0.0476"/>
    <path d="m26.111 38.3h0.2381"/>
    <path d="m26.349 38.3 0.0953-0.0476"/>
    <path d="m26.445 38.253 0.0476-0.0476"/>
    <path d="m26.492 38.205 0.0476-0.0953"/>
    <path d="m26.54 38.11v-0.2857"/>
    <path d="m26.54 37.824-0.0476-0.0952"/>
    <path d="m26.492 37.729-0.0476-0.0476"/>
   </g>
   <g transform="rotate(-90 45.135 37.514)">
    <text transform="scale(-1 1) translate(-90.27)" x="45.1350" y="38.0145" font-size="1.3333" opacity="0" stroke-opacity="0" text-anchor="middle" lengthAdjust="spacingAndGlyphs" textLength="2.2024">D4</text>
   </g>
   <g class="stroked-text">
    <desc>D4</desc>
    <path d="m45.59 36.776h-1"/>
    <path d="m44.59 36.776v0.2381"/>
    <path d="m44.59 37.014 0.0476 0.1429"/>
    <path d="m44.637 37.157 0.0953 0.0952"/>
    <path d="m44.733 37.253 0.0952 0.0476"/>
    <path d="m44.828 37.3 0.1905 0.0476"/>
    <path d="m45.018 37.348h0.1428"/>
    <path d="m45.161 37.348 0.1905-0.0476"/>
    <path d="m45.352 37.3 0.0953-0.0476"/>
    <path d="m45.447 37.253 0.0952-0.0952"/>
    <path d="m45.542 37.157 0.0476-0.1429"/>
    <path d="m45.59 37.014v-0.2381"/>
    <path d="m44.923 38.205h0.6666"/>
    <path d="m44.542 37.967 0.7143-0.2381"/>
    <path d="m45.256 37.729v0.619"/>
   </g>
   <g transform="rotate(-90 64.185 37.514)">
    <text transform="scale(-1 1) translate(-128.37)" x="64.1850" y="38.0145" font-size="1.3333" opacity="0" stroke-opacity="0" text-anchor="middle" lengthAdjust="spacingAndGlyphs" textLength="2.2024">D5</text>
   </g>
   <g class="stroked-text">
    <desc>D5</desc>
    <path d="m64.64 36.776h-1"/>
    <path d="m63.64 36.776v0.2381"/>
    <path d="m63.64 37.014 0.0476 0.1429"/>
    <path d="m63.687 37.157 0.0953 0.0952"/>
    <path d="m63.783 37.253 0.0952 0.0476"/>
    <path d="m63.878 37.3 0.1905 0.0476"/>
    <path d="m64.068 37.348h0.1428"/>
    <path d="m64.211 37.348 0.1905-0.0476"/>
    <path d="m64.402 37.3 0.0953-0.0476"/>
    <path d="m64.497 37.253 0.0952-0.0952"/>
    <path d="m64.592 37.157 0.0476-0.1429"/>
    <path d="m64.64 37.014v-0.2381"/>
    <path d="m63.64 38.253v-0.4762"/>
    <path d="m63.64 37.776 0.4762-0.0476"/>
    <path d="m64.116 37.729-0.0476 0.0476"/>
    <path d="m64.068 37.776-0.0476 0.0952"/>
    <path d="m64.021 37.872v0.2381"/>
    <path d="m64.021 38.11 0.0476 0.0953"/>
    <path d="m64.068 38.205 0.0476 0.0476"/>
    <path d="m64.116 38.253 0.0952 0.0476"/>
    <path d="m64.211 38.3h0.2381"/>
    <path d="m64.449 38.3 0.0953-0.0476"/>
    <path d="m64.545 38.253 0.0476-0.0476"/>
    <path d="m64.592 38.205 0.0476-0.0953"/>
    <path d="m64.64 38.11v-0.2381"/>
    <path d="m64.64 37.872-0.0476-0.0952"/>
    <path d="m64.592 37.776-0.0476-0.0476"/>
   </g>
   <g transform="rotate(-90 49.898 13.702)">
    <text transform="scale(-1 1) translate(-99.795)" x="49.8975" y="14.2020" font-size="1.3333" opacity="0" stroke-opacity="0" text-anchor="middle" lengthAdjust="spacingAndGlyphs" textLength="2.2024">D2</text>
   </g>
   <g class="stroked-text">
    <desc>D2</desc>
    <path d="m50.352 12.964h-1"/>
    <path d="m49.352 12.964v0.2381"/>
    <path d="m49.352 13.202 0.0476 0.1429"/>
    <path d="m49.4 13.345 0.0953 0.0952"/>
    <path d="m49.495 13.44 0.0952 0.0476"/>
    <path d="m49.59 13.488 0.1905 0.0476"/>
    <path d="m49.781 13.535h0.1428"/>
    <path d="m49.924 13.535 0.1905-0.0476"/>
    <path d="m50.114 13.488 0.0953-0.0476"/>
    <path d="m50.21 13.44 0.0952-0.0952"/>
    <path d="m50.305 13.345 0.0476-0.1429"/>
    <path d="m50.352 13.202v-0.2381"/>
    <path d="m49.448 13.916-0.0477 0.0476"/>
    <path d="m49.4 13.964-0.0476 0.0952"/>
    <path d="m49.352 14.059v0.2381"/>
    <path d="m49.352 14.297 0.0476 0.0953"/>
    <path d="m49.4 14.392 0.0477 0.0476"/>
    <path d="m49.448 14.44 0.0952 0.0476"/>
    <path d="m49.543 14.488h0.0952"/>
    <path d="m49.638 14.488 0.1429-0.0476"/>
    <path d="m49.781 14.44 0.5714-0.5714"/>
    <path d="m50.352 13.869v0.619"/>
   </g>
  </g>
  <g stroke="#BD93F9" stroke-width=".12">
   <path d="m18.418 15.785v-3.86"/>
   <path d="m20.418 15.785h-2"/>
   <path d="m20.418 15.785v-3.86"/>
   <path d="m23.18 39.598v-3.86"/>
   <path d="m25.18 39.598h-2"/>
   <path d="m25.18 39.598v-3.86"/>
   <path d="m42.23 39.598v-3.86"/>
   <path d="m44.23 39.598h-2"/>
   <path d="m44.23 39.598v-3.86"/>
   <path d="m61.28 39.598v-3.86"/>
   <path d="m63.28 39.598h-2"/>
   <path d="m63.28 39.598v-3.86"/>
   <path d="m46.992 15.785v-3.86"/>
   <path d="m48.992 15.785h-2"/>
   <path d="m48.992 15.785v-3.86"/>
  </g>
 </g>
 <g fill="#fff">
  <circle cx="37.832" cy="9.575" r=".875"/>
  <circle cx="42.912" cy="9.575" r="2"/>
  <circle cx="47.992" cy="9.575" r=".875"/>
  <circle cx="39.102" cy="7.035" r=".75"/>
  <circle cx="45.452" cy="4.495" r=".75"/>
  <circle cx="52.12" cy="33.388" r=".875"/>
  <circle cx="57.2" cy="33.388" r="2"/>
  <circle cx="62.28" cy="33.388" r=".875"/>
  <circle cx="53.39" cy="30.848" r=".75"/>
  <circle cx="59.74" cy="28.308" r=".75"/>
  <circle cx="9.2575" cy="9.575" r=".875"/>
  <circle cx="14.338" cy="9.575" r="2"/>
  <circle cx="19.418" cy="9.575" r=".875"/>
  <circle cx="10.528" cy="7.035" r=".75"/>
  <circle cx="16.878" cy="4.495" r=".75"/>
  <circle cx="14.02" cy="33.388" r=".875"/>
  <circle cx="19.1" cy="33.388" r="2"/>
  <circle cx="24.18" cy="33.388" r=".875"/>
  <circle cx="15.29" cy="30.848" r=".75"/>
  <circle cx="21.64" cy="28.308" r=".75"/>
  <circle cx="33.07" cy="33.388" r=".875"/>
  <circle cx="38.15" cy="33.388" r="2"/>
  <circle cx="43.23" cy="33.388" r=".875"/>
  <circle cx="34.34" cy="30.848" r=".75"/>
  <circle cx="40.69" cy="28.308" r=".75"/>
 </g>
</svg>
