<?xml version="1.0" encoding="UTF-8"?>
<!DOCTYPE svg  PUBLIC '-//W3C//DTD SVG 1.1//EN'  'http://www.w3.org/Graphics/SVG/1.1/DTD/svg11.dtd'>
<svg width="90.576mm" height="69.139mm" version="1.1" viewBox="0 0 90.576 69.139" xmlns="http://www.w3.org/2000/svg">
 <title>SVG Image created as trackball_madromys-render.svg date 2025/09/05 18:41:30</title>
 <desc>Image generated by PCBNEW</desc>
 <rect width="90.576mm" height="69.139mm" fill="#282A36"/>
 <g fill="none" stroke="#8BE9FD" stroke-linecap="round" stroke-linejoin="round" stroke-width=".15">
  <text x="33.3875" y="2.0750" font-size="1.3333" opacity="0" stroke-opacity="0" text-anchor="middle" lengthAdjust="spacingAndGlyphs" textLength="3.2976">SW3</text>
  <g class="stroked-text">
   <desc>SW3</desc>
   <path d="m32.054 1.9822 0.1428 0.0476"/>
   <path d="m32.197 2.0298h0.2381"/>
   <path d="m32.435 2.0298 0.0953-0.0476"/>
   <path d="m32.53 1.9822 0.0476-0.0476"/>
   <path d="m32.578 1.9346 0.0476-0.0953"/>
   <path d="m32.626 1.8393v-0.0952"/>
   <path d="m32.626 1.7441-0.0476-0.0952"/>
   <path d="m32.578 1.6489-0.0476-0.0477"/>
   <path d="m32.53 1.6012-0.0953-0.0476"/>
   <path d="m32.435 1.5536-0.1905-0.0476"/>
   <path d="m32.245 1.506-0.0952-0.0476"/>
   <path d="m32.149 1.4584-0.0476-0.0476"/>
   <path d="m32.102 1.4108-0.0476-0.0953"/>
   <path d="m32.054 1.3155v-0.0952"/>
   <path d="m32.054 1.2203 0.0476-0.0952"/>
   <path d="m32.102 1.1251 0.0476-0.0477"/>
   <path d="m32.149 1.0774 0.0952-0.0476"/>
   <path d="m32.245 1.0298h0.2381"/>
   <path d="m32.483 1.0298 0.1429 0.0476"/>
   <path d="m32.959 1.0298 0.2381 1"/>
   <path d="m33.197 2.0298 0.1905-0.7143"/>
   <path d="m33.388 1.3155 0.1905 0.7143"/>
   <path d="m33.578 2.0298 0.2381-1"/>
   <path d="m34.102 1.0298h0.619"/>
   <path d="m34.721 1.0298-0.3333 0.381"/>
   <path d="m34.388 1.4108h0.1429"/>
   <path d="m34.53 1.4108 0.0952 0.0476"/>
   <path d="m34.626 1.4584 0.0476 0.0476"/>
   <path d="m34.673 1.506 0.0476 0.0952"/>
   <path d="m34.721 1.6012v0.2381"/>
   <path d="m34.721 1.8393-0.0476 0.0953"/>
   <path d="m34.673 1.9346-0.0476 0.0476"/>
   <path d="m34.626 1.9822-0.0952 0.0476"/>
   <path d="m34.53 2.0298h-0.2858"/>
   <path d="m34.245 2.0298-0.0952-0.0476"/>
   <path d="m34.149 1.9822-0.0476-0.0476"/>
  </g>
  <text x="81.0125" y="9.2188" font-size="1.3333" opacity="0" stroke-opacity="0" text-anchor="middle" lengthAdjust="spacingAndGlyphs" textLength="3.2976">SW5</text>
  <g class="stroked-text">
   <desc>SW5</desc>
   <path d="m79.679 9.1259 0.1428 0.0477"/>
   <path d="m79.822 9.1736h0.2381"/>
   <path d="m80.06 9.1736 0.0953-0.0477"/>
   <path d="m80.155 9.1259 0.0476-0.0476"/>
   <path d="m80.203 9.0783 0.0476-0.0952"/>
   <path d="m80.251 8.9831v-0.0952"/>
   <path d="m80.251 8.8879-0.0476-0.0953"/>
   <path d="m80.203 8.7926-0.0476-0.0476"/>
   <path d="m80.155 8.745-0.0953-0.0476"/>
   <path d="m80.06 8.6974-0.1905-0.0476"/>
   <path d="m79.87 8.6498-0.0952-0.0477"/>
   <path d="m79.774 8.6021-0.0476-0.0476"/>
   <path d="m79.727 8.5545-0.0476-0.0952"/>
   <path d="m79.679 8.4593v-0.0953"/>
   <path d="m79.679 8.364 0.0476-0.0952"/>
   <path d="m79.727 8.2688 0.0476-0.0476"/>
   <path d="m79.774 8.2212 0.0952-0.0476"/>
   <path d="m79.87 8.1736h0.2381"/>
   <path d="m80.108 8.1736 0.1429 0.0476"/>
   <path d="m80.584 8.1736 0.2381 1"/>
   <path d="m80.822 9.1736 0.1905-0.7143"/>
   <path d="m81.012 8.4593 0.1905 0.7143"/>
   <path d="m81.203 9.1736 0.2381-1"/>
   <path d="m82.298 8.1736h-0.4762"/>
   <path d="m81.822 8.1736-0.0476 0.4762"/>
   <path d="m81.774 8.6498 0.0476-0.0477"/>
   <path d="m81.822 8.6021 0.0953-0.0476"/>
   <path d="m81.917 8.5545h0.2381"/>
   <path d="m82.155 8.5545 0.0952 0.0476"/>
   <path d="m82.251 8.6021 0.0476 0.0477"/>
   <path d="m82.298 8.6498 0.0476 0.0952"/>
   <path d="m82.346 8.745v0.2381"/>
   <path d="m82.346 8.9831-0.0476 0.0952"/>
   <path d="m82.298 9.0783-0.0476 0.0476"/>
   <path d="m82.251 9.1259-0.0952 0.0477"/>
   <path d="m82.155 9.1736h-0.2381"/>
   <path d="m81.917 9.1736-0.0953-0.0477"/>
   <path d="m81.822 9.1259-0.0476-0.0476"/>
  </g>
  <text x="57.2000" y="2.0750" font-size="1.3333" opacity="0" stroke-opacity="0" text-anchor="middle" lengthAdjust="spacingAndGlyphs" textLength="3.2976">SW4</text>
  <g class="stroked-text">
   <desc>SW4</desc>
   <path d="m55.867 1.9822 0.1428 0.0476"/>
   <path d="m56.01 2.0298h0.2381"/>
   <path d="m56.248 2.0298 0.0953-0.0476"/>
   <path d="m56.343 1.9822 0.0476-0.0476"/>
   <path d="m56.39 1.9346 0.0476-0.0953"/>
   <path d="m56.438 1.8393v-0.0952"/>
   <path d="m56.438 1.7441-0.0476-0.0952"/>
   <path d="m56.39 1.6489-0.0476-0.0477"/>
   <path d="m56.343 1.6012-0.0953-0.0476"/>
   <path d="m56.248 1.5536-0.1905-0.0476"/>
   <path d="m56.057 1.506-0.0952-0.0476"/>
   <path d="m55.962 1.4584-0.0476-0.0476"/>
   <path d="m55.914 1.4108-0.0476-0.0953"/>
   <path d="m55.867 1.3155v-0.0952"/>
   <path d="m55.867 1.2203 0.0476-0.0952"/>
   <path d="m55.914 1.1251 0.0476-0.0477"/>
   <path d="m55.962 1.0774 0.0952-0.0476"/>
   <path d="m56.057 1.0298h0.2381"/>
   <path d="m56.295 1.0298 0.1429 0.0476"/>
   <path d="m56.771 1.0298 0.2381 1"/>
   <path d="m57.01 2.0298 0.1905-0.7143"/>
   <path d="m57.2 1.3155 0.1905 0.7143"/>
   <path d="m57.39 2.0298 0.2381-1"/>
   <path d="m58.438 1.3632v0.6666"/>
   <path d="m58.2 0.9822-0.2381 0.7143"/>
   <path d="m57.962 1.6965h0.6191"/>
  </g>
  <text x="16.7188" y="52.0812" font-size="1.3333" opacity="0" stroke-opacity="0" text-anchor="middle" lengthAdjust="spacingAndGlyphs" textLength="3.2976">SW1</text>
  <g class="stroked-text">
   <desc>SW1</desc>
   <path d="m15.385 51.988 0.1429 0.0476"/>
   <path d="m15.528 52.036h0.2381"/>
   <path d="m15.766 52.036 0.0952-0.0476"/>
   <path d="m15.862 51.988 0.0476-0.0477"/>
   <path d="m15.909 51.941 0.0476-0.0952"/>
   <path d="m15.957 51.846v-0.0952"/>
   <path d="m15.957 51.75-0.0476-0.0953"/>
   <path d="m15.909 51.655-0.0476-0.0476"/>
   <path d="m15.862 51.608-0.0952-0.0476"/>
   <path d="m15.766 51.56-0.1905-0.0476"/>
   <path d="m15.576 51.512-0.0952-0.0477"/>
   <path d="m15.481 51.465-0.0477-0.0476"/>
   <path d="m15.433 51.417-0.0476-0.0952"/>
   <path d="m15.385 51.322v-0.0953"/>
   <path d="m15.385 51.226 0.0476-0.0952"/>
   <path d="m15.433 51.131 0.0477-0.0476"/>
   <path d="m15.481 51.084 0.0952-0.0476"/>
   <path d="m15.576 51.036h0.2381"/>
   <path d="m15.814 51.036 0.1428 0.0476"/>
   <path d="m16.29 51.036 0.2381 1"/>
   <path d="m16.528 52.036 0.1905-0.7143"/>
   <path d="m16.719 51.322 0.1904 0.7143"/>
   <path d="m16.909 52.036 0.2381-1"/>
   <path d="m18.052 52.036h-0.5714"/>
   <path d="m17.766 52.036v-1"/>
   <path d="m17.766 51.036-0.0953 0.1428"/>
   <path d="m17.671 51.179-0.0952 0.0953"/>
   <path d="m17.576 51.274-0.0952 0.0476"/>
  </g>
  <text x="9.5750" y="9.2188" font-size="1.3333" opacity="0" stroke-opacity="0" text-anchor="middle" lengthAdjust="spacingAndGlyphs" textLength="3.2976">SW2</text>
  <g class="stroked-text">
   <desc>SW2</desc>
   <path d="m8.2417 9.1259 0.1428 0.0477"/>
   <path d="m8.3845 9.1736h0.2381"/>
   <path d="m8.6226 9.1736 0.0953-0.0477"/>
   <path d="m8.7179 9.1259 0.0476-0.0476"/>
   <path d="m8.7655 9.0783 0.0476-0.0952"/>
   <path d="m8.8131 8.9831v-0.0952"/>
   <path d="m8.8131 8.8879-0.0476-0.0953"/>
   <path d="m8.7655 8.7926-0.0476-0.0476"/>
   <path d="m8.7179 8.745-0.0953-0.0476"/>
   <path d="m8.6226 8.6974-0.1905-0.0476"/>
   <path d="m8.4321 8.6498-0.0952-0.0477"/>
   <path d="m8.3369 8.6021-0.0476-0.0476"/>
   <path d="m8.2893 8.5545-0.0476-0.0952"/>
   <path d="m8.2417 8.4593v-0.0953"/>
   <path d="m8.2417 8.364 0.0476-0.0952"/>
   <path d="m8.2893 8.2688 0.0476-0.0476"/>
   <path d="m8.3369 8.2212 0.0952-0.0476"/>
   <path d="m8.4321 8.1736h0.2381"/>
   <path d="m8.6702 8.1736 0.1429 0.0476"/>
   <path d="m9.1464 8.1736 0.2381 1"/>
   <path d="m9.3845 9.1736 0.1905-0.7143"/>
   <path d="m9.575 8.4593 0.1905 0.7143"/>
   <path d="m9.7655 9.1736 0.2381-1"/>
   <path d="m10.337 8.2688 0.0476-0.0476"/>
   <path d="m10.384 8.2212 0.0953-0.0476"/>
   <path d="m10.48 8.1736h0.2381"/>
   <path d="m10.718 8.1736 0.0952 0.0476"/>
   <path d="m10.813 8.2212 0.0476 0.0476"/>
   <path d="m10.861 8.2688 0.0476 0.0952"/>
   <path d="m10.908 8.364v0.0953"/>
   <path d="m10.908 8.4593-0.0476 0.1428"/>
   <path d="m10.861 8.6021-0.5714 0.5715"/>
   <path d="m10.289 9.1736h0.619"/>
  </g>
  <text x="73.8687" y="52.0812" font-size="1.3333" opacity="0" stroke-opacity="0" text-anchor="middle" lengthAdjust="spacingAndGlyphs" textLength="3.2976">SW6</text>
  <g class="stroked-text">
   <desc>SW6</desc>
   <path d="m72.535 51.988 0.1429 0.0476"/>
   <path d="m72.678 52.036h0.2381"/>
   <path d="m72.916 52.036 0.0952-0.0476"/>
   <path d="m73.012 51.988 0.0476-0.0477"/>
   <path d="m73.059 51.941 0.0476-0.0952"/>
   <path d="m73.107 51.846v-0.0952"/>
   <path d="m73.107 51.75-0.0476-0.0953"/>
   <path d="m73.059 51.655-0.0476-0.0476"/>
   <path d="m73.012 51.608-0.0952-0.0476"/>
   <path d="m72.916 51.56-0.1905-0.0476"/>
   <path d="m72.726 51.512-0.0952-0.0477"/>
   <path d="m72.631 51.465-0.0477-0.0476"/>
   <path d="m72.583 51.417-0.0476-0.0952"/>
   <path d="m72.535 51.322v-0.0953"/>
   <path d="m72.535 51.226 0.0476-0.0952"/>
   <path d="m72.583 51.131 0.0477-0.0476"/>
   <path d="m72.631 51.084 0.0952-0.0476"/>
   <path d="m72.726 51.036h0.2381"/>
   <path d="m72.964 51.036 0.1428 0.0476"/>
   <path d="m73.44 51.036 0.2381 1"/>
   <path d="m73.678 52.036 0.1904-0.7143"/>
   <path d="m73.869 51.322 0.1905 0.7143"/>
   <path d="m74.059 52.036 0.2381-1"/>
   <path d="m75.107 51.036h-0.1904"/>
   <path d="m74.916 51.036-0.0953 0.0476"/>
   <path d="m74.821 51.084-0.0476 0.0476"/>
   <path d="m74.774 51.131-0.0952 0.1429"/>
   <path d="m74.678 51.274-0.0476 0.1904"/>
   <path d="m74.631 51.465v0.381"/>
   <path d="m74.631 51.846 0.0476 0.0952"/>
   <path d="m74.678 51.941 0.0476 0.0477"/>
   <path d="m74.726 51.988 0.0952 0.0476"/>
   <path d="m74.821 52.036h0.1905"/>
   <path d="m75.012 52.036 0.0952-0.0476"/>
   <path d="m75.107 51.988 0.0477-0.0477"/>
   <path d="m75.154 51.941 0.0476-0.0952"/>
   <path d="m75.202 51.846v-0.2381"/>
   <path d="m75.202 51.608-0.0476-0.0952"/>
   <path d="m75.154 51.512-0.0477-0.0477"/>
   <path d="m75.107 51.465-0.0952-0.0476"/>
   <path d="m75.012 51.417h-0.1905"/>
   <path d="m74.821 51.417-0.0952 0.0476"/>
   <path d="m74.726 51.465-0.0476 0.0477"/>
   <path d="m74.678 51.512-0.0476 0.0952"/>
  </g>
 </g>
 <g fill="none" stroke="#8BE9FD" stroke-linecap="round" stroke-linejoin="round" stroke-width=".12">
  <path d="m26.288 2.475v14.2"/>
  <path d="m26.288 16.675h14.2"/>
  <path d="m40.488 2.475h-14.2"/>
  <path d="m40.488 16.675v-14.2"/>
  <path d="m73.912 9.6188v14.2"/>
  <path d="m73.912 23.819h14.2"/>
  <path d="m88.112 9.6188h-14.2"/>
  <path d="m88.112 23.819v-14.2"/>
  <path d="m50.1 2.475v14.2"/>
  <path d="m50.1 16.675h14.2"/>
  <path d="m64.3 2.475h-14.2"/>
  <path d="m64.3 16.675v-14.2"/>
  <path d="m9.6188 52.481v14.2"/>
  <path d="m9.6188 66.681h14.2"/>
  <path d="m23.819 52.481h-14.2"/>
  <path d="m23.819 66.681v-14.2"/>
  <path d="m2.475 9.6188v14.2"/>
  <path d="m2.475 23.819h14.2"/>
  <path d="m16.675 9.6188h-14.2"/>
  <path d="m16.675 23.819v-14.2"/>
  <path d="m66.769 52.481v14.2"/>
  <path d="m66.769 66.681h14.2"/>
  <path d="m80.969 52.481h-14.2"/>
  <path d="m80.969 66.681v-14.2"/>
 </g>
 <g fill="#8BE9FD">
  <circle cx="28.308" cy="9.575" r=".875"/>
  <circle cx="33.388" cy="9.575" r="2"/>
  <circle cx="38.468" cy="9.575" r=".875"/>
  <circle cx="29.578" cy="7.035" r=".75"/>
  <circle cx="35.928" cy="4.495" r=".75"/>
  <circle cx="75.932" cy="16.719" r=".875"/>
  <circle cx="81.012" cy="16.719" r="2"/>
  <circle cx="86.092" cy="16.719" r=".875"/>
  <circle cx="77.202" cy="14.179" r=".75"/>
  <circle cx="83.552" cy="11.639" r=".75"/>
  <circle cx="52.12" cy="9.575" r=".875"/>
  <circle cx="57.2" cy="9.575" r="2"/>
  <circle cx="62.28" cy="9.575" r=".875"/>
  <circle cx="53.39" cy="7.035" r=".75"/>
  <circle cx="59.74" cy="4.495" r=".75"/>
  <circle cx="11.639" cy="59.581" r=".875"/>
  <circle cx="16.719" cy="59.581" r="2"/>
  <circle cx="21.799" cy="59.581" r=".875"/>
  <circle cx="12.909" cy="57.041" r=".75"/>
  <circle cx="19.259" cy="54.501" r=".75"/>
  <circle cx="4.495" cy="16.719" r=".875"/>
  <circle cx="9.575" cy="16.719" r="2"/>
  <circle cx="14.655" cy="16.719" r=".875"/>
  <circle cx="5.765" cy="14.179" r=".75"/>
  <circle cx="12.115" cy="11.639" r=".75"/>
  <circle cx="68.789" cy="59.581" r=".875"/>
  <circle cx="73.869" cy="59.581" r="2"/>
  <circle cx="78.949" cy="59.581" r=".875"/>
  <circle cx="70.059" cy="57.041" r=".75"/>
  <circle cx="76.409" cy="54.501" r=".75"/>
 </g>
 <g fill="none" stroke="#BD93F9" stroke-linecap="round" stroke-linejoin="round" stroke-width=".15">
  <g transform="rotate(-90 80.854 63.708)">
   <text transform="scale(-1 1) translate(-161.71)" x="80.8537" y="64.2082" font-size="1.3333" opacity="0" stroke-opacity="0" text-anchor="middle" lengthAdjust="spacingAndGlyphs" textLength="2.2024">D6</text>
  </g>
  <g class="stroked-text">
   <desc>D6</desc>
   <path d="m81.309 62.97h-1"/>
   <path d="m80.309 62.97v0.238"/>
   <path d="m80.309 63.208 0.0476 0.1429"/>
   <path d="m80.356 63.351 0.0952 0.0952"/>
   <path d="m80.451 63.446 0.0953 0.0477"/>
   <path d="m80.547 63.494 0.1904 0.0476"/>
   <path d="m80.737 63.542h0.1429"/>
   <path d="m80.88 63.542 0.1905-0.0476"/>
   <path d="m81.07 63.494 0.0952-0.0477"/>
   <path d="m81.166 63.446 0.0952-0.0952"/>
   <path d="m81.261 63.351 0.0477-0.1429"/>
   <path d="m81.309 63.208v-0.238"/>
   <path d="m80.309 64.399v-0.1905"/>
   <path d="m80.309 64.208 0.0476-0.0952"/>
   <path d="m80.356 64.113 0.0476-0.0476"/>
   <path d="m80.404 64.065 0.1429-0.0952"/>
   <path d="m80.547 63.97 0.1904-0.0477"/>
   <path d="m80.737 63.922h0.381"/>
   <path d="m81.118 63.922 0.0952 0.0477"/>
   <path d="m81.213 63.97 0.0476 0.0476"/>
   <path d="m81.261 64.018 0.0477 0.0952"/>
   <path d="m81.309 64.113v0.1905"/>
   <path d="m81.309 64.304-0.0477 0.0952"/>
   <path d="m81.261 64.399-0.0476 0.0476"/>
   <path d="m81.213 64.446-0.0952 0.0477"/>
   <path d="m81.118 64.494h-0.2381"/>
   <path d="m80.88 64.494-0.0952-0.0477"/>
   <path d="m80.785 64.446-0.0477-0.0476"/>
   <path d="m80.737 64.399-0.0476-0.0952"/>
   <path d="m80.69 64.304v-0.1905"/>
   <path d="m80.69 64.113 0.0476-0.0952"/>
   <path d="m80.737 64.018 0.0477-0.0476"/>
   <path d="m80.785 63.97 0.0952-0.0477"/>
  </g>
  <g transform="rotate(-90 23.704 63.708)">
   <text transform="scale(-1 1) translate(-47.408)" x="23.7037" y="64.2082" font-size="1.3333" opacity="0" stroke-opacity="0" text-anchor="middle" lengthAdjust="spacingAndGlyphs" textLength="2.2024">D1</text>
  </g>
  <g class="stroked-text">
   <desc>D1</desc>
   <path d="m24.159 62.97h-1"/>
   <path d="m23.159 62.97v0.238"/>
   <path d="m23.159 63.208 0.0476 0.1429"/>
   <path d="m23.206 63.351 0.0952 0.0952"/>
   <path d="m23.301 63.446 0.0953 0.0477"/>
   <path d="m23.397 63.494 0.1904 0.0476"/>
   <path d="m23.587 63.542h0.1429"/>
   <path d="m23.73 63.542 0.1905-0.0476"/>
   <path d="m23.92 63.494 0.0952-0.0477"/>
   <path d="m24.016 63.446 0.0952-0.0952"/>
   <path d="m24.111 63.351 0.0477-0.1429"/>
   <path d="m24.159 63.208v-0.238"/>
   <path d="m24.159 64.494v-0.5715"/>
   <path d="m24.159 64.208h-1"/>
   <path d="m23.159 64.208 0.1428-0.0952"/>
   <path d="m23.301 64.113 0.0953-0.0952"/>
   <path d="m23.397 64.018 0.0476-0.0953"/>
  </g>
  <g transform="rotate(-90 87.998 20.846)">
   <text transform="scale(-1 1) translate(-176)" x="87.9975" y="21.3457" font-size="1.3333" opacity="0" stroke-opacity="0" text-anchor="middle" lengthAdjust="spacingAndGlyphs" textLength="2.2024">D5</text>
  </g>
  <g class="stroked-text">
   <desc>D5</desc>
   <path d="m88.452 20.108h-1"/>
   <path d="m87.452 20.108v0.238"/>
   <path d="m87.452 20.346 0.0476 0.1429"/>
   <path d="m87.5 20.489 0.0953 0.0952"/>
   <path d="m87.595 20.584 0.0952 0.0477"/>
   <path d="m87.69 20.632 0.1905 0.0476"/>
   <path d="m87.881 20.679h0.1428"/>
   <path d="m88.024 20.679 0.1905-0.0476"/>
   <path d="m88.214 20.632 0.0953-0.0477"/>
   <path d="m88.31 20.584 0.0952-0.0952"/>
   <path d="m88.405 20.489 0.0476-0.1429"/>
   <path d="m88.452 20.346v-0.238"/>
   <path d="m87.452 21.584v-0.4761"/>
   <path d="m87.452 21.108 0.4762-0.0477"/>
   <path d="m87.928 21.06-0.0476 0.0477"/>
   <path d="m87.881 21.108-0.0476 0.0952"/>
   <path d="m87.833 21.203v0.2381"/>
   <path d="m87.833 21.441 0.0476 0.0952"/>
   <path d="m87.881 21.536 0.0476 0.0476"/>
   <path d="m87.928 21.584 0.0952 0.0477"/>
   <path d="m88.024 21.632h0.2381"/>
   <path d="m88.262 21.632 0.0953-0.0477"/>
   <path d="m88.357 21.584 0.0476-0.0476"/>
   <path d="m88.405 21.536 0.0476-0.0952"/>
   <path d="m88.452 21.441v-0.2381"/>
   <path d="m88.452 21.203-0.0476-0.0952"/>
   <path d="m88.405 21.108-0.0476-0.0477"/>
  </g>
  <g transform="rotate(-90 16.56 20.846)">
   <text transform="scale(-1 1) translate(-33.12)" x="16.5600" y="21.3457" font-size="1.3333" opacity="0" stroke-opacity="0" text-anchor="middle" lengthAdjust="spacingAndGlyphs" textLength="2.2024">D2</text>
  </g>
  <g class="stroked-text">
   <desc>D2</desc>
   <path d="m17.015 20.108h-1"/>
   <path d="m16.015 20.108v0.238"/>
   <path d="m16.015 20.346 0.0476 0.1429"/>
   <path d="m16.062 20.489 0.0953 0.0952"/>
   <path d="m16.158 20.584 0.0952 0.0477"/>
   <path d="m16.253 20.632 0.1905 0.0476"/>
   <path d="m16.443 20.679h0.1428"/>
   <path d="m16.586 20.679 0.1905-0.0476"/>
   <path d="m16.777 20.632 0.0953-0.0477"/>
   <path d="m16.872 20.584 0.0952-0.0952"/>
   <path d="m16.967 20.489 0.0476-0.1429"/>
   <path d="m17.015 20.346v-0.238"/>
   <path d="m16.11 21.06-0.0477 0.0477"/>
   <path d="m16.062 21.108-0.0476 0.0952"/>
   <path d="m16.015 21.203v0.2381"/>
   <path d="m16.015 21.441 0.0476 0.0952"/>
   <path d="m16.062 21.536 0.0477 0.0476"/>
   <path d="m16.11 21.584 0.0952 0.0477"/>
   <path d="m16.205 21.632h0.0952"/>
   <path d="m16.3 21.632 0.1429-0.0477"/>
   <path d="m16.443 21.584 0.5714-0.5714"/>
   <path d="m17.015 21.012v0.6191"/>
  </g>
  <g transform="rotate(-90 40.372 13.702)">
   <text transform="scale(-1 1) translate(-80.745)" x="40.3725" y="14.2020" font-size="1.3333" opacity="0" stroke-opacity="0" text-anchor="middle" lengthAdjust="spacingAndGlyphs" textLength="2.2024">D3</text>
  </g>
  <g class="stroked-text">
   <desc>D3</desc>
   <path d="m40.827 12.964h-1"/>
   <path d="m39.827 12.964v0.2381"/>
   <path d="m39.827 13.202 0.0476 0.1429"/>
   <path d="m39.875 13.345 0.0953 0.0952"/>
   <path d="m39.97 13.44 0.0952 0.0476"/>
   <path d="m40.065 13.488 0.1905 0.0476"/>
   <path d="m40.256 13.535h0.1428"/>
   <path d="m40.399 13.535 0.1905-0.0476"/>
   <path d="m40.589 13.488 0.0953-0.0476"/>
   <path d="m40.684 13.44 0.0952-0.0952"/>
   <path d="m40.78 13.345 0.0476-0.1429"/>
   <path d="m40.827 13.202v-0.2381"/>
   <path d="m39.827 13.869v0.619"/>
   <path d="m39.827 14.488 0.381-0.3333"/>
   <path d="m40.208 14.154v0.1428"/>
   <path d="m40.208 14.297 0.0476 0.0953"/>
   <path d="m40.256 14.392 0.0476 0.0476"/>
   <path d="m40.304 14.44 0.0952 0.0476"/>
   <path d="m40.399 14.488h0.2381"/>
   <path d="m40.637 14.488 0.0953-0.0476"/>
   <path d="m40.732 14.44 0.0476-0.0476"/>
   <path d="m40.78 14.392 0.0476-0.0953"/>
   <path d="m40.827 14.297v-0.2857"/>
   <path d="m40.827 14.012-0.0476-0.0952"/>
   <path d="m40.78 13.916-0.0476-0.0476"/>
  </g>
  <g transform="rotate(-90 64.185 13.702)">
   <text transform="scale(-1 1) translate(-128.37)" x="64.1850" y="14.2020" font-size="1.3333" opacity="0" stroke-opacity="0" text-anchor="middle" lengthAdjust="spacingAndGlyphs" textLength="2.2024">D4</text>
  </g>
  <g class="stroked-text">
   <desc>D4</desc>
   <path d="m64.64 12.964h-1"/>
   <path d="m63.64 12.964v0.2381"/>
   <path d="m63.64 13.202 0.0476 0.1429"/>
   <path d="m63.687 13.345 0.0953 0.0952"/>
   <path d="m63.783 13.44 0.0952 0.0476"/>
   <path d="m63.878 13.488 0.1905 0.0476"/>
   <path d="m64.068 13.535h0.1428"/>
   <path d="m64.211 13.535 0.1905-0.0476"/>
   <path d="m64.402 13.488 0.0953-0.0476"/>
   <path d="m64.497 13.44 0.0952-0.0952"/>
   <path d="m64.592 13.345 0.0476-0.1429"/>
   <path d="m64.64 13.202v-0.2381"/>
   <path d="m63.973 14.392h0.6666"/>
   <path d="m63.592 14.154 0.7143-0.2381"/>
   <path d="m64.306 13.916v0.619"/>
  </g>
 </g>
 <g fill="none" stroke="#BD93F9" stroke-linecap="round" stroke-linejoin="round" stroke-width=".12">
  <path d="m77.949 61.931v3.86"/>
  <path d="m77.949 65.791h2"/>
  <path d="m79.949 61.931v3.86"/>
  <path d="m20.799 61.931v3.86"/>
  <path d="m20.799 65.791h2"/>
  <path d="m22.799 61.931v3.86"/>
  <path d="m85.092 19.069v3.86"/>
  <path d="m85.092 22.929h2"/>
  <path d="m87.092 19.069v3.86"/>
  <path d="m13.655 19.069v3.86"/>
  <path d="m13.655 22.929h2"/>
  <path d="m15.655 19.069v3.86"/>
  <path d="m37.468 11.925v3.86"/>
  <path d="m37.468 15.785h2"/>
  <path d="m39.468 11.925v3.86"/>
  <path d="m61.28 11.925v3.86"/>
  <path d="m61.28 15.785h2"/>
  <path d="m63.28 11.925v3.86"/>
 </g>
 <g>
  <g fill="#BD93F9">
   <circle cx="28.308" cy="9.575" r=".875"/>
   <circle cx="33.388" cy="9.575" r="2"/>
   <circle cx="38.468" cy="9.575" r=".875"/>
   <circle cx="29.578" cy="7.035" r=".75"/>
   <circle cx="35.928" cy="4.495" r=".75"/>
   <circle cx="75.932" cy="16.719" r=".875"/>
   <circle cx="81.012" cy="16.719" r="2"/>
   <circle cx="86.092" cy="16.719" r=".875"/>
   <circle cx="77.202" cy="14.179" r=".75"/>
   <circle cx="83.552" cy="11.639" r=".75"/>
   <circle cx="52.12" cy="9.575" r=".875"/>
   <circle cx="57.2" cy="9.575" r="2"/>
   <circle cx="62.28" cy="9.575" r=".875"/>
   <circle cx="53.39" cy="7.035" r=".75"/>
   <circle cx="59.74" cy="4.495" r=".75"/>
   <circle cx="11.639" cy="59.581" r=".875"/>
   <circle cx="16.719" cy="59.581" r="2"/>
   <circle cx="21.799" cy="59.581" r=".875"/>
   <circle cx="12.909" cy="57.041" r=".75"/>
   <circle cx="19.259" cy="54.501" r=".75"/>
   <circle cx="4.495" cy="16.719" r=".875"/>
   <circle cx="9.575" cy="16.719" r="2"/>
   <circle cx="14.655" cy="16.719" r=".875"/>
   <circle cx="5.765" cy="14.179" r=".75"/>
   <circle cx="12.115" cy="11.639" r=".75"/>
   <circle cx="68.789" cy="59.581" r=".875"/>
   <circle cx="73.869" cy="59.581" r="2"/>
   <circle cx="78.949" cy="59.581" r=".875"/>
   <circle cx="70.059" cy="57.041" r=".75"/>
   <circle cx="76.409" cy="54.501" r=".75"/>
  </g>
  <g>
   <circle cx="28.308" cy="9.575" r=".875"/>
   <circle cx="33.388" cy="9.575" r="2"/>
   <circle cx="38.468" cy="9.575" r=".875"/>
   <circle cx="29.578" cy="7.035" r=".75"/>
   <circle cx="35.928" cy="4.495" r=".75"/>
   <circle cx="75.932" cy="16.719" r=".875"/>
   <circle cx="81.012" cy="16.719" r="2"/>
   <circle cx="86.092" cy="16.719" r=".875"/>
   <circle cx="77.202" cy="14.179" r=".75"/>
   <circle cx="83.552" cy="11.639" r=".75"/>
   <circle cx="52.12" cy="9.575" r=".875"/>
   <circle cx="57.2" cy="9.575" r="2"/>
   <circle cx="62.28" cy="9.575" r=".875"/>
   <circle cx="53.39" cy="7.035" r=".75"/>
   <circle cx="59.74" cy="4.495" r=".75"/>
   <circle cx="11.639" cy="59.581" r=".875"/>
   <circle cx="16.719" cy="59.581" r="2"/>
   <circle cx="21.799" cy="59.581" r=".875"/>
   <circle cx="12.909" cy="57.041" r=".75"/>
   <circle cx="19.259" cy="54.501" r=".75"/>
   <circle cx="4.495" cy="16.719" r=".875"/>
   <circle cx="9.575" cy="16.719" r="2"/>
   <circle cx="14.655" cy="16.719" r=".875"/>
   <circle cx="5.765" cy="14.179" r=".75"/>
   <circle cx="12.115" cy="11.639" r=".75"/>
   <circle cx="68.789" cy="59.581" r=".875"/>
   <circle cx="73.869" cy="59.581" r="2"/>
   <circle cx="78.949" cy="59.581" r=".875"/>
   <circle cx="70.059" cy="57.041" r=".75"/>
   <circle cx="76.409" cy="54.501" r=".75"/>
  </g>
  <g fill="#f55">
   <circle cx="29.578" cy="7.035" r="1.25"/>
   <circle cx="35.928" cy="4.495" r="1.25"/>
   <circle cx="77.202" cy="14.179" r="1.25"/>
   <circle cx="83.552" cy="11.639" r="1.25"/>
   <circle cx="53.39" cy="7.035" r="1.25"/>
   <circle cx="59.74" cy="4.495" r="1.25"/>
   <circle cx="12.909" cy="57.041" r="1.25"/>
   <circle cx="19.259" cy="54.501" r="1.25"/>
   <circle cx="5.765" cy="14.179" r="1.25"/>
   <circle cx="12.115" cy="11.639" r="1.25"/>
   <circle cx="70.059" cy="57.041" r="1.25"/>
   <circle cx="76.409" cy="54.501" r="1.25"/>
  </g>
  <g fill="#fff">
   <circle cx="28.308" cy="9.575" r=".875"/>
   <circle cx="33.388" cy="9.575" r="2"/>
   <circle cx="38.468" cy="9.575" r=".875"/>
   <circle cx="29.578" cy="7.035" r=".75"/>
   <circle cx="35.928" cy="4.495" r=".75"/>
   <circle cx="75.932" cy="16.719" r=".875"/>
   <circle cx="81.012" cy="16.719" r="2"/>
   <circle cx="86.092" cy="16.719" r=".875"/>
   <circle cx="77.202" cy="14.179" r=".75"/>
   <circle cx="83.552" cy="11.639" r=".75"/>
   <circle cx="52.12" cy="9.575" r=".875"/>
   <circle cx="57.2" cy="9.575" r="2"/>
   <circle cx="62.28" cy="9.575" r=".875"/>
   <circle cx="53.39" cy="7.035" r=".75"/>
   <circle cx="59.74" cy="4.495" r=".75"/>
   <circle cx="11.639" cy="59.581" r=".875"/>
   <circle cx="16.719" cy="59.581" r="2"/>
   <circle cx="21.799" cy="59.581" r=".875"/>
   <circle cx="12.909" cy="57.041" r=".75"/>
   <circle cx="19.259" cy="54.501" r=".75"/>
   <circle cx="4.495" cy="16.719" r=".875"/>
   <circle cx="9.575" cy="16.719" r="2"/>
   <circle cx="14.655" cy="16.719" r=".875"/>
   <circle cx="5.765" cy="14.179" r=".75"/>
   <circle cx="12.115" cy="11.639" r=".75"/>
   <circle cx="68.789" cy="59.581" r=".875"/>
   <circle cx="73.869" cy="59.581" r="2"/>
   <circle cx="78.949" cy="59.581" r=".875"/>
   <circle cx="70.059" cy="57.041" r=".75"/>
   <circle cx="76.409" cy="54.501" r=".75"/>
  </g>
  <g fill="#50FA7B">
   <circle cx="29.578" cy="7.035" r="1.25"/>
   <circle cx="35.928" cy="4.495" r="1.25"/>
   <circle cx="77.202" cy="14.179" r="1.25"/>
   <circle cx="83.552" cy="11.639" r="1.25"/>
   <circle cx="53.39" cy="7.035" r="1.25"/>
   <circle cx="59.74" cy="4.495" r="1.25"/>
   <circle cx="12.909" cy="57.041" r="1.25"/>
   <circle cx="19.259" cy="54.501" r="1.25"/>
   <circle cx="5.765" cy="14.179" r="1.25"/>
   <circle cx="12.115" cy="11.639" r="1.25"/>
   <circle cx="70.059" cy="57.041" r="1.25"/>
   <circle cx="76.409" cy="54.501" r="1.25"/>
   <g fill="#50FA7B" fill-rule="evenodd">
    <path d="m78.649 65.531-0.0956-0.019-0.0811-0.0542-0.0542-0.0811-0.0191-0.0957v-0.6l0.0191-0.0956 0.0542-0.0811 0.0811-0.0542 0.0956-0.0191h0.6001l0.0956 0.0191 0.0811 0.0542 0.0542 0.0811 0.0191 0.0956v0.6l-0.0191 0.0957-0.0542 0.0811-0.0811 0.0542-0.0956 0.019z"/>
    <path d="m78.649 62.731-0.0956-0.019-0.0811-0.0542-0.0542-0.0811-0.0191-0.0957v-0.6l0.0191-0.0956 0.0542-0.0811 0.0811-0.0542 0.0956-0.0191h0.6001l0.0956 0.0191 0.0811 0.0542 0.0542 0.0811 0.0191 0.0956v0.6l-0.0191 0.0957-0.0542 0.0811-0.0811 0.0542-0.0956 0.019z"/>
    <path d="m21.499 65.531-0.0956-0.019-0.0811-0.0542-0.0542-0.0811-0.0191-0.0957v-0.6l0.0191-0.0956 0.0542-0.0811 0.0811-0.0542 0.0956-0.0191h0.6l0.0957 0.0191 0.0811 0.0542 0.0542 0.0811 0.019 0.0956v0.6l-0.019 0.0957-0.0542 0.0811-0.0811 0.0542-0.0957 0.019z"/>
    <path d="m21.499 62.731-0.0956-0.019-0.0811-0.0542-0.0542-0.0811-0.0191-0.0957v-0.6l0.0191-0.0956 0.0542-0.0811 0.0811-0.0542 0.0956-0.0191h0.6l0.0957 0.0191 0.0811 0.0542 0.0542 0.0811 0.019 0.0956v0.6l-0.019 0.0957-0.0542 0.0811-0.0811 0.0542-0.0957 0.019z"/>
    <path d="m85.792 22.669-0.0957-0.019-0.0811-0.0542-0.0542-0.0811-0.019-0.0957v-0.6l0.019-0.0956 0.0542-0.0811 0.0811-0.0542 0.0957-0.0191h0.6l0.0957 0.0191 0.0811 0.0542 0.0542 0.0811 0.019 0.0956v0.6l-0.019 0.0957-0.0542 0.0811-0.0811 0.0542-0.0957 0.019z"/>
    <path d="m85.792 19.869-0.0957-0.019-0.0811-0.0542-0.0542-0.0811-0.019-0.0957v-0.5999l0.019-0.0957 0.0542-0.0811 0.0811-0.0542 0.0957-0.019h0.6l0.0957 0.019 0.0811 0.0542 0.0542 0.0811 0.019 0.0957v0.5999l-0.019 0.0957-0.0542 0.0811-0.0811 0.0542-0.0957 0.019z"/>
    <path d="m14.355 22.669-0.0957-0.019-0.0811-0.0542-0.0542-0.0811-0.019-0.0957v-0.6l0.019-0.0956 0.0542-0.0811 0.0811-0.0542 0.0957-0.0191h0.6l0.0957 0.0191 0.0811 0.0542 0.0542 0.0811 0.019 0.0956v0.6l-0.019 0.0957-0.0542 0.0811-0.0811 0.0542-0.0957 0.019z"/>
    <path d="m14.355 19.869-0.0957-0.019-0.0811-0.0542-0.0542-0.0811-0.019-0.0957v-0.5999l0.019-0.0957 0.0542-0.0811 0.0811-0.0542 0.0957-0.019h0.6l0.0957 0.019 0.0811 0.0542 0.0542 0.0811 0.019 0.0957v0.5999l-0.019 0.0957-0.0542 0.0811-0.0811 0.0542-0.0957 0.019z"/>
    <path d="m38.168 15.525-0.0957-0.019-0.0811-0.0542-0.0542-0.0811-0.019-0.0957v-0.6l0.019-0.0957 0.0542-0.0811 0.0811-0.0542 0.0957-0.019h0.6l0.0957 0.019 0.0811 0.0542 0.0542 0.0811 0.019 0.0957v0.6l-0.019 0.0957-0.0542 0.0811-0.0811 0.0542-0.0957 0.019z"/>
    <path d="m38.168 12.725-0.0957-0.019-0.0811-0.0542-0.0542-0.0811-0.019-0.0957v-0.6l0.019-0.0957 0.0542-0.0811 0.0811-0.0542 0.0957-0.019h0.6l0.0957 0.019 0.0811 0.0542 0.0542 0.0811 0.019 0.0957v0.6l-0.019 0.0957-0.0542 0.0811-0.0811 0.0542-0.0957 0.019z"/>
    <path d="m61.98 15.525-0.0957-0.019-0.0811-0.0542-0.0542-0.0811-0.019-0.0957v-0.6l0.019-0.0957 0.0542-0.0811 0.0811-0.0542 0.0957-0.019h0.6l0.0957 0.019 0.0811 0.0542 0.0542 0.0811 0.019 0.0957v0.6l-0.019 0.0957-0.0542 0.0811-0.0811 0.0542-0.0957 0.019z"/>
    <path d="m61.98 12.725-0.0957-0.019-0.0811-0.0542-0.0542-0.0811-0.019-0.0957v-0.6l0.019-0.0957 0.0542-0.0811 0.0811-0.0542 0.0957-0.019h0.6l0.0957 0.019 0.0811 0.0542 0.0542 0.0811 0.019 0.0957v0.6l-0.019 0.0957-0.0542 0.0811-0.0811 0.0542-0.0957 0.019z"/>
   </g>
  </g>
 </g>
 <g fill="none" stroke="#50FA7B" stroke-linecap="round" stroke-linejoin="round" stroke-width=".2">
  <path d="m19.259 59.641 2.54 2.54"/>
  <path d="m19.259 54.501v5.14"/>
  <path d="m12.115 16.779 2.54 2.54"/>
  <path d="m12.115 11.639v5.14"/>
  <path d="m35.928 9.635 2.54 2.54"/>
  <path d="m35.928 4.495v5.14"/>
  <path d="m59.74 9.635 2.54 2.54"/>
  <path d="m59.74 4.495v5.14"/>
  <path d="m83.552 16.779 2.54 2.54"/>
  <path d="m83.552 11.639v5.14"/>
  <path d="m76.409 59.641 2.54 2.54"/>
  <path d="m76.409 54.501v5.14"/>
  <path d="m86.092 57.838-7.1438 7.1438"/>
  <path d="m69.424 22.119h16.669"/>
  <path d="m86.092 22.119v35.719"/>
  <path d="m31.324 22.119 7.1438-7.1437"/>
  <path d="m38.468 14.975h23.812"/>
  <path d="m14.655 22.119h16.669"/>
  <path d="m62.28 14.975 7.1437 7.1437"/>
 </g>
 <g fill="#fff">
  <circle cx="28.308" cy="9.575" r=".875"/>
  <circle cx="33.388" cy="9.575" r="2"/>
  <circle cx="38.468" cy="9.575" r=".875"/>
  <circle cx="29.578" cy="7.035" r=".75"/>
  <circle cx="35.928" cy="4.495" r=".75"/>
  <circle cx="75.932" cy="16.719" r=".875"/>
  <circle cx="81.012" cy="16.719" r="2"/>
  <circle cx="86.092" cy="16.719" r=".875"/>
  <circle cx="77.202" cy="14.179" r=".75"/>
  <circle cx="83.552" cy="11.639" r=".75"/>
  <circle cx="52.12" cy="9.575" r=".875"/>
  <circle cx="57.2" cy="9.575" r="2"/>
  <circle cx="62.28" cy="9.575" r=".875"/>
  <circle cx="53.39" cy="7.035" r=".75"/>
  <circle cx="59.74" cy="4.495" r=".75"/>
  <circle cx="11.639" cy="59.581" r=".875"/>
  <circle cx="16.719" cy="59.581" r="2"/>
  <circle cx="21.799" cy="59.581" r=".875"/>
  <circle cx="12.909" cy="57.041" r=".75"/>
  <circle cx="19.259" cy="54.501" r=".75"/>
  <circle cx="4.495" cy="16.719" r=".875"/>
  <circle cx="9.575" cy="16.719" r="2"/>
  <circle cx="14.655" cy="16.719" r=".875"/>
  <circle cx="5.765" cy="14.179" r=".75"/>
  <circle cx="12.115" cy="11.639" r=".75"/>
  <circle cx="68.789" cy="59.581" r=".875"/>
  <circle cx="73.869" cy="59.581" r="2"/>
  <circle cx="78.949" cy="59.581" r=".875"/>
  <circle cx="70.059" cy="57.041" r=".75"/>
  <circle cx="76.409" cy="54.501" r=".75"/>
 </g>
</svg>
