<?xml version="1.0" encoding="UTF-8"?>
<!DOCTYPE svg  PUBLIC '-//W3C//DTD SVG 1.1//EN'  'http://www.w3.org/Graphics/SVG/1.1/DTD/svg11.dtd'>
<svg width="91.211mm" height="74.93mm" version="1.1" viewBox="0 0 91.211 74.93" xmlns="http://www.w3.org/2000/svg">
 <title>SVG Image created as trackball_madromys-render.svg date 2026/07/14 10:50:31</title>
 <desc>Image generated by PCBNEW</desc>
 <rect width="91.211mm" height="74.93mm" fill="#282A36"/>
 <g fill="#f55">
  <circle cx="30.221" cy="7.035" r="1.25"/>
  <circle cx="36.571" cy="4.495" r="1.25"/>
  <circle cx="54.034" cy="7.035" r="1.25"/>
  <circle cx="60.384" cy="4.495" r="1.25"/>
  <circle cx="70.703" cy="57.041" r="1.25"/>
  <circle cx="77.053" cy="54.501" r="1.25"/>
  <circle cx="13.553" cy="57.041" r="1.25"/>
  <circle cx="19.903" cy="54.501" r="1.25"/>
  <circle cx="6.4089" cy="14.179" r="1.25"/>
  <circle cx="12.759" cy="11.639" r="1.25"/>
  <circle cx="77.846" cy="14.179" r="1.25"/>
  <circle cx="84.196" cy="11.639" r="1.25"/>
 </g>
 <g fill="#50FA7B">
  <circle cx="30.221" cy="7.035" r="1.25"/>
  <circle cx="36.571" cy="4.495" r="1.25"/>
  <circle cx="54.034" cy="7.035" r="1.25"/>
  <circle cx="60.384" cy="4.495" r="1.25"/>
  <circle cx="70.703" cy="57.041" r="1.25"/>
  <circle cx="77.053" cy="54.501" r="1.25"/>
  <circle cx="13.553" cy="57.041" r="1.25"/>
  <circle cx="19.903" cy="54.501" r="1.25"/>
  <circle cx="6.4089" cy="14.179" r="1.25"/>
  <circle cx="12.759" cy="11.639" r="1.25"/>
  <circle cx="77.846" cy="14.179" r="1.25"/>
  <circle cx="84.196" cy="11.639" r="1.25"/>
  <g fill="#50FA7B" fill-rule="evenodd">
   <path d="m22.143 65.531-0.0956-0.019-0.0811-0.0542-0.0542-0.0811-0.0191-0.0957v-0.6l0.0191-0.0956 0.0542-0.0811 0.0811-0.0542 0.0956-0.0191h0.6l0.0957 0.0191 0.0811 0.0542 0.0542 0.0811 0.019 0.0956v0.6l-0.019 0.0957-0.0542 0.0811-0.0811 0.0542-0.0957 0.019z"/>
   <path d="m22.143 62.731-0.0956-0.019-0.0811-0.0542-0.0542-0.0811-0.0191-0.0957v-0.6l0.0191-0.0956 0.0542-0.0811 0.0811-0.0542 0.0956-0.0191h0.6l0.0957 0.0191 0.0811 0.0542 0.0542 0.0811 0.019 0.0956v0.6l-0.019 0.0957-0.0542 0.0811-0.0811 0.0542-0.0957 0.019z"/>
   <path d="m79.293 65.531-0.0956-0.019-0.0811-0.0542-0.0542-0.0811-0.0191-0.0957v-0.6l0.0191-0.0956 0.0542-0.0811 0.0811-0.0542 0.0956-0.0191h0.6001l0.0956 0.0191 0.0811 0.0542 0.0542 0.0811 0.0191 0.0956v0.6l-0.0191 0.0957-0.0542 0.0811-0.0811 0.0542-0.0956 0.019z"/>
   <path d="m79.293 62.731-0.0956-0.019-0.0811-0.0542-0.0542-0.0811-0.0191-0.0957v-0.6l0.0191-0.0956 0.0542-0.0811 0.0811-0.0542 0.0956-0.0191h0.6001l0.0956 0.0191 0.0811 0.0542 0.0542 0.0811 0.0191 0.0956v0.6l-0.0191 0.0957-0.0542 0.0811-0.0811 0.0542-0.0956 0.019z"/>
   <path d="m62.624 15.525-0.0957-0.019-0.0811-0.0542-0.0542-0.0811-0.019-0.0957v-0.6l0.019-0.0957 0.0542-0.0811 0.0811-0.0542 0.0957-0.019h0.6l0.0957 0.019 0.0811 0.0542 0.0542 0.0811 0.019 0.0957v0.6l-0.019 0.0957-0.0542 0.0811-0.0811 0.0542-0.0957 0.019z"/>
   <path d="m62.624 12.725-0.0957-0.019-0.0811-0.0542-0.0542-0.0811-0.019-0.0957v-0.6l0.019-0.0957 0.0542-0.0811 0.0811-0.0542 0.0957-0.019h0.6l0.0957 0.019 0.0811 0.0542 0.0542 0.0811 0.019 0.0957v0.6l-0.019 0.0957-0.0542 0.0811-0.0811 0.0542-0.0957 0.019z"/>
   <path d="m14.999 22.669-0.0957-0.019-0.0811-0.0542-0.0542-0.0811-0.019-0.0957v-0.6l0.019-0.0956 0.0542-0.0811 0.0811-0.0542 0.0957-0.0191h0.6l0.0957 0.0191 0.0811 0.0542 0.0542 0.0811 0.019 0.0956v0.6l-0.019 0.0957-0.0542 0.0811-0.0811 0.0542-0.0957 0.019z"/>
   <path d="m14.999 19.869-0.0957-0.019-0.0811-0.0542-0.0542-0.0811-0.019-0.0957v-0.5999l0.019-0.0957 0.0542-0.0811 0.0811-0.0542 0.0957-0.019h0.6l0.0957 0.019 0.0811 0.0542 0.0542 0.0811 0.019 0.0957v0.5999l-0.019 0.0957-0.0542 0.0811-0.0811 0.0542-0.0957 0.019z"/>
   <path d="m86.436 22.669-0.0957-0.019-0.0811-0.0542-0.0542-0.0811-0.019-0.0957v-0.6l0.019-0.0956 0.0542-0.0811 0.0811-0.0542 0.0957-0.0191h0.6l0.0957 0.0191 0.0811 0.0542 0.0542 0.0811 0.019 0.0956v0.6l-0.019 0.0957-0.0542 0.0811-0.0811 0.0542-0.0957 0.019z"/>
   <path d="m86.436 19.869-0.0957-0.019-0.0811-0.0542-0.0542-0.0811-0.019-0.0957v-0.5999l0.019-0.0957 0.0542-0.0811 0.0811-0.0542 0.0957-0.019h0.6l0.0957 0.019 0.0811 0.0542 0.0542 0.0811 0.019 0.0957v0.5999l-0.019 0.0957-0.0542 0.0811-0.0811 0.0542-0.0957 0.019z"/>
   <path d="m38.811 15.525-0.0957-0.019-0.0811-0.0542-0.0542-0.0811-0.019-0.0957v-0.6l0.019-0.0957 0.0542-0.0811 0.0811-0.0542 0.0957-0.019h0.6l0.0957 0.019 0.0811 0.0542 0.0542 0.0811 0.019 0.0957v0.6l-0.019 0.0957-0.0542 0.0811-0.0811 0.0542-0.0957 0.019z"/>
   <path d="m38.811 12.725-0.0957-0.019-0.0811-0.0542-0.0542-0.0811-0.019-0.0957v-0.6l0.019-0.0957 0.0542-0.0811 0.0811-0.0542 0.0957-0.019h0.6l0.0957 0.019 0.0811 0.0542 0.0542 0.0811 0.019 0.0957v0.6l-0.019 0.0957-0.0542 0.0811-0.0811 0.0542-0.0957 0.019z"/>
  </g>
 </g>
 <g fill="none" stroke-linecap="round" stroke-linejoin="round">
  <g stroke="#50FA7B" stroke-width=".2">
   <path d="m19.903 54.501v5.14"/>
   <path d="m19.903 59.641 2.5401 2.54"/>
   <path d="m12.759 16.779 2.54 2.54"/>
   <path d="m12.759 11.639v5.14"/>
   <path d="m36.571 9.635 2.54 2.54"/>
   <path d="m36.571 4.495v5.14"/>
   <path d="m60.384 9.635 2.54 2.54"/>
   <path d="m60.384 4.495v5.14"/>
   <path d="m84.196 16.779 2.54 2.54"/>
   <path d="m84.196 11.639v5.14"/>
   <path d="m77.053 59.641 2.54 2.54"/>
   <path d="m77.053 54.501v5.14"/>
   <path d="m39.111 14.975h23.812"/>
   <path d="m62.924 14.975 7.1438 7.1437"/>
   <path d="m86.736 22.119v35.719"/>
   <path d="m86.736 57.838-7.1438 7.1438"/>
   <path d="m31.968 22.119 7.1438-7.1437"/>
   <path d="m15.299 22.119h16.669"/>
   <path d="m70.068 22.119h16.669"/>
  </g>
  <g stroke="#8BE9FD" stroke-width=".15">
   <g transform="rotate(-90 83.656 16.719)">
    <text x="83.6564" y="17.2188" font-size="1.3333" opacity="0" stroke-opacity="0" text-anchor="middle" lengthAdjust="spacingAndGlyphs" textLength="2.9167">ST5</text>
   </g>
   <g class="stroked-text">
    <desc>ST5</desc>
    <path d="m84.064 17.862 0.0476-0.1429"/>
    <path d="m84.111 17.719v-0.238"/>
    <path d="m84.111 17.481-0.0476-0.0953"/>
    <path d="m84.064 17.385-0.0476-0.0476"/>
    <path d="m84.016 17.338-0.0953-0.0476"/>
    <path d="m83.921 17.29h-0.0952"/>
    <path d="m83.826 17.29-0.0952 0.0476"/>
    <path d="m83.73 17.338-0.0477 0.0476"/>
    <path d="m83.683 17.385-0.0476 0.0953"/>
    <path d="m83.635 17.481-0.0476 0.1904"/>
    <path d="m83.587 17.671-0.0476 0.0953"/>
    <path d="m83.54 17.766-0.0476 0.0476"/>
    <path d="m83.492 17.814-0.0953 0.0476"/>
    <path d="m83.397 17.862h-0.0952"/>
    <path d="m83.302 17.862-0.0952-0.0476"/>
    <path d="m83.206 17.814-0.0477-0.0476"/>
    <path d="m83.159 17.766-0.0476-0.0953"/>
    <path d="m83.111 17.671v-0.2381"/>
    <path d="m83.111 17.433 0.0476-0.1428"/>
    <path d="m83.111 17.004v-0.5715"/>
    <path d="m84.111 16.719h-1"/>
    <path d="m83.111 15.624v0.4762"/>
    <path d="m83.111 16.1 0.4762 0.0476"/>
    <path d="m83.587 16.147-0.0476-0.0476"/>
    <path d="m83.54 16.1-0.0476-0.0952"/>
    <path d="m83.492 16.004v-0.2381"/>
    <path d="m83.492 15.766 0.0476-0.0953"/>
    <path d="m83.54 15.671 0.0476-0.0476"/>
    <path d="m83.587 15.624 0.0952-0.0476"/>
    <path d="m83.683 15.576h0.2381"/>
    <path d="m83.921 15.576 0.0953 0.0476"/>
    <path d="m84.016 15.624 0.0476 0.0476"/>
    <path d="m84.064 15.671 0.0476 0.0953"/>
    <path d="m84.111 15.766v0.2381"/>
    <path d="m84.111 16.004-0.0476 0.0952"/>
    <path d="m84.064 16.1-0.0476 0.0476"/>
   </g>
   <text x="34.0314" y="2.0750" font-size="1.3333" opacity="0" stroke-opacity="0" text-anchor="middle" lengthAdjust="spacingAndGlyphs" textLength="3.2976">SW3</text>
   <g class="stroked-text">
    <desc>SW3</desc>
    <path d="m32.698 1.9822 0.1428 0.0476"/>
    <path d="m32.841 2.0298h0.2381"/>
    <path d="m33.079 2.0298 0.0953-0.0476"/>
    <path d="m33.174 1.9822 0.0476-0.0476"/>
    <path d="m33.222 1.9346 0.0476-0.0953"/>
    <path d="m33.27 1.8393v-0.0952"/>
    <path d="m33.27 1.7441-0.0476-0.0952"/>
    <path d="m33.222 1.6489-0.0476-0.0477"/>
    <path d="m33.174 1.6012-0.0953-0.0476"/>
    <path d="m33.079 1.5536-0.1905-0.0476"/>
    <path d="m32.888 1.506-0.0952-0.0476"/>
    <path d="m32.793 1.4584-0.0476-0.0476"/>
    <path d="m32.746 1.4108-0.0476-0.0953"/>
    <path d="m32.698 1.3155v-0.0952"/>
    <path d="m32.698 1.2203 0.0476-0.0952"/>
    <path d="m32.746 1.1251 0.0476-0.0477"/>
    <path d="m32.793 1.0774 0.0952-0.0476"/>
    <path d="m32.888 1.0298h0.2381"/>
    <path d="m33.127 1.0298 0.1429 0.0476"/>
    <path d="m33.603 1.0298 0.2381 1"/>
    <path d="m33.841 2.0298 0.1905-0.7143"/>
    <path d="m34.031 1.3155 0.1905 0.7143"/>
    <path d="m34.222 2.0298 0.2381-1"/>
    <path d="m34.746 1.0298h0.619"/>
    <path d="m35.365 1.0298-0.3333 0.381"/>
    <path d="m35.031 1.4108h0.1429"/>
    <path d="m35.174 1.4108 0.0952 0.0476"/>
    <path d="m35.27 1.4584 0.0476 0.0476"/>
    <path d="m35.317 1.506 0.0476 0.0952"/>
    <path d="m35.365 1.6012v0.2381"/>
    <path d="m35.365 1.8393-0.0476 0.0953"/>
    <path d="m35.317 1.9346-0.0476 0.0476"/>
    <path d="m35.27 1.9822-0.0952 0.0476"/>
    <path d="m35.174 2.0298h-0.2858"/>
    <path d="m34.888 2.0298-0.0952-0.0476"/>
    <path d="m34.793 1.9822-0.0476-0.0476"/>
   </g>
   <g transform="rotate(-90 12.219 16.719)">
    <text x="12.2189" y="17.2188" font-size="1.3333" opacity="0" stroke-opacity="0" text-anchor="middle" lengthAdjust="spacingAndGlyphs" textLength="2.9167">ST2</text>
   </g>
   <g class="stroked-text">
    <desc>ST2</desc>
    <path d="m12.626 17.862 0.0476-0.1429"/>
    <path d="m12.674 17.719v-0.238"/>
    <path d="m12.674 17.481-0.0476-0.0953"/>
    <path d="m12.626 17.385-0.0476-0.0476"/>
    <path d="m12.578 17.338-0.0953-0.0476"/>
    <path d="m12.483 17.29h-0.0952"/>
    <path d="m12.388 17.29-0.0952 0.0476"/>
    <path d="m12.293 17.338-0.0477 0.0476"/>
    <path d="m12.245 17.385-0.0476 0.0953"/>
    <path d="m12.198 17.481-0.0476 0.1904"/>
    <path d="m12.15 17.671-0.0476 0.0953"/>
    <path d="m12.102 17.766-0.0476 0.0476"/>
    <path d="m12.055 17.814-0.0953 0.0476"/>
    <path d="m11.959 17.862h-0.0952"/>
    <path d="m11.864 17.862-0.0952-0.0476"/>
    <path d="m11.769 17.814-0.0477-0.0476"/>
    <path d="m11.721 17.766-0.0476-0.0953"/>
    <path d="m11.674 17.671v-0.2381"/>
    <path d="m11.674 17.433 0.0476-0.1428"/>
    <path d="m11.674 17.004v-0.5715"/>
    <path d="m12.674 16.719h-1"/>
    <path d="m11.769 16.147-0.0477-0.0476"/>
    <path d="m11.721 16.1-0.0476-0.0952"/>
    <path d="m11.674 16.004v-0.2381"/>
    <path d="m11.674 15.766 0.0476-0.0953"/>
    <path d="m11.721 15.671 0.0477-0.0476"/>
    <path d="m11.769 15.624 0.0952-0.0476"/>
    <path d="m11.864 15.576h0.0952"/>
    <path d="m11.959 15.576 0.1429 0.0476"/>
    <path d="m12.102 15.624 0.5714 0.5714"/>
    <path d="m12.674 16.195v-0.619"/>
   </g>
   <text x="57.8439" y="2.0750" font-size="1.3333" opacity="0" stroke-opacity="0" text-anchor="middle" lengthAdjust="spacingAndGlyphs" textLength="3.2976">SW4</text>
   <g class="stroked-text">
    <desc>SW4</desc>
    <path d="m56.511 1.9822 0.1428 0.0476"/>
    <path d="m56.653 2.0298h0.2381"/>
    <path d="m56.892 2.0298 0.0953-0.0476"/>
    <path d="m56.987 1.9822 0.0476-0.0476"/>
    <path d="m57.034 1.9346 0.0476-0.0953"/>
    <path d="m57.082 1.8393v-0.0952"/>
    <path d="m57.082 1.7441-0.0476-0.0952"/>
    <path d="m57.034 1.6489-0.0476-0.0477"/>
    <path d="m56.987 1.6012-0.0953-0.0476"/>
    <path d="m56.892 1.5536-0.1905-0.0476"/>
    <path d="m56.701 1.506-0.0952-0.0476"/>
    <path d="m56.606 1.4584-0.0476-0.0476"/>
    <path d="m56.558 1.4108-0.0476-0.0953"/>
    <path d="m56.511 1.3155v-0.0952"/>
    <path d="m56.511 1.2203 0.0476-0.0952"/>
    <path d="m56.558 1.1251 0.0476-0.0477"/>
    <path d="m56.606 1.0774 0.0952-0.0476"/>
    <path d="m56.701 1.0298h0.2381"/>
    <path d="m56.939 1.0298 0.1429 0.0476"/>
    <path d="m57.415 1.0298 0.2381 1"/>
    <path d="m57.653 2.0298 0.1905-0.7143"/>
    <path d="m57.844 1.3155 0.1905 0.7143"/>
    <path d="m58.034 2.0298 0.2381-1"/>
    <path d="m59.082 1.3632v0.6666"/>
    <path d="m58.844 0.9822-0.2381 0.7143"/>
    <path d="m58.606 1.6965h0.6191"/>
   </g>
   <text x="74.5126" y="52.0812" font-size="1.3333" opacity="0" stroke-opacity="0" text-anchor="middle" lengthAdjust="spacingAndGlyphs" textLength="3.2976">SW6</text>
   <g class="stroked-text">
    <desc>SW6</desc>
    <path d="m73.179 51.988 0.1429 0.0476"/>
    <path d="m73.322 52.036h0.2381"/>
    <path d="m73.56 52.036 0.0952-0.0476"/>
    <path d="m73.656 51.988 0.0476-0.0477"/>
    <path d="m73.703 51.941 0.0476-0.0952"/>
    <path d="m73.751 51.846v-0.0952"/>
    <path d="m73.751 51.75-0.0476-0.0953"/>
    <path d="m73.703 51.655-0.0476-0.0476"/>
    <path d="m73.656 51.608-0.0952-0.0476"/>
    <path d="m73.56 51.56-0.1905-0.0476"/>
    <path d="m73.37 51.512-0.0952-0.0477"/>
    <path d="m73.275 51.465-0.0477-0.0476"/>
    <path d="m73.227 51.417-0.0476-0.0952"/>
    <path d="m73.179 51.322v-0.0953"/>
    <path d="m73.179 51.226 0.0476-0.0952"/>
    <path d="m73.227 51.131 0.0477-0.0476"/>
    <path d="m73.275 51.084 0.0952-0.0476"/>
    <path d="m73.37 51.036h0.2381"/>
    <path d="m73.608 51.036 0.1428 0.0476"/>
    <path d="m74.084 51.036 0.2381 1"/>
    <path d="m74.322 52.036 0.1904-0.7143"/>
    <path d="m74.513 51.322 0.1905 0.7143"/>
    <path d="m74.703 52.036 0.2381-1"/>
    <path d="m75.751 51.036h-0.1904"/>
    <path d="m75.56 51.036-0.0953 0.0476"/>
    <path d="m75.465 51.084-0.0476 0.0476"/>
    <path d="m75.417 51.131-0.0952 0.1429"/>
    <path d="m75.322 51.274-0.0476 0.1904"/>
    <path d="m75.275 51.465v0.381"/>
    <path d="m75.275 51.846 0.0476 0.0952"/>
    <path d="m75.322 51.941 0.0476 0.0477"/>
    <path d="m75.37 51.988 0.0952 0.0476"/>
    <path d="m75.465 52.036h0.1905"/>
    <path d="m75.656 52.036 0.0952-0.0476"/>
    <path d="m75.751 51.988 0.0477-0.0477"/>
    <path d="m75.798 51.941 0.0476-0.0952"/>
    <path d="m75.846 51.846v-0.2381"/>
    <path d="m75.846 51.608-0.0476-0.0952"/>
    <path d="m75.798 51.512-0.0477-0.0477"/>
    <path d="m75.751 51.465-0.0952-0.0476"/>
    <path d="m75.656 51.417h-0.1905"/>
    <path d="m75.465 51.417-0.0952 0.0476"/>
    <path d="m75.37 51.465-0.0476 0.0477"/>
    <path d="m75.322 51.512-0.0476 0.0952"/>
   </g>
   <text x="17.3626" y="52.0812" font-size="1.3333" opacity="0" stroke-opacity="0" text-anchor="middle" lengthAdjust="spacingAndGlyphs" textLength="3.2976">SW1</text>
   <g class="stroked-text">
    <desc>SW1</desc>
    <path d="m16.029 51.988 0.1429 0.0476"/>
    <path d="m16.172 52.036h0.2381"/>
    <path d="m16.41 52.036 0.0952-0.0476"/>
    <path d="m16.506 51.988 0.0476-0.0477"/>
    <path d="m16.553 51.941 0.0476-0.0952"/>
    <path d="m16.601 51.846v-0.0952"/>
    <path d="m16.601 51.75-0.0476-0.0953"/>
    <path d="m16.553 51.655-0.0476-0.0476"/>
    <path d="m16.506 51.608-0.0952-0.0476"/>
    <path d="m16.41 51.56-0.1905-0.0476"/>
    <path d="m16.22 51.512-0.0952-0.0477"/>
    <path d="m16.125 51.465-0.0477-0.0476"/>
    <path d="m16.077 51.417-0.0476-0.0952"/>
    <path d="m16.029 51.322v-0.0953"/>
    <path d="m16.029 51.226 0.0476-0.0952"/>
    <path d="m16.077 51.131 0.0477-0.0476"/>
    <path d="m16.125 51.084 0.0952-0.0476"/>
    <path d="m16.22 51.036h0.2381"/>
    <path d="m16.458 51.036 0.1428 0.0476"/>
    <path d="m16.934 51.036 0.2381 1"/>
    <path d="m17.172 52.036 0.1904-0.7143"/>
    <path d="m17.363 51.322 0.1905 0.7143"/>
    <path d="m17.553 52.036 0.2381-1"/>
    <path d="m18.696 52.036h-0.5714"/>
    <path d="m18.41 52.036v-1"/>
    <path d="m18.41 51.036-0.0953 0.1428"/>
    <path d="m18.315 51.179-0.0952 0.0953"/>
    <path d="m18.22 51.274-0.0952 0.0476"/>
   </g>
   <text x="10.2189" y="9.2188" font-size="1.3333" opacity="0" stroke-opacity="0" text-anchor="middle" lengthAdjust="spacingAndGlyphs" textLength="3.2976">SW2</text>
   <g class="stroked-text">
    <desc>SW2</desc>
    <path d="m8.8856 9.1259 0.1428 0.0477"/>
    <path d="m9.0284 9.1736h0.2381"/>
    <path d="m9.2665 9.1736 0.0953-0.0477"/>
    <path d="m9.3618 9.1259 0.0476-0.0476"/>
    <path d="m9.4094 9.0783 0.0476-0.0952"/>
    <path d="m9.457 8.9831v-0.0952"/>
    <path d="m9.457 8.8879-0.0476-0.0953"/>
    <path d="m9.4094 8.7926-0.0476-0.0476"/>
    <path d="m9.3618 8.745-0.0953-0.0476"/>
    <path d="m9.2665 8.6974-0.1905-0.0476"/>
    <path d="m9.076 8.6498-0.0952-0.0477"/>
    <path d="m8.9808 8.6021-0.0476-0.0476"/>
    <path d="m8.9332 8.5545-0.0476-0.0952"/>
    <path d="m8.8856 8.4593v-0.0953"/>
    <path d="m8.8856 8.364 0.0476-0.0952"/>
    <path d="m8.9332 8.2688 0.0476-0.0476"/>
    <path d="m8.9808 8.2212 0.0952-0.0476"/>
    <path d="m9.076 8.1736h0.2381"/>
    <path d="m9.3141 8.1736 0.1429 0.0476"/>
    <path d="m9.7903 8.1736 0.2381 1"/>
    <path d="m10.028 9.1736 0.1905-0.7143"/>
    <path d="m10.219 8.4593 0.1905 0.7143"/>
    <path d="m10.409 9.1736 0.2381-1"/>
    <path d="m10.981 8.2688 0.0476-0.0476"/>
    <path d="m11.028 8.2212 0.0953-0.0476"/>
    <path d="m11.124 8.1736h0.2381"/>
    <path d="m11.362 8.1736 0.0952 0.0476"/>
    <path d="m11.457 8.2212 0.0476 0.0476"/>
    <path d="m11.505 8.2688 0.0476 0.0952"/>
    <path d="m11.552 8.364v0.0953"/>
    <path d="m11.552 8.4593-0.0476 0.1428"/>
    <path d="m11.505 8.6021-0.5714 0.5715"/>
    <path d="m10.933 9.1736h0.619"/>
   </g>
   <g transform="rotate(-90 19.363 59.581)">
    <text x="19.3626" y="60.0812" font-size="1.3333" opacity="0" stroke-opacity="0" text-anchor="middle" lengthAdjust="spacingAndGlyphs" textLength="2.9167">ST1</text>
   </g>
   <g class="stroked-text">
    <desc>ST1</desc>
    <path d="m19.77 60.724 0.0477-0.1429"/>
    <path d="m19.818 60.581v-0.238"/>
    <path d="m19.818 60.343-0.0477-0.0953"/>
    <path d="m19.77 60.248-0.0476-0.0476"/>
    <path d="m19.722 60.2-0.0952-0.0476"/>
    <path d="m19.627 60.153h-0.0952"/>
    <path d="m19.532 60.153-0.0953 0.0476"/>
    <path d="m19.436 60.2-0.0476 0.0476"/>
    <path d="m19.389 60.248-0.0476 0.0953"/>
    <path d="m19.341 60.343-0.0476 0.1904"/>
    <path d="m19.294 60.534-0.0477 0.0953"/>
    <path d="m19.246 60.629-0.0476 0.0476"/>
    <path d="m19.198 60.676-0.0952 0.0476"/>
    <path d="m19.103 60.724h-0.0953"/>
    <path d="m19.008 60.724-0.0952-0.0476"/>
    <path d="m18.913 60.676-0.0476-0.0476"/>
    <path d="m18.865 60.629-0.0476-0.0953"/>
    <path d="m18.818 60.534v-0.2381"/>
    <path d="m18.818 60.296 0.0476-0.1428"/>
    <path d="m18.818 59.867v-0.5715"/>
    <path d="m19.818 59.581h-1"/>
    <path d="m19.818 58.438v0.5714"/>
    <path d="m19.818 58.724h-1"/>
    <path d="m18.818 58.724 0.1428 0.0952"/>
    <path d="m18.96 58.819 0.0953 0.0953"/>
    <path d="m19.056 58.915 0.0476 0.0952"/>
   </g>
   <text x="81.6564" y="9.2188" font-size="1.3333" opacity="0" stroke-opacity="0" text-anchor="middle" lengthAdjust="spacingAndGlyphs" textLength="3.2976">SW5</text>
   <g class="stroked-text">
    <desc>SW5</desc>
    <path d="m80.323 9.1259 0.1428 0.0477"/>
    <path d="m80.466 9.1736h0.2381"/>
    <path d="m80.704 9.1736 0.0953-0.0477"/>
    <path d="m80.799 9.1259 0.0476-0.0476"/>
    <path d="m80.847 9.0783 0.0476-0.0952"/>
    <path d="m80.894 8.9831v-0.0952"/>
    <path d="m80.894 8.8879-0.0476-0.0953"/>
    <path d="m80.847 8.7926-0.0476-0.0476"/>
    <path d="m80.799 8.745-0.0953-0.0476"/>
    <path d="m80.704 8.6974-0.1905-0.0476"/>
    <path d="m80.514 8.6498-0.0952-0.0477"/>
    <path d="m80.418 8.6021-0.0476-0.0476"/>
    <path d="m80.371 8.5545-0.0476-0.0952"/>
    <path d="m80.323 8.4593v-0.0953"/>
    <path d="m80.323 8.364 0.0476-0.0952"/>
    <path d="m80.371 8.2688 0.0476-0.0476"/>
    <path d="m80.418 8.2212 0.0952-0.0476"/>
    <path d="m80.514 8.1736h0.2381"/>
    <path d="m80.752 8.1736 0.1429 0.0476"/>
    <path d="m81.228 8.1736 0.2381 1"/>
    <path d="m81.466 9.1736 0.1905-0.7143"/>
    <path d="m81.656 8.4593 0.1905 0.7143"/>
    <path d="m81.847 9.1736 0.2381-1"/>
    <path d="m82.942 8.1736h-0.4762"/>
    <path d="m82.466 8.1736-0.0476 0.4762"/>
    <path d="m82.418 8.6498 0.0476-0.0477"/>
    <path d="m82.466 8.6021 0.0953-0.0476"/>
    <path d="m82.561 8.5545h0.2381"/>
    <path d="m82.799 8.5545 0.0952 0.0476"/>
    <path d="m82.894 8.6021 0.0476 0.0477"/>
    <path d="m82.942 8.6498 0.0476 0.0952"/>
    <path d="m82.99 8.745v0.2381"/>
    <path d="m82.99 8.9831-0.0476 0.0952"/>
    <path d="m82.942 9.0783-0.0476 0.0476"/>
    <path d="m82.894 9.1259-0.0952 0.0477"/>
    <path d="m82.799 9.1736h-0.2381"/>
    <path d="m82.561 9.1736-0.0953-0.0477"/>
    <path d="m82.466 9.1259-0.0476-0.0476"/>
   </g>
   <g transform="rotate(-90 76.513 59.581)">
    <text x="76.5126" y="60.0812" font-size="1.3333" opacity="0" stroke-opacity="0" text-anchor="middle" lengthAdjust="spacingAndGlyphs" textLength="2.9167">ST6</text>
   </g>
   <g class="stroked-text">
    <desc>ST6</desc>
    <path d="m76.92 60.724 0.0477-0.1429"/>
    <path d="m76.968 60.581v-0.238"/>
    <path d="m76.968 60.343-0.0477-0.0953"/>
    <path d="m76.92 60.248-0.0476-0.0476"/>
    <path d="m76.872 60.2-0.0952-0.0476"/>
    <path d="m76.777 60.153h-0.0952"/>
    <path d="m76.682 60.153-0.0953 0.0476"/>
    <path d="m76.586 60.2-0.0476 0.0476"/>
    <path d="m76.539 60.248-0.0476 0.0953"/>
    <path d="m76.491 60.343-0.0476 0.1904"/>
    <path d="m76.444 60.534-0.0477 0.0953"/>
    <path d="m76.396 60.629-0.0476 0.0476"/>
    <path d="m76.348 60.676-0.0952 0.0476"/>
    <path d="m76.253 60.724h-0.0953"/>
    <path d="m76.158 60.724-0.0952-0.0476"/>
    <path d="m76.063 60.676-0.0476-0.0476"/>
    <path d="m76.015 60.629-0.0476-0.0953"/>
    <path d="m75.968 60.534v-0.2381"/>
    <path d="m75.968 60.296 0.0476-0.1428"/>
    <path d="m75.968 59.867v-0.5715"/>
    <path d="m76.968 59.581h-1"/>
    <path d="m75.968 58.534v0.1905"/>
    <path d="m75.968 58.724 0.0476 0.0952"/>
    <path d="m76.015 58.819 0.0476 0.0477"/>
    <path d="m76.063 58.867 0.1429 0.0952"/>
    <path d="m76.206 58.962 0.1904 0.0476"/>
    <path d="m76.396 59.01h0.381"/>
    <path d="m76.777 59.01 0.0952-0.0476"/>
    <path d="m76.872 58.962 0.0476-0.0476"/>
    <path d="m76.92 58.915 0.0477-0.0953"/>
    <path d="m76.968 58.819v-0.1904"/>
    <path d="m76.968 58.629-0.0477-0.0953"/>
    <path d="m76.92 58.534-0.0476-0.0476"/>
    <path d="m76.872 58.486-0.0952-0.0476"/>
    <path d="m76.777 58.438h-0.2381"/>
    <path d="m76.539 58.438-0.0952 0.0476"/>
    <path d="m76.444 58.486-0.0477 0.0476"/>
    <path d="m76.396 58.534-0.0476 0.0953"/>
    <path d="m76.348 58.629v0.1904"/>
    <path d="m76.348 58.819 0.0476 0.0953"/>
    <path d="m76.396 58.915 0.0477 0.0476"/>
    <path d="m76.444 58.962 0.0952 0.0476"/>
   </g>
  </g>
  <g stroke="#8BE9FD" stroke-width=".12">
   <path d="m26.931 2.475v14.2"/>
   <path d="m26.931 16.675h14.2"/>
   <path d="m41.131 2.475h-14.2"/>
   <path d="m41.131 16.675v-14.2"/>
   <path d="m50.744 2.475v14.2"/>
   <path d="m50.744 16.675h14.2"/>
   <path d="m64.944 2.475h-14.2"/>
   <path d="m64.944 16.675v-14.2"/>
   <path d="m67.413 52.481v14.2"/>
   <path d="m67.413 66.681h14.2"/>
   <path d="m81.613 52.481h-14.2"/>
   <path d="m81.613 66.681v-14.2"/>
   <path d="m10.263 52.481v14.2"/>
   <path d="m10.263 66.681h14.2"/>
   <path d="m24.463 52.481h-14.2"/>
   <path d="m24.463 66.681v-14.2"/>
   <path d="m3.1189 9.6188v14.2"/>
   <path d="m3.1189 23.819h14.2"/>
   <path d="m17.319 9.6188h-14.2"/>
   <path d="m17.319 23.819v-14.2"/>
   <path d="m74.556 9.6188v14.2"/>
   <path d="m74.556 23.819h14.2"/>
   <path d="m88.756 9.6188h-14.2"/>
   <path d="m88.756 23.819v-14.2"/>
  </g>
  <g stroke="#BD93F9" stroke-width=".15">
   <g transform="rotate(-90 24.348 63.708)">
    <text transform="scale(-1 1) translate(-48.695)" x="24.3476" y="64.2082" font-size="1.3333" opacity="0" stroke-opacity="0" text-anchor="middle" lengthAdjust="spacingAndGlyphs" textLength="2.2024">D1</text>
   </g>
   <g class="stroked-text">
    <desc>D1</desc>
    <path d="m24.802 62.97h-1"/>
    <path d="m23.802 62.97v0.238"/>
    <path d="m23.802 63.208 0.0476 0.1429"/>
    <path d="m23.85 63.351 0.0952 0.0952"/>
    <path d="m23.945 63.446 0.0953 0.0477"/>
    <path d="m24.041 63.494 0.1904 0.0476"/>
    <path d="m24.231 63.542h0.1429"/>
    <path d="m24.374 63.542 0.1905-0.0476"/>
    <path d="m24.564 63.494 0.0952-0.0477"/>
    <path d="m24.66 63.446 0.0952-0.0952"/>
    <path d="m24.755 63.351 0.0477-0.1429"/>
    <path d="m24.802 63.208v-0.238"/>
    <path d="m24.802 64.494v-0.5715"/>
    <path d="m24.802 64.208h-1"/>
    <path d="m23.802 64.208 0.1428-0.0952"/>
    <path d="m23.945 64.113 0.0953-0.0952"/>
    <path d="m24.041 64.018 0.0476-0.0953"/>
   </g>
   <g transform="rotate(-90 81.498 63.708)">
    <text transform="scale(-1 1) translate(-163)" x="81.4976" y="64.2082" font-size="1.3333" opacity="0" stroke-opacity="0" text-anchor="middle" lengthAdjust="spacingAndGlyphs" textLength="2.2024">D6</text>
   </g>
   <g class="stroked-text">
    <desc>D6</desc>
    <path d="m81.952 62.97h-1"/>
    <path d="m80.952 62.97v0.238"/>
    <path d="m80.952 63.208 0.0476 0.1429"/>
    <path d="m81 63.351 0.0952 0.0952"/>
    <path d="m81.095 63.446 0.0953 0.0477"/>
    <path d="m81.191 63.494 0.1904 0.0476"/>
    <path d="m81.381 63.542h0.1429"/>
    <path d="m81.524 63.542 0.1905-0.0476"/>
    <path d="m81.714 63.494 0.0952-0.0477"/>
    <path d="m81.81 63.446 0.0952-0.0952"/>
    <path d="m81.905 63.351 0.0477-0.1429"/>
    <path d="m81.952 63.208v-0.238"/>
    <path d="m80.952 64.399v-0.1905"/>
    <path d="m80.952 64.208 0.0476-0.0952"/>
    <path d="m81 64.113 0.0476-0.0476"/>
    <path d="m81.048 64.065 0.1429-0.0952"/>
    <path d="m81.191 63.97 0.1904-0.0477"/>
    <path d="m81.381 63.922h0.381"/>
    <path d="m81.762 63.922 0.0952 0.0477"/>
    <path d="m81.857 63.97 0.0476 0.0476"/>
    <path d="m81.905 64.018 0.0477 0.0952"/>
    <path d="m81.952 64.113v0.1905"/>
    <path d="m81.952 64.304-0.0477 0.0952"/>
    <path d="m81.905 64.399-0.0476 0.0476"/>
    <path d="m81.857 64.446-0.0952 0.0477"/>
    <path d="m81.762 64.494h-0.2381"/>
    <path d="m81.524 64.494-0.0952-0.0477"/>
    <path d="m81.429 64.446-0.0477-0.0476"/>
    <path d="m81.381 64.399-0.0476-0.0952"/>
    <path d="m81.333 64.304v-0.1905"/>
    <path d="m81.333 64.113 0.0476-0.0952"/>
    <path d="m81.381 64.018 0.0477-0.0476"/>
    <path d="m81.429 63.97 0.0952-0.0477"/>
   </g>
   <g transform="rotate(-90 64.829 13.702)">
    <text transform="scale(-1 1) translate(-129.66)" x="64.8289" y="14.2020" font-size="1.3333" opacity="0" stroke-opacity="0" text-anchor="middle" lengthAdjust="spacingAndGlyphs" textLength="2.2024">D4</text>
   </g>
   <g class="stroked-text">
    <desc>D4</desc>
    <path d="m65.284 12.964h-1"/>
    <path d="m64.284 12.964v0.2381"/>
    <path d="m64.284 13.202 0.0476 0.1429"/>
    <path d="m64.331 13.345 0.0953 0.0952"/>
    <path d="m64.427 13.44 0.0952 0.0476"/>
    <path d="m64.522 13.488 0.1905 0.0476"/>
    <path d="m64.712 13.535h0.1428"/>
    <path d="m64.855 13.535 0.1905-0.0476"/>
    <path d="m65.046 13.488 0.0953-0.0476"/>
    <path d="m65.141 13.44 0.0952-0.0952"/>
    <path d="m65.236 13.345 0.0476-0.1429"/>
    <path d="m65.284 13.202v-0.2381"/>
    <path d="m64.617 14.392h0.6666"/>
    <path d="m64.236 14.154 0.7143-0.2381"/>
    <path d="m64.95 13.916v0.619"/>
   </g>
   <g transform="rotate(-90 17.204 20.846)">
    <text transform="scale(-1 1) translate(-34.408)" x="17.2039" y="21.3457" font-size="1.3333" opacity="0" stroke-opacity="0" text-anchor="middle" lengthAdjust="spacingAndGlyphs" textLength="2.2024">D2</text>
   </g>
   <g class="stroked-text">
    <desc>D2</desc>
    <path d="m17.659 20.108h-1"/>
    <path d="m16.659 20.108v0.238"/>
    <path d="m16.659 20.346 0.0476 0.1429"/>
    <path d="m16.706 20.489 0.0953 0.0952"/>
    <path d="m16.802 20.584 0.0952 0.0477"/>
    <path d="m16.897 20.632 0.1905 0.0476"/>
    <path d="m17.087 20.679h0.1428"/>
    <path d="m17.23 20.679 0.1905-0.0476"/>
    <path d="m17.421 20.632 0.0953-0.0477"/>
    <path d="m17.516 20.584 0.0952-0.0952"/>
    <path d="m17.611 20.489 0.0476-0.1429"/>
    <path d="m17.659 20.346v-0.238"/>
    <path d="m16.754 21.06-0.0477 0.0477"/>
    <path d="m16.706 21.108-0.0476 0.0952"/>
    <path d="m16.659 21.203v0.2381"/>
    <path d="m16.659 21.441 0.0476 0.0952"/>
    <path d="m16.706 21.536 0.0477 0.0476"/>
    <path d="m16.754 21.584 0.0952 0.0477"/>
    <path d="m16.849 21.632h0.0952"/>
    <path d="m16.944 21.632 0.1429-0.0477"/>
    <path d="m17.087 21.584 0.5714-0.5714"/>
    <path d="m17.659 21.012v0.6191"/>
   </g>
   <g transform="rotate(-90 88.641 20.846)">
    <text transform="scale(-1 1) translate(-177.28)" x="88.6414" y="21.3457" font-size="1.3333" opacity="0" stroke-opacity="0" text-anchor="middle" lengthAdjust="spacingAndGlyphs" textLength="2.2024">D5</text>
   </g>
   <g class="stroked-text">
    <desc>D5</desc>
    <path d="m89.096 20.108h-1"/>
    <path d="m88.096 20.108v0.238"/>
    <path d="m88.096 20.346 0.0476 0.1429"/>
    <path d="m88.144 20.489 0.0953 0.0952"/>
    <path d="m88.239 20.584 0.0952 0.0477"/>
    <path d="m88.334 20.632 0.1905 0.0476"/>
    <path d="m88.525 20.679h0.1428"/>
    <path d="m88.668 20.679 0.1905-0.0476"/>
    <path d="m88.858 20.632 0.0953-0.0477"/>
    <path d="m88.953 20.584 0.0952-0.0952"/>
    <path d="m89.049 20.489 0.0476-0.1429"/>
    <path d="m89.096 20.346v-0.238"/>
    <path d="m88.096 21.584v-0.4761"/>
    <path d="m88.096 21.108 0.4762-0.0477"/>
    <path d="m88.572 21.06-0.0476 0.0477"/>
    <path d="m88.525 21.108-0.0476 0.0952"/>
    <path d="m88.477 21.203v0.2381"/>
    <path d="m88.477 21.441 0.0476 0.0952"/>
    <path d="m88.525 21.536 0.0476 0.0476"/>
    <path d="m88.572 21.584 0.0952 0.0477"/>
    <path d="m88.668 21.632h0.2381"/>
    <path d="m88.906 21.632 0.0953-0.0477"/>
    <path d="m89.001 21.584 0.0476-0.0476"/>
    <path d="m89.049 21.536 0.0476-0.0952"/>
    <path d="m89.096 21.441v-0.2381"/>
    <path d="m89.096 21.203-0.0476-0.0952"/>
    <path d="m89.049 21.108-0.0476-0.0477"/>
   </g>
   <g transform="rotate(-90 41.016 13.702)">
    <text transform="scale(-1 1) translate(-82.033)" x="41.0164" y="14.2020" font-size="1.3333" opacity="0" stroke-opacity="0" text-anchor="middle" lengthAdjust="spacingAndGlyphs" textLength="2.2024">D3</text>
   </g>
   <g class="stroked-text">
    <desc>D3</desc>
    <path d="m41.471 12.964h-1"/>
    <path d="m40.471 12.964v0.2381"/>
    <path d="m40.471 13.202 0.0476 0.1429"/>
    <path d="m40.519 13.345 0.0953 0.0952"/>
    <path d="m40.614 13.44 0.0952 0.0476"/>
    <path d="m40.709 13.488 0.1905 0.0476"/>
    <path d="m40.9 13.535h0.1428"/>
    <path d="m41.043 13.535 0.1905-0.0476"/>
    <path d="m41.233 13.488 0.0953-0.0476"/>
    <path d="m41.328 13.44 0.0952-0.0952"/>
    <path d="m41.424 13.345 0.0476-0.1429"/>
    <path d="m41.471 13.202v-0.2381"/>
    <path d="m40.471 13.869v0.619"/>
    <path d="m40.471 14.488 0.381-0.3333"/>
    <path d="m40.852 14.154v0.1428"/>
    <path d="m40.852 14.297 0.0476 0.0953"/>
    <path d="m40.9 14.392 0.0476 0.0476"/>
    <path d="m40.947 14.44 0.0952 0.0476"/>
    <path d="m41.043 14.488h0.2381"/>
    <path d="m41.281 14.488 0.0953-0.0476"/>
    <path d="m41.376 14.44 0.0476-0.0476"/>
    <path d="m41.424 14.392 0.0476-0.0953"/>
    <path d="m41.471 14.297v-0.2857"/>
    <path d="m41.471 14.012-0.0476-0.0952"/>
    <path d="m41.424 13.916-0.0476-0.0476"/>
   </g>
  </g>
  <g stroke="#BD93F9" stroke-width=".12">
   <path d="m21.443 65.791v-3.86"/>
   <path d="m23.443 65.791h-2"/>
   <path d="m23.443 65.791v-3.86"/>
   <path d="m78.593 65.791v-3.86"/>
   <path d="m80.593 65.791h-2"/>
   <path d="m80.593 65.791v-3.86"/>
   <path d="m61.924 15.785v-3.86"/>
   <path d="m63.924 15.785h-2"/>
   <path d="m63.924 15.785v-3.86"/>
   <path d="m14.299 22.929v-3.86"/>
   <path d="m16.299 22.929h-2"/>
   <path d="m16.299 22.929v-3.86"/>
   <path d="m85.736 22.929v-3.86"/>
   <path d="m87.736 22.929h-2"/>
   <path d="m87.736 22.929v-3.86"/>
   <path d="m38.111 15.785v-3.86"/>
   <path d="m40.111 15.785h-2"/>
   <path d="m40.111 15.785v-3.86"/>
  </g>
 </g>
 <g fill="#fff">
  <circle cx="88.641" cy="4.7807" r="1.524"/>
  <circle cx="73.431" cy="4.7807" r="1.9939"/>
  <circle cx="88.641" cy="28.657" r="1.524"/>
  <circle cx="73.431" cy="28.657" r="1.9939"/>
  <circle cx="28.951" cy="9.575" r=".875"/>
  <circle cx="34.031" cy="9.575" r="2"/>
  <circle cx="39.111" cy="9.575" r=".875"/>
  <circle cx="30.221" cy="7.035" r=".75"/>
  <circle cx="36.571" cy="4.495" r=".75"/>
  <circle cx="17.204" cy="4.7807" r="1.524"/>
  <circle cx="1.9939" cy="4.7807" r="1.9939"/>
  <circle cx="17.204" cy="28.657" r="1.524"/>
  <circle cx="1.9939" cy="28.657" r="1.9939"/>
  <circle cx="52.764" cy="9.575" r=".875"/>
  <circle cx="57.844" cy="9.575" r="2"/>
  <circle cx="62.924" cy="9.575" r=".875"/>
  <circle cx="54.034" cy="7.035" r=".75"/>
  <circle cx="60.384" cy="4.495" r=".75"/>
  <circle cx="69.433" cy="59.581" r=".875"/>
  <circle cx="74.513" cy="59.581" r="2"/>
  <circle cx="79.593" cy="59.581" r=".875"/>
  <circle cx="70.703" cy="57.041" r=".75"/>
  <circle cx="77.053" cy="54.501" r=".75"/>
  <circle cx="12.283" cy="59.581" r=".875"/>
  <circle cx="17.363" cy="59.581" r="2"/>
  <circle cx="22.443" cy="59.581" r=".875"/>
  <circle cx="13.553" cy="57.041" r=".75"/>
  <circle cx="19.903" cy="54.501" r=".75"/>
  <circle cx="5.1389" cy="16.719" r=".875"/>
  <circle cx="10.219" cy="16.719" r="2"/>
  <circle cx="15.299" cy="16.719" r=".875"/>
  <circle cx="6.4089" cy="14.179" r=".75"/>
  <circle cx="12.759" cy="11.639" r=".75"/>
  <circle cx="24.348" cy="47.643" r="1.524"/>
  <circle cx="9.1376" cy="47.643" r="1.9939"/>
  <circle cx="24.348" cy="71.519" r="1.524"/>
  <circle cx="9.1376" cy="71.519" r="1.9939"/>
  <circle cx="76.576" cy="16.719" r=".875"/>
  <circle cx="81.656" cy="16.719" r="2"/>
  <circle cx="86.736" cy="16.719" r=".875"/>
  <circle cx="77.846" cy="14.179" r=".75"/>
  <circle cx="84.196" cy="11.639" r=".75"/>
  <circle cx="81.498" cy="47.643" r="1.524"/>
  <circle cx="66.288" cy="47.643" r="1.9939"/>
  <circle cx="81.498" cy="71.519" r="1.524"/>
  <circle cx="66.288" cy="71.519" r="1.9939"/>
 </g>
</svg>
