<?xml version="1.0" encoding="UTF-8"?>
<svg width="92.685mm" height="36.695mm" version="1.1" viewBox="26.425 24.98 92.685 36.695" xmlns="http://www.w3.org/2000/svg">
 <title>SVG Image created as trackball_thumb-render.svg date 2024/01/04 11:14:23</title>
 <desc>Image generated by PCBNEW</desc>
 <g fill="#282a36">
  <rect x="26.425" y="24.98" width="92.685" height="36.695"/>
 </g>
 <g fill-opacity="0" stroke-width="0">
  <g fill="#C83434" fill-opacity="1" stroke="#C83434" stroke-linecap="round" stroke-linejoin="round" stroke-width="0">
   <circle cx="106.92" cy="41.51" r="1.25"/>
   <circle cx="113.26" cy="38.97" r="1.25"/>
   <circle cx="87.865" cy="41.51" r="1.25"/>
   <circle cx="94.215" cy="38.97" r="1.25"/>
   <circle cx="30.715" cy="51.035" r="1.25"/>
   <circle cx="37.065" cy="48.495" r="1.25"/>
   <circle cx="49.765" cy="41.51" r="1.25"/>
   <circle cx="56.115" cy="38.97" r="1.25"/>
   <circle cx="68.815" cy="41.51" r="1.25"/>
   <circle cx="75.165" cy="38.97" r="1.25"/>
   <circle cx="30.715" cy="31.985" r="1.25"/>
   <circle cx="37.065" cy="29.445" r="1.25"/>
  </g>
 </g>
 <g stroke="#000" stroke-linecap="round" stroke-linejoin="round" stroke-width=".021">
  <g fill="#7FC87F" stroke="#7FC87F" stroke-linecap="round" stroke-linejoin="round" stroke-width="0">
   <circle cx="106.92" cy="41.51" r="1.25"/>
   <circle cx="113.26" cy="38.97" r="1.25"/>
   <circle cx="87.865" cy="41.51" r="1.25"/>
   <circle cx="94.215" cy="38.97" r="1.25"/>
   <circle cx="30.715" cy="51.035" r="1.25"/>
   <circle cx="37.065" cy="48.495" r="1.25"/>
   <circle cx="49.765" cy="41.51" r="1.25"/>
   <circle cx="56.115" cy="38.97" r="1.25"/>
   <circle cx="68.815" cy="41.51" r="1.25"/>
   <circle cx="75.165" cy="38.97" r="1.25"/>
   <circle cx="30.715" cy="31.985" r="1.25"/>
   <circle cx="37.065" cy="29.445" r="1.25"/>
  </g>
  <g fill="#CE7D2C" stroke="#CE7D2C" stroke-linecap="round" stroke-linejoin="round" stroke-width="0">
   <circle cx="106.92" cy="41.51" r="1.25"/>
   <circle cx="113.26" cy="38.97" r="1.25"/>
   <circle cx="87.865" cy="41.51" r="1.25"/>
   <circle cx="94.215" cy="38.97" r="1.25"/>
   <circle cx="30.715" cy="51.035" r="1.25"/>
   <circle cx="37.065" cy="48.495" r="1.25"/>
   <circle cx="49.765" cy="41.51" r="1.25"/>
   <circle cx="56.115" cy="38.97" r="1.25"/>
   <circle cx="68.815" cy="41.51" r="1.25"/>
   <circle cx="75.165" cy="38.97" r="1.25"/>
   <circle cx="30.715" cy="31.985" r="1.25"/>
   <circle cx="37.065" cy="29.445" r="1.25"/>
  </g>
  <g fill="#4FCBCB" stroke="#4FCBCB" stroke-linecap="round" stroke-linejoin="round" stroke-width="0">
   <circle cx="106.92" cy="41.51" r="1.25"/>
   <circle cx="113.26" cy="38.97" r="1.25"/>
   <circle cx="87.865" cy="41.51" r="1.25"/>
   <circle cx="94.215" cy="38.97" r="1.25"/>
   <circle cx="30.715" cy="51.035" r="1.25"/>
   <circle cx="37.065" cy="48.495" r="1.25"/>
   <circle cx="49.765" cy="41.51" r="1.25"/>
   <circle cx="56.115" cy="38.97" r="1.25"/>
   <circle cx="68.815" cy="41.51" r="1.25"/>
   <circle cx="75.165" cy="38.97" r="1.25"/>
   <circle cx="30.715" cy="31.985" r="1.25"/>
   <circle cx="37.065" cy="29.445" r="1.25"/>
  </g>
  <g fill="#DB628B" stroke="#DB628B" stroke-linecap="round" stroke-linejoin="round" stroke-width="0">
   <circle cx="106.92" cy="41.51" r="1.25"/>
   <circle cx="113.26" cy="38.97" r="1.25"/>
   <circle cx="87.865" cy="41.51" r="1.25"/>
   <circle cx="94.215" cy="38.97" r="1.25"/>
   <circle cx="30.715" cy="51.035" r="1.25"/>
   <circle cx="37.065" cy="48.495" r="1.25"/>
   <circle cx="49.765" cy="41.51" r="1.25"/>
   <circle cx="56.115" cy="38.97" r="1.25"/>
   <circle cx="68.815" cy="41.51" r="1.25"/>
   <circle cx="75.165" cy="38.97" r="1.25"/>
   <circle cx="30.715" cy="31.985" r="1.25"/>
   <circle cx="37.065" cy="29.445" r="1.25"/>
  </g>
  <g fill="#A7A5C6" stroke="#A7A5C6" stroke-linecap="round" stroke-linejoin="round" stroke-width="0">
   <circle cx="106.92" cy="41.51" r="1.25"/>
   <circle cx="113.26" cy="38.97" r="1.25"/>
   <circle cx="87.865" cy="41.51" r="1.25"/>
   <circle cx="94.215" cy="38.97" r="1.25"/>
   <circle cx="30.715" cy="51.035" r="1.25"/>
   <circle cx="37.065" cy="48.495" r="1.25"/>
   <circle cx="49.765" cy="41.51" r="1.25"/>
   <circle cx="56.115" cy="38.97" r="1.25"/>
   <circle cx="68.815" cy="41.51" r="1.25"/>
   <circle cx="75.165" cy="38.97" r="1.25"/>
   <circle cx="30.715" cy="31.985" r="1.25"/>
   <circle cx="37.065" cy="29.445" r="1.25"/>
  </g>
  <g fill="#28CCD9" stroke="#28CCD9" stroke-linecap="round" stroke-linejoin="round" stroke-width="0">
   <circle cx="106.92" cy="41.51" r="1.25"/>
   <circle cx="113.26" cy="38.97" r="1.25"/>
   <circle cx="87.865" cy="41.51" r="1.25"/>
   <circle cx="94.215" cy="38.97" r="1.25"/>
   <circle cx="30.715" cy="51.035" r="1.25"/>
   <circle cx="37.065" cy="48.495" r="1.25"/>
   <circle cx="49.765" cy="41.51" r="1.25"/>
   <circle cx="56.115" cy="38.97" r="1.25"/>
   <circle cx="68.815" cy="41.51" r="1.25"/>
   <circle cx="75.165" cy="38.97" r="1.25"/>
   <circle cx="30.715" cy="31.985" r="1.25"/>
   <circle cx="37.065" cy="29.445" r="1.25"/>
  </g>
  <g fill="#E8B2A7" stroke="#E8B2A7" stroke-linecap="round" stroke-linejoin="round" stroke-width="0">
   <circle cx="106.92" cy="41.51" r="1.25"/>
   <circle cx="113.26" cy="38.97" r="1.25"/>
   <circle cx="87.865" cy="41.51" r="1.25"/>
   <circle cx="94.215" cy="38.97" r="1.25"/>
   <circle cx="30.715" cy="51.035" r="1.25"/>
   <circle cx="37.065" cy="48.495" r="1.25"/>
   <circle cx="49.765" cy="41.51" r="1.25"/>
   <circle cx="56.115" cy="38.97" r="1.25"/>
   <circle cx="68.815" cy="41.51" r="1.25"/>
   <circle cx="75.165" cy="38.97" r="1.25"/>
   <circle cx="30.715" cy="31.985" r="1.25"/>
   <circle cx="37.065" cy="29.445" r="1.25"/>
  </g>
  <g fill="#F2EDA1" stroke="#F2EDA1" stroke-linecap="round" stroke-linejoin="round" stroke-width="0">
   <circle cx="106.92" cy="41.51" r="1.25"/>
   <circle cx="113.26" cy="38.97" r="1.25"/>
   <circle cx="87.865" cy="41.51" r="1.25"/>
   <circle cx="94.215" cy="38.97" r="1.25"/>
   <circle cx="30.715" cy="51.035" r="1.25"/>
   <circle cx="37.065" cy="48.495" r="1.25"/>
   <circle cx="49.765" cy="41.51" r="1.25"/>
   <circle cx="56.115" cy="38.97" r="1.25"/>
   <circle cx="68.815" cy="41.51" r="1.25"/>
   <circle cx="75.165" cy="38.97" r="1.25"/>
   <circle cx="30.715" cy="31.985" r="1.25"/>
   <circle cx="37.065" cy="29.445" r="1.25"/>
  </g>
  <g fill="#8DCB81" stroke="#8DCB81" stroke-linecap="round" stroke-linejoin="round" stroke-width="0">
   <circle cx="106.92" cy="41.51" r="1.25"/>
   <circle cx="113.26" cy="38.97" r="1.25"/>
   <circle cx="87.865" cy="41.51" r="1.25"/>
   <circle cx="94.215" cy="38.97" r="1.25"/>
   <circle cx="30.715" cy="51.035" r="1.25"/>
   <circle cx="37.065" cy="48.495" r="1.25"/>
   <circle cx="49.765" cy="41.51" r="1.25"/>
   <circle cx="56.115" cy="38.97" r="1.25"/>
   <circle cx="68.815" cy="41.51" r="1.25"/>
   <circle cx="75.165" cy="38.97" r="1.25"/>
   <circle cx="30.715" cy="31.985" r="1.25"/>
   <circle cx="37.065" cy="29.445" r="1.25"/>
  </g>
  <g fill="#ED7C33" stroke="#ED7C33" stroke-linecap="round" stroke-linejoin="round" stroke-width="0">
   <circle cx="106.92" cy="41.51" r="1.25"/>
   <circle cx="113.26" cy="38.97" r="1.25"/>
   <circle cx="87.865" cy="41.51" r="1.25"/>
   <circle cx="94.215" cy="38.97" r="1.25"/>
   <circle cx="30.715" cy="51.035" r="1.25"/>
   <circle cx="37.065" cy="48.495" r="1.25"/>
   <circle cx="49.765" cy="41.51" r="1.25"/>
   <circle cx="56.115" cy="38.97" r="1.25"/>
   <circle cx="68.815" cy="41.51" r="1.25"/>
   <circle cx="75.165" cy="38.97" r="1.25"/>
   <circle cx="30.715" cy="31.985" r="1.25"/>
   <circle cx="37.065" cy="29.445" r="1.25"/>
  </g>
  <g fill="#5BC3EB" stroke="#5BC3EB" stroke-linecap="round" stroke-linejoin="round" stroke-width="0">
   <circle cx="106.92" cy="41.51" r="1.25"/>
   <circle cx="113.26" cy="38.97" r="1.25"/>
   <circle cx="87.865" cy="41.51" r="1.25"/>
   <circle cx="94.215" cy="38.97" r="1.25"/>
   <circle cx="30.715" cy="51.035" r="1.25"/>
   <circle cx="37.065" cy="48.495" r="1.25"/>
   <circle cx="49.765" cy="41.51" r="1.25"/>
   <circle cx="56.115" cy="38.97" r="1.25"/>
   <circle cx="68.815" cy="41.51" r="1.25"/>
   <circle cx="75.165" cy="38.97" r="1.25"/>
   <circle cx="30.715" cy="31.985" r="1.25"/>
   <circle cx="37.065" cy="29.445" r="1.25"/>
  </g>
  <g fill="#F76F8E" stroke="#F76F8E" stroke-linecap="round" stroke-linejoin="round" stroke-width="0">
   <circle cx="106.92" cy="41.51" r="1.25"/>
   <circle cx="113.26" cy="38.97" r="1.25"/>
   <circle cx="87.865" cy="41.51" r="1.25"/>
   <circle cx="94.215" cy="38.97" r="1.25"/>
   <circle cx="30.715" cy="51.035" r="1.25"/>
   <circle cx="37.065" cy="48.495" r="1.25"/>
   <circle cx="49.765" cy="41.51" r="1.25"/>
   <circle cx="56.115" cy="38.97" r="1.25"/>
   <circle cx="68.815" cy="41.51" r="1.25"/>
   <circle cx="75.165" cy="38.97" r="1.25"/>
   <circle cx="30.715" cy="31.985" r="1.25"/>
   <circle cx="37.065" cy="29.445" r="1.25"/>
  </g>
  <g fill="#A7A5C6" stroke="#A7A5C6" stroke-linecap="round" stroke-linejoin="round" stroke-width="0">
   <circle cx="106.92" cy="41.51" r="1.25"/>
   <circle cx="113.26" cy="38.97" r="1.25"/>
   <circle cx="87.865" cy="41.51" r="1.25"/>
   <circle cx="94.215" cy="38.97" r="1.25"/>
   <circle cx="30.715" cy="51.035" r="1.25"/>
   <circle cx="37.065" cy="48.495" r="1.25"/>
   <circle cx="49.765" cy="41.51" r="1.25"/>
   <circle cx="56.115" cy="38.97" r="1.25"/>
   <circle cx="68.815" cy="41.51" r="1.25"/>
   <circle cx="75.165" cy="38.97" r="1.25"/>
   <circle cx="30.715" cy="31.985" r="1.25"/>
   <circle cx="37.065" cy="29.445" r="1.25"/>
  </g>
  <g fill="#28CCD9" stroke="#28CCD9" stroke-linecap="round" stroke-linejoin="round" stroke-width="0">
   <circle cx="106.92" cy="41.51" r="1.25"/>
   <circle cx="113.26" cy="38.97" r="1.25"/>
   <circle cx="87.865" cy="41.51" r="1.25"/>
   <circle cx="94.215" cy="38.97" r="1.25"/>
   <circle cx="30.715" cy="51.035" r="1.25"/>
   <circle cx="37.065" cy="48.495" r="1.25"/>
   <circle cx="49.765" cy="41.51" r="1.25"/>
   <circle cx="56.115" cy="38.97" r="1.25"/>
   <circle cx="68.815" cy="41.51" r="1.25"/>
   <circle cx="75.165" cy="38.97" r="1.25"/>
   <circle cx="30.715" cy="31.985" r="1.25"/>
   <circle cx="37.065" cy="29.445" r="1.25"/>
  </g>
  <g fill="#E8B2A7" stroke="#E8B2A7" stroke-linecap="round" stroke-linejoin="round" stroke-width="0">
   <circle cx="106.92" cy="41.51" r="1.25"/>
   <circle cx="113.26" cy="38.97" r="1.25"/>
   <circle cx="87.865" cy="41.51" r="1.25"/>
   <circle cx="94.215" cy="38.97" r="1.25"/>
   <circle cx="30.715" cy="51.035" r="1.25"/>
   <circle cx="37.065" cy="48.495" r="1.25"/>
   <circle cx="49.765" cy="41.51" r="1.25"/>
   <circle cx="56.115" cy="38.97" r="1.25"/>
   <circle cx="68.815" cy="41.51" r="1.25"/>
   <circle cx="75.165" cy="38.97" r="1.25"/>
   <circle cx="30.715" cy="31.985" r="1.25"/>
   <circle cx="37.065" cy="29.445" r="1.25"/>
  </g>
  <g fill="#F2EDA1" stroke="#F2EDA1" stroke-linecap="round" stroke-linejoin="round" stroke-width="0">
   <circle cx="106.92" cy="41.51" r="1.25"/>
   <circle cx="113.26" cy="38.97" r="1.25"/>
   <circle cx="87.865" cy="41.51" r="1.25"/>
   <circle cx="94.215" cy="38.97" r="1.25"/>
   <circle cx="30.715" cy="51.035" r="1.25"/>
   <circle cx="37.065" cy="48.495" r="1.25"/>
   <circle cx="49.765" cy="41.51" r="1.25"/>
   <circle cx="56.115" cy="38.97" r="1.25"/>
   <circle cx="68.815" cy="41.51" r="1.25"/>
   <circle cx="75.165" cy="38.97" r="1.25"/>
   <circle cx="30.715" cy="31.985" r="1.25"/>
   <circle cx="37.065" cy="29.445" r="1.25"/>
  </g>
  <g fill="#ED7C33" stroke="#ED7C33" stroke-linecap="round" stroke-linejoin="round" stroke-width="0">
   <circle cx="106.92" cy="41.51" r="1.25"/>
   <circle cx="113.26" cy="38.97" r="1.25"/>
   <circle cx="87.865" cy="41.51" r="1.25"/>
   <circle cx="94.215" cy="38.97" r="1.25"/>
   <circle cx="30.715" cy="51.035" r="1.25"/>
   <circle cx="37.065" cy="48.495" r="1.25"/>
   <circle cx="49.765" cy="41.51" r="1.25"/>
   <circle cx="56.115" cy="38.97" r="1.25"/>
   <circle cx="68.815" cy="41.51" r="1.25"/>
   <circle cx="75.165" cy="38.97" r="1.25"/>
   <circle cx="30.715" cy="31.985" r="1.25"/>
   <circle cx="37.065" cy="29.445" r="1.25"/>
  </g>
  <g fill="#5BC3EB" stroke="#5BC3EB" stroke-linecap="round" stroke-linejoin="round" stroke-width="0">
   <circle cx="106.92" cy="41.51" r="1.25"/>
   <circle cx="113.26" cy="38.97" r="1.25"/>
   <circle cx="87.865" cy="41.51" r="1.25"/>
   <circle cx="94.215" cy="38.97" r="1.25"/>
   <circle cx="30.715" cy="51.035" r="1.25"/>
   <circle cx="37.065" cy="48.495" r="1.25"/>
   <circle cx="49.765" cy="41.51" r="1.25"/>
   <circle cx="56.115" cy="38.97" r="1.25"/>
   <circle cx="68.815" cy="41.51" r="1.25"/>
   <circle cx="75.165" cy="38.97" r="1.25"/>
   <circle cx="30.715" cy="31.985" r="1.25"/>
   <circle cx="37.065" cy="29.445" r="1.25"/>
  </g>
  <g fill="#F76F8E" stroke="#F76F8E" stroke-linecap="round" stroke-linejoin="round" stroke-width="0">
   <circle cx="106.92" cy="41.51" r="1.25"/>
   <circle cx="113.26" cy="38.97" r="1.25"/>
   <circle cx="87.865" cy="41.51" r="1.25"/>
   <circle cx="94.215" cy="38.97" r="1.25"/>
   <circle cx="30.715" cy="51.035" r="1.25"/>
   <circle cx="37.065" cy="48.495" r="1.25"/>
   <circle cx="49.765" cy="41.51" r="1.25"/>
   <circle cx="56.115" cy="38.97" r="1.25"/>
   <circle cx="68.815" cy="41.51" r="1.25"/>
   <circle cx="75.165" cy="38.97" r="1.25"/>
   <circle cx="30.715" cy="31.985" r="1.25"/>
   <circle cx="37.065" cy="29.445" r="1.25"/>
  </g>
  <g fill="#A7A5C6" stroke="#A7A5C6" stroke-linecap="round" stroke-linejoin="round" stroke-width="0">
   <circle cx="106.92" cy="41.51" r="1.25"/>
   <circle cx="113.26" cy="38.97" r="1.25"/>
   <circle cx="87.865" cy="41.51" r="1.25"/>
   <circle cx="94.215" cy="38.97" r="1.25"/>
   <circle cx="30.715" cy="51.035" r="1.25"/>
   <circle cx="37.065" cy="48.495" r="1.25"/>
   <circle cx="49.765" cy="41.51" r="1.25"/>
   <circle cx="56.115" cy="38.97" r="1.25"/>
   <circle cx="68.815" cy="41.51" r="1.25"/>
   <circle cx="75.165" cy="38.97" r="1.25"/>
   <circle cx="30.715" cy="31.985" r="1.25"/>
   <circle cx="37.065" cy="29.445" r="1.25"/>
  </g>
  <g fill="#28CCD9" stroke="#28CCD9" stroke-linecap="round" stroke-linejoin="round" stroke-width="0">
   <circle cx="106.92" cy="41.51" r="1.25"/>
   <circle cx="113.26" cy="38.97" r="1.25"/>
   <circle cx="87.865" cy="41.51" r="1.25"/>
   <circle cx="94.215" cy="38.97" r="1.25"/>
   <circle cx="30.715" cy="51.035" r="1.25"/>
   <circle cx="37.065" cy="48.495" r="1.25"/>
   <circle cx="49.765" cy="41.51" r="1.25"/>
   <circle cx="56.115" cy="38.97" r="1.25"/>
   <circle cx="68.815" cy="41.51" r="1.25"/>
   <circle cx="75.165" cy="38.97" r="1.25"/>
   <circle cx="30.715" cy="31.985" r="1.25"/>
   <circle cx="37.065" cy="29.445" r="1.25"/>
  </g>
  <g fill="#E8B2A7" stroke="#E8B2A7" stroke-linecap="round" stroke-linejoin="round" stroke-width="0">
   <circle cx="106.92" cy="41.51" r="1.25"/>
   <circle cx="113.26" cy="38.97" r="1.25"/>
   <circle cx="87.865" cy="41.51" r="1.25"/>
   <circle cx="94.215" cy="38.97" r="1.25"/>
   <circle cx="30.715" cy="51.035" r="1.25"/>
   <circle cx="37.065" cy="48.495" r="1.25"/>
   <circle cx="49.765" cy="41.51" r="1.25"/>
   <circle cx="56.115" cy="38.97" r="1.25"/>
   <circle cx="68.815" cy="41.51" r="1.25"/>
   <circle cx="75.165" cy="38.97" r="1.25"/>
   <circle cx="30.715" cy="31.985" r="1.25"/>
   <circle cx="37.065" cy="29.445" r="1.25"/>
  </g>
  <g fill="#F2EDA1" stroke="#F2EDA1" stroke-linecap="round" stroke-linejoin="round" stroke-width="0">
   <circle cx="106.92" cy="41.51" r="1.25"/>
   <circle cx="113.26" cy="38.97" r="1.25"/>
   <circle cx="87.865" cy="41.51" r="1.25"/>
   <circle cx="94.215" cy="38.97" r="1.25"/>
   <circle cx="30.715" cy="51.035" r="1.25"/>
   <circle cx="37.065" cy="48.495" r="1.25"/>
   <circle cx="49.765" cy="41.51" r="1.25"/>
   <circle cx="56.115" cy="38.97" r="1.25"/>
   <circle cx="68.815" cy="41.51" r="1.25"/>
   <circle cx="75.165" cy="38.97" r="1.25"/>
   <circle cx="30.715" cy="31.985" r="1.25"/>
   <circle cx="37.065" cy="29.445" r="1.25"/>
  </g>
  <g fill="#ED7C33" stroke="#ED7C33" stroke-linecap="round" stroke-linejoin="round" stroke-width="0">
   <circle cx="106.92" cy="41.51" r="1.25"/>
   <circle cx="113.26" cy="38.97" r="1.25"/>
   <circle cx="87.865" cy="41.51" r="1.25"/>
   <circle cx="94.215" cy="38.97" r="1.25"/>
   <circle cx="30.715" cy="51.035" r="1.25"/>
   <circle cx="37.065" cy="48.495" r="1.25"/>
   <circle cx="49.765" cy="41.51" r="1.25"/>
   <circle cx="56.115" cy="38.97" r="1.25"/>
   <circle cx="68.815" cy="41.51" r="1.25"/>
   <circle cx="75.165" cy="38.97" r="1.25"/>
   <circle cx="30.715" cy="31.985" r="1.25"/>
   <circle cx="37.065" cy="29.445" r="1.25"/>
  </g>
  <g fill="#5BC3EB" stroke="#5BC3EB" stroke-linecap="round" stroke-linejoin="round" stroke-width="0">
   <circle cx="106.92" cy="41.51" r="1.25"/>
   <circle cx="113.26" cy="38.97" r="1.25"/>
   <circle cx="87.865" cy="41.51" r="1.25"/>
   <circle cx="94.215" cy="38.97" r="1.25"/>
   <circle cx="30.715" cy="51.035" r="1.25"/>
   <circle cx="37.065" cy="48.495" r="1.25"/>
   <circle cx="49.765" cy="41.51" r="1.25"/>
   <circle cx="56.115" cy="38.97" r="1.25"/>
   <circle cx="68.815" cy="41.51" r="1.25"/>
   <circle cx="75.165" cy="38.97" r="1.25"/>
   <circle cx="30.715" cy="31.985" r="1.25"/>
   <circle cx="37.065" cy="29.445" r="1.25"/>
  </g>
  <g fill="#F76F8E" stroke="#F76F8E" stroke-linecap="round" stroke-linejoin="round" stroke-width="0">
   <circle cx="106.92" cy="41.51" r="1.25"/>
   <circle cx="113.26" cy="38.97" r="1.25"/>
   <circle cx="87.865" cy="41.51" r="1.25"/>
   <circle cx="94.215" cy="38.97" r="1.25"/>
   <circle cx="30.715" cy="51.035" r="1.25"/>
   <circle cx="37.065" cy="48.495" r="1.25"/>
   <circle cx="49.765" cy="41.51" r="1.25"/>
   <circle cx="56.115" cy="38.97" r="1.25"/>
   <circle cx="68.815" cy="41.51" r="1.25"/>
   <circle cx="75.165" cy="38.97" r="1.25"/>
   <circle cx="30.715" cy="31.985" r="1.25"/>
   <circle cx="37.065" cy="29.445" r="1.25"/>
  </g>
  <g fill="#A7A5C6" stroke="#A7A5C6" stroke-linecap="round" stroke-linejoin="round" stroke-width="0">
   <circle cx="106.92" cy="41.51" r="1.25"/>
   <circle cx="113.26" cy="38.97" r="1.25"/>
   <circle cx="87.865" cy="41.51" r="1.25"/>
   <circle cx="94.215" cy="38.97" r="1.25"/>
   <circle cx="30.715" cy="51.035" r="1.25"/>
   <circle cx="37.065" cy="48.495" r="1.25"/>
   <circle cx="49.765" cy="41.51" r="1.25"/>
   <circle cx="56.115" cy="38.97" r="1.25"/>
   <circle cx="68.815" cy="41.51" r="1.25"/>
   <circle cx="75.165" cy="38.97" r="1.25"/>
   <circle cx="30.715" cy="31.985" r="1.25"/>
   <circle cx="37.065" cy="29.445" r="1.25"/>
  </g>
  <g fill="#28CCD9" stroke="#28CCD9" stroke-linecap="round" stroke-linejoin="round" stroke-width="0">
   <circle cx="106.92" cy="41.51" r="1.25"/>
   <circle cx="113.26" cy="38.97" r="1.25"/>
   <circle cx="87.865" cy="41.51" r="1.25"/>
   <circle cx="94.215" cy="38.97" r="1.25"/>
   <circle cx="30.715" cy="51.035" r="1.25"/>
   <circle cx="37.065" cy="48.495" r="1.25"/>
   <circle cx="49.765" cy="41.51" r="1.25"/>
   <circle cx="56.115" cy="38.97" r="1.25"/>
   <circle cx="68.815" cy="41.51" r="1.25"/>
   <circle cx="75.165" cy="38.97" r="1.25"/>
   <circle cx="30.715" cy="31.985" r="1.25"/>
   <circle cx="37.065" cy="29.445" r="1.25"/>
  </g>
  <g fill="#E8B2A7" stroke="#E8B2A7" stroke-linecap="round" stroke-linejoin="round" stroke-width="0">
   <circle cx="106.92" cy="41.51" r="1.25"/>
   <circle cx="113.26" cy="38.97" r="1.25"/>
   <circle cx="87.865" cy="41.51" r="1.25"/>
   <circle cx="94.215" cy="38.97" r="1.25"/>
   <circle cx="30.715" cy="51.035" r="1.25"/>
   <circle cx="37.065" cy="48.495" r="1.25"/>
   <circle cx="49.765" cy="41.51" r="1.25"/>
   <circle cx="56.115" cy="38.97" r="1.25"/>
   <circle cx="68.815" cy="41.51" r="1.25"/>
   <circle cx="75.165" cy="38.97" r="1.25"/>
   <circle cx="30.715" cy="31.985" r="1.25"/>
   <circle cx="37.065" cy="29.445" r="1.25"/>
  </g>
  <g fill="#F2EDA1" stroke="#F2EDA1" stroke-linecap="round" stroke-linejoin="round" stroke-width="0">
   <circle cx="106.92" cy="41.51" r="1.25"/>
   <circle cx="113.26" cy="38.97" r="1.25"/>
   <circle cx="87.865" cy="41.51" r="1.25"/>
   <circle cx="94.215" cy="38.97" r="1.25"/>
   <circle cx="30.715" cy="51.035" r="1.25"/>
   <circle cx="37.065" cy="48.495" r="1.25"/>
   <circle cx="49.765" cy="41.51" r="1.25"/>
   <circle cx="56.115" cy="38.97" r="1.25"/>
   <circle cx="68.815" cy="41.51" r="1.25"/>
   <circle cx="75.165" cy="38.97" r="1.25"/>
   <circle cx="30.715" cy="31.985" r="1.25"/>
   <circle cx="37.065" cy="29.445" r="1.25"/>
  </g>
  <g fill="#4D7FC4">
   <g stroke-width="0">
    <g stroke="#4D7FC4" stroke-linecap="round" stroke-linejoin="round">
     <circle cx="106.92" cy="41.51" r="1.25"/>
     <circle cx="113.26" cy="38.97" r="1.25"/>
     <circle cx="87.865" cy="41.51" r="1.25"/>
     <circle cx="94.215" cy="38.97" r="1.25"/>
     <circle cx="30.715" cy="51.035" r="1.25"/>
     <circle cx="37.065" cy="48.495" r="1.25"/>
     <circle cx="49.765" cy="41.51" r="1.25"/>
     <circle cx="56.115" cy="38.97" r="1.25"/>
     <circle cx="68.815" cy="41.51" r="1.25"/>
     <circle cx="75.165" cy="38.97" r="1.25"/>
     <circle cx="30.715" cy="31.985" r="1.25"/>
     <circle cx="37.065" cy="29.445" r="1.25"/>
    </g>
    <g fill-rule="evenodd">
     <path d="m77.955 48.43h-0.5v-0.5h0.5z"/>
     <path d="m77.955 46.23h-0.5v-0.5h0.5z"/>
     <path d="m116.06 48.43h-0.5v-0.5h0.5z"/>
     <path d="m116.06 46.23h-0.5v-0.5h0.5z"/>
     <path d="m97.005 48.43h-0.5v-0.5h0.5z"/>
     <path d="m97.005 46.23h-0.5v-0.5h0.5z"/>
     <path d="m39.855 57.955h-0.5v-0.5h0.5z"/>
     <path d="m39.855 55.755h-0.5v-0.5h0.5z"/>
     <path d="m58.905 48.43h-0.5v-0.5h0.5z"/>
     <path d="m58.905 46.23h-0.5v-0.5h0.5z"/>
     <path d="m39.855 38.905h-0.5v-0.5h0.5z"/>
     <path d="m39.855 36.705h-0.5v-0.5h0.5z"/>
    </g>
   </g>
   <g fill-opacity="0" stroke="#4D7FC4" stroke-linecap="round" stroke-linejoin="round" stroke-width=".25">
    <path d="m77.705 48.18h19.05"/>
    <path d="m39.605 57.705h9.525"/>
    <path d="m96.755 48.18h19.05"/>
    <path d="m58.655 48.18h19.05"/>
    <path d="m49.13 57.705 9.525-9.525"/>
    <path d="m37.065 29.445v4.47"/>
    <path d="m37.065 33.915 2.54 2.54"/>
    <path d="m56.115 43.44 2.54 2.54"/>
    <path d="m56.115 38.97v4.47"/>
    <path d="m94.215 43.44 2.54 2.54"/>
    <path d="m94.215 38.97v4.47"/>
    <path d="m75.165 38.97v4.47"/>
    <path d="m75.165 43.44 2.54 2.54"/>
    <path d="m113.26 38.97v4.47"/>
    <path d="m113.26 43.44 2.54 2.54"/>
    <path d="m37.065 52.965 2.54 2.54"/>
    <path d="m37.065 48.495v4.47"/>
   </g>
  </g>
 </g>
 <g fill-opacity="0" stroke-linecap="round" stroke-linejoin="round">
  <g stroke="#000" stroke-width=".25">
   <g fill="#00C2C2" fill-opacity=".9" fill-rule="evenodd" stroke-width="0">
    <path d="m77.955 48.43h-0.5v-0.5h0.5z"/>
    <path d="m77.955 46.23h-0.5v-0.5h0.5z"/>
    <path d="m116.06 48.43h-0.5v-0.5h0.5z"/>
    <path d="m116.06 46.23h-0.5v-0.5h0.5z"/>
    <path d="m97.005 48.43h-0.5v-0.5h0.5z"/>
    <path d="m97.005 46.23h-0.5v-0.5h0.5z"/>
    <path d="m39.855 57.955h-0.5v-0.5h0.5z"/>
    <path d="m39.855 55.755h-0.5v-0.5h0.5z"/>
    <path d="m58.905 48.43h-0.5v-0.5h0.5z"/>
    <path d="m58.905 46.23h-0.5v-0.5h0.5z"/>
    <path d="m39.855 38.905h-0.5v-0.5h0.5z"/>
    <path d="m39.855 36.705h-0.5v-0.5h0.5z"/>
   </g>
  </g>
  <g fill="#E8B2A7" stroke="#E8B2A7" stroke-width=".15">
   <g transform="rotate(-90 79.555 47.08)">
    <text transform="scale(-1 1) translate(-159.11)" x="79.555" y="47.580" font-size="1.333" opacity="0" text-anchor="middle" lengthAdjust="spacingAndGlyphs" textLength="2.202">D4</text>
   </g>
   <g class="stroked-text">
    <desc>D4</desc>
    <path d="m80.01 46.342h-1"/>
    <path d="m79.01 46.342v0.238"/>
    <path d="m79.01 46.58 0.047 0.143"/>
    <path d="m79.057 46.723 0.096 0.095"/>
    <path d="m79.153 46.818 0.095 0.048"/>
    <path d="m79.248 46.866 0.19 0.047"/>
    <path d="m79.438 46.913h0.143"/>
    <path d="m79.581 46.913 0.191-0.047"/>
    <path d="m79.772 46.866 0.095-0.048"/>
    <path d="m79.867 46.818 0.095-0.095"/>
    <path d="m79.962 46.723 0.048-0.143"/>
    <path d="m80.01 46.58v-0.238"/>
    <path d="m79.343 47.77h0.667"/>
    <path d="m78.962 47.532 0.714-0.238"/>
    <path d="m79.676 47.294v0.619"/>
   </g>
   <g transform="rotate(-90 117.66 47.08)">
    <text transform="scale(-1 1) translate(-235.31)" x="117.655" y="47.580" font-size="1.333" opacity="0" text-anchor="middle" lengthAdjust="spacingAndGlyphs" textLength="2.202">D5</text>
   </g>
   <g class="stroked-text">
    <desc>D5</desc>
    <path d="m118.11 46.342h-1"/>
    <path d="m117.11 46.342v0.238"/>
    <path d="m117.11 46.58 0.047 0.143"/>
    <path d="m117.16 46.723 0.096 0.095"/>
    <path d="m117.25 46.818 0.095 0.048"/>
    <path d="m117.35 46.866 0.19 0.047"/>
    <path d="m117.54 46.913h0.143"/>
    <path d="m117.68 46.913 0.191-0.047"/>
    <path d="m117.87 46.866 0.095-0.048"/>
    <path d="m117.97 46.818 0.095-0.095"/>
    <path d="m118.06 46.723 0.048-0.143"/>
    <path d="m118.11 46.58v-0.238"/>
    <path d="m117.11 47.818v-0.476"/>
    <path d="m117.11 47.342 0.476-0.048"/>
    <path d="m117.59 47.294-0.048 0.048"/>
    <path d="m117.54 47.342-0.047 0.095"/>
    <path d="m117.49 47.437v0.238"/>
    <path d="m117.49 47.675 0.047 0.095"/>
    <path d="m117.54 47.77 0.048 0.048"/>
    <path d="m117.59 47.818 0.095 0.048"/>
    <path d="m117.68 47.866h0.238"/>
    <path d="m117.92 47.866 0.096-0.048"/>
    <path d="m118.02 47.818 0.047-0.048"/>
    <path d="m118.06 47.77 0.048-0.095"/>
    <path d="m118.11 47.675v-0.238"/>
    <path d="m118.11 47.437-0.048-0.095"/>
    <path d="m118.06 47.342-0.047-0.048"/>
   </g>
   <g transform="rotate(-90 98.605 47.08)">
    <text transform="scale(-1 1) translate(-197.21)" x="98.605" y="47.580" font-size="1.333" opacity="0" text-anchor="middle" lengthAdjust="spacingAndGlyphs" textLength="2.202">D3</text>
   </g>
   <g class="stroked-text">
    <desc>D3</desc>
    <path d="m99.06 46.342h-1"/>
    <path d="m98.06 46.342v0.238"/>
    <path d="m98.06 46.58 0.047 0.143"/>
    <path d="m98.107 46.723 0.096 0.095"/>
    <path d="m98.203 46.818 0.095 0.048"/>
    <path d="m98.298 46.866 0.19 0.047"/>
    <path d="m98.488 46.913h0.143"/>
    <path d="m98.631 46.913 0.191-0.047"/>
    <path d="m98.822 46.866 0.095-0.048"/>
    <path d="m98.917 46.818 0.095-0.095"/>
    <path d="m99.012 46.723 0.048-0.143"/>
    <path d="m99.06 46.58v-0.238"/>
    <path d="m98.06 47.247v0.619"/>
    <path d="m98.06 47.866 0.381-0.334"/>
    <path d="m98.441 47.532v0.143"/>
    <path d="m98.441 47.675 0.047 0.095"/>
    <path d="m98.488 47.77 0.048 0.048"/>
    <path d="m98.536 47.818 0.095 0.048"/>
    <path d="m98.631 47.866h0.238"/>
    <path d="m98.869 47.866 0.096-0.048"/>
    <path d="m98.965 47.818 0.047-0.048"/>
    <path d="m99.012 47.77 0.048-0.095"/>
    <path d="m99.06 47.675v-0.285"/>
    <path d="m99.06 47.39-0.048-0.096"/>
    <path d="m99.012 47.294-0.047-0.047"/>
   </g>
   <g transform="rotate(-90 41.455 56.605)">
    <text transform="scale(-1 1) translate(-82.91)" x="41.455" y="57.105" font-size="1.333" opacity="0" text-anchor="middle" lengthAdjust="spacingAndGlyphs" textLength="2.202">D6</text>
   </g>
   <g class="stroked-text">
    <desc>D6</desc>
    <path d="m41.91 55.867h-1"/>
    <path d="m40.91 55.867v0.238"/>
    <path d="m40.91 56.105 0.047 0.143"/>
    <path d="m40.957 56.248 0.096 0.095"/>
    <path d="m41.053 56.343 0.095 0.048"/>
    <path d="m41.148 56.391 0.19 0.047"/>
    <path d="m41.338 56.438h0.143"/>
    <path d="m41.481 56.438 0.191-0.047"/>
    <path d="m41.672 56.391 0.095-0.048"/>
    <path d="m41.767 56.343 0.095-0.095"/>
    <path d="m41.862 56.248 0.048-0.143"/>
    <path d="m41.91 56.105v-0.238"/>
    <path d="m40.91 57.295v-0.19"/>
    <path d="m40.91 57.105 0.047-0.095"/>
    <path d="m40.957 57.01 0.048-0.048"/>
    <path d="m41.005 56.962 0.143-0.095"/>
    <path d="m41.148 56.867 0.19-0.048"/>
    <path d="m41.338 56.819h0.381"/>
    <path d="m41.719 56.819 0.096 0.048"/>
    <path d="m41.815 56.867 0.047 0.048"/>
    <path d="m41.862 56.915 0.048 0.095"/>
    <path d="m41.91 57.01v0.19"/>
    <path d="m41.91 57.2-0.048 0.095"/>
    <path d="m41.862 57.295-0.047 0.048"/>
    <path d="m41.815 57.343-0.096 0.048"/>
    <path d="m41.719 57.391h-0.238"/>
    <path d="m41.481 57.391-0.095-0.048"/>
    <path d="m41.386 57.343-0.048-0.048"/>
    <path d="m41.338 57.295-0.047-0.095"/>
    <path d="m41.291 57.2v-0.19"/>
    <path d="m41.291 57.01 0.047-0.095"/>
    <path d="m41.338 56.915 0.048-0.048"/>
    <path d="m41.386 56.867 0.095-0.048"/>
   </g>
   <g transform="rotate(-90 60.505 47.08)">
    <text transform="scale(-1 1) translate(-121.01)" x="60.505" y="47.580" font-size="1.333" opacity="0" text-anchor="middle" lengthAdjust="spacingAndGlyphs" textLength="2.202">D2</text>
   </g>
   <g class="stroked-text">
    <desc>D2</desc>
    <path d="m60.96 46.342h-1"/>
    <path d="m59.96 46.342v0.238"/>
    <path d="m59.96 46.58 0.047 0.143"/>
    <path d="m60.007 46.723 0.096 0.095"/>
    <path d="m60.103 46.818 0.095 0.048"/>
    <path d="m60.198 46.866 0.19 0.047"/>
    <path d="m60.388 46.913h0.143"/>
    <path d="m60.531 46.913 0.191-0.047"/>
    <path d="m60.722 46.866 0.095-0.048"/>
    <path d="m60.817 46.818 0.095-0.095"/>
    <path d="m60.912 46.723 0.048-0.143"/>
    <path d="m60.96 46.58v-0.238"/>
    <path d="m60.055 47.294-0.048 0.048"/>
    <path d="m60.007 47.342-0.047 0.095"/>
    <path d="m59.96 47.437v0.238"/>
    <path d="m59.96 47.675 0.047 0.095"/>
    <path d="m60.007 47.77 0.048 0.048"/>
    <path d="m60.055 47.818 0.095 0.048"/>
    <path d="m60.15 47.866h0.096"/>
    <path d="m60.246 47.866 0.142-0.048"/>
    <path d="m60.388 47.818 0.572-0.571"/>
    <path d="m60.96 47.247v0.619"/>
   </g>
   <g transform="rotate(-90 41.455 37.555)">
    <text transform="scale(-1 1) translate(-82.91)" x="41.455" y="38.055" font-size="1.333" opacity="0" text-anchor="middle" lengthAdjust="spacingAndGlyphs" textLength="2.202">D1</text>
   </g>
   <g class="stroked-text">
    <desc>D1</desc>
    <path d="m41.91 36.817h-1"/>
    <path d="m40.91 36.817v0.238"/>
    <path d="m40.91 37.055 0.047 0.143"/>
    <path d="m40.957 37.198 0.096 0.095"/>
    <path d="m41.053 37.293 0.095 0.048"/>
    <path d="m41.148 37.341 0.19 0.047"/>
    <path d="m41.338 37.388h0.143"/>
    <path d="m41.481 37.388 0.191-0.047"/>
    <path d="m41.672 37.341 0.095-0.048"/>
    <path d="m41.767 37.293 0.095-0.095"/>
    <path d="m41.862 37.198 0.048-0.143"/>
    <path d="m41.91 37.055v-0.238"/>
    <path d="m41.91 38.341v-0.572"/>
    <path d="m41.91 38.055h-1"/>
    <path d="m40.91 38.055 0.143-0.095"/>
    <path d="m41.053 37.96 0.095-0.095"/>
    <path d="m41.148 37.865 0.048-0.096"/>
   </g>
  </g>
  <g fill="#E8B2A7" stroke="#E8B2A7" stroke-width=".12">
   <path d="m76.855 48.58v-2.55"/>
   <path d="m78.555 48.58h-1.7"/>
   <path d="m78.555 48.58v-2.55"/>
   <path d="m114.96 48.58v-2.55"/>
   <path d="m116.66 48.58h-1.7"/>
   <path d="m116.66 48.58v-2.55"/>
   <path d="m95.905 48.58v-2.55"/>
   <path d="m97.605 48.58h-1.7"/>
   <path d="m97.605 48.58v-2.55"/>
   <path d="m38.755 58.105v-2.55"/>
   <path d="m40.455 58.105h-1.7"/>
   <path d="m40.455 58.105v-2.55"/>
   <path d="m57.805 48.58v-2.55"/>
   <path d="m59.505 48.58h-1.7"/>
   <path d="m59.505 48.58v-2.55"/>
   <path d="m38.755 39.055v-2.55"/>
   <path d="m40.455 39.055h-1.7"/>
   <path d="m40.455 39.055v-2.55"/>
  </g>
  <g fill="#F2EDA1" stroke="#F2EDA1" stroke-width=".15">
   <text x="110.725" y="36.550" font-size="1.333" opacity="0" text-anchor="middle" lengthAdjust="spacingAndGlyphs" textLength="3.298">SW5</text>
   <g class="stroked-text">
    <desc>SW5</desc>
    <path d="m109.39 36.457 0.143 0.048"/>
    <path d="m109.54 36.505h0.238"/>
    <path d="m109.77 36.505 0.095-0.048"/>
    <path d="m109.87 36.457 0.047-0.047"/>
    <path d="m109.92 36.41 0.048-0.096"/>
    <path d="m109.96 36.314v-0.095"/>
    <path d="m109.96 36.219-0.048-0.095"/>
    <path d="m109.92 36.124-0.047-0.048"/>
    <path d="m109.87 36.076-0.095-0.047"/>
    <path d="m109.77 36.029-0.191-0.048"/>
    <path d="m109.58 35.981-0.095-0.048"/>
    <path d="m109.49 35.933-0.048-0.047"/>
    <path d="m109.44 35.886-0.047-0.095"/>
    <path d="m109.39 35.791v-0.096"/>
    <path d="m109.39 35.695 0.047-0.095"/>
    <path d="m109.44 35.6 0.048-0.048"/>
    <path d="m109.49 35.552 0.095-0.047"/>
    <path d="m109.58 35.505h0.238"/>
    <path d="m109.82 35.505 0.143 0.047"/>
    <path d="m110.3 35.505 0.239 1"/>
    <path d="m110.54 36.505 0.19-0.714"/>
    <path d="m110.72 35.791 0.19 0.714"/>
    <path d="m110.92 36.505 0.239-1"/>
    <path d="m112.01 35.505h-0.476"/>
    <path d="m111.54 35.505-0.048 0.476"/>
    <path d="m111.49 35.981 0.048-0.048"/>
    <path d="m111.54 35.933 0.095-0.047"/>
    <path d="m111.63 35.886h0.238"/>
    <path d="m111.87 35.886 0.095 0.047"/>
    <path d="m111.96 35.933 0.048 0.048"/>
    <path d="m112.01 35.981 0.047 0.095"/>
    <path d="m112.06 36.076v0.238"/>
    <path d="m112.06 36.314-0.047 0.096"/>
    <path d="m112.01 36.41-0.048 0.047"/>
    <path d="m111.96 36.457-0.095 0.048"/>
    <path d="m111.87 36.505h-0.238"/>
    <path d="m111.63 36.505-0.095-0.048"/>
    <path d="m111.54 36.457-0.048-0.047"/>
   </g>
   <text x="91.675" y="36.550" font-size="1.333" opacity="0" text-anchor="middle" lengthAdjust="spacingAndGlyphs" textLength="3.298">SW3</text>
   <g class="stroked-text">
    <desc>SW3</desc>
    <path d="m90.342 36.457 0.143 0.048"/>
    <path d="m90.485 36.505h0.238"/>
    <path d="m90.723 36.505 0.095-0.048"/>
    <path d="m90.818 36.457 0.047-0.047"/>
    <path d="m90.865 36.41 0.048-0.096"/>
    <path d="m90.913 36.314v-0.095"/>
    <path d="m90.913 36.219-0.048-0.095"/>
    <path d="m90.865 36.124-0.047-0.048"/>
    <path d="m90.818 36.076-0.095-0.047"/>
    <path d="m90.723 36.029-0.191-0.048"/>
    <path d="m90.532 35.981-0.095-0.048"/>
    <path d="m90.437 35.933-0.048-0.047"/>
    <path d="m90.389 35.886-0.047-0.095"/>
    <path d="m90.342 35.791v-0.096"/>
    <path d="m90.342 35.695 0.047-0.095"/>
    <path d="m90.389 35.6 0.048-0.048"/>
    <path d="m90.437 35.552 0.095-0.047"/>
    <path d="m90.532 35.505h0.238"/>
    <path d="m90.77 35.505 0.143 0.047"/>
    <path d="m91.246 35.505 0.239 1"/>
    <path d="m91.485 36.505 0.19-0.714"/>
    <path d="m91.675 35.791 0.19 0.714"/>
    <path d="m91.865 36.505 0.239-1"/>
    <path d="m92.389 35.505h0.619"/>
    <path d="m93.008 35.505-0.333 0.381"/>
    <path d="m92.675 35.886h0.143"/>
    <path d="m92.818 35.886 0.095 0.047"/>
    <path d="m92.913 35.933 0.048 0.048"/>
    <path d="m92.961 35.981 0.047 0.095"/>
    <path d="m93.008 36.076v0.238"/>
    <path d="m93.008 36.314-0.047 0.096"/>
    <path d="m92.961 36.41-0.048 0.047"/>
    <path d="m92.913 36.457-0.095 0.048"/>
    <path d="m92.818 36.505h-0.286"/>
    <path d="m92.532 36.505-0.095-0.048"/>
    <path d="m92.437 36.457-0.048-0.047"/>
   </g>
   <text x="34.525" y="46.075" font-size="1.333" opacity="0" text-anchor="middle" lengthAdjust="spacingAndGlyphs" textLength="3.298">SW6</text>
   <g class="stroked-text">
    <desc>SW6</desc>
    <path d="m33.192 45.982 0.143 0.048"/>
    <path d="m33.335 46.03h0.238"/>
    <path d="m33.573 46.03 0.095-0.048"/>
    <path d="m33.668 45.982 0.047-0.047"/>
    <path d="m33.715 45.935 0.048-0.096"/>
    <path d="m33.763 45.839v-0.095"/>
    <path d="m33.763 45.744-0.048-0.095"/>
    <path d="m33.715 45.649-0.047-0.048"/>
    <path d="m33.668 45.601-0.095-0.047"/>
    <path d="m33.573 45.554-0.191-0.048"/>
    <path d="m33.382 45.506-0.095-0.048"/>
    <path d="m33.287 45.458-0.048-0.047"/>
    <path d="m33.239 45.411-0.047-0.095"/>
    <path d="m33.192 45.316v-0.096"/>
    <path d="m33.192 45.22 0.047-0.095"/>
    <path d="m33.239 45.125 0.048-0.048"/>
    <path d="m33.287 45.077 0.095-0.047"/>
    <path d="m33.382 45.03h0.238"/>
    <path d="m33.62 45.03 0.143 0.047"/>
    <path d="m34.096 45.03 0.239 1"/>
    <path d="m34.335 46.03 0.19-0.714"/>
    <path d="m34.525 45.316 0.19 0.714"/>
    <path d="m34.715 46.03 0.239-1"/>
    <path d="m35.763 45.03h-0.19"/>
    <path d="m35.573 45.03-0.096 0.047"/>
    <path d="m35.477 45.077-0.047 0.048"/>
    <path d="m35.43 45.125-0.095 0.143"/>
    <path d="m35.335 45.268-0.048 0.19"/>
    <path d="m35.287 45.458v0.381"/>
    <path d="m35.287 45.839 0.048 0.096"/>
    <path d="m35.335 45.935 0.047 0.047"/>
    <path d="m35.382 45.982 0.095 0.048"/>
    <path d="m35.477 46.03h0.191"/>
    <path d="m35.668 46.03 0.095-0.048"/>
    <path d="m35.763 45.982 0.048-0.047"/>
    <path d="m35.811 45.935 0.047-0.096"/>
    <path d="m35.858 45.839v-0.238"/>
    <path d="m35.858 45.601-0.047-0.095"/>
    <path d="m35.811 45.506-0.048-0.048"/>
    <path d="m35.763 45.458-0.095-0.047"/>
    <path d="m35.668 45.411h-0.191"/>
    <path d="m35.477 45.411-0.095 0.047"/>
    <path d="m35.382 45.458-0.047 0.048"/>
    <path d="m35.335 45.506-0.048 0.095"/>
   </g>
   <text x="53.575" y="36.550" font-size="1.333" opacity="0" text-anchor="middle" lengthAdjust="spacingAndGlyphs" textLength="3.298">SW2</text>
   <g class="stroked-text">
    <desc>SW2</desc>
    <path d="m52.242 36.457 0.143 0.048"/>
    <path d="m52.385 36.505h0.238"/>
    <path d="m52.623 36.505 0.095-0.048"/>
    <path d="m52.718 36.457 0.047-0.047"/>
    <path d="m52.765 36.41 0.048-0.096"/>
    <path d="m52.813 36.314v-0.095"/>
    <path d="m52.813 36.219-0.048-0.095"/>
    <path d="m52.765 36.124-0.047-0.048"/>
    <path d="m52.718 36.076-0.095-0.047"/>
    <path d="m52.623 36.029-0.191-0.048"/>
    <path d="m52.432 35.981-0.095-0.048"/>
    <path d="m52.337 35.933-0.048-0.047"/>
    <path d="m52.289 35.886-0.047-0.095"/>
    <path d="m52.242 35.791v-0.096"/>
    <path d="m52.242 35.695 0.047-0.095"/>
    <path d="m52.289 35.6 0.048-0.048"/>
    <path d="m52.337 35.552 0.095-0.047"/>
    <path d="m52.432 35.505h0.238"/>
    <path d="m52.67 35.505 0.143 0.047"/>
    <path d="m53.146 35.505 0.239 1"/>
    <path d="m53.385 36.505 0.19-0.714"/>
    <path d="m53.575 35.791 0.19 0.714"/>
    <path d="m53.765 36.505 0.239-1"/>
    <path d="m54.337 35.6 0.048-0.048"/>
    <path d="m54.385 35.552 0.095-0.047"/>
    <path d="m54.48 35.505h0.238"/>
    <path d="m54.718 35.505 0.095 0.047"/>
    <path d="m54.813 35.552 0.048 0.048"/>
    <path d="m54.861 35.6 0.047 0.095"/>
    <path d="m54.908 35.695v0.096"/>
    <path d="m54.908 35.791-0.047 0.142"/>
    <path d="m54.861 35.933-0.572 0.572"/>
    <path d="m54.289 36.505h0.619"/>
   </g>
   <text x="72.625" y="36.550" font-size="1.333" opacity="0" text-anchor="middle" lengthAdjust="spacingAndGlyphs" textLength="3.298">SW4</text>
   <g class="stroked-text">
    <desc>SW4</desc>
    <path d="m71.292 36.457 0.143 0.048"/>
    <path d="m71.435 36.505h0.238"/>
    <path d="m71.673 36.505 0.095-0.048"/>
    <path d="m71.768 36.457 0.047-0.047"/>
    <path d="m71.815 36.41 0.048-0.096"/>
    <path d="m71.863 36.314v-0.095"/>
    <path d="m71.863 36.219-0.048-0.095"/>
    <path d="m71.815 36.124-0.047-0.048"/>
    <path d="m71.768 36.076-0.095-0.047"/>
    <path d="m71.673 36.029-0.191-0.048"/>
    <path d="m71.482 35.981-0.095-0.048"/>
    <path d="m71.387 35.933-0.048-0.047"/>
    <path d="m71.339 35.886-0.047-0.095"/>
    <path d="m71.292 35.791v-0.096"/>
    <path d="m71.292 35.695 0.047-0.095"/>
    <path d="m71.339 35.6 0.048-0.048"/>
    <path d="m71.387 35.552 0.095-0.047"/>
    <path d="m71.482 35.505h0.238"/>
    <path d="m71.72 35.505 0.143 0.047"/>
    <path d="m72.196 35.505 0.239 1"/>
    <path d="m72.435 36.505 0.19-0.714"/>
    <path d="m72.625 35.791 0.19 0.714"/>
    <path d="m72.815 36.505 0.239-1"/>
    <path d="m73.863 35.838v0.667"/>
    <path d="m73.625 35.457-0.238 0.714"/>
    <path d="m73.387 36.171h0.619"/>
   </g>
   <text x="34.525" y="27.025" font-size="1.333" opacity="0" text-anchor="middle" lengthAdjust="spacingAndGlyphs" textLength="3.298">SW1</text>
   <g class="stroked-text">
    <desc>SW1</desc>
    <path d="m33.192 26.932 0.143 0.048"/>
    <path d="m33.335 26.98h0.238"/>
    <path d="m33.573 26.98 0.095-0.048"/>
    <path d="m33.668 26.932 0.047-0.047"/>
    <path d="m33.715 26.885 0.048-0.096"/>
    <path d="m33.763 26.789v-0.095"/>
    <path d="m33.763 26.694-0.048-0.095"/>
    <path d="m33.715 26.599-0.047-0.048"/>
    <path d="m33.668 26.551-0.095-0.047"/>
    <path d="m33.573 26.504-0.191-0.048"/>
    <path d="m33.382 26.456-0.095-0.048"/>
    <path d="m33.287 26.408-0.048-0.047"/>
    <path d="m33.239 26.361-0.047-0.095"/>
    <path d="m33.192 26.266v-0.096"/>
    <path d="m33.192 26.17 0.047-0.095"/>
    <path d="m33.239 26.075 0.048-0.048"/>
    <path d="m33.287 26.027 0.095-0.047"/>
    <path d="m33.382 25.98h0.238"/>
    <path d="m33.62 25.98 0.143 0.047"/>
    <path d="m34.096 25.98 0.239 1"/>
    <path d="m34.335 26.98 0.19-0.714"/>
    <path d="m34.525 26.266 0.19 0.714"/>
    <path d="m34.715 26.98 0.239-1"/>
    <path d="m35.858 26.98h-0.571"/>
    <path d="m35.573 26.98v-1"/>
    <path d="m35.573 25.98-0.096 0.143"/>
    <path d="m35.477 26.123-0.095 0.095"/>
    <path d="m35.382 26.218-0.095 0.048"/>
   </g>
  </g>
  <g fill="#F2EDA1" stroke="#F2EDA1" stroke-width=".12">
   <path d="m103.62 36.95v14.2"/>
   <path d="m103.62 51.15h14.2"/>
   <path d="m117.82 36.95h-14.2"/>
   <path d="m117.82 51.15v-14.2"/>
   <path d="m84.575 36.95v14.2"/>
   <path d="m84.575 51.15h14.2"/>
   <path d="m98.775 36.95h-14.2"/>
   <path d="m98.775 51.15v-14.2"/>
   <path d="m27.425 46.475v14.2"/>
   <path d="m27.425 60.675h14.2"/>
   <path d="m41.625 46.475h-14.2"/>
   <path d="m41.625 60.675v-14.2"/>
   <path d="m46.475 36.95v14.2"/>
   <path d="m46.475 51.15h14.2"/>
   <path d="m60.675 36.95h-14.2"/>
   <path d="m60.675 51.15v-14.2"/>
   <path d="m65.525 36.95v14.2"/>
   <path d="m65.525 51.15h14.2"/>
   <path d="m79.725 36.95h-14.2"/>
   <path d="m79.725 51.15v-14.2"/>
   <path d="m27.425 27.425v14.2"/>
   <path d="m27.425 41.625h14.2"/>
   <path d="m41.625 27.425h-14.2"/>
   <path d="m41.625 41.625v-14.2"/>
  </g>
  <g stroke="#000" stroke-width=".12">
   <g fill="#02FFEE" fill-opacity=".4" stroke-width="0">
    <g stroke="#02FFEE" stroke-linecap="round" stroke-linejoin="round">
     <circle cx="105.64" cy="44.05" r=".875"/>
     <circle cx="110.72" cy="44.05" r="2"/>
     <circle cx="115.8" cy="44.05" r=".875"/>
     <circle cx="106.92" cy="41.51" r="1.25"/>
     <circle cx="113.26" cy="38.97" r="1.25"/>
     <circle cx="86.595" cy="44.05" r=".875"/>
     <circle cx="91.675" cy="44.05" r="2"/>
     <circle cx="96.755" cy="44.05" r=".875"/>
     <circle cx="87.865" cy="41.51" r="1.25"/>
     <circle cx="94.215" cy="38.97" r="1.25"/>
     <circle cx="29.445" cy="53.575" r=".875"/>
     <circle cx="34.525" cy="53.575" r="2"/>
     <circle cx="39.605" cy="53.575" r=".875"/>
     <circle cx="30.715" cy="51.035" r="1.25"/>
     <circle cx="37.065" cy="48.495" r="1.25"/>
     <circle cx="48.495" cy="44.05" r=".875"/>
     <circle cx="53.575" cy="44.05" r="2"/>
     <circle cx="58.655" cy="44.05" r=".875"/>
     <circle cx="49.765" cy="41.51" r="1.25"/>
     <circle cx="56.115" cy="38.97" r="1.25"/>
     <circle cx="67.545" cy="44.05" r=".875"/>
     <circle cx="72.625" cy="44.05" r="2"/>
     <circle cx="77.705" cy="44.05" r=".875"/>
     <circle cx="68.815" cy="41.51" r="1.25"/>
     <circle cx="75.165" cy="38.97" r="1.25"/>
     <circle cx="29.445" cy="34.525" r=".875"/>
     <circle cx="34.525" cy="34.525" r="2"/>
     <circle cx="39.605" cy="34.525" r=".875"/>
     <circle cx="30.715" cy="31.985" r="1.25"/>
     <circle cx="37.065" cy="29.445" r="1.25"/>
    </g>
    <g fill-rule="evenodd">
     <path d="m77.955 48.43h-0.5v-0.5h0.5z"/>
     <path d="m77.955 46.23h-0.5v-0.5h0.5z"/>
     <path d="m116.06 48.43h-0.5v-0.5h0.5z"/>
     <path d="m116.06 46.23h-0.5v-0.5h0.5z"/>
     <path d="m97.005 48.43h-0.5v-0.5h0.5z"/>
     <path d="m97.005 46.23h-0.5v-0.5h0.5z"/>
     <path d="m39.855 57.955h-0.5v-0.5h0.5z"/>
     <path d="m39.855 55.755h-0.5v-0.5h0.5z"/>
     <path d="m58.905 48.43h-0.5v-0.5h0.5z"/>
     <path d="m58.905 46.23h-0.5v-0.5h0.5z"/>
     <path d="m39.855 38.905h-0.5v-0.5h0.5z"/>
     <path d="m39.855 36.705h-0.5v-0.5h0.5z"/>
    </g>
   </g>
  </g>
 </g>
 <g stroke-width="0">
  <g fill="#D864FF" fill-opacity=".4" stroke="#D864FF" stroke-linecap="round" stroke-linejoin="round" stroke-width="0">
   <circle cx="105.64" cy="44.05" r=".875"/>
   <circle cx="110.72" cy="44.05" r="2"/>
   <circle cx="115.8" cy="44.05" r=".875"/>
   <circle cx="86.595" cy="44.05" r=".875"/>
   <circle cx="91.675" cy="44.05" r="2"/>
   <circle cx="96.755" cy="44.05" r=".875"/>
   <circle cx="29.445" cy="53.575" r=".875"/>
   <circle cx="34.525" cy="53.575" r="2"/>
   <circle cx="39.605" cy="53.575" r=".875"/>
   <circle cx="48.495" cy="44.05" r=".875"/>
   <circle cx="53.575" cy="44.05" r="2"/>
   <circle cx="58.655" cy="44.05" r=".875"/>
   <circle cx="67.545" cy="44.05" r=".875"/>
   <circle cx="72.625" cy="44.05" r="2"/>
   <circle cx="77.705" cy="44.05" r=".875"/>
   <circle cx="29.445" cy="34.525" r=".875"/>
   <circle cx="34.525" cy="34.525" r="2"/>
   <circle cx="39.605" cy="34.525" r=".875"/>
  </g>
 </g>
</svg>
