<svg xmlns="http://www.w3.org/2000/svg" xmlns:xlink="http://www.w3.org/1999/xlink" width="255" height="229" viewBox="0 0 255 229"><defs><g id="a"><rect width="52" height="104" fill="none" stroke="#000" stroke-width="2" rx="5"/><rect width="50" height="102" x="1" y="1" fill="#ccc" rx="4"/><rect width="40" height="92" x="6" y="4" fill="#fbfbfb" rx="5"/><text x="7" y="7" dominant-baseline="hanging" font-size="12"><tspan x="7" dy="0em">0,1</tspan></text></g><g id="b"><rect width="52" height="65" fill="none" stroke="#000" stroke-width="2" rx="5"/><rect width="50" height="63" x="1" y="1" fill="#ccc" rx="4"/><rect width="40" height="53" x="6" y="4" fill="#fbfbfb" rx="5"/><text x="7" y="7" dominant-baseline="hanging" font-size="12"><tspan x="7" dy="0em">0,2</tspan></text></g><g id="c"><rect width="52" height="65" fill="none" stroke="#000" stroke-width="2" rx="5"/><rect width="50" height="63" x="1" y="1" fill="#ccc" rx="4"/><rect width="40" height="53" x="6" y="4" fill="#fbfbfb" rx="5"/><text x="7" y="7" dominant-baseline="hanging" font-size="12"><tspan x="7" dy="0em">0,3</tspan></text></g><g id="d"><rect width="52" height="104" fill="none" stroke="#000" stroke-width="2" rx="5"/><rect width="50" height="102" x="1" y="1" fill="#ccc" rx="4"/><rect width="40" height="92" x="6" y="4" fill="#fbfbfb" rx="5"/><text x="7" y="7" dominant-baseline="hanging" font-size="12"><tspan x="7" dy="0em">0,4</tspan></text></g><g id="e"><rect width="91" height="104" fill="none" stroke="#000" stroke-width="2" rx="5"/><rect width="89" height="102" x="1" y="1" fill="#ccc" rx="4"/><rect width="79" height="92" x="6" y="4" fill="#fbfbfb" rx="5"/><text x="7" y="7" dominant-baseline="hanging" font-size="12"><tspan x="7" dy="0em">0,0</tspan></text></g><g id="f"><rect width="91" height="104" fill="none" stroke="#000" stroke-width="2" rx="5"/><rect width="89" height="102" x="1" y="1" fill="#ccc" rx="4"/><rect width="79" height="92" x="6" y="4" fill="#fbfbfb" rx="5"/><text x="7" y="7" dominant-baseline="hanging" font-size="12"><tspan x="7" dy="0em">0,5</tspan></text></g></defs><use xlink:href="#a" x="4" y="4"/><use xlink:href="#b" x="69" y="4"/><use xlink:href="#c" x="134" y="4"/><use xlink:href="#d" x="199" y="4"/><use xlink:href="#e" x="4" y="121"/><use xlink:href="#f" x="160" y="121"/></svg>