<?xml version="1.0" encoding="UTF-8"?>
<!DOCTYPE svg  PUBLIC '-//W3C//DTD SVG 1.1//EN'  'http://www.w3.org/Graphics/SVG/1.1/DTD/svg11.dtd'>
<svg width="57.226mm" height="60.096mm" version="1.1" viewBox="0 0 57.226 60.096" xmlns="http://www.w3.org/2000/svg">
 <title>SVG Image created as pad9a-render.svg date 2025/09/05 18:33:57</title>
 <desc>Image generated by PCBNEW</desc>
 <rect width="57.226mm" height="60.096mm" fill="#282A36"/>
 <g fill="none" stroke="#8BE9FD" stroke-linecap="round" stroke-linejoin="round" stroke-width=".15">
  <text x="47.6750" y="2.0750" font-size="1.3333" opacity="0" stroke-opacity="0" text-anchor="middle" lengthAdjust="spacingAndGlyphs" textLength="3.2976">SW2</text>
  <g class="stroked-text">
   <desc>SW2</desc>
   <path d="m46.342 1.9822 0.1428 0.0476"/>
   <path d="m46.484 2.0298h0.2381"/>
   <path d="m46.723 2.0298 0.0953-0.0476"/>
   <path d="m46.818 1.9822 0.0476-0.0476"/>
   <path d="m46.866 1.9346 0.0476-0.0953"/>
   <path d="m46.913 1.8393v-0.0952"/>
   <path d="m46.913 1.7441-0.0476-0.0952"/>
   <path d="m46.866 1.6489-0.0476-0.0477"/>
   <path d="m46.818 1.6012-0.0953-0.0476"/>
   <path d="m46.723 1.5536-0.1905-0.0476"/>
   <path d="m46.532 1.506-0.0952-0.0476"/>
   <path d="m46.437 1.4584-0.0476-0.0476"/>
   <path d="m46.389 1.4108-0.0476-0.0953"/>
   <path d="m46.342 1.3155v-0.0952"/>
   <path d="m46.342 1.2203 0.0476-0.0952"/>
   <path d="m46.389 1.1251 0.0476-0.0477"/>
   <path d="m46.437 1.0774 0.0952-0.0476"/>
   <path d="m46.532 1.0298h0.2381"/>
   <path d="m46.77 1.0298 0.1429 0.0476"/>
   <path d="m47.246 1.0298 0.2381 1"/>
   <path d="m47.484 2.0298 0.1905-0.7143"/>
   <path d="m47.675 1.3155 0.1905 0.7143"/>
   <path d="m47.866 2.0298 0.2381-1"/>
   <path d="m48.437 1.1251 0.0476-0.0477"/>
   <path d="m48.484 1.0774 0.0953-0.0476"/>
   <path d="m48.58 1.0298h0.2381"/>
   <path d="m48.818 1.0298 0.0952 0.0476"/>
   <path d="m48.913 1.0774 0.0476 0.0477"/>
   <path d="m48.961 1.1251 0.0476 0.0952"/>
   <path d="m49.008 1.2203v0.0952"/>
   <path d="m49.008 1.3155-0.0476 0.1429"/>
   <path d="m48.961 1.4584-0.5714 0.5714"/>
   <path d="m48.389 2.0298h0.619"/>
  </g>
  <text x="9.5750" y="2.0750" font-size="1.3333" opacity="0" stroke-opacity="0" text-anchor="middle" lengthAdjust="spacingAndGlyphs" textLength="3.2976">SW1</text>
  <g class="stroked-text">
   <desc>SW1</desc>
   <path d="m8.2417 1.9822 0.1428 0.0476"/>
   <path d="m8.3845 2.0298h0.2381"/>
   <path d="m8.6226 2.0298 0.0953-0.0476"/>
   <path d="m8.7179 1.9822 0.0476-0.0476"/>
   <path d="m8.7655 1.9346 0.0476-0.0953"/>
   <path d="m8.8131 1.8393v-0.0952"/>
   <path d="m8.8131 1.7441-0.0476-0.0952"/>
   <path d="m8.7655 1.6489-0.0476-0.0477"/>
   <path d="m8.7179 1.6012-0.0953-0.0476"/>
   <path d="m8.6226 1.5536-0.1905-0.0476"/>
   <path d="m8.4321 1.506-0.0952-0.0476"/>
   <path d="m8.3369 1.4584-0.0476-0.0476"/>
   <path d="m8.2893 1.4108-0.0476-0.0953"/>
   <path d="m8.2417 1.3155v-0.0952"/>
   <path d="m8.2417 1.2203 0.0476-0.0952"/>
   <path d="m8.2893 1.1251 0.0476-0.0477"/>
   <path d="m8.3369 1.0774 0.0952-0.0476"/>
   <path d="m8.4321 1.0298h0.2381"/>
   <path d="m8.6702 1.0298 0.1429 0.0476"/>
   <path d="m9.1464 1.0298 0.2381 1"/>
   <path d="m9.3845 2.0298 0.1905-0.7143"/>
   <path d="m9.575 1.3155 0.1905 0.7143"/>
   <path d="m9.7655 2.0298 0.2381-1"/>
   <path d="m10.908 2.0298h-0.5714"/>
   <path d="m10.623 2.0298v-1"/>
   <path d="m10.623 1.0298-0.0952 0.1429"/>
   <path d="m10.527 1.1727-0.0953 0.0952"/>
   <path d="m10.432 1.2679-0.0952 0.0476"/>
  </g>
  <text x="9.5750" y="43.0325" font-size="1.3333" opacity="0" stroke-opacity="0" text-anchor="middle" lengthAdjust="spacingAndGlyphs" textLength="3.2976">SW6</text>
  <g class="stroked-text">
   <desc>SW6</desc>
   <path d="m8.2417 42.94 0.1428 0.0476"/>
   <path d="m8.3845 42.987h0.2381"/>
   <path d="m8.6226 42.987 0.0953-0.0476"/>
   <path d="m8.7179 42.94 0.0476-0.0476"/>
   <path d="m8.7655 42.892 0.0476-0.0953"/>
   <path d="m8.8131 42.797v-0.0952"/>
   <path d="m8.8131 42.702-0.0476-0.0952"/>
   <path d="m8.7655 42.606-0.0476-0.0477"/>
   <path d="m8.7179 42.559-0.0953-0.0476"/>
   <path d="m8.6226 42.511-0.1905-0.0476"/>
   <path d="m8.4321 42.464-0.0952-0.0476"/>
   <path d="m8.3369 42.416-0.0476-0.0476"/>
   <path d="m8.2893 42.368-0.0476-0.0953"/>
   <path d="m8.2417 42.273v-0.0952"/>
   <path d="m8.2417 42.178 0.0476-0.0952"/>
   <path d="m8.2893 42.083 0.0476-0.0477"/>
   <path d="m8.3369 42.035 0.0952-0.0476"/>
   <path d="m8.4321 41.987h0.2381"/>
   <path d="m8.6702 41.987 0.1429 0.0476"/>
   <path d="m9.1464 41.987 0.2381 1"/>
   <path d="m9.3845 42.987 0.1905-0.7143"/>
   <path d="m9.575 42.273 0.1905 0.7143"/>
   <path d="m9.7655 42.987 0.2381-1"/>
   <path d="m10.813 41.987h-0.1905"/>
   <path d="m10.623 41.987-0.0952 0.0476"/>
   <path d="m10.527 42.035-0.0476 0.0477"/>
   <path d="m10.48 42.083-0.0953 0.1428"/>
   <path d="m10.384 42.225-0.0476 0.1905"/>
   <path d="m10.337 42.416v0.3809"/>
   <path d="m10.337 42.797 0.0476 0.0953"/>
   <path d="m10.384 42.892 0.0476 0.0476"/>
   <path d="m10.432 42.94 0.0953 0.0476"/>
   <path d="m10.527 42.987h0.1905"/>
   <path d="m10.718 42.987 0.0952-0.0476"/>
   <path d="m10.813 42.94 0.0476-0.0476"/>
   <path d="m10.861 42.892 0.0476-0.0953"/>
   <path d="m10.908 42.797v-0.2381"/>
   <path d="m10.908 42.559-0.0476-0.0952"/>
   <path d="m10.861 42.464-0.0476-0.0476"/>
   <path d="m10.813 42.416-0.0952-0.0476"/>
   <path d="m10.718 42.368h-0.1905"/>
   <path d="m10.527 42.368-0.0953 0.0476"/>
   <path d="m10.432 42.416-0.0476 0.0476"/>
   <path d="m10.384 42.464-0.0476 0.0952"/>
  </g>
  <text x="47.6750" y="23.9825" font-size="1.3333" opacity="0" stroke-opacity="0" text-anchor="middle" lengthAdjust="spacingAndGlyphs" textLength="3.2976">SW5</text>
  <g class="stroked-text">
   <desc>SW5</desc>
   <path d="m46.342 23.89 0.1428 0.0476"/>
   <path d="m46.484 23.937h0.2381"/>
   <path d="m46.723 23.937 0.0953-0.0476"/>
   <path d="m46.818 23.89 0.0476-0.0476"/>
   <path d="m46.866 23.842 0.0476-0.0953"/>
   <path d="m46.913 23.747v-0.0952"/>
   <path d="m46.913 23.652-0.0476-0.0952"/>
   <path d="m46.866 23.556-0.0476-0.0477"/>
   <path d="m46.818 23.509-0.0953-0.0476"/>
   <path d="m46.723 23.461-0.1905-0.0476"/>
   <path d="m46.532 23.414-0.0952-0.0476"/>
   <path d="m46.437 23.366-0.0476-0.0476"/>
   <path d="m46.389 23.318-0.0476-0.0953"/>
   <path d="m46.342 23.223v-0.0952"/>
   <path d="m46.342 23.128 0.0476-0.0952"/>
   <path d="m46.389 23.033 0.0476-0.0477"/>
   <path d="m46.437 22.985 0.0952-0.0476"/>
   <path d="m46.532 22.937h0.2381"/>
   <path d="m46.77 22.937 0.1429 0.0476"/>
   <path d="m47.246 22.937 0.2381 1"/>
   <path d="m47.484 23.937 0.1905-0.7143"/>
   <path d="m47.675 23.223 0.1905 0.7143"/>
   <path d="m47.866 23.937 0.2381-1"/>
   <path d="m48.961 22.937h-0.4762"/>
   <path d="m48.484 22.937-0.0476 0.4762"/>
   <path d="m48.437 23.414 0.0476-0.0476"/>
   <path d="m48.484 23.366 0.0953-0.0476"/>
   <path d="m48.58 23.318h0.2381"/>
   <path d="m48.818 23.318 0.0952 0.0476"/>
   <path d="m48.913 23.366 0.0476 0.0476"/>
   <path d="m48.961 23.414 0.0476 0.0952"/>
   <path d="m49.008 23.509v0.2381"/>
   <path d="m49.008 23.747-0.0476 0.0953"/>
   <path d="m48.961 23.842-0.0476 0.0476"/>
   <path d="m48.913 23.89-0.0952 0.0476"/>
   <path d="m48.818 23.937h-0.2381"/>
   <path d="m48.58 23.937-0.0953-0.0476"/>
   <path d="m48.484 23.89-0.0476-0.0476"/>
  </g>
  <text x="28.6250" y="43.0325" font-size="1.3333" opacity="0" stroke-opacity="0" text-anchor="middle" lengthAdjust="spacingAndGlyphs" textLength="3.2976">SW7</text>
  <g class="stroked-text">
   <desc>SW7</desc>
   <path d="m27.292 42.94 0.1428 0.0476"/>
   <path d="m27.434 42.987h0.2381"/>
   <path d="m27.673 42.987 0.0953-0.0476"/>
   <path d="m27.768 42.94 0.0476-0.0476"/>
   <path d="m27.816 42.892 0.0476-0.0953"/>
   <path d="m27.863 42.797v-0.0952"/>
   <path d="m27.863 42.702-0.0476-0.0952"/>
   <path d="m27.816 42.606-0.0476-0.0477"/>
   <path d="m27.768 42.559-0.0953-0.0476"/>
   <path d="m27.673 42.511-0.1905-0.0476"/>
   <path d="m27.482 42.464-0.0952-0.0476"/>
   <path d="m27.387 42.416-0.0476-0.0476"/>
   <path d="m27.339 42.368-0.0476-0.0953"/>
   <path d="m27.292 42.273v-0.0952"/>
   <path d="m27.292 42.178 0.0476-0.0952"/>
   <path d="m27.339 42.083 0.0476-0.0477"/>
   <path d="m27.387 42.035 0.0952-0.0476"/>
   <path d="m27.482 41.987h0.2381"/>
   <path d="m27.72 41.987 0.1429 0.0476"/>
   <path d="m28.196 41.987 0.2381 1"/>
   <path d="m28.434 42.987 0.1905-0.7143"/>
   <path d="m28.625 42.273 0.1905 0.7143"/>
   <path d="m28.816 42.987 0.2381-1"/>
   <path d="m29.339 41.987h0.6667"/>
   <path d="m30.006 41.987-0.4286 1"/>
  </g>
  <text x="47.6750" y="43.0325" font-size="1.3333" opacity="0" stroke-opacity="0" text-anchor="middle" lengthAdjust="spacingAndGlyphs" textLength="3.2976">SW8</text>
  <g class="stroked-text">
   <desc>SW8</desc>
   <path d="m46.342 42.94 0.1428 0.0476"/>
   <path d="m46.484 42.987h0.2381"/>
   <path d="m46.723 42.987 0.0953-0.0476"/>
   <path d="m46.818 42.94 0.0476-0.0476"/>
   <path d="m46.866 42.892 0.0476-0.0953"/>
   <path d="m46.913 42.797v-0.0952"/>
   <path d="m46.913 42.702-0.0476-0.0952"/>
   <path d="m46.866 42.606-0.0476-0.0477"/>
   <path d="m46.818 42.559-0.0953-0.0476"/>
   <path d="m46.723 42.511-0.1905-0.0476"/>
   <path d="m46.532 42.464-0.0952-0.0476"/>
   <path d="m46.437 42.416-0.0476-0.0476"/>
   <path d="m46.389 42.368-0.0476-0.0953"/>
   <path d="m46.342 42.273v-0.0952"/>
   <path d="m46.342 42.178 0.0476-0.0952"/>
   <path d="m46.389 42.083 0.0476-0.0477"/>
   <path d="m46.437 42.035 0.0952-0.0476"/>
   <path d="m46.532 41.987h0.2381"/>
   <path d="m46.77 41.987 0.1429 0.0476"/>
   <path d="m47.246 41.987 0.2381 1"/>
   <path d="m47.484 42.987 0.1905-0.7143"/>
   <path d="m47.675 42.273 0.1905 0.7143"/>
   <path d="m47.866 42.987 0.2381-1"/>
   <path d="m48.627 42.416-0.0953-0.0476"/>
   <path d="m48.532 42.368-0.0476-0.0476"/>
   <path d="m48.484 42.321-0.0476-0.0953"/>
   <path d="m48.437 42.225v-0.0476"/>
   <path d="m48.437 42.178 0.0476-0.0952"/>
   <path d="m48.484 42.083 0.0476-0.0477"/>
   <path d="m48.532 42.035 0.0953-0.0476"/>
   <path d="m48.627 41.987h0.1905"/>
   <path d="m48.818 41.987 0.0952 0.0476"/>
   <path d="m48.913 42.035 0.0476 0.0477"/>
   <path d="m48.961 42.083 0.0476 0.0952"/>
   <path d="m49.008 42.178v0.0476"/>
   <path d="m49.008 42.225-0.0476 0.0953"/>
   <path d="m48.961 42.321-0.0476 0.0476"/>
   <path d="m48.913 42.368-0.0952 0.0476"/>
   <path d="m48.818 42.416h-0.1905"/>
   <path d="m48.627 42.416-0.0953 0.0476"/>
   <path d="m48.532 42.464-0.0476 0.0476"/>
   <path d="m48.484 42.511-0.0476 0.0953"/>
   <path d="m48.437 42.606v0.1904"/>
   <path d="m48.437 42.797 0.0476 0.0953"/>
   <path d="m48.484 42.892 0.0476 0.0476"/>
   <path d="m48.532 42.94 0.0953 0.0476"/>
   <path d="m48.627 42.987h0.1905"/>
   <path d="m48.818 42.987 0.0952-0.0476"/>
   <path d="m48.913 42.94 0.0476-0.0476"/>
   <path d="m48.961 42.892 0.0476-0.0953"/>
   <path d="m49.008 42.797v-0.1904"/>
   <path d="m49.008 42.606-0.0476-0.0953"/>
   <path d="m48.961 42.511-0.0476-0.0476"/>
   <path d="m48.913 42.464-0.0952-0.0476"/>
  </g>
  <text x="9.5750" y="23.9825" font-size="1.3333" opacity="0" stroke-opacity="0" text-anchor="middle" lengthAdjust="spacingAndGlyphs" textLength="3.2976">SW3</text>
  <g class="stroked-text">
   <desc>SW3</desc>
   <path d="m8.2417 23.89 0.1428 0.0476"/>
   <path d="m8.3845 23.937h0.2381"/>
   <path d="m8.6226 23.937 0.0953-0.0476"/>
   <path d="m8.7179 23.89 0.0476-0.0476"/>
   <path d="m8.7655 23.842 0.0476-0.0953"/>
   <path d="m8.8131 23.747v-0.0952"/>
   <path d="m8.8131 23.652-0.0476-0.0952"/>
   <path d="m8.7655 23.556-0.0476-0.0477"/>
   <path d="m8.7179 23.509-0.0953-0.0476"/>
   <path d="m8.6226 23.461-0.1905-0.0476"/>
   <path d="m8.4321 23.414-0.0952-0.0476"/>
   <path d="m8.3369 23.366-0.0476-0.0476"/>
   <path d="m8.2893 23.318-0.0476-0.0953"/>
   <path d="m8.2417 23.223v-0.0952"/>
   <path d="m8.2417 23.128 0.0476-0.0952"/>
   <path d="m8.2893 23.033 0.0476-0.0477"/>
   <path d="m8.3369 22.985 0.0952-0.0476"/>
   <path d="m8.4321 22.937h0.2381"/>
   <path d="m8.6702 22.937 0.1429 0.0476"/>
   <path d="m9.1464 22.937 0.2381 1"/>
   <path d="m9.3845 23.937 0.1905-0.7143"/>
   <path d="m9.575 23.223 0.1905 0.7143"/>
   <path d="m9.7655 23.937 0.2381-1"/>
   <path d="m10.289 22.937h0.619"/>
   <path d="m10.908 22.937-0.3333 0.381"/>
   <path d="m10.575 23.318h0.1429"/>
   <path d="m10.718 23.318 0.0952 0.0476"/>
   <path d="m10.813 23.366 0.0476 0.0476"/>
   <path d="m10.861 23.414 0.0476 0.0952"/>
   <path d="m10.908 23.509v0.2381"/>
   <path d="m10.908 23.747-0.0476 0.0953"/>
   <path d="m10.861 23.842-0.0476 0.0476"/>
   <path d="m10.813 23.89-0.0952 0.0476"/>
   <path d="m10.718 23.937h-0.2858"/>
   <path d="m10.432 23.937-0.0952-0.0476"/>
   <path d="m10.337 23.89-0.0476-0.0476"/>
  </g>
  <text x="28.6250" y="23.9825" font-size="1.3333" opacity="0" stroke-opacity="0" text-anchor="middle" lengthAdjust="spacingAndGlyphs" textLength="3.2976">SW4</text>
  <g class="stroked-text">
   <desc>SW4</desc>
   <path d="m27.292 23.89 0.1428 0.0476"/>
   <path d="m27.434 23.937h0.2381"/>
   <path d="m27.673 23.937 0.0953-0.0476"/>
   <path d="m27.768 23.89 0.0476-0.0476"/>
   <path d="m27.816 23.842 0.0476-0.0953"/>
   <path d="m27.863 23.747v-0.0952"/>
   <path d="m27.863 23.652-0.0476-0.0952"/>
   <path d="m27.816 23.556-0.0476-0.0477"/>
   <path d="m27.768 23.509-0.0953-0.0476"/>
   <path d="m27.673 23.461-0.1905-0.0476"/>
   <path d="m27.482 23.414-0.0952-0.0476"/>
   <path d="m27.387 23.366-0.0476-0.0476"/>
   <path d="m27.339 23.318-0.0476-0.0953"/>
   <path d="m27.292 23.223v-0.0952"/>
   <path d="m27.292 23.128 0.0476-0.0952"/>
   <path d="m27.339 23.033 0.0476-0.0477"/>
   <path d="m27.387 22.985 0.0952-0.0476"/>
   <path d="m27.482 22.937h0.2381"/>
   <path d="m27.72 22.937 0.1429 0.0476"/>
   <path d="m28.196 22.937 0.2381 1"/>
   <path d="m28.434 23.937 0.1905-0.7143"/>
   <path d="m28.625 23.223 0.1905 0.7143"/>
   <path d="m28.816 23.937 0.2381-1"/>
   <path d="m29.863 23.271v0.6666"/>
   <path d="m29.625 22.89-0.2381 0.7143"/>
   <path d="m29.387 23.604h0.6191"/>
  </g>
 </g>
 <g fill="none" stroke="#8BE9FD" stroke-linecap="round" stroke-linejoin="round" stroke-width=".12">
  <path d="m40.575 2.475v14.2"/>
  <path d="m40.575 16.675h14.2"/>
  <path d="m54.775 2.475h-14.2"/>
  <path d="m54.775 16.675v-14.2"/>
  <path d="m2.475 2.475v14.2"/>
  <path d="m2.475 16.675h14.2"/>
  <path d="m16.675 2.475h-14.2"/>
  <path d="m16.675 16.675v-14.2"/>
  <path d="m2.475 43.432v14.2"/>
  <path d="m2.475 57.632h14.2"/>
  <path d="m16.675 43.432h-14.2"/>
  <path d="m16.675 57.632v-14.2"/>
  <path d="m40.575 24.382v14.2"/>
  <path d="m40.575 38.582h14.2"/>
  <path d="m54.775 24.382h-14.2"/>
  <path d="m54.775 38.582v-14.2"/>
  <path d="m21.525 43.432v14.2"/>
  <path d="m21.525 57.632h14.2"/>
  <path d="m35.725 43.432h-14.2"/>
  <path d="m35.725 57.632v-14.2"/>
  <path d="m40.575 43.432v14.2"/>
  <path d="m40.575 57.632h14.2"/>
  <path d="m54.775 43.432h-14.2"/>
  <path d="m54.775 57.632v-14.2"/>
  <path d="m2.475 24.382v14.2"/>
  <path d="m2.475 38.582h14.2"/>
  <path d="m16.675 24.382h-14.2"/>
  <path d="m16.675 38.582v-14.2"/>
  <path d="m21.525 24.382v14.2"/>
  <path d="m21.525 38.582h14.2"/>
  <path d="m35.725 24.382h-14.2"/>
  <path d="m35.725 38.582v-14.2"/>
 </g>
 <g fill="#8BE9FD">
  <circle cx="42.595" cy="9.575" r=".875"/>
  <circle cx="47.675" cy="9.575" r="2"/>
  <circle cx="52.755" cy="9.575" r=".875"/>
  <circle cx="43.865" cy="7.035" r=".75"/>
  <circle cx="50.215" cy="4.495" r=".75"/>
  <circle cx="4.495" cy="9.575" r=".875"/>
  <circle cx="9.575" cy="9.575" r="2"/>
  <circle cx="14.655" cy="9.575" r=".875"/>
  <circle cx="5.765" cy="7.035" r=".75"/>
  <circle cx="12.115" cy="4.495" r=".75"/>
  <circle cx="4.495" cy="50.532" r=".875"/>
  <circle cx="9.575" cy="50.532" r="2"/>
  <circle cx="14.655" cy="50.532" r=".875"/>
  <circle cx="5.765" cy="47.992" r=".75"/>
  <circle cx="12.115" cy="45.452" r=".75"/>
  <circle cx="42.595" cy="31.482" r=".875"/>
  <circle cx="47.675" cy="31.482" r="2"/>
  <circle cx="52.755" cy="31.482" r=".875"/>
  <circle cx="43.865" cy="28.942" r=".75"/>
  <circle cx="50.215" cy="26.402" r=".75"/>
  <circle cx="23.545" cy="50.532" r=".875"/>
  <circle cx="28.625" cy="50.532" r="2"/>
  <circle cx="33.705" cy="50.532" r=".875"/>
  <circle cx="24.815" cy="47.992" r=".75"/>
  <circle cx="31.165" cy="45.452" r=".75"/>
  <circle cx="42.595" cy="50.532" r=".875"/>
  <circle cx="47.675" cy="50.532" r="2"/>
  <circle cx="52.755" cy="50.532" r=".875"/>
  <circle cx="43.865" cy="47.992" r=".75"/>
  <circle cx="50.215" cy="45.452" r=".75"/>
  <circle cx="4.495" cy="31.482" r=".875"/>
  <circle cx="9.575" cy="31.482" r="2"/>
  <circle cx="14.655" cy="31.482" r=".875"/>
  <circle cx="5.765" cy="28.942" r=".75"/>
  <circle cx="12.115" cy="26.402" r=".75"/>
  <circle cx="23.545" cy="31.482" r=".875"/>
  <circle cx="28.625" cy="31.482" r="2"/>
  <circle cx="33.705" cy="31.482" r=".875"/>
  <circle cx="24.815" cy="28.942" r=".75"/>
  <circle cx="31.165" cy="26.402" r=".75"/>
 </g>
 <g fill="none" stroke="#BD93F9" stroke-linecap="round" stroke-linejoin="round" stroke-width=".15">
  <g transform="rotate(-90 16.56 54.66)">
   <text transform="scale(-1 1) translate(-33.12)" x="16.5600" y="55.1595" font-size="1.3333" opacity="0" stroke-opacity="0" text-anchor="middle" lengthAdjust="spacingAndGlyphs" textLength="2.2024">D6</text>
  </g>
  <g class="stroked-text">
   <desc>D6</desc>
   <path d="m17.015 53.921h-1"/>
   <path d="m16.015 53.921v0.2381"/>
   <path d="m16.015 54.16 0.0476 0.1429"/>
   <path d="m16.062 54.302 0.0953 0.0952"/>
   <path d="m16.158 54.398 0.0952 0.0476"/>
   <path d="m16.253 54.445 0.1905 0.0476"/>
   <path d="m16.443 54.493h0.1428"/>
   <path d="m16.586 54.493 0.1905-0.0476"/>
   <path d="m16.777 54.445 0.0953-0.0476"/>
   <path d="m16.872 54.398 0.0952-0.0952"/>
   <path d="m16.967 54.302 0.0476-0.1429"/>
   <path d="m17.015 54.16v-0.2381"/>
   <path d="m16.015 55.35v-0.1905"/>
   <path d="m16.015 55.16 0.0476-0.0952"/>
   <path d="m16.062 55.064 0.0477-0.0477"/>
   <path d="m16.11 55.017 0.1428-0.0952"/>
   <path d="m16.253 54.921 0.1905-0.0476"/>
   <path d="m16.443 54.874h0.3809"/>
   <path d="m16.824 54.874 0.0953 0.0476"/>
   <path d="m16.92 54.921 0.0476 0.0476"/>
   <path d="m16.967 54.969 0.0476 0.0953"/>
   <path d="m17.015 55.064v0.1904"/>
   <path d="m17.015 55.255-0.0476 0.0953"/>
   <path d="m16.967 55.35-0.0476 0.0476"/>
   <path d="m16.92 55.398-0.0953 0.0476"/>
   <path d="m16.824 55.445h-0.2381"/>
   <path d="m16.586 55.445-0.0952-0.0476"/>
   <path d="m16.491 55.398-0.0476-0.0476"/>
   <path d="m16.443 55.35-0.0476-0.0953"/>
   <path d="m16.396 55.255v-0.1904"/>
   <path d="m16.396 55.064 0.0476-0.0953"/>
   <path d="m16.443 54.969 0.0476-0.0476"/>
   <path d="m16.491 54.921 0.0952-0.0476"/>
  </g>
  <g transform="rotate(-90 54.66 35.61)">
   <text transform="scale(-1 1) translate(-109.32)" x="54.6600" y="36.1095" font-size="1.3333" opacity="0" stroke-opacity="0" text-anchor="middle" lengthAdjust="spacingAndGlyphs" textLength="2.2024">D5</text>
  </g>
  <g class="stroked-text">
   <desc>D5</desc>
   <path d="m55.115 34.871h-1"/>
   <path d="m54.115 34.871v0.2381"/>
   <path d="m54.115 35.11 0.0476 0.1429"/>
   <path d="m54.162 35.252 0.0953 0.0952"/>
   <path d="m54.258 35.348 0.0952 0.0476"/>
   <path d="m54.353 35.395 0.1905 0.0476"/>
   <path d="m54.543 35.443h0.1428"/>
   <path d="m54.686 35.443 0.1905-0.0476"/>
   <path d="m54.877 35.395 0.0953-0.0476"/>
   <path d="m54.972 35.348 0.0952-0.0952"/>
   <path d="m55.067 35.252 0.0476-0.1429"/>
   <path d="m55.115 35.11v-0.2381"/>
   <path d="m54.115 36.348v-0.4762"/>
   <path d="m54.115 35.871 0.4762-0.0476"/>
   <path d="m54.591 35.824-0.0476 0.0476"/>
   <path d="m54.543 35.871-0.0476 0.0952"/>
   <path d="m54.496 35.967v0.2381"/>
   <path d="m54.496 36.205 0.0476 0.0953"/>
   <path d="m54.543 36.3 0.0476 0.0476"/>
   <path d="m54.591 36.348 0.0952 0.0476"/>
   <path d="m54.686 36.395h0.2381"/>
   <path d="m54.924 36.395 0.0953-0.0476"/>
   <path d="m55.02 36.348 0.0476-0.0476"/>
   <path d="m55.067 36.3 0.0476-0.0953"/>
   <path d="m55.115 36.205v-0.2381"/>
   <path d="m55.115 35.967-0.0476-0.0952"/>
   <path d="m55.067 35.871-0.0476-0.0476"/>
  </g>
  <g transform="rotate(-90 35.61 35.61)">
   <text transform="scale(-1 1) translate(-71.22)" x="35.6100" y="36.1095" font-size="1.3333" opacity="0" stroke-opacity="0" text-anchor="middle" lengthAdjust="spacingAndGlyphs" textLength="2.2024">D4</text>
  </g>
  <g class="stroked-text">
   <desc>D4</desc>
   <path d="m36.065 34.871h-1"/>
   <path d="m35.065 34.871v0.2381"/>
   <path d="m35.065 35.11 0.0476 0.1429"/>
   <path d="m35.112 35.252 0.0953 0.0952"/>
   <path d="m35.208 35.348 0.0952 0.0476"/>
   <path d="m35.303 35.395 0.1905 0.0476"/>
   <path d="m35.493 35.443h0.1428"/>
   <path d="m35.636 35.443 0.1905-0.0476"/>
   <path d="m35.827 35.395 0.0953-0.0476"/>
   <path d="m35.922 35.348 0.0952-0.0952"/>
   <path d="m36.017 35.252 0.0476-0.1429"/>
   <path d="m36.065 35.11v-0.2381"/>
   <path d="m35.398 36.3h0.6666"/>
   <path d="m35.017 36.062 0.7143-0.2381"/>
   <path d="m35.732 35.824v0.619"/>
  </g>
  <g transform="rotate(-90 35.61 54.66)">
   <text transform="scale(-1 1) translate(-71.22)" x="35.6100" y="55.1595" font-size="1.3333" opacity="0" stroke-opacity="0" text-anchor="middle" lengthAdjust="spacingAndGlyphs" textLength="2.2024">D7</text>
  </g>
  <g class="stroked-text">
   <desc>D7</desc>
   <path d="m36.065 53.921h-1"/>
   <path d="m35.065 53.921v0.2381"/>
   <path d="m35.065 54.16 0.0476 0.1429"/>
   <path d="m35.112 54.302 0.0953 0.0952"/>
   <path d="m35.208 54.398 0.0952 0.0476"/>
   <path d="m35.303 54.445 0.1905 0.0476"/>
   <path d="m35.493 54.493h0.1428"/>
   <path d="m35.636 54.493 0.1905-0.0476"/>
   <path d="m35.827 54.445 0.0953-0.0476"/>
   <path d="m35.922 54.398 0.0952-0.0952"/>
   <path d="m36.017 54.302 0.0476-0.1429"/>
   <path d="m36.065 54.16v-0.2381"/>
   <path d="m35.065 54.826v0.6666"/>
   <path d="m35.065 55.493 1-0.4285"/>
  </g>
  <g transform="rotate(-90 54.66 13.702)">
   <text transform="scale(-1 1) translate(-109.32)" x="54.6600" y="14.2020" font-size="1.3333" opacity="0" stroke-opacity="0" text-anchor="middle" lengthAdjust="spacingAndGlyphs" textLength="2.2024">D2</text>
  </g>
  <g class="stroked-text">
   <desc>D2</desc>
   <path d="m55.115 12.964h-1"/>
   <path d="m54.115 12.964v0.2381"/>
   <path d="m54.115 13.202 0.0476 0.1429"/>
   <path d="m54.162 13.345 0.0953 0.0952"/>
   <path d="m54.258 13.44 0.0952 0.0476"/>
   <path d="m54.353 13.488 0.1905 0.0476"/>
   <path d="m54.543 13.535h0.1428"/>
   <path d="m54.686 13.535 0.1905-0.0476"/>
   <path d="m54.877 13.488 0.0953-0.0476"/>
   <path d="m54.972 13.44 0.0952-0.0952"/>
   <path d="m55.067 13.345 0.0476-0.1429"/>
   <path d="m55.115 13.202v-0.2381"/>
   <path d="m54.21 13.916-0.0477 0.0476"/>
   <path d="m54.162 13.964-0.0476 0.0952"/>
   <path d="m54.115 14.059v0.2381"/>
   <path d="m54.115 14.297 0.0476 0.0953"/>
   <path d="m54.162 14.392 0.0477 0.0476"/>
   <path d="m54.21 14.44 0.0952 0.0476"/>
   <path d="m54.305 14.488h0.0952"/>
   <path d="m54.4 14.488 0.1429-0.0476"/>
   <path d="m54.543 14.44 0.5714-0.5714"/>
   <path d="m55.115 13.869v0.619"/>
  </g>
  <g transform="rotate(-90 54.66 54.66)">
   <text transform="scale(-1 1) translate(-109.32)" x="54.6600" y="55.1595" font-size="1.3333" opacity="0" stroke-opacity="0" text-anchor="middle" lengthAdjust="spacingAndGlyphs" textLength="2.2024">D8</text>
  </g>
  <g class="stroked-text">
   <desc>D8</desc>
   <path d="m55.115 53.921h-1"/>
   <path d="m54.115 53.921v0.2381"/>
   <path d="m54.115 54.16 0.0476 0.1429"/>
   <path d="m54.162 54.302 0.0953 0.0952"/>
   <path d="m54.258 54.398 0.0952 0.0476"/>
   <path d="m54.353 54.445 0.1905 0.0476"/>
   <path d="m54.543 54.493h0.1428"/>
   <path d="m54.686 54.493 0.1905-0.0476"/>
   <path d="m54.877 54.445 0.0953-0.0476"/>
   <path d="m54.972 54.398 0.0952-0.0952"/>
   <path d="m55.067 54.302 0.0476-0.1429"/>
   <path d="m55.115 54.16v-0.2381"/>
   <path d="m54.543 55.064-0.0476-0.0953"/>
   <path d="m54.496 54.969-0.0476-0.0476"/>
   <path d="m54.448 54.921-0.0953-0.0476"/>
   <path d="m54.353 54.874h-0.0476"/>
   <path d="m54.305 54.874-0.0952 0.0476"/>
   <path d="m54.21 54.921-0.0477 0.0476"/>
   <path d="m54.162 54.969-0.0476 0.0953"/>
   <path d="m54.115 55.064v0.1904"/>
   <path d="m54.115 55.255 0.0476 0.0953"/>
   <path d="m54.162 55.35 0.0477 0.0476"/>
   <path d="m54.21 55.398 0.0952 0.0476"/>
   <path d="m54.305 55.445h0.0476"/>
   <path d="m54.353 55.445 0.0953-0.0476"/>
   <path d="m54.448 55.398 0.0476-0.0476"/>
   <path d="m54.496 55.35 0.0476-0.0953"/>
   <path d="m54.543 55.255v-0.1904"/>
   <path d="m54.543 55.064 0.0476-0.0953"/>
   <path d="m54.591 54.969 0.0476-0.0476"/>
   <path d="m54.639 54.921 0.0953-0.0476"/>
   <path d="m54.734 54.874h0.1904"/>
   <path d="m54.924 54.874 0.0953 0.0476"/>
   <path d="m55.02 54.921 0.0476 0.0476"/>
   <path d="m55.067 54.969 0.0476 0.0953"/>
   <path d="m55.115 55.064v0.1904"/>
   <path d="m55.115 55.255-0.0476 0.0953"/>
   <path d="m55.067 55.35-0.0476 0.0476"/>
   <path d="m55.02 55.398-0.0953 0.0476"/>
   <path d="m54.924 55.445h-0.1904"/>
   <path d="m54.734 55.445-0.0953-0.0476"/>
   <path d="m54.639 55.398-0.0476-0.0476"/>
   <path d="m54.591 55.35-0.0476-0.0953"/>
  </g>
  <g transform="rotate(-90 16.56 13.702)">
   <text transform="scale(-1 1) translate(-33.12)" x="16.5600" y="14.2020" font-size="1.3333" opacity="0" stroke-opacity="0" text-anchor="middle" lengthAdjust="spacingAndGlyphs" textLength="2.2024">D1</text>
  </g>
  <g class="stroked-text">
   <desc>D1</desc>
   <path d="m17.015 12.964h-1"/>
   <path d="m16.015 12.964v0.2381"/>
   <path d="m16.015 13.202 0.0476 0.1429"/>
   <path d="m16.062 13.345 0.0953 0.0952"/>
   <path d="m16.158 13.44 0.0952 0.0476"/>
   <path d="m16.253 13.488 0.1905 0.0476"/>
   <path d="m16.443 13.535h0.1428"/>
   <path d="m16.586 13.535 0.1905-0.0476"/>
   <path d="m16.777 13.488 0.0953-0.0476"/>
   <path d="m16.872 13.44 0.0952-0.0952"/>
   <path d="m16.967 13.345 0.0476-0.1429"/>
   <path d="m17.015 13.202v-0.2381"/>
   <path d="m17.015 14.488v-0.5714"/>
   <path d="m17.015 14.202h-1"/>
   <path d="m16.015 14.202 0.1429-0.0952"/>
   <path d="m16.158 14.107 0.0952-0.0953"/>
   <path d="m16.253 14.012 0.0476-0.0952"/>
  </g>
  <g transform="rotate(-90 16.56 35.61)">
   <text transform="scale(-1 1) translate(-33.12)" x="16.5600" y="36.1095" font-size="1.3333" opacity="0" stroke-opacity="0" text-anchor="middle" lengthAdjust="spacingAndGlyphs" textLength="2.2024">D3</text>
  </g>
  <g class="stroked-text">
   <desc>D3</desc>
   <path d="m17.015 34.871h-1"/>
   <path d="m16.015 34.871v0.2381"/>
   <path d="m16.015 35.11 0.0476 0.1429"/>
   <path d="m16.062 35.252 0.0953 0.0952"/>
   <path d="m16.158 35.348 0.0952 0.0476"/>
   <path d="m16.253 35.395 0.1905 0.0476"/>
   <path d="m16.443 35.443h0.1428"/>
   <path d="m16.586 35.443 0.1905-0.0476"/>
   <path d="m16.777 35.395 0.0953-0.0476"/>
   <path d="m16.872 35.348 0.0952-0.0952"/>
   <path d="m16.967 35.252 0.0476-0.1429"/>
   <path d="m17.015 35.11v-0.2381"/>
   <path d="m16.015 35.776v0.619"/>
   <path d="m16.015 36.395 0.381-0.3333"/>
   <path d="m16.396 36.062v0.1428"/>
   <path d="m16.396 36.205 0.0476 0.0953"/>
   <path d="m16.443 36.3 0.0476 0.0476"/>
   <path d="m16.491 36.348 0.0952 0.0476"/>
   <path d="m16.586 36.395h0.2381"/>
   <path d="m16.824 36.395 0.0953-0.0476"/>
   <path d="m16.92 36.348 0.0476-0.0476"/>
   <path d="m16.967 36.3 0.0476-0.0953"/>
   <path d="m17.015 36.205v-0.2857"/>
   <path d="m17.015 35.919-0.0476-0.0952"/>
   <path d="m16.967 35.824-0.0476-0.0476"/>
  </g>
 </g>
 <g fill="none" stroke="#BD93F9" stroke-linecap="round" stroke-linejoin="round" stroke-width=".12">
  <path d="m13.655 52.882v3.86"/>
  <path d="m13.655 56.742h2"/>
  <path d="m15.655 52.882v3.86"/>
  <path d="m51.755 33.832v3.86"/>
  <path d="m51.755 37.692h2"/>
  <path d="m53.755 33.832v3.86"/>
  <path d="m32.705 33.832v3.86"/>
  <path d="m32.705 37.692h2"/>
  <path d="m34.705 33.832v3.86"/>
  <path d="m32.705 52.882v3.86"/>
  <path d="m32.705 56.742h2"/>
  <path d="m34.705 52.882v3.86"/>
  <path d="m51.755 11.925v3.86"/>
  <path d="m51.755 15.785h2"/>
  <path d="m53.755 11.925v3.86"/>
  <path d="m51.755 52.882v3.86"/>
  <path d="m51.755 56.742h2"/>
  <path d="m53.755 52.882v3.86"/>
  <path d="m13.655 11.925v3.86"/>
  <path d="m13.655 15.785h2"/>
  <path d="m15.655 11.925v3.86"/>
  <path d="m13.655 33.832v3.86"/>
  <path d="m13.655 37.692h2"/>
  <path d="m15.655 33.832v3.86"/>
 </g>
 <g>
  <g fill="#BD93F9">
   <circle cx="42.595" cy="9.575" r=".875"/>
   <circle cx="47.675" cy="9.575" r="2"/>
   <circle cx="52.755" cy="9.575" r=".875"/>
   <circle cx="43.865" cy="7.035" r=".75"/>
   <circle cx="50.215" cy="4.495" r=".75"/>
   <circle cx="4.495" cy="9.575" r=".875"/>
   <circle cx="9.575" cy="9.575" r="2"/>
   <circle cx="14.655" cy="9.575" r=".875"/>
   <circle cx="5.765" cy="7.035" r=".75"/>
   <circle cx="12.115" cy="4.495" r=".75"/>
   <circle cx="4.495" cy="50.532" r=".875"/>
   <circle cx="9.575" cy="50.532" r="2"/>
   <circle cx="14.655" cy="50.532" r=".875"/>
   <circle cx="5.765" cy="47.992" r=".75"/>
   <circle cx="12.115" cy="45.452" r=".75"/>
   <circle cx="42.595" cy="31.482" r=".875"/>
   <circle cx="47.675" cy="31.482" r="2"/>
   <circle cx="52.755" cy="31.482" r=".875"/>
   <circle cx="43.865" cy="28.942" r=".75"/>
   <circle cx="50.215" cy="26.402" r=".75"/>
   <circle cx="23.545" cy="50.532" r=".875"/>
   <circle cx="28.625" cy="50.532" r="2"/>
   <circle cx="33.705" cy="50.532" r=".875"/>
   <circle cx="24.815" cy="47.992" r=".75"/>
   <circle cx="31.165" cy="45.452" r=".75"/>
   <circle cx="42.595" cy="50.532" r=".875"/>
   <circle cx="47.675" cy="50.532" r="2"/>
   <circle cx="52.755" cy="50.532" r=".875"/>
   <circle cx="43.865" cy="47.992" r=".75"/>
   <circle cx="50.215" cy="45.452" r=".75"/>
   <circle cx="4.495" cy="31.482" r=".875"/>
   <circle cx="9.575" cy="31.482" r="2"/>
   <circle cx="14.655" cy="31.482" r=".875"/>
   <circle cx="5.765" cy="28.942" r=".75"/>
   <circle cx="12.115" cy="26.402" r=".75"/>
   <circle cx="23.545" cy="31.482" r=".875"/>
   <circle cx="28.625" cy="31.482" r="2"/>
   <circle cx="33.705" cy="31.482" r=".875"/>
   <circle cx="24.815" cy="28.942" r=".75"/>
   <circle cx="31.165" cy="26.402" r=".75"/>
  </g>
  <g>
   <circle cx="42.595" cy="9.575" r=".875"/>
   <circle cx="47.675" cy="9.575" r="2"/>
   <circle cx="52.755" cy="9.575" r=".875"/>
   <circle cx="43.865" cy="7.035" r=".75"/>
   <circle cx="50.215" cy="4.495" r=".75"/>
   <circle cx="4.495" cy="9.575" r=".875"/>
   <circle cx="9.575" cy="9.575" r="2"/>
   <circle cx="14.655" cy="9.575" r=".875"/>
   <circle cx="5.765" cy="7.035" r=".75"/>
   <circle cx="12.115" cy="4.495" r=".75"/>
   <circle cx="4.495" cy="50.532" r=".875"/>
   <circle cx="9.575" cy="50.532" r="2"/>
   <circle cx="14.655" cy="50.532" r=".875"/>
   <circle cx="5.765" cy="47.992" r=".75"/>
   <circle cx="12.115" cy="45.452" r=".75"/>
   <circle cx="42.595" cy="31.482" r=".875"/>
   <circle cx="47.675" cy="31.482" r="2"/>
   <circle cx="52.755" cy="31.482" r=".875"/>
   <circle cx="43.865" cy="28.942" r=".75"/>
   <circle cx="50.215" cy="26.402" r=".75"/>
   <circle cx="23.545" cy="50.532" r=".875"/>
   <circle cx="28.625" cy="50.532" r="2"/>
   <circle cx="33.705" cy="50.532" r=".875"/>
   <circle cx="24.815" cy="47.992" r=".75"/>
   <circle cx="31.165" cy="45.452" r=".75"/>
   <circle cx="42.595" cy="50.532" r=".875"/>
   <circle cx="47.675" cy="50.532" r="2"/>
   <circle cx="52.755" cy="50.532" r=".875"/>
   <circle cx="43.865" cy="47.992" r=".75"/>
   <circle cx="50.215" cy="45.452" r=".75"/>
   <circle cx="4.495" cy="31.482" r=".875"/>
   <circle cx="9.575" cy="31.482" r="2"/>
   <circle cx="14.655" cy="31.482" r=".875"/>
   <circle cx="5.765" cy="28.942" r=".75"/>
   <circle cx="12.115" cy="26.402" r=".75"/>
   <circle cx="23.545" cy="31.482" r=".875"/>
   <circle cx="28.625" cy="31.482" r="2"/>
   <circle cx="33.705" cy="31.482" r=".875"/>
   <circle cx="24.815" cy="28.942" r=".75"/>
   <circle cx="31.165" cy="26.402" r=".75"/>
  </g>
  <g fill="#f55">
   <circle cx="43.865" cy="7.035" r="1.25"/>
   <circle cx="50.215" cy="4.495" r="1.25"/>
   <circle cx="5.765" cy="7.035" r="1.25"/>
   <circle cx="12.115" cy="4.495" r="1.25"/>
   <circle cx="5.765" cy="47.992" r="1.25"/>
   <circle cx="12.115" cy="45.452" r="1.25"/>
   <circle cx="43.865" cy="28.942" r="1.25"/>
   <circle cx="50.215" cy="26.402" r="1.25"/>
   <circle cx="24.815" cy="47.992" r="1.25"/>
   <circle cx="31.165" cy="45.452" r="1.25"/>
   <circle cx="43.865" cy="47.992" r="1.25"/>
   <circle cx="50.215" cy="45.452" r="1.25"/>
   <circle cx="5.765" cy="28.942" r="1.25"/>
   <circle cx="12.115" cy="26.402" r="1.25"/>
   <circle cx="24.815" cy="28.942" r="1.25"/>
   <circle cx="31.165" cy="26.402" r="1.25"/>
  </g>
  <g fill="#fff">
   <circle cx="42.595" cy="9.575" r=".875"/>
   <circle cx="47.675" cy="9.575" r="2"/>
   <circle cx="52.755" cy="9.575" r=".875"/>
   <circle cx="43.865" cy="7.035" r=".75"/>
   <circle cx="50.215" cy="4.495" r=".75"/>
   <circle cx="4.495" cy="9.575" r=".875"/>
   <circle cx="9.575" cy="9.575" r="2"/>
   <circle cx="14.655" cy="9.575" r=".875"/>
   <circle cx="5.765" cy="7.035" r=".75"/>
   <circle cx="12.115" cy="4.495" r=".75"/>
   <circle cx="4.495" cy="50.532" r=".875"/>
   <circle cx="9.575" cy="50.532" r="2"/>
   <circle cx="14.655" cy="50.532" r=".875"/>
   <circle cx="5.765" cy="47.992" r=".75"/>
   <circle cx="12.115" cy="45.452" r=".75"/>
   <circle cx="42.595" cy="31.482" r=".875"/>
   <circle cx="47.675" cy="31.482" r="2"/>
   <circle cx="52.755" cy="31.482" r=".875"/>
   <circle cx="43.865" cy="28.942" r=".75"/>
   <circle cx="50.215" cy="26.402" r=".75"/>
   <circle cx="23.545" cy="50.532" r=".875"/>
   <circle cx="28.625" cy="50.532" r="2"/>
   <circle cx="33.705" cy="50.532" r=".875"/>
   <circle cx="24.815" cy="47.992" r=".75"/>
   <circle cx="31.165" cy="45.452" r=".75"/>
   <circle cx="42.595" cy="50.532" r=".875"/>
   <circle cx="47.675" cy="50.532" r="2"/>
   <circle cx="52.755" cy="50.532" r=".875"/>
   <circle cx="43.865" cy="47.992" r=".75"/>
   <circle cx="50.215" cy="45.452" r=".75"/>
   <circle cx="4.495" cy="31.482" r=".875"/>
   <circle cx="9.575" cy="31.482" r="2"/>
   <circle cx="14.655" cy="31.482" r=".875"/>
   <circle cx="5.765" cy="28.942" r=".75"/>
   <circle cx="12.115" cy="26.402" r=".75"/>
   <circle cx="23.545" cy="31.482" r=".875"/>
   <circle cx="28.625" cy="31.482" r="2"/>
   <circle cx="33.705" cy="31.482" r=".875"/>
   <circle cx="24.815" cy="28.942" r=".75"/>
   <circle cx="31.165" cy="26.402" r=".75"/>
  </g>
  <g fill="#50FA7B">
   <circle cx="43.865" cy="7.035" r="1.25"/>
   <circle cx="50.215" cy="4.495" r="1.25"/>
   <circle cx="5.765" cy="7.035" r="1.25"/>
   <circle cx="12.115" cy="4.495" r="1.25"/>
   <circle cx="5.765" cy="47.992" r="1.25"/>
   <circle cx="12.115" cy="45.452" r="1.25"/>
   <circle cx="43.865" cy="28.942" r="1.25"/>
   <circle cx="50.215" cy="26.402" r="1.25"/>
   <circle cx="24.815" cy="47.992" r="1.25"/>
   <circle cx="31.165" cy="45.452" r="1.25"/>
   <circle cx="43.865" cy="47.992" r="1.25"/>
   <circle cx="50.215" cy="45.452" r="1.25"/>
   <circle cx="5.765" cy="28.942" r="1.25"/>
   <circle cx="12.115" cy="26.402" r="1.25"/>
   <circle cx="24.815" cy="28.942" r="1.25"/>
   <circle cx="31.165" cy="26.402" r="1.25"/>
   <g fill="#50FA7B" fill-rule="evenodd">
    <path d="m14.355 56.482-0.0957-0.019-0.0811-0.0542-0.0542-0.0811-0.019-0.0957v-0.6l0.019-0.0957 0.0542-0.0811 0.0811-0.0542 0.0957-0.019h0.6l0.0957 0.019 0.0811 0.0542 0.0542 0.0811 0.019 0.0957v0.6l-0.019 0.0957-0.0542 0.0811-0.0811 0.0542-0.0957 0.019z"/>
    <path d="m14.355 53.682-0.0957-0.019-0.0811-0.0542-0.0542-0.0811-0.019-0.0957v-0.6l0.019-0.0957 0.0542-0.0811 0.0811-0.0542 0.0957-0.019h0.6l0.0957 0.019 0.0811 0.0542 0.0542 0.0811 0.019 0.0957v0.6l-0.019 0.0957-0.0542 0.0811-0.0811 0.0542-0.0957 0.019z"/>
    <path d="m52.455 37.432-0.0957-0.019-0.0811-0.0542-0.0542-0.0811-0.019-0.0957v-0.6l0.019-0.0957 0.0542-0.0811 0.0811-0.0542 0.0957-0.019h0.6l0.0957 0.019 0.0811 0.0542 0.0542 0.0811 0.019 0.0957v0.6l-0.019 0.0957-0.0542 0.0811-0.0811 0.0542-0.0957 0.019z"/>
    <path d="m52.455 34.632-0.0957-0.019-0.0811-0.0542-0.0542-0.0811-0.019-0.0957v-0.6l0.019-0.0957 0.0542-0.0811 0.0811-0.0542 0.0957-0.019h0.6l0.0957 0.019 0.0811 0.0542 0.0542 0.0811 0.019 0.0957v0.6l-0.019 0.0957-0.0542 0.0811-0.0811 0.0542-0.0957 0.019z"/>
    <path d="m33.405 37.432-0.0957-0.019-0.0811-0.0542-0.0542-0.0811-0.019-0.0957v-0.6l0.019-0.0957 0.0542-0.0811 0.0811-0.0542 0.0957-0.019h0.6l0.0957 0.019 0.0811 0.0542 0.0542 0.0811 0.019 0.0957v0.6l-0.019 0.0957-0.0542 0.0811-0.0811 0.0542-0.0957 0.019z"/>
    <path d="m33.405 34.632-0.0957-0.019-0.0811-0.0542-0.0542-0.0811-0.019-0.0957v-0.6l0.019-0.0957 0.0542-0.0811 0.0811-0.0542 0.0957-0.019h0.6l0.0957 0.019 0.0811 0.0542 0.0542 0.0811 0.019 0.0957v0.6l-0.019 0.0957-0.0542 0.0811-0.0811 0.0542-0.0957 0.019z"/>
    <path d="m33.405 56.482-0.0957-0.019-0.0811-0.0542-0.0542-0.0811-0.019-0.0957v-0.6l0.019-0.0957 0.0542-0.0811 0.0811-0.0542 0.0957-0.019h0.6l0.0957 0.019 0.0811 0.0542 0.0542 0.0811 0.019 0.0957v0.6l-0.019 0.0957-0.0542 0.0811-0.0811 0.0542-0.0957 0.019z"/>
    <path d="m33.405 53.682-0.0957-0.019-0.0811-0.0542-0.0542-0.0811-0.019-0.0957v-0.6l0.019-0.0957 0.0542-0.0811 0.0811-0.0542 0.0957-0.019h0.6l0.0957 0.019 0.0811 0.0542 0.0542 0.0811 0.019 0.0957v0.6l-0.019 0.0957-0.0542 0.0811-0.0811 0.0542-0.0957 0.019z"/>
    <path d="m52.455 15.525-0.0957-0.019-0.0811-0.0542-0.0542-0.0811-0.019-0.0957v-0.6l0.019-0.0957 0.0542-0.0811 0.0811-0.0542 0.0957-0.019h0.6l0.0957 0.019 0.0811 0.0542 0.0542 0.0811 0.019 0.0957v0.6l-0.019 0.0957-0.0542 0.0811-0.0811 0.0542-0.0957 0.019z"/>
    <path d="m52.455 12.725-0.0957-0.019-0.0811-0.0542-0.0542-0.0811-0.019-0.0957v-0.6l0.019-0.0957 0.0542-0.0811 0.0811-0.0542 0.0957-0.019h0.6l0.0957 0.019 0.0811 0.0542 0.0542 0.0811 0.019 0.0957v0.6l-0.019 0.0957-0.0542 0.0811-0.0811 0.0542-0.0957 0.019z"/>
    <path d="m52.455 56.482-0.0957-0.019-0.0811-0.0542-0.0542-0.0811-0.019-0.0957v-0.6l0.019-0.0957 0.0542-0.0811 0.0811-0.0542 0.0957-0.019h0.6l0.0957 0.019 0.0811 0.0542 0.0542 0.0811 0.019 0.0957v0.6l-0.019 0.0957-0.0542 0.0811-0.0811 0.0542-0.0957 0.019z"/>
    <path d="m52.455 53.682-0.0957-0.019-0.0811-0.0542-0.0542-0.0811-0.019-0.0957v-0.6l0.019-0.0957 0.0542-0.0811 0.0811-0.0542 0.0957-0.019h0.6l0.0957 0.019 0.0811 0.0542 0.0542 0.0811 0.019 0.0957v0.6l-0.019 0.0957-0.0542 0.0811-0.0811 0.0542-0.0957 0.019z"/>
    <path d="m14.355 15.525-0.0957-0.019-0.0811-0.0542-0.0542-0.0811-0.019-0.0957v-0.6l0.019-0.0957 0.0542-0.0811 0.0811-0.0542 0.0957-0.019h0.6l0.0957 0.019 0.0811 0.0542 0.0542 0.0811 0.019 0.0957v0.6l-0.019 0.0957-0.0542 0.0811-0.0811 0.0542-0.0957 0.019z"/>
    <path d="m14.355 12.725-0.0957-0.019-0.0811-0.0542-0.0542-0.0811-0.019-0.0957v-0.6l0.019-0.0957 0.0542-0.0811 0.0811-0.0542 0.0957-0.019h0.6l0.0957 0.019 0.0811 0.0542 0.0542 0.0811 0.019 0.0957v0.6l-0.019 0.0957-0.0542 0.0811-0.0811 0.0542-0.0957 0.019z"/>
    <path d="m14.355 37.432-0.0957-0.019-0.0811-0.0542-0.0542-0.0811-0.019-0.0957v-0.6l0.019-0.0957 0.0542-0.0811 0.0811-0.0542 0.0957-0.019h0.6l0.0957 0.019 0.0811 0.0542 0.0542 0.0811 0.019 0.0957v0.6l-0.019 0.0957-0.0542 0.0811-0.0811 0.0542-0.0957 0.019z"/>
    <path d="m14.355 34.632-0.0957-0.019-0.0811-0.0542-0.0542-0.0811-0.019-0.0957v-0.6l0.019-0.0957 0.0542-0.0811 0.0811-0.0542 0.0957-0.019h0.6l0.0957 0.019 0.0811 0.0542 0.0542 0.0811 0.019 0.0957v0.6l-0.019 0.0957-0.0542 0.0811-0.0811 0.0542-0.0957 0.019z"/>
   </g>
  </g>
 </g>
 <g fill="none" stroke="#50FA7B" stroke-linecap="round" stroke-linejoin="round" stroke-width=".2">
  <path d="m12.115 9.635 2.54 2.54"/>
  <path d="m12.115 4.495v5.14"/>
  <path d="m50.215 9.635 2.54 2.54"/>
  <path d="m50.215 4.495v5.14"/>
  <path d="m12.115 26.402v5.14"/>
  <path d="m12.115 31.542 2.54 2.54"/>
  <path d="m31.165 31.542 2.54 2.54"/>
  <path d="m31.165 26.402v5.14"/>
  <path d="m50.215 26.402v5.14"/>
  <path d="m50.215 31.542 2.54 2.54"/>
  <path d="m12.115 50.592 2.54 2.54"/>
  <path d="m12.115 45.452v5.14"/>
  <path d="m31.165 45.452v5.14"/>
  <path d="m31.165 50.592 2.54 2.54"/>
  <path d="m50.215 50.592 2.54 2.54"/>
  <path d="m50.215 45.452v5.14"/>
  <path d="m14.655 36.882h19.05"/>
  <path d="m14.655 55.932h19.05"/>
  <path d="m33.705 55.932h19.05"/>
  <path d="m33.705 36.882h19.05"/>
 </g>
 <g fill="#fff">
  <circle cx="42.595" cy="9.575" r=".875"/>
  <circle cx="47.675" cy="9.575" r="2"/>
  <circle cx="52.755" cy="9.575" r=".875"/>
  <circle cx="43.865" cy="7.035" r=".75"/>
  <circle cx="50.215" cy="4.495" r=".75"/>
  <circle cx="4.495" cy="9.575" r=".875"/>
  <circle cx="9.575" cy="9.575" r="2"/>
  <circle cx="14.655" cy="9.575" r=".875"/>
  <circle cx="5.765" cy="7.035" r=".75"/>
  <circle cx="12.115" cy="4.495" r=".75"/>
  <circle cx="4.495" cy="50.532" r=".875"/>
  <circle cx="9.575" cy="50.532" r="2"/>
  <circle cx="14.655" cy="50.532" r=".875"/>
  <circle cx="5.765" cy="47.992" r=".75"/>
  <circle cx="12.115" cy="45.452" r=".75"/>
  <circle cx="42.595" cy="31.482" r=".875"/>
  <circle cx="47.675" cy="31.482" r="2"/>
  <circle cx="52.755" cy="31.482" r=".875"/>
  <circle cx="43.865" cy="28.942" r=".75"/>
  <circle cx="50.215" cy="26.402" r=".75"/>
  <circle cx="23.545" cy="50.532" r=".875"/>
  <circle cx="28.625" cy="50.532" r="2"/>
  <circle cx="33.705" cy="50.532" r=".875"/>
  <circle cx="24.815" cy="47.992" r=".75"/>
  <circle cx="31.165" cy="45.452" r=".75"/>
  <circle cx="42.595" cy="50.532" r=".875"/>
  <circle cx="47.675" cy="50.532" r="2"/>
  <circle cx="52.755" cy="50.532" r=".875"/>
  <circle cx="43.865" cy="47.992" r=".75"/>
  <circle cx="50.215" cy="45.452" r=".75"/>
  <circle cx="4.495" cy="31.482" r=".875"/>
  <circle cx="9.575" cy="31.482" r="2"/>
  <circle cx="14.655" cy="31.482" r=".875"/>
  <circle cx="5.765" cy="28.942" r=".75"/>
  <circle cx="12.115" cy="26.402" r=".75"/>
  <circle cx="23.545" cy="31.482" r=".875"/>
  <circle cx="28.625" cy="31.482" r="2"/>
  <circle cx="33.705" cy="31.482" r=".875"/>
  <circle cx="24.815" cy="28.942" r=".75"/>
  <circle cx="31.165" cy="26.402" r=".75"/>
 </g>
</svg>
