<?xml version="1.0" encoding="UTF-8"?>
<!DOCTYPE svg  PUBLIC '-//W3C//DTD SVG 1.1//EN'  'http://www.w3.org/Graphics/SVG/1.1/DTD/svg11.dtd'>
<svg width="61.443mm" height="19.126mm" version="1.1" viewBox="0 0 61.443 19.126" xmlns="http://www.w3.org/2000/svg">
 <title>SVG Image created as nano-render.svg date 2026/07/14 10:47:14</title>
 <desc>Image generated by PCBNEW</desc>
 <rect width="61.443mm" height="19.126mm" fill="#282A36"/>
 <g fill="#f55">
  <circle cx="29.028" cy="7.035" r="1.25"/>
  <circle cx="35.378" cy="4.495" r="1.25"/>
  <circle cx="48.078" cy="7.035" r="1.25"/>
  <circle cx="54.428" cy="4.495" r="1.25"/>
  <path d="m0.525 8.075v-2h2v2z" fill="#f55" fill-rule="evenodd"/>
  <circle cx="1.525" cy="12.075" r="1"/>
  <circle cx="1.525" cy="9.575" r="1"/>
  <path d="m7.425 4.975v-2h3.2v2z" fill="#f55" fill-rule="evenodd"/>
  <path d="m7.425 16.175v-2h3.2v2z" fill="#f55" fill-rule="evenodd"/>
  <circle cx="16.025" cy="12.075" r="1"/>
  <circle cx="16.025" cy="7.075" r="1"/>
 </g>
 <g fill="#50FA7B">
  <circle cx="29.028" cy="7.035" r="1.25"/>
  <circle cx="35.378" cy="4.495" r="1.25"/>
  <circle cx="48.078" cy="7.035" r="1.25"/>
  <circle cx="54.428" cy="4.495" r="1.25"/>
  <path d="m0.525 8.075v-2h2v2z" fill="#50FA7B" fill-rule="evenodd"/>
  <circle cx="1.525" cy="12.075" r="1"/>
  <circle cx="1.525" cy="9.575" r="1"/>
  <path d="m7.425 4.975v-2h3.2v2z" fill="#50FA7B" fill-rule="evenodd"/>
  <path d="m7.425 16.175v-2h3.2v2z" fill="#50FA7B" fill-rule="evenodd"/>
  <circle cx="16.025" cy="12.075" r="1"/>
  <circle cx="16.025" cy="7.075" r="1"/>
  <g fill="#50FA7B" fill-rule="evenodd">
   <path d="m37.618 15.525-0.0957-0.019-0.0811-0.0542-0.0542-0.0811-0.019-0.0957v-0.6l0.019-0.0957 0.0542-0.0811 0.0811-0.0542 0.0957-0.019h0.6l0.0957 0.019 0.0811 0.0542 0.0542 0.0811 0.019 0.0957v0.6l-0.019 0.0957-0.0542 0.0811-0.0811 0.0542-0.0957 0.019z"/>
   <path d="m37.618 12.725-0.0957-0.019-0.0811-0.0542-0.0542-0.0811-0.019-0.0957v-0.6l0.019-0.0957 0.0542-0.0811 0.0811-0.0542 0.0957-0.019h0.6l0.0957 0.019 0.0811 0.0542 0.0542 0.0811 0.019 0.0957v0.6l-0.019 0.0957-0.0542 0.0811-0.0811 0.0542-0.0957 0.019z"/>
   <path d="m6.305 13.025-0.0957-0.019-0.0811-0.0542-0.0542-0.0811-0.019-0.0957v-0.6l0.019-0.0957 0.0542-0.0811 0.0811-0.0542 0.0957-0.019h0.6l0.0957 0.019 0.0811 0.0542 0.0542 0.0811 0.019 0.0957v0.6l-0.019 0.0957-0.0542 0.0811-0.0811 0.0542-0.0957 0.019z"/>
   <path d="m6.305 10.225-0.0957-0.019-0.0811-0.0542-0.0542-0.0811-0.019-0.0957v-0.6l0.019-0.0957 0.0542-0.0811 0.0811-0.0542 0.0957-0.019h0.6l0.0957 0.019 0.0811 0.0542 0.0542 0.0811 0.019 0.0957v0.6l-0.019 0.0957-0.0542 0.0811-0.0811 0.0542-0.0957 0.019z"/>
   <path d="m56.668 15.525-0.0957-0.019-0.0811-0.0542-0.0542-0.0811-0.019-0.0957v-0.6l0.019-0.0957 0.0542-0.0811 0.0811-0.0542 0.0957-0.019h0.6l0.0957 0.019 0.0811 0.0542 0.0542 0.0811 0.019 0.0957v0.6l-0.019 0.0957-0.0542 0.0811-0.0811 0.0542-0.0957 0.019z"/>
   <path d="m56.668 12.725-0.0957-0.019-0.0811-0.0542-0.0542-0.0811-0.019-0.0957v-0.6l0.019-0.0957 0.0542-0.0811 0.0811-0.0542 0.0957-0.019h0.6l0.0957 0.019 0.0811 0.0542 0.0542 0.0811 0.019 0.0957v0.6l-0.019 0.0957-0.0542 0.0811-0.0811 0.0542-0.0957 0.019z"/>
  </g>
 </g>
 <g fill="none" stroke-linecap="round" stroke-linejoin="round">
  <g stroke="#50FA7B" stroke-width=".2">
   <path d="m9.205 7.075-2.6 2.6"/>
   <path d="m16.025 7.075h-6.82"/>
   <path d="m35.378 4.495v5.14"/>
   <path d="m35.378 9.635 2.54 2.54"/>
   <path d="m54.428 9.635 2.54 2.54"/>
   <path d="m54.428 4.495v5.14"/>
   <path d="m37.918 14.975h19.05"/>
  </g>
  <g stroke="#8BE9FD" stroke-width=".15">
   <text x="32.8375" y="2.0750" font-size="1.3333" opacity="0" stroke-opacity="0" text-anchor="middle" lengthAdjust="spacingAndGlyphs" textLength="3.2976">SW2</text>
   <g class="stroked-text">
    <desc>SW2</desc>
    <path d="m31.504 1.9822 0.1428 0.0476"/>
    <path d="m31.647 2.0298h0.2381"/>
    <path d="m31.885 2.0298 0.0953-0.0476"/>
    <path d="m31.98 1.9822 0.0476-0.0476"/>
    <path d="m32.028 1.9346 0.0476-0.0953"/>
    <path d="m32.076 1.8393v-0.0952"/>
    <path d="m32.076 1.7441-0.0476-0.0952"/>
    <path d="m32.028 1.6489-0.0476-0.0477"/>
    <path d="m31.98 1.6012-0.0953-0.0476"/>
    <path d="m31.885 1.5536-0.1905-0.0476"/>
    <path d="m31.695 1.506-0.0952-0.0476"/>
    <path d="m31.599 1.4584-0.0476-0.0476"/>
    <path d="m31.552 1.4108-0.0476-0.0953"/>
    <path d="m31.504 1.3155v-0.0952"/>
    <path d="m31.504 1.2203 0.0476-0.0952"/>
    <path d="m31.552 1.1251 0.0476-0.0477"/>
    <path d="m31.599 1.0774 0.0952-0.0476"/>
    <path d="m31.695 1.0298h0.2381"/>
    <path d="m31.933 1.0298 0.1429 0.0476"/>
    <path d="m32.409 1.0298 0.2381 1"/>
    <path d="m32.647 2.0298 0.1905-0.7143"/>
    <path d="m32.838 1.3155 0.1905 0.7143"/>
    <path d="m33.028 2.0298 0.2381-1"/>
    <path d="m33.599 1.1251 0.0476-0.0477"/>
    <path d="m33.647 1.0774 0.0953-0.0476"/>
    <path d="m33.742 1.0298h0.2381"/>
    <path d="m33.98 1.0298 0.0952 0.0476"/>
    <path d="m34.076 1.0774 0.0476 0.0477"/>
    <path d="m34.123 1.1251 0.0476 0.0952"/>
    <path d="m34.171 1.2203v0.0952"/>
    <path d="m34.171 1.3155-0.0476 0.1429"/>
    <path d="m34.123 1.4584-0.5714 0.5714"/>
    <path d="m33.552 2.0298h0.619"/>
   </g>
   <text x="51.8875" y="2.0750" font-size="1.3333" opacity="0" stroke-opacity="0" text-anchor="middle" lengthAdjust="spacingAndGlyphs" textLength="3.2976">SW3</text>
   <g class="stroked-text">
    <desc>SW3</desc>
    <path d="m50.554 1.9822 0.1428 0.0476"/>
    <path d="m50.697 2.0298h0.2381"/>
    <path d="m50.935 2.0298 0.0953-0.0476"/>
    <path d="m51.03 1.9822 0.0476-0.0476"/>
    <path d="m51.078 1.9346 0.0476-0.0953"/>
    <path d="m51.126 1.8393v-0.0952"/>
    <path d="m51.126 1.7441-0.0476-0.0952"/>
    <path d="m51.078 1.6489-0.0476-0.0477"/>
    <path d="m51.03 1.6012-0.0953-0.0476"/>
    <path d="m50.935 1.5536-0.1905-0.0476"/>
    <path d="m50.745 1.506-0.0952-0.0476"/>
    <path d="m50.649 1.4584-0.0476-0.0476"/>
    <path d="m50.602 1.4108-0.0476-0.0953"/>
    <path d="m50.554 1.3155v-0.0952"/>
    <path d="m50.554 1.2203 0.0476-0.0952"/>
    <path d="m50.602 1.1251 0.0476-0.0477"/>
    <path d="m50.649 1.0774 0.0952-0.0476"/>
    <path d="m50.745 1.0298h0.2381"/>
    <path d="m50.983 1.0298 0.1429 0.0476"/>
    <path d="m51.459 1.0298 0.2381 1"/>
    <path d="m51.697 2.0298 0.1905-0.7143"/>
    <path d="m51.888 1.3155 0.1905 0.7143"/>
    <path d="m52.078 2.0298 0.2381-1"/>
    <path d="m52.602 1.0298h0.619"/>
    <path d="m53.221 1.0298-0.3333 0.381"/>
    <path d="m52.888 1.4108h0.1429"/>
    <path d="m53.03 1.4108 0.0952 0.0476"/>
    <path d="m53.126 1.4584 0.0476 0.0476"/>
    <path d="m53.173 1.506 0.0476 0.0952"/>
    <path d="m53.221 1.6012v0.2381"/>
    <path d="m53.221 1.8393-0.0476 0.0953"/>
    <path d="m53.173 1.9346-0.0476 0.0476"/>
    <path d="m53.126 1.9822-0.0952 0.0476"/>
    <path d="m53.03 2.0298h-0.2858"/>
    <path d="m52.745 2.0298-0.0952-0.0476"/>
    <path d="m52.649 1.9822-0.0476-0.0476"/>
   </g>
   <text x="4.3250" y="2.8750" font-size="1.3333" opacity="0" stroke-opacity="0" text-anchor="middle" lengthAdjust="spacingAndGlyphs" textLength="3.2976">SW1</text>
   <g class="stroked-text">
    <desc>SW1</desc>
    <path d="m2.9917 2.7822 0.1428 0.0476"/>
    <path d="m3.1345 2.8298h0.2381"/>
    <path d="m3.3726 2.8298 0.0953-0.0476"/>
    <path d="m3.4679 2.7822 0.0476-0.0476"/>
    <path d="m3.5155 2.7346 0.0476-0.0953"/>
    <path d="m3.5631 2.6393v-0.0952"/>
    <path d="m3.5631 2.5441-0.0476-0.0952"/>
    <path d="m3.5155 2.4489-0.0476-0.0477"/>
    <path d="m3.4679 2.4012-0.0953-0.0476"/>
    <path d="m3.3726 2.3536-0.1905-0.0476"/>
    <path d="m3.1821 2.306-0.0952-0.0476"/>
    <path d="m3.0869 2.2584-0.0476-0.0476"/>
    <path d="m3.0393 2.2108-0.0476-0.0953"/>
    <path d="m2.9917 2.1155v-0.0952"/>
    <path d="m2.9917 2.0203 0.0476-0.0952"/>
    <path d="m3.0393 1.9251 0.0476-0.0477"/>
    <path d="m3.0869 1.8774 0.0952-0.0476"/>
    <path d="m3.1821 1.8298h0.2381"/>
    <path d="m3.4202 1.8298 0.1429 0.0476"/>
    <path d="m3.8964 1.8298 0.2381 1"/>
    <path d="m4.1345 2.8298 0.1905-0.7143"/>
    <path d="m4.325 2.1155 0.1905 0.7143"/>
    <path d="m4.5155 2.8298 0.2381-1"/>
    <path d="m5.6583 2.8298h-0.5714"/>
    <path d="m5.3726 2.8298v-1"/>
    <path d="m5.3726 1.8298-0.0952 0.1429"/>
    <path d="m5.2774 1.9727-0.0953 0.0952"/>
    <path d="m5.1821 2.0679-0.0952 0.0476"/>
   </g>
  </g>
  <g stroke="#8BE9FD" stroke-width=".12">
   <path d="m25.738 2.475v14.2"/>
   <path d="m25.738 16.675h14.2"/>
   <path d="m39.938 2.475h-14.2"/>
   <path d="m39.938 16.675v-14.2"/>
   <path d="m44.788 2.475v14.2"/>
   <path d="m44.788 16.675h14.2"/>
   <path d="m58.988 2.475h-14.2"/>
   <path d="m58.988 16.675v-14.2"/>
   <path d="m1.225 5.475h0.6"/>
   <path d="m1.525 5.775-0.3-0.3"/>
   <path d="m1.825 5.475-0.3 0.3"/>
   <path d="m2.925 3.675v11.8"/>
   <path d="m7.025 3.675h-4.1"/>
   <path d="m7.025 15.475h-4.1"/>
   <path d="m8.525 9.575h1"/>
   <path d="m9.025 9.075v1"/>
   <path d="m11.025 3.675h4.1"/>
   <path d="m15.125 3.675v2.4"/>
   <path d="m15.125 8.275v2.6"/>
   <path d="m15.125 13.075v2.4"/>
   <path d="m15.125 15.475h-4.1"/>
   <circle cx="9.025" cy="9.575" r="3"/>
  </g>
  <g stroke="#BD93F9" stroke-width=".15">
   <g transform="rotate(-90 39.822 13.702)">
    <text transform="scale(-1 1) translate(-79.645)" x="39.8225" y="14.2020" font-size="1.3333" opacity="0" stroke-opacity="0" text-anchor="middle" lengthAdjust="spacingAndGlyphs" textLength="2.2024">D2</text>
   </g>
   <g class="stroked-text">
    <desc>D2</desc>
    <path d="m40.277 12.964h-1"/>
    <path d="m39.277 12.964v0.2381"/>
    <path d="m39.277 13.202 0.0476 0.1429"/>
    <path d="m39.325 13.345 0.0953 0.0952"/>
    <path d="m39.42 13.44 0.0952 0.0476"/>
    <path d="m39.515 13.488 0.1905 0.0476"/>
    <path d="m39.706 13.535h0.1428"/>
    <path d="m39.849 13.535 0.1905-0.0476"/>
    <path d="m40.039 13.488 0.0953-0.0476"/>
    <path d="m40.134 13.44 0.0952-0.0952"/>
    <path d="m40.23 13.345 0.0476-0.1429"/>
    <path d="m40.277 13.202v-0.2381"/>
    <path d="m39.373 13.916-0.0477 0.0476"/>
    <path d="m39.325 13.964-0.0476 0.0952"/>
    <path d="m39.277 14.059v0.2381"/>
    <path d="m39.277 14.297 0.0476 0.0953"/>
    <path d="m39.325 14.392 0.0477 0.0476"/>
    <path d="m39.373 14.44 0.0952 0.0476"/>
    <path d="m39.468 14.488h0.0952"/>
    <path d="m39.563 14.488 0.1429-0.0476"/>
    <path d="m39.706 14.44 0.5714-0.5714"/>
    <path d="m40.277 13.869v0.619"/>
   </g>
   <g transform="rotate(-90 8.51 11.202)">
    <text transform="scale(-1 1) translate(-17.02)" x="8.5100" y="11.7020" font-size="1.3333" opacity="0" stroke-opacity="0" text-anchor="middle" lengthAdjust="spacingAndGlyphs" textLength="2.2024">D1</text>
   </g>
   <g class="stroked-text">
    <desc>D1</desc>
    <path d="m8.9648 10.464h-1"/>
    <path d="m7.9648 10.464v0.2381"/>
    <path d="m7.9648 10.702 0.0476 0.1429"/>
    <path d="m8.0124 10.845 0.0953 0.0952"/>
    <path d="m8.1077 10.94 0.0952 0.0476"/>
    <path d="m8.2029 10.988 0.1905 0.0476"/>
    <path d="m8.3934 11.035h0.1428"/>
    <path d="m8.5362 11.035 0.1905-0.0476"/>
    <path d="m8.7267 10.988 0.0953-0.0476"/>
    <path d="m8.822 10.94 0.0952-0.0952"/>
    <path d="m8.9172 10.845 0.0476-0.1429"/>
    <path d="m8.9648 10.702v-0.2381"/>
    <path d="m8.9648 11.988v-0.5714"/>
    <path d="m8.9648 11.702h-1"/>
    <path d="m7.9648 11.702 0.1429-0.0952"/>
    <path d="m8.1077 11.607 0.0952-0.0953"/>
    <path d="m8.2029 11.512 0.0476-0.0952"/>
   </g>
   <g transform="rotate(-90 58.872 13.702)">
    <text transform="scale(-1 1) translate(-117.74)" x="58.8725" y="14.2020" font-size="1.3333" opacity="0" stroke-opacity="0" text-anchor="middle" lengthAdjust="spacingAndGlyphs" textLength="2.2024">D3</text>
   </g>
   <g class="stroked-text">
    <desc>D3</desc>
    <path d="m59.327 12.964h-1"/>
    <path d="m58.327 12.964v0.2381"/>
    <path d="m58.327 13.202 0.0476 0.1429"/>
    <path d="m58.375 13.345 0.0953 0.0952"/>
    <path d="m58.47 13.44 0.0952 0.0476"/>
    <path d="m58.565 13.488 0.1905 0.0476"/>
    <path d="m58.756 13.535h0.1428"/>
    <path d="m58.899 13.535 0.1905-0.0476"/>
    <path d="m59.089 13.488 0.0953-0.0476"/>
    <path d="m59.184 13.44 0.0952-0.0952"/>
    <path d="m59.28 13.345 0.0476-0.1429"/>
    <path d="m59.327 13.202v-0.2381"/>
    <path d="m58.327 13.869v0.619"/>
    <path d="m58.327 14.488 0.381-0.3333"/>
    <path d="m58.708 14.154v0.1428"/>
    <path d="m58.708 14.297 0.0476 0.0953"/>
    <path d="m58.756 14.392 0.0476 0.0476"/>
    <path d="m58.804 14.44 0.0952 0.0476"/>
    <path d="m58.899 14.488h0.2381"/>
    <path d="m59.137 14.488 0.0953-0.0476"/>
    <path d="m59.232 14.44 0.0476-0.0476"/>
    <path d="m59.28 14.392 0.0476-0.0953"/>
    <path d="m59.327 14.297v-0.2857"/>
    <path d="m59.327 14.012-0.0476-0.0952"/>
    <path d="m59.28 13.916-0.0476-0.0476"/>
   </g>
  </g>
  <g stroke="#BD93F9" stroke-width=".12">
   <path d="m36.918 15.785v-3.86"/>
   <path d="m38.918 15.785h-2"/>
   <path d="m38.918 15.785v-3.86"/>
   <path d="m5.605 13.285v-3.86"/>
   <path d="m7.605 13.285h-2"/>
   <path d="m7.605 13.285v-3.86"/>
   <path d="m55.968 15.785v-3.86"/>
   <path d="m57.968 15.785h-2"/>
   <path d="m57.968 15.785v-3.86"/>
  </g>
 </g>
 <g fill="#fff">
  <circle cx="27.758" cy="9.575" r=".875"/>
  <circle cx="32.838" cy="9.575" r="2"/>
  <circle cx="37.918" cy="9.575" r=".875"/>
  <circle cx="29.028" cy="7.035" r=".75"/>
  <circle cx="35.378" cy="4.495" r=".75"/>
  <circle cx="46.808" cy="9.575" r=".875"/>
  <circle cx="51.888" cy="9.575" r="2"/>
  <circle cx="56.968" cy="9.575" r=".875"/>
  <circle cx="48.078" cy="7.035" r=".75"/>
  <circle cx="54.428" cy="4.495" r=".75"/>
  <circle cx="1.525" cy="7.075" r=".5"/>
  <circle cx="1.525" cy="12.075" r=".5"/>
  <circle cx="1.525" cy="9.575" r=".5"/>
 </g>
 <g fill="none" stroke="#fff" stroke-linecap="round" stroke-linejoin="round" stroke-width="1.5">
  <path d="m8.375 3.975h1.3"/>
  <path d="m8.375 15.175h1.3"/>
 </g>
 <g fill="#fff">
  <circle cx="16.025" cy="12.075" r=".5"/>
  <circle cx="16.025" cy="7.075" r=".5"/>
 </g>
</svg>
