<?xml version="1.0" encoding="UTF-8"?>
<!DOCTYPE svg  PUBLIC '-//W3C//DTD SVG 1.1//EN'  'http://www.w3.org/Graphics/SVG/1.1/DTD/svg11.dtd'>
<svg width="76.276mm" height="76.276mm" version="1.1" viewBox="0 0 76.276 76.276" xmlns="http://www.w3.org/2000/svg">
 <title>SVG Image created as np12-render.svg date 2025/09/05 18:23:28</title>
 <desc>Image generated by PCBNEW</desc>
 <rect width="76.276mm" height="76.276mm" fill="#282A36"/>
 <g fill="none" stroke="#8BE9FD" stroke-linecap="round" stroke-linejoin="round" stroke-width=".15">
  <text x="47.6750" y="40.1750" font-size="1.3333" opacity="0" stroke-opacity="0" text-anchor="middle" lengthAdjust="spacingAndGlyphs" textLength="3.2976">SW7</text>
  <g class="stroked-text">
   <desc>SW7</desc>
   <path d="m46.342 40.082 0.1428 0.0476"/>
   <path d="m46.484 40.13h0.2381"/>
   <path d="m46.723 40.13 0.0953-0.0476"/>
   <path d="m46.818 40.082 0.0476-0.0476"/>
   <path d="m46.866 40.035 0.0476-0.0953"/>
   <path d="m46.913 39.939v-0.0952"/>
   <path d="m46.913 39.844-0.0476-0.0952"/>
   <path d="m46.866 39.749-0.0476-0.0477"/>
   <path d="m46.818 39.701-0.0953-0.0476"/>
   <path d="m46.723 39.654-0.1905-0.0476"/>
   <path d="m46.532 39.606-0.0952-0.0476"/>
   <path d="m46.437 39.558-0.0476-0.0476"/>
   <path d="m46.389 39.511-0.0476-0.0953"/>
   <path d="m46.342 39.416v-0.0952"/>
   <path d="m46.342 39.32 0.0476-0.0952"/>
   <path d="m46.389 39.225 0.0476-0.0477"/>
   <path d="m46.437 39.177 0.0952-0.0476"/>
   <path d="m46.532 39.13h0.2381"/>
   <path d="m46.77 39.13 0.1429 0.0476"/>
   <path d="m47.246 39.13 0.2381 1"/>
   <path d="m47.484 40.13 0.1905-0.7143"/>
   <path d="m47.675 39.416 0.1905 0.7143"/>
   <path d="m47.866 40.13 0.2381-1"/>
   <path d="m48.389 39.13h0.6667"/>
   <path d="m49.056 39.13-0.4286 1"/>
  </g>
  <text x="66.7250" y="40.1750" font-size="1.3333" opacity="0" stroke-opacity="0" text-anchor="middle" lengthAdjust="spacingAndGlyphs" textLength="3.2976">SW8</text>
  <g class="stroked-text">
   <desc>SW8</desc>
   <path d="m65.392 40.082 0.1428 0.0476"/>
   <path d="m65.534 40.13h0.2381"/>
   <path d="m65.773 40.13 0.0953-0.0476"/>
   <path d="m65.868 40.082 0.0476-0.0476"/>
   <path d="m65.916 40.035 0.0476-0.0953"/>
   <path d="m65.963 39.939v-0.0952"/>
   <path d="m65.963 39.844-0.0476-0.0952"/>
   <path d="m65.916 39.749-0.0476-0.0477"/>
   <path d="m65.868 39.701-0.0953-0.0476"/>
   <path d="m65.773 39.654-0.1905-0.0476"/>
   <path d="m65.582 39.606-0.0952-0.0476"/>
   <path d="m65.487 39.558-0.0476-0.0476"/>
   <path d="m65.439 39.511-0.0476-0.0953"/>
   <path d="m65.392 39.416v-0.0952"/>
   <path d="m65.392 39.32 0.0476-0.0952"/>
   <path d="m65.439 39.225 0.0476-0.0477"/>
   <path d="m65.487 39.177 0.0952-0.0476"/>
   <path d="m65.582 39.13h0.2381"/>
   <path d="m65.82 39.13 0.1429 0.0476"/>
   <path d="m66.296 39.13 0.2381 1"/>
   <path d="m66.534 40.13 0.1905-0.7143"/>
   <path d="m66.725 39.416 0.1905 0.7143"/>
   <path d="m66.916 40.13 0.2381-1"/>
   <path d="m67.677 39.558-0.0953-0.0476"/>
   <path d="m67.582 39.511-0.0476-0.0476"/>
   <path d="m67.534 39.463-0.0476-0.0953"/>
   <path d="m67.487 39.368v-0.0476"/>
   <path d="m67.487 39.32 0.0476-0.0952"/>
   <path d="m67.534 39.225 0.0476-0.0477"/>
   <path d="m67.582 39.177 0.0953-0.0476"/>
   <path d="m67.677 39.13h0.1905"/>
   <path d="m67.868 39.13 0.0952 0.0476"/>
   <path d="m67.963 39.177 0.0476 0.0477"/>
   <path d="m68.011 39.225 0.0476 0.0952"/>
   <path d="m68.058 39.32v0.0476"/>
   <path d="m68.058 39.368-0.0476 0.0953"/>
   <path d="m68.011 39.463-0.0476 0.0476"/>
   <path d="m67.963 39.511-0.0952 0.0476"/>
   <path d="m67.868 39.558h-0.1905"/>
   <path d="m67.677 39.558-0.0953 0.0476"/>
   <path d="m67.582 39.606-0.0476 0.0476"/>
   <path d="m67.534 39.654-0.0476 0.0953"/>
   <path d="m67.487 39.749v0.1904"/>
   <path d="m67.487 39.939 0.0476 0.0953"/>
   <path d="m67.534 40.035 0.0476 0.0476"/>
   <path d="m67.582 40.082 0.0953 0.0476"/>
   <path d="m67.677 40.13h0.1905"/>
   <path d="m67.868 40.13 0.0952-0.0476"/>
   <path d="m67.963 40.082 0.0476-0.0476"/>
   <path d="m68.011 40.035 0.0476-0.0953"/>
   <path d="m68.058 39.939v-0.1904"/>
   <path d="m68.058 39.749-0.0476-0.0953"/>
   <path d="m68.011 39.654-0.0476-0.0476"/>
   <path d="m67.963 39.606-0.0952-0.0476"/>
  </g>
  <text x="28.6250" y="21.1250" font-size="1.3333" opacity="0" stroke-opacity="0" text-anchor="middle" lengthAdjust="spacingAndGlyphs" textLength="3.2976">SW2</text>
  <g class="stroked-text">
   <desc>SW2</desc>
   <path d="m27.292 21.032 0.1428 0.0476"/>
   <path d="m27.434 21.08h0.2381"/>
   <path d="m27.673 21.08 0.0953-0.0476"/>
   <path d="m27.768 21.032 0.0476-0.0476"/>
   <path d="m27.816 20.985 0.0476-0.0953"/>
   <path d="m27.863 20.889v-0.0952"/>
   <path d="m27.863 20.794-0.0476-0.0952"/>
   <path d="m27.816 20.699-0.0476-0.0477"/>
   <path d="m27.768 20.651-0.0953-0.0476"/>
   <path d="m27.673 20.604-0.1905-0.0476"/>
   <path d="m27.482 20.556-0.0952-0.0476"/>
   <path d="m27.387 20.508-0.0476-0.0476"/>
   <path d="m27.339 20.461-0.0476-0.0953"/>
   <path d="m27.292 20.366v-0.0952"/>
   <path d="m27.292 20.27 0.0476-0.0952"/>
   <path d="m27.339 20.175 0.0476-0.0477"/>
   <path d="m27.387 20.127 0.0952-0.0476"/>
   <path d="m27.482 20.08h0.2381"/>
   <path d="m27.72 20.08 0.1429 0.0476"/>
   <path d="m28.196 20.08 0.2381 1"/>
   <path d="m28.434 21.08 0.1905-0.7143"/>
   <path d="m28.625 20.366 0.1905 0.7143"/>
   <path d="m28.816 21.08 0.2381-1"/>
   <path d="m29.387 20.175 0.0476-0.0477"/>
   <path d="m29.434 20.127 0.0953-0.0476"/>
   <path d="m29.53 20.08h0.2381"/>
   <path d="m29.768 20.08 0.0952 0.0476"/>
   <path d="m29.863 20.127 0.0476 0.0477"/>
   <path d="m29.911 20.175 0.0476 0.0952"/>
   <path d="m29.958 20.27v0.0952"/>
   <path d="m29.958 20.366-0.0476 0.1429"/>
   <path d="m29.911 20.508-0.5714 0.5714"/>
   <path d="m29.339 21.08h0.619"/>
  </g>
  <text x="47.6750" y="21.1250" font-size="1.3333" opacity="0" stroke-opacity="0" text-anchor="middle" lengthAdjust="spacingAndGlyphs" textLength="3.2976">SW3</text>
  <g class="stroked-text">
   <desc>SW3</desc>
   <path d="m46.342 21.032 0.1428 0.0476"/>
   <path d="m46.484 21.08h0.2381"/>
   <path d="m46.723 21.08 0.0953-0.0476"/>
   <path d="m46.818 21.032 0.0476-0.0476"/>
   <path d="m46.866 20.985 0.0476-0.0953"/>
   <path d="m46.913 20.889v-0.0952"/>
   <path d="m46.913 20.794-0.0476-0.0952"/>
   <path d="m46.866 20.699-0.0476-0.0477"/>
   <path d="m46.818 20.651-0.0953-0.0476"/>
   <path d="m46.723 20.604-0.1905-0.0476"/>
   <path d="m46.532 20.556-0.0952-0.0476"/>
   <path d="m46.437 20.508-0.0476-0.0476"/>
   <path d="m46.389 20.461-0.0476-0.0953"/>
   <path d="m46.342 20.366v-0.0952"/>
   <path d="m46.342 20.27 0.0476-0.0952"/>
   <path d="m46.389 20.175 0.0476-0.0477"/>
   <path d="m46.437 20.127 0.0952-0.0476"/>
   <path d="m46.532 20.08h0.2381"/>
   <path d="m46.77 20.08 0.1429 0.0476"/>
   <path d="m47.246 20.08 0.2381 1"/>
   <path d="m47.484 21.08 0.1905-0.7143"/>
   <path d="m47.675 20.366 0.1905 0.7143"/>
   <path d="m47.866 21.08 0.2381-1"/>
   <path d="m48.389 20.08h0.619"/>
   <path d="m49.008 20.08-0.3333 0.381"/>
   <path d="m48.675 20.461h0.1429"/>
   <path d="m48.818 20.461 0.0952 0.0476"/>
   <path d="m48.913 20.508 0.0476 0.0476"/>
   <path d="m48.961 20.556 0.0476 0.0952"/>
   <path d="m49.008 20.651v0.2381"/>
   <path d="m49.008 20.889-0.0476 0.0953"/>
   <path d="m48.961 20.985-0.0476 0.0476"/>
   <path d="m48.913 21.032-0.0952 0.0476"/>
   <path d="m48.818 21.08h-0.2858"/>
   <path d="m48.532 21.08-0.0952-0.0476"/>
   <path d="m48.437 21.032-0.0476-0.0476"/>
  </g>
  <text x="47.6750" y="59.2250" font-size="1.3333" opacity="0" stroke-opacity="0" text-anchor="middle" lengthAdjust="spacingAndGlyphs" textLength="4.2500">SW11</text>
  <g class="stroked-text">
   <desc>SW11</desc>
   <path d="m45.866 59.132 0.1428 0.0476"/>
   <path d="m46.008 59.18h0.2381"/>
   <path d="m46.246 59.18 0.0953-0.0476"/>
   <path d="m46.342 59.132 0.0476-0.0476"/>
   <path d="m46.389 59.085 0.0476-0.0953"/>
   <path d="m46.437 58.989v-0.0952"/>
   <path d="m46.437 58.894-0.0476-0.0952"/>
   <path d="m46.389 58.799-0.0476-0.0477"/>
   <path d="m46.342 58.751-0.0953-0.0476"/>
   <path d="m46.246 58.704-0.1904-0.0476"/>
   <path d="m46.056 58.656-0.0953-0.0476"/>
   <path d="m45.961 58.608-0.0476-0.0476"/>
   <path d="m45.913 58.561-0.0476-0.0953"/>
   <path d="m45.866 58.466v-0.0952"/>
   <path d="m45.866 58.37 0.0476-0.0952"/>
   <path d="m45.913 58.275 0.0476-0.0477"/>
   <path d="m45.961 58.227 0.0953-0.0476"/>
   <path d="m46.056 58.18h0.238"/>
   <path d="m46.294 58.18 0.1429 0.0476"/>
   <path d="m46.77 58.18 0.2381 1"/>
   <path d="m47.008 59.18 0.1905-0.7143"/>
   <path d="m47.199 58.466 0.1905 0.7143"/>
   <path d="m47.389 59.18 0.2381-1"/>
   <path d="m48.532 59.18h-0.5714"/>
   <path d="m48.246 59.18v-1"/>
   <path d="m48.246 58.18-0.0952 0.1429"/>
   <path d="m48.151 58.323-0.0952 0.0952"/>
   <path d="m48.056 58.418-0.0953 0.0476"/>
   <path d="m49.484 59.18h-0.5714"/>
   <path d="m49.199 59.18v-1"/>
   <path d="m49.199 58.18-0.0952 0.1429"/>
   <path d="m49.104 58.323-0.0953 0.0952"/>
   <path d="m49.008 58.418-0.0952 0.0476"/>
  </g>
  <text x="66.7250" y="21.1250" font-size="1.3333" opacity="0" stroke-opacity="0" text-anchor="middle" lengthAdjust="spacingAndGlyphs" textLength="3.2976">SW4</text>
  <g class="stroked-text">
   <desc>SW4</desc>
   <path d="m65.392 21.032 0.1428 0.0476"/>
   <path d="m65.534 21.08h0.2381"/>
   <path d="m65.773 21.08 0.0953-0.0476"/>
   <path d="m65.868 21.032 0.0476-0.0476"/>
   <path d="m65.916 20.985 0.0476-0.0953"/>
   <path d="m65.963 20.889v-0.0952"/>
   <path d="m65.963 20.794-0.0476-0.0952"/>
   <path d="m65.916 20.699-0.0476-0.0477"/>
   <path d="m65.868 20.651-0.0953-0.0476"/>
   <path d="m65.773 20.604-0.1905-0.0476"/>
   <path d="m65.582 20.556-0.0952-0.0476"/>
   <path d="m65.487 20.508-0.0476-0.0476"/>
   <path d="m65.439 20.461-0.0476-0.0953"/>
   <path d="m65.392 20.366v-0.0952"/>
   <path d="m65.392 20.27 0.0476-0.0952"/>
   <path d="m65.439 20.175 0.0476-0.0477"/>
   <path d="m65.487 20.127 0.0952-0.0476"/>
   <path d="m65.582 20.08h0.2381"/>
   <path d="m65.82 20.08 0.1429 0.0476"/>
   <path d="m66.296 20.08 0.2381 1"/>
   <path d="m66.534 21.08 0.1905-0.7143"/>
   <path d="m66.725 20.366 0.1905 0.7143"/>
   <path d="m66.916 21.08 0.2381-1"/>
   <path d="m67.963 20.413v0.6666"/>
   <path d="m67.725 20.032-0.2381 0.7143"/>
   <path d="m67.487 20.746h0.6191"/>
  </g>
  <text x="66.7250" y="59.2250" font-size="1.3333" opacity="0" stroke-opacity="0" text-anchor="middle" lengthAdjust="spacingAndGlyphs" textLength="4.2500">SW12</text>
  <g class="stroked-text">
   <desc>SW12</desc>
   <path d="m64.916 59.132 0.1428 0.0476"/>
   <path d="m65.058 59.18h0.2381"/>
   <path d="m65.296 59.18 0.0953-0.0476"/>
   <path d="m65.392 59.132 0.0476-0.0476"/>
   <path d="m65.439 59.085 0.0476-0.0953"/>
   <path d="m65.487 58.989v-0.0952"/>
   <path d="m65.487 58.894-0.0476-0.0952"/>
   <path d="m65.439 58.799-0.0476-0.0477"/>
   <path d="m65.392 58.751-0.0953-0.0476"/>
   <path d="m65.296 58.704-0.1904-0.0476"/>
   <path d="m65.106 58.656-0.0953-0.0476"/>
   <path d="m65.011 58.608-0.0476-0.0476"/>
   <path d="m64.963 58.561-0.0476-0.0953"/>
   <path d="m64.916 58.466v-0.0952"/>
   <path d="m64.916 58.37 0.0476-0.0952"/>
   <path d="m64.963 58.275 0.0476-0.0477"/>
   <path d="m65.011 58.227 0.0953-0.0476"/>
   <path d="m65.106 58.18h0.238"/>
   <path d="m65.344 58.18 0.1429 0.0476"/>
   <path d="m65.82 58.18 0.2381 1"/>
   <path d="m66.058 59.18 0.1905-0.7143"/>
   <path d="m66.249 58.466 0.1905 0.7143"/>
   <path d="m66.439 59.18 0.2381-1"/>
   <path d="m67.582 59.18h-0.5714"/>
   <path d="m67.296 59.18v-1"/>
   <path d="m67.296 58.18-0.0952 0.1429"/>
   <path d="m67.201 58.323-0.0952 0.0952"/>
   <path d="m67.106 58.418-0.0953 0.0476"/>
   <path d="m67.963 58.275 0.0476-0.0477"/>
   <path d="m68.011 58.227 0.0953-0.0476"/>
   <path d="m68.106 58.18h0.238"/>
   <path d="m68.344 58.18 0.0953 0.0476"/>
   <path d="m68.439 58.227 0.0476 0.0477"/>
   <path d="m68.487 58.275 0.0476 0.0952"/>
   <path d="m68.534 58.37v0.0952"/>
   <path d="m68.534 58.466-0.0476 0.1429"/>
   <path d="m68.487 58.608-0.5714 0.5714"/>
   <path d="m67.916 59.18h0.619"/>
  </g>
  <text x="9.5750" y="40.1750" font-size="1.3333" opacity="0" stroke-opacity="0" text-anchor="middle" lengthAdjust="spacingAndGlyphs" textLength="3.2976">SW5</text>
  <g class="stroked-text">
   <desc>SW5</desc>
   <path d="m8.2417 40.082 0.1428 0.0476"/>
   <path d="m8.3845 40.13h0.2381"/>
   <path d="m8.6226 40.13 0.0953-0.0476"/>
   <path d="m8.7179 40.082 0.0476-0.0476"/>
   <path d="m8.7655 40.035 0.0476-0.0953"/>
   <path d="m8.8131 39.939v-0.0952"/>
   <path d="m8.8131 39.844-0.0476-0.0952"/>
   <path d="m8.7655 39.749-0.0476-0.0477"/>
   <path d="m8.7179 39.701-0.0953-0.0476"/>
   <path d="m8.6226 39.654-0.1905-0.0476"/>
   <path d="m8.4321 39.606-0.0952-0.0476"/>
   <path d="m8.3369 39.558-0.0476-0.0476"/>
   <path d="m8.2893 39.511-0.0476-0.0953"/>
   <path d="m8.2417 39.416v-0.0952"/>
   <path d="m8.2417 39.32 0.0476-0.0952"/>
   <path d="m8.2893 39.225 0.0476-0.0477"/>
   <path d="m8.3369 39.177 0.0952-0.0476"/>
   <path d="m8.4321 39.13h0.2381"/>
   <path d="m8.6702 39.13 0.1429 0.0476"/>
   <path d="m9.1464 39.13 0.2381 1"/>
   <path d="m9.3845 40.13 0.1905-0.7143"/>
   <path d="m9.575 39.416 0.1905 0.7143"/>
   <path d="m9.7655 40.13 0.2381-1"/>
   <path d="m10.861 39.13h-0.4762"/>
   <path d="m10.384 39.13-0.0476 0.4762"/>
   <path d="m10.337 39.606 0.0476-0.0476"/>
   <path d="m10.384 39.558 0.0953-0.0476"/>
   <path d="m10.48 39.511h0.2381"/>
   <path d="m10.718 39.511 0.0952 0.0476"/>
   <path d="m10.813 39.558 0.0476 0.0476"/>
   <path d="m10.861 39.606 0.0476 0.0952"/>
   <path d="m10.908 39.701v0.2381"/>
   <path d="m10.908 39.939-0.0476 0.0953"/>
   <path d="m10.861 40.035-0.0476 0.0476"/>
   <path d="m10.813 40.082-0.0952 0.0476"/>
   <path d="m10.718 40.13h-0.2381"/>
   <path d="m10.48 40.13-0.0953-0.0476"/>
   <path d="m10.384 40.082-0.0476-0.0476"/>
  </g>
  <text x="28.6250" y="40.1750" font-size="1.3333" opacity="0" stroke-opacity="0" text-anchor="middle" lengthAdjust="spacingAndGlyphs" textLength="3.2976">SW6</text>
  <g class="stroked-text">
   <desc>SW6</desc>
   <path d="m27.292 40.082 0.1428 0.0476"/>
   <path d="m27.434 40.13h0.2381"/>
   <path d="m27.673 40.13 0.0953-0.0476"/>
   <path d="m27.768 40.082 0.0476-0.0476"/>
   <path d="m27.816 40.035 0.0476-0.0953"/>
   <path d="m27.863 39.939v-0.0952"/>
   <path d="m27.863 39.844-0.0476-0.0952"/>
   <path d="m27.816 39.749-0.0476-0.0477"/>
   <path d="m27.768 39.701-0.0953-0.0476"/>
   <path d="m27.673 39.654-0.1905-0.0476"/>
   <path d="m27.482 39.606-0.0952-0.0476"/>
   <path d="m27.387 39.558-0.0476-0.0476"/>
   <path d="m27.339 39.511-0.0476-0.0953"/>
   <path d="m27.292 39.416v-0.0952"/>
   <path d="m27.292 39.32 0.0476-0.0952"/>
   <path d="m27.339 39.225 0.0476-0.0477"/>
   <path d="m27.387 39.177 0.0952-0.0476"/>
   <path d="m27.482 39.13h0.2381"/>
   <path d="m27.72 39.13 0.1429 0.0476"/>
   <path d="m28.196 39.13 0.2381 1"/>
   <path d="m28.434 40.13 0.1905-0.7143"/>
   <path d="m28.625 39.416 0.1905 0.7143"/>
   <path d="m28.816 40.13 0.2381-1"/>
   <path d="m29.863 39.13h-0.1905"/>
   <path d="m29.673 39.13-0.0952 0.0476"/>
   <path d="m29.577 39.177-0.0476 0.0477"/>
   <path d="m29.53 39.225-0.0953 0.1428"/>
   <path d="m29.434 39.368-0.0476 0.1905"/>
   <path d="m29.387 39.558v0.3809"/>
   <path d="m29.387 39.939 0.0476 0.0953"/>
   <path d="m29.434 40.035 0.0476 0.0476"/>
   <path d="m29.482 40.082 0.0953 0.0476"/>
   <path d="m29.577 40.13h0.1905"/>
   <path d="m29.768 40.13 0.0952-0.0476"/>
   <path d="m29.863 40.082 0.0476-0.0476"/>
   <path d="m29.911 40.035 0.0476-0.0953"/>
   <path d="m29.958 39.939v-0.2381"/>
   <path d="m29.958 39.701-0.0476-0.0952"/>
   <path d="m29.911 39.606-0.0476-0.0476"/>
   <path d="m29.863 39.558-0.0952-0.0476"/>
   <path d="m29.768 39.511h-0.1905"/>
   <path d="m29.577 39.511-0.0953 0.0476"/>
   <path d="m29.482 39.558-0.0476 0.0476"/>
   <path d="m29.434 39.606-0.0476 0.0952"/>
  </g>
  <text x="9.5750" y="21.1250" font-size="1.3333" opacity="0" stroke-opacity="0" text-anchor="middle" lengthAdjust="spacingAndGlyphs" textLength="3.2976">SW1</text>
  <g class="stroked-text">
   <desc>SW1</desc>
   <path d="m8.2417 21.032 0.1428 0.0476"/>
   <path d="m8.3845 21.08h0.2381"/>
   <path d="m8.6226 21.08 0.0953-0.0476"/>
   <path d="m8.7179 21.032 0.0476-0.0476"/>
   <path d="m8.7655 20.985 0.0476-0.0953"/>
   <path d="m8.8131 20.889v-0.0952"/>
   <path d="m8.8131 20.794-0.0476-0.0952"/>
   <path d="m8.7655 20.699-0.0476-0.0477"/>
   <path d="m8.7179 20.651-0.0953-0.0476"/>
   <path d="m8.6226 20.604-0.1905-0.0476"/>
   <path d="m8.4321 20.556-0.0952-0.0476"/>
   <path d="m8.3369 20.508-0.0476-0.0476"/>
   <path d="m8.2893 20.461-0.0476-0.0953"/>
   <path d="m8.2417 20.366v-0.0952"/>
   <path d="m8.2417 20.27 0.0476-0.0952"/>
   <path d="m8.2893 20.175 0.0476-0.0477"/>
   <path d="m8.3369 20.127 0.0952-0.0476"/>
   <path d="m8.4321 20.08h0.2381"/>
   <path d="m8.6702 20.08 0.1429 0.0476"/>
   <path d="m9.1464 20.08 0.2381 1"/>
   <path d="m9.3845 21.08 0.1905-0.7143"/>
   <path d="m9.575 20.366 0.1905 0.7143"/>
   <path d="m9.7655 21.08 0.2381-1"/>
   <path d="m10.908 21.08h-0.5714"/>
   <path d="m10.623 21.08v-1"/>
   <path d="m10.623 20.08-0.0952 0.1429"/>
   <path d="m10.527 20.223-0.0953 0.0952"/>
   <path d="m10.432 20.318-0.0952 0.0476"/>
  </g>
  <text x="66.7250" y="2.0750" font-size="1.3333" opacity="0" stroke-opacity="0" text-anchor="middle" lengthAdjust="spacingAndGlyphs" textLength="4.2500">SW13</text>
  <g class="stroked-text">
   <desc>SW13</desc>
   <path d="m64.916 1.9822 0.1428 0.0476"/>
   <path d="m65.058 2.0298h0.2381"/>
   <path d="m65.296 2.0298 0.0953-0.0476"/>
   <path d="m65.392 1.9822 0.0476-0.0476"/>
   <path d="m65.439 1.9346 0.0476-0.0953"/>
   <path d="m65.487 1.8393v-0.0952"/>
   <path d="m65.487 1.7441-0.0476-0.0952"/>
   <path d="m65.439 1.6489-0.0476-0.0477"/>
   <path d="m65.392 1.6012-0.0953-0.0476"/>
   <path d="m65.296 1.5536-0.1904-0.0476"/>
   <path d="m65.106 1.506-0.0953-0.0476"/>
   <path d="m65.011 1.4584-0.0476-0.0476"/>
   <path d="m64.963 1.4108-0.0476-0.0953"/>
   <path d="m64.916 1.3155v-0.0952"/>
   <path d="m64.916 1.2203 0.0476-0.0952"/>
   <path d="m64.963 1.1251 0.0476-0.0477"/>
   <path d="m65.011 1.0774 0.0953-0.0476"/>
   <path d="m65.106 1.0298h0.238"/>
   <path d="m65.344 1.0298 0.1429 0.0476"/>
   <path d="m65.82 1.0298 0.2381 1"/>
   <path d="m66.058 2.0298 0.1905-0.7143"/>
   <path d="m66.249 1.3155 0.1905 0.7143"/>
   <path d="m66.439 2.0298 0.2381-1"/>
   <path d="m67.582 2.0298h-0.5714"/>
   <path d="m67.296 2.0298v-1"/>
   <path d="m67.296 1.0298-0.0952 0.1429"/>
   <path d="m67.201 1.1727-0.0952 0.0952"/>
   <path d="m67.106 1.2679-0.0953 0.0476"/>
   <path d="m67.916 1.0298h0.619"/>
   <path d="m68.534 1.0298-0.3333 0.381"/>
   <path d="m68.201 1.4108h0.1428"/>
   <path d="m68.344 1.4108 0.0953 0.0476"/>
   <path d="m68.439 1.4584 0.0476 0.0476"/>
   <path d="m68.487 1.506 0.0476 0.0952"/>
   <path d="m68.534 1.6012v0.2381"/>
   <path d="m68.534 1.8393-0.0476 0.0953"/>
   <path d="m68.487 1.9346-0.0476 0.0476"/>
   <path d="m68.439 1.9822-0.0953 0.0476"/>
   <path d="m68.344 2.0298h-0.2857"/>
   <path d="m68.058 2.0298-0.0952-0.0476"/>
   <path d="m67.963 1.9822-0.0476-0.0476"/>
  </g>
  <text x="28.6250" y="59.2250" font-size="1.3333" opacity="0" stroke-opacity="0" text-anchor="middle" lengthAdjust="spacingAndGlyphs" textLength="4.2500">SW10</text>
  <g class="stroked-text">
   <desc>SW10</desc>
   <path d="m26.816 59.132 0.1428 0.0476"/>
   <path d="m26.958 59.18h0.2381"/>
   <path d="m27.196 59.18 0.0953-0.0476"/>
   <path d="m27.292 59.132 0.0476-0.0476"/>
   <path d="m27.339 59.085 0.0476-0.0953"/>
   <path d="m27.387 58.989v-0.0952"/>
   <path d="m27.387 58.894-0.0476-0.0952"/>
   <path d="m27.339 58.799-0.0476-0.0477"/>
   <path d="m27.292 58.751-0.0953-0.0476"/>
   <path d="m27.196 58.704-0.1904-0.0476"/>
   <path d="m27.006 58.656-0.0953-0.0476"/>
   <path d="m26.911 58.608-0.0476-0.0476"/>
   <path d="m26.863 58.561-0.0476-0.0953"/>
   <path d="m26.816 58.466v-0.0952"/>
   <path d="m26.816 58.37 0.0476-0.0952"/>
   <path d="m26.863 58.275 0.0476-0.0477"/>
   <path d="m26.911 58.227 0.0953-0.0476"/>
   <path d="m27.006 58.18h0.238"/>
   <path d="m27.244 58.18 0.1429 0.0476"/>
   <path d="m27.72 58.18 0.2381 1"/>
   <path d="m27.958 59.18 0.1905-0.7143"/>
   <path d="m28.149 58.466 0.1905 0.7143"/>
   <path d="m28.339 59.18 0.2381-1"/>
   <path d="m29.482 59.18h-0.5714"/>
   <path d="m29.196 59.18v-1"/>
   <path d="m29.196 58.18-0.0952 0.1429"/>
   <path d="m29.101 58.323-0.0952 0.0952"/>
   <path d="m29.006 58.418-0.0953 0.0476"/>
   <path d="m30.101 58.18h0.0952"/>
   <path d="m30.196 58.18 0.0953 0.0476"/>
   <path d="m30.292 58.227 0.0476 0.0477"/>
   <path d="m30.339 58.275 0.0476 0.0952"/>
   <path d="m30.387 58.37 0.0476 0.1905"/>
   <path d="m30.434 58.561v0.2381"/>
   <path d="m30.434 58.799-0.0476 0.1904"/>
   <path d="m30.387 58.989-0.0476 0.0953"/>
   <path d="m30.339 59.085-0.0476 0.0476"/>
   <path d="m30.292 59.132-0.0953 0.0476"/>
   <path d="m30.196 59.18h-0.0952"/>
   <path d="m30.101 59.18-0.0952-0.0476"/>
   <path d="m30.006 59.132-0.0477-0.0476"/>
   <path d="m29.958 59.085-0.0476-0.0953"/>
   <path d="m29.911 58.989-0.0476-0.1904"/>
   <path d="m29.863 58.799v-0.2381"/>
   <path d="m29.863 58.561 0.0476-0.1905"/>
   <path d="m29.911 58.37 0.0476-0.0952"/>
   <path d="m29.958 58.275 0.0477-0.0477"/>
   <path d="m30.006 58.227 0.0952-0.0476"/>
  </g>
  <text x="9.5750" y="59.2250" font-size="1.3333" opacity="0" stroke-opacity="0" text-anchor="middle" lengthAdjust="spacingAndGlyphs" textLength="3.2976">SW9</text>
  <g class="stroked-text">
   <desc>SW9</desc>
   <path d="m8.2417 59.132 0.1428 0.0476"/>
   <path d="m8.3845 59.18h0.2381"/>
   <path d="m8.6226 59.18 0.0953-0.0476"/>
   <path d="m8.7179 59.132 0.0476-0.0476"/>
   <path d="m8.7655 59.085 0.0476-0.0953"/>
   <path d="m8.8131 58.989v-0.0952"/>
   <path d="m8.8131 58.894-0.0476-0.0952"/>
   <path d="m8.7655 58.799-0.0476-0.0477"/>
   <path d="m8.7179 58.751-0.0953-0.0476"/>
   <path d="m8.6226 58.704-0.1905-0.0476"/>
   <path d="m8.4321 58.656-0.0952-0.0476"/>
   <path d="m8.3369 58.608-0.0476-0.0476"/>
   <path d="m8.2893 58.561-0.0476-0.0953"/>
   <path d="m8.2417 58.466v-0.0952"/>
   <path d="m8.2417 58.37 0.0476-0.0952"/>
   <path d="m8.2893 58.275 0.0476-0.0477"/>
   <path d="m8.3369 58.227 0.0952-0.0476"/>
   <path d="m8.4321 58.18h0.2381"/>
   <path d="m8.6702 58.18 0.1429 0.0476"/>
   <path d="m9.1464 58.18 0.2381 1"/>
   <path d="m9.3845 59.18 0.1905-0.7143"/>
   <path d="m9.575 58.466 0.1905 0.7143"/>
   <path d="m9.7655 59.18 0.2381-1"/>
   <path d="m10.432 59.18h0.1905"/>
   <path d="m10.623 59.18 0.0953-0.0476"/>
   <path d="m10.718 59.132 0.0476-0.0476"/>
   <path d="m10.766 59.085 0.0952-0.1429"/>
   <path d="m10.861 58.942 0.0476-0.1905"/>
   <path d="m10.908 58.751v-0.3809"/>
   <path d="m10.908 58.37-0.0476-0.0952"/>
   <path d="m10.861 58.275-0.0476-0.0477"/>
   <path d="m10.813 58.227-0.0952-0.0476"/>
   <path d="m10.718 58.18h-0.1905"/>
   <path d="m10.527 58.18-0.0953 0.0476"/>
   <path d="m10.432 58.227-0.0476 0.0477"/>
   <path d="m10.384 58.275-0.0476 0.0952"/>
   <path d="m10.337 58.37v0.2381"/>
   <path d="m10.337 58.608 0.0476 0.0952"/>
   <path d="m10.384 58.704 0.0476 0.0476"/>
   <path d="m10.432 58.751 0.0953 0.0477"/>
   <path d="m10.527 58.799h0.1905"/>
   <path d="m10.718 58.799 0.0952-0.0477"/>
   <path d="m10.813 58.751 0.0476-0.0476"/>
   <path d="m10.861 58.704 0.0476-0.0952"/>
  </g>
 </g>
 <g fill="none" stroke="#8BE9FD" stroke-linecap="round" stroke-linejoin="round" stroke-width=".12">
  <path d="m40.575 40.575v14.2"/>
  <path d="m40.575 54.775h14.2"/>
  <path d="m54.775 40.575h-14.2"/>
  <path d="m54.775 54.775v-14.2"/>
  <path d="m59.625 40.575v14.2"/>
  <path d="m59.625 54.775h14.2"/>
  <path d="m73.825 40.575h-14.2"/>
  <path d="m73.825 54.775v-14.2"/>
  <path d="m21.525 21.525v14.2"/>
  <path d="m21.525 35.725h14.2"/>
  <path d="m35.725 21.525h-14.2"/>
  <path d="m35.725 35.725v-14.2"/>
  <path d="m40.575 21.525v14.2"/>
  <path d="m40.575 35.725h14.2"/>
  <path d="m54.775 21.525h-14.2"/>
  <path d="m54.775 35.725v-14.2"/>
  <path d="m40.575 59.625v14.2"/>
  <path d="m40.575 73.825h14.2"/>
  <path d="m54.775 59.625h-14.2"/>
  <path d="m54.775 73.825v-14.2"/>
  <path d="m59.625 21.525v14.2"/>
  <path d="m59.625 35.725h14.2"/>
  <path d="m73.825 21.525h-14.2"/>
  <path d="m73.825 35.725v-14.2"/>
  <path d="m59.625 59.625v14.2"/>
  <path d="m59.625 73.825h14.2"/>
  <path d="m73.825 59.625h-14.2"/>
  <path d="m73.825 73.825v-14.2"/>
  <path d="m2.475 40.575v14.2"/>
  <path d="m2.475 54.775h14.2"/>
  <path d="m16.675 40.575h-14.2"/>
  <path d="m16.675 54.775v-14.2"/>
  <path d="m21.525 40.575v14.2"/>
  <path d="m21.525 54.775h14.2"/>
  <path d="m35.725 40.575h-14.2"/>
  <path d="m35.725 54.775v-14.2"/>
  <path d="m2.475 21.525v14.2"/>
  <path d="m2.475 35.725h14.2"/>
  <path d="m16.675 21.525h-14.2"/>
  <path d="m16.675 35.725v-14.2"/>
  <path d="m59.625 2.475v14.2"/>
  <path d="m59.625 16.675h14.2"/>
  <path d="m73.825 2.475h-14.2"/>
  <path d="m73.825 16.675v-14.2"/>
  <path d="m21.525 59.625v14.2"/>
  <path d="m21.525 73.825h14.2"/>
  <path d="m35.725 59.625h-14.2"/>
  <path d="m35.725 73.825v-14.2"/>
  <path d="m2.475 59.625v14.2"/>
  <path d="m2.475 73.825h14.2"/>
  <path d="m16.675 59.625h-14.2"/>
  <path d="m16.675 73.825v-14.2"/>
 </g>
 <g fill="#8BE9FD">
  <circle cx="42.595" cy="47.675" r=".875"/>
  <circle cx="47.675" cy="47.675" r="2"/>
  <circle cx="52.755" cy="47.675" r=".875"/>
  <circle cx="43.865" cy="45.135" r=".75"/>
  <circle cx="50.215" cy="42.595" r=".75"/>
  <circle cx="61.645" cy="47.675" r=".875"/>
  <circle cx="66.725" cy="47.675" r="2"/>
  <circle cx="71.805" cy="47.675" r=".875"/>
  <circle cx="62.915" cy="45.135" r=".75"/>
  <circle cx="69.265" cy="42.595" r=".75"/>
  <circle cx="23.545" cy="28.625" r=".875"/>
  <circle cx="28.625" cy="28.625" r="2"/>
  <circle cx="33.705" cy="28.625" r=".875"/>
  <circle cx="24.815" cy="26.085" r=".75"/>
  <circle cx="31.165" cy="23.545" r=".75"/>
  <circle cx="42.595" cy="28.625" r=".875"/>
  <circle cx="47.675" cy="28.625" r="2"/>
  <circle cx="52.755" cy="28.625" r=".875"/>
  <circle cx="43.865" cy="26.085" r=".75"/>
  <circle cx="50.215" cy="23.545" r=".75"/>
  <circle cx="42.595" cy="66.725" r=".875"/>
  <circle cx="47.675" cy="66.725" r="2"/>
  <circle cx="52.755" cy="66.725" r=".875"/>
  <circle cx="43.865" cy="64.185" r=".75"/>
  <circle cx="50.215" cy="61.645" r=".75"/>
  <circle cx="61.645" cy="28.625" r=".875"/>
  <circle cx="66.725" cy="28.625" r="2"/>
  <circle cx="71.805" cy="28.625" r=".875"/>
  <circle cx="62.915" cy="26.085" r=".75"/>
  <circle cx="69.265" cy="23.545" r=".75"/>
  <circle cx="61.645" cy="66.725" r=".875"/>
  <circle cx="66.725" cy="66.725" r="2"/>
  <circle cx="71.805" cy="66.725" r=".875"/>
  <circle cx="62.915" cy="64.185" r=".75"/>
  <circle cx="69.265" cy="61.645" r=".75"/>
  <circle cx="4.495" cy="47.675" r=".875"/>
  <circle cx="9.575" cy="47.675" r="2"/>
  <circle cx="14.655" cy="47.675" r=".875"/>
  <circle cx="5.765" cy="45.135" r=".75"/>
  <circle cx="12.115" cy="42.595" r=".75"/>
  <circle cx="23.545" cy="47.675" r=".875"/>
  <circle cx="28.625" cy="47.675" r="2"/>
  <circle cx="33.705" cy="47.675" r=".875"/>
  <circle cx="24.815" cy="45.135" r=".75"/>
  <circle cx="31.165" cy="42.595" r=".75"/>
  <circle cx="4.495" cy="28.625" r=".875"/>
  <circle cx="9.575" cy="28.625" r="2"/>
  <circle cx="14.655" cy="28.625" r=".875"/>
  <circle cx="5.765" cy="26.085" r=".75"/>
  <circle cx="12.115" cy="23.545" r=".75"/>
  <circle cx="61.645" cy="9.575" r=".875"/>
  <circle cx="66.725" cy="9.575" r="2"/>
  <circle cx="71.805" cy="9.575" r=".875"/>
  <circle cx="62.915" cy="7.035" r=".75"/>
  <circle cx="69.265" cy="4.495" r=".75"/>
  <circle cx="23.545" cy="66.725" r=".875"/>
  <circle cx="28.625" cy="66.725" r="2"/>
  <circle cx="33.705" cy="66.725" r=".875"/>
  <circle cx="24.815" cy="64.185" r=".75"/>
  <circle cx="31.165" cy="61.645" r=".75"/>
  <circle cx="4.495" cy="66.725" r=".875"/>
  <circle cx="9.575" cy="66.725" r="2"/>
  <circle cx="14.655" cy="66.725" r=".875"/>
  <circle cx="5.765" cy="64.185" r=".75"/>
  <circle cx="12.115" cy="61.645" r=".75"/>
 </g>
 <g fill="none" stroke="#BD93F9" stroke-linecap="round" stroke-linejoin="round" stroke-width=".15">
  <g transform="rotate(-90 73.71 70.852)">
   <text transform="scale(-1 1) translate(-147.42)" x="73.7100" y="71.3520" font-size="1.3333" opacity="0" stroke-opacity="0" text-anchor="middle" lengthAdjust="spacingAndGlyphs" textLength="3.1548">D12</text>
  </g>
  <g class="stroked-text">
   <desc>D12</desc>
   <path d="m74.165 69.638h-1"/>
   <path d="m73.165 69.638v0.2381"/>
   <path d="m73.165 69.876 0.0476 0.1429"/>
   <path d="m73.212 70.019 0.0953 0.0952"/>
   <path d="m73.308 70.114 0.0952 0.0476"/>
   <path d="m73.403 70.162 0.1905 0.0476"/>
   <path d="m73.593 70.209h0.1428"/>
   <path d="m73.736 70.209 0.1905-0.0476"/>
   <path d="m73.927 70.162 0.0953-0.0476"/>
   <path d="m74.022 70.114 0.0952-0.0952"/>
   <path d="m74.117 70.019 0.0476-0.1429"/>
   <path d="m74.165 69.876v-0.2381"/>
   <path d="m74.165 71.162v-0.5714"/>
   <path d="m74.165 70.876h-1"/>
   <path d="m73.165 70.876 0.1429-0.0952"/>
   <path d="m73.308 70.781 0.0952-0.0953"/>
   <path d="m73.403 70.685 0.0476-0.0952"/>
   <path d="m73.26 71.542-0.0477 0.0476"/>
   <path d="m73.212 71.59-0.0476 0.0952"/>
   <path d="m73.165 71.685v0.2381"/>
   <path d="m73.165 71.923 0.0476 0.0953"/>
   <path d="m73.212 72.019 0.0477 0.0476"/>
   <path d="m73.26 72.066 0.0952 0.0476"/>
   <path d="m73.355 72.114h0.0952"/>
   <path d="m73.45 72.114 0.1429-0.0476"/>
   <path d="m73.593 72.066 0.5714-0.5714"/>
   <path d="m74.165 71.495v0.619"/>
  </g>
  <g transform="rotate(-90 35.61 70.852)">
   <text transform="scale(-1 1) translate(-71.22)" x="35.6100" y="71.3520" font-size="1.3333" opacity="0" stroke-opacity="0" text-anchor="middle" lengthAdjust="spacingAndGlyphs" textLength="3.1548">D10</text>
  </g>
  <g class="stroked-text">
   <desc>D10</desc>
   <path d="m36.065 69.638h-1"/>
   <path d="m35.065 69.638v0.2381"/>
   <path d="m35.065 69.876 0.0476 0.1429"/>
   <path d="m35.112 70.019 0.0953 0.0952"/>
   <path d="m35.208 70.114 0.0952 0.0476"/>
   <path d="m35.303 70.162 0.1905 0.0476"/>
   <path d="m35.493 70.209h0.1428"/>
   <path d="m35.636 70.209 0.1905-0.0476"/>
   <path d="m35.827 70.162 0.0953-0.0476"/>
   <path d="m35.922 70.114 0.0952-0.0952"/>
   <path d="m36.017 70.019 0.0476-0.1429"/>
   <path d="m36.065 69.876v-0.2381"/>
   <path d="m36.065 71.162v-0.5714"/>
   <path d="m36.065 70.876h-1"/>
   <path d="m35.065 70.876 0.1429-0.0952"/>
   <path d="m35.208 70.781 0.0952-0.0953"/>
   <path d="m35.303 70.685 0.0476-0.0952"/>
   <path d="m35.065 71.781v0.0952"/>
   <path d="m35.065 71.876 0.0476 0.0952"/>
   <path d="m35.112 71.971 0.0477 0.0477"/>
   <path d="m35.16 72.019 0.0952 0.0476"/>
   <path d="m35.255 72.066 0.1905 0.0476"/>
   <path d="m35.446 72.114h0.2381"/>
   <path d="m35.684 72.114 0.1904-0.0476"/>
   <path d="m35.874 72.066 0.0953-0.0476"/>
   <path d="m35.97 72.019 0.0476-0.0477"/>
   <path d="m36.017 71.971 0.0476-0.0952"/>
   <path d="m36.065 71.876v-0.0952"/>
   <path d="m36.065 71.781-0.0476-0.0953"/>
   <path d="m36.017 71.685-0.0476-0.0476"/>
   <path d="m35.97 71.638-0.0953-0.0476"/>
   <path d="m35.874 71.59-0.1904-0.0476"/>
   <path d="m35.684 71.542h-0.2381"/>
   <path d="m35.446 71.542-0.1905 0.0476"/>
   <path d="m35.255 71.59-0.0952 0.0476"/>
   <path d="m35.16 71.638-0.0477 0.0476"/>
   <path d="m35.112 71.685-0.0476 0.0953"/>
  </g>
  <g transform="rotate(-90 16.56 32.752)">
   <text transform="scale(-1 1) translate(-33.12)" x="16.5600" y="33.2520" font-size="1.3333" opacity="0" stroke-opacity="0" text-anchor="middle" lengthAdjust="spacingAndGlyphs" textLength="2.2024">D1</text>
  </g>
  <g class="stroked-text">
   <desc>D1</desc>
   <path d="m17.015 32.014h-1"/>
   <path d="m16.015 32.014v0.2381"/>
   <path d="m16.015 32.252 0.0476 0.1429"/>
   <path d="m16.062 32.395 0.0953 0.0952"/>
   <path d="m16.158 32.49 0.0952 0.0476"/>
   <path d="m16.253 32.538 0.1905 0.0476"/>
   <path d="m16.443 32.585h0.1428"/>
   <path d="m16.586 32.585 0.1905-0.0476"/>
   <path d="m16.777 32.538 0.0953-0.0476"/>
   <path d="m16.872 32.49 0.0952-0.0952"/>
   <path d="m16.967 32.395 0.0476-0.1429"/>
   <path d="m17.015 32.252v-0.2381"/>
   <path d="m17.015 33.538v-0.5714"/>
   <path d="m17.015 33.252h-1"/>
   <path d="m16.015 33.252 0.1429-0.0952"/>
   <path d="m16.158 33.157 0.0952-0.0953"/>
   <path d="m16.253 33.062 0.0476-0.0952"/>
  </g>
  <g transform="rotate(-90 73.71 51.802)">
   <text transform="scale(-1 1) translate(-147.42)" x="73.7100" y="52.3020" font-size="1.3333" opacity="0" stroke-opacity="0" text-anchor="middle" lengthAdjust="spacingAndGlyphs" textLength="2.2024">D8</text>
  </g>
  <g class="stroked-text">
   <desc>D8</desc>
   <path d="m74.165 51.064h-1"/>
   <path d="m73.165 51.064v0.2381"/>
   <path d="m73.165 51.302 0.0476 0.1429"/>
   <path d="m73.212 51.445 0.0953 0.0952"/>
   <path d="m73.308 51.54 0.0952 0.0476"/>
   <path d="m73.403 51.588 0.1905 0.0476"/>
   <path d="m73.593 51.635h0.1428"/>
   <path d="m73.736 51.635 0.1905-0.0476"/>
   <path d="m73.927 51.588 0.0953-0.0476"/>
   <path d="m74.022 51.54 0.0952-0.0952"/>
   <path d="m74.117 51.445 0.0476-0.1429"/>
   <path d="m74.165 51.302v-0.2381"/>
   <path d="m73.593 52.207-0.0476-0.0953"/>
   <path d="m73.546 52.112-0.0476-0.0476"/>
   <path d="m73.498 52.064-0.0953-0.0476"/>
   <path d="m73.403 52.016h-0.0476"/>
   <path d="m73.355 52.016-0.0952 0.0476"/>
   <path d="m73.26 52.064-0.0477 0.0476"/>
   <path d="m73.212 52.112-0.0476 0.0953"/>
   <path d="m73.165 52.207v0.1904"/>
   <path d="m73.165 52.397 0.0476 0.0953"/>
   <path d="m73.212 52.492 0.0477 0.0476"/>
   <path d="m73.26 52.54 0.0952 0.0476"/>
   <path d="m73.355 52.588h0.0476"/>
   <path d="m73.403 52.588 0.0953-0.0476"/>
   <path d="m73.498 52.54 0.0476-0.0476"/>
   <path d="m73.546 52.492 0.0476-0.0953"/>
   <path d="m73.593 52.397v-0.1904"/>
   <path d="m73.593 52.207 0.0476-0.0953"/>
   <path d="m73.641 52.112 0.0476-0.0476"/>
   <path d="m73.689 52.064 0.0953-0.0476"/>
   <path d="m73.784 52.016h0.1904"/>
   <path d="m73.974 52.016 0.0953 0.0476"/>
   <path d="m74.07 52.064 0.0476 0.0476"/>
   <path d="m74.117 52.112 0.0476 0.0953"/>
   <path d="m74.165 52.207v0.1904"/>
   <path d="m74.165 52.397-0.0476 0.0953"/>
   <path d="m74.117 52.492-0.0476 0.0476"/>
   <path d="m74.07 52.54-0.0953 0.0476"/>
   <path d="m73.974 52.588h-0.1904"/>
   <path d="m73.784 52.588-0.0953-0.0476"/>
   <path d="m73.689 52.54-0.0476-0.0476"/>
   <path d="m73.641 52.492-0.0476-0.0953"/>
  </g>
  <g transform="rotate(-90 35.61 32.752)">
   <text transform="scale(-1 1) translate(-71.22)" x="35.6100" y="33.2520" font-size="1.3333" opacity="0" stroke-opacity="0" text-anchor="middle" lengthAdjust="spacingAndGlyphs" textLength="2.2024">D2</text>
  </g>
  <g class="stroked-text">
   <desc>D2</desc>
   <path d="m36.065 32.014h-1"/>
   <path d="m35.065 32.014v0.2381"/>
   <path d="m35.065 32.252 0.0476 0.1429"/>
   <path d="m35.112 32.395 0.0953 0.0952"/>
   <path d="m35.208 32.49 0.0952 0.0476"/>
   <path d="m35.303 32.538 0.1905 0.0476"/>
   <path d="m35.493 32.585h0.1428"/>
   <path d="m35.636 32.585 0.1905-0.0476"/>
   <path d="m35.827 32.538 0.0953-0.0476"/>
   <path d="m35.922 32.49 0.0952-0.0952"/>
   <path d="m36.017 32.395 0.0476-0.1429"/>
   <path d="m36.065 32.252v-0.2381"/>
   <path d="m35.16 32.966-0.0477 0.0476"/>
   <path d="m35.112 33.014-0.0476 0.0952"/>
   <path d="m35.065 33.109v0.2381"/>
   <path d="m35.065 33.347 0.0476 0.0953"/>
   <path d="m35.112 33.442 0.0477 0.0476"/>
   <path d="m35.16 33.49 0.0952 0.0476"/>
   <path d="m35.255 33.538h0.0952"/>
   <path d="m35.35 33.538 0.1429-0.0476"/>
   <path d="m35.493 33.49 0.5714-0.5714"/>
   <path d="m36.065 32.919v0.619"/>
  </g>
  <g transform="rotate(-90 54.66 32.752)">
   <text transform="scale(-1 1) translate(-109.32)" x="54.6600" y="33.2520" font-size="1.3333" opacity="0" stroke-opacity="0" text-anchor="middle" lengthAdjust="spacingAndGlyphs" textLength="2.2024">D3</text>
  </g>
  <g class="stroked-text">
   <desc>D3</desc>
   <path d="m55.115 32.014h-1"/>
   <path d="m54.115 32.014v0.2381"/>
   <path d="m54.115 32.252 0.0476 0.1429"/>
   <path d="m54.162 32.395 0.0953 0.0952"/>
   <path d="m54.258 32.49 0.0952 0.0476"/>
   <path d="m54.353 32.538 0.1905 0.0476"/>
   <path d="m54.543 32.585h0.1428"/>
   <path d="m54.686 32.585 0.1905-0.0476"/>
   <path d="m54.877 32.538 0.0953-0.0476"/>
   <path d="m54.972 32.49 0.0952-0.0952"/>
   <path d="m55.067 32.395 0.0476-0.1429"/>
   <path d="m55.115 32.252v-0.2381"/>
   <path d="m54.115 32.919v0.619"/>
   <path d="m54.115 33.538 0.381-0.3333"/>
   <path d="m54.496 33.204v0.1428"/>
   <path d="m54.496 33.347 0.0476 0.0953"/>
   <path d="m54.543 33.442 0.0476 0.0476"/>
   <path d="m54.591 33.49 0.0952 0.0476"/>
   <path d="m54.686 33.538h0.2381"/>
   <path d="m54.924 33.538 0.0953-0.0476"/>
   <path d="m55.02 33.49 0.0476-0.0476"/>
   <path d="m55.067 33.442 0.0476-0.0953"/>
   <path d="m55.115 33.347v-0.2857"/>
   <path d="m55.115 33.062-0.0476-0.0952"/>
   <path d="m55.067 32.966-0.0476-0.0476"/>
  </g>
  <g transform="rotate(-90 73.71 13.702)">
   <text transform="scale(-1 1) translate(-147.42)" x="73.7100" y="14.2020" font-size="1.3333" opacity="0" stroke-opacity="0" text-anchor="middle" lengthAdjust="spacingAndGlyphs" textLength="3.1548">D13</text>
  </g>
  <g class="stroked-text">
   <desc>D13</desc>
   <path d="m74.165 12.488h-1"/>
   <path d="m73.165 12.488v0.2381"/>
   <path d="m73.165 12.726 0.0476 0.1429"/>
   <path d="m73.212 12.869 0.0953 0.0952"/>
   <path d="m73.308 12.964 0.0952 0.0476"/>
   <path d="m73.403 13.012 0.1905 0.0476"/>
   <path d="m73.593 13.059h0.1428"/>
   <path d="m73.736 13.059 0.1905-0.0476"/>
   <path d="m73.927 13.012 0.0953-0.0476"/>
   <path d="m74.022 12.964 0.0952-0.0952"/>
   <path d="m74.117 12.869 0.0476-0.1429"/>
   <path d="m74.165 12.726v-0.2381"/>
   <path d="m74.165 14.012v-0.5714"/>
   <path d="m74.165 13.726h-1"/>
   <path d="m73.165 13.726 0.1429-0.0952"/>
   <path d="m73.308 13.631 0.0952-0.0953"/>
   <path d="m73.403 13.535 0.0476-0.0952"/>
   <path d="m73.165 14.345v0.619"/>
   <path d="m73.165 14.964 0.381-0.3333"/>
   <path d="m73.546 14.631v0.1428"/>
   <path d="m73.546 14.773 0.0476 0.0953"/>
   <path d="m73.593 14.869 0.0476 0.0476"/>
   <path d="m73.641 14.916 0.0952 0.0476"/>
   <path d="m73.736 14.964h0.2381"/>
   <path d="m73.974 14.964 0.0953-0.0476"/>
   <path d="m74.07 14.916 0.0476-0.0476"/>
   <path d="m74.117 14.869 0.0476-0.0953"/>
   <path d="m74.165 14.773v-0.2857"/>
   <path d="m74.165 14.488-0.0476-0.0952"/>
   <path d="m74.117 14.392-0.0476-0.0476"/>
  </g>
  <g transform="rotate(-90 54.66 70.852)">
   <text transform="scale(-1 1) translate(-109.32)" x="54.6600" y="71.3520" font-size="1.3333" opacity="0" stroke-opacity="0" text-anchor="middle" lengthAdjust="spacingAndGlyphs" textLength="3.1548">D11</text>
  </g>
  <g class="stroked-text">
   <desc>D11</desc>
   <path d="m55.115 69.638h-1"/>
   <path d="m54.115 69.638v0.2381"/>
   <path d="m54.115 69.876 0.0476 0.1429"/>
   <path d="m54.162 70.019 0.0953 0.0952"/>
   <path d="m54.258 70.114 0.0952 0.0476"/>
   <path d="m54.353 70.162 0.1905 0.0476"/>
   <path d="m54.543 70.209h0.1428"/>
   <path d="m54.686 70.209 0.1905-0.0476"/>
   <path d="m54.877 70.162 0.0953-0.0476"/>
   <path d="m54.972 70.114 0.0952-0.0952"/>
   <path d="m55.067 70.019 0.0476-0.1429"/>
   <path d="m55.115 69.876v-0.2381"/>
   <path d="m55.115 71.162v-0.5714"/>
   <path d="m55.115 70.876h-1"/>
   <path d="m54.115 70.876 0.1429-0.0952"/>
   <path d="m54.258 70.781 0.0952-0.0953"/>
   <path d="m54.353 70.685 0.0476-0.0952"/>
   <path d="m55.115 72.114v-0.5714"/>
   <path d="m55.115 71.828h-1"/>
   <path d="m54.115 71.828 0.1429-0.0952"/>
   <path d="m54.258 71.733 0.0952-0.0953"/>
   <path d="m54.353 71.638 0.0476-0.0952"/>
  </g>
  <g transform="rotate(-90 73.71 32.752)">
   <text transform="scale(-1 1) translate(-147.42)" x="73.7100" y="33.2520" font-size="1.3333" opacity="0" stroke-opacity="0" text-anchor="middle" lengthAdjust="spacingAndGlyphs" textLength="2.2024">D4</text>
  </g>
  <g class="stroked-text">
   <desc>D4</desc>
   <path d="m74.165 32.014h-1"/>
   <path d="m73.165 32.014v0.2381"/>
   <path d="m73.165 32.252 0.0476 0.1429"/>
   <path d="m73.212 32.395 0.0953 0.0952"/>
   <path d="m73.308 32.49 0.0952 0.0476"/>
   <path d="m73.403 32.538 0.1905 0.0476"/>
   <path d="m73.593 32.585h0.1428"/>
   <path d="m73.736 32.585 0.1905-0.0476"/>
   <path d="m73.927 32.538 0.0953-0.0476"/>
   <path d="m74.022 32.49 0.0952-0.0952"/>
   <path d="m74.117 32.395 0.0476-0.1429"/>
   <path d="m74.165 32.252v-0.2381"/>
   <path d="m73.498 33.442h0.6666"/>
   <path d="m73.117 33.204 0.7143-0.2381"/>
   <path d="m73.832 32.966v0.619"/>
  </g>
  <g transform="rotate(-90 35.61 51.802)">
   <text transform="scale(-1 1) translate(-71.22)" x="35.6100" y="52.3020" font-size="1.3333" opacity="0" stroke-opacity="0" text-anchor="middle" lengthAdjust="spacingAndGlyphs" textLength="2.2024">D6</text>
  </g>
  <g class="stroked-text">
   <desc>D6</desc>
   <path d="m36.065 51.064h-1"/>
   <path d="m35.065 51.064v0.2381"/>
   <path d="m35.065 51.302 0.0476 0.1429"/>
   <path d="m35.112 51.445 0.0953 0.0952"/>
   <path d="m35.208 51.54 0.0952 0.0476"/>
   <path d="m35.303 51.588 0.1905 0.0476"/>
   <path d="m35.493 51.635h0.1428"/>
   <path d="m35.636 51.635 0.1905-0.0476"/>
   <path d="m35.827 51.588 0.0953-0.0476"/>
   <path d="m35.922 51.54 0.0952-0.0952"/>
   <path d="m36.017 51.445 0.0476-0.1429"/>
   <path d="m36.065 51.302v-0.2381"/>
   <path d="m35.065 52.492v-0.1905"/>
   <path d="m35.065 52.302 0.0476-0.0952"/>
   <path d="m35.112 52.207 0.0477-0.0477"/>
   <path d="m35.16 52.159 0.1428-0.0952"/>
   <path d="m35.303 52.064 0.1905-0.0476"/>
   <path d="m35.493 52.016h0.3809"/>
   <path d="m35.874 52.016 0.0953 0.0476"/>
   <path d="m35.97 52.064 0.0476 0.0476"/>
   <path d="m36.017 52.112 0.0476 0.0953"/>
   <path d="m36.065 52.207v0.1904"/>
   <path d="m36.065 52.397-0.0476 0.0953"/>
   <path d="m36.017 52.492-0.0476 0.0476"/>
   <path d="m35.97 52.54-0.0953 0.0476"/>
   <path d="m35.874 52.588h-0.2381"/>
   <path d="m35.636 52.588-0.0952-0.0476"/>
   <path d="m35.541 52.54-0.0476-0.0476"/>
   <path d="m35.493 52.492-0.0476-0.0953"/>
   <path d="m35.446 52.397v-0.1904"/>
   <path d="m35.446 52.207 0.0476-0.0953"/>
   <path d="m35.493 52.112 0.0476-0.0476"/>
   <path d="m35.541 52.064 0.0952-0.0476"/>
  </g>
  <g transform="rotate(-90 54.66 51.802)">
   <text transform="scale(-1 1) translate(-109.32)" x="54.6600" y="52.3020" font-size="1.3333" opacity="0" stroke-opacity="0" text-anchor="middle" lengthAdjust="spacingAndGlyphs" textLength="2.2024">D7</text>
  </g>
  <g class="stroked-text">
   <desc>D7</desc>
   <path d="m55.115 51.064h-1"/>
   <path d="m54.115 51.064v0.2381"/>
   <path d="m54.115 51.302 0.0476 0.1429"/>
   <path d="m54.162 51.445 0.0953 0.0952"/>
   <path d="m54.258 51.54 0.0952 0.0476"/>
   <path d="m54.353 51.588 0.1905 0.0476"/>
   <path d="m54.543 51.635h0.1428"/>
   <path d="m54.686 51.635 0.1905-0.0476"/>
   <path d="m54.877 51.588 0.0953-0.0476"/>
   <path d="m54.972 51.54 0.0952-0.0952"/>
   <path d="m55.067 51.445 0.0476-0.1429"/>
   <path d="m55.115 51.302v-0.2381"/>
   <path d="m54.115 51.969v0.6666"/>
   <path d="m54.115 52.635 1-0.4285"/>
  </g>
  <g transform="rotate(-90 16.56 70.852)">
   <text transform="scale(-1 1) translate(-33.12)" x="16.5600" y="71.3520" font-size="1.3333" opacity="0" stroke-opacity="0" text-anchor="middle" lengthAdjust="spacingAndGlyphs" textLength="2.2024">D9</text>
  </g>
  <g class="stroked-text">
   <desc>D9</desc>
   <path d="m17.015 70.114h-1"/>
   <path d="m16.015 70.114v0.2381"/>
   <path d="m16.015 70.352 0.0476 0.1429"/>
   <path d="m16.062 70.495 0.0953 0.0952"/>
   <path d="m16.158 70.59 0.0952 0.0476"/>
   <path d="m16.253 70.638 0.1905 0.0476"/>
   <path d="m16.443 70.685h0.1428"/>
   <path d="m16.586 70.685 0.1905-0.0476"/>
   <path d="m16.777 70.638 0.0953-0.0476"/>
   <path d="m16.872 70.59 0.0952-0.0952"/>
   <path d="m16.967 70.495 0.0476-0.1429"/>
   <path d="m17.015 70.352v-0.2381"/>
   <path d="m17.015 71.162v0.1905"/>
   <path d="m17.015 71.352-0.0476 0.0952"/>
   <path d="m16.967 71.447-0.0476 0.0477"/>
   <path d="m16.92 71.495-0.1429 0.0952"/>
   <path d="m16.777 71.59-0.1905 0.0476"/>
   <path d="m16.586 71.638h-0.3809"/>
   <path d="m16.205 71.638-0.0952-0.0476"/>
   <path d="m16.11 71.59-0.0477-0.0476"/>
   <path d="m16.062 71.542-0.0476-0.0953"/>
   <path d="m16.015 71.447v-0.1904"/>
   <path d="m16.015 71.257 0.0476-0.0953"/>
   <path d="m16.062 71.162 0.0477-0.0476"/>
   <path d="m16.11 71.114 0.0952-0.0476"/>
   <path d="m16.205 71.066h0.2381"/>
   <path d="m16.443 71.066 0.0952 0.0476"/>
   <path d="m16.539 71.114 0.0476 0.0476"/>
   <path d="m16.586 71.162 0.0477 0.0953"/>
   <path d="m16.634 71.257v0.1904"/>
   <path d="m16.634 71.447-0.0477 0.0953"/>
   <path d="m16.586 71.542-0.0476 0.0476"/>
   <path d="m16.539 71.59-0.0952 0.0476"/>
  </g>
  <g transform="rotate(-90 16.56 51.802)">
   <text transform="scale(-1 1) translate(-33.12)" x="16.5600" y="52.3020" font-size="1.3333" opacity="0" stroke-opacity="0" text-anchor="middle" lengthAdjust="spacingAndGlyphs" textLength="2.2024">D5</text>
  </g>
  <g class="stroked-text">
   <desc>D5</desc>
   <path d="m17.015 51.064h-1"/>
   <path d="m16.015 51.064v0.2381"/>
   <path d="m16.015 51.302 0.0476 0.1429"/>
   <path d="m16.062 51.445 0.0953 0.0952"/>
   <path d="m16.158 51.54 0.0952 0.0476"/>
   <path d="m16.253 51.588 0.1905 0.0476"/>
   <path d="m16.443 51.635h0.1428"/>
   <path d="m16.586 51.635 0.1905-0.0476"/>
   <path d="m16.777 51.588 0.0953-0.0476"/>
   <path d="m16.872 51.54 0.0952-0.0952"/>
   <path d="m16.967 51.445 0.0476-0.1429"/>
   <path d="m17.015 51.302v-0.2381"/>
   <path d="m16.015 52.54v-0.4762"/>
   <path d="m16.015 52.064 0.4762-0.0476"/>
   <path d="m16.491 52.016-0.0476 0.0476"/>
   <path d="m16.443 52.064-0.0476 0.0952"/>
   <path d="m16.396 52.159v0.2381"/>
   <path d="m16.396 52.397 0.0476 0.0953"/>
   <path d="m16.443 52.492 0.0476 0.0476"/>
   <path d="m16.491 52.54 0.0952 0.0476"/>
   <path d="m16.586 52.588h0.2381"/>
   <path d="m16.824 52.588 0.0953-0.0476"/>
   <path d="m16.92 52.54 0.0476-0.0476"/>
   <path d="m16.967 52.492 0.0476-0.0953"/>
   <path d="m17.015 52.397v-0.2381"/>
   <path d="m17.015 52.159-0.0476-0.0952"/>
   <path d="m16.967 52.064-0.0476-0.0476"/>
  </g>
 </g>
 <g fill="none" stroke="#BD93F9" stroke-linecap="round" stroke-linejoin="round" stroke-width=".12">
  <path d="m70.805 69.075v3.86"/>
  <path d="m70.805 72.935h2"/>
  <path d="m72.805 69.075v3.86"/>
  <path d="m32.705 69.075v3.86"/>
  <path d="m32.705 72.935h2"/>
  <path d="m34.705 69.075v3.86"/>
  <path d="m13.655 30.975v3.86"/>
  <path d="m13.655 34.835h2"/>
  <path d="m15.655 30.975v3.86"/>
  <path d="m70.805 50.025v3.86"/>
  <path d="m70.805 53.885h2"/>
  <path d="m72.805 50.025v3.86"/>
  <path d="m32.705 30.975v3.86"/>
  <path d="m32.705 34.835h2"/>
  <path d="m34.705 30.975v3.86"/>
  <path d="m51.755 30.975v3.86"/>
  <path d="m51.755 34.835h2"/>
  <path d="m53.755 30.975v3.86"/>
  <path d="m70.805 11.925v3.86"/>
  <path d="m70.805 15.785h2"/>
  <path d="m72.805 11.925v3.86"/>
  <path d="m51.755 69.075v3.86"/>
  <path d="m51.755 72.935h2"/>
  <path d="m53.755 69.075v3.86"/>
  <path d="m70.805 30.975v3.86"/>
  <path d="m70.805 34.835h2"/>
  <path d="m72.805 30.975v3.86"/>
  <path d="m32.705 50.025v3.86"/>
  <path d="m32.705 53.885h2"/>
  <path d="m34.705 50.025v3.86"/>
  <path d="m51.755 50.025v3.86"/>
  <path d="m51.755 53.885h2"/>
  <path d="m53.755 50.025v3.86"/>
  <path d="m13.655 69.075v3.86"/>
  <path d="m13.655 72.935h2"/>
  <path d="m15.655 69.075v3.86"/>
  <path d="m13.655 50.025v3.86"/>
  <path d="m13.655 53.885h2"/>
  <path d="m15.655 50.025v3.86"/>
 </g>
 <g>
  <g fill="#BD93F9">
   <circle cx="42.595" cy="47.675" r=".875"/>
   <circle cx="47.675" cy="47.675" r="2"/>
   <circle cx="52.755" cy="47.675" r=".875"/>
   <circle cx="43.865" cy="45.135" r=".75"/>
   <circle cx="50.215" cy="42.595" r=".75"/>
   <circle cx="61.645" cy="47.675" r=".875"/>
   <circle cx="66.725" cy="47.675" r="2"/>
   <circle cx="71.805" cy="47.675" r=".875"/>
   <circle cx="62.915" cy="45.135" r=".75"/>
   <circle cx="69.265" cy="42.595" r=".75"/>
   <circle cx="23.545" cy="28.625" r=".875"/>
   <circle cx="28.625" cy="28.625" r="2"/>
   <circle cx="33.705" cy="28.625" r=".875"/>
   <circle cx="24.815" cy="26.085" r=".75"/>
   <circle cx="31.165" cy="23.545" r=".75"/>
   <circle cx="42.595" cy="28.625" r=".875"/>
   <circle cx="47.675" cy="28.625" r="2"/>
   <circle cx="52.755" cy="28.625" r=".875"/>
   <circle cx="43.865" cy="26.085" r=".75"/>
   <circle cx="50.215" cy="23.545" r=".75"/>
   <circle cx="42.595" cy="66.725" r=".875"/>
   <circle cx="47.675" cy="66.725" r="2"/>
   <circle cx="52.755" cy="66.725" r=".875"/>
   <circle cx="43.865" cy="64.185" r=".75"/>
   <circle cx="50.215" cy="61.645" r=".75"/>
   <circle cx="61.645" cy="28.625" r=".875"/>
   <circle cx="66.725" cy="28.625" r="2"/>
   <circle cx="71.805" cy="28.625" r=".875"/>
   <circle cx="62.915" cy="26.085" r=".75"/>
   <circle cx="69.265" cy="23.545" r=".75"/>
   <circle cx="61.645" cy="66.725" r=".875"/>
   <circle cx="66.725" cy="66.725" r="2"/>
   <circle cx="71.805" cy="66.725" r=".875"/>
   <circle cx="62.915" cy="64.185" r=".75"/>
   <circle cx="69.265" cy="61.645" r=".75"/>
   <circle cx="4.495" cy="47.675" r=".875"/>
   <circle cx="9.575" cy="47.675" r="2"/>
   <circle cx="14.655" cy="47.675" r=".875"/>
   <circle cx="5.765" cy="45.135" r=".75"/>
   <circle cx="12.115" cy="42.595" r=".75"/>
   <circle cx="23.545" cy="47.675" r=".875"/>
   <circle cx="28.625" cy="47.675" r="2"/>
   <circle cx="33.705" cy="47.675" r=".875"/>
   <circle cx="24.815" cy="45.135" r=".75"/>
   <circle cx="31.165" cy="42.595" r=".75"/>
   <circle cx="4.495" cy="28.625" r=".875"/>
   <circle cx="9.575" cy="28.625" r="2"/>
   <circle cx="14.655" cy="28.625" r=".875"/>
   <circle cx="5.765" cy="26.085" r=".75"/>
   <circle cx="12.115" cy="23.545" r=".75"/>
   <circle cx="61.645" cy="9.575" r=".875"/>
   <circle cx="66.725" cy="9.575" r="2"/>
   <circle cx="71.805" cy="9.575" r=".875"/>
   <circle cx="62.915" cy="7.035" r=".75"/>
   <circle cx="69.265" cy="4.495" r=".75"/>
   <circle cx="23.545" cy="66.725" r=".875"/>
   <circle cx="28.625" cy="66.725" r="2"/>
   <circle cx="33.705" cy="66.725" r=".875"/>
   <circle cx="24.815" cy="64.185" r=".75"/>
   <circle cx="31.165" cy="61.645" r=".75"/>
   <circle cx="4.495" cy="66.725" r=".875"/>
   <circle cx="9.575" cy="66.725" r="2"/>
   <circle cx="14.655" cy="66.725" r=".875"/>
   <circle cx="5.765" cy="64.185" r=".75"/>
   <circle cx="12.115" cy="61.645" r=".75"/>
  </g>
  <g>
   <circle cx="42.595" cy="47.675" r=".875"/>
   <circle cx="47.675" cy="47.675" r="2"/>
   <circle cx="52.755" cy="47.675" r=".875"/>
   <circle cx="43.865" cy="45.135" r=".75"/>
   <circle cx="50.215" cy="42.595" r=".75"/>
   <circle cx="61.645" cy="47.675" r=".875"/>
   <circle cx="66.725" cy="47.675" r="2"/>
   <circle cx="71.805" cy="47.675" r=".875"/>
   <circle cx="62.915" cy="45.135" r=".75"/>
   <circle cx="69.265" cy="42.595" r=".75"/>
   <circle cx="23.545" cy="28.625" r=".875"/>
   <circle cx="28.625" cy="28.625" r="2"/>
   <circle cx="33.705" cy="28.625" r=".875"/>
   <circle cx="24.815" cy="26.085" r=".75"/>
   <circle cx="31.165" cy="23.545" r=".75"/>
   <circle cx="42.595" cy="28.625" r=".875"/>
   <circle cx="47.675" cy="28.625" r="2"/>
   <circle cx="52.755" cy="28.625" r=".875"/>
   <circle cx="43.865" cy="26.085" r=".75"/>
   <circle cx="50.215" cy="23.545" r=".75"/>
   <circle cx="42.595" cy="66.725" r=".875"/>
   <circle cx="47.675" cy="66.725" r="2"/>
   <circle cx="52.755" cy="66.725" r=".875"/>
   <circle cx="43.865" cy="64.185" r=".75"/>
   <circle cx="50.215" cy="61.645" r=".75"/>
   <circle cx="61.645" cy="28.625" r=".875"/>
   <circle cx="66.725" cy="28.625" r="2"/>
   <circle cx="71.805" cy="28.625" r=".875"/>
   <circle cx="62.915" cy="26.085" r=".75"/>
   <circle cx="69.265" cy="23.545" r=".75"/>
   <circle cx="61.645" cy="66.725" r=".875"/>
   <circle cx="66.725" cy="66.725" r="2"/>
   <circle cx="71.805" cy="66.725" r=".875"/>
   <circle cx="62.915" cy="64.185" r=".75"/>
   <circle cx="69.265" cy="61.645" r=".75"/>
   <circle cx="4.495" cy="47.675" r=".875"/>
   <circle cx="9.575" cy="47.675" r="2"/>
   <circle cx="14.655" cy="47.675" r=".875"/>
   <circle cx="5.765" cy="45.135" r=".75"/>
   <circle cx="12.115" cy="42.595" r=".75"/>
   <circle cx="23.545" cy="47.675" r=".875"/>
   <circle cx="28.625" cy="47.675" r="2"/>
   <circle cx="33.705" cy="47.675" r=".875"/>
   <circle cx="24.815" cy="45.135" r=".75"/>
   <circle cx="31.165" cy="42.595" r=".75"/>
   <circle cx="4.495" cy="28.625" r=".875"/>
   <circle cx="9.575" cy="28.625" r="2"/>
   <circle cx="14.655" cy="28.625" r=".875"/>
   <circle cx="5.765" cy="26.085" r=".75"/>
   <circle cx="12.115" cy="23.545" r=".75"/>
   <circle cx="61.645" cy="9.575" r=".875"/>
   <circle cx="66.725" cy="9.575" r="2"/>
   <circle cx="71.805" cy="9.575" r=".875"/>
   <circle cx="62.915" cy="7.035" r=".75"/>
   <circle cx="69.265" cy="4.495" r=".75"/>
   <circle cx="23.545" cy="66.725" r=".875"/>
   <circle cx="28.625" cy="66.725" r="2"/>
   <circle cx="33.705" cy="66.725" r=".875"/>
   <circle cx="24.815" cy="64.185" r=".75"/>
   <circle cx="31.165" cy="61.645" r=".75"/>
   <circle cx="4.495" cy="66.725" r=".875"/>
   <circle cx="9.575" cy="66.725" r="2"/>
   <circle cx="14.655" cy="66.725" r=".875"/>
   <circle cx="5.765" cy="64.185" r=".75"/>
   <circle cx="12.115" cy="61.645" r=".75"/>
  </g>
  <g fill="#f55">
   <circle cx="43.865" cy="45.135" r="1.25"/>
   <circle cx="50.215" cy="42.595" r="1.25"/>
   <circle cx="62.915" cy="45.135" r="1.25"/>
   <circle cx="69.265" cy="42.595" r="1.25"/>
   <circle cx="24.815" cy="26.085" r="1.25"/>
   <circle cx="31.165" cy="23.545" r="1.25"/>
   <circle cx="43.865" cy="26.085" r="1.25"/>
   <circle cx="50.215" cy="23.545" r="1.25"/>
   <circle cx="43.865" cy="64.185" r="1.25"/>
   <circle cx="50.215" cy="61.645" r="1.25"/>
   <circle cx="62.915" cy="26.085" r="1.25"/>
   <circle cx="69.265" cy="23.545" r="1.25"/>
   <circle cx="62.915" cy="64.185" r="1.25"/>
   <circle cx="69.265" cy="61.645" r="1.25"/>
   <circle cx="5.765" cy="45.135" r="1.25"/>
   <circle cx="12.115" cy="42.595" r="1.25"/>
   <circle cx="24.815" cy="45.135" r="1.25"/>
   <circle cx="31.165" cy="42.595" r="1.25"/>
   <circle cx="5.765" cy="26.085" r="1.25"/>
   <circle cx="12.115" cy="23.545" r="1.25"/>
   <circle cx="62.915" cy="7.035" r="1.25"/>
   <circle cx="69.265" cy="4.495" r="1.25"/>
   <circle cx="24.815" cy="64.185" r="1.25"/>
   <circle cx="31.165" cy="61.645" r="1.25"/>
   <circle cx="5.765" cy="64.185" r="1.25"/>
   <circle cx="12.115" cy="61.645" r="1.25"/>
  </g>
 </g>
 <g fill="none" stroke="#f55" stroke-linecap="round" stroke-linejoin="round" stroke-width=".2">
  <path d="m5.765 45.135v19.05"/>
  <path d="m5.765 26.085v19.05"/>
  <path d="m24.815 26.085v19.05"/>
  <path d="m24.815 45.135v19.05"/>
  <path d="m43.865 26.085v19.05"/>
  <path d="m43.865 45.135v19.05"/>
  <path d="m62.915 45.135v19.05"/>
  <path d="m62.915 26.085v19.05"/>
 </g>
 <g fill="#fff">
  <circle cx="42.595" cy="47.675" r=".875"/>
  <circle cx="47.675" cy="47.675" r="2"/>
  <circle cx="52.755" cy="47.675" r=".875"/>
  <circle cx="43.865" cy="45.135" r=".75"/>
  <circle cx="50.215" cy="42.595" r=".75"/>
  <circle cx="61.645" cy="47.675" r=".875"/>
  <circle cx="66.725" cy="47.675" r="2"/>
  <circle cx="71.805" cy="47.675" r=".875"/>
  <circle cx="62.915" cy="45.135" r=".75"/>
  <circle cx="69.265" cy="42.595" r=".75"/>
  <circle cx="23.545" cy="28.625" r=".875"/>
  <circle cx="28.625" cy="28.625" r="2"/>
  <circle cx="33.705" cy="28.625" r=".875"/>
  <circle cx="24.815" cy="26.085" r=".75"/>
  <circle cx="31.165" cy="23.545" r=".75"/>
  <circle cx="42.595" cy="28.625" r=".875"/>
  <circle cx="47.675" cy="28.625" r="2"/>
  <circle cx="52.755" cy="28.625" r=".875"/>
  <circle cx="43.865" cy="26.085" r=".75"/>
  <circle cx="50.215" cy="23.545" r=".75"/>
  <circle cx="42.595" cy="66.725" r=".875"/>
  <circle cx="47.675" cy="66.725" r="2"/>
  <circle cx="52.755" cy="66.725" r=".875"/>
  <circle cx="43.865" cy="64.185" r=".75"/>
  <circle cx="50.215" cy="61.645" r=".75"/>
  <circle cx="61.645" cy="28.625" r=".875"/>
  <circle cx="66.725" cy="28.625" r="2"/>
  <circle cx="71.805" cy="28.625" r=".875"/>
  <circle cx="62.915" cy="26.085" r=".75"/>
  <circle cx="69.265" cy="23.545" r=".75"/>
  <circle cx="61.645" cy="66.725" r=".875"/>
  <circle cx="66.725" cy="66.725" r="2"/>
  <circle cx="71.805" cy="66.725" r=".875"/>
  <circle cx="62.915" cy="64.185" r=".75"/>
  <circle cx="69.265" cy="61.645" r=".75"/>
  <circle cx="4.495" cy="47.675" r=".875"/>
  <circle cx="9.575" cy="47.675" r="2"/>
  <circle cx="14.655" cy="47.675" r=".875"/>
  <circle cx="5.765" cy="45.135" r=".75"/>
  <circle cx="12.115" cy="42.595" r=".75"/>
  <circle cx="23.545" cy="47.675" r=".875"/>
  <circle cx="28.625" cy="47.675" r="2"/>
  <circle cx="33.705" cy="47.675" r=".875"/>
  <circle cx="24.815" cy="45.135" r=".75"/>
  <circle cx="31.165" cy="42.595" r=".75"/>
  <circle cx="4.495" cy="28.625" r=".875"/>
  <circle cx="9.575" cy="28.625" r="2"/>
  <circle cx="14.655" cy="28.625" r=".875"/>
  <circle cx="5.765" cy="26.085" r=".75"/>
  <circle cx="12.115" cy="23.545" r=".75"/>
  <circle cx="61.645" cy="9.575" r=".875"/>
  <circle cx="66.725" cy="9.575" r="2"/>
  <circle cx="71.805" cy="9.575" r=".875"/>
  <circle cx="62.915" cy="7.035" r=".75"/>
  <circle cx="69.265" cy="4.495" r=".75"/>
  <circle cx="23.545" cy="66.725" r=".875"/>
  <circle cx="28.625" cy="66.725" r="2"/>
  <circle cx="33.705" cy="66.725" r=".875"/>
  <circle cx="24.815" cy="64.185" r=".75"/>
  <circle cx="31.165" cy="61.645" r=".75"/>
  <circle cx="4.495" cy="66.725" r=".875"/>
  <circle cx="9.575" cy="66.725" r="2"/>
  <circle cx="14.655" cy="66.725" r=".875"/>
  <circle cx="5.765" cy="64.185" r=".75"/>
  <circle cx="12.115" cy="61.645" r=".75"/>
 </g>
 <g fill="#50FA7B">
  <circle cx="43.865" cy="45.135" r="1.25"/>
  <circle cx="50.215" cy="42.595" r="1.25"/>
  <circle cx="62.915" cy="45.135" r="1.25"/>
  <circle cx="69.265" cy="42.595" r="1.25"/>
  <circle cx="24.815" cy="26.085" r="1.25"/>
  <circle cx="31.165" cy="23.545" r="1.25"/>
  <circle cx="43.865" cy="26.085" r="1.25"/>
  <circle cx="50.215" cy="23.545" r="1.25"/>
  <circle cx="43.865" cy="64.185" r="1.25"/>
  <circle cx="50.215" cy="61.645" r="1.25"/>
  <circle cx="62.915" cy="26.085" r="1.25"/>
  <circle cx="69.265" cy="23.545" r="1.25"/>
  <circle cx="62.915" cy="64.185" r="1.25"/>
  <circle cx="69.265" cy="61.645" r="1.25"/>
  <circle cx="5.765" cy="45.135" r="1.25"/>
  <circle cx="12.115" cy="42.595" r="1.25"/>
  <circle cx="24.815" cy="45.135" r="1.25"/>
  <circle cx="31.165" cy="42.595" r="1.25"/>
  <circle cx="5.765" cy="26.085" r="1.25"/>
  <circle cx="12.115" cy="23.545" r="1.25"/>
  <circle cx="62.915" cy="7.035" r="1.25"/>
  <circle cx="69.265" cy="4.495" r="1.25"/>
  <circle cx="24.815" cy="64.185" r="1.25"/>
  <circle cx="31.165" cy="61.645" r="1.25"/>
  <circle cx="5.765" cy="64.185" r="1.25"/>
  <circle cx="12.115" cy="61.645" r="1.25"/>
  <g fill="#50FA7B" fill-rule="evenodd">
   <path d="m71.505 72.675-0.0957-0.019-0.0811-0.0542-0.0542-0.0811-0.019-0.0957v-0.6l0.019-0.0957 0.0542-0.0811 0.0811-0.0542 0.0957-0.019h0.6l0.0957 0.019 0.0811 0.0542 0.0542 0.0811 0.019 0.0957v0.6l-0.019 0.0957-0.0542 0.0811-0.0811 0.0542-0.0957 0.019z"/>
   <path d="m71.505 69.875-0.0957-0.019-0.0811-0.0542-0.0542-0.0811-0.019-0.0957v-0.6l0.019-0.0957 0.0542-0.0811 0.0811-0.0542 0.0957-0.019h0.6l0.0957 0.019 0.0811 0.0542 0.0542 0.0811 0.019 0.0957v0.6l-0.019 0.0957-0.0542 0.0811-0.0811 0.0542-0.0957 0.019z"/>
   <path d="m33.405 72.675-0.0957-0.019-0.0811-0.0542-0.0542-0.0811-0.019-0.0957v-0.6l0.019-0.0957 0.0542-0.0811 0.0811-0.0542 0.0957-0.019h0.6l0.0957 0.019 0.0811 0.0542 0.0542 0.0811 0.019 0.0957v0.6l-0.019 0.0957-0.0542 0.0811-0.0811 0.0542-0.0957 0.019z"/>
   <path d="m33.405 69.875-0.0957-0.019-0.0811-0.0542-0.0542-0.0811-0.019-0.0957v-0.6l0.019-0.0957 0.0542-0.0811 0.0811-0.0542 0.0957-0.019h0.6l0.0957 0.019 0.0811 0.0542 0.0542 0.0811 0.019 0.0957v0.6l-0.019 0.0957-0.0542 0.0811-0.0811 0.0542-0.0957 0.019z"/>
   <path d="m14.355 34.575-0.0957-0.019-0.0811-0.0542-0.0542-0.0811-0.019-0.0957v-0.6l0.019-0.0957 0.0542-0.0811 0.0811-0.0542 0.0957-0.019h0.6l0.0957 0.019 0.0811 0.0542 0.0542 0.0811 0.019 0.0957v0.6l-0.019 0.0957-0.0542 0.0811-0.0811 0.0542-0.0957 0.019z"/>
   <path d="m14.355 31.775-0.0957-0.019-0.0811-0.0542-0.0542-0.0811-0.019-0.0957v-0.6l0.019-0.0957 0.0542-0.0811 0.0811-0.0542 0.0957-0.019h0.6l0.0957 0.019 0.0811 0.0542 0.0542 0.0811 0.019 0.0957v0.6l-0.019 0.0957-0.0542 0.0811-0.0811 0.0542-0.0957 0.019z"/>
   <path d="m71.505 53.625-0.0957-0.019-0.0811-0.0542-0.0542-0.0811-0.019-0.0957v-0.6l0.019-0.0957 0.0542-0.0811 0.0811-0.0542 0.0957-0.019h0.6l0.0957 0.019 0.0811 0.0542 0.0542 0.0811 0.019 0.0957v0.6l-0.019 0.0957-0.0542 0.0811-0.0811 0.0542-0.0957 0.019z"/>
   <path d="m71.505 50.825-0.0957-0.019-0.0811-0.0542-0.0542-0.0811-0.019-0.0957v-0.6l0.019-0.0957 0.0542-0.0811 0.0811-0.0542 0.0957-0.019h0.6l0.0957 0.019 0.0811 0.0542 0.0542 0.0811 0.019 0.0957v0.6l-0.019 0.0957-0.0542 0.0811-0.0811 0.0542-0.0957 0.019z"/>
   <path d="m33.405 34.575-0.0957-0.019-0.0811-0.0542-0.0542-0.0811-0.019-0.0957v-0.6l0.019-0.0957 0.0542-0.0811 0.0811-0.0542 0.0957-0.019h0.6l0.0957 0.019 0.0811 0.0542 0.0542 0.0811 0.019 0.0957v0.6l-0.019 0.0957-0.0542 0.0811-0.0811 0.0542-0.0957 0.019z"/>
   <path d="m33.405 31.775-0.0957-0.019-0.0811-0.0542-0.0542-0.0811-0.019-0.0957v-0.6l0.019-0.0957 0.0542-0.0811 0.0811-0.0542 0.0957-0.019h0.6l0.0957 0.019 0.0811 0.0542 0.0542 0.0811 0.019 0.0957v0.6l-0.019 0.0957-0.0542 0.0811-0.0811 0.0542-0.0957 0.019z"/>
   <path d="m52.455 34.575-0.0957-0.019-0.0811-0.0542-0.0542-0.0811-0.019-0.0957v-0.6l0.019-0.0957 0.0542-0.0811 0.0811-0.0542 0.0957-0.019h0.6l0.0957 0.019 0.0811 0.0542 0.0542 0.0811 0.019 0.0957v0.6l-0.019 0.0957-0.0542 0.0811-0.0811 0.0542-0.0957 0.019z"/>
   <path d="m52.455 31.775-0.0957-0.019-0.0811-0.0542-0.0542-0.0811-0.019-0.0957v-0.6l0.019-0.0957 0.0542-0.0811 0.0811-0.0542 0.0957-0.019h0.6l0.0957 0.019 0.0811 0.0542 0.0542 0.0811 0.019 0.0957v0.6l-0.019 0.0957-0.0542 0.0811-0.0811 0.0542-0.0957 0.019z"/>
   <path d="m71.505 15.525-0.0957-0.019-0.0811-0.0542-0.0542-0.0811-0.019-0.0957v-0.6l0.019-0.0957 0.0542-0.0811 0.0811-0.0542 0.0957-0.019h0.6l0.0957 0.019 0.0811 0.0542 0.0542 0.0811 0.019 0.0957v0.6l-0.019 0.0957-0.0542 0.0811-0.0811 0.0542-0.0957 0.019z"/>
   <path d="m71.505 12.725-0.0957-0.019-0.0811-0.0542-0.0542-0.0811-0.019-0.0957v-0.6l0.019-0.0957 0.0542-0.0811 0.0811-0.0542 0.0957-0.019h0.6l0.0957 0.019 0.0811 0.0542 0.0542 0.0811 0.019 0.0957v0.6l-0.019 0.0957-0.0542 0.0811-0.0811 0.0542-0.0957 0.019z"/>
   <path d="m52.455 72.675-0.0957-0.019-0.0811-0.0542-0.0542-0.0811-0.019-0.0957v-0.6l0.019-0.0957 0.0542-0.0811 0.0811-0.0542 0.0957-0.019h0.6l0.0957 0.019 0.0811 0.0542 0.0542 0.0811 0.019 0.0957v0.6l-0.019 0.0957-0.0542 0.0811-0.0811 0.0542-0.0957 0.019z"/>
   <path d="m52.455 69.875-0.0957-0.019-0.0811-0.0542-0.0542-0.0811-0.019-0.0957v-0.6l0.019-0.0957 0.0542-0.0811 0.0811-0.0542 0.0957-0.019h0.6l0.0957 0.019 0.0811 0.0542 0.0542 0.0811 0.019 0.0957v0.6l-0.019 0.0957-0.0542 0.0811-0.0811 0.0542-0.0957 0.019z"/>
   <path d="m71.505 34.575-0.0957-0.019-0.0811-0.0542-0.0542-0.0811-0.019-0.0957v-0.6l0.019-0.0957 0.0542-0.0811 0.0811-0.0542 0.0957-0.019h0.6l0.0957 0.019 0.0811 0.0542 0.0542 0.0811 0.019 0.0957v0.6l-0.019 0.0957-0.0542 0.0811-0.0811 0.0542-0.0957 0.019z"/>
   <path d="m71.505 31.775-0.0957-0.019-0.0811-0.0542-0.0542-0.0811-0.019-0.0957v-0.6l0.019-0.0957 0.0542-0.0811 0.0811-0.0542 0.0957-0.019h0.6l0.0957 0.019 0.0811 0.0542 0.0542 0.0811 0.019 0.0957v0.6l-0.019 0.0957-0.0542 0.0811-0.0811 0.0542-0.0957 0.019z"/>
   <path d="m33.405 53.625-0.0957-0.019-0.0811-0.0542-0.0542-0.0811-0.019-0.0957v-0.6l0.019-0.0957 0.0542-0.0811 0.0811-0.0542 0.0957-0.019h0.6l0.0957 0.019 0.0811 0.0542 0.0542 0.0811 0.019 0.0957v0.6l-0.019 0.0957-0.0542 0.0811-0.0811 0.0542-0.0957 0.019z"/>
   <path d="m33.405 50.825-0.0957-0.019-0.0811-0.0542-0.0542-0.0811-0.019-0.0957v-0.6l0.019-0.0957 0.0542-0.0811 0.0811-0.0542 0.0957-0.019h0.6l0.0957 0.019 0.0811 0.0542 0.0542 0.0811 0.019 0.0957v0.6l-0.019 0.0957-0.0542 0.0811-0.0811 0.0542-0.0957 0.019z"/>
   <path d="m52.455 53.625-0.0957-0.019-0.0811-0.0542-0.0542-0.0811-0.019-0.0957v-0.6l0.019-0.0957 0.0542-0.0811 0.0811-0.0542 0.0957-0.019h0.6l0.0957 0.019 0.0811 0.0542 0.0542 0.0811 0.019 0.0957v0.6l-0.019 0.0957-0.0542 0.0811-0.0811 0.0542-0.0957 0.019z"/>
   <path d="m52.455 50.825-0.0957-0.019-0.0811-0.0542-0.0542-0.0811-0.019-0.0957v-0.6l0.019-0.0957 0.0542-0.0811 0.0811-0.0542 0.0957-0.019h0.6l0.0957 0.019 0.0811 0.0542 0.0542 0.0811 0.019 0.0957v0.6l-0.019 0.0957-0.0542 0.0811-0.0811 0.0542-0.0957 0.019z"/>
   <path d="m14.355 72.675-0.0957-0.019-0.0811-0.0542-0.0542-0.0811-0.019-0.0957v-0.6l0.019-0.0957 0.0542-0.0811 0.0811-0.0542 0.0957-0.019h0.6l0.0957 0.019 0.0811 0.0542 0.0542 0.0811 0.019 0.0957v0.6l-0.019 0.0957-0.0542 0.0811-0.0811 0.0542-0.0957 0.019z"/>
   <path d="m14.355 69.875-0.0957-0.019-0.0811-0.0542-0.0542-0.0811-0.019-0.0957v-0.6l0.019-0.0957 0.0542-0.0811 0.0811-0.0542 0.0957-0.019h0.6l0.0957 0.019 0.0811 0.0542 0.0542 0.0811 0.019 0.0957v0.6l-0.019 0.0957-0.0542 0.0811-0.0811 0.0542-0.0957 0.019z"/>
   <path d="m14.355 53.625-0.0957-0.019-0.0811-0.0542-0.0542-0.0811-0.019-0.0957v-0.6l0.019-0.0957 0.0542-0.0811 0.0811-0.0542 0.0957-0.019h0.6l0.0957 0.019 0.0811 0.0542 0.0542 0.0811 0.019 0.0957v0.6l-0.019 0.0957-0.0542 0.0811-0.0811 0.0542-0.0957 0.019z"/>
   <path d="m14.355 50.825-0.0957-0.019-0.0811-0.0542-0.0542-0.0811-0.019-0.0957v-0.6l0.019-0.0957 0.0542-0.0811 0.0811-0.0542 0.0957-0.019h0.6l0.0957 0.019 0.0811 0.0542 0.0542 0.0811 0.019 0.0957v0.6l-0.019 0.0957-0.0542 0.0811-0.0811 0.0542-0.0957 0.019z"/>
  </g>
 </g>
 <g fill="none" stroke="#50FA7B" stroke-linecap="round" stroke-linejoin="round" stroke-width=".2">
  <path d="m12.115 23.545v5.14"/>
  <path d="m12.115 28.685 2.54 2.54"/>
  <path d="m31.165 28.685 2.54 2.54"/>
  <path d="m31.165 23.545v5.14"/>
  <path d="m50.215 23.545v5.14"/>
  <path d="m50.215 28.685 2.54 2.54"/>
  <path d="m69.265 23.545v5.14"/>
  <path d="m69.265 28.685 2.54 2.54"/>
  <path d="m12.115 47.735 2.54 2.54"/>
  <path d="m12.115 42.595v5.14"/>
  <path d="m31.165 47.735 2.54 2.54"/>
  <path d="m31.165 42.595v5.14"/>
  <path d="m50.215 47.735 2.54 2.54"/>
  <path d="m50.215 42.595v5.14"/>
  <path d="m69.265 42.595v5.14"/>
  <path d="m69.265 47.735 2.54 2.54"/>
  <path d="m12.115 61.645v5.14"/>
  <path d="m12.115 66.785 2.54 2.54"/>
  <path d="m31.165 66.785 2.54 2.54"/>
  <path d="m31.165 61.645v5.14"/>
  <path d="m50.215 66.785 2.54 2.54"/>
  <path d="m50.215 61.645v5.14"/>
  <path d="m69.265 61.645v5.14"/>
  <path d="m69.265 66.785 2.54 2.54"/>
  <path d="m69.265 4.495v5.14"/>
  <path d="m69.265 9.635 2.54 2.54"/>
  <path d="m52.755 34.025h19.05"/>
  <path d="m14.655 34.025h19.05"/>
  <path d="m33.705 34.025h19.05"/>
  <path d="m52.755 53.075h19.05"/>
  <path d="m33.705 53.075h19.05"/>
  <path d="m14.655 53.075h19.05"/>
  <path d="m52.755 72.125h19.05"/>
  <path d="m14.655 72.125h19.05"/>
  <path d="m33.705 72.125h19.05"/>
 </g>
 <g fill="#fff">
  <circle cx="42.595" cy="47.675" r=".875"/>
  <circle cx="47.675" cy="47.675" r="2"/>
  <circle cx="52.755" cy="47.675" r=".875"/>
  <circle cx="43.865" cy="45.135" r=".75"/>
  <circle cx="50.215" cy="42.595" r=".75"/>
  <circle cx="61.645" cy="47.675" r=".875"/>
  <circle cx="66.725" cy="47.675" r="2"/>
  <circle cx="71.805" cy="47.675" r=".875"/>
  <circle cx="62.915" cy="45.135" r=".75"/>
  <circle cx="69.265" cy="42.595" r=".75"/>
  <circle cx="23.545" cy="28.625" r=".875"/>
  <circle cx="28.625" cy="28.625" r="2"/>
  <circle cx="33.705" cy="28.625" r=".875"/>
  <circle cx="24.815" cy="26.085" r=".75"/>
  <circle cx="31.165" cy="23.545" r=".75"/>
  <circle cx="42.595" cy="28.625" r=".875"/>
  <circle cx="47.675" cy="28.625" r="2"/>
  <circle cx="52.755" cy="28.625" r=".875"/>
  <circle cx="43.865" cy="26.085" r=".75"/>
  <circle cx="50.215" cy="23.545" r=".75"/>
  <circle cx="42.595" cy="66.725" r=".875"/>
  <circle cx="47.675" cy="66.725" r="2"/>
  <circle cx="52.755" cy="66.725" r=".875"/>
  <circle cx="43.865" cy="64.185" r=".75"/>
  <circle cx="50.215" cy="61.645" r=".75"/>
  <circle cx="61.645" cy="28.625" r=".875"/>
  <circle cx="66.725" cy="28.625" r="2"/>
  <circle cx="71.805" cy="28.625" r=".875"/>
  <circle cx="62.915" cy="26.085" r=".75"/>
  <circle cx="69.265" cy="23.545" r=".75"/>
  <circle cx="61.645" cy="66.725" r=".875"/>
  <circle cx="66.725" cy="66.725" r="2"/>
  <circle cx="71.805" cy="66.725" r=".875"/>
  <circle cx="62.915" cy="64.185" r=".75"/>
  <circle cx="69.265" cy="61.645" r=".75"/>
  <circle cx="4.495" cy="47.675" r=".875"/>
  <circle cx="9.575" cy="47.675" r="2"/>
  <circle cx="14.655" cy="47.675" r=".875"/>
  <circle cx="5.765" cy="45.135" r=".75"/>
  <circle cx="12.115" cy="42.595" r=".75"/>
  <circle cx="23.545" cy="47.675" r=".875"/>
  <circle cx="28.625" cy="47.675" r="2"/>
  <circle cx="33.705" cy="47.675" r=".875"/>
  <circle cx="24.815" cy="45.135" r=".75"/>
  <circle cx="31.165" cy="42.595" r=".75"/>
  <circle cx="4.495" cy="28.625" r=".875"/>
  <circle cx="9.575" cy="28.625" r="2"/>
  <circle cx="14.655" cy="28.625" r=".875"/>
  <circle cx="5.765" cy="26.085" r=".75"/>
  <circle cx="12.115" cy="23.545" r=".75"/>
  <circle cx="61.645" cy="9.575" r=".875"/>
  <circle cx="66.725" cy="9.575" r="2"/>
  <circle cx="71.805" cy="9.575" r=".875"/>
  <circle cx="62.915" cy="7.035" r=".75"/>
  <circle cx="69.265" cy="4.495" r=".75"/>
  <circle cx="23.545" cy="66.725" r=".875"/>
  <circle cx="28.625" cy="66.725" r="2"/>
  <circle cx="33.705" cy="66.725" r=".875"/>
  <circle cx="24.815" cy="64.185" r=".75"/>
  <circle cx="31.165" cy="61.645" r=".75"/>
  <circle cx="4.495" cy="66.725" r=".875"/>
  <circle cx="9.575" cy="66.725" r="2"/>
  <circle cx="14.655" cy="66.725" r=".875"/>
  <circle cx="5.765" cy="64.185" r=".75"/>
  <circle cx="12.115" cy="61.645" r=".75"/>
 </g>
</svg>
