<?xml version="1.0" encoding="UTF-8"?>
<svg xmlns="http://www.w3.org/2000/svg" xmlns:xlink="http://www.w3.org/1999/xlink"
     width="1117.1599999999999" height="291.91999999999996" viewBox="0 0 1117.1599999999999 291.91999999999996">
<defs>
<g id="d0">
<rect x="0" y="0" width="52" height="52" rx="5" fill="none" stroke="black" stroke-width="2" />
<rect x="1" y="1" width="50" height="50" rx="5" fill="#aaaaaa" />
<rect x="6" y="4" width="40" height="40" rx="5" fill="#d0d0d0" />
<text x="7" y="5" font-size="12" text-anchor="start" dominant-baseline="hanging"><tspan x="7" dy="0em">4,0</tspan></text>
</g>
<g id="d1">
<rect x="0" y="0" width="52" height="52" rx="5" fill="none" stroke="black" stroke-width="2" />
<rect x="1" y="1" width="50" height="50" rx="5" fill="#aaaaaa" />
<rect x="6" y="4" width="40" height="40" rx="5" fill="#d0d0d0" />
<text x="7" y="5" font-size="12" text-anchor="start" dominant-baseline="hanging"><tspan x="7" dy="0em">5,0</tspan></text>
</g>
<g id="d2">
<rect x="0" y="0" width="52" height="52" rx="5" fill="none" stroke="black" stroke-width="2" />
<rect x="1" y="1" width="50" height="50" rx="5" fill="#aaaaaa" />
<rect x="6" y="4" width="40" height="40" rx="5" fill="#d0d0d0" />
<text x="7" y="5" font-size="12" text-anchor="start" dominant-baseline="hanging"><tspan x="7" dy="0em">4,1</tspan></text>
</g>
<g id="d3">
<rect x="0" y="0" width="52" height="52" rx="5" fill="none" stroke="black" stroke-width="2" />
<rect x="1" y="1" width="50" height="50" rx="5" fill="#aaaaaa" />
<rect x="6" y="4" width="40" height="40" rx="5" fill="#d0d0d0" />
<text x="7" y="5" font-size="12" text-anchor="start" dominant-baseline="hanging"><tspan x="7" dy="0em">5,1</tspan></text>
</g>
<g id="d4">
<rect x="0" y="0" width="52" height="52" rx="5" fill="none" stroke="black" stroke-width="2" />
<rect x="1" y="1" width="50" height="50" rx="5" fill="#aaaaaa" />
<rect x="6" y="4" width="40" height="40" rx="5" fill="#d0d0d0" />
<text x="7" y="5" font-size="12" text-anchor="start" dominant-baseline="hanging"><tspan x="7" dy="0em">4,2</tspan></text>
</g>
<g id="d5">
<rect x="0" y="0" width="52" height="52" rx="5" fill="none" stroke="black" stroke-width="2" />
<rect x="1" y="1" width="50" height="50" rx="5" fill="#aaaaaa" />
<rect x="6" y="4" width="40" height="40" rx="5" fill="#d0d0d0" />
<text x="7" y="5" font-size="12" text-anchor="start" dominant-baseline="hanging"><tspan x="7" dy="0em">5,2</tspan></text>
</g>
<g id="d6">
<rect x="0" y="0" width="52" height="52" rx="5" fill="none" stroke="black" stroke-width="2" />
<rect x="1" y="1" width="50" height="50" rx="5" fill="#aaaaaa" />
<rect x="6" y="4" width="40" height="40" rx="5" fill="#d0d0d0" />
<text x="7" y="5" font-size="12" text-anchor="start" dominant-baseline="hanging"><tspan x="7" dy="0em">3,0</tspan></text>
</g>
<g id="d7">
<rect x="0" y="0" width="52" height="52" rx="5" fill="none" stroke="black" stroke-width="2" />
<rect x="1" y="1" width="50" height="50" rx="5" fill="#aaaaaa" />
<rect x="6" y="4" width="40" height="40" rx="5" fill="#d0d0d0" />
<text x="7" y="5" font-size="12" text-anchor="start" dominant-baseline="hanging"><tspan x="7" dy="0em">6,0</tspan></text>
</g>
<g id="d8">
<rect x="0" y="0" width="52" height="52" rx="5" fill="none" stroke="black" stroke-width="2" />
<rect x="1" y="1" width="50" height="50" rx="5" fill="#cccccc" />
<rect x="6" y="4" width="40" height="40" rx="5" fill="#fbfbfb" />
<text x="7" y="5" font-size="12" text-anchor="start" dominant-baseline="hanging"><tspan x="7" dy="0em">3,1</tspan></text>
</g>
<g id="d9">
<rect x="0" y="0" width="52" height="52" rx="5" fill="none" stroke="black" stroke-width="2" />
<rect x="1" y="1" width="50" height="50" rx="5" fill="#cccccc" />
<rect x="6" y="4" width="40" height="40" rx="5" fill="#fbfbfb" />
<text x="7" y="5" font-size="12" text-anchor="start" dominant-baseline="hanging"><tspan x="7" dy="0em">6,1</tspan></text>
</g>
<g id="d10">
<rect x="0" y="0" width="52" height="52" rx="5" fill="none" stroke="black" stroke-width="2" />
<rect x="1" y="1" width="50" height="50" rx="5" fill="#cccccc" />
<rect x="6" y="4" width="40" height="40" rx="5" fill="#fbfbfb" />
<text x="7" y="5" font-size="12" text-anchor="start" dominant-baseline="hanging"><tspan x="7" dy="0em">3,2</tspan></text>
</g>
<g id="d11">
<rect x="0" y="0" width="52" height="52" rx="5" fill="none" stroke="black" stroke-width="2" />
<rect x="1" y="1" width="50" height="50" rx="5" fill="#aaaaaa" />
<rect x="6" y="4" width="40" height="40" rx="5" fill="#d0d0d0" />
<text x="7" y="5" font-size="12" text-anchor="start" dominant-baseline="hanging"><tspan x="7" dy="0em">6,2</tspan></text>
</g>
<g id="d12">
<rect x="0" y="0" width="52" height="52" rx="5" fill="none" stroke="black" stroke-width="2" />
<rect x="1" y="1" width="50" height="50" rx="5" fill="#aaaaaa" />
<rect x="6" y="4" width="40" height="40" rx="5" fill="#d0d0d0" />
<text x="7" y="5" font-size="12" text-anchor="start" dominant-baseline="hanging"><tspan x="7" dy="0em">2,0</tspan></text>
</g>
<g id="d13">
<rect x="0" y="0" width="52" height="52" rx="5" fill="none" stroke="black" stroke-width="2" />
<rect x="1" y="1" width="50" height="50" rx="5" fill="#aaaaaa" />
<rect x="6" y="4" width="40" height="40" rx="5" fill="#d0d0d0" />
<text x="7" y="5" font-size="12" text-anchor="start" dominant-baseline="hanging"><tspan x="7" dy="0em">7,0</tspan></text>
</g>
<g id="d14">
<rect x="0" y="0" width="52" height="52" rx="5" fill="none" stroke="black" stroke-width="2" />
<rect x="1" y="1" width="50" height="50" rx="5" fill="#cccccc" />
<rect x="6" y="4" width="40" height="40" rx="5" fill="#fbfbfb" />
<text x="7" y="5" font-size="12" text-anchor="start" dominant-baseline="hanging"><tspan x="7" dy="0em">2,1</tspan></text>
</g>
<g id="d15">
<rect x="0" y="0" width="52" height="52" rx="5" fill="none" stroke="black" stroke-width="2" />
<rect x="1" y="1" width="50" height="50" rx="5" fill="#cccccc" />
<rect x="6" y="4" width="40" height="40" rx="5" fill="#fbfbfb" />
<text x="7" y="5" font-size="12" text-anchor="start" dominant-baseline="hanging"><tspan x="7" dy="0em">7,1</tspan></text>
</g>
<g id="d16">
<rect x="0" y="0" width="52" height="52" rx="5" fill="none" stroke="black" stroke-width="2" />
<rect x="1" y="1" width="50" height="50" rx="5" fill="#cccccc" />
<rect x="6" y="4" width="40" height="40" rx="5" fill="#fbfbfb" />
<text x="7" y="5" font-size="12" text-anchor="start" dominant-baseline="hanging"><tspan x="7" dy="0em">2,2</tspan></text>
</g>
<g id="d17">
<rect x="0" y="0" width="52" height="52" rx="5" fill="none" stroke="black" stroke-width="2" />
<rect x="1" y="1" width="50" height="50" rx="5" fill="#aaaaaa" />
<rect x="6" y="4" width="40" height="40" rx="5" fill="#d0d0d0" />
<text x="7" y="5" font-size="12" text-anchor="start" dominant-baseline="hanging"><tspan x="7" dy="0em">7,2</tspan></text>
</g>
<g id="d18">
<rect x="0" y="0" width="52" height="52" rx="5" fill="none" stroke="black" stroke-width="2" />
<rect x="1" y="1" width="50" height="50" rx="5" fill="#aaaaaa" />
<rect x="6" y="4" width="40" height="40" rx="5" fill="#d0d0d0" />
<text x="7" y="5" font-size="12" text-anchor="start" dominant-baseline="hanging"><tspan x="7" dy="0em">1,0</tspan></text>
</g>
<g id="d19">
<rect x="0" y="0" width="52" height="52" rx="5" fill="none" stroke="black" stroke-width="2" />
<rect x="1" y="1" width="50" height="50" rx="5" fill="#aaaaaa" />
<rect x="6" y="4" width="40" height="40" rx="5" fill="#d0d0d0" />
<text x="7" y="5" font-size="12" text-anchor="start" dominant-baseline="hanging"><tspan x="7" dy="0em">8,0</tspan></text>
</g>
<g id="d20">
<rect x="0" y="0" width="52" height="52" rx="5" fill="none" stroke="black" stroke-width="2" />
<rect x="1" y="1" width="50" height="50" rx="5" fill="#cccccc" />
<rect x="6" y="4" width="40" height="40" rx="5" fill="#fbfbfb" />
<text x="7" y="5" font-size="12" text-anchor="start" dominant-baseline="hanging"><tspan x="7" dy="0em">1,1</tspan></text>
</g>
<g id="d21">
<rect x="0" y="0" width="52" height="52" rx="5" fill="none" stroke="black" stroke-width="2" />
<rect x="1" y="1" width="50" height="50" rx="5" fill="#cccccc" />
<rect x="6" y="4" width="40" height="40" rx="5" fill="#fbfbfb" />
<text x="7" y="5" font-size="12" text-anchor="start" dominant-baseline="hanging"><tspan x="7" dy="0em">8,1</tspan></text>
</g>
<g id="d22">
<rect x="0" y="0" width="52" height="52" rx="5" fill="none" stroke="black" stroke-width="2" />
<rect x="1" y="1" width="50" height="50" rx="5" fill="#cccccc" />
<rect x="6" y="4" width="40" height="40" rx="5" fill="#fbfbfb" />
<text x="7" y="5" font-size="12" text-anchor="start" dominant-baseline="hanging"><tspan x="7" dy="0em">1,2</tspan></text>
</g>
<g id="d23">
<rect x="0" y="0" width="52" height="52" rx="5" fill="none" stroke="black" stroke-width="2" />
<rect x="1" y="1" width="50" height="50" rx="5" fill="#aaaaaa" />
<rect x="6" y="4" width="40" height="40" rx="5" fill="#d0d0d0" />
<text x="7" y="5" font-size="12" text-anchor="start" dominant-baseline="hanging"><tspan x="7" dy="0em">8,2</tspan></text>
</g>
<g id="d24">
<rect x="0" y="0" width="52" height="52" rx="5" fill="none" stroke="black" stroke-width="2" />
<rect x="1" y="1" width="50" height="50" rx="5" fill="#aaaaaa" />
<rect x="6" y="4" width="40" height="40" rx="5" fill="#d0d0d0" />
<text x="7" y="5" font-size="12" text-anchor="start" dominant-baseline="hanging"><tspan x="7" dy="0em">0,0</tspan></text>
</g>
<g id="d25">
<rect x="0" y="0" width="52" height="52" rx="5" fill="none" stroke="black" stroke-width="2" />
<rect x="1" y="1" width="50" height="50" rx="5" fill="#aaaaaa" />
<rect x="6" y="4" width="40" height="40" rx="5" fill="#d0d0d0" />
<text x="7" y="5" font-size="12" text-anchor="start" dominant-baseline="hanging"><tspan x="7" dy="0em">9,0</tspan></text>
</g>
<g id="d26">
<rect x="0" y="0" width="52" height="52" rx="5" fill="none" stroke="black" stroke-width="2" />
<rect x="1" y="1" width="50" height="50" rx="5" fill="#aaaaaa" />
<rect x="6" y="4" width="40" height="40" rx="5" fill="#d0d0d0" />
<text x="7" y="5" font-size="12" text-anchor="start" dominant-baseline="hanging"><tspan x="7" dy="0em">0,1</tspan></text>
</g>
<g id="d27">
<rect x="0" y="0" width="52" height="52" rx="5" fill="none" stroke="black" stroke-width="2" />
<rect x="1" y="1" width="50" height="50" rx="5" fill="#cccccc" />
<rect x="6" y="4" width="40" height="40" rx="5" fill="#fbfbfb" />
<text x="7" y="5" font-size="12" text-anchor="start" dominant-baseline="hanging"><tspan x="7" dy="0em">9,1</tspan></text>
</g>
<g id="d28">
<rect x="0" y="0" width="52" height="52" rx="5" fill="none" stroke="black" stroke-width="2" />
<rect x="1" y="1" width="50" height="50" rx="5" fill="#cccccc" />
<rect x="6" y="4" width="40" height="40" rx="5" fill="#fbfbfb" />
<text x="7" y="5" font-size="12" text-anchor="start" dominant-baseline="hanging"><tspan x="7" dy="0em">0,2</tspan></text>
</g>
<g id="d29">
<rect x="0" y="0" width="52" height="52" rx="5" fill="none" stroke="black" stroke-width="2" />
<rect x="1" y="1" width="50" height="50" rx="5" fill="#aaaaaa" />
<rect x="6" y="4" width="40" height="40" rx="5" fill="#d0d0d0" />
<text x="7" y="5" font-size="12" text-anchor="start" dominant-baseline="hanging"><tspan x="7" dy="0em">9,2</tspan></text>
</g>
<g id="d30">
<rect x="0" y="0" width="52" height="52" rx="5" fill="none" stroke="black" stroke-width="2" />
<rect x="1" y="1" width="50" height="50" rx="5" fill="#777777" />
<rect x="6" y="4" width="40" height="40" rx="5" fill="#919191" />
<text x="7" y="5" font-size="12" text-anchor="start" dominant-baseline="hanging"><tspan x="7" dy="0em">4,3</tspan></text>
</g>
<g id="d31">
<rect x="0" y="0" width="52" height="52" rx="5" fill="none" stroke="black" stroke-width="2" />
<rect x="1" y="1" width="50" height="50" rx="5" fill="#cccccc" />
<rect x="6" y="4" width="40" height="40" rx="5" fill="#fbfbfb" />
<text x="7" y="5" font-size="12" text-anchor="start" dominant-baseline="hanging"><tspan x="7" dy="0em">5,3</tspan></text>
</g>
<g id="d32">
<rect x="0" y="0" width="52" height="52" rx="5" fill="none" stroke="black" stroke-width="2" />
<rect x="1" y="1" width="50" height="50" rx="5" fill="#cccccc" />
<rect x="6" y="4" width="40" height="40" rx="5" fill="#fbfbfb" />
<text x="7" y="5" font-size="12" text-anchor="start" dominant-baseline="hanging"><tspan x="7" dy="0em">4,8</tspan></text>
</g>
<g id="d33">
<rect x="0" y="0" width="104" height="52" rx="5" fill="none" stroke="black" stroke-width="2" />
<rect x="1" y="1" width="102" height="50" rx="5" fill="#aaaaaa" />
<rect x="6" y="4" width="92" height="40" rx="5" fill="#d0d0d0" />
<text x="7" y="5" font-size="12" text-anchor="start" dominant-baseline="hanging"><tspan x="7" dy="0em">5,8</tspan></text>
</g>
<g id="d34">
<rect x="0" y="0" width="65.52" height="52" rx="5" fill="none" stroke="black" stroke-width="2" />
<rect x="1" y="1" width="63.519999999999996" height="50" rx="5" fill="#aaaaaa" />
<rect x="6" y="4" width="53.519999999999996" height="40" rx="5" fill="#d0d0d0" />
<text x="7" y="5" font-size="12" text-anchor="start" dominant-baseline="hanging"><tspan x="7" dy="0em">3,3</tspan></text>
</g>
<g id="d35">
<rect x="0" y="0" width="52" height="52" rx="5" fill="none" stroke="black" stroke-width="2" />
<rect x="1" y="1" width="50" height="50" rx="5" fill="#cccccc" />
<rect x="6" y="4" width="40" height="40" rx="5" fill="#fbfbfb" />
<text x="7" y="5" font-size="12" text-anchor="start" dominant-baseline="hanging"><tspan x="7" dy="0em">6,3</tspan></text>
</g>
<g id="d36">
<rect x="0" y="0" width="52" height="52" rx="5" fill="none" stroke="black" stroke-width="2" />
<rect x="1" y="1" width="50" height="50" rx="5" fill="#cccccc" />
<rect x="6" y="4" width="40" height="40" rx="5" fill="#fbfbfb" />
<text x="7" y="5" font-size="12" text-anchor="start" dominant-baseline="hanging"><tspan x="7" dy="0em">3,8</tspan></text>
</g>
<g id="d37">
<rect x="0" y="0" width="91.0" height="52" rx="5" fill="none" stroke="black" stroke-width="2" />
<rect x="1" y="1" width="89.0" height="50" rx="5" fill="#777777" />
<rect x="6" y="4" width="79.0" height="40" rx="5" fill="#919191" />
<text x="7" y="5" font-size="12" text-anchor="start" dominant-baseline="hanging"><tspan x="7" dy="0em">6,8</tspan></text>
</g>
<g id="d38">
<rect x="0" y="0" width="91.0" height="52" rx="5" fill="none" stroke="black" stroke-width="2" />
<rect x="1" y="1" width="89.0" height="50" rx="5" fill="#aaaaaa" />
<rect x="6" y="4" width="79.0" height="40" rx="5" fill="#d0d0d0" />
<text x="7" y="5" font-size="12" text-anchor="start" dominant-baseline="hanging"><tspan x="7" dy="0em">2,3</tspan></text>
</g>
<g id="d39">
<rect x="0" y="0" width="52" height="52" rx="5" fill="none" stroke="black" stroke-width="2" />
<rect x="1" y="1" width="50" height="50" rx="5" fill="#cccccc" />
<rect x="6" y="4" width="40" height="40" rx="5" fill="#fbfbfb" />
<text x="7" y="5" font-size="12" text-anchor="start" dominant-baseline="hanging"><tspan x="7" dy="0em">7,3</tspan></text>
</g>
<g id="d40">
<rect x="0" y="0" width="52" height="52" rx="5" fill="none" stroke="black" stroke-width="2" />
<rect x="1" y="1" width="50" height="50" rx="5" fill="#cccccc" />
<rect x="6" y="4" width="40" height="40" rx="5" fill="#fbfbfb" />
<text x="7" y="5" font-size="12" text-anchor="start" dominant-baseline="hanging"><tspan x="7" dy="0em">7,7</tspan></text>
</g>
<g id="d41">
<rect x="0" y="0" width="52" height="52" rx="5" fill="none" stroke="black" stroke-width="2" />
<rect x="1" y="1" width="50" height="50" rx="5" fill="#cccccc" />
<rect x="6" y="4" width="40" height="40" rx="5" fill="#fbfbfb" />
<text x="7" y="5" font-size="12" text-anchor="start" dominant-baseline="hanging"><tspan x="7" dy="0em">2,8</tspan></text>
</g>
<g id="d42">
<rect x="0" y="0" width="65.0" height="52" rx="5" fill="none" stroke="black" stroke-width="2" />
<rect x="1" y="1" width="63.0" height="50" rx="5" fill="#aaaaaa" />
<rect x="6" y="4" width="53.0" height="40" rx="5" fill="#d0d0d0" />
<text x="7" y="5" font-size="12" text-anchor="start" dominant-baseline="hanging"><tspan x="7" dy="0em">7,8</tspan></text>
</g>
<g id="d43">
<rect x="0" y="0" width="65.0" height="52" rx="5" fill="none" stroke="black" stroke-width="2" />
<rect x="1" y="1" width="63.0" height="50" rx="5" fill="#aaaaaa" />
<rect x="6" y="4" width="53.0" height="40" rx="5" fill="#d0d0d0" />
<text x="7" y="5" font-size="12" text-anchor="start" dominant-baseline="hanging"><tspan x="7" dy="0em">1,3</tspan></text>
</g>
<g id="d44">
<rect x="0" y="0" width="65.0" height="52" rx="5" fill="none" stroke="black" stroke-width="2" />
<rect x="1" y="1" width="63.0" height="50" rx="5" fill="#aaaaaa" />
<rect x="6" y="4" width="53.0" height="40" rx="5" fill="#d0d0d0" />
<text x="7" y="5" font-size="12" text-anchor="start" dominant-baseline="hanging"><tspan x="7" dy="0em">8,3</tspan></text>
</g>
<g id="d45">
<rect x="0" y="0" width="78.0" height="52" rx="5" fill="none" stroke="black" stroke-width="2" />
<rect x="1" y="1" width="76.0" height="50" rx="5" fill="#aaaaaa" />
<rect x="6" y="4" width="66.0" height="40" rx="5" fill="#d0d0d0" />
<text x="7" y="5" font-size="12" text-anchor="start" dominant-baseline="hanging"><tspan x="7" dy="0em">8,7</tspan></text>
</g>
<g id="d46">
<rect x="0" y="0" width="78.0" height="52" rx="5" fill="none" stroke="black" stroke-width="2" />
<rect x="1" y="1" width="76.0" height="50" rx="5" fill="#aaaaaa" />
<rect x="6" y="4" width="66.0" height="40" rx="5" fill="#d0d0d0" />
<text x="7" y="5" font-size="12" text-anchor="start" dominant-baseline="hanging"><tspan x="7" dy="0em">1,8</tspan></text>
</g>
<g id="d47">
<rect x="0" y="0" width="52" height="52" rx="5" fill="none" stroke="black" stroke-width="2" />
<rect x="1" y="1" width="50" height="50" rx="5" fill="#cccccc" />
<rect x="6" y="4" width="40" height="40" rx="5" fill="#fbfbfb" />
<text x="7" y="5" font-size="12" text-anchor="start" dominant-baseline="hanging"><tspan x="7" dy="0em">4,4</tspan></text>
</g>
<g id="d48">
<rect x="0" y="0" width="52" height="52" rx="5" fill="none" stroke="black" stroke-width="2" />
<rect x="1" y="1" width="50" height="50" rx="5" fill="#cccccc" />
<rect x="6" y="4" width="40" height="40" rx="5" fill="#fbfbfb" />
<text x="7" y="5" font-size="12" text-anchor="start" dominant-baseline="hanging"><tspan x="7" dy="0em">5,4</tspan></text>
</g>
<g id="d49">
<rect x="0" y="0" width="52" height="52" rx="5" fill="none" stroke="black" stroke-width="2" />
<rect x="1" y="1" width="50" height="50" rx="5" fill="#cccccc" />
<rect x="6" y="4" width="40" height="40" rx="5" fill="#fbfbfb" />
<text x="7" y="5" font-size="12" text-anchor="start" dominant-baseline="hanging"><tspan x="7" dy="0em">4,5</tspan></text>
</g>
<g id="d50">
<rect x="0" y="0" width="52" height="52" rx="5" fill="none" stroke="black" stroke-width="2" />
<rect x="1" y="1" width="50" height="50" rx="5" fill="#cccccc" />
<rect x="6" y="4" width="40" height="40" rx="5" fill="#fbfbfb" />
<text x="7" y="5" font-size="12" text-anchor="start" dominant-baseline="hanging"><tspan x="7" dy="0em">5,5</tspan></text>
</g>
<g id="d51">
<rect x="0" y="0" width="52" height="52" rx="5" fill="none" stroke="black" stroke-width="2" />
<rect x="1" y="1" width="50" height="50" rx="5" fill="#cccccc" />
<rect x="6" y="4" width="40" height="40" rx="5" fill="#fbfbfb" />
<text x="7" y="5" font-size="12" text-anchor="start" dominant-baseline="hanging"><tspan x="7" dy="0em">3,4</tspan></text>
</g>
<g id="d52">
<rect x="0" y="0" width="52" height="52" rx="5" fill="none" stroke="black" stroke-width="2" />
<rect x="1" y="1" width="50" height="50" rx="5" fill="#cccccc" />
<rect x="6" y="4" width="40" height="40" rx="5" fill="#fbfbfb" />
<text x="7" y="5" font-size="12" text-anchor="start" dominant-baseline="hanging"><tspan x="7" dy="0em">6,4</tspan></text>
</g>
<g id="d53">
<rect x="0" y="0" width="52" height="52" rx="5" fill="none" stroke="black" stroke-width="2" />
<rect x="1" y="1" width="50" height="50" rx="5" fill="#cccccc" />
<rect x="6" y="4" width="40" height="40" rx="5" fill="#fbfbfb" />
<text x="7" y="5" font-size="12" text-anchor="start" dominant-baseline="hanging"><tspan x="7" dy="0em">3,5</tspan></text>
</g>
<g id="d54">
<rect x="0" y="0" width="52" height="52" rx="5" fill="none" stroke="black" stroke-width="2" />
<rect x="1" y="1" width="50" height="50" rx="5" fill="#cccccc" />
<rect x="6" y="4" width="40" height="40" rx="5" fill="#fbfbfb" />
<text x="7" y="5" font-size="12" text-anchor="start" dominant-baseline="hanging"><tspan x="7" dy="0em">6,5</tspan></text>
</g>
<g id="d55">
<rect x="0" y="0" width="52" height="52" rx="5" fill="none" stroke="black" stroke-width="2" />
<rect x="1" y="1" width="50" height="50" rx="5" fill="#cccccc" />
<rect x="6" y="4" width="40" height="40" rx="5" fill="#fbfbfb" />
<text x="7" y="5" font-size="12" text-anchor="start" dominant-baseline="hanging"><tspan x="7" dy="0em">2,4</tspan></text>
</g>
<g id="d56">
<rect x="0" y="0" width="52" height="52" rx="5" fill="none" stroke="black" stroke-width="2" />
<rect x="1" y="1" width="50" height="50" rx="5" fill="#cccccc" />
<rect x="6" y="4" width="40" height="40" rx="5" fill="#fbfbfb" />
<text x="7" y="5" font-size="12" text-anchor="start" dominant-baseline="hanging"><tspan x="7" dy="0em">7,4</tspan></text>
</g>
<g id="d57">
<rect x="0" y="0" width="52" height="52" rx="5" fill="none" stroke="black" stroke-width="2" />
<rect x="1" y="1" width="50" height="50" rx="5" fill="#cccccc" />
<rect x="6" y="4" width="40" height="40" rx="5" fill="#fbfbfb" />
<text x="7" y="5" font-size="12" text-anchor="start" dominant-baseline="hanging"><tspan x="7" dy="0em">2,5</tspan></text>
</g>
<g id="d58">
<rect x="0" y="0" width="52" height="52" rx="5" fill="none" stroke="black" stroke-width="2" />
<rect x="1" y="1" width="50" height="50" rx="5" fill="#cccccc" />
<rect x="6" y="4" width="40" height="40" rx="5" fill="#fbfbfb" />
<text x="7" y="5" font-size="12" text-anchor="start" dominant-baseline="hanging"><tspan x="7" dy="0em">7,5</tspan></text>
</g>
<g id="d59">
<rect x="0" y="0" width="52" height="52" rx="5" fill="none" stroke="black" stroke-width="2" />
<rect x="1" y="1" width="50" height="50" rx="5" fill="#aaaaaa" />
<rect x="6" y="4" width="40" height="40" rx="5" fill="#d0d0d0" />
<text x="7" y="5" font-size="12" text-anchor="start" dominant-baseline="hanging"><tspan x="7" dy="0em">1,4</tspan></text>
</g>
<g id="d60">
<rect x="0" y="0" width="52" height="52" rx="5" fill="none" stroke="black" stroke-width="2" />
<rect x="1" y="1" width="50" height="50" rx="5" fill="#aaaaaa" />
<rect x="6" y="4" width="40" height="40" rx="5" fill="#d0d0d0" />
<text x="7" y="5" font-size="12" text-anchor="start" dominant-baseline="hanging"><tspan x="7" dy="0em">8,4</tspan></text>
</g>
<g id="d61">
<rect x="0" y="0" width="104" height="52" rx="5" fill="none" stroke="black" stroke-width="2" />
<rect x="1" y="1" width="102" height="50" rx="5" fill="#aaaaaa" />
<rect x="6" y="4" width="92" height="40" rx="5" fill="#d0d0d0" />
<text x="7" y="5" font-size="12" text-anchor="start" dominant-baseline="hanging"><tspan x="7" dy="0em">1,5</tspan></text>
</g>
<g id="d62">
<rect x="0" y="0" width="52" height="52" rx="5" fill="none" stroke="black" stroke-width="2" />
<rect x="1" y="1" width="50" height="50" rx="5" fill="#cccccc" />
<rect x="6" y="4" width="40" height="40" rx="5" fill="#fbfbfb" />
<text x="7" y="5" font-size="12" text-anchor="start" dominant-baseline="hanging"><tspan x="7" dy="0em">4,6</tspan></text>
</g>
<g id="d63">
<rect x="0" y="0" width="52" height="52" rx="5" fill="none" stroke="black" stroke-width="2" />
<rect x="1" y="1" width="50" height="50" rx="5" fill="#cccccc" />
<rect x="6" y="4" width="40" height="40" rx="5" fill="#fbfbfb" />
<text x="7" y="5" font-size="12" text-anchor="start" dominant-baseline="hanging"><tspan x="7" dy="0em">5,6</tspan></text>
</g>
<g id="d64">
<rect x="0" y="0" width="52" height="52" rx="5" fill="none" stroke="black" stroke-width="2" />
<rect x="1" y="1" width="50" height="50" rx="5" fill="#cccccc" />
<rect x="6" y="4" width="40" height="40" rx="5" fill="#fbfbfb" />
<text x="7" y="5" font-size="12" text-anchor="start" dominant-baseline="hanging"><tspan x="7" dy="0em">4,7</tspan></text>
</g>
<g id="d65">
<rect x="0" y="0" width="52" height="52" rx="5" fill="none" stroke="black" stroke-width="2" />
<rect x="1" y="1" width="50" height="50" rx="5" fill="#cccccc" />
<rect x="6" y="4" width="40" height="40" rx="5" fill="#fbfbfb" />
<text x="7" y="5" font-size="12" text-anchor="start" dominant-baseline="hanging"><tspan x="7" dy="0em">5,7</tspan></text>
</g>
<g id="d66">
<rect x="0" y="0" width="52" height="52" rx="5" fill="none" stroke="black" stroke-width="2" />
<rect x="1" y="1" width="50" height="50" rx="5" fill="#cccccc" />
<rect x="6" y="4" width="40" height="40" rx="5" fill="#fbfbfb" />
<text x="7" y="5" font-size="12" text-anchor="start" dominant-baseline="hanging"><tspan x="7" dy="0em">3,6</tspan></text>
</g>
<g id="d67">
<rect x="0" y="0" width="52" height="52" rx="5" fill="none" stroke="black" stroke-width="2" />
<rect x="1" y="1" width="50" height="50" rx="5" fill="#cccccc" />
<rect x="6" y="4" width="40" height="40" rx="5" fill="#fbfbfb" />
<text x="7" y="5" font-size="12" text-anchor="start" dominant-baseline="hanging"><tspan x="7" dy="0em">6,6</tspan></text>
</g>
<g id="d68">
<rect x="0" y="0" width="52" height="52" rx="5" fill="none" stroke="black" stroke-width="2" />
<rect x="1" y="1" width="50" height="50" rx="5" fill="#cccccc" />
<rect x="6" y="4" width="40" height="40" rx="5" fill="#fbfbfb" />
<text x="7" y="5" font-size="12" text-anchor="start" dominant-baseline="hanging"><tspan x="7" dy="0em">3,7</tspan></text>
</g>
<g id="d69">
<rect x="0" y="0" width="52" height="52" rx="5" fill="none" stroke="black" stroke-width="2" />
<rect x="1" y="1" width="50" height="50" rx="5" fill="#cccccc" />
<rect x="6" y="4" width="40" height="40" rx="5" fill="#fbfbfb" />
<text x="7" y="5" font-size="12" text-anchor="start" dominant-baseline="hanging"><tspan x="7" dy="0em">6,7</tspan></text>
</g>
<g id="d70">
<rect x="0" y="0" width="52" height="52" rx="5" fill="none" stroke="black" stroke-width="2" />
<rect x="1" y="1" width="50" height="50" rx="5" fill="#cccccc" />
<rect x="6" y="4" width="40" height="40" rx="5" fill="#fbfbfb" />
<text x="7" y="5" font-size="12" text-anchor="start" dominant-baseline="hanging"><tspan x="7" dy="0em">8,5</tspan></text>
</g>
<g id="d71">
<rect x="0" y="0" width="52" height="52" rx="5" fill="none" stroke="black" stroke-width="2" />
<rect x="1" y="1" width="50" height="50" rx="5" fill="#cccccc" />
<rect x="6" y="4" width="40" height="40" rx="5" fill="#fbfbfb" />
<text x="7" y="5" font-size="12" text-anchor="start" dominant-baseline="hanging"><tspan x="7" dy="0em">2,6</tspan></text>
</g>
<g id="d72">
<rect x="0" y="0" width="52" height="52" rx="5" fill="none" stroke="black" stroke-width="2" />
<rect x="1" y="1" width="50" height="50" rx="5" fill="#cccccc" />
<rect x="6" y="4" width="40" height="40" rx="5" fill="#fbfbfb" />
<text x="7" y="5" font-size="12" text-anchor="start" dominant-baseline="hanging"><tspan x="7" dy="0em">7,6</tspan></text>
</g>
<g id="d73">
<rect x="0" y="0" width="52" height="52" rx="5" fill="none" stroke="black" stroke-width="2" />
<rect x="1" y="1" width="50" height="50" rx="5" fill="#cccccc" />
<rect x="6" y="4" width="40" height="40" rx="5" fill="#fbfbfb" />
<text x="7" y="5" font-size="12" text-anchor="start" dominant-baseline="hanging"><tspan x="7" dy="0em">2,7</tspan></text>
</g>
<g id="d74">
<rect x="0" y="0" width="104" height="52" rx="5" fill="none" stroke="black" stroke-width="2" />
<rect x="1" y="1" width="102" height="50" rx="5" fill="#aaaaaa" />
<rect x="6" y="4" width="92" height="40" rx="5" fill="#d0d0d0" />
<text x="7" y="5" font-size="12" text-anchor="start" dominant-baseline="hanging"><tspan x="7" dy="0em">1,6</tspan></text>
</g>
<g id="d75">
<rect x="0" y="0" width="52" height="52" rx="5" fill="none" stroke="black" stroke-width="2" />
<rect x="1" y="1" width="50" height="50" rx="5" fill="#aaaaaa" />
<rect x="6" y="4" width="40" height="40" rx="5" fill="#d0d0d0" />
<text x="7" y="5" font-size="12" text-anchor="start" dominant-baseline="hanging"><tspan x="7" dy="0em">8,6</tspan></text>
</g>
<g id="d76">
<rect x="0" y="0" width="52" height="52" rx="5" fill="none" stroke="black" stroke-width="2" />
<rect x="1" y="1" width="50" height="50" rx="5" fill="#aaaaaa" />
<rect x="6" y="4" width="40" height="40" rx="5" fill="#d0d0d0" />
<text x="7" y="5" font-size="12" text-anchor="start" dominant-baseline="hanging"><tspan x="7" dy="0em">1,7</tspan></text>
</g>
</defs>
<use xlink:href="#d0" x="17.0" y="27.92" />
<use xlink:href="#d1" x="69.0" y="27.92" />
<use xlink:href="#d2" x="121.0" y="27.92" />
<use xlink:href="#d3" x="173.0" y="27.92" />
<use xlink:href="#d4" x="225.0" y="27.92" />
<use xlink:href="#d5" x="277.0" y="27.92" />
<use xlink:href="#d6" x="17.0" y="79.92" />
<use xlink:href="#d7" x="69.0" y="79.92" />
<use xlink:href="#d8" x="121.0" y="79.92" />
<use xlink:href="#d9" x="173.0" y="79.92" />
<use xlink:href="#d10" x="225.0" y="79.92" />
<use xlink:href="#d11" x="277.0" y="79.92" />
<use xlink:href="#d12" x="17.0" y="131.92000000000002" />
<use xlink:href="#d13" x="69.0" y="131.92000000000002" />
<use xlink:href="#d14" x="121.0" y="131.92000000000002" />
<use xlink:href="#d15" x="173.0" y="131.92000000000002" />
<use xlink:href="#d16" x="225.0" y="131.92000000000002" />
<use xlink:href="#d17" x="277.0" y="131.92000000000002" />
<use xlink:href="#d18" x="17.0" y="183.92" />
<use xlink:href="#d19" x="69.0" y="183.92" />
<use xlink:href="#d20" x="121.0" y="183.92" />
<use xlink:href="#d21" x="173.0" y="183.92" />
<use xlink:href="#d22" x="225.0" y="183.92" />
<use xlink:href="#d23" x="277.0" y="183.92" />
<use xlink:href="#d24" x="17.0" y="235.92" />
<use xlink:href="#d25" x="69.0" y="235.92" />
<use xlink:href="#d26" x="121.0" y="235.92" />
<use xlink:href="#d27" x="173.0" y="235.92" />
<use xlink:href="#d28" x="225.0" y="235.92" />
<use xlink:href="#d29" x="277.0" y="235.92" />
<use xlink:href="#d30" x="373.2" y="27.92" />
<use xlink:href="#d31" x="425.2" y="27.92" />
<use xlink:href="#d32" x="942.6" y="27.92" />
<use xlink:href="#d33" x="994.6" y="27.92" />
<use xlink:href="#d34" x="365.92" y="80.44" />
<use xlink:href="#d35" x="430.9200000000001" y="80.44" />
<use xlink:href="#d36" x="962.8800000000001" y="80.44" />
<use xlink:href="#d37" x="1014.8800000000001" y="80.44" />
<use xlink:href="#d38" x="358.12" y="132.96" />
<use xlink:href="#d39" x="449.12" y="132.96" />
<use xlink:href="#d40" x="944.1599999999999" y="132.96" />
<use xlink:href="#d41" x="996.1599999999999" y="132.96" />
<use xlink:href="#d42" x="1048.1599999999999" y="132.96" />
<use xlink:href="#d43" x="363.84" y="185.48000000000002" />
<use xlink:href="#d44" x="428.84" y="185.48000000000002" />
<use xlink:href="#d45" x="951.4399999999999" y="185.48000000000002" />
<use xlink:href="#d46" x="1029.44" y="185.48000000000002" />
<use xlink:href="#d47" x="485.0" y="4" transform="rotate(8 325.0 52)" />
<use xlink:href="#d48" x="537.0" y="4" transform="rotate(8 325.0 52)" />
<use xlink:href="#d49" x="589.0" y="4" transform="rotate(8 325.0 52)" />
<use xlink:href="#d50" x="641.0" y="4" transform="rotate(8 325.0 52)" />
<use xlink:href="#d51" x="498.0" y="56" transform="rotate(8 325.0 52)" />
<use xlink:href="#d52" x="550.0" y="56" transform="rotate(8 325.0 52)" />
<use xlink:href="#d53" x="602.0" y="56" transform="rotate(8 325.0 52)" />
<use xlink:href="#d54" x="654.0" y="56" transform="rotate(8 325.0 52)" />
<use xlink:href="#d55" x="524.0" y="108" transform="rotate(8 325.0 52)" />
<use xlink:href="#d56" x="576.0" y="108" transform="rotate(8 325.0 52)" />
<use xlink:href="#d57" x="628.0" y="108" transform="rotate(8 325.0 52)" />
<use xlink:href="#d58" x="680.0" y="108" transform="rotate(8 325.0 52)" />
<use xlink:href="#d59" x="524.0" y="160" transform="rotate(8 325.0 52)" />
<use xlink:href="#d60" x="576.0" y="160" transform="rotate(8 325.0 52)" />
<use xlink:href="#d61" x="628.0" y="160" transform="rotate(8 325.0 52)" />
<use xlink:href="#d62" x="719.0" y="113.2" transform="rotate(-8 325.0 52)" />
<use xlink:href="#d63" x="771.0" y="113.2" transform="rotate(-8 325.0 52)" />
<use xlink:href="#d64" x="823.0" y="113.2" transform="rotate(-8 325.0 52)" />
<use xlink:href="#d65" x="875.0" y="113.2" transform="rotate(-8 325.0 52)" />
<use xlink:href="#d66" x="732.0" y="165.20000000000002" transform="rotate(-8 325.0 52)" />
<use xlink:href="#d67" x="784.0" y="165.20000000000002" transform="rotate(-8 325.0 52)" />
<use xlink:href="#d68" x="836.0" y="165.20000000000002" transform="rotate(-8 325.0 52)" />
<use xlink:href="#d69" x="888.0" y="165.20000000000002" transform="rotate(-8 325.0 52)" />
<use xlink:href="#d70" x="706.0" y="217.2" transform="rotate(-8 325.0 52)" />
<use xlink:href="#d71" x="758.0" y="217.2" transform="rotate(-8 325.0 52)" />
<use xlink:href="#d72" x="810.0" y="217.2" transform="rotate(-8 325.0 52)" />
<use xlink:href="#d73" x="862.0" y="217.2" transform="rotate(-8 325.0 52)" />
<use xlink:href="#d74" x="706.0" y="269.2" transform="rotate(-8 325.0 52)" />
<use xlink:href="#d75" x="810.0" y="269.2" transform="rotate(-8 325.0 52)" />
<use xlink:href="#d76" x="862.0" y="269.2" transform="rotate(-8 325.0 52)" />
</svg>