<?xml version="1.0" encoding="UTF-8"?>
<!DOCTYPE svg  PUBLIC '-//W3C//DTD SVG 1.1//EN'  'http://www.w3.org/Graphics/SVG/1.1/DTD/svg11.dtd'>
<svg width="76.276mm" height="90.576mm" version="1.1" viewBox="0 0 76.276 90.576" xmlns="http://www.w3.org/2000/svg">
 <title>SVG Image created as keybow2040-render.svg date 2025/09/05 18:39:06</title>
 <desc>Image generated by PCBNEW</desc>
 <rect width="76.276mm" height="90.576mm" fill="#282A36"/>
 <g fill="none" stroke="#8BE9FD" stroke-linecap="round" stroke-linejoin="round" stroke-width=".15">
  <text x="47.6750" y="35.4125" font-size="1.3333" opacity="0" stroke-opacity="0" text-anchor="middle" lengthAdjust="spacingAndGlyphs" textLength="3.2976">SW7</text>
  <g class="stroked-text">
   <desc>SW7</desc>
   <path d="m46.342 35.32 0.1428 0.0476"/>
   <path d="m46.484 35.367h0.2381"/>
   <path d="m46.723 35.367 0.0953-0.0476"/>
   <path d="m46.818 35.32 0.0476-0.0476"/>
   <path d="m46.866 35.272 0.0476-0.0953"/>
   <path d="m46.913 35.177v-0.0952"/>
   <path d="m46.913 35.082-0.0476-0.0952"/>
   <path d="m46.866 34.986-0.0476-0.0477"/>
   <path d="m46.818 34.939-0.0953-0.0476"/>
   <path d="m46.723 34.891-0.1905-0.0476"/>
   <path d="m46.532 34.844-0.0952-0.0476"/>
   <path d="m46.437 34.796-0.0476-0.0476"/>
   <path d="m46.389 34.748-0.0476-0.0953"/>
   <path d="m46.342 34.653v-0.0952"/>
   <path d="m46.342 34.558 0.0476-0.0952"/>
   <path d="m46.389 34.463 0.0476-0.0477"/>
   <path d="m46.437 34.415 0.0952-0.0476"/>
   <path d="m46.532 34.367h0.2381"/>
   <path d="m46.77 34.367 0.1429 0.0476"/>
   <path d="m47.246 34.367 0.2381 1"/>
   <path d="m47.484 35.367 0.1905-0.7143"/>
   <path d="m47.675 34.653 0.1905 0.7143"/>
   <path d="m47.866 35.367 0.2381-1"/>
   <path d="m48.389 34.367h0.6667"/>
   <path d="m49.056 34.367-0.4286 1"/>
  </g>
  <text x="66.7250" y="54.4625" font-size="1.3333" opacity="0" stroke-opacity="0" text-anchor="middle" lengthAdjust="spacingAndGlyphs" textLength="4.2500">SW12</text>
  <g class="stroked-text">
   <desc>SW12</desc>
   <path d="m64.916 54.37 0.1428 0.0476"/>
   <path d="m65.058 54.417h0.2381"/>
   <path d="m65.296 54.417 0.0953-0.0476"/>
   <path d="m65.392 54.37 0.0476-0.0476"/>
   <path d="m65.439 54.322 0.0476-0.0953"/>
   <path d="m65.487 54.227v-0.0952"/>
   <path d="m65.487 54.132-0.0476-0.0952"/>
   <path d="m65.439 54.036-0.0476-0.0477"/>
   <path d="m65.392 53.989-0.0953-0.0476"/>
   <path d="m65.296 53.941-0.1904-0.0476"/>
   <path d="m65.106 53.894-0.0953-0.0476"/>
   <path d="m65.011 53.846-0.0476-0.0476"/>
   <path d="m64.963 53.798-0.0476-0.0953"/>
   <path d="m64.916 53.703v-0.0952"/>
   <path d="m64.916 53.608 0.0476-0.0952"/>
   <path d="m64.963 53.513 0.0476-0.0477"/>
   <path d="m65.011 53.465 0.0953-0.0476"/>
   <path d="m65.106 53.417h0.238"/>
   <path d="m65.344 53.417 0.1429 0.0476"/>
   <path d="m65.82 53.417 0.2381 1"/>
   <path d="m66.058 54.417 0.1905-0.7143"/>
   <path d="m66.249 53.703 0.1905 0.7143"/>
   <path d="m66.439 54.417 0.2381-1"/>
   <path d="m67.582 54.417h-0.5714"/>
   <path d="m67.296 54.417v-1"/>
   <path d="m67.296 53.417-0.0952 0.1429"/>
   <path d="m67.201 53.56-0.0952 0.0952"/>
   <path d="m67.106 53.655-0.0953 0.0476"/>
   <path d="m67.963 53.513 0.0476-0.0477"/>
   <path d="m68.011 53.465 0.0953-0.0476"/>
   <path d="m68.106 53.417h0.238"/>
   <path d="m68.344 53.417 0.0953 0.0476"/>
   <path d="m68.439 53.465 0.0476 0.0477"/>
   <path d="m68.487 53.513 0.0476 0.0952"/>
   <path d="m68.534 53.608v0.0952"/>
   <path d="m68.534 53.703-0.0476 0.1429"/>
   <path d="m68.487 53.846-0.5714 0.5714"/>
   <path d="m67.916 54.417h0.619"/>
  </g>
  <text x="47.6750" y="16.3625" font-size="1.3333" opacity="0" stroke-opacity="0" text-anchor="middle" lengthAdjust="spacingAndGlyphs" textLength="3.2976">SW3</text>
  <g class="stroked-text">
   <desc>SW3</desc>
   <path d="m46.342 16.27 0.1428 0.0476"/>
   <path d="m46.484 16.317h0.2381"/>
   <path d="m46.723 16.317 0.0953-0.0476"/>
   <path d="m46.818 16.27 0.0476-0.0476"/>
   <path d="m46.866 16.222 0.0476-0.0953"/>
   <path d="m46.913 16.127v-0.0952"/>
   <path d="m46.913 16.032-0.0476-0.0952"/>
   <path d="m46.866 15.936-0.0476-0.0477"/>
   <path d="m46.818 15.889-0.0953-0.0476"/>
   <path d="m46.723 15.841-0.1905-0.0476"/>
   <path d="m46.532 15.794-0.0952-0.0476"/>
   <path d="m46.437 15.746-0.0476-0.0476"/>
   <path d="m46.389 15.698-0.0476-0.0953"/>
   <path d="m46.342 15.603v-0.0952"/>
   <path d="m46.342 15.508 0.0476-0.0952"/>
   <path d="m46.389 15.413 0.0476-0.0477"/>
   <path d="m46.437 15.365 0.0952-0.0476"/>
   <path d="m46.532 15.317h0.2381"/>
   <path d="m46.77 15.317 0.1429 0.0476"/>
   <path d="m47.246 15.317 0.2381 1"/>
   <path d="m47.484 16.317 0.1905-0.7143"/>
   <path d="m47.675 15.603 0.1905 0.7143"/>
   <path d="m47.866 16.317 0.2381-1"/>
   <path d="m48.389 15.317h0.619"/>
   <path d="m49.008 15.317-0.3333 0.381"/>
   <path d="m48.675 15.698h0.1429"/>
   <path d="m48.818 15.698 0.0952 0.0476"/>
   <path d="m48.913 15.746 0.0476 0.0476"/>
   <path d="m48.961 15.794 0.0476 0.0952"/>
   <path d="m49.008 15.889v0.2381"/>
   <path d="m49.008 16.127-0.0476 0.0953"/>
   <path d="m48.961 16.222-0.0476 0.0476"/>
   <path d="m48.913 16.27-0.0952 0.0476"/>
   <path d="m48.818 16.317h-0.2858"/>
   <path d="m48.532 16.317-0.0952-0.0476"/>
   <path d="m48.437 16.27-0.0476-0.0476"/>
  </g>
  <text x="28.6250" y="16.3625" font-size="1.3333" opacity="0" stroke-opacity="0" text-anchor="middle" lengthAdjust="spacingAndGlyphs" textLength="3.2976">SW2</text>
  <g class="stroked-text">
   <desc>SW2</desc>
   <path d="m27.292 16.27 0.1428 0.0476"/>
   <path d="m27.434 16.317h0.2381"/>
   <path d="m27.673 16.317 0.0953-0.0476"/>
   <path d="m27.768 16.27 0.0476-0.0476"/>
   <path d="m27.816 16.222 0.0476-0.0953"/>
   <path d="m27.863 16.127v-0.0952"/>
   <path d="m27.863 16.032-0.0476-0.0952"/>
   <path d="m27.816 15.936-0.0476-0.0477"/>
   <path d="m27.768 15.889-0.0953-0.0476"/>
   <path d="m27.673 15.841-0.1905-0.0476"/>
   <path d="m27.482 15.794-0.0952-0.0476"/>
   <path d="m27.387 15.746-0.0476-0.0476"/>
   <path d="m27.339 15.698-0.0476-0.0953"/>
   <path d="m27.292 15.603v-0.0952"/>
   <path d="m27.292 15.508 0.0476-0.0952"/>
   <path d="m27.339 15.413 0.0476-0.0477"/>
   <path d="m27.387 15.365 0.0952-0.0476"/>
   <path d="m27.482 15.317h0.2381"/>
   <path d="m27.72 15.317 0.1429 0.0476"/>
   <path d="m28.196 15.317 0.2381 1"/>
   <path d="m28.434 16.317 0.1905-0.7143"/>
   <path d="m28.625 15.603 0.1905 0.7143"/>
   <path d="m28.816 16.317 0.2381-1"/>
   <path d="m29.387 15.413 0.0476-0.0477"/>
   <path d="m29.434 15.365 0.0953-0.0476"/>
   <path d="m29.53 15.317h0.2381"/>
   <path d="m29.768 15.317 0.0952 0.0476"/>
   <path d="m29.863 15.365 0.0476 0.0477"/>
   <path d="m29.911 15.413 0.0476 0.0952"/>
   <path d="m29.958 15.508v0.0952"/>
   <path d="m29.958 15.603-0.0476 0.1429"/>
   <path d="m29.911 15.746-0.5714 0.5714"/>
   <path d="m29.339 16.317h0.619"/>
  </g>
  <text x="66.7250" y="73.5125" font-size="1.3333" opacity="0" stroke-opacity="0" text-anchor="middle" lengthAdjust="spacingAndGlyphs" textLength="4.2500">SW16</text>
  <g class="stroked-text">
   <desc>SW16</desc>
   <path d="m64.916 73.42 0.1428 0.0476"/>
   <path d="m65.058 73.467h0.2381"/>
   <path d="m65.296 73.467 0.0953-0.0476"/>
   <path d="m65.392 73.42 0.0476-0.0476"/>
   <path d="m65.439 73.372 0.0476-0.0953"/>
   <path d="m65.487 73.277v-0.0952"/>
   <path d="m65.487 73.182-0.0476-0.0952"/>
   <path d="m65.439 73.086-0.0476-0.0477"/>
   <path d="m65.392 73.039-0.0953-0.0476"/>
   <path d="m65.296 72.991-0.1904-0.0476"/>
   <path d="m65.106 72.944-0.0953-0.0476"/>
   <path d="m65.011 72.896-0.0476-0.0476"/>
   <path d="m64.963 72.848-0.0476-0.0953"/>
   <path d="m64.916 72.753v-0.0952"/>
   <path d="m64.916 72.658 0.0476-0.0952"/>
   <path d="m64.963 72.563 0.0476-0.0477"/>
   <path d="m65.011 72.515 0.0953-0.0476"/>
   <path d="m65.106 72.467h0.238"/>
   <path d="m65.344 72.467 0.1429 0.0476"/>
   <path d="m65.82 72.467 0.2381 1"/>
   <path d="m66.058 73.467 0.1905-0.7143"/>
   <path d="m66.249 72.753 0.1905 0.7143"/>
   <path d="m66.439 73.467 0.2381-1"/>
   <path d="m67.582 73.467h-0.5714"/>
   <path d="m67.296 73.467v-1"/>
   <path d="m67.296 72.467-0.0952 0.1429"/>
   <path d="m67.201 72.61-0.0952 0.0952"/>
   <path d="m67.106 72.705-0.0953 0.0476"/>
   <path d="m68.439 72.467h-0.1905"/>
   <path d="m68.249 72.467-0.0952 0.0476"/>
   <path d="m68.154 72.515-0.0476 0.0477"/>
   <path d="m68.106 72.563-0.0953 0.1428"/>
   <path d="m68.011 72.705-0.0476 0.1905"/>
   <path d="m67.963 72.896v0.3809"/>
   <path d="m67.963 73.277 0.0476 0.0953"/>
   <path d="m68.011 73.372 0.0476 0.0476"/>
   <path d="m68.058 73.42 0.0953 0.0476"/>
   <path d="m68.154 73.467h0.1904"/>
   <path d="m68.344 73.467 0.0953-0.0476"/>
   <path d="m68.439 73.42 0.0476-0.0476"/>
   <path d="m68.487 73.372 0.0476-0.0953"/>
   <path d="m68.534 73.277v-0.2381"/>
   <path d="m68.534 73.039-0.0476-0.0952"/>
   <path d="m68.487 72.944-0.0476-0.0476"/>
   <path d="m68.439 72.896-0.0953-0.0476"/>
   <path d="m68.344 72.848h-0.1904"/>
   <path d="m68.154 72.848-0.0953 0.0476"/>
   <path d="m68.058 72.896-0.0476 0.0476"/>
   <path d="m68.011 72.944-0.0476 0.0952"/>
  </g>
  <text x="52.4375" y="2.0750" font-size="1.3333" opacity="0" stroke-opacity="0" text-anchor="middle" lengthAdjust="spacingAndGlyphs" textLength="4.2500">SW17</text>
  <g class="stroked-text">
   <desc>SW17</desc>
   <path d="m50.628 1.9822 0.1428 0.0476"/>
   <path d="m50.771 2.0298h0.2381"/>
   <path d="m51.009 2.0298 0.0953-0.0476"/>
   <path d="m51.104 1.9822 0.0476-0.0476"/>
   <path d="m51.152 1.9346 0.0476-0.0953"/>
   <path d="m51.199 1.8393v-0.0952"/>
   <path d="m51.199 1.7441-0.0476-0.0952"/>
   <path d="m51.152 1.6489-0.0476-0.0477"/>
   <path d="m51.104 1.6012-0.0953-0.0476"/>
   <path d="m51.009 1.5536-0.1904-0.0476"/>
   <path d="m50.818 1.506-0.0953-0.0476"/>
   <path d="m50.723 1.4584-0.0476-0.0476"/>
   <path d="m50.676 1.4108-0.0476-0.0953"/>
   <path d="m50.628 1.3155v-0.0952"/>
   <path d="m50.628 1.2203 0.0476-0.0952"/>
   <path d="m50.676 1.1251 0.0476-0.0477"/>
   <path d="m50.723 1.0774 0.0953-0.0476"/>
   <path d="m50.818 1.0298h0.238"/>
   <path d="m51.056 1.0298 0.1429 0.0476"/>
   <path d="m51.533 1.0298 0.2381 1"/>
   <path d="m51.771 2.0298 0.1905-0.7143"/>
   <path d="m51.961 1.3155 0.1905 0.7143"/>
   <path d="m52.152 2.0298 0.2381-1"/>
   <path d="m53.295 2.0298h-0.5714"/>
   <path d="m53.009 2.0298v-1"/>
   <path d="m53.009 1.0298-0.0952 0.1429"/>
   <path d="m52.914 1.1727-0.0952 0.0952"/>
   <path d="m52.818 1.2679-0.0953 0.0476"/>
   <path d="m53.628 1.0298h0.6666"/>
   <path d="m54.295 1.0298-0.4285 1"/>
  </g>
  <text x="28.6250" y="54.4625" font-size="1.3333" opacity="0" stroke-opacity="0" text-anchor="middle" lengthAdjust="spacingAndGlyphs" textLength="4.2500">SW10</text>
  <g class="stroked-text">
   <desc>SW10</desc>
   <path d="m26.816 54.37 0.1428 0.0476"/>
   <path d="m26.958 54.417h0.2381"/>
   <path d="m27.196 54.417 0.0953-0.0476"/>
   <path d="m27.292 54.37 0.0476-0.0476"/>
   <path d="m27.339 54.322 0.0476-0.0953"/>
   <path d="m27.387 54.227v-0.0952"/>
   <path d="m27.387 54.132-0.0476-0.0952"/>
   <path d="m27.339 54.036-0.0476-0.0477"/>
   <path d="m27.292 53.989-0.0953-0.0476"/>
   <path d="m27.196 53.941-0.1904-0.0476"/>
   <path d="m27.006 53.894-0.0953-0.0476"/>
   <path d="m26.911 53.846-0.0476-0.0476"/>
   <path d="m26.863 53.798-0.0476-0.0953"/>
   <path d="m26.816 53.703v-0.0952"/>
   <path d="m26.816 53.608 0.0476-0.0952"/>
   <path d="m26.863 53.513 0.0476-0.0477"/>
   <path d="m26.911 53.465 0.0953-0.0476"/>
   <path d="m27.006 53.417h0.238"/>
   <path d="m27.244 53.417 0.1429 0.0476"/>
   <path d="m27.72 53.417 0.2381 1"/>
   <path d="m27.958 54.417 0.1905-0.7143"/>
   <path d="m28.149 53.703 0.1905 0.7143"/>
   <path d="m28.339 54.417 0.2381-1"/>
   <path d="m29.482 54.417h-0.5714"/>
   <path d="m29.196 54.417v-1"/>
   <path d="m29.196 53.417-0.0952 0.1429"/>
   <path d="m29.101 53.56-0.0952 0.0952"/>
   <path d="m29.006 53.655-0.0953 0.0476"/>
   <path d="m30.101 53.417h0.0952"/>
   <path d="m30.196 53.417 0.0953 0.0476"/>
   <path d="m30.292 53.465 0.0476 0.0477"/>
   <path d="m30.339 53.513 0.0476 0.0952"/>
   <path d="m30.387 53.608 0.0476 0.1905"/>
   <path d="m30.434 53.798v0.2381"/>
   <path d="m30.434 54.036-0.0476 0.1904"/>
   <path d="m30.387 54.227-0.0476 0.0953"/>
   <path d="m30.339 54.322-0.0476 0.0476"/>
   <path d="m30.292 54.37-0.0953 0.0476"/>
   <path d="m30.196 54.417h-0.0952"/>
   <path d="m30.101 54.417-0.0952-0.0476"/>
   <path d="m30.006 54.37-0.0477-0.0476"/>
   <path d="m29.958 54.322-0.0476-0.0953"/>
   <path d="m29.911 54.227-0.0476-0.1904"/>
   <path d="m29.863 54.036v-0.2381"/>
   <path d="m29.863 53.798 0.0476-0.1905"/>
   <path d="m29.911 53.608 0.0476-0.0952"/>
   <path d="m29.958 53.513 0.0477-0.0477"/>
   <path d="m30.006 53.465 0.0952-0.0476"/>
  </g>
  <text x="47.6750" y="73.5125" font-size="1.3333" opacity="0" stroke-opacity="0" text-anchor="middle" lengthAdjust="spacingAndGlyphs" textLength="4.2500">SW15</text>
  <g class="stroked-text">
   <desc>SW15</desc>
   <path d="m45.866 73.42 0.1428 0.0476"/>
   <path d="m46.008 73.467h0.2381"/>
   <path d="m46.246 73.467 0.0953-0.0476"/>
   <path d="m46.342 73.42 0.0476-0.0476"/>
   <path d="m46.389 73.372 0.0476-0.0953"/>
   <path d="m46.437 73.277v-0.0952"/>
   <path d="m46.437 73.182-0.0476-0.0952"/>
   <path d="m46.389 73.086-0.0476-0.0477"/>
   <path d="m46.342 73.039-0.0953-0.0476"/>
   <path d="m46.246 72.991-0.1904-0.0476"/>
   <path d="m46.056 72.944-0.0953-0.0476"/>
   <path d="m45.961 72.896-0.0476-0.0476"/>
   <path d="m45.913 72.848-0.0476-0.0953"/>
   <path d="m45.866 72.753v-0.0952"/>
   <path d="m45.866 72.658 0.0476-0.0952"/>
   <path d="m45.913 72.563 0.0476-0.0477"/>
   <path d="m45.961 72.515 0.0953-0.0476"/>
   <path d="m46.056 72.467h0.238"/>
   <path d="m46.294 72.467 0.1429 0.0476"/>
   <path d="m46.77 72.467 0.2381 1"/>
   <path d="m47.008 73.467 0.1905-0.7143"/>
   <path d="m47.199 72.753 0.1905 0.7143"/>
   <path d="m47.389 73.467 0.2381-1"/>
   <path d="m48.532 73.467h-0.5714"/>
   <path d="m48.246 73.467v-1"/>
   <path d="m48.246 72.467-0.0952 0.1429"/>
   <path d="m48.151 72.61-0.0952 0.0952"/>
   <path d="m48.056 72.705-0.0953 0.0476"/>
   <path d="m49.437 72.467h-0.4762"/>
   <path d="m48.961 72.467-0.0476 0.4762"/>
   <path d="m48.913 72.944 0.0476-0.0476"/>
   <path d="m48.961 72.896 0.0953-0.0476"/>
   <path d="m49.056 72.848h0.238"/>
   <path d="m49.294 72.848 0.0953 0.0476"/>
   <path d="m49.389 72.896 0.0476 0.0476"/>
   <path d="m49.437 72.944 0.0476 0.0952"/>
   <path d="m49.484 73.039v0.2381"/>
   <path d="m49.484 73.277-0.0476 0.0953"/>
   <path d="m49.437 73.372-0.0476 0.0476"/>
   <path d="m49.389 73.42-0.0953 0.0476"/>
   <path d="m49.294 73.467h-0.238"/>
   <path d="m49.056 73.467-0.0953-0.0476"/>
   <path d="m48.961 73.42-0.0476-0.0476"/>
  </g>
  <text x="9.5750" y="54.4625" font-size="1.3333" opacity="0" stroke-opacity="0" text-anchor="middle" lengthAdjust="spacingAndGlyphs" textLength="3.2976">SW9</text>
  <g class="stroked-text">
   <desc>SW9</desc>
   <path d="m8.2417 54.37 0.1428 0.0476"/>
   <path d="m8.3845 54.417h0.2381"/>
   <path d="m8.6226 54.417 0.0953-0.0476"/>
   <path d="m8.7179 54.37 0.0476-0.0476"/>
   <path d="m8.7655 54.322 0.0476-0.0953"/>
   <path d="m8.8131 54.227v-0.0952"/>
   <path d="m8.8131 54.132-0.0476-0.0952"/>
   <path d="m8.7655 54.036-0.0476-0.0477"/>
   <path d="m8.7179 53.989-0.0953-0.0476"/>
   <path d="m8.6226 53.941-0.1905-0.0476"/>
   <path d="m8.4321 53.894-0.0952-0.0476"/>
   <path d="m8.3369 53.846-0.0476-0.0476"/>
   <path d="m8.2893 53.798-0.0476-0.0953"/>
   <path d="m8.2417 53.703v-0.0952"/>
   <path d="m8.2417 53.608 0.0476-0.0952"/>
   <path d="m8.2893 53.513 0.0476-0.0477"/>
   <path d="m8.3369 53.465 0.0952-0.0476"/>
   <path d="m8.4321 53.417h0.2381"/>
   <path d="m8.6702 53.417 0.1429 0.0476"/>
   <path d="m9.1464 53.417 0.2381 1"/>
   <path d="m9.3845 54.417 0.1905-0.7143"/>
   <path d="m9.575 53.703 0.1905 0.7143"/>
   <path d="m9.7655 54.417 0.2381-1"/>
   <path d="m10.432 54.417h0.1905"/>
   <path d="m10.623 54.417 0.0953-0.0476"/>
   <path d="m10.718 54.37 0.0476-0.0476"/>
   <path d="m10.766 54.322 0.0952-0.1429"/>
   <path d="m10.861 54.179 0.0476-0.1905"/>
   <path d="m10.908 53.989v-0.3809"/>
   <path d="m10.908 53.608-0.0476-0.0952"/>
   <path d="m10.861 53.513-0.0476-0.0477"/>
   <path d="m10.813 53.465-0.0952-0.0476"/>
   <path d="m10.718 53.417h-0.1905"/>
   <path d="m10.527 53.417-0.0953 0.0476"/>
   <path d="m10.432 53.465-0.0476 0.0477"/>
   <path d="m10.384 53.513-0.0476 0.0952"/>
   <path d="m10.337 53.608v0.2381"/>
   <path d="m10.337 53.846 0.0476 0.0952"/>
   <path d="m10.384 53.941 0.0476 0.0476"/>
   <path d="m10.432 53.989 0.0953 0.0477"/>
   <path d="m10.527 54.036h0.1905"/>
   <path d="m10.718 54.036 0.0952-0.0477"/>
   <path d="m10.813 53.989 0.0476-0.0476"/>
   <path d="m10.861 53.941 0.0476-0.0952"/>
  </g>
  <text x="28.6250" y="73.5125" font-size="1.3333" opacity="0" stroke-opacity="0" text-anchor="middle" lengthAdjust="spacingAndGlyphs" textLength="4.2500">SW14</text>
  <g class="stroked-text">
   <desc>SW14</desc>
   <path d="m26.816 73.42 0.1428 0.0476"/>
   <path d="m26.958 73.467h0.2381"/>
   <path d="m27.196 73.467 0.0953-0.0476"/>
   <path d="m27.292 73.42 0.0476-0.0476"/>
   <path d="m27.339 73.372 0.0476-0.0953"/>
   <path d="m27.387 73.277v-0.0952"/>
   <path d="m27.387 73.182-0.0476-0.0952"/>
   <path d="m27.339 73.086-0.0476-0.0477"/>
   <path d="m27.292 73.039-0.0953-0.0476"/>
   <path d="m27.196 72.991-0.1904-0.0476"/>
   <path d="m27.006 72.944-0.0953-0.0476"/>
   <path d="m26.911 72.896-0.0476-0.0476"/>
   <path d="m26.863 72.848-0.0476-0.0953"/>
   <path d="m26.816 72.753v-0.0952"/>
   <path d="m26.816 72.658 0.0476-0.0952"/>
   <path d="m26.863 72.563 0.0476-0.0477"/>
   <path d="m26.911 72.515 0.0953-0.0476"/>
   <path d="m27.006 72.467h0.238"/>
   <path d="m27.244 72.467 0.1429 0.0476"/>
   <path d="m27.72 72.467 0.2381 1"/>
   <path d="m27.958 73.467 0.1905-0.7143"/>
   <path d="m28.149 72.753 0.1905 0.7143"/>
   <path d="m28.339 73.467 0.2381-1"/>
   <path d="m29.482 73.467h-0.5714"/>
   <path d="m29.196 73.467v-1"/>
   <path d="m29.196 72.467-0.0952 0.1429"/>
   <path d="m29.101 72.61-0.0952 0.0952"/>
   <path d="m29.006 72.705-0.0953 0.0476"/>
   <path d="m30.339 72.801v0.6666"/>
   <path d="m30.101 72.42-0.2381 0.7143"/>
   <path d="m29.863 73.134h0.619"/>
  </g>
  <text x="47.6750" y="54.4625" font-size="1.3333" opacity="0" stroke-opacity="0" text-anchor="middle" lengthAdjust="spacingAndGlyphs" textLength="4.2500">SW11</text>
  <g class="stroked-text">
   <desc>SW11</desc>
   <path d="m45.866 54.37 0.1428 0.0476"/>
   <path d="m46.008 54.417h0.2381"/>
   <path d="m46.246 54.417 0.0953-0.0476"/>
   <path d="m46.342 54.37 0.0476-0.0476"/>
   <path d="m46.389 54.322 0.0476-0.0953"/>
   <path d="m46.437 54.227v-0.0952"/>
   <path d="m46.437 54.132-0.0476-0.0952"/>
   <path d="m46.389 54.036-0.0476-0.0477"/>
   <path d="m46.342 53.989-0.0953-0.0476"/>
   <path d="m46.246 53.941-0.1904-0.0476"/>
   <path d="m46.056 53.894-0.0953-0.0476"/>
   <path d="m45.961 53.846-0.0476-0.0476"/>
   <path d="m45.913 53.798-0.0476-0.0953"/>
   <path d="m45.866 53.703v-0.0952"/>
   <path d="m45.866 53.608 0.0476-0.0952"/>
   <path d="m45.913 53.513 0.0476-0.0477"/>
   <path d="m45.961 53.465 0.0953-0.0476"/>
   <path d="m46.056 53.417h0.238"/>
   <path d="m46.294 53.417 0.1429 0.0476"/>
   <path d="m46.77 53.417 0.2381 1"/>
   <path d="m47.008 54.417 0.1905-0.7143"/>
   <path d="m47.199 53.703 0.1905 0.7143"/>
   <path d="m47.389 54.417 0.2381-1"/>
   <path d="m48.532 54.417h-0.5714"/>
   <path d="m48.246 54.417v-1"/>
   <path d="m48.246 53.417-0.0952 0.1429"/>
   <path d="m48.151 53.56-0.0952 0.0952"/>
   <path d="m48.056 53.655-0.0953 0.0476"/>
   <path d="m49.484 54.417h-0.5714"/>
   <path d="m49.199 54.417v-1"/>
   <path d="m49.199 53.417-0.0952 0.1429"/>
   <path d="m49.104 53.56-0.0953 0.0952"/>
   <path d="m49.008 53.655-0.0952 0.0476"/>
  </g>
  <text x="9.5750" y="35.4125" font-size="1.3333" opacity="0" stroke-opacity="0" text-anchor="middle" lengthAdjust="spacingAndGlyphs" textLength="3.2976">SW5</text>
  <g class="stroked-text">
   <desc>SW5</desc>
   <path d="m8.2417 35.32 0.1428 0.0476"/>
   <path d="m8.3845 35.367h0.2381"/>
   <path d="m8.6226 35.367 0.0953-0.0476"/>
   <path d="m8.7179 35.32 0.0476-0.0476"/>
   <path d="m8.7655 35.272 0.0476-0.0953"/>
   <path d="m8.8131 35.177v-0.0952"/>
   <path d="m8.8131 35.082-0.0476-0.0952"/>
   <path d="m8.7655 34.986-0.0476-0.0477"/>
   <path d="m8.7179 34.939-0.0953-0.0476"/>
   <path d="m8.6226 34.891-0.1905-0.0476"/>
   <path d="m8.4321 34.844-0.0952-0.0476"/>
   <path d="m8.3369 34.796-0.0476-0.0476"/>
   <path d="m8.2893 34.748-0.0476-0.0953"/>
   <path d="m8.2417 34.653v-0.0952"/>
   <path d="m8.2417 34.558 0.0476-0.0952"/>
   <path d="m8.2893 34.463 0.0476-0.0477"/>
   <path d="m8.3369 34.415 0.0952-0.0476"/>
   <path d="m8.4321 34.367h0.2381"/>
   <path d="m8.6702 34.367 0.1429 0.0476"/>
   <path d="m9.1464 34.367 0.2381 1"/>
   <path d="m9.3845 35.367 0.1905-0.7143"/>
   <path d="m9.575 34.653 0.1905 0.7143"/>
   <path d="m9.7655 35.367 0.2381-1"/>
   <path d="m10.861 34.367h-0.4762"/>
   <path d="m10.384 34.367-0.0476 0.4762"/>
   <path d="m10.337 34.844 0.0476-0.0476"/>
   <path d="m10.384 34.796 0.0953-0.0476"/>
   <path d="m10.48 34.748h0.2381"/>
   <path d="m10.718 34.748 0.0952 0.0476"/>
   <path d="m10.813 34.796 0.0476 0.0476"/>
   <path d="m10.861 34.844 0.0476 0.0952"/>
   <path d="m10.908 34.939v0.2381"/>
   <path d="m10.908 35.177-0.0476 0.0953"/>
   <path d="m10.861 35.272-0.0476 0.0476"/>
   <path d="m10.813 35.32-0.0952 0.0476"/>
   <path d="m10.718 35.367h-0.2381"/>
   <path d="m10.48 35.367-0.0953-0.0476"/>
   <path d="m10.384 35.32-0.0476-0.0476"/>
  </g>
  <text x="66.7250" y="16.3625" font-size="1.3333" opacity="0" stroke-opacity="0" text-anchor="middle" lengthAdjust="spacingAndGlyphs" textLength="3.2976">SW4</text>
  <g class="stroked-text">
   <desc>SW4</desc>
   <path d="m65.392 16.27 0.1428 0.0476"/>
   <path d="m65.534 16.317h0.2381"/>
   <path d="m65.773 16.317 0.0953-0.0476"/>
   <path d="m65.868 16.27 0.0476-0.0476"/>
   <path d="m65.916 16.222 0.0476-0.0953"/>
   <path d="m65.963 16.127v-0.0952"/>
   <path d="m65.963 16.032-0.0476-0.0952"/>
   <path d="m65.916 15.936-0.0476-0.0477"/>
   <path d="m65.868 15.889-0.0953-0.0476"/>
   <path d="m65.773 15.841-0.1905-0.0476"/>
   <path d="m65.582 15.794-0.0952-0.0476"/>
   <path d="m65.487 15.746-0.0476-0.0476"/>
   <path d="m65.439 15.698-0.0476-0.0953"/>
   <path d="m65.392 15.603v-0.0952"/>
   <path d="m65.392 15.508 0.0476-0.0952"/>
   <path d="m65.439 15.413 0.0476-0.0477"/>
   <path d="m65.487 15.365 0.0952-0.0476"/>
   <path d="m65.582 15.317h0.2381"/>
   <path d="m65.82 15.317 0.1429 0.0476"/>
   <path d="m66.296 15.317 0.2381 1"/>
   <path d="m66.534 16.317 0.1905-0.7143"/>
   <path d="m66.725 15.603 0.1905 0.7143"/>
   <path d="m66.916 16.317 0.2381-1"/>
   <path d="m67.963 15.651v0.6666"/>
   <path d="m67.725 15.27-0.2381 0.7143"/>
   <path d="m67.487 15.984h0.6191"/>
  </g>
  <text x="9.5750" y="73.5125" font-size="1.3333" opacity="0" stroke-opacity="0" text-anchor="middle" lengthAdjust="spacingAndGlyphs" textLength="4.2500">SW13</text>
  <g class="stroked-text">
   <desc>SW13</desc>
   <path d="m7.7655 73.42 0.1428 0.0476"/>
   <path d="m7.9083 73.467h0.2381"/>
   <path d="m8.1464 73.467 0.0953-0.0476"/>
   <path d="m8.2417 73.42 0.0476-0.0476"/>
   <path d="m8.2893 73.372 0.0476-0.0953"/>
   <path d="m8.3369 73.277v-0.0952"/>
   <path d="m8.3369 73.182-0.0476-0.0952"/>
   <path d="m8.2893 73.086-0.0476-0.0477"/>
   <path d="m8.2417 73.039-0.0953-0.0476"/>
   <path d="m8.1464 72.991-0.1904-0.0476"/>
   <path d="m7.956 72.944-0.0953-0.0476"/>
   <path d="m7.8607 72.896-0.0476-0.0476"/>
   <path d="m7.8131 72.848-0.0476-0.0953"/>
   <path d="m7.7655 72.753v-0.0952"/>
   <path d="m7.7655 72.658 0.0476-0.0952"/>
   <path d="m7.8131 72.563 0.0476-0.0477"/>
   <path d="m7.8607 72.515 0.0953-0.0476"/>
   <path d="m7.956 72.467h0.238"/>
   <path d="m8.194 72.467 0.1429 0.0476"/>
   <path d="m8.6702 72.467 0.2381 1"/>
   <path d="m8.9083 73.467 0.1905-0.7143"/>
   <path d="m9.0988 72.753 0.1905 0.7143"/>
   <path d="m9.2893 73.467 0.2381-1"/>
   <path d="m10.432 73.467h-0.5714"/>
   <path d="m10.146 73.467v-1"/>
   <path d="m10.146 72.467-0.0952 0.1429"/>
   <path d="m10.051 72.61-0.0952 0.0952"/>
   <path d="m9.956 72.705-0.0953 0.0476"/>
   <path d="m10.766 72.467h0.619"/>
   <path d="m11.384 72.467-0.3333 0.381"/>
   <path d="m11.051 72.848h0.1428"/>
   <path d="m11.194 72.848 0.0953 0.0476"/>
   <path d="m11.289 72.896 0.0476 0.0476"/>
   <path d="m11.337 72.944 0.0476 0.0952"/>
   <path d="m11.384 73.039v0.2381"/>
   <path d="m11.384 73.277-0.0476 0.0953"/>
   <path d="m11.337 73.372-0.0476 0.0476"/>
   <path d="m11.289 73.42-0.0953 0.0476"/>
   <path d="m11.194 73.467h-0.2857"/>
   <path d="m10.908 73.467-0.0952-0.0476"/>
   <path d="m10.813 73.42-0.0476-0.0476"/>
  </g>
  <text x="66.7250" y="35.4125" font-size="1.3333" opacity="0" stroke-opacity="0" text-anchor="middle" lengthAdjust="spacingAndGlyphs" textLength="3.2976">SW8</text>
  <g class="stroked-text">
   <desc>SW8</desc>
   <path d="m65.392 35.32 0.1428 0.0476"/>
   <path d="m65.534 35.367h0.2381"/>
   <path d="m65.773 35.367 0.0953-0.0476"/>
   <path d="m65.868 35.32 0.0476-0.0476"/>
   <path d="m65.916 35.272 0.0476-0.0953"/>
   <path d="m65.963 35.177v-0.0952"/>
   <path d="m65.963 35.082-0.0476-0.0952"/>
   <path d="m65.916 34.986-0.0476-0.0477"/>
   <path d="m65.868 34.939-0.0953-0.0476"/>
   <path d="m65.773 34.891-0.1905-0.0476"/>
   <path d="m65.582 34.844-0.0952-0.0476"/>
   <path d="m65.487 34.796-0.0476-0.0476"/>
   <path d="m65.439 34.748-0.0476-0.0953"/>
   <path d="m65.392 34.653v-0.0952"/>
   <path d="m65.392 34.558 0.0476-0.0952"/>
   <path d="m65.439 34.463 0.0476-0.0477"/>
   <path d="m65.487 34.415 0.0952-0.0476"/>
   <path d="m65.582 34.367h0.2381"/>
   <path d="m65.82 34.367 0.1429 0.0476"/>
   <path d="m66.296 34.367 0.2381 1"/>
   <path d="m66.534 35.367 0.1905-0.7143"/>
   <path d="m66.725 34.653 0.1905 0.7143"/>
   <path d="m66.916 35.367 0.2381-1"/>
   <path d="m67.677 34.796-0.0953-0.0476"/>
   <path d="m67.582 34.748-0.0476-0.0476"/>
   <path d="m67.534 34.701-0.0476-0.0953"/>
   <path d="m67.487 34.605v-0.0476"/>
   <path d="m67.487 34.558 0.0476-0.0952"/>
   <path d="m67.534 34.463 0.0476-0.0477"/>
   <path d="m67.582 34.415 0.0953-0.0476"/>
   <path d="m67.677 34.367h0.1905"/>
   <path d="m67.868 34.367 0.0952 0.0476"/>
   <path d="m67.963 34.415 0.0476 0.0477"/>
   <path d="m68.011 34.463 0.0476 0.0952"/>
   <path d="m68.058 34.558v0.0476"/>
   <path d="m68.058 34.605-0.0476 0.0953"/>
   <path d="m68.011 34.701-0.0476 0.0476"/>
   <path d="m67.963 34.748-0.0952 0.0476"/>
   <path d="m67.868 34.796h-0.1905"/>
   <path d="m67.677 34.796-0.0953 0.0476"/>
   <path d="m67.582 34.844-0.0476 0.0476"/>
   <path d="m67.534 34.891-0.0476 0.0953"/>
   <path d="m67.487 34.986v0.1904"/>
   <path d="m67.487 35.177 0.0476 0.0953"/>
   <path d="m67.534 35.272 0.0476 0.0476"/>
   <path d="m67.582 35.32 0.0953 0.0476"/>
   <path d="m67.677 35.367h0.1905"/>
   <path d="m67.868 35.367 0.0952-0.0476"/>
   <path d="m67.963 35.32 0.0476-0.0476"/>
   <path d="m68.011 35.272 0.0476-0.0953"/>
   <path d="m68.058 35.177v-0.1904"/>
   <path d="m68.058 34.986-0.0476-0.0953"/>
   <path d="m68.011 34.891-0.0476-0.0476"/>
   <path d="m67.963 34.844-0.0952-0.0476"/>
  </g>
  <text x="9.5750" y="16.3625" font-size="1.3333" opacity="0" stroke-opacity="0" text-anchor="middle" lengthAdjust="spacingAndGlyphs" textLength="3.2976">SW1</text>
  <g class="stroked-text">
   <desc>SW1</desc>
   <path d="m8.2417 16.27 0.1428 0.0476"/>
   <path d="m8.3845 16.317h0.2381"/>
   <path d="m8.6226 16.317 0.0953-0.0476"/>
   <path d="m8.7179 16.27 0.0476-0.0476"/>
   <path d="m8.7655 16.222 0.0476-0.0953"/>
   <path d="m8.8131 16.127v-0.0952"/>
   <path d="m8.8131 16.032-0.0476-0.0952"/>
   <path d="m8.7655 15.936-0.0476-0.0477"/>
   <path d="m8.7179 15.889-0.0953-0.0476"/>
   <path d="m8.6226 15.841-0.1905-0.0476"/>
   <path d="m8.4321 15.794-0.0952-0.0476"/>
   <path d="m8.3369 15.746-0.0476-0.0476"/>
   <path d="m8.2893 15.698-0.0476-0.0953"/>
   <path d="m8.2417 15.603v-0.0952"/>
   <path d="m8.2417 15.508 0.0476-0.0952"/>
   <path d="m8.2893 15.413 0.0476-0.0477"/>
   <path d="m8.3369 15.365 0.0952-0.0476"/>
   <path d="m8.4321 15.317h0.2381"/>
   <path d="m8.6702 15.317 0.1429 0.0476"/>
   <path d="m9.1464 15.317 0.2381 1"/>
   <path d="m9.3845 16.317 0.1905-0.7143"/>
   <path d="m9.575 15.603 0.1905 0.7143"/>
   <path d="m9.7655 16.317 0.2381-1"/>
   <path d="m10.908 16.317h-0.5714"/>
   <path d="m10.623 16.317v-1"/>
   <path d="m10.623 15.317-0.0952 0.1429"/>
   <path d="m10.527 15.46-0.0953 0.0952"/>
   <path d="m10.432 15.555-0.0952 0.0476"/>
  </g>
  <text x="28.6250" y="35.4125" font-size="1.3333" opacity="0" stroke-opacity="0" text-anchor="middle" lengthAdjust="spacingAndGlyphs" textLength="3.2976">SW6</text>
  <g class="stroked-text">
   <desc>SW6</desc>
   <path d="m27.292 35.32 0.1428 0.0476"/>
   <path d="m27.434 35.367h0.2381"/>
   <path d="m27.673 35.367 0.0953-0.0476"/>
   <path d="m27.768 35.32 0.0476-0.0476"/>
   <path d="m27.816 35.272 0.0476-0.0953"/>
   <path d="m27.863 35.177v-0.0952"/>
   <path d="m27.863 35.082-0.0476-0.0952"/>
   <path d="m27.816 34.986-0.0476-0.0477"/>
   <path d="m27.768 34.939-0.0953-0.0476"/>
   <path d="m27.673 34.891-0.1905-0.0476"/>
   <path d="m27.482 34.844-0.0952-0.0476"/>
   <path d="m27.387 34.796-0.0476-0.0476"/>
   <path d="m27.339 34.748-0.0476-0.0953"/>
   <path d="m27.292 34.653v-0.0952"/>
   <path d="m27.292 34.558 0.0476-0.0952"/>
   <path d="m27.339 34.463 0.0476-0.0477"/>
   <path d="m27.387 34.415 0.0952-0.0476"/>
   <path d="m27.482 34.367h0.2381"/>
   <path d="m27.72 34.367 0.1429 0.0476"/>
   <path d="m28.196 34.367 0.2381 1"/>
   <path d="m28.434 35.367 0.1905-0.7143"/>
   <path d="m28.625 34.653 0.1905 0.7143"/>
   <path d="m28.816 35.367 0.2381-1"/>
   <path d="m29.863 34.367h-0.1905"/>
   <path d="m29.673 34.367-0.0952 0.0476"/>
   <path d="m29.577 34.415-0.0476 0.0477"/>
   <path d="m29.53 34.463-0.0953 0.1428"/>
   <path d="m29.434 34.605-0.0476 0.1905"/>
   <path d="m29.387 34.796v0.3809"/>
   <path d="m29.387 35.177 0.0476 0.0953"/>
   <path d="m29.434 35.272 0.0476 0.0476"/>
   <path d="m29.482 35.32 0.0953 0.0476"/>
   <path d="m29.577 35.367h0.1905"/>
   <path d="m29.768 35.367 0.0952-0.0476"/>
   <path d="m29.863 35.32 0.0476-0.0476"/>
   <path d="m29.911 35.272 0.0476-0.0953"/>
   <path d="m29.958 35.177v-0.2381"/>
   <path d="m29.958 34.939-0.0476-0.0952"/>
   <path d="m29.911 34.844-0.0476-0.0476"/>
   <path d="m29.863 34.796-0.0952-0.0476"/>
   <path d="m29.768 34.748h-0.1905"/>
   <path d="m29.577 34.748-0.0953 0.0476"/>
   <path d="m29.482 34.796-0.0476 0.0476"/>
   <path d="m29.434 34.844-0.0476 0.0952"/>
  </g>
 </g>
 <g fill="none" stroke="#8BE9FD" stroke-linecap="round" stroke-linejoin="round" stroke-width=".12">
  <path d="m40.575 35.812v14.2"/>
  <path d="m40.575 50.012h14.2"/>
  <path d="m54.775 35.812h-14.2"/>
  <path d="m54.775 50.012v-14.2"/>
  <path d="m59.625 54.862v14.2"/>
  <path d="m59.625 69.062h14.2"/>
  <path d="m73.825 54.862h-14.2"/>
  <path d="m73.825 69.062v-14.2"/>
  <path d="m40.575 16.762v14.2"/>
  <path d="m40.575 30.962h14.2"/>
  <path d="m54.775 16.762h-14.2"/>
  <path d="m54.775 30.962v-14.2"/>
  <path d="m21.525 16.762v14.2"/>
  <path d="m21.525 30.962h14.2"/>
  <path d="m35.725 16.762h-14.2"/>
  <path d="m35.725 30.962v-14.2"/>
  <path d="m59.625 73.912v14.2"/>
  <path d="m59.625 88.112h14.2"/>
  <path d="m73.825 73.912h-14.2"/>
  <path d="m73.825 88.112v-14.2"/>
  <path d="m45.338 2.475v14.2"/>
  <path d="m45.338 16.675h14.2"/>
  <path d="m59.538 2.475h-14.2"/>
  <path d="m59.538 16.675v-14.2"/>
  <path d="m21.525 54.862v14.2"/>
  <path d="m21.525 69.062h14.2"/>
  <path d="m35.725 54.862h-14.2"/>
  <path d="m35.725 69.062v-14.2"/>
  <path d="m40.575 73.912v14.2"/>
  <path d="m40.575 88.112h14.2"/>
  <path d="m54.775 73.912h-14.2"/>
  <path d="m54.775 88.112v-14.2"/>
  <path d="m2.475 54.862v14.2"/>
  <path d="m2.475 69.062h14.2"/>
  <path d="m16.675 54.862h-14.2"/>
  <path d="m16.675 69.062v-14.2"/>
  <path d="m21.525 73.912v14.2"/>
  <path d="m21.525 88.112h14.2"/>
  <path d="m35.725 73.912h-14.2"/>
  <path d="m35.725 88.112v-14.2"/>
  <path d="m40.575 54.862v14.2"/>
  <path d="m40.575 69.062h14.2"/>
  <path d="m54.775 54.862h-14.2"/>
  <path d="m54.775 69.062v-14.2"/>
  <path d="m2.475 35.812v14.2"/>
  <path d="m2.475 50.012h14.2"/>
  <path d="m16.675 35.812h-14.2"/>
  <path d="m16.675 50.012v-14.2"/>
  <path d="m59.625 16.762v14.2"/>
  <path d="m59.625 30.962h14.2"/>
  <path d="m73.825 16.762h-14.2"/>
  <path d="m73.825 30.962v-14.2"/>
  <path d="m2.475 73.912v14.2"/>
  <path d="m2.475 88.112h14.2"/>
  <path d="m16.675 73.912h-14.2"/>
  <path d="m16.675 88.112v-14.2"/>
  <path d="m59.625 35.812v14.2"/>
  <path d="m59.625 50.012h14.2"/>
  <path d="m73.825 35.812h-14.2"/>
  <path d="m73.825 50.012v-14.2"/>
  <path d="m2.475 16.762v14.2"/>
  <path d="m2.475 30.962h14.2"/>
  <path d="m16.675 16.762h-14.2"/>
  <path d="m16.675 30.962v-14.2"/>
  <path d="m21.525 35.812v14.2"/>
  <path d="m21.525 50.012h14.2"/>
  <path d="m35.725 35.812h-14.2"/>
  <path d="m35.725 50.012v-14.2"/>
 </g>
 <g fill="#8BE9FD">
  <circle cx="42.595" cy="42.912" r=".875"/>
  <circle cx="47.675" cy="42.912" r="2"/>
  <circle cx="52.755" cy="42.912" r=".875"/>
  <circle cx="43.865" cy="40.372" r=".75"/>
  <circle cx="50.215" cy="37.832" r=".75"/>
  <circle cx="61.645" cy="61.962" r=".875"/>
  <circle cx="66.725" cy="61.962" r="2"/>
  <circle cx="71.805" cy="61.962" r=".875"/>
  <circle cx="62.915" cy="59.422" r=".75"/>
  <circle cx="69.265" cy="56.882" r=".75"/>
  <circle cx="42.595" cy="23.862" r=".875"/>
  <circle cx="47.675" cy="23.862" r="2"/>
  <circle cx="52.755" cy="23.862" r=".875"/>
  <circle cx="43.865" cy="21.322" r=".75"/>
  <circle cx="50.215" cy="18.782" r=".75"/>
  <circle cx="23.545" cy="23.862" r=".875"/>
  <circle cx="28.625" cy="23.862" r="2"/>
  <circle cx="33.705" cy="23.862" r=".875"/>
  <circle cx="24.815" cy="21.322" r=".75"/>
  <circle cx="31.165" cy="18.782" r=".75"/>
  <circle cx="61.645" cy="81.012" r=".875"/>
  <circle cx="66.725" cy="81.012" r="2"/>
  <circle cx="71.805" cy="81.012" r=".875"/>
  <circle cx="62.915" cy="78.472" r=".75"/>
  <circle cx="69.265" cy="75.932" r=".75"/>
  <circle cx="47.358" cy="9.575" r=".875"/>
  <circle cx="52.438" cy="9.575" r="2"/>
  <circle cx="57.518" cy="9.575" r=".875"/>
  <circle cx="48.628" cy="7.035" r=".75"/>
  <circle cx="54.978" cy="4.495" r=".75"/>
  <circle cx="23.545" cy="61.962" r=".875"/>
  <circle cx="28.625" cy="61.962" r="2"/>
  <circle cx="33.705" cy="61.962" r=".875"/>
  <circle cx="24.815" cy="59.422" r=".75"/>
  <circle cx="31.165" cy="56.882" r=".75"/>
  <circle cx="42.595" cy="81.012" r=".875"/>
  <circle cx="47.675" cy="81.012" r="2"/>
  <circle cx="52.755" cy="81.012" r=".875"/>
  <circle cx="43.865" cy="78.472" r=".75"/>
  <circle cx="50.215" cy="75.932" r=".75"/>
  <circle cx="4.495" cy="61.962" r=".875"/>
  <circle cx="9.575" cy="61.962" r="2"/>
  <circle cx="14.655" cy="61.962" r=".875"/>
  <circle cx="5.765" cy="59.422" r=".75"/>
  <circle cx="12.115" cy="56.882" r=".75"/>
  <circle cx="23.545" cy="81.012" r=".875"/>
  <circle cx="28.625" cy="81.012" r="2"/>
  <circle cx="33.705" cy="81.012" r=".875"/>
  <circle cx="24.815" cy="78.472" r=".75"/>
  <circle cx="31.165" cy="75.932" r=".75"/>
  <circle cx="42.595" cy="61.962" r=".875"/>
  <circle cx="47.675" cy="61.962" r="2"/>
  <circle cx="52.755" cy="61.962" r=".875"/>
  <circle cx="43.865" cy="59.422" r=".75"/>
  <circle cx="50.215" cy="56.882" r=".75"/>
  <circle cx="4.495" cy="42.912" r=".875"/>
  <circle cx="9.575" cy="42.912" r="2"/>
  <circle cx="14.655" cy="42.912" r=".875"/>
  <circle cx="5.765" cy="40.372" r=".75"/>
  <circle cx="12.115" cy="37.832" r=".75"/>
  <circle cx="61.645" cy="23.862" r=".875"/>
  <circle cx="66.725" cy="23.862" r="2"/>
  <circle cx="71.805" cy="23.862" r=".875"/>
  <circle cx="62.915" cy="21.322" r=".75"/>
  <circle cx="69.265" cy="18.782" r=".75"/>
  <circle cx="4.495" cy="81.012" r=".875"/>
  <circle cx="9.575" cy="81.012" r="2"/>
  <circle cx="14.655" cy="81.012" r=".875"/>
  <circle cx="5.765" cy="78.472" r=".75"/>
  <circle cx="12.115" cy="75.932" r=".75"/>
  <circle cx="61.645" cy="42.912" r=".875"/>
  <circle cx="66.725" cy="42.912" r="2"/>
  <circle cx="71.805" cy="42.912" r=".875"/>
  <circle cx="62.915" cy="40.372" r=".75"/>
  <circle cx="69.265" cy="37.832" r=".75"/>
  <circle cx="4.495" cy="23.862" r=".875"/>
  <circle cx="9.575" cy="23.862" r="2"/>
  <circle cx="14.655" cy="23.862" r=".875"/>
  <circle cx="5.765" cy="21.322" r=".75"/>
  <circle cx="12.115" cy="18.782" r=".75"/>
  <circle cx="23.545" cy="42.912" r=".875"/>
  <circle cx="28.625" cy="42.912" r="2"/>
  <circle cx="33.705" cy="42.912" r=".875"/>
  <circle cx="24.815" cy="40.372" r=".75"/>
  <circle cx="31.165" cy="37.832" r=".75"/>
 </g>
 <g fill="none" stroke="#BD93F9" stroke-linecap="round" stroke-linejoin="round" stroke-width=".15">
  <g transform="rotate(-90 35.61 47.04)">
   <text transform="scale(-1 1) translate(-71.22)" x="35.6100" y="47.5395" font-size="1.3333" opacity="0" stroke-opacity="0" text-anchor="middle" lengthAdjust="spacingAndGlyphs" textLength="2.2024">D6</text>
  </g>
  <g class="stroked-text">
   <desc>D6</desc>
   <path d="m36.065 46.301h-1"/>
   <path d="m35.065 46.301v0.2381"/>
   <path d="m35.065 46.54 0.0476 0.1429"/>
   <path d="m35.112 46.682 0.0953 0.0952"/>
   <path d="m35.208 46.778 0.0952 0.0476"/>
   <path d="m35.303 46.825 0.1905 0.0476"/>
   <path d="m35.493 46.873h0.1428"/>
   <path d="m35.636 46.873 0.1905-0.0476"/>
   <path d="m35.827 46.825 0.0953-0.0476"/>
   <path d="m35.922 46.778 0.0952-0.0952"/>
   <path d="m36.017 46.682 0.0476-0.1429"/>
   <path d="m36.065 46.54v-0.2381"/>
   <path d="m35.065 47.73v-0.1905"/>
   <path d="m35.065 47.54 0.0476-0.0952"/>
   <path d="m35.112 47.444 0.0477-0.0477"/>
   <path d="m35.16 47.397 0.1428-0.0952"/>
   <path d="m35.303 47.301 0.1905-0.0476"/>
   <path d="m35.493 47.254h0.3809"/>
   <path d="m35.874 47.254 0.0953 0.0476"/>
   <path d="m35.97 47.301 0.0476 0.0476"/>
   <path d="m36.017 47.349 0.0476 0.0953"/>
   <path d="m36.065 47.444v0.1904"/>
   <path d="m36.065 47.635-0.0476 0.0953"/>
   <path d="m36.017 47.73-0.0476 0.0476"/>
   <path d="m35.97 47.778-0.0953 0.0476"/>
   <path d="m35.874 47.825h-0.2381"/>
   <path d="m35.636 47.825-0.0952-0.0476"/>
   <path d="m35.541 47.778-0.0476-0.0476"/>
   <path d="m35.493 47.73-0.0476-0.0953"/>
   <path d="m35.446 47.635v-0.1904"/>
   <path d="m35.446 47.444 0.0476-0.0953"/>
   <path d="m35.493 47.349 0.0476-0.0476"/>
   <path d="m35.541 47.301 0.0952-0.0476"/>
  </g>
  <g transform="rotate(-90 73.71 27.99)">
   <text transform="scale(-1 1) translate(-147.42)" x="73.7100" y="28.4895" font-size="1.3333" opacity="0" stroke-opacity="0" text-anchor="middle" lengthAdjust="spacingAndGlyphs" textLength="2.2024">D4</text>
  </g>
  <g class="stroked-text">
   <desc>D4</desc>
   <path d="m74.165 27.251h-1"/>
   <path d="m73.165 27.251v0.2381"/>
   <path d="m73.165 27.49 0.0476 0.1429"/>
   <path d="m73.212 27.632 0.0953 0.0952"/>
   <path d="m73.308 27.728 0.0952 0.0476"/>
   <path d="m73.403 27.775 0.1905 0.0476"/>
   <path d="m73.593 27.823h0.1428"/>
   <path d="m73.736 27.823 0.1905-0.0476"/>
   <path d="m73.927 27.775 0.0953-0.0476"/>
   <path d="m74.022 27.728 0.0952-0.0952"/>
   <path d="m74.117 27.632 0.0476-0.1429"/>
   <path d="m74.165 27.49v-0.2381"/>
   <path d="m73.498 28.68h0.6666"/>
   <path d="m73.117 28.442 0.7143-0.2381"/>
   <path d="m73.832 28.204v0.619"/>
  </g>
  <g transform="rotate(-90 16.56 27.99)">
   <text transform="scale(-1 1) translate(-33.12)" x="16.5600" y="28.4895" font-size="1.3333" opacity="0" stroke-opacity="0" text-anchor="middle" lengthAdjust="spacingAndGlyphs" textLength="2.2024">D1</text>
  </g>
  <g class="stroked-text">
   <desc>D1</desc>
   <path d="m17.015 27.251h-1"/>
   <path d="m16.015 27.251v0.2381"/>
   <path d="m16.015 27.49 0.0476 0.1429"/>
   <path d="m16.062 27.632 0.0953 0.0952"/>
   <path d="m16.158 27.728 0.0952 0.0476"/>
   <path d="m16.253 27.775 0.1905 0.0476"/>
   <path d="m16.443 27.823h0.1428"/>
   <path d="m16.586 27.823 0.1905-0.0476"/>
   <path d="m16.777 27.775 0.0953-0.0476"/>
   <path d="m16.872 27.728 0.0952-0.0952"/>
   <path d="m16.967 27.632 0.0476-0.1429"/>
   <path d="m17.015 27.49v-0.2381"/>
   <path d="m17.015 28.775v-0.5714"/>
   <path d="m17.015 28.49h-1"/>
   <path d="m16.015 28.49 0.1429-0.0952"/>
   <path d="m16.158 28.394 0.0952-0.0953"/>
   <path d="m16.253 28.299 0.0476-0.0952"/>
  </g>
  <g transform="rotate(-90 16.56 47.04)">
   <text transform="scale(-1 1) translate(-33.12)" x="16.5600" y="47.5395" font-size="1.3333" opacity="0" stroke-opacity="0" text-anchor="middle" lengthAdjust="spacingAndGlyphs" textLength="2.2024">D5</text>
  </g>
  <g class="stroked-text">
   <desc>D5</desc>
   <path d="m17.015 46.301h-1"/>
   <path d="m16.015 46.301v0.2381"/>
   <path d="m16.015 46.54 0.0476 0.1429"/>
   <path d="m16.062 46.682 0.0953 0.0952"/>
   <path d="m16.158 46.778 0.0952 0.0476"/>
   <path d="m16.253 46.825 0.1905 0.0476"/>
   <path d="m16.443 46.873h0.1428"/>
   <path d="m16.586 46.873 0.1905-0.0476"/>
   <path d="m16.777 46.825 0.0953-0.0476"/>
   <path d="m16.872 46.778 0.0952-0.0952"/>
   <path d="m16.967 46.682 0.0476-0.1429"/>
   <path d="m17.015 46.54v-0.2381"/>
   <path d="m16.015 47.778v-0.4762"/>
   <path d="m16.015 47.301 0.4762-0.0476"/>
   <path d="m16.491 47.254-0.0476 0.0476"/>
   <path d="m16.443 47.301-0.0476 0.0952"/>
   <path d="m16.396 47.397v0.2381"/>
   <path d="m16.396 47.635 0.0476 0.0953"/>
   <path d="m16.443 47.73 0.0476 0.0476"/>
   <path d="m16.491 47.778 0.0952 0.0476"/>
   <path d="m16.586 47.825h0.2381"/>
   <path d="m16.824 47.825 0.0953-0.0476"/>
   <path d="m16.92 47.778 0.0476-0.0476"/>
   <path d="m16.967 47.73 0.0476-0.0953"/>
   <path d="m17.015 47.635v-0.2381"/>
   <path d="m17.015 47.397-0.0476-0.0952"/>
   <path d="m16.967 47.301-0.0476-0.0476"/>
  </g>
  <g transform="rotate(-90 35.61 27.99)">
   <text transform="scale(-1 1) translate(-71.22)" x="35.6100" y="28.4895" font-size="1.3333" opacity="0" stroke-opacity="0" text-anchor="middle" lengthAdjust="spacingAndGlyphs" textLength="2.2024">D2</text>
  </g>
  <g class="stroked-text">
   <desc>D2</desc>
   <path d="m36.065 27.251h-1"/>
   <path d="m35.065 27.251v0.2381"/>
   <path d="m35.065 27.49 0.0476 0.1429"/>
   <path d="m35.112 27.632 0.0953 0.0952"/>
   <path d="m35.208 27.728 0.0952 0.0476"/>
   <path d="m35.303 27.775 0.1905 0.0476"/>
   <path d="m35.493 27.823h0.1428"/>
   <path d="m35.636 27.823 0.1905-0.0476"/>
   <path d="m35.827 27.775 0.0953-0.0476"/>
   <path d="m35.922 27.728 0.0952-0.0952"/>
   <path d="m36.017 27.632 0.0476-0.1429"/>
   <path d="m36.065 27.49v-0.2381"/>
   <path d="m35.16 28.204-0.0477 0.0476"/>
   <path d="m35.112 28.251-0.0476 0.0952"/>
   <path d="m35.065 28.347v0.2381"/>
   <path d="m35.065 28.585 0.0476 0.0953"/>
   <path d="m35.112 28.68 0.0477 0.0476"/>
   <path d="m35.16 28.728 0.0952 0.0476"/>
   <path d="m35.255 28.775h0.0952"/>
   <path d="m35.35 28.775 0.1429-0.0476"/>
   <path d="m35.493 28.728 0.5714-0.5714"/>
   <path d="m36.065 28.156v0.619"/>
  </g>
  <g transform="rotate(-90 35.61 85.14)">
   <text transform="scale(-1 1) translate(-71.22)" x="35.6100" y="85.6395" font-size="1.3333" opacity="0" stroke-opacity="0" text-anchor="middle" lengthAdjust="spacingAndGlyphs" textLength="3.1548">D14</text>
  </g>
  <g class="stroked-text">
   <desc>D14</desc>
   <path d="m36.065 83.925h-1"/>
   <path d="m35.065 83.925v0.2381"/>
   <path d="m35.065 84.163 0.0476 0.1429"/>
   <path d="m35.112 84.306 0.0953 0.0952"/>
   <path d="m35.208 84.401 0.0952 0.0476"/>
   <path d="m35.303 84.449 0.1905 0.0476"/>
   <path d="m35.493 84.497h0.1428"/>
   <path d="m35.636 84.497 0.1905-0.0476"/>
   <path d="m35.827 84.449 0.0953-0.0476"/>
   <path d="m35.922 84.401 0.0952-0.0952"/>
   <path d="m36.017 84.306 0.0476-0.1429"/>
   <path d="m36.065 84.163v-0.2381"/>
   <path d="m36.065 85.449v-0.5714"/>
   <path d="m36.065 85.163h-1"/>
   <path d="m35.065 85.163 0.1429-0.0952"/>
   <path d="m35.208 85.068 0.0952-0.0953"/>
   <path d="m35.303 84.973 0.0476-0.0952"/>
   <path d="m35.398 86.306h0.6666"/>
   <path d="m35.017 86.068 0.7143-0.2381"/>
   <path d="m35.732 85.83v0.619"/>
  </g>
  <g transform="rotate(-90 73.71 66.09)">
   <text transform="scale(-1 1) translate(-147.42)" x="73.7100" y="66.5895" font-size="1.3333" opacity="0" stroke-opacity="0" text-anchor="middle" lengthAdjust="spacingAndGlyphs" textLength="3.1548">D12</text>
  </g>
  <g class="stroked-text">
   <desc>D12</desc>
   <path d="m74.165 64.875h-1"/>
   <path d="m73.165 64.875v0.2381"/>
   <path d="m73.165 65.113 0.0476 0.1429"/>
   <path d="m73.212 65.256 0.0953 0.0952"/>
   <path d="m73.308 65.351 0.0952 0.0476"/>
   <path d="m73.403 65.399 0.1905 0.0476"/>
   <path d="m73.593 65.447h0.1428"/>
   <path d="m73.736 65.447 0.1905-0.0476"/>
   <path d="m73.927 65.399 0.0953-0.0476"/>
   <path d="m74.022 65.351 0.0952-0.0952"/>
   <path d="m74.117 65.256 0.0476-0.1429"/>
   <path d="m74.165 65.113v-0.2381"/>
   <path d="m74.165 66.399v-0.5714"/>
   <path d="m74.165 66.113h-1"/>
   <path d="m73.165 66.113 0.1429-0.0952"/>
   <path d="m73.308 66.018 0.0952-0.0953"/>
   <path d="m73.403 65.923 0.0476-0.0952"/>
   <path d="m73.26 66.78-0.0477 0.0476"/>
   <path d="m73.212 66.828-0.0476 0.0952"/>
   <path d="m73.165 66.923v0.2381"/>
   <path d="m73.165 67.161 0.0476 0.0953"/>
   <path d="m73.212 67.256 0.0477 0.0476"/>
   <path d="m73.26 67.304 0.0952 0.0476"/>
   <path d="m73.355 67.351h0.0952"/>
   <path d="m73.45 67.351 0.1429-0.0476"/>
   <path d="m73.593 67.304 0.5714-0.5714"/>
   <path d="m74.165 66.732v0.619"/>
  </g>
  <g transform="rotate(-90 35.61 66.09)">
   <text transform="scale(-1 1) translate(-71.22)" x="35.6100" y="66.5895" font-size="1.3333" opacity="0" stroke-opacity="0" text-anchor="middle" lengthAdjust="spacingAndGlyphs" textLength="3.1548">D10</text>
  </g>
  <g class="stroked-text">
   <desc>D10</desc>
   <path d="m36.065 64.875h-1"/>
   <path d="m35.065 64.875v0.2381"/>
   <path d="m35.065 65.113 0.0476 0.1429"/>
   <path d="m35.112 65.256 0.0953 0.0952"/>
   <path d="m35.208 65.351 0.0952 0.0476"/>
   <path d="m35.303 65.399 0.1905 0.0476"/>
   <path d="m35.493 65.447h0.1428"/>
   <path d="m35.636 65.447 0.1905-0.0476"/>
   <path d="m35.827 65.399 0.0953-0.0476"/>
   <path d="m35.922 65.351 0.0952-0.0952"/>
   <path d="m36.017 65.256 0.0476-0.1429"/>
   <path d="m36.065 65.113v-0.2381"/>
   <path d="m36.065 66.399v-0.5714"/>
   <path d="m36.065 66.113h-1"/>
   <path d="m35.065 66.113 0.1429-0.0952"/>
   <path d="m35.208 66.018 0.0952-0.0953"/>
   <path d="m35.303 65.923 0.0476-0.0952"/>
   <path d="m35.065 67.018v0.0952"/>
   <path d="m35.065 67.113 0.0476 0.0952"/>
   <path d="m35.112 67.208 0.0477 0.0477"/>
   <path d="m35.16 67.256 0.0952 0.0476"/>
   <path d="m35.255 67.304 0.1905 0.0476"/>
   <path d="m35.446 67.351h0.2381"/>
   <path d="m35.684 67.351 0.1904-0.0476"/>
   <path d="m35.874 67.304 0.0953-0.0476"/>
   <path d="m35.97 67.256 0.0476-0.0477"/>
   <path d="m36.017 67.208 0.0476-0.0952"/>
   <path d="m36.065 67.113v-0.0952"/>
   <path d="m36.065 67.018-0.0476-0.0953"/>
   <path d="m36.017 66.923-0.0476-0.0476"/>
   <path d="m35.97 66.875-0.0953-0.0476"/>
   <path d="m35.874 66.828-0.1904-0.0476"/>
   <path d="m35.684 66.78h-0.2381"/>
   <path d="m35.446 66.78-0.1905 0.0476"/>
   <path d="m35.255 66.828-0.0952 0.0476"/>
   <path d="m35.16 66.875-0.0477 0.0476"/>
   <path d="m35.112 66.923-0.0476 0.0953"/>
  </g>
  <g transform="rotate(-90 54.66 66.09)">
   <text transform="scale(-1 1) translate(-109.32)" x="54.6600" y="66.5895" font-size="1.3333" opacity="0" stroke-opacity="0" text-anchor="middle" lengthAdjust="spacingAndGlyphs" textLength="3.1548">D11</text>
  </g>
  <g class="stroked-text">
   <desc>D11</desc>
   <path d="m55.115 64.875h-1"/>
   <path d="m54.115 64.875v0.2381"/>
   <path d="m54.115 65.113 0.0476 0.1429"/>
   <path d="m54.162 65.256 0.0953 0.0952"/>
   <path d="m54.258 65.351 0.0952 0.0476"/>
   <path d="m54.353 65.399 0.1905 0.0476"/>
   <path d="m54.543 65.447h0.1428"/>
   <path d="m54.686 65.447 0.1905-0.0476"/>
   <path d="m54.877 65.399 0.0953-0.0476"/>
   <path d="m54.972 65.351 0.0952-0.0952"/>
   <path d="m55.067 65.256 0.0476-0.1429"/>
   <path d="m55.115 65.113v-0.2381"/>
   <path d="m55.115 66.399v-0.5714"/>
   <path d="m55.115 66.113h-1"/>
   <path d="m54.115 66.113 0.1429-0.0952"/>
   <path d="m54.258 66.018 0.0952-0.0953"/>
   <path d="m54.353 65.923 0.0476-0.0952"/>
   <path d="m55.115 67.351v-0.5714"/>
   <path d="m55.115 67.066h-1"/>
   <path d="m54.115 67.066 0.1429-0.0952"/>
   <path d="m54.258 66.97 0.0952-0.0953"/>
   <path d="m54.353 66.875 0.0476-0.0952"/>
  </g>
  <g transform="rotate(-90 54.66 47.04)">
   <text transform="scale(-1 1) translate(-109.32)" x="54.6600" y="47.5395" font-size="1.3333" opacity="0" stroke-opacity="0" text-anchor="middle" lengthAdjust="spacingAndGlyphs" textLength="2.2024">D7</text>
  </g>
  <g class="stroked-text">
   <desc>D7</desc>
   <path d="m55.115 46.301h-1"/>
   <path d="m54.115 46.301v0.2381"/>
   <path d="m54.115 46.54 0.0476 0.1429"/>
   <path d="m54.162 46.682 0.0953 0.0952"/>
   <path d="m54.258 46.778 0.0952 0.0476"/>
   <path d="m54.353 46.825 0.1905 0.0476"/>
   <path d="m54.543 46.873h0.1428"/>
   <path d="m54.686 46.873 0.1905-0.0476"/>
   <path d="m54.877 46.825 0.0953-0.0476"/>
   <path d="m54.972 46.778 0.0952-0.0952"/>
   <path d="m55.067 46.682 0.0476-0.1429"/>
   <path d="m55.115 46.54v-0.2381"/>
   <path d="m54.115 47.206v0.6666"/>
   <path d="m54.115 47.873 1-0.4285"/>
  </g>
  <g transform="rotate(-90 54.66 85.14)">
   <text transform="scale(-1 1) translate(-109.32)" x="54.6600" y="85.6395" font-size="1.3333" opacity="0" stroke-opacity="0" text-anchor="middle" lengthAdjust="spacingAndGlyphs" textLength="3.1548">D15</text>
  </g>
  <g class="stroked-text">
   <desc>D15</desc>
   <path d="m55.115 83.925h-1"/>
   <path d="m54.115 83.925v0.2381"/>
   <path d="m54.115 84.163 0.0476 0.1429"/>
   <path d="m54.162 84.306 0.0953 0.0952"/>
   <path d="m54.258 84.401 0.0952 0.0476"/>
   <path d="m54.353 84.449 0.1905 0.0476"/>
   <path d="m54.543 84.497h0.1428"/>
   <path d="m54.686 84.497 0.1905-0.0476"/>
   <path d="m54.877 84.449 0.0953-0.0476"/>
   <path d="m54.972 84.401 0.0952-0.0952"/>
   <path d="m55.067 84.306 0.0476-0.1429"/>
   <path d="m55.115 84.163v-0.2381"/>
   <path d="m55.115 85.449v-0.5714"/>
   <path d="m55.115 85.163h-1"/>
   <path d="m54.115 85.163 0.1429-0.0952"/>
   <path d="m54.258 85.068 0.0952-0.0953"/>
   <path d="m54.353 84.973 0.0476-0.0952"/>
   <path d="m54.115 86.354v-0.4762"/>
   <path d="m54.115 85.878 0.4762-0.0476"/>
   <path d="m54.591 85.83-0.0476 0.0476"/>
   <path d="m54.543 85.878-0.0476 0.0952"/>
   <path d="m54.496 85.973v0.2381"/>
   <path d="m54.496 86.211 0.0476 0.0953"/>
   <path d="m54.543 86.306 0.0476 0.0476"/>
   <path d="m54.591 86.354 0.0952 0.0476"/>
   <path d="m54.686 86.401h0.2381"/>
   <path d="m54.924 86.401 0.0953-0.0476"/>
   <path d="m55.02 86.354 0.0476-0.0476"/>
   <path d="m55.067 86.306 0.0476-0.0953"/>
   <path d="m55.115 86.211v-0.2381"/>
   <path d="m55.115 85.973-0.0476-0.0952"/>
   <path d="m55.067 85.878-0.0476-0.0476"/>
  </g>
  <g transform="rotate(-90 73.71 85.14)">
   <text transform="scale(-1 1) translate(-147.42)" x="73.7100" y="85.6395" font-size="1.3333" opacity="0" stroke-opacity="0" text-anchor="middle" lengthAdjust="spacingAndGlyphs" textLength="3.1548">D16</text>
  </g>
  <g class="stroked-text">
   <desc>D16</desc>
   <path d="m74.165 83.925h-1"/>
   <path d="m73.165 83.925v0.2381"/>
   <path d="m73.165 84.163 0.0476 0.1429"/>
   <path d="m73.212 84.306 0.0953 0.0952"/>
   <path d="m73.308 84.401 0.0952 0.0476"/>
   <path d="m73.403 84.449 0.1905 0.0476"/>
   <path d="m73.593 84.497h0.1428"/>
   <path d="m73.736 84.497 0.1905-0.0476"/>
   <path d="m73.927 84.449 0.0953-0.0476"/>
   <path d="m74.022 84.401 0.0952-0.0952"/>
   <path d="m74.117 84.306 0.0476-0.1429"/>
   <path d="m74.165 84.163v-0.2381"/>
   <path d="m74.165 85.449v-0.5714"/>
   <path d="m74.165 85.163h-1"/>
   <path d="m73.165 85.163 0.1429-0.0952"/>
   <path d="m73.308 85.068 0.0952-0.0953"/>
   <path d="m73.403 84.973 0.0476-0.0952"/>
   <path d="m73.165 86.306v-0.1905"/>
   <path d="m73.165 86.116 0.0476-0.0952"/>
   <path d="m73.212 86.02 0.0477-0.0477"/>
   <path d="m73.26 85.973 0.1428-0.0952"/>
   <path d="m73.403 85.878 0.1905-0.0476"/>
   <path d="m73.593 85.83h0.3809"/>
   <path d="m73.974 85.83 0.0953 0.0476"/>
   <path d="m74.07 85.878 0.0476 0.0476"/>
   <path d="m74.117 85.925 0.0476 0.0953"/>
   <path d="m74.165 86.02v0.1904"/>
   <path d="m74.165 86.211-0.0476 0.0953"/>
   <path d="m74.117 86.306-0.0476 0.0476"/>
   <path d="m74.07 86.354-0.0953 0.0476"/>
   <path d="m73.974 86.401h-0.2381"/>
   <path d="m73.736 86.401-0.0952-0.0476"/>
   <path d="m73.641 86.354-0.0476-0.0476"/>
   <path d="m73.593 86.306-0.0476-0.0953"/>
   <path d="m73.546 86.211v-0.1904"/>
   <path d="m73.546 86.02 0.0476-0.0953"/>
   <path d="m73.593 85.925 0.0476-0.0476"/>
   <path d="m73.641 85.878 0.0952-0.0476"/>
  </g>
  <g transform="rotate(-90 73.71 47.04)">
   <text transform="scale(-1 1) translate(-147.42)" x="73.7100" y="47.5395" font-size="1.3333" opacity="0" stroke-opacity="0" text-anchor="middle" lengthAdjust="spacingAndGlyphs" textLength="2.2024">D8</text>
  </g>
  <g class="stroked-text">
   <desc>D8</desc>
   <path d="m74.165 46.301h-1"/>
   <path d="m73.165 46.301v0.2381"/>
   <path d="m73.165 46.54 0.0476 0.1429"/>
   <path d="m73.212 46.682 0.0953 0.0952"/>
   <path d="m73.308 46.778 0.0952 0.0476"/>
   <path d="m73.403 46.825 0.1905 0.0476"/>
   <path d="m73.593 46.873h0.1428"/>
   <path d="m73.736 46.873 0.1905-0.0476"/>
   <path d="m73.927 46.825 0.0953-0.0476"/>
   <path d="m74.022 46.778 0.0952-0.0952"/>
   <path d="m74.117 46.682 0.0476-0.1429"/>
   <path d="m74.165 46.54v-0.2381"/>
   <path d="m73.593 47.444-0.0476-0.0953"/>
   <path d="m73.546 47.349-0.0476-0.0476"/>
   <path d="m73.498 47.301-0.0953-0.0476"/>
   <path d="m73.403 47.254h-0.0476"/>
   <path d="m73.355 47.254-0.0952 0.0476"/>
   <path d="m73.26 47.301-0.0477 0.0476"/>
   <path d="m73.212 47.349-0.0476 0.0953"/>
   <path d="m73.165 47.444v0.1904"/>
   <path d="m73.165 47.635 0.0476 0.0953"/>
   <path d="m73.212 47.73 0.0477 0.0476"/>
   <path d="m73.26 47.778 0.0952 0.0476"/>
   <path d="m73.355 47.825h0.0476"/>
   <path d="m73.403 47.825 0.0953-0.0476"/>
   <path d="m73.498 47.778 0.0476-0.0476"/>
   <path d="m73.546 47.73 0.0476-0.0953"/>
   <path d="m73.593 47.635v-0.1904"/>
   <path d="m73.593 47.444 0.0476-0.0953"/>
   <path d="m73.641 47.349 0.0476-0.0476"/>
   <path d="m73.689 47.301 0.0953-0.0476"/>
   <path d="m73.784 47.254h0.1904"/>
   <path d="m73.974 47.254 0.0953 0.0476"/>
   <path d="m74.07 47.301 0.0476 0.0476"/>
   <path d="m74.117 47.349 0.0476 0.0953"/>
   <path d="m74.165 47.444v0.1904"/>
   <path d="m74.165 47.635-0.0476 0.0953"/>
   <path d="m74.117 47.73-0.0476 0.0476"/>
   <path d="m74.07 47.778-0.0953 0.0476"/>
   <path d="m73.974 47.825h-0.1904"/>
   <path d="m73.784 47.825-0.0953-0.0476"/>
   <path d="m73.689 47.778-0.0476-0.0476"/>
   <path d="m73.641 47.73-0.0476-0.0953"/>
  </g>
  <g transform="rotate(-90 54.66 27.99)">
   <text transform="scale(-1 1) translate(-109.32)" x="54.6600" y="28.4895" font-size="1.3333" opacity="0" stroke-opacity="0" text-anchor="middle" lengthAdjust="spacingAndGlyphs" textLength="2.2024">D3</text>
  </g>
  <g class="stroked-text">
   <desc>D3</desc>
   <path d="m55.115 27.251h-1"/>
   <path d="m54.115 27.251v0.2381"/>
   <path d="m54.115 27.49 0.0476 0.1429"/>
   <path d="m54.162 27.632 0.0953 0.0952"/>
   <path d="m54.258 27.728 0.0952 0.0476"/>
   <path d="m54.353 27.775 0.1905 0.0476"/>
   <path d="m54.543 27.823h0.1428"/>
   <path d="m54.686 27.823 0.1905-0.0476"/>
   <path d="m54.877 27.775 0.0953-0.0476"/>
   <path d="m54.972 27.728 0.0952-0.0952"/>
   <path d="m55.067 27.632 0.0476-0.1429"/>
   <path d="m55.115 27.49v-0.2381"/>
   <path d="m54.115 28.156v0.619"/>
   <path d="m54.115 28.775 0.381-0.3333"/>
   <path d="m54.496 28.442v0.1428"/>
   <path d="m54.496 28.585 0.0476 0.0953"/>
   <path d="m54.543 28.68 0.0476 0.0476"/>
   <path d="m54.591 28.728 0.0952 0.0476"/>
   <path d="m54.686 28.775h0.2381"/>
   <path d="m54.924 28.775 0.0953-0.0476"/>
   <path d="m55.02 28.728 0.0476-0.0476"/>
   <path d="m55.067 28.68 0.0476-0.0953"/>
   <path d="m55.115 28.585v-0.2857"/>
   <path d="m55.115 28.299-0.0476-0.0952"/>
   <path d="m55.067 28.204-0.0476-0.0476"/>
  </g>
  <g transform="rotate(-90 16.56 85.14)">
   <text transform="scale(-1 1) translate(-33.12)" x="16.5600" y="85.6395" font-size="1.3333" opacity="0" stroke-opacity="0" text-anchor="middle" lengthAdjust="spacingAndGlyphs" textLength="3.1548">D13</text>
  </g>
  <g class="stroked-text">
   <desc>D13</desc>
   <path d="m17.015 83.925h-1"/>
   <path d="m16.015 83.925v0.2381"/>
   <path d="m16.015 84.163 0.0476 0.1429"/>
   <path d="m16.062 84.306 0.0953 0.0952"/>
   <path d="m16.158 84.401 0.0952 0.0476"/>
   <path d="m16.253 84.449 0.1905 0.0476"/>
   <path d="m16.443 84.497h0.1428"/>
   <path d="m16.586 84.497 0.1905-0.0476"/>
   <path d="m16.777 84.449 0.0953-0.0476"/>
   <path d="m16.872 84.401 0.0952-0.0952"/>
   <path d="m16.967 84.306 0.0476-0.1429"/>
   <path d="m17.015 84.163v-0.2381"/>
   <path d="m17.015 85.449v-0.5714"/>
   <path d="m17.015 85.163h-1"/>
   <path d="m16.015 85.163 0.1429-0.0952"/>
   <path d="m16.158 85.068 0.0952-0.0953"/>
   <path d="m16.253 84.973 0.0476-0.0952"/>
   <path d="m16.015 85.782v0.619"/>
   <path d="m16.015 86.401 0.381-0.3333"/>
   <path d="m16.396 86.068v0.1428"/>
   <path d="m16.396 86.211 0.0476 0.0953"/>
   <path d="m16.443 86.306 0.0476 0.0476"/>
   <path d="m16.491 86.354 0.0952 0.0476"/>
   <path d="m16.586 86.401h0.2381"/>
   <path d="m16.824 86.401 0.0953-0.0476"/>
   <path d="m16.92 86.354 0.0476-0.0476"/>
   <path d="m16.967 86.306 0.0476-0.0953"/>
   <path d="m17.015 86.211v-0.2857"/>
   <path d="m17.015 85.925-0.0476-0.0952"/>
   <path d="m16.967 85.83-0.0476-0.0476"/>
  </g>
  <g transform="rotate(-90 59.422 13.702)">
   <text transform="scale(-1 1) translate(-118.84)" x="59.4225" y="14.2020" font-size="1.3333" opacity="0" stroke-opacity="0" text-anchor="middle" lengthAdjust="spacingAndGlyphs" textLength="3.1548">D17</text>
  </g>
  <g class="stroked-text">
   <desc>D17</desc>
   <path d="m59.877 12.488h-1"/>
   <path d="m58.877 12.488v0.2381"/>
   <path d="m58.877 12.726 0.0476 0.1429"/>
   <path d="m58.925 12.869 0.0953 0.0952"/>
   <path d="m59.02 12.964 0.0952 0.0476"/>
   <path d="m59.115 13.012 0.1905 0.0476"/>
   <path d="m59.306 13.059h0.1428"/>
   <path d="m59.449 13.059 0.1905-0.0476"/>
   <path d="m59.639 13.012 0.0953-0.0476"/>
   <path d="m59.734 12.964 0.0952-0.0952"/>
   <path d="m59.83 12.869 0.0476-0.1429"/>
   <path d="m59.877 12.726v-0.2381"/>
   <path d="m59.877 14.012v-0.5714"/>
   <path d="m59.877 13.726h-1"/>
   <path d="m58.877 13.726 0.1429-0.0952"/>
   <path d="m59.02 13.631 0.0952-0.0953"/>
   <path d="m59.115 13.535 0.0476-0.0952"/>
   <path d="m58.877 14.345v0.6666"/>
   <path d="m58.877 15.012 1-0.4285"/>
  </g>
  <g transform="rotate(-90 16.56 66.09)">
   <text transform="scale(-1 1) translate(-33.12)" x="16.5600" y="66.5895" font-size="1.3333" opacity="0" stroke-opacity="0" text-anchor="middle" lengthAdjust="spacingAndGlyphs" textLength="2.2024">D9</text>
  </g>
  <g class="stroked-text">
   <desc>D9</desc>
   <path d="m17.015 65.351h-1"/>
   <path d="m16.015 65.351v0.2381"/>
   <path d="m16.015 65.59 0.0476 0.1429"/>
   <path d="m16.062 65.732 0.0953 0.0952"/>
   <path d="m16.158 65.828 0.0952 0.0476"/>
   <path d="m16.253 65.875 0.1905 0.0476"/>
   <path d="m16.443 65.923h0.1428"/>
   <path d="m16.586 65.923 0.1905-0.0476"/>
   <path d="m16.777 65.875 0.0953-0.0476"/>
   <path d="m16.872 65.828 0.0952-0.0952"/>
   <path d="m16.967 65.732 0.0476-0.1429"/>
   <path d="m17.015 65.59v-0.2381"/>
   <path d="m17.015 66.399v0.1905"/>
   <path d="m17.015 66.59-0.0476 0.0952"/>
   <path d="m16.967 66.685-0.0476 0.0477"/>
   <path d="m16.92 66.732-0.1429 0.0952"/>
   <path d="m16.777 66.828-0.1905 0.0476"/>
   <path d="m16.586 66.875h-0.3809"/>
   <path d="m16.205 66.875-0.0952-0.0476"/>
   <path d="m16.11 66.828-0.0477-0.0476"/>
   <path d="m16.062 66.78-0.0476-0.0953"/>
   <path d="m16.015 66.685v-0.1904"/>
   <path d="m16.015 66.494 0.0476-0.0953"/>
   <path d="m16.062 66.399 0.0477-0.0476"/>
   <path d="m16.11 66.351 0.0952-0.0476"/>
   <path d="m16.205 66.304h0.2381"/>
   <path d="m16.443 66.304 0.0952 0.0476"/>
   <path d="m16.539 66.351 0.0476 0.0476"/>
   <path d="m16.586 66.399 0.0477 0.0953"/>
   <path d="m16.634 66.494v0.1904"/>
   <path d="m16.634 66.685-0.0477 0.0953"/>
   <path d="m16.586 66.78-0.0476 0.0476"/>
   <path d="m16.539 66.828-0.0952 0.0476"/>
  </g>
 </g>
 <g fill="none" stroke="#BD93F9" stroke-linecap="round" stroke-linejoin="round" stroke-width=".12">
  <path d="m32.705 45.262v3.86"/>
  <path d="m32.705 49.122h2"/>
  <path d="m34.705 45.262v3.86"/>
  <path d="m70.805 26.212v3.86"/>
  <path d="m70.805 30.072h2"/>
  <path d="m72.805 26.212v3.86"/>
  <path d="m13.655 26.212v3.86"/>
  <path d="m13.655 30.072h2"/>
  <path d="m15.655 26.212v3.86"/>
  <path d="m13.655 45.262v3.86"/>
  <path d="m13.655 49.122h2"/>
  <path d="m15.655 45.262v3.86"/>
  <path d="m32.705 26.212v3.86"/>
  <path d="m32.705 30.072h2"/>
  <path d="m34.705 26.212v3.86"/>
  <path d="m32.705 83.362v3.86"/>
  <path d="m32.705 87.222h2"/>
  <path d="m34.705 83.362v3.86"/>
  <path d="m70.805 64.312v3.86"/>
  <path d="m70.805 68.172h2"/>
  <path d="m72.805 64.312v3.86"/>
  <path d="m32.705 64.312v3.86"/>
  <path d="m32.705 68.172h2"/>
  <path d="m34.705 64.312v3.86"/>
  <path d="m51.755 64.312v3.86"/>
  <path d="m51.755 68.172h2"/>
  <path d="m53.755 64.312v3.86"/>
  <path d="m51.755 45.262v3.86"/>
  <path d="m51.755 49.122h2"/>
  <path d="m53.755 45.262v3.86"/>
  <path d="m51.755 83.362v3.86"/>
  <path d="m51.755 87.222h2"/>
  <path d="m53.755 83.362v3.86"/>
  <path d="m70.805 83.362v3.86"/>
  <path d="m70.805 87.222h2"/>
  <path d="m72.805 83.362v3.86"/>
  <path d="m70.805 45.262v3.86"/>
  <path d="m70.805 49.122h2"/>
  <path d="m72.805 45.262v3.86"/>
  <path d="m51.755 26.212v3.86"/>
  <path d="m51.755 30.072h2"/>
  <path d="m53.755 26.212v3.86"/>
  <path d="m13.655 83.362v3.86"/>
  <path d="m13.655 87.222h2"/>
  <path d="m15.655 83.362v3.86"/>
  <path d="m56.518 11.925v3.86"/>
  <path d="m56.518 15.785h2"/>
  <path d="m58.518 11.925v3.86"/>
  <path d="m13.655 64.312v3.86"/>
  <path d="m13.655 68.172h2"/>
  <path d="m15.655 64.312v3.86"/>
 </g>
 <g>
  <g fill="#BD93F9">
   <circle cx="42.595" cy="42.912" r=".875"/>
   <circle cx="47.675" cy="42.912" r="2"/>
   <circle cx="52.755" cy="42.912" r=".875"/>
   <circle cx="43.865" cy="40.372" r=".75"/>
   <circle cx="50.215" cy="37.832" r=".75"/>
   <circle cx="61.645" cy="61.962" r=".875"/>
   <circle cx="66.725" cy="61.962" r="2"/>
   <circle cx="71.805" cy="61.962" r=".875"/>
   <circle cx="62.915" cy="59.422" r=".75"/>
   <circle cx="69.265" cy="56.882" r=".75"/>
   <circle cx="42.595" cy="23.862" r=".875"/>
   <circle cx="47.675" cy="23.862" r="2"/>
   <circle cx="52.755" cy="23.862" r=".875"/>
   <circle cx="43.865" cy="21.322" r=".75"/>
   <circle cx="50.215" cy="18.782" r=".75"/>
   <circle cx="23.545" cy="23.862" r=".875"/>
   <circle cx="28.625" cy="23.862" r="2"/>
   <circle cx="33.705" cy="23.862" r=".875"/>
   <circle cx="24.815" cy="21.322" r=".75"/>
   <circle cx="31.165" cy="18.782" r=".75"/>
   <circle cx="61.645" cy="81.012" r=".875"/>
   <circle cx="66.725" cy="81.012" r="2"/>
   <circle cx="71.805" cy="81.012" r=".875"/>
   <circle cx="62.915" cy="78.472" r=".75"/>
   <circle cx="69.265" cy="75.932" r=".75"/>
   <circle cx="47.358" cy="9.575" r=".875"/>
   <circle cx="52.438" cy="9.575" r="2"/>
   <circle cx="57.518" cy="9.575" r=".875"/>
   <circle cx="48.628" cy="7.035" r=".75"/>
   <circle cx="54.978" cy="4.495" r=".75"/>
   <circle cx="23.545" cy="61.962" r=".875"/>
   <circle cx="28.625" cy="61.962" r="2"/>
   <circle cx="33.705" cy="61.962" r=".875"/>
   <circle cx="24.815" cy="59.422" r=".75"/>
   <circle cx="31.165" cy="56.882" r=".75"/>
   <circle cx="42.595" cy="81.012" r=".875"/>
   <circle cx="47.675" cy="81.012" r="2"/>
   <circle cx="52.755" cy="81.012" r=".875"/>
   <circle cx="43.865" cy="78.472" r=".75"/>
   <circle cx="50.215" cy="75.932" r=".75"/>
   <circle cx="4.495" cy="61.962" r=".875"/>
   <circle cx="9.575" cy="61.962" r="2"/>
   <circle cx="14.655" cy="61.962" r=".875"/>
   <circle cx="5.765" cy="59.422" r=".75"/>
   <circle cx="12.115" cy="56.882" r=".75"/>
   <circle cx="23.545" cy="81.012" r=".875"/>
   <circle cx="28.625" cy="81.012" r="2"/>
   <circle cx="33.705" cy="81.012" r=".875"/>
   <circle cx="24.815" cy="78.472" r=".75"/>
   <circle cx="31.165" cy="75.932" r=".75"/>
   <circle cx="42.595" cy="61.962" r=".875"/>
   <circle cx="47.675" cy="61.962" r="2"/>
   <circle cx="52.755" cy="61.962" r=".875"/>
   <circle cx="43.865" cy="59.422" r=".75"/>
   <circle cx="50.215" cy="56.882" r=".75"/>
   <circle cx="4.495" cy="42.912" r=".875"/>
   <circle cx="9.575" cy="42.912" r="2"/>
   <circle cx="14.655" cy="42.912" r=".875"/>
   <circle cx="5.765" cy="40.372" r=".75"/>
   <circle cx="12.115" cy="37.832" r=".75"/>
   <circle cx="61.645" cy="23.862" r=".875"/>
   <circle cx="66.725" cy="23.862" r="2"/>
   <circle cx="71.805" cy="23.862" r=".875"/>
   <circle cx="62.915" cy="21.322" r=".75"/>
   <circle cx="69.265" cy="18.782" r=".75"/>
   <circle cx="4.495" cy="81.012" r=".875"/>
   <circle cx="9.575" cy="81.012" r="2"/>
   <circle cx="14.655" cy="81.012" r=".875"/>
   <circle cx="5.765" cy="78.472" r=".75"/>
   <circle cx="12.115" cy="75.932" r=".75"/>
   <circle cx="61.645" cy="42.912" r=".875"/>
   <circle cx="66.725" cy="42.912" r="2"/>
   <circle cx="71.805" cy="42.912" r=".875"/>
   <circle cx="62.915" cy="40.372" r=".75"/>
   <circle cx="69.265" cy="37.832" r=".75"/>
   <circle cx="4.495" cy="23.862" r=".875"/>
   <circle cx="9.575" cy="23.862" r="2"/>
   <circle cx="14.655" cy="23.862" r=".875"/>
   <circle cx="5.765" cy="21.322" r=".75"/>
   <circle cx="12.115" cy="18.782" r=".75"/>
   <circle cx="23.545" cy="42.912" r=".875"/>
   <circle cx="28.625" cy="42.912" r="2"/>
   <circle cx="33.705" cy="42.912" r=".875"/>
   <circle cx="24.815" cy="40.372" r=".75"/>
   <circle cx="31.165" cy="37.832" r=".75"/>
  </g>
  <g>
   <circle cx="42.595" cy="42.912" r=".875"/>
   <circle cx="47.675" cy="42.912" r="2"/>
   <circle cx="52.755" cy="42.912" r=".875"/>
   <circle cx="43.865" cy="40.372" r=".75"/>
   <circle cx="50.215" cy="37.832" r=".75"/>
   <circle cx="61.645" cy="61.962" r=".875"/>
   <circle cx="66.725" cy="61.962" r="2"/>
   <circle cx="71.805" cy="61.962" r=".875"/>
   <circle cx="62.915" cy="59.422" r=".75"/>
   <circle cx="69.265" cy="56.882" r=".75"/>
   <circle cx="42.595" cy="23.862" r=".875"/>
   <circle cx="47.675" cy="23.862" r="2"/>
   <circle cx="52.755" cy="23.862" r=".875"/>
   <circle cx="43.865" cy="21.322" r=".75"/>
   <circle cx="50.215" cy="18.782" r=".75"/>
   <circle cx="23.545" cy="23.862" r=".875"/>
   <circle cx="28.625" cy="23.862" r="2"/>
   <circle cx="33.705" cy="23.862" r=".875"/>
   <circle cx="24.815" cy="21.322" r=".75"/>
   <circle cx="31.165" cy="18.782" r=".75"/>
   <circle cx="61.645" cy="81.012" r=".875"/>
   <circle cx="66.725" cy="81.012" r="2"/>
   <circle cx="71.805" cy="81.012" r=".875"/>
   <circle cx="62.915" cy="78.472" r=".75"/>
   <circle cx="69.265" cy="75.932" r=".75"/>
   <circle cx="47.358" cy="9.575" r=".875"/>
   <circle cx="52.438" cy="9.575" r="2"/>
   <circle cx="57.518" cy="9.575" r=".875"/>
   <circle cx="48.628" cy="7.035" r=".75"/>
   <circle cx="54.978" cy="4.495" r=".75"/>
   <circle cx="23.545" cy="61.962" r=".875"/>
   <circle cx="28.625" cy="61.962" r="2"/>
   <circle cx="33.705" cy="61.962" r=".875"/>
   <circle cx="24.815" cy="59.422" r=".75"/>
   <circle cx="31.165" cy="56.882" r=".75"/>
   <circle cx="42.595" cy="81.012" r=".875"/>
   <circle cx="47.675" cy="81.012" r="2"/>
   <circle cx="52.755" cy="81.012" r=".875"/>
   <circle cx="43.865" cy="78.472" r=".75"/>
   <circle cx="50.215" cy="75.932" r=".75"/>
   <circle cx="4.495" cy="61.962" r=".875"/>
   <circle cx="9.575" cy="61.962" r="2"/>
   <circle cx="14.655" cy="61.962" r=".875"/>
   <circle cx="5.765" cy="59.422" r=".75"/>
   <circle cx="12.115" cy="56.882" r=".75"/>
   <circle cx="23.545" cy="81.012" r=".875"/>
   <circle cx="28.625" cy="81.012" r="2"/>
   <circle cx="33.705" cy="81.012" r=".875"/>
   <circle cx="24.815" cy="78.472" r=".75"/>
   <circle cx="31.165" cy="75.932" r=".75"/>
   <circle cx="42.595" cy="61.962" r=".875"/>
   <circle cx="47.675" cy="61.962" r="2"/>
   <circle cx="52.755" cy="61.962" r=".875"/>
   <circle cx="43.865" cy="59.422" r=".75"/>
   <circle cx="50.215" cy="56.882" r=".75"/>
   <circle cx="4.495" cy="42.912" r=".875"/>
   <circle cx="9.575" cy="42.912" r="2"/>
   <circle cx="14.655" cy="42.912" r=".875"/>
   <circle cx="5.765" cy="40.372" r=".75"/>
   <circle cx="12.115" cy="37.832" r=".75"/>
   <circle cx="61.645" cy="23.862" r=".875"/>
   <circle cx="66.725" cy="23.862" r="2"/>
   <circle cx="71.805" cy="23.862" r=".875"/>
   <circle cx="62.915" cy="21.322" r=".75"/>
   <circle cx="69.265" cy="18.782" r=".75"/>
   <circle cx="4.495" cy="81.012" r=".875"/>
   <circle cx="9.575" cy="81.012" r="2"/>
   <circle cx="14.655" cy="81.012" r=".875"/>
   <circle cx="5.765" cy="78.472" r=".75"/>
   <circle cx="12.115" cy="75.932" r=".75"/>
   <circle cx="61.645" cy="42.912" r=".875"/>
   <circle cx="66.725" cy="42.912" r="2"/>
   <circle cx="71.805" cy="42.912" r=".875"/>
   <circle cx="62.915" cy="40.372" r=".75"/>
   <circle cx="69.265" cy="37.832" r=".75"/>
   <circle cx="4.495" cy="23.862" r=".875"/>
   <circle cx="9.575" cy="23.862" r="2"/>
   <circle cx="14.655" cy="23.862" r=".875"/>
   <circle cx="5.765" cy="21.322" r=".75"/>
   <circle cx="12.115" cy="18.782" r=".75"/>
   <circle cx="23.545" cy="42.912" r=".875"/>
   <circle cx="28.625" cy="42.912" r="2"/>
   <circle cx="33.705" cy="42.912" r=".875"/>
   <circle cx="24.815" cy="40.372" r=".75"/>
   <circle cx="31.165" cy="37.832" r=".75"/>
  </g>
  <g fill="#f55">
   <circle cx="43.865" cy="40.372" r="1.25"/>
   <circle cx="50.215" cy="37.832" r="1.25"/>
   <circle cx="62.915" cy="59.422" r="1.25"/>
   <circle cx="69.265" cy="56.882" r="1.25"/>
   <circle cx="43.865" cy="21.322" r="1.25"/>
   <circle cx="50.215" cy="18.782" r="1.25"/>
   <circle cx="24.815" cy="21.322" r="1.25"/>
   <circle cx="31.165" cy="18.782" r="1.25"/>
   <circle cx="62.915" cy="78.472" r="1.25"/>
   <circle cx="69.265" cy="75.932" r="1.25"/>
   <circle cx="48.628" cy="7.035" r="1.25"/>
   <circle cx="54.978" cy="4.495" r="1.25"/>
   <circle cx="24.815" cy="59.422" r="1.25"/>
   <circle cx="31.165" cy="56.882" r="1.25"/>
   <circle cx="43.865" cy="78.472" r="1.25"/>
   <circle cx="50.215" cy="75.932" r="1.25"/>
   <circle cx="5.765" cy="59.422" r="1.25"/>
   <circle cx="12.115" cy="56.882" r="1.25"/>
   <circle cx="24.815" cy="78.472" r="1.25"/>
   <circle cx="31.165" cy="75.932" r="1.25"/>
   <circle cx="43.865" cy="59.422" r="1.25"/>
   <circle cx="50.215" cy="56.882" r="1.25"/>
   <circle cx="5.765" cy="40.372" r="1.25"/>
   <circle cx="12.115" cy="37.832" r="1.25"/>
   <circle cx="62.915" cy="21.322" r="1.25"/>
   <circle cx="69.265" cy="18.782" r="1.25"/>
   <circle cx="5.765" cy="78.472" r="1.25"/>
   <circle cx="12.115" cy="75.932" r="1.25"/>
   <circle cx="62.915" cy="40.372" r="1.25"/>
   <circle cx="69.265" cy="37.832" r="1.25"/>
   <circle cx="5.765" cy="21.322" r="1.25"/>
   <circle cx="12.115" cy="18.782" r="1.25"/>
   <circle cx="24.815" cy="40.372" r="1.25"/>
   <circle cx="31.165" cy="37.832" r="1.25"/>
  </g>
 </g>
 <g fill="none" stroke="#f55" stroke-linecap="round" stroke-linejoin="round" stroke-width=".2">
  <path d="m20.052 7.035h28.575"/>
  <path d="m5.765 21.322 14.288-14.288"/>
  <path d="m5.765 59.422v19.05"/>
  <path d="m5.765 40.372v19.05"/>
  <path d="m5.765 21.322v19.05"/>
  <path d="m24.815 21.322v19.05"/>
  <path d="m24.815 59.422v19.05"/>
  <path d="m24.815 40.372v19.05"/>
  <path d="m43.865 40.372v19.05"/>
  <path d="m43.865 21.322v19.05"/>
  <path d="m43.865 59.422v19.05"/>
  <path d="m62.915 59.422v19.05"/>
  <path d="m62.915 40.372v19.05"/>
  <path d="m62.915 21.322v19.05"/>
 </g>
 <g fill="#fff">
  <circle cx="42.595" cy="42.912" r=".875"/>
  <circle cx="47.675" cy="42.912" r="2"/>
  <circle cx="52.755" cy="42.912" r=".875"/>
  <circle cx="43.865" cy="40.372" r=".75"/>
  <circle cx="50.215" cy="37.832" r=".75"/>
  <circle cx="61.645" cy="61.962" r=".875"/>
  <circle cx="66.725" cy="61.962" r="2"/>
  <circle cx="71.805" cy="61.962" r=".875"/>
  <circle cx="62.915" cy="59.422" r=".75"/>
  <circle cx="69.265" cy="56.882" r=".75"/>
  <circle cx="42.595" cy="23.862" r=".875"/>
  <circle cx="47.675" cy="23.862" r="2"/>
  <circle cx="52.755" cy="23.862" r=".875"/>
  <circle cx="43.865" cy="21.322" r=".75"/>
  <circle cx="50.215" cy="18.782" r=".75"/>
  <circle cx="23.545" cy="23.862" r=".875"/>
  <circle cx="28.625" cy="23.862" r="2"/>
  <circle cx="33.705" cy="23.862" r=".875"/>
  <circle cx="24.815" cy="21.322" r=".75"/>
  <circle cx="31.165" cy="18.782" r=".75"/>
  <circle cx="61.645" cy="81.012" r=".875"/>
  <circle cx="66.725" cy="81.012" r="2"/>
  <circle cx="71.805" cy="81.012" r=".875"/>
  <circle cx="62.915" cy="78.472" r=".75"/>
  <circle cx="69.265" cy="75.932" r=".75"/>
  <circle cx="47.358" cy="9.575" r=".875"/>
  <circle cx="52.438" cy="9.575" r="2"/>
  <circle cx="57.518" cy="9.575" r=".875"/>
  <circle cx="48.628" cy="7.035" r=".75"/>
  <circle cx="54.978" cy="4.495" r=".75"/>
  <circle cx="23.545" cy="61.962" r=".875"/>
  <circle cx="28.625" cy="61.962" r="2"/>
  <circle cx="33.705" cy="61.962" r=".875"/>
  <circle cx="24.815" cy="59.422" r=".75"/>
  <circle cx="31.165" cy="56.882" r=".75"/>
  <circle cx="42.595" cy="81.012" r=".875"/>
  <circle cx="47.675" cy="81.012" r="2"/>
  <circle cx="52.755" cy="81.012" r=".875"/>
  <circle cx="43.865" cy="78.472" r=".75"/>
  <circle cx="50.215" cy="75.932" r=".75"/>
  <circle cx="4.495" cy="61.962" r=".875"/>
  <circle cx="9.575" cy="61.962" r="2"/>
  <circle cx="14.655" cy="61.962" r=".875"/>
  <circle cx="5.765" cy="59.422" r=".75"/>
  <circle cx="12.115" cy="56.882" r=".75"/>
  <circle cx="23.545" cy="81.012" r=".875"/>
  <circle cx="28.625" cy="81.012" r="2"/>
  <circle cx="33.705" cy="81.012" r=".875"/>
  <circle cx="24.815" cy="78.472" r=".75"/>
  <circle cx="31.165" cy="75.932" r=".75"/>
  <circle cx="42.595" cy="61.962" r=".875"/>
  <circle cx="47.675" cy="61.962" r="2"/>
  <circle cx="52.755" cy="61.962" r=".875"/>
  <circle cx="43.865" cy="59.422" r=".75"/>
  <circle cx="50.215" cy="56.882" r=".75"/>
  <circle cx="4.495" cy="42.912" r=".875"/>
  <circle cx="9.575" cy="42.912" r="2"/>
  <circle cx="14.655" cy="42.912" r=".875"/>
  <circle cx="5.765" cy="40.372" r=".75"/>
  <circle cx="12.115" cy="37.832" r=".75"/>
  <circle cx="61.645" cy="23.862" r=".875"/>
  <circle cx="66.725" cy="23.862" r="2"/>
  <circle cx="71.805" cy="23.862" r=".875"/>
  <circle cx="62.915" cy="21.322" r=".75"/>
  <circle cx="69.265" cy="18.782" r=".75"/>
  <circle cx="4.495" cy="81.012" r=".875"/>
  <circle cx="9.575" cy="81.012" r="2"/>
  <circle cx="14.655" cy="81.012" r=".875"/>
  <circle cx="5.765" cy="78.472" r=".75"/>
  <circle cx="12.115" cy="75.932" r=".75"/>
  <circle cx="61.645" cy="42.912" r=".875"/>
  <circle cx="66.725" cy="42.912" r="2"/>
  <circle cx="71.805" cy="42.912" r=".875"/>
  <circle cx="62.915" cy="40.372" r=".75"/>
  <circle cx="69.265" cy="37.832" r=".75"/>
  <circle cx="4.495" cy="23.862" r=".875"/>
  <circle cx="9.575" cy="23.862" r="2"/>
  <circle cx="14.655" cy="23.862" r=".875"/>
  <circle cx="5.765" cy="21.322" r=".75"/>
  <circle cx="12.115" cy="18.782" r=".75"/>
  <circle cx="23.545" cy="42.912" r=".875"/>
  <circle cx="28.625" cy="42.912" r="2"/>
  <circle cx="33.705" cy="42.912" r=".875"/>
  <circle cx="24.815" cy="40.372" r=".75"/>
  <circle cx="31.165" cy="37.832" r=".75"/>
 </g>
 <g fill="#50FA7B">
  <circle cx="43.865" cy="40.372" r="1.25"/>
  <circle cx="50.215" cy="37.832" r="1.25"/>
  <circle cx="62.915" cy="59.422" r="1.25"/>
  <circle cx="69.265" cy="56.882" r="1.25"/>
  <circle cx="43.865" cy="21.322" r="1.25"/>
  <circle cx="50.215" cy="18.782" r="1.25"/>
  <circle cx="24.815" cy="21.322" r="1.25"/>
  <circle cx="31.165" cy="18.782" r="1.25"/>
  <circle cx="62.915" cy="78.472" r="1.25"/>
  <circle cx="69.265" cy="75.932" r="1.25"/>
  <circle cx="48.628" cy="7.035" r="1.25"/>
  <circle cx="54.978" cy="4.495" r="1.25"/>
  <circle cx="24.815" cy="59.422" r="1.25"/>
  <circle cx="31.165" cy="56.882" r="1.25"/>
  <circle cx="43.865" cy="78.472" r="1.25"/>
  <circle cx="50.215" cy="75.932" r="1.25"/>
  <circle cx="5.765" cy="59.422" r="1.25"/>
  <circle cx="12.115" cy="56.882" r="1.25"/>
  <circle cx="24.815" cy="78.472" r="1.25"/>
  <circle cx="31.165" cy="75.932" r="1.25"/>
  <circle cx="43.865" cy="59.422" r="1.25"/>
  <circle cx="50.215" cy="56.882" r="1.25"/>
  <circle cx="5.765" cy="40.372" r="1.25"/>
  <circle cx="12.115" cy="37.832" r="1.25"/>
  <circle cx="62.915" cy="21.322" r="1.25"/>
  <circle cx="69.265" cy="18.782" r="1.25"/>
  <circle cx="5.765" cy="78.472" r="1.25"/>
  <circle cx="12.115" cy="75.932" r="1.25"/>
  <circle cx="62.915" cy="40.372" r="1.25"/>
  <circle cx="69.265" cy="37.832" r="1.25"/>
  <circle cx="5.765" cy="21.322" r="1.25"/>
  <circle cx="12.115" cy="18.782" r="1.25"/>
  <circle cx="24.815" cy="40.372" r="1.25"/>
  <circle cx="31.165" cy="37.832" r="1.25"/>
  <g fill="#50FA7B" fill-rule="evenodd">
   <path d="m33.405 48.862-0.0957-0.019-0.0811-0.0542-0.0542-0.0811-0.019-0.0957v-0.6l0.019-0.0957 0.0542-0.0811 0.0811-0.0542 0.0957-0.019h0.6l0.0957 0.019 0.0811 0.0542 0.0542 0.0811 0.019 0.0957v0.6l-0.019 0.0957-0.0542 0.0811-0.0811 0.0542-0.0957 0.019z"/>
   <path d="m33.405 46.062-0.0957-0.019-0.0811-0.0542-0.0542-0.0811-0.019-0.0957v-0.6l0.019-0.0957 0.0542-0.0811 0.0811-0.0542 0.0957-0.019h0.6l0.0957 0.019 0.0811 0.0542 0.0542 0.0811 0.019 0.0957v0.6l-0.019 0.0957-0.0542 0.0811-0.0811 0.0542-0.0957 0.019z"/>
   <path d="m71.505 29.812-0.0957-0.019-0.0811-0.0542-0.0542-0.0811-0.019-0.0957v-0.6l0.019-0.0957 0.0542-0.0811 0.0811-0.0542 0.0957-0.019h0.6l0.0957 0.019 0.0811 0.0542 0.0542 0.0811 0.019 0.0957v0.6l-0.019 0.0957-0.0542 0.0811-0.0811 0.0542-0.0957 0.019z"/>
   <path d="m71.505 27.012-0.0957-0.019-0.0811-0.0542-0.0542-0.0811-0.019-0.0957v-0.6l0.019-0.0957 0.0542-0.0811 0.0811-0.0542 0.0957-0.019h0.6l0.0957 0.019 0.0811 0.0542 0.0542 0.0811 0.019 0.0957v0.6l-0.019 0.0957-0.0542 0.0811-0.0811 0.0542-0.0957 0.019z"/>
   <path d="m14.355 29.812-0.0957-0.019-0.0811-0.0542-0.0542-0.0811-0.019-0.0957v-0.6l0.019-0.0957 0.0542-0.0811 0.0811-0.0542 0.0957-0.019h0.6l0.0957 0.019 0.0811 0.0542 0.0542 0.0811 0.019 0.0957v0.6l-0.019 0.0957-0.0542 0.0811-0.0811 0.0542-0.0957 0.019z"/>
   <path d="m14.355 27.012-0.0957-0.019-0.0811-0.0542-0.0542-0.0811-0.019-0.0957v-0.6l0.019-0.0957 0.0542-0.0811 0.0811-0.0542 0.0957-0.019h0.6l0.0957 0.019 0.0811 0.0542 0.0542 0.0811 0.019 0.0957v0.6l-0.019 0.0957-0.0542 0.0811-0.0811 0.0542-0.0957 0.019z"/>
   <path d="m14.355 48.862-0.0957-0.019-0.0811-0.0542-0.0542-0.0811-0.019-0.0957v-0.6l0.019-0.0957 0.0542-0.0811 0.0811-0.0542 0.0957-0.019h0.6l0.0957 0.019 0.0811 0.0542 0.0542 0.0811 0.019 0.0957v0.6l-0.019 0.0957-0.0542 0.0811-0.0811 0.0542-0.0957 0.019z"/>
   <path d="m14.355 46.062-0.0957-0.019-0.0811-0.0542-0.0542-0.0811-0.019-0.0957v-0.6l0.019-0.0957 0.0542-0.0811 0.0811-0.0542 0.0957-0.019h0.6l0.0957 0.019 0.0811 0.0542 0.0542 0.0811 0.019 0.0957v0.6l-0.019 0.0957-0.0542 0.0811-0.0811 0.0542-0.0957 0.019z"/>
   <path d="m33.405 29.812-0.0957-0.019-0.0811-0.0542-0.0542-0.0811-0.019-0.0957v-0.6l0.019-0.0957 0.0542-0.0811 0.0811-0.0542 0.0957-0.019h0.6l0.0957 0.019 0.0811 0.0542 0.0542 0.0811 0.019 0.0957v0.6l-0.019 0.0957-0.0542 0.0811-0.0811 0.0542-0.0957 0.019z"/>
   <path d="m33.405 27.012-0.0957-0.019-0.0811-0.0542-0.0542-0.0811-0.019-0.0957v-0.6l0.019-0.0957 0.0542-0.0811 0.0811-0.0542 0.0957-0.019h0.6l0.0957 0.019 0.0811 0.0542 0.0542 0.0811 0.019 0.0957v0.6l-0.019 0.0957-0.0542 0.0811-0.0811 0.0542-0.0957 0.019z"/>
   <path d="m33.405 86.962-0.0957-0.019-0.0811-0.0542-0.0542-0.0811-0.019-0.0957v-0.6l0.019-0.0957 0.0542-0.0811 0.0811-0.0542 0.0957-0.019h0.6l0.0957 0.019 0.0811 0.0542 0.0542 0.0811 0.019 0.0957v0.6l-0.019 0.0957-0.0542 0.0811-0.0811 0.0542-0.0957 0.019z"/>
   <path d="m33.405 84.162-0.0957-0.019-0.0811-0.0542-0.0542-0.0811-0.019-0.0957v-0.6l0.019-0.0957 0.0542-0.0811 0.0811-0.0542 0.0957-0.019h0.6l0.0957 0.019 0.0811 0.0542 0.0542 0.0811 0.019 0.0957v0.6l-0.019 0.0957-0.0542 0.0811-0.0811 0.0542-0.0957 0.019z"/>
   <path d="m71.505 67.912-0.0957-0.019-0.0811-0.0542-0.0542-0.0811-0.019-0.0957v-0.6l0.019-0.0957 0.0542-0.0811 0.0811-0.0542 0.0957-0.019h0.6l0.0957 0.019 0.0811 0.0542 0.0542 0.0811 0.019 0.0957v0.6l-0.019 0.0957-0.0542 0.0811-0.0811 0.0542-0.0957 0.019z"/>
   <path d="m71.505 65.112-0.0957-0.019-0.0811-0.0542-0.0542-0.0811-0.019-0.0957v-0.6l0.019-0.0957 0.0542-0.0811 0.0811-0.0542 0.0957-0.019h0.6l0.0957 0.019 0.0811 0.0542 0.0542 0.0811 0.019 0.0957v0.6l-0.019 0.0957-0.0542 0.0811-0.0811 0.0542-0.0957 0.019z"/>
   <path d="m33.405 67.912-0.0957-0.019-0.0811-0.0542-0.0542-0.0811-0.019-0.0957v-0.6l0.019-0.0957 0.0542-0.0811 0.0811-0.0542 0.0957-0.019h0.6l0.0957 0.019 0.0811 0.0542 0.0542 0.0811 0.019 0.0957v0.6l-0.019 0.0957-0.0542 0.0811-0.0811 0.0542-0.0957 0.019z"/>
   <path d="m33.405 65.112-0.0957-0.019-0.0811-0.0542-0.0542-0.0811-0.019-0.0957v-0.6l0.019-0.0957 0.0542-0.0811 0.0811-0.0542 0.0957-0.019h0.6l0.0957 0.019 0.0811 0.0542 0.0542 0.0811 0.019 0.0957v0.6l-0.019 0.0957-0.0542 0.0811-0.0811 0.0542-0.0957 0.019z"/>
   <path d="m52.455 67.912-0.0957-0.019-0.0811-0.0542-0.0542-0.0811-0.019-0.0957v-0.6l0.019-0.0957 0.0542-0.0811 0.0811-0.0542 0.0957-0.019h0.6l0.0957 0.019 0.0811 0.0542 0.0542 0.0811 0.019 0.0957v0.6l-0.019 0.0957-0.0542 0.0811-0.0811 0.0542-0.0957 0.019z"/>
   <path d="m52.455 65.112-0.0957-0.019-0.0811-0.0542-0.0542-0.0811-0.019-0.0957v-0.6l0.019-0.0957 0.0542-0.0811 0.0811-0.0542 0.0957-0.019h0.6l0.0957 0.019 0.0811 0.0542 0.0542 0.0811 0.019 0.0957v0.6l-0.019 0.0957-0.0542 0.0811-0.0811 0.0542-0.0957 0.019z"/>
   <path d="m52.455 48.862-0.0957-0.019-0.0811-0.0542-0.0542-0.0811-0.019-0.0957v-0.6l0.019-0.0957 0.0542-0.0811 0.0811-0.0542 0.0957-0.019h0.6l0.0957 0.019 0.0811 0.0542 0.0542 0.0811 0.019 0.0957v0.6l-0.019 0.0957-0.0542 0.0811-0.0811 0.0542-0.0957 0.019z"/>
   <path d="m52.455 46.062-0.0957-0.019-0.0811-0.0542-0.0542-0.0811-0.019-0.0957v-0.6l0.019-0.0957 0.0542-0.0811 0.0811-0.0542 0.0957-0.019h0.6l0.0957 0.019 0.0811 0.0542 0.0542 0.0811 0.019 0.0957v0.6l-0.019 0.0957-0.0542 0.0811-0.0811 0.0542-0.0957 0.019z"/>
   <path d="m52.455 86.962-0.0957-0.019-0.0811-0.0542-0.0542-0.0811-0.019-0.0957v-0.6l0.019-0.0957 0.0542-0.0811 0.0811-0.0542 0.0957-0.019h0.6l0.0957 0.019 0.0811 0.0542 0.0542 0.0811 0.019 0.0957v0.6l-0.019 0.0957-0.0542 0.0811-0.0811 0.0542-0.0957 0.019z"/>
   <path d="m52.455 84.162-0.0957-0.019-0.0811-0.0542-0.0542-0.0811-0.019-0.0957v-0.6l0.019-0.0957 0.0542-0.0811 0.0811-0.0542 0.0957-0.019h0.6l0.0957 0.019 0.0811 0.0542 0.0542 0.0811 0.019 0.0957v0.6l-0.019 0.0957-0.0542 0.0811-0.0811 0.0542-0.0957 0.019z"/>
   <path d="m71.505 86.962-0.0957-0.019-0.0811-0.0542-0.0542-0.0811-0.019-0.0957v-0.6l0.019-0.0957 0.0542-0.0811 0.0811-0.0542 0.0957-0.019h0.6l0.0957 0.019 0.0811 0.0542 0.0542 0.0811 0.019 0.0957v0.6l-0.019 0.0957-0.0542 0.0811-0.0811 0.0542-0.0957 0.019z"/>
   <path d="m71.505 84.162-0.0957-0.019-0.0811-0.0542-0.0542-0.0811-0.019-0.0957v-0.6l0.019-0.0957 0.0542-0.0811 0.0811-0.0542 0.0957-0.019h0.6l0.0957 0.019 0.0811 0.0542 0.0542 0.0811 0.019 0.0957v0.6l-0.019 0.0957-0.0542 0.0811-0.0811 0.0542-0.0957 0.019z"/>
   <path d="m71.505 48.862-0.0957-0.019-0.0811-0.0542-0.0542-0.0811-0.019-0.0957v-0.6l0.019-0.0957 0.0542-0.0811 0.0811-0.0542 0.0957-0.019h0.6l0.0957 0.019 0.0811 0.0542 0.0542 0.0811 0.019 0.0957v0.6l-0.019 0.0957-0.0542 0.0811-0.0811 0.0542-0.0957 0.019z"/>
   <path d="m71.505 46.062-0.0957-0.019-0.0811-0.0542-0.0542-0.0811-0.019-0.0957v-0.6l0.019-0.0957 0.0542-0.0811 0.0811-0.0542 0.0957-0.019h0.6l0.0957 0.019 0.0811 0.0542 0.0542 0.0811 0.019 0.0957v0.6l-0.019 0.0957-0.0542 0.0811-0.0811 0.0542-0.0957 0.019z"/>
   <path d="m52.455 29.812-0.0957-0.019-0.0811-0.0542-0.0542-0.0811-0.019-0.0957v-0.6l0.019-0.0957 0.0542-0.0811 0.0811-0.0542 0.0957-0.019h0.6l0.0957 0.019 0.0811 0.0542 0.0542 0.0811 0.019 0.0957v0.6l-0.019 0.0957-0.0542 0.0811-0.0811 0.0542-0.0957 0.019z"/>
   <path d="m52.455 27.012-0.0957-0.019-0.0811-0.0542-0.0542-0.0811-0.019-0.0957v-0.6l0.019-0.0957 0.0542-0.0811 0.0811-0.0542 0.0957-0.019h0.6l0.0957 0.019 0.0811 0.0542 0.0542 0.0811 0.019 0.0957v0.6l-0.019 0.0957-0.0542 0.0811-0.0811 0.0542-0.0957 0.019z"/>
   <path d="m14.355 86.962-0.0957-0.019-0.0811-0.0542-0.0542-0.0811-0.019-0.0957v-0.6l0.019-0.0957 0.0542-0.0811 0.0811-0.0542 0.0957-0.019h0.6l0.0957 0.019 0.0811 0.0542 0.0542 0.0811 0.019 0.0957v0.6l-0.019 0.0957-0.0542 0.0811-0.0811 0.0542-0.0957 0.019z"/>
   <path d="m14.355 84.162-0.0957-0.019-0.0811-0.0542-0.0542-0.0811-0.019-0.0957v-0.6l0.019-0.0957 0.0542-0.0811 0.0811-0.0542 0.0957-0.019h0.6l0.0957 0.019 0.0811 0.0542 0.0542 0.0811 0.019 0.0957v0.6l-0.019 0.0957-0.0542 0.0811-0.0811 0.0542-0.0957 0.019z"/>
   <path d="m57.218 15.525-0.0957-0.019-0.0811-0.0542-0.0542-0.0811-0.019-0.0957v-0.6l0.019-0.0957 0.0542-0.0811 0.0811-0.0542 0.0957-0.019h0.6l0.0957 0.019 0.0811 0.0542 0.0542 0.0811 0.019 0.0957v0.6l-0.019 0.0957-0.0542 0.0811-0.0811 0.0542-0.0957 0.019z"/>
   <path d="m57.218 12.725-0.0957-0.019-0.0811-0.0542-0.0542-0.0811-0.019-0.0957v-0.6l0.019-0.0957 0.0542-0.0811 0.0811-0.0542 0.0957-0.019h0.6l0.0957 0.019 0.0811 0.0542 0.0542 0.0811 0.019 0.0957v0.6l-0.019 0.0957-0.0542 0.0811-0.0811 0.0542-0.0957 0.019z"/>
   <path d="m14.355 67.912-0.0957-0.019-0.0811-0.0542-0.0542-0.0811-0.019-0.0957v-0.6l0.019-0.0957 0.0542-0.0811 0.0811-0.0542 0.0957-0.019h0.6l0.0957 0.019 0.0811 0.0542 0.0542 0.0811 0.019 0.0957v0.6l-0.019 0.0957-0.0542 0.0811-0.0811 0.0542-0.0957 0.019z"/>
   <path d="m14.355 65.112-0.0957-0.019-0.0811-0.0542-0.0542-0.0811-0.019-0.0957v-0.6l0.019-0.0957 0.0542-0.0811 0.0811-0.0542 0.0957-0.019h0.6l0.0957 0.019 0.0811 0.0542 0.0542 0.0811 0.019 0.0957v0.6l-0.019 0.0957-0.0542 0.0811-0.0811 0.0542-0.0957 0.019z"/>
  </g>
 </g>
 <g fill="none" stroke="#50FA7B" stroke-linecap="round" stroke-linejoin="round" stroke-width=".2">
  <path d="m12.115 18.782v5.14"/>
  <path d="m12.115 23.922 2.54 2.54"/>
  <path d="m31.165 18.782v5.14"/>
  <path d="m31.165 23.922 2.54 2.54"/>
  <path d="m50.215 23.922 2.54 2.54"/>
  <path d="m50.215 18.782v5.14"/>
  <path d="m69.265 18.782v5.14"/>
  <path d="m69.265 23.922 2.54 2.54"/>
  <path d="m12.115 37.832v5.14"/>
  <path d="m12.115 42.972 2.54 2.54"/>
  <path d="m31.165 42.972 2.54 2.54"/>
  <path d="m31.165 37.832v5.14"/>
  <path d="m50.215 37.832v5.14"/>
  <path d="m50.215 42.972 2.54 2.54"/>
  <path d="m69.265 37.832v5.14"/>
  <path d="m69.265 42.972 2.54 2.54"/>
  <path d="m12.115 62.022 2.54 2.54"/>
  <path d="m12.115 56.882v5.14"/>
  <path d="m31.165 56.882v5.14"/>
  <path d="m31.165 62.022 2.54 2.54"/>
  <path d="m50.215 56.882v5.14"/>
  <path d="m50.215 62.022 2.54 2.54"/>
  <path d="m69.265 56.882v5.14"/>
  <path d="m69.265 62.022 2.54 2.54"/>
  <path d="m12.115 75.932v5.14"/>
  <path d="m12.115 81.072 2.54 2.54"/>
  <path d="m31.165 81.072 2.54 2.54"/>
  <path d="m31.165 75.932v5.14"/>
  <path d="m50.215 81.072 2.54 2.54"/>
  <path d="m50.215 75.932v5.14"/>
  <path d="m69.265 81.072 2.54 2.54"/>
  <path d="m69.265 75.932v5.14"/>
  <path d="m54.978 4.495v5.14"/>
  <path d="m54.978 9.635 2.54 2.54"/>
  <path d="m52.755 29.262h19.05"/>
  <path d="m33.705 29.262h19.05"/>
  <path d="m14.655 29.262h19.05"/>
  <path d="m33.705 48.312h19.05"/>
  <path d="m14.655 48.312h19.05"/>
  <path d="m52.755 48.312h19.05"/>
  <path d="m14.655 67.362h19.05"/>
  <path d="m52.755 67.362h19.05"/>
  <path d="m33.705 67.362h19.05"/>
  <path d="m14.655 86.412h19.05"/>
  <path d="m52.755 86.412h19.05"/>
  <path d="m33.705 86.412h19.05"/>
 </g>
 <g fill="#fff">
  <circle cx="42.595" cy="42.912" r=".875"/>
  <circle cx="47.675" cy="42.912" r="2"/>
  <circle cx="52.755" cy="42.912" r=".875"/>
  <circle cx="43.865" cy="40.372" r=".75"/>
  <circle cx="50.215" cy="37.832" r=".75"/>
  <circle cx="61.645" cy="61.962" r=".875"/>
  <circle cx="66.725" cy="61.962" r="2"/>
  <circle cx="71.805" cy="61.962" r=".875"/>
  <circle cx="62.915" cy="59.422" r=".75"/>
  <circle cx="69.265" cy="56.882" r=".75"/>
  <circle cx="42.595" cy="23.862" r=".875"/>
  <circle cx="47.675" cy="23.862" r="2"/>
  <circle cx="52.755" cy="23.862" r=".875"/>
  <circle cx="43.865" cy="21.322" r=".75"/>
  <circle cx="50.215" cy="18.782" r=".75"/>
  <circle cx="23.545" cy="23.862" r=".875"/>
  <circle cx="28.625" cy="23.862" r="2"/>
  <circle cx="33.705" cy="23.862" r=".875"/>
  <circle cx="24.815" cy="21.322" r=".75"/>
  <circle cx="31.165" cy="18.782" r=".75"/>
  <circle cx="61.645" cy="81.012" r=".875"/>
  <circle cx="66.725" cy="81.012" r="2"/>
  <circle cx="71.805" cy="81.012" r=".875"/>
  <circle cx="62.915" cy="78.472" r=".75"/>
  <circle cx="69.265" cy="75.932" r=".75"/>
  <circle cx="47.358" cy="9.575" r=".875"/>
  <circle cx="52.438" cy="9.575" r="2"/>
  <circle cx="57.518" cy="9.575" r=".875"/>
  <circle cx="48.628" cy="7.035" r=".75"/>
  <circle cx="54.978" cy="4.495" r=".75"/>
  <circle cx="23.545" cy="61.962" r=".875"/>
  <circle cx="28.625" cy="61.962" r="2"/>
  <circle cx="33.705" cy="61.962" r=".875"/>
  <circle cx="24.815" cy="59.422" r=".75"/>
  <circle cx="31.165" cy="56.882" r=".75"/>
  <circle cx="42.595" cy="81.012" r=".875"/>
  <circle cx="47.675" cy="81.012" r="2"/>
  <circle cx="52.755" cy="81.012" r=".875"/>
  <circle cx="43.865" cy="78.472" r=".75"/>
  <circle cx="50.215" cy="75.932" r=".75"/>
  <circle cx="4.495" cy="61.962" r=".875"/>
  <circle cx="9.575" cy="61.962" r="2"/>
  <circle cx="14.655" cy="61.962" r=".875"/>
  <circle cx="5.765" cy="59.422" r=".75"/>
  <circle cx="12.115" cy="56.882" r=".75"/>
  <circle cx="23.545" cy="81.012" r=".875"/>
  <circle cx="28.625" cy="81.012" r="2"/>
  <circle cx="33.705" cy="81.012" r=".875"/>
  <circle cx="24.815" cy="78.472" r=".75"/>
  <circle cx="31.165" cy="75.932" r=".75"/>
  <circle cx="42.595" cy="61.962" r=".875"/>
  <circle cx="47.675" cy="61.962" r="2"/>
  <circle cx="52.755" cy="61.962" r=".875"/>
  <circle cx="43.865" cy="59.422" r=".75"/>
  <circle cx="50.215" cy="56.882" r=".75"/>
  <circle cx="4.495" cy="42.912" r=".875"/>
  <circle cx="9.575" cy="42.912" r="2"/>
  <circle cx="14.655" cy="42.912" r=".875"/>
  <circle cx="5.765" cy="40.372" r=".75"/>
  <circle cx="12.115" cy="37.832" r=".75"/>
  <circle cx="61.645" cy="23.862" r=".875"/>
  <circle cx="66.725" cy="23.862" r="2"/>
  <circle cx="71.805" cy="23.862" r=".875"/>
  <circle cx="62.915" cy="21.322" r=".75"/>
  <circle cx="69.265" cy="18.782" r=".75"/>
  <circle cx="4.495" cy="81.012" r=".875"/>
  <circle cx="9.575" cy="81.012" r="2"/>
  <circle cx="14.655" cy="81.012" r=".875"/>
  <circle cx="5.765" cy="78.472" r=".75"/>
  <circle cx="12.115" cy="75.932" r=".75"/>
  <circle cx="61.645" cy="42.912" r=".875"/>
  <circle cx="66.725" cy="42.912" r="2"/>
  <circle cx="71.805" cy="42.912" r=".875"/>
  <circle cx="62.915" cy="40.372" r=".75"/>
  <circle cx="69.265" cy="37.832" r=".75"/>
  <circle cx="4.495" cy="23.862" r=".875"/>
  <circle cx="9.575" cy="23.862" r="2"/>
  <circle cx="14.655" cy="23.862" r=".875"/>
  <circle cx="5.765" cy="21.322" r=".75"/>
  <circle cx="12.115" cy="18.782" r=".75"/>
  <circle cx="23.545" cy="42.912" r=".875"/>
  <circle cx="28.625" cy="42.912" r="2"/>
  <circle cx="33.705" cy="42.912" r=".875"/>
  <circle cx="24.815" cy="40.372" r=".75"/>
  <circle cx="31.165" cy="37.832" r=".75"/>
 </g>
</svg>
