<?xml version="1.0" encoding="UTF-8"?>
<!DOCTYPE svg  PUBLIC '-//W3C//DTD SVG 1.1//EN'  'http://www.w3.org/Graphics/SVG/1.1/DTD/svg11.dtd'>
<svg width="123.9mm" height="62.001mm" version="1.1" viewBox="0 0 123.9 62.001" xmlns="http://www.w3.org/2000/svg">
 <title>SVG Image created as octopad-render.svg date 2025/09/05 18:19:44</title>
 <desc>Image generated by PCBNEW</desc>
 <rect width="123.9mm" height="62.001mm" fill="#282A36"/>
 <g fill="none" stroke="#8BE9FD" stroke-linecap="round" stroke-linejoin="round" stroke-width=".15">
  <text x="114.3500" y="2.0750" font-size="1.3333" opacity="0" stroke-opacity="0" text-anchor="middle" lengthAdjust="spacingAndGlyphs" textLength="4.2500">SW14</text>
  <g class="stroked-text">
   <desc>SW14</desc>
   <path d="m112.54 1.9822 0.1428 0.0476"/>
   <path d="m112.68 2.0298h0.2381"/>
   <path d="m112.92 2.0298 0.0953-0.0476"/>
   <path d="m113.02 1.9822 0.0476-0.0476"/>
   <path d="m113.06 1.9346 0.0476-0.0953"/>
   <path d="m113.11 1.8393v-0.0952"/>
   <path d="m113.11 1.7441-0.0476-0.0952"/>
   <path d="m113.06 1.6489-0.0476-0.0477"/>
   <path d="m113.02 1.6012-0.0953-0.0476"/>
   <path d="m112.92 1.5536-0.1904-0.0476"/>
   <path d="m112.73 1.506-0.0953-0.0476"/>
   <path d="m112.64 1.4584-0.0476-0.0476"/>
   <path d="m112.59 1.4108-0.0476-0.0953"/>
   <path d="m112.54 1.3155v-0.0952"/>
   <path d="m112.54 1.2203 0.0476-0.0952"/>
   <path d="m112.59 1.1251 0.0476-0.0477"/>
   <path d="m112.64 1.0774 0.0953-0.0476"/>
   <path d="m112.73 1.0298h0.238"/>
   <path d="m112.97 1.0298 0.1429 0.0476"/>
   <path d="m113.45 1.0298 0.2381 1"/>
   <path d="m113.68 2.0298 0.1905-0.7143"/>
   <path d="m113.87 1.3155 0.1905 0.7143"/>
   <path d="m114.06 2.0298 0.2381-1"/>
   <path d="m115.21 2.0298h-0.5714"/>
   <path d="m114.92 2.0298v-1"/>
   <path d="m114.92 1.0298-0.0952 0.1429"/>
   <path d="m114.83 1.1727-0.0952 0.0952"/>
   <path d="m114.73 1.2679-0.0953 0.0476"/>
   <path d="m116.06 1.3632v0.6666"/>
   <path d="m115.83 0.9822-0.2381 0.7143"/>
   <path d="m115.59 1.6965h0.619"/>
  </g>
  <text x="71.4875" y="44.9375" font-size="1.3333" opacity="0" stroke-opacity="0" text-anchor="middle" lengthAdjust="spacingAndGlyphs" textLength="3.2976">SW8</text>
  <g class="stroked-text">
   <desc>SW8</desc>
   <path d="m70.154 44.845 0.1428 0.0476"/>
   <path d="m70.297 44.892h0.2381"/>
   <path d="m70.535 44.892 0.0953-0.0476"/>
   <path d="m70.63 44.845 0.0476-0.0476"/>
   <path d="m70.678 44.797 0.0476-0.0953"/>
   <path d="m70.726 44.702v-0.0952"/>
   <path d="m70.726 44.607-0.0476-0.0952"/>
   <path d="m70.678 44.511-0.0476-0.0477"/>
   <path d="m70.63 44.464-0.0953-0.0476"/>
   <path d="m70.535 44.416-0.1905-0.0476"/>
   <path d="m70.345 44.368-0.0952-0.0476"/>
   <path d="m70.249 44.321-0.0476-0.0476"/>
   <path d="m70.202 44.273-0.0476-0.0953"/>
   <path d="m70.154 44.178v-0.0952"/>
   <path d="m70.154 44.083 0.0476-0.0952"/>
   <path d="m70.202 43.988 0.0476-0.0477"/>
   <path d="m70.249 43.94 0.0952-0.0476"/>
   <path d="m70.345 43.892h0.2381"/>
   <path d="m70.583 43.892 0.1429 0.0476"/>
   <path d="m71.059 43.892 0.2381 1"/>
   <path d="m71.297 44.892 0.1905-0.7143"/>
   <path d="m71.488 44.178 0.1905 0.7143"/>
   <path d="m71.678 44.892 0.2381-1"/>
   <path d="m72.44 44.321-0.0953-0.0476"/>
   <path d="m72.345 44.273-0.0476-0.0476"/>
   <path d="m72.297 44.226-0.0476-0.0953"/>
   <path d="m72.249 44.13v-0.0476"/>
   <path d="m72.249 44.083 0.0476-0.0952"/>
   <path d="m72.297 43.988 0.0476-0.0477"/>
   <path d="m72.345 43.94 0.0953-0.0476"/>
   <path d="m72.44 43.892h0.1905"/>
   <path d="m72.63 43.892 0.0952 0.0476"/>
   <path d="m72.726 43.94 0.0476 0.0477"/>
   <path d="m72.773 43.988 0.0476 0.0952"/>
   <path d="m72.821 44.083v0.0476"/>
   <path d="m72.821 44.13-0.0476 0.0953"/>
   <path d="m72.773 44.226-0.0476 0.0476"/>
   <path d="m72.726 44.273-0.0952 0.0476"/>
   <path d="m72.63 44.321h-0.1905"/>
   <path d="m72.44 44.321-0.0953 0.0476"/>
   <path d="m72.345 44.368-0.0476 0.0476"/>
   <path d="m72.297 44.416-0.0476 0.0953"/>
   <path d="m72.249 44.511v0.1904"/>
   <path d="m72.249 44.702 0.0476 0.0953"/>
   <path d="m72.297 44.797 0.0476 0.0476"/>
   <path d="m72.345 44.845 0.0953 0.0476"/>
   <path d="m72.44 44.892h0.1905"/>
   <path d="m72.63 44.892 0.0952-0.0476"/>
   <path d="m72.726 44.845 0.0476-0.0476"/>
   <path d="m72.773 44.797 0.0476-0.0953"/>
   <path d="m72.821 44.702v-0.1904"/>
   <path d="m72.821 44.511-0.0476-0.0953"/>
   <path d="m72.773 44.416-0.0476-0.0476"/>
   <path d="m72.726 44.368-0.0952-0.0476"/>
  </g>
  <text x="90.5375" y="44.9375" font-size="1.3333" opacity="0" stroke-opacity="0" text-anchor="middle" lengthAdjust="spacingAndGlyphs" textLength="3.2976">SW9</text>
  <g class="stroked-text">
   <desc>SW9</desc>
   <path d="m89.204 44.845 0.1428 0.0476"/>
   <path d="m89.347 44.892h0.2381"/>
   <path d="m89.585 44.892 0.0953-0.0476"/>
   <path d="m89.68 44.845 0.0476-0.0476"/>
   <path d="m89.728 44.797 0.0476-0.0953"/>
   <path d="m89.776 44.702v-0.0952"/>
   <path d="m89.776 44.607-0.0476-0.0952"/>
   <path d="m89.728 44.511-0.0476-0.0477"/>
   <path d="m89.68 44.464-0.0953-0.0476"/>
   <path d="m89.585 44.416-0.1905-0.0476"/>
   <path d="m89.395 44.368-0.0952-0.0476"/>
   <path d="m89.299 44.321-0.0476-0.0476"/>
   <path d="m89.252 44.273-0.0476-0.0953"/>
   <path d="m89.204 44.178v-0.0952"/>
   <path d="m89.204 44.083 0.0476-0.0952"/>
   <path d="m89.252 43.988 0.0476-0.0477"/>
   <path d="m89.299 43.94 0.0952-0.0476"/>
   <path d="m89.395 43.892h0.2381"/>
   <path d="m89.633 43.892 0.1429 0.0476"/>
   <path d="m90.109 43.892 0.2381 1"/>
   <path d="m90.347 44.892 0.1905-0.7143"/>
   <path d="m90.538 44.178 0.1905 0.7143"/>
   <path d="m90.728 44.892 0.2381-1"/>
   <path d="m91.395 44.892h0.1905"/>
   <path d="m91.585 44.892 0.0953-0.0476"/>
   <path d="m91.68 44.845 0.0476-0.0476"/>
   <path d="m91.728 44.797 0.0952-0.1429"/>
   <path d="m91.823 44.654 0.0476-0.1905"/>
   <path d="m91.871 44.464v-0.3809"/>
   <path d="m91.871 44.083-0.0476-0.0952"/>
   <path d="m91.823 43.988-0.0476-0.0477"/>
   <path d="m91.776 43.94-0.0952-0.0476"/>
   <path d="m91.68 43.892h-0.1905"/>
   <path d="m91.49 43.892-0.0953 0.0476"/>
   <path d="m91.395 43.94-0.0476 0.0477"/>
   <path d="m91.347 43.988-0.0476 0.0952"/>
   <path d="m91.299 44.083v0.2381"/>
   <path d="m91.299 44.321 0.0476 0.0952"/>
   <path d="m91.347 44.416 0.0476 0.0476"/>
   <path d="m91.395 44.464 0.0953 0.0477"/>
   <path d="m91.49 44.511h0.1905"/>
   <path d="m91.68 44.511 0.0952-0.0477"/>
   <path d="m91.776 44.464 0.0476-0.0476"/>
   <path d="m91.823 44.416 0.0476-0.0952"/>
  </g>
  <text x="33.3875" y="25.8875" font-size="1.3333" opacity="0" stroke-opacity="0" text-anchor="middle" lengthAdjust="spacingAndGlyphs" textLength="3.2976">SW1</text>
  <g class="stroked-text">
   <desc>SW1</desc>
   <path d="m32.054 25.795 0.1428 0.0476"/>
   <path d="m32.197 25.842h0.2381"/>
   <path d="m32.435 25.842 0.0953-0.0476"/>
   <path d="m32.53 25.795 0.0476-0.0476"/>
   <path d="m32.578 25.747 0.0476-0.0953"/>
   <path d="m32.626 25.652v-0.0952"/>
   <path d="m32.626 25.557-0.0476-0.0952"/>
   <path d="m32.578 25.461-0.0476-0.0477"/>
   <path d="m32.53 25.414-0.0953-0.0476"/>
   <path d="m32.435 25.366-0.1905-0.0476"/>
   <path d="m32.245 25.318-0.0952-0.0476"/>
   <path d="m32.149 25.271-0.0476-0.0476"/>
   <path d="m32.102 25.223-0.0476-0.0953"/>
   <path d="m32.054 25.128v-0.0952"/>
   <path d="m32.054 25.033 0.0476-0.0952"/>
   <path d="m32.102 24.938 0.0476-0.0477"/>
   <path d="m32.149 24.89 0.0952-0.0476"/>
   <path d="m32.245 24.842h0.2381"/>
   <path d="m32.483 24.842 0.1429 0.0476"/>
   <path d="m32.959 24.842 0.2381 1"/>
   <path d="m33.197 25.842 0.1905-0.7143"/>
   <path d="m33.388 25.128 0.1905 0.7143"/>
   <path d="m33.578 25.842 0.2381-1"/>
   <path d="m34.721 25.842h-0.5714"/>
   <path d="m34.435 25.842v-1"/>
   <path d="m34.435 24.842-0.0952 0.1429"/>
   <path d="m34.34 24.985-0.0953 0.0952"/>
   <path d="m34.245 25.08-0.0952 0.0476"/>
  </g>
  <text x="47.6750" y="2.0750" font-size="1.3333" opacity="0" stroke-opacity="0" text-anchor="middle" lengthAdjust="spacingAndGlyphs" textLength="4.2500">SW12</text>
  <g class="stroked-text">
   <desc>SW12</desc>
   <path d="m45.866 1.9822 0.1428 0.0476"/>
   <path d="m46.008 2.0298h0.2381"/>
   <path d="m46.246 2.0298 0.0953-0.0476"/>
   <path d="m46.342 1.9822 0.0476-0.0476"/>
   <path d="m46.389 1.9346 0.0476-0.0953"/>
   <path d="m46.437 1.8393v-0.0952"/>
   <path d="m46.437 1.7441-0.0476-0.0952"/>
   <path d="m46.389 1.6489-0.0476-0.0477"/>
   <path d="m46.342 1.6012-0.0953-0.0476"/>
   <path d="m46.246 1.5536-0.1904-0.0476"/>
   <path d="m46.056 1.506-0.0953-0.0476"/>
   <path d="m45.961 1.4584-0.0476-0.0476"/>
   <path d="m45.913 1.4108-0.0476-0.0953"/>
   <path d="m45.866 1.3155v-0.0952"/>
   <path d="m45.866 1.2203 0.0476-0.0952"/>
   <path d="m45.913 1.1251 0.0476-0.0477"/>
   <path d="m45.961 1.0774 0.0953-0.0476"/>
   <path d="m46.056 1.0298h0.238"/>
   <path d="m46.294 1.0298 0.1429 0.0476"/>
   <path d="m46.77 1.0298 0.2381 1"/>
   <path d="m47.008 2.0298 0.1905-0.7143"/>
   <path d="m47.199 1.3155 0.1905 0.7143"/>
   <path d="m47.389 2.0298 0.2381-1"/>
   <path d="m48.532 2.0298h-0.5714"/>
   <path d="m48.246 2.0298v-1"/>
   <path d="m48.246 1.0298-0.0952 0.1429"/>
   <path d="m48.151 1.1727-0.0952 0.0952"/>
   <path d="m48.056 1.2679-0.0953 0.0476"/>
   <path d="m48.913 1.1251 0.0476-0.0477"/>
   <path d="m48.961 1.0774 0.0953-0.0476"/>
   <path d="m49.056 1.0298h0.238"/>
   <path d="m49.294 1.0298 0.0953 0.0476"/>
   <path d="m49.389 1.0774 0.0476 0.0477"/>
   <path d="m49.437 1.1251 0.0476 0.0952"/>
   <path d="m49.484 1.2203v0.0952"/>
   <path d="m49.484 1.3155-0.0476 0.1429"/>
   <path d="m49.437 1.4584-0.5714 0.5714"/>
   <path d="m48.866 2.0298h0.619"/>
  </g>
  <text x="52.4375" y="25.8875" font-size="1.3333" opacity="0" stroke-opacity="0" text-anchor="middle" lengthAdjust="spacingAndGlyphs" textLength="3.2976">SW2</text>
  <g class="stroked-text">
   <desc>SW2</desc>
   <path d="m51.104 25.795 0.1428 0.0476"/>
   <path d="m51.247 25.842h0.2381"/>
   <path d="m51.485 25.842 0.0953-0.0476"/>
   <path d="m51.58 25.795 0.0476-0.0476"/>
   <path d="m51.628 25.747 0.0476-0.0953"/>
   <path d="m51.676 25.652v-0.0952"/>
   <path d="m51.676 25.557-0.0476-0.0952"/>
   <path d="m51.628 25.461-0.0476-0.0477"/>
   <path d="m51.58 25.414-0.0953-0.0476"/>
   <path d="m51.485 25.366-0.1905-0.0476"/>
   <path d="m51.295 25.318-0.0952-0.0476"/>
   <path d="m51.199 25.271-0.0476-0.0476"/>
   <path d="m51.152 25.223-0.0476-0.0953"/>
   <path d="m51.104 25.128v-0.0952"/>
   <path d="m51.104 25.033 0.0476-0.0952"/>
   <path d="m51.152 24.938 0.0476-0.0477"/>
   <path d="m51.199 24.89 0.0952-0.0476"/>
   <path d="m51.295 24.842h0.2381"/>
   <path d="m51.533 24.842 0.1429 0.0476"/>
   <path d="m52.009 24.842 0.2381 1"/>
   <path d="m52.247 25.842 0.1905-0.7143"/>
   <path d="m52.438 25.128 0.1905 0.7143"/>
   <path d="m52.628 25.842 0.2381-1"/>
   <path d="m53.199 24.938 0.0476-0.0477"/>
   <path d="m53.247 24.89 0.0953-0.0476"/>
   <path d="m53.342 24.842h0.2381"/>
   <path d="m53.58 24.842 0.0952 0.0476"/>
   <path d="m53.676 24.89 0.0476 0.0477"/>
   <path d="m53.723 24.938 0.0476 0.0952"/>
   <path d="m53.771 25.033v0.0952"/>
   <path d="m53.771 25.128-0.0476 0.1429"/>
   <path d="m53.723 25.271-0.5714 0.5714"/>
   <path d="m53.152 25.842h0.619"/>
  </g>
  <text x="33.3875" y="44.9375" font-size="1.3333" opacity="0" stroke-opacity="0" text-anchor="middle" lengthAdjust="spacingAndGlyphs" textLength="3.2976">SW6</text>
  <g class="stroked-text">
   <desc>SW6</desc>
   <path d="m32.054 44.845 0.1428 0.0476"/>
   <path d="m32.197 44.892h0.2381"/>
   <path d="m32.435 44.892 0.0953-0.0476"/>
   <path d="m32.53 44.845 0.0476-0.0476"/>
   <path d="m32.578 44.797 0.0476-0.0953"/>
   <path d="m32.626 44.702v-0.0952"/>
   <path d="m32.626 44.607-0.0476-0.0952"/>
   <path d="m32.578 44.511-0.0476-0.0477"/>
   <path d="m32.53 44.464-0.0953-0.0476"/>
   <path d="m32.435 44.416-0.1905-0.0476"/>
   <path d="m32.245 44.368-0.0952-0.0476"/>
   <path d="m32.149 44.321-0.0476-0.0476"/>
   <path d="m32.102 44.273-0.0476-0.0953"/>
   <path d="m32.054 44.178v-0.0952"/>
   <path d="m32.054 44.083 0.0476-0.0952"/>
   <path d="m32.102 43.988 0.0476-0.0477"/>
   <path d="m32.149 43.94 0.0952-0.0476"/>
   <path d="m32.245 43.892h0.2381"/>
   <path d="m32.483 43.892 0.1429 0.0476"/>
   <path d="m32.959 43.892 0.2381 1"/>
   <path d="m33.197 44.892 0.1905-0.7143"/>
   <path d="m33.388 44.178 0.1905 0.7143"/>
   <path d="m33.578 44.892 0.2381-1"/>
   <path d="m34.626 43.892h-0.1905"/>
   <path d="m34.435 43.892-0.0952 0.0476"/>
   <path d="m34.34 43.94-0.0476 0.0477"/>
   <path d="m34.292 43.988-0.0953 0.1428"/>
   <path d="m34.197 44.13-0.0476 0.1905"/>
   <path d="m34.149 44.321v0.3809"/>
   <path d="m34.149 44.702 0.0476 0.0953"/>
   <path d="m34.197 44.797 0.0476 0.0476"/>
   <path d="m34.245 44.845 0.0953 0.0476"/>
   <path d="m34.34 44.892h0.1905"/>
   <path d="m34.53 44.892 0.0952-0.0476"/>
   <path d="m34.626 44.845 0.0476-0.0476"/>
   <path d="m34.673 44.797 0.0476-0.0953"/>
   <path d="m34.721 44.702v-0.2381"/>
   <path d="m34.721 44.464-0.0476-0.0952"/>
   <path d="m34.673 44.368-0.0476-0.0476"/>
   <path d="m34.626 44.321-0.0952-0.0476"/>
   <path d="m34.53 44.273h-0.1905"/>
   <path d="m34.34 44.273-0.0953 0.0476"/>
   <path d="m34.245 44.321-0.0476 0.0476"/>
   <path d="m34.197 44.368-0.0476 0.0952"/>
  </g>
  <text x="76.2500" y="2.0750" font-size="1.3333" opacity="0" stroke-opacity="0" text-anchor="middle" lengthAdjust="spacingAndGlyphs" textLength="4.2500">SW13</text>
  <g class="stroked-text">
   <desc>SW13</desc>
   <path d="m74.44 1.9822 0.1428 0.0476"/>
   <path d="m74.583 2.0298h0.2381"/>
   <path d="m74.821 2.0298 0.0953-0.0476"/>
   <path d="m74.917 1.9822 0.0476-0.0476"/>
   <path d="m74.964 1.9346 0.0476-0.0953"/>
   <path d="m75.012 1.8393v-0.0952"/>
   <path d="m75.012 1.7441-0.0476-0.0952"/>
   <path d="m74.964 1.6489-0.0476-0.0477"/>
   <path d="m74.917 1.6012-0.0953-0.0476"/>
   <path d="m74.821 1.5536-0.1904-0.0476"/>
   <path d="m74.631 1.506-0.0953-0.0476"/>
   <path d="m74.536 1.4584-0.0476-0.0476"/>
   <path d="m74.488 1.4108-0.0476-0.0953"/>
   <path d="m74.44 1.3155v-0.0952"/>
   <path d="m74.44 1.2203 0.0476-0.0952"/>
   <path d="m74.488 1.1251 0.0476-0.0477"/>
   <path d="m74.536 1.0774 0.0953-0.0476"/>
   <path d="m74.631 1.0298h0.238"/>
   <path d="m74.869 1.0298 0.1429 0.0476"/>
   <path d="m75.345 1.0298 0.2381 1"/>
   <path d="m75.583 2.0298 0.1905-0.7143"/>
   <path d="m75.774 1.3155 0.1905 0.7143"/>
   <path d="m75.964 2.0298 0.2381-1"/>
   <path d="m77.107 2.0298h-0.5714"/>
   <path d="m76.821 2.0298v-1"/>
   <path d="m76.821 1.0298-0.0952 0.1429"/>
   <path d="m76.726 1.1727-0.0952 0.0952"/>
   <path d="m76.631 1.2679-0.0953 0.0476"/>
   <path d="m77.44 1.0298h0.619"/>
   <path d="m78.06 1.0298-0.3333 0.381"/>
   <path d="m77.726 1.4108h0.1428"/>
   <path d="m77.869 1.4108 0.0953 0.0476"/>
   <path d="m77.964 1.4584 0.0476 0.0476"/>
   <path d="m78.012 1.506 0.0476 0.0952"/>
   <path d="m78.06 1.6012v0.2381"/>
   <path d="m78.06 1.8393-0.0476 0.0953"/>
   <path d="m78.012 1.9346-0.0476 0.0476"/>
   <path d="m77.964 1.9822-0.0953 0.0476"/>
   <path d="m77.869 2.0298h-0.2857"/>
   <path d="m77.583 2.0298-0.0952-0.0476"/>
   <path d="m77.488 1.9822-0.0476-0.0476"/>
  </g>
  <text x="52.4375" y="44.9375" font-size="1.3333" opacity="0" stroke-opacity="0" text-anchor="middle" lengthAdjust="spacingAndGlyphs" textLength="3.2976">SW7</text>
  <g class="stroked-text">
   <desc>SW7</desc>
   <path d="m51.104 44.845 0.1428 0.0476"/>
   <path d="m51.247 44.892h0.2381"/>
   <path d="m51.485 44.892 0.0953-0.0476"/>
   <path d="m51.58 44.845 0.0476-0.0476"/>
   <path d="m51.628 44.797 0.0476-0.0953"/>
   <path d="m51.676 44.702v-0.0952"/>
   <path d="m51.676 44.607-0.0476-0.0952"/>
   <path d="m51.628 44.511-0.0476-0.0477"/>
   <path d="m51.58 44.464-0.0953-0.0476"/>
   <path d="m51.485 44.416-0.1905-0.0476"/>
   <path d="m51.295 44.368-0.0952-0.0476"/>
   <path d="m51.199 44.321-0.0476-0.0476"/>
   <path d="m51.152 44.273-0.0476-0.0953"/>
   <path d="m51.104 44.178v-0.0952"/>
   <path d="m51.104 44.083 0.0476-0.0952"/>
   <path d="m51.152 43.988 0.0476-0.0477"/>
   <path d="m51.199 43.94 0.0952-0.0476"/>
   <path d="m51.295 43.892h0.2381"/>
   <path d="m51.533 43.892 0.1429 0.0476"/>
   <path d="m52.009 43.892 0.2381 1"/>
   <path d="m52.247 44.892 0.1905-0.7143"/>
   <path d="m52.438 44.178 0.1905 0.7143"/>
   <path d="m52.628 44.892 0.2381-1"/>
   <path d="m53.152 43.892h0.6667"/>
   <path d="m53.818 43.892-0.4286 1"/>
  </g>
  <text x="71.4875" y="25.8875" font-size="1.3333" opacity="0" stroke-opacity="0" text-anchor="middle" lengthAdjust="spacingAndGlyphs" textLength="3.2976">SW3</text>
  <g class="stroked-text">
   <desc>SW3</desc>
   <path d="m70.154 25.795 0.1428 0.0476"/>
   <path d="m70.297 25.842h0.2381"/>
   <path d="m70.535 25.842 0.0953-0.0476"/>
   <path d="m70.63 25.795 0.0476-0.0476"/>
   <path d="m70.678 25.747 0.0476-0.0953"/>
   <path d="m70.726 25.652v-0.0952"/>
   <path d="m70.726 25.557-0.0476-0.0952"/>
   <path d="m70.678 25.461-0.0476-0.0477"/>
   <path d="m70.63 25.414-0.0953-0.0476"/>
   <path d="m70.535 25.366-0.1905-0.0476"/>
   <path d="m70.345 25.318-0.0952-0.0476"/>
   <path d="m70.249 25.271-0.0476-0.0476"/>
   <path d="m70.202 25.223-0.0476-0.0953"/>
   <path d="m70.154 25.128v-0.0952"/>
   <path d="m70.154 25.033 0.0476-0.0952"/>
   <path d="m70.202 24.938 0.0476-0.0477"/>
   <path d="m70.249 24.89 0.0952-0.0476"/>
   <path d="m70.345 24.842h0.2381"/>
   <path d="m70.583 24.842 0.1429 0.0476"/>
   <path d="m71.059 24.842 0.2381 1"/>
   <path d="m71.297 25.842 0.1905-0.7143"/>
   <path d="m71.488 25.128 0.1905 0.7143"/>
   <path d="m71.678 25.842 0.2381-1"/>
   <path d="m72.202 24.842h0.619"/>
   <path d="m72.821 24.842-0.3333 0.381"/>
   <path d="m72.488 25.223h0.1429"/>
   <path d="m72.63 25.223 0.0952 0.0476"/>
   <path d="m72.726 25.271 0.0476 0.0476"/>
   <path d="m72.773 25.318 0.0476 0.0952"/>
   <path d="m72.821 25.414v0.2381"/>
   <path d="m72.821 25.652-0.0476 0.0953"/>
   <path d="m72.773 25.747-0.0476 0.0476"/>
   <path d="m72.726 25.795-0.0952 0.0476"/>
   <path d="m72.63 25.842h-0.2858"/>
   <path d="m72.345 25.842-0.0952-0.0476"/>
   <path d="m72.249 25.795-0.0476-0.0476"/>
  </g>
  <text x="9.5750" y="2.0750" font-size="1.3333" opacity="0" stroke-opacity="0" text-anchor="middle" lengthAdjust="spacingAndGlyphs" textLength="4.2500">SW11</text>
  <g class="stroked-text">
   <desc>SW11</desc>
   <path d="m7.7655 1.9822 0.1428 0.0476"/>
   <path d="m7.9083 2.0298h0.2381"/>
   <path d="m8.1464 2.0298 0.0953-0.0476"/>
   <path d="m8.2417 1.9822 0.0476-0.0476"/>
   <path d="m8.2893 1.9346 0.0476-0.0953"/>
   <path d="m8.3369 1.8393v-0.0952"/>
   <path d="m8.3369 1.7441-0.0476-0.0952"/>
   <path d="m8.2893 1.6489-0.0476-0.0477"/>
   <path d="m8.2417 1.6012-0.0953-0.0476"/>
   <path d="m8.1464 1.5536-0.1904-0.0476"/>
   <path d="m7.956 1.506-0.0953-0.0476"/>
   <path d="m7.8607 1.4584-0.0476-0.0476"/>
   <path d="m7.8131 1.4108-0.0476-0.0953"/>
   <path d="m7.7655 1.3155v-0.0952"/>
   <path d="m7.7655 1.2203 0.0476-0.0952"/>
   <path d="m7.8131 1.1251 0.0476-0.0477"/>
   <path d="m7.8607 1.0774 0.0953-0.0476"/>
   <path d="m7.956 1.0298h0.238"/>
   <path d="m8.194 1.0298 0.1429 0.0476"/>
   <path d="m8.6702 1.0298 0.2381 1"/>
   <path d="m8.9083 2.0298 0.1905-0.7143"/>
   <path d="m9.0988 1.3155 0.1905 0.7143"/>
   <path d="m9.2893 2.0298 0.2381-1"/>
   <path d="m10.432 2.0298h-0.5714"/>
   <path d="m10.146 2.0298v-1"/>
   <path d="m10.146 1.0298-0.0952 0.1429"/>
   <path d="m10.051 1.1727-0.0952 0.0952"/>
   <path d="m9.956 1.2679-0.0953 0.0476"/>
   <path d="m11.384 2.0298h-0.5714"/>
   <path d="m11.099 2.0298v-1"/>
   <path d="m11.099 1.0298-0.0952 0.1429"/>
   <path d="m11.004 1.1727-0.0953 0.0952"/>
   <path d="m10.908 1.2679-0.0952 0.0476"/>
  </g>
  <text x="28.6250" y="2.0750" font-size="1.3333" opacity="0" stroke-opacity="0" text-anchor="middle" lengthAdjust="spacingAndGlyphs" textLength="3.2976">SW5</text>
  <g class="stroked-text">
   <desc>SW5</desc>
   <path d="m27.292 1.9822 0.1428 0.0476"/>
   <path d="m27.434 2.0298h0.2381"/>
   <path d="m27.673 2.0298 0.0953-0.0476"/>
   <path d="m27.768 1.9822 0.0476-0.0476"/>
   <path d="m27.816 1.9346 0.0476-0.0953"/>
   <path d="m27.863 1.8393v-0.0952"/>
   <path d="m27.863 1.7441-0.0476-0.0952"/>
   <path d="m27.816 1.6489-0.0476-0.0477"/>
   <path d="m27.768 1.6012-0.0953-0.0476"/>
   <path d="m27.673 1.5536-0.1905-0.0476"/>
   <path d="m27.482 1.506-0.0952-0.0476"/>
   <path d="m27.387 1.4584-0.0476-0.0476"/>
   <path d="m27.339 1.4108-0.0476-0.0953"/>
   <path d="m27.292 1.3155v-0.0952"/>
   <path d="m27.292 1.2203 0.0476-0.0952"/>
   <path d="m27.339 1.1251 0.0476-0.0477"/>
   <path d="m27.387 1.0774 0.0952-0.0476"/>
   <path d="m27.482 1.0298h0.2381"/>
   <path d="m27.72 1.0298 0.1429 0.0476"/>
   <path d="m28.196 1.0298 0.2381 1"/>
   <path d="m28.434 2.0298 0.1905-0.7143"/>
   <path d="m28.625 1.3155 0.1905 0.7143"/>
   <path d="m28.816 2.0298 0.2381-1"/>
   <path d="m29.911 1.0298h-0.4762"/>
   <path d="m29.434 1.0298-0.0476 0.4762"/>
   <path d="m29.387 1.506 0.0476-0.0476"/>
   <path d="m29.434 1.4584 0.0953-0.0476"/>
   <path d="m29.53 1.4108h0.2381"/>
   <path d="m29.768 1.4108 0.0952 0.0476"/>
   <path d="m29.863 1.4584 0.0476 0.0476"/>
   <path d="m29.911 1.506 0.0476 0.0952"/>
   <path d="m29.958 1.6012v0.2381"/>
   <path d="m29.958 1.8393-0.0476 0.0953"/>
   <path d="m29.911 1.9346-0.0476 0.0476"/>
   <path d="m29.863 1.9822-0.0952 0.0476"/>
   <path d="m29.768 2.0298h-0.2381"/>
   <path d="m29.53 2.0298-0.0953-0.0476"/>
   <path d="m29.434 1.9822-0.0476-0.0476"/>
  </g>
  <text x="95.3000" y="2.0750" font-size="1.3333" opacity="0" stroke-opacity="0" text-anchor="middle" lengthAdjust="spacingAndGlyphs" textLength="4.2500">SW10</text>
  <g class="stroked-text">
   <desc>SW10</desc>
   <path d="m93.49 1.9822 0.1428 0.0476"/>
   <path d="m93.633 2.0298h0.2381"/>
   <path d="m93.871 2.0298 0.0953-0.0476"/>
   <path d="m93.967 1.9822 0.0476-0.0476"/>
   <path d="m94.014 1.9346 0.0476-0.0953"/>
   <path d="m94.062 1.8393v-0.0952"/>
   <path d="m94.062 1.7441-0.0476-0.0952"/>
   <path d="m94.014 1.6489-0.0476-0.0477"/>
   <path d="m93.967 1.6012-0.0953-0.0476"/>
   <path d="m93.871 1.5536-0.1904-0.0476"/>
   <path d="m93.681 1.506-0.0953-0.0476"/>
   <path d="m93.586 1.4584-0.0476-0.0476"/>
   <path d="m93.538 1.4108-0.0476-0.0953"/>
   <path d="m93.49 1.3155v-0.0952"/>
   <path d="m93.49 1.2203 0.0476-0.0952"/>
   <path d="m93.538 1.1251 0.0476-0.0477"/>
   <path d="m93.586 1.0774 0.0953-0.0476"/>
   <path d="m93.681 1.0298h0.238"/>
   <path d="m93.919 1.0298 0.1429 0.0476"/>
   <path d="m94.395 1.0298 0.2381 1"/>
   <path d="m94.633 2.0298 0.1905-0.7143"/>
   <path d="m94.824 1.3155 0.1905 0.7143"/>
   <path d="m95.014 2.0298 0.2381-1"/>
   <path d="m96.157 2.0298h-0.5714"/>
   <path d="m95.871 2.0298v-1"/>
   <path d="m95.871 1.0298-0.0952 0.1429"/>
   <path d="m95.776 1.1727-0.0952 0.0952"/>
   <path d="m95.681 1.2679-0.0953 0.0476"/>
   <path d="m96.776 1.0298h0.0952"/>
   <path d="m96.871 1.0298 0.0953 0.0476"/>
   <path d="m96.967 1.0774 0.0476 0.0477"/>
   <path d="m97.014 1.1251 0.0476 0.0952"/>
   <path d="m97.062 1.2203 0.0476 0.1905"/>
   <path d="m97.11 1.4108v0.2381"/>
   <path d="m97.11 1.6489-0.0476 0.1904"/>
   <path d="m97.062 1.8393-0.0476 0.0953"/>
   <path d="m97.014 1.9346-0.0476 0.0476"/>
   <path d="m96.967 1.9822-0.0953 0.0476"/>
   <path d="m96.871 2.0298h-0.0952"/>
   <path d="m96.776 2.0298-0.0952-0.0476"/>
   <path d="m96.681 1.9822-0.0477-0.0476"/>
   <path d="m96.633 1.9346-0.0476-0.0953"/>
   <path d="m96.586 1.8393-0.0476-0.1904"/>
   <path d="m96.538 1.6489v-0.2381"/>
   <path d="m96.538 1.4108 0.0476-0.1905"/>
   <path d="m96.586 1.2203 0.0476-0.0952"/>
   <path d="m96.633 1.1251 0.0477-0.0477"/>
   <path d="m96.681 1.0774 0.0952-0.0476"/>
  </g>
  <text x="90.5375" y="25.8875" font-size="1.3333" opacity="0" stroke-opacity="0" text-anchor="middle" lengthAdjust="spacingAndGlyphs" textLength="3.2976">SW4</text>
  <g class="stroked-text">
   <desc>SW4</desc>
   <path d="m89.204 25.795 0.1428 0.0476"/>
   <path d="m89.347 25.842h0.2381"/>
   <path d="m89.585 25.842 0.0953-0.0476"/>
   <path d="m89.68 25.795 0.0476-0.0476"/>
   <path d="m89.728 25.747 0.0476-0.0953"/>
   <path d="m89.776 25.652v-0.0952"/>
   <path d="m89.776 25.557-0.0476-0.0952"/>
   <path d="m89.728 25.461-0.0476-0.0477"/>
   <path d="m89.68 25.414-0.0953-0.0476"/>
   <path d="m89.585 25.366-0.1905-0.0476"/>
   <path d="m89.395 25.318-0.0952-0.0476"/>
   <path d="m89.299 25.271-0.0476-0.0476"/>
   <path d="m89.252 25.223-0.0476-0.0953"/>
   <path d="m89.204 25.128v-0.0952"/>
   <path d="m89.204 25.033 0.0476-0.0952"/>
   <path d="m89.252 24.938 0.0476-0.0477"/>
   <path d="m89.299 24.89 0.0952-0.0476"/>
   <path d="m89.395 24.842h0.2381"/>
   <path d="m89.633 24.842 0.1429 0.0476"/>
   <path d="m90.109 24.842 0.2381 1"/>
   <path d="m90.347 25.842 0.1905-0.7143"/>
   <path d="m90.538 25.128 0.1905 0.7143"/>
   <path d="m90.728 25.842 0.2381-1"/>
   <path d="m91.776 25.176v0.6666"/>
   <path d="m91.538 24.795-0.2381 0.7143"/>
   <path d="m91.299 25.509h0.6191"/>
  </g>
 </g>
 <g fill="none" stroke="#8BE9FD" stroke-linecap="round" stroke-linejoin="round" stroke-width=".12">
  <path d="m107.25 2.475v14.2"/>
  <path d="m107.25 16.675h14.2"/>
  <path d="m121.45 2.475h-14.2"/>
  <path d="m121.45 16.675v-14.2"/>
  <path d="m64.388 45.338v14.2"/>
  <path d="m64.388 59.538h14.2"/>
  <path d="m78.588 45.338h-14.2"/>
  <path d="m78.588 59.538v-14.2"/>
  <path d="m83.438 45.338v14.2"/>
  <path d="m83.438 59.538h14.2"/>
  <path d="m97.638 45.338h-14.2"/>
  <path d="m97.638 59.538v-14.2"/>
  <path d="m26.288 26.288v14.2"/>
  <path d="m26.288 40.488h14.2"/>
  <path d="m40.488 26.288h-14.2"/>
  <path d="m40.488 40.488v-14.2"/>
  <path d="m40.575 2.475v14.2"/>
  <path d="m40.575 16.675h14.2"/>
  <path d="m54.775 2.475h-14.2"/>
  <path d="m54.775 16.675v-14.2"/>
  <path d="m45.338 26.288v14.2"/>
  <path d="m45.338 40.488h14.2"/>
  <path d="m59.538 26.288h-14.2"/>
  <path d="m59.538 40.488v-14.2"/>
  <path d="m26.288 45.338v14.2"/>
  <path d="m26.288 59.538h14.2"/>
  <path d="m40.488 45.338h-14.2"/>
  <path d="m40.488 59.538v-14.2"/>
  <path d="m69.15 2.475v14.2"/>
  <path d="m69.15 16.675h14.2"/>
  <path d="m83.35 2.475h-14.2"/>
  <path d="m83.35 16.675v-14.2"/>
  <path d="m45.338 45.338v14.2"/>
  <path d="m45.338 59.538h14.2"/>
  <path d="m59.538 45.338h-14.2"/>
  <path d="m59.538 59.538v-14.2"/>
  <path d="m64.388 26.288v14.2"/>
  <path d="m64.388 40.488h14.2"/>
  <path d="m78.588 26.288h-14.2"/>
  <path d="m78.588 40.488v-14.2"/>
  <path d="m2.475 2.475v14.2"/>
  <path d="m2.475 16.675h14.2"/>
  <path d="m16.675 2.475h-14.2"/>
  <path d="m16.675 16.675v-14.2"/>
  <path d="m21.525 2.475v14.2"/>
  <path d="m21.525 16.675h14.2"/>
  <path d="m35.725 2.475h-14.2"/>
  <path d="m35.725 16.675v-14.2"/>
  <path d="m88.2 2.475v14.2"/>
  <path d="m88.2 16.675h14.2"/>
  <path d="m102.4 2.475h-14.2"/>
  <path d="m102.4 16.675v-14.2"/>
  <path d="m83.438 26.288v14.2"/>
  <path d="m83.438 40.488h14.2"/>
  <path d="m97.638 26.288h-14.2"/>
  <path d="m97.638 40.488v-14.2"/>
 </g>
 <g fill="#8BE9FD">
  <circle cx="109.27" cy="9.575" r=".875"/>
  <circle cx="114.35" cy="9.575" r="2"/>
  <circle cx="119.43" cy="9.575" r=".875"/>
  <circle cx="110.54" cy="7.035" r=".75"/>
  <circle cx="116.89" cy="4.495" r=".75"/>
  <circle cx="66.408" cy="52.438" r=".875"/>
  <circle cx="71.488" cy="52.438" r="2"/>
  <circle cx="76.568" cy="52.438" r=".875"/>
  <circle cx="67.678" cy="49.898" r=".75"/>
  <circle cx="74.028" cy="47.358" r=".75"/>
  <circle cx="85.458" cy="52.438" r=".875"/>
  <circle cx="90.538" cy="52.438" r="2"/>
  <circle cx="95.618" cy="52.438" r=".875"/>
  <circle cx="86.728" cy="49.898" r=".75"/>
  <circle cx="93.078" cy="47.358" r=".75"/>
  <circle cx="28.308" cy="33.388" r=".875"/>
  <circle cx="33.388" cy="33.388" r="2"/>
  <circle cx="38.468" cy="33.388" r=".875"/>
  <circle cx="29.578" cy="30.848" r=".75"/>
  <circle cx="35.928" cy="28.308" r=".75"/>
  <circle cx="42.595" cy="9.575" r=".875"/>
  <circle cx="47.675" cy="9.575" r="2"/>
  <circle cx="52.755" cy="9.575" r=".875"/>
  <circle cx="43.865" cy="7.035" r=".75"/>
  <circle cx="50.215" cy="4.495" r=".75"/>
  <circle cx="47.358" cy="33.388" r=".875"/>
  <circle cx="52.438" cy="33.388" r="2"/>
  <circle cx="57.518" cy="33.388" r=".875"/>
  <circle cx="48.628" cy="30.848" r=".75"/>
  <circle cx="54.978" cy="28.308" r=".75"/>
  <circle cx="28.308" cy="52.438" r=".875"/>
  <circle cx="33.388" cy="52.438" r="2"/>
  <circle cx="38.468" cy="52.438" r=".875"/>
  <circle cx="29.578" cy="49.898" r=".75"/>
  <circle cx="35.928" cy="47.358" r=".75"/>
  <circle cx="71.17" cy="9.575" r=".875"/>
  <circle cx="76.25" cy="9.575" r="2"/>
  <circle cx="81.33" cy="9.575" r=".875"/>
  <circle cx="72.44" cy="7.035" r=".75"/>
  <circle cx="78.79" cy="4.495" r=".75"/>
  <circle cx="47.358" cy="52.438" r=".875"/>
  <circle cx="52.438" cy="52.438" r="2"/>
  <circle cx="57.518" cy="52.438" r=".875"/>
  <circle cx="48.628" cy="49.898" r=".75"/>
  <circle cx="54.978" cy="47.358" r=".75"/>
  <circle cx="66.408" cy="33.388" r=".875"/>
  <circle cx="71.488" cy="33.388" r="2"/>
  <circle cx="76.568" cy="33.388" r=".875"/>
  <circle cx="67.678" cy="30.848" r=".75"/>
  <circle cx="74.028" cy="28.308" r=".75"/>
  <circle cx="4.495" cy="9.575" r=".875"/>
  <circle cx="9.575" cy="9.575" r="2"/>
  <circle cx="14.655" cy="9.575" r=".875"/>
  <circle cx="5.765" cy="7.035" r=".75"/>
  <circle cx="12.115" cy="4.495" r=".75"/>
  <circle cx="23.545" cy="9.575" r=".875"/>
  <circle cx="28.625" cy="9.575" r="2"/>
  <circle cx="33.705" cy="9.575" r=".875"/>
  <circle cx="24.815" cy="7.035" r=".75"/>
  <circle cx="31.165" cy="4.495" r=".75"/>
  <circle cx="90.22" cy="9.575" r=".875"/>
  <circle cx="95.3" cy="9.575" r="2"/>
  <circle cx="100.38" cy="9.575" r=".875"/>
  <circle cx="91.49" cy="7.035" r=".75"/>
  <circle cx="97.84" cy="4.495" r=".75"/>
  <circle cx="85.458" cy="33.388" r=".875"/>
  <circle cx="90.538" cy="33.388" r="2"/>
  <circle cx="95.618" cy="33.388" r=".875"/>
  <circle cx="86.728" cy="30.848" r=".75"/>
  <circle cx="93.078" cy="28.308" r=".75"/>
 </g>
 <g fill="none" stroke="#BD93F9" stroke-linecap="round" stroke-linejoin="round" stroke-width=".15">
  <g transform="rotate(-90 16.56 13.702)">
   <text transform="scale(-1 1) translate(-33.12)" x="16.5600" y="14.2020" font-size="1.3333" opacity="0" stroke-opacity="0" text-anchor="middle" lengthAdjust="spacingAndGlyphs" textLength="3.1548">D11</text>
  </g>
  <g class="stroked-text">
   <desc>D11</desc>
   <path d="m17.015 12.488h-1"/>
   <path d="m16.015 12.488v0.2381"/>
   <path d="m16.015 12.726 0.0476 0.1429"/>
   <path d="m16.062 12.869 0.0953 0.0952"/>
   <path d="m16.158 12.964 0.0952 0.0476"/>
   <path d="m16.253 13.012 0.1905 0.0476"/>
   <path d="m16.443 13.059h0.1428"/>
   <path d="m16.586 13.059 0.1905-0.0476"/>
   <path d="m16.777 13.012 0.0953-0.0476"/>
   <path d="m16.872 12.964 0.0952-0.0952"/>
   <path d="m16.967 12.869 0.0476-0.1429"/>
   <path d="m17.015 12.726v-0.2381"/>
   <path d="m17.015 14.012v-0.5714"/>
   <path d="m17.015 13.726h-1"/>
   <path d="m16.015 13.726 0.1429-0.0952"/>
   <path d="m16.158 13.631 0.0952-0.0953"/>
   <path d="m16.253 13.535 0.0476-0.0952"/>
   <path d="m17.015 14.964v-0.5714"/>
   <path d="m17.015 14.678h-1"/>
   <path d="m16.015 14.678 0.1429-0.0952"/>
   <path d="m16.158 14.583 0.0952-0.0953"/>
   <path d="m16.253 14.488 0.0476-0.0952"/>
  </g>
  <g transform="rotate(-90 40.372 56.564)">
   <text transform="scale(-1 1) translate(-80.745)" x="40.3725" y="57.0645" font-size="1.3333" opacity="0" stroke-opacity="0" text-anchor="middle" lengthAdjust="spacingAndGlyphs" textLength="2.2024">D6</text>
  </g>
  <g class="stroked-text">
   <desc>D6</desc>
   <path d="m40.827 55.826h-1"/>
   <path d="m39.827 55.826v0.2381"/>
   <path d="m39.827 56.064 0.0476 0.1429"/>
   <path d="m39.875 56.207 0.0953 0.0952"/>
   <path d="m39.97 56.303 0.0952 0.0476"/>
   <path d="m40.065 56.35 0.1905 0.0476"/>
   <path d="m40.256 56.398h0.1428"/>
   <path d="m40.399 56.398 0.1905-0.0476"/>
   <path d="m40.589 56.35 0.0953-0.0476"/>
   <path d="m40.684 56.303 0.0952-0.0952"/>
   <path d="m40.78 56.207 0.0476-0.1429"/>
   <path d="m40.827 56.064v-0.2381"/>
   <path d="m39.827 57.255v-0.1905"/>
   <path d="m39.827 57.064 0.0476-0.0952"/>
   <path d="m39.875 56.969 0.0477-0.0477"/>
   <path d="m39.923 56.922 0.1428-0.0952"/>
   <path d="m40.065 56.826 0.1905-0.0476"/>
   <path d="m40.256 56.779h0.3809"/>
   <path d="m40.637 56.779 0.0953 0.0476"/>
   <path d="m40.732 56.826 0.0476 0.0476"/>
   <path d="m40.78 56.874 0.0476 0.0953"/>
   <path d="m40.827 56.969v0.1904"/>
   <path d="m40.827 57.16-0.0476 0.0953"/>
   <path d="m40.78 57.255-0.0476 0.0476"/>
   <path d="m40.732 57.303-0.0953 0.0476"/>
   <path d="m40.637 57.35h-0.2381"/>
   <path d="m40.399 57.35-0.0952-0.0476"/>
   <path d="m40.304 57.303-0.0476-0.0476"/>
   <path d="m40.256 57.255-0.0476-0.0953"/>
   <path d="m40.208 57.16v-0.1904"/>
   <path d="m40.208 56.969 0.0476-0.0953"/>
   <path d="m40.256 56.874 0.0476-0.0476"/>
   <path d="m40.304 56.826 0.0952-0.0476"/>
  </g>
  <g transform="rotate(-90 35.61 13.702)">
   <text transform="scale(-1 1) translate(-71.22)" x="35.6100" y="14.2020" font-size="1.3333" opacity="0" stroke-opacity="0" text-anchor="middle" lengthAdjust="spacingAndGlyphs" textLength="2.2024">D5</text>
  </g>
  <g class="stroked-text">
   <desc>D5</desc>
   <path d="m36.065 12.964h-1"/>
   <path d="m35.065 12.964v0.2381"/>
   <path d="m35.065 13.202 0.0476 0.1429"/>
   <path d="m35.112 13.345 0.0953 0.0952"/>
   <path d="m35.208 13.44 0.0952 0.0476"/>
   <path d="m35.303 13.488 0.1905 0.0476"/>
   <path d="m35.493 13.535h0.1428"/>
   <path d="m35.636 13.535 0.1905-0.0476"/>
   <path d="m35.827 13.488 0.0953-0.0476"/>
   <path d="m35.922 13.44 0.0952-0.0952"/>
   <path d="m36.017 13.345 0.0476-0.1429"/>
   <path d="m36.065 13.202v-0.2381"/>
   <path d="m35.065 14.44v-0.4762"/>
   <path d="m35.065 13.964 0.4762-0.0476"/>
   <path d="m35.541 13.916-0.0476 0.0476"/>
   <path d="m35.493 13.964-0.0476 0.0952"/>
   <path d="m35.446 14.059v0.2381"/>
   <path d="m35.446 14.297 0.0476 0.0953"/>
   <path d="m35.493 14.392 0.0476 0.0476"/>
   <path d="m35.541 14.44 0.0952 0.0476"/>
   <path d="m35.636 14.488h0.2381"/>
   <path d="m35.874 14.488 0.0953-0.0476"/>
   <path d="m35.97 14.44 0.0476-0.0476"/>
   <path d="m36.017 14.392 0.0476-0.0953"/>
   <path d="m36.065 14.297v-0.2381"/>
   <path d="m36.065 14.059-0.0476-0.0952"/>
   <path d="m36.017 13.964-0.0476-0.0476"/>
  </g>
  <g transform="rotate(-90 78.472 37.514)">
   <text transform="scale(-1 1) translate(-156.94)" x="78.4725" y="38.0145" font-size="1.3333" opacity="0" stroke-opacity="0" text-anchor="middle" lengthAdjust="spacingAndGlyphs" textLength="2.2024">D3</text>
  </g>
  <g class="stroked-text">
   <desc>D3</desc>
   <path d="m78.927 36.776h-1"/>
   <path d="m77.927 36.776v0.2381"/>
   <path d="m77.927 37.014 0.0476 0.1429"/>
   <path d="m77.975 37.157 0.0953 0.0952"/>
   <path d="m78.07 37.253 0.0952 0.0476"/>
   <path d="m78.165 37.3 0.1905 0.0476"/>
   <path d="m78.356 37.348h0.1428"/>
   <path d="m78.499 37.348 0.1905-0.0476"/>
   <path d="m78.689 37.3 0.0953-0.0476"/>
   <path d="m78.784 37.253 0.0952-0.0952"/>
   <path d="m78.88 37.157 0.0476-0.1429"/>
   <path d="m78.927 37.014v-0.2381"/>
   <path d="m77.927 37.681v0.619"/>
   <path d="m77.927 38.3 0.381-0.3333"/>
   <path d="m78.308 37.967v0.1428"/>
   <path d="m78.308 38.11 0.0476 0.0953"/>
   <path d="m78.356 38.205 0.0476 0.0476"/>
   <path d="m78.404 38.253 0.0952 0.0476"/>
   <path d="m78.499 38.3h0.2381"/>
   <path d="m78.737 38.3 0.0953-0.0476"/>
   <path d="m78.832 38.253 0.0476-0.0476"/>
   <path d="m78.88 38.205 0.0476-0.0953"/>
   <path d="m78.927 38.11v-0.2857"/>
   <path d="m78.927 37.824-0.0476-0.0952"/>
   <path d="m78.88 37.729-0.0476-0.0476"/>
  </g>
  <g transform="rotate(-90 121.34 13.702)">
   <text transform="scale(-1 1) translate(-242.67)" x="121.3350" y="14.2020" font-size="1.3333" opacity="0" stroke-opacity="0" text-anchor="middle" lengthAdjust="spacingAndGlyphs" textLength="3.1548">D14</text>
  </g>
  <g class="stroked-text">
   <desc>D14</desc>
   <path d="m121.79 12.488h-1"/>
   <path d="m120.79 12.488v0.2381"/>
   <path d="m120.79 12.726 0.0476 0.1429"/>
   <path d="m120.84 12.869 0.0953 0.0952"/>
   <path d="m120.93 12.964 0.0952 0.0476"/>
   <path d="m121.03 13.012 0.1905 0.0476"/>
   <path d="m121.22 13.059h0.1428"/>
   <path d="m121.36 13.059 0.1905-0.0476"/>
   <path d="m121.55 13.012 0.0953-0.0476"/>
   <path d="m121.65 12.964 0.0952-0.0952"/>
   <path d="m121.74 12.869 0.0476-0.1429"/>
   <path d="m121.79 12.726v-0.2381"/>
   <path d="m121.79 14.012v-0.5714"/>
   <path d="m121.79 13.726h-1"/>
   <path d="m120.79 13.726 0.1429-0.0952"/>
   <path d="m120.93 13.631 0.0952-0.0953"/>
   <path d="m121.03 13.535 0.0476-0.0952"/>
   <path d="m121.12 14.869h0.6666"/>
   <path d="m120.74 14.631 0.7143-0.2381"/>
   <path d="m121.46 14.392v0.619"/>
  </g>
  <g transform="rotate(-90 102.28 13.702)">
   <text transform="scale(-1 1) translate(-204.57)" x="102.2850" y="14.2020" font-size="1.3333" opacity="0" stroke-opacity="0" text-anchor="middle" lengthAdjust="spacingAndGlyphs" textLength="3.1548">D10</text>
  </g>
  <g class="stroked-text">
   <desc>D10</desc>
   <path d="m102.74 12.488h-1"/>
   <path d="m101.74 12.488v0.2381"/>
   <path d="m101.74 12.726 0.0476 0.1429"/>
   <path d="m101.79 12.869 0.0953 0.0952"/>
   <path d="m101.88 12.964 0.0952 0.0476"/>
   <path d="m101.98 13.012 0.1905 0.0476"/>
   <path d="m102.17 13.059h0.1428"/>
   <path d="m102.31 13.059 0.1905-0.0476"/>
   <path d="m102.5 13.012 0.0953-0.0476"/>
   <path d="m102.6 12.964 0.0952-0.0952"/>
   <path d="m102.69 12.869 0.0476-0.1429"/>
   <path d="m102.74 12.726v-0.2381"/>
   <path d="m102.74 14.012v-0.5714"/>
   <path d="m102.74 13.726h-1"/>
   <path d="m101.74 13.726 0.1429-0.0952"/>
   <path d="m101.88 13.631 0.0952-0.0953"/>
   <path d="m101.98 13.535 0.0476-0.0952"/>
   <path d="m101.74 14.631v0.0952"/>
   <path d="m101.74 14.726 0.0476 0.0952"/>
   <path d="m101.79 14.821 0.0477 0.0477"/>
   <path d="m101.84 14.869 0.0952 0.0476"/>
   <path d="m101.93 14.916 0.1905 0.0476"/>
   <path d="m102.12 14.964h0.2381"/>
   <path d="m102.36 14.964 0.1904-0.0476"/>
   <path d="m102.55 14.916 0.0953-0.0476"/>
   <path d="m102.64 14.869 0.0476-0.0477"/>
   <path d="m102.69 14.821 0.0476-0.0952"/>
   <path d="m102.74 14.726v-0.0952"/>
   <path d="m102.74 14.631-0.0476-0.0953"/>
   <path d="m102.69 14.535-0.0476-0.0476"/>
   <path d="m102.64 14.488-0.0953-0.0476"/>
   <path d="m102.55 14.44-0.1904-0.0476"/>
   <path d="m102.36 14.392h-0.2381"/>
   <path d="m102.12 14.392-0.1905 0.0476"/>
   <path d="m101.93 14.44-0.0952 0.0476"/>
   <path d="m101.84 14.488-0.0477 0.0476"/>
   <path d="m101.79 14.535-0.0476 0.0953"/>
  </g>
  <g transform="rotate(-90 59.422 37.514)">
   <text transform="scale(-1 1) translate(-118.84)" x="59.4225" y="38.0145" font-size="1.3333" opacity="0" stroke-opacity="0" text-anchor="middle" lengthAdjust="spacingAndGlyphs" textLength="2.2024">D2</text>
  </g>
  <g class="stroked-text">
   <desc>D2</desc>
   <path d="m59.877 36.776h-1"/>
   <path d="m58.877 36.776v0.2381"/>
   <path d="m58.877 37.014 0.0476 0.1429"/>
   <path d="m58.925 37.157 0.0953 0.0952"/>
   <path d="m59.02 37.253 0.0952 0.0476"/>
   <path d="m59.115 37.3 0.1905 0.0476"/>
   <path d="m59.306 37.348h0.1428"/>
   <path d="m59.449 37.348 0.1905-0.0476"/>
   <path d="m59.639 37.3 0.0953-0.0476"/>
   <path d="m59.734 37.253 0.0952-0.0952"/>
   <path d="m59.83 37.157 0.0476-0.1429"/>
   <path d="m59.877 37.014v-0.2381"/>
   <path d="m58.973 37.729-0.0477 0.0476"/>
   <path d="m58.925 37.776-0.0476 0.0952"/>
   <path d="m58.877 37.872v0.2381"/>
   <path d="m58.877 38.11 0.0476 0.0953"/>
   <path d="m58.925 38.205 0.0477 0.0476"/>
   <path d="m58.973 38.253 0.0952 0.0476"/>
   <path d="m59.068 38.3h0.0952"/>
   <path d="m59.163 38.3 0.1429-0.0476"/>
   <path d="m59.306 38.253 0.5714-0.5714"/>
   <path d="m59.877 37.681v0.619"/>
  </g>
  <g transform="rotate(-90 59.422 56.564)">
   <text transform="scale(-1 1) translate(-118.84)" x="59.4225" y="57.0645" font-size="1.3333" opacity="0" stroke-opacity="0" text-anchor="middle" lengthAdjust="spacingAndGlyphs" textLength="2.2024">D7</text>
  </g>
  <g class="stroked-text">
   <desc>D7</desc>
   <path d="m59.877 55.826h-1"/>
   <path d="m58.877 55.826v0.2381"/>
   <path d="m58.877 56.064 0.0476 0.1429"/>
   <path d="m58.925 56.207 0.0953 0.0952"/>
   <path d="m59.02 56.303 0.0952 0.0476"/>
   <path d="m59.115 56.35 0.1905 0.0476"/>
   <path d="m59.306 56.398h0.1428"/>
   <path d="m59.449 56.398 0.1905-0.0476"/>
   <path d="m59.639 56.35 0.0953-0.0476"/>
   <path d="m59.734 56.303 0.0952-0.0952"/>
   <path d="m59.83 56.207 0.0476-0.1429"/>
   <path d="m59.877 56.064v-0.2381"/>
   <path d="m58.877 56.731v0.6666"/>
   <path d="m58.877 57.398 1-0.4285"/>
  </g>
  <g transform="rotate(-90 78.472 56.564)">
   <text transform="scale(-1 1) translate(-156.94)" x="78.4725" y="57.0645" font-size="1.3333" opacity="0" stroke-opacity="0" text-anchor="middle" lengthAdjust="spacingAndGlyphs" textLength="2.2024">D8</text>
  </g>
  <g class="stroked-text">
   <desc>D8</desc>
   <path d="m78.927 55.826h-1"/>
   <path d="m77.927 55.826v0.2381"/>
   <path d="m77.927 56.064 0.0476 0.1429"/>
   <path d="m77.975 56.207 0.0953 0.0952"/>
   <path d="m78.07 56.303 0.0952 0.0476"/>
   <path d="m78.165 56.35 0.1905 0.0476"/>
   <path d="m78.356 56.398h0.1428"/>
   <path d="m78.499 56.398 0.1905-0.0476"/>
   <path d="m78.689 56.35 0.0953-0.0476"/>
   <path d="m78.784 56.303 0.0952-0.0952"/>
   <path d="m78.88 56.207 0.0476-0.1429"/>
   <path d="m78.927 56.064v-0.2381"/>
   <path d="m78.356 56.969-0.0476-0.0953"/>
   <path d="m78.308 56.874-0.0476-0.0476"/>
   <path d="m78.261 56.826-0.0953-0.0476"/>
   <path d="m78.165 56.779h-0.0476"/>
   <path d="m78.118 56.779-0.0952 0.0476"/>
   <path d="m78.023 56.826-0.0477 0.0476"/>
   <path d="m77.975 56.874-0.0476 0.0953"/>
   <path d="m77.927 56.969v0.1904"/>
   <path d="m77.927 57.16 0.0476 0.0953"/>
   <path d="m77.975 57.255 0.0477 0.0476"/>
   <path d="m78.023 57.303 0.0952 0.0476"/>
   <path d="m78.118 57.35h0.0476"/>
   <path d="m78.165 57.35 0.0953-0.0476"/>
   <path d="m78.261 57.303 0.0476-0.0476"/>
   <path d="m78.308 57.255 0.0476-0.0953"/>
   <path d="m78.356 57.16v-0.1904"/>
   <path d="m78.356 56.969 0.0476-0.0953"/>
   <path d="m78.404 56.874 0.0476-0.0476"/>
   <path d="m78.451 56.826 0.0953-0.0476"/>
   <path d="m78.546 56.779h0.1904"/>
   <path d="m78.737 56.779 0.0953 0.0476"/>
   <path d="m78.832 56.826 0.0476 0.0476"/>
   <path d="m78.88 56.874 0.0476 0.0953"/>
   <path d="m78.927 56.969v0.1904"/>
   <path d="m78.927 57.16-0.0476 0.0953"/>
   <path d="m78.88 57.255-0.0476 0.0476"/>
   <path d="m78.832 57.303-0.0953 0.0476"/>
   <path d="m78.737 57.35h-0.1904"/>
   <path d="m78.546 57.35-0.0953-0.0476"/>
   <path d="m78.451 57.303-0.0476-0.0476"/>
   <path d="m78.404 57.255-0.0476-0.0953"/>
  </g>
  <g transform="rotate(-90 40.372 37.514)">
   <text transform="scale(-1 1) translate(-80.745)" x="40.3725" y="38.0145" font-size="1.3333" opacity="0" stroke-opacity="0" text-anchor="middle" lengthAdjust="spacingAndGlyphs" textLength="2.2024">D1</text>
  </g>
  <g class="stroked-text">
   <desc>D1</desc>
   <path d="m40.827 36.776h-1"/>
   <path d="m39.827 36.776v0.2381"/>
   <path d="m39.827 37.014 0.0476 0.1429"/>
   <path d="m39.875 37.157 0.0953 0.0952"/>
   <path d="m39.97 37.253 0.0952 0.0476"/>
   <path d="m40.065 37.3 0.1905 0.0476"/>
   <path d="m40.256 37.348h0.1428"/>
   <path d="m40.399 37.348 0.1905-0.0476"/>
   <path d="m40.589 37.3 0.0953-0.0476"/>
   <path d="m40.684 37.253 0.0952-0.0952"/>
   <path d="m40.78 37.157 0.0476-0.1429"/>
   <path d="m40.827 37.014v-0.2381"/>
   <path d="m40.827 38.3v-0.5714"/>
   <path d="m40.827 38.014h-1"/>
   <path d="m39.827 38.014 0.1429-0.0952"/>
   <path d="m39.97 37.919 0.0952-0.0953"/>
   <path d="m40.065 37.824 0.0476-0.0952"/>
  </g>
  <g transform="rotate(-90 83.235 13.702)">
   <text transform="scale(-1 1) translate(-166.47)" x="83.2350" y="14.2020" font-size="1.3333" opacity="0" stroke-opacity="0" text-anchor="middle" lengthAdjust="spacingAndGlyphs" textLength="3.1548">D13</text>
  </g>
  <g class="stroked-text">
   <desc>D13</desc>
   <path d="m83.69 12.488h-1"/>
   <path d="m82.69 12.488v0.2381"/>
   <path d="m82.69 12.726 0.0476 0.1429"/>
   <path d="m82.737 12.869 0.0953 0.0952"/>
   <path d="m82.833 12.964 0.0952 0.0476"/>
   <path d="m82.928 13.012 0.1905 0.0476"/>
   <path d="m83.118 13.059h0.1428"/>
   <path d="m83.261 13.059 0.1905-0.0476"/>
   <path d="m83.452 13.012 0.0953-0.0476"/>
   <path d="m83.547 12.964 0.0952-0.0952"/>
   <path d="m83.642 12.869 0.0476-0.1429"/>
   <path d="m83.69 12.726v-0.2381"/>
   <path d="m83.69 14.012v-0.5714"/>
   <path d="m83.69 13.726h-1"/>
   <path d="m82.69 13.726 0.1429-0.0952"/>
   <path d="m82.833 13.631 0.0952-0.0953"/>
   <path d="m82.928 13.535 0.0476-0.0952"/>
   <path d="m82.69 14.345v0.619"/>
   <path d="m82.69 14.964 0.381-0.3333"/>
   <path d="m83.071 14.631v0.1428"/>
   <path d="m83.071 14.773 0.0476 0.0953"/>
   <path d="m83.118 14.869 0.0476 0.0476"/>
   <path d="m83.166 14.916 0.0952 0.0476"/>
   <path d="m83.261 14.964h0.2381"/>
   <path d="m83.499 14.964 0.0953-0.0476"/>
   <path d="m83.595 14.916 0.0476-0.0476"/>
   <path d="m83.642 14.869 0.0476-0.0953"/>
   <path d="m83.69 14.773v-0.2857"/>
   <path d="m83.69 14.488-0.0476-0.0952"/>
   <path d="m83.642 14.392-0.0476-0.0476"/>
  </g>
  <g transform="rotate(-90 97.522 37.514)">
   <text transform="scale(-1 1) translate(-195.04)" x="97.5225" y="38.0145" font-size="1.3333" opacity="0" stroke-opacity="0" text-anchor="middle" lengthAdjust="spacingAndGlyphs" textLength="2.2024">D4</text>
  </g>
  <g class="stroked-text">
   <desc>D4</desc>
   <path d="m97.977 36.776h-1"/>
   <path d="m96.977 36.776v0.2381"/>
   <path d="m96.977 37.014 0.0476 0.1429"/>
   <path d="m97.025 37.157 0.0953 0.0952"/>
   <path d="m97.12 37.253 0.0952 0.0476"/>
   <path d="m97.215 37.3 0.1905 0.0476"/>
   <path d="m97.406 37.348h0.1428"/>
   <path d="m97.549 37.348 0.1905-0.0476"/>
   <path d="m97.739 37.3 0.0953-0.0476"/>
   <path d="m97.834 37.253 0.0952-0.0952"/>
   <path d="m97.93 37.157 0.0476-0.1429"/>
   <path d="m97.977 37.014v-0.2381"/>
   <path d="m97.311 38.205h0.6666"/>
   <path d="m96.93 37.967 0.7143-0.2381"/>
   <path d="m97.644 37.729v0.619"/>
  </g>
  <g transform="rotate(-90 54.66 13.702)">
   <text transform="scale(-1 1) translate(-109.32)" x="54.6600" y="14.2020" font-size="1.3333" opacity="0" stroke-opacity="0" text-anchor="middle" lengthAdjust="spacingAndGlyphs" textLength="3.1548">D12</text>
  </g>
  <g class="stroked-text">
   <desc>D12</desc>
   <path d="m55.115 12.488h-1"/>
   <path d="m54.115 12.488v0.2381"/>
   <path d="m54.115 12.726 0.0476 0.1429"/>
   <path d="m54.162 12.869 0.0953 0.0952"/>
   <path d="m54.258 12.964 0.0952 0.0476"/>
   <path d="m54.353 13.012 0.1905 0.0476"/>
   <path d="m54.543 13.059h0.1428"/>
   <path d="m54.686 13.059 0.1905-0.0476"/>
   <path d="m54.877 13.012 0.0953-0.0476"/>
   <path d="m54.972 12.964 0.0952-0.0952"/>
   <path d="m55.067 12.869 0.0476-0.1429"/>
   <path d="m55.115 12.726v-0.2381"/>
   <path d="m55.115 14.012v-0.5714"/>
   <path d="m55.115 13.726h-1"/>
   <path d="m54.115 13.726 0.1429-0.0952"/>
   <path d="m54.258 13.631 0.0952-0.0953"/>
   <path d="m54.353 13.535 0.0476-0.0952"/>
   <path d="m54.21 14.392-0.0477 0.0476"/>
   <path d="m54.162 14.44-0.0476 0.0952"/>
   <path d="m54.115 14.535v0.2381"/>
   <path d="m54.115 14.773 0.0476 0.0953"/>
   <path d="m54.162 14.869 0.0477 0.0476"/>
   <path d="m54.21 14.916 0.0952 0.0476"/>
   <path d="m54.305 14.964h0.0952"/>
   <path d="m54.4 14.964 0.1429-0.0476"/>
   <path d="m54.543 14.916 0.5714-0.5714"/>
   <path d="m55.115 14.345v0.619"/>
  </g>
  <g transform="rotate(-90 97.522 56.564)">
   <text transform="scale(-1 1) translate(-195.04)" x="97.5225" y="57.0645" font-size="1.3333" opacity="0" stroke-opacity="0" text-anchor="middle" lengthAdjust="spacingAndGlyphs" textLength="2.2024">D9</text>
  </g>
  <g class="stroked-text">
   <desc>D9</desc>
   <path d="m97.977 55.826h-1"/>
   <path d="m96.977 55.826v0.2381"/>
   <path d="m96.977 56.064 0.0476 0.1429"/>
   <path d="m97.025 56.207 0.0953 0.0952"/>
   <path d="m97.12 56.303 0.0952 0.0476"/>
   <path d="m97.215 56.35 0.1905 0.0476"/>
   <path d="m97.406 56.398h0.1428"/>
   <path d="m97.549 56.398 0.1905-0.0476"/>
   <path d="m97.739 56.35 0.0953-0.0476"/>
   <path d="m97.834 56.303 0.0952-0.0952"/>
   <path d="m97.93 56.207 0.0476-0.1429"/>
   <path d="m97.977 56.064v-0.2381"/>
   <path d="m97.977 56.874v0.1905"/>
   <path d="m97.977 57.064-0.0476 0.0952"/>
   <path d="m97.93 57.16-0.0476 0.0477"/>
   <path d="m97.882 57.207-0.1429 0.0952"/>
   <path d="m97.739 57.303-0.1905 0.0476"/>
   <path d="m97.549 57.35h-0.3809"/>
   <path d="m97.168 57.35-0.0952-0.0476"/>
   <path d="m97.073 57.303-0.0477-0.0476"/>
   <path d="m97.025 57.255-0.0476-0.0953"/>
   <path d="m96.977 57.16v-0.1904"/>
   <path d="m96.977 56.969 0.0476-0.0953"/>
   <path d="m97.025 56.874 0.0477-0.0476"/>
   <path d="m97.073 56.826 0.0952-0.0476"/>
   <path d="m97.168 56.779h0.2381"/>
   <path d="m97.406 56.779 0.0952 0.0476"/>
   <path d="m97.501 56.826 0.0476 0.0476"/>
   <path d="m97.549 56.874 0.0477 0.0953"/>
   <path d="m97.596 56.969v0.1904"/>
   <path d="m97.596 57.16-0.0477 0.0953"/>
   <path d="m97.549 57.255-0.0476 0.0476"/>
   <path d="m97.501 57.303-0.0952 0.0476"/>
  </g>
 </g>
 <g fill="none" stroke="#BD93F9" stroke-linecap="round" stroke-linejoin="round" stroke-width=".12">
  <path d="m13.655 11.925v3.86"/>
  <path d="m13.655 15.785h2"/>
  <path d="m15.655 11.925v3.86"/>
  <path d="m37.468 54.788v3.86"/>
  <path d="m37.468 58.648h2"/>
  <path d="m39.468 54.788v3.86"/>
  <path d="m32.705 11.925v3.86"/>
  <path d="m32.705 15.785h2"/>
  <path d="m34.705 11.925v3.86"/>
  <path d="m75.568 35.738v3.86"/>
  <path d="m75.568 39.598h2"/>
  <path d="m77.568 35.738v3.86"/>
  <path d="m118.43 11.925v3.86"/>
  <path d="m118.43 15.785h2"/>
  <path d="m120.43 11.925v3.86"/>
  <path d="m99.38 11.925v3.86"/>
  <path d="m99.38 15.785h2"/>
  <path d="m101.38 11.925v3.86"/>
  <path d="m56.518 35.738v3.86"/>
  <path d="m56.518 39.598h2"/>
  <path d="m58.518 35.738v3.86"/>
  <path d="m56.518 54.788v3.86"/>
  <path d="m56.518 58.648h2"/>
  <path d="m58.518 54.788v3.86"/>
  <path d="m75.568 54.788v3.86"/>
  <path d="m75.568 58.648h2"/>
  <path d="m77.568 54.788v3.86"/>
  <path d="m37.468 35.738v3.86"/>
  <path d="m37.468 39.598h2"/>
  <path d="m39.468 35.738v3.86"/>
  <path d="m80.33 11.925v3.86"/>
  <path d="m80.33 15.785h2"/>
  <path d="m82.33 11.925v3.86"/>
  <path d="m94.618 35.738v3.86"/>
  <path d="m94.618 39.598h2"/>
  <path d="m96.618 35.738v3.86"/>
  <path d="m51.755 11.925v3.86"/>
  <path d="m51.755 15.785h2"/>
  <path d="m53.755 11.925v3.86"/>
  <path d="m94.618 54.788v3.86"/>
  <path d="m94.618 58.648h2"/>
  <path d="m96.618 54.788v3.86"/>
 </g>
 <g>
  <g fill="#BD93F9">
   <circle cx="109.27" cy="9.575" r=".875"/>
   <circle cx="114.35" cy="9.575" r="2"/>
   <circle cx="119.43" cy="9.575" r=".875"/>
   <circle cx="110.54" cy="7.035" r=".75"/>
   <circle cx="116.89" cy="4.495" r=".75"/>
   <circle cx="66.408" cy="52.438" r=".875"/>
   <circle cx="71.488" cy="52.438" r="2"/>
   <circle cx="76.568" cy="52.438" r=".875"/>
   <circle cx="67.678" cy="49.898" r=".75"/>
   <circle cx="74.028" cy="47.358" r=".75"/>
   <circle cx="85.458" cy="52.438" r=".875"/>
   <circle cx="90.538" cy="52.438" r="2"/>
   <circle cx="95.618" cy="52.438" r=".875"/>
   <circle cx="86.728" cy="49.898" r=".75"/>
   <circle cx="93.078" cy="47.358" r=".75"/>
   <circle cx="28.308" cy="33.388" r=".875"/>
   <circle cx="33.388" cy="33.388" r="2"/>
   <circle cx="38.468" cy="33.388" r=".875"/>
   <circle cx="29.578" cy="30.848" r=".75"/>
   <circle cx="35.928" cy="28.308" r=".75"/>
   <circle cx="42.595" cy="9.575" r=".875"/>
   <circle cx="47.675" cy="9.575" r="2"/>
   <circle cx="52.755" cy="9.575" r=".875"/>
   <circle cx="43.865" cy="7.035" r=".75"/>
   <circle cx="50.215" cy="4.495" r=".75"/>
   <circle cx="47.358" cy="33.388" r=".875"/>
   <circle cx="52.438" cy="33.388" r="2"/>
   <circle cx="57.518" cy="33.388" r=".875"/>
   <circle cx="48.628" cy="30.848" r=".75"/>
   <circle cx="54.978" cy="28.308" r=".75"/>
   <circle cx="28.308" cy="52.438" r=".875"/>
   <circle cx="33.388" cy="52.438" r="2"/>
   <circle cx="38.468" cy="52.438" r=".875"/>
   <circle cx="29.578" cy="49.898" r=".75"/>
   <circle cx="35.928" cy="47.358" r=".75"/>
   <circle cx="71.17" cy="9.575" r=".875"/>
   <circle cx="76.25" cy="9.575" r="2"/>
   <circle cx="81.33" cy="9.575" r=".875"/>
   <circle cx="72.44" cy="7.035" r=".75"/>
   <circle cx="78.79" cy="4.495" r=".75"/>
   <circle cx="47.358" cy="52.438" r=".875"/>
   <circle cx="52.438" cy="52.438" r="2"/>
   <circle cx="57.518" cy="52.438" r=".875"/>
   <circle cx="48.628" cy="49.898" r=".75"/>
   <circle cx="54.978" cy="47.358" r=".75"/>
   <circle cx="66.408" cy="33.388" r=".875"/>
   <circle cx="71.488" cy="33.388" r="2"/>
   <circle cx="76.568" cy="33.388" r=".875"/>
   <circle cx="67.678" cy="30.848" r=".75"/>
   <circle cx="74.028" cy="28.308" r=".75"/>
   <circle cx="4.495" cy="9.575" r=".875"/>
   <circle cx="9.575" cy="9.575" r="2"/>
   <circle cx="14.655" cy="9.575" r=".875"/>
   <circle cx="5.765" cy="7.035" r=".75"/>
   <circle cx="12.115" cy="4.495" r=".75"/>
   <circle cx="23.545" cy="9.575" r=".875"/>
   <circle cx="28.625" cy="9.575" r="2"/>
   <circle cx="33.705" cy="9.575" r=".875"/>
   <circle cx="24.815" cy="7.035" r=".75"/>
   <circle cx="31.165" cy="4.495" r=".75"/>
   <circle cx="90.22" cy="9.575" r=".875"/>
   <circle cx="95.3" cy="9.575" r="2"/>
   <circle cx="100.38" cy="9.575" r=".875"/>
   <circle cx="91.49" cy="7.035" r=".75"/>
   <circle cx="97.84" cy="4.495" r=".75"/>
   <circle cx="85.458" cy="33.388" r=".875"/>
   <circle cx="90.538" cy="33.388" r="2"/>
   <circle cx="95.618" cy="33.388" r=".875"/>
   <circle cx="86.728" cy="30.848" r=".75"/>
   <circle cx="93.078" cy="28.308" r=".75"/>
  </g>
  <g>
   <circle cx="109.27" cy="9.575" r=".875"/>
   <circle cx="114.35" cy="9.575" r="2"/>
   <circle cx="119.43" cy="9.575" r=".875"/>
   <circle cx="110.54" cy="7.035" r=".75"/>
   <circle cx="116.89" cy="4.495" r=".75"/>
   <circle cx="66.408" cy="52.438" r=".875"/>
   <circle cx="71.488" cy="52.438" r="2"/>
   <circle cx="76.568" cy="52.438" r=".875"/>
   <circle cx="67.678" cy="49.898" r=".75"/>
   <circle cx="74.028" cy="47.358" r=".75"/>
   <circle cx="85.458" cy="52.438" r=".875"/>
   <circle cx="90.538" cy="52.438" r="2"/>
   <circle cx="95.618" cy="52.438" r=".875"/>
   <circle cx="86.728" cy="49.898" r=".75"/>
   <circle cx="93.078" cy="47.358" r=".75"/>
   <circle cx="28.308" cy="33.388" r=".875"/>
   <circle cx="33.388" cy="33.388" r="2"/>
   <circle cx="38.468" cy="33.388" r=".875"/>
   <circle cx="29.578" cy="30.848" r=".75"/>
   <circle cx="35.928" cy="28.308" r=".75"/>
   <circle cx="42.595" cy="9.575" r=".875"/>
   <circle cx="47.675" cy="9.575" r="2"/>
   <circle cx="52.755" cy="9.575" r=".875"/>
   <circle cx="43.865" cy="7.035" r=".75"/>
   <circle cx="50.215" cy="4.495" r=".75"/>
   <circle cx="47.358" cy="33.388" r=".875"/>
   <circle cx="52.438" cy="33.388" r="2"/>
   <circle cx="57.518" cy="33.388" r=".875"/>
   <circle cx="48.628" cy="30.848" r=".75"/>
   <circle cx="54.978" cy="28.308" r=".75"/>
   <circle cx="28.308" cy="52.438" r=".875"/>
   <circle cx="33.388" cy="52.438" r="2"/>
   <circle cx="38.468" cy="52.438" r=".875"/>
   <circle cx="29.578" cy="49.898" r=".75"/>
   <circle cx="35.928" cy="47.358" r=".75"/>
   <circle cx="71.17" cy="9.575" r=".875"/>
   <circle cx="76.25" cy="9.575" r="2"/>
   <circle cx="81.33" cy="9.575" r=".875"/>
   <circle cx="72.44" cy="7.035" r=".75"/>
   <circle cx="78.79" cy="4.495" r=".75"/>
   <circle cx="47.358" cy="52.438" r=".875"/>
   <circle cx="52.438" cy="52.438" r="2"/>
   <circle cx="57.518" cy="52.438" r=".875"/>
   <circle cx="48.628" cy="49.898" r=".75"/>
   <circle cx="54.978" cy="47.358" r=".75"/>
   <circle cx="66.408" cy="33.388" r=".875"/>
   <circle cx="71.488" cy="33.388" r="2"/>
   <circle cx="76.568" cy="33.388" r=".875"/>
   <circle cx="67.678" cy="30.848" r=".75"/>
   <circle cx="74.028" cy="28.308" r=".75"/>
   <circle cx="4.495" cy="9.575" r=".875"/>
   <circle cx="9.575" cy="9.575" r="2"/>
   <circle cx="14.655" cy="9.575" r=".875"/>
   <circle cx="5.765" cy="7.035" r=".75"/>
   <circle cx="12.115" cy="4.495" r=".75"/>
   <circle cx="23.545" cy="9.575" r=".875"/>
   <circle cx="28.625" cy="9.575" r="2"/>
   <circle cx="33.705" cy="9.575" r=".875"/>
   <circle cx="24.815" cy="7.035" r=".75"/>
   <circle cx="31.165" cy="4.495" r=".75"/>
   <circle cx="90.22" cy="9.575" r=".875"/>
   <circle cx="95.3" cy="9.575" r="2"/>
   <circle cx="100.38" cy="9.575" r=".875"/>
   <circle cx="91.49" cy="7.035" r=".75"/>
   <circle cx="97.84" cy="4.495" r=".75"/>
   <circle cx="85.458" cy="33.388" r=".875"/>
   <circle cx="90.538" cy="33.388" r="2"/>
   <circle cx="95.618" cy="33.388" r=".875"/>
   <circle cx="86.728" cy="30.848" r=".75"/>
   <circle cx="93.078" cy="28.308" r=".75"/>
  </g>
  <g fill="#f55">
   <circle cx="110.54" cy="7.035" r="1.25"/>
   <circle cx="116.89" cy="4.495" r="1.25"/>
   <circle cx="67.678" cy="49.898" r="1.25"/>
   <circle cx="74.028" cy="47.358" r="1.25"/>
   <circle cx="86.728" cy="49.898" r="1.25"/>
   <circle cx="93.078" cy="47.358" r="1.25"/>
   <circle cx="29.578" cy="30.848" r="1.25"/>
   <circle cx="35.928" cy="28.308" r="1.25"/>
   <circle cx="43.865" cy="7.035" r="1.25"/>
   <circle cx="50.215" cy="4.495" r="1.25"/>
   <circle cx="48.628" cy="30.848" r="1.25"/>
   <circle cx="54.978" cy="28.308" r="1.25"/>
   <circle cx="29.578" cy="49.898" r="1.25"/>
   <circle cx="35.928" cy="47.358" r="1.25"/>
   <circle cx="72.44" cy="7.035" r="1.25"/>
   <circle cx="78.79" cy="4.495" r="1.25"/>
   <circle cx="48.628" cy="49.898" r="1.25"/>
   <circle cx="54.978" cy="47.358" r="1.25"/>
   <circle cx="67.678" cy="30.848" r="1.25"/>
   <circle cx="74.028" cy="28.308" r="1.25"/>
   <circle cx="5.765" cy="7.035" r="1.25"/>
   <circle cx="12.115" cy="4.495" r="1.25"/>
   <circle cx="24.815" cy="7.035" r="1.25"/>
   <circle cx="31.165" cy="4.495" r="1.25"/>
   <circle cx="91.49" cy="7.035" r="1.25"/>
   <circle cx="97.84" cy="4.495" r="1.25"/>
   <circle cx="86.728" cy="30.848" r="1.25"/>
   <circle cx="93.078" cy="28.308" r="1.25"/>
  </g>
 </g>
 <g fill="none" stroke="#f55" stroke-linecap="round" stroke-linejoin="round" stroke-width=".2">
  <path d="m29.578 30.848v19.05"/>
  <path d="m43.865 7.035v19.05"/>
  <path d="m43.865 26.085 4.7625 4.7625"/>
  <path d="m48.628 30.848v19.05"/>
  <path d="m67.678 30.848 4.7625-4.7625"/>
  <path d="m67.678 30.848v19.05"/>
  <path d="m72.44 26.085v-19.05"/>
  <path d="m86.728 30.848v19.05"/>
 </g>
 <g fill="#fff">
  <circle cx="109.27" cy="9.575" r=".875"/>
  <circle cx="114.35" cy="9.575" r="2"/>
  <circle cx="119.43" cy="9.575" r=".875"/>
  <circle cx="110.54" cy="7.035" r=".75"/>
  <circle cx="116.89" cy="4.495" r=".75"/>
  <circle cx="66.408" cy="52.438" r=".875"/>
  <circle cx="71.488" cy="52.438" r="2"/>
  <circle cx="76.568" cy="52.438" r=".875"/>
  <circle cx="67.678" cy="49.898" r=".75"/>
  <circle cx="74.028" cy="47.358" r=".75"/>
  <circle cx="85.458" cy="52.438" r=".875"/>
  <circle cx="90.538" cy="52.438" r="2"/>
  <circle cx="95.618" cy="52.438" r=".875"/>
  <circle cx="86.728" cy="49.898" r=".75"/>
  <circle cx="93.078" cy="47.358" r=".75"/>
  <circle cx="28.308" cy="33.388" r=".875"/>
  <circle cx="33.388" cy="33.388" r="2"/>
  <circle cx="38.468" cy="33.388" r=".875"/>
  <circle cx="29.578" cy="30.848" r=".75"/>
  <circle cx="35.928" cy="28.308" r=".75"/>
  <circle cx="42.595" cy="9.575" r=".875"/>
  <circle cx="47.675" cy="9.575" r="2"/>
  <circle cx="52.755" cy="9.575" r=".875"/>
  <circle cx="43.865" cy="7.035" r=".75"/>
  <circle cx="50.215" cy="4.495" r=".75"/>
  <circle cx="47.358" cy="33.388" r=".875"/>
  <circle cx="52.438" cy="33.388" r="2"/>
  <circle cx="57.518" cy="33.388" r=".875"/>
  <circle cx="48.628" cy="30.848" r=".75"/>
  <circle cx="54.978" cy="28.308" r=".75"/>
  <circle cx="28.308" cy="52.438" r=".875"/>
  <circle cx="33.388" cy="52.438" r="2"/>
  <circle cx="38.468" cy="52.438" r=".875"/>
  <circle cx="29.578" cy="49.898" r=".75"/>
  <circle cx="35.928" cy="47.358" r=".75"/>
  <circle cx="71.17" cy="9.575" r=".875"/>
  <circle cx="76.25" cy="9.575" r="2"/>
  <circle cx="81.33" cy="9.575" r=".875"/>
  <circle cx="72.44" cy="7.035" r=".75"/>
  <circle cx="78.79" cy="4.495" r=".75"/>
  <circle cx="47.358" cy="52.438" r=".875"/>
  <circle cx="52.438" cy="52.438" r="2"/>
  <circle cx="57.518" cy="52.438" r=".875"/>
  <circle cx="48.628" cy="49.898" r=".75"/>
  <circle cx="54.978" cy="47.358" r=".75"/>
  <circle cx="66.408" cy="33.388" r=".875"/>
  <circle cx="71.488" cy="33.388" r="2"/>
  <circle cx="76.568" cy="33.388" r=".875"/>
  <circle cx="67.678" cy="30.848" r=".75"/>
  <circle cx="74.028" cy="28.308" r=".75"/>
  <circle cx="4.495" cy="9.575" r=".875"/>
  <circle cx="9.575" cy="9.575" r="2"/>
  <circle cx="14.655" cy="9.575" r=".875"/>
  <circle cx="5.765" cy="7.035" r=".75"/>
  <circle cx="12.115" cy="4.495" r=".75"/>
  <circle cx="23.545" cy="9.575" r=".875"/>
  <circle cx="28.625" cy="9.575" r="2"/>
  <circle cx="33.705" cy="9.575" r=".875"/>
  <circle cx="24.815" cy="7.035" r=".75"/>
  <circle cx="31.165" cy="4.495" r=".75"/>
  <circle cx="90.22" cy="9.575" r=".875"/>
  <circle cx="95.3" cy="9.575" r="2"/>
  <circle cx="100.38" cy="9.575" r=".875"/>
  <circle cx="91.49" cy="7.035" r=".75"/>
  <circle cx="97.84" cy="4.495" r=".75"/>
  <circle cx="85.458" cy="33.388" r=".875"/>
  <circle cx="90.538" cy="33.388" r="2"/>
  <circle cx="95.618" cy="33.388" r=".875"/>
  <circle cx="86.728" cy="30.848" r=".75"/>
  <circle cx="93.078" cy="28.308" r=".75"/>
 </g>
 <g fill="#50FA7B">
  <circle cx="110.54" cy="7.035" r="1.25"/>
  <circle cx="116.89" cy="4.495" r="1.25"/>
  <circle cx="67.678" cy="49.898" r="1.25"/>
  <circle cx="74.028" cy="47.358" r="1.25"/>
  <circle cx="86.728" cy="49.898" r="1.25"/>
  <circle cx="93.078" cy="47.358" r="1.25"/>
  <circle cx="29.578" cy="30.848" r="1.25"/>
  <circle cx="35.928" cy="28.308" r="1.25"/>
  <circle cx="43.865" cy="7.035" r="1.25"/>
  <circle cx="50.215" cy="4.495" r="1.25"/>
  <circle cx="48.628" cy="30.848" r="1.25"/>
  <circle cx="54.978" cy="28.308" r="1.25"/>
  <circle cx="29.578" cy="49.898" r="1.25"/>
  <circle cx="35.928" cy="47.358" r="1.25"/>
  <circle cx="72.44" cy="7.035" r="1.25"/>
  <circle cx="78.79" cy="4.495" r="1.25"/>
  <circle cx="48.628" cy="49.898" r="1.25"/>
  <circle cx="54.978" cy="47.358" r="1.25"/>
  <circle cx="67.678" cy="30.848" r="1.25"/>
  <circle cx="74.028" cy="28.308" r="1.25"/>
  <circle cx="5.765" cy="7.035" r="1.25"/>
  <circle cx="12.115" cy="4.495" r="1.25"/>
  <circle cx="24.815" cy="7.035" r="1.25"/>
  <circle cx="31.165" cy="4.495" r="1.25"/>
  <circle cx="91.49" cy="7.035" r="1.25"/>
  <circle cx="97.84" cy="4.495" r="1.25"/>
  <circle cx="86.728" cy="30.848" r="1.25"/>
  <circle cx="93.078" cy="28.308" r="1.25"/>
  <g fill="#50FA7B" fill-rule="evenodd">
   <path d="m14.355 15.525-0.0957-0.019-0.0811-0.0542-0.0542-0.0811-0.019-0.0957v-0.6l0.019-0.0957 0.0542-0.0811 0.0811-0.0542 0.0957-0.019h0.6l0.0957 0.019 0.0811 0.0542 0.0542 0.0811 0.019 0.0957v0.6l-0.019 0.0957-0.0542 0.0811-0.0811 0.0542-0.0957 0.019z"/>
   <path d="m14.355 12.725-0.0957-0.019-0.0811-0.0542-0.0542-0.0811-0.019-0.0957v-0.6l0.019-0.0957 0.0542-0.0811 0.0811-0.0542 0.0957-0.019h0.6l0.0957 0.019 0.0811 0.0542 0.0542 0.0811 0.019 0.0957v0.6l-0.019 0.0957-0.0542 0.0811-0.0811 0.0542-0.0957 0.019z"/>
   <path d="m38.168 58.388-0.0957-0.019-0.0811-0.0542-0.0542-0.0811-0.019-0.0957v-0.6l0.019-0.0957 0.0542-0.0811 0.0811-0.0542 0.0957-0.019h0.6l0.0957 0.019 0.0811 0.0542 0.0542 0.0811 0.019 0.0957v0.6l-0.019 0.0957-0.0542 0.0811-0.0811 0.0542-0.0957 0.019z"/>
   <path d="m38.168 55.588-0.0957-0.019-0.0811-0.0542-0.0542-0.0811-0.019-0.0957v-0.6l0.019-0.0957 0.0542-0.0811 0.0811-0.0542 0.0957-0.019h0.6l0.0957 0.019 0.0811 0.0542 0.0542 0.0811 0.019 0.0957v0.6l-0.019 0.0957-0.0542 0.0811-0.0811 0.0542-0.0957 0.019z"/>
   <path d="m33.405 15.525-0.0957-0.019-0.0811-0.0542-0.0542-0.0811-0.019-0.0957v-0.6l0.019-0.0957 0.0542-0.0811 0.0811-0.0542 0.0957-0.019h0.6l0.0957 0.019 0.0811 0.0542 0.0542 0.0811 0.019 0.0957v0.6l-0.019 0.0957-0.0542 0.0811-0.0811 0.0542-0.0957 0.019z"/>
   <path d="m33.405 12.725-0.0957-0.019-0.0811-0.0542-0.0542-0.0811-0.019-0.0957v-0.6l0.019-0.0957 0.0542-0.0811 0.0811-0.0542 0.0957-0.019h0.6l0.0957 0.019 0.0811 0.0542 0.0542 0.0811 0.019 0.0957v0.6l-0.019 0.0957-0.0542 0.0811-0.0811 0.0542-0.0957 0.019z"/>
   <path d="m76.268 39.338-0.0957-0.019-0.0811-0.0542-0.0542-0.0811-0.019-0.0957v-0.6l0.019-0.0957 0.0542-0.0811 0.0811-0.0542 0.0957-0.019h0.6l0.0957 0.019 0.0811 0.0542 0.0542 0.0811 0.019 0.0957v0.6l-0.019 0.0957-0.0542 0.0811-0.0811 0.0542-0.0957 0.019z"/>
   <path d="m76.268 36.538-0.0957-0.019-0.0811-0.0542-0.0542-0.0811-0.019-0.0957v-0.6l0.019-0.0957 0.0542-0.0811 0.0811-0.0542 0.0957-0.019h0.6l0.0957 0.019 0.0811 0.0542 0.0542 0.0811 0.019 0.0957v0.6l-0.019 0.0957-0.0542 0.0811-0.0811 0.0542-0.0957 0.019z"/>
   <path d="m119.13 15.525-0.0957-0.019-0.0811-0.0542-0.0542-0.0811-0.019-0.0957v-0.6l0.019-0.0957 0.0542-0.0811 0.0811-0.0542 0.0957-0.019h0.6l0.0957 0.019 0.0811 0.0542 0.0542 0.0811 0.019 0.0957v0.6l-0.019 0.0957-0.0542 0.0811-0.0811 0.0542-0.0957 0.019z"/>
   <path d="m119.13 12.725-0.0957-0.019-0.0811-0.0542-0.0542-0.0811-0.019-0.0957v-0.6l0.019-0.0957 0.0542-0.0811 0.0811-0.0542 0.0957-0.019h0.6l0.0957 0.019 0.0811 0.0542 0.0542 0.0811 0.019 0.0957v0.6l-0.019 0.0957-0.0542 0.0811-0.0811 0.0542-0.0957 0.019z"/>
   <path d="m100.08 15.525-0.0957-0.019-0.0811-0.0542-0.0542-0.0811-0.019-0.0957v-0.6l0.019-0.0957 0.0542-0.0811 0.0811-0.0542 0.0957-0.019h0.6l0.0957 0.019 0.0811 0.0542 0.0542 0.0811 0.019 0.0957v0.6l-0.019 0.0957-0.0542 0.0811-0.0811 0.0542-0.0957 0.019z"/>
   <path d="m100.08 12.725-0.0957-0.019-0.0811-0.0542-0.0542-0.0811-0.019-0.0957v-0.6l0.019-0.0957 0.0542-0.0811 0.0811-0.0542 0.0957-0.019h0.6l0.0957 0.019 0.0811 0.0542 0.0542 0.0811 0.019 0.0957v0.6l-0.019 0.0957-0.0542 0.0811-0.0811 0.0542-0.0957 0.019z"/>
   <path d="m57.218 39.338-0.0957-0.019-0.0811-0.0542-0.0542-0.0811-0.019-0.0957v-0.6l0.019-0.0957 0.0542-0.0811 0.0811-0.0542 0.0957-0.019h0.6l0.0957 0.019 0.0811 0.0542 0.0542 0.0811 0.019 0.0957v0.6l-0.019 0.0957-0.0542 0.0811-0.0811 0.0542-0.0957 0.019z"/>
   <path d="m57.218 36.538-0.0957-0.019-0.0811-0.0542-0.0542-0.0811-0.019-0.0957v-0.6l0.019-0.0957 0.0542-0.0811 0.0811-0.0542 0.0957-0.019h0.6l0.0957 0.019 0.0811 0.0542 0.0542 0.0811 0.019 0.0957v0.6l-0.019 0.0957-0.0542 0.0811-0.0811 0.0542-0.0957 0.019z"/>
   <path d="m57.218 58.388-0.0957-0.019-0.0811-0.0542-0.0542-0.0811-0.019-0.0957v-0.6l0.019-0.0957 0.0542-0.0811 0.0811-0.0542 0.0957-0.019h0.6l0.0957 0.019 0.0811 0.0542 0.0542 0.0811 0.019 0.0957v0.6l-0.019 0.0957-0.0542 0.0811-0.0811 0.0542-0.0957 0.019z"/>
   <path d="m57.218 55.588-0.0957-0.019-0.0811-0.0542-0.0542-0.0811-0.019-0.0957v-0.6l0.019-0.0957 0.0542-0.0811 0.0811-0.0542 0.0957-0.019h0.6l0.0957 0.019 0.0811 0.0542 0.0542 0.0811 0.019 0.0957v0.6l-0.019 0.0957-0.0542 0.0811-0.0811 0.0542-0.0957 0.019z"/>
   <path d="m76.268 58.388-0.0957-0.019-0.0811-0.0542-0.0542-0.0811-0.019-0.0957v-0.6l0.019-0.0957 0.0542-0.0811 0.0811-0.0542 0.0957-0.019h0.6l0.0957 0.019 0.0811 0.0542 0.0542 0.0811 0.019 0.0957v0.6l-0.019 0.0957-0.0542 0.0811-0.0811 0.0542-0.0957 0.019z"/>
   <path d="m76.268 55.588-0.0957-0.019-0.0811-0.0542-0.0542-0.0811-0.019-0.0957v-0.6l0.019-0.0957 0.0542-0.0811 0.0811-0.0542 0.0957-0.019h0.6l0.0957 0.019 0.0811 0.0542 0.0542 0.0811 0.019 0.0957v0.6l-0.019 0.0957-0.0542 0.0811-0.0811 0.0542-0.0957 0.019z"/>
   <path d="m38.168 39.338-0.0957-0.019-0.0811-0.0542-0.0542-0.0811-0.019-0.0957v-0.6l0.019-0.0957 0.0542-0.0811 0.0811-0.0542 0.0957-0.019h0.6l0.0957 0.019 0.0811 0.0542 0.0542 0.0811 0.019 0.0957v0.6l-0.019 0.0957-0.0542 0.0811-0.0811 0.0542-0.0957 0.019z"/>
   <path d="m38.168 36.538-0.0957-0.019-0.0811-0.0542-0.0542-0.0811-0.019-0.0957v-0.6l0.019-0.0957 0.0542-0.0811 0.0811-0.0542 0.0957-0.019h0.6l0.0957 0.019 0.0811 0.0542 0.0542 0.0811 0.019 0.0957v0.6l-0.019 0.0957-0.0542 0.0811-0.0811 0.0542-0.0957 0.019z"/>
   <path d="m81.03 15.525-0.0957-0.019-0.0811-0.0542-0.0542-0.0811-0.019-0.0957v-0.6l0.019-0.0957 0.0542-0.0811 0.0811-0.0542 0.0957-0.019h0.6l0.0957 0.019 0.0811 0.0542 0.0542 0.0811 0.019 0.0957v0.6l-0.019 0.0957-0.0542 0.0811-0.0811 0.0542-0.0957 0.019z"/>
   <path d="m81.03 12.725-0.0957-0.019-0.0811-0.0542-0.0542-0.0811-0.019-0.0957v-0.6l0.019-0.0957 0.0542-0.0811 0.0811-0.0542 0.0957-0.019h0.6l0.0957 0.019 0.0811 0.0542 0.0542 0.0811 0.019 0.0957v0.6l-0.019 0.0957-0.0542 0.0811-0.0811 0.0542-0.0957 0.019z"/>
   <path d="m95.318 39.338-0.0957-0.019-0.0811-0.0542-0.0542-0.0811-0.019-0.0957v-0.6l0.019-0.0957 0.0542-0.0811 0.0811-0.0542 0.0957-0.019h0.6l0.0957 0.019 0.0811 0.0542 0.0542 0.0811 0.019 0.0957v0.6l-0.019 0.0957-0.0542 0.0811-0.0811 0.0542-0.0957 0.019z"/>
   <path d="m95.318 36.538-0.0957-0.019-0.0811-0.0542-0.0542-0.0811-0.019-0.0957v-0.6l0.019-0.0957 0.0542-0.0811 0.0811-0.0542 0.0957-0.019h0.6l0.0957 0.019 0.0811 0.0542 0.0542 0.0811 0.019 0.0957v0.6l-0.019 0.0957-0.0542 0.0811-0.0811 0.0542-0.0957 0.019z"/>
   <path d="m52.455 15.525-0.0957-0.019-0.0811-0.0542-0.0542-0.0811-0.019-0.0957v-0.6l0.019-0.0957 0.0542-0.0811 0.0811-0.0542 0.0957-0.019h0.6l0.0957 0.019 0.0811 0.0542 0.0542 0.0811 0.019 0.0957v0.6l-0.019 0.0957-0.0542 0.0811-0.0811 0.0542-0.0957 0.019z"/>
   <path d="m52.455 12.725-0.0957-0.019-0.0811-0.0542-0.0542-0.0811-0.019-0.0957v-0.6l0.019-0.0957 0.0542-0.0811 0.0811-0.0542 0.0957-0.019h0.6l0.0957 0.019 0.0811 0.0542 0.0542 0.0811 0.019 0.0957v0.6l-0.019 0.0957-0.0542 0.0811-0.0811 0.0542-0.0957 0.019z"/>
   <path d="m95.318 58.388-0.0957-0.019-0.0811-0.0542-0.0542-0.0811-0.019-0.0957v-0.6l0.019-0.0957 0.0542-0.0811 0.0811-0.0542 0.0957-0.019h0.6l0.0957 0.019 0.0811 0.0542 0.0542 0.0811 0.019 0.0957v0.6l-0.019 0.0957-0.0542 0.0811-0.0811 0.0542-0.0957 0.019z"/>
   <path d="m95.318 55.588-0.0957-0.019-0.0811-0.0542-0.0542-0.0811-0.019-0.0957v-0.6l0.019-0.0957 0.0542-0.0811 0.0811-0.0542 0.0957-0.019h0.6l0.0957 0.019 0.0811 0.0542 0.0542 0.0811 0.019 0.0957v0.6l-0.019 0.0957-0.0542 0.0811-0.0811 0.0542-0.0957 0.019z"/>
  </g>
 </g>
 <g fill="none" stroke="#50FA7B" stroke-linecap="round" stroke-linejoin="round" stroke-width=".2">
  <path d="m35.928 33.448 2.54 2.54"/>
  <path d="m35.928 28.308v5.14"/>
  <path d="m54.978 33.448 2.54 2.54"/>
  <path d="m54.978 28.308v5.14"/>
  <path d="m74.028 33.448 2.54 2.54"/>
  <path d="m74.028 28.308v5.14"/>
  <path d="m93.078 28.308v5.14"/>
  <path d="m93.078 33.448 2.54 2.54"/>
  <path d="m31.165 4.495v5.14"/>
  <path d="m31.165 9.635 2.54 2.54"/>
  <path d="m35.928 47.358v5.14"/>
  <path d="m35.928 52.498 2.54 2.54"/>
  <path d="m54.978 47.358v5.14"/>
  <path d="m54.978 52.498 2.54 2.54"/>
  <path d="m74.028 47.358v5.14"/>
  <path d="m74.028 52.498 2.54 2.54"/>
  <path d="m93.078 47.358v5.14"/>
  <path d="m93.078 52.498 2.54 2.54"/>
  <path d="m97.84 9.635 2.54 2.54"/>
  <path d="m97.84 4.495v5.14"/>
  <path d="m12.115 9.635 2.54 2.54"/>
  <path d="m12.115 4.495v5.14"/>
  <path d="m50.215 9.635 2.54 2.54"/>
  <path d="m50.215 4.495v5.14"/>
  <path d="m78.79 4.495v5.14"/>
  <path d="m78.79 9.635 2.54 2.54"/>
  <path d="m116.89 9.635 2.54 2.54"/>
  <path d="m116.89 4.495v5.14"/>
  <path d="m57.518 38.788h19.05"/>
  <path d="m76.568 38.788h19.05"/>
  <path d="m38.468 38.788h19.05"/>
  <path d="m57.518 57.838h19.05"/>
  <path d="m95.618 57.838 4.7625-4.7625"/>
  <path d="m38.468 57.838h19.05"/>
  <path d="m76.568 57.838h19.05"/>
  <path d="m100.38 53.075v-38.1"/>
  <path d="m52.755 14.975h28.575"/>
 </g>
 <g fill="#fff">
  <circle cx="109.27" cy="9.575" r=".875"/>
  <circle cx="114.35" cy="9.575" r="2"/>
  <circle cx="119.43" cy="9.575" r=".875"/>
  <circle cx="110.54" cy="7.035" r=".75"/>
  <circle cx="116.89" cy="4.495" r=".75"/>
  <circle cx="66.408" cy="52.438" r=".875"/>
  <circle cx="71.488" cy="52.438" r="2"/>
  <circle cx="76.568" cy="52.438" r=".875"/>
  <circle cx="67.678" cy="49.898" r=".75"/>
  <circle cx="74.028" cy="47.358" r=".75"/>
  <circle cx="85.458" cy="52.438" r=".875"/>
  <circle cx="90.538" cy="52.438" r="2"/>
  <circle cx="95.618" cy="52.438" r=".875"/>
  <circle cx="86.728" cy="49.898" r=".75"/>
  <circle cx="93.078" cy="47.358" r=".75"/>
  <circle cx="28.308" cy="33.388" r=".875"/>
  <circle cx="33.388" cy="33.388" r="2"/>
  <circle cx="38.468" cy="33.388" r=".875"/>
  <circle cx="29.578" cy="30.848" r=".75"/>
  <circle cx="35.928" cy="28.308" r=".75"/>
  <circle cx="42.595" cy="9.575" r=".875"/>
  <circle cx="47.675" cy="9.575" r="2"/>
  <circle cx="52.755" cy="9.575" r=".875"/>
  <circle cx="43.865" cy="7.035" r=".75"/>
  <circle cx="50.215" cy="4.495" r=".75"/>
  <circle cx="47.358" cy="33.388" r=".875"/>
  <circle cx="52.438" cy="33.388" r="2"/>
  <circle cx="57.518" cy="33.388" r=".875"/>
  <circle cx="48.628" cy="30.848" r=".75"/>
  <circle cx="54.978" cy="28.308" r=".75"/>
  <circle cx="28.308" cy="52.438" r=".875"/>
  <circle cx="33.388" cy="52.438" r="2"/>
  <circle cx="38.468" cy="52.438" r=".875"/>
  <circle cx="29.578" cy="49.898" r=".75"/>
  <circle cx="35.928" cy="47.358" r=".75"/>
  <circle cx="71.17" cy="9.575" r=".875"/>
  <circle cx="76.25" cy="9.575" r="2"/>
  <circle cx="81.33" cy="9.575" r=".875"/>
  <circle cx="72.44" cy="7.035" r=".75"/>
  <circle cx="78.79" cy="4.495" r=".75"/>
  <circle cx="47.358" cy="52.438" r=".875"/>
  <circle cx="52.438" cy="52.438" r="2"/>
  <circle cx="57.518" cy="52.438" r=".875"/>
  <circle cx="48.628" cy="49.898" r=".75"/>
  <circle cx="54.978" cy="47.358" r=".75"/>
  <circle cx="66.408" cy="33.388" r=".875"/>
  <circle cx="71.488" cy="33.388" r="2"/>
  <circle cx="76.568" cy="33.388" r=".875"/>
  <circle cx="67.678" cy="30.848" r=".75"/>
  <circle cx="74.028" cy="28.308" r=".75"/>
  <circle cx="4.495" cy="9.575" r=".875"/>
  <circle cx="9.575" cy="9.575" r="2"/>
  <circle cx="14.655" cy="9.575" r=".875"/>
  <circle cx="5.765" cy="7.035" r=".75"/>
  <circle cx="12.115" cy="4.495" r=".75"/>
  <circle cx="23.545" cy="9.575" r=".875"/>
  <circle cx="28.625" cy="9.575" r="2"/>
  <circle cx="33.705" cy="9.575" r=".875"/>
  <circle cx="24.815" cy="7.035" r=".75"/>
  <circle cx="31.165" cy="4.495" r=".75"/>
  <circle cx="90.22" cy="9.575" r=".875"/>
  <circle cx="95.3" cy="9.575" r="2"/>
  <circle cx="100.38" cy="9.575" r=".875"/>
  <circle cx="91.49" cy="7.035" r=".75"/>
  <circle cx="97.84" cy="4.495" r=".75"/>
  <circle cx="85.458" cy="33.388" r=".875"/>
  <circle cx="90.538" cy="33.388" r="2"/>
  <circle cx="95.618" cy="33.388" r=".875"/>
  <circle cx="86.728" cy="30.848" r=".75"/>
  <circle cx="93.078" cy="28.308" r=".75"/>
 </g>
</svg>
