<?xml version="1.0" encoding="UTF-8"?>
<!DOCTYPE svg  PUBLIC '-//W3C//DTD SVG 1.1//EN'  'http://www.w3.org/Graphics/SVG/1.1/DTD/svg11.dtd'>
<svg width="76.276mm" height="85.801mm" version="1.1" viewBox="0 0 76.276 85.801" xmlns="http://www.w3.org/2000/svg">
 <title>SVG Image created as owl8-render.svg date 2025/09/05 18:33:53</title>
 <desc>Image generated by PCBNEW</desc>
 <rect width="76.276mm" height="85.801mm" fill="#282A36"/>
 <g fill="none" stroke="#8BE9FD" stroke-linecap="round" stroke-linejoin="round" stroke-width=".15">
  <text x="9.5750" y="25.8875" font-size="1.3333" opacity="0" stroke-opacity="0" text-anchor="middle" lengthAdjust="spacingAndGlyphs" textLength="3.2976">SW9</text>
  <g class="stroked-text">
   <desc>SW9</desc>
   <path d="m8.2417 25.795 0.1428 0.0476"/>
   <path d="m8.3845 25.842h0.2381"/>
   <path d="m8.6226 25.842 0.0953-0.0476"/>
   <path d="m8.7179 25.795 0.0476-0.0476"/>
   <path d="m8.7655 25.747 0.0476-0.0953"/>
   <path d="m8.8131 25.652v-0.0952"/>
   <path d="m8.8131 25.557-0.0476-0.0952"/>
   <path d="m8.7655 25.461-0.0476-0.0477"/>
   <path d="m8.7179 25.414-0.0953-0.0476"/>
   <path d="m8.6226 25.366-0.1905-0.0476"/>
   <path d="m8.4321 25.318-0.0952-0.0476"/>
   <path d="m8.3369 25.271-0.0476-0.0476"/>
   <path d="m8.2893 25.223-0.0476-0.0953"/>
   <path d="m8.2417 25.128v-0.0952"/>
   <path d="m8.2417 25.033 0.0476-0.0952"/>
   <path d="m8.2893 24.938 0.0476-0.0477"/>
   <path d="m8.3369 24.89 0.0952-0.0476"/>
   <path d="m8.4321 24.842h0.2381"/>
   <path d="m8.6702 24.842 0.1429 0.0476"/>
   <path d="m9.1464 24.842 0.2381 1"/>
   <path d="m9.3845 25.842 0.1905-0.7143"/>
   <path d="m9.575 25.128 0.1905 0.7143"/>
   <path d="m9.7655 25.842 0.2381-1"/>
   <path d="m10.432 25.842h0.1905"/>
   <path d="m10.623 25.842 0.0953-0.0476"/>
   <path d="m10.718 25.795 0.0476-0.0476"/>
   <path d="m10.766 25.747 0.0952-0.1429"/>
   <path d="m10.861 25.604 0.0476-0.1905"/>
   <path d="m10.908 25.414v-0.3809"/>
   <path d="m10.908 25.033-0.0476-0.0952"/>
   <path d="m10.861 24.938-0.0476-0.0477"/>
   <path d="m10.813 24.89-0.0952-0.0476"/>
   <path d="m10.718 24.842h-0.1905"/>
   <path d="m10.527 24.842-0.0953 0.0476"/>
   <path d="m10.432 24.89-0.0476 0.0477"/>
   <path d="m10.384 24.938-0.0476 0.0952"/>
   <path d="m10.337 25.033v0.2381"/>
   <path d="m10.337 25.271 0.0476 0.0952"/>
   <path d="m10.384 25.366 0.0476 0.0476"/>
   <path d="m10.432 25.414 0.0953 0.0477"/>
   <path d="m10.527 25.461h0.1905"/>
   <path d="m10.718 25.461 0.0952-0.0477"/>
   <path d="m10.813 25.414 0.0476-0.0476"/>
   <path d="m10.861 25.366 0.0476-0.0952"/>
  </g>
  <text x="28.6250" y="2.0750" font-size="1.3333" opacity="0" stroke-opacity="0" text-anchor="middle" lengthAdjust="spacingAndGlyphs" textLength="4.2500">SW14</text>
  <g class="stroked-text">
   <desc>SW14</desc>
   <path d="m26.816 1.9822 0.1428 0.0476"/>
   <path d="m26.958 2.0298h0.2381"/>
   <path d="m27.196 2.0298 0.0953-0.0476"/>
   <path d="m27.292 1.9822 0.0476-0.0476"/>
   <path d="m27.339 1.9346 0.0476-0.0953"/>
   <path d="m27.387 1.8393v-0.0952"/>
   <path d="m27.387 1.7441-0.0476-0.0952"/>
   <path d="m27.339 1.6489-0.0476-0.0477"/>
   <path d="m27.292 1.6012-0.0953-0.0476"/>
   <path d="m27.196 1.5536-0.1904-0.0476"/>
   <path d="m27.006 1.506-0.0953-0.0476"/>
   <path d="m26.911 1.4584-0.0476-0.0476"/>
   <path d="m26.863 1.4108-0.0476-0.0953"/>
   <path d="m26.816 1.3155v-0.0952"/>
   <path d="m26.816 1.2203 0.0476-0.0952"/>
   <path d="m26.863 1.1251 0.0476-0.0477"/>
   <path d="m26.911 1.0774 0.0953-0.0476"/>
   <path d="m27.006 1.0298h0.238"/>
   <path d="m27.244 1.0298 0.1429 0.0476"/>
   <path d="m27.72 1.0298 0.2381 1"/>
   <path d="m27.958 2.0298 0.1905-0.7143"/>
   <path d="m28.149 1.3155 0.1905 0.7143"/>
   <path d="m28.339 2.0298 0.2381-1"/>
   <path d="m29.482 2.0298h-0.5714"/>
   <path d="m29.196 2.0298v-1"/>
   <path d="m29.196 1.0298-0.0952 0.1429"/>
   <path d="m29.101 1.1727-0.0952 0.0952"/>
   <path d="m29.006 1.2679-0.0953 0.0476"/>
   <path d="m30.339 1.3632v0.6666"/>
   <path d="m30.101 0.9822-0.2381 0.7143"/>
   <path d="m29.863 1.6965h0.619"/>
  </g>
  <text x="9.5750" y="68.7500" font-size="1.3333" opacity="0" stroke-opacity="0" text-anchor="middle" lengthAdjust="spacingAndGlyphs" textLength="3.2976">SW5</text>
  <g class="stroked-text">
   <desc>SW5</desc>
   <path d="m8.2417 68.657 0.1428 0.0476"/>
   <path d="m8.3845 68.705h0.2381"/>
   <path d="m8.6226 68.705 0.0953-0.0476"/>
   <path d="m8.7179 68.657 0.0476-0.0476"/>
   <path d="m8.7655 68.61 0.0476-0.0953"/>
   <path d="m8.8131 68.514v-0.0952"/>
   <path d="m8.8131 68.419-0.0476-0.0952"/>
   <path d="m8.7655 68.324-0.0476-0.0477"/>
   <path d="m8.7179 68.276-0.0953-0.0476"/>
   <path d="m8.6226 68.229-0.1905-0.0476"/>
   <path d="m8.4321 68.181-0.0952-0.0476"/>
   <path d="m8.3369 68.133-0.0476-0.0476"/>
   <path d="m8.2893 68.086-0.0476-0.0953"/>
   <path d="m8.2417 67.99v-0.0952"/>
   <path d="m8.2417 67.895 0.0476-0.0952"/>
   <path d="m8.2893 67.8 0.0476-0.0477"/>
   <path d="m8.3369 67.752 0.0952-0.0476"/>
   <path d="m8.4321 67.705h0.2381"/>
   <path d="m8.6702 67.705 0.1429 0.0476"/>
   <path d="m9.1464 67.705 0.2381 1"/>
   <path d="m9.3845 68.705 0.1905-0.7143"/>
   <path d="m9.575 67.99 0.1905 0.7143"/>
   <path d="m9.7655 68.705 0.2381-1"/>
   <path d="m10.861 67.705h-0.4762"/>
   <path d="m10.384 67.705-0.0476 0.4762"/>
   <path d="m10.337 68.181 0.0476-0.0476"/>
   <path d="m10.384 68.133 0.0953-0.0476"/>
   <path d="m10.48 68.086h0.2381"/>
   <path d="m10.718 68.086 0.0952 0.0476"/>
   <path d="m10.813 68.133 0.0476 0.0476"/>
   <path d="m10.861 68.181 0.0476 0.0952"/>
   <path d="m10.908 68.276v0.2381"/>
   <path d="m10.908 68.514-0.0476 0.0953"/>
   <path d="m10.861 68.61-0.0476 0.0476"/>
   <path d="m10.813 68.657-0.0952 0.0476"/>
   <path d="m10.718 68.705h-0.2381"/>
   <path d="m10.48 68.705-0.0953-0.0476"/>
   <path d="m10.384 68.657-0.0476-0.0476"/>
  </g>
  <text x="9.5750" y="2.0750" font-size="1.3333" opacity="0" stroke-opacity="0" text-anchor="middle" lengthAdjust="spacingAndGlyphs" textLength="4.2500">SW13</text>
  <g class="stroked-text">
   <desc>SW13</desc>
   <path d="m7.7655 1.9822 0.1428 0.0476"/>
   <path d="m7.9083 2.0298h0.2381"/>
   <path d="m8.1464 2.0298 0.0953-0.0476"/>
   <path d="m8.2417 1.9822 0.0476-0.0476"/>
   <path d="m8.2893 1.9346 0.0476-0.0953"/>
   <path d="m8.3369 1.8393v-0.0952"/>
   <path d="m8.3369 1.7441-0.0476-0.0952"/>
   <path d="m8.2893 1.6489-0.0476-0.0477"/>
   <path d="m8.2417 1.6012-0.0953-0.0476"/>
   <path d="m8.1464 1.5536-0.1904-0.0476"/>
   <path d="m7.956 1.506-0.0953-0.0476"/>
   <path d="m7.8607 1.4584-0.0476-0.0476"/>
   <path d="m7.8131 1.4108-0.0476-0.0953"/>
   <path d="m7.7655 1.3155v-0.0952"/>
   <path d="m7.7655 1.2203 0.0476-0.0952"/>
   <path d="m7.8131 1.1251 0.0476-0.0477"/>
   <path d="m7.8607 1.0774 0.0953-0.0476"/>
   <path d="m7.956 1.0298h0.238"/>
   <path d="m8.194 1.0298 0.1429 0.0476"/>
   <path d="m8.6702 1.0298 0.2381 1"/>
   <path d="m8.9083 2.0298 0.1905-0.7143"/>
   <path d="m9.0988 1.3155 0.1905 0.7143"/>
   <path d="m9.2893 2.0298 0.2381-1"/>
   <path d="m10.432 2.0298h-0.5714"/>
   <path d="m10.146 2.0298v-1"/>
   <path d="m10.146 1.0298-0.0952 0.1429"/>
   <path d="m10.051 1.1727-0.0952 0.0952"/>
   <path d="m9.956 1.2679-0.0953 0.0476"/>
   <path d="m10.766 1.0298h0.619"/>
   <path d="m11.384 1.0298-0.3333 0.381"/>
   <path d="m11.051 1.4108h0.1428"/>
   <path d="m11.194 1.4108 0.0953 0.0476"/>
   <path d="m11.289 1.4584 0.0476 0.0476"/>
   <path d="m11.337 1.506 0.0476 0.0952"/>
   <path d="m11.384 1.6012v0.2381"/>
   <path d="m11.384 1.8393-0.0476 0.0953"/>
   <path d="m11.337 1.9346-0.0476 0.0476"/>
   <path d="m11.289 1.9822-0.0953 0.0476"/>
   <path d="m11.194 2.0298h-0.2857"/>
   <path d="m10.908 2.0298-0.0952-0.0476"/>
   <path d="m10.813 1.9822-0.0476-0.0476"/>
  </g>
  <text x="47.6750" y="2.0750" font-size="1.3333" opacity="0" stroke-opacity="0" text-anchor="middle" lengthAdjust="spacingAndGlyphs" textLength="4.2500">SW15</text>
  <g class="stroked-text">
   <desc>SW15</desc>
   <path d="m45.866 1.9822 0.1428 0.0476"/>
   <path d="m46.008 2.0298h0.2381"/>
   <path d="m46.246 2.0298 0.0953-0.0476"/>
   <path d="m46.342 1.9822 0.0476-0.0476"/>
   <path d="m46.389 1.9346 0.0476-0.0953"/>
   <path d="m46.437 1.8393v-0.0952"/>
   <path d="m46.437 1.7441-0.0476-0.0952"/>
   <path d="m46.389 1.6489-0.0476-0.0477"/>
   <path d="m46.342 1.6012-0.0953-0.0476"/>
   <path d="m46.246 1.5536-0.1904-0.0476"/>
   <path d="m46.056 1.506-0.0953-0.0476"/>
   <path d="m45.961 1.4584-0.0476-0.0476"/>
   <path d="m45.913 1.4108-0.0476-0.0953"/>
   <path d="m45.866 1.3155v-0.0952"/>
   <path d="m45.866 1.2203 0.0476-0.0952"/>
   <path d="m45.913 1.1251 0.0476-0.0477"/>
   <path d="m45.961 1.0774 0.0953-0.0476"/>
   <path d="m46.056 1.0298h0.238"/>
   <path d="m46.294 1.0298 0.1429 0.0476"/>
   <path d="m46.77 1.0298 0.2381 1"/>
   <path d="m47.008 2.0298 0.1905-0.7143"/>
   <path d="m47.199 1.3155 0.1905 0.7143"/>
   <path d="m47.389 2.0298 0.2381-1"/>
   <path d="m48.532 2.0298h-0.5714"/>
   <path d="m48.246 2.0298v-1"/>
   <path d="m48.246 1.0298-0.0952 0.1429"/>
   <path d="m48.151 1.1727-0.0952 0.0952"/>
   <path d="m48.056 1.2679-0.0953 0.0476"/>
   <path d="m49.437 1.0298h-0.4762"/>
   <path d="m48.961 1.0298-0.0476 0.4762"/>
   <path d="m48.913 1.506 0.0476-0.0476"/>
   <path d="m48.961 1.4584 0.0953-0.0476"/>
   <path d="m49.056 1.4108h0.238"/>
   <path d="m49.294 1.4108 0.0953 0.0476"/>
   <path d="m49.389 1.4584 0.0476 0.0476"/>
   <path d="m49.437 1.506 0.0476 0.0952"/>
   <path d="m49.484 1.6012v0.2381"/>
   <path d="m49.484 1.8393-0.0476 0.0953"/>
   <path d="m49.437 1.9346-0.0476 0.0476"/>
   <path d="m49.389 1.9822-0.0953 0.0476"/>
   <path d="m49.294 2.0298h-0.238"/>
   <path d="m49.056 2.0298-0.0953-0.0476"/>
   <path d="m48.961 1.9822-0.0476-0.0476"/>
  </g>
  <text x="66.7250" y="25.8875" font-size="1.3333" opacity="0" stroke-opacity="0" text-anchor="middle" lengthAdjust="spacingAndGlyphs" textLength="4.2500">SW12</text>
  <g class="stroked-text">
   <desc>SW12</desc>
   <path d="m64.916 25.795 0.1428 0.0476"/>
   <path d="m65.058 25.842h0.2381"/>
   <path d="m65.296 25.842 0.0953-0.0476"/>
   <path d="m65.392 25.795 0.0476-0.0476"/>
   <path d="m65.439 25.747 0.0476-0.0953"/>
   <path d="m65.487 25.652v-0.0952"/>
   <path d="m65.487 25.557-0.0476-0.0952"/>
   <path d="m65.439 25.461-0.0476-0.0477"/>
   <path d="m65.392 25.414-0.0953-0.0476"/>
   <path d="m65.296 25.366-0.1904-0.0476"/>
   <path d="m65.106 25.318-0.0953-0.0476"/>
   <path d="m65.011 25.271-0.0476-0.0476"/>
   <path d="m64.963 25.223-0.0476-0.0953"/>
   <path d="m64.916 25.128v-0.0952"/>
   <path d="m64.916 25.033 0.0476-0.0952"/>
   <path d="m64.963 24.938 0.0476-0.0477"/>
   <path d="m65.011 24.89 0.0953-0.0476"/>
   <path d="m65.106 24.842h0.238"/>
   <path d="m65.344 24.842 0.1429 0.0476"/>
   <path d="m65.82 24.842 0.2381 1"/>
   <path d="m66.058 25.842 0.1905-0.7143"/>
   <path d="m66.249 25.128 0.1905 0.7143"/>
   <path d="m66.439 25.842 0.2381-1"/>
   <path d="m67.582 25.842h-0.5714"/>
   <path d="m67.296 25.842v-1"/>
   <path d="m67.296 24.842-0.0952 0.1429"/>
   <path d="m67.201 24.985-0.0952 0.0952"/>
   <path d="m67.106 25.08-0.0953 0.0476"/>
   <path d="m67.963 24.938 0.0476-0.0477"/>
   <path d="m68.011 24.89 0.0953-0.0476"/>
   <path d="m68.106 24.842h0.238"/>
   <path d="m68.344 24.842 0.0953 0.0476"/>
   <path d="m68.439 24.89 0.0476 0.0477"/>
   <path d="m68.487 24.938 0.0476 0.0952"/>
   <path d="m68.534 25.033v0.0952"/>
   <path d="m68.534 25.128-0.0476 0.1429"/>
   <path d="m68.487 25.271-0.5714 0.5714"/>
   <path d="m67.916 25.842h0.619"/>
  </g>
  <text x="47.6750" y="25.8875" font-size="1.3333" opacity="0" stroke-opacity="0" text-anchor="middle" lengthAdjust="spacingAndGlyphs" textLength="4.2500">SW11</text>
  <g class="stroked-text">
   <desc>SW11</desc>
   <path d="m45.866 25.795 0.1428 0.0476"/>
   <path d="m46.008 25.842h0.2381"/>
   <path d="m46.246 25.842 0.0953-0.0476"/>
   <path d="m46.342 25.795 0.0476-0.0476"/>
   <path d="m46.389 25.747 0.0476-0.0953"/>
   <path d="m46.437 25.652v-0.0952"/>
   <path d="m46.437 25.557-0.0476-0.0952"/>
   <path d="m46.389 25.461-0.0476-0.0477"/>
   <path d="m46.342 25.414-0.0953-0.0476"/>
   <path d="m46.246 25.366-0.1904-0.0476"/>
   <path d="m46.056 25.318-0.0953-0.0476"/>
   <path d="m45.961 25.271-0.0476-0.0476"/>
   <path d="m45.913 25.223-0.0476-0.0953"/>
   <path d="m45.866 25.128v-0.0952"/>
   <path d="m45.866 25.033 0.0476-0.0952"/>
   <path d="m45.913 24.938 0.0476-0.0477"/>
   <path d="m45.961 24.89 0.0953-0.0476"/>
   <path d="m46.056 24.842h0.238"/>
   <path d="m46.294 24.842 0.1429 0.0476"/>
   <path d="m46.77 24.842 0.2381 1"/>
   <path d="m47.008 25.842 0.1905-0.7143"/>
   <path d="m47.199 25.128 0.1905 0.7143"/>
   <path d="m47.389 25.842 0.2381-1"/>
   <path d="m48.532 25.842h-0.5714"/>
   <path d="m48.246 25.842v-1"/>
   <path d="m48.246 24.842-0.0952 0.1429"/>
   <path d="m48.151 24.985-0.0952 0.0952"/>
   <path d="m48.056 25.08-0.0953 0.0476"/>
   <path d="m49.484 25.842h-0.5714"/>
   <path d="m49.199 25.842v-1"/>
   <path d="m49.199 24.842-0.0952 0.1429"/>
   <path d="m49.104 24.985-0.0953 0.0952"/>
   <path d="m49.008 25.08-0.0952 0.0476"/>
  </g>
  <text x="47.6750" y="68.7500" font-size="1.3333" opacity="0" stroke-opacity="0" text-anchor="middle" lengthAdjust="spacingAndGlyphs" textLength="3.2976">SW7</text>
  <g class="stroked-text">
   <desc>SW7</desc>
   <path d="m46.342 68.657 0.1428 0.0476"/>
   <path d="m46.484 68.705h0.2381"/>
   <path d="m46.723 68.705 0.0953-0.0476"/>
   <path d="m46.818 68.657 0.0476-0.0476"/>
   <path d="m46.866 68.61 0.0476-0.0953"/>
   <path d="m46.913 68.514v-0.0952"/>
   <path d="m46.913 68.419-0.0476-0.0952"/>
   <path d="m46.866 68.324-0.0476-0.0477"/>
   <path d="m46.818 68.276-0.0953-0.0476"/>
   <path d="m46.723 68.229-0.1905-0.0476"/>
   <path d="m46.532 68.181-0.0952-0.0476"/>
   <path d="m46.437 68.133-0.0476-0.0476"/>
   <path d="m46.389 68.086-0.0476-0.0953"/>
   <path d="m46.342 67.99v-0.0952"/>
   <path d="m46.342 67.895 0.0476-0.0952"/>
   <path d="m46.389 67.8 0.0476-0.0477"/>
   <path d="m46.437 67.752 0.0952-0.0476"/>
   <path d="m46.532 67.705h0.2381"/>
   <path d="m46.77 67.705 0.1429 0.0476"/>
   <path d="m47.246 67.705 0.2381 1"/>
   <path d="m47.484 68.705 0.1905-0.7143"/>
   <path d="m47.675 67.99 0.1905 0.7143"/>
   <path d="m47.866 68.705 0.2381-1"/>
   <path d="m48.389 67.705h0.6667"/>
   <path d="m49.056 67.705-0.4286 1"/>
  </g>
  <text x="28.6250" y="49.7000" font-size="1.3333" opacity="0" stroke-opacity="0" text-anchor="middle" lengthAdjust="spacingAndGlyphs" textLength="3.2976">SW2</text>
  <g class="stroked-text">
   <desc>SW2</desc>
   <path d="m27.292 49.607 0.1428 0.0476"/>
   <path d="m27.434 49.655h0.2381"/>
   <path d="m27.673 49.655 0.0953-0.0476"/>
   <path d="m27.768 49.607 0.0476-0.0476"/>
   <path d="m27.816 49.56 0.0476-0.0953"/>
   <path d="m27.863 49.464v-0.0952"/>
   <path d="m27.863 49.369-0.0476-0.0952"/>
   <path d="m27.816 49.274-0.0476-0.0477"/>
   <path d="m27.768 49.226-0.0953-0.0476"/>
   <path d="m27.673 49.179-0.1905-0.0476"/>
   <path d="m27.482 49.131-0.0952-0.0476"/>
   <path d="m27.387 49.083-0.0476-0.0476"/>
   <path d="m27.339 49.036-0.0476-0.0953"/>
   <path d="m27.292 48.94v-0.0952"/>
   <path d="m27.292 48.845 0.0476-0.0952"/>
   <path d="m27.339 48.75 0.0476-0.0477"/>
   <path d="m27.387 48.702 0.0952-0.0476"/>
   <path d="m27.482 48.655h0.2381"/>
   <path d="m27.72 48.655 0.1429 0.0476"/>
   <path d="m28.196 48.655 0.2381 1"/>
   <path d="m28.434 49.655 0.1905-0.7143"/>
   <path d="m28.625 48.94 0.1905 0.7143"/>
   <path d="m28.816 49.655 0.2381-1"/>
   <path d="m29.387 48.75 0.0476-0.0477"/>
   <path d="m29.434 48.702 0.0953-0.0476"/>
   <path d="m29.53 48.655h0.2381"/>
   <path d="m29.768 48.655 0.0952 0.0476"/>
   <path d="m29.863 48.702 0.0476 0.0477"/>
   <path d="m29.911 48.75 0.0476 0.0952"/>
   <path d="m29.958 48.845v0.0952"/>
   <path d="m29.958 48.94-0.0476 0.1429"/>
   <path d="m29.911 49.083-0.5714 0.5714"/>
   <path d="m29.339 49.655h0.619"/>
  </g>
  <text x="47.6750" y="49.7000" font-size="1.3333" opacity="0" stroke-opacity="0" text-anchor="middle" lengthAdjust="spacingAndGlyphs" textLength="3.2976">SW3</text>
  <g class="stroked-text">
   <desc>SW3</desc>
   <path d="m46.342 49.607 0.1428 0.0476"/>
   <path d="m46.484 49.655h0.2381"/>
   <path d="m46.723 49.655 0.0953-0.0476"/>
   <path d="m46.818 49.607 0.0476-0.0476"/>
   <path d="m46.866 49.56 0.0476-0.0953"/>
   <path d="m46.913 49.464v-0.0952"/>
   <path d="m46.913 49.369-0.0476-0.0952"/>
   <path d="m46.866 49.274-0.0476-0.0477"/>
   <path d="m46.818 49.226-0.0953-0.0476"/>
   <path d="m46.723 49.179-0.1905-0.0476"/>
   <path d="m46.532 49.131-0.0952-0.0476"/>
   <path d="m46.437 49.083-0.0476-0.0476"/>
   <path d="m46.389 49.036-0.0476-0.0953"/>
   <path d="m46.342 48.94v-0.0952"/>
   <path d="m46.342 48.845 0.0476-0.0952"/>
   <path d="m46.389 48.75 0.0476-0.0477"/>
   <path d="m46.437 48.702 0.0952-0.0476"/>
   <path d="m46.532 48.655h0.2381"/>
   <path d="m46.77 48.655 0.1429 0.0476"/>
   <path d="m47.246 48.655 0.2381 1"/>
   <path d="m47.484 49.655 0.1905-0.7143"/>
   <path d="m47.675 48.94 0.1905 0.7143"/>
   <path d="m47.866 49.655 0.2381-1"/>
   <path d="m48.389 48.655h0.619"/>
   <path d="m49.008 48.655-0.3333 0.381"/>
   <path d="m48.675 49.036h0.1429"/>
   <path d="m48.818 49.036 0.0952 0.0476"/>
   <path d="m48.913 49.083 0.0476 0.0476"/>
   <path d="m48.961 49.131 0.0476 0.0952"/>
   <path d="m49.008 49.226v0.2381"/>
   <path d="m49.008 49.464-0.0476 0.0953"/>
   <path d="m48.961 49.56-0.0476 0.0476"/>
   <path d="m48.913 49.607-0.0952 0.0476"/>
   <path d="m48.818 49.655h-0.2858"/>
   <path d="m48.532 49.655-0.0952-0.0476"/>
   <path d="m48.437 49.607-0.0476-0.0476"/>
  </g>
  <text x="28.6250" y="25.8875" font-size="1.3333" opacity="0" stroke-opacity="0" text-anchor="middle" lengthAdjust="spacingAndGlyphs" textLength="4.2500">SW10</text>
  <g class="stroked-text">
   <desc>SW10</desc>
   <path d="m26.816 25.795 0.1428 0.0476"/>
   <path d="m26.958 25.842h0.2381"/>
   <path d="m27.196 25.842 0.0953-0.0476"/>
   <path d="m27.292 25.795 0.0476-0.0476"/>
   <path d="m27.339 25.747 0.0476-0.0953"/>
   <path d="m27.387 25.652v-0.0952"/>
   <path d="m27.387 25.557-0.0476-0.0952"/>
   <path d="m27.339 25.461-0.0476-0.0477"/>
   <path d="m27.292 25.414-0.0953-0.0476"/>
   <path d="m27.196 25.366-0.1904-0.0476"/>
   <path d="m27.006 25.318-0.0953-0.0476"/>
   <path d="m26.911 25.271-0.0476-0.0476"/>
   <path d="m26.863 25.223-0.0476-0.0953"/>
   <path d="m26.816 25.128v-0.0952"/>
   <path d="m26.816 25.033 0.0476-0.0952"/>
   <path d="m26.863 24.938 0.0476-0.0477"/>
   <path d="m26.911 24.89 0.0953-0.0476"/>
   <path d="m27.006 24.842h0.238"/>
   <path d="m27.244 24.842 0.1429 0.0476"/>
   <path d="m27.72 24.842 0.2381 1"/>
   <path d="m27.958 25.842 0.1905-0.7143"/>
   <path d="m28.149 25.128 0.1905 0.7143"/>
   <path d="m28.339 25.842 0.2381-1"/>
   <path d="m29.482 25.842h-0.5714"/>
   <path d="m29.196 25.842v-1"/>
   <path d="m29.196 24.842-0.0952 0.1429"/>
   <path d="m29.101 24.985-0.0952 0.0952"/>
   <path d="m29.006 25.08-0.0953 0.0476"/>
   <path d="m30.101 24.842h0.0952"/>
   <path d="m30.196 24.842 0.0953 0.0476"/>
   <path d="m30.292 24.89 0.0476 0.0477"/>
   <path d="m30.339 24.938 0.0476 0.0952"/>
   <path d="m30.387 25.033 0.0476 0.1905"/>
   <path d="m30.434 25.223v0.2381"/>
   <path d="m30.434 25.461-0.0476 0.1904"/>
   <path d="m30.387 25.652-0.0476 0.0953"/>
   <path d="m30.339 25.747-0.0476 0.0476"/>
   <path d="m30.292 25.795-0.0953 0.0476"/>
   <path d="m30.196 25.842h-0.0952"/>
   <path d="m30.101 25.842-0.0952-0.0476"/>
   <path d="m30.006 25.795-0.0477-0.0476"/>
   <path d="m29.958 25.747-0.0476-0.0953"/>
   <path d="m29.911 25.652-0.0476-0.1904"/>
   <path d="m29.863 25.461v-0.2381"/>
   <path d="m29.863 25.223 0.0476-0.1905"/>
   <path d="m29.911 25.033 0.0476-0.0952"/>
   <path d="m29.958 24.938 0.0477-0.0477"/>
   <path d="m30.006 24.89 0.0952-0.0476"/>
  </g>
  <text x="28.6250" y="68.7500" font-size="1.3333" opacity="0" stroke-opacity="0" text-anchor="middle" lengthAdjust="spacingAndGlyphs" textLength="3.2976">SW6</text>
  <g class="stroked-text">
   <desc>SW6</desc>
   <path d="m27.292 68.657 0.1428 0.0476"/>
   <path d="m27.434 68.705h0.2381"/>
   <path d="m27.673 68.705 0.0953-0.0476"/>
   <path d="m27.768 68.657 0.0476-0.0476"/>
   <path d="m27.816 68.61 0.0476-0.0953"/>
   <path d="m27.863 68.514v-0.0952"/>
   <path d="m27.863 68.419-0.0476-0.0952"/>
   <path d="m27.816 68.324-0.0476-0.0477"/>
   <path d="m27.768 68.276-0.0953-0.0476"/>
   <path d="m27.673 68.229-0.1905-0.0476"/>
   <path d="m27.482 68.181-0.0952-0.0476"/>
   <path d="m27.387 68.133-0.0476-0.0476"/>
   <path d="m27.339 68.086-0.0476-0.0953"/>
   <path d="m27.292 67.99v-0.0952"/>
   <path d="m27.292 67.895 0.0476-0.0952"/>
   <path d="m27.339 67.8 0.0476-0.0477"/>
   <path d="m27.387 67.752 0.0952-0.0476"/>
   <path d="m27.482 67.705h0.2381"/>
   <path d="m27.72 67.705 0.1429 0.0476"/>
   <path d="m28.196 67.705 0.2381 1"/>
   <path d="m28.434 68.705 0.1905-0.7143"/>
   <path d="m28.625 67.99 0.1905 0.7143"/>
   <path d="m28.816 68.705 0.2381-1"/>
   <path d="m29.863 67.705h-0.1905"/>
   <path d="m29.673 67.705-0.0952 0.0476"/>
   <path d="m29.577 67.752-0.0476 0.0477"/>
   <path d="m29.53 67.8-0.0953 0.1428"/>
   <path d="m29.434 67.943-0.0476 0.1905"/>
   <path d="m29.387 68.133v0.3809"/>
   <path d="m29.387 68.514 0.0476 0.0953"/>
   <path d="m29.434 68.61 0.0476 0.0476"/>
   <path d="m29.482 68.657 0.0953 0.0476"/>
   <path d="m29.577 68.705h0.1905"/>
   <path d="m29.768 68.705 0.0952-0.0476"/>
   <path d="m29.863 68.657 0.0476-0.0476"/>
   <path d="m29.911 68.61 0.0476-0.0953"/>
   <path d="m29.958 68.514v-0.2381"/>
   <path d="m29.958 68.276-0.0476-0.0952"/>
   <path d="m29.911 68.181-0.0476-0.0476"/>
   <path d="m29.863 68.133-0.0952-0.0476"/>
   <path d="m29.768 68.086h-0.1905"/>
   <path d="m29.577 68.086-0.0953 0.0476"/>
   <path d="m29.482 68.133-0.0476 0.0476"/>
   <path d="m29.434 68.181-0.0476 0.0952"/>
  </g>
  <text x="66.7250" y="49.7000" font-size="1.3333" opacity="0" stroke-opacity="0" text-anchor="middle" lengthAdjust="spacingAndGlyphs" textLength="3.2976">SW4</text>
  <g class="stroked-text">
   <desc>SW4</desc>
   <path d="m65.392 49.607 0.1428 0.0476"/>
   <path d="m65.534 49.655h0.2381"/>
   <path d="m65.773 49.655 0.0953-0.0476"/>
   <path d="m65.868 49.607 0.0476-0.0476"/>
   <path d="m65.916 49.56 0.0476-0.0953"/>
   <path d="m65.963 49.464v-0.0952"/>
   <path d="m65.963 49.369-0.0476-0.0952"/>
   <path d="m65.916 49.274-0.0476-0.0477"/>
   <path d="m65.868 49.226-0.0953-0.0476"/>
   <path d="m65.773 49.179-0.1905-0.0476"/>
   <path d="m65.582 49.131-0.0952-0.0476"/>
   <path d="m65.487 49.083-0.0476-0.0476"/>
   <path d="m65.439 49.036-0.0476-0.0953"/>
   <path d="m65.392 48.94v-0.0952"/>
   <path d="m65.392 48.845 0.0476-0.0952"/>
   <path d="m65.439 48.75 0.0476-0.0477"/>
   <path d="m65.487 48.702 0.0952-0.0476"/>
   <path d="m65.582 48.655h0.2381"/>
   <path d="m65.82 48.655 0.1429 0.0476"/>
   <path d="m66.296 48.655 0.2381 1"/>
   <path d="m66.534 49.655 0.1905-0.7143"/>
   <path d="m66.725 48.94 0.1905 0.7143"/>
   <path d="m66.916 49.655 0.2381-1"/>
   <path d="m67.963 48.988v0.6666"/>
   <path d="m67.725 48.607-0.2381 0.7143"/>
   <path d="m67.487 49.322h0.6191"/>
  </g>
  <text x="66.7250" y="2.0750" font-size="1.3333" opacity="0" stroke-opacity="0" text-anchor="middle" lengthAdjust="spacingAndGlyphs" textLength="4.2500">SW16</text>
  <g class="stroked-text">
   <desc>SW16</desc>
   <path d="m64.916 1.9822 0.1428 0.0476"/>
   <path d="m65.058 2.0298h0.2381"/>
   <path d="m65.296 2.0298 0.0953-0.0476"/>
   <path d="m65.392 1.9822 0.0476-0.0476"/>
   <path d="m65.439 1.9346 0.0476-0.0953"/>
   <path d="m65.487 1.8393v-0.0952"/>
   <path d="m65.487 1.7441-0.0476-0.0952"/>
   <path d="m65.439 1.6489-0.0476-0.0477"/>
   <path d="m65.392 1.6012-0.0953-0.0476"/>
   <path d="m65.296 1.5536-0.1904-0.0476"/>
   <path d="m65.106 1.506-0.0953-0.0476"/>
   <path d="m65.011 1.4584-0.0476-0.0476"/>
   <path d="m64.963 1.4108-0.0476-0.0953"/>
   <path d="m64.916 1.3155v-0.0952"/>
   <path d="m64.916 1.2203 0.0476-0.0952"/>
   <path d="m64.963 1.1251 0.0476-0.0477"/>
   <path d="m65.011 1.0774 0.0953-0.0476"/>
   <path d="m65.106 1.0298h0.238"/>
   <path d="m65.344 1.0298 0.1429 0.0476"/>
   <path d="m65.82 1.0298 0.2381 1"/>
   <path d="m66.058 2.0298 0.1905-0.7143"/>
   <path d="m66.249 1.3155 0.1905 0.7143"/>
   <path d="m66.439 2.0298 0.2381-1"/>
   <path d="m67.582 2.0298h-0.5714"/>
   <path d="m67.296 2.0298v-1"/>
   <path d="m67.296 1.0298-0.0952 0.1429"/>
   <path d="m67.201 1.1727-0.0952 0.0952"/>
   <path d="m67.106 1.2679-0.0953 0.0476"/>
   <path d="m68.439 1.0298h-0.1905"/>
   <path d="m68.249 1.0298-0.0952 0.0476"/>
   <path d="m68.154 1.0774-0.0476 0.0477"/>
   <path d="m68.106 1.1251-0.0953 0.1428"/>
   <path d="m68.011 1.2679-0.0476 0.1905"/>
   <path d="m67.963 1.4584v0.3809"/>
   <path d="m67.963 1.8393 0.0476 0.0953"/>
   <path d="m68.011 1.9346 0.0476 0.0476"/>
   <path d="m68.058 1.9822 0.0953 0.0476"/>
   <path d="m68.154 2.0298h0.1904"/>
   <path d="m68.344 2.0298 0.0953-0.0476"/>
   <path d="m68.439 1.9822 0.0476-0.0476"/>
   <path d="m68.487 1.9346 0.0476-0.0953"/>
   <path d="m68.534 1.8393v-0.2381"/>
   <path d="m68.534 1.6012-0.0476-0.0952"/>
   <path d="m68.487 1.506-0.0476-0.0476"/>
   <path d="m68.439 1.4584-0.0953-0.0476"/>
   <path d="m68.344 1.4108h-0.1904"/>
   <path d="m68.154 1.4108-0.0953 0.0476"/>
   <path d="m68.058 1.4584-0.0476 0.0476"/>
   <path d="m68.011 1.506-0.0476 0.0952"/>
  </g>
  <text x="9.5750" y="49.7000" font-size="1.3333" opacity="0" stroke-opacity="0" text-anchor="middle" lengthAdjust="spacingAndGlyphs" textLength="3.2976">SW1</text>
  <g class="stroked-text">
   <desc>SW1</desc>
   <path d="m8.2417 49.607 0.1428 0.0476"/>
   <path d="m8.3845 49.655h0.2381"/>
   <path d="m8.6226 49.655 0.0953-0.0476"/>
   <path d="m8.7179 49.607 0.0476-0.0476"/>
   <path d="m8.7655 49.56 0.0476-0.0953"/>
   <path d="m8.8131 49.464v-0.0952"/>
   <path d="m8.8131 49.369-0.0476-0.0952"/>
   <path d="m8.7655 49.274-0.0476-0.0477"/>
   <path d="m8.7179 49.226-0.0953-0.0476"/>
   <path d="m8.6226 49.179-0.1905-0.0476"/>
   <path d="m8.4321 49.131-0.0952-0.0476"/>
   <path d="m8.3369 49.083-0.0476-0.0476"/>
   <path d="m8.2893 49.036-0.0476-0.0953"/>
   <path d="m8.2417 48.94v-0.0952"/>
   <path d="m8.2417 48.845 0.0476-0.0952"/>
   <path d="m8.2893 48.75 0.0476-0.0477"/>
   <path d="m8.3369 48.702 0.0952-0.0476"/>
   <path d="m8.4321 48.655h0.2381"/>
   <path d="m8.6702 48.655 0.1429 0.0476"/>
   <path d="m9.1464 48.655 0.2381 1"/>
   <path d="m9.3845 49.655 0.1905-0.7143"/>
   <path d="m9.575 48.94 0.1905 0.7143"/>
   <path d="m9.7655 49.655 0.2381-1"/>
   <path d="m10.908 49.655h-0.5714"/>
   <path d="m10.623 49.655v-1"/>
   <path d="m10.623 48.655-0.0952 0.1429"/>
   <path d="m10.527 48.798-0.0953 0.0952"/>
   <path d="m10.432 48.893-0.0952 0.0476"/>
  </g>
  <text x="66.7250" y="68.7500" font-size="1.3333" opacity="0" stroke-opacity="0" text-anchor="middle" lengthAdjust="spacingAndGlyphs" textLength="3.2976">SW8</text>
  <g class="stroked-text">
   <desc>SW8</desc>
   <path d="m65.392 68.657 0.1428 0.0476"/>
   <path d="m65.534 68.705h0.2381"/>
   <path d="m65.773 68.705 0.0953-0.0476"/>
   <path d="m65.868 68.657 0.0476-0.0476"/>
   <path d="m65.916 68.61 0.0476-0.0953"/>
   <path d="m65.963 68.514v-0.0952"/>
   <path d="m65.963 68.419-0.0476-0.0952"/>
   <path d="m65.916 68.324-0.0476-0.0477"/>
   <path d="m65.868 68.276-0.0953-0.0476"/>
   <path d="m65.773 68.229-0.1905-0.0476"/>
   <path d="m65.582 68.181-0.0952-0.0476"/>
   <path d="m65.487 68.133-0.0476-0.0476"/>
   <path d="m65.439 68.086-0.0476-0.0953"/>
   <path d="m65.392 67.99v-0.0952"/>
   <path d="m65.392 67.895 0.0476-0.0952"/>
   <path d="m65.439 67.8 0.0476-0.0477"/>
   <path d="m65.487 67.752 0.0952-0.0476"/>
   <path d="m65.582 67.705h0.2381"/>
   <path d="m65.82 67.705 0.1429 0.0476"/>
   <path d="m66.296 67.705 0.2381 1"/>
   <path d="m66.534 68.705 0.1905-0.7143"/>
   <path d="m66.725 67.99 0.1905 0.7143"/>
   <path d="m66.916 68.705 0.2381-1"/>
   <path d="m67.677 68.133-0.0953-0.0476"/>
   <path d="m67.582 68.086-0.0476-0.0476"/>
   <path d="m67.534 68.038-0.0476-0.0953"/>
   <path d="m67.487 67.943v-0.0476"/>
   <path d="m67.487 67.895 0.0476-0.0952"/>
   <path d="m67.534 67.8 0.0476-0.0477"/>
   <path d="m67.582 67.752 0.0953-0.0476"/>
   <path d="m67.677 67.705h0.1905"/>
   <path d="m67.868 67.705 0.0952 0.0476"/>
   <path d="m67.963 67.752 0.0476 0.0477"/>
   <path d="m68.011 67.8 0.0476 0.0952"/>
   <path d="m68.058 67.895v0.0476"/>
   <path d="m68.058 67.943-0.0476 0.0953"/>
   <path d="m68.011 68.038-0.0476 0.0476"/>
   <path d="m67.963 68.086-0.0952 0.0476"/>
   <path d="m67.868 68.133h-0.1905"/>
   <path d="m67.677 68.133-0.0953 0.0476"/>
   <path d="m67.582 68.181-0.0476 0.0476"/>
   <path d="m67.534 68.229-0.0476 0.0953"/>
   <path d="m67.487 68.324v0.1904"/>
   <path d="m67.487 68.514 0.0476 0.0953"/>
   <path d="m67.534 68.61 0.0476 0.0476"/>
   <path d="m67.582 68.657 0.0953 0.0476"/>
   <path d="m67.677 68.705h0.1905"/>
   <path d="m67.868 68.705 0.0952-0.0476"/>
   <path d="m67.963 68.657 0.0476-0.0476"/>
   <path d="m68.011 68.61 0.0476-0.0953"/>
   <path d="m68.058 68.514v-0.1904"/>
   <path d="m68.058 68.324-0.0476-0.0953"/>
   <path d="m68.011 68.229-0.0476-0.0476"/>
   <path d="m67.963 68.181-0.0952-0.0476"/>
  </g>
 </g>
 <g fill="none" stroke="#8BE9FD" stroke-linecap="round" stroke-linejoin="round" stroke-width=".12">
  <path d="m2.475 26.288v14.2"/>
  <path d="m2.475 40.488h14.2"/>
  <path d="m16.675 26.288h-14.2"/>
  <path d="m16.675 40.488v-14.2"/>
  <path d="m21.525 2.475v14.2"/>
  <path d="m21.525 16.675h14.2"/>
  <path d="m35.725 2.475h-14.2"/>
  <path d="m35.725 16.675v-14.2"/>
  <path d="m2.475 69.15v14.2"/>
  <path d="m2.475 83.35h14.2"/>
  <path d="m16.675 69.15h-14.2"/>
  <path d="m16.675 83.35v-14.2"/>
  <path d="m2.475 2.475v14.2"/>
  <path d="m2.475 16.675h14.2"/>
  <path d="m16.675 2.475h-14.2"/>
  <path d="m16.675 16.675v-14.2"/>
  <path d="m40.575 2.475v14.2"/>
  <path d="m40.575 16.675h14.2"/>
  <path d="m54.775 2.475h-14.2"/>
  <path d="m54.775 16.675v-14.2"/>
  <path d="m59.625 26.288v14.2"/>
  <path d="m59.625 40.488h14.2"/>
  <path d="m73.825 26.288h-14.2"/>
  <path d="m73.825 40.488v-14.2"/>
  <path d="m40.575 26.288v14.2"/>
  <path d="m40.575 40.488h14.2"/>
  <path d="m54.775 26.288h-14.2"/>
  <path d="m54.775 40.488v-14.2"/>
  <path d="m40.575 69.15v14.2"/>
  <path d="m40.575 83.35h14.2"/>
  <path d="m54.775 69.15h-14.2"/>
  <path d="m54.775 83.35v-14.2"/>
  <path d="m21.525 50.1v14.2"/>
  <path d="m21.525 64.3h14.2"/>
  <path d="m35.725 50.1h-14.2"/>
  <path d="m35.725 64.3v-14.2"/>
  <path d="m40.575 50.1v14.2"/>
  <path d="m40.575 64.3h14.2"/>
  <path d="m54.775 50.1h-14.2"/>
  <path d="m54.775 64.3v-14.2"/>
  <path d="m21.525 26.288v14.2"/>
  <path d="m21.525 40.488h14.2"/>
  <path d="m35.725 26.288h-14.2"/>
  <path d="m35.725 40.488v-14.2"/>
  <path d="m21.525 69.15v14.2"/>
  <path d="m21.525 83.35h14.2"/>
  <path d="m35.725 69.15h-14.2"/>
  <path d="m35.725 83.35v-14.2"/>
  <path d="m59.625 50.1v14.2"/>
  <path d="m59.625 64.3h14.2"/>
  <path d="m73.825 50.1h-14.2"/>
  <path d="m73.825 64.3v-14.2"/>
  <path d="m59.625 2.475v14.2"/>
  <path d="m59.625 16.675h14.2"/>
  <path d="m73.825 2.475h-14.2"/>
  <path d="m73.825 16.675v-14.2"/>
  <path d="m2.475 50.1v14.2"/>
  <path d="m2.475 64.3h14.2"/>
  <path d="m16.675 50.1h-14.2"/>
  <path d="m16.675 64.3v-14.2"/>
  <path d="m59.625 69.15v14.2"/>
  <path d="m59.625 83.35h14.2"/>
  <path d="m73.825 69.15h-14.2"/>
  <path d="m73.825 83.35v-14.2"/>
 </g>
 <g fill="#8BE9FD">
  <circle cx="4.495" cy="33.388" r=".875"/>
  <circle cx="9.575" cy="33.388" r="2"/>
  <circle cx="14.655" cy="33.388" r=".875"/>
  <circle cx="5.765" cy="30.848" r=".75"/>
  <circle cx="12.115" cy="28.308" r=".75"/>
  <circle cx="23.545" cy="9.575" r=".875"/>
  <circle cx="28.625" cy="9.575" r="2"/>
  <circle cx="33.705" cy="9.575" r=".875"/>
  <circle cx="24.815" cy="7.035" r=".75"/>
  <circle cx="31.165" cy="4.495" r=".75"/>
  <circle cx="4.495" cy="76.25" r=".875"/>
  <circle cx="9.575" cy="76.25" r="2"/>
  <circle cx="14.655" cy="76.25" r=".875"/>
  <circle cx="5.765" cy="73.71" r=".75"/>
  <circle cx="12.115" cy="71.17" r=".75"/>
  <circle cx="4.495" cy="9.575" r=".875"/>
  <circle cx="9.575" cy="9.575" r="2"/>
  <circle cx="14.655" cy="9.575" r=".875"/>
  <circle cx="5.765" cy="7.035" r=".75"/>
  <circle cx="12.115" cy="4.495" r=".75"/>
  <circle cx="42.595" cy="9.575" r=".875"/>
  <circle cx="47.675" cy="9.575" r="2"/>
  <circle cx="52.755" cy="9.575" r=".875"/>
  <circle cx="43.865" cy="7.035" r=".75"/>
  <circle cx="50.215" cy="4.495" r=".75"/>
  <circle cx="61.645" cy="33.388" r=".875"/>
  <circle cx="66.725" cy="33.388" r="2"/>
  <circle cx="71.805" cy="33.388" r=".875"/>
  <circle cx="62.915" cy="30.848" r=".75"/>
  <circle cx="69.265" cy="28.308" r=".75"/>
  <circle cx="42.595" cy="33.388" r=".875"/>
  <circle cx="47.675" cy="33.388" r="2"/>
  <circle cx="52.755" cy="33.388" r=".875"/>
  <circle cx="43.865" cy="30.848" r=".75"/>
  <circle cx="50.215" cy="28.308" r=".75"/>
  <circle cx="42.595" cy="76.25" r=".875"/>
  <circle cx="47.675" cy="76.25" r="2"/>
  <circle cx="52.755" cy="76.25" r=".875"/>
  <circle cx="43.865" cy="73.71" r=".75"/>
  <circle cx="50.215" cy="71.17" r=".75"/>
  <circle cx="23.545" cy="57.2" r=".875"/>
  <circle cx="28.625" cy="57.2" r="2"/>
  <circle cx="33.705" cy="57.2" r=".875"/>
  <circle cx="24.815" cy="54.66" r=".75"/>
  <circle cx="31.165" cy="52.12" r=".75"/>
  <circle cx="42.595" cy="57.2" r=".875"/>
  <circle cx="47.675" cy="57.2" r="2"/>
  <circle cx="52.755" cy="57.2" r=".875"/>
  <circle cx="43.865" cy="54.66" r=".75"/>
  <circle cx="50.215" cy="52.12" r=".75"/>
  <circle cx="23.545" cy="33.388" r=".875"/>
  <circle cx="28.625" cy="33.388" r="2"/>
  <circle cx="33.705" cy="33.388" r=".875"/>
  <circle cx="24.815" cy="30.848" r=".75"/>
  <circle cx="31.165" cy="28.308" r=".75"/>
  <circle cx="23.545" cy="76.25" r=".875"/>
  <circle cx="28.625" cy="76.25" r="2"/>
  <circle cx="33.705" cy="76.25" r=".875"/>
  <circle cx="24.815" cy="73.71" r=".75"/>
  <circle cx="31.165" cy="71.17" r=".75"/>
  <circle cx="61.645" cy="57.2" r=".875"/>
  <circle cx="66.725" cy="57.2" r="2"/>
  <circle cx="71.805" cy="57.2" r=".875"/>
  <circle cx="62.915" cy="54.66" r=".75"/>
  <circle cx="69.265" cy="52.12" r=".75"/>
  <circle cx="61.645" cy="9.575" r=".875"/>
  <circle cx="66.725" cy="9.575" r="2"/>
  <circle cx="71.805" cy="9.575" r=".875"/>
  <circle cx="62.915" cy="7.035" r=".75"/>
  <circle cx="69.265" cy="4.495" r=".75"/>
  <circle cx="4.495" cy="57.2" r=".875"/>
  <circle cx="9.575" cy="57.2" r="2"/>
  <circle cx="14.655" cy="57.2" r=".875"/>
  <circle cx="5.765" cy="54.66" r=".75"/>
  <circle cx="12.115" cy="52.12" r=".75"/>
  <circle cx="61.645" cy="76.25" r=".875"/>
  <circle cx="66.725" cy="76.25" r="2"/>
  <circle cx="71.805" cy="76.25" r=".875"/>
  <circle cx="62.915" cy="73.71" r=".75"/>
  <circle cx="69.265" cy="71.17" r=".75"/>
 </g>
 <g fill="none" stroke="#BD93F9" stroke-linecap="round" stroke-linejoin="round" stroke-width=".15">
  <g transform="rotate(-90 54.66 61.327)">
   <text transform="scale(-1 1) translate(-109.32)" x="54.6600" y="61.8270" font-size="1.3333" opacity="0" stroke-opacity="0" text-anchor="middle" lengthAdjust="spacingAndGlyphs" textLength="2.2024">D3</text>
  </g>
  <g class="stroked-text">
   <desc>D3</desc>
   <path d="m55.115 60.589h-1"/>
   <path d="m54.115 60.589v0.2381"/>
   <path d="m54.115 60.827 0.0476 0.1429"/>
   <path d="m54.162 60.97 0.0953 0.0952"/>
   <path d="m54.258 61.065 0.0952 0.0476"/>
   <path d="m54.353 61.113 0.1905 0.0476"/>
   <path d="m54.543 61.16h0.1428"/>
   <path d="m54.686 61.16 0.1905-0.0476"/>
   <path d="m54.877 61.113 0.0953-0.0476"/>
   <path d="m54.972 61.065 0.0952-0.0952"/>
   <path d="m55.067 60.97 0.0476-0.1429"/>
   <path d="m55.115 60.827v-0.2381"/>
   <path d="m54.115 61.494v0.619"/>
   <path d="m54.115 62.113 0.381-0.3333"/>
   <path d="m54.496 61.779v0.1428"/>
   <path d="m54.496 61.922 0.0476 0.0953"/>
   <path d="m54.543 62.018 0.0476 0.0476"/>
   <path d="m54.591 62.065 0.0952 0.0476"/>
   <path d="m54.686 62.113h0.2381"/>
   <path d="m54.924 62.113 0.0953-0.0476"/>
   <path d="m55.02 62.065 0.0476-0.0476"/>
   <path d="m55.067 62.018 0.0476-0.0953"/>
   <path d="m55.115 61.922v-0.2857"/>
   <path d="m55.115 61.636-0.0476-0.0952"/>
   <path d="m55.067 61.541-0.0476-0.0476"/>
  </g>
  <g transform="rotate(-90 73.71 61.327)">
   <text transform="scale(-1 1) translate(-147.42)" x="73.7100" y="61.8270" font-size="1.3333" opacity="0" stroke-opacity="0" text-anchor="middle" lengthAdjust="spacingAndGlyphs" textLength="2.2024">D4</text>
  </g>
  <g class="stroked-text">
   <desc>D4</desc>
   <path d="m74.165 60.589h-1"/>
   <path d="m73.165 60.589v0.2381"/>
   <path d="m73.165 60.827 0.0476 0.1429"/>
   <path d="m73.212 60.97 0.0953 0.0952"/>
   <path d="m73.308 61.065 0.0952 0.0476"/>
   <path d="m73.403 61.113 0.1905 0.0476"/>
   <path d="m73.593 61.16h0.1428"/>
   <path d="m73.736 61.16 0.1905-0.0476"/>
   <path d="m73.927 61.113 0.0953-0.0476"/>
   <path d="m74.022 61.065 0.0952-0.0952"/>
   <path d="m74.117 60.97 0.0476-0.1429"/>
   <path d="m74.165 60.827v-0.2381"/>
   <path d="m73.498 62.018h0.6666"/>
   <path d="m73.117 61.779 0.7143-0.2381"/>
   <path d="m73.832 61.541v0.619"/>
  </g>
  <g transform="rotate(-90 73.71 13.702)">
   <text transform="scale(-1 1) translate(-147.42)" x="73.7100" y="14.2020" font-size="1.3333" opacity="0" stroke-opacity="0" text-anchor="middle" lengthAdjust="spacingAndGlyphs" textLength="3.1548">D16</text>
  </g>
  <g class="stroked-text">
   <desc>D16</desc>
   <path d="m74.165 12.488h-1"/>
   <path d="m73.165 12.488v0.2381"/>
   <path d="m73.165 12.726 0.0476 0.1429"/>
   <path d="m73.212 12.869 0.0953 0.0952"/>
   <path d="m73.308 12.964 0.0952 0.0476"/>
   <path d="m73.403 13.012 0.1905 0.0476"/>
   <path d="m73.593 13.059h0.1428"/>
   <path d="m73.736 13.059 0.1905-0.0476"/>
   <path d="m73.927 13.012 0.0953-0.0476"/>
   <path d="m74.022 12.964 0.0952-0.0952"/>
   <path d="m74.117 12.869 0.0476-0.1429"/>
   <path d="m74.165 12.726v-0.2381"/>
   <path d="m74.165 14.012v-0.5714"/>
   <path d="m74.165 13.726h-1"/>
   <path d="m73.165 13.726 0.1429-0.0952"/>
   <path d="m73.308 13.631 0.0952-0.0953"/>
   <path d="m73.403 13.535 0.0476-0.0952"/>
   <path d="m73.165 14.869v-0.1905"/>
   <path d="m73.165 14.678 0.0476-0.0952"/>
   <path d="m73.212 14.583 0.0477-0.0477"/>
   <path d="m73.26 14.535 0.1428-0.0952"/>
   <path d="m73.403 14.44 0.1905-0.0476"/>
   <path d="m73.593 14.392h0.3809"/>
   <path d="m73.974 14.392 0.0953 0.0476"/>
   <path d="m74.07 14.44 0.0476 0.0476"/>
   <path d="m74.117 14.488 0.0476 0.0953"/>
   <path d="m74.165 14.583v0.1904"/>
   <path d="m74.165 14.773-0.0476 0.0953"/>
   <path d="m74.117 14.869-0.0476 0.0476"/>
   <path d="m74.07 14.916-0.0953 0.0476"/>
   <path d="m73.974 14.964h-0.2381"/>
   <path d="m73.736 14.964-0.0952-0.0476"/>
   <path d="m73.641 14.916-0.0476-0.0476"/>
   <path d="m73.593 14.869-0.0476-0.0953"/>
   <path d="m73.546 14.773v-0.1904"/>
   <path d="m73.546 14.583 0.0476-0.0953"/>
   <path d="m73.593 14.488 0.0476-0.0476"/>
   <path d="m73.641 14.44 0.0952-0.0476"/>
  </g>
  <g transform="rotate(-90 35.61 13.702)">
   <text transform="scale(-1 1) translate(-71.22)" x="35.6100" y="14.2020" font-size="1.3333" opacity="0" stroke-opacity="0" text-anchor="middle" lengthAdjust="spacingAndGlyphs" textLength="3.1548">D14</text>
  </g>
  <g class="stroked-text">
   <desc>D14</desc>
   <path d="m36.065 12.488h-1"/>
   <path d="m35.065 12.488v0.2381"/>
   <path d="m35.065 12.726 0.0476 0.1429"/>
   <path d="m35.112 12.869 0.0953 0.0952"/>
   <path d="m35.208 12.964 0.0952 0.0476"/>
   <path d="m35.303 13.012 0.1905 0.0476"/>
   <path d="m35.493 13.059h0.1428"/>
   <path d="m35.636 13.059 0.1905-0.0476"/>
   <path d="m35.827 13.012 0.0953-0.0476"/>
   <path d="m35.922 12.964 0.0952-0.0952"/>
   <path d="m36.017 12.869 0.0476-0.1429"/>
   <path d="m36.065 12.726v-0.2381"/>
   <path d="m36.065 14.012v-0.5714"/>
   <path d="m36.065 13.726h-1"/>
   <path d="m35.065 13.726 0.1429-0.0952"/>
   <path d="m35.208 13.631 0.0952-0.0953"/>
   <path d="m35.303 13.535 0.0476-0.0952"/>
   <path d="m35.398 14.869h0.6666"/>
   <path d="m35.017 14.631 0.7143-0.2381"/>
   <path d="m35.732 14.392v0.619"/>
  </g>
  <g transform="rotate(-90 54.66 37.514)">
   <text transform="scale(-1 1) translate(-109.32)" x="54.6600" y="38.0145" font-size="1.3333" opacity="0" stroke-opacity="0" text-anchor="middle" lengthAdjust="spacingAndGlyphs" textLength="3.1548">D11</text>
  </g>
  <g class="stroked-text">
   <desc>D11</desc>
   <path d="m55.115 36.3h-1"/>
   <path d="m54.115 36.3v0.2381"/>
   <path d="m54.115 36.538 0.0476 0.1429"/>
   <path d="m54.162 36.681 0.0953 0.0952"/>
   <path d="m54.258 36.776 0.0952 0.0476"/>
   <path d="m54.353 36.824 0.1905 0.0476"/>
   <path d="m54.543 36.872h0.1428"/>
   <path d="m54.686 36.872 0.1905-0.0476"/>
   <path d="m54.877 36.824 0.0953-0.0476"/>
   <path d="m54.972 36.776 0.0952-0.0952"/>
   <path d="m55.067 36.681 0.0476-0.1429"/>
   <path d="m55.115 36.538v-0.2381"/>
   <path d="m55.115 37.824v-0.5714"/>
   <path d="m55.115 37.538h-1"/>
   <path d="m54.115 37.538 0.1429-0.0952"/>
   <path d="m54.258 37.443 0.0952-0.0953"/>
   <path d="m54.353 37.348 0.0476-0.0952"/>
   <path d="m55.115 38.776v-0.5714"/>
   <path d="m55.115 38.491h-1"/>
   <path d="m54.115 38.491 0.1429-0.0952"/>
   <path d="m54.258 38.396 0.0952-0.0953"/>
   <path d="m54.353 38.3 0.0476-0.0952"/>
  </g>
  <g transform="rotate(-90 16.56 37.514)">
   <text transform="scale(-1 1) translate(-33.12)" x="16.5600" y="38.0145" font-size="1.3333" opacity="0" stroke-opacity="0" text-anchor="middle" lengthAdjust="spacingAndGlyphs" textLength="2.2024">D9</text>
  </g>
  <g class="stroked-text">
   <desc>D9</desc>
   <path d="m17.015 36.776h-1"/>
   <path d="m16.015 36.776v0.2381"/>
   <path d="m16.015 37.014 0.0476 0.1429"/>
   <path d="m16.062 37.157 0.0953 0.0952"/>
   <path d="m16.158 37.253 0.0952 0.0476"/>
   <path d="m16.253 37.3 0.1905 0.0476"/>
   <path d="m16.443 37.348h0.1428"/>
   <path d="m16.586 37.348 0.1905-0.0476"/>
   <path d="m16.777 37.3 0.0953-0.0476"/>
   <path d="m16.872 37.253 0.0952-0.0952"/>
   <path d="m16.967 37.157 0.0476-0.1429"/>
   <path d="m17.015 37.014v-0.2381"/>
   <path d="m17.015 37.824v0.1905"/>
   <path d="m17.015 38.014-0.0476 0.0952"/>
   <path d="m16.967 38.11-0.0476 0.0477"/>
   <path d="m16.92 38.157-0.1429 0.0952"/>
   <path d="m16.777 38.253-0.1905 0.0476"/>
   <path d="m16.586 38.3h-0.3809"/>
   <path d="m16.205 38.3-0.0952-0.0476"/>
   <path d="m16.11 38.253-0.0477-0.0476"/>
   <path d="m16.062 38.205-0.0476-0.0953"/>
   <path d="m16.015 38.11v-0.1904"/>
   <path d="m16.015 37.919 0.0476-0.0953"/>
   <path d="m16.062 37.824 0.0477-0.0476"/>
   <path d="m16.11 37.776 0.0952-0.0476"/>
   <path d="m16.205 37.729h0.2381"/>
   <path d="m16.443 37.729 0.0952 0.0476"/>
   <path d="m16.539 37.776 0.0476 0.0476"/>
   <path d="m16.586 37.824 0.0477 0.0953"/>
   <path d="m16.634 37.919v0.1904"/>
   <path d="m16.634 38.11-0.0477 0.0953"/>
   <path d="m16.586 38.205-0.0476 0.0476"/>
   <path d="m16.539 38.253-0.0952 0.0476"/>
  </g>
  <g transform="rotate(-90 35.61 61.327)">
   <text transform="scale(-1 1) translate(-71.22)" x="35.6100" y="61.8270" font-size="1.3333" opacity="0" stroke-opacity="0" text-anchor="middle" lengthAdjust="spacingAndGlyphs" textLength="2.2024">D2</text>
  </g>
  <g class="stroked-text">
   <desc>D2</desc>
   <path d="m36.065 60.589h-1"/>
   <path d="m35.065 60.589v0.2381"/>
   <path d="m35.065 60.827 0.0476 0.1429"/>
   <path d="m35.112 60.97 0.0953 0.0952"/>
   <path d="m35.208 61.065 0.0952 0.0476"/>
   <path d="m35.303 61.113 0.1905 0.0476"/>
   <path d="m35.493 61.16h0.1428"/>
   <path d="m35.636 61.16 0.1905-0.0476"/>
   <path d="m35.827 61.113 0.0953-0.0476"/>
   <path d="m35.922 61.065 0.0952-0.0952"/>
   <path d="m36.017 60.97 0.0476-0.1429"/>
   <path d="m36.065 60.827v-0.2381"/>
   <path d="m35.16 61.541-0.0477 0.0476"/>
   <path d="m35.112 61.589-0.0476 0.0952"/>
   <path d="m35.065 61.684v0.2381"/>
   <path d="m35.065 61.922 0.0476 0.0953"/>
   <path d="m35.112 62.018 0.0477 0.0476"/>
   <path d="m35.16 62.065 0.0952 0.0476"/>
   <path d="m35.255 62.113h0.0952"/>
   <path d="m35.35 62.113 0.1429-0.0476"/>
   <path d="m35.493 62.065 0.5714-0.5714"/>
   <path d="m36.065 61.494v0.619"/>
  </g>
  <g transform="rotate(-90 35.61 80.377)">
   <text transform="scale(-1 1) translate(-71.22)" x="35.6100" y="80.8770" font-size="1.3333" opacity="0" stroke-opacity="0" text-anchor="middle" lengthAdjust="spacingAndGlyphs" textLength="2.2024">D6</text>
  </g>
  <g class="stroked-text">
   <desc>D6</desc>
   <path d="m36.065 79.639h-1"/>
   <path d="m35.065 79.639v0.2381"/>
   <path d="m35.065 79.877 0.0476 0.1429"/>
   <path d="m35.112 80.02 0.0953 0.0952"/>
   <path d="m35.208 80.115 0.0952 0.0476"/>
   <path d="m35.303 80.163 0.1905 0.0476"/>
   <path d="m35.493 80.21h0.1428"/>
   <path d="m35.636 80.21 0.1905-0.0476"/>
   <path d="m35.827 80.163 0.0953-0.0476"/>
   <path d="m35.922 80.115 0.0952-0.0952"/>
   <path d="m36.017 80.02 0.0476-0.1429"/>
   <path d="m36.065 79.877v-0.2381"/>
   <path d="m35.065 81.068v-0.1905"/>
   <path d="m35.065 80.877 0.0476-0.0952"/>
   <path d="m35.112 80.782 0.0477-0.0477"/>
   <path d="m35.16 80.734 0.1428-0.0952"/>
   <path d="m35.303 80.639 0.1905-0.0476"/>
   <path d="m35.493 80.591h0.3809"/>
   <path d="m35.874 80.591 0.0953 0.0476"/>
   <path d="m35.97 80.639 0.0476 0.0476"/>
   <path d="m36.017 80.686 0.0476 0.0953"/>
   <path d="m36.065 80.782v0.1904"/>
   <path d="m36.065 80.972-0.0476 0.0953"/>
   <path d="m36.017 81.068-0.0476 0.0476"/>
   <path d="m35.97 81.115-0.0953 0.0476"/>
   <path d="m35.874 81.163h-0.2381"/>
   <path d="m35.636 81.163-0.0952-0.0476"/>
   <path d="m35.541 81.115-0.0476-0.0476"/>
   <path d="m35.493 81.068-0.0476-0.0953"/>
   <path d="m35.446 80.972v-0.1904"/>
   <path d="m35.446 80.782 0.0476-0.0953"/>
   <path d="m35.493 80.686 0.0476-0.0476"/>
   <path d="m35.541 80.639 0.0952-0.0476"/>
  </g>
  <g transform="rotate(-90 54.66 13.702)">
   <text transform="scale(-1 1) translate(-109.32)" x="54.6600" y="14.2020" font-size="1.3333" opacity="0" stroke-opacity="0" text-anchor="middle" lengthAdjust="spacingAndGlyphs" textLength="3.1548">D15</text>
  </g>
  <g class="stroked-text">
   <desc>D15</desc>
   <path d="m55.115 12.488h-1"/>
   <path d="m54.115 12.488v0.2381"/>
   <path d="m54.115 12.726 0.0476 0.1429"/>
   <path d="m54.162 12.869 0.0953 0.0952"/>
   <path d="m54.258 12.964 0.0952 0.0476"/>
   <path d="m54.353 13.012 0.1905 0.0476"/>
   <path d="m54.543 13.059h0.1428"/>
   <path d="m54.686 13.059 0.1905-0.0476"/>
   <path d="m54.877 13.012 0.0953-0.0476"/>
   <path d="m54.972 12.964 0.0952-0.0952"/>
   <path d="m55.067 12.869 0.0476-0.1429"/>
   <path d="m55.115 12.726v-0.2381"/>
   <path d="m55.115 14.012v-0.5714"/>
   <path d="m55.115 13.726h-1"/>
   <path d="m54.115 13.726 0.1429-0.0952"/>
   <path d="m54.258 13.631 0.0952-0.0953"/>
   <path d="m54.353 13.535 0.0476-0.0952"/>
   <path d="m54.115 14.916v-0.4762"/>
   <path d="m54.115 14.44 0.4762-0.0476"/>
   <path d="m54.591 14.392-0.0476 0.0476"/>
   <path d="m54.543 14.44-0.0476 0.0952"/>
   <path d="m54.496 14.535v0.2381"/>
   <path d="m54.496 14.773 0.0476 0.0953"/>
   <path d="m54.543 14.869 0.0476 0.0476"/>
   <path d="m54.591 14.916 0.0952 0.0476"/>
   <path d="m54.686 14.964h0.2381"/>
   <path d="m54.924 14.964 0.0953-0.0476"/>
   <path d="m55.02 14.916 0.0476-0.0476"/>
   <path d="m55.067 14.869 0.0476-0.0953"/>
   <path d="m55.115 14.773v-0.2381"/>
   <path d="m55.115 14.535-0.0476-0.0952"/>
   <path d="m55.067 14.44-0.0476-0.0476"/>
  </g>
  <g transform="rotate(-90 54.66 80.377)">
   <text transform="scale(-1 1) translate(-109.32)" x="54.6600" y="80.8770" font-size="1.3333" opacity="0" stroke-opacity="0" text-anchor="middle" lengthAdjust="spacingAndGlyphs" textLength="2.2024">D7</text>
  </g>
  <g class="stroked-text">
   <desc>D7</desc>
   <path d="m55.115 79.639h-1"/>
   <path d="m54.115 79.639v0.2381"/>
   <path d="m54.115 79.877 0.0476 0.1429"/>
   <path d="m54.162 80.02 0.0953 0.0952"/>
   <path d="m54.258 80.115 0.0952 0.0476"/>
   <path d="m54.353 80.163 0.1905 0.0476"/>
   <path d="m54.543 80.21h0.1428"/>
   <path d="m54.686 80.21 0.1905-0.0476"/>
   <path d="m54.877 80.163 0.0953-0.0476"/>
   <path d="m54.972 80.115 0.0952-0.0952"/>
   <path d="m55.067 80.02 0.0476-0.1429"/>
   <path d="m55.115 79.877v-0.2381"/>
   <path d="m54.115 80.544v0.6666"/>
   <path d="m54.115 81.21 1-0.4285"/>
  </g>
  <g transform="rotate(-90 16.56 61.327)">
   <text transform="scale(-1 1) translate(-33.12)" x="16.5600" y="61.8270" font-size="1.3333" opacity="0" stroke-opacity="0" text-anchor="middle" lengthAdjust="spacingAndGlyphs" textLength="2.2024">D1</text>
  </g>
  <g class="stroked-text">
   <desc>D1</desc>
   <path d="m17.015 60.589h-1"/>
   <path d="m16.015 60.589v0.2381"/>
   <path d="m16.015 60.827 0.0476 0.1429"/>
   <path d="m16.062 60.97 0.0953 0.0952"/>
   <path d="m16.158 61.065 0.0952 0.0476"/>
   <path d="m16.253 61.113 0.1905 0.0476"/>
   <path d="m16.443 61.16h0.1428"/>
   <path d="m16.586 61.16 0.1905-0.0476"/>
   <path d="m16.777 61.113 0.0953-0.0476"/>
   <path d="m16.872 61.065 0.0952-0.0952"/>
   <path d="m16.967 60.97 0.0476-0.1429"/>
   <path d="m17.015 60.827v-0.2381"/>
   <path d="m17.015 62.113v-0.5714"/>
   <path d="m17.015 61.827h-1"/>
   <path d="m16.015 61.827 0.1429-0.0952"/>
   <path d="m16.158 61.732 0.0952-0.0953"/>
   <path d="m16.253 61.636 0.0476-0.0952"/>
  </g>
  <g transform="rotate(-90 16.56 80.377)">
   <text transform="scale(-1 1) translate(-33.12)" x="16.5600" y="80.8770" font-size="1.3333" opacity="0" stroke-opacity="0" text-anchor="middle" lengthAdjust="spacingAndGlyphs" textLength="2.2024">D5</text>
  </g>
  <g class="stroked-text">
   <desc>D5</desc>
   <path d="m17.015 79.639h-1"/>
   <path d="m16.015 79.639v0.2381"/>
   <path d="m16.015 79.877 0.0476 0.1429"/>
   <path d="m16.062 80.02 0.0953 0.0952"/>
   <path d="m16.158 80.115 0.0952 0.0476"/>
   <path d="m16.253 80.163 0.1905 0.0476"/>
   <path d="m16.443 80.21h0.1428"/>
   <path d="m16.586 80.21 0.1905-0.0476"/>
   <path d="m16.777 80.163 0.0953-0.0476"/>
   <path d="m16.872 80.115 0.0952-0.0952"/>
   <path d="m16.967 80.02 0.0476-0.1429"/>
   <path d="m17.015 79.877v-0.2381"/>
   <path d="m16.015 81.115v-0.4762"/>
   <path d="m16.015 80.639 0.4762-0.0476"/>
   <path d="m16.491 80.591-0.0476 0.0476"/>
   <path d="m16.443 80.639-0.0476 0.0952"/>
   <path d="m16.396 80.734v0.2381"/>
   <path d="m16.396 80.972 0.0476 0.0953"/>
   <path d="m16.443 81.068 0.0476 0.0476"/>
   <path d="m16.491 81.115 0.0952 0.0476"/>
   <path d="m16.586 81.163h0.2381"/>
   <path d="m16.824 81.163 0.0953-0.0476"/>
   <path d="m16.92 81.115 0.0476-0.0476"/>
   <path d="m16.967 81.068 0.0476-0.0953"/>
   <path d="m17.015 80.972v-0.2381"/>
   <path d="m17.015 80.734-0.0476-0.0952"/>
   <path d="m16.967 80.639-0.0476-0.0476"/>
  </g>
  <g transform="rotate(-90 16.56 13.702)">
   <text transform="scale(-1 1) translate(-33.12)" x="16.5600" y="14.2020" font-size="1.3333" opacity="0" stroke-opacity="0" text-anchor="middle" lengthAdjust="spacingAndGlyphs" textLength="3.1548">D13</text>
  </g>
  <g class="stroked-text">
   <desc>D13</desc>
   <path d="m17.015 12.488h-1"/>
   <path d="m16.015 12.488v0.2381"/>
   <path d="m16.015 12.726 0.0476 0.1429"/>
   <path d="m16.062 12.869 0.0953 0.0952"/>
   <path d="m16.158 12.964 0.0952 0.0476"/>
   <path d="m16.253 13.012 0.1905 0.0476"/>
   <path d="m16.443 13.059h0.1428"/>
   <path d="m16.586 13.059 0.1905-0.0476"/>
   <path d="m16.777 13.012 0.0953-0.0476"/>
   <path d="m16.872 12.964 0.0952-0.0952"/>
   <path d="m16.967 12.869 0.0476-0.1429"/>
   <path d="m17.015 12.726v-0.2381"/>
   <path d="m17.015 14.012v-0.5714"/>
   <path d="m17.015 13.726h-1"/>
   <path d="m16.015 13.726 0.1429-0.0952"/>
   <path d="m16.158 13.631 0.0952-0.0953"/>
   <path d="m16.253 13.535 0.0476-0.0952"/>
   <path d="m16.015 14.345v0.619"/>
   <path d="m16.015 14.964 0.381-0.3333"/>
   <path d="m16.396 14.631v0.1428"/>
   <path d="m16.396 14.773 0.0476 0.0953"/>
   <path d="m16.443 14.869 0.0476 0.0476"/>
   <path d="m16.491 14.916 0.0952 0.0476"/>
   <path d="m16.586 14.964h0.2381"/>
   <path d="m16.824 14.964 0.0953-0.0476"/>
   <path d="m16.92 14.916 0.0476-0.0476"/>
   <path d="m16.967 14.869 0.0476-0.0953"/>
   <path d="m17.015 14.773v-0.2857"/>
   <path d="m17.015 14.488-0.0476-0.0952"/>
   <path d="m16.967 14.392-0.0476-0.0476"/>
  </g>
  <g transform="rotate(-90 35.61 37.514)">
   <text transform="scale(-1 1) translate(-71.22)" x="35.6100" y="38.0145" font-size="1.3333" opacity="0" stroke-opacity="0" text-anchor="middle" lengthAdjust="spacingAndGlyphs" textLength="3.1548">D10</text>
  </g>
  <g class="stroked-text">
   <desc>D10</desc>
   <path d="m36.065 36.3h-1"/>
   <path d="m35.065 36.3v0.2381"/>
   <path d="m35.065 36.538 0.0476 0.1429"/>
   <path d="m35.112 36.681 0.0953 0.0952"/>
   <path d="m35.208 36.776 0.0952 0.0476"/>
   <path d="m35.303 36.824 0.1905 0.0476"/>
   <path d="m35.493 36.872h0.1428"/>
   <path d="m35.636 36.872 0.1905-0.0476"/>
   <path d="m35.827 36.824 0.0953-0.0476"/>
   <path d="m35.922 36.776 0.0952-0.0952"/>
   <path d="m36.017 36.681 0.0476-0.1429"/>
   <path d="m36.065 36.538v-0.2381"/>
   <path d="m36.065 37.824v-0.5714"/>
   <path d="m36.065 37.538h-1"/>
   <path d="m35.065 37.538 0.1429-0.0952"/>
   <path d="m35.208 37.443 0.0952-0.0953"/>
   <path d="m35.303 37.348 0.0476-0.0952"/>
   <path d="m35.065 38.443v0.0952"/>
   <path d="m35.065 38.538 0.0476 0.0952"/>
   <path d="m35.112 38.634 0.0477 0.0477"/>
   <path d="m35.16 38.681 0.0952 0.0476"/>
   <path d="m35.255 38.729 0.1905 0.0476"/>
   <path d="m35.446 38.776h0.2381"/>
   <path d="m35.684 38.776 0.1904-0.0476"/>
   <path d="m35.874 38.729 0.0953-0.0476"/>
   <path d="m35.97 38.681 0.0476-0.0477"/>
   <path d="m36.017 38.634 0.0476-0.0952"/>
   <path d="m36.065 38.538v-0.0952"/>
   <path d="m36.065 38.443-0.0476-0.0953"/>
   <path d="m36.017 38.348-0.0476-0.0476"/>
   <path d="m35.97 38.3-0.0953-0.0476"/>
   <path d="m35.874 38.253-0.1904-0.0476"/>
   <path d="m35.684 38.205h-0.2381"/>
   <path d="m35.446 38.205-0.1905 0.0476"/>
   <path d="m35.255 38.253-0.0952 0.0476"/>
   <path d="m35.16 38.3-0.0477 0.0476"/>
   <path d="m35.112 38.348-0.0476 0.0953"/>
  </g>
  <g transform="rotate(-90 73.71 37.514)">
   <text transform="scale(-1 1) translate(-147.42)" x="73.7100" y="38.0145" font-size="1.3333" opacity="0" stroke-opacity="0" text-anchor="middle" lengthAdjust="spacingAndGlyphs" textLength="3.1548">D12</text>
  </g>
  <g class="stroked-text">
   <desc>D12</desc>
   <path d="m74.165 36.3h-1"/>
   <path d="m73.165 36.3v0.2381"/>
   <path d="m73.165 36.538 0.0476 0.1429"/>
   <path d="m73.212 36.681 0.0953 0.0952"/>
   <path d="m73.308 36.776 0.0952 0.0476"/>
   <path d="m73.403 36.824 0.1905 0.0476"/>
   <path d="m73.593 36.872h0.1428"/>
   <path d="m73.736 36.872 0.1905-0.0476"/>
   <path d="m73.927 36.824 0.0953-0.0476"/>
   <path d="m74.022 36.776 0.0952-0.0952"/>
   <path d="m74.117 36.681 0.0476-0.1429"/>
   <path d="m74.165 36.538v-0.2381"/>
   <path d="m74.165 37.824v-0.5714"/>
   <path d="m74.165 37.538h-1"/>
   <path d="m73.165 37.538 0.1429-0.0952"/>
   <path d="m73.308 37.443 0.0952-0.0953"/>
   <path d="m73.403 37.348 0.0476-0.0952"/>
   <path d="m73.26 38.205-0.0477 0.0476"/>
   <path d="m73.212 38.253-0.0476 0.0952"/>
   <path d="m73.165 38.348v0.2381"/>
   <path d="m73.165 38.586 0.0476 0.0953"/>
   <path d="m73.212 38.681 0.0477 0.0476"/>
   <path d="m73.26 38.729 0.0952 0.0476"/>
   <path d="m73.355 38.776h0.0952"/>
   <path d="m73.45 38.776 0.1429-0.0476"/>
   <path d="m73.593 38.729 0.5714-0.5714"/>
   <path d="m74.165 38.157v0.619"/>
  </g>
  <g transform="rotate(-90 73.71 80.377)">
   <text transform="scale(-1 1) translate(-147.42)" x="73.7100" y="80.8770" font-size="1.3333" opacity="0" stroke-opacity="0" text-anchor="middle" lengthAdjust="spacingAndGlyphs" textLength="2.2024">D8</text>
  </g>
  <g class="stroked-text">
   <desc>D8</desc>
   <path d="m74.165 79.639h-1"/>
   <path d="m73.165 79.639v0.2381"/>
   <path d="m73.165 79.877 0.0476 0.1429"/>
   <path d="m73.212 80.02 0.0953 0.0952"/>
   <path d="m73.308 80.115 0.0952 0.0476"/>
   <path d="m73.403 80.163 0.1905 0.0476"/>
   <path d="m73.593 80.21h0.1428"/>
   <path d="m73.736 80.21 0.1905-0.0476"/>
   <path d="m73.927 80.163 0.0953-0.0476"/>
   <path d="m74.022 80.115 0.0952-0.0952"/>
   <path d="m74.117 80.02 0.0476-0.1429"/>
   <path d="m74.165 79.877v-0.2381"/>
   <path d="m73.593 80.782-0.0476-0.0953"/>
   <path d="m73.546 80.686-0.0476-0.0476"/>
   <path d="m73.498 80.639-0.0953-0.0476"/>
   <path d="m73.403 80.591h-0.0476"/>
   <path d="m73.355 80.591-0.0952 0.0476"/>
   <path d="m73.26 80.639-0.0477 0.0476"/>
   <path d="m73.212 80.686-0.0476 0.0953"/>
   <path d="m73.165 80.782v0.1904"/>
   <path d="m73.165 80.972 0.0476 0.0953"/>
   <path d="m73.212 81.068 0.0477 0.0476"/>
   <path d="m73.26 81.115 0.0952 0.0476"/>
   <path d="m73.355 81.163h0.0476"/>
   <path d="m73.403 81.163 0.0953-0.0476"/>
   <path d="m73.498 81.115 0.0476-0.0476"/>
   <path d="m73.546 81.068 0.0476-0.0953"/>
   <path d="m73.593 80.972v-0.1904"/>
   <path d="m73.593 80.782 0.0476-0.0953"/>
   <path d="m73.641 80.686 0.0476-0.0476"/>
   <path d="m73.689 80.639 0.0953-0.0476"/>
   <path d="m73.784 80.591h0.1904"/>
   <path d="m73.974 80.591 0.0953 0.0476"/>
   <path d="m74.07 80.639 0.0476 0.0476"/>
   <path d="m74.117 80.686 0.0476 0.0953"/>
   <path d="m74.165 80.782v0.1904"/>
   <path d="m74.165 80.972-0.0476 0.0953"/>
   <path d="m74.117 81.068-0.0476 0.0476"/>
   <path d="m74.07 81.115-0.0953 0.0476"/>
   <path d="m73.974 81.163h-0.1904"/>
   <path d="m73.784 81.163-0.0953-0.0476"/>
   <path d="m73.689 81.115-0.0476-0.0476"/>
   <path d="m73.641 81.068-0.0476-0.0953"/>
  </g>
 </g>
 <g fill="none" stroke="#BD93F9" stroke-linecap="round" stroke-linejoin="round" stroke-width=".12">
  <path d="m51.755 59.55v3.86"/>
  <path d="m51.755 63.41h2"/>
  <path d="m53.755 59.55v3.86"/>
  <path d="m70.805 59.55v3.86"/>
  <path d="m70.805 63.41h2"/>
  <path d="m72.805 59.55v3.86"/>
  <path d="m70.805 11.925v3.86"/>
  <path d="m70.805 15.785h2"/>
  <path d="m72.805 11.925v3.86"/>
  <path d="m32.705 11.925v3.86"/>
  <path d="m32.705 15.785h2"/>
  <path d="m34.705 11.925v3.86"/>
  <path d="m51.755 35.738v3.86"/>
  <path d="m51.755 39.598h2"/>
  <path d="m53.755 35.738v3.86"/>
  <path d="m13.655 35.738v3.86"/>
  <path d="m13.655 39.598h2"/>
  <path d="m15.655 35.738v3.86"/>
  <path d="m32.705 59.55v3.86"/>
  <path d="m32.705 63.41h2"/>
  <path d="m34.705 59.55v3.86"/>
  <path d="m32.705 78.6v3.86"/>
  <path d="m32.705 82.46h2"/>
  <path d="m34.705 78.6v3.86"/>
  <path d="m51.755 11.925v3.86"/>
  <path d="m51.755 15.785h2"/>
  <path d="m53.755 11.925v3.86"/>
  <path d="m51.755 78.6v3.86"/>
  <path d="m51.755 82.46h2"/>
  <path d="m53.755 78.6v3.86"/>
  <path d="m13.655 59.55v3.86"/>
  <path d="m13.655 63.41h2"/>
  <path d="m15.655 59.55v3.86"/>
  <path d="m13.655 78.6v3.86"/>
  <path d="m13.655 82.46h2"/>
  <path d="m15.655 78.6v3.86"/>
  <path d="m13.655 11.925v3.86"/>
  <path d="m13.655 15.785h2"/>
  <path d="m15.655 11.925v3.86"/>
  <path d="m32.705 35.738v3.86"/>
  <path d="m32.705 39.598h2"/>
  <path d="m34.705 35.738v3.86"/>
  <path d="m70.805 35.738v3.86"/>
  <path d="m70.805 39.598h2"/>
  <path d="m72.805 35.738v3.86"/>
  <path d="m70.805 78.6v3.86"/>
  <path d="m70.805 82.46h2"/>
  <path d="m72.805 78.6v3.86"/>
 </g>
 <g>
  <g fill="#BD93F9">
   <circle cx="4.495" cy="33.388" r=".875"/>
   <circle cx="9.575" cy="33.388" r="2"/>
   <circle cx="14.655" cy="33.388" r=".875"/>
   <circle cx="5.765" cy="30.848" r=".75"/>
   <circle cx="12.115" cy="28.308" r=".75"/>
   <circle cx="23.545" cy="9.575" r=".875"/>
   <circle cx="28.625" cy="9.575" r="2"/>
   <circle cx="33.705" cy="9.575" r=".875"/>
   <circle cx="24.815" cy="7.035" r=".75"/>
   <circle cx="31.165" cy="4.495" r=".75"/>
   <circle cx="4.495" cy="76.25" r=".875"/>
   <circle cx="9.575" cy="76.25" r="2"/>
   <circle cx="14.655" cy="76.25" r=".875"/>
   <circle cx="5.765" cy="73.71" r=".75"/>
   <circle cx="12.115" cy="71.17" r=".75"/>
   <circle cx="4.495" cy="9.575" r=".875"/>
   <circle cx="9.575" cy="9.575" r="2"/>
   <circle cx="14.655" cy="9.575" r=".875"/>
   <circle cx="5.765" cy="7.035" r=".75"/>
   <circle cx="12.115" cy="4.495" r=".75"/>
   <circle cx="42.595" cy="9.575" r=".875"/>
   <circle cx="47.675" cy="9.575" r="2"/>
   <circle cx="52.755" cy="9.575" r=".875"/>
   <circle cx="43.865" cy="7.035" r=".75"/>
   <circle cx="50.215" cy="4.495" r=".75"/>
   <circle cx="61.645" cy="33.388" r=".875"/>
   <circle cx="66.725" cy="33.388" r="2"/>
   <circle cx="71.805" cy="33.388" r=".875"/>
   <circle cx="62.915" cy="30.848" r=".75"/>
   <circle cx="69.265" cy="28.308" r=".75"/>
   <circle cx="42.595" cy="33.388" r=".875"/>
   <circle cx="47.675" cy="33.388" r="2"/>
   <circle cx="52.755" cy="33.388" r=".875"/>
   <circle cx="43.865" cy="30.848" r=".75"/>
   <circle cx="50.215" cy="28.308" r=".75"/>
   <circle cx="42.595" cy="76.25" r=".875"/>
   <circle cx="47.675" cy="76.25" r="2"/>
   <circle cx="52.755" cy="76.25" r=".875"/>
   <circle cx="43.865" cy="73.71" r=".75"/>
   <circle cx="50.215" cy="71.17" r=".75"/>
   <circle cx="23.545" cy="57.2" r=".875"/>
   <circle cx="28.625" cy="57.2" r="2"/>
   <circle cx="33.705" cy="57.2" r=".875"/>
   <circle cx="24.815" cy="54.66" r=".75"/>
   <circle cx="31.165" cy="52.12" r=".75"/>
   <circle cx="42.595" cy="57.2" r=".875"/>
   <circle cx="47.675" cy="57.2" r="2"/>
   <circle cx="52.755" cy="57.2" r=".875"/>
   <circle cx="43.865" cy="54.66" r=".75"/>
   <circle cx="50.215" cy="52.12" r=".75"/>
   <circle cx="23.545" cy="33.388" r=".875"/>
   <circle cx="28.625" cy="33.388" r="2"/>
   <circle cx="33.705" cy="33.388" r=".875"/>
   <circle cx="24.815" cy="30.848" r=".75"/>
   <circle cx="31.165" cy="28.308" r=".75"/>
   <circle cx="23.545" cy="76.25" r=".875"/>
   <circle cx="28.625" cy="76.25" r="2"/>
   <circle cx="33.705" cy="76.25" r=".875"/>
   <circle cx="24.815" cy="73.71" r=".75"/>
   <circle cx="31.165" cy="71.17" r=".75"/>
   <circle cx="61.645" cy="57.2" r=".875"/>
   <circle cx="66.725" cy="57.2" r="2"/>
   <circle cx="71.805" cy="57.2" r=".875"/>
   <circle cx="62.915" cy="54.66" r=".75"/>
   <circle cx="69.265" cy="52.12" r=".75"/>
   <circle cx="61.645" cy="9.575" r=".875"/>
   <circle cx="66.725" cy="9.575" r="2"/>
   <circle cx="71.805" cy="9.575" r=".875"/>
   <circle cx="62.915" cy="7.035" r=".75"/>
   <circle cx="69.265" cy="4.495" r=".75"/>
   <circle cx="4.495" cy="57.2" r=".875"/>
   <circle cx="9.575" cy="57.2" r="2"/>
   <circle cx="14.655" cy="57.2" r=".875"/>
   <circle cx="5.765" cy="54.66" r=".75"/>
   <circle cx="12.115" cy="52.12" r=".75"/>
   <circle cx="61.645" cy="76.25" r=".875"/>
   <circle cx="66.725" cy="76.25" r="2"/>
   <circle cx="71.805" cy="76.25" r=".875"/>
   <circle cx="62.915" cy="73.71" r=".75"/>
   <circle cx="69.265" cy="71.17" r=".75"/>
  </g>
  <g>
   <circle cx="4.495" cy="33.388" r=".875"/>
   <circle cx="9.575" cy="33.388" r="2"/>
   <circle cx="14.655" cy="33.388" r=".875"/>
   <circle cx="5.765" cy="30.848" r=".75"/>
   <circle cx="12.115" cy="28.308" r=".75"/>
   <circle cx="23.545" cy="9.575" r=".875"/>
   <circle cx="28.625" cy="9.575" r="2"/>
   <circle cx="33.705" cy="9.575" r=".875"/>
   <circle cx="24.815" cy="7.035" r=".75"/>
   <circle cx="31.165" cy="4.495" r=".75"/>
   <circle cx="4.495" cy="76.25" r=".875"/>
   <circle cx="9.575" cy="76.25" r="2"/>
   <circle cx="14.655" cy="76.25" r=".875"/>
   <circle cx="5.765" cy="73.71" r=".75"/>
   <circle cx="12.115" cy="71.17" r=".75"/>
   <circle cx="4.495" cy="9.575" r=".875"/>
   <circle cx="9.575" cy="9.575" r="2"/>
   <circle cx="14.655" cy="9.575" r=".875"/>
   <circle cx="5.765" cy="7.035" r=".75"/>
   <circle cx="12.115" cy="4.495" r=".75"/>
   <circle cx="42.595" cy="9.575" r=".875"/>
   <circle cx="47.675" cy="9.575" r="2"/>
   <circle cx="52.755" cy="9.575" r=".875"/>
   <circle cx="43.865" cy="7.035" r=".75"/>
   <circle cx="50.215" cy="4.495" r=".75"/>
   <circle cx="61.645" cy="33.388" r=".875"/>
   <circle cx="66.725" cy="33.388" r="2"/>
   <circle cx="71.805" cy="33.388" r=".875"/>
   <circle cx="62.915" cy="30.848" r=".75"/>
   <circle cx="69.265" cy="28.308" r=".75"/>
   <circle cx="42.595" cy="33.388" r=".875"/>
   <circle cx="47.675" cy="33.388" r="2"/>
   <circle cx="52.755" cy="33.388" r=".875"/>
   <circle cx="43.865" cy="30.848" r=".75"/>
   <circle cx="50.215" cy="28.308" r=".75"/>
   <circle cx="42.595" cy="76.25" r=".875"/>
   <circle cx="47.675" cy="76.25" r="2"/>
   <circle cx="52.755" cy="76.25" r=".875"/>
   <circle cx="43.865" cy="73.71" r=".75"/>
   <circle cx="50.215" cy="71.17" r=".75"/>
   <circle cx="23.545" cy="57.2" r=".875"/>
   <circle cx="28.625" cy="57.2" r="2"/>
   <circle cx="33.705" cy="57.2" r=".875"/>
   <circle cx="24.815" cy="54.66" r=".75"/>
   <circle cx="31.165" cy="52.12" r=".75"/>
   <circle cx="42.595" cy="57.2" r=".875"/>
   <circle cx="47.675" cy="57.2" r="2"/>
   <circle cx="52.755" cy="57.2" r=".875"/>
   <circle cx="43.865" cy="54.66" r=".75"/>
   <circle cx="50.215" cy="52.12" r=".75"/>
   <circle cx="23.545" cy="33.388" r=".875"/>
   <circle cx="28.625" cy="33.388" r="2"/>
   <circle cx="33.705" cy="33.388" r=".875"/>
   <circle cx="24.815" cy="30.848" r=".75"/>
   <circle cx="31.165" cy="28.308" r=".75"/>
   <circle cx="23.545" cy="76.25" r=".875"/>
   <circle cx="28.625" cy="76.25" r="2"/>
   <circle cx="33.705" cy="76.25" r=".875"/>
   <circle cx="24.815" cy="73.71" r=".75"/>
   <circle cx="31.165" cy="71.17" r=".75"/>
   <circle cx="61.645" cy="57.2" r=".875"/>
   <circle cx="66.725" cy="57.2" r="2"/>
   <circle cx="71.805" cy="57.2" r=".875"/>
   <circle cx="62.915" cy="54.66" r=".75"/>
   <circle cx="69.265" cy="52.12" r=".75"/>
   <circle cx="61.645" cy="9.575" r=".875"/>
   <circle cx="66.725" cy="9.575" r="2"/>
   <circle cx="71.805" cy="9.575" r=".875"/>
   <circle cx="62.915" cy="7.035" r=".75"/>
   <circle cx="69.265" cy="4.495" r=".75"/>
   <circle cx="4.495" cy="57.2" r=".875"/>
   <circle cx="9.575" cy="57.2" r="2"/>
   <circle cx="14.655" cy="57.2" r=".875"/>
   <circle cx="5.765" cy="54.66" r=".75"/>
   <circle cx="12.115" cy="52.12" r=".75"/>
   <circle cx="61.645" cy="76.25" r=".875"/>
   <circle cx="66.725" cy="76.25" r="2"/>
   <circle cx="71.805" cy="76.25" r=".875"/>
   <circle cx="62.915" cy="73.71" r=".75"/>
   <circle cx="69.265" cy="71.17" r=".75"/>
  </g>
  <g fill="#f55">
   <circle cx="5.765" cy="30.848" r="1.25"/>
   <circle cx="12.115" cy="28.308" r="1.25"/>
   <circle cx="24.815" cy="7.035" r="1.25"/>
   <circle cx="31.165" cy="4.495" r="1.25"/>
   <circle cx="5.765" cy="73.71" r="1.25"/>
   <circle cx="12.115" cy="71.17" r="1.25"/>
   <circle cx="5.765" cy="7.035" r="1.25"/>
   <circle cx="12.115" cy="4.495" r="1.25"/>
   <circle cx="43.865" cy="7.035" r="1.25"/>
   <circle cx="50.215" cy="4.495" r="1.25"/>
   <circle cx="62.915" cy="30.848" r="1.25"/>
   <circle cx="69.265" cy="28.308" r="1.25"/>
   <circle cx="43.865" cy="30.848" r="1.25"/>
   <circle cx="50.215" cy="28.308" r="1.25"/>
   <circle cx="43.865" cy="73.71" r="1.25"/>
   <circle cx="50.215" cy="71.17" r="1.25"/>
   <circle cx="24.815" cy="54.66" r="1.25"/>
   <circle cx="31.165" cy="52.12" r="1.25"/>
   <circle cx="43.865" cy="54.66" r="1.25"/>
   <circle cx="50.215" cy="52.12" r="1.25"/>
   <circle cx="24.815" cy="30.848" r="1.25"/>
   <circle cx="31.165" cy="28.308" r="1.25"/>
   <circle cx="24.815" cy="73.71" r="1.25"/>
   <circle cx="31.165" cy="71.17" r="1.25"/>
   <circle cx="62.915" cy="54.66" r="1.25"/>
   <circle cx="69.265" cy="52.12" r="1.25"/>
   <circle cx="62.915" cy="7.035" r="1.25"/>
   <circle cx="69.265" cy="4.495" r="1.25"/>
   <circle cx="5.765" cy="54.66" r="1.25"/>
   <circle cx="12.115" cy="52.12" r="1.25"/>
   <circle cx="62.915" cy="73.71" r="1.25"/>
   <circle cx="69.265" cy="71.17" r="1.25"/>
  </g>
  <g fill="#fff">
   <circle cx="4.495" cy="33.388" r=".875"/>
   <circle cx="9.575" cy="33.388" r="2"/>
   <circle cx="14.655" cy="33.388" r=".875"/>
   <circle cx="5.765" cy="30.848" r=".75"/>
   <circle cx="12.115" cy="28.308" r=".75"/>
   <circle cx="23.545" cy="9.575" r=".875"/>
   <circle cx="28.625" cy="9.575" r="2"/>
   <circle cx="33.705" cy="9.575" r=".875"/>
   <circle cx="24.815" cy="7.035" r=".75"/>
   <circle cx="31.165" cy="4.495" r=".75"/>
   <circle cx="4.495" cy="76.25" r=".875"/>
   <circle cx="9.575" cy="76.25" r="2"/>
   <circle cx="14.655" cy="76.25" r=".875"/>
   <circle cx="5.765" cy="73.71" r=".75"/>
   <circle cx="12.115" cy="71.17" r=".75"/>
   <circle cx="4.495" cy="9.575" r=".875"/>
   <circle cx="9.575" cy="9.575" r="2"/>
   <circle cx="14.655" cy="9.575" r=".875"/>
   <circle cx="5.765" cy="7.035" r=".75"/>
   <circle cx="12.115" cy="4.495" r=".75"/>
   <circle cx="42.595" cy="9.575" r=".875"/>
   <circle cx="47.675" cy="9.575" r="2"/>
   <circle cx="52.755" cy="9.575" r=".875"/>
   <circle cx="43.865" cy="7.035" r=".75"/>
   <circle cx="50.215" cy="4.495" r=".75"/>
   <circle cx="61.645" cy="33.388" r=".875"/>
   <circle cx="66.725" cy="33.388" r="2"/>
   <circle cx="71.805" cy="33.388" r=".875"/>
   <circle cx="62.915" cy="30.848" r=".75"/>
   <circle cx="69.265" cy="28.308" r=".75"/>
   <circle cx="42.595" cy="33.388" r=".875"/>
   <circle cx="47.675" cy="33.388" r="2"/>
   <circle cx="52.755" cy="33.388" r=".875"/>
   <circle cx="43.865" cy="30.848" r=".75"/>
   <circle cx="50.215" cy="28.308" r=".75"/>
   <circle cx="42.595" cy="76.25" r=".875"/>
   <circle cx="47.675" cy="76.25" r="2"/>
   <circle cx="52.755" cy="76.25" r=".875"/>
   <circle cx="43.865" cy="73.71" r=".75"/>
   <circle cx="50.215" cy="71.17" r=".75"/>
   <circle cx="23.545" cy="57.2" r=".875"/>
   <circle cx="28.625" cy="57.2" r="2"/>
   <circle cx="33.705" cy="57.2" r=".875"/>
   <circle cx="24.815" cy="54.66" r=".75"/>
   <circle cx="31.165" cy="52.12" r=".75"/>
   <circle cx="42.595" cy="57.2" r=".875"/>
   <circle cx="47.675" cy="57.2" r="2"/>
   <circle cx="52.755" cy="57.2" r=".875"/>
   <circle cx="43.865" cy="54.66" r=".75"/>
   <circle cx="50.215" cy="52.12" r=".75"/>
   <circle cx="23.545" cy="33.388" r=".875"/>
   <circle cx="28.625" cy="33.388" r="2"/>
   <circle cx="33.705" cy="33.388" r=".875"/>
   <circle cx="24.815" cy="30.848" r=".75"/>
   <circle cx="31.165" cy="28.308" r=".75"/>
   <circle cx="23.545" cy="76.25" r=".875"/>
   <circle cx="28.625" cy="76.25" r="2"/>
   <circle cx="33.705" cy="76.25" r=".875"/>
   <circle cx="24.815" cy="73.71" r=".75"/>
   <circle cx="31.165" cy="71.17" r=".75"/>
   <circle cx="61.645" cy="57.2" r=".875"/>
   <circle cx="66.725" cy="57.2" r="2"/>
   <circle cx="71.805" cy="57.2" r=".875"/>
   <circle cx="62.915" cy="54.66" r=".75"/>
   <circle cx="69.265" cy="52.12" r=".75"/>
   <circle cx="61.645" cy="9.575" r=".875"/>
   <circle cx="66.725" cy="9.575" r="2"/>
   <circle cx="71.805" cy="9.575" r=".875"/>
   <circle cx="62.915" cy="7.035" r=".75"/>
   <circle cx="69.265" cy="4.495" r=".75"/>
   <circle cx="4.495" cy="57.2" r=".875"/>
   <circle cx="9.575" cy="57.2" r="2"/>
   <circle cx="14.655" cy="57.2" r=".875"/>
   <circle cx="5.765" cy="54.66" r=".75"/>
   <circle cx="12.115" cy="52.12" r=".75"/>
   <circle cx="61.645" cy="76.25" r=".875"/>
   <circle cx="66.725" cy="76.25" r="2"/>
   <circle cx="71.805" cy="76.25" r=".875"/>
   <circle cx="62.915" cy="73.71" r=".75"/>
   <circle cx="69.265" cy="71.17" r=".75"/>
  </g>
  <g fill="#50FA7B">
   <circle cx="5.765" cy="30.848" r="1.25"/>
   <circle cx="12.115" cy="28.308" r="1.25"/>
   <circle cx="24.815" cy="7.035" r="1.25"/>
   <circle cx="31.165" cy="4.495" r="1.25"/>
   <circle cx="5.765" cy="73.71" r="1.25"/>
   <circle cx="12.115" cy="71.17" r="1.25"/>
   <circle cx="5.765" cy="7.035" r="1.25"/>
   <circle cx="12.115" cy="4.495" r="1.25"/>
   <circle cx="43.865" cy="7.035" r="1.25"/>
   <circle cx="50.215" cy="4.495" r="1.25"/>
   <circle cx="62.915" cy="30.848" r="1.25"/>
   <circle cx="69.265" cy="28.308" r="1.25"/>
   <circle cx="43.865" cy="30.848" r="1.25"/>
   <circle cx="50.215" cy="28.308" r="1.25"/>
   <circle cx="43.865" cy="73.71" r="1.25"/>
   <circle cx="50.215" cy="71.17" r="1.25"/>
   <circle cx="24.815" cy="54.66" r="1.25"/>
   <circle cx="31.165" cy="52.12" r="1.25"/>
   <circle cx="43.865" cy="54.66" r="1.25"/>
   <circle cx="50.215" cy="52.12" r="1.25"/>
   <circle cx="24.815" cy="30.848" r="1.25"/>
   <circle cx="31.165" cy="28.308" r="1.25"/>
   <circle cx="24.815" cy="73.71" r="1.25"/>
   <circle cx="31.165" cy="71.17" r="1.25"/>
   <circle cx="62.915" cy="54.66" r="1.25"/>
   <circle cx="69.265" cy="52.12" r="1.25"/>
   <circle cx="62.915" cy="7.035" r="1.25"/>
   <circle cx="69.265" cy="4.495" r="1.25"/>
   <circle cx="5.765" cy="54.66" r="1.25"/>
   <circle cx="12.115" cy="52.12" r="1.25"/>
   <circle cx="62.915" cy="73.71" r="1.25"/>
   <circle cx="69.265" cy="71.17" r="1.25"/>
   <g fill="#50FA7B" fill-rule="evenodd">
    <path d="m52.455 63.15-0.0957-0.019-0.0811-0.0542-0.0542-0.0811-0.019-0.0957v-0.6l0.019-0.0957 0.0542-0.0811 0.0811-0.0542 0.0957-0.019h0.6l0.0957 0.019 0.0811 0.0542 0.0542 0.0811 0.019 0.0957v0.6l-0.019 0.0957-0.0542 0.0811-0.0811 0.0542-0.0957 0.019z"/>
    <path d="m52.455 60.35-0.0957-0.019-0.0811-0.0542-0.0542-0.0811-0.019-0.0957v-0.6l0.019-0.0957 0.0542-0.0811 0.0811-0.0542 0.0957-0.019h0.6l0.0957 0.019 0.0811 0.0542 0.0542 0.0811 0.019 0.0957v0.6l-0.019 0.0957-0.0542 0.0811-0.0811 0.0542-0.0957 0.019z"/>
    <path d="m71.505 63.15-0.0957-0.019-0.0811-0.0542-0.0542-0.0811-0.019-0.0957v-0.6l0.019-0.0957 0.0542-0.0811 0.0811-0.0542 0.0957-0.019h0.6l0.0957 0.019 0.0811 0.0542 0.0542 0.0811 0.019 0.0957v0.6l-0.019 0.0957-0.0542 0.0811-0.0811 0.0542-0.0957 0.019z"/>
    <path d="m71.505 60.35-0.0957-0.019-0.0811-0.0542-0.0542-0.0811-0.019-0.0957v-0.6l0.019-0.0957 0.0542-0.0811 0.0811-0.0542 0.0957-0.019h0.6l0.0957 0.019 0.0811 0.0542 0.0542 0.0811 0.019 0.0957v0.6l-0.019 0.0957-0.0542 0.0811-0.0811 0.0542-0.0957 0.019z"/>
    <path d="m71.505 15.525-0.0957-0.019-0.0811-0.0542-0.0542-0.0811-0.019-0.0957v-0.6l0.019-0.0957 0.0542-0.0811 0.0811-0.0542 0.0957-0.019h0.6l0.0957 0.019 0.0811 0.0542 0.0542 0.0811 0.019 0.0957v0.6l-0.019 0.0957-0.0542 0.0811-0.0811 0.0542-0.0957 0.019z"/>
    <path d="m71.505 12.725-0.0957-0.019-0.0811-0.0542-0.0542-0.0811-0.019-0.0957v-0.6l0.019-0.0957 0.0542-0.0811 0.0811-0.0542 0.0957-0.019h0.6l0.0957 0.019 0.0811 0.0542 0.0542 0.0811 0.019 0.0957v0.6l-0.019 0.0957-0.0542 0.0811-0.0811 0.0542-0.0957 0.019z"/>
    <path d="m33.405 15.525-0.0957-0.019-0.0811-0.0542-0.0542-0.0811-0.019-0.0957v-0.6l0.019-0.0957 0.0542-0.0811 0.0811-0.0542 0.0957-0.019h0.6l0.0957 0.019 0.0811 0.0542 0.0542 0.0811 0.019 0.0957v0.6l-0.019 0.0957-0.0542 0.0811-0.0811 0.0542-0.0957 0.019z"/>
    <path d="m33.405 12.725-0.0957-0.019-0.0811-0.0542-0.0542-0.0811-0.019-0.0957v-0.6l0.019-0.0957 0.0542-0.0811 0.0811-0.0542 0.0957-0.019h0.6l0.0957 0.019 0.0811 0.0542 0.0542 0.0811 0.019 0.0957v0.6l-0.019 0.0957-0.0542 0.0811-0.0811 0.0542-0.0957 0.019z"/>
    <path d="m52.455 39.338-0.0957-0.019-0.0811-0.0542-0.0542-0.0811-0.019-0.0957v-0.6l0.019-0.0957 0.0542-0.0811 0.0811-0.0542 0.0957-0.019h0.6l0.0957 0.019 0.0811 0.0542 0.0542 0.0811 0.019 0.0957v0.6l-0.019 0.0957-0.0542 0.0811-0.0811 0.0542-0.0957 0.019z"/>
    <path d="m52.455 36.538-0.0957-0.019-0.0811-0.0542-0.0542-0.0811-0.019-0.0957v-0.6l0.019-0.0957 0.0542-0.0811 0.0811-0.0542 0.0957-0.019h0.6l0.0957 0.019 0.0811 0.0542 0.0542 0.0811 0.019 0.0957v0.6l-0.019 0.0957-0.0542 0.0811-0.0811 0.0542-0.0957 0.019z"/>
    <path d="m14.355 39.338-0.0957-0.019-0.0811-0.0542-0.0542-0.0811-0.019-0.0957v-0.6l0.019-0.0957 0.0542-0.0811 0.0811-0.0542 0.0957-0.019h0.6l0.0957 0.019 0.0811 0.0542 0.0542 0.0811 0.019 0.0957v0.6l-0.019 0.0957-0.0542 0.0811-0.0811 0.0542-0.0957 0.019z"/>
    <path d="m14.355 36.538-0.0957-0.019-0.0811-0.0542-0.0542-0.0811-0.019-0.0957v-0.6l0.019-0.0957 0.0542-0.0811 0.0811-0.0542 0.0957-0.019h0.6l0.0957 0.019 0.0811 0.0542 0.0542 0.0811 0.019 0.0957v0.6l-0.019 0.0957-0.0542 0.0811-0.0811 0.0542-0.0957 0.019z"/>
    <path d="m33.405 63.15-0.0957-0.019-0.0811-0.0542-0.0542-0.0811-0.019-0.0957v-0.6l0.019-0.0957 0.0542-0.0811 0.0811-0.0542 0.0957-0.019h0.6l0.0957 0.019 0.0811 0.0542 0.0542 0.0811 0.019 0.0957v0.6l-0.019 0.0957-0.0542 0.0811-0.0811 0.0542-0.0957 0.019z"/>
    <path d="m33.405 60.35-0.0957-0.019-0.0811-0.0542-0.0542-0.0811-0.019-0.0957v-0.6l0.019-0.0957 0.0542-0.0811 0.0811-0.0542 0.0957-0.019h0.6l0.0957 0.019 0.0811 0.0542 0.0542 0.0811 0.019 0.0957v0.6l-0.019 0.0957-0.0542 0.0811-0.0811 0.0542-0.0957 0.019z"/>
    <path d="m33.405 82.2-0.0957-0.019-0.0811-0.0542-0.0542-0.0811-0.019-0.0957v-0.6l0.019-0.0957 0.0542-0.0811 0.0811-0.0542 0.0957-0.019h0.6l0.0957 0.019 0.0811 0.0542 0.0542 0.0811 0.019 0.0957v0.6l-0.019 0.0957-0.0542 0.0811-0.0811 0.0542-0.0957 0.019z"/>
    <path d="m33.405 79.4-0.0957-0.019-0.0811-0.0542-0.0542-0.0811-0.019-0.0957v-0.6l0.019-0.0957 0.0542-0.0811 0.0811-0.0542 0.0957-0.019h0.6l0.0957 0.019 0.0811 0.0542 0.0542 0.0811 0.019 0.0957v0.6l-0.019 0.0957-0.0542 0.0811-0.0811 0.0542-0.0957 0.019z"/>
    <path d="m52.455 15.525-0.0957-0.019-0.0811-0.0542-0.0542-0.0811-0.019-0.0957v-0.6l0.019-0.0957 0.0542-0.0811 0.0811-0.0542 0.0957-0.019h0.6l0.0957 0.019 0.0811 0.0542 0.0542 0.0811 0.019 0.0957v0.6l-0.019 0.0957-0.0542 0.0811-0.0811 0.0542-0.0957 0.019z"/>
    <path d="m52.455 12.725-0.0957-0.019-0.0811-0.0542-0.0542-0.0811-0.019-0.0957v-0.6l0.019-0.0957 0.0542-0.0811 0.0811-0.0542 0.0957-0.019h0.6l0.0957 0.019 0.0811 0.0542 0.0542 0.0811 0.019 0.0957v0.6l-0.019 0.0957-0.0542 0.0811-0.0811 0.0542-0.0957 0.019z"/>
    <path d="m52.455 82.2-0.0957-0.019-0.0811-0.0542-0.0542-0.0811-0.019-0.0957v-0.6l0.019-0.0957 0.0542-0.0811 0.0811-0.0542 0.0957-0.019h0.6l0.0957 0.019 0.0811 0.0542 0.0542 0.0811 0.019 0.0957v0.6l-0.019 0.0957-0.0542 0.0811-0.0811 0.0542-0.0957 0.019z"/>
    <path d="m52.455 79.4-0.0957-0.019-0.0811-0.0542-0.0542-0.0811-0.019-0.0957v-0.6l0.019-0.0957 0.0542-0.0811 0.0811-0.0542 0.0957-0.019h0.6l0.0957 0.019 0.0811 0.0542 0.0542 0.0811 0.019 0.0957v0.6l-0.019 0.0957-0.0542 0.0811-0.0811 0.0542-0.0957 0.019z"/>
    <path d="m14.355 63.15-0.0957-0.019-0.0811-0.0542-0.0542-0.0811-0.019-0.0957v-0.6l0.019-0.0957 0.0542-0.0811 0.0811-0.0542 0.0957-0.019h0.6l0.0957 0.019 0.0811 0.0542 0.0542 0.0811 0.019 0.0957v0.6l-0.019 0.0957-0.0542 0.0811-0.0811 0.0542-0.0957 0.019z"/>
    <path d="m14.355 60.35-0.0957-0.019-0.0811-0.0542-0.0542-0.0811-0.019-0.0957v-0.6l0.019-0.0957 0.0542-0.0811 0.0811-0.0542 0.0957-0.019h0.6l0.0957 0.019 0.0811 0.0542 0.0542 0.0811 0.019 0.0957v0.6l-0.019 0.0957-0.0542 0.0811-0.0811 0.0542-0.0957 0.019z"/>
    <path d="m14.355 82.2-0.0957-0.019-0.0811-0.0542-0.0542-0.0811-0.019-0.0957v-0.6l0.019-0.0957 0.0542-0.0811 0.0811-0.0542 0.0957-0.019h0.6l0.0957 0.019 0.0811 0.0542 0.0542 0.0811 0.019 0.0957v0.6l-0.019 0.0957-0.0542 0.0811-0.0811 0.0542-0.0957 0.019z"/>
    <path d="m14.355 79.4-0.0957-0.019-0.0811-0.0542-0.0542-0.0811-0.019-0.0957v-0.6l0.019-0.0957 0.0542-0.0811 0.0811-0.0542 0.0957-0.019h0.6l0.0957 0.019 0.0811 0.0542 0.0542 0.0811 0.019 0.0957v0.6l-0.019 0.0957-0.0542 0.0811-0.0811 0.0542-0.0957 0.019z"/>
    <path d="m14.355 15.525-0.0957-0.019-0.0811-0.0542-0.0542-0.0811-0.019-0.0957v-0.6l0.019-0.0957 0.0542-0.0811 0.0811-0.0542 0.0957-0.019h0.6l0.0957 0.019 0.0811 0.0542 0.0542 0.0811 0.019 0.0957v0.6l-0.019 0.0957-0.0542 0.0811-0.0811 0.0542-0.0957 0.019z"/>
    <path d="m14.355 12.725-0.0957-0.019-0.0811-0.0542-0.0542-0.0811-0.019-0.0957v-0.6l0.019-0.0957 0.0542-0.0811 0.0811-0.0542 0.0957-0.019h0.6l0.0957 0.019 0.0811 0.0542 0.0542 0.0811 0.019 0.0957v0.6l-0.019 0.0957-0.0542 0.0811-0.0811 0.0542-0.0957 0.019z"/>
    <path d="m33.405 39.338-0.0957-0.019-0.0811-0.0542-0.0542-0.0811-0.019-0.0957v-0.6l0.019-0.0957 0.0542-0.0811 0.0811-0.0542 0.0957-0.019h0.6l0.0957 0.019 0.0811 0.0542 0.0542 0.0811 0.019 0.0957v0.6l-0.019 0.0957-0.0542 0.0811-0.0811 0.0542-0.0957 0.019z"/>
    <path d="m33.405 36.538-0.0957-0.019-0.0811-0.0542-0.0542-0.0811-0.019-0.0957v-0.6l0.019-0.0957 0.0542-0.0811 0.0811-0.0542 0.0957-0.019h0.6l0.0957 0.019 0.0811 0.0542 0.0542 0.0811 0.019 0.0957v0.6l-0.019 0.0957-0.0542 0.0811-0.0811 0.0542-0.0957 0.019z"/>
    <path d="m71.505 39.338-0.0957-0.019-0.0811-0.0542-0.0542-0.0811-0.019-0.0957v-0.6l0.019-0.0957 0.0542-0.0811 0.0811-0.0542 0.0957-0.019h0.6l0.0957 0.019 0.0811 0.0542 0.0542 0.0811 0.019 0.0957v0.6l-0.019 0.0957-0.0542 0.0811-0.0811 0.0542-0.0957 0.019z"/>
    <path d="m71.505 36.538-0.0957-0.019-0.0811-0.0542-0.0542-0.0811-0.019-0.0957v-0.6l0.019-0.0957 0.0542-0.0811 0.0811-0.0542 0.0957-0.019h0.6l0.0957 0.019 0.0811 0.0542 0.0542 0.0811 0.019 0.0957v0.6l-0.019 0.0957-0.0542 0.0811-0.0811 0.0542-0.0957 0.019z"/>
    <path d="m71.505 82.2-0.0957-0.019-0.0811-0.0542-0.0542-0.0811-0.019-0.0957v-0.6l0.019-0.0957 0.0542-0.0811 0.0811-0.0542 0.0957-0.019h0.6l0.0957 0.019 0.0811 0.0542 0.0542 0.0811 0.019 0.0957v0.6l-0.019 0.0957-0.0542 0.0811-0.0811 0.0542-0.0957 0.019z"/>
    <path d="m71.505 79.4-0.0957-0.019-0.0811-0.0542-0.0542-0.0811-0.019-0.0957v-0.6l0.019-0.0957 0.0542-0.0811 0.0811-0.0542 0.0957-0.019h0.6l0.0957 0.019 0.0811 0.0542 0.0542 0.0811 0.019 0.0957v0.6l-0.019 0.0957-0.0542 0.0811-0.0811 0.0542-0.0957 0.019z"/>
   </g>
  </g>
 </g>
 <g fill="none" stroke="#50FA7B" stroke-linecap="round" stroke-linejoin="round" stroke-width=".2">
  <path d="m12.115 52.12v5.14"/>
  <path d="m12.115 57.26 2.54 2.54"/>
  <path d="m31.165 52.12v5.14"/>
  <path d="m31.165 57.26 2.54 2.54"/>
  <path d="m50.215 52.12v5.14"/>
  <path d="m50.215 57.26 2.54 2.54"/>
  <path d="m69.265 52.12v5.14"/>
  <path d="m69.265 57.26 2.54 2.54"/>
  <path d="m12.115 76.31 2.54 2.54"/>
  <path d="m12.115 71.17v5.14"/>
  <path d="m31.165 76.31 2.54 2.54"/>
  <path d="m31.165 71.17v5.14"/>
  <path d="m50.215 76.31 2.54 2.54"/>
  <path d="m50.215 71.17v5.14"/>
  <path d="m69.265 71.17v5.14"/>
  <path d="m69.265 76.31 2.54 2.54"/>
  <path d="m12.115 33.448 2.54 2.54"/>
  <path d="m12.115 28.308v5.14"/>
  <path d="m31.165 28.308v5.14"/>
  <path d="m31.165 33.448 2.54 2.54"/>
  <path d="m50.215 28.308v5.14"/>
  <path d="m50.215 33.448 2.54 2.54"/>
  <path d="m69.265 28.308v5.14"/>
  <path d="m69.265 33.448 2.54 2.54"/>
  <path d="m12.115 4.495v5.14"/>
  <path d="m12.115 9.635 2.54 2.54"/>
  <path d="m31.165 4.495v5.14"/>
  <path d="m31.165 9.635 2.54 2.54"/>
  <path d="m50.215 4.495v5.14"/>
  <path d="m50.215 9.635 2.54 2.54"/>
  <path d="m69.265 4.495v5.14"/>
  <path d="m69.265 9.635 2.54 2.54"/>
  <path d="m14.655 38.788h19.05"/>
  <path d="m14.655 14.975h19.05"/>
  <path d="m14.655 81.65h19.05"/>
  <path d="m33.705 62.6h19.05"/>
  <path d="m33.705 38.788h19.05"/>
  <path d="m33.705 14.975h19.05"/>
  <path d="m33.705 81.65h19.05"/>
  <path d="m52.755 14.975h19.05"/>
  <path d="m52.755 38.788h19.05"/>
  <path d="m14.655 62.6h19.05"/>
  <path d="m52.755 62.6h19.05"/>
  <path d="m52.755 81.65h19.05"/>
 </g>
 <g fill="#fff">
  <circle cx="4.495" cy="33.388" r=".875"/>
  <circle cx="9.575" cy="33.388" r="2"/>
  <circle cx="14.655" cy="33.388" r=".875"/>
  <circle cx="5.765" cy="30.848" r=".75"/>
  <circle cx="12.115" cy="28.308" r=".75"/>
  <circle cx="23.545" cy="9.575" r=".875"/>
  <circle cx="28.625" cy="9.575" r="2"/>
  <circle cx="33.705" cy="9.575" r=".875"/>
  <circle cx="24.815" cy="7.035" r=".75"/>
  <circle cx="31.165" cy="4.495" r=".75"/>
  <circle cx="4.495" cy="76.25" r=".875"/>
  <circle cx="9.575" cy="76.25" r="2"/>
  <circle cx="14.655" cy="76.25" r=".875"/>
  <circle cx="5.765" cy="73.71" r=".75"/>
  <circle cx="12.115" cy="71.17" r=".75"/>
  <circle cx="4.495" cy="9.575" r=".875"/>
  <circle cx="9.575" cy="9.575" r="2"/>
  <circle cx="14.655" cy="9.575" r=".875"/>
  <circle cx="5.765" cy="7.035" r=".75"/>
  <circle cx="12.115" cy="4.495" r=".75"/>
  <circle cx="42.595" cy="9.575" r=".875"/>
  <circle cx="47.675" cy="9.575" r="2"/>
  <circle cx="52.755" cy="9.575" r=".875"/>
  <circle cx="43.865" cy="7.035" r=".75"/>
  <circle cx="50.215" cy="4.495" r=".75"/>
  <circle cx="61.645" cy="33.388" r=".875"/>
  <circle cx="66.725" cy="33.388" r="2"/>
  <circle cx="71.805" cy="33.388" r=".875"/>
  <circle cx="62.915" cy="30.848" r=".75"/>
  <circle cx="69.265" cy="28.308" r=".75"/>
  <circle cx="42.595" cy="33.388" r=".875"/>
  <circle cx="47.675" cy="33.388" r="2"/>
  <circle cx="52.755" cy="33.388" r=".875"/>
  <circle cx="43.865" cy="30.848" r=".75"/>
  <circle cx="50.215" cy="28.308" r=".75"/>
  <circle cx="42.595" cy="76.25" r=".875"/>
  <circle cx="47.675" cy="76.25" r="2"/>
  <circle cx="52.755" cy="76.25" r=".875"/>
  <circle cx="43.865" cy="73.71" r=".75"/>
  <circle cx="50.215" cy="71.17" r=".75"/>
  <circle cx="23.545" cy="57.2" r=".875"/>
  <circle cx="28.625" cy="57.2" r="2"/>
  <circle cx="33.705" cy="57.2" r=".875"/>
  <circle cx="24.815" cy="54.66" r=".75"/>
  <circle cx="31.165" cy="52.12" r=".75"/>
  <circle cx="42.595" cy="57.2" r=".875"/>
  <circle cx="47.675" cy="57.2" r="2"/>
  <circle cx="52.755" cy="57.2" r=".875"/>
  <circle cx="43.865" cy="54.66" r=".75"/>
  <circle cx="50.215" cy="52.12" r=".75"/>
  <circle cx="23.545" cy="33.388" r=".875"/>
  <circle cx="28.625" cy="33.388" r="2"/>
  <circle cx="33.705" cy="33.388" r=".875"/>
  <circle cx="24.815" cy="30.848" r=".75"/>
  <circle cx="31.165" cy="28.308" r=".75"/>
  <circle cx="23.545" cy="76.25" r=".875"/>
  <circle cx="28.625" cy="76.25" r="2"/>
  <circle cx="33.705" cy="76.25" r=".875"/>
  <circle cx="24.815" cy="73.71" r=".75"/>
  <circle cx="31.165" cy="71.17" r=".75"/>
  <circle cx="61.645" cy="57.2" r=".875"/>
  <circle cx="66.725" cy="57.2" r="2"/>
  <circle cx="71.805" cy="57.2" r=".875"/>
  <circle cx="62.915" cy="54.66" r=".75"/>
  <circle cx="69.265" cy="52.12" r=".75"/>
  <circle cx="61.645" cy="9.575" r=".875"/>
  <circle cx="66.725" cy="9.575" r="2"/>
  <circle cx="71.805" cy="9.575" r=".875"/>
  <circle cx="62.915" cy="7.035" r=".75"/>
  <circle cx="69.265" cy="4.495" r=".75"/>
  <circle cx="4.495" cy="57.2" r=".875"/>
  <circle cx="9.575" cy="57.2" r="2"/>
  <circle cx="14.655" cy="57.2" r=".875"/>
  <circle cx="5.765" cy="54.66" r=".75"/>
  <circle cx="12.115" cy="52.12" r=".75"/>
  <circle cx="61.645" cy="76.25" r=".875"/>
  <circle cx="66.725" cy="76.25" r="2"/>
  <circle cx="71.805" cy="76.25" r=".875"/>
  <circle cx="62.915" cy="73.71" r=".75"/>
  <circle cx="69.265" cy="71.17" r=".75"/>
 </g>
</svg>
