<?xml version="1.0" encoding="UTF-8"?>
<!DOCTYPE svg  PUBLIC '-//W3C//DTD SVG 1.1//EN'  'http://www.w3.org/Graphics/SVG/1.1/DTD/svg11.dtd'>
<svg width="76.276mm" height="66.751mm" version="1.1" viewBox="0 0 76.276 66.751" xmlns="http://www.w3.org/2000/svg">
 <title>SVG Image created as dp3000-rev1-render.svg date 2025/09/05 18:44:28</title>
 <desc>Image generated by PCBNEW</desc>
 <rect width="76.276mm" height="66.751mm" fill="#282A36"/>
 <g fill="none" stroke="#8BE9FD" stroke-linecap="round" stroke-linejoin="round" stroke-width=".15">
  <text x="28.6250" y="30.6500" font-size="1.3333" opacity="0" stroke-opacity="0" text-anchor="middle" lengthAdjust="spacingAndGlyphs" textLength="3.2976">SW4</text>
  <g class="stroked-text">
   <desc>SW4</desc>
   <path d="m27.292 30.557 0.1428 0.0476"/>
   <path d="m27.434 30.605h0.2381"/>
   <path d="m27.673 30.605 0.0953-0.0476"/>
   <path d="m27.768 30.557 0.0476-0.0476"/>
   <path d="m27.816 30.51 0.0476-0.0953"/>
   <path d="m27.863 30.414v-0.0952"/>
   <path d="m27.863 30.319-0.0476-0.0952"/>
   <path d="m27.816 30.224-0.0476-0.0477"/>
   <path d="m27.768 30.176-0.0953-0.0476"/>
   <path d="m27.673 30.129-0.1905-0.0476"/>
   <path d="m27.482 30.081-0.0952-0.0476"/>
   <path d="m27.387 30.033-0.0476-0.0476"/>
   <path d="m27.339 29.986-0.0476-0.0953"/>
   <path d="m27.292 29.89v-0.0952"/>
   <path d="m27.292 29.795 0.0476-0.0952"/>
   <path d="m27.339 29.7 0.0476-0.0477"/>
   <path d="m27.387 29.652 0.0952-0.0476"/>
   <path d="m27.482 29.605h0.2381"/>
   <path d="m27.72 29.605 0.1429 0.0476"/>
   <path d="m28.196 29.605 0.2381 1"/>
   <path d="m28.434 30.605 0.1905-0.7143"/>
   <path d="m28.625 29.89 0.1905 0.7143"/>
   <path d="m28.816 30.605 0.2381-1"/>
   <path d="m29.863 29.938v0.6666"/>
   <path d="m29.625 29.557-0.2381 0.7143"/>
   <path d="m29.387 30.272h0.6191"/>
  </g>
  <text x="28.6250" y="49.7000" font-size="1.3333" opacity="0" stroke-opacity="0" text-anchor="middle" lengthAdjust="spacingAndGlyphs" textLength="3.2976">SW8</text>
  <g class="stroked-text">
   <desc>SW8</desc>
   <path d="m27.292 49.607 0.1428 0.0476"/>
   <path d="m27.434 49.655h0.2381"/>
   <path d="m27.673 49.655 0.0953-0.0476"/>
   <path d="m27.768 49.607 0.0476-0.0476"/>
   <path d="m27.816 49.56 0.0476-0.0953"/>
   <path d="m27.863 49.464v-0.0952"/>
   <path d="m27.863 49.369-0.0476-0.0952"/>
   <path d="m27.816 49.274-0.0476-0.0477"/>
   <path d="m27.768 49.226-0.0953-0.0476"/>
   <path d="m27.673 49.179-0.1905-0.0476"/>
   <path d="m27.482 49.131-0.0952-0.0476"/>
   <path d="m27.387 49.083-0.0476-0.0476"/>
   <path d="m27.339 49.036-0.0476-0.0953"/>
   <path d="m27.292 48.94v-0.0952"/>
   <path d="m27.292 48.845 0.0476-0.0952"/>
   <path d="m27.339 48.75 0.0476-0.0477"/>
   <path d="m27.387 48.702 0.0952-0.0476"/>
   <path d="m27.482 48.655h0.2381"/>
   <path d="m27.72 48.655 0.1429 0.0476"/>
   <path d="m28.196 48.655 0.2381 1"/>
   <path d="m28.434 49.655 0.1905-0.7143"/>
   <path d="m28.625 48.94 0.1905 0.7143"/>
   <path d="m28.816 49.655 0.2381-1"/>
   <path d="m29.577 49.083-0.0953-0.0476"/>
   <path d="m29.482 49.036-0.0476-0.0476"/>
   <path d="m29.434 48.988-0.0476-0.0953"/>
   <path d="m29.387 48.893v-0.0476"/>
   <path d="m29.387 48.845 0.0476-0.0952"/>
   <path d="m29.434 48.75 0.0476-0.0477"/>
   <path d="m29.482 48.702 0.0953-0.0476"/>
   <path d="m29.577 48.655h0.1905"/>
   <path d="m29.768 48.655 0.0952 0.0476"/>
   <path d="m29.863 48.702 0.0476 0.0477"/>
   <path d="m29.911 48.75 0.0476 0.0952"/>
   <path d="m29.958 48.845v0.0476"/>
   <path d="m29.958 48.893-0.0476 0.0953"/>
   <path d="m29.911 48.988-0.0476 0.0476"/>
   <path d="m29.863 49.036-0.0952 0.0476"/>
   <path d="m29.768 49.083h-0.1905"/>
   <path d="m29.577 49.083-0.0953 0.0476"/>
   <path d="m29.482 49.131-0.0476 0.0476"/>
   <path d="m29.434 49.179-0.0476 0.0953"/>
   <path d="m29.387 49.274v0.1904"/>
   <path d="m29.387 49.464 0.0476 0.0953"/>
   <path d="m29.434 49.56 0.0476 0.0476"/>
   <path d="m29.482 49.607 0.0953 0.0476"/>
   <path d="m29.577 49.655h0.1905"/>
   <path d="m29.768 49.655 0.0952-0.0476"/>
   <path d="m29.863 49.607 0.0476-0.0476"/>
   <path d="m29.911 49.56 0.0476-0.0953"/>
   <path d="m29.958 49.464v-0.1904"/>
   <path d="m29.958 49.274-0.0476-0.0953"/>
   <path d="m29.911 49.179-0.0476-0.0476"/>
   <path d="m29.863 49.131-0.0952-0.0476"/>
  </g>
  <text x="9.5750" y="2.0750" font-size="1.3333" opacity="0" stroke-opacity="0" text-anchor="middle" lengthAdjust="spacingAndGlyphs" textLength="3.2976">SW1</text>
  <g class="stroked-text">
   <desc>SW1</desc>
   <path d="m8.2417 1.9822 0.1428 0.0476"/>
   <path d="m8.3845 2.0298h0.2381"/>
   <path d="m8.6226 2.0298 0.0953-0.0476"/>
   <path d="m8.7179 1.9822 0.0476-0.0476"/>
   <path d="m8.7655 1.9346 0.0476-0.0953"/>
   <path d="m8.8131 1.8393v-0.0952"/>
   <path d="m8.8131 1.7441-0.0476-0.0952"/>
   <path d="m8.7655 1.6489-0.0476-0.0477"/>
   <path d="m8.7179 1.6012-0.0953-0.0476"/>
   <path d="m8.6226 1.5536-0.1905-0.0476"/>
   <path d="m8.4321 1.506-0.0952-0.0476"/>
   <path d="m8.3369 1.4584-0.0476-0.0476"/>
   <path d="m8.2893 1.4108-0.0476-0.0953"/>
   <path d="m8.2417 1.3155v-0.0952"/>
   <path d="m8.2417 1.2203 0.0476-0.0952"/>
   <path d="m8.2893 1.1251 0.0476-0.0477"/>
   <path d="m8.3369 1.0774 0.0952-0.0476"/>
   <path d="m8.4321 1.0298h0.2381"/>
   <path d="m8.6702 1.0298 0.1429 0.0476"/>
   <path d="m9.1464 1.0298 0.2381 1"/>
   <path d="m9.3845 2.0298 0.1905-0.7143"/>
   <path d="m9.575 1.3155 0.1905 0.7143"/>
   <path d="m9.7655 2.0298 0.2381-1"/>
   <path d="m10.908 2.0298h-0.5714"/>
   <path d="m10.623 2.0298v-1"/>
   <path d="m10.623 1.0298-0.0952 0.1429"/>
   <path d="m10.527 1.1727-0.0953 0.0952"/>
   <path d="m10.432 1.2679-0.0952 0.0476"/>
  </g>
  <text x="66.7250" y="30.6500" font-size="1.3333" opacity="0" stroke-opacity="0" text-anchor="middle" lengthAdjust="spacingAndGlyphs" textLength="3.2976">SW6</text>
  <g class="stroked-text">
   <desc>SW6</desc>
   <path d="m65.392 30.557 0.1428 0.0476"/>
   <path d="m65.534 30.605h0.2381"/>
   <path d="m65.773 30.605 0.0953-0.0476"/>
   <path d="m65.868 30.557 0.0476-0.0476"/>
   <path d="m65.916 30.51 0.0476-0.0953"/>
   <path d="m65.963 30.414v-0.0952"/>
   <path d="m65.963 30.319-0.0476-0.0952"/>
   <path d="m65.916 30.224-0.0476-0.0477"/>
   <path d="m65.868 30.176-0.0953-0.0476"/>
   <path d="m65.773 30.129-0.1905-0.0476"/>
   <path d="m65.582 30.081-0.0952-0.0476"/>
   <path d="m65.487 30.033-0.0476-0.0476"/>
   <path d="m65.439 29.986-0.0476-0.0953"/>
   <path d="m65.392 29.89v-0.0952"/>
   <path d="m65.392 29.795 0.0476-0.0952"/>
   <path d="m65.439 29.7 0.0476-0.0477"/>
   <path d="m65.487 29.652 0.0952-0.0476"/>
   <path d="m65.582 29.605h0.2381"/>
   <path d="m65.82 29.605 0.1429 0.0476"/>
   <path d="m66.296 29.605 0.2381 1"/>
   <path d="m66.534 30.605 0.1905-0.7143"/>
   <path d="m66.725 29.89 0.1905 0.7143"/>
   <path d="m66.916 30.605 0.2381-1"/>
   <path d="m67.963 29.605h-0.1905"/>
   <path d="m67.773 29.605-0.0952 0.0476"/>
   <path d="m67.677 29.652-0.0476 0.0477"/>
   <path d="m67.63 29.7-0.0953 0.1428"/>
   <path d="m67.534 29.843-0.0476 0.1905"/>
   <path d="m67.487 30.033v0.3809"/>
   <path d="m67.487 30.414 0.0476 0.0953"/>
   <path d="m67.534 30.51 0.0476 0.0476"/>
   <path d="m67.582 30.557 0.0953 0.0476"/>
   <path d="m67.677 30.605h0.1905"/>
   <path d="m67.868 30.605 0.0952-0.0476"/>
   <path d="m67.963 30.557 0.0476-0.0476"/>
   <path d="m68.011 30.51 0.0476-0.0953"/>
   <path d="m68.058 30.414v-0.2381"/>
   <path d="m68.058 30.176-0.0476-0.0952"/>
   <path d="m68.011 30.081-0.0476-0.0476"/>
   <path d="m67.963 30.033-0.0952-0.0476"/>
   <path d="m67.868 29.986h-0.1905"/>
   <path d="m67.677 29.986-0.0953 0.0476"/>
   <path d="m67.582 30.033-0.0476 0.0476"/>
   <path d="m67.534 30.081-0.0476 0.0952"/>
  </g>
  <text x="9.5750" y="30.6500" font-size="1.3333" opacity="0" stroke-opacity="0" text-anchor="middle" lengthAdjust="spacingAndGlyphs" textLength="3.2976">SW3</text>
  <g class="stroked-text">
   <desc>SW3</desc>
   <path d="m8.2417 30.557 0.1428 0.0476"/>
   <path d="m8.3845 30.605h0.2381"/>
   <path d="m8.6226 30.605 0.0953-0.0476"/>
   <path d="m8.7179 30.557 0.0476-0.0476"/>
   <path d="m8.7655 30.51 0.0476-0.0953"/>
   <path d="m8.8131 30.414v-0.0952"/>
   <path d="m8.8131 30.319-0.0476-0.0952"/>
   <path d="m8.7655 30.224-0.0476-0.0477"/>
   <path d="m8.7179 30.176-0.0953-0.0476"/>
   <path d="m8.6226 30.129-0.1905-0.0476"/>
   <path d="m8.4321 30.081-0.0952-0.0476"/>
   <path d="m8.3369 30.033-0.0476-0.0476"/>
   <path d="m8.2893 29.986-0.0476-0.0953"/>
   <path d="m8.2417 29.89v-0.0952"/>
   <path d="m8.2417 29.795 0.0476-0.0952"/>
   <path d="m8.2893 29.7 0.0476-0.0477"/>
   <path d="m8.3369 29.652 0.0952-0.0476"/>
   <path d="m8.4321 29.605h0.2381"/>
   <path d="m8.6702 29.605 0.1429 0.0476"/>
   <path d="m9.1464 29.605 0.2381 1"/>
   <path d="m9.3845 30.605 0.1905-0.7143"/>
   <path d="m9.575 29.89 0.1905 0.7143"/>
   <path d="m9.7655 30.605 0.2381-1"/>
   <path d="m10.289 29.605h0.619"/>
   <path d="m10.908 29.605-0.3333 0.381"/>
   <path d="m10.575 29.986h0.1429"/>
   <path d="m10.718 29.986 0.0952 0.0476"/>
   <path d="m10.813 30.033 0.0476 0.0476"/>
   <path d="m10.861 30.081 0.0476 0.0952"/>
   <path d="m10.908 30.176v0.2381"/>
   <path d="m10.908 30.414-0.0476 0.0953"/>
   <path d="m10.861 30.51-0.0476 0.0476"/>
   <path d="m10.813 30.557-0.0952 0.0476"/>
   <path d="m10.718 30.605h-0.2858"/>
   <path d="m10.432 30.605-0.0952-0.0476"/>
   <path d="m10.337 30.557-0.0476-0.0476"/>
  </g>
  <text x="66.7250" y="2.0750" font-size="1.3333" opacity="0" stroke-opacity="0" text-anchor="middle" lengthAdjust="spacingAndGlyphs" textLength="3.2976">SW2</text>
  <g class="stroked-text">
   <desc>SW2</desc>
   <path d="m65.392 1.9822 0.1428 0.0476"/>
   <path d="m65.534 2.0298h0.2381"/>
   <path d="m65.773 2.0298 0.0953-0.0476"/>
   <path d="m65.868 1.9822 0.0476-0.0476"/>
   <path d="m65.916 1.9346 0.0476-0.0953"/>
   <path d="m65.963 1.8393v-0.0952"/>
   <path d="m65.963 1.7441-0.0476-0.0952"/>
   <path d="m65.916 1.6489-0.0476-0.0477"/>
   <path d="m65.868 1.6012-0.0953-0.0476"/>
   <path d="m65.773 1.5536-0.1905-0.0476"/>
   <path d="m65.582 1.506-0.0952-0.0476"/>
   <path d="m65.487 1.4584-0.0476-0.0476"/>
   <path d="m65.439 1.4108-0.0476-0.0953"/>
   <path d="m65.392 1.3155v-0.0952"/>
   <path d="m65.392 1.2203 0.0476-0.0952"/>
   <path d="m65.439 1.1251 0.0476-0.0477"/>
   <path d="m65.487 1.0774 0.0952-0.0476"/>
   <path d="m65.582 1.0298h0.2381"/>
   <path d="m65.82 1.0298 0.1429 0.0476"/>
   <path d="m66.296 1.0298 0.2381 1"/>
   <path d="m66.534 2.0298 0.1905-0.7143"/>
   <path d="m66.725 1.3155 0.1905 0.7143"/>
   <path d="m66.916 2.0298 0.2381-1"/>
   <path d="m67.487 1.1251 0.0476-0.0477"/>
   <path d="m67.534 1.0774 0.0953-0.0476"/>
   <path d="m67.63 1.0298h0.2381"/>
   <path d="m67.868 1.0298 0.0952 0.0476"/>
   <path d="m67.963 1.0774 0.0476 0.0477"/>
   <path d="m68.011 1.1251 0.0476 0.0952"/>
   <path d="m68.058 1.2203v0.0952"/>
   <path d="m68.058 1.3155-0.0476 0.1429"/>
   <path d="m68.011 1.4584-0.5714 0.5714"/>
   <path d="m67.439 2.0298h0.619"/>
  </g>
  <text x="47.6750" y="49.7000" font-size="1.3333" opacity="0" stroke-opacity="0" text-anchor="middle" lengthAdjust="spacingAndGlyphs" textLength="3.2976">SW9</text>
  <g class="stroked-text">
   <desc>SW9</desc>
   <path d="m46.342 49.607 0.1428 0.0476"/>
   <path d="m46.484 49.655h0.2381"/>
   <path d="m46.723 49.655 0.0953-0.0476"/>
   <path d="m46.818 49.607 0.0476-0.0476"/>
   <path d="m46.866 49.56 0.0476-0.0953"/>
   <path d="m46.913 49.464v-0.0952"/>
   <path d="m46.913 49.369-0.0476-0.0952"/>
   <path d="m46.866 49.274-0.0476-0.0477"/>
   <path d="m46.818 49.226-0.0953-0.0476"/>
   <path d="m46.723 49.179-0.1905-0.0476"/>
   <path d="m46.532 49.131-0.0952-0.0476"/>
   <path d="m46.437 49.083-0.0476-0.0476"/>
   <path d="m46.389 49.036-0.0476-0.0953"/>
   <path d="m46.342 48.94v-0.0952"/>
   <path d="m46.342 48.845 0.0476-0.0952"/>
   <path d="m46.389 48.75 0.0476-0.0477"/>
   <path d="m46.437 48.702 0.0952-0.0476"/>
   <path d="m46.532 48.655h0.2381"/>
   <path d="m46.77 48.655 0.1429 0.0476"/>
   <path d="m47.246 48.655 0.2381 1"/>
   <path d="m47.484 49.655 0.1905-0.7143"/>
   <path d="m47.675 48.94 0.1905 0.7143"/>
   <path d="m47.866 49.655 0.2381-1"/>
   <path d="m48.532 49.655h0.1905"/>
   <path d="m48.723 49.655 0.0953-0.0476"/>
   <path d="m48.818 49.607 0.0476-0.0476"/>
   <path d="m48.866 49.56 0.0952-0.1429"/>
   <path d="m48.961 49.417 0.0476-0.1905"/>
   <path d="m49.008 49.226v-0.3809"/>
   <path d="m49.008 48.845-0.0476-0.0952"/>
   <path d="m48.961 48.75-0.0476-0.0477"/>
   <path d="m48.913 48.702-0.0952-0.0476"/>
   <path d="m48.818 48.655h-0.1905"/>
   <path d="m48.627 48.655-0.0953 0.0476"/>
   <path d="m48.532 48.702-0.0476 0.0477"/>
   <path d="m48.484 48.75-0.0476 0.0952"/>
   <path d="m48.437 48.845v0.2381"/>
   <path d="m48.437 49.083 0.0476 0.0952"/>
   <path d="m48.484 49.179 0.0476 0.0476"/>
   <path d="m48.532 49.226 0.0953 0.0477"/>
   <path d="m48.627 49.274h0.1905"/>
   <path d="m48.818 49.274 0.0952-0.0477"/>
   <path d="m48.913 49.226 0.0476-0.0476"/>
   <path d="m48.961 49.179 0.0476-0.0952"/>
  </g>
  <text x="47.6750" y="30.6500" font-size="1.3333" opacity="0" stroke-opacity="0" text-anchor="middle" lengthAdjust="spacingAndGlyphs" textLength="3.2976">SW5</text>
  <g class="stroked-text">
   <desc>SW5</desc>
   <path d="m46.342 30.557 0.1428 0.0476"/>
   <path d="m46.484 30.605h0.2381"/>
   <path d="m46.723 30.605 0.0953-0.0476"/>
   <path d="m46.818 30.557 0.0476-0.0476"/>
   <path d="m46.866 30.51 0.0476-0.0953"/>
   <path d="m46.913 30.414v-0.0952"/>
   <path d="m46.913 30.319-0.0476-0.0952"/>
   <path d="m46.866 30.224-0.0476-0.0477"/>
   <path d="m46.818 30.176-0.0953-0.0476"/>
   <path d="m46.723 30.129-0.1905-0.0476"/>
   <path d="m46.532 30.081-0.0952-0.0476"/>
   <path d="m46.437 30.033-0.0476-0.0476"/>
   <path d="m46.389 29.986-0.0476-0.0953"/>
   <path d="m46.342 29.89v-0.0952"/>
   <path d="m46.342 29.795 0.0476-0.0952"/>
   <path d="m46.389 29.7 0.0476-0.0477"/>
   <path d="m46.437 29.652 0.0952-0.0476"/>
   <path d="m46.532 29.605h0.2381"/>
   <path d="m46.77 29.605 0.1429 0.0476"/>
   <path d="m47.246 29.605 0.2381 1"/>
   <path d="m47.484 30.605 0.1905-0.7143"/>
   <path d="m47.675 29.89 0.1905 0.7143"/>
   <path d="m47.866 30.605 0.2381-1"/>
   <path d="m48.961 29.605h-0.4762"/>
   <path d="m48.484 29.605-0.0476 0.4762"/>
   <path d="m48.437 30.081 0.0476-0.0476"/>
   <path d="m48.484 30.033 0.0953-0.0476"/>
   <path d="m48.58 29.986h0.2381"/>
   <path d="m48.818 29.986 0.0952 0.0476"/>
   <path d="m48.913 30.033 0.0476 0.0476"/>
   <path d="m48.961 30.081 0.0476 0.0952"/>
   <path d="m49.008 30.176v0.2381"/>
   <path d="m49.008 30.414-0.0476 0.0953"/>
   <path d="m48.961 30.51-0.0476 0.0476"/>
   <path d="m48.913 30.557-0.0952 0.0476"/>
   <path d="m48.818 30.605h-0.2381"/>
   <path d="m48.58 30.605-0.0953-0.0476"/>
   <path d="m48.484 30.557-0.0476-0.0476"/>
  </g>
  <text x="9.5750" y="49.7000" font-size="1.3333" opacity="0" stroke-opacity="0" text-anchor="middle" lengthAdjust="spacingAndGlyphs" textLength="3.2976">SW7</text>
  <g class="stroked-text">
   <desc>SW7</desc>
   <path d="m8.2417 49.607 0.1428 0.0476"/>
   <path d="m8.3845 49.655h0.2381"/>
   <path d="m8.6226 49.655 0.0953-0.0476"/>
   <path d="m8.7179 49.607 0.0476-0.0476"/>
   <path d="m8.7655 49.56 0.0476-0.0953"/>
   <path d="m8.8131 49.464v-0.0952"/>
   <path d="m8.8131 49.369-0.0476-0.0952"/>
   <path d="m8.7655 49.274-0.0476-0.0477"/>
   <path d="m8.7179 49.226-0.0953-0.0476"/>
   <path d="m8.6226 49.179-0.1905-0.0476"/>
   <path d="m8.4321 49.131-0.0952-0.0476"/>
   <path d="m8.3369 49.083-0.0476-0.0476"/>
   <path d="m8.2893 49.036-0.0476-0.0953"/>
   <path d="m8.2417 48.94v-0.0952"/>
   <path d="m8.2417 48.845 0.0476-0.0952"/>
   <path d="m8.2893 48.75 0.0476-0.0477"/>
   <path d="m8.3369 48.702 0.0952-0.0476"/>
   <path d="m8.4321 48.655h0.2381"/>
   <path d="m8.6702 48.655 0.1429 0.0476"/>
   <path d="m9.1464 48.655 0.2381 1"/>
   <path d="m9.3845 49.655 0.1905-0.7143"/>
   <path d="m9.575 48.94 0.1905 0.7143"/>
   <path d="m9.7655 49.655 0.2381-1"/>
   <path d="m10.289 48.655h0.6667"/>
   <path d="m10.956 48.655-0.4286 1"/>
  </g>
  <text x="66.7250" y="49.7000" font-size="1.3333" opacity="0" stroke-opacity="0" text-anchor="middle" lengthAdjust="spacingAndGlyphs" textLength="4.2500">SW10</text>
  <g class="stroked-text">
   <desc>SW10</desc>
   <path d="m64.916 49.607 0.1428 0.0476"/>
   <path d="m65.058 49.655h0.2381"/>
   <path d="m65.296 49.655 0.0953-0.0476"/>
   <path d="m65.392 49.607 0.0476-0.0476"/>
   <path d="m65.439 49.56 0.0476-0.0953"/>
   <path d="m65.487 49.464v-0.0952"/>
   <path d="m65.487 49.369-0.0476-0.0952"/>
   <path d="m65.439 49.274-0.0476-0.0477"/>
   <path d="m65.392 49.226-0.0953-0.0476"/>
   <path d="m65.296 49.179-0.1904-0.0476"/>
   <path d="m65.106 49.131-0.0953-0.0476"/>
   <path d="m65.011 49.083-0.0476-0.0476"/>
   <path d="m64.963 49.036-0.0476-0.0953"/>
   <path d="m64.916 48.94v-0.0952"/>
   <path d="m64.916 48.845 0.0476-0.0952"/>
   <path d="m64.963 48.75 0.0476-0.0477"/>
   <path d="m65.011 48.702 0.0953-0.0476"/>
   <path d="m65.106 48.655h0.238"/>
   <path d="m65.344 48.655 0.1429 0.0476"/>
   <path d="m65.82 48.655 0.2381 1"/>
   <path d="m66.058 49.655 0.1905-0.7143"/>
   <path d="m66.249 48.94 0.1905 0.7143"/>
   <path d="m66.439 49.655 0.2381-1"/>
   <path d="m67.582 49.655h-0.5714"/>
   <path d="m67.296 49.655v-1"/>
   <path d="m67.296 48.655-0.0952 0.1429"/>
   <path d="m67.201 48.798-0.0952 0.0952"/>
   <path d="m67.106 48.893-0.0953 0.0476"/>
   <path d="m68.201 48.655h0.0952"/>
   <path d="m68.296 48.655 0.0953 0.0476"/>
   <path d="m68.392 48.702 0.0476 0.0477"/>
   <path d="m68.439 48.75 0.0476 0.0952"/>
   <path d="m68.487 48.845 0.0476 0.1905"/>
   <path d="m68.534 49.036v0.2381"/>
   <path d="m68.534 49.274-0.0476 0.1904"/>
   <path d="m68.487 49.464-0.0476 0.0953"/>
   <path d="m68.439 49.56-0.0476 0.0476"/>
   <path d="m68.392 49.607-0.0953 0.0476"/>
   <path d="m68.296 49.655h-0.0952"/>
   <path d="m68.201 49.655-0.0952-0.0476"/>
   <path d="m68.106 49.607-0.0477-0.0476"/>
   <path d="m68.058 49.56-0.0476-0.0953"/>
   <path d="m68.011 49.464-0.0476-0.1904"/>
   <path d="m67.963 49.274v-0.2381"/>
   <path d="m67.963 49.036 0.0476-0.1905"/>
   <path d="m68.011 48.845 0.0476-0.0952"/>
   <path d="m68.058 48.75 0.0477-0.0477"/>
   <path d="m68.106 48.702 0.0952-0.0476"/>
  </g>
 </g>
 <g fill="none" stroke="#8BE9FD" stroke-linecap="round" stroke-linejoin="round" stroke-width=".12">
  <path d="m21.525 31.05v14.2"/>
  <path d="m21.525 45.25h14.2"/>
  <path d="m35.725 31.05h-14.2"/>
  <path d="m35.725 45.25v-14.2"/>
  <path d="m21.525 50.1v14.2"/>
  <path d="m21.525 64.3h14.2"/>
  <path d="m35.725 50.1h-14.2"/>
  <path d="m35.725 64.3v-14.2"/>
  <path d="m2.475 2.475v14.2"/>
  <path d="m2.475 16.675h14.2"/>
  <path d="m16.675 2.475h-14.2"/>
  <path d="m16.675 16.675v-14.2"/>
  <path d="m59.625 31.05v14.2"/>
  <path d="m59.625 45.25h14.2"/>
  <path d="m73.825 31.05h-14.2"/>
  <path d="m73.825 45.25v-14.2"/>
  <path d="m2.475 31.05v14.2"/>
  <path d="m2.475 45.25h14.2"/>
  <path d="m16.675 31.05h-14.2"/>
  <path d="m16.675 45.25v-14.2"/>
  <path d="m59.625 2.475v14.2"/>
  <path d="m59.625 16.675h14.2"/>
  <path d="m73.825 2.475h-14.2"/>
  <path d="m73.825 16.675v-14.2"/>
  <path d="m40.575 50.1v14.2"/>
  <path d="m40.575 64.3h14.2"/>
  <path d="m54.775 50.1h-14.2"/>
  <path d="m54.775 64.3v-14.2"/>
  <path d="m40.575 31.05v14.2"/>
  <path d="m40.575 45.25h14.2"/>
  <path d="m54.775 31.05h-14.2"/>
  <path d="m54.775 45.25v-14.2"/>
  <path d="m2.475 50.1v14.2"/>
  <path d="m2.475 64.3h14.2"/>
  <path d="m16.675 50.1h-14.2"/>
  <path d="m16.675 64.3v-14.2"/>
  <path d="m59.625 50.1v14.2"/>
  <path d="m59.625 64.3h14.2"/>
  <path d="m73.825 50.1h-14.2"/>
  <path d="m73.825 64.3v-14.2"/>
 </g>
 <g fill="#8BE9FD">
  <circle cx="23.545" cy="38.15" r=".875"/>
  <circle cx="28.625" cy="38.15" r="2"/>
  <circle cx="33.705" cy="38.15" r=".875"/>
  <circle cx="24.815" cy="35.61" r=".75"/>
  <circle cx="31.165" cy="33.07" r=".75"/>
  <circle cx="23.545" cy="57.2" r=".875"/>
  <circle cx="28.625" cy="57.2" r="2"/>
  <circle cx="33.705" cy="57.2" r=".875"/>
  <circle cx="24.815" cy="54.66" r=".75"/>
  <circle cx="31.165" cy="52.12" r=".75"/>
  <circle cx="4.495" cy="9.575" r=".875"/>
  <circle cx="9.575" cy="9.575" r="2"/>
  <circle cx="14.655" cy="9.575" r=".875"/>
  <circle cx="5.765" cy="7.035" r=".75"/>
  <circle cx="12.115" cy="4.495" r=".75"/>
  <circle cx="61.645" cy="38.15" r=".875"/>
  <circle cx="66.725" cy="38.15" r="2"/>
  <circle cx="71.805" cy="38.15" r=".875"/>
  <circle cx="62.915" cy="35.61" r=".75"/>
  <circle cx="69.265" cy="33.07" r=".75"/>
  <circle cx="4.495" cy="38.15" r=".875"/>
  <circle cx="9.575" cy="38.15" r="2"/>
  <circle cx="14.655" cy="38.15" r=".875"/>
  <circle cx="5.765" cy="35.61" r=".75"/>
  <circle cx="12.115" cy="33.07" r=".75"/>
  <circle cx="61.645" cy="9.575" r=".875"/>
  <circle cx="66.725" cy="9.575" r="2"/>
  <circle cx="71.805" cy="9.575" r=".875"/>
  <circle cx="62.915" cy="7.035" r=".75"/>
  <circle cx="69.265" cy="4.495" r=".75"/>
  <circle cx="42.595" cy="57.2" r=".875"/>
  <circle cx="47.675" cy="57.2" r="2"/>
  <circle cx="52.755" cy="57.2" r=".875"/>
  <circle cx="43.865" cy="54.66" r=".75"/>
  <circle cx="50.215" cy="52.12" r=".75"/>
  <circle cx="42.595" cy="38.15" r=".875"/>
  <circle cx="47.675" cy="38.15" r="2"/>
  <circle cx="52.755" cy="38.15" r=".875"/>
  <circle cx="43.865" cy="35.61" r=".75"/>
  <circle cx="50.215" cy="33.07" r=".75"/>
  <circle cx="4.495" cy="57.2" r=".875"/>
  <circle cx="9.575" cy="57.2" r="2"/>
  <circle cx="14.655" cy="57.2" r=".875"/>
  <circle cx="5.765" cy="54.66" r=".75"/>
  <circle cx="12.115" cy="52.12" r=".75"/>
  <circle cx="61.645" cy="57.2" r=".875"/>
  <circle cx="66.725" cy="57.2" r="2"/>
  <circle cx="71.805" cy="57.2" r=".875"/>
  <circle cx="62.915" cy="54.66" r=".75"/>
  <circle cx="69.265" cy="52.12" r=".75"/>
 </g>
 <g fill="none" stroke="#BD93F9" stroke-linecap="round" stroke-linejoin="round" stroke-width=".15">
  <g transform="rotate(-90 54.66 42.277)">
   <text transform="scale(-1 1) translate(-109.32)" x="54.6600" y="42.7770" font-size="1.3333" opacity="0" stroke-opacity="0" text-anchor="middle" lengthAdjust="spacingAndGlyphs" textLength="2.2024">D5</text>
  </g>
  <g class="stroked-text">
   <desc>D5</desc>
   <path d="m55.115 41.539h-1"/>
   <path d="m54.115 41.539v0.2381"/>
   <path d="m54.115 41.777 0.0476 0.1429"/>
   <path d="m54.162 41.92 0.0953 0.0952"/>
   <path d="m54.258 42.015 0.0952 0.0476"/>
   <path d="m54.353 42.063 0.1905 0.0476"/>
   <path d="m54.543 42.11h0.1428"/>
   <path d="m54.686 42.11 0.1905-0.0476"/>
   <path d="m54.877 42.063 0.0953-0.0476"/>
   <path d="m54.972 42.015 0.0952-0.0952"/>
   <path d="m55.067 41.92 0.0476-0.1429"/>
   <path d="m55.115 41.777v-0.2381"/>
   <path d="m54.115 43.015v-0.4762"/>
   <path d="m54.115 42.539 0.4762-0.0476"/>
   <path d="m54.591 42.491-0.0476 0.0476"/>
   <path d="m54.543 42.539-0.0476 0.0952"/>
   <path d="m54.496 42.634v0.2381"/>
   <path d="m54.496 42.872 0.0476 0.0953"/>
   <path d="m54.543 42.968 0.0476 0.0476"/>
   <path d="m54.591 43.015 0.0952 0.0476"/>
   <path d="m54.686 43.063h0.2381"/>
   <path d="m54.924 43.063 0.0953-0.0476"/>
   <path d="m55.02 43.015 0.0476-0.0476"/>
   <path d="m55.067 42.968 0.0476-0.0953"/>
   <path d="m55.115 42.872v-0.2381"/>
   <path d="m55.115 42.634-0.0476-0.0952"/>
   <path d="m55.067 42.539-0.0476-0.0476"/>
  </g>
  <g transform="rotate(-90 16.56 61.327)">
   <text transform="scale(-1 1) translate(-33.12)" x="16.5600" y="61.8270" font-size="1.3333" opacity="0" stroke-opacity="0" text-anchor="middle" lengthAdjust="spacingAndGlyphs" textLength="2.2024">D7</text>
  </g>
  <g class="stroked-text">
   <desc>D7</desc>
   <path d="m17.015 60.589h-1"/>
   <path d="m16.015 60.589v0.2381"/>
   <path d="m16.015 60.827 0.0476 0.1429"/>
   <path d="m16.062 60.97 0.0953 0.0952"/>
   <path d="m16.158 61.065 0.0952 0.0476"/>
   <path d="m16.253 61.113 0.1905 0.0476"/>
   <path d="m16.443 61.16h0.1428"/>
   <path d="m16.586 61.16 0.1905-0.0476"/>
   <path d="m16.777 61.113 0.0953-0.0476"/>
   <path d="m16.872 61.065 0.0952-0.0952"/>
   <path d="m16.967 60.97 0.0476-0.1429"/>
   <path d="m17.015 60.827v-0.2381"/>
   <path d="m16.015 61.494v0.6666"/>
   <path d="m16.015 62.16 1-0.4285"/>
  </g>
  <g transform="rotate(-90 35.61 42.277)">
   <text transform="scale(-1 1) translate(-71.22)" x="35.6100" y="42.7770" font-size="1.3333" opacity="0" stroke-opacity="0" text-anchor="middle" lengthAdjust="spacingAndGlyphs" textLength="2.2024">D4</text>
  </g>
  <g class="stroked-text">
   <desc>D4</desc>
   <path d="m36.065 41.539h-1"/>
   <path d="m35.065 41.539v0.2381"/>
   <path d="m35.065 41.777 0.0476 0.1429"/>
   <path d="m35.112 41.92 0.0953 0.0952"/>
   <path d="m35.208 42.015 0.0952 0.0476"/>
   <path d="m35.303 42.063 0.1905 0.0476"/>
   <path d="m35.493 42.11h0.1428"/>
   <path d="m35.636 42.11 0.1905-0.0476"/>
   <path d="m35.827 42.063 0.0953-0.0476"/>
   <path d="m35.922 42.015 0.0952-0.0952"/>
   <path d="m36.017 41.92 0.0476-0.1429"/>
   <path d="m36.065 41.777v-0.2381"/>
   <path d="m35.398 42.968h0.6666"/>
   <path d="m35.017 42.729 0.7143-0.2381"/>
   <path d="m35.732 42.491v0.619"/>
  </g>
  <g transform="rotate(-90 73.71 13.702)">
   <text transform="scale(-1 1) translate(-147.42)" x="73.7100" y="14.2020" font-size="1.3333" opacity="0" stroke-opacity="0" text-anchor="middle" lengthAdjust="spacingAndGlyphs" textLength="2.2024">D2</text>
  </g>
  <g class="stroked-text">
   <desc>D2</desc>
   <path d="m74.165 12.964h-1"/>
   <path d="m73.165 12.964v0.2381"/>
   <path d="m73.165 13.202 0.0476 0.1429"/>
   <path d="m73.212 13.345 0.0953 0.0952"/>
   <path d="m73.308 13.44 0.0952 0.0476"/>
   <path d="m73.403 13.488 0.1905 0.0476"/>
   <path d="m73.593 13.535h0.1428"/>
   <path d="m73.736 13.535 0.1905-0.0476"/>
   <path d="m73.927 13.488 0.0953-0.0476"/>
   <path d="m74.022 13.44 0.0952-0.0952"/>
   <path d="m74.117 13.345 0.0476-0.1429"/>
   <path d="m74.165 13.202v-0.2381"/>
   <path d="m73.26 13.916-0.0477 0.0476"/>
   <path d="m73.212 13.964-0.0476 0.0952"/>
   <path d="m73.165 14.059v0.2381"/>
   <path d="m73.165 14.297 0.0476 0.0953"/>
   <path d="m73.212 14.392 0.0477 0.0476"/>
   <path d="m73.26 14.44 0.0952 0.0476"/>
   <path d="m73.355 14.488h0.0952"/>
   <path d="m73.45 14.488 0.1429-0.0476"/>
   <path d="m73.593 14.44 0.5714-0.5714"/>
   <path d="m74.165 13.869v0.619"/>
  </g>
  <g transform="rotate(-90 73.71 61.327)">
   <text transform="scale(-1 1) translate(-147.42)" x="73.7100" y="61.8270" font-size="1.3333" opacity="0" stroke-opacity="0" text-anchor="middle" lengthAdjust="spacingAndGlyphs" textLength="3.1548">D10</text>
  </g>
  <g class="stroked-text">
   <desc>D10</desc>
   <path d="m74.165 60.113h-1"/>
   <path d="m73.165 60.113v0.2381"/>
   <path d="m73.165 60.351 0.0476 0.1429"/>
   <path d="m73.212 60.494 0.0953 0.0952"/>
   <path d="m73.308 60.589 0.0952 0.0476"/>
   <path d="m73.403 60.636 0.1905 0.0476"/>
   <path d="m73.593 60.684h0.1428"/>
   <path d="m73.736 60.684 0.1905-0.0476"/>
   <path d="m73.927 60.636 0.0953-0.0476"/>
   <path d="m74.022 60.589 0.0952-0.0952"/>
   <path d="m74.117 60.494 0.0476-0.1429"/>
   <path d="m74.165 60.351v-0.2381"/>
   <path d="m74.165 61.636v-0.5714"/>
   <path d="m74.165 61.351h-1"/>
   <path d="m73.165 61.351 0.1429-0.0952"/>
   <path d="m73.308 61.256 0.0952-0.0953"/>
   <path d="m73.403 61.16 0.0476-0.0952"/>
   <path d="m73.165 62.256v0.0952"/>
   <path d="m73.165 62.351 0.0476 0.0952"/>
   <path d="m73.212 62.446 0.0477 0.0477"/>
   <path d="m73.26 62.494 0.0952 0.0476"/>
   <path d="m73.355 62.541 0.1905 0.0476"/>
   <path d="m73.546 62.589h0.2381"/>
   <path d="m73.784 62.589 0.1904-0.0476"/>
   <path d="m73.974 62.541 0.0953-0.0476"/>
   <path d="m74.07 62.494 0.0476-0.0477"/>
   <path d="m74.117 62.446 0.0476-0.0952"/>
   <path d="m74.165 62.351v-0.0952"/>
   <path d="m74.165 62.256-0.0476-0.0953"/>
   <path d="m74.117 62.16-0.0476-0.0476"/>
   <path d="m74.07 62.113-0.0953-0.0476"/>
   <path d="m73.974 62.065-0.1904-0.0476"/>
   <path d="m73.784 62.018h-0.2381"/>
   <path d="m73.546 62.018-0.1905 0.0476"/>
   <path d="m73.355 62.065-0.0952 0.0476"/>
   <path d="m73.26 62.113-0.0477 0.0476"/>
   <path d="m73.212 62.16-0.0476 0.0953"/>
  </g>
  <g transform="rotate(-90 73.71 42.277)">
   <text transform="scale(-1 1) translate(-147.42)" x="73.7100" y="42.7770" font-size="1.3333" opacity="0" stroke-opacity="0" text-anchor="middle" lengthAdjust="spacingAndGlyphs" textLength="2.2024">D6</text>
  </g>
  <g class="stroked-text">
   <desc>D6</desc>
   <path d="m74.165 41.539h-1"/>
   <path d="m73.165 41.539v0.2381"/>
   <path d="m73.165 41.777 0.0476 0.1429"/>
   <path d="m73.212 41.92 0.0953 0.0952"/>
   <path d="m73.308 42.015 0.0952 0.0476"/>
   <path d="m73.403 42.063 0.1905 0.0476"/>
   <path d="m73.593 42.11h0.1428"/>
   <path d="m73.736 42.11 0.1905-0.0476"/>
   <path d="m73.927 42.063 0.0953-0.0476"/>
   <path d="m74.022 42.015 0.0952-0.0952"/>
   <path d="m74.117 41.92 0.0476-0.1429"/>
   <path d="m74.165 41.777v-0.2381"/>
   <path d="m73.165 42.968v-0.1905"/>
   <path d="m73.165 42.777 0.0476-0.0952"/>
   <path d="m73.212 42.682 0.0477-0.0477"/>
   <path d="m73.26 42.634 0.1428-0.0952"/>
   <path d="m73.403 42.539 0.1905-0.0476"/>
   <path d="m73.593 42.491h0.3809"/>
   <path d="m73.974 42.491 0.0953 0.0476"/>
   <path d="m74.07 42.539 0.0476 0.0476"/>
   <path d="m74.117 42.586 0.0476 0.0953"/>
   <path d="m74.165 42.682v0.1904"/>
   <path d="m74.165 42.872-0.0476 0.0953"/>
   <path d="m74.117 42.968-0.0476 0.0476"/>
   <path d="m74.07 43.015-0.0953 0.0476"/>
   <path d="m73.974 43.063h-0.2381"/>
   <path d="m73.736 43.063-0.0952-0.0476"/>
   <path d="m73.641 43.015-0.0476-0.0476"/>
   <path d="m73.593 42.968-0.0476-0.0953"/>
   <path d="m73.546 42.872v-0.1904"/>
   <path d="m73.546 42.682 0.0476-0.0953"/>
   <path d="m73.593 42.586 0.0476-0.0476"/>
   <path d="m73.641 42.539 0.0952-0.0476"/>
  </g>
  <g transform="rotate(-90 16.56 42.277)">
   <text transform="scale(-1 1) translate(-33.12)" x="16.5600" y="42.7770" font-size="1.3333" opacity="0" stroke-opacity="0" text-anchor="middle" lengthAdjust="spacingAndGlyphs" textLength="2.2024">D3</text>
  </g>
  <g class="stroked-text">
   <desc>D3</desc>
   <path d="m17.015 41.539h-1"/>
   <path d="m16.015 41.539v0.2381"/>
   <path d="m16.015 41.777 0.0476 0.1429"/>
   <path d="m16.062 41.92 0.0953 0.0952"/>
   <path d="m16.158 42.015 0.0952 0.0476"/>
   <path d="m16.253 42.063 0.1905 0.0476"/>
   <path d="m16.443 42.11h0.1428"/>
   <path d="m16.586 42.11 0.1905-0.0476"/>
   <path d="m16.777 42.063 0.0953-0.0476"/>
   <path d="m16.872 42.015 0.0952-0.0952"/>
   <path d="m16.967 41.92 0.0476-0.1429"/>
   <path d="m17.015 41.777v-0.2381"/>
   <path d="m16.015 42.444v0.619"/>
   <path d="m16.015 43.063 0.381-0.3333"/>
   <path d="m16.396 42.729v0.1428"/>
   <path d="m16.396 42.872 0.0476 0.0953"/>
   <path d="m16.443 42.968 0.0476 0.0476"/>
   <path d="m16.491 43.015 0.0952 0.0476"/>
   <path d="m16.586 43.063h0.2381"/>
   <path d="m16.824 43.063 0.0953-0.0476"/>
   <path d="m16.92 43.015 0.0476-0.0476"/>
   <path d="m16.967 42.968 0.0476-0.0953"/>
   <path d="m17.015 42.872v-0.2857"/>
   <path d="m17.015 42.586-0.0476-0.0952"/>
   <path d="m16.967 42.491-0.0476-0.0476"/>
  </g>
  <g transform="rotate(-90 54.66 61.327)">
   <text transform="scale(-1 1) translate(-109.32)" x="54.6600" y="61.8270" font-size="1.3333" opacity="0" stroke-opacity="0" text-anchor="middle" lengthAdjust="spacingAndGlyphs" textLength="2.2024">D9</text>
  </g>
  <g class="stroked-text">
   <desc>D9</desc>
   <path d="m55.115 60.589h-1"/>
   <path d="m54.115 60.589v0.2381"/>
   <path d="m54.115 60.827 0.0476 0.1429"/>
   <path d="m54.162 60.97 0.0953 0.0952"/>
   <path d="m54.258 61.065 0.0952 0.0476"/>
   <path d="m54.353 61.113 0.1905 0.0476"/>
   <path d="m54.543 61.16h0.1428"/>
   <path d="m54.686 61.16 0.1905-0.0476"/>
   <path d="m54.877 61.113 0.0953-0.0476"/>
   <path d="m54.972 61.065 0.0952-0.0952"/>
   <path d="m55.067 60.97 0.0476-0.1429"/>
   <path d="m55.115 60.827v-0.2381"/>
   <path d="m55.115 61.636v0.1905"/>
   <path d="m55.115 61.827-0.0476 0.0952"/>
   <path d="m55.067 61.922-0.0476 0.0477"/>
   <path d="m55.02 61.97-0.1429 0.0952"/>
   <path d="m54.877 62.065-0.1905 0.0476"/>
   <path d="m54.686 62.113h-0.3809"/>
   <path d="m54.305 62.113-0.0952-0.0476"/>
   <path d="m54.21 62.065-0.0477-0.0476"/>
   <path d="m54.162 62.018-0.0476-0.0953"/>
   <path d="m54.115 61.922v-0.1904"/>
   <path d="m54.115 61.732 0.0476-0.0953"/>
   <path d="m54.162 61.636 0.0477-0.0476"/>
   <path d="m54.21 61.589 0.0952-0.0476"/>
   <path d="m54.305 61.541h0.2381"/>
   <path d="m54.543 61.541 0.0952 0.0476"/>
   <path d="m54.639 61.589 0.0476 0.0476"/>
   <path d="m54.686 61.636 0.0477 0.0953"/>
   <path d="m54.734 61.732v0.1904"/>
   <path d="m54.734 61.922-0.0477 0.0953"/>
   <path d="m54.686 62.018-0.0476 0.0476"/>
   <path d="m54.639 62.065-0.0952 0.0476"/>
  </g>
  <g transform="rotate(-90 16.56 13.702)">
   <text transform="scale(-1 1) translate(-33.12)" x="16.5600" y="14.2020" font-size="1.3333" opacity="0" stroke-opacity="0" text-anchor="middle" lengthAdjust="spacingAndGlyphs" textLength="2.2024">D1</text>
  </g>
  <g class="stroked-text">
   <desc>D1</desc>
   <path d="m17.015 12.964h-1"/>
   <path d="m16.015 12.964v0.2381"/>
   <path d="m16.015 13.202 0.0476 0.1429"/>
   <path d="m16.062 13.345 0.0953 0.0952"/>
   <path d="m16.158 13.44 0.0952 0.0476"/>
   <path d="m16.253 13.488 0.1905 0.0476"/>
   <path d="m16.443 13.535h0.1428"/>
   <path d="m16.586 13.535 0.1905-0.0476"/>
   <path d="m16.777 13.488 0.0953-0.0476"/>
   <path d="m16.872 13.44 0.0952-0.0952"/>
   <path d="m16.967 13.345 0.0476-0.1429"/>
   <path d="m17.015 13.202v-0.2381"/>
   <path d="m17.015 14.488v-0.5714"/>
   <path d="m17.015 14.202h-1"/>
   <path d="m16.015 14.202 0.1429-0.0952"/>
   <path d="m16.158 14.107 0.0952-0.0953"/>
   <path d="m16.253 14.012 0.0476-0.0952"/>
  </g>
  <g transform="rotate(-90 35.61 61.327)">
   <text transform="scale(-1 1) translate(-71.22)" x="35.6100" y="61.8270" font-size="1.3333" opacity="0" stroke-opacity="0" text-anchor="middle" lengthAdjust="spacingAndGlyphs" textLength="2.2024">D8</text>
  </g>
  <g class="stroked-text">
   <desc>D8</desc>
   <path d="m36.065 60.589h-1"/>
   <path d="m35.065 60.589v0.2381"/>
   <path d="m35.065 60.827 0.0476 0.1429"/>
   <path d="m35.112 60.97 0.0953 0.0952"/>
   <path d="m35.208 61.065 0.0952 0.0476"/>
   <path d="m35.303 61.113 0.1905 0.0476"/>
   <path d="m35.493 61.16h0.1428"/>
   <path d="m35.636 61.16 0.1905-0.0476"/>
   <path d="m35.827 61.113 0.0953-0.0476"/>
   <path d="m35.922 61.065 0.0952-0.0952"/>
   <path d="m36.017 60.97 0.0476-0.1429"/>
   <path d="m36.065 60.827v-0.2381"/>
   <path d="m35.493 61.732-0.0476-0.0953"/>
   <path d="m35.446 61.636-0.0476-0.0476"/>
   <path d="m35.398 61.589-0.0953-0.0476"/>
   <path d="m35.303 61.541h-0.0476"/>
   <path d="m35.255 61.541-0.0952 0.0476"/>
   <path d="m35.16 61.589-0.0477 0.0476"/>
   <path d="m35.112 61.636-0.0476 0.0953"/>
   <path d="m35.065 61.732v0.1904"/>
   <path d="m35.065 61.922 0.0476 0.0953"/>
   <path d="m35.112 62.018 0.0477 0.0476"/>
   <path d="m35.16 62.065 0.0952 0.0476"/>
   <path d="m35.255 62.113h0.0476"/>
   <path d="m35.303 62.113 0.0953-0.0476"/>
   <path d="m35.398 62.065 0.0476-0.0476"/>
   <path d="m35.446 62.018 0.0476-0.0953"/>
   <path d="m35.493 61.922v-0.1904"/>
   <path d="m35.493 61.732 0.0476-0.0953"/>
   <path d="m35.541 61.636 0.0476-0.0476"/>
   <path d="m35.589 61.589 0.0953-0.0476"/>
   <path d="m35.684 61.541h0.1904"/>
   <path d="m35.874 61.541 0.0953 0.0476"/>
   <path d="m35.97 61.589 0.0476 0.0476"/>
   <path d="m36.017 61.636 0.0476 0.0953"/>
   <path d="m36.065 61.732v0.1904"/>
   <path d="m36.065 61.922-0.0476 0.0953"/>
   <path d="m36.017 62.018-0.0476 0.0476"/>
   <path d="m35.97 62.065-0.0953 0.0476"/>
   <path d="m35.874 62.113h-0.1904"/>
   <path d="m35.684 62.113-0.0953-0.0476"/>
   <path d="m35.589 62.065-0.0476-0.0476"/>
   <path d="m35.541 62.018-0.0476-0.0953"/>
  </g>
 </g>
 <g fill="none" stroke="#BD93F9" stroke-linecap="round" stroke-linejoin="round" stroke-width=".12">
  <path d="m51.755 40.5v3.86"/>
  <path d="m51.755 44.36h2"/>
  <path d="m53.755 40.5v3.86"/>
  <path d="m13.655 59.55v3.86"/>
  <path d="m13.655 63.41h2"/>
  <path d="m15.655 59.55v3.86"/>
  <path d="m32.705 40.5v3.86"/>
  <path d="m32.705 44.36h2"/>
  <path d="m34.705 40.5v3.86"/>
  <path d="m70.805 11.925v3.86"/>
  <path d="m70.805 15.785h2"/>
  <path d="m72.805 11.925v3.86"/>
  <path d="m70.805 59.55v3.86"/>
  <path d="m70.805 63.41h2"/>
  <path d="m72.805 59.55v3.86"/>
  <path d="m70.805 40.5v3.86"/>
  <path d="m70.805 44.36h2"/>
  <path d="m72.805 40.5v3.86"/>
  <path d="m13.655 40.5v3.86"/>
  <path d="m13.655 44.36h2"/>
  <path d="m15.655 40.5v3.86"/>
  <path d="m51.755 59.55v3.86"/>
  <path d="m51.755 63.41h2"/>
  <path d="m53.755 59.55v3.86"/>
  <path d="m13.655 11.925v3.86"/>
  <path d="m13.655 15.785h2"/>
  <path d="m15.655 11.925v3.86"/>
  <path d="m32.705 59.55v3.86"/>
  <path d="m32.705 63.41h2"/>
  <path d="m34.705 59.55v3.86"/>
 </g>
 <g>
  <g fill="#BD93F9">
   <circle cx="23.545" cy="38.15" r=".875"/>
   <circle cx="28.625" cy="38.15" r="2"/>
   <circle cx="33.705" cy="38.15" r=".875"/>
   <circle cx="24.815" cy="35.61" r=".75"/>
   <circle cx="31.165" cy="33.07" r=".75"/>
   <circle cx="23.545" cy="57.2" r=".875"/>
   <circle cx="28.625" cy="57.2" r="2"/>
   <circle cx="33.705" cy="57.2" r=".875"/>
   <circle cx="24.815" cy="54.66" r=".75"/>
   <circle cx="31.165" cy="52.12" r=".75"/>
   <circle cx="4.495" cy="9.575" r=".875"/>
   <circle cx="9.575" cy="9.575" r="2"/>
   <circle cx="14.655" cy="9.575" r=".875"/>
   <circle cx="5.765" cy="7.035" r=".75"/>
   <circle cx="12.115" cy="4.495" r=".75"/>
   <circle cx="61.645" cy="38.15" r=".875"/>
   <circle cx="66.725" cy="38.15" r="2"/>
   <circle cx="71.805" cy="38.15" r=".875"/>
   <circle cx="62.915" cy="35.61" r=".75"/>
   <circle cx="69.265" cy="33.07" r=".75"/>
   <circle cx="4.495" cy="38.15" r=".875"/>
   <circle cx="9.575" cy="38.15" r="2"/>
   <circle cx="14.655" cy="38.15" r=".875"/>
   <circle cx="5.765" cy="35.61" r=".75"/>
   <circle cx="12.115" cy="33.07" r=".75"/>
   <circle cx="61.645" cy="9.575" r=".875"/>
   <circle cx="66.725" cy="9.575" r="2"/>
   <circle cx="71.805" cy="9.575" r=".875"/>
   <circle cx="62.915" cy="7.035" r=".75"/>
   <circle cx="69.265" cy="4.495" r=".75"/>
   <circle cx="42.595" cy="57.2" r=".875"/>
   <circle cx="47.675" cy="57.2" r="2"/>
   <circle cx="52.755" cy="57.2" r=".875"/>
   <circle cx="43.865" cy="54.66" r=".75"/>
   <circle cx="50.215" cy="52.12" r=".75"/>
   <circle cx="42.595" cy="38.15" r=".875"/>
   <circle cx="47.675" cy="38.15" r="2"/>
   <circle cx="52.755" cy="38.15" r=".875"/>
   <circle cx="43.865" cy="35.61" r=".75"/>
   <circle cx="50.215" cy="33.07" r=".75"/>
   <circle cx="4.495" cy="57.2" r=".875"/>
   <circle cx="9.575" cy="57.2" r="2"/>
   <circle cx="14.655" cy="57.2" r=".875"/>
   <circle cx="5.765" cy="54.66" r=".75"/>
   <circle cx="12.115" cy="52.12" r=".75"/>
   <circle cx="61.645" cy="57.2" r=".875"/>
   <circle cx="66.725" cy="57.2" r="2"/>
   <circle cx="71.805" cy="57.2" r=".875"/>
   <circle cx="62.915" cy="54.66" r=".75"/>
   <circle cx="69.265" cy="52.12" r=".75"/>
  </g>
  <g>
   <circle cx="23.545" cy="38.15" r=".875"/>
   <circle cx="28.625" cy="38.15" r="2"/>
   <circle cx="33.705" cy="38.15" r=".875"/>
   <circle cx="24.815" cy="35.61" r=".75"/>
   <circle cx="31.165" cy="33.07" r=".75"/>
   <circle cx="23.545" cy="57.2" r=".875"/>
   <circle cx="28.625" cy="57.2" r="2"/>
   <circle cx="33.705" cy="57.2" r=".875"/>
   <circle cx="24.815" cy="54.66" r=".75"/>
   <circle cx="31.165" cy="52.12" r=".75"/>
   <circle cx="4.495" cy="9.575" r=".875"/>
   <circle cx="9.575" cy="9.575" r="2"/>
   <circle cx="14.655" cy="9.575" r=".875"/>
   <circle cx="5.765" cy="7.035" r=".75"/>
   <circle cx="12.115" cy="4.495" r=".75"/>
   <circle cx="61.645" cy="38.15" r=".875"/>
   <circle cx="66.725" cy="38.15" r="2"/>
   <circle cx="71.805" cy="38.15" r=".875"/>
   <circle cx="62.915" cy="35.61" r=".75"/>
   <circle cx="69.265" cy="33.07" r=".75"/>
   <circle cx="4.495" cy="38.15" r=".875"/>
   <circle cx="9.575" cy="38.15" r="2"/>
   <circle cx="14.655" cy="38.15" r=".875"/>
   <circle cx="5.765" cy="35.61" r=".75"/>
   <circle cx="12.115" cy="33.07" r=".75"/>
   <circle cx="61.645" cy="9.575" r=".875"/>
   <circle cx="66.725" cy="9.575" r="2"/>
   <circle cx="71.805" cy="9.575" r=".875"/>
   <circle cx="62.915" cy="7.035" r=".75"/>
   <circle cx="69.265" cy="4.495" r=".75"/>
   <circle cx="42.595" cy="57.2" r=".875"/>
   <circle cx="47.675" cy="57.2" r="2"/>
   <circle cx="52.755" cy="57.2" r=".875"/>
   <circle cx="43.865" cy="54.66" r=".75"/>
   <circle cx="50.215" cy="52.12" r=".75"/>
   <circle cx="42.595" cy="38.15" r=".875"/>
   <circle cx="47.675" cy="38.15" r="2"/>
   <circle cx="52.755" cy="38.15" r=".875"/>
   <circle cx="43.865" cy="35.61" r=".75"/>
   <circle cx="50.215" cy="33.07" r=".75"/>
   <circle cx="4.495" cy="57.2" r=".875"/>
   <circle cx="9.575" cy="57.2" r="2"/>
   <circle cx="14.655" cy="57.2" r=".875"/>
   <circle cx="5.765" cy="54.66" r=".75"/>
   <circle cx="12.115" cy="52.12" r=".75"/>
   <circle cx="61.645" cy="57.2" r=".875"/>
   <circle cx="66.725" cy="57.2" r="2"/>
   <circle cx="71.805" cy="57.2" r=".875"/>
   <circle cx="62.915" cy="54.66" r=".75"/>
   <circle cx="69.265" cy="52.12" r=".75"/>
  </g>
  <g fill="#f55">
   <circle cx="24.815" cy="35.61" r="1.25"/>
   <circle cx="31.165" cy="33.07" r="1.25"/>
   <circle cx="24.815" cy="54.66" r="1.25"/>
   <circle cx="31.165" cy="52.12" r="1.25"/>
   <circle cx="5.765" cy="7.035" r="1.25"/>
   <circle cx="12.115" cy="4.495" r="1.25"/>
   <circle cx="62.915" cy="35.61" r="1.25"/>
   <circle cx="69.265" cy="33.07" r="1.25"/>
   <circle cx="5.765" cy="35.61" r="1.25"/>
   <circle cx="12.115" cy="33.07" r="1.25"/>
   <circle cx="62.915" cy="7.035" r="1.25"/>
   <circle cx="69.265" cy="4.495" r="1.25"/>
   <circle cx="43.865" cy="54.66" r="1.25"/>
   <circle cx="50.215" cy="52.12" r="1.25"/>
   <circle cx="43.865" cy="35.61" r="1.25"/>
   <circle cx="50.215" cy="33.07" r="1.25"/>
   <circle cx="5.765" cy="54.66" r="1.25"/>
   <circle cx="12.115" cy="52.12" r="1.25"/>
   <circle cx="62.915" cy="54.66" r="1.25"/>
   <circle cx="69.265" cy="52.12" r="1.25"/>
  </g>
 </g>
 <g fill="none" stroke="#f55" stroke-linecap="round" stroke-linejoin="round" stroke-width=".2">
  <path d="m5.765 35.61v19.05"/>
  <path d="m5.765 7.035v28.575"/>
  <path d="m24.815 35.61v19.05"/>
  <path d="m43.865 35.61v19.05"/>
  <path d="m62.915 35.61v19.05"/>
  <path d="m62.915 7.035v28.575"/>
 </g>
 <g fill="#fff">
  <circle cx="23.545" cy="38.15" r=".875"/>
  <circle cx="28.625" cy="38.15" r="2"/>
  <circle cx="33.705" cy="38.15" r=".875"/>
  <circle cx="24.815" cy="35.61" r=".75"/>
  <circle cx="31.165" cy="33.07" r=".75"/>
  <circle cx="23.545" cy="57.2" r=".875"/>
  <circle cx="28.625" cy="57.2" r="2"/>
  <circle cx="33.705" cy="57.2" r=".875"/>
  <circle cx="24.815" cy="54.66" r=".75"/>
  <circle cx="31.165" cy="52.12" r=".75"/>
  <circle cx="4.495" cy="9.575" r=".875"/>
  <circle cx="9.575" cy="9.575" r="2"/>
  <circle cx="14.655" cy="9.575" r=".875"/>
  <circle cx="5.765" cy="7.035" r=".75"/>
  <circle cx="12.115" cy="4.495" r=".75"/>
  <circle cx="61.645" cy="38.15" r=".875"/>
  <circle cx="66.725" cy="38.15" r="2"/>
  <circle cx="71.805" cy="38.15" r=".875"/>
  <circle cx="62.915" cy="35.61" r=".75"/>
  <circle cx="69.265" cy="33.07" r=".75"/>
  <circle cx="4.495" cy="38.15" r=".875"/>
  <circle cx="9.575" cy="38.15" r="2"/>
  <circle cx="14.655" cy="38.15" r=".875"/>
  <circle cx="5.765" cy="35.61" r=".75"/>
  <circle cx="12.115" cy="33.07" r=".75"/>
  <circle cx="61.645" cy="9.575" r=".875"/>
  <circle cx="66.725" cy="9.575" r="2"/>
  <circle cx="71.805" cy="9.575" r=".875"/>
  <circle cx="62.915" cy="7.035" r=".75"/>
  <circle cx="69.265" cy="4.495" r=".75"/>
  <circle cx="42.595" cy="57.2" r=".875"/>
  <circle cx="47.675" cy="57.2" r="2"/>
  <circle cx="52.755" cy="57.2" r=".875"/>
  <circle cx="43.865" cy="54.66" r=".75"/>
  <circle cx="50.215" cy="52.12" r=".75"/>
  <circle cx="42.595" cy="38.15" r=".875"/>
  <circle cx="47.675" cy="38.15" r="2"/>
  <circle cx="52.755" cy="38.15" r=".875"/>
  <circle cx="43.865" cy="35.61" r=".75"/>
  <circle cx="50.215" cy="33.07" r=".75"/>
  <circle cx="4.495" cy="57.2" r=".875"/>
  <circle cx="9.575" cy="57.2" r="2"/>
  <circle cx="14.655" cy="57.2" r=".875"/>
  <circle cx="5.765" cy="54.66" r=".75"/>
  <circle cx="12.115" cy="52.12" r=".75"/>
  <circle cx="61.645" cy="57.2" r=".875"/>
  <circle cx="66.725" cy="57.2" r="2"/>
  <circle cx="71.805" cy="57.2" r=".875"/>
  <circle cx="62.915" cy="54.66" r=".75"/>
  <circle cx="69.265" cy="52.12" r=".75"/>
 </g>
 <g fill="#50FA7B">
  <circle cx="24.815" cy="35.61" r="1.25"/>
  <circle cx="31.165" cy="33.07" r="1.25"/>
  <circle cx="24.815" cy="54.66" r="1.25"/>
  <circle cx="31.165" cy="52.12" r="1.25"/>
  <circle cx="5.765" cy="7.035" r="1.25"/>
  <circle cx="12.115" cy="4.495" r="1.25"/>
  <circle cx="62.915" cy="35.61" r="1.25"/>
  <circle cx="69.265" cy="33.07" r="1.25"/>
  <circle cx="5.765" cy="35.61" r="1.25"/>
  <circle cx="12.115" cy="33.07" r="1.25"/>
  <circle cx="62.915" cy="7.035" r="1.25"/>
  <circle cx="69.265" cy="4.495" r="1.25"/>
  <circle cx="43.865" cy="54.66" r="1.25"/>
  <circle cx="50.215" cy="52.12" r="1.25"/>
  <circle cx="43.865" cy="35.61" r="1.25"/>
  <circle cx="50.215" cy="33.07" r="1.25"/>
  <circle cx="5.765" cy="54.66" r="1.25"/>
  <circle cx="12.115" cy="52.12" r="1.25"/>
  <circle cx="62.915" cy="54.66" r="1.25"/>
  <circle cx="69.265" cy="52.12" r="1.25"/>
  <g fill="#50FA7B" fill-rule="evenodd">
   <path d="m52.455 44.1-0.0957-0.019-0.0811-0.0542-0.0542-0.0811-0.019-0.0957v-0.6l0.019-0.0957 0.0542-0.0811 0.0811-0.0542 0.0957-0.019h0.6l0.0957 0.019 0.0811 0.0542 0.0542 0.0811 0.019 0.0957v0.6l-0.019 0.0957-0.0542 0.0811-0.0811 0.0542-0.0957 0.019z"/>
   <path d="m52.455 41.3-0.0957-0.019-0.0811-0.0542-0.0542-0.0811-0.019-0.0957v-0.6l0.019-0.0957 0.0542-0.0811 0.0811-0.0542 0.0957-0.019h0.6l0.0957 0.019 0.0811 0.0542 0.0542 0.0811 0.019 0.0957v0.6l-0.019 0.0957-0.0542 0.0811-0.0811 0.0542-0.0957 0.019z"/>
   <path d="m14.355 63.15-0.0957-0.019-0.0811-0.0542-0.0542-0.0811-0.019-0.0957v-0.6l0.019-0.0957 0.0542-0.0811 0.0811-0.0542 0.0957-0.019h0.6l0.0957 0.019 0.0811 0.0542 0.0542 0.0811 0.019 0.0957v0.6l-0.019 0.0957-0.0542 0.0811-0.0811 0.0542-0.0957 0.019z"/>
   <path d="m14.355 60.35-0.0957-0.019-0.0811-0.0542-0.0542-0.0811-0.019-0.0957v-0.6l0.019-0.0957 0.0542-0.0811 0.0811-0.0542 0.0957-0.019h0.6l0.0957 0.019 0.0811 0.0542 0.0542 0.0811 0.019 0.0957v0.6l-0.019 0.0957-0.0542 0.0811-0.0811 0.0542-0.0957 0.019z"/>
   <path d="m33.405 44.1-0.0957-0.019-0.0811-0.0542-0.0542-0.0811-0.019-0.0957v-0.6l0.019-0.0957 0.0542-0.0811 0.0811-0.0542 0.0957-0.019h0.6l0.0957 0.019 0.0811 0.0542 0.0542 0.0811 0.019 0.0957v0.6l-0.019 0.0957-0.0542 0.0811-0.0811 0.0542-0.0957 0.019z"/>
   <path d="m33.405 41.3-0.0957-0.019-0.0811-0.0542-0.0542-0.0811-0.019-0.0957v-0.6l0.019-0.0957 0.0542-0.0811 0.0811-0.0542 0.0957-0.019h0.6l0.0957 0.019 0.0811 0.0542 0.0542 0.0811 0.019 0.0957v0.6l-0.019 0.0957-0.0542 0.0811-0.0811 0.0542-0.0957 0.019z"/>
   <path d="m71.505 15.525-0.0957-0.019-0.0811-0.0542-0.0542-0.0811-0.019-0.0957v-0.6l0.019-0.0957 0.0542-0.0811 0.0811-0.0542 0.0957-0.019h0.6l0.0957 0.019 0.0811 0.0542 0.0542 0.0811 0.019 0.0957v0.6l-0.019 0.0957-0.0542 0.0811-0.0811 0.0542-0.0957 0.019z"/>
   <path d="m71.505 12.725-0.0957-0.019-0.0811-0.0542-0.0542-0.0811-0.019-0.0957v-0.6l0.019-0.0957 0.0542-0.0811 0.0811-0.0542 0.0957-0.019h0.6l0.0957 0.019 0.0811 0.0542 0.0542 0.0811 0.019 0.0957v0.6l-0.019 0.0957-0.0542 0.0811-0.0811 0.0542-0.0957 0.019z"/>
   <path d="m71.505 63.15-0.0957-0.019-0.0811-0.0542-0.0542-0.0811-0.019-0.0957v-0.6l0.019-0.0957 0.0542-0.0811 0.0811-0.0542 0.0957-0.019h0.6l0.0957 0.019 0.0811 0.0542 0.0542 0.0811 0.019 0.0957v0.6l-0.019 0.0957-0.0542 0.0811-0.0811 0.0542-0.0957 0.019z"/>
   <path d="m71.505 60.35-0.0957-0.019-0.0811-0.0542-0.0542-0.0811-0.019-0.0957v-0.6l0.019-0.0957 0.0542-0.0811 0.0811-0.0542 0.0957-0.019h0.6l0.0957 0.019 0.0811 0.0542 0.0542 0.0811 0.019 0.0957v0.6l-0.019 0.0957-0.0542 0.0811-0.0811 0.0542-0.0957 0.019z"/>
   <path d="m71.505 44.1-0.0957-0.019-0.0811-0.0542-0.0542-0.0811-0.019-0.0957v-0.6l0.019-0.0957 0.0542-0.0811 0.0811-0.0542 0.0957-0.019h0.6l0.0957 0.019 0.0811 0.0542 0.0542 0.0811 0.019 0.0957v0.6l-0.019 0.0957-0.0542 0.0811-0.0811 0.0542-0.0957 0.019z"/>
   <path d="m71.505 41.3-0.0957-0.019-0.0811-0.0542-0.0542-0.0811-0.019-0.0957v-0.6l0.019-0.0957 0.0542-0.0811 0.0811-0.0542 0.0957-0.019h0.6l0.0957 0.019 0.0811 0.0542 0.0542 0.0811 0.019 0.0957v0.6l-0.019 0.0957-0.0542 0.0811-0.0811 0.0542-0.0957 0.019z"/>
   <path d="m14.355 44.1-0.0957-0.019-0.0811-0.0542-0.0542-0.0811-0.019-0.0957v-0.6l0.019-0.0957 0.0542-0.0811 0.0811-0.0542 0.0957-0.019h0.6l0.0957 0.019 0.0811 0.0542 0.0542 0.0811 0.019 0.0957v0.6l-0.019 0.0957-0.0542 0.0811-0.0811 0.0542-0.0957 0.019z"/>
   <path d="m14.355 41.3-0.0957-0.019-0.0811-0.0542-0.0542-0.0811-0.019-0.0957v-0.6l0.019-0.0957 0.0542-0.0811 0.0811-0.0542 0.0957-0.019h0.6l0.0957 0.019 0.0811 0.0542 0.0542 0.0811 0.019 0.0957v0.6l-0.019 0.0957-0.0542 0.0811-0.0811 0.0542-0.0957 0.019z"/>
   <path d="m52.455 63.15-0.0957-0.019-0.0811-0.0542-0.0542-0.0811-0.019-0.0957v-0.6l0.019-0.0957 0.0542-0.0811 0.0811-0.0542 0.0957-0.019h0.6l0.0957 0.019 0.0811 0.0542 0.0542 0.0811 0.019 0.0957v0.6l-0.019 0.0957-0.0542 0.0811-0.0811 0.0542-0.0957 0.019z"/>
   <path d="m52.455 60.35-0.0957-0.019-0.0811-0.0542-0.0542-0.0811-0.019-0.0957v-0.6l0.019-0.0957 0.0542-0.0811 0.0811-0.0542 0.0957-0.019h0.6l0.0957 0.019 0.0811 0.0542 0.0542 0.0811 0.019 0.0957v0.6l-0.019 0.0957-0.0542 0.0811-0.0811 0.0542-0.0957 0.019z"/>
   <path d="m14.355 15.525-0.0957-0.019-0.0811-0.0542-0.0542-0.0811-0.019-0.0957v-0.6l0.019-0.0957 0.0542-0.0811 0.0811-0.0542 0.0957-0.019h0.6l0.0957 0.019 0.0811 0.0542 0.0542 0.0811 0.019 0.0957v0.6l-0.019 0.0957-0.0542 0.0811-0.0811 0.0542-0.0957 0.019z"/>
   <path d="m14.355 12.725-0.0957-0.019-0.0811-0.0542-0.0542-0.0811-0.019-0.0957v-0.6l0.019-0.0957 0.0542-0.0811 0.0811-0.0542 0.0957-0.019h0.6l0.0957 0.019 0.0811 0.0542 0.0542 0.0811 0.019 0.0957v0.6l-0.019 0.0957-0.0542 0.0811-0.0811 0.0542-0.0957 0.019z"/>
   <path d="m33.405 63.15-0.0957-0.019-0.0811-0.0542-0.0542-0.0811-0.019-0.0957v-0.6l0.019-0.0957 0.0542-0.0811 0.0811-0.0542 0.0957-0.019h0.6l0.0957 0.019 0.0811 0.0542 0.0542 0.0811 0.019 0.0957v0.6l-0.019 0.0957-0.0542 0.0811-0.0811 0.0542-0.0957 0.019z"/>
   <path d="m33.405 60.35-0.0957-0.019-0.0811-0.0542-0.0542-0.0811-0.019-0.0957v-0.6l0.019-0.0957 0.0542-0.0811 0.0811-0.0542 0.0957-0.019h0.6l0.0957 0.019 0.0811 0.0542 0.0542 0.0811 0.019 0.0957v0.6l-0.019 0.0957-0.0542 0.0811-0.0811 0.0542-0.0957 0.019z"/>
  </g>
 </g>
 <g fill="none" stroke="#50FA7B" stroke-linecap="round" stroke-linejoin="round" stroke-width=".2">
  <path d="m12.115 4.495v5.14"/>
  <path d="m12.115 9.635 2.54 2.54"/>
  <path d="m69.265 4.495v5.14"/>
  <path d="m69.265 9.635 2.54 2.54"/>
  <path d="m12.115 38.21 2.54 2.54"/>
  <path d="m12.115 33.07v5.14"/>
  <path d="m31.165 38.21 2.54 2.54"/>
  <path d="m31.165 33.07v5.14"/>
  <path d="m50.215 33.07v5.14"/>
  <path d="m50.215 38.21 2.54 2.54"/>
  <path d="m69.265 33.07v5.14"/>
  <path d="m69.265 38.21 2.54 2.54"/>
  <path d="m12.115 52.12v5.14"/>
  <path d="m12.115 57.26 2.54 2.54"/>
  <path d="m31.165 57.26 2.54 2.54"/>
  <path d="m31.165 52.12v5.14"/>
  <path d="m50.215 57.26 2.54 2.54"/>
  <path d="m50.215 52.12v5.14"/>
  <path d="m69.265 52.12v5.14"/>
  <path d="m69.265 57.26 2.54 2.54"/>
  <path d="m14.655 14.975h57.15"/>
  <path d="m14.655 43.55h19.05"/>
  <path d="m52.755 43.55h19.05"/>
  <path d="m33.705 43.55h19.05"/>
  <path d="m33.705 62.6h19.05"/>
  <path d="m14.655 62.6h19.05"/>
  <path d="m52.755 62.6h19.05"/>
 </g>
 <g fill="#fff">
  <circle cx="23.545" cy="38.15" r=".875"/>
  <circle cx="28.625" cy="38.15" r="2"/>
  <circle cx="33.705" cy="38.15" r=".875"/>
  <circle cx="24.815" cy="35.61" r=".75"/>
  <circle cx="31.165" cy="33.07" r=".75"/>
  <circle cx="23.545" cy="57.2" r=".875"/>
  <circle cx="28.625" cy="57.2" r="2"/>
  <circle cx="33.705" cy="57.2" r=".875"/>
  <circle cx="24.815" cy="54.66" r=".75"/>
  <circle cx="31.165" cy="52.12" r=".75"/>
  <circle cx="4.495" cy="9.575" r=".875"/>
  <circle cx="9.575" cy="9.575" r="2"/>
  <circle cx="14.655" cy="9.575" r=".875"/>
  <circle cx="5.765" cy="7.035" r=".75"/>
  <circle cx="12.115" cy="4.495" r=".75"/>
  <circle cx="61.645" cy="38.15" r=".875"/>
  <circle cx="66.725" cy="38.15" r="2"/>
  <circle cx="71.805" cy="38.15" r=".875"/>
  <circle cx="62.915" cy="35.61" r=".75"/>
  <circle cx="69.265" cy="33.07" r=".75"/>
  <circle cx="4.495" cy="38.15" r=".875"/>
  <circle cx="9.575" cy="38.15" r="2"/>
  <circle cx="14.655" cy="38.15" r=".875"/>
  <circle cx="5.765" cy="35.61" r=".75"/>
  <circle cx="12.115" cy="33.07" r=".75"/>
  <circle cx="61.645" cy="9.575" r=".875"/>
  <circle cx="66.725" cy="9.575" r="2"/>
  <circle cx="71.805" cy="9.575" r=".875"/>
  <circle cx="62.915" cy="7.035" r=".75"/>
  <circle cx="69.265" cy="4.495" r=".75"/>
  <circle cx="42.595" cy="57.2" r=".875"/>
  <circle cx="47.675" cy="57.2" r="2"/>
  <circle cx="52.755" cy="57.2" r=".875"/>
  <circle cx="43.865" cy="54.66" r=".75"/>
  <circle cx="50.215" cy="52.12" r=".75"/>
  <circle cx="42.595" cy="38.15" r=".875"/>
  <circle cx="47.675" cy="38.15" r="2"/>
  <circle cx="52.755" cy="38.15" r=".875"/>
  <circle cx="43.865" cy="35.61" r=".75"/>
  <circle cx="50.215" cy="33.07" r=".75"/>
  <circle cx="4.495" cy="57.2" r=".875"/>
  <circle cx="9.575" cy="57.2" r="2"/>
  <circle cx="14.655" cy="57.2" r=".875"/>
  <circle cx="5.765" cy="54.66" r=".75"/>
  <circle cx="12.115" cy="52.12" r=".75"/>
  <circle cx="61.645" cy="57.2" r=".875"/>
  <circle cx="66.725" cy="57.2" r="2"/>
  <circle cx="71.805" cy="57.2" r=".875"/>
  <circle cx="62.915" cy="54.66" r=".75"/>
  <circle cx="69.265" cy="52.12" r=".75"/>
 </g>
</svg>
