<?xml version="1.0" encoding="UTF-8"?>
<!DOCTYPE svg  PUBLIC '-//W3C//DTD SVG 1.1//EN'  'http://www.w3.org/Graphics/SVG/1.1/DTD/svg11.dtd'>
<svg width="92.278mm" height="24.079mm" version="1.1" viewBox="0 0 92.278 24.079" xmlns="http://www.w3.org/2000/svg">
 <title>SVG Image created as drink_me-render.svg date 2025/09/05 18:38:04</title>
 <desc>Image generated by PCBNEW</desc>
 <rect width="92.278mm" height="24.079mm" fill="#282A36"/>
 <g fill="none" stroke="#8BE9FD" stroke-linecap="round" stroke-linejoin="round" stroke-width=".15">
  <text x="9.5750" y="2.0750" font-size="1.3333" opacity="0" stroke-opacity="0" text-anchor="middle" lengthAdjust="spacingAndGlyphs" textLength="3.2976">SW1</text>
  <g class="stroked-text">
   <desc>SW1</desc>
   <path d="m8.2417 1.9822 0.1428 0.0476"/>
   <path d="m8.3845 2.0298h0.2381"/>
   <path d="m8.6226 2.0298 0.0953-0.0476"/>
   <path d="m8.7179 1.9822 0.0476-0.0476"/>
   <path d="m8.7655 1.9346 0.0476-0.0953"/>
   <path d="m8.8131 1.8393v-0.0952"/>
   <path d="m8.8131 1.7441-0.0476-0.0952"/>
   <path d="m8.7655 1.6489-0.0476-0.0477"/>
   <path d="m8.7179 1.6012-0.0953-0.0476"/>
   <path d="m8.6226 1.5536-0.1905-0.0476"/>
   <path d="m8.4321 1.506-0.0952-0.0476"/>
   <path d="m8.3369 1.4584-0.0476-0.0476"/>
   <path d="m8.2893 1.4108-0.0476-0.0953"/>
   <path d="m8.2417 1.3155v-0.0952"/>
   <path d="m8.2417 1.2203 0.0476-0.0952"/>
   <path d="m8.2893 1.1251 0.0476-0.0477"/>
   <path d="m8.3369 1.0774 0.0952-0.0476"/>
   <path d="m8.4321 1.0298h0.2381"/>
   <path d="m8.6702 1.0298 0.1429 0.0476"/>
   <path d="m9.1464 1.0298 0.2381 1"/>
   <path d="m9.3845 2.0298 0.1905-0.7143"/>
   <path d="m9.575 1.3155 0.1905 0.7143"/>
   <path d="m9.7655 2.0298 0.2381-1"/>
   <path d="m10.908 2.0298h-0.5714"/>
   <path d="m10.623 2.0298v-1"/>
   <path d="m10.623 1.0298-0.0952 0.1429"/>
   <path d="m10.527 1.1727-0.0953 0.0952"/>
   <path d="m10.432 1.2679-0.0952 0.0476"/>
  </g>
  <text x="82.7270" y="2.0750" font-size="1.3333" opacity="0" stroke-opacity="0" text-anchor="middle" lengthAdjust="spacingAndGlyphs" textLength="3.2976">SW4</text>
  <g class="stroked-text">
   <desc>SW4</desc>
   <path d="m81.394 1.9822 0.1428 0.0476"/>
   <path d="m81.536 2.0298h0.2381"/>
   <path d="m81.775 2.0298 0.0953-0.0476"/>
   <path d="m81.87 1.9822 0.0476-0.0476"/>
   <path d="m81.918 1.9346 0.0476-0.0953"/>
   <path d="m81.965 1.8393v-0.0952"/>
   <path d="m81.965 1.7441-0.0476-0.0952"/>
   <path d="m81.918 1.6489-0.0476-0.0477"/>
   <path d="m81.87 1.6012-0.0953-0.0476"/>
   <path d="m81.775 1.5536-0.1905-0.0476"/>
   <path d="m81.584 1.506-0.0952-0.0476"/>
   <path d="m81.489 1.4584-0.0476-0.0476"/>
   <path d="m81.441 1.4108-0.0476-0.0953"/>
   <path d="m81.394 1.3155v-0.0952"/>
   <path d="m81.394 1.2203 0.0476-0.0952"/>
   <path d="m81.441 1.1251 0.0476-0.0477"/>
   <path d="m81.489 1.0774 0.0952-0.0476"/>
   <path d="m81.584 1.0298h0.2381"/>
   <path d="m81.822 1.0298 0.1429 0.0476"/>
   <path d="m82.298 1.0298 0.2381 1"/>
   <path d="m82.536 2.0298 0.1905-0.7143"/>
   <path d="m82.727 1.3155 0.1905 0.7143"/>
   <path d="m82.918 2.0298 0.2381-1"/>
   <path d="m83.965 1.3632v0.6666"/>
   <path d="m83.727 0.9822-0.2381 0.7143"/>
   <path d="m83.489 1.6965h0.6191"/>
  </g>
  <g transform="rotate(15 32.836 4.6374)">
   <text x="32.8362" y="5.1374" font-size="1.3333" opacity="0" stroke-opacity="0" text-anchor="middle" lengthAdjust="spacingAndGlyphs" textLength="3.2976">SW2</text>
  </g>
  <g class="stroked-text">
   <desc>SW2</desc>
   <path d="m31.443 4.6856 0.1256 0.083"/>
   <path d="m31.569 4.7686 0.23 0.0616"/>
   <path d="m31.799 4.8302 0.1043-0.0213"/>
   <path d="m31.903 4.8089 0.0583-0.0337"/>
   <path d="m31.961 4.7752 0.0707-0.0797"/>
   <path d="m32.032 4.6955 0.0246-0.092"/>
   <path d="m32.056 4.6035-0.0213-0.1043"/>
   <path d="m32.035 4.4992-0.0337-0.0583"/>
   <path d="m32.002 4.4409-0.0797-0.0706"/>
   <path d="m31.922 4.3703-0.1716-0.0953"/>
   <path d="m31.75 4.275-0.0797-0.0707"/>
   <path d="m31.67 4.2043-0.0337-0.0583"/>
   <path d="m31.637 4.146-0.0213-0.1043"/>
   <path d="m31.616 4.0417 0.0246-0.092"/>
   <path d="m31.64 3.9497 0.0707-0.0797"/>
   <path d="m31.711 3.87 0.0583-0.0337"/>
   <path d="m31.769 3.8363 0.1043-0.0213"/>
   <path d="m31.873 3.815 0.23 0.0616"/>
   <path d="m32.103 3.8766 0.1257 0.083"/>
   <path d="m32.563 3.9999-0.0289 1.0275"/>
   <path d="m32.534 5.0274 0.3689-0.6406"/>
   <path d="m32.903 4.3868-9e-4 0.7392"/>
   <path d="m32.902 5.126 0.4888-0.9043"/>
   <path d="m33.689 4.4 0.0584-0.0337"/>
   <path d="m33.747 4.3663 0.1043-0.0213"/>
   <path d="m33.851 4.345 0.23 0.0616"/>
   <path d="m34.081 4.4066 0.0796 0.0706"/>
   <path d="m34.161 4.4772 0.0337 0.0584"/>
   <path d="m34.195 4.5356 0.0214 0.1043"/>
   <path d="m34.216 4.6399-0.0247 0.092"/>
   <path d="m34.191 4.7319-0.083 0.1256"/>
   <path d="m34.108 4.8575-0.6998 0.4041"/>
   <path d="m33.408 5.2616 0.5979 0.1602"/>
  </g>
  <g transform="rotate(-15 59.466 4.6374)">
   <text x="59.4658" y="5.1374" font-size="1.3333" opacity="0" stroke-opacity="0" text-anchor="middle" lengthAdjust="spacingAndGlyphs" textLength="3.2976">SW3</text>
  </g>
  <g class="stroked-text">
   <desc>SW3</desc>
   <path d="m58.283 5.3758 0.1504 9e-3"/>
   <path d="m58.434 5.3848 0.2299-0.0616"/>
   <path d="m58.664 5.3232 0.0797-0.0706"/>
   <path d="m58.743 5.2526 0.0337-0.0584"/>
   <path d="m58.777 5.1942 0.0213-0.1043"/>
   <path d="m58.798 5.0899-0.0246-0.092"/>
   <path d="m58.774 4.9979-0.0707-0.0796"/>
   <path d="m58.703 4.9183-0.0583-0.0337"/>
   <path d="m58.645 4.8846-0.1043-0.0213"/>
   <path d="m58.54 4.8633-0.1963 0.0033"/>
   <path d="m58.344 4.8666-0.1043-0.0214"/>
   <path d="m58.24 4.8452-0.0584-0.0337"/>
   <path d="m58.181 4.8115-0.0706-0.0796"/>
   <path d="m58.111 4.7319-0.0247-0.092"/>
   <path d="m58.086 4.6399 0.0214-0.1043"/>
   <path d="m58.107 4.5356 0.0337-0.0584"/>
   <path d="m58.141 4.4772 0.0796-0.0706"/>
   <path d="m58.221 4.4066 0.23-0.0616"/>
   <path d="m58.451 4.345 0.1503 9e-3"/>
   <path d="m58.911 4.2217 0.4888 0.9043"/>
   <path d="m59.4 5.126-9e-4 -0.7392"/>
   <path d="m59.399 4.3868 0.3689 0.6406"/>
   <path d="m59.768 5.0274-0.0289-1.0275"/>
   <path d="m60.015 3.9259 0.598-0.1602"/>
   <path d="m60.613 3.7657-0.2234 0.4542"/>
   <path d="m60.389 4.2199 0.138-0.0369"/>
   <path d="m60.527 4.183 0.1043 0.0213"/>
   <path d="m60.632 4.2043 0.0583 0.0337"/>
   <path d="m60.69 4.238 0.0706 0.0797"/>
   <path d="m60.76 4.3177 0.0617 0.2299"/>
   <path d="m60.822 4.5476-0.0214 0.1044"/>
   <path d="m60.801 4.652-0.0336 0.0583"/>
   <path d="m60.767 4.7103-0.0797 0.0706"/>
   <path d="m60.687 4.7809-0.276 0.074"/>
   <path d="m60.411 4.8549-0.1043-0.0214"/>
   <path d="m60.307 4.8335-0.0583-0.0336"/>
  </g>
 </g>
 <g fill="none" stroke="#8BE9FD" stroke-linecap="round" stroke-linejoin="round" stroke-width=".12">
  <path d="m2.475 2.475v14.2"/>
  <path d="m2.475 16.675h14.2"/>
  <path d="m16.675 2.475h-14.2"/>
  <path d="m16.675 16.675v-14.2"/>
  <path d="m75.627 2.475v14.2"/>
  <path d="m75.627 16.675h14.2"/>
  <path d="m89.827 2.475h-14.2"/>
  <path d="m89.827 16.675v-14.2"/>
  <path d="m22.07 17.385 13.716 3.6752"/>
  <path d="m25.745 3.6691-3.6752 13.716"/>
  <path d="m35.786 21.06 3.6752-13.716"/>
  <path d="m39.461 7.3443-13.716-3.6752"/>
  <path d="m52.841 7.3443 3.6752 13.716"/>
  <path d="m56.516 21.06 13.716-3.6752"/>
  <path d="m66.557 3.6691-13.716 3.6752"/>
  <path d="m70.232 17.385-3.6752-13.716"/>
 </g>
 <g fill="#8BE9FD">
  <circle cx="4.495" cy="9.575" r=".875"/>
  <circle cx="9.575" cy="9.575" r="2"/>
  <circle cx="14.655" cy="9.575" r=".875"/>
  <circle cx="5.765" cy="7.035" r=".75"/>
  <circle cx="12.115" cy="4.495" r=".75"/>
  <circle cx="77.647" cy="9.575" r=".875"/>
  <circle cx="82.727" cy="9.575" r="2"/>
  <circle cx="87.807" cy="9.575" r=".875"/>
  <circle cx="78.917" cy="7.035" r=".75"/>
  <circle cx="85.267" cy="4.495" r=".75"/>
  <circle cx="25.859" cy="11.05" r=".875"/>
  <circle cx="30.766" cy="12.365" r="2"/>
  <circle cx="35.673" cy="13.68" r=".875"/>
  <circle cx="27.743" cy="8.9253" r=".75"/>
  <circle cx="34.534" cy="8.1153" r=".75"/>
  <circle cx="56.629" cy="13.68" r=".875"/>
  <circle cx="61.536" cy="12.365" r="2"/>
  <circle cx="66.443" cy="11.05" r=".875"/>
  <circle cx="57.199" cy="10.898" r=".75"/>
  <circle cx="62.675" cy="6.8005" r=".75"/>
 </g>
 <g fill="none" stroke="#BD93F9" stroke-linecap="round" stroke-linejoin="round" stroke-width=".15">
  <g transform="rotate(-90 16.56 13.702)">
   <text transform="scale(-1 1) translate(-33.12)" x="16.5600" y="14.2020" font-size="1.3333" opacity="0" stroke-opacity="0" text-anchor="middle" lengthAdjust="spacingAndGlyphs" textLength="2.2024">D1</text>
  </g>
  <g class="stroked-text">
   <desc>D1</desc>
   <path d="m17.015 12.964h-1"/>
   <path d="m16.015 12.964v0.2381"/>
   <path d="m16.015 13.202 0.0476 0.1429"/>
   <path d="m16.062 13.345 0.0953 0.0952"/>
   <path d="m16.158 13.44 0.0952 0.0476"/>
   <path d="m16.253 13.488 0.1905 0.0476"/>
   <path d="m16.443 13.535h0.1428"/>
   <path d="m16.586 13.535 0.1905-0.0476"/>
   <path d="m16.777 13.488 0.0953-0.0476"/>
   <path d="m16.872 13.44 0.0952-0.0952"/>
   <path d="m16.967 13.345 0.0476-0.1429"/>
   <path d="m17.015 13.202v-0.2381"/>
   <path d="m17.015 14.488v-0.5714"/>
   <path d="m17.015 14.202h-1"/>
   <path d="m16.015 14.202 0.1429-0.0952"/>
   <path d="m16.158 14.107 0.0952-0.0953"/>
   <path d="m16.253 14.012 0.0476-0.0952"/>
  </g>
  <g transform="rotate(-75 36.444 18.159)">
   <text transform="scale(-1 1) translate(-72.889)" x="36.4445" y="18.6590" font-size="1.3333" opacity="0" stroke-opacity="0" text-anchor="middle" lengthAdjust="spacingAndGlyphs" textLength="2.2024">D2</text>
  </g>
  <g class="stroked-text">
   <desc>D2</desc>
   <path d="m37.075 17.564-0.9659-0.2588"/>
   <path d="m36.109 17.305-0.0617 0.23"/>
   <path d="m36.047 17.535 0.0091 0.1503"/>
   <path d="m36.056 17.685 0.0673 0.1166"/>
   <path d="m36.124 17.802 0.0797 0.0707"/>
   <path d="m36.203 17.873 0.1716 0.0953"/>
   <path d="m36.375 17.968 0.138 0.0369"/>
   <path d="m36.513 18.005 0.1963 0.0033"/>
   <path d="m36.709 18.008 0.1044-0.0213"/>
   <path d="m36.814 17.987 0.1166-0.0673"/>
   <path d="m36.93 17.92 0.083-0.1257"/>
   <path d="m37.013 17.794 0.0616-0.23"/>
   <path d="m35.954 18.25-0.0584 0.0336"/>
   <path d="m35.896 18.283-0.0706 0.0797"/>
   <path d="m35.826 18.363-0.0616 0.23"/>
   <path d="m35.764 18.593 0.0213 0.1043"/>
   <path d="m35.785 18.697 0.0337 0.0583"/>
   <path d="m35.819 18.756 0.0797 0.0707"/>
   <path d="m35.899 18.826 0.092 0.0246"/>
   <path d="m35.991 18.851 0.1503-9e-3"/>
   <path d="m36.141 18.842 0.6998-0.4041"/>
   <path d="m36.841 18.438-0.1602 0.598"/>
  </g>
  <g transform="rotate(75 69.351 14.543)">
   <text transform="scale(-1 1) translate(-138.7)" x="69.3514" y="15.0433" font-size="1.3333" opacity="0" stroke-opacity="0" text-anchor="middle" lengthAdjust="spacingAndGlyphs" textLength="2.2024">D3</text>
  </g>
  <g class="stroked-text">
   <desc>D3</desc>
   <path d="m69.103 15.374 0.9659-0.2588"/>
   <path d="m70.069 15.115-0.0616-0.23"/>
   <path d="m70.008 14.885-0.083-0.1257"/>
   <path d="m69.924 14.76-0.1167-0.0673"/>
   <path d="m69.808 14.692-0.1043-0.0214"/>
   <path d="m69.704 14.671-0.1963 0.0033"/>
   <path d="m69.507 14.674-0.138 0.037"/>
   <path d="m69.369 14.711-0.1716 0.0953"/>
   <path d="m69.198 14.806-0.0797 0.0707"/>
   <path d="m69.118 14.877-0.0673 0.1166"/>
   <path d="m69.051 14.994-0.0091 0.1503"/>
   <path d="m69.042 15.144 0.0617 0.23"/>
   <path d="m69.835 14.241-0.1602-0.5979"/>
   <path d="m69.675 13.643-0.2817 0.4206"/>
   <path d="m69.393 14.064-0.037-0.138"/>
   <path d="m69.356 13.926-0.0706-0.0797"/>
   <path d="m69.285 13.846-0.0584-0.0337"/>
   <path d="m69.227 13.812-0.1043-0.0213"/>
   <path d="m69.123 13.791-0.23 0.0616"/>
   <path d="m68.893 13.853-0.0796 0.0707"/>
   <path d="m68.813 13.924-0.0337 0.0583"/>
   <path d="m68.779 13.982-0.0213 0.1043"/>
   <path d="m68.758 14.086 0.0739 0.276"/>
   <path d="m68.832 14.362 0.0707 0.0796"/>
   <path d="m68.903 14.442 0.0583 0.0337"/>
  </g>
  <g transform="rotate(-90 89.712 13.702)">
   <text transform="scale(-1 1) translate(-179.42)" x="89.7120" y="14.2020" font-size="1.3333" opacity="0" stroke-opacity="0" text-anchor="middle" lengthAdjust="spacingAndGlyphs" textLength="2.2024">D4</text>
  </g>
  <g class="stroked-text">
   <desc>D4</desc>
   <path d="m90.167 12.964h-1"/>
   <path d="m89.167 12.964v0.2381"/>
   <path d="m89.167 13.202 0.0476 0.1429"/>
   <path d="m89.214 13.345 0.0953 0.0952"/>
   <path d="m89.31 13.44 0.0952 0.0476"/>
   <path d="m89.405 13.488 0.1905 0.0476"/>
   <path d="m89.595 13.535h0.1428"/>
   <path d="m89.738 13.535 0.1905-0.0476"/>
   <path d="m89.929 13.488 0.0953-0.0476"/>
   <path d="m90.024 13.44 0.0952-0.0952"/>
   <path d="m90.119 13.345 0.0476-0.1429"/>
   <path d="m90.167 13.202v-0.2381"/>
   <path d="m89.5 14.392h0.6666"/>
   <path d="m89.119 14.154 0.7143-0.2381"/>
   <path d="m89.834 13.916v0.619"/>
  </g>
 </g>
 <g fill="none" stroke="#BD93F9" stroke-linecap="round" stroke-linejoin="round" stroke-width=".12">
  <path d="m13.655 11.925v3.86"/>
  <path d="m13.655 15.785h2"/>
  <path d="m15.655 11.925v3.86"/>
  <path d="m33.099 19.419 1.9319 0.5176"/>
  <path d="m34.098 15.691-0.999 3.7285"/>
  <path d="m36.03 16.208-0.999 3.7284"/>
  <path d="m66.086 13.579 0.999 3.7284"/>
  <path d="m67.084 17.307 1.9319-0.5176"/>
  <path d="m68.017 13.061 0.999 3.7285"/>
  <path d="m86.807 11.925v3.86"/>
  <path d="m86.807 15.785h2"/>
  <path d="m88.807 11.925v3.86"/>
 </g>
 <g>
  <g fill="#BD93F9">
   <circle cx="4.495" cy="9.575" r=".875"/>
   <circle cx="9.575" cy="9.575" r="2"/>
   <circle cx="14.655" cy="9.575" r=".875"/>
   <circle cx="5.765" cy="7.035" r=".75"/>
   <circle cx="12.115" cy="4.495" r=".75"/>
   <circle cx="77.647" cy="9.575" r=".875"/>
   <circle cx="82.727" cy="9.575" r="2"/>
   <circle cx="87.807" cy="9.575" r=".875"/>
   <circle cx="78.917" cy="7.035" r=".75"/>
   <circle cx="85.267" cy="4.495" r=".75"/>
   <circle cx="25.859" cy="11.05" r=".875"/>
   <circle cx="30.766" cy="12.365" r="2"/>
   <circle cx="35.673" cy="13.68" r=".875"/>
   <circle cx="27.743" cy="8.9253" r=".75"/>
   <circle cx="34.534" cy="8.1153" r=".75"/>
   <circle cx="56.629" cy="13.68" r=".875"/>
   <circle cx="61.536" cy="12.365" r="2"/>
   <circle cx="66.443" cy="11.05" r=".875"/>
   <circle cx="57.199" cy="10.898" r=".75"/>
   <circle cx="62.675" cy="6.8005" r=".75"/>
  </g>
  <g>
   <circle cx="4.495" cy="9.575" r=".875"/>
   <circle cx="9.575" cy="9.575" r="2"/>
   <circle cx="14.655" cy="9.575" r=".875"/>
   <circle cx="5.765" cy="7.035" r=".75"/>
   <circle cx="12.115" cy="4.495" r=".75"/>
   <circle cx="77.647" cy="9.575" r=".875"/>
   <circle cx="82.727" cy="9.575" r="2"/>
   <circle cx="87.807" cy="9.575" r=".875"/>
   <circle cx="78.917" cy="7.035" r=".75"/>
   <circle cx="85.267" cy="4.495" r=".75"/>
   <circle cx="25.859" cy="11.05" r=".875"/>
   <circle cx="30.766" cy="12.365" r="2"/>
   <circle cx="35.673" cy="13.68" r=".875"/>
   <circle cx="27.743" cy="8.9253" r=".75"/>
   <circle cx="34.534" cy="8.1153" r=".75"/>
   <circle cx="56.629" cy="13.68" r=".875"/>
   <circle cx="61.536" cy="12.365" r="2"/>
   <circle cx="66.443" cy="11.05" r=".875"/>
   <circle cx="57.199" cy="10.898" r=".75"/>
   <circle cx="62.675" cy="6.8005" r=".75"/>
  </g>
  <g fill="#f55">
   <circle cx="5.765" cy="7.035" r="1.25"/>
   <circle cx="12.115" cy="4.495" r="1.25"/>
   <circle cx="78.917" cy="7.035" r="1.25"/>
   <circle cx="85.267" cy="4.495" r="1.25"/>
   <circle cx="27.743" cy="8.9253" r="1.25"/>
   <circle cx="34.534" cy="8.1153" r="1.25"/>
   <circle cx="57.199" cy="10.898" r="1.25"/>
   <circle cx="62.675" cy="6.8005" r="1.25"/>
  </g>
  <g fill="#fff">
   <circle cx="4.495" cy="9.575" r=".875"/>
   <circle cx="9.575" cy="9.575" r="2"/>
   <circle cx="14.655" cy="9.575" r=".875"/>
   <circle cx="5.765" cy="7.035" r=".75"/>
   <circle cx="12.115" cy="4.495" r=".75"/>
   <circle cx="77.647" cy="9.575" r=".875"/>
   <circle cx="82.727" cy="9.575" r="2"/>
   <circle cx="87.807" cy="9.575" r=".875"/>
   <circle cx="78.917" cy="7.035" r=".75"/>
   <circle cx="85.267" cy="4.495" r=".75"/>
   <circle cx="25.859" cy="11.05" r=".875"/>
   <circle cx="30.766" cy="12.365" r="2"/>
   <circle cx="35.673" cy="13.68" r=".875"/>
   <circle cx="27.743" cy="8.9253" r=".75"/>
   <circle cx="34.534" cy="8.1153" r=".75"/>
   <circle cx="56.629" cy="13.68" r=".875"/>
   <circle cx="61.536" cy="12.365" r="2"/>
   <circle cx="66.443" cy="11.05" r=".875"/>
   <circle cx="57.199" cy="10.898" r=".75"/>
   <circle cx="62.675" cy="6.8005" r=".75"/>
  </g>
  <g fill="#50FA7B">
   <circle cx="5.765" cy="7.035" r="1.25"/>
   <circle cx="12.115" cy="4.495" r="1.25"/>
   <circle cx="78.917" cy="7.035" r="1.25"/>
   <circle cx="85.267" cy="4.495" r="1.25"/>
   <circle cx="27.743" cy="8.9253" r="1.25"/>
   <circle cx="34.534" cy="8.1153" r="1.25"/>
   <circle cx="57.199" cy="10.898" r="1.25"/>
   <circle cx="62.675" cy="6.8005" r="1.25"/>
   <g fill="#50FA7B" fill-rule="evenodd">
    <path d="m14.355 15.525-0.0957-0.019-0.0811-0.0542-0.0542-0.0811-0.019-0.0957v-0.6l0.019-0.0957 0.0542-0.0811 0.0811-0.0542 0.0957-0.019h0.6l0.0957 0.019 0.0811 0.0542 0.0542 0.0811 0.019 0.0957v0.6l-0.019 0.0957-0.0542 0.0811-0.0811 0.0542-0.0957 0.019z"/>
    <path d="m14.355 12.725-0.0957-0.019-0.0811-0.0542-0.0542-0.0811-0.019-0.0957v-0.6l0.019-0.0957 0.0542-0.0811 0.0811-0.0542 0.0957-0.019h0.6l0.0957 0.019 0.0811 0.0542 0.0542 0.0811 0.019 0.0957v0.6l-0.019 0.0957-0.0542 0.0811-0.0811 0.0542-0.0957 0.019z"/>
    <path d="m33.843 19.349-0.0874-0.0431-0.0644-0.0734-0.0313-0.0923 0.0064-0.0974 0.1553-0.5795 0.0431-0.0875 0.0733-0.0643 0.0924-0.0314 0.0973 0.0064 0.5796 0.1553 0.0875 0.0431 0.0643 0.0734 0.0314 0.0923-0.0064 0.0974-0.1553 0.5795-0.0432 0.0875-0.0733 0.0643-0.0924 0.0314-0.0973-0.0064z"/>
    <path d="m34.568 16.645-0.0874-0.0431-0.0644-0.0734-0.0313-0.0923 0.0064-0.0974 0.1553-0.5795 0.0431-0.0875 0.0733-0.0643 0.0924-0.0314 0.0973 0.0064 0.5796 0.1553 0.0875 0.0431 0.0643 0.0734 0.0314 0.0924-0.0064 0.0973-0.1553 0.5795-0.0432 0.0875-0.0733 0.0643-0.0924 0.0314-0.0973-0.0064z"/>
    <path d="m67.693 16.875-0.0973 0.0064-0.0924-0.0314-0.0733-0.0643-0.0432-0.0875-0.1553-0.5795-0.0064-0.0974 0.0314-0.0923 0.0643-0.0734 0.0875-0.0431 0.5796-0.1553 0.0973-0.0064 0.0924 0.0314 0.0733 0.0643 0.0431 0.0875 0.1553 0.5795 0.0064 0.0974-0.0313 0.0923-0.0644 0.0734-0.0874 0.0431z"/>
    <path d="m66.969 14.17-0.0973 0.0064-0.0924-0.0314-0.0733-0.0643-0.0432-0.0875-0.1553-0.5795-0.0063-0.0974 0.0313-0.0923 0.0643-0.0734 0.0875-0.0431 0.5796-0.1553 0.0973-0.0064 0.0924 0.0314 0.0733 0.0643 0.0431 0.0875 0.1553 0.5795 0.0064 0.0974-0.0313 0.0923-0.0643 0.0734-0.0875 0.0431z"/>
    <path d="m87.507 15.525-0.0957-0.019-0.0811-0.0542-0.0542-0.0811-0.019-0.0957v-0.6l0.019-0.0957 0.0542-0.0811 0.0811-0.0542 0.0957-0.019h0.6l0.0957 0.019 0.0811 0.0542 0.0542 0.0811 0.019 0.0957v0.6l-0.019 0.0957-0.0542 0.0811-0.0811 0.0542-0.0957 0.019z"/>
    <path d="m87.507 12.725-0.0957-0.019-0.0811-0.0542-0.0542-0.0811-0.019-0.0957v-0.6l0.019-0.0957 0.0542-0.0811 0.0811-0.0542 0.0957-0.019h0.6l0.0957 0.019 0.0811 0.0542 0.0542 0.0811 0.019 0.0957v0.6l-0.019 0.0957-0.0542 0.0811-0.0811 0.0542-0.0957 0.019z"/>
   </g>
  </g>
 </g>
 <g fill="none" stroke="#50FA7B" stroke-linecap="round" stroke-linejoin="round" stroke-width=".2">
  <path d="m12.115 9.635 2.54 2.54"/>
  <path d="m12.115 4.495v5.14"/>
  <path d="m34.534 8.1153-1.3303 4.9649"/>
  <path d="m33.204 13.08 1.7961 3.1108"/>
  <path d="m62.675 6.8005 1.3303 4.9649"/>
  <path d="m64.005 11.765 3.1108 1.796"/>
  <path d="m85.267 9.635 2.54 2.54"/>
  <path d="m85.267 4.495v5.14"/>
 </g>
 <g fill="#fff">
  <circle cx="4.495" cy="9.575" r=".875"/>
  <circle cx="9.575" cy="9.575" r="2"/>
  <circle cx="14.655" cy="9.575" r=".875"/>
  <circle cx="5.765" cy="7.035" r=".75"/>
  <circle cx="12.115" cy="4.495" r=".75"/>
  <circle cx="77.647" cy="9.575" r=".875"/>
  <circle cx="82.727" cy="9.575" r="2"/>
  <circle cx="87.807" cy="9.575" r=".875"/>
  <circle cx="78.917" cy="7.035" r=".75"/>
  <circle cx="85.267" cy="4.495" r=".75"/>
  <circle cx="25.859" cy="11.05" r=".875"/>
  <circle cx="30.766" cy="12.365" r="2"/>
  <circle cx="35.673" cy="13.68" r=".875"/>
  <circle cx="27.743" cy="8.9253" r=".75"/>
  <circle cx="34.534" cy="8.1153" r=".75"/>
  <circle cx="56.629" cy="13.68" r=".875"/>
  <circle cx="61.536" cy="12.365" r="2"/>
  <circle cx="66.443" cy="11.05" r=".875"/>
  <circle cx="57.199" cy="10.898" r=".75"/>
  <circle cx="62.675" cy="6.8005" r=".75"/>
 </g>
</svg>
