<svg xmlns="http://www.w3.org/2000/svg" xmlns:xlink="http://www.w3.org/1999/xlink" width="1269" height="346" viewBox="0 0 1269 346"><defs><g id="a"><rect width="52" height="52" fill="none" stroke="#000" stroke-width="2" rx="5"/><rect width="50" height="50" x="1" y="1" fill="#ccc" rx="4"/><rect width="40" height="40" x="6" y="4" fill="#fbfbfb" rx="5"/><text x="7" y="7" dominant-baseline="hanging" font-size="12"><tspan x="7" dy="0em">0,0</tspan></text></g><g id="b"><rect width="52" height="52" fill="none" stroke="#000" stroke-width="2" rx="5"/><rect width="50" height="50" x="1" y="1" fill="#ccc" rx="4"/><rect width="40" height="40" x="6" y="4" fill="#fbfbfb" rx="5"/><text x="7" y="7" dominant-baseline="hanging" font-size="12"><tspan x="7" dy="0em">0,1</tspan></text></g><g id="c"><rect width="52" height="52" fill="none" stroke="#000" stroke-width="2" rx="5"/><rect width="50" height="50" x="1" y="1" fill="#777" rx="4"/><rect width="40" height="40" x="6" y="4" fill="#919191" rx="5"/><text x="7" y="7" dominant-baseline="hanging" font-size="12"><tspan x="7" dy="0em">0,2</tspan></text></g><g id="d"><rect width="52" height="52" fill="none" stroke="#000" stroke-width="2" rx="5"/><rect width="50" height="50" x="1" y="1" fill="#ccc" rx="4"/><rect width="40" height="40" x="6" y="4" fill="#fbfbfb" rx="5"/><text x="7" y="7" dominant-baseline="hanging" font-size="12"><tspan x="7" dy="0em">0,3</tspan></text></g><g id="e"><rect width="52" height="52" fill="none" stroke="#000" stroke-width="2" rx="5"/><rect width="50" height="50" x="1" y="1" fill="#ccc" rx="4"/><rect width="40" height="40" x="6" y="4" fill="#fbfbfb" rx="5"/><text x="7" y="7" dominant-baseline="hanging" font-size="12"><tspan x="7" dy="0em">0,4</tspan></text></g><g id="f"><rect width="52" height="52" fill="none" stroke="#000" stroke-width="2" rx="5"/><rect width="50" height="50" x="1" y="1" fill="#ccc" rx="4"/><rect width="40" height="40" x="6" y="4" fill="#fbfbfb" rx="5"/><text x="7" y="7" dominant-baseline="hanging" font-size="12"><tspan x="7" dy="0em">0,5</tspan></text></g><g id="g"><rect width="52" height="52" fill="none" stroke="#000" stroke-width="2" rx="5"/><rect width="50" height="50" x="1" y="1" fill="#ccc" rx="4"/><rect width="40" height="40" x="6" y="4" fill="#fbfbfb" rx="5"/><text x="7" y="7" dominant-baseline="hanging" font-size="12"><tspan x="7" dy="0em">0,6</tspan></text></g><g id="h"><rect width="52" height="52" fill="none" stroke="#000" stroke-width="2" rx="5"/><rect width="50" height="50" x="1" y="1" fill="#ccc" rx="4"/><rect width="40" height="40" x="6" y="4" fill="#fbfbfb" rx="5"/><text x="7" y="7" dominant-baseline="hanging" font-size="12"><tspan x="7" dy="0em">0,7</tspan></text></g><g id="i"><rect width="52" height="52" fill="none" stroke="#000" stroke-width="2" rx="5"/><rect width="50" height="50" x="1" y="1" fill="#ccc" rx="4"/><rect width="40" height="40" x="6" y="4" fill="#fbfbfb" rx="5"/><text x="7" y="7" dominant-baseline="hanging" font-size="12"><tspan x="7" dy="0em">0,8</tspan></text></g><g id="j"><rect width="52" height="52" fill="none" stroke="#000" stroke-width="2" rx="5"/><rect width="50" height="50" x="1" y="1" fill="#ccc" rx="4"/><rect width="40" height="40" x="6" y="4" fill="#fbfbfb" rx="5"/><text x="7" y="7" dominant-baseline="hanging" font-size="12"><tspan x="7" dy="0em">0,9</tspan></text></g><g id="k"><rect width="52" height="52" fill="none" stroke="#000" stroke-width="2" rx="5"/><rect width="50" height="50" x="1" y="1" fill="#ccc" rx="4"/><rect width="40" height="40" x="6" y="4" fill="#fbfbfb" rx="5"/><text x="7" y="7" dominant-baseline="hanging" font-size="12"><tspan x="7" dy="0em">0,10</tspan></text></g><g id="l"><rect width="52" height="52" fill="none" stroke="#000" stroke-width="2" rx="5"/><rect width="50" height="50" x="1" y="1" fill="#ccc" rx="4"/><rect width="40" height="40" x="6" y="4" fill="#fbfbfb" rx="5"/><text x="7" y="7" dominant-baseline="hanging" font-size="12"><tspan x="7" dy="0em">0,11</tspan></text></g><g id="m"><rect width="52" height="52" fill="none" stroke="#000" stroke-width="2" rx="5"/><rect width="50" height="50" x="1" y="1" fill="#ccc" rx="4"/><rect width="40" height="40" x="6" y="4" fill="#fbfbfb" rx="5"/><text x="7" y="7" dominant-baseline="hanging" font-size="12"><tspan x="7" dy="0em">0,12</tspan></text></g><g id="n"><rect width="52" height="52" fill="none" stroke="#000" stroke-width="2" rx="5"/><rect width="50" height="50" x="1" y="1" fill="#ccc" rx="4"/><rect width="40" height="40" x="6" y="4" fill="#fbfbfb" rx="5"/><text x="7" y="7" dominant-baseline="hanging" font-size="12"><tspan x="7" dy="0em">0,13</tspan></text></g><g id="o"><rect width="52" height="52" fill="none" stroke="#000" stroke-width="2" rx="5"/><rect width="50" height="50" x="1" y="1" fill="#ccc" rx="4"/><rect width="40" height="40" x="6" y="4" fill="#fbfbfb" rx="5"/><text x="7" y="7" dominant-baseline="hanging" font-size="12"><tspan x="7" dy="0em">0,14</tspan></text></g><g id="p"><rect width="104" height="52" fill="none" stroke="#000" stroke-width="2" rx="5"/><rect width="102" height="50" x="1" y="1" fill="#aaa" rx="4"/><rect width="92" height="40" x="6" y="4" fill="#d0d0d0" rx="5"/><text x="7" y="7" dominant-baseline="hanging" font-size="12"><tspan x="7" dy="0em">0,15</tspan></text><text x="97" y="42" font-size="12" text-anchor="end"><tspan x="97" dy="0em">0,0</tspan></text></g><g id="q"><rect width="52" height="52" fill="none" stroke="#000" stroke-width="2" rx="5"/><rect width="50" height="50" x="1" y="1" fill="#aaa" rx="4"/><rect width="40" height="40" x="6" y="4" fill="#d0d0d0" rx="5"/><text x="7" y="7" dominant-baseline="hanging" font-size="12"><tspan x="7" dy="0em">0,16</tspan></text></g><g id="r"><rect width="52" height="52" fill="none" stroke="#000" stroke-width="2" rx="5"/><rect width="50" height="50" x="1" y="1" fill="#aaa" rx="4"/><rect width="40" height="40" x="6" y="4" fill="#d0d0d0" rx="5"/><text x="7" y="7" dominant-baseline="hanging" font-size="12"><tspan x="7" dy="0em">0,17</tspan></text></g><g id="s"><rect width="52" height="52" fill="none" stroke="#000" stroke-width="2" rx="5"/><rect width="50" height="50" x="1" y="1" fill="#aaa" rx="4"/><rect width="40" height="40" x="6" y="4" fill="#d0d0d0" rx="5"/><text x="7" y="7" dominant-baseline="hanging" font-size="12"><tspan x="7" dy="0em">0,18</tspan></text></g><g id="t"><rect width="52" height="52" fill="none" stroke="#000" stroke-width="2" rx="5"/><rect width="50" height="50" x="1" y="1" fill="#aaa" rx="4"/><rect width="40" height="40" x="6" y="4" fill="#d0d0d0" rx="5"/><text x="7" y="7" dominant-baseline="hanging" font-size="12"><tspan x="7" dy="0em">0,19</tspan></text></g><g id="u"><rect width="52" height="52" fill="none" stroke="#000" stroke-width="2" rx="5"/><rect width="50" height="50" x="1" y="1" fill="#aaa" rx="4"/><rect width="40" height="40" x="6" y="4" fill="#d0d0d0" rx="5"/><text x="7" y="7" dominant-baseline="hanging" font-size="12"><tspan x="7" dy="0em">0,15</tspan></text><text x="45" y="42" font-size="12" text-anchor="end"><tspan x="45" dy="0em">0,1</tspan></text></g><g id="v"><rect width="52" height="52" fill="none" stroke="#000" stroke-width="2" rx="5"/><rect width="50" height="50" x="1" y="1" fill="#aaa" rx="4"/><rect width="40" height="40" x="6" y="4" fill="#d0d0d0" rx="5"/><text x="7" y="7" dominant-baseline="hanging" font-size="12"><tspan x="7" dy="0em">2,14</tspan></text><text x="45" y="42" font-size="12" text-anchor="end"><tspan x="45" dy="0em">0,1</tspan></text></g><g id="w"><rect width="52" height="52" fill="none" stroke="#000" stroke-width="2" rx="5"/><rect width="50" height="50" x="1" y="1" fill="#ccc" rx="4"/><rect width="40" height="40" x="6" y="4" fill="#fbfbfb" rx="5"/><text x="7" y="7" dominant-baseline="hanging" font-size="12"><tspan x="7" dy="0em">1,0</tspan></text></g><g id="x"><rect width="52" height="52" fill="none" stroke="#000" stroke-width="2" rx="5"/><rect width="50" height="50" x="1" y="1" fill="#ccc" rx="4"/><rect width="40" height="40" x="6" y="4" fill="#fbfbfb" rx="5"/><text x="7" y="7" dominant-baseline="hanging" font-size="12"><tspan x="7" dy="0em">1,1</tspan></text></g><g id="y"><rect width="78" height="52" fill="none" stroke="#000" stroke-width="2" rx="5"/><rect width="76" height="50" x="1" y="1" fill="#aaa" rx="4"/><rect width="66" height="40" x="6" y="4" fill="#d0d0d0" rx="5"/><text x="7" y="7" dominant-baseline="hanging" font-size="12"><tspan x="7" dy="0em">1,2</tspan></text></g><g id="z"><rect width="52" height="52" fill="none" stroke="#000" stroke-width="2" rx="5"/><rect width="50" height="50" x="1" y="1" fill="#ccc" rx="4"/><rect width="40" height="40" x="6" y="4" fill="#fbfbfb" rx="5"/><text x="7" y="7" dominant-baseline="hanging" font-size="12"><tspan x="7" dy="0em">1,3</tspan></text></g><g id="A"><rect width="52" height="52" fill="none" stroke="#000" stroke-width="2" rx="5"/><rect width="50" height="50" x="1" y="1" fill="#ccc" rx="4"/><rect width="40" height="40" x="6" y="4" fill="#fbfbfb" rx="5"/><text x="7" y="7" dominant-baseline="hanging" font-size="12"><tspan x="7" dy="0em">1,4</tspan></text></g><g id="B"><rect width="52" height="52" fill="none" stroke="#000" stroke-width="2" rx="5"/><rect width="50" height="50" x="1" y="1" fill="#ccc" rx="4"/><rect width="40" height="40" x="6" y="4" fill="#fbfbfb" rx="5"/><text x="7" y="7" dominant-baseline="hanging" font-size="12"><tspan x="7" dy="0em">1,5</tspan></text></g><g id="C"><rect width="52" height="52" fill="none" stroke="#000" stroke-width="2" rx="5"/><rect width="50" height="50" x="1" y="1" fill="#ccc" rx="4"/><rect width="40" height="40" x="6" y="4" fill="#fbfbfb" rx="5"/><text x="7" y="7" dominant-baseline="hanging" font-size="12"><tspan x="7" dy="0em">1,6</tspan></text></g><g id="D"><rect width="52" height="52" fill="none" stroke="#000" stroke-width="2" rx="5"/><rect width="50" height="50" x="1" y="1" fill="#ccc" rx="4"/><rect width="40" height="40" x="6" y="4" fill="#fbfbfb" rx="5"/><text x="7" y="7" dominant-baseline="hanging" font-size="12"><tspan x="7" dy="0em">1,7</tspan></text></g><g id="E"><rect width="52" height="52" fill="none" stroke="#000" stroke-width="2" rx="5"/><rect width="50" height="50" x="1" y="1" fill="#ccc" rx="4"/><rect width="40" height="40" x="6" y="4" fill="#fbfbfb" rx="5"/><text x="7" y="7" dominant-baseline="hanging" font-size="12"><tspan x="7" dy="0em">1,8</tspan></text></g><g id="F"><rect width="52" height="52" fill="none" stroke="#000" stroke-width="2" rx="5"/><rect width="50" height="50" x="1" y="1" fill="#ccc" rx="4"/><rect width="40" height="40" x="6" y="4" fill="#fbfbfb" rx="5"/><text x="7" y="7" dominant-baseline="hanging" font-size="12"><tspan x="7" dy="0em">1,9</tspan></text></g><g id="G"><rect width="52" height="52" fill="none" stroke="#000" stroke-width="2" rx="5"/><rect width="50" height="50" x="1" y="1" fill="#ccc" rx="4"/><rect width="40" height="40" x="6" y="4" fill="#fbfbfb" rx="5"/><text x="7" y="7" dominant-baseline="hanging" font-size="12"><tspan x="7" dy="0em">1,10</tspan></text></g><g id="H"><rect width="52" height="52" fill="none" stroke="#000" stroke-width="2" rx="5"/><rect width="50" height="50" x="1" y="1" fill="#ccc" rx="4"/><rect width="40" height="40" x="6" y="4" fill="#fbfbfb" rx="5"/><text x="7" y="7" dominant-baseline="hanging" font-size="12"><tspan x="7" dy="0em">1,11</tspan></text></g><g id="I"><rect width="52" height="52" fill="none" stroke="#000" stroke-width="2" rx="5"/><rect width="50" height="50" x="1" y="1" fill="#ccc" rx="4"/><rect width="40" height="40" x="6" y="4" fill="#fbfbfb" rx="5"/><text x="7" y="7" dominant-baseline="hanging" font-size="12"><tspan x="7" dy="0em">1,12</tspan></text></g><g id="J"><rect width="52" height="52" fill="none" stroke="#000" stroke-width="2" rx="5"/><rect width="50" height="50" x="1" y="1" fill="#ccc" rx="4"/><rect width="40" height="40" x="6" y="4" fill="#fbfbfb" rx="5"/><text x="7" y="7" dominant-baseline="hanging" font-size="12"><tspan x="7" dy="0em">1,13</tspan></text></g><g id="K"><rect width="52" height="52" fill="none" stroke="#000" stroke-width="2" rx="5"/><rect width="50" height="50" x="1" y="1" fill="#ccc" rx="4"/><rect width="40" height="40" x="6" y="4" fill="#fbfbfb" rx="5"/><text x="7" y="7" dominant-baseline="hanging" font-size="12"><tspan x="7" dy="0em">1,14</tspan></text></g><g id="L"><rect width="78" height="52" fill="none" stroke="#000" stroke-width="2" rx="5"/><rect width="76" height="50" x="1" y="1" fill="#aaa" rx="4"/><rect width="66" height="40" x="6" y="4" fill="#d0d0d0" rx="5"/><text x="7" y="7" dominant-baseline="hanging" font-size="12"><tspan x="7" dy="0em">1,15</tspan></text></g><g id="M"><rect width="52" height="52" fill="none" stroke="#000" stroke-width="2" rx="5"/><rect width="50" height="50" x="1" y="1" fill="#ccc" rx="4"/><rect width="40" height="40" x="6" y="4" fill="#fbfbfb" rx="5"/><text x="7" y="7" dominant-baseline="hanging" font-size="12"><tspan x="7" dy="0em">1,16</tspan></text></g><g id="N"><rect width="52" height="52" fill="none" stroke="#000" stroke-width="2" rx="5"/><rect width="50" height="50" x="1" y="1" fill="#ccc" rx="4"/><rect width="40" height="40" x="6" y="4" fill="#fbfbfb" rx="5"/><text x="7" y="7" dominant-baseline="hanging" font-size="12"><tspan x="7" dy="0em">1,17</tspan></text></g><g id="O"><rect width="52" height="52" fill="none" stroke="#000" stroke-width="2" rx="5"/><rect width="50" height="50" x="1" y="1" fill="#ccc" rx="4"/><rect width="40" height="40" x="6" y="4" fill="#fbfbfb" rx="5"/><text x="7" y="7" dominant-baseline="hanging" font-size="12"><tspan x="7" dy="0em">1,18</tspan></text></g><g id="P"><rect width="52" height="104" fill="none" stroke="#000" stroke-width="2" rx="5"/><rect width="50" height="102" x="1" y="1" fill="#aaa" rx="4"/><rect width="40" height="92" x="6" y="4" fill="#d0d0d0" rx="5"/><text x="7" y="7" dominant-baseline="hanging" font-size="12"><tspan x="7" dy="0em">1,19</tspan></text></g><g id="Q"><rect width="52" height="52" fill="none" stroke="#000" stroke-width="2" rx="5"/><rect width="50" height="50" x="1" y="1" fill="#ccc" rx="4"/><rect width="40" height="40" x="6" y="4" fill="#fbfbfb" rx="5"/><text x="7" y="7" dominant-baseline="hanging" font-size="12"><tspan x="7" dy="0em">2,0</tspan></text></g><g id="R"><rect width="52" height="52" fill="none" stroke="#000" stroke-width="2" rx="5"/><rect width="50" height="50" x="1" y="1" fill="#ccc" rx="4"/><rect width="40" height="40" x="6" y="4" fill="#fbfbfb" rx="5"/><text x="7" y="7" dominant-baseline="hanging" font-size="12"><tspan x="7" dy="0em">2,1</tspan></text></g><g id="S"><rect width="91" height="52" fill="none" stroke="#000" stroke-width="2" rx="5"/><rect width="89" height="50" x="1" y="1" fill="#aaa" rx="4"/><rect width="79" height="40" x="6" y="4" fill="#d0d0d0" rx="5"/><text x="7" y="7" dominant-baseline="hanging" font-size="12"><tspan x="7" dy="0em">2,2</tspan></text></g><g id="T"><rect width="52" height="52" fill="none" stroke="#000" stroke-width="2" rx="5"/><rect width="50" height="50" x="1" y="1" fill="#ccc" rx="4"/><rect width="40" height="40" x="6" y="4" fill="#fbfbfb" rx="5"/><text x="7" y="7" dominant-baseline="hanging" font-size="12"><tspan x="7" dy="0em">2,3</tspan></text></g><g id="U"><rect width="52" height="52" fill="none" stroke="#000" stroke-width="2" rx="5"/><rect width="50" height="50" x="1" y="1" fill="#ccc" rx="4"/><rect width="40" height="40" x="6" y="4" fill="#fbfbfb" rx="5"/><text x="7" y="7" dominant-baseline="hanging" font-size="12"><tspan x="7" dy="0em">2,4</tspan></text></g><g id="V"><rect width="52" height="52" fill="none" stroke="#000" stroke-width="2" rx="5"/><rect width="50" height="50" x="1" y="1" fill="#ccc" rx="4"/><rect width="40" height="40" x="6" y="4" fill="#fbfbfb" rx="5"/><text x="7" y="7" dominant-baseline="hanging" font-size="12"><tspan x="7" dy="0em">2,5</tspan></text></g><g id="W"><rect width="52" height="52" fill="none" stroke="#000" stroke-width="2" rx="5"/><rect width="50" height="50" x="1" y="1" fill="#ccc" rx="4"/><rect width="40" height="40" x="6" y="4" fill="#fbfbfb" rx="5"/><text x="7" y="7" dominant-baseline="hanging" font-size="12"><tspan x="7" dy="0em">2,6</tspan></text></g><g id="X"><rect width="52" height="52" fill="none" stroke="#000" stroke-width="2" rx="5"/><rect width="50" height="50" x="1" y="1" fill="#ccc" rx="4"/><rect width="40" height="40" x="6" y="4" fill="#fbfbfb" rx="5"/><text x="7" y="7" dominant-baseline="hanging" font-size="12"><tspan x="7" dy="0em">2,7</tspan></text></g><g id="Y"><rect width="52" height="52" fill="none" stroke="#000" stroke-width="2" rx="5"/><rect width="50" height="50" x="1" y="1" fill="#ccc" rx="4"/><rect width="40" height="40" x="6" y="4" fill="#fbfbfb" rx="5"/><text x="7" y="7" dominant-baseline="hanging" font-size="12"><tspan x="7" dy="0em">2,8</tspan></text></g><g id="Z"><rect width="52" height="52" fill="none" stroke="#000" stroke-width="2" rx="5"/><rect width="50" height="50" x="1" y="1" fill="#ccc" rx="4"/><rect width="40" height="40" x="6" y="4" fill="#fbfbfb" rx="5"/><text x="7" y="7" dominant-baseline="hanging" font-size="12"><tspan x="7" dy="0em">2,9</tspan></text></g><g id="aa"><rect width="52" height="52" fill="none" stroke="#000" stroke-width="2" rx="5"/><rect width="50" height="50" x="1" y="1" fill="#ccc" rx="4"/><rect width="40" height="40" x="6" y="4" fill="#fbfbfb" rx="5"/><text x="7" y="7" dominant-baseline="hanging" font-size="12"><tspan x="7" dy="0em">2,10</tspan></text></g><g id="ab"><rect width="52" height="52" fill="none" stroke="#000" stroke-width="2" rx="5"/><rect width="50" height="50" x="1" y="1" fill="#ccc" rx="4"/><rect width="40" height="40" x="6" y="4" fill="#fbfbfb" rx="5"/><text x="7" y="7" dominant-baseline="hanging" font-size="12"><tspan x="7" dy="0em">2,11</tspan></text></g><g id="ac"><rect width="52" height="52" fill="none" stroke="#000" stroke-width="2" rx="5"/><rect width="50" height="50" x="1" y="1" fill="#ccc" rx="4"/><rect width="40" height="40" x="6" y="4" fill="#fbfbfb" rx="5"/><text x="7" y="7" dominant-baseline="hanging" font-size="12"><tspan x="7" dy="0em">2,12</tspan></text></g><g id="ad"><rect width="52" height="52" fill="none" stroke="#000" stroke-width="2" rx="5"/><rect width="50" height="50" x="1" y="1" fill="#ccc" rx="4"/><rect width="40" height="40" x="6" y="4" fill="#fbfbfb" rx="5"/><text x="7" y="7" dominant-baseline="hanging" font-size="12"><tspan x="7" dy="0em">2,13</tspan></text></g><g id="ae"><rect width="117" height="52" fill="none" stroke="#000" stroke-width="2" rx="5"/><rect width="115" height="50" x="1" y="1" fill="#777" rx="4"/><rect width="105" height="40" x="6" y="4" fill="#919191" rx="5"/><text x="7" y="7" dominant-baseline="hanging" font-size="12"><tspan x="7" dy="0em">2,15</tspan></text></g><g id="af"><rect width="52" height="52" fill="none" stroke="#000" stroke-width="2" rx="5"/><rect width="50" height="50" x="1" y="1" fill="#ccc" rx="4"/><rect width="40" height="40" x="6" y="4" fill="#fbfbfb" rx="5"/><text x="7" y="7" dominant-baseline="hanging" font-size="12"><tspan x="7" dy="0em">2,16</tspan></text></g><g id="ag"><rect width="52" height="52" fill="none" stroke="#000" stroke-width="2" rx="5"/><rect width="50" height="50" x="1" y="1" fill="#ccc" rx="4"/><rect width="40" height="40" x="6" y="4" fill="#fbfbfb" rx="5"/><text x="7" y="7" dominant-baseline="hanging" font-size="12"><tspan x="7" dy="0em">2,17</tspan></text></g><g id="ah"><rect width="52" height="52" fill="none" stroke="#000" stroke-width="2" rx="5"/><rect width="50" height="50" x="1" y="1" fill="#ccc" rx="4"/><rect width="40" height="40" x="6" y="4" fill="#fbfbfb" rx="5"/><text x="7" y="7" dominant-baseline="hanging" font-size="12"><tspan x="7" dy="0em">2,18</tspan></text></g><g id="ai"><rect width="52" height="52" fill="none" stroke="#000" stroke-width="2" rx="5"/><rect width="50" height="50" x="1" y="1" fill="#ccc" rx="4"/><rect width="40" height="40" x="6" y="4" fill="#fbfbfb" rx="5"/><text x="7" y="7" dominant-baseline="hanging" font-size="12"><tspan x="7" dy="0em">3,0</tspan></text></g><g id="aj"><rect width="52" height="52" fill="none" stroke="#000" stroke-width="2" rx="5"/><rect width="50" height="50" x="1" y="1" fill="#ccc" rx="4"/><rect width="40" height="40" x="6" y="4" fill="#fbfbfb" rx="5"/><text x="7" y="7" dominant-baseline="hanging" font-size="12"><tspan x="7" dy="0em">3,1</tspan></text></g><g id="ak"><rect width="117" height="52" fill="none" stroke="#000" stroke-width="2" rx="5"/><rect width="115" height="50" x="1" y="1" fill="#aaa" rx="4"/><rect width="105" height="40" x="6" y="4" fill="#d0d0d0" rx="5"/><text x="7" y="7" dominant-baseline="hanging" font-size="12"><tspan x="7" dy="0em">3,2</tspan></text></g><g id="al"><rect width="52" height="52" fill="none" stroke="#000" stroke-width="2" rx="5"/><rect width="50" height="50" x="1" y="1" fill="#ccc" rx="4"/><rect width="40" height="40" x="6" y="4" fill="#fbfbfb" rx="5"/><text x="7" y="7" dominant-baseline="hanging" font-size="12"><tspan x="7" dy="0em">3,4</tspan></text></g><g id="am"><rect width="52" height="52" fill="none" stroke="#000" stroke-width="2" rx="5"/><rect width="50" height="50" x="1" y="1" fill="#ccc" rx="4"/><rect width="40" height="40" x="6" y="4" fill="#fbfbfb" rx="5"/><text x="7" y="7" dominant-baseline="hanging" font-size="12"><tspan x="7" dy="0em">3,5</tspan></text></g><g id="an"><rect width="52" height="52" fill="none" stroke="#000" stroke-width="2" rx="5"/><rect width="50" height="50" x="1" y="1" fill="#ccc" rx="4"/><rect width="40" height="40" x="6" y="4" fill="#fbfbfb" rx="5"/><text x="7" y="7" dominant-baseline="hanging" font-size="12"><tspan x="7" dy="0em">3,6</tspan></text></g><g id="ao"><rect width="52" height="52" fill="none" stroke="#000" stroke-width="2" rx="5"/><rect width="50" height="50" x="1" y="1" fill="#ccc" rx="4"/><rect width="40" height="40" x="6" y="4" fill="#fbfbfb" rx="5"/><text x="7" y="7" dominant-baseline="hanging" font-size="12"><tspan x="7" dy="0em">3,7</tspan></text></g><g id="ap"><rect width="52" height="52" fill="none" stroke="#000" stroke-width="2" rx="5"/><rect width="50" height="50" x="1" y="1" fill="#ccc" rx="4"/><rect width="40" height="40" x="6" y="4" fill="#fbfbfb" rx="5"/><text x="7" y="7" dominant-baseline="hanging" font-size="12"><tspan x="7" dy="0em">3,8</tspan></text></g><g id="aq"><rect width="52" height="52" fill="none" stroke="#000" stroke-width="2" rx="5"/><rect width="50" height="50" x="1" y="1" fill="#ccc" rx="4"/><rect width="40" height="40" x="6" y="4" fill="#fbfbfb" rx="5"/><text x="7" y="7" dominant-baseline="hanging" font-size="12"><tspan x="7" dy="0em">3,9</tspan></text></g><g id="ar"><rect width="52" height="52" fill="none" stroke="#000" stroke-width="2" rx="5"/><rect width="50" height="50" x="1" y="1" fill="#ccc" rx="4"/><rect width="40" height="40" x="6" y="4" fill="#fbfbfb" rx="5"/><text x="7" y="7" dominant-baseline="hanging" font-size="12"><tspan x="7" dy="0em">3,10</tspan></text></g><g id="as"><rect width="52" height="52" fill="none" stroke="#000" stroke-width="2" rx="5"/><rect width="50" height="50" x="1" y="1" fill="#ccc" rx="4"/><rect width="40" height="40" x="6" y="4" fill="#fbfbfb" rx="5"/><text x="7" y="7" dominant-baseline="hanging" font-size="12"><tspan x="7" dy="0em">3,11</tspan></text></g><g id="at"><rect width="52" height="52" fill="none" stroke="#000" stroke-width="2" rx="5"/><rect width="50" height="50" x="1" y="1" fill="#ccc" rx="4"/><rect width="40" height="40" x="6" y="4" fill="#fbfbfb" rx="5"/><text x="7" y="7" dominant-baseline="hanging" font-size="12"><tspan x="7" dy="0em">3,12</tspan></text></g><g id="au"><rect width="52" height="52" fill="none" stroke="#000" stroke-width="2" rx="5"/><rect width="50" height="50" x="1" y="1" fill="#ccc" rx="4"/><rect width="40" height="40" x="6" y="4" fill="#fbfbfb" rx="5"/><text x="7" y="7" dominant-baseline="hanging" font-size="12"><tspan x="7" dy="0em">3,13</tspan></text></g><g id="av"><rect width="143" height="52" fill="none" stroke="#000" stroke-width="2" rx="5"/><rect width="141" height="50" x="1" y="1" fill="#aaa" rx="4"/><rect width="131" height="40" x="6" y="4" fill="#d0d0d0" rx="5"/><text x="7" y="7" dominant-baseline="hanging" font-size="12"><tspan x="7" dy="0em">3,14</tspan></text><text x="136" y="42" font-size="12" text-anchor="end"><tspan x="136" dy="0em">1,0</tspan></text></g><g id="aw"><rect width="52" height="52" fill="none" stroke="#000" stroke-width="2" rx="5"/><rect width="50" height="50" x="1" y="1" fill="#ccc" rx="4"/><rect width="40" height="40" x="6" y="4" fill="#fbfbfb" rx="5"/><text x="7" y="7" dominant-baseline="hanging" font-size="12"><tspan x="7" dy="0em">3,16</tspan></text></g><g id="ax"><rect width="52" height="52" fill="none" stroke="#000" stroke-width="2" rx="5"/><rect width="50" height="50" x="1" y="1" fill="#ccc" rx="4"/><rect width="40" height="40" x="6" y="4" fill="#fbfbfb" rx="5"/><text x="7" y="7" dominant-baseline="hanging" font-size="12"><tspan x="7" dy="0em">3,17</tspan></text></g><g id="ay"><rect width="52" height="52" fill="none" stroke="#000" stroke-width="2" rx="5"/><rect width="50" height="50" x="1" y="1" fill="#ccc" rx="4"/><rect width="40" height="40" x="6" y="4" fill="#fbfbfb" rx="5"/><text x="7" y="7" dominant-baseline="hanging" font-size="12"><tspan x="7" dy="0em">3,18</tspan></text></g><g id="az"><rect width="52" height="104" fill="none" stroke="#000" stroke-width="2" rx="5"/><rect width="50" height="102" x="1" y="1" fill="#aaa" rx="4"/><rect width="40" height="92" x="6" y="4" fill="#d0d0d0" rx="5"/><text x="7" y="7" dominant-baseline="hanging" font-size="12"><tspan x="7" dy="0em">4,19</tspan></text></g><g id="aA"><rect width="52" height="52" fill="none" stroke="#000" stroke-width="2" rx="5"/><rect width="50" height="50" x="1" y="1" fill="#ccc" rx="4"/><rect width="40" height="40" x="6" y="4" fill="#fbfbfb" rx="5"/><text x="7" y="7" dominant-baseline="hanging" font-size="12"><tspan x="7" dy="0em">4,0</tspan></text></g><g id="aB"><rect width="52" height="52" fill="none" stroke="#000" stroke-width="2" rx="5"/><rect width="50" height="50" x="1" y="1" fill="#ccc" rx="4"/><rect width="40" height="40" x="6" y="4" fill="#fbfbfb" rx="5"/><text x="7" y="7" dominant-baseline="hanging" font-size="12"><tspan x="7" dy="0em">4,1</tspan></text></g><g id="aC"><rect width="78" height="52" fill="none" stroke="#000" stroke-width="2" rx="5"/><rect width="76" height="50" x="1" y="1" fill="#aaa" rx="4"/><rect width="66" height="40" x="6" y="4" fill="#d0d0d0" rx="5"/><text x="7" y="7" dominant-baseline="hanging" font-size="12"><tspan x="7" dy="0em">4,2</tspan></text></g><g id="aD"><rect width="52" height="52" fill="none" stroke="#000" stroke-width="2" rx="5"/><rect width="50" height="50" x="1" y="1" fill="#aaa" rx="4"/><rect width="40" height="40" x="6" y="4" fill="#d0d0d0" rx="5"/><text x="7" y="7" dominant-baseline="hanging" font-size="12"><tspan x="7" dy="0em">4,3</tspan></text></g><g id="aE"><rect width="78" height="52" fill="none" stroke="#000" stroke-width="2" rx="5"/><rect width="76" height="50" x="1" y="1" fill="#aaa" rx="4"/><rect width="66" height="40" x="6" y="4" fill="#d0d0d0" rx="5"/><text x="7" y="7" dominant-baseline="hanging" font-size="12"><tspan x="7" dy="0em">4,4</tspan></text></g><g id="aF"><rect width="364" height="52" fill="none" stroke="#000" stroke-width="2" rx="5"/><rect width="362" height="50" x="1" y="1" fill="#ccc" rx="4"/><rect width="352" height="40" x="6" y="4" fill="#fbfbfb" rx="5"/><text x="7" y="7" dominant-baseline="hanging" font-size="12"><tspan x="7" dy="0em">4,8</tspan></text></g><g id="aG"><rect width="78" height="52" fill="none" stroke="#000" stroke-width="2" rx="5"/><rect width="76" height="50" x="1" y="1" fill="#aaa" rx="4"/><rect width="66" height="40" x="6" y="4" fill="#d0d0d0" rx="5"/><text x="7" y="7" dominant-baseline="hanging" font-size="12"><tspan x="7" dy="0em">4,13</tspan></text></g><g id="aH"><rect width="52" height="52" fill="none" stroke="#000" stroke-width="2" rx="5"/><rect width="50" height="50" x="1" y="1" fill="#aaa" rx="4"/><rect width="40" height="40" x="6" y="4" fill="#d0d0d0" rx="5"/><text x="7" y="7" dominant-baseline="hanging" font-size="12"><tspan x="7" dy="0em">4,14</tspan></text></g><g id="aI"><rect width="78" height="52" fill="none" stroke="#000" stroke-width="2" rx="5"/><rect width="76" height="50" x="1" y="1" fill="#aaa" rx="4"/><rect width="66" height="40" x="6" y="4" fill="#d0d0d0" rx="5"/><text x="7" y="7" dominant-baseline="hanging" font-size="12"><tspan x="7" dy="0em">4,15</tspan></text></g><g id="aJ"><rect width="104" height="52" fill="none" stroke="#000" stroke-width="2" rx="5"/><rect width="102" height="50" x="1" y="1" fill="#ccc" rx="4"/><rect width="92" height="40" x="6" y="4" fill="#fbfbfb" rx="5"/><text x="7" y="7" dominant-baseline="hanging" font-size="12"><tspan x="7" dy="0em">4,16</tspan></text></g><g id="aK"><rect width="52" height="52" fill="none" stroke="#000" stroke-width="2" rx="5"/><rect width="50" height="50" x="1" y="1" fill="#ccc" rx="4"/><rect width="40" height="40" x="6" y="4" fill="#fbfbfb" rx="5"/><text x="7" y="7" dominant-baseline="hanging" font-size="12"><tspan x="7" dy="0em">4,18</tspan></text></g><g id="aL"><rect width="91" height="52" fill="none" stroke="#000" stroke-width="2" rx="5"/><rect width="89" height="50" x="1" y="1" fill="#aaa" rx="4"/><rect width="79" height="40" x="6" y="4" fill="#d0d0d0" rx="5"/><text x="7" y="7" dominant-baseline="hanging" font-size="12"><tspan x="7" dy="0em">3,14</tspan></text><text x="84" y="42" font-size="12" text-anchor="end"><tspan x="84" dy="0em">1,1</tspan></text></g><g id="aM"><rect width="52" height="52" fill="none" stroke="#000" stroke-width="2" rx="5"/><rect width="50" height="50" x="1" y="1" fill="#aaa" rx="4"/><rect width="40" height="40" x="6" y="4" fill="#d0d0d0" rx="5"/><text x="7" y="7" dominant-baseline="hanging" font-size="12"><tspan x="7" dy="0em">3,15</tspan></text><text x="45" y="42" font-size="12" text-anchor="end"><tspan x="45" dy="0em">1,1</tspan></text></g></defs><use xlink:href="#a" x="4" y="4"/><use xlink:href="#b" x="56" y="4"/><use xlink:href="#c" x="121" y="4"/><use xlink:href="#d" x="173" y="4"/><use xlink:href="#e" x="225" y="4"/><use xlink:href="#f" x="277" y="4"/><use xlink:href="#g" x="329" y="4"/><use xlink:href="#h" x="381" y="4"/><use xlink:href="#i" x="433" y="4"/><use xlink:href="#j" x="485" y="4"/><use xlink:href="#k" x="537" y="4"/><use xlink:href="#l" x="589" y="4"/><use xlink:href="#m" x="641" y="4"/><use xlink:href="#n" x="693" y="4"/><use xlink:href="#o" x="745" y="4"/><use xlink:href="#p" x="797" y="4"/><use xlink:href="#q" x="914" y="4"/><use xlink:href="#r" x="966" y="4"/><use xlink:href="#s" x="1018" y="4"/><use xlink:href="#t" x="1070" y="4"/><use xlink:href="#u" x="1161" y="4"/><use xlink:href="#v" x="1213" y="4"/><use xlink:href="#w" x="4" y="56"/><use xlink:href="#x" x="56" y="56"/><use xlink:href="#y" x="121" y="56"/><use xlink:href="#z" x="199" y="56"/><use xlink:href="#A" x="251" y="56"/><use xlink:href="#B" x="303" y="56"/><use xlink:href="#C" x="355" y="56"/><use xlink:href="#D" x="407" y="56"/><use xlink:href="#E" x="459" y="56"/><use xlink:href="#F" x="511" y="56"/><use xlink:href="#G" x="563" y="56"/><use xlink:href="#H" x="615" y="56"/><use xlink:href="#I" x="667" y="56"/><use xlink:href="#J" x="719" y="56"/><use xlink:href="#K" x="771" y="56"/><use xlink:href="#L" x="823" y="56"/><use xlink:href="#M" x="914" y="56"/><use xlink:href="#N" x="966" y="56"/><use xlink:href="#O" x="1018" y="56"/><use xlink:href="#P" x="1070" y="56"/><use xlink:href="#Q" x="4" y="108"/><use xlink:href="#R" x="56" y="108"/><use xlink:href="#S" x="121" y="108"/><use xlink:href="#T" x="212" y="108"/><use xlink:href="#U" x="264" y="108"/><use xlink:href="#V" x="316" y="108"/><use xlink:href="#W" x="368" y="108"/><use xlink:href="#X" x="420" y="108"/><use xlink:href="#Y" x="472" y="108"/><use xlink:href="#Z" x="524" y="108"/><use xlink:href="#aa" x="576" y="108"/><use xlink:href="#ab" x="628" y="108"/><use xlink:href="#ac" x="680" y="108"/><use xlink:href="#ad" x="732" y="108"/><use xlink:href="#ae" x="784" y="108"/><use xlink:href="#af" x="914" y="108"/><use xlink:href="#ag" x="966" y="108"/><use xlink:href="#ah" x="1018" y="108"/><use xlink:href="#ai" x="4" y="160"/><use xlink:href="#aj" x="56" y="160"/><use xlink:href="#ak" x="121" y="160"/><use xlink:href="#al" x="238" y="160"/><use xlink:href="#am" x="290" y="160"/><use xlink:href="#an" x="342" y="160"/><use xlink:href="#ao" x="394" y="160"/><use xlink:href="#ap" x="446" y="160"/><use xlink:href="#aq" x="498" y="160"/><use xlink:href="#ar" x="550" y="160"/><use xlink:href="#as" x="602" y="160"/><use xlink:href="#at" x="654" y="160"/><use xlink:href="#au" x="706" y="160"/><use xlink:href="#av" x="758" y="160"/><use xlink:href="#aw" x="914" y="160"/><use xlink:href="#ax" x="966" y="160"/><use xlink:href="#ay" x="1018" y="160"/><use xlink:href="#az" x="1070" y="160"/><use xlink:href="#aA" x="4" y="212"/><use xlink:href="#aB" x="56" y="212"/><use xlink:href="#aC" x="121" y="212"/><use xlink:href="#aD" x="199" y="212"/><use xlink:href="#aE" x="251" y="212"/><use xlink:href="#aF" x="329" y="212"/><use xlink:href="#aG" x="693" y="212"/><use xlink:href="#aH" x="771" y="212"/><use xlink:href="#aI" x="823" y="212"/><use xlink:href="#aJ" x="914" y="212"/><use xlink:href="#aK" x="1018" y="212"/><use xlink:href="#aL" x="758" y="290"/><use xlink:href="#aM" x="849" y="290"/></svg>