<?xml version="1.0" encoding="UTF-8"?>
<!DOCTYPE svg  PUBLIC '-//W3C//DTD SVG 1.1//EN'  'http://www.w3.org/Graphics/SVG/1.1/DTD/svg11.dtd'>
<svg width="80.01mm" height="76.276mm" version="1.1" viewBox="0 0 80.01 76.276" xmlns="http://www.w3.org/2000/svg">
 <title>SVG Image created as spin-render.svg date 2026/07/14 10:51:38</title>
 <desc>Image generated by PCBNEW</desc>
 <rect width="80.01mm" height="76.276mm" fill="#282A36"/>
 <g fill="#f55">
  <circle cx="43.865" cy="7.035" r="1.25"/>
  <circle cx="50.215" cy="4.495" r="1.25"/>
  <path d="m62.988 36.65v-2h2v2z" fill="#f55" fill-rule="evenodd"/>
  <circle cx="63.988" cy="40.65" r="1"/>
  <circle cx="63.988" cy="38.15" r="1"/>
  <path d="m69.888 33.55v-2h3.2v2z" fill="#f55" fill-rule="evenodd"/>
  <path d="m69.888 44.75v-2h3.2v2z" fill="#f55" fill-rule="evenodd"/>
  <circle cx="78.488" cy="40.65" r="1"/>
  <circle cx="78.488" cy="35.65" r="1"/>
  <circle cx="5.765" cy="64.185" r="1.25"/>
  <circle cx="12.115" cy="61.645" r="1.25"/>
  <circle cx="24.815" cy="26.085" r="1.25"/>
  <circle cx="31.165" cy="23.545" r="1.25"/>
  <circle cx="24.815" cy="45.135" r="1.25"/>
  <circle cx="31.165" cy="42.595" r="1.25"/>
  <circle cx="24.815" cy="7.035" r="1.25"/>
  <circle cx="31.165" cy="4.495" r="1.25"/>
  <circle cx="43.865" cy="45.135" r="1.25"/>
  <circle cx="50.215" cy="42.595" r="1.25"/>
  <circle cx="5.765" cy="45.135" r="1.25"/>
  <circle cx="12.115" cy="42.595" r="1.25"/>
  <path d="m62.988 65.225v-2h2v2z" fill="#f55" fill-rule="evenodd"/>
  <circle cx="63.988" cy="69.225" r="1"/>
  <circle cx="63.988" cy="66.725" r="1"/>
  <path d="m69.888 62.125v-2h3.2v2z" fill="#f55" fill-rule="evenodd"/>
  <path d="m69.888 73.325v-2h3.2v2z" fill="#f55" fill-rule="evenodd"/>
  <circle cx="78.488" cy="69.225" r="1"/>
  <circle cx="78.488" cy="64.225" r="1"/>
  <circle cx="24.815" cy="64.185" r="1.25"/>
  <circle cx="31.165" cy="61.645" r="1.25"/>
  <circle cx="43.865" cy="26.085" r="1.25"/>
  <circle cx="50.215" cy="23.545" r="1.25"/>
  <path d="m62.988 8.075v-2h2v2z" fill="#f55" fill-rule="evenodd"/>
  <circle cx="63.988" cy="12.075" r="1"/>
  <circle cx="63.988" cy="9.575" r="1"/>
  <path d="m69.888 4.975v-2h3.2v2z" fill="#f55" fill-rule="evenodd"/>
  <path d="m69.888 16.175v-2h3.2v2z" fill="#f55" fill-rule="evenodd"/>
  <circle cx="78.488" cy="12.075" r="1"/>
  <circle cx="78.488" cy="7.075" r="1"/>
  <circle cx="43.865" cy="64.185" r="1.25"/>
  <circle cx="50.215" cy="61.645" r="1.25"/>
  <circle cx="5.765" cy="7.035" r="1.25"/>
  <circle cx="12.115" cy="4.495" r="1.25"/>
  <circle cx="5.765" cy="26.085" r="1.25"/>
  <circle cx="12.115" cy="23.545" r="1.25"/>
 </g>
 <g fill="none" stroke="#f55" stroke-linecap="round" stroke-linejoin="round" stroke-width=".2">
  <path d="m24.815 7.035h19.05"/>
  <path d="m5.765 7.035h19.05"/>
  <path d="m24.815 26.085h19.05"/>
  <path d="m5.765 26.085h19.05"/>
  <path d="m24.815 45.135h19.05"/>
  <path d="m5.765 45.135h19.05"/>
  <path d="m24.815 64.185h19.05"/>
  <path d="m5.765 64.185h19.05"/>
 </g>
 <g fill="#50FA7B">
  <circle cx="43.865" cy="7.035" r="1.25"/>
  <circle cx="50.215" cy="4.495" r="1.25"/>
  <path d="m62.988 36.65v-2h2v2z" fill="#50FA7B" fill-rule="evenodd"/>
  <circle cx="63.988" cy="40.65" r="1"/>
  <circle cx="63.988" cy="38.15" r="1"/>
  <path d="m69.888 33.55v-2h3.2v2z" fill="#50FA7B" fill-rule="evenodd"/>
  <path d="m69.888 44.75v-2h3.2v2z" fill="#50FA7B" fill-rule="evenodd"/>
  <circle cx="78.488" cy="40.65" r="1"/>
  <circle cx="78.488" cy="35.65" r="1"/>
  <circle cx="5.765" cy="64.185" r="1.25"/>
  <circle cx="12.115" cy="61.645" r="1.25"/>
  <circle cx="24.815" cy="26.085" r="1.25"/>
  <circle cx="31.165" cy="23.545" r="1.25"/>
  <circle cx="24.815" cy="45.135" r="1.25"/>
  <circle cx="31.165" cy="42.595" r="1.25"/>
  <circle cx="24.815" cy="7.035" r="1.25"/>
  <circle cx="31.165" cy="4.495" r="1.25"/>
  <circle cx="43.865" cy="45.135" r="1.25"/>
  <circle cx="50.215" cy="42.595" r="1.25"/>
  <circle cx="5.765" cy="45.135" r="1.25"/>
  <circle cx="12.115" cy="42.595" r="1.25"/>
  <path d="m62.988 65.225v-2h2v2z" fill="#50FA7B" fill-rule="evenodd"/>
  <circle cx="63.988" cy="69.225" r="1"/>
  <circle cx="63.988" cy="66.725" r="1"/>
  <path d="m69.888 62.125v-2h3.2v2z" fill="#50FA7B" fill-rule="evenodd"/>
  <path d="m69.888 73.325v-2h3.2v2z" fill="#50FA7B" fill-rule="evenodd"/>
  <circle cx="78.488" cy="69.225" r="1"/>
  <circle cx="78.488" cy="64.225" r="1"/>
  <circle cx="24.815" cy="64.185" r="1.25"/>
  <circle cx="31.165" cy="61.645" r="1.25"/>
  <circle cx="43.865" cy="26.085" r="1.25"/>
  <circle cx="50.215" cy="23.545" r="1.25"/>
  <path d="m62.988 8.075v-2h2v2z" fill="#50FA7B" fill-rule="evenodd"/>
  <circle cx="63.988" cy="12.075" r="1"/>
  <circle cx="63.988" cy="9.575" r="1"/>
  <path d="m69.888 4.975v-2h3.2v2z" fill="#50FA7B" fill-rule="evenodd"/>
  <path d="m69.888 16.175v-2h3.2v2z" fill="#50FA7B" fill-rule="evenodd"/>
  <circle cx="78.488" cy="12.075" r="1"/>
  <circle cx="78.488" cy="7.075" r="1"/>
  <circle cx="43.865" cy="64.185" r="1.25"/>
  <circle cx="50.215" cy="61.645" r="1.25"/>
  <circle cx="5.765" cy="7.035" r="1.25"/>
  <circle cx="12.115" cy="4.495" r="1.25"/>
  <circle cx="5.765" cy="26.085" r="1.25"/>
  <circle cx="12.115" cy="23.545" r="1.25"/>
  <g fill="#50FA7B" fill-rule="evenodd">
   <path d="m14.355 53.625-0.0957-0.019-0.0811-0.0542-0.0542-0.0811-0.019-0.0957v-0.6l0.019-0.0957 0.0542-0.0811 0.0811-0.0542 0.0957-0.019h0.6l0.0957 0.019 0.0811 0.0542 0.0542 0.0811 0.019 0.0957v0.6l-0.019 0.0957-0.0542 0.0811-0.0811 0.0542-0.0957 0.019z"/>
   <path d="m14.355 50.825-0.0957-0.019-0.0811-0.0542-0.0542-0.0811-0.019-0.0957v-0.6l0.019-0.0957 0.0542-0.0811 0.0811-0.0542 0.0957-0.019h0.6l0.0957 0.019 0.0811 0.0542 0.0542 0.0811 0.019 0.0957v0.6l-0.019 0.0957-0.0542 0.0811-0.0811 0.0542-0.0957 0.019z"/>
   <path d="m52.455 53.625-0.0957-0.019-0.0811-0.0542-0.0542-0.0811-0.019-0.0957v-0.6l0.019-0.0957 0.0542-0.0811 0.0811-0.0542 0.0957-0.019h0.6l0.0957 0.019 0.0811 0.0542 0.0542 0.0811 0.019 0.0957v0.6l-0.019 0.0957-0.0542 0.0811-0.0811 0.0542-0.0957 0.019z"/>
   <path d="m52.455 50.825-0.0957-0.019-0.0811-0.0542-0.0542-0.0811-0.019-0.0957v-0.6l0.019-0.0957 0.0542-0.0811 0.0811-0.0542 0.0957-0.019h0.6l0.0957 0.019 0.0811 0.0542 0.0542 0.0811 0.019 0.0957v0.6l-0.019 0.0957-0.0542 0.0811-0.0811 0.0542-0.0957 0.019z"/>
   <path d="m68.768 41.6-0.0957-0.019-0.0811-0.0542-0.0542-0.0811-0.019-0.0957v-0.6l0.019-0.0957 0.0542-0.0811 0.0811-0.0542 0.0957-0.019h0.6l0.0957 0.019 0.0811 0.0542 0.0542 0.0811 0.019 0.0957v0.6l-0.019 0.0957-0.0542 0.0811-0.0811 0.0542-0.0957 0.019z"/>
   <path d="m68.768 38.8-0.0957-0.019-0.0811-0.0542-0.0542-0.0811-0.019-0.0957v-0.6l0.019-0.0957 0.0542-0.0811 0.0811-0.0542 0.0957-0.019h0.6l0.0957 0.019 0.0811 0.0542 0.0542 0.0811 0.019 0.0957v0.6l-0.019 0.0957-0.0542 0.0811-0.0811 0.0542-0.0957 0.019z"/>
   <path d="m52.455 34.575-0.0957-0.019-0.0811-0.0542-0.0542-0.0811-0.019-0.0957v-0.6l0.019-0.0957 0.0542-0.0811 0.0811-0.0542 0.0957-0.019h0.6l0.0957 0.019 0.0811 0.0542 0.0542 0.0811 0.019 0.0957v0.6l-0.019 0.0957-0.0542 0.0811-0.0811 0.0542-0.0957 0.019z"/>
   <path d="m52.455 31.775-0.0957-0.019-0.0811-0.0542-0.0542-0.0811-0.019-0.0957v-0.6l0.019-0.0957 0.0542-0.0811 0.0811-0.0542 0.0957-0.019h0.6l0.0957 0.019 0.0811 0.0542 0.0542 0.0811 0.019 0.0957v0.6l-0.019 0.0957-0.0542 0.0811-0.0811 0.0542-0.0957 0.019z"/>
   <path d="m68.768 13.025-0.0957-0.019-0.0811-0.0542-0.0542-0.0811-0.019-0.0957v-0.6l0.019-0.0957 0.0542-0.0811 0.0811-0.0542 0.0957-0.019h0.6l0.0957 0.019 0.0811 0.0542 0.0542 0.0811 0.019 0.0957v0.6l-0.019 0.0957-0.0542 0.0811-0.0811 0.0542-0.0957 0.019z"/>
   <path d="m68.768 10.225-0.0957-0.019-0.0811-0.0542-0.0542-0.0811-0.019-0.0957v-0.6l0.019-0.0957 0.0542-0.0811 0.0811-0.0542 0.0957-0.019h0.6l0.0957 0.019 0.0811 0.0542 0.0542 0.0811 0.019 0.0957v0.6l-0.019 0.0957-0.0542 0.0811-0.0811 0.0542-0.0957 0.019z"/>
   <path d="m52.455 72.675-0.0957-0.019-0.0811-0.0542-0.0542-0.0811-0.019-0.0957v-0.6l0.019-0.0957 0.0542-0.0811 0.0811-0.0542 0.0957-0.019h0.6l0.0957 0.019 0.0811 0.0542 0.0542 0.0811 0.019 0.0957v0.6l-0.019 0.0957-0.0542 0.0811-0.0811 0.0542-0.0957 0.019z"/>
   <path d="m52.455 69.875-0.0957-0.019-0.0811-0.0542-0.0542-0.0811-0.019-0.0957v-0.6l0.019-0.0957 0.0542-0.0811 0.0811-0.0542 0.0957-0.019h0.6l0.0957 0.019 0.0811 0.0542 0.0542 0.0811 0.019 0.0957v0.6l-0.019 0.0957-0.0542 0.0811-0.0811 0.0542-0.0957 0.019z"/>
   <path d="m33.405 34.575-0.0957-0.019-0.0811-0.0542-0.0542-0.0811-0.019-0.0957v-0.6l0.019-0.0957 0.0542-0.0811 0.0811-0.0542 0.0957-0.019h0.6l0.0957 0.019 0.0811 0.0542 0.0542 0.0811 0.019 0.0957v0.6l-0.019 0.0957-0.0542 0.0811-0.0811 0.0542-0.0957 0.019z"/>
   <path d="m33.405 31.775-0.0957-0.019-0.0811-0.0542-0.0542-0.0811-0.019-0.0957v-0.6l0.019-0.0957 0.0542-0.0811 0.0811-0.0542 0.0957-0.019h0.6l0.0957 0.019 0.0811 0.0542 0.0542 0.0811 0.019 0.0957v0.6l-0.019 0.0957-0.0542 0.0811-0.0811 0.0542-0.0957 0.019z"/>
   <path d="m68.768 70.175-0.0957-0.019-0.0811-0.0542-0.0542-0.0811-0.019-0.0957v-0.6l0.019-0.0957 0.0542-0.0811 0.0811-0.0542 0.0957-0.019h0.6l0.0957 0.019 0.0811 0.0542 0.0542 0.0811 0.019 0.0957v0.6l-0.019 0.0957-0.0542 0.0811-0.0811 0.0542-0.0957 0.019z"/>
   <path d="m68.768 67.375-0.0957-0.019-0.0811-0.0542-0.0542-0.0811-0.019-0.0957v-0.6l0.019-0.0957 0.0542-0.0811 0.0811-0.0542 0.0957-0.019h0.6l0.0957 0.019 0.0811 0.0542 0.0542 0.0811 0.019 0.0957v0.6l-0.019 0.0957-0.0542 0.0811-0.0811 0.0542-0.0957 0.019z"/>
   <path d="m33.405 53.625-0.0957-0.019-0.0811-0.0542-0.0542-0.0811-0.019-0.0957v-0.6l0.019-0.0957 0.0542-0.0811 0.0811-0.0542 0.0957-0.019h0.6l0.0957 0.019 0.0811 0.0542 0.0542 0.0811 0.019 0.0957v0.6l-0.019 0.0957-0.0542 0.0811-0.0811 0.0542-0.0957 0.019z"/>
   <path d="m33.405 50.825-0.0957-0.019-0.0811-0.0542-0.0542-0.0811-0.019-0.0957v-0.6l0.019-0.0957 0.0542-0.0811 0.0811-0.0542 0.0957-0.019h0.6l0.0957 0.019 0.0811 0.0542 0.0542 0.0811 0.019 0.0957v0.6l-0.019 0.0957-0.0542 0.0811-0.0811 0.0542-0.0957 0.019z"/>
   <path d="m33.405 72.675-0.0957-0.019-0.0811-0.0542-0.0542-0.0811-0.019-0.0957v-0.6l0.019-0.0957 0.0542-0.0811 0.0811-0.0542 0.0957-0.019h0.6l0.0957 0.019 0.0811 0.0542 0.0542 0.0811 0.019 0.0957v0.6l-0.019 0.0957-0.0542 0.0811-0.0811 0.0542-0.0957 0.019z"/>
   <path d="m33.405 69.875-0.0957-0.019-0.0811-0.0542-0.0542-0.0811-0.019-0.0957v-0.6l0.019-0.0957 0.0542-0.0811 0.0811-0.0542 0.0957-0.019h0.6l0.0957 0.019 0.0811 0.0542 0.0542 0.0811 0.019 0.0957v0.6l-0.019 0.0957-0.0542 0.0811-0.0811 0.0542-0.0957 0.019z"/>
   <path d="m14.355 34.575-0.0957-0.019-0.0811-0.0542-0.0542-0.0811-0.019-0.0957v-0.6l0.019-0.0957 0.0542-0.0811 0.0811-0.0542 0.0957-0.019h0.6l0.0957 0.019 0.0811 0.0542 0.0542 0.0811 0.019 0.0957v0.6l-0.019 0.0957-0.0542 0.0811-0.0811 0.0542-0.0957 0.019z"/>
   <path d="m14.355 31.775-0.0957-0.019-0.0811-0.0542-0.0542-0.0811-0.019-0.0957v-0.6l0.019-0.0957 0.0542-0.0811 0.0811-0.0542 0.0957-0.019h0.6l0.0957 0.019 0.0811 0.0542 0.0542 0.0811 0.019 0.0957v0.6l-0.019 0.0957-0.0542 0.0811-0.0811 0.0542-0.0957 0.019z"/>
   <path d="m14.355 72.675-0.0957-0.019-0.0811-0.0542-0.0542-0.0811-0.019-0.0957v-0.6l0.019-0.0957 0.0542-0.0811 0.0811-0.0542 0.0957-0.019h0.6l0.0957 0.019 0.0811 0.0542 0.0542 0.0811 0.019 0.0957v0.6l-0.019 0.0957-0.0542 0.0811-0.0811 0.0542-0.0957 0.019z"/>
   <path d="m14.355 69.875-0.0957-0.019-0.0811-0.0542-0.0542-0.0811-0.019-0.0957v-0.6l0.019-0.0957 0.0542-0.0811 0.0811-0.0542 0.0957-0.019h0.6l0.0957 0.019 0.0811 0.0542 0.0542 0.0811 0.019 0.0957v0.6l-0.019 0.0957-0.0542 0.0811-0.0811 0.0542-0.0957 0.019z"/>
   <path d="m52.455 15.525-0.0957-0.019-0.0811-0.0542-0.0542-0.0811-0.019-0.0957v-0.6l0.019-0.0957 0.0542-0.0811 0.0811-0.0542 0.0957-0.019h0.6l0.0957 0.019 0.0811 0.0542 0.0542 0.0811 0.019 0.0957v0.6l-0.019 0.0957-0.0542 0.0811-0.0811 0.0542-0.0957 0.019z"/>
   <path d="m52.455 12.725-0.0957-0.019-0.0811-0.0542-0.0542-0.0811-0.019-0.0957v-0.6l0.019-0.0957 0.0542-0.0811 0.0811-0.0542 0.0957-0.019h0.6l0.0957 0.019 0.0811 0.0542 0.0542 0.0811 0.019 0.0957v0.6l-0.019 0.0957-0.0542 0.0811-0.0811 0.0542-0.0957 0.019z"/>
   <path d="m33.405 15.525-0.0957-0.019-0.0811-0.0542-0.0542-0.0811-0.019-0.0957v-0.6l0.019-0.0957 0.0542-0.0811 0.0811-0.0542 0.0957-0.019h0.6l0.0957 0.019 0.0811 0.0542 0.0542 0.0811 0.019 0.0957v0.6l-0.019 0.0957-0.0542 0.0811-0.0811 0.0542-0.0957 0.019z"/>
   <path d="m33.405 12.725-0.0957-0.019-0.0811-0.0542-0.0542-0.0811-0.019-0.0957v-0.6l0.019-0.0957 0.0542-0.0811 0.0811-0.0542 0.0957-0.019h0.6l0.0957 0.019 0.0811 0.0542 0.0542 0.0811 0.019 0.0957v0.6l-0.019 0.0957-0.0542 0.0811-0.0811 0.0542-0.0957 0.019z"/>
   <path d="m14.355 15.525-0.0957-0.019-0.0811-0.0542-0.0542-0.0811-0.019-0.0957v-0.6l0.019-0.0957 0.0542-0.0811 0.0811-0.0542 0.0957-0.019h0.6l0.0957 0.019 0.0811 0.0542 0.0542 0.0811 0.019 0.0957v0.6l-0.019 0.0957-0.0542 0.0811-0.0811 0.0542-0.0957 0.019z"/>
   <path d="m14.355 12.725-0.0957-0.019-0.0811-0.0542-0.0542-0.0811-0.019-0.0957v-0.6l0.019-0.0957 0.0542-0.0811 0.0811-0.0542 0.0957-0.019h0.6l0.0957 0.019 0.0811 0.0542 0.0542 0.0811 0.019 0.0957v0.6l-0.019 0.0957-0.0542 0.0811-0.0811 0.0542-0.0957 0.019z"/>
  </g>
 </g>
 <g fill="none" stroke-linecap="round" stroke-linejoin="round">
  <g stroke="#50FA7B" stroke-width=".2">
   <path d="m12.115 9.635 2.54 2.54"/>
   <path d="m12.115 4.495v5.14"/>
   <path d="m78.488 35.65h-6.82"/>
   <path d="m71.668 35.65-2.6 2.6"/>
   <path d="m50.215 4.495v5.14"/>
   <path d="m50.215 9.635 2.54 2.54"/>
   <path d="m50.215 23.545v5.14"/>
   <path d="m50.215 28.685 2.54 2.54"/>
   <path d="m50.215 42.595v5.14"/>
   <path d="m50.215 47.735 2.54 2.54"/>
   <path d="m50.215 61.645v5.14"/>
   <path d="m50.215 66.785 2.54 2.54"/>
   <path d="m78.488 7.075h-6.82"/>
   <path d="m71.668 7.075-2.6 2.6"/>
   <path d="m12.115 28.685 2.54 2.54"/>
   <path d="m12.115 23.545v5.14"/>
   <path d="m12.115 47.735 2.54 2.54"/>
   <path d="m12.115 42.595v5.14"/>
   <path d="m12.115 66.785 2.54 2.54"/>
   <path d="m12.115 61.645v5.14"/>
   <path d="m71.668 64.225-2.6 2.6"/>
   <path d="m78.488 64.225h-6.82"/>
   <path d="m31.165 9.635 2.54 2.54"/>
   <path d="m31.165 4.495v5.14"/>
   <path d="m31.165 28.685 2.54 2.54"/>
   <path d="m31.165 23.545v5.14"/>
   <path d="m31.165 47.735 2.54 2.54"/>
   <path d="m31.165 42.595v5.14"/>
   <path d="m31.165 61.645v5.14"/>
   <path d="m31.165 66.785 2.54 2.54"/>
   <path d="m52.755 14.975h13.812"/>
   <path d="m66.568 14.975 2.5-2.5"/>
  </g>
  <g stroke="#8BE9FD" stroke-width=".15">
   <text x="47.6750" y="2.0750" font-size="1.3333" opacity="0" stroke-opacity="0" text-anchor="middle" lengthAdjust="spacingAndGlyphs" textLength="4.2500">SW11</text>
   <g class="stroked-text">
    <desc>SW11</desc>
    <path d="m45.866 1.9822 0.1428 0.0476"/>
    <path d="m46.008 2.0298h0.2381"/>
    <path d="m46.246 2.0298 0.0953-0.0476"/>
    <path d="m46.342 1.9822 0.0476-0.0476"/>
    <path d="m46.389 1.9346 0.0476-0.0953"/>
    <path d="m46.437 1.8393v-0.0952"/>
    <path d="m46.437 1.7441-0.0476-0.0952"/>
    <path d="m46.389 1.6489-0.0476-0.0477"/>
    <path d="m46.342 1.6012-0.0953-0.0476"/>
    <path d="m46.246 1.5536-0.1904-0.0476"/>
    <path d="m46.056 1.506-0.0953-0.0476"/>
    <path d="m45.961 1.4584-0.0476-0.0476"/>
    <path d="m45.913 1.4108-0.0476-0.0953"/>
    <path d="m45.866 1.3155v-0.0952"/>
    <path d="m45.866 1.2203 0.0476-0.0952"/>
    <path d="m45.913 1.1251 0.0476-0.0477"/>
    <path d="m45.961 1.0774 0.0953-0.0476"/>
    <path d="m46.056 1.0298h0.238"/>
    <path d="m46.294 1.0298 0.1429 0.0476"/>
    <path d="m46.77 1.0298 0.2381 1"/>
    <path d="m47.008 2.0298 0.1905-0.7143"/>
    <path d="m47.199 1.3155 0.1905 0.7143"/>
    <path d="m47.389 2.0298 0.2381-1"/>
    <path d="m48.532 2.0298h-0.5714"/>
    <path d="m48.246 2.0298v-1"/>
    <path d="m48.246 1.0298-0.0952 0.1429"/>
    <path d="m48.151 1.1727-0.0952 0.0952"/>
    <path d="m48.056 1.2679-0.0953 0.0476"/>
    <path d="m49.484 2.0298h-0.5714"/>
    <path d="m49.199 2.0298v-1"/>
    <path d="m49.199 1.0298-0.0952 0.1429"/>
    <path d="m49.104 1.1727-0.0953 0.0952"/>
    <path d="m49.008 1.2679-0.0952 0.0476"/>
   </g>
   <text x="66.7875" y="31.4500" font-size="1.3333" opacity="0" stroke-opacity="0" text-anchor="middle" lengthAdjust="spacingAndGlyphs" textLength="4.2500">SW10</text>
   <g class="stroked-text">
    <desc>SW10</desc>
    <path d="m64.978 31.357 0.1428 0.0476"/>
    <path d="m65.121 31.405h0.2381"/>
    <path d="m65.359 31.405 0.0953-0.0476"/>
    <path d="m65.454 31.357 0.0476-0.0476"/>
    <path d="m65.502 31.31 0.0476-0.0953"/>
    <path d="m65.549 31.214v-0.0952"/>
    <path d="m65.549 31.119-0.0476-0.0952"/>
    <path d="m65.502 31.024-0.0476-0.0477"/>
    <path d="m65.454 30.976-0.0953-0.0476"/>
    <path d="m65.359 30.929-0.1904-0.0476"/>
    <path d="m65.168 30.881-0.0953-0.0476"/>
    <path d="m65.073 30.833-0.0476-0.0476"/>
    <path d="m65.026 30.786-0.0476-0.0953"/>
    <path d="m64.978 30.69v-0.0952"/>
    <path d="m64.978 30.595 0.0476-0.0952"/>
    <path d="m65.026 30.5 0.0476-0.0477"/>
    <path d="m65.073 30.452 0.0953-0.0476"/>
    <path d="m65.168 30.405h0.238"/>
    <path d="m65.406 30.405 0.1429 0.0476"/>
    <path d="m65.883 30.405 0.2381 1"/>
    <path d="m66.121 31.405 0.1905-0.7143"/>
    <path d="m66.311 30.69 0.1905 0.7143"/>
    <path d="m66.502 31.405 0.2381-1"/>
    <path d="m67.645 31.405h-0.5714"/>
    <path d="m67.359 31.405v-1"/>
    <path d="m67.359 30.405-0.0952 0.1429"/>
    <path d="m67.264 30.548-0.0952 0.0952"/>
    <path d="m67.168 30.643-0.0953 0.0476"/>
    <path d="m68.264 30.405h0.0952"/>
    <path d="m68.359 30.405 0.0953 0.0476"/>
    <path d="m68.454 30.452 0.0476 0.0477"/>
    <path d="m68.502 30.5 0.0476 0.0952"/>
    <path d="m68.549 30.595 0.0476 0.1905"/>
    <path d="m68.597 30.786v0.2381"/>
    <path d="m68.597 31.024-0.0476 0.1904"/>
    <path d="m68.549 31.214-0.0476 0.0953"/>
    <path d="m68.502 31.31-0.0476 0.0476"/>
    <path d="m68.454 31.357-0.0953 0.0476"/>
    <path d="m68.359 31.405h-0.0952"/>
    <path d="m68.264 31.405-0.0952-0.0476"/>
    <path d="m68.168 31.357-0.0477-0.0476"/>
    <path d="m68.121 31.31-0.0476-0.0953"/>
    <path d="m68.073 31.214-0.0476-0.1904"/>
    <path d="m68.026 31.024v-0.2381"/>
    <path d="m68.026 30.786 0.0476-0.1905"/>
    <path d="m68.073 30.595 0.0476-0.0952"/>
    <path d="m68.121 30.5 0.0477-0.0477"/>
    <path d="m68.168 30.452 0.0952-0.0476"/>
   </g>
   <text x="9.5750" y="59.2250" font-size="1.3333" opacity="0" stroke-opacity="0" text-anchor="middle" lengthAdjust="spacingAndGlyphs" textLength="3.2976">SW4</text>
   <g class="stroked-text">
    <desc>SW4</desc>
    <path d="m8.2417 59.132 0.1428 0.0476"/>
    <path d="m8.3845 59.18h0.2381"/>
    <path d="m8.6226 59.18 0.0953-0.0476"/>
    <path d="m8.7179 59.132 0.0476-0.0476"/>
    <path d="m8.7655 59.085 0.0476-0.0953"/>
    <path d="m8.8131 58.989v-0.0952"/>
    <path d="m8.8131 58.894-0.0476-0.0952"/>
    <path d="m8.7655 58.799-0.0476-0.0477"/>
    <path d="m8.7179 58.751-0.0953-0.0476"/>
    <path d="m8.6226 58.704-0.1905-0.0476"/>
    <path d="m8.4321 58.656-0.0952-0.0476"/>
    <path d="m8.3369 58.608-0.0476-0.0476"/>
    <path d="m8.2893 58.561-0.0476-0.0953"/>
    <path d="m8.2417 58.466v-0.0952"/>
    <path d="m8.2417 58.37 0.0476-0.0952"/>
    <path d="m8.2893 58.275 0.0476-0.0477"/>
    <path d="m8.3369 58.227 0.0952-0.0476"/>
    <path d="m8.4321 58.18h0.2381"/>
    <path d="m8.6702 58.18 0.1429 0.0476"/>
    <path d="m9.1464 58.18 0.2381 1"/>
    <path d="m9.3845 59.18 0.1905-0.7143"/>
    <path d="m9.575 58.466 0.1905 0.7143"/>
    <path d="m9.7655 59.18 0.2381-1"/>
    <path d="m10.813 58.513v0.6666"/>
    <path d="m10.575 58.132-0.2381 0.7143"/>
    <path d="m10.337 58.846h0.6191"/>
   </g>
   <text x="28.6250" y="21.1250" font-size="1.3333" opacity="0" stroke-opacity="0" text-anchor="middle" lengthAdjust="spacingAndGlyphs" textLength="3.2976">SW7</text>
   <g class="stroked-text">
    <desc>SW7</desc>
    <path d="m27.292 21.032 0.1428 0.0476"/>
    <path d="m27.434 21.08h0.2381"/>
    <path d="m27.673 21.08 0.0953-0.0476"/>
    <path d="m27.768 21.032 0.0476-0.0476"/>
    <path d="m27.816 20.985 0.0476-0.0953"/>
    <path d="m27.863 20.889v-0.0952"/>
    <path d="m27.863 20.794-0.0476-0.0952"/>
    <path d="m27.816 20.699-0.0476-0.0477"/>
    <path d="m27.768 20.651-0.0953-0.0476"/>
    <path d="m27.673 20.604-0.1905-0.0476"/>
    <path d="m27.482 20.556-0.0952-0.0476"/>
    <path d="m27.387 20.508-0.0476-0.0476"/>
    <path d="m27.339 20.461-0.0476-0.0953"/>
    <path d="m27.292 20.366v-0.0952"/>
    <path d="m27.292 20.27 0.0476-0.0952"/>
    <path d="m27.339 20.175 0.0476-0.0477"/>
    <path d="m27.387 20.127 0.0952-0.0476"/>
    <path d="m27.482 20.08h0.2381"/>
    <path d="m27.72 20.08 0.1429 0.0476"/>
    <path d="m28.196 20.08 0.2381 1"/>
    <path d="m28.434 21.08 0.1905-0.7143"/>
    <path d="m28.625 20.366 0.1905 0.7143"/>
    <path d="m28.816 21.08 0.2381-1"/>
    <path d="m29.339 20.08h0.6667"/>
    <path d="m30.006 20.08-0.4286 1"/>
   </g>
   <text x="28.6250" y="40.1750" font-size="1.3333" opacity="0" stroke-opacity="0" text-anchor="middle" lengthAdjust="spacingAndGlyphs" textLength="3.2976">SW8</text>
   <g class="stroked-text">
    <desc>SW8</desc>
    <path d="m27.292 40.082 0.1428 0.0476"/>
    <path d="m27.434 40.13h0.2381"/>
    <path d="m27.673 40.13 0.0953-0.0476"/>
    <path d="m27.768 40.082 0.0476-0.0476"/>
    <path d="m27.816 40.035 0.0476-0.0953"/>
    <path d="m27.863 39.939v-0.0952"/>
    <path d="m27.863 39.844-0.0476-0.0952"/>
    <path d="m27.816 39.749-0.0476-0.0477"/>
    <path d="m27.768 39.701-0.0953-0.0476"/>
    <path d="m27.673 39.654-0.1905-0.0476"/>
    <path d="m27.482 39.606-0.0952-0.0476"/>
    <path d="m27.387 39.558-0.0476-0.0476"/>
    <path d="m27.339 39.511-0.0476-0.0953"/>
    <path d="m27.292 39.416v-0.0952"/>
    <path d="m27.292 39.32 0.0476-0.0952"/>
    <path d="m27.339 39.225 0.0476-0.0477"/>
    <path d="m27.387 39.177 0.0952-0.0476"/>
    <path d="m27.482 39.13h0.2381"/>
    <path d="m27.72 39.13 0.1429 0.0476"/>
    <path d="m28.196 39.13 0.2381 1"/>
    <path d="m28.434 40.13 0.1905-0.7143"/>
    <path d="m28.625 39.416 0.1905 0.7143"/>
    <path d="m28.816 40.13 0.2381-1"/>
    <path d="m29.577 39.558-0.0953-0.0476"/>
    <path d="m29.482 39.511-0.0476-0.0476"/>
    <path d="m29.434 39.463-0.0476-0.0953"/>
    <path d="m29.387 39.368v-0.0476"/>
    <path d="m29.387 39.32 0.0476-0.0952"/>
    <path d="m29.434 39.225 0.0476-0.0477"/>
    <path d="m29.482 39.177 0.0953-0.0476"/>
    <path d="m29.577 39.13h0.1905"/>
    <path d="m29.768 39.13 0.0952 0.0476"/>
    <path d="m29.863 39.177 0.0476 0.0477"/>
    <path d="m29.911 39.225 0.0476 0.0952"/>
    <path d="m29.958 39.32v0.0476"/>
    <path d="m29.958 39.368-0.0476 0.0953"/>
    <path d="m29.911 39.463-0.0476 0.0476"/>
    <path d="m29.863 39.511-0.0952 0.0476"/>
    <path d="m29.768 39.558h-0.1905"/>
    <path d="m29.577 39.558-0.0953 0.0476"/>
    <path d="m29.482 39.606-0.0476 0.0476"/>
    <path d="m29.434 39.654-0.0476 0.0953"/>
    <path d="m29.387 39.749v0.1904"/>
    <path d="m29.387 39.939 0.0476 0.0953"/>
    <path d="m29.434 40.035 0.0476 0.0476"/>
    <path d="m29.482 40.082 0.0953 0.0476"/>
    <path d="m29.577 40.13h0.1905"/>
    <path d="m29.768 40.13 0.0952-0.0476"/>
    <path d="m29.863 40.082 0.0476-0.0476"/>
    <path d="m29.911 40.035 0.0476-0.0953"/>
    <path d="m29.958 39.939v-0.1904"/>
    <path d="m29.958 39.749-0.0476-0.0953"/>
    <path d="m29.911 39.654-0.0476-0.0476"/>
    <path d="m29.863 39.606-0.0952-0.0476"/>
   </g>
   <text x="28.6250" y="2.0750" font-size="1.3333" opacity="0" stroke-opacity="0" text-anchor="middle" lengthAdjust="spacingAndGlyphs" textLength="3.2976">SW6</text>
   <g class="stroked-text">
    <desc>SW6</desc>
    <path d="m27.292 1.9822 0.1428 0.0476"/>
    <path d="m27.434 2.0298h0.2381"/>
    <path d="m27.673 2.0298 0.0953-0.0476"/>
    <path d="m27.768 1.9822 0.0476-0.0476"/>
    <path d="m27.816 1.9346 0.0476-0.0953"/>
    <path d="m27.863 1.8393v-0.0952"/>
    <path d="m27.863 1.7441-0.0476-0.0952"/>
    <path d="m27.816 1.6489-0.0476-0.0477"/>
    <path d="m27.768 1.6012-0.0953-0.0476"/>
    <path d="m27.673 1.5536-0.1905-0.0476"/>
    <path d="m27.482 1.506-0.0952-0.0476"/>
    <path d="m27.387 1.4584-0.0476-0.0476"/>
    <path d="m27.339 1.4108-0.0476-0.0953"/>
    <path d="m27.292 1.3155v-0.0952"/>
    <path d="m27.292 1.2203 0.0476-0.0952"/>
    <path d="m27.339 1.1251 0.0476-0.0477"/>
    <path d="m27.387 1.0774 0.0952-0.0476"/>
    <path d="m27.482 1.0298h0.2381"/>
    <path d="m27.72 1.0298 0.1429 0.0476"/>
    <path d="m28.196 1.0298 0.2381 1"/>
    <path d="m28.434 2.0298 0.1905-0.7143"/>
    <path d="m28.625 1.3155 0.1905 0.7143"/>
    <path d="m28.816 2.0298 0.2381-1"/>
    <path d="m29.863 1.0298h-0.1905"/>
    <path d="m29.673 1.0298-0.0952 0.0476"/>
    <path d="m29.577 1.0774-0.0476 0.0477"/>
    <path d="m29.53 1.1251-0.0953 0.1428"/>
    <path d="m29.434 1.2679-0.0476 0.1905"/>
    <path d="m29.387 1.4584v0.3809"/>
    <path d="m29.387 1.8393 0.0476 0.0953"/>
    <path d="m29.434 1.9346 0.0476 0.0476"/>
    <path d="m29.482 1.9822 0.0953 0.0476"/>
    <path d="m29.577 2.0298h0.1905"/>
    <path d="m29.768 2.0298 0.0952-0.0476"/>
    <path d="m29.863 1.9822 0.0476-0.0476"/>
    <path d="m29.911 1.9346 0.0476-0.0953"/>
    <path d="m29.958 1.8393v-0.2381"/>
    <path d="m29.958 1.6012-0.0476-0.0952"/>
    <path d="m29.911 1.506-0.0476-0.0476"/>
    <path d="m29.863 1.4584-0.0952-0.0476"/>
    <path d="m29.768 1.4108h-0.1905"/>
    <path d="m29.577 1.4108-0.0953 0.0476"/>
    <path d="m29.482 1.4584-0.0476 0.0476"/>
    <path d="m29.434 1.506-0.0476 0.0952"/>
   </g>
   <text x="47.6750" y="40.1750" font-size="1.3333" opacity="0" stroke-opacity="0" text-anchor="middle" lengthAdjust="spacingAndGlyphs" textLength="4.2500">SW13</text>
   <g class="stroked-text">
    <desc>SW13</desc>
    <path d="m45.866 40.082 0.1428 0.0476"/>
    <path d="m46.008 40.13h0.2381"/>
    <path d="m46.246 40.13 0.0953-0.0476"/>
    <path d="m46.342 40.082 0.0476-0.0476"/>
    <path d="m46.389 40.035 0.0476-0.0953"/>
    <path d="m46.437 39.939v-0.0952"/>
    <path d="m46.437 39.844-0.0476-0.0952"/>
    <path d="m46.389 39.749-0.0476-0.0477"/>
    <path d="m46.342 39.701-0.0953-0.0476"/>
    <path d="m46.246 39.654-0.1904-0.0476"/>
    <path d="m46.056 39.606-0.0953-0.0476"/>
    <path d="m45.961 39.558-0.0476-0.0476"/>
    <path d="m45.913 39.511-0.0476-0.0953"/>
    <path d="m45.866 39.416v-0.0952"/>
    <path d="m45.866 39.32 0.0476-0.0952"/>
    <path d="m45.913 39.225 0.0476-0.0477"/>
    <path d="m45.961 39.177 0.0953-0.0476"/>
    <path d="m46.056 39.13h0.238"/>
    <path d="m46.294 39.13 0.1429 0.0476"/>
    <path d="m46.77 39.13 0.2381 1"/>
    <path d="m47.008 40.13 0.1905-0.7143"/>
    <path d="m47.199 39.416 0.1905 0.7143"/>
    <path d="m47.389 40.13 0.2381-1"/>
    <path d="m48.532 40.13h-0.5714"/>
    <path d="m48.246 40.13v-1"/>
    <path d="m48.246 39.13-0.0952 0.1429"/>
    <path d="m48.151 39.273-0.0952 0.0952"/>
    <path d="m48.056 39.368-0.0953 0.0476"/>
    <path d="m48.866 39.13h0.619"/>
    <path d="m49.484 39.13-0.3333 0.381"/>
    <path d="m49.151 39.511h0.1428"/>
    <path d="m49.294 39.511 0.0953 0.0476"/>
    <path d="m49.389 39.558 0.0476 0.0476"/>
    <path d="m49.437 39.606 0.0476 0.0952"/>
    <path d="m49.484 39.701v0.2381"/>
    <path d="m49.484 39.939-0.0476 0.0953"/>
    <path d="m49.437 40.035-0.0476 0.0476"/>
    <path d="m49.389 40.082-0.0953 0.0476"/>
    <path d="m49.294 40.13h-0.2857"/>
    <path d="m49.008 40.13-0.0952-0.0476"/>
    <path d="m48.913 40.082-0.0476-0.0476"/>
   </g>
   <text x="9.5750" y="40.1750" font-size="1.3333" opacity="0" stroke-opacity="0" text-anchor="middle" lengthAdjust="spacingAndGlyphs" textLength="3.2976">SW3</text>
   <g class="stroked-text">
    <desc>SW3</desc>
    <path d="m8.2417 40.082 0.1428 0.0476"/>
    <path d="m8.3845 40.13h0.2381"/>
    <path d="m8.6226 40.13 0.0953-0.0476"/>
    <path d="m8.7179 40.082 0.0476-0.0476"/>
    <path d="m8.7655 40.035 0.0476-0.0953"/>
    <path d="m8.8131 39.939v-0.0952"/>
    <path d="m8.8131 39.844-0.0476-0.0952"/>
    <path d="m8.7655 39.749-0.0476-0.0477"/>
    <path d="m8.7179 39.701-0.0953-0.0476"/>
    <path d="m8.6226 39.654-0.1905-0.0476"/>
    <path d="m8.4321 39.606-0.0952-0.0476"/>
    <path d="m8.3369 39.558-0.0476-0.0476"/>
    <path d="m8.2893 39.511-0.0476-0.0953"/>
    <path d="m8.2417 39.416v-0.0952"/>
    <path d="m8.2417 39.32 0.0476-0.0952"/>
    <path d="m8.2893 39.225 0.0476-0.0477"/>
    <path d="m8.3369 39.177 0.0952-0.0476"/>
    <path d="m8.4321 39.13h0.2381"/>
    <path d="m8.6702 39.13 0.1429 0.0476"/>
    <path d="m9.1464 39.13 0.2381 1"/>
    <path d="m9.3845 40.13 0.1905-0.7143"/>
    <path d="m9.575 39.416 0.1905 0.7143"/>
    <path d="m9.7655 40.13 0.2381-1"/>
    <path d="m10.289 39.13h0.619"/>
    <path d="m10.908 39.13-0.3333 0.381"/>
    <path d="m10.575 39.511h0.1429"/>
    <path d="m10.718 39.511 0.0952 0.0476"/>
    <path d="m10.813 39.558 0.0476 0.0476"/>
    <path d="m10.861 39.606 0.0476 0.0952"/>
    <path d="m10.908 39.701v0.2381"/>
    <path d="m10.908 39.939-0.0476 0.0953"/>
    <path d="m10.861 40.035-0.0476 0.0476"/>
    <path d="m10.813 40.082-0.0952 0.0476"/>
    <path d="m10.718 40.13h-0.2858"/>
    <path d="m10.432 40.13-0.0952-0.0476"/>
    <path d="m10.337 40.082-0.0476-0.0476"/>
   </g>
   <text x="66.7875" y="60.0250" font-size="1.3333" opacity="0" stroke-opacity="0" text-anchor="middle" lengthAdjust="spacingAndGlyphs" textLength="3.2976">SW5</text>
   <g class="stroked-text">
    <desc>SW5</desc>
    <path d="m65.454 59.932 0.1428 0.0476"/>
    <path d="m65.597 59.98h0.2381"/>
    <path d="m65.835 59.98 0.0953-0.0476"/>
    <path d="m65.93 59.932 0.0476-0.0476"/>
    <path d="m65.978 59.885 0.0476-0.0953"/>
    <path d="m66.026 59.789v-0.0952"/>
    <path d="m66.026 59.694-0.0476-0.0952"/>
    <path d="m65.978 59.599-0.0476-0.0477"/>
    <path d="m65.93 59.551-0.0953-0.0476"/>
    <path d="m65.835 59.504-0.1905-0.0476"/>
    <path d="m65.645 59.456-0.0952-0.0476"/>
    <path d="m65.549 59.408-0.0476-0.0476"/>
    <path d="m65.502 59.361-0.0476-0.0953"/>
    <path d="m65.454 59.266v-0.0952"/>
    <path d="m65.454 59.17 0.0476-0.0952"/>
    <path d="m65.502 59.075 0.0476-0.0477"/>
    <path d="m65.549 59.027 0.0952-0.0476"/>
    <path d="m65.645 58.98h0.2381"/>
    <path d="m65.883 58.98 0.1429 0.0476"/>
    <path d="m66.359 58.98 0.2381 1"/>
    <path d="m66.597 59.98 0.1905-0.7143"/>
    <path d="m66.788 59.266 0.1905 0.7143"/>
    <path d="m66.978 59.98 0.2381-1"/>
    <path d="m68.073 58.98h-0.4762"/>
    <path d="m67.597 58.98-0.0476 0.4762"/>
    <path d="m67.549 59.456 0.0476-0.0476"/>
    <path d="m67.597 59.408 0.0953-0.0476"/>
    <path d="m67.692 59.361h0.2381"/>
    <path d="m67.93 59.361 0.0952 0.0476"/>
    <path d="m68.026 59.408 0.0476 0.0476"/>
    <path d="m68.073 59.456 0.0476 0.0952"/>
    <path d="m68.121 59.551v0.2381"/>
    <path d="m68.121 59.789-0.0476 0.0953"/>
    <path d="m68.073 59.885-0.0476 0.0476"/>
    <path d="m68.026 59.932-0.0952 0.0476"/>
    <path d="m67.93 59.98h-0.2381"/>
    <path d="m67.692 59.98-0.0953-0.0476"/>
    <path d="m67.597 59.932-0.0476-0.0476"/>
   </g>
   <text x="28.6250" y="59.2250" font-size="1.3333" opacity="0" stroke-opacity="0" text-anchor="middle" lengthAdjust="spacingAndGlyphs" textLength="3.2976">SW9</text>
   <g class="stroked-text">
    <desc>SW9</desc>
    <path d="m27.292 59.132 0.1428 0.0476"/>
    <path d="m27.434 59.18h0.2381"/>
    <path d="m27.673 59.18 0.0953-0.0476"/>
    <path d="m27.768 59.132 0.0476-0.0476"/>
    <path d="m27.816 59.085 0.0476-0.0953"/>
    <path d="m27.863 58.989v-0.0952"/>
    <path d="m27.863 58.894-0.0476-0.0952"/>
    <path d="m27.816 58.799-0.0476-0.0477"/>
    <path d="m27.768 58.751-0.0953-0.0476"/>
    <path d="m27.673 58.704-0.1905-0.0476"/>
    <path d="m27.482 58.656-0.0952-0.0476"/>
    <path d="m27.387 58.608-0.0476-0.0476"/>
    <path d="m27.339 58.561-0.0476-0.0953"/>
    <path d="m27.292 58.466v-0.0952"/>
    <path d="m27.292 58.37 0.0476-0.0952"/>
    <path d="m27.339 58.275 0.0476-0.0477"/>
    <path d="m27.387 58.227 0.0952-0.0476"/>
    <path d="m27.482 58.18h0.2381"/>
    <path d="m27.72 58.18 0.1429 0.0476"/>
    <path d="m28.196 58.18 0.2381 1"/>
    <path d="m28.434 59.18 0.1905-0.7143"/>
    <path d="m28.625 58.466 0.1905 0.7143"/>
    <path d="m28.816 59.18 0.2381-1"/>
    <path d="m29.482 59.18h0.1905"/>
    <path d="m29.673 59.18 0.0953-0.0476"/>
    <path d="m29.768 59.132 0.0476-0.0476"/>
    <path d="m29.816 59.085 0.0952-0.1429"/>
    <path d="m29.911 58.942 0.0476-0.1905"/>
    <path d="m29.958 58.751v-0.3809"/>
    <path d="m29.958 58.37-0.0476-0.0952"/>
    <path d="m29.911 58.275-0.0476-0.0477"/>
    <path d="m29.863 58.227-0.0952-0.0476"/>
    <path d="m29.768 58.18h-0.1905"/>
    <path d="m29.577 58.18-0.0953 0.0476"/>
    <path d="m29.482 58.227-0.0476 0.0477"/>
    <path d="m29.434 58.275-0.0476 0.0952"/>
    <path d="m29.387 58.37v0.2381"/>
    <path d="m29.387 58.608 0.0476 0.0952"/>
    <path d="m29.434 58.704 0.0476 0.0476"/>
    <path d="m29.482 58.751 0.0953 0.0477"/>
    <path d="m29.577 58.799h0.1905"/>
    <path d="m29.768 58.799 0.0952-0.0477"/>
    <path d="m29.863 58.751 0.0476-0.0476"/>
    <path d="m29.911 58.704 0.0476-0.0952"/>
   </g>
   <text x="47.6750" y="21.1250" font-size="1.3333" opacity="0" stroke-opacity="0" text-anchor="middle" lengthAdjust="spacingAndGlyphs" textLength="4.2500">SW12</text>
   <g class="stroked-text">
    <desc>SW12</desc>
    <path d="m45.866 21.032 0.1428 0.0476"/>
    <path d="m46.008 21.08h0.2381"/>
    <path d="m46.246 21.08 0.0953-0.0476"/>
    <path d="m46.342 21.032 0.0476-0.0476"/>
    <path d="m46.389 20.985 0.0476-0.0953"/>
    <path d="m46.437 20.889v-0.0952"/>
    <path d="m46.437 20.794-0.0476-0.0952"/>
    <path d="m46.389 20.699-0.0476-0.0477"/>
    <path d="m46.342 20.651-0.0953-0.0476"/>
    <path d="m46.246 20.604-0.1904-0.0476"/>
    <path d="m46.056 20.556-0.0953-0.0476"/>
    <path d="m45.961 20.508-0.0476-0.0476"/>
    <path d="m45.913 20.461-0.0476-0.0953"/>
    <path d="m45.866 20.366v-0.0952"/>
    <path d="m45.866 20.27 0.0476-0.0952"/>
    <path d="m45.913 20.175 0.0476-0.0477"/>
    <path d="m45.961 20.127 0.0953-0.0476"/>
    <path d="m46.056 20.08h0.238"/>
    <path d="m46.294 20.08 0.1429 0.0476"/>
    <path d="m46.77 20.08 0.2381 1"/>
    <path d="m47.008 21.08 0.1905-0.7143"/>
    <path d="m47.199 20.366 0.1905 0.7143"/>
    <path d="m47.389 21.08 0.2381-1"/>
    <path d="m48.532 21.08h-0.5714"/>
    <path d="m48.246 21.08v-1"/>
    <path d="m48.246 20.08-0.0952 0.1429"/>
    <path d="m48.151 20.223-0.0952 0.0952"/>
    <path d="m48.056 20.318-0.0953 0.0476"/>
    <path d="m48.913 20.175 0.0476-0.0477"/>
    <path d="m48.961 20.127 0.0953-0.0476"/>
    <path d="m49.056 20.08h0.238"/>
    <path d="m49.294 20.08 0.0953 0.0476"/>
    <path d="m49.389 20.127 0.0476 0.0477"/>
    <path d="m49.437 20.175 0.0476 0.0952"/>
    <path d="m49.484 20.27v0.0952"/>
    <path d="m49.484 20.366-0.0476 0.1429"/>
    <path d="m49.437 20.508-0.5714 0.5714"/>
    <path d="m48.866 21.08h0.619"/>
   </g>
   <text x="66.7875" y="2.8750" font-size="1.3333" opacity="0" stroke-opacity="0" text-anchor="middle" lengthAdjust="spacingAndGlyphs" textLength="4.2500">SW15</text>
   <g class="stroked-text">
    <desc>SW15</desc>
    <path d="m64.978 2.7822 0.1428 0.0476"/>
    <path d="m65.121 2.8298h0.2381"/>
    <path d="m65.359 2.8298 0.0953-0.0476"/>
    <path d="m65.454 2.7822 0.0476-0.0476"/>
    <path d="m65.502 2.7346 0.0476-0.0953"/>
    <path d="m65.549 2.6393v-0.0952"/>
    <path d="m65.549 2.5441-0.0476-0.0952"/>
    <path d="m65.502 2.4489-0.0476-0.0477"/>
    <path d="m65.454 2.4012-0.0953-0.0476"/>
    <path d="m65.359 2.3536-0.1904-0.0476"/>
    <path d="m65.168 2.306-0.0953-0.0476"/>
    <path d="m65.073 2.2584-0.0476-0.0476"/>
    <path d="m65.026 2.2108-0.0476-0.0953"/>
    <path d="m64.978 2.1155v-0.0952"/>
    <path d="m64.978 2.0203 0.0476-0.0952"/>
    <path d="m65.026 1.9251 0.0476-0.0477"/>
    <path d="m65.073 1.8774 0.0953-0.0476"/>
    <path d="m65.168 1.8298h0.238"/>
    <path d="m65.406 1.8298 0.1429 0.0476"/>
    <path d="m65.883 1.8298 0.2381 1"/>
    <path d="m66.121 2.8298 0.1905-0.7143"/>
    <path d="m66.311 2.1155 0.1905 0.7143"/>
    <path d="m66.502 2.8298 0.2381-1"/>
    <path d="m67.645 2.8298h-0.5714"/>
    <path d="m67.359 2.8298v-1"/>
    <path d="m67.359 1.8298-0.0952 0.1429"/>
    <path d="m67.264 1.9727-0.0952 0.0952"/>
    <path d="m67.168 2.0679-0.0953 0.0476"/>
    <path d="m68.549 1.8298h-0.4762"/>
    <path d="m68.073 1.8298-0.0476 0.4762"/>
    <path d="m68.026 2.306 0.0476-0.0476"/>
    <path d="m68.073 2.2584 0.0953-0.0476"/>
    <path d="m68.168 2.2108h0.238"/>
    <path d="m68.406 2.2108 0.0953 0.0476"/>
    <path d="m68.502 2.2584 0.0476 0.0476"/>
    <path d="m68.549 2.306 0.0476 0.0952"/>
    <path d="m68.597 2.4012v0.2381"/>
    <path d="m68.597 2.6393-0.0476 0.0953"/>
    <path d="m68.549 2.7346-0.0476 0.0476"/>
    <path d="m68.502 2.7822-0.0953 0.0476"/>
    <path d="m68.406 2.8298h-0.238"/>
    <path d="m68.168 2.8298-0.0953-0.0476"/>
    <path d="m68.073 2.7822-0.0476-0.0476"/>
   </g>
   <text x="47.6750" y="59.2250" font-size="1.3333" opacity="0" stroke-opacity="0" text-anchor="middle" lengthAdjust="spacingAndGlyphs" textLength="4.2500">SW14</text>
   <g class="stroked-text">
    <desc>SW14</desc>
    <path d="m45.866 59.132 0.1428 0.0476"/>
    <path d="m46.008 59.18h0.2381"/>
    <path d="m46.246 59.18 0.0953-0.0476"/>
    <path d="m46.342 59.132 0.0476-0.0476"/>
    <path d="m46.389 59.085 0.0476-0.0953"/>
    <path d="m46.437 58.989v-0.0952"/>
    <path d="m46.437 58.894-0.0476-0.0952"/>
    <path d="m46.389 58.799-0.0476-0.0477"/>
    <path d="m46.342 58.751-0.0953-0.0476"/>
    <path d="m46.246 58.704-0.1904-0.0476"/>
    <path d="m46.056 58.656-0.0953-0.0476"/>
    <path d="m45.961 58.608-0.0476-0.0476"/>
    <path d="m45.913 58.561-0.0476-0.0953"/>
    <path d="m45.866 58.466v-0.0952"/>
    <path d="m45.866 58.37 0.0476-0.0952"/>
    <path d="m45.913 58.275 0.0476-0.0477"/>
    <path d="m45.961 58.227 0.0953-0.0476"/>
    <path d="m46.056 58.18h0.238"/>
    <path d="m46.294 58.18 0.1429 0.0476"/>
    <path d="m46.77 58.18 0.2381 1"/>
    <path d="m47.008 59.18 0.1905-0.7143"/>
    <path d="m47.199 58.466 0.1905 0.7143"/>
    <path d="m47.389 59.18 0.2381-1"/>
    <path d="m48.532 59.18h-0.5714"/>
    <path d="m48.246 59.18v-1"/>
    <path d="m48.246 58.18-0.0952 0.1429"/>
    <path d="m48.151 58.323-0.0952 0.0952"/>
    <path d="m48.056 58.418-0.0953 0.0476"/>
    <path d="m49.389 58.513v0.6666"/>
    <path d="m49.151 58.132-0.2381 0.7143"/>
    <path d="m48.913 58.846h0.619"/>
   </g>
   <text x="9.5750" y="2.0750" font-size="1.3333" opacity="0" stroke-opacity="0" text-anchor="middle" lengthAdjust="spacingAndGlyphs" textLength="3.2976">SW1</text>
   <g class="stroked-text">
    <desc>SW1</desc>
    <path d="m8.2417 1.9822 0.1428 0.0476"/>
    <path d="m8.3845 2.0298h0.2381"/>
    <path d="m8.6226 2.0298 0.0953-0.0476"/>
    <path d="m8.7179 1.9822 0.0476-0.0476"/>
    <path d="m8.7655 1.9346 0.0476-0.0953"/>
    <path d="m8.8131 1.8393v-0.0952"/>
    <path d="m8.8131 1.7441-0.0476-0.0952"/>
    <path d="m8.7655 1.6489-0.0476-0.0477"/>
    <path d="m8.7179 1.6012-0.0953-0.0476"/>
    <path d="m8.6226 1.5536-0.1905-0.0476"/>
    <path d="m8.4321 1.506-0.0952-0.0476"/>
    <path d="m8.3369 1.4584-0.0476-0.0476"/>
    <path d="m8.2893 1.4108-0.0476-0.0953"/>
    <path d="m8.2417 1.3155v-0.0952"/>
    <path d="m8.2417 1.2203 0.0476-0.0952"/>
    <path d="m8.2893 1.1251 0.0476-0.0477"/>
    <path d="m8.3369 1.0774 0.0952-0.0476"/>
    <path d="m8.4321 1.0298h0.2381"/>
    <path d="m8.6702 1.0298 0.1429 0.0476"/>
    <path d="m9.1464 1.0298 0.2381 1"/>
    <path d="m9.3845 2.0298 0.1905-0.7143"/>
    <path d="m9.575 1.3155 0.1905 0.7143"/>
    <path d="m9.7655 2.0298 0.2381-1"/>
    <path d="m10.908 2.0298h-0.5714"/>
    <path d="m10.623 2.0298v-1"/>
    <path d="m10.623 1.0298-0.0952 0.1429"/>
    <path d="m10.527 1.1727-0.0953 0.0952"/>
    <path d="m10.432 1.2679-0.0952 0.0476"/>
   </g>
   <text x="9.5750" y="21.1250" font-size="1.3333" opacity="0" stroke-opacity="0" text-anchor="middle" lengthAdjust="spacingAndGlyphs" textLength="3.2976">SW2</text>
   <g class="stroked-text">
    <desc>SW2</desc>
    <path d="m8.2417 21.032 0.1428 0.0476"/>
    <path d="m8.3845 21.08h0.2381"/>
    <path d="m8.6226 21.08 0.0953-0.0476"/>
    <path d="m8.7179 21.032 0.0476-0.0476"/>
    <path d="m8.7655 20.985 0.0476-0.0953"/>
    <path d="m8.8131 20.889v-0.0952"/>
    <path d="m8.8131 20.794-0.0476-0.0952"/>
    <path d="m8.7655 20.699-0.0476-0.0477"/>
    <path d="m8.7179 20.651-0.0953-0.0476"/>
    <path d="m8.6226 20.604-0.1905-0.0476"/>
    <path d="m8.4321 20.556-0.0952-0.0476"/>
    <path d="m8.3369 20.508-0.0476-0.0476"/>
    <path d="m8.2893 20.461-0.0476-0.0953"/>
    <path d="m8.2417 20.366v-0.0952"/>
    <path d="m8.2417 20.27 0.0476-0.0952"/>
    <path d="m8.2893 20.175 0.0476-0.0477"/>
    <path d="m8.3369 20.127 0.0952-0.0476"/>
    <path d="m8.4321 20.08h0.2381"/>
    <path d="m8.6702 20.08 0.1429 0.0476"/>
    <path d="m9.1464 20.08 0.2381 1"/>
    <path d="m9.3845 21.08 0.1905-0.7143"/>
    <path d="m9.575 20.366 0.1905 0.7143"/>
    <path d="m9.7655 21.08 0.2381-1"/>
    <path d="m10.337 20.175 0.0476-0.0477"/>
    <path d="m10.384 20.127 0.0953-0.0476"/>
    <path d="m10.48 20.08h0.2381"/>
    <path d="m10.718 20.08 0.0952 0.0476"/>
    <path d="m10.813 20.127 0.0476 0.0477"/>
    <path d="m10.861 20.175 0.0476 0.0952"/>
    <path d="m10.908 20.27v0.0952"/>
    <path d="m10.908 20.366-0.0476 0.1429"/>
    <path d="m10.861 20.508-0.5714 0.5714"/>
    <path d="m10.289 21.08h0.619"/>
   </g>
  </g>
  <g stroke="#8BE9FD" stroke-width=".12">
   <path d="m40.575 2.475v14.2"/>
   <path d="m40.575 16.675h14.2"/>
   <path d="m54.775 2.475h-14.2"/>
   <path d="m54.775 16.675v-14.2"/>
   <path d="m63.688 34.05h0.6"/>
   <path d="m63.988 34.35-0.3-0.3"/>
   <path d="m64.288 34.05-0.3 0.3"/>
   <path d="m65.388 32.25v11.8"/>
   <path d="m69.488 32.25h-4.1"/>
   <path d="m69.488 44.05h-4.1"/>
   <path d="m70.988 38.15h1"/>
   <path d="m71.488 37.65v1"/>
   <path d="m73.488 32.25h4.1"/>
   <path d="m77.588 32.25v2.4"/>
   <path d="m77.588 36.85v2.6"/>
   <path d="m77.588 41.65v2.4"/>
   <path d="m77.588 44.05h-4.1"/>
   <circle cx="71.488" cy="38.15" r="3"/>
   <path d="m2.475 59.625v14.2"/>
   <path d="m2.475 73.825h14.2"/>
   <path d="m16.675 59.625h-14.2"/>
   <path d="m16.675 73.825v-14.2"/>
   <path d="m21.525 21.525v14.2"/>
   <path d="m21.525 35.725h14.2"/>
   <path d="m35.725 21.525h-14.2"/>
   <path d="m35.725 35.725v-14.2"/>
   <path d="m21.525 40.575v14.2"/>
   <path d="m21.525 54.775h14.2"/>
   <path d="m35.725 40.575h-14.2"/>
   <path d="m35.725 54.775v-14.2"/>
   <path d="m21.525 2.475v14.2"/>
   <path d="m21.525 16.675h14.2"/>
   <path d="m35.725 2.475h-14.2"/>
   <path d="m35.725 16.675v-14.2"/>
   <path d="m40.575 40.575v14.2"/>
   <path d="m40.575 54.775h14.2"/>
   <path d="m54.775 40.575h-14.2"/>
   <path d="m54.775 54.775v-14.2"/>
   <path d="m2.475 40.575v14.2"/>
   <path d="m2.475 54.775h14.2"/>
   <path d="m16.675 40.575h-14.2"/>
   <path d="m16.675 54.775v-14.2"/>
   <path d="m63.688 62.625h0.6"/>
   <path d="m63.988 62.925-0.3-0.3"/>
   <path d="m64.288 62.625-0.3 0.3"/>
   <path d="m65.388 60.825v11.8"/>
   <path d="m69.488 60.825h-4.1"/>
   <path d="m69.488 72.625h-4.1"/>
   <path d="m70.988 66.725h1"/>
   <path d="m71.488 66.225v1"/>
   <path d="m73.488 60.825h4.1"/>
   <path d="m77.588 60.825v2.4"/>
   <path d="m77.588 65.425v2.6"/>
   <path d="m77.588 70.225v2.4"/>
   <path d="m77.588 72.625h-4.1"/>
   <circle cx="71.488" cy="66.725" r="3"/>
   <path d="m21.525 59.625v14.2"/>
   <path d="m21.525 73.825h14.2"/>
   <path d="m35.725 59.625h-14.2"/>
   <path d="m35.725 73.825v-14.2"/>
   <path d="m40.575 21.525v14.2"/>
   <path d="m40.575 35.725h14.2"/>
   <path d="m54.775 21.525h-14.2"/>
   <path d="m54.775 35.725v-14.2"/>
   <path d="m63.688 5.475h0.6"/>
   <path d="m63.988 5.775-0.3-0.3"/>
   <path d="m64.288 5.475-0.3 0.3"/>
   <path d="m65.388 3.675v11.8"/>
   <path d="m69.488 3.675h-4.1"/>
   <path d="m69.488 15.475h-4.1"/>
   <path d="m70.988 9.575h1"/>
   <path d="m71.488 9.075v1"/>
   <path d="m73.488 3.675h4.1"/>
   <path d="m77.588 3.675v2.4"/>
   <path d="m77.588 8.275v2.6"/>
   <path d="m77.588 13.075v2.4"/>
   <path d="m77.588 15.475h-4.1"/>
   <circle cx="71.488" cy="9.575" r="3"/>
   <path d="m40.575 59.625v14.2"/>
   <path d="m40.575 73.825h14.2"/>
   <path d="m54.775 59.625h-14.2"/>
   <path d="m54.775 73.825v-14.2"/>
   <path d="m2.475 2.475v14.2"/>
   <path d="m2.475 16.675h14.2"/>
   <path d="m16.675 2.475h-14.2"/>
   <path d="m16.675 16.675v-14.2"/>
   <path d="m2.475 21.525v14.2"/>
   <path d="m2.475 35.725h14.2"/>
   <path d="m16.675 21.525h-14.2"/>
   <path d="m16.675 35.725v-14.2"/>
  </g>
  <g stroke="#BD93F9" stroke-width=".15">
   <g transform="rotate(-90 16.56 51.802)">
    <text transform="scale(-1 1) translate(-33.12)" x="16.5600" y="52.3020" font-size="1.3333" opacity="0" stroke-opacity="0" text-anchor="middle" lengthAdjust="spacingAndGlyphs" textLength="2.2024">D3</text>
   </g>
   <g class="stroked-text">
    <desc>D3</desc>
    <path d="m17.015 51.064h-1"/>
    <path d="m16.015 51.064v0.2381"/>
    <path d="m16.015 51.302 0.0476 0.1429"/>
    <path d="m16.062 51.445 0.0953 0.0952"/>
    <path d="m16.158 51.54 0.0952 0.0476"/>
    <path d="m16.253 51.588 0.1905 0.0476"/>
    <path d="m16.443 51.635h0.1428"/>
    <path d="m16.586 51.635 0.1905-0.0476"/>
    <path d="m16.777 51.588 0.0953-0.0476"/>
    <path d="m16.872 51.54 0.0952-0.0952"/>
    <path d="m16.967 51.445 0.0476-0.1429"/>
    <path d="m17.015 51.302v-0.2381"/>
    <path d="m16.015 51.969v0.619"/>
    <path d="m16.015 52.588 0.381-0.3333"/>
    <path d="m16.396 52.254v0.1428"/>
    <path d="m16.396 52.397 0.0476 0.0953"/>
    <path d="m16.443 52.492 0.0476 0.0476"/>
    <path d="m16.491 52.54 0.0952 0.0476"/>
    <path d="m16.586 52.588h0.2381"/>
    <path d="m16.824 52.588 0.0953-0.0476"/>
    <path d="m16.92 52.54 0.0476-0.0476"/>
    <path d="m16.967 52.492 0.0476-0.0953"/>
    <path d="m17.015 52.397v-0.2857"/>
    <path d="m17.015 52.112-0.0476-0.0952"/>
    <path d="m16.967 52.016-0.0476-0.0476"/>
   </g>
   <g transform="rotate(-90 54.66 51.802)">
    <text transform="scale(-1 1) translate(-109.32)" x="54.6600" y="52.3020" font-size="1.3333" opacity="0" stroke-opacity="0" text-anchor="middle" lengthAdjust="spacingAndGlyphs" textLength="3.1548">D13</text>
   </g>
   <g class="stroked-text">
    <desc>D13</desc>
    <path d="m55.115 50.588h-1"/>
    <path d="m54.115 50.588v0.2381"/>
    <path d="m54.115 50.826 0.0476 0.1429"/>
    <path d="m54.162 50.969 0.0953 0.0952"/>
    <path d="m54.258 51.064 0.0952 0.0476"/>
    <path d="m54.353 51.112 0.1905 0.0476"/>
    <path d="m54.543 51.159h0.1428"/>
    <path d="m54.686 51.159 0.1905-0.0476"/>
    <path d="m54.877 51.112 0.0953-0.0476"/>
    <path d="m54.972 51.064 0.0952-0.0952"/>
    <path d="m55.067 50.969 0.0476-0.1429"/>
    <path d="m55.115 50.826v-0.2381"/>
    <path d="m55.115 52.112v-0.5714"/>
    <path d="m55.115 51.826h-1"/>
    <path d="m54.115 51.826 0.1429-0.0952"/>
    <path d="m54.258 51.731 0.0952-0.0953"/>
    <path d="m54.353 51.635 0.0476-0.0952"/>
    <path d="m54.115 52.445v0.619"/>
    <path d="m54.115 53.064 0.381-0.3333"/>
    <path d="m54.496 52.731v0.1428"/>
    <path d="m54.496 52.873 0.0476 0.0953"/>
    <path d="m54.543 52.969 0.0476 0.0476"/>
    <path d="m54.591 53.016 0.0952 0.0476"/>
    <path d="m54.686 53.064h0.2381"/>
    <path d="m54.924 53.064 0.0953-0.0476"/>
    <path d="m55.02 53.016 0.0476-0.0476"/>
    <path d="m55.067 52.969 0.0476-0.0953"/>
    <path d="m55.115 52.873v-0.2857"/>
    <path d="m55.115 52.588-0.0476-0.0952"/>
    <path d="m55.067 52.492-0.0476-0.0476"/>
   </g>
   <g transform="rotate(-90 70.972 39.777)">
    <text transform="scale(-1 1) translate(-141.94)" x="70.9725" y="40.2770" font-size="1.3333" opacity="0" stroke-opacity="0" text-anchor="middle" lengthAdjust="spacingAndGlyphs" textLength="3.1548">D10</text>
   </g>
   <g class="stroked-text">
    <desc>D10</desc>
    <path d="m71.427 38.563h-1"/>
    <path d="m70.427 38.563v0.2381"/>
    <path d="m70.427 38.801 0.0476 0.1429"/>
    <path d="m70.475 38.944 0.0953 0.0952"/>
    <path d="m70.57 39.039 0.0952 0.0476"/>
    <path d="m70.665 39.086 0.1905 0.0476"/>
    <path d="m70.856 39.134h0.1428"/>
    <path d="m70.999 39.134 0.1905-0.0476"/>
    <path d="m71.189 39.086 0.0953-0.0476"/>
    <path d="m71.284 39.039 0.0952-0.0952"/>
    <path d="m71.38 38.944 0.0476-0.1429"/>
    <path d="m71.427 38.801v-0.2381"/>
    <path d="m71.427 40.086v-0.5714"/>
    <path d="m71.427 39.801h-1"/>
    <path d="m70.427 39.801 0.1429-0.0952"/>
    <path d="m70.57 39.706 0.0952-0.0953"/>
    <path d="m70.665 39.61 0.0476-0.0952"/>
    <path d="m70.427 40.706v0.0952"/>
    <path d="m70.427 40.801 0.0476 0.0952"/>
    <path d="m70.475 40.896 0.0477 0.0477"/>
    <path d="m70.523 40.944 0.0952 0.0476"/>
    <path d="m70.618 40.991 0.1905 0.0476"/>
    <path d="m70.808 41.039h0.2381"/>
    <path d="m71.046 41.039 0.1904-0.0476"/>
    <path d="m71.237 40.991 0.0953-0.0476"/>
    <path d="m71.332 40.944 0.0476-0.0477"/>
    <path d="m71.38 40.896 0.0476-0.0952"/>
    <path d="m71.427 40.801v-0.0952"/>
    <path d="m71.427 40.706-0.0476-0.0953"/>
    <path d="m71.38 40.61-0.0476-0.0476"/>
    <path d="m71.332 40.563-0.0953-0.0476"/>
    <path d="m71.237 40.515-0.1904-0.0476"/>
    <path d="m71.046 40.468h-0.2381"/>
    <path d="m70.808 40.468-0.1905 0.0476"/>
    <path d="m70.618 40.515-0.0952 0.0476"/>
    <path d="m70.523 40.563-0.0477 0.0476"/>
    <path d="m70.475 40.61-0.0476 0.0953"/>
   </g>
   <g transform="rotate(-90 54.66 32.752)">
    <text transform="scale(-1 1) translate(-109.32)" x="54.6600" y="33.2520" font-size="1.3333" opacity="0" stroke-opacity="0" text-anchor="middle" lengthAdjust="spacingAndGlyphs" textLength="3.1548">D12</text>
   </g>
   <g class="stroked-text">
    <desc>D12</desc>
    <path d="m55.115 31.538h-1"/>
    <path d="m54.115 31.538v0.2381"/>
    <path d="m54.115 31.776 0.0476 0.1429"/>
    <path d="m54.162 31.919 0.0953 0.0952"/>
    <path d="m54.258 32.014 0.0952 0.0476"/>
    <path d="m54.353 32.062 0.1905 0.0476"/>
    <path d="m54.543 32.109h0.1428"/>
    <path d="m54.686 32.109 0.1905-0.0476"/>
    <path d="m54.877 32.062 0.0953-0.0476"/>
    <path d="m54.972 32.014 0.0952-0.0952"/>
    <path d="m55.067 31.919 0.0476-0.1429"/>
    <path d="m55.115 31.776v-0.2381"/>
    <path d="m55.115 33.062v-0.5714"/>
    <path d="m55.115 32.776h-1"/>
    <path d="m54.115 32.776 0.1429-0.0952"/>
    <path d="m54.258 32.681 0.0952-0.0953"/>
    <path d="m54.353 32.585 0.0476-0.0952"/>
    <path d="m54.21 33.442-0.0477 0.0476"/>
    <path d="m54.162 33.49-0.0476 0.0952"/>
    <path d="m54.115 33.585v0.2381"/>
    <path d="m54.115 33.823 0.0476 0.0953"/>
    <path d="m54.162 33.919 0.0477 0.0476"/>
    <path d="m54.21 33.966 0.0952 0.0476"/>
    <path d="m54.305 34.014h0.0952"/>
    <path d="m54.4 34.014 0.1429-0.0476"/>
    <path d="m54.543 33.966 0.5714-0.5714"/>
    <path d="m55.115 33.395v0.619"/>
   </g>
   <g transform="rotate(-90 70.972 11.202)">
    <text transform="scale(-1 1) translate(-141.94)" x="70.9725" y="11.7020" font-size="1.3333" opacity="0" stroke-opacity="0" text-anchor="middle" lengthAdjust="spacingAndGlyphs" textLength="3.1548">D15</text>
   </g>
   <g class="stroked-text">
    <desc>D15</desc>
    <path d="m71.427 9.9877h-1"/>
    <path d="m70.427 9.9877v0.2381"/>
    <path d="m70.427 10.226 0.0476 0.1429"/>
    <path d="m70.475 10.369 0.0953 0.0952"/>
    <path d="m70.57 10.464 0.0952 0.0476"/>
    <path d="m70.665 10.512 0.1905 0.0476"/>
    <path d="m70.856 10.559h0.1428"/>
    <path d="m70.999 10.559 0.1905-0.0476"/>
    <path d="m71.189 10.512 0.0953-0.0476"/>
    <path d="m71.284 10.464 0.0952-0.0952"/>
    <path d="m71.38 10.369 0.0476-0.1429"/>
    <path d="m71.427 10.226v-0.2381"/>
    <path d="m71.427 11.512v-0.5714"/>
    <path d="m71.427 11.226h-1"/>
    <path d="m70.427 11.226 0.1429-0.0952"/>
    <path d="m70.57 11.131 0.0952-0.0953"/>
    <path d="m70.665 11.035 0.0476-0.0952"/>
    <path d="m70.427 12.416v-0.4762"/>
    <path d="m70.427 11.94 0.4762-0.0476"/>
    <path d="m70.904 11.892-0.0476 0.0476"/>
    <path d="m70.856 11.94-0.0476 0.0952"/>
    <path d="m70.808 12.035v0.2381"/>
    <path d="m70.808 12.273 0.0476 0.0953"/>
    <path d="m70.856 12.369 0.0476 0.0476"/>
    <path d="m70.904 12.416 0.0952 0.0476"/>
    <path d="m70.999 12.464h0.2381"/>
    <path d="m71.237 12.464 0.0953-0.0476"/>
    <path d="m71.332 12.416 0.0476-0.0476"/>
    <path d="m71.38 12.369 0.0476-0.0953"/>
    <path d="m71.427 12.273v-0.2381"/>
    <path d="m71.427 12.035-0.0476-0.0952"/>
    <path d="m71.38 11.94-0.0476-0.0476"/>
   </g>
   <g transform="rotate(-90 54.66 70.852)">
    <text transform="scale(-1 1) translate(-109.32)" x="54.6600" y="71.3520" font-size="1.3333" opacity="0" stroke-opacity="0" text-anchor="middle" lengthAdjust="spacingAndGlyphs" textLength="3.1548">D14</text>
   </g>
   <g class="stroked-text">
    <desc>D14</desc>
    <path d="m55.115 69.638h-1"/>
    <path d="m54.115 69.638v0.2381"/>
    <path d="m54.115 69.876 0.0476 0.1429"/>
    <path d="m54.162 70.019 0.0953 0.0952"/>
    <path d="m54.258 70.114 0.0952 0.0476"/>
    <path d="m54.353 70.162 0.1905 0.0476"/>
    <path d="m54.543 70.209h0.1428"/>
    <path d="m54.686 70.209 0.1905-0.0476"/>
    <path d="m54.877 70.162 0.0953-0.0476"/>
    <path d="m54.972 70.114 0.0952-0.0952"/>
    <path d="m55.067 70.019 0.0476-0.1429"/>
    <path d="m55.115 69.876v-0.2381"/>
    <path d="m55.115 71.162v-0.5714"/>
    <path d="m55.115 70.876h-1"/>
    <path d="m54.115 70.876 0.1429-0.0952"/>
    <path d="m54.258 70.781 0.0952-0.0953"/>
    <path d="m54.353 70.685 0.0476-0.0952"/>
    <path d="m54.448 72.019h0.6666"/>
    <path d="m54.067 71.781 0.7143-0.2381"/>
    <path d="m54.782 71.542v0.619"/>
   </g>
   <g transform="rotate(-90 35.61 32.752)">
    <text transform="scale(-1 1) translate(-71.22)" x="35.6100" y="33.2520" font-size="1.3333" opacity="0" stroke-opacity="0" text-anchor="middle" lengthAdjust="spacingAndGlyphs" textLength="2.2024">D7</text>
   </g>
   <g class="stroked-text">
    <desc>D7</desc>
    <path d="m36.065 32.014h-1"/>
    <path d="m35.065 32.014v0.2381"/>
    <path d="m35.065 32.252 0.0476 0.1429"/>
    <path d="m35.112 32.395 0.0953 0.0952"/>
    <path d="m35.208 32.49 0.0952 0.0476"/>
    <path d="m35.303 32.538 0.1905 0.0476"/>
    <path d="m35.493 32.585h0.1428"/>
    <path d="m35.636 32.585 0.1905-0.0476"/>
    <path d="m35.827 32.538 0.0953-0.0476"/>
    <path d="m35.922 32.49 0.0952-0.0952"/>
    <path d="m36.017 32.395 0.0476-0.1429"/>
    <path d="m36.065 32.252v-0.2381"/>
    <path d="m35.065 32.919v0.6666"/>
    <path d="m35.065 33.585 1-0.4285"/>
   </g>
   <g transform="rotate(-90 70.972 68.352)">
    <text transform="scale(-1 1) translate(-141.94)" x="70.9725" y="68.8520" font-size="1.3333" opacity="0" stroke-opacity="0" text-anchor="middle" lengthAdjust="spacingAndGlyphs" textLength="2.2024">D5</text>
   </g>
   <g class="stroked-text">
    <desc>D5</desc>
    <path d="m71.427 67.614h-1"/>
    <path d="m70.427 67.614v0.2381"/>
    <path d="m70.427 67.852 0.0476 0.1429"/>
    <path d="m70.475 67.995 0.0953 0.0952"/>
    <path d="m70.57 68.09 0.0952 0.0476"/>
    <path d="m70.665 68.138 0.1905 0.0476"/>
    <path d="m70.856 68.185h0.1428"/>
    <path d="m70.999 68.185 0.1905-0.0476"/>
    <path d="m71.189 68.138 0.0953-0.0476"/>
    <path d="m71.284 68.09 0.0952-0.0952"/>
    <path d="m71.38 67.995 0.0476-0.1429"/>
    <path d="m71.427 67.852v-0.2381"/>
    <path d="m70.427 69.09v-0.4762"/>
    <path d="m70.427 68.614 0.4762-0.0476"/>
    <path d="m70.904 68.566-0.0476 0.0476"/>
    <path d="m70.856 68.614-0.0476 0.0952"/>
    <path d="m70.808 68.709v0.2381"/>
    <path d="m70.808 68.947 0.0476 0.0953"/>
    <path d="m70.856 69.042 0.0476 0.0476"/>
    <path d="m70.904 69.09 0.0952 0.0476"/>
    <path d="m70.999 69.138h0.2381"/>
    <path d="m71.237 69.138 0.0953-0.0476"/>
    <path d="m71.332 69.09 0.0476-0.0476"/>
    <path d="m71.38 69.042 0.0476-0.0953"/>
    <path d="m71.427 68.947v-0.2381"/>
    <path d="m71.427 68.709-0.0476-0.0952"/>
    <path d="m71.38 68.614-0.0476-0.0476"/>
   </g>
   <g transform="rotate(-90 35.61 51.802)">
    <text transform="scale(-1 1) translate(-71.22)" x="35.6100" y="52.3020" font-size="1.3333" opacity="0" stroke-opacity="0" text-anchor="middle" lengthAdjust="spacingAndGlyphs" textLength="2.2024">D8</text>
   </g>
   <g class="stroked-text">
    <desc>D8</desc>
    <path d="m36.065 51.064h-1"/>
    <path d="m35.065 51.064v0.2381"/>
    <path d="m35.065 51.302 0.0476 0.1429"/>
    <path d="m35.112 51.445 0.0953 0.0952"/>
    <path d="m35.208 51.54 0.0952 0.0476"/>
    <path d="m35.303 51.588 0.1905 0.0476"/>
    <path d="m35.493 51.635h0.1428"/>
    <path d="m35.636 51.635 0.1905-0.0476"/>
    <path d="m35.827 51.588 0.0953-0.0476"/>
    <path d="m35.922 51.54 0.0952-0.0952"/>
    <path d="m36.017 51.445 0.0476-0.1429"/>
    <path d="m36.065 51.302v-0.2381"/>
    <path d="m35.493 52.207-0.0476-0.0953"/>
    <path d="m35.446 52.112-0.0476-0.0476"/>
    <path d="m35.398 52.064-0.0953-0.0476"/>
    <path d="m35.303 52.016h-0.0476"/>
    <path d="m35.255 52.016-0.0952 0.0476"/>
    <path d="m35.16 52.064-0.0477 0.0476"/>
    <path d="m35.112 52.112-0.0476 0.0953"/>
    <path d="m35.065 52.207v0.1904"/>
    <path d="m35.065 52.397 0.0476 0.0953"/>
    <path d="m35.112 52.492 0.0477 0.0476"/>
    <path d="m35.16 52.54 0.0952 0.0476"/>
    <path d="m35.255 52.588h0.0476"/>
    <path d="m35.303 52.588 0.0953-0.0476"/>
    <path d="m35.398 52.54 0.0476-0.0476"/>
    <path d="m35.446 52.492 0.0476-0.0953"/>
    <path d="m35.493 52.397v-0.1904"/>
    <path d="m35.493 52.207 0.0476-0.0953"/>
    <path d="m35.541 52.112 0.0476-0.0476"/>
    <path d="m35.589 52.064 0.0953-0.0476"/>
    <path d="m35.684 52.016h0.1904"/>
    <path d="m35.874 52.016 0.0953 0.0476"/>
    <path d="m35.97 52.064 0.0476 0.0476"/>
    <path d="m36.017 52.112 0.0476 0.0953"/>
    <path d="m36.065 52.207v0.1904"/>
    <path d="m36.065 52.397-0.0476 0.0953"/>
    <path d="m36.017 52.492-0.0476 0.0476"/>
    <path d="m35.97 52.54-0.0953 0.0476"/>
    <path d="m35.874 52.588h-0.1904"/>
    <path d="m35.684 52.588-0.0953-0.0476"/>
    <path d="m35.589 52.54-0.0476-0.0476"/>
    <path d="m35.541 52.492-0.0476-0.0953"/>
   </g>
   <g transform="rotate(-90 35.61 70.852)">
    <text transform="scale(-1 1) translate(-71.22)" x="35.6100" y="71.3520" font-size="1.3333" opacity="0" stroke-opacity="0" text-anchor="middle" lengthAdjust="spacingAndGlyphs" textLength="2.2024">D9</text>
   </g>
   <g class="stroked-text">
    <desc>D9</desc>
    <path d="m36.065 70.114h-1"/>
    <path d="m35.065 70.114v0.2381"/>
    <path d="m35.065 70.352 0.0476 0.1429"/>
    <path d="m35.112 70.495 0.0953 0.0952"/>
    <path d="m35.208 70.59 0.0952 0.0476"/>
    <path d="m35.303 70.638 0.1905 0.0476"/>
    <path d="m35.493 70.685h0.1428"/>
    <path d="m35.636 70.685 0.1905-0.0476"/>
    <path d="m35.827 70.638 0.0953-0.0476"/>
    <path d="m35.922 70.59 0.0952-0.0952"/>
    <path d="m36.017 70.495 0.0476-0.1429"/>
    <path d="m36.065 70.352v-0.2381"/>
    <path d="m36.065 71.162v0.1905"/>
    <path d="m36.065 71.352-0.0476 0.0952"/>
    <path d="m36.017 71.447-0.0476 0.0477"/>
    <path d="m35.97 71.495-0.1429 0.0952"/>
    <path d="m35.827 71.59-0.1905 0.0476"/>
    <path d="m35.636 71.638h-0.3809"/>
    <path d="m35.255 71.638-0.0952-0.0476"/>
    <path d="m35.16 71.59-0.0477-0.0476"/>
    <path d="m35.112 71.542-0.0476-0.0953"/>
    <path d="m35.065 71.447v-0.1904"/>
    <path d="m35.065 71.257 0.0476-0.0953"/>
    <path d="m35.112 71.162 0.0477-0.0476"/>
    <path d="m35.16 71.114 0.0952-0.0476"/>
    <path d="m35.255 71.066h0.2381"/>
    <path d="m35.493 71.066 0.0952 0.0476"/>
    <path d="m35.589 71.114 0.0476 0.0476"/>
    <path d="m35.636 71.162 0.0477 0.0953"/>
    <path d="m35.684 71.257v0.1904"/>
    <path d="m35.684 71.447-0.0477 0.0953"/>
    <path d="m35.636 71.542-0.0476 0.0476"/>
    <path d="m35.589 71.59-0.0952 0.0476"/>
   </g>
   <g transform="rotate(-90 16.56 32.752)">
    <text transform="scale(-1 1) translate(-33.12)" x="16.5600" y="33.2520" font-size="1.3333" opacity="0" stroke-opacity="0" text-anchor="middle" lengthAdjust="spacingAndGlyphs" textLength="2.2024">D2</text>
   </g>
   <g class="stroked-text">
    <desc>D2</desc>
    <path d="m17.015 32.014h-1"/>
    <path d="m16.015 32.014v0.2381"/>
    <path d="m16.015 32.252 0.0476 0.1429"/>
    <path d="m16.062 32.395 0.0953 0.0952"/>
    <path d="m16.158 32.49 0.0952 0.0476"/>
    <path d="m16.253 32.538 0.1905 0.0476"/>
    <path d="m16.443 32.585h0.1428"/>
    <path d="m16.586 32.585 0.1905-0.0476"/>
    <path d="m16.777 32.538 0.0953-0.0476"/>
    <path d="m16.872 32.49 0.0952-0.0952"/>
    <path d="m16.967 32.395 0.0476-0.1429"/>
    <path d="m17.015 32.252v-0.2381"/>
    <path d="m16.11 32.966-0.0477 0.0476"/>
    <path d="m16.062 33.014-0.0476 0.0952"/>
    <path d="m16.015 33.109v0.2381"/>
    <path d="m16.015 33.347 0.0476 0.0953"/>
    <path d="m16.062 33.442 0.0477 0.0476"/>
    <path d="m16.11 33.49 0.0952 0.0476"/>
    <path d="m16.205 33.538h0.0952"/>
    <path d="m16.3 33.538 0.1429-0.0476"/>
    <path d="m16.443 33.49 0.5714-0.5714"/>
    <path d="m17.015 32.919v0.619"/>
   </g>
   <g transform="rotate(-90 16.56 70.852)">
    <text transform="scale(-1 1) translate(-33.12)" x="16.5600" y="71.3520" font-size="1.3333" opacity="0" stroke-opacity="0" text-anchor="middle" lengthAdjust="spacingAndGlyphs" textLength="2.2024">D4</text>
   </g>
   <g class="stroked-text">
    <desc>D4</desc>
    <path d="m17.015 70.114h-1"/>
    <path d="m16.015 70.114v0.2381"/>
    <path d="m16.015 70.352 0.0476 0.1429"/>
    <path d="m16.062 70.495 0.0953 0.0952"/>
    <path d="m16.158 70.59 0.0952 0.0476"/>
    <path d="m16.253 70.638 0.1905 0.0476"/>
    <path d="m16.443 70.685h0.1428"/>
    <path d="m16.586 70.685 0.1905-0.0476"/>
    <path d="m16.777 70.638 0.0953-0.0476"/>
    <path d="m16.872 70.59 0.0952-0.0952"/>
    <path d="m16.967 70.495 0.0476-0.1429"/>
    <path d="m17.015 70.352v-0.2381"/>
    <path d="m16.348 71.542h0.6666"/>
    <path d="m15.967 71.304 0.7143-0.2381"/>
    <path d="m16.682 71.066v0.619"/>
   </g>
   <g transform="rotate(-90 54.66 13.702)">
    <text transform="scale(-1 1) translate(-109.32)" x="54.6600" y="14.2020" font-size="1.3333" opacity="0" stroke-opacity="0" text-anchor="middle" lengthAdjust="spacingAndGlyphs" textLength="3.1548">D11</text>
   </g>
   <g class="stroked-text">
    <desc>D11</desc>
    <path d="m55.115 12.488h-1"/>
    <path d="m54.115 12.488v0.2381"/>
    <path d="m54.115 12.726 0.0476 0.1429"/>
    <path d="m54.162 12.869 0.0953 0.0952"/>
    <path d="m54.258 12.964 0.0952 0.0476"/>
    <path d="m54.353 13.012 0.1905 0.0476"/>
    <path d="m54.543 13.059h0.1428"/>
    <path d="m54.686 13.059 0.1905-0.0476"/>
    <path d="m54.877 13.012 0.0953-0.0476"/>
    <path d="m54.972 12.964 0.0952-0.0952"/>
    <path d="m55.067 12.869 0.0476-0.1429"/>
    <path d="m55.115 12.726v-0.2381"/>
    <path d="m55.115 14.012v-0.5714"/>
    <path d="m55.115 13.726h-1"/>
    <path d="m54.115 13.726 0.1429-0.0952"/>
    <path d="m54.258 13.631 0.0952-0.0953"/>
    <path d="m54.353 13.535 0.0476-0.0952"/>
    <path d="m55.115 14.964v-0.5714"/>
    <path d="m55.115 14.678h-1"/>
    <path d="m54.115 14.678 0.1429-0.0952"/>
    <path d="m54.258 14.583 0.0952-0.0953"/>
    <path d="m54.353 14.488 0.0476-0.0952"/>
   </g>
   <g transform="rotate(-90 35.61 13.702)">
    <text transform="scale(-1 1) translate(-71.22)" x="35.6100" y="14.2020" font-size="1.3333" opacity="0" stroke-opacity="0" text-anchor="middle" lengthAdjust="spacingAndGlyphs" textLength="2.2024">D6</text>
   </g>
   <g class="stroked-text">
    <desc>D6</desc>
    <path d="m36.065 12.964h-1"/>
    <path d="m35.065 12.964v0.2381"/>
    <path d="m35.065 13.202 0.0476 0.1429"/>
    <path d="m35.112 13.345 0.0953 0.0952"/>
    <path d="m35.208 13.44 0.0952 0.0476"/>
    <path d="m35.303 13.488 0.1905 0.0476"/>
    <path d="m35.493 13.535h0.1428"/>
    <path d="m35.636 13.535 0.1905-0.0476"/>
    <path d="m35.827 13.488 0.0953-0.0476"/>
    <path d="m35.922 13.44 0.0952-0.0952"/>
    <path d="m36.017 13.345 0.0476-0.1429"/>
    <path d="m36.065 13.202v-0.2381"/>
    <path d="m35.065 14.392v-0.1905"/>
    <path d="m35.065 14.202 0.0476-0.0952"/>
    <path d="m35.112 14.107 0.0477-0.0477"/>
    <path d="m35.16 14.059 0.1428-0.0952"/>
    <path d="m35.303 13.964 0.1905-0.0476"/>
    <path d="m35.493 13.916h0.3809"/>
    <path d="m35.874 13.916 0.0953 0.0476"/>
    <path d="m35.97 13.964 0.0476 0.0476"/>
    <path d="m36.017 14.012 0.0476 0.0953"/>
    <path d="m36.065 14.107v0.1904"/>
    <path d="m36.065 14.297-0.0476 0.0953"/>
    <path d="m36.017 14.392-0.0476 0.0476"/>
    <path d="m35.97 14.44-0.0953 0.0476"/>
    <path d="m35.874 14.488h-0.2381"/>
    <path d="m35.636 14.488-0.0952-0.0476"/>
    <path d="m35.541 14.44-0.0476-0.0476"/>
    <path d="m35.493 14.392-0.0476-0.0953"/>
    <path d="m35.446 14.297v-0.1904"/>
    <path d="m35.446 14.107 0.0476-0.0953"/>
    <path d="m35.493 14.012 0.0476-0.0476"/>
    <path d="m35.541 13.964 0.0952-0.0476"/>
   </g>
   <g transform="rotate(-90 16.56 13.702)">
    <text transform="scale(-1 1) translate(-33.12)" x="16.5600" y="14.2020" font-size="1.3333" opacity="0" stroke-opacity="0" text-anchor="middle" lengthAdjust="spacingAndGlyphs" textLength="2.2024">D1</text>
   </g>
   <g class="stroked-text">
    <desc>D1</desc>
    <path d="m17.015 12.964h-1"/>
    <path d="m16.015 12.964v0.2381"/>
    <path d="m16.015 13.202 0.0476 0.1429"/>
    <path d="m16.062 13.345 0.0953 0.0952"/>
    <path d="m16.158 13.44 0.0952 0.0476"/>
    <path d="m16.253 13.488 0.1905 0.0476"/>
    <path d="m16.443 13.535h0.1428"/>
    <path d="m16.586 13.535 0.1905-0.0476"/>
    <path d="m16.777 13.488 0.0953-0.0476"/>
    <path d="m16.872 13.44 0.0952-0.0952"/>
    <path d="m16.967 13.345 0.0476-0.1429"/>
    <path d="m17.015 13.202v-0.2381"/>
    <path d="m17.015 14.488v-0.5714"/>
    <path d="m17.015 14.202h-1"/>
    <path d="m16.015 14.202 0.1429-0.0952"/>
    <path d="m16.158 14.107 0.0952-0.0953"/>
    <path d="m16.253 14.012 0.0476-0.0952"/>
   </g>
  </g>
  <g stroke="#BD93F9" stroke-width=".12">
   <path d="m13.655 53.885v-3.86"/>
   <path d="m15.655 53.885h-2"/>
   <path d="m15.655 53.885v-3.86"/>
   <path d="m51.755 53.885v-3.86"/>
   <path d="m53.755 53.885h-2"/>
   <path d="m53.755 53.885v-3.86"/>
   <path d="m68.068 41.86v-3.86"/>
   <path d="m70.068 41.86h-2"/>
   <path d="m70.068 41.86v-3.86"/>
   <path d="m51.755 34.835v-3.86"/>
   <path d="m53.755 34.835h-2"/>
   <path d="m53.755 34.835v-3.86"/>
   <path d="m68.068 13.285v-3.86"/>
   <path d="m70.068 13.285h-2"/>
   <path d="m70.068 13.285v-3.86"/>
   <path d="m51.755 72.935v-3.86"/>
   <path d="m53.755 72.935h-2"/>
   <path d="m53.755 72.935v-3.86"/>
   <path d="m32.705 34.835v-3.86"/>
   <path d="m34.705 34.835h-2"/>
   <path d="m34.705 34.835v-3.86"/>
   <path d="m68.068 70.435v-3.86"/>
   <path d="m70.068 70.435h-2"/>
   <path d="m70.068 70.435v-3.86"/>
   <path d="m32.705 53.885v-3.86"/>
   <path d="m34.705 53.885h-2"/>
   <path d="m34.705 53.885v-3.86"/>
   <path d="m32.705 72.935v-3.86"/>
   <path d="m34.705 72.935h-2"/>
   <path d="m34.705 72.935v-3.86"/>
   <path d="m13.655 34.835v-3.86"/>
   <path d="m15.655 34.835h-2"/>
   <path d="m15.655 34.835v-3.86"/>
   <path d="m13.655 72.935v-3.86"/>
   <path d="m15.655 72.935h-2"/>
   <path d="m15.655 72.935v-3.86"/>
   <path d="m51.755 15.785v-3.86"/>
   <path d="m53.755 15.785h-2"/>
   <path d="m53.755 15.785v-3.86"/>
   <path d="m32.705 15.785v-3.86"/>
   <path d="m34.705 15.785h-2"/>
   <path d="m34.705 15.785v-3.86"/>
   <path d="m13.655 15.785v-3.86"/>
   <path d="m15.655 15.785h-2"/>
   <path d="m15.655 15.785v-3.86"/>
  </g>
 </g>
 <g fill="#fff">
  <circle cx="42.595" cy="9.575" r=".875"/>
  <circle cx="47.675" cy="9.575" r="2"/>
  <circle cx="52.755" cy="9.575" r=".875"/>
  <circle cx="43.865" cy="7.035" r=".75"/>
  <circle cx="50.215" cy="4.495" r=".75"/>
  <circle cx="63.988" cy="35.65" r=".5"/>
  <circle cx="63.988" cy="40.65" r=".5"/>
  <circle cx="63.988" cy="38.15" r=".5"/>
 </g>
 <g fill="none" stroke="#fff" stroke-linecap="round" stroke-linejoin="round" stroke-width="1.5">
  <path d="m70.838 32.55h1.3"/>
  <path d="m70.838 43.75h1.3"/>
 </g>
 <g fill="#fff">
  <circle cx="78.488" cy="40.65" r=".5"/>
  <circle cx="78.488" cy="35.65" r=".5"/>
  <circle cx="4.495" cy="66.725" r=".875"/>
  <circle cx="9.575" cy="66.725" r="2"/>
  <circle cx="14.655" cy="66.725" r=".875"/>
  <circle cx="5.765" cy="64.185" r=".75"/>
  <circle cx="12.115" cy="61.645" r=".75"/>
  <circle cx="23.545" cy="28.625" r=".875"/>
  <circle cx="28.625" cy="28.625" r="2"/>
  <circle cx="33.705" cy="28.625" r=".875"/>
  <circle cx="24.815" cy="26.085" r=".75"/>
  <circle cx="31.165" cy="23.545" r=".75"/>
  <circle cx="23.545" cy="47.675" r=".875"/>
  <circle cx="28.625" cy="47.675" r="2"/>
  <circle cx="33.705" cy="47.675" r=".875"/>
  <circle cx="24.815" cy="45.135" r=".75"/>
  <circle cx="31.165" cy="42.595" r=".75"/>
  <circle cx="23.545" cy="9.575" r=".875"/>
  <circle cx="28.625" cy="9.575" r="2"/>
  <circle cx="33.705" cy="9.575" r=".875"/>
  <circle cx="24.815" cy="7.035" r=".75"/>
  <circle cx="31.165" cy="4.495" r=".75"/>
  <circle cx="42.595" cy="47.675" r=".875"/>
  <circle cx="47.675" cy="47.675" r="2"/>
  <circle cx="52.755" cy="47.675" r=".875"/>
  <circle cx="43.865" cy="45.135" r=".75"/>
  <circle cx="50.215" cy="42.595" r=".75"/>
  <circle cx="4.495" cy="47.675" r=".875"/>
  <circle cx="9.575" cy="47.675" r="2"/>
  <circle cx="14.655" cy="47.675" r=".875"/>
  <circle cx="5.765" cy="45.135" r=".75"/>
  <circle cx="12.115" cy="42.595" r=".75"/>
  <circle cx="63.988" cy="64.225" r=".5"/>
  <circle cx="63.988" cy="69.225" r=".5"/>
  <circle cx="63.988" cy="66.725" r=".5"/>
 </g>
 <g fill="none" stroke="#fff" stroke-linecap="round" stroke-linejoin="round" stroke-width="1.5">
  <path d="m70.838 61.125h1.3"/>
  <path d="m70.838 72.325h1.3"/>
 </g>
 <g fill="#fff">
  <circle cx="78.488" cy="69.225" r=".5"/>
  <circle cx="78.488" cy="64.225" r=".5"/>
  <circle cx="23.545" cy="66.725" r=".875"/>
  <circle cx="28.625" cy="66.725" r="2"/>
  <circle cx="33.705" cy="66.725" r=".875"/>
  <circle cx="24.815" cy="64.185" r=".75"/>
  <circle cx="31.165" cy="61.645" r=".75"/>
  <circle cx="42.595" cy="28.625" r=".875"/>
  <circle cx="47.675" cy="28.625" r="2"/>
  <circle cx="52.755" cy="28.625" r=".875"/>
  <circle cx="43.865" cy="26.085" r=".75"/>
  <circle cx="50.215" cy="23.545" r=".75"/>
  <circle cx="63.988" cy="7.075" r=".5"/>
  <circle cx="63.988" cy="12.075" r=".5"/>
  <circle cx="63.988" cy="9.575" r=".5"/>
 </g>
 <g fill="none" stroke="#fff" stroke-linecap="round" stroke-linejoin="round" stroke-width="1.5">
  <path d="m70.838 3.975h1.3"/>
  <path d="m70.838 15.175h1.3"/>
 </g>
 <g fill="#fff">
  <circle cx="78.488" cy="12.075" r=".5"/>
  <circle cx="78.488" cy="7.075" r=".5"/>
  <circle cx="42.595" cy="66.725" r=".875"/>
  <circle cx="47.675" cy="66.725" r="2"/>
  <circle cx="52.755" cy="66.725" r=".875"/>
  <circle cx="43.865" cy="64.185" r=".75"/>
  <circle cx="50.215" cy="61.645" r=".75"/>
  <circle cx="4.495" cy="9.575" r=".875"/>
  <circle cx="9.575" cy="9.575" r="2"/>
  <circle cx="14.655" cy="9.575" r=".875"/>
  <circle cx="5.765" cy="7.035" r=".75"/>
  <circle cx="12.115" cy="4.495" r=".75"/>
  <circle cx="4.495" cy="28.625" r=".875"/>
  <circle cx="9.575" cy="28.625" r="2"/>
  <circle cx="14.655" cy="28.625" r=".875"/>
  <circle cx="5.765" cy="26.085" r=".75"/>
  <circle cx="12.115" cy="23.545" r=".75"/>
 </g>
</svg>
