<?xml version="1.0" encoding="UTF-8"?>
<!DOCTYPE svg  PUBLIC '-//W3C//DTD SVG 1.1//EN'  'http://www.w3.org/Graphics/SVG/1.1/DTD/svg11.dtd'>
<svg width="132.38mm" height="76.276mm" version="1.1" viewBox="0 0 132.38 76.276" xmlns="http://www.w3.org/2000/svg">
 <title>SVG Image created as kb16-01-render.svg date 2026/07/14 10:52:08</title>
 <desc>Image generated by PCBNEW</desc>
 <rect width="132.38mm" height="76.276mm" fill="#282A36"/>
 <g fill="#f55">
  <circle cx="24.815" cy="45.135" r="1.25"/>
  <circle cx="31.165" cy="42.595" r="1.25"/>
  <circle cx="24.815" cy="26.085" r="1.25"/>
  <circle cx="31.165" cy="23.545" r="1.25"/>
  <circle cx="5.765" cy="45.135" r="1.25"/>
  <circle cx="12.115" cy="42.595" r="1.25"/>
  <path d="m86.8 8.075v-2h2v2z" fill="#f55" fill-rule="evenodd"/>
  <circle cx="87.8" cy="12.075" r="1"/>
  <circle cx="87.8" cy="9.575" r="1"/>
  <path d="m93.7 4.975v-2h3.2v2z" fill="#f55" fill-rule="evenodd"/>
  <path d="m93.7 16.175v-2h3.2v2z" fill="#f55" fill-rule="evenodd"/>
  <circle cx="102.3" cy="12.075" r="1"/>
  <circle cx="102.3" cy="7.075" r="1"/>
  <circle cx="24.815" cy="64.185" r="1.25"/>
  <circle cx="31.165" cy="61.645" r="1.25"/>
  <circle cx="5.765" cy="26.085" r="1.25"/>
  <circle cx="12.115" cy="23.545" r="1.25"/>
  <circle cx="24.815" cy="7.035" r="1.25"/>
  <circle cx="31.165" cy="4.495" r="1.25"/>
  <circle cx="62.915" cy="26.085" r="1.25"/>
  <circle cx="69.265" cy="23.545" r="1.25"/>
  <circle cx="5.765" cy="7.035" r="1.25"/>
  <circle cx="12.115" cy="4.495" r="1.25"/>
  <circle cx="62.915" cy="45.135" r="1.25"/>
  <circle cx="69.265" cy="42.595" r="1.25"/>
  <circle cx="5.765" cy="64.185" r="1.25"/>
  <circle cx="12.115" cy="61.645" r="1.25"/>
  <circle cx="62.915" cy="7.035" r="1.25"/>
  <circle cx="69.265" cy="4.495" r="1.25"/>
  <circle cx="43.865" cy="26.085" r="1.25"/>
  <circle cx="50.215" cy="23.545" r="1.25"/>
  <circle cx="43.865" cy="64.185" r="1.25"/>
  <circle cx="50.215" cy="61.645" r="1.25"/>
  <path d="m101.09 55.7v-2h2v2z" fill="#f55" fill-rule="evenodd"/>
  <circle cx="102.09" cy="59.7" r="1"/>
  <circle cx="102.09" cy="57.2" r="1"/>
  <path d="m107.99 52.6v-2h3.2v2z" fill="#f55" fill-rule="evenodd"/>
  <path d="m107.99 63.8v-2h3.2v2z" fill="#f55" fill-rule="evenodd"/>
  <circle cx="116.59" cy="59.7" r="1"/>
  <circle cx="116.59" cy="54.7" r="1"/>
  <path d="m115.38 8.075v-2h2v2z" fill="#f55" fill-rule="evenodd"/>
  <circle cx="116.38" cy="12.075" r="1"/>
  <circle cx="116.38" cy="9.575" r="1"/>
  <path d="m122.28 4.975v-2h3.2v2z" fill="#f55" fill-rule="evenodd"/>
  <path d="m122.28 16.175v-2h3.2v2z" fill="#f55" fill-rule="evenodd"/>
  <circle cx="130.88" cy="12.075" r="1"/>
  <circle cx="130.88" cy="7.075" r="1"/>
  <circle cx="43.865" cy="7.035" r="1.25"/>
  <circle cx="50.215" cy="4.495" r="1.25"/>
  <circle cx="62.915" cy="64.185" r="1.25"/>
  <circle cx="69.265" cy="61.645" r="1.25"/>
  <circle cx="43.865" cy="45.135" r="1.25"/>
  <circle cx="50.215" cy="42.595" r="1.25"/>
 </g>
 <g fill="none" stroke="#f55" stroke-linecap="round" stroke-linejoin="round" stroke-width=".2">
  <path d="m5.765 26.085v19.05"/>
  <path d="m5.765 7.035v19.05"/>
  <path d="m5.765 45.135v19.05"/>
  <path d="m24.815 26.085v19.05"/>
  <path d="m24.815 7.035v19.05"/>
  <path d="m24.815 45.135v19.05"/>
  <path d="m43.865 45.135v19.05"/>
  <path d="m43.865 7.035v19.05"/>
  <path d="m43.865 26.085v19.05"/>
  <path d="m62.915 45.135v19.05"/>
  <path d="m62.915 26.085v19.05"/>
  <path d="m62.915 7.035v19.05"/>
 </g>
 <g fill="#50FA7B">
  <circle cx="24.815" cy="45.135" r="1.25"/>
  <circle cx="31.165" cy="42.595" r="1.25"/>
  <circle cx="24.815" cy="26.085" r="1.25"/>
  <circle cx="31.165" cy="23.545" r="1.25"/>
  <circle cx="5.765" cy="45.135" r="1.25"/>
  <circle cx="12.115" cy="42.595" r="1.25"/>
  <path d="m86.8 8.075v-2h2v2z" fill="#50FA7B" fill-rule="evenodd"/>
  <circle cx="87.8" cy="12.075" r="1"/>
  <circle cx="87.8" cy="9.575" r="1"/>
  <path d="m93.7 4.975v-2h3.2v2z" fill="#50FA7B" fill-rule="evenodd"/>
  <path d="m93.7 16.175v-2h3.2v2z" fill="#50FA7B" fill-rule="evenodd"/>
  <circle cx="102.3" cy="12.075" r="1"/>
  <circle cx="102.3" cy="7.075" r="1"/>
  <circle cx="24.815" cy="64.185" r="1.25"/>
  <circle cx="31.165" cy="61.645" r="1.25"/>
  <circle cx="5.765" cy="26.085" r="1.25"/>
  <circle cx="12.115" cy="23.545" r="1.25"/>
  <circle cx="24.815" cy="7.035" r="1.25"/>
  <circle cx="31.165" cy="4.495" r="1.25"/>
  <circle cx="62.915" cy="26.085" r="1.25"/>
  <circle cx="69.265" cy="23.545" r="1.25"/>
  <circle cx="5.765" cy="7.035" r="1.25"/>
  <circle cx="12.115" cy="4.495" r="1.25"/>
  <circle cx="62.915" cy="45.135" r="1.25"/>
  <circle cx="69.265" cy="42.595" r="1.25"/>
  <circle cx="5.765" cy="64.185" r="1.25"/>
  <circle cx="12.115" cy="61.645" r="1.25"/>
  <circle cx="62.915" cy="7.035" r="1.25"/>
  <circle cx="69.265" cy="4.495" r="1.25"/>
  <circle cx="43.865" cy="26.085" r="1.25"/>
  <circle cx="50.215" cy="23.545" r="1.25"/>
  <circle cx="43.865" cy="64.185" r="1.25"/>
  <circle cx="50.215" cy="61.645" r="1.25"/>
  <path d="m101.09 55.7v-2h2v2z" fill="#50FA7B" fill-rule="evenodd"/>
  <circle cx="102.09" cy="59.7" r="1"/>
  <circle cx="102.09" cy="57.2" r="1"/>
  <path d="m107.99 52.6v-2h3.2v2z" fill="#50FA7B" fill-rule="evenodd"/>
  <path d="m107.99 63.8v-2h3.2v2z" fill="#50FA7B" fill-rule="evenodd"/>
  <circle cx="116.59" cy="59.7" r="1"/>
  <circle cx="116.59" cy="54.7" r="1"/>
  <path d="m115.38 8.075v-2h2v2z" fill="#50FA7B" fill-rule="evenodd"/>
  <circle cx="116.38" cy="12.075" r="1"/>
  <circle cx="116.38" cy="9.575" r="1"/>
  <path d="m122.28 4.975v-2h3.2v2z" fill="#50FA7B" fill-rule="evenodd"/>
  <path d="m122.28 16.175v-2h3.2v2z" fill="#50FA7B" fill-rule="evenodd"/>
  <circle cx="130.88" cy="12.075" r="1"/>
  <circle cx="130.88" cy="7.075" r="1"/>
  <circle cx="43.865" cy="7.035" r="1.25"/>
  <circle cx="50.215" cy="4.495" r="1.25"/>
  <circle cx="62.915" cy="64.185" r="1.25"/>
  <circle cx="69.265" cy="61.645" r="1.25"/>
  <circle cx="43.865" cy="45.135" r="1.25"/>
  <circle cx="50.215" cy="42.595" r="1.25"/>
  <g fill="#50FA7B" fill-rule="evenodd">
   <path d="m71.505 72.675-0.0957-0.019-0.0811-0.0542-0.0542-0.0811-0.019-0.0957v-0.6l0.019-0.0957 0.0542-0.0811 0.0811-0.0542 0.0957-0.019h0.6l0.0957 0.019 0.0811 0.0542 0.0542 0.0811 0.019 0.0957v0.6l-0.019 0.0957-0.0542 0.0811-0.0811 0.0542-0.0957 0.019z"/>
   <path d="m71.505 69.875-0.0957-0.019-0.0811-0.0542-0.0542-0.0811-0.019-0.0957v-0.6l0.019-0.0957 0.0542-0.0811 0.0811-0.0542 0.0957-0.019h0.6l0.0957 0.019 0.0811 0.0542 0.0542 0.0811 0.019 0.0957v0.6l-0.019 0.0957-0.0542 0.0811-0.0811 0.0542-0.0957 0.019z"/>
   <path d="m52.455 34.575-0.0957-0.019-0.0811-0.0542-0.0542-0.0811-0.019-0.0957v-0.6l0.019-0.0957 0.0542-0.0811 0.0811-0.0542 0.0957-0.019h0.6l0.0957 0.019 0.0811 0.0542 0.0542 0.0811 0.019 0.0957v0.6l-0.019 0.0957-0.0542 0.0811-0.0811 0.0542-0.0957 0.019z"/>
   <path d="m52.455 31.775-0.0957-0.019-0.0811-0.0542-0.0542-0.0811-0.019-0.0957v-0.6l0.019-0.0957 0.0542-0.0811 0.0811-0.0542 0.0957-0.019h0.6l0.0957 0.019 0.0811 0.0542 0.0542 0.0811 0.019 0.0957v0.6l-0.019 0.0957-0.0542 0.0811-0.0811 0.0542-0.0957 0.019z"/>
   <path d="m14.355 53.625-0.0957-0.019-0.0811-0.0542-0.0542-0.0811-0.019-0.0957v-0.6l0.019-0.0957 0.0542-0.0811 0.0811-0.0542 0.0957-0.019h0.6l0.0957 0.019 0.0811 0.0542 0.0542 0.0811 0.019 0.0957v0.6l-0.019 0.0957-0.0542 0.0811-0.0811 0.0542-0.0957 0.019z"/>
   <path d="m14.355 50.825-0.0957-0.019-0.0811-0.0542-0.0542-0.0811-0.019-0.0957v-0.6l0.019-0.0957 0.0542-0.0811 0.0811-0.0542 0.0957-0.019h0.6l0.0957 0.019 0.0811 0.0542 0.0542 0.0811 0.019 0.0957v0.6l-0.019 0.0957-0.0542 0.0811-0.0811 0.0542-0.0957 0.019z"/>
   <path d="m33.405 72.675-0.0957-0.019-0.0811-0.0542-0.0542-0.0811-0.019-0.0957v-0.6l0.019-0.0957 0.0542-0.0811 0.0811-0.0542 0.0957-0.019h0.6l0.0957 0.019 0.0811 0.0542 0.0542 0.0811 0.019 0.0957v0.6l-0.019 0.0957-0.0542 0.0811-0.0811 0.0542-0.0957 0.019z"/>
   <path d="m33.405 69.875-0.0957-0.019-0.0811-0.0542-0.0542-0.0811-0.019-0.0957v-0.6l0.019-0.0957 0.0542-0.0811 0.0811-0.0542 0.0957-0.019h0.6l0.0957 0.019 0.0811 0.0542 0.0542 0.0811 0.019 0.0957v0.6l-0.019 0.0957-0.0542 0.0811-0.0811 0.0542-0.0957 0.019z"/>
   <path d="m52.455 53.625-0.0957-0.019-0.0811-0.0542-0.0542-0.0811-0.019-0.0957v-0.6l0.019-0.0957 0.0542-0.0811 0.0811-0.0542 0.0957-0.019h0.6l0.0957 0.019 0.0811 0.0542 0.0542 0.0811 0.019 0.0957v0.6l-0.019 0.0957-0.0542 0.0811-0.0811 0.0542-0.0957 0.019z"/>
   <path d="m52.455 50.825-0.0957-0.019-0.0811-0.0542-0.0542-0.0811-0.019-0.0957v-0.6l0.019-0.0957 0.0542-0.0811 0.0811-0.0542 0.0957-0.019h0.6l0.0957 0.019 0.0811 0.0542 0.0542 0.0811 0.019 0.0957v0.6l-0.019 0.0957-0.0542 0.0811-0.0811 0.0542-0.0957 0.019z"/>
   <path d="m33.405 15.525-0.0957-0.019-0.0811-0.0542-0.0542-0.0811-0.019-0.0957v-0.6l0.019-0.0957 0.0542-0.0811 0.0811-0.0542 0.0957-0.019h0.6l0.0957 0.019 0.0811 0.0542 0.0542 0.0811 0.019 0.0957v0.6l-0.019 0.0957-0.0542 0.0811-0.0811 0.0542-0.0957 0.019z"/>
   <path d="m33.405 12.725-0.0957-0.019-0.0811-0.0542-0.0542-0.0811-0.019-0.0957v-0.6l0.019-0.0957 0.0542-0.0811 0.0811-0.0542 0.0957-0.019h0.6l0.0957 0.019 0.0811 0.0542 0.0542 0.0811 0.019 0.0957v0.6l-0.019 0.0957-0.0542 0.0811-0.0811 0.0542-0.0957 0.019z"/>
   <path d="m14.355 15.525-0.0957-0.019-0.0811-0.0542-0.0542-0.0811-0.019-0.0957v-0.6l0.019-0.0957 0.0542-0.0811 0.0811-0.0542 0.0957-0.019h0.6l0.0957 0.019 0.0811 0.0542 0.0542 0.0811 0.019 0.0957v0.6l-0.019 0.0957-0.0542 0.0811-0.0811 0.0542-0.0957 0.019z"/>
   <path d="m14.355 12.725-0.0957-0.019-0.0811-0.0542-0.0542-0.0811-0.019-0.0957v-0.6l0.019-0.0957 0.0542-0.0811 0.0811-0.0542 0.0957-0.019h0.6l0.0957 0.019 0.0811 0.0542 0.0542 0.0811 0.019 0.0957v0.6l-0.019 0.0957-0.0542 0.0811-0.0811 0.0542-0.0957 0.019z"/>
   <path d="m33.405 34.575-0.0957-0.019-0.0811-0.0542-0.0542-0.0811-0.019-0.0957v-0.6l0.019-0.0957 0.0542-0.0811 0.0811-0.0542 0.0957-0.019h0.6l0.0957 0.019 0.0811 0.0542 0.0542 0.0811 0.019 0.0957v0.6l-0.019 0.0957-0.0542 0.0811-0.0811 0.0542-0.0957 0.019z"/>
   <path d="m33.405 31.775-0.0957-0.019-0.0811-0.0542-0.0542-0.0811-0.019-0.0957v-0.6l0.019-0.0957 0.0542-0.0811 0.0811-0.0542 0.0957-0.019h0.6l0.0957 0.019 0.0811 0.0542 0.0542 0.0811 0.019 0.0957v0.6l-0.019 0.0957-0.0542 0.0811-0.0811 0.0542-0.0957 0.019z"/>
   <path d="m121.16 13.025-0.0957-0.019-0.0811-0.0542-0.0542-0.0811-0.019-0.0957v-0.6l0.019-0.0957 0.0542-0.0811 0.0811-0.0542 0.0957-0.019h0.6l0.0957 0.019 0.0811 0.0542 0.0542 0.0811 0.019 0.0957v0.6l-0.019 0.0957-0.0542 0.0811-0.0811 0.0542-0.0957 0.019z"/>
   <path d="m121.16 10.225-0.0957-0.019-0.0811-0.0542-0.0542-0.0811-0.019-0.0957v-0.6l0.019-0.0957 0.0542-0.0811 0.0811-0.0542 0.0957-0.019h0.6l0.0957 0.019 0.0811 0.0542 0.0542 0.0811 0.019 0.0957v0.6l-0.019 0.0957-0.0542 0.0811-0.0811 0.0542-0.0957 0.019z"/>
   <path d="m52.455 15.525-0.0957-0.019-0.0811-0.0542-0.0542-0.0811-0.019-0.0957v-0.6l0.019-0.0957 0.0542-0.0811 0.0811-0.0542 0.0957-0.019h0.6l0.0957 0.019 0.0811 0.0542 0.0542 0.0811 0.019 0.0957v0.6l-0.019 0.0957-0.0542 0.0811-0.0811 0.0542-0.0957 0.019z"/>
   <path d="m52.455 12.725-0.0957-0.019-0.0811-0.0542-0.0542-0.0811-0.019-0.0957v-0.6l0.019-0.0957 0.0542-0.0811 0.0811-0.0542 0.0957-0.019h0.6l0.0957 0.019 0.0811 0.0542 0.0542 0.0811 0.019 0.0957v0.6l-0.019 0.0957-0.0542 0.0811-0.0811 0.0542-0.0957 0.019z"/>
   <path d="m92.58 13.025-0.0957-0.019-0.0811-0.0542-0.0542-0.0811-0.019-0.0957v-0.6l0.019-0.0957 0.0542-0.0811 0.0811-0.0542 0.0957-0.019h0.6l0.0957 0.019 0.0811 0.0542 0.0542 0.0811 0.019 0.0957v0.6l-0.019 0.0957-0.0542 0.0811-0.0811 0.0542-0.0957 0.019z"/>
   <path d="m92.58 10.225-0.0957-0.019-0.0811-0.0542-0.0542-0.0811-0.019-0.0957v-0.6l0.019-0.0957 0.0542-0.0811 0.0811-0.0542 0.0957-0.019h0.6l0.0957 0.019 0.0811 0.0542 0.0542 0.0811 0.019 0.0957v0.6l-0.019 0.0957-0.0542 0.0811-0.0811 0.0542-0.0957 0.019z"/>
   <path d="m71.505 34.575-0.0957-0.019-0.0811-0.0542-0.0542-0.0811-0.019-0.0957v-0.6l0.019-0.0957 0.0542-0.0811 0.0811-0.0542 0.0957-0.019h0.6l0.0957 0.019 0.0811 0.0542 0.0542 0.0811 0.019 0.0957v0.6l-0.019 0.0957-0.0542 0.0811-0.0811 0.0542-0.0957 0.019z"/>
   <path d="m71.505 31.775-0.0957-0.019-0.0811-0.0542-0.0542-0.0811-0.019-0.0957v-0.6l0.019-0.0957 0.0542-0.0811 0.0811-0.0542 0.0957-0.019h0.6l0.0957 0.019 0.0811 0.0542 0.0542 0.0811 0.019 0.0957v0.6l-0.019 0.0957-0.0542 0.0811-0.0811 0.0542-0.0957 0.019z"/>
   <path d="m14.355 34.575-0.0957-0.019-0.0811-0.0542-0.0542-0.0811-0.019-0.0957v-0.6l0.019-0.0957 0.0542-0.0811 0.0811-0.0542 0.0957-0.019h0.6l0.0957 0.019 0.0811 0.0542 0.0542 0.0811 0.019 0.0957v0.6l-0.019 0.0957-0.0542 0.0811-0.0811 0.0542-0.0957 0.019z"/>
   <path d="m14.355 31.775-0.0957-0.019-0.0811-0.0542-0.0542-0.0811-0.019-0.0957v-0.6l0.019-0.0957 0.0542-0.0811 0.0811-0.0542 0.0957-0.019h0.6l0.0957 0.019 0.0811 0.0542 0.0542 0.0811 0.019 0.0957v0.6l-0.019 0.0957-0.0542 0.0811-0.0811 0.0542-0.0957 0.019z"/>
   <path d="m71.505 15.525-0.0957-0.019-0.0811-0.0542-0.0542-0.0811-0.019-0.0957v-0.6l0.019-0.0957 0.0542-0.0811 0.0811-0.0542 0.0957-0.019h0.6l0.0957 0.019 0.0811 0.0542 0.0542 0.0811 0.019 0.0957v0.6l-0.019 0.0957-0.0542 0.0811-0.0811 0.0542-0.0957 0.019z"/>
   <path d="m71.505 12.725-0.0957-0.019-0.0811-0.0542-0.0542-0.0811-0.019-0.0957v-0.6l0.019-0.0957 0.0542-0.0811 0.0811-0.0542 0.0957-0.019h0.6l0.0957 0.019 0.0811 0.0542 0.0542 0.0811 0.019 0.0957v0.6l-0.019 0.0957-0.0542 0.0811-0.0811 0.0542-0.0957 0.019z"/>
   <path d="m52.455 72.675-0.0957-0.019-0.0811-0.0542-0.0542-0.0811-0.019-0.0957v-0.6l0.019-0.0957 0.0542-0.0811 0.0811-0.0542 0.0957-0.019h0.6l0.0957 0.019 0.0811 0.0542 0.0542 0.0811 0.019 0.0957v0.6l-0.019 0.0957-0.0542 0.0811-0.0811 0.0542-0.0957 0.019z"/>
   <path d="m52.455 69.875-0.0957-0.019-0.0811-0.0542-0.0542-0.0811-0.019-0.0957v-0.6l0.019-0.0957 0.0542-0.0811 0.0811-0.0542 0.0957-0.019h0.6l0.0957 0.019 0.0811 0.0542 0.0542 0.0811 0.019 0.0957v0.6l-0.019 0.0957-0.0542 0.0811-0.0811 0.0542-0.0957 0.019z"/>
   <path d="m33.405 53.625-0.0957-0.019-0.0811-0.0542-0.0542-0.0811-0.019-0.0957v-0.6l0.019-0.0957 0.0542-0.0811 0.0811-0.0542 0.0957-0.019h0.6l0.0957 0.019 0.0811 0.0542 0.0542 0.0811 0.019 0.0957v0.6l-0.019 0.0957-0.0542 0.0811-0.0811 0.0542-0.0957 0.019z"/>
   <path d="m33.405 50.825-0.0957-0.019-0.0811-0.0542-0.0542-0.0811-0.019-0.0957v-0.6l0.019-0.0957 0.0542-0.0811 0.0811-0.0542 0.0957-0.019h0.6l0.0957 0.019 0.0811 0.0542 0.0542 0.0811 0.019 0.0957v0.6l-0.019 0.0957-0.0542 0.0811-0.0811 0.0542-0.0957 0.019z"/>
   <path d="m14.355 72.675-0.0957-0.019-0.0811-0.0542-0.0542-0.0811-0.019-0.0957v-0.6l0.019-0.0957 0.0542-0.0811 0.0811-0.0542 0.0957-0.019h0.6l0.0957 0.019 0.0811 0.0542 0.0542 0.0811 0.019 0.0957v0.6l-0.019 0.0957-0.0542 0.0811-0.0811 0.0542-0.0957 0.019z"/>
   <path d="m14.355 69.875-0.0957-0.019-0.0811-0.0542-0.0542-0.0811-0.019-0.0957v-0.6l0.019-0.0957 0.0542-0.0811 0.0811-0.0542 0.0957-0.019h0.6l0.0957 0.019 0.0811 0.0542 0.0542 0.0811 0.019 0.0957v0.6l-0.019 0.0957-0.0542 0.0811-0.0811 0.0542-0.0957 0.019z"/>
   <path d="m106.87 60.65-0.0957-0.019-0.0811-0.0542-0.0542-0.0811-0.019-0.0957v-0.6l0.019-0.0957 0.0542-0.0811 0.0811-0.0542 0.0957-0.019h0.6l0.0957 0.019 0.0811 0.0542 0.0542 0.0811 0.019 0.0957v0.6l-0.019 0.0957-0.0542 0.0811-0.0811 0.0542-0.0957 0.019z"/>
   <path d="m106.87 57.85-0.0957-0.019-0.0811-0.0542-0.0542-0.0811-0.019-0.0957v-0.6l0.019-0.0957 0.0542-0.0811 0.0811-0.0542 0.0957-0.019h0.6l0.0957 0.019 0.0811 0.0542 0.0542 0.0811 0.019 0.0957v0.6l-0.019 0.0957-0.0542 0.0811-0.0811 0.0542-0.0957 0.019z"/>
   <path d="m71.505 53.625-0.0957-0.019-0.0811-0.0542-0.0542-0.0811-0.019-0.0957v-0.6l0.019-0.0957 0.0542-0.0811 0.0811-0.0542 0.0957-0.019h0.6l0.0957 0.019 0.0811 0.0542 0.0542 0.0811 0.019 0.0957v0.6l-0.019 0.0957-0.0542 0.0811-0.0811 0.0542-0.0957 0.019z"/>
   <path d="m71.505 50.825-0.0957-0.019-0.0811-0.0542-0.0542-0.0811-0.019-0.0957v-0.6l0.019-0.0957 0.0542-0.0811 0.0811-0.0542 0.0957-0.019h0.6l0.0957 0.019 0.0811 0.0542 0.0542 0.0811 0.019 0.0957v0.6l-0.019 0.0957-0.0542 0.0811-0.0811 0.0542-0.0957 0.019z"/>
  </g>
 </g>
 <g fill="none" stroke-linecap="round" stroke-linejoin="round">
  <g stroke="#50FA7B" stroke-width=".2">
   <path d="m12.115 4.495v5.14"/>
   <path d="m12.115 9.635 2.54 2.54"/>
   <path d="m130.88 7.075h-6.82"/>
   <path d="m124.06 7.075-2.6 2.6"/>
   <path d="m12.115 42.595v5.14"/>
   <path d="m12.115 47.735 2.54 2.54"/>
   <path d="m31.165 42.595v5.14"/>
   <path d="m31.165 47.735 2.54 2.54"/>
   <path d="m50.215 47.735 2.54 2.54"/>
   <path d="m50.215 42.595v5.14"/>
   <path d="m69.265 42.595v5.14"/>
   <path d="m69.265 47.735 2.54 2.54"/>
   <path d="m109.77 54.7-2.6 2.6"/>
   <path d="m116.59 54.7h-6.82"/>
   <path d="m12.115 61.645v5.14"/>
   <path d="m12.115 66.785 2.54 2.54"/>
   <path d="m31.165 66.785 2.54 2.54"/>
   <path d="m31.165 61.645v5.14"/>
   <path d="m50.215 61.645v5.14"/>
   <path d="m50.215 66.785 2.54 2.54"/>
   <path d="m69.265 66.785 2.54 2.54"/>
   <path d="m69.265 61.645v5.14"/>
   <path d="m31.165 4.495v5.14"/>
   <path d="m31.165 9.635 2.54 2.54"/>
   <path d="m50.215 4.495v5.14"/>
   <path d="m50.215 9.635 2.54 2.54"/>
   <path d="m69.265 4.495v5.14"/>
   <path d="m69.265 9.635 2.54 2.54"/>
   <path d="m102.3 7.075h-6.82"/>
   <path d="m95.48 7.075-2.6 2.6"/>
   <path d="m12.115 28.685 2.54 2.54"/>
   <path d="m12.115 23.545v5.14"/>
   <path d="m31.165 28.685 2.54 2.54"/>
   <path d="m31.165 23.545v5.14"/>
   <path d="m50.215 28.685 2.54 2.54"/>
   <path d="m50.215 23.545v5.14"/>
   <path d="m69.265 23.545v5.14"/>
   <path d="m69.265 28.685 2.54 2.54"/>
   <path d="m71.805 14.975h18.575"/>
   <path d="m52.755 14.975h19.05"/>
   <path d="m33.705 14.975h19.05"/>
   <path d="m90.38 14.975 2.5-2.5"/>
   <path d="m14.655 14.975h19.05"/>
   <path d="m99.905 34.025 21.55-21.55"/>
   <path d="m33.705 34.025h19.05"/>
   <path d="m14.655 34.025h19.05"/>
   <path d="m71.805 34.025h28.1"/>
   <path d="m52.755 34.025h19.05"/>
   <path d="m52.755 53.075h19.05"/>
   <path d="m33.705 53.075h19.05"/>
   <path d="m14.655 53.075h19.05"/>
   <path d="m14.655 72.125h19.05"/>
   <path d="m52.755 72.125h19.05"/>
   <path d="m33.705 72.125h19.05"/>
  </g>
  <g stroke="#8BE9FD" stroke-width=".15">
   <text x="28.6250" y="40.1750" font-size="1.3333" opacity="0" stroke-opacity="0" text-anchor="middle" lengthAdjust="spacingAndGlyphs" textLength="4.2500">SW12</text>
   <g class="stroked-text">
    <desc>SW12</desc>
    <path d="m26.816 40.082 0.1428 0.0476"/>
    <path d="m26.958 40.13h0.2381"/>
    <path d="m27.196 40.13 0.0953-0.0476"/>
    <path d="m27.292 40.082 0.0476-0.0476"/>
    <path d="m27.339 40.035 0.0476-0.0953"/>
    <path d="m27.387 39.939v-0.0952"/>
    <path d="m27.387 39.844-0.0476-0.0952"/>
    <path d="m27.339 39.749-0.0476-0.0477"/>
    <path d="m27.292 39.701-0.0953-0.0476"/>
    <path d="m27.196 39.654-0.1904-0.0476"/>
    <path d="m27.006 39.606-0.0953-0.0476"/>
    <path d="m26.911 39.558-0.0476-0.0476"/>
    <path d="m26.863 39.511-0.0476-0.0953"/>
    <path d="m26.816 39.416v-0.0952"/>
    <path d="m26.816 39.32 0.0476-0.0952"/>
    <path d="m26.863 39.225 0.0476-0.0477"/>
    <path d="m26.911 39.177 0.0953-0.0476"/>
    <path d="m27.006 39.13h0.238"/>
    <path d="m27.244 39.13 0.1429 0.0476"/>
    <path d="m27.72 39.13 0.2381 1"/>
    <path d="m27.958 40.13 0.1905-0.7143"/>
    <path d="m28.149 39.416 0.1905 0.7143"/>
    <path d="m28.339 40.13 0.2381-1"/>
    <path d="m29.482 40.13h-0.5714"/>
    <path d="m29.196 40.13v-1"/>
    <path d="m29.196 39.13-0.0952 0.1429"/>
    <path d="m29.101 39.273-0.0952 0.0952"/>
    <path d="m29.006 39.368-0.0953 0.0476"/>
    <path d="m29.863 39.225 0.0476-0.0477"/>
    <path d="m29.911 39.177 0.0953-0.0476"/>
    <path d="m30.006 39.13h0.238"/>
    <path d="m30.244 39.13 0.0953 0.0476"/>
    <path d="m30.339 39.177 0.0476 0.0477"/>
    <path d="m30.387 39.225 0.0476 0.0952"/>
    <path d="m30.434 39.32v0.0952"/>
    <path d="m30.434 39.416-0.0476 0.1429"/>
    <path d="m30.387 39.558-0.5714 0.5714"/>
    <path d="m29.816 40.13h0.619"/>
   </g>
   <text x="28.6250" y="21.1250" font-size="1.3333" opacity="0" stroke-opacity="0" text-anchor="middle" lengthAdjust="spacingAndGlyphs" textLength="3.2976">SW7</text>
   <g class="stroked-text">
    <desc>SW7</desc>
    <path d="m27.292 21.032 0.1428 0.0476"/>
    <path d="m27.434 21.08h0.2381"/>
    <path d="m27.673 21.08 0.0953-0.0476"/>
    <path d="m27.768 21.032 0.0476-0.0476"/>
    <path d="m27.816 20.985 0.0476-0.0953"/>
    <path d="m27.863 20.889v-0.0952"/>
    <path d="m27.863 20.794-0.0476-0.0952"/>
    <path d="m27.816 20.699-0.0476-0.0477"/>
    <path d="m27.768 20.651-0.0953-0.0476"/>
    <path d="m27.673 20.604-0.1905-0.0476"/>
    <path d="m27.482 20.556-0.0952-0.0476"/>
    <path d="m27.387 20.508-0.0476-0.0476"/>
    <path d="m27.339 20.461-0.0476-0.0953"/>
    <path d="m27.292 20.366v-0.0952"/>
    <path d="m27.292 20.27 0.0476-0.0952"/>
    <path d="m27.339 20.175 0.0476-0.0477"/>
    <path d="m27.387 20.127 0.0952-0.0476"/>
    <path d="m27.482 20.08h0.2381"/>
    <path d="m27.72 20.08 0.1429 0.0476"/>
    <path d="m28.196 20.08 0.2381 1"/>
    <path d="m28.434 21.08 0.1905-0.7143"/>
    <path d="m28.625 20.366 0.1905 0.7143"/>
    <path d="m28.816 21.08 0.2381-1"/>
    <path d="m29.339 20.08h0.6667"/>
    <path d="m30.006 20.08-0.4286 1"/>
   </g>
   <text x="9.5750" y="40.1750" font-size="1.3333" opacity="0" stroke-opacity="0" text-anchor="middle" lengthAdjust="spacingAndGlyphs" textLength="4.2500">SW11</text>
   <g class="stroked-text">
    <desc>SW11</desc>
    <path d="m7.7655 40.082 0.1428 0.0476"/>
    <path d="m7.9083 40.13h0.2381"/>
    <path d="m8.1464 40.13 0.0953-0.0476"/>
    <path d="m8.2417 40.082 0.0476-0.0476"/>
    <path d="m8.2893 40.035 0.0476-0.0953"/>
    <path d="m8.3369 39.939v-0.0952"/>
    <path d="m8.3369 39.844-0.0476-0.0952"/>
    <path d="m8.2893 39.749-0.0476-0.0477"/>
    <path d="m8.2417 39.701-0.0953-0.0476"/>
    <path d="m8.1464 39.654-0.1904-0.0476"/>
    <path d="m7.956 39.606-0.0953-0.0476"/>
    <path d="m7.8607 39.558-0.0476-0.0476"/>
    <path d="m7.8131 39.511-0.0476-0.0953"/>
    <path d="m7.7655 39.416v-0.0952"/>
    <path d="m7.7655 39.32 0.0476-0.0952"/>
    <path d="m7.8131 39.225 0.0476-0.0477"/>
    <path d="m7.8607 39.177 0.0953-0.0476"/>
    <path d="m7.956 39.13h0.238"/>
    <path d="m8.194 39.13 0.1429 0.0476"/>
    <path d="m8.6702 39.13 0.2381 1"/>
    <path d="m8.9083 40.13 0.1905-0.7143"/>
    <path d="m9.0988 39.416 0.1905 0.7143"/>
    <path d="m9.2893 40.13 0.2381-1"/>
    <path d="m10.432 40.13h-0.5714"/>
    <path d="m10.146 40.13v-1"/>
    <path d="m10.146 39.13-0.0952 0.1429"/>
    <path d="m10.051 39.273-0.0952 0.0952"/>
    <path d="m9.956 39.368-0.0953 0.0476"/>
    <path d="m11.384 40.13h-0.5714"/>
    <path d="m11.099 40.13v-1"/>
    <path d="m11.099 39.13-0.0952 0.1429"/>
    <path d="m11.004 39.273-0.0953 0.0952"/>
    <path d="m10.908 39.368-0.0952 0.0476"/>
   </g>
   <text x="90.6000" y="2.8750" font-size="1.3333" opacity="0" stroke-opacity="0" text-anchor="middle" lengthAdjust="spacingAndGlyphs" textLength="3.2976">SW5</text>
   <g class="stroked-text">
    <desc>SW5</desc>
    <path d="m89.267 2.7822 0.1428 0.0476"/>
    <path d="m89.41 2.8298h0.2381"/>
    <path d="m89.648 2.8298 0.0953-0.0476"/>
    <path d="m89.743 2.7822 0.0476-0.0476"/>
    <path d="m89.79 2.7346 0.0476-0.0953"/>
    <path d="m89.838 2.6393v-0.0952"/>
    <path d="m89.838 2.5441-0.0476-0.0952"/>
    <path d="m89.79 2.4489-0.0476-0.0477"/>
    <path d="m89.743 2.4012-0.0953-0.0476"/>
    <path d="m89.648 2.3536-0.1905-0.0476"/>
    <path d="m89.457 2.306-0.0952-0.0476"/>
    <path d="m89.362 2.2584-0.0476-0.0476"/>
    <path d="m89.314 2.2108-0.0476-0.0953"/>
    <path d="m89.267 2.1155v-0.0952"/>
    <path d="m89.267 2.0203 0.0476-0.0952"/>
    <path d="m89.314 1.9251 0.0476-0.0477"/>
    <path d="m89.362 1.8774 0.0952-0.0476"/>
    <path d="m89.457 1.8298h0.2381"/>
    <path d="m89.695 1.8298 0.1429 0.0476"/>
    <path d="m90.171 1.8298 0.2381 1"/>
    <path d="m90.41 2.8298 0.1905-0.7143"/>
    <path d="m90.6 2.1155 0.1905 0.7143"/>
    <path d="m90.79 2.8298 0.2381-1"/>
    <path d="m91.886 1.8298h-0.4762"/>
    <path d="m91.41 1.8298-0.0476 0.4762"/>
    <path d="m91.362 2.306 0.0476-0.0476"/>
    <path d="m91.41 2.2584 0.0953-0.0476"/>
    <path d="m91.505 2.2108h0.2381"/>
    <path d="m91.743 2.2108 0.0952 0.0476"/>
    <path d="m91.838 2.2584 0.0476 0.0476"/>
    <path d="m91.886 2.306 0.0476 0.0952"/>
    <path d="m91.933 2.4012v0.2381"/>
    <path d="m91.933 2.6393-0.0476 0.0953"/>
    <path d="m91.886 2.7346-0.0476 0.0476"/>
    <path d="m91.838 2.7822-0.0952 0.0476"/>
    <path d="m91.743 2.8298h-0.2381"/>
    <path d="m91.505 2.8298-0.0953-0.0476"/>
    <path d="m91.41 2.7822-0.0476-0.0476"/>
   </g>
   <text x="28.6250" y="59.2250" font-size="1.3333" opacity="0" stroke-opacity="0" text-anchor="middle" lengthAdjust="spacingAndGlyphs" textLength="4.2500">SW17</text>
   <g class="stroked-text">
    <desc>SW17</desc>
    <path d="m26.816 59.132 0.1428 0.0476"/>
    <path d="m26.958 59.18h0.2381"/>
    <path d="m27.196 59.18 0.0953-0.0476"/>
    <path d="m27.292 59.132 0.0476-0.0476"/>
    <path d="m27.339 59.085 0.0476-0.0953"/>
    <path d="m27.387 58.989v-0.0952"/>
    <path d="m27.387 58.894-0.0476-0.0952"/>
    <path d="m27.339 58.799-0.0476-0.0477"/>
    <path d="m27.292 58.751-0.0953-0.0476"/>
    <path d="m27.196 58.704-0.1904-0.0476"/>
    <path d="m27.006 58.656-0.0953-0.0476"/>
    <path d="m26.911 58.608-0.0476-0.0476"/>
    <path d="m26.863 58.561-0.0476-0.0953"/>
    <path d="m26.816 58.466v-0.0952"/>
    <path d="m26.816 58.37 0.0476-0.0952"/>
    <path d="m26.863 58.275 0.0476-0.0477"/>
    <path d="m26.911 58.227 0.0953-0.0476"/>
    <path d="m27.006 58.18h0.238"/>
    <path d="m27.244 58.18 0.1429 0.0476"/>
    <path d="m27.72 58.18 0.2381 1"/>
    <path d="m27.958 59.18 0.1905-0.7143"/>
    <path d="m28.149 58.466 0.1905 0.7143"/>
    <path d="m28.339 59.18 0.2381-1"/>
    <path d="m29.482 59.18h-0.5714"/>
    <path d="m29.196 59.18v-1"/>
    <path d="m29.196 58.18-0.0952 0.1429"/>
    <path d="m29.101 58.323-0.0952 0.0952"/>
    <path d="m29.006 58.418-0.0953 0.0476"/>
    <path d="m29.816 58.18h0.6666"/>
    <path d="m30.482 58.18-0.4285 1"/>
   </g>
   <text x="9.5750" y="21.1250" font-size="1.3333" opacity="0" stroke-opacity="0" text-anchor="middle" lengthAdjust="spacingAndGlyphs" textLength="3.2976">SW6</text>
   <g class="stroked-text">
    <desc>SW6</desc>
    <path d="m8.2417 21.032 0.1428 0.0476"/>
    <path d="m8.3845 21.08h0.2381"/>
    <path d="m8.6226 21.08 0.0953-0.0476"/>
    <path d="m8.7179 21.032 0.0476-0.0476"/>
    <path d="m8.7655 20.985 0.0476-0.0953"/>
    <path d="m8.8131 20.889v-0.0952"/>
    <path d="m8.8131 20.794-0.0476-0.0952"/>
    <path d="m8.7655 20.699-0.0476-0.0477"/>
    <path d="m8.7179 20.651-0.0953-0.0476"/>
    <path d="m8.6226 20.604-0.1905-0.0476"/>
    <path d="m8.4321 20.556-0.0952-0.0476"/>
    <path d="m8.3369 20.508-0.0476-0.0476"/>
    <path d="m8.2893 20.461-0.0476-0.0953"/>
    <path d="m8.2417 20.366v-0.0952"/>
    <path d="m8.2417 20.27 0.0476-0.0952"/>
    <path d="m8.2893 20.175 0.0476-0.0477"/>
    <path d="m8.3369 20.127 0.0952-0.0476"/>
    <path d="m8.4321 20.08h0.2381"/>
    <path d="m8.6702 20.08 0.1429 0.0476"/>
    <path d="m9.1464 20.08 0.2381 1"/>
    <path d="m9.3845 21.08 0.1905-0.7143"/>
    <path d="m9.575 20.366 0.1905 0.7143"/>
    <path d="m9.7655 21.08 0.2381-1"/>
    <path d="m10.813 20.08h-0.1905"/>
    <path d="m10.623 20.08-0.0952 0.0476"/>
    <path d="m10.527 20.127-0.0476 0.0477"/>
    <path d="m10.48 20.175-0.0953 0.1428"/>
    <path d="m10.384 20.318-0.0476 0.1905"/>
    <path d="m10.337 20.508v0.3809"/>
    <path d="m10.337 20.889 0.0476 0.0953"/>
    <path d="m10.384 20.985 0.0476 0.0476"/>
    <path d="m10.432 21.032 0.0953 0.0476"/>
    <path d="m10.527 21.08h0.1905"/>
    <path d="m10.718 21.08 0.0952-0.0476"/>
    <path d="m10.813 21.032 0.0476-0.0476"/>
    <path d="m10.861 20.985 0.0476-0.0953"/>
    <path d="m10.908 20.889v-0.2381"/>
    <path d="m10.908 20.651-0.0476-0.0952"/>
    <path d="m10.861 20.556-0.0476-0.0476"/>
    <path d="m10.813 20.508-0.0952-0.0476"/>
    <path d="m10.718 20.461h-0.1905"/>
    <path d="m10.527 20.461-0.0953 0.0476"/>
    <path d="m10.432 20.508-0.0476 0.0476"/>
    <path d="m10.384 20.556-0.0476 0.0952"/>
   </g>
   <text x="28.6250" y="2.0750" font-size="1.3333" opacity="0" stroke-opacity="0" text-anchor="middle" lengthAdjust="spacingAndGlyphs" textLength="3.2976">SW2</text>
   <g class="stroked-text">
    <desc>SW2</desc>
    <path d="m27.292 1.9822 0.1428 0.0476"/>
    <path d="m27.434 2.0298h0.2381"/>
    <path d="m27.673 2.0298 0.0953-0.0476"/>
    <path d="m27.768 1.9822 0.0476-0.0476"/>
    <path d="m27.816 1.9346 0.0476-0.0953"/>
    <path d="m27.863 1.8393v-0.0952"/>
    <path d="m27.863 1.7441-0.0476-0.0952"/>
    <path d="m27.816 1.6489-0.0476-0.0477"/>
    <path d="m27.768 1.6012-0.0953-0.0476"/>
    <path d="m27.673 1.5536-0.1905-0.0476"/>
    <path d="m27.482 1.506-0.0952-0.0476"/>
    <path d="m27.387 1.4584-0.0476-0.0476"/>
    <path d="m27.339 1.4108-0.0476-0.0953"/>
    <path d="m27.292 1.3155v-0.0952"/>
    <path d="m27.292 1.2203 0.0476-0.0952"/>
    <path d="m27.339 1.1251 0.0476-0.0477"/>
    <path d="m27.387 1.0774 0.0952-0.0476"/>
    <path d="m27.482 1.0298h0.2381"/>
    <path d="m27.72 1.0298 0.1429 0.0476"/>
    <path d="m28.196 1.0298 0.2381 1"/>
    <path d="m28.434 2.0298 0.1905-0.7143"/>
    <path d="m28.625 1.3155 0.1905 0.7143"/>
    <path d="m28.816 2.0298 0.2381-1"/>
    <path d="m29.387 1.1251 0.0476-0.0477"/>
    <path d="m29.434 1.0774 0.0953-0.0476"/>
    <path d="m29.53 1.0298h0.2381"/>
    <path d="m29.768 1.0298 0.0952 0.0476"/>
    <path d="m29.863 1.0774 0.0476 0.0477"/>
    <path d="m29.911 1.1251 0.0476 0.0952"/>
    <path d="m29.958 1.2203v0.0952"/>
    <path d="m29.958 1.3155-0.0476 0.1429"/>
    <path d="m29.911 1.4584-0.5714 0.5714"/>
    <path d="m29.339 2.0298h0.619"/>
   </g>
   <text x="66.7250" y="21.1250" font-size="1.3333" opacity="0" stroke-opacity="0" text-anchor="middle" lengthAdjust="spacingAndGlyphs" textLength="3.2976">SW9</text>
   <g class="stroked-text">
    <desc>SW9</desc>
    <path d="m65.392 21.032 0.1428 0.0476"/>
    <path d="m65.534 21.08h0.2381"/>
    <path d="m65.773 21.08 0.0953-0.0476"/>
    <path d="m65.868 21.032 0.0476-0.0476"/>
    <path d="m65.916 20.985 0.0476-0.0953"/>
    <path d="m65.963 20.889v-0.0952"/>
    <path d="m65.963 20.794-0.0476-0.0952"/>
    <path d="m65.916 20.699-0.0476-0.0477"/>
    <path d="m65.868 20.651-0.0953-0.0476"/>
    <path d="m65.773 20.604-0.1905-0.0476"/>
    <path d="m65.582 20.556-0.0952-0.0476"/>
    <path d="m65.487 20.508-0.0476-0.0476"/>
    <path d="m65.439 20.461-0.0476-0.0953"/>
    <path d="m65.392 20.366v-0.0952"/>
    <path d="m65.392 20.27 0.0476-0.0952"/>
    <path d="m65.439 20.175 0.0476-0.0477"/>
    <path d="m65.487 20.127 0.0952-0.0476"/>
    <path d="m65.582 20.08h0.2381"/>
    <path d="m65.82 20.08 0.1429 0.0476"/>
    <path d="m66.296 20.08 0.2381 1"/>
    <path d="m66.534 21.08 0.1905-0.7143"/>
    <path d="m66.725 20.366 0.1905 0.7143"/>
    <path d="m66.916 21.08 0.2381-1"/>
    <path d="m67.582 21.08h0.1905"/>
    <path d="m67.773 21.08 0.0953-0.0476"/>
    <path d="m67.868 21.032 0.0476-0.0476"/>
    <path d="m67.916 20.985 0.0952-0.1429"/>
    <path d="m68.011 20.842 0.0476-0.1905"/>
    <path d="m68.058 20.651v-0.3809"/>
    <path d="m68.058 20.27-0.0476-0.0952"/>
    <path d="m68.011 20.175-0.0476-0.0477"/>
    <path d="m67.963 20.127-0.0952-0.0476"/>
    <path d="m67.868 20.08h-0.1905"/>
    <path d="m67.677 20.08-0.0953 0.0476"/>
    <path d="m67.582 20.127-0.0476 0.0477"/>
    <path d="m67.534 20.175-0.0476 0.0952"/>
    <path d="m67.487 20.27v0.2381"/>
    <path d="m67.487 20.508 0.0476 0.0952"/>
    <path d="m67.534 20.604 0.0476 0.0476"/>
    <path d="m67.582 20.651 0.0953 0.0477"/>
    <path d="m67.677 20.699h0.1905"/>
    <path d="m67.868 20.699 0.0952-0.0477"/>
    <path d="m67.963 20.651 0.0476-0.0476"/>
    <path d="m68.011 20.604 0.0476-0.0952"/>
   </g>
   <text x="9.5750" y="2.0750" font-size="1.3333" opacity="0" stroke-opacity="0" text-anchor="middle" lengthAdjust="spacingAndGlyphs" textLength="3.2976">SW1</text>
   <g class="stroked-text">
    <desc>SW1</desc>
    <path d="m8.2417 1.9822 0.1428 0.0476"/>
    <path d="m8.3845 2.0298h0.2381"/>
    <path d="m8.6226 2.0298 0.0953-0.0476"/>
    <path d="m8.7179 1.9822 0.0476-0.0476"/>
    <path d="m8.7655 1.9346 0.0476-0.0953"/>
    <path d="m8.8131 1.8393v-0.0952"/>
    <path d="m8.8131 1.7441-0.0476-0.0952"/>
    <path d="m8.7655 1.6489-0.0476-0.0477"/>
    <path d="m8.7179 1.6012-0.0953-0.0476"/>
    <path d="m8.6226 1.5536-0.1905-0.0476"/>
    <path d="m8.4321 1.506-0.0952-0.0476"/>
    <path d="m8.3369 1.4584-0.0476-0.0476"/>
    <path d="m8.2893 1.4108-0.0476-0.0953"/>
    <path d="m8.2417 1.3155v-0.0952"/>
    <path d="m8.2417 1.2203 0.0476-0.0952"/>
    <path d="m8.2893 1.1251 0.0476-0.0477"/>
    <path d="m8.3369 1.0774 0.0952-0.0476"/>
    <path d="m8.4321 1.0298h0.2381"/>
    <path d="m8.6702 1.0298 0.1429 0.0476"/>
    <path d="m9.1464 1.0298 0.2381 1"/>
    <path d="m9.3845 2.0298 0.1905-0.7143"/>
    <path d="m9.575 1.3155 0.1905 0.7143"/>
    <path d="m9.7655 2.0298 0.2381-1"/>
    <path d="m10.908 2.0298h-0.5714"/>
    <path d="m10.623 2.0298v-1"/>
    <path d="m10.623 1.0298-0.0952 0.1429"/>
    <path d="m10.527 1.1727-0.0953 0.0952"/>
    <path d="m10.432 1.2679-0.0952 0.0476"/>
   </g>
   <text x="66.7250" y="40.1750" font-size="1.3333" opacity="0" stroke-opacity="0" text-anchor="middle" lengthAdjust="spacingAndGlyphs" textLength="4.2500">SW14</text>
   <g class="stroked-text">
    <desc>SW14</desc>
    <path d="m64.916 40.082 0.1428 0.0476"/>
    <path d="m65.058 40.13h0.2381"/>
    <path d="m65.296 40.13 0.0953-0.0476"/>
    <path d="m65.392 40.082 0.0476-0.0476"/>
    <path d="m65.439 40.035 0.0476-0.0953"/>
    <path d="m65.487 39.939v-0.0952"/>
    <path d="m65.487 39.844-0.0476-0.0952"/>
    <path d="m65.439 39.749-0.0476-0.0477"/>
    <path d="m65.392 39.701-0.0953-0.0476"/>
    <path d="m65.296 39.654-0.1904-0.0476"/>
    <path d="m65.106 39.606-0.0953-0.0476"/>
    <path d="m65.011 39.558-0.0476-0.0476"/>
    <path d="m64.963 39.511-0.0476-0.0953"/>
    <path d="m64.916 39.416v-0.0952"/>
    <path d="m64.916 39.32 0.0476-0.0952"/>
    <path d="m64.963 39.225 0.0476-0.0477"/>
    <path d="m65.011 39.177 0.0953-0.0476"/>
    <path d="m65.106 39.13h0.238"/>
    <path d="m65.344 39.13 0.1429 0.0476"/>
    <path d="m65.82 39.13 0.2381 1"/>
    <path d="m66.058 40.13 0.1905-0.7143"/>
    <path d="m66.249 39.416 0.1905 0.7143"/>
    <path d="m66.439 40.13 0.2381-1"/>
    <path d="m67.582 40.13h-0.5714"/>
    <path d="m67.296 40.13v-1"/>
    <path d="m67.296 39.13-0.0952 0.1429"/>
    <path d="m67.201 39.273-0.0952 0.0952"/>
    <path d="m67.106 39.368-0.0953 0.0476"/>
    <path d="m68.439 39.463v0.6666"/>
    <path d="m68.201 39.082-0.2381 0.7143"/>
    <path d="m67.963 39.796h0.619"/>
   </g>
   <text x="9.5750" y="59.2250" font-size="1.3333" opacity="0" stroke-opacity="0" text-anchor="middle" lengthAdjust="spacingAndGlyphs" textLength="4.2500">SW16</text>
   <g class="stroked-text">
    <desc>SW16</desc>
    <path d="m7.7655 59.132 0.1428 0.0476"/>
    <path d="m7.9083 59.18h0.2381"/>
    <path d="m8.1464 59.18 0.0953-0.0476"/>
    <path d="m8.2417 59.132 0.0476-0.0476"/>
    <path d="m8.2893 59.085 0.0476-0.0953"/>
    <path d="m8.3369 58.989v-0.0952"/>
    <path d="m8.3369 58.894-0.0476-0.0952"/>
    <path d="m8.2893 58.799-0.0476-0.0477"/>
    <path d="m8.2417 58.751-0.0953-0.0476"/>
    <path d="m8.1464 58.704-0.1904-0.0476"/>
    <path d="m7.956 58.656-0.0953-0.0476"/>
    <path d="m7.8607 58.608-0.0476-0.0476"/>
    <path d="m7.8131 58.561-0.0476-0.0953"/>
    <path d="m7.7655 58.466v-0.0952"/>
    <path d="m7.7655 58.37 0.0476-0.0952"/>
    <path d="m7.8131 58.275 0.0476-0.0477"/>
    <path d="m7.8607 58.227 0.0953-0.0476"/>
    <path d="m7.956 58.18h0.238"/>
    <path d="m8.194 58.18 0.1429 0.0476"/>
    <path d="m8.6702 58.18 0.2381 1"/>
    <path d="m8.9083 59.18 0.1905-0.7143"/>
    <path d="m9.0988 58.466 0.1905 0.7143"/>
    <path d="m9.2893 59.18 0.2381-1"/>
    <path d="m10.432 59.18h-0.5714"/>
    <path d="m10.146 59.18v-1"/>
    <path d="m10.146 58.18-0.0952 0.1429"/>
    <path d="m10.051 58.323-0.0952 0.0952"/>
    <path d="m9.956 58.418-0.0953 0.0476"/>
    <path d="m11.289 58.18h-0.1905"/>
    <path d="m11.099 58.18-0.0952 0.0476"/>
    <path d="m11.004 58.227-0.0476 0.0477"/>
    <path d="m10.956 58.275-0.0953 0.1428"/>
    <path d="m10.861 58.418-0.0476 0.1905"/>
    <path d="m10.813 58.608v0.3809"/>
    <path d="m10.813 58.989 0.0476 0.0953"/>
    <path d="m10.861 59.085 0.0476 0.0476"/>
    <path d="m10.908 59.132 0.0953 0.0476"/>
    <path d="m11.004 59.18h0.1904"/>
    <path d="m11.194 59.18 0.0953-0.0476"/>
    <path d="m11.289 59.132 0.0476-0.0476"/>
    <path d="m11.337 59.085 0.0476-0.0953"/>
    <path d="m11.384 58.989v-0.2381"/>
    <path d="m11.384 58.751-0.0476-0.0952"/>
    <path d="m11.337 58.656-0.0476-0.0476"/>
    <path d="m11.289 58.608-0.0953-0.0476"/>
    <path d="m11.194 58.561h-0.1904"/>
    <path d="m11.004 58.561-0.0953 0.0476"/>
    <path d="m10.908 58.608-0.0476 0.0476"/>
    <path d="m10.861 58.656-0.0476 0.0952"/>
   </g>
   <text x="66.7250" y="2.0750" font-size="1.3333" opacity="0" stroke-opacity="0" text-anchor="middle" lengthAdjust="spacingAndGlyphs" textLength="3.2976">SW4</text>
   <g class="stroked-text">
    <desc>SW4</desc>
    <path d="m65.392 1.9822 0.1428 0.0476"/>
    <path d="m65.534 2.0298h0.2381"/>
    <path d="m65.773 2.0298 0.0953-0.0476"/>
    <path d="m65.868 1.9822 0.0476-0.0476"/>
    <path d="m65.916 1.9346 0.0476-0.0953"/>
    <path d="m65.963 1.8393v-0.0952"/>
    <path d="m65.963 1.7441-0.0476-0.0952"/>
    <path d="m65.916 1.6489-0.0476-0.0477"/>
    <path d="m65.868 1.6012-0.0953-0.0476"/>
    <path d="m65.773 1.5536-0.1905-0.0476"/>
    <path d="m65.582 1.506-0.0952-0.0476"/>
    <path d="m65.487 1.4584-0.0476-0.0476"/>
    <path d="m65.439 1.4108-0.0476-0.0953"/>
    <path d="m65.392 1.3155v-0.0952"/>
    <path d="m65.392 1.2203 0.0476-0.0952"/>
    <path d="m65.439 1.1251 0.0476-0.0477"/>
    <path d="m65.487 1.0774 0.0952-0.0476"/>
    <path d="m65.582 1.0298h0.2381"/>
    <path d="m65.82 1.0298 0.1429 0.0476"/>
    <path d="m66.296 1.0298 0.2381 1"/>
    <path d="m66.534 2.0298 0.1905-0.7143"/>
    <path d="m66.725 1.3155 0.1905 0.7143"/>
    <path d="m66.916 2.0298 0.2381-1"/>
    <path d="m67.963 1.3632v0.6666"/>
    <path d="m67.725 0.9822-0.2381 0.7143"/>
    <path d="m67.487 1.6965h0.6191"/>
   </g>
   <text x="47.6750" y="21.1250" font-size="1.3333" opacity="0" stroke-opacity="0" text-anchor="middle" lengthAdjust="spacingAndGlyphs" textLength="3.2976">SW8</text>
   <g class="stroked-text">
    <desc>SW8</desc>
    <path d="m46.342 21.032 0.1428 0.0476"/>
    <path d="m46.484 21.08h0.2381"/>
    <path d="m46.723 21.08 0.0953-0.0476"/>
    <path d="m46.818 21.032 0.0476-0.0476"/>
    <path d="m46.866 20.985 0.0476-0.0953"/>
    <path d="m46.913 20.889v-0.0952"/>
    <path d="m46.913 20.794-0.0476-0.0952"/>
    <path d="m46.866 20.699-0.0476-0.0477"/>
    <path d="m46.818 20.651-0.0953-0.0476"/>
    <path d="m46.723 20.604-0.1905-0.0476"/>
    <path d="m46.532 20.556-0.0952-0.0476"/>
    <path d="m46.437 20.508-0.0476-0.0476"/>
    <path d="m46.389 20.461-0.0476-0.0953"/>
    <path d="m46.342 20.366v-0.0952"/>
    <path d="m46.342 20.27 0.0476-0.0952"/>
    <path d="m46.389 20.175 0.0476-0.0477"/>
    <path d="m46.437 20.127 0.0952-0.0476"/>
    <path d="m46.532 20.08h0.2381"/>
    <path d="m46.77 20.08 0.1429 0.0476"/>
    <path d="m47.246 20.08 0.2381 1"/>
    <path d="m47.484 21.08 0.1905-0.7143"/>
    <path d="m47.675 20.366 0.1905 0.7143"/>
    <path d="m47.866 21.08 0.2381-1"/>
    <path d="m48.627 20.508-0.0953-0.0476"/>
    <path d="m48.532 20.461-0.0476-0.0476"/>
    <path d="m48.484 20.413-0.0476-0.0953"/>
    <path d="m48.437 20.318v-0.0476"/>
    <path d="m48.437 20.27 0.0476-0.0952"/>
    <path d="m48.484 20.175 0.0476-0.0477"/>
    <path d="m48.532 20.127 0.0953-0.0476"/>
    <path d="m48.627 20.08h0.1905"/>
    <path d="m48.818 20.08 0.0952 0.0476"/>
    <path d="m48.913 20.127 0.0476 0.0477"/>
    <path d="m48.961 20.175 0.0476 0.0952"/>
    <path d="m49.008 20.27v0.0476"/>
    <path d="m49.008 20.318-0.0476 0.0953"/>
    <path d="m48.961 20.413-0.0476 0.0476"/>
    <path d="m48.913 20.461-0.0952 0.0476"/>
    <path d="m48.818 20.508h-0.1905"/>
    <path d="m48.627 20.508-0.0953 0.0476"/>
    <path d="m48.532 20.556-0.0476 0.0476"/>
    <path d="m48.484 20.604-0.0476 0.0953"/>
    <path d="m48.437 20.699v0.1904"/>
    <path d="m48.437 20.889 0.0476 0.0953"/>
    <path d="m48.484 20.985 0.0476 0.0476"/>
    <path d="m48.532 21.032 0.0953 0.0476"/>
    <path d="m48.627 21.08h0.1905"/>
    <path d="m48.818 21.08 0.0952-0.0476"/>
    <path d="m48.913 21.032 0.0476-0.0476"/>
    <path d="m48.961 20.985 0.0476-0.0953"/>
    <path d="m49.008 20.889v-0.1904"/>
    <path d="m49.008 20.699-0.0476-0.0953"/>
    <path d="m48.961 20.604-0.0476-0.0476"/>
    <path d="m48.913 20.556-0.0952-0.0476"/>
   </g>
   <text x="47.6750" y="59.2250" font-size="1.3333" opacity="0" stroke-opacity="0" text-anchor="middle" lengthAdjust="spacingAndGlyphs" textLength="4.2500">SW18</text>
   <g class="stroked-text">
    <desc>SW18</desc>
    <path d="m45.866 59.132 0.1428 0.0476"/>
    <path d="m46.008 59.18h0.2381"/>
    <path d="m46.246 59.18 0.0953-0.0476"/>
    <path d="m46.342 59.132 0.0476-0.0476"/>
    <path d="m46.389 59.085 0.0476-0.0953"/>
    <path d="m46.437 58.989v-0.0952"/>
    <path d="m46.437 58.894-0.0476-0.0952"/>
    <path d="m46.389 58.799-0.0476-0.0477"/>
    <path d="m46.342 58.751-0.0953-0.0476"/>
    <path d="m46.246 58.704-0.1904-0.0476"/>
    <path d="m46.056 58.656-0.0953-0.0476"/>
    <path d="m45.961 58.608-0.0476-0.0476"/>
    <path d="m45.913 58.561-0.0476-0.0953"/>
    <path d="m45.866 58.466v-0.0952"/>
    <path d="m45.866 58.37 0.0476-0.0952"/>
    <path d="m45.913 58.275 0.0476-0.0477"/>
    <path d="m45.961 58.227 0.0953-0.0476"/>
    <path d="m46.056 58.18h0.238"/>
    <path d="m46.294 58.18 0.1429 0.0476"/>
    <path d="m46.77 58.18 0.2381 1"/>
    <path d="m47.008 59.18 0.1905-0.7143"/>
    <path d="m47.199 58.466 0.1905 0.7143"/>
    <path d="m47.389 59.18 0.2381-1"/>
    <path d="m48.532 59.18h-0.5714"/>
    <path d="m48.246 59.18v-1"/>
    <path d="m48.246 58.18-0.0952 0.1429"/>
    <path d="m48.151 58.323-0.0952 0.0952"/>
    <path d="m48.056 58.418-0.0953 0.0476"/>
    <path d="m49.104 58.608-0.0953-0.0476"/>
    <path d="m49.008 58.561-0.0476-0.0476"/>
    <path d="m48.961 58.513-0.0476-0.0953"/>
    <path d="m48.913 58.418v-0.0476"/>
    <path d="m48.913 58.37 0.0476-0.0952"/>
    <path d="m48.961 58.275 0.0476-0.0477"/>
    <path d="m49.008 58.227 0.0953-0.0476"/>
    <path d="m49.104 58.18h0.1904"/>
    <path d="m49.294 58.18 0.0953 0.0476"/>
    <path d="m49.389 58.227 0.0476 0.0477"/>
    <path d="m49.437 58.275 0.0476 0.0952"/>
    <path d="m49.484 58.37v0.0476"/>
    <path d="m49.484 58.418-0.0476 0.0953"/>
    <path d="m49.437 58.513-0.0476 0.0476"/>
    <path d="m49.389 58.561-0.0953 0.0476"/>
    <path d="m49.294 58.608h-0.1904"/>
    <path d="m49.104 58.608-0.0953 0.0476"/>
    <path d="m49.008 58.656-0.0476 0.0476"/>
    <path d="m48.961 58.704-0.0476 0.0953"/>
    <path d="m48.913 58.799v0.1904"/>
    <path d="m48.913 58.989 0.0476 0.0953"/>
    <path d="m48.961 59.085 0.0476 0.0476"/>
    <path d="m49.008 59.132 0.0953 0.0476"/>
    <path d="m49.104 59.18h0.1904"/>
    <path d="m49.294 59.18 0.0953-0.0476"/>
    <path d="m49.389 59.132 0.0476-0.0476"/>
    <path d="m49.437 59.085 0.0476-0.0953"/>
    <path d="m49.484 58.989v-0.1904"/>
    <path d="m49.484 58.799-0.0476-0.0953"/>
    <path d="m49.437 58.704-0.0476-0.0476"/>
    <path d="m49.389 58.656-0.0953-0.0476"/>
   </g>
   <text x="104.8875" y="50.5000" font-size="1.3333" opacity="0" stroke-opacity="0" text-anchor="middle" lengthAdjust="spacingAndGlyphs" textLength="4.2500">SW15</text>
   <g class="stroked-text">
    <desc>SW15</desc>
    <path d="m103.08 50.407 0.1428 0.0476"/>
    <path d="m103.22 50.455h0.2381"/>
    <path d="m103.46 50.455 0.0953-0.0476"/>
    <path d="m103.55 50.407 0.0476-0.0476"/>
    <path d="m103.6 50.36 0.0476-0.0953"/>
    <path d="m103.65 50.264v-0.0952"/>
    <path d="m103.65 50.169-0.0476-0.0952"/>
    <path d="m103.6 50.074-0.0476-0.0477"/>
    <path d="m103.55 50.026-0.0953-0.0476"/>
    <path d="m103.46 49.979-0.1904-0.0476"/>
    <path d="m103.27 49.931-0.0953-0.0476"/>
    <path d="m103.17 49.883-0.0476-0.0476"/>
    <path d="m103.13 49.836-0.0476-0.0953"/>
    <path d="m103.08 49.74v-0.0952"/>
    <path d="m103.08 49.645 0.0476-0.0952"/>
    <path d="m103.13 49.55 0.0476-0.0477"/>
    <path d="m103.17 49.502 0.0953-0.0476"/>
    <path d="m103.27 49.455h0.238"/>
    <path d="m103.51 49.455 0.1429 0.0476"/>
    <path d="m103.98 49.455 0.2381 1"/>
    <path d="m104.22 50.455 0.1905-0.7143"/>
    <path d="m104.41 49.74 0.1905 0.7143"/>
    <path d="m104.6 50.455 0.2381-1"/>
    <path d="m105.74 50.455h-0.5714"/>
    <path d="m105.46 50.455v-1"/>
    <path d="m105.46 49.455-0.0952 0.1429"/>
    <path d="m105.36 49.598-0.0952 0.0952"/>
    <path d="m105.27 49.693-0.0953 0.0476"/>
    <path d="m106.65 49.455h-0.4762"/>
    <path d="m106.17 49.455-0.0476 0.4762"/>
    <path d="m106.13 49.931 0.0476-0.0476"/>
    <path d="m106.17 49.883 0.0953-0.0476"/>
    <path d="m106.27 49.836h0.238"/>
    <path d="m106.51 49.836 0.0953 0.0476"/>
    <path d="m106.6 49.883 0.0476 0.0476"/>
    <path d="m106.65 49.931 0.0476 0.0952"/>
    <path d="m106.7 50.026v0.2381"/>
    <path d="m106.7 50.264-0.0476 0.0953"/>
    <path d="m106.65 50.36-0.0476 0.0476"/>
    <path d="m106.6 50.407-0.0953 0.0476"/>
    <path d="m106.51 50.455h-0.238"/>
    <path d="m106.27 50.455-0.0953-0.0476"/>
    <path d="m106.17 50.407-0.0476-0.0476"/>
   </g>
   <text x="119.1750" y="2.8750" font-size="1.3333" opacity="0" stroke-opacity="0" text-anchor="middle" lengthAdjust="spacingAndGlyphs" textLength="4.2500">SW10</text>
   <g class="stroked-text">
    <desc>SW10</desc>
    <path d="m117.37 2.7822 0.1428 0.0476"/>
    <path d="m117.51 2.8298h0.2381"/>
    <path d="m117.75 2.8298 0.0953-0.0476"/>
    <path d="m117.84 2.7822 0.0476-0.0476"/>
    <path d="m117.89 2.7346 0.0476-0.0953"/>
    <path d="m117.94 2.6393v-0.0952"/>
    <path d="m117.94 2.5441-0.0476-0.0952"/>
    <path d="m117.89 2.4489-0.0476-0.0477"/>
    <path d="m117.84 2.4012-0.0953-0.0476"/>
    <path d="m117.75 2.3536-0.1904-0.0476"/>
    <path d="m117.56 2.306-0.0953-0.0476"/>
    <path d="m117.46 2.2584-0.0476-0.0476"/>
    <path d="m117.41 2.2108-0.0476-0.0953"/>
    <path d="m117.37 2.1155v-0.0952"/>
    <path d="m117.37 2.0203 0.0476-0.0952"/>
    <path d="m117.41 1.9251 0.0476-0.0477"/>
    <path d="m117.46 1.8774 0.0953-0.0476"/>
    <path d="m117.56 1.8298h0.238"/>
    <path d="m117.79 1.8298 0.1429 0.0476"/>
    <path d="m118.27 1.8298 0.2381 1"/>
    <path d="m118.51 2.8298 0.1905-0.7143"/>
    <path d="m118.7 2.1155 0.1905 0.7143"/>
    <path d="m118.89 2.8298 0.2381-1"/>
    <path d="m120.03 2.8298h-0.5714"/>
    <path d="m119.75 2.8298v-1"/>
    <path d="m119.75 1.8298-0.0952 0.1429"/>
    <path d="m119.65 1.9727-0.0952 0.0952"/>
    <path d="m119.56 2.0679-0.0953 0.0476"/>
    <path d="m120.65 1.8298h0.0952"/>
    <path d="m120.75 1.8298 0.0953 0.0476"/>
    <path d="m120.84 1.8774 0.0476 0.0477"/>
    <path d="m120.89 1.9251 0.0476 0.0952"/>
    <path d="m120.94 2.0203 0.0476 0.1905"/>
    <path d="m120.98 2.2108v0.2381"/>
    <path d="m120.98 2.4489-0.0476 0.1904"/>
    <path d="m120.94 2.6393-0.0476 0.0953"/>
    <path d="m120.89 2.7346-0.0476 0.0476"/>
    <path d="m120.84 2.7822-0.0953 0.0476"/>
    <path d="m120.75 2.8298h-0.0952"/>
    <path d="m120.65 2.8298-0.0952-0.0476"/>
    <path d="m120.56 2.7822-0.0477-0.0476"/>
    <path d="m120.51 2.7346-0.0476-0.0953"/>
    <path d="m120.46 2.6393-0.0476-0.1904"/>
    <path d="m120.41 2.4489v-0.2381"/>
    <path d="m120.41 2.2108 0.0476-0.1905"/>
    <path d="m120.46 2.0203 0.0476-0.0952"/>
    <path d="m120.51 1.9251 0.0477-0.0477"/>
    <path d="m120.56 1.8774 0.0952-0.0476"/>
   </g>
   <text x="47.6750" y="2.0750" font-size="1.3333" opacity="0" stroke-opacity="0" text-anchor="middle" lengthAdjust="spacingAndGlyphs" textLength="3.2976">SW3</text>
   <g class="stroked-text">
    <desc>SW3</desc>
    <path d="m46.342 1.9822 0.1428 0.0476"/>
    <path d="m46.484 2.0298h0.2381"/>
    <path d="m46.723 2.0298 0.0953-0.0476"/>
    <path d="m46.818 1.9822 0.0476-0.0476"/>
    <path d="m46.866 1.9346 0.0476-0.0953"/>
    <path d="m46.913 1.8393v-0.0952"/>
    <path d="m46.913 1.7441-0.0476-0.0952"/>
    <path d="m46.866 1.6489-0.0476-0.0477"/>
    <path d="m46.818 1.6012-0.0953-0.0476"/>
    <path d="m46.723 1.5536-0.1905-0.0476"/>
    <path d="m46.532 1.506-0.0952-0.0476"/>
    <path d="m46.437 1.4584-0.0476-0.0476"/>
    <path d="m46.389 1.4108-0.0476-0.0953"/>
    <path d="m46.342 1.3155v-0.0952"/>
    <path d="m46.342 1.2203 0.0476-0.0952"/>
    <path d="m46.389 1.1251 0.0476-0.0477"/>
    <path d="m46.437 1.0774 0.0952-0.0476"/>
    <path d="m46.532 1.0298h0.2381"/>
    <path d="m46.77 1.0298 0.1429 0.0476"/>
    <path d="m47.246 1.0298 0.2381 1"/>
    <path d="m47.484 2.0298 0.1905-0.7143"/>
    <path d="m47.675 1.3155 0.1905 0.7143"/>
    <path d="m47.866 2.0298 0.2381-1"/>
    <path d="m48.389 1.0298h0.619"/>
    <path d="m49.008 1.0298-0.3333 0.381"/>
    <path d="m48.675 1.4108h0.1429"/>
    <path d="m48.818 1.4108 0.0952 0.0476"/>
    <path d="m48.913 1.4584 0.0476 0.0476"/>
    <path d="m48.961 1.506 0.0476 0.0952"/>
    <path d="m49.008 1.6012v0.2381"/>
    <path d="m49.008 1.8393-0.0476 0.0953"/>
    <path d="m48.961 1.9346-0.0476 0.0476"/>
    <path d="m48.913 1.9822-0.0952 0.0476"/>
    <path d="m48.818 2.0298h-0.2858"/>
    <path d="m48.532 2.0298-0.0952-0.0476"/>
    <path d="m48.437 1.9822-0.0476-0.0476"/>
   </g>
   <text x="66.7250" y="59.2250" font-size="1.3333" opacity="0" stroke-opacity="0" text-anchor="middle" lengthAdjust="spacingAndGlyphs" textLength="4.2500">SW19</text>
   <g class="stroked-text">
    <desc>SW19</desc>
    <path d="m64.916 59.132 0.1428 0.0476"/>
    <path d="m65.058 59.18h0.2381"/>
    <path d="m65.296 59.18 0.0953-0.0476"/>
    <path d="m65.392 59.132 0.0476-0.0476"/>
    <path d="m65.439 59.085 0.0476-0.0953"/>
    <path d="m65.487 58.989v-0.0952"/>
    <path d="m65.487 58.894-0.0476-0.0952"/>
    <path d="m65.439 58.799-0.0476-0.0477"/>
    <path d="m65.392 58.751-0.0953-0.0476"/>
    <path d="m65.296 58.704-0.1904-0.0476"/>
    <path d="m65.106 58.656-0.0953-0.0476"/>
    <path d="m65.011 58.608-0.0476-0.0476"/>
    <path d="m64.963 58.561-0.0476-0.0953"/>
    <path d="m64.916 58.466v-0.0952"/>
    <path d="m64.916 58.37 0.0476-0.0952"/>
    <path d="m64.963 58.275 0.0476-0.0477"/>
    <path d="m65.011 58.227 0.0953-0.0476"/>
    <path d="m65.106 58.18h0.238"/>
    <path d="m65.344 58.18 0.1429 0.0476"/>
    <path d="m65.82 58.18 0.2381 1"/>
    <path d="m66.058 59.18 0.1905-0.7143"/>
    <path d="m66.249 58.466 0.1905 0.7143"/>
    <path d="m66.439 59.18 0.2381-1"/>
    <path d="m67.582 59.18h-0.5714"/>
    <path d="m67.296 59.18v-1"/>
    <path d="m67.296 58.18-0.0952 0.1429"/>
    <path d="m67.201 58.323-0.0952 0.0952"/>
    <path d="m67.106 58.418-0.0953 0.0476"/>
    <path d="m68.058 59.18h0.1905"/>
    <path d="m68.249 59.18 0.0952-0.0476"/>
    <path d="m68.344 59.132 0.0477-0.0476"/>
    <path d="m68.392 59.085 0.0952-0.1429"/>
    <path d="m68.487 58.942 0.0476-0.1905"/>
    <path d="m68.534 58.751v-0.3809"/>
    <path d="m68.534 58.37-0.0476-0.0952"/>
    <path d="m68.487 58.275-0.0476-0.0477"/>
    <path d="m68.439 58.227-0.0953-0.0476"/>
    <path d="m68.344 58.18h-0.1904"/>
    <path d="m68.154 58.18-0.0953 0.0476"/>
    <path d="m68.058 58.227-0.0476 0.0477"/>
    <path d="m68.011 58.275-0.0476 0.0952"/>
    <path d="m67.963 58.37v0.2381"/>
    <path d="m67.963 58.608 0.0476 0.0952"/>
    <path d="m68.011 58.704 0.0476 0.0476"/>
    <path d="m68.058 58.751 0.0953 0.0477"/>
    <path d="m68.154 58.799h0.1904"/>
    <path d="m68.344 58.799 0.0953-0.0477"/>
    <path d="m68.439 58.751 0.0476-0.0476"/>
    <path d="m68.487 58.704 0.0476-0.0952"/>
   </g>
   <text x="47.6750" y="40.1750" font-size="1.3333" opacity="0" stroke-opacity="0" text-anchor="middle" lengthAdjust="spacingAndGlyphs" textLength="4.2500">SW13</text>
   <g class="stroked-text">
    <desc>SW13</desc>
    <path d="m45.866 40.082 0.1428 0.0476"/>
    <path d="m46.008 40.13h0.2381"/>
    <path d="m46.246 40.13 0.0953-0.0476"/>
    <path d="m46.342 40.082 0.0476-0.0476"/>
    <path d="m46.389 40.035 0.0476-0.0953"/>
    <path d="m46.437 39.939v-0.0952"/>
    <path d="m46.437 39.844-0.0476-0.0952"/>
    <path d="m46.389 39.749-0.0476-0.0477"/>
    <path d="m46.342 39.701-0.0953-0.0476"/>
    <path d="m46.246 39.654-0.1904-0.0476"/>
    <path d="m46.056 39.606-0.0953-0.0476"/>
    <path d="m45.961 39.558-0.0476-0.0476"/>
    <path d="m45.913 39.511-0.0476-0.0953"/>
    <path d="m45.866 39.416v-0.0952"/>
    <path d="m45.866 39.32 0.0476-0.0952"/>
    <path d="m45.913 39.225 0.0476-0.0477"/>
    <path d="m45.961 39.177 0.0953-0.0476"/>
    <path d="m46.056 39.13h0.238"/>
    <path d="m46.294 39.13 0.1429 0.0476"/>
    <path d="m46.77 39.13 0.2381 1"/>
    <path d="m47.008 40.13 0.1905-0.7143"/>
    <path d="m47.199 39.416 0.1905 0.7143"/>
    <path d="m47.389 40.13 0.2381-1"/>
    <path d="m48.532 40.13h-0.5714"/>
    <path d="m48.246 40.13v-1"/>
    <path d="m48.246 39.13-0.0952 0.1429"/>
    <path d="m48.151 39.273-0.0952 0.0952"/>
    <path d="m48.056 39.368-0.0953 0.0476"/>
    <path d="m48.866 39.13h0.619"/>
    <path d="m49.484 39.13-0.3333 0.381"/>
    <path d="m49.151 39.511h0.1428"/>
    <path d="m49.294 39.511 0.0953 0.0476"/>
    <path d="m49.389 39.558 0.0476 0.0476"/>
    <path d="m49.437 39.606 0.0476 0.0952"/>
    <path d="m49.484 39.701v0.2381"/>
    <path d="m49.484 39.939-0.0476 0.0953"/>
    <path d="m49.437 40.035-0.0476 0.0476"/>
    <path d="m49.389 40.082-0.0953 0.0476"/>
    <path d="m49.294 40.13h-0.2857"/>
    <path d="m49.008 40.13-0.0952-0.0476"/>
    <path d="m48.913 40.082-0.0476-0.0476"/>
   </g>
  </g>
  <g stroke="#8BE9FD" stroke-width=".12">
   <path d="m21.525 40.575v14.2"/>
   <path d="m21.525 54.775h14.2"/>
   <path d="m35.725 40.575h-14.2"/>
   <path d="m35.725 54.775v-14.2"/>
   <path d="m21.525 21.525v14.2"/>
   <path d="m21.525 35.725h14.2"/>
   <path d="m35.725 21.525h-14.2"/>
   <path d="m35.725 35.725v-14.2"/>
   <path d="m2.475 40.575v14.2"/>
   <path d="m2.475 54.775h14.2"/>
   <path d="m16.675 40.575h-14.2"/>
   <path d="m16.675 54.775v-14.2"/>
   <path d="m87.5 5.475h0.6"/>
   <path d="m87.8 5.775-0.3-0.3"/>
   <path d="m88.1 5.475-0.3 0.3"/>
   <path d="m89.2 3.675v11.8"/>
   <path d="m93.3 3.675h-4.1"/>
   <path d="m93.3 15.475h-4.1"/>
   <path d="m94.8 9.575h1"/>
   <path d="m95.3 9.075v1"/>
   <path d="m97.3 3.675h4.1"/>
   <path d="m101.4 3.675v2.4"/>
   <path d="m101.4 8.275v2.6"/>
   <path d="m101.4 13.075v2.4"/>
   <path d="m101.4 15.475h-4.1"/>
   <circle cx="95.3" cy="9.575" r="3"/>
   <path d="m21.525 59.625v14.2"/>
   <path d="m21.525 73.825h14.2"/>
   <path d="m35.725 59.625h-14.2"/>
   <path d="m35.725 73.825v-14.2"/>
   <path d="m2.475 21.525v14.2"/>
   <path d="m2.475 35.725h14.2"/>
   <path d="m16.675 21.525h-14.2"/>
   <path d="m16.675 35.725v-14.2"/>
   <path d="m21.525 2.475v14.2"/>
   <path d="m21.525 16.675h14.2"/>
   <path d="m35.725 2.475h-14.2"/>
   <path d="m35.725 16.675v-14.2"/>
   <path d="m59.625 21.525v14.2"/>
   <path d="m59.625 35.725h14.2"/>
   <path d="m73.825 21.525h-14.2"/>
   <path d="m73.825 35.725v-14.2"/>
   <path d="m2.475 2.475v14.2"/>
   <path d="m2.475 16.675h14.2"/>
   <path d="m16.675 2.475h-14.2"/>
   <path d="m16.675 16.675v-14.2"/>
   <path d="m59.625 40.575v14.2"/>
   <path d="m59.625 54.775h14.2"/>
   <path d="m73.825 40.575h-14.2"/>
   <path d="m73.825 54.775v-14.2"/>
   <path d="m2.475 59.625v14.2"/>
   <path d="m2.475 73.825h14.2"/>
   <path d="m16.675 59.625h-14.2"/>
   <path d="m16.675 73.825v-14.2"/>
   <path d="m59.625 2.475v14.2"/>
   <path d="m59.625 16.675h14.2"/>
   <path d="m73.825 2.475h-14.2"/>
   <path d="m73.825 16.675v-14.2"/>
   <path d="m40.575 21.525v14.2"/>
   <path d="m40.575 35.725h14.2"/>
   <path d="m54.775 21.525h-14.2"/>
   <path d="m54.775 35.725v-14.2"/>
   <path d="m40.575 59.625v14.2"/>
   <path d="m40.575 73.825h14.2"/>
   <path d="m54.775 59.625h-14.2"/>
   <path d="m54.775 73.825v-14.2"/>
   <path d="m101.79 53.1h0.6"/>
   <path d="m102.09 53.4-0.3-0.3"/>
   <path d="m102.39 53.1-0.3 0.3"/>
   <path d="m103.49 51.3v11.8"/>
   <path d="m107.59 51.3h-4.1"/>
   <path d="m107.59 63.1h-4.1"/>
   <path d="m109.09 57.2h1"/>
   <path d="m109.59 56.7v1"/>
   <path d="m111.59 51.3h4.1"/>
   <path d="m115.69 51.3v2.4"/>
   <path d="m115.69 55.9v2.6"/>
   <path d="m115.69 60.7v2.4"/>
   <path d="m115.69 63.1h-4.1"/>
   <circle cx="109.59" cy="57.2" r="3"/>
   <path d="m116.08 5.475h0.6"/>
   <path d="m116.38 5.775-0.3-0.3"/>
   <path d="m116.68 5.475-0.3 0.3"/>
   <path d="m117.78 3.675v11.8"/>
   <path d="m121.88 3.675h-4.1"/>
   <path d="m121.88 15.475h-4.1"/>
   <path d="m123.38 9.575h1"/>
   <path d="m123.88 9.075v1"/>
   <path d="m125.88 3.675h4.1"/>
   <path d="m129.98 3.675v2.4"/>
   <path d="m129.98 8.275v2.6"/>
   <path d="m129.98 13.075v2.4"/>
   <path d="m129.98 15.475h-4.1"/>
   <circle cx="123.88" cy="9.575" r="3"/>
   <path d="m40.575 2.475v14.2"/>
   <path d="m40.575 16.675h14.2"/>
   <path d="m54.775 2.475h-14.2"/>
   <path d="m54.775 16.675v-14.2"/>
   <path d="m59.625 59.625v14.2"/>
   <path d="m59.625 73.825h14.2"/>
   <path d="m73.825 59.625h-14.2"/>
   <path d="m73.825 73.825v-14.2"/>
   <path d="m40.575 40.575v14.2"/>
   <path d="m40.575 54.775h14.2"/>
   <path d="m54.775 40.575h-14.2"/>
   <path d="m54.775 54.775v-14.2"/>
  </g>
  <g stroke="#BD93F9" stroke-width=".15">
   <g transform="rotate(-90 73.71 70.852)">
    <text transform="scale(-1 1) translate(-147.42)" x="73.7100" y="71.3520" font-size="1.3333" opacity="0" stroke-opacity="0" text-anchor="middle" lengthAdjust="spacingAndGlyphs" textLength="3.1548">D19</text>
   </g>
   <g class="stroked-text">
    <desc>D19</desc>
    <path d="m74.165 69.638h-1"/>
    <path d="m73.165 69.638v0.2381"/>
    <path d="m73.165 69.876 0.0476 0.1429"/>
    <path d="m73.212 70.019 0.0953 0.0952"/>
    <path d="m73.308 70.114 0.0952 0.0476"/>
    <path d="m73.403 70.162 0.1905 0.0476"/>
    <path d="m73.593 70.209h0.1428"/>
    <path d="m73.736 70.209 0.1905-0.0476"/>
    <path d="m73.927 70.162 0.0953-0.0476"/>
    <path d="m74.022 70.114 0.0952-0.0952"/>
    <path d="m74.117 70.019 0.0476-0.1429"/>
    <path d="m74.165 69.876v-0.2381"/>
    <path d="m74.165 71.162v-0.5714"/>
    <path d="m74.165 70.876h-1"/>
    <path d="m73.165 70.876 0.1429-0.0952"/>
    <path d="m73.308 70.781 0.0952-0.0953"/>
    <path d="m73.403 70.685 0.0476-0.0952"/>
    <path d="m74.165 71.638v0.1905"/>
    <path d="m74.165 71.828-0.0476 0.0952"/>
    <path d="m74.117 71.923-0.0476 0.0476"/>
    <path d="m74.07 71.971-0.1429 0.0953"/>
    <path d="m73.927 72.066-0.1905 0.0476"/>
    <path d="m73.736 72.114h-0.3809"/>
    <path d="m73.355 72.114-0.0952-0.0476"/>
    <path d="m73.26 72.066-0.0477-0.0476"/>
    <path d="m73.212 72.019-0.0476-0.0953"/>
    <path d="m73.165 71.923v-0.1904"/>
    <path d="m73.165 71.733 0.0476-0.0953"/>
    <path d="m73.212 71.638 0.0477-0.0476"/>
    <path d="m73.26 71.59 0.0952-0.0476"/>
    <path d="m73.355 71.542h0.2381"/>
    <path d="m73.593 71.542 0.0952 0.0476"/>
    <path d="m73.689 71.59 0.0476 0.0476"/>
    <path d="m73.736 71.638 0.0477 0.0953"/>
    <path d="m73.784 71.733v0.1904"/>
    <path d="m73.784 71.923-0.0477 0.0953"/>
    <path d="m73.736 72.019-0.0476 0.0476"/>
    <path d="m73.689 72.066-0.0952 0.0476"/>
   </g>
   <g transform="rotate(-90 54.66 32.752)">
    <text transform="scale(-1 1) translate(-109.32)" x="54.6600" y="33.2520" font-size="1.3333" opacity="0" stroke-opacity="0" text-anchor="middle" lengthAdjust="spacingAndGlyphs" textLength="2.2024">D8</text>
   </g>
   <g class="stroked-text">
    <desc>D8</desc>
    <path d="m55.115 32.014h-1"/>
    <path d="m54.115 32.014v0.2381"/>
    <path d="m54.115 32.252 0.0476 0.1429"/>
    <path d="m54.162 32.395 0.0953 0.0952"/>
    <path d="m54.258 32.49 0.0952 0.0476"/>
    <path d="m54.353 32.538 0.1905 0.0476"/>
    <path d="m54.543 32.585h0.1428"/>
    <path d="m54.686 32.585 0.1905-0.0476"/>
    <path d="m54.877 32.538 0.0953-0.0476"/>
    <path d="m54.972 32.49 0.0952-0.0952"/>
    <path d="m55.067 32.395 0.0476-0.1429"/>
    <path d="m55.115 32.252v-0.2381"/>
    <path d="m54.543 33.157-0.0476-0.0953"/>
    <path d="m54.496 33.062-0.0476-0.0476"/>
    <path d="m54.448 33.014-0.0953-0.0476"/>
    <path d="m54.353 32.966h-0.0476"/>
    <path d="m54.305 32.966-0.0952 0.0476"/>
    <path d="m54.21 33.014-0.0477 0.0476"/>
    <path d="m54.162 33.062-0.0476 0.0953"/>
    <path d="m54.115 33.157v0.1904"/>
    <path d="m54.115 33.347 0.0476 0.0953"/>
    <path d="m54.162 33.442 0.0477 0.0476"/>
    <path d="m54.21 33.49 0.0952 0.0476"/>
    <path d="m54.305 33.538h0.0476"/>
    <path d="m54.353 33.538 0.0953-0.0476"/>
    <path d="m54.448 33.49 0.0476-0.0476"/>
    <path d="m54.496 33.442 0.0476-0.0953"/>
    <path d="m54.543 33.347v-0.1904"/>
    <path d="m54.543 33.157 0.0476-0.0953"/>
    <path d="m54.591 33.062 0.0476-0.0476"/>
    <path d="m54.639 33.014 0.0953-0.0476"/>
    <path d="m54.734 32.966h0.1904"/>
    <path d="m54.924 32.966 0.0953 0.0476"/>
    <path d="m55.02 33.014 0.0476 0.0476"/>
    <path d="m55.067 33.062 0.0476 0.0953"/>
    <path d="m55.115 33.157v0.1904"/>
    <path d="m55.115 33.347-0.0476 0.0953"/>
    <path d="m55.067 33.442-0.0476 0.0476"/>
    <path d="m55.02 33.49-0.0953 0.0476"/>
    <path d="m54.924 33.538h-0.1904"/>
    <path d="m54.734 33.538-0.0953-0.0476"/>
    <path d="m54.639 33.49-0.0476-0.0476"/>
    <path d="m54.591 33.442-0.0476-0.0953"/>
   </g>
   <g transform="rotate(-90 16.56 51.802)">
    <text transform="scale(-1 1) translate(-33.12)" x="16.5600" y="52.3020" font-size="1.3333" opacity="0" stroke-opacity="0" text-anchor="middle" lengthAdjust="spacingAndGlyphs" textLength="3.1548">D11</text>
   </g>
   <g class="stroked-text">
    <desc>D11</desc>
    <path d="m17.015 50.588h-1"/>
    <path d="m16.015 50.588v0.2381"/>
    <path d="m16.015 50.826 0.0476 0.1429"/>
    <path d="m16.062 50.969 0.0953 0.0952"/>
    <path d="m16.158 51.064 0.0952 0.0476"/>
    <path d="m16.253 51.112 0.1905 0.0476"/>
    <path d="m16.443 51.159h0.1428"/>
    <path d="m16.586 51.159 0.1905-0.0476"/>
    <path d="m16.777 51.112 0.0953-0.0476"/>
    <path d="m16.872 51.064 0.0952-0.0952"/>
    <path d="m16.967 50.969 0.0476-0.1429"/>
    <path d="m17.015 50.826v-0.2381"/>
    <path d="m17.015 52.112v-0.5714"/>
    <path d="m17.015 51.826h-1"/>
    <path d="m16.015 51.826 0.1429-0.0952"/>
    <path d="m16.158 51.731 0.0952-0.0953"/>
    <path d="m16.253 51.635 0.0476-0.0952"/>
    <path d="m17.015 53.064v-0.5714"/>
    <path d="m17.015 52.778h-1"/>
    <path d="m16.015 52.778 0.1429-0.0952"/>
    <path d="m16.158 52.683 0.0952-0.0953"/>
    <path d="m16.253 52.588 0.0476-0.0952"/>
   </g>
   <g transform="rotate(-90 35.61 70.852)">
    <text transform="scale(-1 1) translate(-71.22)" x="35.6100" y="71.3520" font-size="1.3333" opacity="0" stroke-opacity="0" text-anchor="middle" lengthAdjust="spacingAndGlyphs" textLength="3.1548">D17</text>
   </g>
   <g class="stroked-text">
    <desc>D17</desc>
    <path d="m36.065 69.638h-1"/>
    <path d="m35.065 69.638v0.2381"/>
    <path d="m35.065 69.876 0.0476 0.1429"/>
    <path d="m35.112 70.019 0.0953 0.0952"/>
    <path d="m35.208 70.114 0.0952 0.0476"/>
    <path d="m35.303 70.162 0.1905 0.0476"/>
    <path d="m35.493 70.209h0.1428"/>
    <path d="m35.636 70.209 0.1905-0.0476"/>
    <path d="m35.827 70.162 0.0953-0.0476"/>
    <path d="m35.922 70.114 0.0952-0.0952"/>
    <path d="m36.017 70.019 0.0476-0.1429"/>
    <path d="m36.065 69.876v-0.2381"/>
    <path d="m36.065 71.162v-0.5714"/>
    <path d="m36.065 70.876h-1"/>
    <path d="m35.065 70.876 0.1429-0.0952"/>
    <path d="m35.208 70.781 0.0952-0.0953"/>
    <path d="m35.303 70.685 0.0476-0.0952"/>
    <path d="m35.065 71.495v0.6666"/>
    <path d="m35.065 72.162 1-0.4285"/>
   </g>
   <g transform="rotate(-90 54.66 51.802)">
    <text transform="scale(-1 1) translate(-109.32)" x="54.6600" y="52.3020" font-size="1.3333" opacity="0" stroke-opacity="0" text-anchor="middle" lengthAdjust="spacingAndGlyphs" textLength="3.1548">D13</text>
   </g>
   <g class="stroked-text">
    <desc>D13</desc>
    <path d="m55.115 50.588h-1"/>
    <path d="m54.115 50.588v0.2381"/>
    <path d="m54.115 50.826 0.0476 0.1429"/>
    <path d="m54.162 50.969 0.0953 0.0952"/>
    <path d="m54.258 51.064 0.0952 0.0476"/>
    <path d="m54.353 51.112 0.1905 0.0476"/>
    <path d="m54.543 51.159h0.1428"/>
    <path d="m54.686 51.159 0.1905-0.0476"/>
    <path d="m54.877 51.112 0.0953-0.0476"/>
    <path d="m54.972 51.064 0.0952-0.0952"/>
    <path d="m55.067 50.969 0.0476-0.1429"/>
    <path d="m55.115 50.826v-0.2381"/>
    <path d="m55.115 52.112v-0.5714"/>
    <path d="m55.115 51.826h-1"/>
    <path d="m54.115 51.826 0.1429-0.0952"/>
    <path d="m54.258 51.731 0.0952-0.0953"/>
    <path d="m54.353 51.635 0.0476-0.0952"/>
    <path d="m54.115 52.445v0.619"/>
    <path d="m54.115 53.064 0.381-0.3333"/>
    <path d="m54.496 52.731v0.1428"/>
    <path d="m54.496 52.873 0.0476 0.0953"/>
    <path d="m54.543 52.969 0.0476 0.0476"/>
    <path d="m54.591 53.016 0.0952 0.0476"/>
    <path d="m54.686 53.064h0.2381"/>
    <path d="m54.924 53.064 0.0953-0.0476"/>
    <path d="m55.02 53.016 0.0476-0.0476"/>
    <path d="m55.067 52.969 0.0476-0.0953"/>
    <path d="m55.115 52.873v-0.2857"/>
    <path d="m55.115 52.588-0.0476-0.0952"/>
    <path d="m55.067 52.492-0.0476-0.0476"/>
   </g>
   <g transform="rotate(-90 35.61 13.702)">
    <text transform="scale(-1 1) translate(-71.22)" x="35.6100" y="14.2020" font-size="1.3333" opacity="0" stroke-opacity="0" text-anchor="middle" lengthAdjust="spacingAndGlyphs" textLength="2.2024">D2</text>
   </g>
   <g class="stroked-text">
    <desc>D2</desc>
    <path d="m36.065 12.964h-1"/>
    <path d="m35.065 12.964v0.2381"/>
    <path d="m35.065 13.202 0.0476 0.1429"/>
    <path d="m35.112 13.345 0.0953 0.0952"/>
    <path d="m35.208 13.44 0.0952 0.0476"/>
    <path d="m35.303 13.488 0.1905 0.0476"/>
    <path d="m35.493 13.535h0.1428"/>
    <path d="m35.636 13.535 0.1905-0.0476"/>
    <path d="m35.827 13.488 0.0953-0.0476"/>
    <path d="m35.922 13.44 0.0952-0.0952"/>
    <path d="m36.017 13.345 0.0476-0.1429"/>
    <path d="m36.065 13.202v-0.2381"/>
    <path d="m35.16 13.916-0.0477 0.0476"/>
    <path d="m35.112 13.964-0.0476 0.0952"/>
    <path d="m35.065 14.059v0.2381"/>
    <path d="m35.065 14.297 0.0476 0.0953"/>
    <path d="m35.112 14.392 0.0477 0.0476"/>
    <path d="m35.16 14.44 0.0952 0.0476"/>
    <path d="m35.255 14.488h0.0952"/>
    <path d="m35.35 14.488 0.1429-0.0476"/>
    <path d="m35.493 14.44 0.5714-0.5714"/>
    <path d="m36.065 13.869v0.619"/>
   </g>
   <g transform="rotate(-90 16.56 13.702)">
    <text transform="scale(-1 1) translate(-33.12)" x="16.5600" y="14.2020" font-size="1.3333" opacity="0" stroke-opacity="0" text-anchor="middle" lengthAdjust="spacingAndGlyphs" textLength="2.2024">D1</text>
   </g>
   <g class="stroked-text">
    <desc>D1</desc>
    <path d="m17.015 12.964h-1"/>
    <path d="m16.015 12.964v0.2381"/>
    <path d="m16.015 13.202 0.0476 0.1429"/>
    <path d="m16.062 13.345 0.0953 0.0952"/>
    <path d="m16.158 13.44 0.0952 0.0476"/>
    <path d="m16.253 13.488 0.1905 0.0476"/>
    <path d="m16.443 13.535h0.1428"/>
    <path d="m16.586 13.535 0.1905-0.0476"/>
    <path d="m16.777 13.488 0.0953-0.0476"/>
    <path d="m16.872 13.44 0.0952-0.0952"/>
    <path d="m16.967 13.345 0.0476-0.1429"/>
    <path d="m17.015 13.202v-0.2381"/>
    <path d="m17.015 14.488v-0.5714"/>
    <path d="m17.015 14.202h-1"/>
    <path d="m16.015 14.202 0.1429-0.0952"/>
    <path d="m16.158 14.107 0.0952-0.0953"/>
    <path d="m16.253 14.012 0.0476-0.0952"/>
   </g>
   <g transform="rotate(-90 35.61 32.752)">
    <text transform="scale(-1 1) translate(-71.22)" x="35.6100" y="33.2520" font-size="1.3333" opacity="0" stroke-opacity="0" text-anchor="middle" lengthAdjust="spacingAndGlyphs" textLength="2.2024">D7</text>
   </g>
   <g class="stroked-text">
    <desc>D7</desc>
    <path d="m36.065 32.014h-1"/>
    <path d="m35.065 32.014v0.2381"/>
    <path d="m35.065 32.252 0.0476 0.1429"/>
    <path d="m35.112 32.395 0.0953 0.0952"/>
    <path d="m35.208 32.49 0.0952 0.0476"/>
    <path d="m35.303 32.538 0.1905 0.0476"/>
    <path d="m35.493 32.585h0.1428"/>
    <path d="m35.636 32.585 0.1905-0.0476"/>
    <path d="m35.827 32.538 0.0953-0.0476"/>
    <path d="m35.922 32.49 0.0952-0.0952"/>
    <path d="m36.017 32.395 0.0476-0.1429"/>
    <path d="m36.065 32.252v-0.2381"/>
    <path d="m35.065 32.919v0.6666"/>
    <path d="m35.065 33.585 1-0.4285"/>
   </g>
   <g transform="rotate(-90 123.36 11.202)">
    <text transform="scale(-1 1) translate(-246.72)" x="123.3600" y="11.7020" font-size="1.3333" opacity="0" stroke-opacity="0" text-anchor="middle" lengthAdjust="spacingAndGlyphs" textLength="3.1548">D10</text>
   </g>
   <g class="stroked-text">
    <desc>D10</desc>
    <path d="m123.81 9.9877h-1"/>
    <path d="m122.81 9.9877v0.2381"/>
    <path d="m122.81 10.226 0.0476 0.1429"/>
    <path d="m122.86 10.369 0.0953 0.0952"/>
    <path d="m122.96 10.464 0.0952 0.0476"/>
    <path d="m123.05 10.512 0.1905 0.0476"/>
    <path d="m123.24 10.559h0.1428"/>
    <path d="m123.39 10.559 0.1905-0.0476"/>
    <path d="m123.58 10.512 0.0953-0.0476"/>
    <path d="m123.67 10.464 0.0952-0.0952"/>
    <path d="m123.77 10.369 0.0476-0.1429"/>
    <path d="m123.81 10.226v-0.2381"/>
    <path d="m123.81 11.512v-0.5714"/>
    <path d="m123.81 11.226h-1"/>
    <path d="m122.81 11.226 0.1429-0.0952"/>
    <path d="m122.96 11.131 0.0952-0.0953"/>
    <path d="m123.05 11.035 0.0476-0.0952"/>
    <path d="m122.81 12.131v0.0952"/>
    <path d="m122.81 12.226 0.0476 0.0952"/>
    <path d="m122.86 12.321 0.0477 0.0477"/>
    <path d="m122.91 12.369 0.0952 0.0476"/>
    <path d="m123.01 12.416 0.1905 0.0476"/>
    <path d="m123.2 12.464h0.2381"/>
    <path d="m123.43 12.464 0.1904-0.0476"/>
    <path d="m123.62 12.416 0.0953-0.0476"/>
    <path d="m123.72 12.369 0.0476-0.0477"/>
    <path d="m123.77 12.321 0.0476-0.0952"/>
    <path d="m123.81 12.226v-0.0952"/>
    <path d="m123.81 12.131-0.0476-0.0953"/>
    <path d="m123.77 12.035-0.0476-0.0476"/>
    <path d="m123.72 11.988-0.0953-0.0476"/>
    <path d="m123.62 11.94-0.1904-0.0476"/>
    <path d="m123.43 11.892h-0.2381"/>
    <path d="m123.2 11.892-0.1905 0.0476"/>
    <path d="m123.01 11.94-0.0952 0.0476"/>
    <path d="m122.91 11.988-0.0477 0.0476"/>
    <path d="m122.86 12.035-0.0476 0.0953"/>
   </g>
   <g transform="rotate(-90 54.66 13.702)">
    <text transform="scale(-1 1) translate(-109.32)" x="54.6600" y="14.2020" font-size="1.3333" opacity="0" stroke-opacity="0" text-anchor="middle" lengthAdjust="spacingAndGlyphs" textLength="2.2024">D3</text>
   </g>
   <g class="stroked-text">
    <desc>D3</desc>
    <path d="m55.115 12.964h-1"/>
    <path d="m54.115 12.964v0.2381"/>
    <path d="m54.115 13.202 0.0476 0.1429"/>
    <path d="m54.162 13.345 0.0953 0.0952"/>
    <path d="m54.258 13.44 0.0952 0.0476"/>
    <path d="m54.353 13.488 0.1905 0.0476"/>
    <path d="m54.543 13.535h0.1428"/>
    <path d="m54.686 13.535 0.1905-0.0476"/>
    <path d="m54.877 13.488 0.0953-0.0476"/>
    <path d="m54.972 13.44 0.0952-0.0952"/>
    <path d="m55.067 13.345 0.0476-0.1429"/>
    <path d="m55.115 13.202v-0.2381"/>
    <path d="m54.115 13.869v0.619"/>
    <path d="m54.115 14.488 0.381-0.3333"/>
    <path d="m54.496 14.154v0.1428"/>
    <path d="m54.496 14.297 0.0476 0.0953"/>
    <path d="m54.543 14.392 0.0476 0.0476"/>
    <path d="m54.591 14.44 0.0952 0.0476"/>
    <path d="m54.686 14.488h0.2381"/>
    <path d="m54.924 14.488 0.0953-0.0476"/>
    <path d="m55.02 14.44 0.0476-0.0476"/>
    <path d="m55.067 14.392 0.0476-0.0953"/>
    <path d="m55.115 14.297v-0.2857"/>
    <path d="m55.115 14.012-0.0476-0.0952"/>
    <path d="m55.067 13.916-0.0476-0.0476"/>
   </g>
   <g transform="rotate(-90 94.785 11.202)">
    <text transform="scale(-1 1) translate(-189.57)" x="94.7850" y="11.7020" font-size="1.3333" opacity="0" stroke-opacity="0" text-anchor="middle" lengthAdjust="spacingAndGlyphs" textLength="2.2024">D5</text>
   </g>
   <g class="stroked-text">
    <desc>D5</desc>
    <path d="m95.24 10.464h-1"/>
    <path d="m94.24 10.464v0.2381"/>
    <path d="m94.24 10.702 0.0476 0.1429"/>
    <path d="m94.287 10.845 0.0953 0.0952"/>
    <path d="m94.383 10.94 0.0952 0.0476"/>
    <path d="m94.478 10.988 0.1905 0.0476"/>
    <path d="m94.668 11.035h0.1428"/>
    <path d="m94.811 11.035 0.1905-0.0476"/>
    <path d="m95.002 10.988 0.0953-0.0476"/>
    <path d="m95.097 10.94 0.0952-0.0952"/>
    <path d="m95.192 10.845 0.0476-0.1429"/>
    <path d="m95.24 10.702v-0.2381"/>
    <path d="m94.24 11.94v-0.4762"/>
    <path d="m94.24 11.464 0.4762-0.0476"/>
    <path d="m94.716 11.416-0.0476 0.0476"/>
    <path d="m94.668 11.464-0.0476 0.0952"/>
    <path d="m94.621 11.559v0.2381"/>
    <path d="m94.621 11.797 0.0476 0.0953"/>
    <path d="m94.668 11.892 0.0476 0.0476"/>
    <path d="m94.716 11.94 0.0952 0.0476"/>
    <path d="m94.811 11.988h0.2381"/>
    <path d="m95.049 11.988 0.0953-0.0476"/>
    <path d="m95.145 11.94 0.0476-0.0476"/>
    <path d="m95.192 11.892 0.0476-0.0953"/>
    <path d="m95.24 11.797v-0.2381"/>
    <path d="m95.24 11.559-0.0476-0.0952"/>
    <path d="m95.192 11.464-0.0476-0.0476"/>
   </g>
   <g transform="rotate(-90 73.71 32.752)">
    <text transform="scale(-1 1) translate(-147.42)" x="73.7100" y="33.2520" font-size="1.3333" opacity="0" stroke-opacity="0" text-anchor="middle" lengthAdjust="spacingAndGlyphs" textLength="2.2024">D9</text>
   </g>
   <g class="stroked-text">
    <desc>D9</desc>
    <path d="m74.165 32.014h-1"/>
    <path d="m73.165 32.014v0.2381"/>
    <path d="m73.165 32.252 0.0476 0.1429"/>
    <path d="m73.212 32.395 0.0953 0.0952"/>
    <path d="m73.308 32.49 0.0952 0.0476"/>
    <path d="m73.403 32.538 0.1905 0.0476"/>
    <path d="m73.593 32.585h0.1428"/>
    <path d="m73.736 32.585 0.1905-0.0476"/>
    <path d="m73.927 32.538 0.0953-0.0476"/>
    <path d="m74.022 32.49 0.0952-0.0952"/>
    <path d="m74.117 32.395 0.0476-0.1429"/>
    <path d="m74.165 32.252v-0.2381"/>
    <path d="m74.165 33.062v0.1905"/>
    <path d="m74.165 33.252-0.0476 0.0952"/>
    <path d="m74.117 33.347-0.0476 0.0477"/>
    <path d="m74.07 33.395-0.1429 0.0952"/>
    <path d="m73.927 33.49-0.1905 0.0476"/>
    <path d="m73.736 33.538h-0.3809"/>
    <path d="m73.355 33.538-0.0952-0.0476"/>
    <path d="m73.26 33.49-0.0477-0.0476"/>
    <path d="m73.212 33.442-0.0476-0.0953"/>
    <path d="m73.165 33.347v-0.1904"/>
    <path d="m73.165 33.157 0.0476-0.0953"/>
    <path d="m73.212 33.062 0.0477-0.0476"/>
    <path d="m73.26 33.014 0.0952-0.0476"/>
    <path d="m73.355 32.966h0.2381"/>
    <path d="m73.593 32.966 0.0952 0.0476"/>
    <path d="m73.689 33.014 0.0476 0.0476"/>
    <path d="m73.736 33.062 0.0477 0.0953"/>
    <path d="m73.784 33.157v0.1904"/>
    <path d="m73.784 33.347-0.0477 0.0953"/>
    <path d="m73.736 33.442-0.0476 0.0476"/>
    <path d="m73.689 33.49-0.0952 0.0476"/>
   </g>
   <g transform="rotate(-90 16.56 32.752)">
    <text transform="scale(-1 1) translate(-33.12)" x="16.5600" y="33.2520" font-size="1.3333" opacity="0" stroke-opacity="0" text-anchor="middle" lengthAdjust="spacingAndGlyphs" textLength="2.2024">D6</text>
   </g>
   <g class="stroked-text">
    <desc>D6</desc>
    <path d="m17.015 32.014h-1"/>
    <path d="m16.015 32.014v0.2381"/>
    <path d="m16.015 32.252 0.0476 0.1429"/>
    <path d="m16.062 32.395 0.0953 0.0952"/>
    <path d="m16.158 32.49 0.0952 0.0476"/>
    <path d="m16.253 32.538 0.1905 0.0476"/>
    <path d="m16.443 32.585h0.1428"/>
    <path d="m16.586 32.585 0.1905-0.0476"/>
    <path d="m16.777 32.538 0.0953-0.0476"/>
    <path d="m16.872 32.49 0.0952-0.0952"/>
    <path d="m16.967 32.395 0.0476-0.1429"/>
    <path d="m17.015 32.252v-0.2381"/>
    <path d="m16.015 33.442v-0.1905"/>
    <path d="m16.015 33.252 0.0476-0.0952"/>
    <path d="m16.062 33.157 0.0477-0.0477"/>
    <path d="m16.11 33.109 0.1428-0.0952"/>
    <path d="m16.253 33.014 0.1905-0.0476"/>
    <path d="m16.443 32.966h0.3809"/>
    <path d="m16.824 32.966 0.0953 0.0476"/>
    <path d="m16.92 33.014 0.0476 0.0476"/>
    <path d="m16.967 33.062 0.0476 0.0953"/>
    <path d="m17.015 33.157v0.1904"/>
    <path d="m17.015 33.347-0.0476 0.0953"/>
    <path d="m16.967 33.442-0.0476 0.0476"/>
    <path d="m16.92 33.49-0.0953 0.0476"/>
    <path d="m16.824 33.538h-0.2381"/>
    <path d="m16.586 33.538-0.0952-0.0476"/>
    <path d="m16.491 33.49-0.0476-0.0476"/>
    <path d="m16.443 33.442-0.0476-0.0953"/>
    <path d="m16.396 33.347v-0.1904"/>
    <path d="m16.396 33.157 0.0476-0.0953"/>
    <path d="m16.443 33.062 0.0476-0.0476"/>
    <path d="m16.491 33.014 0.0952-0.0476"/>
   </g>
   <g transform="rotate(-90 73.71 13.702)">
    <text transform="scale(-1 1) translate(-147.42)" x="73.7100" y="14.2020" font-size="1.3333" opacity="0" stroke-opacity="0" text-anchor="middle" lengthAdjust="spacingAndGlyphs" textLength="2.2024">D4</text>
   </g>
   <g class="stroked-text">
    <desc>D4</desc>
    <path d="m74.165 12.964h-1"/>
    <path d="m73.165 12.964v0.2381"/>
    <path d="m73.165 13.202 0.0476 0.1429"/>
    <path d="m73.212 13.345 0.0953 0.0952"/>
    <path d="m73.308 13.44 0.0952 0.0476"/>
    <path d="m73.403 13.488 0.1905 0.0476"/>
    <path d="m73.593 13.535h0.1428"/>
    <path d="m73.736 13.535 0.1905-0.0476"/>
    <path d="m73.927 13.488 0.0953-0.0476"/>
    <path d="m74.022 13.44 0.0952-0.0952"/>
    <path d="m74.117 13.345 0.0476-0.1429"/>
    <path d="m74.165 13.202v-0.2381"/>
    <path d="m73.498 14.392h0.6666"/>
    <path d="m73.117 14.154 0.7143-0.2381"/>
    <path d="m73.832 13.916v0.619"/>
   </g>
   <g transform="rotate(-90 54.66 70.852)">
    <text transform="scale(-1 1) translate(-109.32)" x="54.6600" y="71.3520" font-size="1.3333" opacity="0" stroke-opacity="0" text-anchor="middle" lengthAdjust="spacingAndGlyphs" textLength="3.1548">D18</text>
   </g>
   <g class="stroked-text">
    <desc>D18</desc>
    <path d="m55.115 69.638h-1"/>
    <path d="m54.115 69.638v0.2381"/>
    <path d="m54.115 69.876 0.0476 0.1429"/>
    <path d="m54.162 70.019 0.0953 0.0952"/>
    <path d="m54.258 70.114 0.0952 0.0476"/>
    <path d="m54.353 70.162 0.1905 0.0476"/>
    <path d="m54.543 70.209h0.1428"/>
    <path d="m54.686 70.209 0.1905-0.0476"/>
    <path d="m54.877 70.162 0.0953-0.0476"/>
    <path d="m54.972 70.114 0.0952-0.0952"/>
    <path d="m55.067 70.019 0.0476-0.1429"/>
    <path d="m55.115 69.876v-0.2381"/>
    <path d="m55.115 71.162v-0.5714"/>
    <path d="m55.115 70.876h-1"/>
    <path d="m54.115 70.876 0.1429-0.0952"/>
    <path d="m54.258 70.781 0.0952-0.0953"/>
    <path d="m54.353 70.685 0.0476-0.0952"/>
    <path d="m54.543 71.733-0.0476-0.0953"/>
    <path d="m54.496 71.638-0.0476-0.0476"/>
    <path d="m54.448 71.59-0.0953-0.0476"/>
    <path d="m54.353 71.542h-0.0476"/>
    <path d="m54.305 71.542-0.0952 0.0476"/>
    <path d="m54.21 71.59-0.0477 0.0476"/>
    <path d="m54.162 71.638-0.0476 0.0953"/>
    <path d="m54.115 71.733v0.1904"/>
    <path d="m54.115 71.923 0.0476 0.0953"/>
    <path d="m54.162 72.019 0.0477 0.0476"/>
    <path d="m54.21 72.066 0.0952 0.0476"/>
    <path d="m54.305 72.114h0.0476"/>
    <path d="m54.353 72.114 0.0953-0.0476"/>
    <path d="m54.448 72.066 0.0476-0.0476"/>
    <path d="m54.496 72.019 0.0476-0.0953"/>
    <path d="m54.543 71.923v-0.1904"/>
    <path d="m54.543 71.733 0.0476-0.0953"/>
    <path d="m54.591 71.638 0.0476-0.0476"/>
    <path d="m54.639 71.59 0.0953-0.0476"/>
    <path d="m54.734 71.542h0.1904"/>
    <path d="m54.924 71.542 0.0953 0.0476"/>
    <path d="m55.02 71.59 0.0476 0.0476"/>
    <path d="m55.067 71.638 0.0476 0.0953"/>
    <path d="m55.115 71.733v0.1904"/>
    <path d="m55.115 71.923-0.0476 0.0953"/>
    <path d="m55.067 72.019-0.0476 0.0476"/>
    <path d="m55.02 72.066-0.0953 0.0476"/>
    <path d="m54.924 72.114h-0.1904"/>
    <path d="m54.734 72.114-0.0953-0.0476"/>
    <path d="m54.639 72.066-0.0476-0.0476"/>
    <path d="m54.591 72.019-0.0476-0.0953"/>
   </g>
   <g transform="rotate(-90 35.61 51.802)">
    <text transform="scale(-1 1) translate(-71.22)" x="35.6100" y="52.3020" font-size="1.3333" opacity="0" stroke-opacity="0" text-anchor="middle" lengthAdjust="spacingAndGlyphs" textLength="3.1548">D12</text>
   </g>
   <g class="stroked-text">
    <desc>D12</desc>
    <path d="m36.065 50.588h-1"/>
    <path d="m35.065 50.588v0.2381"/>
    <path d="m35.065 50.826 0.0476 0.1429"/>
    <path d="m35.112 50.969 0.0953 0.0952"/>
    <path d="m35.208 51.064 0.0952 0.0476"/>
    <path d="m35.303 51.112 0.1905 0.0476"/>
    <path d="m35.493 51.159h0.1428"/>
    <path d="m35.636 51.159 0.1905-0.0476"/>
    <path d="m35.827 51.112 0.0953-0.0476"/>
    <path d="m35.922 51.064 0.0952-0.0952"/>
    <path d="m36.017 50.969 0.0476-0.1429"/>
    <path d="m36.065 50.826v-0.2381"/>
    <path d="m36.065 52.112v-0.5714"/>
    <path d="m36.065 51.826h-1"/>
    <path d="m35.065 51.826 0.1429-0.0952"/>
    <path d="m35.208 51.731 0.0952-0.0953"/>
    <path d="m35.303 51.635 0.0476-0.0952"/>
    <path d="m35.16 52.492-0.0477 0.0476"/>
    <path d="m35.112 52.54-0.0476 0.0952"/>
    <path d="m35.065 52.635v0.2381"/>
    <path d="m35.065 52.873 0.0476 0.0953"/>
    <path d="m35.112 52.969 0.0477 0.0476"/>
    <path d="m35.16 53.016 0.0952 0.0476"/>
    <path d="m35.255 53.064h0.0952"/>
    <path d="m35.35 53.064 0.1429-0.0476"/>
    <path d="m35.493 53.016 0.5714-0.5714"/>
    <path d="m36.065 52.445v0.619"/>
   </g>
   <g transform="rotate(-90 16.56 70.852)">
    <text transform="scale(-1 1) translate(-33.12)" x="16.5600" y="71.3520" font-size="1.3333" opacity="0" stroke-opacity="0" text-anchor="middle" lengthAdjust="spacingAndGlyphs" textLength="3.1548">D16</text>
   </g>
   <g class="stroked-text">
    <desc>D16</desc>
    <path d="m17.015 69.638h-1"/>
    <path d="m16.015 69.638v0.2381"/>
    <path d="m16.015 69.876 0.0476 0.1429"/>
    <path d="m16.062 70.019 0.0953 0.0952"/>
    <path d="m16.158 70.114 0.0952 0.0476"/>
    <path d="m16.253 70.162 0.1905 0.0476"/>
    <path d="m16.443 70.209h0.1428"/>
    <path d="m16.586 70.209 0.1905-0.0476"/>
    <path d="m16.777 70.162 0.0953-0.0476"/>
    <path d="m16.872 70.114 0.0952-0.0952"/>
    <path d="m16.967 70.019 0.0476-0.1429"/>
    <path d="m17.015 69.876v-0.2381"/>
    <path d="m17.015 71.162v-0.5714"/>
    <path d="m17.015 70.876h-1"/>
    <path d="m16.015 70.876 0.1429-0.0952"/>
    <path d="m16.158 70.781 0.0952-0.0953"/>
    <path d="m16.253 70.685 0.0476-0.0952"/>
    <path d="m16.015 72.019v-0.1905"/>
    <path d="m16.015 71.828 0.0476-0.0952"/>
    <path d="m16.062 71.733 0.0477-0.0477"/>
    <path d="m16.11 71.685 0.1428-0.0952"/>
    <path d="m16.253 71.59 0.1905-0.0476"/>
    <path d="m16.443 71.542h0.3809"/>
    <path d="m16.824 71.542 0.0953 0.0476"/>
    <path d="m16.92 71.59 0.0476 0.0476"/>
    <path d="m16.967 71.638 0.0476 0.0953"/>
    <path d="m17.015 71.733v0.1904"/>
    <path d="m17.015 71.923-0.0476 0.0953"/>
    <path d="m16.967 72.019-0.0476 0.0476"/>
    <path d="m16.92 72.066-0.0953 0.0476"/>
    <path d="m16.824 72.114h-0.2381"/>
    <path d="m16.586 72.114-0.0952-0.0476"/>
    <path d="m16.491 72.066-0.0476-0.0476"/>
    <path d="m16.443 72.019-0.0476-0.0953"/>
    <path d="m16.396 71.923v-0.1904"/>
    <path d="m16.396 71.733 0.0476-0.0953"/>
    <path d="m16.443 71.638 0.0476-0.0476"/>
    <path d="m16.491 71.59 0.0952-0.0476"/>
   </g>
   <g transform="rotate(-90 109.07 58.827)">
    <text transform="scale(-1 1) translate(-218.14)" x="109.0725" y="59.3270" font-size="1.3333" opacity="0" stroke-opacity="0" text-anchor="middle" lengthAdjust="spacingAndGlyphs" textLength="3.1548">D15</text>
   </g>
   <g class="stroked-text">
    <desc>D15</desc>
    <path d="m109.53 57.613h-1"/>
    <path d="m108.53 57.613v0.2381"/>
    <path d="m108.53 57.851 0.0476 0.1429"/>
    <path d="m108.57 57.994 0.0953 0.0952"/>
    <path d="m108.67 58.089 0.0952 0.0476"/>
    <path d="m108.77 58.136 0.1905 0.0476"/>
    <path d="m108.96 58.184h0.1428"/>
    <path d="m109.1 58.184 0.1905-0.0476"/>
    <path d="m109.29 58.136 0.0953-0.0476"/>
    <path d="m109.38 58.089 0.0952-0.0952"/>
    <path d="m109.48 57.994 0.0476-0.1429"/>
    <path d="m109.53 57.851v-0.2381"/>
    <path d="m109.53 59.136v-0.5714"/>
    <path d="m109.53 58.851h-1"/>
    <path d="m108.53 58.851 0.1429-0.0952"/>
    <path d="m108.67 58.756 0.0952-0.0953"/>
    <path d="m108.77 58.66 0.0476-0.0952"/>
    <path d="m108.53 60.041v-0.4762"/>
    <path d="m108.53 59.565 0.4762-0.0476"/>
    <path d="m109 59.518-0.0476 0.0476"/>
    <path d="m108.96 59.565-0.0476 0.0952"/>
    <path d="m108.91 59.66v0.2381"/>
    <path d="m108.91 59.898 0.0476 0.0953"/>
    <path d="m108.96 59.994 0.0476 0.0476"/>
    <path d="m109 60.041 0.0952 0.0476"/>
    <path d="m109.1 60.089h0.2381"/>
    <path d="m109.34 60.089 0.0953-0.0476"/>
    <path d="m109.43 60.041 0.0476-0.0476"/>
    <path d="m109.48 59.994 0.0476-0.0953"/>
    <path d="m109.53 59.898v-0.2381"/>
    <path d="m109.53 59.66-0.0476-0.0952"/>
    <path d="m109.48 59.565-0.0476-0.0476"/>
   </g>
   <g transform="rotate(-90 73.71 51.802)">
    <text transform="scale(-1 1) translate(-147.42)" x="73.7100" y="52.3020" font-size="1.3333" opacity="0" stroke-opacity="0" text-anchor="middle" lengthAdjust="spacingAndGlyphs" textLength="3.1548">D14</text>
   </g>
   <g class="stroked-text">
    <desc>D14</desc>
    <path d="m74.165 50.588h-1"/>
    <path d="m73.165 50.588v0.2381"/>
    <path d="m73.165 50.826 0.0476 0.1429"/>
    <path d="m73.212 50.969 0.0953 0.0952"/>
    <path d="m73.308 51.064 0.0952 0.0476"/>
    <path d="m73.403 51.112 0.1905 0.0476"/>
    <path d="m73.593 51.159h0.1428"/>
    <path d="m73.736 51.159 0.1905-0.0476"/>
    <path d="m73.927 51.112 0.0953-0.0476"/>
    <path d="m74.022 51.064 0.0952-0.0952"/>
    <path d="m74.117 50.969 0.0476-0.1429"/>
    <path d="m74.165 50.826v-0.2381"/>
    <path d="m74.165 52.112v-0.5714"/>
    <path d="m74.165 51.826h-1"/>
    <path d="m73.165 51.826 0.1429-0.0952"/>
    <path d="m73.308 51.731 0.0952-0.0953"/>
    <path d="m73.403 51.635 0.0476-0.0952"/>
    <path d="m73.498 52.969h0.6666"/>
    <path d="m73.117 52.731 0.7143-0.2381"/>
    <path d="m73.832 52.492v0.619"/>
   </g>
  </g>
  <g stroke="#BD93F9" stroke-width=".12">
   <path d="m70.805 72.935v-3.86"/>
   <path d="m72.805 72.935h-2"/>
   <path d="m72.805 72.935v-3.86"/>
   <path d="m51.755 34.835v-3.86"/>
   <path d="m53.755 34.835h-2"/>
   <path d="m53.755 34.835v-3.86"/>
   <path d="m13.655 53.885v-3.86"/>
   <path d="m15.655 53.885h-2"/>
   <path d="m15.655 53.885v-3.86"/>
   <path d="m32.705 72.935v-3.86"/>
   <path d="m34.705 72.935h-2"/>
   <path d="m34.705 72.935v-3.86"/>
   <path d="m51.755 53.885v-3.86"/>
   <path d="m53.755 53.885h-2"/>
   <path d="m53.755 53.885v-3.86"/>
   <path d="m32.705 15.785v-3.86"/>
   <path d="m34.705 15.785h-2"/>
   <path d="m34.705 15.785v-3.86"/>
   <path d="m13.655 15.785v-3.86"/>
   <path d="m15.655 15.785h-2"/>
   <path d="m15.655 15.785v-3.86"/>
   <path d="m32.705 34.835v-3.86"/>
   <path d="m34.705 34.835h-2"/>
   <path d="m34.705 34.835v-3.86"/>
   <path d="m120.46 13.285v-3.86"/>
   <path d="m122.46 13.285h-2"/>
   <path d="m122.46 13.285v-3.86"/>
   <path d="m51.755 15.785v-3.86"/>
   <path d="m53.755 15.785h-2"/>
   <path d="m53.755 15.785v-3.86"/>
   <path d="m91.88 13.285v-3.86"/>
   <path d="m93.88 13.285h-2"/>
   <path d="m93.88 13.285v-3.86"/>
   <path d="m70.805 34.835v-3.86"/>
   <path d="m72.805 34.835h-2"/>
   <path d="m72.805 34.835v-3.86"/>
   <path d="m13.655 34.835v-3.86"/>
   <path d="m15.655 34.835h-2"/>
   <path d="m15.655 34.835v-3.86"/>
   <path d="m70.805 15.785v-3.86"/>
   <path d="m72.805 15.785h-2"/>
   <path d="m72.805 15.785v-3.86"/>
   <path d="m51.755 72.935v-3.86"/>
   <path d="m53.755 72.935h-2"/>
   <path d="m53.755 72.935v-3.86"/>
   <path d="m32.705 53.885v-3.86"/>
   <path d="m34.705 53.885h-2"/>
   <path d="m34.705 53.885v-3.86"/>
   <path d="m13.655 72.935v-3.86"/>
   <path d="m15.655 72.935h-2"/>
   <path d="m15.655 72.935v-3.86"/>
   <path d="m106.17 60.91v-3.86"/>
   <path d="m108.17 60.91h-2"/>
   <path d="m108.17 60.91v-3.86"/>
   <path d="m70.805 53.885v-3.86"/>
   <path d="m72.805 53.885h-2"/>
   <path d="m72.805 53.885v-3.86"/>
  </g>
 </g>
 <g fill="#fff">
  <circle cx="23.545" cy="47.675" r=".875"/>
  <circle cx="28.625" cy="47.675" r="2"/>
  <circle cx="33.705" cy="47.675" r=".875"/>
  <circle cx="24.815" cy="45.135" r=".75"/>
  <circle cx="31.165" cy="42.595" r=".75"/>
  <circle cx="23.545" cy="28.625" r=".875"/>
  <circle cx="28.625" cy="28.625" r="2"/>
  <circle cx="33.705" cy="28.625" r=".875"/>
  <circle cx="24.815" cy="26.085" r=".75"/>
  <circle cx="31.165" cy="23.545" r=".75"/>
  <circle cx="4.495" cy="47.675" r=".875"/>
  <circle cx="9.575" cy="47.675" r="2"/>
  <circle cx="14.655" cy="47.675" r=".875"/>
  <circle cx="5.765" cy="45.135" r=".75"/>
  <circle cx="12.115" cy="42.595" r=".75"/>
  <circle cx="87.8" cy="7.075" r=".5"/>
  <circle cx="87.8" cy="12.075" r=".5"/>
  <circle cx="87.8" cy="9.575" r=".5"/>
 </g>
 <g fill="none" stroke="#fff" stroke-linecap="round" stroke-linejoin="round" stroke-width="1.5">
  <path d="m94.65 3.975h1.3"/>
  <path d="m94.65 15.175h1.3"/>
 </g>
 <g fill="#fff">
  <circle cx="102.3" cy="12.075" r=".5"/>
  <circle cx="102.3" cy="7.075" r=".5"/>
  <circle cx="23.545" cy="66.725" r=".875"/>
  <circle cx="28.625" cy="66.725" r="2"/>
  <circle cx="33.705" cy="66.725" r=".875"/>
  <circle cx="24.815" cy="64.185" r=".75"/>
  <circle cx="31.165" cy="61.645" r=".75"/>
  <circle cx="4.495" cy="28.625" r=".875"/>
  <circle cx="9.575" cy="28.625" r="2"/>
  <circle cx="14.655" cy="28.625" r=".875"/>
  <circle cx="5.765" cy="26.085" r=".75"/>
  <circle cx="12.115" cy="23.545" r=".75"/>
  <circle cx="23.545" cy="9.575" r=".875"/>
  <circle cx="28.625" cy="9.575" r="2"/>
  <circle cx="33.705" cy="9.575" r=".875"/>
  <circle cx="24.815" cy="7.035" r=".75"/>
  <circle cx="31.165" cy="4.495" r=".75"/>
  <circle cx="61.645" cy="28.625" r=".875"/>
  <circle cx="66.725" cy="28.625" r="2"/>
  <circle cx="71.805" cy="28.625" r=".875"/>
  <circle cx="62.915" cy="26.085" r=".75"/>
  <circle cx="69.265" cy="23.545" r=".75"/>
  <circle cx="4.495" cy="9.575" r=".875"/>
  <circle cx="9.575" cy="9.575" r="2"/>
  <circle cx="14.655" cy="9.575" r=".875"/>
  <circle cx="5.765" cy="7.035" r=".75"/>
  <circle cx="12.115" cy="4.495" r=".75"/>
  <circle cx="61.645" cy="47.675" r=".875"/>
  <circle cx="66.725" cy="47.675" r="2"/>
  <circle cx="71.805" cy="47.675" r=".875"/>
  <circle cx="62.915" cy="45.135" r=".75"/>
  <circle cx="69.265" cy="42.595" r=".75"/>
  <circle cx="4.495" cy="66.725" r=".875"/>
  <circle cx="9.575" cy="66.725" r="2"/>
  <circle cx="14.655" cy="66.725" r=".875"/>
  <circle cx="5.765" cy="64.185" r=".75"/>
  <circle cx="12.115" cy="61.645" r=".75"/>
  <circle cx="61.645" cy="9.575" r=".875"/>
  <circle cx="66.725" cy="9.575" r="2"/>
  <circle cx="71.805" cy="9.575" r=".875"/>
  <circle cx="62.915" cy="7.035" r=".75"/>
  <circle cx="69.265" cy="4.495" r=".75"/>
  <circle cx="42.595" cy="28.625" r=".875"/>
  <circle cx="47.675" cy="28.625" r="2"/>
  <circle cx="52.755" cy="28.625" r=".875"/>
  <circle cx="43.865" cy="26.085" r=".75"/>
  <circle cx="50.215" cy="23.545" r=".75"/>
  <circle cx="42.595" cy="66.725" r=".875"/>
  <circle cx="47.675" cy="66.725" r="2"/>
  <circle cx="52.755" cy="66.725" r=".875"/>
  <circle cx="43.865" cy="64.185" r=".75"/>
  <circle cx="50.215" cy="61.645" r=".75"/>
  <circle cx="102.09" cy="54.7" r=".5"/>
  <circle cx="102.09" cy="59.7" r=".5"/>
  <circle cx="102.09" cy="57.2" r=".5"/>
 </g>
 <g fill="none" stroke="#fff" stroke-linecap="round" stroke-linejoin="round" stroke-width="1.5">
  <path d="m108.94 51.6h1.3"/>
  <path d="m108.94 62.8h1.3"/>
 </g>
 <g fill="#fff">
  <circle cx="116.59" cy="59.7" r=".5"/>
  <circle cx="116.59" cy="54.7" r=".5"/>
  <circle cx="116.38" cy="7.075" r=".5"/>
  <circle cx="116.38" cy="12.075" r=".5"/>
  <circle cx="116.38" cy="9.575" r=".5"/>
 </g>
 <g fill="none" stroke="#fff" stroke-linecap="round" stroke-linejoin="round" stroke-width="1.5">
  <path d="m123.22 3.975h1.3"/>
  <path d="m123.22 15.175h1.3"/>
 </g>
 <g fill="#fff">
  <circle cx="130.88" cy="12.075" r=".5"/>
  <circle cx="130.88" cy="7.075" r=".5"/>
  <circle cx="42.595" cy="9.575" r=".875"/>
  <circle cx="47.675" cy="9.575" r="2"/>
  <circle cx="52.755" cy="9.575" r=".875"/>
  <circle cx="43.865" cy="7.035" r=".75"/>
  <circle cx="50.215" cy="4.495" r=".75"/>
  <circle cx="61.645" cy="66.725" r=".875"/>
  <circle cx="66.725" cy="66.725" r="2"/>
  <circle cx="71.805" cy="66.725" r=".875"/>
  <circle cx="62.915" cy="64.185" r=".75"/>
  <circle cx="69.265" cy="61.645" r=".75"/>
  <circle cx="42.595" cy="47.675" r=".875"/>
  <circle cx="47.675" cy="47.675" r="2"/>
  <circle cx="52.755" cy="47.675" r=".875"/>
  <circle cx="43.865" cy="45.135" r=".75"/>
  <circle cx="50.215" cy="42.595" r=".75"/>
 </g>
</svg>
