<?xml version="1.0" encoding="UTF-8"?>
<svg width="77.176mm" height="37.631mm" version="1.1" viewBox="47.605 8.569 77.176 37.631" xmlns="http://www.w3.org/2000/svg">
 <title>SVG Image created as fm2u-render.svg date 2024/03/28 10:14:57</title>
 <desc>Image generated by PCBNEW</desc>
 <g fill="#282a36">
  <rect x="47.605" y="8.569" width="77.176" height="37.631"/>
 </g>
 <g fill-opacity="0" stroke-width="0">
  <g fill="#C83434" stroke="#C83434" stroke-linecap="round" stroke-linejoin="round">
   <g fill-opacity="1" stroke-width="0">
    <circle cx="108.11" cy="35.56" r="1.25"/>
    <circle cx="114.46" cy="33.02" r="1.25"/>
    <circle cx="112.87" cy="35.56" r="1.25"/>
    <circle cx="119.22" cy="33.02" r="1.25"/>
    <circle cx="110.49" cy="35.56" r="1.25"/>
    <circle cx="116.84" cy="33.02" r="1.25"/>
    <circle cx="54.61" cy="20.479" r="1.25"/>
    <circle cx="52.07" cy="14.129" r="1.25"/>
    <circle cx="110.97" cy="35.56" r="1.25"/>
    <circle cx="117.32" cy="33.02" r="1.25"/>
   </g>
   <g fill-opacity="0" stroke-width=".25">
    <path d="m54.61 20.479h38.417"/>
    <path d="m93.027 20.479 15.082 15.081"/>
    <path d="m108.11 35.56h2.381"/>
    <path d="m110.97 35.56h1.905"/>
    <path d="m110.49 35.56h0.476"/>
   </g>
  </g>
 </g>
 <g fill-opacity="0" stroke="#000" stroke-linecap="round" stroke-linejoin="round" stroke-width=".25">
  <g fill="#7FC87F" fill-opacity="1" stroke="#7FC87F" stroke-linecap="round" stroke-linejoin="round" stroke-width="0">
   <circle cx="108.11" cy="35.56" r="1.25"/>
   <circle cx="114.46" cy="33.02" r="1.25"/>
   <circle cx="112.87" cy="35.56" r="1.25"/>
   <circle cx="119.22" cy="33.02" r="1.25"/>
   <circle cx="110.49" cy="35.56" r="1.25"/>
   <circle cx="116.84" cy="33.02" r="1.25"/>
   <circle cx="54.61" cy="20.479" r="1.25"/>
   <circle cx="52.07" cy="14.129" r="1.25"/>
   <circle cx="110.97" cy="35.56" r="1.25"/>
   <circle cx="117.32" cy="33.02" r="1.25"/>
  </g>
 </g>
 <g stroke="#000" stroke-linecap="round" stroke-linejoin="round" stroke-width=".021">
  <g fill="#CE7D2C" stroke="#CE7D2C" stroke-linecap="round" stroke-linejoin="round" stroke-width="0">
   <circle cx="108.11" cy="35.56" r="1.25"/>
   <circle cx="114.46" cy="33.02" r="1.25"/>
   <circle cx="112.87" cy="35.56" r="1.25"/>
   <circle cx="119.22" cy="33.02" r="1.25"/>
   <circle cx="110.49" cy="35.56" r="1.25"/>
   <circle cx="116.84" cy="33.02" r="1.25"/>
   <circle cx="54.61" cy="20.479" r="1.25"/>
   <circle cx="52.07" cy="14.129" r="1.25"/>
   <circle cx="110.97" cy="35.56" r="1.25"/>
   <circle cx="117.32" cy="33.02" r="1.25"/>
  </g>
  <g fill="#4FCBCB" stroke="#4FCBCB" stroke-linecap="round" stroke-linejoin="round" stroke-width="0">
   <circle cx="108.11" cy="35.56" r="1.25"/>
   <circle cx="114.46" cy="33.02" r="1.25"/>
   <circle cx="112.87" cy="35.56" r="1.25"/>
   <circle cx="119.22" cy="33.02" r="1.25"/>
   <circle cx="110.49" cy="35.56" r="1.25"/>
   <circle cx="116.84" cy="33.02" r="1.25"/>
   <circle cx="54.61" cy="20.479" r="1.25"/>
   <circle cx="52.07" cy="14.129" r="1.25"/>
   <circle cx="110.97" cy="35.56" r="1.25"/>
   <circle cx="117.32" cy="33.02" r="1.25"/>
  </g>
  <g fill="#DB628B" stroke="#DB628B" stroke-linecap="round" stroke-linejoin="round" stroke-width="0">
   <circle cx="108.11" cy="35.56" r="1.25"/>
   <circle cx="114.46" cy="33.02" r="1.25"/>
   <circle cx="112.87" cy="35.56" r="1.25"/>
   <circle cx="119.22" cy="33.02" r="1.25"/>
   <circle cx="110.49" cy="35.56" r="1.25"/>
   <circle cx="116.84" cy="33.02" r="1.25"/>
   <circle cx="54.61" cy="20.479" r="1.25"/>
   <circle cx="52.07" cy="14.129" r="1.25"/>
   <circle cx="110.97" cy="35.56" r="1.25"/>
   <circle cx="117.32" cy="33.02" r="1.25"/>
  </g>
  <g fill="#A7A5C6" stroke="#A7A5C6" stroke-linecap="round" stroke-linejoin="round" stroke-width="0">
   <circle cx="108.11" cy="35.56" r="1.25"/>
   <circle cx="114.46" cy="33.02" r="1.25"/>
   <circle cx="112.87" cy="35.56" r="1.25"/>
   <circle cx="119.22" cy="33.02" r="1.25"/>
   <circle cx="110.49" cy="35.56" r="1.25"/>
   <circle cx="116.84" cy="33.02" r="1.25"/>
   <circle cx="54.61" cy="20.479" r="1.25"/>
   <circle cx="52.07" cy="14.129" r="1.25"/>
   <circle cx="110.97" cy="35.56" r="1.25"/>
   <circle cx="117.32" cy="33.02" r="1.25"/>
  </g>
  <g fill="#28CCD9" stroke="#28CCD9" stroke-linecap="round" stroke-linejoin="round" stroke-width="0">
   <circle cx="108.11" cy="35.56" r="1.25"/>
   <circle cx="114.46" cy="33.02" r="1.25"/>
   <circle cx="112.87" cy="35.56" r="1.25"/>
   <circle cx="119.22" cy="33.02" r="1.25"/>
   <circle cx="110.49" cy="35.56" r="1.25"/>
   <circle cx="116.84" cy="33.02" r="1.25"/>
   <circle cx="54.61" cy="20.479" r="1.25"/>
   <circle cx="52.07" cy="14.129" r="1.25"/>
   <circle cx="110.97" cy="35.56" r="1.25"/>
   <circle cx="117.32" cy="33.02" r="1.25"/>
  </g>
  <g fill="#E8B2A7" stroke="#E8B2A7" stroke-linecap="round" stroke-linejoin="round" stroke-width="0">
   <circle cx="108.11" cy="35.56" r="1.25"/>
   <circle cx="114.46" cy="33.02" r="1.25"/>
   <circle cx="112.87" cy="35.56" r="1.25"/>
   <circle cx="119.22" cy="33.02" r="1.25"/>
   <circle cx="110.49" cy="35.56" r="1.25"/>
   <circle cx="116.84" cy="33.02" r="1.25"/>
   <circle cx="54.61" cy="20.479" r="1.25"/>
   <circle cx="52.07" cy="14.129" r="1.25"/>
   <circle cx="110.97" cy="35.56" r="1.25"/>
   <circle cx="117.32" cy="33.02" r="1.25"/>
  </g>
  <g fill="#F2EDA1" stroke="#F2EDA1" stroke-linecap="round" stroke-linejoin="round" stroke-width="0">
   <circle cx="108.11" cy="35.56" r="1.25"/>
   <circle cx="114.46" cy="33.02" r="1.25"/>
   <circle cx="112.87" cy="35.56" r="1.25"/>
   <circle cx="119.22" cy="33.02" r="1.25"/>
   <circle cx="110.49" cy="35.56" r="1.25"/>
   <circle cx="116.84" cy="33.02" r="1.25"/>
   <circle cx="54.61" cy="20.479" r="1.25"/>
   <circle cx="52.07" cy="14.129" r="1.25"/>
   <circle cx="110.97" cy="35.56" r="1.25"/>
   <circle cx="117.32" cy="33.02" r="1.25"/>
  </g>
  <g fill="#8DCB81" stroke="#8DCB81" stroke-linecap="round" stroke-linejoin="round" stroke-width="0">
   <circle cx="108.11" cy="35.56" r="1.25"/>
   <circle cx="114.46" cy="33.02" r="1.25"/>
   <circle cx="112.87" cy="35.56" r="1.25"/>
   <circle cx="119.22" cy="33.02" r="1.25"/>
   <circle cx="110.49" cy="35.56" r="1.25"/>
   <circle cx="116.84" cy="33.02" r="1.25"/>
   <circle cx="54.61" cy="20.479" r="1.25"/>
   <circle cx="52.07" cy="14.129" r="1.25"/>
   <circle cx="110.97" cy="35.56" r="1.25"/>
   <circle cx="117.32" cy="33.02" r="1.25"/>
  </g>
  <g fill="#ED7C33" stroke="#ED7C33" stroke-linecap="round" stroke-linejoin="round" stroke-width="0">
   <circle cx="108.11" cy="35.56" r="1.25"/>
   <circle cx="114.46" cy="33.02" r="1.25"/>
   <circle cx="112.87" cy="35.56" r="1.25"/>
   <circle cx="119.22" cy="33.02" r="1.25"/>
   <circle cx="110.49" cy="35.56" r="1.25"/>
   <circle cx="116.84" cy="33.02" r="1.25"/>
   <circle cx="54.61" cy="20.479" r="1.25"/>
   <circle cx="52.07" cy="14.129" r="1.25"/>
   <circle cx="110.97" cy="35.56" r="1.25"/>
   <circle cx="117.32" cy="33.02" r="1.25"/>
  </g>
  <g fill="#5BC3EB" stroke="#5BC3EB" stroke-linecap="round" stroke-linejoin="round" stroke-width="0">
   <circle cx="108.11" cy="35.56" r="1.25"/>
   <circle cx="114.46" cy="33.02" r="1.25"/>
   <circle cx="112.87" cy="35.56" r="1.25"/>
   <circle cx="119.22" cy="33.02" r="1.25"/>
   <circle cx="110.49" cy="35.56" r="1.25"/>
   <circle cx="116.84" cy="33.02" r="1.25"/>
   <circle cx="54.61" cy="20.479" r="1.25"/>
   <circle cx="52.07" cy="14.129" r="1.25"/>
   <circle cx="110.97" cy="35.56" r="1.25"/>
   <circle cx="117.32" cy="33.02" r="1.25"/>
  </g>
  <g fill="#F76F8E" stroke="#F76F8E" stroke-linecap="round" stroke-linejoin="round" stroke-width="0">
   <circle cx="108.11" cy="35.56" r="1.25"/>
   <circle cx="114.46" cy="33.02" r="1.25"/>
   <circle cx="112.87" cy="35.56" r="1.25"/>
   <circle cx="119.22" cy="33.02" r="1.25"/>
   <circle cx="110.49" cy="35.56" r="1.25"/>
   <circle cx="116.84" cy="33.02" r="1.25"/>
   <circle cx="54.61" cy="20.479" r="1.25"/>
   <circle cx="52.07" cy="14.129" r="1.25"/>
   <circle cx="110.97" cy="35.56" r="1.25"/>
   <circle cx="117.32" cy="33.02" r="1.25"/>
  </g>
  <g fill="#A7A5C6" stroke="#A7A5C6" stroke-linecap="round" stroke-linejoin="round" stroke-width="0">
   <circle cx="108.11" cy="35.56" r="1.25"/>
   <circle cx="114.46" cy="33.02" r="1.25"/>
   <circle cx="112.87" cy="35.56" r="1.25"/>
   <circle cx="119.22" cy="33.02" r="1.25"/>
   <circle cx="110.49" cy="35.56" r="1.25"/>
   <circle cx="116.84" cy="33.02" r="1.25"/>
   <circle cx="54.61" cy="20.479" r="1.25"/>
   <circle cx="52.07" cy="14.129" r="1.25"/>
   <circle cx="110.97" cy="35.56" r="1.25"/>
   <circle cx="117.32" cy="33.02" r="1.25"/>
  </g>
  <g fill="#28CCD9" stroke="#28CCD9" stroke-linecap="round" stroke-linejoin="round" stroke-width="0">
   <circle cx="108.11" cy="35.56" r="1.25"/>
   <circle cx="114.46" cy="33.02" r="1.25"/>
   <circle cx="112.87" cy="35.56" r="1.25"/>
   <circle cx="119.22" cy="33.02" r="1.25"/>
   <circle cx="110.49" cy="35.56" r="1.25"/>
   <circle cx="116.84" cy="33.02" r="1.25"/>
   <circle cx="54.61" cy="20.479" r="1.25"/>
   <circle cx="52.07" cy="14.129" r="1.25"/>
   <circle cx="110.97" cy="35.56" r="1.25"/>
   <circle cx="117.32" cy="33.02" r="1.25"/>
  </g>
  <g fill="#E8B2A7" stroke="#E8B2A7" stroke-linecap="round" stroke-linejoin="round" stroke-width="0">
   <circle cx="108.11" cy="35.56" r="1.25"/>
   <circle cx="114.46" cy="33.02" r="1.25"/>
   <circle cx="112.87" cy="35.56" r="1.25"/>
   <circle cx="119.22" cy="33.02" r="1.25"/>
   <circle cx="110.49" cy="35.56" r="1.25"/>
   <circle cx="116.84" cy="33.02" r="1.25"/>
   <circle cx="54.61" cy="20.479" r="1.25"/>
   <circle cx="52.07" cy="14.129" r="1.25"/>
   <circle cx="110.97" cy="35.56" r="1.25"/>
   <circle cx="117.32" cy="33.02" r="1.25"/>
  </g>
  <g fill="#F2EDA1" stroke="#F2EDA1" stroke-linecap="round" stroke-linejoin="round" stroke-width="0">
   <circle cx="108.11" cy="35.56" r="1.25"/>
   <circle cx="114.46" cy="33.02" r="1.25"/>
   <circle cx="112.87" cy="35.56" r="1.25"/>
   <circle cx="119.22" cy="33.02" r="1.25"/>
   <circle cx="110.49" cy="35.56" r="1.25"/>
   <circle cx="116.84" cy="33.02" r="1.25"/>
   <circle cx="54.61" cy="20.479" r="1.25"/>
   <circle cx="52.07" cy="14.129" r="1.25"/>
   <circle cx="110.97" cy="35.56" r="1.25"/>
   <circle cx="117.32" cy="33.02" r="1.25"/>
  </g>
  <g fill="#ED7C33" stroke="#ED7C33" stroke-linecap="round" stroke-linejoin="round" stroke-width="0">
   <circle cx="108.11" cy="35.56" r="1.25"/>
   <circle cx="114.46" cy="33.02" r="1.25"/>
   <circle cx="112.87" cy="35.56" r="1.25"/>
   <circle cx="119.22" cy="33.02" r="1.25"/>
   <circle cx="110.49" cy="35.56" r="1.25"/>
   <circle cx="116.84" cy="33.02" r="1.25"/>
   <circle cx="54.61" cy="20.479" r="1.25"/>
   <circle cx="52.07" cy="14.129" r="1.25"/>
   <circle cx="110.97" cy="35.56" r="1.25"/>
   <circle cx="117.32" cy="33.02" r="1.25"/>
  </g>
  <g fill="#5BC3EB" stroke="#5BC3EB" stroke-linecap="round" stroke-linejoin="round" stroke-width="0">
   <circle cx="108.11" cy="35.56" r="1.25"/>
   <circle cx="114.46" cy="33.02" r="1.25"/>
   <circle cx="112.87" cy="35.56" r="1.25"/>
   <circle cx="119.22" cy="33.02" r="1.25"/>
   <circle cx="110.49" cy="35.56" r="1.25"/>
   <circle cx="116.84" cy="33.02" r="1.25"/>
   <circle cx="54.61" cy="20.479" r="1.25"/>
   <circle cx="52.07" cy="14.129" r="1.25"/>
   <circle cx="110.97" cy="35.56" r="1.25"/>
   <circle cx="117.32" cy="33.02" r="1.25"/>
  </g>
  <g fill="#F76F8E" stroke="#F76F8E" stroke-linecap="round" stroke-linejoin="round" stroke-width="0">
   <circle cx="108.11" cy="35.56" r="1.25"/>
   <circle cx="114.46" cy="33.02" r="1.25"/>
   <circle cx="112.87" cy="35.56" r="1.25"/>
   <circle cx="119.22" cy="33.02" r="1.25"/>
   <circle cx="110.49" cy="35.56" r="1.25"/>
   <circle cx="116.84" cy="33.02" r="1.25"/>
   <circle cx="54.61" cy="20.479" r="1.25"/>
   <circle cx="52.07" cy="14.129" r="1.25"/>
   <circle cx="110.97" cy="35.56" r="1.25"/>
   <circle cx="117.32" cy="33.02" r="1.25"/>
  </g>
  <g fill="#A7A5C6" stroke="#A7A5C6" stroke-linecap="round" stroke-linejoin="round" stroke-width="0">
   <circle cx="108.11" cy="35.56" r="1.25"/>
   <circle cx="114.46" cy="33.02" r="1.25"/>
   <circle cx="112.87" cy="35.56" r="1.25"/>
   <circle cx="119.22" cy="33.02" r="1.25"/>
   <circle cx="110.49" cy="35.56" r="1.25"/>
   <circle cx="116.84" cy="33.02" r="1.25"/>
   <circle cx="54.61" cy="20.479" r="1.25"/>
   <circle cx="52.07" cy="14.129" r="1.25"/>
   <circle cx="110.97" cy="35.56" r="1.25"/>
   <circle cx="117.32" cy="33.02" r="1.25"/>
  </g>
  <g fill="#28CCD9" stroke="#28CCD9" stroke-linecap="round" stroke-linejoin="round" stroke-width="0">
   <circle cx="108.11" cy="35.56" r="1.25"/>
   <circle cx="114.46" cy="33.02" r="1.25"/>
   <circle cx="112.87" cy="35.56" r="1.25"/>
   <circle cx="119.22" cy="33.02" r="1.25"/>
   <circle cx="110.49" cy="35.56" r="1.25"/>
   <circle cx="116.84" cy="33.02" r="1.25"/>
   <circle cx="54.61" cy="20.479" r="1.25"/>
   <circle cx="52.07" cy="14.129" r="1.25"/>
   <circle cx="110.97" cy="35.56" r="1.25"/>
   <circle cx="117.32" cy="33.02" r="1.25"/>
  </g>
  <g fill="#E8B2A7" stroke="#E8B2A7" stroke-linecap="round" stroke-linejoin="round" stroke-width="0">
   <circle cx="108.11" cy="35.56" r="1.25"/>
   <circle cx="114.46" cy="33.02" r="1.25"/>
   <circle cx="112.87" cy="35.56" r="1.25"/>
   <circle cx="119.22" cy="33.02" r="1.25"/>
   <circle cx="110.49" cy="35.56" r="1.25"/>
   <circle cx="116.84" cy="33.02" r="1.25"/>
   <circle cx="54.61" cy="20.479" r="1.25"/>
   <circle cx="52.07" cy="14.129" r="1.25"/>
   <circle cx="110.97" cy="35.56" r="1.25"/>
   <circle cx="117.32" cy="33.02" r="1.25"/>
  </g>
  <g fill="#F2EDA1" stroke="#F2EDA1" stroke-linecap="round" stroke-linejoin="round" stroke-width="0">
   <circle cx="108.11" cy="35.56" r="1.25"/>
   <circle cx="114.46" cy="33.02" r="1.25"/>
   <circle cx="112.87" cy="35.56" r="1.25"/>
   <circle cx="119.22" cy="33.02" r="1.25"/>
   <circle cx="110.49" cy="35.56" r="1.25"/>
   <circle cx="116.84" cy="33.02" r="1.25"/>
   <circle cx="54.61" cy="20.479" r="1.25"/>
   <circle cx="52.07" cy="14.129" r="1.25"/>
   <circle cx="110.97" cy="35.56" r="1.25"/>
   <circle cx="117.32" cy="33.02" r="1.25"/>
  </g>
  <g fill="#ED7C33" stroke="#ED7C33" stroke-linecap="round" stroke-linejoin="round" stroke-width="0">
   <circle cx="108.11" cy="35.56" r="1.25"/>
   <circle cx="114.46" cy="33.02" r="1.25"/>
   <circle cx="112.87" cy="35.56" r="1.25"/>
   <circle cx="119.22" cy="33.02" r="1.25"/>
   <circle cx="110.49" cy="35.56" r="1.25"/>
   <circle cx="116.84" cy="33.02" r="1.25"/>
   <circle cx="54.61" cy="20.479" r="1.25"/>
   <circle cx="52.07" cy="14.129" r="1.25"/>
   <circle cx="110.97" cy="35.56" r="1.25"/>
   <circle cx="117.32" cy="33.02" r="1.25"/>
  </g>
  <g fill="#5BC3EB" stroke="#5BC3EB" stroke-linecap="round" stroke-linejoin="round" stroke-width="0">
   <circle cx="108.11" cy="35.56" r="1.25"/>
   <circle cx="114.46" cy="33.02" r="1.25"/>
   <circle cx="112.87" cy="35.56" r="1.25"/>
   <circle cx="119.22" cy="33.02" r="1.25"/>
   <circle cx="110.49" cy="35.56" r="1.25"/>
   <circle cx="116.84" cy="33.02" r="1.25"/>
   <circle cx="54.61" cy="20.479" r="1.25"/>
   <circle cx="52.07" cy="14.129" r="1.25"/>
   <circle cx="110.97" cy="35.56" r="1.25"/>
   <circle cx="117.32" cy="33.02" r="1.25"/>
  </g>
  <g fill="#F76F8E" stroke="#F76F8E" stroke-linecap="round" stroke-linejoin="round" stroke-width="0">
   <circle cx="108.11" cy="35.56" r="1.25"/>
   <circle cx="114.46" cy="33.02" r="1.25"/>
   <circle cx="112.87" cy="35.56" r="1.25"/>
   <circle cx="119.22" cy="33.02" r="1.25"/>
   <circle cx="110.49" cy="35.56" r="1.25"/>
   <circle cx="116.84" cy="33.02" r="1.25"/>
   <circle cx="54.61" cy="20.479" r="1.25"/>
   <circle cx="52.07" cy="14.129" r="1.25"/>
   <circle cx="110.97" cy="35.56" r="1.25"/>
   <circle cx="117.32" cy="33.02" r="1.25"/>
  </g>
  <g fill="#A7A5C6" stroke="#A7A5C6" stroke-linecap="round" stroke-linejoin="round" stroke-width="0">
   <circle cx="108.11" cy="35.56" r="1.25"/>
   <circle cx="114.46" cy="33.02" r="1.25"/>
   <circle cx="112.87" cy="35.56" r="1.25"/>
   <circle cx="119.22" cy="33.02" r="1.25"/>
   <circle cx="110.49" cy="35.56" r="1.25"/>
   <circle cx="116.84" cy="33.02" r="1.25"/>
   <circle cx="54.61" cy="20.479" r="1.25"/>
   <circle cx="52.07" cy="14.129" r="1.25"/>
   <circle cx="110.97" cy="35.56" r="1.25"/>
   <circle cx="117.32" cy="33.02" r="1.25"/>
  </g>
  <g fill="#28CCD9" stroke="#28CCD9" stroke-linecap="round" stroke-linejoin="round" stroke-width="0">
   <circle cx="108.11" cy="35.56" r="1.25"/>
   <circle cx="114.46" cy="33.02" r="1.25"/>
   <circle cx="112.87" cy="35.56" r="1.25"/>
   <circle cx="119.22" cy="33.02" r="1.25"/>
   <circle cx="110.49" cy="35.56" r="1.25"/>
   <circle cx="116.84" cy="33.02" r="1.25"/>
   <circle cx="54.61" cy="20.479" r="1.25"/>
   <circle cx="52.07" cy="14.129" r="1.25"/>
   <circle cx="110.97" cy="35.56" r="1.25"/>
   <circle cx="117.32" cy="33.02" r="1.25"/>
  </g>
  <g fill="#E8B2A7" stroke="#E8B2A7" stroke-linecap="round" stroke-linejoin="round" stroke-width="0">
   <circle cx="108.11" cy="35.56" r="1.25"/>
   <circle cx="114.46" cy="33.02" r="1.25"/>
   <circle cx="112.87" cy="35.56" r="1.25"/>
   <circle cx="119.22" cy="33.02" r="1.25"/>
   <circle cx="110.49" cy="35.56" r="1.25"/>
   <circle cx="116.84" cy="33.02" r="1.25"/>
   <circle cx="54.61" cy="20.479" r="1.25"/>
   <circle cx="52.07" cy="14.129" r="1.25"/>
   <circle cx="110.97" cy="35.56" r="1.25"/>
   <circle cx="117.32" cy="33.02" r="1.25"/>
  </g>
  <g fill="#F2EDA1" stroke="#F2EDA1" stroke-linecap="round" stroke-linejoin="round" stroke-width="0">
   <circle cx="108.11" cy="35.56" r="1.25"/>
   <circle cx="114.46" cy="33.02" r="1.25"/>
   <circle cx="112.87" cy="35.56" r="1.25"/>
   <circle cx="119.22" cy="33.02" r="1.25"/>
   <circle cx="110.49" cy="35.56" r="1.25"/>
   <circle cx="116.84" cy="33.02" r="1.25"/>
   <circle cx="54.61" cy="20.479" r="1.25"/>
   <circle cx="52.07" cy="14.129" r="1.25"/>
   <circle cx="110.97" cy="35.56" r="1.25"/>
   <circle cx="117.32" cy="33.02" r="1.25"/>
  </g>
  <g fill="#4D7FC4" stroke-width="0">
   <g stroke="#4D7FC4" stroke-linecap="round" stroke-linejoin="round">
    <circle cx="108.11" cy="35.56" r="1.25"/>
    <circle cx="114.46" cy="33.02" r="1.25"/>
    <circle cx="112.87" cy="35.56" r="1.25"/>
    <circle cx="119.22" cy="33.02" r="1.25"/>
    <circle cx="110.49" cy="35.56" r="1.25"/>
    <circle cx="116.84" cy="33.02" r="1.25"/>
    <circle cx="54.61" cy="20.479" r="1.25"/>
    <circle cx="52.07" cy="14.129" r="1.25"/>
    <circle cx="110.97" cy="35.56" r="1.25"/>
    <circle cx="117.32" cy="33.02" r="1.25"/>
   </g>
   <g fill-rule="evenodd">
    <path d="m119.08 44.05-0.096-0.019-0.081-0.054-0.054-0.081-0.019-0.096v-0.6l0.019-0.096 0.054-0.081 0.081-0.054 0.096-0.019h0.6l0.096 0.019 0.081 0.054 0.054 0.081 0.019 0.096v0.6l-0.019 0.096-0.054 0.081-0.081 0.054-0.096 0.019z"/>
    <path d="m119.08 41.25-0.096-0.019-0.081-0.054-0.054-0.081-0.019-0.096v-0.6l0.019-0.096 0.054-0.081 0.081-0.054 0.096-0.019h0.6l0.096 0.019 0.081 0.054 0.054 0.081 0.019 0.096v0.6l-0.019 0.096-0.054 0.081-0.081 0.054-0.096 0.019z"/>
   </g>
  </g>
 </g>
 <g stroke-width="0">
  <g fill="#00C2C2" fill-opacity=".9" fill-rule="evenodd" stroke-width="0">
   <path d="m119.08 44.05-0.096-0.019-0.081-0.054-0.054-0.081-0.019-0.096v-0.6l0.019-0.096 0.054-0.081 0.081-0.054 0.096-0.019h0.6l0.096 0.019 0.081 0.054 0.054 0.081 0.019 0.096v0.6l-0.019 0.096-0.054 0.081-0.081 0.054-0.096 0.019z"/>
   <path d="m119.08 41.25-0.096-0.019-0.081-0.054-0.054-0.081-0.019-0.096v-0.6l0.019-0.096 0.054-0.081 0.081-0.054 0.096-0.019h0.6l0.096 0.019 0.081 0.054 0.054 0.081 0.019 0.096v0.6l-0.019 0.096-0.054 0.081-0.081 0.054-0.096 0.019z"/>
  </g>
 </g>
 <g fill-opacity="0" stroke-linecap="round" stroke-linejoin="round">
  <g fill="#E8B2A7" stroke="#E8B2A7" stroke-width=".15">
   <g transform="rotate(-90 121.28 42.227)">
    <text transform="scale(-1 1) translate(-242.57)" x="121.285" y="42.727" font-size="1.333" opacity="0" text-anchor="middle" lengthAdjust="spacingAndGlyphs" textLength="2.202">D1</text>
   </g>
   <g class="stroked-text">
    <desc>D1</desc>
    <path d="m121.74 41.489h-1"/>
    <path d="m120.74 41.489v0.238"/>
    <path d="m120.74 41.727 0.047 0.143"/>
    <path d="m120.79 41.87 0.096 0.095"/>
    <path d="m120.88 41.965 0.095 0.048"/>
    <path d="m120.98 42.013 0.19 0.047"/>
    <path d="m121.17 42.06h0.143"/>
    <path d="m121.31 42.06 0.191-0.047"/>
    <path d="m121.5 42.013 0.095-0.048"/>
    <path d="m121.6 41.965 0.095-0.095"/>
    <path d="m121.69 41.87 0.048-0.143"/>
    <path d="m121.74 41.727v-0.238"/>
    <path d="m121.74 43.013v-0.572"/>
    <path d="m121.74 42.727h-1"/>
    <path d="m120.74 42.727 0.143-0.095"/>
    <path d="m120.88 42.632 0.095-0.095"/>
    <path d="m120.98 42.537 0.048-0.096"/>
   </g>
  </g>
  <g fill="#E8B2A7" stroke="#E8B2A7" stroke-width=".12">
   <path d="m118.38 44.31v-3.86"/>
   <path d="m120.38 44.31h-2"/>
   <path d="m120.38 44.31v-3.86"/>
  </g>
  <g fill="#F2EDA1" stroke="#F2EDA1" stroke-width=".15">
   <text x="111.919" y="30.600" font-size="1.333" opacity="0" text-anchor="middle" lengthAdjust="spacingAndGlyphs" textLength="4.202">SW1b</text>
   <g class="stroked-text">
    <desc>SW1b</desc>
    <path d="m110.13 30.507 0.143 0.048"/>
    <path d="m110.28 30.555h0.238"/>
    <path d="m110.51 30.555 0.095-0.048"/>
    <path d="m110.61 30.507 0.048-0.047"/>
    <path d="m110.66 30.46 0.047-0.096"/>
    <path d="m110.7 30.364v-0.095"/>
    <path d="m110.7 30.269-0.047-0.095"/>
    <path d="m110.66 30.174-0.048-0.048"/>
    <path d="m110.61 30.126-0.095-0.047"/>
    <path d="m110.51 30.079-0.19-0.048"/>
    <path d="m110.32 30.031-0.096-0.048"/>
    <path d="m110.23 29.983-0.047-0.047"/>
    <path d="m110.18 29.936-0.048-0.095"/>
    <path d="m110.13 29.841v-0.096"/>
    <path d="m110.13 29.745 0.048-0.095"/>
    <path d="m110.18 29.65 0.047-0.048"/>
    <path d="m110.23 29.602 0.096-0.047"/>
    <path d="m110.32 29.555h0.238"/>
    <path d="m110.56 29.555 0.142 0.047"/>
    <path d="m111.04 29.555 0.238 1"/>
    <path d="m111.28 30.555 0.19-0.714"/>
    <path d="m111.47 29.841 0.191 0.714"/>
    <path d="m111.66 30.555 0.238-1"/>
    <path d="m112.8 30.555h-0.572"/>
    <path d="m112.51 30.555v-1"/>
    <path d="m112.51 29.555-0.095 0.143"/>
    <path d="m112.42 29.698-0.095 0.095"/>
    <path d="m112.32 29.793-0.096 0.048"/>
    <path d="m113.23 30.555v-1"/>
    <path d="m113.23 29.936 0.096-0.048"/>
    <path d="m113.32 29.888h0.19"/>
    <path d="m113.51 29.888 0.095 0.048"/>
    <path d="m113.61 29.936 0.048 0.047"/>
    <path d="m113.66 29.983 0.047 0.096"/>
    <path d="m113.7 30.079v0.285"/>
    <path d="m113.7 30.364-0.047 0.096"/>
    <path d="m113.66 30.46-0.048 0.047"/>
    <path d="m113.61 30.507-0.095 0.048"/>
    <path d="m113.51 30.555h-0.19"/>
    <path d="m113.32 30.555-0.096-0.048"/>
   </g>
   <text x="116.681" y="30.600" font-size="1.333" opacity="0" text-anchor="middle" lengthAdjust="spacingAndGlyphs" textLength="4.155">SW1c</text>
   <g class="stroked-text">
    <desc>SW1c</desc>
    <path d="m114.92 30.507 0.143 0.048"/>
    <path d="m115.06 30.555h0.238"/>
    <path d="m115.3 30.555 0.096-0.048"/>
    <path d="m115.4 30.507 0.047-0.047"/>
    <path d="m115.44 30.46 0.048-0.096"/>
    <path d="m115.49 30.364v-0.095"/>
    <path d="m115.49 30.269-0.048-0.095"/>
    <path d="m115.44 30.174-0.047-0.048"/>
    <path d="m115.4 30.126-0.096-0.047"/>
    <path d="m115.3 30.079-0.19-0.048"/>
    <path d="m115.11 30.031-0.095-0.048"/>
    <path d="m115.02 29.983-0.048-0.047"/>
    <path d="m114.97 29.936-0.048-0.095"/>
    <path d="m114.92 29.841v-0.096"/>
    <path d="m114.92 29.745 0.048-0.095"/>
    <path d="m114.97 29.65 0.048-0.048"/>
    <path d="m115.02 29.602 0.095-0.047"/>
    <path d="m115.11 29.555h0.238"/>
    <path d="m115.35 29.555 0.143 0.047"/>
    <path d="m115.82 29.555 0.238 1"/>
    <path d="m116.06 30.555 0.191-0.714"/>
    <path d="m116.25 29.841 0.19 0.714"/>
    <path d="m116.44 30.555 0.238-1"/>
    <path d="m117.59 30.555h-0.571"/>
    <path d="m117.3 30.555v-1"/>
    <path d="m117.3 29.555-0.095 0.143"/>
    <path d="m117.2 29.698-0.095 0.095"/>
    <path d="m117.11 29.793-0.095 0.048"/>
    <path d="m118.44 30.507-0.095 0.048"/>
    <path d="m118.35 30.555h-0.191"/>
    <path d="m118.16 30.555-0.095-0.048"/>
    <path d="m118.06 30.507-0.047-0.047"/>
    <path d="m118.02 30.46-0.048-0.096"/>
    <path d="m117.97 30.364v-0.285"/>
    <path d="m117.97 30.079 0.048-0.096"/>
    <path d="m118.02 29.983 0.047-0.047"/>
    <path d="m118.06 29.936 0.095-0.048"/>
    <path d="m118.16 29.888h0.191"/>
    <path d="m118.35 29.888 0.095 0.048"/>
   </g>
   <text x="114.300" y="30.600" font-size="1.333" opacity="0" text-anchor="middle" lengthAdjust="spacingAndGlyphs" textLength="3.298">SW1</text>
   <g class="stroked-text">
    <desc>SW1</desc>
    <path d="m112.97 30.507 0.143 0.048"/>
    <path d="m113.11 30.555h0.238"/>
    <path d="m113.35 30.555 0.095-0.048"/>
    <path d="m113.44 30.507 0.047-0.047"/>
    <path d="m113.49 30.46 0.048-0.096"/>
    <path d="m113.54 30.364v-0.095"/>
    <path d="m113.54 30.269-0.048-0.095"/>
    <path d="m113.49 30.174-0.047-0.048"/>
    <path d="m113.44 30.126-0.095-0.047"/>
    <path d="m113.35 30.079-0.191-0.048"/>
    <path d="m113.16 30.031-0.095-0.048"/>
    <path d="m113.06 29.983-0.048-0.047"/>
    <path d="m113.01 29.936-0.047-0.095"/>
    <path d="m112.97 29.841v-0.096"/>
    <path d="m112.97 29.745 0.047-0.095"/>
    <path d="m113.01 29.65 0.048-0.048"/>
    <path d="m113.06 29.602 0.095-0.047"/>
    <path d="m113.16 29.555h0.238"/>
    <path d="m113.4 29.555 0.143 0.047"/>
    <path d="m113.87 29.555 0.239 1"/>
    <path d="m114.11 30.555 0.19-0.714"/>
    <path d="m114.3 29.841 0.19 0.714"/>
    <path d="m114.49 30.555 0.239-1"/>
    <path d="m115.63 30.555h-0.571"/>
    <path d="m115.35 30.555v-1"/>
    <path d="m115.35 29.555-0.096 0.143"/>
    <path d="m115.25 29.698-0.095 0.095"/>
    <path d="m115.16 29.793-0.095 0.048"/>
   </g>
   <g transform="rotate(-90 49.15 16.669)">
    <text x="49.150" y="17.169" font-size="1.333" opacity="0" text-anchor="middle" lengthAdjust="spacingAndGlyphs" textLength="4.202">SW1d</text>
   </g>
   <g class="stroked-text">
    <desc>SW1d</desc>
    <path d="m49.557 18.454 0.048-0.142"/>
    <path d="m49.605 18.312v-0.238"/>
    <path d="m49.605 18.074-0.048-0.096"/>
    <path d="m49.557 17.978-0.047-0.047"/>
    <path d="m49.51 17.931-0.096-0.048"/>
    <path d="m49.414 17.883h-0.095"/>
    <path d="m49.319 17.883-0.095 0.048"/>
    <path d="m49.224 17.931-0.048 0.047"/>
    <path d="m49.176 17.978-0.047 0.096"/>
    <path d="m49.129 18.074-0.048 0.19"/>
    <path d="m49.081 18.264-0.048 0.095"/>
    <path d="m49.033 18.359-0.047 0.048"/>
    <path d="m48.986 18.407-0.095 0.047"/>
    <path d="m48.891 18.454h-0.096"/>
    <path d="m48.795 18.454-0.095-0.047"/>
    <path d="m48.7 18.407-0.048-0.048"/>
    <path d="m48.652 18.359-0.047-0.095"/>
    <path d="m48.605 18.264v-0.238"/>
    <path d="m48.605 18.026 0.047-0.143"/>
    <path d="m48.605 17.55 1-0.238"/>
    <path d="m49.605 17.312-0.714-0.191"/>
    <path d="m48.891 17.121 0.714-0.19"/>
    <path d="m49.605 16.931-1-0.238"/>
    <path d="m49.605 15.788v0.571"/>
    <path d="m49.605 16.074h-1"/>
    <path d="m48.605 16.074 0.143 0.095"/>
    <path d="m48.748 16.169 0.095 0.095"/>
    <path d="m48.843 16.264 0.048 0.095"/>
    <path d="m49.605 14.931h-1"/>
    <path d="m49.557 14.931 0.048 0.095"/>
    <path d="m49.605 15.026v0.19"/>
    <path d="m49.605 15.216-0.048 0.096"/>
    <path d="m49.557 15.312-0.047 0.047"/>
    <path d="m49.51 15.359-0.096 0.048"/>
    <path d="m49.414 15.407h-0.285"/>
    <path d="m49.129 15.407-0.096-0.048"/>
    <path d="m49.033 15.359-0.047-0.047"/>
    <path d="m48.986 15.312-0.048-0.096"/>
    <path d="m48.938 15.216v-0.19"/>
    <path d="m48.938 15.026 0.048-0.095"/>
   </g>
   <text x="114.776" y="30.600" font-size="1.333" opacity="0" text-anchor="middle" lengthAdjust="spacingAndGlyphs" textLength="4.202">SW1a</text>
   <g class="stroked-text">
    <desc>SW1a</desc>
    <path d="m112.99 30.507 0.142 0.048"/>
    <path d="m113.13 30.555h0.238"/>
    <path d="m113.37 30.555 0.096-0.048"/>
    <path d="m113.47 30.507 0.047-0.047"/>
    <path d="m113.51 30.46 0.048-0.096"/>
    <path d="m113.56 30.364v-0.095"/>
    <path d="m113.56 30.269-0.048-0.095"/>
    <path d="m113.51 30.174-0.047-0.048"/>
    <path d="m113.47 30.126-0.096-0.047"/>
    <path d="m113.37 30.079-0.19-0.048"/>
    <path d="m113.18 30.031-0.095-0.048"/>
    <path d="m113.09 29.983-0.048-0.047"/>
    <path d="m113.04 29.936-0.047-0.095"/>
    <path d="m112.99 29.841v-0.096"/>
    <path d="m112.99 29.745 0.047-0.095"/>
    <path d="m113.04 29.65 0.048-0.048"/>
    <path d="m113.09 29.602 0.095-0.047"/>
    <path d="m113.18 29.555h0.238"/>
    <path d="m113.42 29.555 0.143 0.047"/>
    <path d="m113.9 29.555 0.238 1"/>
    <path d="m114.13 30.555 0.191-0.714"/>
    <path d="m114.32 29.841 0.19 0.714"/>
    <path d="m114.51 30.555 0.238-1"/>
    <path d="m115.66 30.555h-0.571"/>
    <path d="m115.37 30.555v-1"/>
    <path d="m115.37 29.555-0.095 0.143"/>
    <path d="m115.28 29.698-0.095 0.095"/>
    <path d="m115.18 29.793-0.095 0.048"/>
    <path d="m116.51 30.555v-0.524"/>
    <path d="m116.51 30.031-0.047-0.095"/>
    <path d="m116.47 29.936-0.096-0.048"/>
    <path d="m116.37 29.888h-0.19"/>
    <path d="m116.18 29.888-0.095 0.048"/>
    <path d="m116.51 30.507-0.095 0.048"/>
    <path d="m116.42 30.555h-0.238"/>
    <path d="m116.18 30.555-0.095-0.048"/>
    <path d="m116.09 30.507-0.048-0.095"/>
    <path d="m116.04 30.412v-0.095"/>
    <path d="m116.04 30.317 0.048-0.096"/>
    <path d="m116.09 30.221 0.095-0.047"/>
    <path d="m116.18 30.174h0.238"/>
    <path d="m116.42 30.174 0.095-0.048"/>
   </g>
  </g>
  <g fill="#F2EDA1" stroke="#F2EDA1" stroke-width=".12">
   <path d="m104.82 31v14.2"/>
   <path d="m104.82 45.2h14.2"/>
   <path d="m119.02 31h-14.2"/>
   <path d="m119.02 45.2v-14.2"/>
   <path d="m109.58 31v14.2"/>
   <path d="m109.58 45.2h14.2"/>
   <path d="m123.78 31h-14.2"/>
   <path d="m123.78 45.2v-14.2"/>
   <path d="m107.2 31v14.2"/>
   <path d="m107.2 45.2h14.2"/>
   <path d="m121.4 31h-14.2"/>
   <path d="m121.4 45.2v-14.2"/>
   <path d="m50.05 23.769h14.2"/>
   <path d="m64.25 23.769v-14.2"/>
   <path d="m50.05 9.569v14.2"/>
   <path d="m64.25 9.569h-14.2"/>
   <path d="m107.68 31v14.2"/>
   <path d="m107.68 45.2h14.2"/>
   <path d="m121.88 31h-14.2"/>
   <path d="m121.88 45.2v-14.2"/>
  </g>
  <g stroke="#000" stroke-width=".12">
   <g fill="#02FFEE" fill-opacity=".4" stroke-width="0">
    <g stroke="#02FFEE" stroke-linecap="round" stroke-linejoin="round">
     <circle cx="106.84" cy="38.1" r=".875"/>
     <circle cx="111.92" cy="38.1" r="2"/>
     <circle cx="117" cy="38.1" r=".875"/>
     <circle cx="108.11" cy="35.56" r="1.25"/>
     <circle cx="114.46" cy="33.02" r="1.25"/>
     <circle cx="111.6" cy="38.1" r=".875"/>
     <circle cx="116.68" cy="38.1" r="2"/>
     <circle cx="121.76" cy="38.1" r=".875"/>
     <circle cx="112.87" cy="35.56" r="1.25"/>
     <circle cx="119.22" cy="33.02" r="1.25"/>
     <circle cx="109.22" cy="38.1" r=".875"/>
     <circle cx="114.3" cy="38.1" r="2"/>
     <circle cx="119.38" cy="38.1" r=".875"/>
     <circle cx="110.49" cy="35.56" r="1.25"/>
     <circle cx="116.84" cy="33.02" r="1.25"/>
     <circle cx="57.15" cy="21.749" r=".875"/>
     <circle cx="57.15" cy="16.669" r="2"/>
     <circle cx="57.15" cy="11.589" r=".875"/>
     <circle cx="54.61" cy="20.479" r="1.25"/>
     <circle cx="52.07" cy="14.129" r="1.25"/>
     <circle cx="109.7" cy="38.1" r=".875"/>
     <circle cx="114.78" cy="38.1" r="2"/>
     <circle cx="119.86" cy="38.1" r=".875"/>
     <circle cx="110.97" cy="35.56" r="1.25"/>
     <circle cx="117.32" cy="33.02" r="1.25"/>
    </g>
    <g fill-rule="evenodd">
     <path d="m119.08 44.05-0.096-0.019-0.081-0.054-0.054-0.081-0.019-0.096v-0.6l0.019-0.096 0.054-0.081 0.081-0.054 0.096-0.019h0.6l0.096 0.019 0.081 0.054 0.054 0.081 0.019 0.096v0.6l-0.019 0.096-0.054 0.081-0.081 0.054-0.096 0.019z"/>
     <path d="m119.08 41.25-0.096-0.019-0.081-0.054-0.054-0.081-0.019-0.096v-0.6l0.019-0.096 0.054-0.081 0.081-0.054 0.096-0.019h0.6l0.096 0.019 0.081 0.054 0.054 0.081 0.019 0.096v0.6l-0.019 0.096-0.054 0.081-0.081 0.054-0.096 0.019z"/>
    </g>
   </g>
  </g>
 </g>
 <g stroke-width="0">
  <g fill="#D864FF" fill-opacity=".4" stroke="#D864FF" stroke-linecap="round" stroke-linejoin="round" stroke-width="0">
   <circle cx="106.84" cy="38.1" r=".875"/>
   <circle cx="111.92" cy="38.1" r="2"/>
   <circle cx="117" cy="38.1" r=".875"/>
   <circle cx="111.6" cy="38.1" r=".875"/>
   <circle cx="116.68" cy="38.1" r="2"/>
   <circle cx="121.76" cy="38.1" r=".875"/>
   <circle cx="109.22" cy="38.1" r=".875"/>
   <circle cx="114.3" cy="38.1" r="2"/>
   <circle cx="119.38" cy="38.1" r=".875"/>
   <circle cx="57.15" cy="21.749" r=".875"/>
   <circle cx="57.15" cy="16.669" r="2"/>
   <circle cx="57.15" cy="11.589" r=".875"/>
   <circle cx="109.7" cy="38.1" r=".875"/>
   <circle cx="114.78" cy="38.1" r="2"/>
   <circle cx="119.86" cy="38.1" r=".875"/>
  </g>
 </g>
</svg>
