<?xml version="1.0" encoding="UTF-8"?>
<!DOCTYPE svg  PUBLIC '-//W3C//DTD SVG 1.1//EN'  'http://www.w3.org/Graphics/SVG/1.1/DTD/svg11.dtd'>
<svg width="132.56mm" height="50.749mm" version="1.1" viewBox="0 0 132.56 50.749" xmlns="http://www.w3.org/2000/svg">
 <title>SVG Image created as fm2u-render.svg date 2026/07/14 10:50:52</title>
 <desc>Image generated by PCBNEW</desc>
 <rect width="132.56mm" height="50.749mm" fill="#282A36"/>
 <g fill="#f55">
  <circle cx="12.823" cy="22.91" r="1.25"/>
  <circle cx="10.283" cy="16.56" r="1.25"/>
  <circle cx="69.179" cy="37.991" r="1.25"/>
  <circle cx="75.529" cy="35.451" r="1.25"/>
  <circle cx="66.322" cy="37.991" r="1.25"/>
  <circle cx="72.672" cy="35.451" r="1.25"/>
  <circle cx="68.703" cy="37.991" r="1.25"/>
  <circle cx="75.053" cy="35.451" r="1.25"/>
  <circle cx="71.084" cy="37.991" r="1.25"/>
  <circle cx="77.434" cy="35.451" r="1.25"/>
 </g>
 <g fill="none" stroke="#f55" stroke-linecap="round" stroke-linejoin="round" stroke-width=".2">
  <path d="m68.703 37.991h0.4762"/>
  <path d="m66.322 37.991h2.3813"/>
  <path d="m69.179 37.991h1.905"/>
 </g>
 <g fill="#50FA7B">
  <circle cx="12.823" cy="22.91" r="1.25"/>
  <circle cx="10.283" cy="16.56" r="1.25"/>
  <circle cx="69.179" cy="37.991" r="1.25"/>
  <circle cx="75.529" cy="35.451" r="1.25"/>
  <circle cx="66.322" cy="37.991" r="1.25"/>
  <circle cx="72.672" cy="35.451" r="1.25"/>
  <circle cx="68.703" cy="37.991" r="1.25"/>
  <circle cx="75.053" cy="35.451" r="1.25"/>
  <circle cx="71.084" cy="37.991" r="1.25"/>
  <circle cx="77.434" cy="35.451" r="1.25"/>
  <path d="m77.293 46.481-0.0957-0.019-0.0811-0.0542-0.0542-0.0811-0.019-0.0957v-0.5999l0.019-0.0957 0.0542-0.0811 0.0811-0.0542 0.0957-0.019h0.6l0.0957 0.019 0.0811 0.0542 0.0542 0.0811 0.019 0.0957v0.5999l-0.019 0.0957-0.0542 0.0811-0.0811 0.0542-0.0957 0.019z" fill="#50FA7B" fill-rule="evenodd"/>
  <path d="m77.293 43.681-0.0957-0.019-0.0811-0.0542-0.0542-0.0811-0.019-0.0957v-0.6l0.019-0.0956 0.0542-0.0811 0.0811-0.0542 0.0957-0.0191h0.6l0.0957 0.0191 0.0811 0.0542 0.0542 0.0811 0.019 0.0956v0.6l-0.019 0.0957-0.0542 0.0811-0.0811 0.0542-0.0957 0.019z" fill="#50FA7B" fill-rule="evenodd"/>
 </g>
 <g fill="none" stroke-linecap="round" stroke-linejoin="round">
  <g stroke="#8BE9FD" stroke-width=".15">
   <text x="15.3630" y="17.6000" font-size="1.3333" opacity="0" stroke-opacity="0" text-anchor="middle" lengthAdjust="spacingAndGlyphs" textLength="3.8214">ST1d</text>
   <g class="stroked-text">
    <desc>ST1d</desc>
    <path d="m13.768 17.507 0.1428 0.0476"/>
    <path d="m13.911 17.555h0.2381"/>
    <path d="m14.149 17.555 0.0953-0.0476"/>
    <path d="m14.244 17.507 0.0476-0.0476"/>
    <path d="m14.292 17.46 0.0476-0.0953"/>
    <path d="m14.339 17.364v-0.0952"/>
    <path d="m14.339 17.269-0.0476-0.0952"/>
    <path d="m14.292 17.174-0.0476-0.0477"/>
    <path d="m14.244 17.126-0.0953-0.0476"/>
    <path d="m14.149 17.079-0.1905-0.0476"/>
    <path d="m13.958 17.031-0.0952-0.0476"/>
    <path d="m13.863 16.983-0.0476-0.0476"/>
    <path d="m13.815 16.936-0.0476-0.0953"/>
    <path d="m13.768 16.84v-0.0952"/>
    <path d="m13.768 16.745 0.0476-0.0952"/>
    <path d="m13.815 16.65 0.0476-0.0477"/>
    <path d="m13.863 16.602 0.0952-0.0476"/>
    <path d="m13.958 16.555h0.2381"/>
    <path d="m14.196 16.555 0.1429 0.0476"/>
    <path d="m14.625 16.555h0.5714"/>
    <path d="m14.911 17.555v-1"/>
    <path d="m16.054 17.555h-0.5715"/>
    <path d="m15.768 17.555v-1"/>
    <path d="m15.768 16.555-0.0953 0.1429"/>
    <path d="m15.672 16.698-0.0952 0.0952"/>
    <path d="m15.577 16.793-0.0953 0.0476"/>
    <path d="m16.911 17.555v-1"/>
    <path d="m16.911 17.507-0.0952 0.0476"/>
    <path d="m16.815 17.555h-0.1905"/>
    <path d="m16.625 17.555-0.0952-0.0476"/>
    <path d="m16.53 17.507-0.0477-0.0476"/>
    <path d="m16.482 17.46-0.0476-0.0953"/>
    <path d="m16.434 17.364v-0.2857"/>
    <path d="m16.434 17.079 0.0476-0.0952"/>
    <path d="m16.482 16.983 0.0477-0.0476"/>
    <path d="m16.53 16.936 0.0952-0.0476"/>
    <path d="m16.625 16.888h0.1905"/>
    <path d="m16.815 16.888 0.0952 0.0476"/>
   </g>
   <text x="72.5130" y="39.0312" font-size="1.3333" opacity="0" stroke-opacity="0" text-anchor="middle" lengthAdjust="spacingAndGlyphs" textLength="2.9167">ST1</text>
   <g class="stroked-text">
    <desc>ST1</desc>
    <path d="m71.37 38.938 0.1429 0.0477"/>
    <path d="m71.513 38.986h0.2381"/>
    <path d="m71.751 38.986 0.0952-0.0477"/>
    <path d="m71.846 38.938 0.0477-0.0476"/>
    <path d="m71.894 38.891 0.0476-0.0952"/>
    <path d="m71.942 38.796v-0.0952"/>
    <path d="m71.942 38.7-0.0476-0.0953"/>
    <path d="m71.894 38.605-0.0477-0.0476"/>
    <path d="m71.846 38.558-0.0952-0.0476"/>
    <path d="m71.751 38.51-0.1905-0.0476"/>
    <path d="m71.561 38.462-0.0952-0.0477"/>
    <path d="m71.465 38.415-0.0476-0.0476"/>
    <path d="m71.418 38.367-0.0477-0.0952"/>
    <path d="m71.37 38.272v-0.0953"/>
    <path d="m71.37 38.176 0.0477-0.0952"/>
    <path d="m71.418 38.081 0.0476-0.0476"/>
    <path d="m71.465 38.034 0.0952-0.0476"/>
    <path d="m71.561 37.986h0.2381"/>
    <path d="m71.799 37.986 0.1429 0.0476"/>
    <path d="m72.227 37.986h0.5714"/>
    <path d="m72.513 38.986v-1"/>
    <path d="m73.656 38.986h-0.5715"/>
    <path d="m73.37 38.986v-1"/>
    <path d="m73.37 37.986-0.0952 0.1428"/>
    <path d="m73.275 38.129-0.0952 0.0953"/>
    <path d="m73.18 38.224-0.0953 0.0476"/>
   </g>
   <g transform="rotate(-90 7.363 19.1)">
    <text x="7.3630" y="19.6000" font-size="1.3333" opacity="0" stroke-opacity="0" text-anchor="middle" lengthAdjust="spacingAndGlyphs" textLength="4.2024">SW1d</text>
   </g>
   <g class="stroked-text">
    <desc>SW1d</desc>
    <path d="m7.7702 20.886 0.0476-0.1428"/>
    <path d="m7.8178 20.743v-0.2381"/>
    <path d="m7.8178 20.505-0.0476-0.0953"/>
    <path d="m7.7702 20.41-0.0476-0.0476"/>
    <path d="m7.7226 20.362-0.0953-0.0476"/>
    <path d="m7.6273 20.314h-0.0952"/>
    <path d="m7.5321 20.314-0.0952 0.0476"/>
    <path d="m7.4369 20.362-0.0477 0.0476"/>
    <path d="m7.3892 20.41-0.0476 0.0953"/>
    <path d="m7.3416 20.505-0.0476 0.1904"/>
    <path d="m7.294 20.695-0.0476 0.0953"/>
    <path d="m7.2464 20.79-0.0476 0.0476"/>
    <path d="m7.1988 20.838-0.0953 0.0476"/>
    <path d="m7.1035 20.886h-0.0952"/>
    <path d="m7.0083 20.886-0.0952-0.0476"/>
    <path d="m6.9131 20.838-0.0477-0.0476"/>
    <path d="m6.8654 20.79-0.0476-0.0953"/>
    <path d="m6.8178 20.695v-0.2381"/>
    <path d="m6.8178 20.457 0.0476-0.1428"/>
    <path d="m6.8178 19.981 1-0.2381"/>
    <path d="m7.8178 19.743-0.7143-0.1905"/>
    <path d="m7.1035 19.552 0.7143-0.1905"/>
    <path d="m7.8178 19.362-1-0.2381"/>
    <path d="m7.8178 18.219v0.5715"/>
    <path d="m7.8178 18.505h-1"/>
    <path d="m6.8178 18.505 0.1429 0.0952"/>
    <path d="m6.9607 18.6 0.0952 0.0952"/>
    <path d="m7.0559 18.695 0.0476 0.0953"/>
    <path d="m7.8178 17.362h-1"/>
    <path d="m7.7702 17.362 0.0476 0.0952"/>
    <path d="m7.8178 17.457v0.1905"/>
    <path d="m7.8178 17.648-0.0476 0.0953"/>
    <path d="m7.7702 17.743-0.0476 0.0476"/>
    <path d="m7.7226 17.79-0.0953 0.0476"/>
    <path d="m7.6273 17.838h-0.2857"/>
    <path d="m7.3416 17.838-0.0952-0.0476"/>
    <path d="m7.2464 17.79-0.0476-0.0476"/>
    <path d="m7.1988 17.743-0.0476-0.0953"/>
    <path d="m7.1512 17.648v-0.1905"/>
    <path d="m7.1512 17.457 0.0476-0.0952"/>
   </g>
   <text x="72.9892" y="33.0312" font-size="1.3333" opacity="0" stroke-opacity="0" text-anchor="middle" lengthAdjust="spacingAndGlyphs" textLength="4.2024">SW1a</text>
   <g class="stroked-text">
    <desc>SW1a</desc>
    <path d="m71.204 32.938 0.1429 0.0477"/>
    <path d="m71.346 32.986h0.2381"/>
    <path d="m71.584 32.986 0.0952-0.0477"/>
    <path d="m71.68 32.938 0.0476-0.0476"/>
    <path d="m71.727 32.891 0.0477-0.0952"/>
    <path d="m71.775 32.796v-0.0952"/>
    <path d="m71.775 32.7-0.0477-0.0953"/>
    <path d="m71.727 32.605-0.0476-0.0476"/>
    <path d="m71.68 32.558-0.0952-0.0476"/>
    <path d="m71.584 32.51-0.1905-0.0476"/>
    <path d="m71.394 32.462-0.0952-0.0477"/>
    <path d="m71.299 32.415-0.0476-0.0476"/>
    <path d="m71.251 32.367-0.0477-0.0952"/>
    <path d="m71.204 32.272v-0.0953"/>
    <path d="m71.204 32.176 0.0477-0.0952"/>
    <path d="m71.251 32.081 0.0476-0.0476"/>
    <path d="m71.299 32.034 0.0952-0.0476"/>
    <path d="m71.394 31.986h0.2381"/>
    <path d="m71.632 31.986 0.1429 0.0476"/>
    <path d="m72.108 31.986 0.2381 1"/>
    <path d="m72.346 32.986 0.1905-0.7143"/>
    <path d="m72.537 32.272 0.1904 0.7143"/>
    <path d="m72.727 32.986 0.2381-1"/>
    <path d="m73.87 32.986h-0.5714"/>
    <path d="m73.584 32.986v-1"/>
    <path d="m73.584 31.986-0.0953 0.1428"/>
    <path d="m73.489 32.129-0.0952 0.0953"/>
    <path d="m73.394 32.224-0.0952 0.0476"/>
    <path d="m74.727 32.986v-0.5238"/>
    <path d="m74.727 32.462-0.0476-0.0953"/>
    <path d="m74.68 32.367-0.0952-0.0476"/>
    <path d="m74.584 32.319h-0.1905"/>
    <path d="m74.394 32.319-0.0952 0.0476"/>
    <path d="m74.727 32.938-0.0952 0.0477"/>
    <path d="m74.632 32.986h-0.2381"/>
    <path d="m74.394 32.986-0.0952-0.0477"/>
    <path d="m74.299 32.938-0.0476-0.0952"/>
    <path d="m74.251 32.843v-0.0952"/>
    <path d="m74.251 32.748 0.0476-0.0953"/>
    <path d="m74.299 32.653 0.0952-0.0476"/>
    <path d="m74.394 32.605h0.2381"/>
    <path d="m74.632 32.605 0.0952-0.0476"/>
   </g>
   <text x="74.8942" y="39.0312" font-size="1.3333" opacity="0" stroke-opacity="0" text-anchor="middle" lengthAdjust="spacingAndGlyphs" textLength="3.7738">ST1c</text>
   <g class="stroked-text">
    <desc>ST1c</desc>
    <path d="m73.323 38.938 0.1429 0.0477"/>
    <path d="m73.466 38.986h0.2381"/>
    <path d="m73.704 38.986 0.0952-0.0477"/>
    <path d="m73.799 38.938 0.0476-0.0476"/>
    <path d="m73.847 38.891 0.0476-0.0952"/>
    <path d="m73.894 38.796v-0.0952"/>
    <path d="m73.894 38.7-0.0476-0.0953"/>
    <path d="m73.847 38.605-0.0476-0.0476"/>
    <path d="m73.799 38.558-0.0952-0.0476"/>
    <path d="m73.704 38.51-0.1905-0.0476"/>
    <path d="m73.513 38.462-0.0952-0.0477"/>
    <path d="m73.418 38.415-0.0477-0.0476"/>
    <path d="m73.37 38.367-0.0476-0.0952"/>
    <path d="m73.323 38.272v-0.0953"/>
    <path d="m73.323 38.176 0.0476-0.0952"/>
    <path d="m73.37 38.081 0.0477-0.0476"/>
    <path d="m73.418 38.034 0.0952-0.0476"/>
    <path d="m73.513 37.986h0.2381"/>
    <path d="m73.751 37.986 0.1428 0.0476"/>
    <path d="m74.18 37.986h0.5714"/>
    <path d="m74.466 38.986v-1"/>
    <path d="m75.608 38.986h-0.5714"/>
    <path d="m75.323 38.986v-1"/>
    <path d="m75.323 37.986-0.0952 0.1428"/>
    <path d="m75.228 38.129-0.0953 0.0953"/>
    <path d="m75.132 38.224-0.0952 0.0476"/>
    <path d="m76.466 38.938-0.0953 0.0477"/>
    <path d="m76.37 38.986h-0.1904"/>
    <path d="m76.18 38.986-0.0953-0.0477"/>
    <path d="m76.085 38.938-0.0476-0.0476"/>
    <path d="m76.037 38.891-0.0476-0.0952"/>
    <path d="m75.99 38.796v-0.2857"/>
    <path d="m75.99 38.51 0.0476-0.0953"/>
    <path d="m76.037 38.415 0.0476-0.0476"/>
    <path d="m76.085 38.367 0.0953-0.0476"/>
    <path d="m76.18 38.319h0.1904"/>
    <path d="m76.37 38.319 0.0953 0.0476"/>
   </g>
   <text x="70.1317" y="33.0312" font-size="1.3333" opacity="0" stroke-opacity="0" text-anchor="middle" lengthAdjust="spacingAndGlyphs" textLength="4.2024">SW1b</text>
   <g class="stroked-text">
    <desc>SW1b</desc>
    <path d="m68.346 32.938 0.1429 0.0477"/>
    <path d="m68.489 32.986h0.2381"/>
    <path d="m68.727 32.986 0.0952-0.0477"/>
    <path d="m68.822 32.938 0.0476-0.0476"/>
    <path d="m68.87 32.891 0.0477-0.0952"/>
    <path d="m68.918 32.796v-0.0952"/>
    <path d="m68.918 32.7-0.0477-0.0953"/>
    <path d="m68.87 32.605-0.0476-0.0476"/>
    <path d="m68.822 32.558-0.0952-0.0476"/>
    <path d="m68.727 32.51-0.1905-0.0476"/>
    <path d="m68.536 32.462-0.0952-0.0477"/>
    <path d="m68.441 32.415-0.0476-0.0476"/>
    <path d="m68.394 32.367-0.0477-0.0952"/>
    <path d="m68.346 32.272v-0.0953"/>
    <path d="m68.346 32.176 0.0477-0.0952"/>
    <path d="m68.394 32.081 0.0476-0.0476"/>
    <path d="m68.441 32.034 0.0952-0.0476"/>
    <path d="m68.536 31.986h0.2381"/>
    <path d="m68.775 31.986 0.1429 0.0476"/>
    <path d="m69.251 31.986 0.2381 1"/>
    <path d="m69.489 32.986 0.1905-0.7143"/>
    <path d="m69.679 32.272 0.1904 0.7143"/>
    <path d="m69.87 32.986 0.2381-1"/>
    <path d="m71.013 32.986h-0.5714"/>
    <path d="m70.727 32.986v-1"/>
    <path d="m70.727 31.986-0.0953 0.1428"/>
    <path d="m70.632 32.129-0.0952 0.0953"/>
    <path d="m70.536 32.224-0.0952 0.0476"/>
    <path d="m71.441 32.986v-1"/>
    <path d="m71.441 32.367 0.0952-0.0476"/>
    <path d="m71.536 32.319h0.1905"/>
    <path d="m71.727 32.319 0.0952 0.0476"/>
    <path d="m71.822 32.367 0.0476 0.0476"/>
    <path d="m71.87 32.415 0.0477 0.0953"/>
    <path d="m71.918 32.51v0.2857"/>
    <path d="m71.918 32.796-0.0477 0.0952"/>
    <path d="m71.87 32.891-0.0476 0.0476"/>
    <path d="m71.822 32.938-0.0952 0.0477"/>
    <path d="m71.727 32.986h-0.1905"/>
    <path d="m71.536 32.986-0.0952-0.0477"/>
   </g>
   <text x="72.5130" y="33.0312" font-size="1.3333" opacity="0" stroke-opacity="0" text-anchor="middle" lengthAdjust="spacingAndGlyphs" textLength="3.2976">SW1</text>
   <g class="stroked-text">
    <desc>SW1</desc>
    <path d="m71.18 32.938 0.1428 0.0477"/>
    <path d="m71.322 32.986h0.2381"/>
    <path d="m71.561 32.986 0.0953-0.0477"/>
    <path d="m71.656 32.938 0.0476-0.0476"/>
    <path d="m71.704 32.891 0.0476-0.0952"/>
    <path d="m71.751 32.796v-0.0952"/>
    <path d="m71.751 32.7-0.0476-0.0953"/>
    <path d="m71.704 32.605-0.0476-0.0476"/>
    <path d="m71.656 32.558-0.0953-0.0476"/>
    <path d="m71.561 32.51-0.1905-0.0476"/>
    <path d="m71.37 32.462-0.0952-0.0477"/>
    <path d="m71.275 32.415-0.0476-0.0476"/>
    <path d="m71.227 32.367-0.0476-0.0952"/>
    <path d="m71.18 32.272v-0.0953"/>
    <path d="m71.18 32.176 0.0476-0.0952"/>
    <path d="m71.227 32.081 0.0476-0.0476"/>
    <path d="m71.275 32.034 0.0952-0.0476"/>
    <path d="m71.37 31.986h0.2381"/>
    <path d="m71.608 31.986 0.1429 0.0476"/>
    <path d="m72.084 31.986 0.2381 1"/>
    <path d="m72.322 32.986 0.1905-0.7143"/>
    <path d="m72.513 32.272 0.1905 0.7143"/>
    <path d="m72.704 32.986 0.2381-1"/>
    <path d="m73.846 32.986h-0.5714"/>
    <path d="m73.561 32.986v-1"/>
    <path d="m73.561 31.986-0.0952 0.1428"/>
    <path d="m73.465 32.129-0.0953 0.0953"/>
    <path d="m73.37 32.224-0.0952 0.0476"/>
   </g>
   <text x="70.1317" y="39.0312" font-size="1.3333" opacity="0" stroke-opacity="0" text-anchor="middle" lengthAdjust="spacingAndGlyphs" textLength="3.8214">ST1b</text>
   <g class="stroked-text">
    <desc>ST1b</desc>
    <path d="m68.536 38.938 0.1429 0.0477"/>
    <path d="m68.679 38.986h0.2381"/>
    <path d="m68.918 38.986 0.0952-0.0477"/>
    <path d="m69.013 38.938 0.0476-0.0476"/>
    <path d="m69.06 38.891 0.0476-0.0952"/>
    <path d="m69.108 38.796v-0.0952"/>
    <path d="m69.108 38.7-0.0476-0.0953"/>
    <path d="m69.06 38.605-0.0476-0.0476"/>
    <path d="m69.013 38.558-0.0952-0.0476"/>
    <path d="m68.918 38.51-0.1905-0.0476"/>
    <path d="m68.727 38.462-0.0953-0.0477"/>
    <path d="m68.632 38.415-0.0476-0.0476"/>
    <path d="m68.584 38.367-0.0476-0.0952"/>
    <path d="m68.536 38.272v-0.0953"/>
    <path d="m68.536 38.176 0.0476-0.0952"/>
    <path d="m68.584 38.081 0.0476-0.0476"/>
    <path d="m68.632 38.034 0.0953-0.0476"/>
    <path d="m68.727 37.986h0.2381"/>
    <path d="m68.965 37.986 0.1428 0.0476"/>
    <path d="m69.394 37.986h0.5714"/>
    <path d="m69.679 38.986v-1"/>
    <path d="m70.822 38.986h-0.5714"/>
    <path d="m70.536 38.986v-1"/>
    <path d="m70.536 37.986-0.0952 0.1428"/>
    <path d="m70.441 38.129-0.0953 0.0953"/>
    <path d="m70.346 38.224-0.0952 0.0476"/>
    <path d="m71.251 38.986v-1"/>
    <path d="m71.251 38.367 0.0952-0.0476"/>
    <path d="m71.346 38.319h0.1905"/>
    <path d="m71.536 38.319 0.0952 0.0476"/>
    <path d="m71.632 38.367 0.0477 0.0476"/>
    <path d="m71.679 38.415 0.0476 0.0953"/>
    <path d="m71.727 38.51v0.2857"/>
    <path d="m71.727 38.796-0.0476 0.0952"/>
    <path d="m71.679 38.891-0.0477 0.0476"/>
    <path d="m71.632 38.938-0.0952 0.0477"/>
    <path d="m71.536 38.986h-0.1905"/>
    <path d="m71.346 38.986-0.0952-0.0477"/>
   </g>
   <text x="74.8942" y="33.0312" font-size="1.3333" opacity="0" stroke-opacity="0" text-anchor="middle" lengthAdjust="spacingAndGlyphs" textLength="4.1548">SW1c</text>
   <g class="stroked-text">
    <desc>SW1c</desc>
    <path d="m73.132 32.938 0.1429 0.0477"/>
    <path d="m73.275 32.986h0.2381"/>
    <path d="m73.513 32.986 0.0952-0.0477"/>
    <path d="m73.608 32.938 0.0477-0.0476"/>
    <path d="m73.656 32.891 0.0476-0.0952"/>
    <path d="m73.704 32.796v-0.0952"/>
    <path d="m73.704 32.7-0.0476-0.0953"/>
    <path d="m73.656 32.605-0.0477-0.0476"/>
    <path d="m73.608 32.558-0.0952-0.0476"/>
    <path d="m73.513 32.51-0.1905-0.0476"/>
    <path d="m73.323 32.462-0.0952-0.0477"/>
    <path d="m73.228 32.415-0.0476-0.0476"/>
    <path d="m73.18 32.367-0.0477-0.0952"/>
    <path d="m73.132 32.272v-0.0953"/>
    <path d="m73.132 32.176 0.0477-0.0952"/>
    <path d="m73.18 32.081 0.0476-0.0476"/>
    <path d="m73.228 32.034 0.0952-0.0476"/>
    <path d="m73.323 31.986h0.2381"/>
    <path d="m73.561 31.986 0.1429 0.0476"/>
    <path d="m74.037 31.986 0.2381 1"/>
    <path d="m74.275 32.986 0.1905-0.7143"/>
    <path d="m74.466 32.272 0.1905 0.7143"/>
    <path d="m74.656 32.986 0.238-1"/>
    <path d="m75.799 32.986h-0.5714"/>
    <path d="m75.513 32.986v-1"/>
    <path d="m75.513 31.986-0.0952 0.1428"/>
    <path d="m75.418 32.129-0.0953 0.0953"/>
    <path d="m75.323 32.224-0.0952 0.0476"/>
    <path d="m76.656 32.938-0.0953 0.0477"/>
    <path d="m76.561 32.986h-0.1905"/>
    <path d="m76.37 32.986-0.0952-0.0477"/>
    <path d="m76.275 32.938-0.0476-0.0476"/>
    <path d="m76.228 32.891-0.0476-0.0952"/>
    <path d="m76.18 32.796v-0.2857"/>
    <path d="m76.18 32.51 0.0476-0.0953"/>
    <path d="m76.228 32.415 0.0476-0.0476"/>
    <path d="m76.275 32.367 0.0952-0.0476"/>
    <path d="m76.37 32.319h0.1905"/>
    <path d="m76.561 32.319 0.0953 0.0476"/>
   </g>
   <text x="72.9892" y="39.0312" font-size="1.3333" opacity="0" stroke-opacity="0" text-anchor="middle" lengthAdjust="spacingAndGlyphs" textLength="3.8214">ST1a</text>
   <g class="stroked-text">
    <desc>ST1a</desc>
    <path d="m71.394 38.938 0.1429 0.0477"/>
    <path d="m71.537 38.986h0.2381"/>
    <path d="m71.775 38.986 0.0952-0.0477"/>
    <path d="m71.87 38.938 0.0476-0.0476"/>
    <path d="m71.918 38.891 0.0476-0.0952"/>
    <path d="m71.965 38.796v-0.0952"/>
    <path d="m71.965 38.7-0.0476-0.0953"/>
    <path d="m71.918 38.605-0.0476-0.0476"/>
    <path d="m71.87 38.558-0.0952-0.0476"/>
    <path d="m71.775 38.51-0.1905-0.0476"/>
    <path d="m71.584 38.462-0.0953-0.0477"/>
    <path d="m71.489 38.415-0.0476-0.0476"/>
    <path d="m71.442 38.367-0.0476-0.0952"/>
    <path d="m71.394 38.272v-0.0953"/>
    <path d="m71.394 38.176 0.0476-0.0952"/>
    <path d="m71.442 38.081 0.0476-0.0476"/>
    <path d="m71.489 38.034 0.0953-0.0476"/>
    <path d="m71.584 37.986h0.2381"/>
    <path d="m71.823 37.986 0.1428 0.0476"/>
    <path d="m72.251 37.986h0.5714"/>
    <path d="m72.537 38.986v-1"/>
    <path d="m73.68 38.986h-0.5714"/>
    <path d="m73.394 38.986v-1"/>
    <path d="m73.394 37.986-0.0952 0.1428"/>
    <path d="m73.299 38.129-0.0953 0.0953"/>
    <path d="m73.204 38.224-0.0952 0.0476"/>
    <path d="m74.537 38.986v-0.5238"/>
    <path d="m74.537 38.462-0.0477-0.0953"/>
    <path d="m74.489 38.367-0.0952-0.0476"/>
    <path d="m74.394 38.319h-0.1905"/>
    <path d="m74.204 38.319-0.0952 0.0476"/>
    <path d="m74.537 38.938-0.0953 0.0477"/>
    <path d="m74.442 38.986h-0.2381"/>
    <path d="m74.204 38.986-0.0952-0.0477"/>
    <path d="m74.108 38.938-0.0476-0.0952"/>
    <path d="m74.061 38.843v-0.0952"/>
    <path d="m74.061 38.748 0.0476-0.0953"/>
    <path d="m74.108 38.653 0.0952-0.0476"/>
    <path d="m74.204 38.605h0.2381"/>
    <path d="m74.442 38.605 0.0953-0.0476"/>
   </g>
  </g>
  <g stroke="#8BE9FD" stroke-width=".12">
   <path d="m8.263 12v14.2"/>
   <path d="m8.263 26.2h14.2"/>
   <path d="m22.463 12h-14.2"/>
   <path d="m22.463 26.2v-14.2"/>
   <path d="m65.889 33.431v14.2"/>
   <path d="m65.889 47.631h14.2"/>
   <path d="m80.089 33.431h-14.2"/>
   <path d="m80.089 47.631v-14.2"/>
   <path d="m63.032 33.431v14.2"/>
   <path d="m63.032 47.631h14.2"/>
   <path d="m77.232 33.431h-14.2"/>
   <path d="m77.232 47.631v-14.2"/>
   <path d="m65.413 33.431v14.2"/>
   <path d="m65.413 47.631h14.2"/>
   <path d="m79.613 33.431h-14.2"/>
   <path d="m79.613 47.631v-14.2"/>
   <path d="m67.794 33.431v14.2"/>
   <path d="m67.794 47.631h14.2"/>
   <path d="m81.994 33.431h-14.2"/>
   <path d="m81.994 47.631v-14.2"/>
  </g>
  <g stroke="#BD93F9" stroke-width=".15">
   <g transform="rotate(-90 79.498 44.658)">
    <text transform="scale(-1 1) translate(-159)" x="79.4980" y="45.1582" font-size="1.3333" opacity="0" stroke-opacity="0" text-anchor="middle" lengthAdjust="spacingAndGlyphs" textLength="2.2024">D1</text>
   </g>
   <g class="stroked-text">
    <desc>D1</desc>
    <path d="m79.953 43.92h-1"/>
    <path d="m78.953 43.92v0.238"/>
    <path d="m78.953 44.158 0.0476 0.1429"/>
    <path d="m79 44.301 0.0953 0.0952"/>
    <path d="m79.096 44.396 0.0952 0.0477"/>
    <path d="m79.191 44.444 0.1905 0.0476"/>
    <path d="m79.381 44.492h0.1428"/>
    <path d="m79.524 44.492 0.1905-0.0476"/>
    <path d="m79.715 44.444 0.0953-0.0477"/>
    <path d="m79.81 44.396 0.0952-0.0952"/>
    <path d="m79.905 44.301 0.0476-0.1429"/>
    <path d="m79.953 44.158v-0.238"/>
    <path d="m79.953 45.444v-0.5715"/>
    <path d="m79.953 45.158h-1"/>
    <path d="m78.953 45.158 0.1429-0.0952"/>
    <path d="m79.096 45.063 0.0952-0.0952"/>
    <path d="m79.191 44.968 0.0476-0.0953"/>
   </g>
  </g>
  <g stroke="#BD93F9" stroke-width=".12">
   <path d="m76.593 46.741v-3.86"/>
   <path d="m78.593 46.741h-2"/>
   <path d="m78.593 46.741v-3.86"/>
  </g>
 </g>
 <g fill="#fff">
  <circle cx="3.425" cy="12.115" r="1.524"/>
  <circle cx="3.425" cy="27.325" r="1.9939"/>
  <circle cx="27.301" cy="12.115" r="1.524"/>
  <circle cx="27.301" cy="27.325" r="1.9939"/>
  <circle cx="60.575" cy="33.546" r="1.524"/>
  <circle cx="60.575" cy="48.756" r="1.9939"/>
  <circle cx="84.451" cy="33.546" r="1.524"/>
  <circle cx="84.451" cy="48.756" r="1.9939"/>
  <circle cx="15.363" cy="24.18" r=".875"/>
  <circle cx="15.363" cy="19.1" r="2"/>
  <circle cx="15.363" cy="14.02" r=".875"/>
  <circle cx="12.823" cy="22.91" r=".75"/>
  <circle cx="10.283" cy="16.56" r=".75"/>
  <circle cx="67.909" cy="40.531" r=".875"/>
  <circle cx="72.989" cy="40.531" r="2"/>
  <circle cx="78.069" cy="40.531" r=".875"/>
  <circle cx="69.179" cy="37.991" r=".75"/>
  <circle cx="75.529" cy="35.451" r=".75"/>
  <circle cx="62.956" cy="33.546" r="1.524"/>
  <circle cx="62.956" cy="48.756" r="1.9939"/>
  <circle cx="86.832" cy="33.546" r="1.524"/>
  <circle cx="86.832" cy="48.756" r="1.9939"/>
  <circle cx="65.052" cy="40.531" r=".875"/>
  <circle cx="70.132" cy="40.531" r="2"/>
  <circle cx="75.212" cy="40.531" r=".875"/>
  <circle cx="66.322" cy="37.991" r=".75"/>
  <circle cx="72.672" cy="35.451" r=".75"/>
  <circle cx="67.433" cy="40.531" r=".875"/>
  <circle cx="72.513" cy="40.531" r="2"/>
  <circle cx="77.593" cy="40.531" r=".875"/>
  <circle cx="68.703" cy="37.991" r=".75"/>
  <circle cx="75.053" cy="35.451" r=".75"/>
  <circle cx="58.194" cy="33.546" r="1.524"/>
  <circle cx="58.194" cy="48.756" r="1.9939"/>
  <circle cx="82.07" cy="33.546" r="1.524"/>
  <circle cx="82.07" cy="48.756" r="1.9939"/>
  <circle cx="69.814" cy="40.531" r=".875"/>
  <circle cx="74.894" cy="40.531" r="2"/>
  <circle cx="79.974" cy="40.531" r=".875"/>
  <circle cx="71.084" cy="37.991" r=".75"/>
  <circle cx="77.434" cy="35.451" r=".75"/>
  <circle cx="22.989" cy="33.546" r="1.524"/>
  <circle cx="22.989" cy="48.756" r="1.9939"/>
  <circle cx="122.99" cy="33.546" r="1.524"/>
  <circle cx="122.99" cy="48.756" r="1.9939"/>
 </g>
</svg>
