<?xml version="1.0" encoding="UTF-8"?>
<!DOCTYPE svg  PUBLIC '-//W3C//DTD SVG 1.1//EN'  'http://www.w3.org/Graphics/SVG/1.1/DTD/svg11.dtd'>
<svg width="23.901mm" height="19.126mm" version="1.1" viewBox="0 0 23.901 19.126" xmlns="http://www.w3.org/2000/svg">
 <title>SVG Image created as fm2u-render.svg date 2024/06/08 10:31:34</title>
 <desc>Image generated by PCBNEW</desc>
 <rect width="23.901mm" height="19.126mm" fill="#282A36"/>
 <g fill="#BD93F9" fill-opacity="0" stroke="#BD93F9" stroke-linecap="round" stroke-linejoin="round" stroke-width=".15">
  <g transform="rotate(-90 18.941 13.702)">
   <text transform="scale(-1 1) translate(-37.882)" x="18.9413" y="14.2020" font-size="1.3333" opacity="0" text-anchor="middle" lengthAdjust="spacingAndGlyphs" textLength="2.2024">D1</text>
  </g>
  <g class="stroked-text">
   <desc>D1</desc>
   <path d="m19.396 12.964h-1"/>
   <path d="m18.396 12.964v0.2381"/>
   <path d="m18.396 13.202 0.0476 0.1429"/>
   <path d="m18.444 13.345 0.0952 0.0952"/>
   <path d="m18.539 13.44 0.0953 0.0476"/>
   <path d="m18.634 13.488 0.1904 0.0476"/>
   <path d="m18.825 13.535h0.1429"/>
   <path d="m18.968 13.535 0.1905-0.0476"/>
   <path d="m19.158 13.488 0.0952-0.0476"/>
   <path d="m19.253 13.44 0.0952-0.0952"/>
   <path d="m19.348 13.345 0.0477-0.1429"/>
   <path d="m19.396 13.202v-0.2381"/>
   <path d="m19.396 14.488v-0.5714"/>
   <path d="m19.396 14.202h-1"/>
   <path d="m18.396 14.202 0.1428-0.0952"/>
   <path d="m18.539 14.107 0.0953-0.0953"/>
   <path d="m18.634 14.012 0.0476-0.0952"/>
  </g>
 </g>
 <g fill="#BD93F9" fill-opacity="0" stroke="#BD93F9" stroke-linecap="round" stroke-linejoin="round" stroke-width=".12">
  <path d="m16.036 15.785v-3.86"/>
  <path d="m18.036 15.785h-2"/>
  <path d="m18.036 15.785v-3.86"/>
 </g>
 <g stroke-linecap="round" stroke-linejoin="round">
  <g fill="#fff" stroke="#fff" stroke-width="0">
   <circle cx="4.495" cy="9.575" r=".875"/>
   <circle cx="9.575" cy="9.575" r="2"/>
   <circle cx="14.655" cy="9.575" r=".875"/>
   <circle cx="5.765" cy="7.035" r=".75"/>
   <circle cx="12.115" cy="4.495" r=".75"/>
   <circle cx="9.2575" cy="9.575" r=".875"/>
   <circle cx="14.338" cy="9.575" r="2"/>
   <circle cx="19.418" cy="9.575" r=".875"/>
   <circle cx="10.528" cy="7.035" r=".75"/>
   <circle cx="16.878" cy="4.495" r=".75"/>
   <circle cx="6.8762" cy="9.575" r=".875"/>
   <circle cx="11.956" cy="9.575" r="2"/>
   <circle cx="17.036" cy="9.575" r=".875"/>
   <circle cx="8.1463" cy="7.035" r=".75"/>
   <circle cx="14.496" cy="4.495" r=".75"/>
   <circle cx="7.3525" cy="9.575" r=".875"/>
   <circle cx="12.432" cy="9.575" r="2"/>
   <circle cx="17.512" cy="9.575" r=".875"/>
   <circle cx="8.6225" cy="7.035" r=".75"/>
   <circle cx="14.972" cy="4.495" r=".75"/>
  </g>
  <g fill="#50FA7B" stroke="#000" stroke-width="0">
   <g stroke="#50FA7B" stroke-linecap="round" stroke-linejoin="round">
    <circle cx="5.765" cy="7.035" r="1.25"/>
    <circle cx="12.115" cy="4.495" r="1.25"/>
    <circle cx="10.528" cy="7.035" r="1.25"/>
    <circle cx="16.878" cy="4.495" r="1.25"/>
    <circle cx="8.1463" cy="7.035" r="1.25"/>
    <circle cx="14.496" cy="4.495" r="1.25"/>
    <circle cx="8.6225" cy="7.035" r="1.25"/>
    <circle cx="14.972" cy="4.495" r="1.25"/>
   </g>
   <g fill-rule="evenodd">
    <path d="m16.736 15.525-0.0956-0.019-0.0811-0.0542-0.0542-0.0811-0.0191-0.0957v-0.6l0.0191-0.0957 0.0542-0.0811 0.0811-0.0542 0.0956-0.019h0.6l0.0957 0.019 0.0811 0.0542 0.0542 0.0811 0.019 0.0957v0.6l-0.019 0.0957-0.0542 0.0811-0.0811 0.0542-0.0957 0.019z"/>
    <path d="m16.736 12.725-0.0956-0.019-0.0811-0.0542-0.0542-0.0811-0.0191-0.0957v-0.6l0.0191-0.0957 0.0542-0.0811 0.0811-0.0542 0.0956-0.019h0.6l0.0957 0.019 0.0811 0.0542 0.0542 0.0811 0.019 0.0957v0.6l-0.019 0.0957-0.0542 0.0811-0.0811 0.0542-0.0957 0.019z"/>
   </g>
  </g>
  <g fill="#fff" stroke="#fff" stroke-width="0">
   <circle cx="4.495" cy="9.575" r=".875"/>
   <circle cx="9.575" cy="9.575" r="2"/>
   <circle cx="14.655" cy="9.575" r=".875"/>
   <circle cx="5.765" cy="7.035" r=".75"/>
   <circle cx="12.115" cy="4.495" r=".75"/>
   <circle cx="9.2575" cy="9.575" r=".875"/>
   <circle cx="14.338" cy="9.575" r="2"/>
   <circle cx="19.418" cy="9.575" r=".875"/>
   <circle cx="10.528" cy="7.035" r=".75"/>
   <circle cx="16.878" cy="4.495" r=".75"/>
   <circle cx="6.8762" cy="9.575" r=".875"/>
   <circle cx="11.956" cy="9.575" r="2"/>
   <circle cx="17.036" cy="9.575" r=".875"/>
   <circle cx="8.1463" cy="7.035" r=".75"/>
   <circle cx="14.496" cy="4.495" r=".75"/>
   <circle cx="7.3525" cy="9.575" r=".875"/>
   <circle cx="12.432" cy="9.575" r="2"/>
   <circle cx="17.512" cy="9.575" r=".875"/>
   <circle cx="8.6225" cy="7.035" r=".75"/>
   <circle cx="14.972" cy="4.495" r=".75"/>
  </g>
  <g fill="#f55" stroke="#f55">
   <g stroke-width="0">
    <circle cx="5.765" cy="7.035" r="1.25"/>
    <circle cx="12.115" cy="4.495" r="1.25"/>
    <circle cx="10.528" cy="7.035" r="1.25"/>
    <circle cx="16.878" cy="4.495" r="1.25"/>
    <circle cx="8.1463" cy="7.035" r="1.25"/>
    <circle cx="14.496" cy="4.495" r="1.25"/>
    <circle cx="8.6225" cy="7.035" r="1.25"/>
    <circle cx="14.972" cy="4.495" r="1.25"/>
   </g>
   <g fill-opacity="0" stroke-width=".25">
    <path d="m5.765 7.035h2.3813"/>
    <path d="m8.6225 7.035h1.905"/>
    <path d="m8.1463 7.035h0.4762"/>
   </g>
  </g>
  <g fill="#fff" stroke="#fff" stroke-width="0">
   <circle cx="4.495" cy="9.575" r=".875"/>
   <circle cx="9.575" cy="9.575" r="2"/>
   <circle cx="14.655" cy="9.575" r=".875"/>
   <circle cx="5.765" cy="7.035" r=".75"/>
   <circle cx="12.115" cy="4.495" r=".75"/>
   <circle cx="9.2575" cy="9.575" r=".875"/>
   <circle cx="14.338" cy="9.575" r="2"/>
   <circle cx="19.418" cy="9.575" r=".875"/>
   <circle cx="10.528" cy="7.035" r=".75"/>
   <circle cx="16.878" cy="4.495" r=".75"/>
   <circle cx="6.8762" cy="9.575" r=".875"/>
   <circle cx="11.956" cy="9.575" r="2"/>
   <circle cx="17.036" cy="9.575" r=".875"/>
   <circle cx="8.1463" cy="7.035" r=".75"/>
   <circle cx="14.496" cy="4.495" r=".75"/>
   <circle cx="7.3525" cy="9.575" r=".875"/>
   <circle cx="12.432" cy="9.575" r="2"/>
   <circle cx="17.512" cy="9.575" r=".875"/>
   <circle cx="8.6225" cy="7.035" r=".75"/>
   <circle cx="14.972" cy="4.495" r=".75"/>
  </g>
 </g>
 <g stroke-linecap="round" stroke-linejoin="round">
  <g fill="#8BE9FD" fill-opacity="0" stroke="#8BE9FD" stroke-width=".15">
   <text x="9.5750" y="2.0750" font-size="1.3333" opacity="0" text-anchor="middle" lengthAdjust="spacingAndGlyphs" textLength="5.0119">SW1_2</text>
   <g class="stroked-text">
    <desc>SW1_2</desc>
    <path d="m7.3845 1.9822 0.1429 0.0476"/>
    <path d="m7.5274 2.0298h0.2381"/>
    <path d="m7.7655 2.0298 0.0952-0.0476"/>
    <path d="m7.8607 1.9822 0.0476-0.0476"/>
    <path d="m7.9083 1.9346 0.0477-0.0953"/>
    <path d="m7.956 1.8393v-0.0952"/>
    <path d="m7.956 1.7441-0.0477-0.0952"/>
    <path d="m7.9083 1.6489-0.0476-0.0477"/>
    <path d="m7.8607 1.6012-0.0952-0.0476"/>
    <path d="m7.7655 1.5536-0.1905-0.0476"/>
    <path d="m7.575 1.506-0.0952-0.0476"/>
    <path d="m7.4798 1.4584-0.0477-0.0476"/>
    <path d="m7.4321 1.4108-0.0476-0.0953"/>
    <path d="m7.3845 1.3155v-0.0952"/>
    <path d="m7.3845 1.2203 0.0476-0.0952"/>
    <path d="m7.4321 1.1251 0.0477-0.0477"/>
    <path d="m7.4798 1.0774 0.0952-0.0476"/>
    <path d="m7.575 1.0298h0.2381"/>
    <path d="m7.8131 1.0298 0.1429 0.0476"/>
    <path d="m8.2893 1.0298 0.2381 1"/>
    <path d="m8.5274 2.0298 0.1905-0.7143"/>
    <path d="m8.7179 1.3155 0.1904 0.7143"/>
    <path d="m8.9083 2.0298 0.2381-1"/>
    <path d="m10.051 2.0298h-0.5714"/>
    <path d="m9.7655 2.0298v-1"/>
    <path d="m9.7655 1.0298-0.0953 0.1429"/>
    <path d="m9.6702 1.1727-0.0952 0.0952"/>
    <path d="m9.575 1.2679-0.0952 0.0476"/>
    <path d="m10.242 2.1251h0.7619"/>
    <path d="m11.194 1.1251 0.0477-0.0477"/>
    <path d="m11.242 1.0774 0.0952-0.0476"/>
    <path d="m11.337 1.0298h0.2381"/>
    <path d="m11.575 1.0298 0.0952 0.0476"/>
    <path d="m11.67 1.0774 0.0477 0.0477"/>
    <path d="m11.718 1.1251 0.0476 0.0952"/>
    <path d="m11.766 1.2203v0.0952"/>
    <path d="m11.766 1.3155-0.0476 0.1429"/>
    <path d="m11.718 1.4584-0.5715 0.5714"/>
    <path d="m11.146 2.0298h0.6191"/>
   </g>
   <text x="14.3375" y="2.0750" font-size="1.3333" opacity="0" text-anchor="middle" lengthAdjust="spacingAndGlyphs" textLength="5.0119">SW1_3</text>
   <g class="stroked-text">
    <desc>SW1_3</desc>
    <path d="m12.147 1.9822 0.1429 0.0476"/>
    <path d="m12.29 2.0298h0.2381"/>
    <path d="m12.528 2.0298 0.0952-0.0476"/>
    <path d="m12.623 1.9822 0.0476-0.0476"/>
    <path d="m12.671 1.9346 0.0477-0.0953"/>
    <path d="m12.718 1.8393v-0.0952"/>
    <path d="m12.718 1.7441-0.0477-0.0952"/>
    <path d="m12.671 1.6489-0.0476-0.0477"/>
    <path d="m12.623 1.6012-0.0952-0.0476"/>
    <path d="m12.528 1.5536-0.1905-0.0476"/>
    <path d="m12.338 1.506-0.0952-0.0476"/>
    <path d="m12.242 1.4584-0.0477-0.0476"/>
    <path d="m12.195 1.4108-0.0476-0.0953"/>
    <path d="m12.147 1.3155v-0.0952"/>
    <path d="m12.147 1.2203 0.0476-0.0952"/>
    <path d="m12.195 1.1251 0.0477-0.0477"/>
    <path d="m12.242 1.0774 0.0952-0.0476"/>
    <path d="m12.338 1.0298h0.2381"/>
    <path d="m12.576 1.0298 0.1429 0.0476"/>
    <path d="m13.052 1.0298 0.2381 1"/>
    <path d="m13.29 2.0298 0.1905-0.7143"/>
    <path d="m13.48 1.3155 0.1904 0.7143"/>
    <path d="m13.671 2.0298 0.2381-1"/>
    <path d="m14.814 2.0298h-0.5714"/>
    <path d="m14.528 2.0298v-1"/>
    <path d="m14.528 1.0298-0.0953 0.1429"/>
    <path d="m14.433 1.1727-0.0952 0.0952"/>
    <path d="m14.338 1.2679-0.0952 0.0476"/>
    <path d="m15.004 2.1251h0.7619"/>
    <path d="m15.909 1.0298h0.6191"/>
    <path d="m16.528 1.0298-0.3334 0.381"/>
    <path d="m16.195 1.4108h0.1429"/>
    <path d="m16.338 1.4108 0.0952 0.0476"/>
    <path d="m16.433 1.4584 0.0477 0.0476"/>
    <path d="m16.48 1.506 0.0476 0.0952"/>
    <path d="m16.528 1.6012v0.2381"/>
    <path d="m16.528 1.8393-0.0476 0.0953"/>
    <path d="m16.48 1.9346-0.0477 0.0476"/>
    <path d="m16.433 1.9822-0.0952 0.0476"/>
    <path d="m16.338 2.0298h-0.2857"/>
    <path d="m16.052 2.0298-0.0953-0.0476"/>
    <path d="m15.956 1.9822-0.0476-0.0476"/>
   </g>
   <text x="11.9562" y="2.0750" font-size="1.3333" opacity="0" text-anchor="middle" lengthAdjust="spacingAndGlyphs" textLength="3.2976">SW1</text>
   <g class="stroked-text">
    <desc>SW1</desc>
    <path d="m10.623 1.9822 0.1429 0.0476"/>
    <path d="m10.766 2.0298h0.2381"/>
    <path d="m11.004 2.0298 0.0952-0.0476"/>
    <path d="m11.099 1.9822 0.0476-0.0476"/>
    <path d="m11.147 1.9346 0.0476-0.0953"/>
    <path d="m11.194 1.8393v-0.0952"/>
    <path d="m11.194 1.7441-0.0476-0.0952"/>
    <path d="m11.147 1.6489-0.0476-0.0477"/>
    <path d="m11.099 1.6012-0.0952-0.0476"/>
    <path d="m11.004 1.5536-0.1905-0.0476"/>
    <path d="m10.813 1.506-0.0952-0.0476"/>
    <path d="m10.718 1.4584-0.0477-0.0476"/>
    <path d="m10.67 1.4108-0.0476-0.0953"/>
    <path d="m10.623 1.3155v-0.0952"/>
    <path d="m10.623 1.2203 0.0476-0.0952"/>
    <path d="m10.67 1.1251 0.0477-0.0477"/>
    <path d="m10.718 1.0774 0.0952-0.0476"/>
    <path d="m10.813 1.0298h0.2381"/>
    <path d="m11.052 1.0298 0.1428 0.0476"/>
    <path d="m11.528 1.0298 0.2381 1"/>
    <path d="m11.766 2.0298 0.1904-0.7143"/>
    <path d="m11.956 1.3155 0.1905 0.7143"/>
    <path d="m12.147 2.0298 0.2381-1"/>
    <path d="m13.29 2.0298h-0.5714"/>
    <path d="m13.004 2.0298v-1"/>
    <path d="m13.004 1.0298-0.0953 0.1429"/>
    <path d="m12.909 1.1727-0.0952 0.0952"/>
    <path d="m12.813 1.2679-0.0952 0.0476"/>
   </g>
   <text x="12.4325" y="2.0750" font-size="1.3333" opacity="0" text-anchor="middle" lengthAdjust="spacingAndGlyphs" textLength="5.0119">SW1_1</text>
   <g class="stroked-text">
    <desc>SW1_1</desc>
    <path d="m10.242 1.9822 0.1429 0.0476"/>
    <path d="m10.385 2.0298h0.2381"/>
    <path d="m10.623 2.0298 0.0952-0.0476"/>
    <path d="m10.718 1.9822 0.0476-0.0476"/>
    <path d="m10.766 1.9346 0.0477-0.0953"/>
    <path d="m10.814 1.8393v-0.0952"/>
    <path d="m10.814 1.7441-0.0477-0.0952"/>
    <path d="m10.766 1.6489-0.0476-0.0477"/>
    <path d="m10.718 1.6012-0.0952-0.0476"/>
    <path d="m10.623 1.5536-0.1905-0.0476"/>
    <path d="m10.432 1.506-0.0952-0.0476"/>
    <path d="m10.337 1.4584-0.0477-0.0476"/>
    <path d="m10.29 1.4108-0.0476-0.0953"/>
    <path d="m10.242 1.3155v-0.0952"/>
    <path d="m10.242 1.2203 0.0476-0.0952"/>
    <path d="m10.29 1.1251 0.0477-0.0477"/>
    <path d="m10.337 1.0774 0.0952-0.0476"/>
    <path d="m10.432 1.0298h0.2381"/>
    <path d="m10.671 1.0298 0.1429 0.0476"/>
    <path d="m11.147 1.0298 0.2381 1"/>
    <path d="m11.385 2.0298 0.1905-0.7143"/>
    <path d="m11.575 1.3155 0.1904 0.7143"/>
    <path d="m11.766 2.0298 0.2381-1"/>
    <path d="m12.909 2.0298h-0.5714"/>
    <path d="m12.623 2.0298v-1"/>
    <path d="m12.623 1.0298-0.0953 0.1429"/>
    <path d="m12.528 1.1727-0.0952 0.0952"/>
    <path d="m12.432 1.2679-0.0952 0.0476"/>
    <path d="m13.099 2.1251h0.7619"/>
    <path d="m14.623 2.0298h-0.5715"/>
    <path d="m14.337 2.0298v-1"/>
    <path d="m14.337 1.0298-0.0953 0.1429"/>
    <path d="m14.242 1.1727-0.0952 0.0952"/>
    <path d="m14.147 1.2679-0.0953 0.0476"/>
   </g>
  </g>
  <g fill="#8BE9FD" fill-opacity="0" stroke="#8BE9FD" stroke-width=".12">
   <path d="m2.475 2.475v14.2"/>
   <path d="m2.475 16.675h14.2"/>
   <path d="m16.675 2.475h-14.2"/>
   <path d="m16.675 16.675v-14.2"/>
   <path d="m7.2375 2.475v14.2"/>
   <path d="m7.2375 16.675h14.2"/>
   <path d="m21.438 2.475h-14.2"/>
   <path d="m21.438 16.675v-14.2"/>
   <path d="m4.8563 2.475v14.2"/>
   <path d="m4.8563 16.675h14.2"/>
   <path d="m19.056 2.475h-14.2"/>
   <path d="m19.056 16.675v-14.2"/>
   <path d="m5.3325 2.475v14.2"/>
   <path d="m5.3325 16.675h14.2"/>
   <path d="m19.532 2.475h-14.2"/>
   <path d="m19.532 16.675v-14.2"/>
  </g>
  <g fill="#fff" stroke="#fff" stroke-width="0">
   <circle cx="4.495" cy="9.575" r=".875"/>
   <circle cx="9.575" cy="9.575" r="2"/>
   <circle cx="14.655" cy="9.575" r=".875"/>
   <circle cx="5.765" cy="7.035" r=".75"/>
   <circle cx="12.115" cy="4.495" r=".75"/>
   <circle cx="9.2575" cy="9.575" r=".875"/>
   <circle cx="14.338" cy="9.575" r="2"/>
   <circle cx="19.418" cy="9.575" r=".875"/>
   <circle cx="10.528" cy="7.035" r=".75"/>
   <circle cx="16.878" cy="4.495" r=".75"/>
   <circle cx="6.8762" cy="9.575" r=".875"/>
   <circle cx="11.956" cy="9.575" r="2"/>
   <circle cx="17.036" cy="9.575" r=".875"/>
   <circle cx="8.1463" cy="7.035" r=".75"/>
   <circle cx="14.496" cy="4.495" r=".75"/>
   <circle cx="7.3525" cy="9.575" r=".875"/>
   <circle cx="12.432" cy="9.575" r="2"/>
   <circle cx="17.512" cy="9.575" r=".875"/>
   <circle cx="8.6225" cy="7.035" r=".75"/>
   <circle cx="14.972" cy="4.495" r=".75"/>
  </g>
  <g stroke="#000" stroke-width=".0212"></g>
 </g>
</svg>
