<?xml version="1.0" encoding="UTF-8"?>
<!DOCTYPE svg  PUBLIC '-//W3C//DTD SVG 1.1//EN'  'http://www.w3.org/Graphics/SVG/1.1/DTD/svg11.dtd'>
<svg width="99.543mm" height="57.226mm" version="1.1" viewBox="0 0 99.543 57.226" xmlns="http://www.w3.org/2000/svg">
 <title>SVG Image created as bnk9-render.svg date 2026/07/14 10:50:01</title>
 <desc>Image generated by PCBNEW</desc>
 <rect width="99.543mm" height="57.226mm" fill="#282A36"/>
 <g fill="#f55">
  <circle cx="48.078" cy="7.035" r="1.25"/>
  <circle cx="54.428" cy="4.495" r="1.25"/>
  <circle cx="67.128" cy="45.135" r="1.25"/>
  <circle cx="73.478" cy="42.595" r="1.25"/>
  <circle cx="86.178" cy="26.085" r="1.25"/>
  <circle cx="92.528" cy="23.545" r="1.25"/>
  <circle cx="86.178" cy="7.035" r="1.25"/>
  <circle cx="92.528" cy="4.495" r="1.25"/>
  <circle cx="86.178" cy="45.135" r="1.25"/>
  <circle cx="92.528" cy="42.595" r="1.25"/>
  <circle cx="48.078" cy="26.085" r="1.25"/>
  <circle cx="54.428" cy="23.545" r="1.25"/>
  <circle cx="48.078" cy="45.135" r="1.25"/>
  <circle cx="54.428" cy="42.595" r="1.25"/>
  <circle cx="67.128" cy="7.035" r="1.25"/>
  <circle cx="73.478" cy="4.495" r="1.25"/>
  <circle cx="67.128" cy="26.085" r="1.25"/>
  <circle cx="73.478" cy="23.545" r="1.25"/>
  <path d="m0.525 27.125v-2h2v2z" fill="#f55" fill-rule="evenodd"/>
  <circle cx="1.525" cy="31.125" r="1"/>
  <circle cx="1.525" cy="28.625" r="1"/>
  <path d="m7.425 24.025v-2h3.2v2z" fill="#f55" fill-rule="evenodd"/>
  <path d="m7.425 35.225v-2h3.2v2z" fill="#f55" fill-rule="evenodd"/>
  <circle cx="16.025" cy="31.125" r="1"/>
  <circle cx="16.025" cy="26.125" r="1"/>
 </g>
 <g fill="none" stroke="#f55" stroke-linecap="round" stroke-linejoin="round" stroke-width=".2">
  <path d="m16.025 31.125 5.04-5.04"/>
  <path d="m48.078 26.085v-19.05"/>
  <path d="m48.078 26.085v19.05"/>
  <path d="m21.065 26.085h27.012"/>
  <path d="m67.128 7.035v19.05"/>
  <path d="m67.128 26.085v19.05"/>
  <path d="m86.178 7.035v19.05"/>
  <path d="m86.178 26.085v19.05"/>
 </g>
 <g fill="#50FA7B">
  <circle cx="48.078" cy="7.035" r="1.25"/>
  <circle cx="54.428" cy="4.495" r="1.25"/>
  <circle cx="67.128" cy="45.135" r="1.25"/>
  <circle cx="73.478" cy="42.595" r="1.25"/>
  <circle cx="86.178" cy="26.085" r="1.25"/>
  <circle cx="92.528" cy="23.545" r="1.25"/>
  <circle cx="86.178" cy="7.035" r="1.25"/>
  <circle cx="92.528" cy="4.495" r="1.25"/>
  <circle cx="86.178" cy="45.135" r="1.25"/>
  <circle cx="92.528" cy="42.595" r="1.25"/>
  <circle cx="48.078" cy="26.085" r="1.25"/>
  <circle cx="54.428" cy="23.545" r="1.25"/>
  <circle cx="48.078" cy="45.135" r="1.25"/>
  <circle cx="54.428" cy="42.595" r="1.25"/>
  <circle cx="67.128" cy="7.035" r="1.25"/>
  <circle cx="73.478" cy="4.495" r="1.25"/>
  <circle cx="67.128" cy="26.085" r="1.25"/>
  <circle cx="73.478" cy="23.545" r="1.25"/>
  <path d="m0.525 27.125v-2h2v2z" fill="#50FA7B" fill-rule="evenodd"/>
  <circle cx="1.525" cy="31.125" r="1"/>
  <circle cx="1.525" cy="28.625" r="1"/>
  <path d="m7.425 24.025v-2h3.2v2z" fill="#50FA7B" fill-rule="evenodd"/>
  <path d="m7.425 35.225v-2h3.2v2z" fill="#50FA7B" fill-rule="evenodd"/>
  <circle cx="16.025" cy="31.125" r="1"/>
  <circle cx="16.025" cy="26.125" r="1"/>
  <g fill="#50FA7B" fill-rule="evenodd">
   <path d="m75.718 34.575-0.0957-0.019-0.0811-0.0542-0.0542-0.0811-0.019-0.0957v-0.6l0.019-0.0957 0.0542-0.0811 0.0811-0.0542 0.0957-0.019h0.6l0.0957 0.019 0.0811 0.0542 0.0542 0.0811 0.019 0.0957v0.6l-0.019 0.0957-0.0542 0.0811-0.0811 0.0542-0.0957 0.019z"/>
   <path d="m75.718 31.775-0.0957-0.019-0.0811-0.0542-0.0542-0.0811-0.019-0.0957v-0.6l0.019-0.0957 0.0542-0.0811 0.0811-0.0542 0.0957-0.019h0.6l0.0957 0.019 0.0811 0.0542 0.0542 0.0811 0.019 0.0957v0.6l-0.019 0.0957-0.0542 0.0811-0.0811 0.0542-0.0957 0.019z"/>
   <path d="m6.305 32.075-0.0957-0.019-0.0811-0.0542-0.0542-0.0811-0.019-0.0957v-0.6l0.019-0.0957 0.0542-0.0811 0.0811-0.0542 0.0957-0.019h0.6l0.0957 0.019 0.0811 0.0542 0.0542 0.0811 0.019 0.0957v0.6l-0.019 0.0957-0.0542 0.0811-0.0811 0.0542-0.0957 0.019z"/>
   <path d="m6.305 29.275-0.0957-0.019-0.0811-0.0542-0.0542-0.0811-0.019-0.0957v-0.6l0.019-0.0957 0.0542-0.0811 0.0811-0.0542 0.0957-0.019h0.6l0.0957 0.019 0.0811 0.0542 0.0542 0.0811 0.019 0.0957v0.6l-0.019 0.0957-0.0542 0.0811-0.0811 0.0542-0.0957 0.019z"/>
   <path d="m56.668 53.625-0.0957-0.019-0.0811-0.0542-0.0542-0.0811-0.019-0.0957v-0.6l0.019-0.0957 0.0542-0.0811 0.0811-0.0542 0.0957-0.019h0.6l0.0957 0.019 0.0811 0.0542 0.0542 0.0811 0.019 0.0957v0.6l-0.019 0.0957-0.0542 0.0811-0.0811 0.0542-0.0957 0.019z"/>
   <path d="m56.668 50.825-0.0957-0.019-0.0811-0.0542-0.0542-0.0811-0.019-0.0957v-0.6l0.019-0.0957 0.0542-0.0811 0.0811-0.0542 0.0957-0.019h0.6l0.0957 0.019 0.0811 0.0542 0.0542 0.0811 0.019 0.0957v0.6l-0.019 0.0957-0.0542 0.0811-0.0811 0.0542-0.0957 0.019z"/>
   <path d="m75.718 15.525-0.0957-0.019-0.0811-0.0542-0.0542-0.0811-0.019-0.0957v-0.6l0.019-0.0957 0.0542-0.0811 0.0811-0.0542 0.0957-0.019h0.6l0.0957 0.019 0.0811 0.0542 0.0542 0.0811 0.019 0.0957v0.6l-0.019 0.0957-0.0542 0.0811-0.0811 0.0542-0.0957 0.019z"/>
   <path d="m75.718 12.725-0.0957-0.019-0.0811-0.0542-0.0542-0.0811-0.019-0.0957v-0.6l0.019-0.0957 0.0542-0.0811 0.0811-0.0542 0.0957-0.019h0.6l0.0957 0.019 0.0811 0.0542 0.0542 0.0811 0.019 0.0957v0.6l-0.019 0.0957-0.0542 0.0811-0.0811 0.0542-0.0957 0.019z"/>
   <path d="m56.668 34.575-0.0957-0.019-0.0811-0.0542-0.0542-0.0811-0.019-0.0957v-0.6l0.019-0.0957 0.0542-0.0811 0.0811-0.0542 0.0957-0.019h0.6l0.0957 0.019 0.0811 0.0542 0.0542 0.0811 0.019 0.0957v0.6l-0.019 0.0957-0.0542 0.0811-0.0811 0.0542-0.0957 0.019z"/>
   <path d="m56.668 31.775-0.0957-0.019-0.0811-0.0542-0.0542-0.0811-0.019-0.0957v-0.6l0.019-0.0957 0.0542-0.0811 0.0811-0.0542 0.0957-0.019h0.6l0.0957 0.019 0.0811 0.0542 0.0542 0.0811 0.019 0.0957v0.6l-0.019 0.0957-0.0542 0.0811-0.0811 0.0542-0.0957 0.019z"/>
   <path d="m94.768 15.525-0.0957-0.019-0.0811-0.0542-0.0542-0.0811-0.019-0.0957v-0.6l0.019-0.0957 0.0542-0.0811 0.0811-0.0542 0.0957-0.019h0.6l0.0957 0.019 0.0811 0.0542 0.0542 0.0811 0.019 0.0957v0.6l-0.019 0.0957-0.0542 0.0811-0.0811 0.0542-0.0957 0.019z"/>
   <path d="m94.768 12.725-0.0957-0.019-0.0811-0.0542-0.0542-0.0811-0.019-0.0957v-0.6l0.019-0.0957 0.0542-0.0811 0.0811-0.0542 0.0957-0.019h0.6l0.0957 0.019 0.0811 0.0542 0.0542 0.0811 0.019 0.0957v0.6l-0.019 0.0957-0.0542 0.0811-0.0811 0.0542-0.0957 0.019z"/>
   <path d="m94.768 53.625-0.0957-0.019-0.0811-0.0542-0.0542-0.0811-0.019-0.0957v-0.6l0.019-0.0957 0.0542-0.0811 0.0811-0.0542 0.0957-0.019h0.6l0.0957 0.019 0.0811 0.0542 0.0542 0.0811 0.019 0.0957v0.6l-0.019 0.0957-0.0542 0.0811-0.0811 0.0542-0.0957 0.019z"/>
   <path d="m94.768 50.825-0.0957-0.019-0.0811-0.0542-0.0542-0.0811-0.019-0.0957v-0.6l0.019-0.0957 0.0542-0.0811 0.0811-0.0542 0.0957-0.019h0.6l0.0957 0.019 0.0811 0.0542 0.0542 0.0811 0.019 0.0957v0.6l-0.019 0.0957-0.0542 0.0811-0.0811 0.0542-0.0957 0.019z"/>
   <path d="m75.718 53.625-0.0957-0.019-0.0811-0.0542-0.0542-0.0811-0.019-0.0957v-0.6l0.019-0.0957 0.0542-0.0811 0.0811-0.0542 0.0957-0.019h0.6l0.0957 0.019 0.0811 0.0542 0.0542 0.0811 0.019 0.0957v0.6l-0.019 0.0957-0.0542 0.0811-0.0811 0.0542-0.0957 0.019z"/>
   <path d="m75.718 50.825-0.0957-0.019-0.0811-0.0542-0.0542-0.0811-0.019-0.0957v-0.6l0.019-0.0957 0.0542-0.0811 0.0811-0.0542 0.0957-0.019h0.6l0.0957 0.019 0.0811 0.0542 0.0542 0.0811 0.019 0.0957v0.6l-0.019 0.0957-0.0542 0.0811-0.0811 0.0542-0.0957 0.019z"/>
   <path d="m56.668 15.525-0.0957-0.019-0.0811-0.0542-0.0542-0.0811-0.019-0.0957v-0.6l0.019-0.0957 0.0542-0.0811 0.0811-0.0542 0.0957-0.019h0.6l0.0957 0.019 0.0811 0.0542 0.0542 0.0811 0.019 0.0957v0.6l-0.019 0.0957-0.0542 0.0811-0.0811 0.0542-0.0957 0.019z"/>
   <path d="m56.668 12.725-0.0957-0.019-0.0811-0.0542-0.0542-0.0811-0.019-0.0957v-0.6l0.019-0.0957 0.0542-0.0811 0.0811-0.0542 0.0957-0.019h0.6l0.0957 0.019 0.0811 0.0542 0.0542 0.0811 0.019 0.0957v0.6l-0.019 0.0957-0.0542 0.0811-0.0811 0.0542-0.0957 0.019z"/>
   <path d="m94.768 34.575-0.0957-0.019-0.0811-0.0542-0.0542-0.0811-0.019-0.0957v-0.6l0.019-0.0957 0.0542-0.0811 0.0811-0.0542 0.0957-0.019h0.6l0.0957 0.019 0.0811 0.0542 0.0542 0.0811 0.019 0.0957v0.6l-0.019 0.0957-0.0542 0.0811-0.0811 0.0542-0.0957 0.019z"/>
   <path d="m94.768 31.775-0.0957-0.019-0.0811-0.0542-0.0542-0.0811-0.019-0.0957v-0.6l0.019-0.0957 0.0542-0.0811 0.0811-0.0542 0.0957-0.019h0.6l0.0957 0.019 0.0811 0.0542 0.0542 0.0811 0.019 0.0957v0.6l-0.019 0.0957-0.0542 0.0811-0.0811 0.0542-0.0957 0.019z"/>
  </g>
 </g>
 <g fill="none" stroke-linecap="round" stroke-linejoin="round">
  <g stroke="#50FA7B" stroke-width=".2">
   <path d="m16.025 26.125h-6.82"/>
   <path d="m9.205 26.125-2.6 2.6"/>
   <path d="m92.528 42.595v5.14"/>
   <path d="m92.528 47.735 2.54 2.54"/>
   <path d="m54.428 4.495v5.14"/>
   <path d="m54.428 9.635 2.54 2.54"/>
   <path d="m73.478 9.635 2.54 2.54"/>
   <path d="m73.478 4.495v5.14"/>
   <path d="m92.528 9.635 2.54 2.54"/>
   <path d="m92.528 4.495v5.14"/>
   <path d="m54.428 23.545v5.14"/>
   <path d="m54.428 28.685 2.54 2.54"/>
   <path d="m73.478 28.685 2.54 2.54"/>
   <path d="m73.478 23.545v5.14"/>
   <path d="m92.528 28.685 2.54 2.54"/>
   <path d="m92.528 23.545v5.14"/>
   <path d="m54.428 42.595v5.14"/>
   <path d="m54.428 47.735 2.54 2.54"/>
   <path d="m73.478 42.595v5.14"/>
   <path d="m73.478 47.735 2.54 2.54"/>
   <path d="m56.968 14.975h19.05"/>
   <path d="m76.018 14.975h19.05"/>
   <path d="m56.968 34.025h19.05"/>
   <path d="m76.018 34.025h19.05"/>
   <path d="m56.968 53.075h19.05"/>
   <path d="m76.018 53.075h19.05"/>
  </g>
  <g stroke="#8BE9FD" stroke-width=".15">
   <text x="51.8875" y="2.0750" font-size="1.3333" opacity="0" stroke-opacity="0" text-anchor="middle" lengthAdjust="spacingAndGlyphs" textLength="3.2976">SW2</text>
   <g class="stroked-text">
    <desc>SW2</desc>
    <path d="m50.554 1.9822 0.1428 0.0476"/>
    <path d="m50.697 2.0298h0.2381"/>
    <path d="m50.935 2.0298 0.0953-0.0476"/>
    <path d="m51.03 1.9822 0.0476-0.0476"/>
    <path d="m51.078 1.9346 0.0476-0.0953"/>
    <path d="m51.126 1.8393v-0.0952"/>
    <path d="m51.126 1.7441-0.0476-0.0952"/>
    <path d="m51.078 1.6489-0.0476-0.0477"/>
    <path d="m51.03 1.6012-0.0953-0.0476"/>
    <path d="m50.935 1.5536-0.1905-0.0476"/>
    <path d="m50.745 1.506-0.0952-0.0476"/>
    <path d="m50.649 1.4584-0.0476-0.0476"/>
    <path d="m50.602 1.4108-0.0476-0.0953"/>
    <path d="m50.554 1.3155v-0.0952"/>
    <path d="m50.554 1.2203 0.0476-0.0952"/>
    <path d="m50.602 1.1251 0.0476-0.0477"/>
    <path d="m50.649 1.0774 0.0952-0.0476"/>
    <path d="m50.745 1.0298h0.2381"/>
    <path d="m50.983 1.0298 0.1429 0.0476"/>
    <path d="m51.459 1.0298 0.2381 1"/>
    <path d="m51.697 2.0298 0.1905-0.7143"/>
    <path d="m51.888 1.3155 0.1905 0.7143"/>
    <path d="m52.078 2.0298 0.2381-1"/>
    <path d="m52.649 1.1251 0.0476-0.0477"/>
    <path d="m52.697 1.0774 0.0953-0.0476"/>
    <path d="m52.792 1.0298h0.2381"/>
    <path d="m53.03 1.0298 0.0952 0.0476"/>
    <path d="m53.126 1.0774 0.0476 0.0477"/>
    <path d="m53.173 1.1251 0.0476 0.0952"/>
    <path d="m53.221 1.2203v0.0952"/>
    <path d="m53.221 1.3155-0.0476 0.1429"/>
    <path d="m53.173 1.4584-0.5714 0.5714"/>
    <path d="m52.602 2.0298h0.619"/>
   </g>
   <text x="70.9375" y="40.1750" font-size="1.3333" opacity="0" stroke-opacity="0" text-anchor="middle" lengthAdjust="spacingAndGlyphs" textLength="3.2976">SW9</text>
   <g class="stroked-text">
    <desc>SW9</desc>
    <path d="m69.604 40.082 0.1428 0.0476"/>
    <path d="m69.747 40.13h0.2381"/>
    <path d="m69.985 40.13 0.0953-0.0476"/>
    <path d="m70.08 40.082 0.0476-0.0476"/>
    <path d="m70.128 40.035 0.0476-0.0953"/>
    <path d="m70.176 39.939v-0.0952"/>
    <path d="m70.176 39.844-0.0476-0.0952"/>
    <path d="m70.128 39.749-0.0476-0.0477"/>
    <path d="m70.08 39.701-0.0953-0.0476"/>
    <path d="m69.985 39.654-0.1905-0.0476"/>
    <path d="m69.795 39.606-0.0952-0.0476"/>
    <path d="m69.699 39.558-0.0476-0.0476"/>
    <path d="m69.652 39.511-0.0476-0.0953"/>
    <path d="m69.604 39.416v-0.0952"/>
    <path d="m69.604 39.32 0.0476-0.0952"/>
    <path d="m69.652 39.225 0.0476-0.0477"/>
    <path d="m69.699 39.177 0.0952-0.0476"/>
    <path d="m69.795 39.13h0.2381"/>
    <path d="m70.033 39.13 0.1429 0.0476"/>
    <path d="m70.509 39.13 0.2381 1"/>
    <path d="m70.747 40.13 0.1905-0.7143"/>
    <path d="m70.938 39.416 0.1905 0.7143"/>
    <path d="m71.128 40.13 0.2381-1"/>
    <path d="m71.795 40.13h0.1905"/>
    <path d="m71.985 40.13 0.0953-0.0476"/>
    <path d="m72.08 40.082 0.0476-0.0476"/>
    <path d="m72.128 40.035 0.0952-0.1429"/>
    <path d="m72.223 39.892 0.0476-0.1905"/>
    <path d="m72.271 39.701v-0.3809"/>
    <path d="m72.271 39.32-0.0476-0.0952"/>
    <path d="m72.223 39.225-0.0476-0.0477"/>
    <path d="m72.176 39.177-0.0952-0.0476"/>
    <path d="m72.08 39.13h-0.1905"/>
    <path d="m71.89 39.13-0.0953 0.0476"/>
    <path d="m71.795 39.177-0.0476 0.0477"/>
    <path d="m71.747 39.225-0.0476 0.0952"/>
    <path d="m71.699 39.32v0.2381"/>
    <path d="m71.699 39.558 0.0476 0.0952"/>
    <path d="m71.747 39.654 0.0476 0.0476"/>
    <path d="m71.795 39.701 0.0953 0.0477"/>
    <path d="m71.89 39.749h0.1905"/>
    <path d="m72.08 39.749 0.0952-0.0477"/>
    <path d="m72.176 39.701 0.0476-0.0476"/>
    <path d="m72.223 39.654 0.0476-0.0952"/>
   </g>
   <text x="89.9875" y="21.1250" font-size="1.3333" opacity="0" stroke-opacity="0" text-anchor="middle" lengthAdjust="spacingAndGlyphs" textLength="3.2976">SW7</text>
   <g class="stroked-text">
    <desc>SW7</desc>
    <path d="m88.654 21.032 0.1428 0.0476"/>
    <path d="m88.797 21.08h0.2381"/>
    <path d="m89.035 21.08 0.0953-0.0476"/>
    <path d="m89.13 21.032 0.0476-0.0476"/>
    <path d="m89.178 20.985 0.0476-0.0953"/>
    <path d="m89.226 20.889v-0.0952"/>
    <path d="m89.226 20.794-0.0476-0.0952"/>
    <path d="m89.178 20.699-0.0476-0.0477"/>
    <path d="m89.13 20.651-0.0953-0.0476"/>
    <path d="m89.035 20.604-0.1905-0.0476"/>
    <path d="m88.845 20.556-0.0952-0.0476"/>
    <path d="m88.749 20.508-0.0476-0.0476"/>
    <path d="m88.702 20.461-0.0476-0.0953"/>
    <path d="m88.654 20.366v-0.0952"/>
    <path d="m88.654 20.27 0.0476-0.0952"/>
    <path d="m88.702 20.175 0.0476-0.0477"/>
    <path d="m88.749 20.127 0.0952-0.0476"/>
    <path d="m88.845 20.08h0.2381"/>
    <path d="m89.083 20.08 0.1429 0.0476"/>
    <path d="m89.559 20.08 0.2381 1"/>
    <path d="m89.797 21.08 0.1905-0.7143"/>
    <path d="m89.988 20.366 0.1905 0.7143"/>
    <path d="m90.178 21.08 0.2381-1"/>
    <path d="m90.702 20.08h0.6667"/>
    <path d="m91.368 20.08-0.4286 1"/>
   </g>
   <text x="89.9875" y="2.0750" font-size="1.3333" opacity="0" stroke-opacity="0" text-anchor="middle" lengthAdjust="spacingAndGlyphs" textLength="3.2976">SW4</text>
   <g class="stroked-text">
    <desc>SW4</desc>
    <path d="m88.654 1.9822 0.1428 0.0476"/>
    <path d="m88.797 2.0298h0.2381"/>
    <path d="m89.035 2.0298 0.0953-0.0476"/>
    <path d="m89.13 1.9822 0.0476-0.0476"/>
    <path d="m89.178 1.9346 0.0476-0.0953"/>
    <path d="m89.226 1.8393v-0.0952"/>
    <path d="m89.226 1.7441-0.0476-0.0952"/>
    <path d="m89.178 1.6489-0.0476-0.0477"/>
    <path d="m89.13 1.6012-0.0953-0.0476"/>
    <path d="m89.035 1.5536-0.1905-0.0476"/>
    <path d="m88.845 1.506-0.0952-0.0476"/>
    <path d="m88.749 1.4584-0.0476-0.0476"/>
    <path d="m88.702 1.4108-0.0476-0.0953"/>
    <path d="m88.654 1.3155v-0.0952"/>
    <path d="m88.654 1.2203 0.0476-0.0952"/>
    <path d="m88.702 1.1251 0.0476-0.0477"/>
    <path d="m88.749 1.0774 0.0952-0.0476"/>
    <path d="m88.845 1.0298h0.2381"/>
    <path d="m89.083 1.0298 0.1429 0.0476"/>
    <path d="m89.559 1.0298 0.2381 1"/>
    <path d="m89.797 2.0298 0.1905-0.7143"/>
    <path d="m89.988 1.3155 0.1905 0.7143"/>
    <path d="m90.178 2.0298 0.2381-1"/>
    <path d="m91.226 1.3632v0.6666"/>
    <path d="m90.988 0.9822-0.2381 0.7143"/>
    <path d="m90.749 1.6965h0.6191"/>
   </g>
   <text x="89.9875" y="40.1750" font-size="1.3333" opacity="0" stroke-opacity="0" text-anchor="middle" lengthAdjust="spacingAndGlyphs" textLength="4.2500">SW10</text>
   <g class="stroked-text">
    <desc>SW10</desc>
    <path d="m88.178 40.082 0.1428 0.0476"/>
    <path d="m88.321 40.13h0.2381"/>
    <path d="m88.559 40.13 0.0953-0.0476"/>
    <path d="m88.654 40.082 0.0476-0.0476"/>
    <path d="m88.702 40.035 0.0476-0.0953"/>
    <path d="m88.749 39.939v-0.0952"/>
    <path d="m88.749 39.844-0.0476-0.0952"/>
    <path d="m88.702 39.749-0.0476-0.0477"/>
    <path d="m88.654 39.701-0.0953-0.0476"/>
    <path d="m88.559 39.654-0.1904-0.0476"/>
    <path d="m88.368 39.606-0.0953-0.0476"/>
    <path d="m88.273 39.558-0.0476-0.0476"/>
    <path d="m88.226 39.511-0.0476-0.0953"/>
    <path d="m88.178 39.416v-0.0952"/>
    <path d="m88.178 39.32 0.0476-0.0952"/>
    <path d="m88.226 39.225 0.0476-0.0477"/>
    <path d="m88.273 39.177 0.0953-0.0476"/>
    <path d="m88.368 39.13h0.238"/>
    <path d="m88.606 39.13 0.1429 0.0476"/>
    <path d="m89.083 39.13 0.2381 1"/>
    <path d="m89.321 40.13 0.1905-0.7143"/>
    <path d="m89.511 39.416 0.1905 0.7143"/>
    <path d="m89.702 40.13 0.2381-1"/>
    <path d="m90.845 40.13h-0.5714"/>
    <path d="m90.559 40.13v-1"/>
    <path d="m90.559 39.13-0.0952 0.1429"/>
    <path d="m90.464 39.273-0.0952 0.0952"/>
    <path d="m90.368 39.368-0.0953 0.0476"/>
    <path d="m91.464 39.13h0.0952"/>
    <path d="m91.559 39.13 0.0953 0.0476"/>
    <path d="m91.654 39.177 0.0476 0.0477"/>
    <path d="m91.702 39.225 0.0476 0.0952"/>
    <path d="m91.749 39.32 0.0476 0.1905"/>
    <path d="m91.797 39.511v0.2381"/>
    <path d="m91.797 39.749-0.0476 0.1904"/>
    <path d="m91.749 39.939-0.0476 0.0953"/>
    <path d="m91.702 40.035-0.0476 0.0476"/>
    <path d="m91.654 40.082-0.0953 0.0476"/>
    <path d="m91.559 40.13h-0.0952"/>
    <path d="m91.464 40.13-0.0952-0.0476"/>
    <path d="m91.368 40.082-0.0477-0.0476"/>
    <path d="m91.321 40.035-0.0476-0.0953"/>
    <path d="m91.273 39.939-0.0476-0.1904"/>
    <path d="m91.226 39.749v-0.2381"/>
    <path d="m91.226 39.511 0.0476-0.1905"/>
    <path d="m91.273 39.32 0.0476-0.0952"/>
    <path d="m91.321 39.225 0.0477-0.0477"/>
    <path d="m91.368 39.177 0.0952-0.0476"/>
   </g>
   <text x="51.8875" y="21.1250" font-size="1.3333" opacity="0" stroke-opacity="0" text-anchor="middle" lengthAdjust="spacingAndGlyphs" textLength="3.2976">SW5</text>
   <g class="stroked-text">
    <desc>SW5</desc>
    <path d="m50.554 21.032 0.1428 0.0476"/>
    <path d="m50.697 21.08h0.2381"/>
    <path d="m50.935 21.08 0.0953-0.0476"/>
    <path d="m51.03 21.032 0.0476-0.0476"/>
    <path d="m51.078 20.985 0.0476-0.0953"/>
    <path d="m51.126 20.889v-0.0952"/>
    <path d="m51.126 20.794-0.0476-0.0952"/>
    <path d="m51.078 20.699-0.0476-0.0477"/>
    <path d="m51.03 20.651-0.0953-0.0476"/>
    <path d="m50.935 20.604-0.1905-0.0476"/>
    <path d="m50.745 20.556-0.0952-0.0476"/>
    <path d="m50.649 20.508-0.0476-0.0476"/>
    <path d="m50.602 20.461-0.0476-0.0953"/>
    <path d="m50.554 20.366v-0.0952"/>
    <path d="m50.554 20.27 0.0476-0.0952"/>
    <path d="m50.602 20.175 0.0476-0.0477"/>
    <path d="m50.649 20.127 0.0952-0.0476"/>
    <path d="m50.745 20.08h0.2381"/>
    <path d="m50.983 20.08 0.1429 0.0476"/>
    <path d="m51.459 20.08 0.2381 1"/>
    <path d="m51.697 21.08 0.1905-0.7143"/>
    <path d="m51.888 20.366 0.1905 0.7143"/>
    <path d="m52.078 21.08 0.2381-1"/>
    <path d="m53.173 20.08h-0.4762"/>
    <path d="m52.697 20.08-0.0476 0.4762"/>
    <path d="m52.649 20.556 0.0476-0.0476"/>
    <path d="m52.697 20.508 0.0953-0.0476"/>
    <path d="m52.792 20.461h0.2381"/>
    <path d="m53.03 20.461 0.0952 0.0476"/>
    <path d="m53.126 20.508 0.0476 0.0476"/>
    <path d="m53.173 20.556 0.0476 0.0952"/>
    <path d="m53.221 20.651v0.2381"/>
    <path d="m53.221 20.889-0.0476 0.0953"/>
    <path d="m53.173 20.985-0.0476 0.0476"/>
    <path d="m53.126 21.032-0.0952 0.0476"/>
    <path d="m53.03 21.08h-0.2381"/>
    <path d="m52.792 21.08-0.0953-0.0476"/>
    <path d="m52.697 21.032-0.0476-0.0476"/>
   </g>
   <text x="51.8875" y="40.1750" font-size="1.3333" opacity="0" stroke-opacity="0" text-anchor="middle" lengthAdjust="spacingAndGlyphs" textLength="3.2976">SW8</text>
   <g class="stroked-text">
    <desc>SW8</desc>
    <path d="m50.554 40.082 0.1428 0.0476"/>
    <path d="m50.697 40.13h0.2381"/>
    <path d="m50.935 40.13 0.0953-0.0476"/>
    <path d="m51.03 40.082 0.0476-0.0476"/>
    <path d="m51.078 40.035 0.0476-0.0953"/>
    <path d="m51.126 39.939v-0.0952"/>
    <path d="m51.126 39.844-0.0476-0.0952"/>
    <path d="m51.078 39.749-0.0476-0.0477"/>
    <path d="m51.03 39.701-0.0953-0.0476"/>
    <path d="m50.935 39.654-0.1905-0.0476"/>
    <path d="m50.745 39.606-0.0952-0.0476"/>
    <path d="m50.649 39.558-0.0476-0.0476"/>
    <path d="m50.602 39.511-0.0476-0.0953"/>
    <path d="m50.554 39.416v-0.0952"/>
    <path d="m50.554 39.32 0.0476-0.0952"/>
    <path d="m50.602 39.225 0.0476-0.0477"/>
    <path d="m50.649 39.177 0.0952-0.0476"/>
    <path d="m50.745 39.13h0.2381"/>
    <path d="m50.983 39.13 0.1429 0.0476"/>
    <path d="m51.459 39.13 0.2381 1"/>
    <path d="m51.697 40.13 0.1905-0.7143"/>
    <path d="m51.888 39.416 0.1905 0.7143"/>
    <path d="m52.078 40.13 0.2381-1"/>
    <path d="m52.84 39.558-0.0953-0.0476"/>
    <path d="m52.745 39.511-0.0476-0.0476"/>
    <path d="m52.697 39.463-0.0476-0.0953"/>
    <path d="m52.649 39.368v-0.0476"/>
    <path d="m52.649 39.32 0.0476-0.0952"/>
    <path d="m52.697 39.225 0.0476-0.0477"/>
    <path d="m52.745 39.177 0.0953-0.0476"/>
    <path d="m52.84 39.13h0.1905"/>
    <path d="m53.03 39.13 0.0952 0.0476"/>
    <path d="m53.126 39.177 0.0476 0.0477"/>
    <path d="m53.173 39.225 0.0476 0.0952"/>
    <path d="m53.221 39.32v0.0476"/>
    <path d="m53.221 39.368-0.0476 0.0953"/>
    <path d="m53.173 39.463-0.0476 0.0476"/>
    <path d="m53.126 39.511-0.0952 0.0476"/>
    <path d="m53.03 39.558h-0.1905"/>
    <path d="m52.84 39.558-0.0953 0.0476"/>
    <path d="m52.745 39.606-0.0476 0.0476"/>
    <path d="m52.697 39.654-0.0476 0.0953"/>
    <path d="m52.649 39.749v0.1904"/>
    <path d="m52.649 39.939 0.0476 0.0953"/>
    <path d="m52.697 40.035 0.0476 0.0476"/>
    <path d="m52.745 40.082 0.0953 0.0476"/>
    <path d="m52.84 40.13h0.1905"/>
    <path d="m53.03 40.13 0.0952-0.0476"/>
    <path d="m53.126 40.082 0.0476-0.0476"/>
    <path d="m53.173 40.035 0.0476-0.0953"/>
    <path d="m53.221 39.939v-0.1904"/>
    <path d="m53.221 39.749-0.0476-0.0953"/>
    <path d="m53.173 39.654-0.0476-0.0476"/>
    <path d="m53.126 39.606-0.0952-0.0476"/>
   </g>
   <text x="70.9375" y="2.0750" font-size="1.3333" opacity="0" stroke-opacity="0" text-anchor="middle" lengthAdjust="spacingAndGlyphs" textLength="3.2976">SW3</text>
   <g class="stroked-text">
    <desc>SW3</desc>
    <path d="m69.604 1.9822 0.1428 0.0476"/>
    <path d="m69.747 2.0298h0.2381"/>
    <path d="m69.985 2.0298 0.0953-0.0476"/>
    <path d="m70.08 1.9822 0.0476-0.0476"/>
    <path d="m70.128 1.9346 0.0476-0.0953"/>
    <path d="m70.176 1.8393v-0.0952"/>
    <path d="m70.176 1.7441-0.0476-0.0952"/>
    <path d="m70.128 1.6489-0.0476-0.0477"/>
    <path d="m70.08 1.6012-0.0953-0.0476"/>
    <path d="m69.985 1.5536-0.1905-0.0476"/>
    <path d="m69.795 1.506-0.0952-0.0476"/>
    <path d="m69.699 1.4584-0.0476-0.0476"/>
    <path d="m69.652 1.4108-0.0476-0.0953"/>
    <path d="m69.604 1.3155v-0.0952"/>
    <path d="m69.604 1.2203 0.0476-0.0952"/>
    <path d="m69.652 1.1251 0.0476-0.0477"/>
    <path d="m69.699 1.0774 0.0952-0.0476"/>
    <path d="m69.795 1.0298h0.2381"/>
    <path d="m70.033 1.0298 0.1429 0.0476"/>
    <path d="m70.509 1.0298 0.2381 1"/>
    <path d="m70.747 2.0298 0.1905-0.7143"/>
    <path d="m70.938 1.3155 0.1905 0.7143"/>
    <path d="m71.128 2.0298 0.2381-1"/>
    <path d="m71.652 1.0298h0.619"/>
    <path d="m72.271 1.0298-0.3333 0.381"/>
    <path d="m71.938 1.4108h0.1429"/>
    <path d="m72.08 1.4108 0.0952 0.0476"/>
    <path d="m72.176 1.4584 0.0476 0.0476"/>
    <path d="m72.223 1.506 0.0476 0.0952"/>
    <path d="m72.271 1.6012v0.2381"/>
    <path d="m72.271 1.8393-0.0476 0.0953"/>
    <path d="m72.223 1.9346-0.0476 0.0476"/>
    <path d="m72.176 1.9822-0.0952 0.0476"/>
    <path d="m72.08 2.0298h-0.2858"/>
    <path d="m71.795 2.0298-0.0952-0.0476"/>
    <path d="m71.699 1.9822-0.0476-0.0476"/>
   </g>
   <text x="70.9375" y="21.1250" font-size="1.3333" opacity="0" stroke-opacity="0" text-anchor="middle" lengthAdjust="spacingAndGlyphs" textLength="3.2976">SW6</text>
   <g class="stroked-text">
    <desc>SW6</desc>
    <path d="m69.604 21.032 0.1428 0.0476"/>
    <path d="m69.747 21.08h0.2381"/>
    <path d="m69.985 21.08 0.0953-0.0476"/>
    <path d="m70.08 21.032 0.0476-0.0476"/>
    <path d="m70.128 20.985 0.0476-0.0953"/>
    <path d="m70.176 20.889v-0.0952"/>
    <path d="m70.176 20.794-0.0476-0.0952"/>
    <path d="m70.128 20.699-0.0476-0.0477"/>
    <path d="m70.08 20.651-0.0953-0.0476"/>
    <path d="m69.985 20.604-0.1905-0.0476"/>
    <path d="m69.795 20.556-0.0952-0.0476"/>
    <path d="m69.699 20.508-0.0476-0.0476"/>
    <path d="m69.652 20.461-0.0476-0.0953"/>
    <path d="m69.604 20.366v-0.0952"/>
    <path d="m69.604 20.27 0.0476-0.0952"/>
    <path d="m69.652 20.175 0.0476-0.0477"/>
    <path d="m69.699 20.127 0.0952-0.0476"/>
    <path d="m69.795 20.08h0.2381"/>
    <path d="m70.033 20.08 0.1429 0.0476"/>
    <path d="m70.509 20.08 0.2381 1"/>
    <path d="m70.747 21.08 0.1905-0.7143"/>
    <path d="m70.938 20.366 0.1905 0.7143"/>
    <path d="m71.128 21.08 0.2381-1"/>
    <path d="m72.176 20.08h-0.1905"/>
    <path d="m71.985 20.08-0.0952 0.0476"/>
    <path d="m71.89 20.127-0.0476 0.0477"/>
    <path d="m71.842 20.175-0.0953 0.1428"/>
    <path d="m71.747 20.318-0.0476 0.1905"/>
    <path d="m71.699 20.508v0.3809"/>
    <path d="m71.699 20.889 0.0476 0.0953"/>
    <path d="m71.747 20.985 0.0476 0.0476"/>
    <path d="m71.795 21.032 0.0953 0.0476"/>
    <path d="m71.89 21.08h0.1905"/>
    <path d="m72.08 21.08 0.0952-0.0476"/>
    <path d="m72.176 21.032 0.0476-0.0476"/>
    <path d="m72.223 20.985 0.0476-0.0953"/>
    <path d="m72.271 20.889v-0.2381"/>
    <path d="m72.271 20.651-0.0476-0.0952"/>
    <path d="m72.223 20.556-0.0476-0.0476"/>
    <path d="m72.176 20.508-0.0952-0.0476"/>
    <path d="m72.08 20.461h-0.1905"/>
    <path d="m71.89 20.461-0.0953 0.0476"/>
    <path d="m71.795 20.508-0.0476 0.0476"/>
    <path d="m71.747 20.556-0.0476 0.0952"/>
   </g>
   <text x="4.3250" y="21.9250" font-size="1.3333" opacity="0" stroke-opacity="0" text-anchor="middle" lengthAdjust="spacingAndGlyphs" textLength="3.2976">SW1</text>
   <g class="stroked-text">
    <desc>SW1</desc>
    <path d="m2.9917 21.832 0.1428 0.0476"/>
    <path d="m3.1345 21.88h0.2381"/>
    <path d="m3.3726 21.88 0.0953-0.0476"/>
    <path d="m3.4679 21.832 0.0476-0.0476"/>
    <path d="m3.5155 21.785 0.0476-0.0953"/>
    <path d="m3.5631 21.689v-0.0952"/>
    <path d="m3.5631 21.594-0.0476-0.0952"/>
    <path d="m3.5155 21.499-0.0476-0.0477"/>
    <path d="m3.4679 21.451-0.0953-0.0476"/>
    <path d="m3.3726 21.404-0.1905-0.0476"/>
    <path d="m3.1821 21.356-0.0952-0.0476"/>
    <path d="m3.0869 21.308-0.0476-0.0476"/>
    <path d="m3.0393 21.261-0.0476-0.0953"/>
    <path d="m2.9917 21.166v-0.0952"/>
    <path d="m2.9917 21.07 0.0476-0.0952"/>
    <path d="m3.0393 20.975 0.0476-0.0477"/>
    <path d="m3.0869 20.927 0.0952-0.0476"/>
    <path d="m3.1821 20.88h0.2381"/>
    <path d="m3.4202 20.88 0.1429 0.0476"/>
    <path d="m3.8964 20.88 0.2381 1"/>
    <path d="m4.1345 21.88 0.1905-0.7143"/>
    <path d="m4.325 21.166 0.1905 0.7143"/>
    <path d="m4.5155 21.88 0.2381-1"/>
    <path d="m5.6583 21.88h-0.5714"/>
    <path d="m5.3726 21.88v-1"/>
    <path d="m5.3726 20.88-0.0952 0.1429"/>
    <path d="m5.2774 21.023-0.0953 0.0952"/>
    <path d="m5.1821 21.118-0.0952 0.0476"/>
   </g>
  </g>
  <g stroke="#8BE9FD" stroke-width=".12">
   <path d="m44.788 2.475v14.2"/>
   <path d="m44.788 16.675h14.2"/>
   <path d="m58.988 2.475h-14.2"/>
   <path d="m58.988 16.675v-14.2"/>
   <path d="m63.838 40.575v14.2"/>
   <path d="m63.838 54.775h14.2"/>
   <path d="m78.038 40.575h-14.2"/>
   <path d="m78.038 54.775v-14.2"/>
   <path d="m82.888 21.525v14.2"/>
   <path d="m82.888 35.725h14.2"/>
   <path d="m97.088 21.525h-14.2"/>
   <path d="m97.088 35.725v-14.2"/>
   <path d="m82.888 2.475v14.2"/>
   <path d="m82.888 16.675h14.2"/>
   <path d="m97.088 2.475h-14.2"/>
   <path d="m97.088 16.675v-14.2"/>
   <path d="m82.888 40.575v14.2"/>
   <path d="m82.888 54.775h14.2"/>
   <path d="m97.088 40.575h-14.2"/>
   <path d="m97.088 54.775v-14.2"/>
   <path d="m44.788 21.525v14.2"/>
   <path d="m44.788 35.725h14.2"/>
   <path d="m58.988 21.525h-14.2"/>
   <path d="m58.988 35.725v-14.2"/>
   <path d="m44.788 40.575v14.2"/>
   <path d="m44.788 54.775h14.2"/>
   <path d="m58.988 40.575h-14.2"/>
   <path d="m58.988 54.775v-14.2"/>
   <path d="m63.838 2.475v14.2"/>
   <path d="m63.838 16.675h14.2"/>
   <path d="m78.038 2.475h-14.2"/>
   <path d="m78.038 16.675v-14.2"/>
   <path d="m63.838 21.525v14.2"/>
   <path d="m63.838 35.725h14.2"/>
   <path d="m78.038 21.525h-14.2"/>
   <path d="m78.038 35.725v-14.2"/>
   <path d="m1.225 24.525h0.6"/>
   <path d="m1.525 24.825-0.3-0.3"/>
   <path d="m1.825 24.525-0.3 0.3"/>
   <path d="m2.925 22.725v11.8"/>
   <path d="m7.025 22.725h-4.1"/>
   <path d="m7.025 34.525h-4.1"/>
   <path d="m8.525 28.625h1"/>
   <path d="m9.025 28.125v1"/>
   <path d="m11.025 22.725h4.1"/>
   <path d="m15.125 22.725v2.4"/>
   <path d="m15.125 27.325v2.6"/>
   <path d="m15.125 32.125v2.4"/>
   <path d="m15.125 34.525h-4.1"/>
   <circle cx="9.025" cy="28.625" r="3"/>
  </g>
  <g stroke="#BD93F9" stroke-width=".15">
   <g transform="rotate(-90 77.922 32.752)">
    <text transform="scale(-1 1) translate(-155.84)" x="77.9225" y="33.2520" font-size="1.3333" opacity="0" stroke-opacity="0" text-anchor="middle" lengthAdjust="spacingAndGlyphs" textLength="2.2024">D6</text>
   </g>
   <g class="stroked-text">
    <desc>D6</desc>
    <path d="m78.377 32.014h-1"/>
    <path d="m77.377 32.014v0.2381"/>
    <path d="m77.377 32.252 0.0476 0.1429"/>
    <path d="m77.425 32.395 0.0953 0.0952"/>
    <path d="m77.52 32.49 0.0952 0.0476"/>
    <path d="m77.615 32.538 0.1905 0.0476"/>
    <path d="m77.806 32.585h0.1428"/>
    <path d="m77.949 32.585 0.1905-0.0476"/>
    <path d="m78.139 32.538 0.0953-0.0476"/>
    <path d="m78.234 32.49 0.0952-0.0952"/>
    <path d="m78.33 32.395 0.0476-0.1429"/>
    <path d="m78.377 32.252v-0.2381"/>
    <path d="m77.377 33.442v-0.1905"/>
    <path d="m77.377 33.252 0.0476-0.0952"/>
    <path d="m77.425 33.157 0.0477-0.0477"/>
    <path d="m77.473 33.109 0.1428-0.0952"/>
    <path d="m77.615 33.014 0.1905-0.0476"/>
    <path d="m77.806 32.966h0.3809"/>
    <path d="m78.187 32.966 0.0953 0.0476"/>
    <path d="m78.282 33.014 0.0476 0.0476"/>
    <path d="m78.33 33.062 0.0476 0.0953"/>
    <path d="m78.377 33.157v0.1904"/>
    <path d="m78.377 33.347-0.0476 0.0953"/>
    <path d="m78.33 33.442-0.0476 0.0476"/>
    <path d="m78.282 33.49-0.0953 0.0476"/>
    <path d="m78.187 33.538h-0.2381"/>
    <path d="m77.949 33.538-0.0952-0.0476"/>
    <path d="m77.854 33.49-0.0476-0.0476"/>
    <path d="m77.806 33.442-0.0476-0.0953"/>
    <path d="m77.758 33.347v-0.1904"/>
    <path d="m77.758 33.157 0.0476-0.0953"/>
    <path d="m77.806 33.062 0.0476-0.0476"/>
    <path d="m77.854 33.014 0.0952-0.0476"/>
   </g>
   <g transform="rotate(-90 8.51 30.252)">
    <text transform="scale(-1 1) translate(-17.02)" x="8.5100" y="30.7520" font-size="1.3333" opacity="0" stroke-opacity="0" text-anchor="middle" lengthAdjust="spacingAndGlyphs" textLength="2.2024">D1</text>
   </g>
   <g class="stroked-text">
    <desc>D1</desc>
    <path d="m8.9648 29.514h-1"/>
    <path d="m7.9648 29.514v0.2381"/>
    <path d="m7.9648 29.752 0.0476 0.1429"/>
    <path d="m8.0124 29.895 0.0953 0.0952"/>
    <path d="m8.1077 29.99 0.0952 0.0476"/>
    <path d="m8.2029 30.038 0.1905 0.0476"/>
    <path d="m8.3934 30.085h0.1428"/>
    <path d="m8.5362 30.085 0.1905-0.0476"/>
    <path d="m8.7267 30.038 0.0953-0.0476"/>
    <path d="m8.822 29.99 0.0952-0.0952"/>
    <path d="m8.9172 29.895 0.0476-0.1429"/>
    <path d="m8.9648 29.752v-0.2381"/>
    <path d="m8.9648 31.038v-0.5714"/>
    <path d="m8.9648 30.752h-1"/>
    <path d="m7.9648 30.752 0.1429-0.0952"/>
    <path d="m8.1077 30.657 0.0952-0.0953"/>
    <path d="m8.2029 30.562 0.0476-0.0952"/>
   </g>
   <g transform="rotate(-90 58.872 51.802)">
    <text transform="scale(-1 1) translate(-117.74)" x="58.8725" y="52.3020" font-size="1.3333" opacity="0" stroke-opacity="0" text-anchor="middle" lengthAdjust="spacingAndGlyphs" textLength="2.2024">D8</text>
   </g>
   <g class="stroked-text">
    <desc>D8</desc>
    <path d="m59.327 51.064h-1"/>
    <path d="m58.327 51.064v0.2381"/>
    <path d="m58.327 51.302 0.0476 0.1429"/>
    <path d="m58.375 51.445 0.0953 0.0952"/>
    <path d="m58.47 51.54 0.0952 0.0476"/>
    <path d="m58.565 51.588 0.1905 0.0476"/>
    <path d="m58.756 51.635h0.1428"/>
    <path d="m58.899 51.635 0.1905-0.0476"/>
    <path d="m59.089 51.588 0.0953-0.0476"/>
    <path d="m59.184 51.54 0.0952-0.0952"/>
    <path d="m59.28 51.445 0.0476-0.1429"/>
    <path d="m59.327 51.302v-0.2381"/>
    <path d="m58.756 52.207-0.0476-0.0953"/>
    <path d="m58.708 52.112-0.0476-0.0476"/>
    <path d="m58.661 52.064-0.0953-0.0476"/>
    <path d="m58.565 52.016h-0.0476"/>
    <path d="m58.518 52.016-0.0952 0.0476"/>
    <path d="m58.423 52.064-0.0477 0.0476"/>
    <path d="m58.375 52.112-0.0476 0.0953"/>
    <path d="m58.327 52.207v0.1904"/>
    <path d="m58.327 52.397 0.0476 0.0953"/>
    <path d="m58.375 52.492 0.0477 0.0476"/>
    <path d="m58.423 52.54 0.0952 0.0476"/>
    <path d="m58.518 52.588h0.0476"/>
    <path d="m58.565 52.588 0.0953-0.0476"/>
    <path d="m58.661 52.54 0.0476-0.0476"/>
    <path d="m58.708 52.492 0.0476-0.0953"/>
    <path d="m58.756 52.397v-0.1904"/>
    <path d="m58.756 52.207 0.0476-0.0953"/>
    <path d="m58.804 52.112 0.0476-0.0476"/>
    <path d="m58.851 52.064 0.0953-0.0476"/>
    <path d="m58.946 52.016h0.1904"/>
    <path d="m59.137 52.016 0.0953 0.0476"/>
    <path d="m59.232 52.064 0.0476 0.0476"/>
    <path d="m59.28 52.112 0.0476 0.0953"/>
    <path d="m59.327 52.207v0.1904"/>
    <path d="m59.327 52.397-0.0476 0.0953"/>
    <path d="m59.28 52.492-0.0476 0.0476"/>
    <path d="m59.232 52.54-0.0953 0.0476"/>
    <path d="m59.137 52.588h-0.1904"/>
    <path d="m58.946 52.588-0.0953-0.0476"/>
    <path d="m58.851 52.54-0.0476-0.0476"/>
    <path d="m58.804 52.492-0.0476-0.0953"/>
   </g>
   <g transform="rotate(-90 77.922 13.702)">
    <text transform="scale(-1 1) translate(-155.84)" x="77.9225" y="14.2020" font-size="1.3333" opacity="0" stroke-opacity="0" text-anchor="middle" lengthAdjust="spacingAndGlyphs" textLength="2.2024">D3</text>
   </g>
   <g class="stroked-text">
    <desc>D3</desc>
    <path d="m78.377 12.964h-1"/>
    <path d="m77.377 12.964v0.2381"/>
    <path d="m77.377 13.202 0.0476 0.1429"/>
    <path d="m77.425 13.345 0.0953 0.0952"/>
    <path d="m77.52 13.44 0.0952 0.0476"/>
    <path d="m77.615 13.488 0.1905 0.0476"/>
    <path d="m77.806 13.535h0.1428"/>
    <path d="m77.949 13.535 0.1905-0.0476"/>
    <path d="m78.139 13.488 0.0953-0.0476"/>
    <path d="m78.234 13.44 0.0952-0.0952"/>
    <path d="m78.33 13.345 0.0476-0.1429"/>
    <path d="m78.377 13.202v-0.2381"/>
    <path d="m77.377 13.869v0.619"/>
    <path d="m77.377 14.488 0.381-0.3333"/>
    <path d="m77.758 14.154v0.1428"/>
    <path d="m77.758 14.297 0.0476 0.0953"/>
    <path d="m77.806 14.392 0.0476 0.0476"/>
    <path d="m77.854 14.44 0.0952 0.0476"/>
    <path d="m77.949 14.488h0.2381"/>
    <path d="m78.187 14.488 0.0953-0.0476"/>
    <path d="m78.282 14.44 0.0476-0.0476"/>
    <path d="m78.33 14.392 0.0476-0.0953"/>
    <path d="m78.377 14.297v-0.2857"/>
    <path d="m78.377 14.012-0.0476-0.0952"/>
    <path d="m78.33 13.916-0.0476-0.0476"/>
   </g>
   <g transform="rotate(-90 58.872 32.752)">
    <text transform="scale(-1 1) translate(-117.74)" x="58.8725" y="33.2520" font-size="1.3333" opacity="0" stroke-opacity="0" text-anchor="middle" lengthAdjust="spacingAndGlyphs" textLength="2.2024">D5</text>
   </g>
   <g class="stroked-text">
    <desc>D5</desc>
    <path d="m59.327 32.014h-1"/>
    <path d="m58.327 32.014v0.2381"/>
    <path d="m58.327 32.252 0.0476 0.1429"/>
    <path d="m58.375 32.395 0.0953 0.0952"/>
    <path d="m58.47 32.49 0.0952 0.0476"/>
    <path d="m58.565 32.538 0.1905 0.0476"/>
    <path d="m58.756 32.585h0.1428"/>
    <path d="m58.899 32.585 0.1905-0.0476"/>
    <path d="m59.089 32.538 0.0953-0.0476"/>
    <path d="m59.184 32.49 0.0952-0.0952"/>
    <path d="m59.28 32.395 0.0476-0.1429"/>
    <path d="m59.327 32.252v-0.2381"/>
    <path d="m58.327 33.49v-0.4762"/>
    <path d="m58.327 33.014 0.4762-0.0476"/>
    <path d="m58.804 32.966-0.0476 0.0476"/>
    <path d="m58.756 33.014-0.0476 0.0952"/>
    <path d="m58.708 33.109v0.2381"/>
    <path d="m58.708 33.347 0.0476 0.0953"/>
    <path d="m58.756 33.442 0.0476 0.0476"/>
    <path d="m58.804 33.49 0.0952 0.0476"/>
    <path d="m58.899 33.538h0.2381"/>
    <path d="m59.137 33.538 0.0953-0.0476"/>
    <path d="m59.232 33.49 0.0476-0.0476"/>
    <path d="m59.28 33.442 0.0476-0.0953"/>
    <path d="m59.327 33.347v-0.2381"/>
    <path d="m59.327 33.109-0.0476-0.0952"/>
    <path d="m59.28 33.014-0.0476-0.0476"/>
   </g>
   <g transform="rotate(-90 96.972 13.702)">
    <text transform="scale(-1 1) translate(-193.94)" x="96.9725" y="14.2020" font-size="1.3333" opacity="0" stroke-opacity="0" text-anchor="middle" lengthAdjust="spacingAndGlyphs" textLength="2.2024">D4</text>
   </g>
   <g class="stroked-text">
    <desc>D4</desc>
    <path d="m97.427 12.964h-1"/>
    <path d="m96.427 12.964v0.2381"/>
    <path d="m96.427 13.202 0.0476 0.1429"/>
    <path d="m96.475 13.345 0.0953 0.0952"/>
    <path d="m96.57 13.44 0.0952 0.0476"/>
    <path d="m96.665 13.488 0.1905 0.0476"/>
    <path d="m96.856 13.535h0.1428"/>
    <path d="m96.999 13.535 0.1905-0.0476"/>
    <path d="m97.189 13.488 0.0953-0.0476"/>
    <path d="m97.284 13.44 0.0952-0.0952"/>
    <path d="m97.38 13.345 0.0476-0.1429"/>
    <path d="m97.427 13.202v-0.2381"/>
    <path d="m96.761 14.392h0.6666"/>
    <path d="m96.38 14.154 0.7143-0.2381"/>
    <path d="m97.094 13.916v0.619"/>
   </g>
   <g transform="rotate(-90 96.972 51.802)">
    <text transform="scale(-1 1) translate(-193.94)" x="96.9725" y="52.3020" font-size="1.3333" opacity="0" stroke-opacity="0" text-anchor="middle" lengthAdjust="spacingAndGlyphs" textLength="3.1548">D10</text>
   </g>
   <g class="stroked-text">
    <desc>D10</desc>
    <path d="m97.427 50.588h-1"/>
    <path d="m96.427 50.588v0.2381"/>
    <path d="m96.427 50.826 0.0476 0.1429"/>
    <path d="m96.475 50.969 0.0953 0.0952"/>
    <path d="m96.57 51.064 0.0952 0.0476"/>
    <path d="m96.665 51.112 0.1905 0.0476"/>
    <path d="m96.856 51.159h0.1428"/>
    <path d="m96.999 51.159 0.1905-0.0476"/>
    <path d="m97.189 51.112 0.0953-0.0476"/>
    <path d="m97.284 51.064 0.0952-0.0952"/>
    <path d="m97.38 50.969 0.0476-0.1429"/>
    <path d="m97.427 50.826v-0.2381"/>
    <path d="m97.427 52.112v-0.5714"/>
    <path d="m97.427 51.826h-1"/>
    <path d="m96.427 51.826 0.1429-0.0952"/>
    <path d="m96.57 51.731 0.0952-0.0953"/>
    <path d="m96.665 51.635 0.0476-0.0952"/>
    <path d="m96.427 52.731v0.0952"/>
    <path d="m96.427 52.826 0.0476 0.0952"/>
    <path d="m96.475 52.921 0.0477 0.0477"/>
    <path d="m96.523 52.969 0.0952 0.0476"/>
    <path d="m96.618 53.016 0.1905 0.0476"/>
    <path d="m96.808 53.064h0.2381"/>
    <path d="m97.046 53.064 0.1904-0.0476"/>
    <path d="m97.237 53.016 0.0953-0.0476"/>
    <path d="m97.332 52.969 0.0476-0.0477"/>
    <path d="m97.38 52.921 0.0476-0.0952"/>
    <path d="m97.427 52.826v-0.0952"/>
    <path d="m97.427 52.731-0.0476-0.0953"/>
    <path d="m97.38 52.635-0.0476-0.0476"/>
    <path d="m97.332 52.588-0.0953-0.0476"/>
    <path d="m97.237 52.54-0.1904-0.0476"/>
    <path d="m97.046 52.492h-0.2381"/>
    <path d="m96.808 52.492-0.1905 0.0476"/>
    <path d="m96.618 52.54-0.0952 0.0476"/>
    <path d="m96.523 52.588-0.0477 0.0476"/>
    <path d="m96.475 52.635-0.0476 0.0953"/>
   </g>
   <g transform="rotate(-90 77.922 51.802)">
    <text transform="scale(-1 1) translate(-155.84)" x="77.9225" y="52.3020" font-size="1.3333" opacity="0" stroke-opacity="0" text-anchor="middle" lengthAdjust="spacingAndGlyphs" textLength="2.2024">D9</text>
   </g>
   <g class="stroked-text">
    <desc>D9</desc>
    <path d="m78.377 51.064h-1"/>
    <path d="m77.377 51.064v0.2381"/>
    <path d="m77.377 51.302 0.0476 0.1429"/>
    <path d="m77.425 51.445 0.0953 0.0952"/>
    <path d="m77.52 51.54 0.0952 0.0476"/>
    <path d="m77.615 51.588 0.1905 0.0476"/>
    <path d="m77.806 51.635h0.1428"/>
    <path d="m77.949 51.635 0.1905-0.0476"/>
    <path d="m78.139 51.588 0.0953-0.0476"/>
    <path d="m78.234 51.54 0.0952-0.0952"/>
    <path d="m78.33 51.445 0.0476-0.1429"/>
    <path d="m78.377 51.302v-0.2381"/>
    <path d="m78.377 52.112v0.1905"/>
    <path d="m78.377 52.302-0.0476 0.0952"/>
    <path d="m78.33 52.397-0.0476 0.0477"/>
    <path d="m78.282 52.445-0.1429 0.0952"/>
    <path d="m78.139 52.54-0.1905 0.0476"/>
    <path d="m77.949 52.588h-0.3809"/>
    <path d="m77.568 52.588-0.0952-0.0476"/>
    <path d="m77.473 52.54-0.0477-0.0476"/>
    <path d="m77.425 52.492-0.0476-0.0953"/>
    <path d="m77.377 52.397v-0.1904"/>
    <path d="m77.377 52.207 0.0476-0.0953"/>
    <path d="m77.425 52.112 0.0477-0.0476"/>
    <path d="m77.473 52.064 0.0952-0.0476"/>
    <path d="m77.568 52.016h0.2381"/>
    <path d="m77.806 52.016 0.0952 0.0476"/>
    <path d="m77.901 52.064 0.0476 0.0476"/>
    <path d="m77.949 52.112 0.0477 0.0953"/>
    <path d="m77.996 52.207v0.1904"/>
    <path d="m77.996 52.397-0.0477 0.0953"/>
    <path d="m77.949 52.492-0.0476 0.0476"/>
    <path d="m77.901 52.54-0.0952 0.0476"/>
   </g>
   <g transform="rotate(-90 58.872 13.702)">
    <text transform="scale(-1 1) translate(-117.74)" x="58.8725" y="14.2020" font-size="1.3333" opacity="0" stroke-opacity="0" text-anchor="middle" lengthAdjust="spacingAndGlyphs" textLength="2.2024">D2</text>
   </g>
   <g class="stroked-text">
    <desc>D2</desc>
    <path d="m59.327 12.964h-1"/>
    <path d="m58.327 12.964v0.2381"/>
    <path d="m58.327 13.202 0.0476 0.1429"/>
    <path d="m58.375 13.345 0.0953 0.0952"/>
    <path d="m58.47 13.44 0.0952 0.0476"/>
    <path d="m58.565 13.488 0.1905 0.0476"/>
    <path d="m58.756 13.535h0.1428"/>
    <path d="m58.899 13.535 0.1905-0.0476"/>
    <path d="m59.089 13.488 0.0953-0.0476"/>
    <path d="m59.184 13.44 0.0952-0.0952"/>
    <path d="m59.28 13.345 0.0476-0.1429"/>
    <path d="m59.327 13.202v-0.2381"/>
    <path d="m58.423 13.916-0.0477 0.0476"/>
    <path d="m58.375 13.964-0.0476 0.0952"/>
    <path d="m58.327 14.059v0.2381"/>
    <path d="m58.327 14.297 0.0476 0.0953"/>
    <path d="m58.375 14.392 0.0477 0.0476"/>
    <path d="m58.423 14.44 0.0952 0.0476"/>
    <path d="m58.518 14.488h0.0952"/>
    <path d="m58.613 14.488 0.1429-0.0476"/>
    <path d="m58.756 14.44 0.5714-0.5714"/>
    <path d="m59.327 13.869v0.619"/>
   </g>
   <g transform="rotate(-90 96.972 32.752)">
    <text transform="scale(-1 1) translate(-193.94)" x="96.9725" y="33.2520" font-size="1.3333" opacity="0" stroke-opacity="0" text-anchor="middle" lengthAdjust="spacingAndGlyphs" textLength="2.2024">D7</text>
   </g>
   <g class="stroked-text">
    <desc>D7</desc>
    <path d="m97.427 32.014h-1"/>
    <path d="m96.427 32.014v0.2381"/>
    <path d="m96.427 32.252 0.0476 0.1429"/>
    <path d="m96.475 32.395 0.0953 0.0952"/>
    <path d="m96.57 32.49 0.0952 0.0476"/>
    <path d="m96.665 32.538 0.1905 0.0476"/>
    <path d="m96.856 32.585h0.1428"/>
    <path d="m96.999 32.585 0.1905-0.0476"/>
    <path d="m97.189 32.538 0.0953-0.0476"/>
    <path d="m97.284 32.49 0.0952-0.0952"/>
    <path d="m97.38 32.395 0.0476-0.1429"/>
    <path d="m97.427 32.252v-0.2381"/>
    <path d="m96.427 32.919v0.6666"/>
    <path d="m96.427 33.585 1-0.4285"/>
   </g>
  </g>
  <g stroke="#BD93F9" stroke-width=".12">
   <path d="m75.018 34.835v-3.86"/>
   <path d="m77.018 34.835h-2"/>
   <path d="m77.018 34.835v-3.86"/>
   <path d="m5.605 32.335v-3.86"/>
   <path d="m7.605 32.335h-2"/>
   <path d="m7.605 32.335v-3.86"/>
   <path d="m55.968 53.885v-3.86"/>
   <path d="m57.968 53.885h-2"/>
   <path d="m57.968 53.885v-3.86"/>
   <path d="m75.018 15.785v-3.86"/>
   <path d="m77.018 15.785h-2"/>
   <path d="m77.018 15.785v-3.86"/>
   <path d="m55.968 34.835v-3.86"/>
   <path d="m57.968 34.835h-2"/>
   <path d="m57.968 34.835v-3.86"/>
   <path d="m94.068 15.785v-3.86"/>
   <path d="m96.068 15.785h-2"/>
   <path d="m96.068 15.785v-3.86"/>
   <path d="m94.068 53.885v-3.86"/>
   <path d="m96.068 53.885h-2"/>
   <path d="m96.068 53.885v-3.86"/>
   <path d="m75.018 53.885v-3.86"/>
   <path d="m77.018 53.885h-2"/>
   <path d="m77.018 53.885v-3.86"/>
   <path d="m55.968 15.785v-3.86"/>
   <path d="m57.968 15.785h-2"/>
   <path d="m57.968 15.785v-3.86"/>
   <path d="m94.068 34.835v-3.86"/>
   <path d="m96.068 34.835h-2"/>
   <path d="m96.068 34.835v-3.86"/>
  </g>
 </g>
 <g fill="#fff">
  <circle cx="46.808" cy="9.575" r=".875"/>
  <circle cx="51.888" cy="9.575" r="2"/>
  <circle cx="56.968" cy="9.575" r=".875"/>
  <circle cx="48.078" cy="7.035" r=".75"/>
  <circle cx="54.428" cy="4.495" r=".75"/>
  <circle cx="65.858" cy="47.675" r=".875"/>
  <circle cx="70.938" cy="47.675" r="2"/>
  <circle cx="76.018" cy="47.675" r=".875"/>
  <circle cx="67.128" cy="45.135" r=".75"/>
  <circle cx="73.478" cy="42.595" r=".75"/>
  <circle cx="84.908" cy="28.625" r=".875"/>
  <circle cx="89.988" cy="28.625" r="2"/>
  <circle cx="95.068" cy="28.625" r=".875"/>
  <circle cx="86.178" cy="26.085" r=".75"/>
  <circle cx="92.528" cy="23.545" r=".75"/>
  <circle cx="84.908" cy="9.575" r=".875"/>
  <circle cx="89.988" cy="9.575" r="2"/>
  <circle cx="95.068" cy="9.575" r=".875"/>
  <circle cx="86.178" cy="7.035" r=".75"/>
  <circle cx="92.528" cy="4.495" r=".75"/>
  <circle cx="84.908" cy="47.675" r=".875"/>
  <circle cx="89.988" cy="47.675" r="2"/>
  <circle cx="95.068" cy="47.675" r=".875"/>
  <circle cx="86.178" cy="45.135" r=".75"/>
  <circle cx="92.528" cy="42.595" r=".75"/>
  <circle cx="46.808" cy="28.625" r=".875"/>
  <circle cx="51.888" cy="28.625" r="2"/>
  <circle cx="56.968" cy="28.625" r=".875"/>
  <circle cx="48.078" cy="26.085" r=".75"/>
  <circle cx="54.428" cy="23.545" r=".75"/>
  <circle cx="46.808" cy="47.675" r=".875"/>
  <circle cx="51.888" cy="47.675" r="2"/>
  <circle cx="56.968" cy="47.675" r=".875"/>
  <circle cx="48.078" cy="45.135" r=".75"/>
  <circle cx="54.428" cy="42.595" r=".75"/>
  <circle cx="65.858" cy="9.575" r=".875"/>
  <circle cx="70.938" cy="9.575" r="2"/>
  <circle cx="76.018" cy="9.575" r=".875"/>
  <circle cx="67.128" cy="7.035" r=".75"/>
  <circle cx="73.478" cy="4.495" r=".75"/>
  <circle cx="65.858" cy="28.625" r=".875"/>
  <circle cx="70.938" cy="28.625" r="2"/>
  <circle cx="76.018" cy="28.625" r=".875"/>
  <circle cx="67.128" cy="26.085" r=".75"/>
  <circle cx="73.478" cy="23.545" r=".75"/>
  <circle cx="1.525" cy="26.125" r=".5"/>
  <circle cx="1.525" cy="31.125" r=".5"/>
  <circle cx="1.525" cy="28.625" r=".5"/>
 </g>
 <g fill="none" stroke="#fff" stroke-linecap="round" stroke-linejoin="round" stroke-width="1.5">
  <path d="m8.375 23.025h1.3"/>
  <path d="m8.375 34.225h1.3"/>
 </g>
 <g fill="#fff">
  <circle cx="16.025" cy="31.125" r=".5"/>
  <circle cx="16.025" cy="26.125" r=".5"/>
 </g>
</svg>
