<?xml version="1.0" encoding="UTF-8"?>
<!DOCTYPE svg  PUBLIC '-//W3C//DTD SVG 1.1//EN'  'http://www.w3.org/Graphics/SVG/1.1/DTD/svg11.dtd'>
<svg width="78.664mm" height="81.051mm" version="1.1" viewBox="0 0 78.664 81.051" xmlns="http://www.w3.org/2000/svg">
 <title>SVG Image created as sus-render.svg date 2025/09/05 18:24:51</title>
 <desc>Image generated by PCBNEW</desc>
 <rect width="78.664mm" height="81.051mm" fill="#282A36"/>
 <g fill="none" stroke="#8BE9FD" stroke-linecap="round" stroke-linejoin="round" stroke-width=".15">
  <text x="28.6250" y="63.9875" font-size="1.3333" opacity="0" stroke-opacity="0" text-anchor="middle" lengthAdjust="spacingAndGlyphs" textLength="4.2500">SW11</text>
  <g class="stroked-text">
   <desc>SW11</desc>
   <path d="m26.816 63.895 0.1428 0.0476"/>
   <path d="m26.958 63.942h0.2381"/>
   <path d="m27.196 63.942 0.0953-0.0476"/>
   <path d="m27.292 63.895 0.0476-0.0476"/>
   <path d="m27.339 63.847 0.0476-0.0953"/>
   <path d="m27.387 63.752v-0.0952"/>
   <path d="m27.387 63.657-0.0476-0.0952"/>
   <path d="m27.339 63.561-0.0476-0.0477"/>
   <path d="m27.292 63.514-0.0953-0.0476"/>
   <path d="m27.196 63.466-0.1904-0.0476"/>
   <path d="m27.006 63.418-0.0953-0.0476"/>
   <path d="m26.911 63.371-0.0476-0.0476"/>
   <path d="m26.863 63.323-0.0476-0.0953"/>
   <path d="m26.816 63.228v-0.0952"/>
   <path d="m26.816 63.133 0.0476-0.0952"/>
   <path d="m26.863 63.038 0.0476-0.0477"/>
   <path d="m26.911 62.99 0.0953-0.0476"/>
   <path d="m27.006 62.942h0.238"/>
   <path d="m27.244 62.942 0.1429 0.0476"/>
   <path d="m27.72 62.942 0.2381 1"/>
   <path d="m27.958 63.942 0.1905-0.7143"/>
   <path d="m28.149 63.228 0.1905 0.7143"/>
   <path d="m28.339 63.942 0.2381-1"/>
   <path d="m29.482 63.942h-0.5714"/>
   <path d="m29.196 63.942v-1"/>
   <path d="m29.196 62.942-0.0952 0.1429"/>
   <path d="m29.101 63.085-0.0952 0.0952"/>
   <path d="m29.006 63.18-0.0953 0.0476"/>
   <path d="m30.434 63.942h-0.5714"/>
   <path d="m30.149 63.942v-1"/>
   <path d="m30.149 62.942-0.0952 0.1429"/>
   <path d="m30.054 63.085-0.0953 0.0952"/>
   <path d="m29.958 63.18-0.0952 0.0476"/>
  </g>
  <text x="69.1063" y="23.5062" font-size="1.3333" opacity="0" stroke-opacity="0" text-anchor="middle" lengthAdjust="spacingAndGlyphs" textLength="3.2976">SW6</text>
  <g class="stroked-text">
   <desc>SW6</desc>
   <path d="m67.773 23.413 0.1429 0.0477"/>
   <path d="m67.916 23.461h0.2381"/>
   <path d="m68.154 23.461 0.0952-0.0477"/>
   <path d="m68.249 23.413 0.0476-0.0476"/>
   <path d="m68.297 23.366 0.0476-0.0952"/>
   <path d="m68.344 23.271v-0.0952"/>
   <path d="m68.344 23.175-0.0476-0.0953"/>
   <path d="m68.297 23.08-0.0476-0.0476"/>
   <path d="m68.249 23.032-0.0952-0.0476"/>
   <path d="m68.154 22.985-0.1905-0.0476"/>
   <path d="m67.963 22.937-0.0952-0.0477"/>
   <path d="m67.868 22.89-0.0477-0.0476"/>
   <path d="m67.82 22.842-0.0476-0.0952"/>
   <path d="m67.773 22.747v-0.0953"/>
   <path d="m67.773 22.652 0.0476-0.0952"/>
   <path d="m67.82 22.556 0.0477-0.0476"/>
   <path d="m67.868 22.509 0.0952-0.0476"/>
   <path d="m67.963 22.461h0.2381"/>
   <path d="m68.202 22.461 0.1428 0.0476"/>
   <path d="m68.678 22.461 0.2381 1"/>
   <path d="m68.916 23.461 0.1905-0.7143"/>
   <path d="m69.106 22.747 0.1904 0.7143"/>
   <path d="m69.297 23.461 0.2381-1"/>
   <path d="m70.344 22.461h-0.1904"/>
   <path d="m70.154 22.461-0.0953 0.0476"/>
   <path d="m70.059 22.509-0.0476 0.0476"/>
   <path d="m70.011 22.556-0.0952 0.1429"/>
   <path d="m69.916 22.699-0.0476 0.1904"/>
   <path d="m69.868 22.89v0.381"/>
   <path d="m69.868 23.271 0.0476 0.0952"/>
   <path d="m69.916 23.366 0.0476 0.0476"/>
   <path d="m69.963 23.413 0.0952 0.0477"/>
   <path d="m70.059 23.461h0.1905"/>
   <path d="m70.249 23.461 0.0952-0.0477"/>
   <path d="m70.344 23.413 0.0477-0.0476"/>
   <path d="m70.392 23.366 0.0476-0.0952"/>
   <path d="m70.44 23.271v-0.2381"/>
   <path d="m70.44 23.032-0.0476-0.0952"/>
   <path d="m70.392 22.937-0.0477-0.0477"/>
   <path d="m70.344 22.89-0.0952-0.0476"/>
   <path d="m70.249 22.842h-0.1905"/>
   <path d="m70.059 22.842-0.0952 0.0476"/>
   <path d="m69.963 22.89-0.0476 0.0477"/>
   <path d="m69.916 22.937-0.0476 0.0952"/>
  </g>
  <text x="66.7250" y="4.4562" font-size="1.3333" opacity="0" stroke-opacity="0" text-anchor="middle" lengthAdjust="spacingAndGlyphs" textLength="3.2976">SW3</text>
  <g class="stroked-text">
   <desc>SW3</desc>
   <path d="m65.392 4.3634 0.1428 0.0477"/>
   <path d="m65.534 4.4111h0.2381"/>
   <path d="m65.773 4.4111 0.0953-0.0477"/>
   <path d="m65.868 4.3634 0.0476-0.0476"/>
   <path d="m65.916 4.3158 0.0476-0.0952"/>
   <path d="m65.963 4.2206v-0.0952"/>
   <path d="m65.963 4.1254-0.0476-0.0953"/>
   <path d="m65.916 4.0301-0.0476-0.0476"/>
   <path d="m65.868 3.9825-0.0953-0.0476"/>
   <path d="m65.773 3.9349-0.1905-0.0476"/>
   <path d="m65.582 3.8873-0.0952-0.0477"/>
   <path d="m65.487 3.8396-0.0476-0.0476"/>
   <path d="m65.439 3.792-0.0476-0.0952"/>
   <path d="m65.392 3.6968v-0.0953"/>
   <path d="m65.392 3.6015 0.0476-0.0952"/>
   <path d="m65.439 3.5063 0.0476-0.0476"/>
   <path d="m65.487 3.4587 0.0952-0.0476"/>
   <path d="m65.582 3.4111h0.2381"/>
   <path d="m65.82 3.4111 0.1429 0.0476"/>
   <path d="m66.296 3.4111 0.2381 1"/>
   <path d="m66.534 4.4111 0.1905-0.7143"/>
   <path d="m66.725 3.6968 0.1905 0.7143"/>
   <path d="m66.916 4.4111 0.2381-1"/>
   <path d="m67.439 3.4111h0.619"/>
   <path d="m68.058 3.4111-0.3333 0.3809"/>
   <path d="m67.725 3.792h0.1429"/>
   <path d="m67.868 3.792 0.0952 0.0476"/>
   <path d="m67.963 3.8396 0.0476 0.0477"/>
   <path d="m68.011 3.8873 0.0476 0.0952"/>
   <path d="m68.058 3.9825v0.2381"/>
   <path d="m68.058 4.2206-0.0476 0.0952"/>
   <path d="m68.011 4.3158-0.0476 0.0476"/>
   <path d="m67.963 4.3634-0.0952 0.0477"/>
   <path d="m67.868 4.4111h-0.2858"/>
   <path d="m67.582 4.4111-0.0952-0.0477"/>
   <path d="m67.487 4.3634-0.0476-0.0476"/>
  </g>
  <text x="28.6250" y="4.4562" font-size="1.3333" opacity="0" stroke-opacity="0" text-anchor="middle" lengthAdjust="spacingAndGlyphs" textLength="3.2976">SW1</text>
  <g class="stroked-text">
   <desc>SW1</desc>
   <path d="m27.292 4.3634 0.1428 0.0477"/>
   <path d="m27.434 4.4111h0.2381"/>
   <path d="m27.673 4.4111 0.0953-0.0477"/>
   <path d="m27.768 4.3634 0.0476-0.0476"/>
   <path d="m27.816 4.3158 0.0476-0.0952"/>
   <path d="m27.863 4.2206v-0.0952"/>
   <path d="m27.863 4.1254-0.0476-0.0953"/>
   <path d="m27.816 4.0301-0.0476-0.0476"/>
   <path d="m27.768 3.9825-0.0953-0.0476"/>
   <path d="m27.673 3.9349-0.1905-0.0476"/>
   <path d="m27.482 3.8873-0.0952-0.0477"/>
   <path d="m27.387 3.8396-0.0476-0.0476"/>
   <path d="m27.339 3.792-0.0476-0.0952"/>
   <path d="m27.292 3.6968v-0.0953"/>
   <path d="m27.292 3.6015 0.0476-0.0952"/>
   <path d="m27.339 3.5063 0.0476-0.0476"/>
   <path d="m27.387 3.4587 0.0952-0.0476"/>
   <path d="m27.482 3.4111h0.2381"/>
   <path d="m27.72 3.4111 0.1429 0.0476"/>
   <path d="m28.196 3.4111 0.2381 1"/>
   <path d="m28.434 4.4111 0.1905-0.7143"/>
   <path d="m28.625 3.6968 0.1905 0.7143"/>
   <path d="m28.816 4.4111 0.2381-1"/>
   <path d="m29.958 4.4111h-0.5714"/>
   <path d="m29.673 4.4111v-1"/>
   <path d="m29.673 3.4111-0.0952 0.1428"/>
   <path d="m29.577 3.5539-0.0953 0.0953"/>
   <path d="m29.482 3.6492-0.0952 0.0476"/>
  </g>
  <text x="66.7250" y="42.5562" font-size="1.3333" opacity="0" stroke-opacity="0" text-anchor="middle" lengthAdjust="spacingAndGlyphs" textLength="3.2976">SW9</text>
  <g class="stroked-text">
   <desc>SW9</desc>
   <path d="m65.392 42.463 0.1428 0.0477"/>
   <path d="m65.534 42.511h0.2381"/>
   <path d="m65.773 42.511 0.0953-0.0477"/>
   <path d="m65.868 42.463 0.0476-0.0476"/>
   <path d="m65.916 42.416 0.0476-0.0952"/>
   <path d="m65.963 42.321v-0.0952"/>
   <path d="m65.963 42.225-0.0476-0.0953"/>
   <path d="m65.916 42.13-0.0476-0.0476"/>
   <path d="m65.868 42.082-0.0953-0.0476"/>
   <path d="m65.773 42.035-0.1905-0.0476"/>
   <path d="m65.582 41.987-0.0952-0.0477"/>
   <path d="m65.487 41.94-0.0476-0.0476"/>
   <path d="m65.439 41.892-0.0476-0.0952"/>
   <path d="m65.392 41.797v-0.0953"/>
   <path d="m65.392 41.702 0.0476-0.0952"/>
   <path d="m65.439 41.606 0.0476-0.0476"/>
   <path d="m65.487 41.559 0.0952-0.0476"/>
   <path d="m65.582 41.511h0.2381"/>
   <path d="m65.82 41.511 0.1429 0.0476"/>
   <path d="m66.296 41.511 0.2381 1"/>
   <path d="m66.534 42.511 0.1905-0.7143"/>
   <path d="m66.725 41.797 0.1905 0.7143"/>
   <path d="m66.916 42.511 0.2381-1"/>
   <path d="m67.582 42.511h0.1905"/>
   <path d="m67.773 42.511 0.0953-0.0477"/>
   <path d="m67.868 42.463 0.0476-0.0476"/>
   <path d="m67.916 42.416 0.0952-0.1428"/>
   <path d="m68.011 42.273 0.0476-0.1905"/>
   <path d="m68.058 42.082v-0.381"/>
   <path d="m68.058 41.702-0.0476-0.0952"/>
   <path d="m68.011 41.606-0.0476-0.0476"/>
   <path d="m67.963 41.559-0.0952-0.0476"/>
   <path d="m67.868 41.511h-0.1905"/>
   <path d="m67.677 41.511-0.0953 0.0476"/>
   <path d="m67.582 41.559-0.0476 0.0476"/>
   <path d="m67.534 41.606-0.0476 0.0952"/>
   <path d="m67.487 41.702v0.2381"/>
   <path d="m67.487 41.94 0.0476 0.0953"/>
   <path d="m67.534 42.035 0.0476 0.0476"/>
   <path d="m67.582 42.082 0.0953 0.0476"/>
   <path d="m67.677 42.13h0.1905"/>
   <path d="m67.868 42.13 0.0952-0.0476"/>
   <path d="m67.963 42.082 0.0476-0.0476"/>
   <path d="m68.011 42.035 0.0476-0.0953"/>
  </g>
  <text x="47.6750" y="42.5562" font-size="1.3333" opacity="0" stroke-opacity="0" text-anchor="middle" lengthAdjust="spacingAndGlyphs" textLength="3.2976">SW8</text>
  <g class="stroked-text">
   <desc>SW8</desc>
   <path d="m46.342 42.463 0.1428 0.0477"/>
   <path d="m46.484 42.511h0.2381"/>
   <path d="m46.723 42.511 0.0953-0.0477"/>
   <path d="m46.818 42.463 0.0476-0.0476"/>
   <path d="m46.866 42.416 0.0476-0.0952"/>
   <path d="m46.913 42.321v-0.0952"/>
   <path d="m46.913 42.225-0.0476-0.0953"/>
   <path d="m46.866 42.13-0.0476-0.0476"/>
   <path d="m46.818 42.082-0.0953-0.0476"/>
   <path d="m46.723 42.035-0.1905-0.0476"/>
   <path d="m46.532 41.987-0.0952-0.0477"/>
   <path d="m46.437 41.94-0.0476-0.0476"/>
   <path d="m46.389 41.892-0.0476-0.0952"/>
   <path d="m46.342 41.797v-0.0953"/>
   <path d="m46.342 41.702 0.0476-0.0952"/>
   <path d="m46.389 41.606 0.0476-0.0476"/>
   <path d="m46.437 41.559 0.0952-0.0476"/>
   <path d="m46.532 41.511h0.2381"/>
   <path d="m46.77 41.511 0.1429 0.0476"/>
   <path d="m47.246 41.511 0.2381 1"/>
   <path d="m47.484 42.511 0.1905-0.7143"/>
   <path d="m47.675 41.797 0.1905 0.7143"/>
   <path d="m47.866 42.511 0.2381-1"/>
   <path d="m48.627 41.94-0.0953-0.0476"/>
   <path d="m48.532 41.892-0.0476-0.0476"/>
   <path d="m48.484 41.844-0.0476-0.0952"/>
   <path d="m48.437 41.749v-0.0477"/>
   <path d="m48.437 41.702 0.0476-0.0952"/>
   <path d="m48.484 41.606 0.0476-0.0476"/>
   <path d="m48.532 41.559 0.0953-0.0476"/>
   <path d="m48.627 41.511h0.1905"/>
   <path d="m48.818 41.511 0.0952 0.0476"/>
   <path d="m48.913 41.559 0.0476 0.0476"/>
   <path d="m48.961 41.606 0.0476 0.0952"/>
   <path d="m49.008 41.702v0.0477"/>
   <path d="m49.008 41.749-0.0476 0.0952"/>
   <path d="m48.961 41.844-0.0476 0.0476"/>
   <path d="m48.913 41.892-0.0952 0.0476"/>
   <path d="m48.818 41.94h-0.1905"/>
   <path d="m48.627 41.94-0.0953 0.0477"/>
   <path d="m48.532 41.987-0.0476 0.0476"/>
   <path d="m48.484 42.035-0.0476 0.0952"/>
   <path d="m48.437 42.13v0.1905"/>
   <path d="m48.437 42.321 0.0476 0.0952"/>
   <path d="m48.484 42.416 0.0476 0.0476"/>
   <path d="m48.532 42.463 0.0953 0.0477"/>
   <path d="m48.627 42.511h0.1905"/>
   <path d="m48.818 42.511 0.0952-0.0477"/>
   <path d="m48.913 42.463 0.0476-0.0476"/>
   <path d="m48.961 42.416 0.0476-0.0952"/>
   <path d="m49.008 42.321v-0.1905"/>
   <path d="m49.008 42.13-0.0476-0.0952"/>
   <path d="m48.961 42.035-0.0476-0.0476"/>
   <path d="m48.913 41.987-0.0952-0.0477"/>
  </g>
  <text x="28.6250" y="23.5062" font-size="1.3333" opacity="0" stroke-opacity="0" text-anchor="middle" lengthAdjust="spacingAndGlyphs" textLength="3.2976">SW4</text>
  <g class="stroked-text">
   <desc>SW4</desc>
   <path d="m27.292 23.413 0.1428 0.0477"/>
   <path d="m27.434 23.461h0.2381"/>
   <path d="m27.673 23.461 0.0953-0.0477"/>
   <path d="m27.768 23.413 0.0476-0.0476"/>
   <path d="m27.816 23.366 0.0476-0.0952"/>
   <path d="m27.863 23.271v-0.0952"/>
   <path d="m27.863 23.175-0.0476-0.0953"/>
   <path d="m27.816 23.08-0.0476-0.0476"/>
   <path d="m27.768 23.032-0.0953-0.0476"/>
   <path d="m27.673 22.985-0.1905-0.0476"/>
   <path d="m27.482 22.937-0.0952-0.0477"/>
   <path d="m27.387 22.89-0.0476-0.0476"/>
   <path d="m27.339 22.842-0.0476-0.0952"/>
   <path d="m27.292 22.747v-0.0953"/>
   <path d="m27.292 22.652 0.0476-0.0952"/>
   <path d="m27.339 22.556 0.0476-0.0476"/>
   <path d="m27.387 22.509 0.0952-0.0476"/>
   <path d="m27.482 22.461h0.2381"/>
   <path d="m27.72 22.461 0.1429 0.0476"/>
   <path d="m28.196 22.461 0.2381 1"/>
   <path d="m28.434 23.461 0.1905-0.7143"/>
   <path d="m28.625 22.747 0.1905 0.7143"/>
   <path d="m28.816 23.461 0.2381-1"/>
   <path d="m29.863 22.794v0.6667"/>
   <path d="m29.625 22.413-0.2381 0.7143"/>
   <path d="m29.387 23.128h0.6191"/>
  </g>
  <text x="28.6250" y="42.5562" font-size="1.3333" opacity="0" stroke-opacity="0" text-anchor="middle" lengthAdjust="spacingAndGlyphs" textLength="3.2976">SW7</text>
  <g class="stroked-text">
   <desc>SW7</desc>
   <path d="m27.292 42.463 0.1428 0.0477"/>
   <path d="m27.434 42.511h0.2381"/>
   <path d="m27.673 42.511 0.0953-0.0477"/>
   <path d="m27.768 42.463 0.0476-0.0476"/>
   <path d="m27.816 42.416 0.0476-0.0952"/>
   <path d="m27.863 42.321v-0.0952"/>
   <path d="m27.863 42.225-0.0476-0.0953"/>
   <path d="m27.816 42.13-0.0476-0.0476"/>
   <path d="m27.768 42.082-0.0953-0.0476"/>
   <path d="m27.673 42.035-0.1905-0.0476"/>
   <path d="m27.482 41.987-0.0952-0.0477"/>
   <path d="m27.387 41.94-0.0476-0.0476"/>
   <path d="m27.339 41.892-0.0476-0.0952"/>
   <path d="m27.292 41.797v-0.0953"/>
   <path d="m27.292 41.702 0.0476-0.0952"/>
   <path d="m27.339 41.606 0.0476-0.0476"/>
   <path d="m27.387 41.559 0.0952-0.0476"/>
   <path d="m27.482 41.511h0.2381"/>
   <path d="m27.72 41.511 0.1429 0.0476"/>
   <path d="m28.196 41.511 0.2381 1"/>
   <path d="m28.434 42.511 0.1905-0.7143"/>
   <path d="m28.625 41.797 0.1905 0.7143"/>
   <path d="m28.816 42.511 0.2381-1"/>
   <path d="m29.339 41.511h0.6667"/>
   <path d="m30.006 41.511-0.4286 1"/>
  </g>
  <text x="47.6750" y="2.0750" font-size="1.3333" opacity="0" stroke-opacity="0" text-anchor="middle" lengthAdjust="spacingAndGlyphs" textLength="3.2976">SW2</text>
  <g class="stroked-text">
   <desc>SW2</desc>
   <path d="m46.342 1.9822 0.1428 0.0476"/>
   <path d="m46.484 2.0298h0.2381"/>
   <path d="m46.723 2.0298 0.0953-0.0476"/>
   <path d="m46.818 1.9822 0.0476-0.0476"/>
   <path d="m46.866 1.9346 0.0476-0.0953"/>
   <path d="m46.913 1.8393v-0.0952"/>
   <path d="m46.913 1.7441-0.0476-0.0952"/>
   <path d="m46.866 1.6489-0.0476-0.0477"/>
   <path d="m46.818 1.6012-0.0953-0.0476"/>
   <path d="m46.723 1.5536-0.1905-0.0476"/>
   <path d="m46.532 1.506-0.0952-0.0476"/>
   <path d="m46.437 1.4584-0.0476-0.0476"/>
   <path d="m46.389 1.4108-0.0476-0.0953"/>
   <path d="m46.342 1.3155v-0.0952"/>
   <path d="m46.342 1.2203 0.0476-0.0952"/>
   <path d="m46.389 1.1251 0.0476-0.0477"/>
   <path d="m46.437 1.0774 0.0952-0.0476"/>
   <path d="m46.532 1.0298h0.2381"/>
   <path d="m46.77 1.0298 0.1429 0.0476"/>
   <path d="m47.246 1.0298 0.2381 1"/>
   <path d="m47.484 2.0298 0.1905-0.7143"/>
   <path d="m47.675 1.3155 0.1905 0.7143"/>
   <path d="m47.866 2.0298 0.2381-1"/>
   <path d="m48.437 1.1251 0.0476-0.0477"/>
   <path d="m48.484 1.0774 0.0953-0.0476"/>
   <path d="m48.58 1.0298h0.2381"/>
   <path d="m48.818 1.0298 0.0952 0.0476"/>
   <path d="m48.913 1.0774 0.0476 0.0477"/>
   <path d="m48.961 1.1251 0.0476 0.0952"/>
   <path d="m49.008 1.2203v0.0952"/>
   <path d="m49.008 1.3155-0.0476 0.1429"/>
   <path d="m48.961 1.4584-0.5714 0.5714"/>
   <path d="m48.389 2.0298h0.619"/>
  </g>
  <text x="9.5750" y="33.0312" font-size="1.3333" opacity="0" stroke-opacity="0" text-anchor="middle" lengthAdjust="spacingAndGlyphs" textLength="4.2500">SW10</text>
  <g class="stroked-text">
   <desc>SW10</desc>
   <path d="m7.7655 32.938 0.1428 0.0477"/>
   <path d="m7.9083 32.986h0.2381"/>
   <path d="m8.1464 32.986 0.0953-0.0477"/>
   <path d="m8.2417 32.938 0.0476-0.0476"/>
   <path d="m8.2893 32.891 0.0476-0.0952"/>
   <path d="m8.3369 32.796v-0.0952"/>
   <path d="m8.3369 32.7-0.0476-0.0953"/>
   <path d="m8.2893 32.605-0.0476-0.0476"/>
   <path d="m8.2417 32.558-0.0953-0.0476"/>
   <path d="m8.1464 32.51-0.1904-0.0476"/>
   <path d="m7.956 32.462-0.0953-0.0477"/>
   <path d="m7.8607 32.415-0.0476-0.0476"/>
   <path d="m7.8131 32.367-0.0476-0.0952"/>
   <path d="m7.7655 32.272v-0.0953"/>
   <path d="m7.7655 32.176 0.0476-0.0952"/>
   <path d="m7.8131 32.081 0.0476-0.0476"/>
   <path d="m7.8607 32.034 0.0953-0.0476"/>
   <path d="m7.956 31.986h0.238"/>
   <path d="m8.194 31.986 0.1429 0.0476"/>
   <path d="m8.6702 31.986 0.2381 1"/>
   <path d="m8.9083 32.986 0.1905-0.7143"/>
   <path d="m9.0988 32.272 0.1905 0.7143"/>
   <path d="m9.2893 32.986 0.2381-1"/>
   <path d="m10.432 32.986h-0.5714"/>
   <path d="m10.146 32.986v-1"/>
   <path d="m10.146 31.986-0.0952 0.1428"/>
   <path d="m10.051 32.129-0.0952 0.0953"/>
   <path d="m9.956 32.224-0.0953 0.0476"/>
   <path d="m11.051 31.986h0.0952"/>
   <path d="m11.146 31.986 0.0953 0.0476"/>
   <path d="m11.242 32.034 0.0476 0.0476"/>
   <path d="m11.289 32.081 0.0476 0.0952"/>
   <path d="m11.337 32.176 0.0476 0.1905"/>
   <path d="m11.384 32.367v0.2381"/>
   <path d="m11.384 32.605-0.0476 0.1905"/>
   <path d="m11.337 32.796-0.0476 0.0952"/>
   <path d="m11.289 32.891-0.0476 0.0476"/>
   <path d="m11.242 32.938-0.0953 0.0477"/>
   <path d="m11.146 32.986h-0.0952"/>
   <path d="m11.051 32.986-0.0952-0.0477"/>
   <path d="m10.956 32.938-0.0477-0.0476"/>
   <path d="m10.908 32.891-0.0476-0.0952"/>
   <path d="m10.861 32.796-0.0476-0.1905"/>
   <path d="m10.813 32.605v-0.2381"/>
   <path d="m10.813 32.367 0.0476-0.1905"/>
   <path d="m10.861 32.176 0.0476-0.0952"/>
   <path d="m10.908 32.081 0.0477-0.0476"/>
   <path d="m10.956 32.034 0.0952-0.0476"/>
  </g>
  <text x="47.6750" y="23.5062" font-size="1.3333" opacity="0" stroke-opacity="0" text-anchor="middle" lengthAdjust="spacingAndGlyphs" textLength="3.2976">SW5</text>
  <g class="stroked-text">
   <desc>SW5</desc>
   <path d="m46.342 23.413 0.1428 0.0477"/>
   <path d="m46.484 23.461h0.2381"/>
   <path d="m46.723 23.461 0.0953-0.0477"/>
   <path d="m46.818 23.413 0.0476-0.0476"/>
   <path d="m46.866 23.366 0.0476-0.0952"/>
   <path d="m46.913 23.271v-0.0952"/>
   <path d="m46.913 23.175-0.0476-0.0953"/>
   <path d="m46.866 23.08-0.0476-0.0476"/>
   <path d="m46.818 23.032-0.0953-0.0476"/>
   <path d="m46.723 22.985-0.1905-0.0476"/>
   <path d="m46.532 22.937-0.0952-0.0477"/>
   <path d="m46.437 22.89-0.0476-0.0476"/>
   <path d="m46.389 22.842-0.0476-0.0952"/>
   <path d="m46.342 22.747v-0.0953"/>
   <path d="m46.342 22.652 0.0476-0.0952"/>
   <path d="m46.389 22.556 0.0476-0.0476"/>
   <path d="m46.437 22.509 0.0952-0.0476"/>
   <path d="m46.532 22.461h0.2381"/>
   <path d="m46.77 22.461 0.1429 0.0476"/>
   <path d="m47.246 22.461 0.2381 1"/>
   <path d="m47.484 23.461 0.1905-0.7143"/>
   <path d="m47.675 22.747 0.1905 0.7143"/>
   <path d="m47.866 23.461 0.2381-1"/>
   <path d="m48.961 22.461h-0.4762"/>
   <path d="m48.484 22.461-0.0476 0.4762"/>
   <path d="m48.437 22.937 0.0476-0.0477"/>
   <path d="m48.484 22.89 0.0953-0.0476"/>
   <path d="m48.58 22.842h0.2381"/>
   <path d="m48.818 22.842 0.0952 0.0476"/>
   <path d="m48.913 22.89 0.0476 0.0477"/>
   <path d="m48.961 22.937 0.0476 0.0952"/>
   <path d="m49.008 23.032v0.2381"/>
   <path d="m49.008 23.271-0.0476 0.0952"/>
   <path d="m48.961 23.366-0.0476 0.0476"/>
   <path d="m48.913 23.413-0.0952 0.0477"/>
   <path d="m48.818 23.461h-0.2381"/>
   <path d="m48.58 23.461-0.0953-0.0477"/>
   <path d="m48.484 23.413-0.0476-0.0476"/>
  </g>
  <text x="66.7250" y="63.9875" font-size="1.3333" opacity="0" stroke-opacity="0" text-anchor="middle" lengthAdjust="spacingAndGlyphs" textLength="4.2500">SW12</text>
  <g class="stroked-text">
   <desc>SW12</desc>
   <path d="m64.916 63.895 0.1428 0.0476"/>
   <path d="m65.058 63.942h0.2381"/>
   <path d="m65.296 63.942 0.0953-0.0476"/>
   <path d="m65.392 63.895 0.0476-0.0476"/>
   <path d="m65.439 63.847 0.0476-0.0953"/>
   <path d="m65.487 63.752v-0.0952"/>
   <path d="m65.487 63.657-0.0476-0.0952"/>
   <path d="m65.439 63.561-0.0476-0.0477"/>
   <path d="m65.392 63.514-0.0953-0.0476"/>
   <path d="m65.296 63.466-0.1904-0.0476"/>
   <path d="m65.106 63.418-0.0953-0.0476"/>
   <path d="m65.011 63.371-0.0476-0.0476"/>
   <path d="m64.963 63.323-0.0476-0.0953"/>
   <path d="m64.916 63.228v-0.0952"/>
   <path d="m64.916 63.133 0.0476-0.0952"/>
   <path d="m64.963 63.038 0.0476-0.0477"/>
   <path d="m65.011 62.99 0.0953-0.0476"/>
   <path d="m65.106 62.942h0.238"/>
   <path d="m65.344 62.942 0.1429 0.0476"/>
   <path d="m65.82 62.942 0.2381 1"/>
   <path d="m66.058 63.942 0.1905-0.7143"/>
   <path d="m66.249 63.228 0.1905 0.7143"/>
   <path d="m66.439 63.942 0.2381-1"/>
   <path d="m67.582 63.942h-0.5714"/>
   <path d="m67.296 63.942v-1"/>
   <path d="m67.296 62.942-0.0952 0.1429"/>
   <path d="m67.201 63.085-0.0952 0.0952"/>
   <path d="m67.106 63.18-0.0953 0.0476"/>
   <path d="m67.963 63.038 0.0476-0.0477"/>
   <path d="m68.011 62.99 0.0953-0.0476"/>
   <path d="m68.106 62.942h0.238"/>
   <path d="m68.344 62.942 0.0953 0.0476"/>
   <path d="m68.439 62.99 0.0476 0.0477"/>
   <path d="m68.487 63.038 0.0476 0.0952"/>
   <path d="m68.534 63.133v0.0952"/>
   <path d="m68.534 63.228-0.0476 0.1429"/>
   <path d="m68.487 63.371-0.5714 0.5714"/>
   <path d="m67.916 63.942h0.619"/>
  </g>
 </g>
 <g fill="none" stroke="#8BE9FD" stroke-linecap="round" stroke-linejoin="round" stroke-width=".12">
  <path d="m21.525 64.388v14.2"/>
  <path d="m21.525 78.588h14.2"/>
  <path d="m35.725 64.388h-14.2"/>
  <path d="m35.725 78.588v-14.2"/>
  <path d="m62.006 23.906v14.2"/>
  <path d="m62.006 38.106h14.2"/>
  <path d="m76.206 23.906h-14.2"/>
  <path d="m76.206 38.106v-14.2"/>
  <path d="m59.625 4.8563v14.2"/>
  <path d="m59.625 19.056h14.2"/>
  <path d="m73.825 4.8563h-14.2"/>
  <path d="m73.825 19.056v-14.2"/>
  <path d="m21.525 4.8563v14.2"/>
  <path d="m21.525 19.056h14.2"/>
  <path d="m35.725 4.8563h-14.2"/>
  <path d="m35.725 19.056v-14.2"/>
  <path d="m59.625 42.956v14.2"/>
  <path d="m59.625 57.156h14.2"/>
  <path d="m73.825 42.956h-14.2"/>
  <path d="m73.825 57.156v-14.2"/>
  <path d="m40.575 42.956v14.2"/>
  <path d="m40.575 57.156h14.2"/>
  <path d="m54.775 42.956h-14.2"/>
  <path d="m54.775 57.156v-14.2"/>
  <path d="m21.525 23.906v14.2"/>
  <path d="m21.525 38.106h14.2"/>
  <path d="m35.725 23.906h-14.2"/>
  <path d="m35.725 38.106v-14.2"/>
  <path d="m21.525 42.956v14.2"/>
  <path d="m21.525 57.156h14.2"/>
  <path d="m35.725 42.956h-14.2"/>
  <path d="m35.725 57.156v-14.2"/>
  <path d="m40.575 2.475v14.2"/>
  <path d="m40.575 16.675h14.2"/>
  <path d="m54.775 2.475h-14.2"/>
  <path d="m54.775 16.675v-14.2"/>
  <path d="m2.475 33.431v14.2"/>
  <path d="m2.475 47.631h14.2"/>
  <path d="m16.675 33.431h-14.2"/>
  <path d="m16.675 47.631v-14.2"/>
  <path d="m40.575 23.906v14.2"/>
  <path d="m40.575 38.106h14.2"/>
  <path d="m54.775 23.906h-14.2"/>
  <path d="m54.775 38.106v-14.2"/>
  <path d="m59.625 64.388v14.2"/>
  <path d="m59.625 78.588h14.2"/>
  <path d="m73.825 64.388h-14.2"/>
  <path d="m73.825 78.588v-14.2"/>
 </g>
 <g fill="#8BE9FD">
  <circle cx="23.545" cy="71.488" r=".875"/>
  <circle cx="28.625" cy="71.488" r="2"/>
  <circle cx="33.705" cy="71.488" r=".875"/>
  <circle cx="24.815" cy="68.948" r=".75"/>
  <circle cx="31.165" cy="66.408" r=".75"/>
  <circle cx="64.026" cy="31.006" r=".875"/>
  <circle cx="69.106" cy="31.006" r="2"/>
  <circle cx="74.186" cy="31.006" r=".875"/>
  <circle cx="65.296" cy="28.466" r=".75"/>
  <circle cx="71.646" cy="25.926" r=".75"/>
  <circle cx="61.645" cy="11.956" r=".875"/>
  <circle cx="66.725" cy="11.956" r="2"/>
  <circle cx="71.805" cy="11.956" r=".875"/>
  <circle cx="62.915" cy="9.4162" r=".75"/>
  <circle cx="69.265" cy="6.8762" r=".75"/>
  <circle cx="23.545" cy="11.956" r=".875"/>
  <circle cx="28.625" cy="11.956" r="2"/>
  <circle cx="33.705" cy="11.956" r=".875"/>
  <circle cx="24.815" cy="9.4162" r=".75"/>
  <circle cx="31.165" cy="6.8762" r=".75"/>
  <circle cx="61.645" cy="50.056" r=".875"/>
  <circle cx="66.725" cy="50.056" r="2"/>
  <circle cx="71.805" cy="50.056" r=".875"/>
  <circle cx="62.915" cy="47.516" r=".75"/>
  <circle cx="69.265" cy="44.976" r=".75"/>
  <circle cx="42.595" cy="50.056" r=".875"/>
  <circle cx="47.675" cy="50.056" r="2"/>
  <circle cx="52.755" cy="50.056" r=".875"/>
  <circle cx="43.865" cy="47.516" r=".75"/>
  <circle cx="50.215" cy="44.976" r=".75"/>
  <circle cx="23.545" cy="31.006" r=".875"/>
  <circle cx="28.625" cy="31.006" r="2"/>
  <circle cx="33.705" cy="31.006" r=".875"/>
  <circle cx="24.815" cy="28.466" r=".75"/>
  <circle cx="31.165" cy="25.926" r=".75"/>
  <circle cx="23.545" cy="50.056" r=".875"/>
  <circle cx="28.625" cy="50.056" r="2"/>
  <circle cx="33.705" cy="50.056" r=".875"/>
  <circle cx="24.815" cy="47.516" r=".75"/>
  <circle cx="31.165" cy="44.976" r=".75"/>
  <circle cx="42.595" cy="9.575" r=".875"/>
  <circle cx="47.675" cy="9.575" r="2"/>
  <circle cx="52.755" cy="9.575" r=".875"/>
  <circle cx="43.865" cy="7.035" r=".75"/>
  <circle cx="50.215" cy="4.495" r=".75"/>
  <circle cx="4.495" cy="40.531" r=".875"/>
  <circle cx="9.575" cy="40.531" r="2"/>
  <circle cx="14.655" cy="40.531" r=".875"/>
  <circle cx="5.765" cy="37.991" r=".75"/>
  <circle cx="12.115" cy="35.451" r=".75"/>
  <circle cx="42.595" cy="31.006" r=".875"/>
  <circle cx="47.675" cy="31.006" r="2"/>
  <circle cx="52.755" cy="31.006" r=".875"/>
  <circle cx="43.865" cy="28.466" r=".75"/>
  <circle cx="50.215" cy="25.926" r=".75"/>
  <circle cx="61.645" cy="71.488" r=".875"/>
  <circle cx="66.725" cy="71.488" r="2"/>
  <circle cx="71.805" cy="71.488" r=".875"/>
  <circle cx="62.915" cy="68.948" r=".75"/>
  <circle cx="69.265" cy="66.408" r=".75"/>
 </g>
 <g fill="none" stroke="#BD93F9" stroke-linecap="round" stroke-linejoin="round" stroke-width=".15">
  <g transform="rotate(-90 73.71 75.614)">
   <text transform="scale(-1 1) translate(-147.42)" x="73.7100" y="76.1145" font-size="1.3333" opacity="0" stroke-opacity="0" text-anchor="middle" lengthAdjust="spacingAndGlyphs" textLength="3.1548">D12</text>
  </g>
  <g class="stroked-text">
   <desc>D12</desc>
   <path d="m74.165 74.4h-1"/>
   <path d="m73.165 74.4v0.2381"/>
   <path d="m73.165 74.638 0.0476 0.1429"/>
   <path d="m73.212 74.781 0.0953 0.0952"/>
   <path d="m73.308 74.876 0.0952 0.0476"/>
   <path d="m73.403 74.924 0.1905 0.0476"/>
   <path d="m73.593 74.972h0.1428"/>
   <path d="m73.736 74.972 0.1905-0.0476"/>
   <path d="m73.927 74.924 0.0953-0.0476"/>
   <path d="m74.022 74.876 0.0952-0.0952"/>
   <path d="m74.117 74.781 0.0476-0.1429"/>
   <path d="m74.165 74.638v-0.2381"/>
   <path d="m74.165 75.924v-0.5714"/>
   <path d="m74.165 75.638h-1"/>
   <path d="m73.165 75.638 0.1429-0.0952"/>
   <path d="m73.308 75.543 0.0952-0.0953"/>
   <path d="m73.403 75.448 0.0476-0.0952"/>
   <path d="m73.26 76.305-0.0477 0.0476"/>
   <path d="m73.212 76.353-0.0476 0.0952"/>
   <path d="m73.165 76.448v0.2381"/>
   <path d="m73.165 76.686 0.0476 0.0953"/>
   <path d="m73.212 76.781 0.0477 0.0476"/>
   <path d="m73.26 76.829 0.0952 0.0476"/>
   <path d="m73.355 76.876h0.0952"/>
   <path d="m73.45 76.876 0.1429-0.0476"/>
   <path d="m73.593 76.829 0.5714-0.5714"/>
   <path d="m74.165 76.257v0.619"/>
  </g>
  <g transform="rotate(-90 54.66 13.702)">
   <text transform="scale(-1 1) translate(-109.32)" x="54.6600" y="14.2020" font-size="1.3333" opacity="0" stroke-opacity="0" text-anchor="middle" lengthAdjust="spacingAndGlyphs" textLength="2.2024">D2</text>
  </g>
  <g class="stroked-text">
   <desc>D2</desc>
   <path d="m55.115 12.964h-1"/>
   <path d="m54.115 12.964v0.2381"/>
   <path d="m54.115 13.202 0.0476 0.1429"/>
   <path d="m54.162 13.345 0.0953 0.0952"/>
   <path d="m54.258 13.44 0.0952 0.0476"/>
   <path d="m54.353 13.488 0.1905 0.0476"/>
   <path d="m54.543 13.535h0.1428"/>
   <path d="m54.686 13.535 0.1905-0.0476"/>
   <path d="m54.877 13.488 0.0953-0.0476"/>
   <path d="m54.972 13.44 0.0952-0.0952"/>
   <path d="m55.067 13.345 0.0476-0.1429"/>
   <path d="m55.115 13.202v-0.2381"/>
   <path d="m54.21 13.916-0.0477 0.0476"/>
   <path d="m54.162 13.964-0.0476 0.0952"/>
   <path d="m54.115 14.059v0.2381"/>
   <path d="m54.115 14.297 0.0476 0.0953"/>
   <path d="m54.162 14.392 0.0477 0.0476"/>
   <path d="m54.21 14.44 0.0952 0.0476"/>
   <path d="m54.305 14.488h0.0952"/>
   <path d="m54.4 14.488 0.1429-0.0476"/>
   <path d="m54.543 14.44 0.5714-0.5714"/>
   <path d="m55.115 13.869v0.619"/>
  </g>
  <g transform="rotate(-90 35.61 75.614)">
   <text transform="scale(-1 1) translate(-71.22)" x="35.6100" y="76.1145" font-size="1.3333" opacity="0" stroke-opacity="0" text-anchor="middle" lengthAdjust="spacingAndGlyphs" textLength="3.1548">D11</text>
  </g>
  <g class="stroked-text">
   <desc>D11</desc>
   <path d="m36.065 74.4h-1"/>
   <path d="m35.065 74.4v0.2381"/>
   <path d="m35.065 74.638 0.0476 0.1429"/>
   <path d="m35.112 74.781 0.0953 0.0952"/>
   <path d="m35.208 74.876 0.0952 0.0476"/>
   <path d="m35.303 74.924 0.1905 0.0476"/>
   <path d="m35.493 74.972h0.1428"/>
   <path d="m35.636 74.972 0.1905-0.0476"/>
   <path d="m35.827 74.924 0.0953-0.0476"/>
   <path d="m35.922 74.876 0.0952-0.0952"/>
   <path d="m36.017 74.781 0.0476-0.1429"/>
   <path d="m36.065 74.638v-0.2381"/>
   <path d="m36.065 75.924v-0.5714"/>
   <path d="m36.065 75.638h-1"/>
   <path d="m35.065 75.638 0.1429-0.0952"/>
   <path d="m35.208 75.543 0.0952-0.0953"/>
   <path d="m35.303 75.448 0.0476-0.0952"/>
   <path d="m36.065 76.876v-0.5714"/>
   <path d="m36.065 76.591h-1"/>
   <path d="m35.065 76.591 0.1429-0.0952"/>
   <path d="m35.208 76.496 0.0952-0.0953"/>
   <path d="m35.303 76.4 0.0476-0.0952"/>
  </g>
  <g transform="rotate(-90 54.66 54.183)">
   <text transform="scale(-1 1) translate(-109.32)" x="54.6600" y="54.6833" font-size="1.3333" opacity="0" stroke-opacity="0" text-anchor="middle" lengthAdjust="spacingAndGlyphs" textLength="2.2024">D8</text>
  </g>
  <g class="stroked-text">
   <desc>D8</desc>
   <path d="m55.115 53.445h-1"/>
   <path d="m54.115 53.445v0.2381"/>
   <path d="m54.115 53.683 0.0476 0.1428"/>
   <path d="m54.162 53.826 0.0953 0.0952"/>
   <path d="m54.258 53.921 0.0952 0.0477"/>
   <path d="m54.353 53.969 0.1905 0.0476"/>
   <path d="m54.543 54.017h0.1428"/>
   <path d="m54.686 54.017 0.1905-0.0476"/>
   <path d="m54.877 53.969 0.0953-0.0477"/>
   <path d="m54.972 53.921 0.0952-0.0952"/>
   <path d="m55.067 53.826 0.0476-0.1428"/>
   <path d="m55.115 53.683v-0.2381"/>
   <path d="m54.543 54.588-0.0476-0.0952"/>
   <path d="m54.496 54.493-0.0476-0.0476"/>
   <path d="m54.448 54.445-0.0953-0.0477"/>
   <path d="m54.353 54.398h-0.0476"/>
   <path d="m54.305 54.398-0.0952 0.0477"/>
   <path d="m54.21 54.445-0.0477 0.0476"/>
   <path d="m54.162 54.493-0.0476 0.0952"/>
   <path d="m54.115 54.588v0.1905"/>
   <path d="m54.115 54.778 0.0476 0.0952"/>
   <path d="m54.162 54.874 0.0477 0.0476"/>
   <path d="m54.21 54.921 0.0952 0.0477"/>
   <path d="m54.305 54.969h0.0476"/>
   <path d="m54.353 54.969 0.0953-0.0477"/>
   <path d="m54.448 54.921 0.0476-0.0476"/>
   <path d="m54.496 54.874 0.0476-0.0952"/>
   <path d="m54.543 54.778v-0.1905"/>
   <path d="m54.543 54.588 0.0476-0.0952"/>
   <path d="m54.591 54.493 0.0476-0.0476"/>
   <path d="m54.639 54.445 0.0953-0.0477"/>
   <path d="m54.734 54.398h0.1904"/>
   <path d="m54.924 54.398 0.0953 0.0477"/>
   <path d="m55.02 54.445 0.0476 0.0476"/>
   <path d="m55.067 54.493 0.0476 0.0952"/>
   <path d="m55.115 54.588v0.1905"/>
   <path d="m55.115 54.778-0.0476 0.0952"/>
   <path d="m55.067 54.874-0.0476 0.0476"/>
   <path d="m55.02 54.921-0.0953 0.0477"/>
   <path d="m54.924 54.969h-0.1904"/>
   <path d="m54.734 54.969-0.0953-0.0477"/>
   <path d="m54.639 54.921-0.0476-0.0476"/>
   <path d="m54.591 54.874-0.0476-0.0952"/>
  </g>
  <g transform="rotate(-90 35.61 16.083)">
   <text transform="scale(-1 1) translate(-71.22)" x="35.6100" y="16.5832" font-size="1.3333" opacity="0" stroke-opacity="0" text-anchor="middle" lengthAdjust="spacingAndGlyphs" textLength="2.2024">D1</text>
  </g>
  <g class="stroked-text">
   <desc>D1</desc>
   <path d="m36.065 15.345h-1"/>
   <path d="m35.065 15.345v0.238"/>
   <path d="m35.065 15.583 0.0476 0.1429"/>
   <path d="m35.112 15.726 0.0953 0.0952"/>
   <path d="m35.208 15.821 0.0952 0.0477"/>
   <path d="m35.303 15.869 0.1905 0.0476"/>
   <path d="m35.493 15.917h0.1428"/>
   <path d="m35.636 15.917 0.1905-0.0476"/>
   <path d="m35.827 15.869 0.0953-0.0477"/>
   <path d="m35.922 15.821 0.0952-0.0952"/>
   <path d="m36.017 15.726 0.0476-0.1429"/>
   <path d="m36.065 15.583v-0.238"/>
   <path d="m36.065 16.869v-0.5715"/>
   <path d="m36.065 16.583h-1"/>
   <path d="m35.065 16.583 0.1429-0.0952"/>
   <path d="m35.208 16.488 0.0952-0.0952"/>
   <path d="m35.303 16.393 0.0476-0.0953"/>
  </g>
  <g transform="rotate(-90 73.71 54.183)">
   <text transform="scale(-1 1) translate(-147.42)" x="73.7100" y="54.6833" font-size="1.3333" opacity="0" stroke-opacity="0" text-anchor="middle" lengthAdjust="spacingAndGlyphs" textLength="2.2024">D9</text>
  </g>
  <g class="stroked-text">
   <desc>D9</desc>
   <path d="m74.165 53.445h-1"/>
   <path d="m73.165 53.445v0.2381"/>
   <path d="m73.165 53.683 0.0476 0.1428"/>
   <path d="m73.212 53.826 0.0953 0.0952"/>
   <path d="m73.308 53.921 0.0952 0.0477"/>
   <path d="m73.403 53.969 0.1905 0.0476"/>
   <path d="m73.593 54.017h0.1428"/>
   <path d="m73.736 54.017 0.1905-0.0476"/>
   <path d="m73.927 53.969 0.0953-0.0477"/>
   <path d="m74.022 53.921 0.0952-0.0952"/>
   <path d="m74.117 53.826 0.0476-0.1428"/>
   <path d="m74.165 53.683v-0.2381"/>
   <path d="m74.165 54.493v0.1905"/>
   <path d="m74.165 54.683-0.0476 0.0952"/>
   <path d="m74.117 54.778-0.0476 0.0476"/>
   <path d="m74.07 54.826-0.1429 0.0952"/>
   <path d="m73.927 54.921-0.1905 0.0477"/>
   <path d="m73.736 54.969h-0.3809"/>
   <path d="m73.355 54.969-0.0952-0.0477"/>
   <path d="m73.26 54.921-0.0477-0.0476"/>
   <path d="m73.212 54.874-0.0476-0.0952"/>
   <path d="m73.165 54.778v-0.1905"/>
   <path d="m73.165 54.588 0.0476-0.0952"/>
   <path d="m73.212 54.493 0.0477-0.0476"/>
   <path d="m73.26 54.445 0.0952-0.0477"/>
   <path d="m73.355 54.398h0.2381"/>
   <path d="m73.593 54.398 0.0952 0.0477"/>
   <path d="m73.689 54.445 0.0476 0.0476"/>
   <path d="m73.736 54.493 0.0477 0.0952"/>
   <path d="m73.784 54.588v0.1905"/>
   <path d="m73.784 54.778-0.0477 0.0952"/>
   <path d="m73.736 54.874-0.0476 0.0476"/>
   <path d="m73.689 54.921-0.0952 0.0477"/>
  </g>
  <g transform="rotate(-90 54.66 35.133)">
   <text transform="scale(-1 1) translate(-109.32)" x="54.6600" y="35.6332" font-size="1.3333" opacity="0" stroke-opacity="0" text-anchor="middle" lengthAdjust="spacingAndGlyphs" textLength="2.2024">D5</text>
  </g>
  <g class="stroked-text">
   <desc>D5</desc>
   <path d="m55.115 34.395h-1"/>
   <path d="m54.115 34.395v0.238"/>
   <path d="m54.115 34.633 0.0476 0.1429"/>
   <path d="m54.162 34.776 0.0953 0.0952"/>
   <path d="m54.258 34.871 0.0952 0.0477"/>
   <path d="m54.353 34.919 0.1905 0.0476"/>
   <path d="m54.543 34.967h0.1428"/>
   <path d="m54.686 34.967 0.1905-0.0476"/>
   <path d="m54.877 34.919 0.0953-0.0477"/>
   <path d="m54.972 34.871 0.0952-0.0952"/>
   <path d="m55.067 34.776 0.0476-0.1429"/>
   <path d="m55.115 34.633v-0.238"/>
   <path d="m54.115 35.871v-0.4761"/>
   <path d="m54.115 35.395 0.4762-0.0477"/>
   <path d="m54.591 35.348-0.0476 0.0477"/>
   <path d="m54.543 35.395-0.0476 0.0952"/>
   <path d="m54.496 35.49v0.2381"/>
   <path d="m54.496 35.728 0.0476 0.0952"/>
   <path d="m54.543 35.824 0.0476 0.0476"/>
   <path d="m54.591 35.871 0.0952 0.0477"/>
   <path d="m54.686 35.919h0.2381"/>
   <path d="m54.924 35.919 0.0953-0.0477"/>
   <path d="m55.02 35.871 0.0476-0.0476"/>
   <path d="m55.067 35.824 0.0476-0.0952"/>
   <path d="m55.115 35.728v-0.2381"/>
   <path d="m55.115 35.49-0.0476-0.0952"/>
   <path d="m55.067 35.395-0.0476-0.0477"/>
  </g>
  <g transform="rotate(-90 73.71 16.083)">
   <text transform="scale(-1 1) translate(-147.42)" x="73.7100" y="16.5832" font-size="1.3333" opacity="0" stroke-opacity="0" text-anchor="middle" lengthAdjust="spacingAndGlyphs" textLength="2.2024">D3</text>
  </g>
  <g class="stroked-text">
   <desc>D3</desc>
   <path d="m74.165 15.345h-1"/>
   <path d="m73.165 15.345v0.238"/>
   <path d="m73.165 15.583 0.0476 0.1429"/>
   <path d="m73.212 15.726 0.0953 0.0952"/>
   <path d="m73.308 15.821 0.0952 0.0477"/>
   <path d="m73.403 15.869 0.1905 0.0476"/>
   <path d="m73.593 15.917h0.1428"/>
   <path d="m73.736 15.917 0.1905-0.0476"/>
   <path d="m73.927 15.869 0.0953-0.0477"/>
   <path d="m74.022 15.821 0.0952-0.0952"/>
   <path d="m74.117 15.726 0.0476-0.1429"/>
   <path d="m74.165 15.583v-0.238"/>
   <path d="m73.165 16.25v0.6191"/>
   <path d="m73.165 16.869 0.381-0.3334"/>
   <path d="m73.546 16.536v0.1429"/>
   <path d="m73.546 16.678 0.0476 0.0952"/>
   <path d="m73.593 16.774 0.0476 0.0476"/>
   <path d="m73.641 16.821 0.0952 0.0477"/>
   <path d="m73.736 16.869h0.2381"/>
   <path d="m73.974 16.869 0.0953-0.0477"/>
   <path d="m74.07 16.821 0.0476-0.0476"/>
   <path d="m74.117 16.774 0.0476-0.0952"/>
   <path d="m74.165 16.678v-0.2857"/>
   <path d="m74.165 16.393-0.0476-0.0953"/>
   <path d="m74.117 16.298-0.0476-0.0476"/>
  </g>
  <g transform="rotate(-90 35.61 35.133)">
   <text transform="scale(-1 1) translate(-71.22)" x="35.6100" y="35.6332" font-size="1.3333" opacity="0" stroke-opacity="0" text-anchor="middle" lengthAdjust="spacingAndGlyphs" textLength="2.2024">D4</text>
  </g>
  <g class="stroked-text">
   <desc>D4</desc>
   <path d="m36.065 34.395h-1"/>
   <path d="m35.065 34.395v0.238"/>
   <path d="m35.065 34.633 0.0476 0.1429"/>
   <path d="m35.112 34.776 0.0953 0.0952"/>
   <path d="m35.208 34.871 0.0952 0.0477"/>
   <path d="m35.303 34.919 0.1905 0.0476"/>
   <path d="m35.493 34.967h0.1428"/>
   <path d="m35.636 34.967 0.1905-0.0476"/>
   <path d="m35.827 34.919 0.0953-0.0477"/>
   <path d="m35.922 34.871 0.0952-0.0952"/>
   <path d="m36.017 34.776 0.0476-0.1429"/>
   <path d="m36.065 34.633v-0.238"/>
   <path d="m35.398 35.824h0.6666"/>
   <path d="m35.017 35.586 0.7143-0.2381"/>
   <path d="m35.732 35.348v0.6191"/>
  </g>
  <g transform="rotate(-90 35.61 54.183)">
   <text transform="scale(-1 1) translate(-71.22)" x="35.6100" y="54.6833" font-size="1.3333" opacity="0" stroke-opacity="0" text-anchor="middle" lengthAdjust="spacingAndGlyphs" textLength="2.2024">D7</text>
  </g>
  <g class="stroked-text">
   <desc>D7</desc>
   <path d="m36.065 53.445h-1"/>
   <path d="m35.065 53.445v0.2381"/>
   <path d="m35.065 53.683 0.0476 0.1428"/>
   <path d="m35.112 53.826 0.0953 0.0952"/>
   <path d="m35.208 53.921 0.0952 0.0477"/>
   <path d="m35.303 53.969 0.1905 0.0476"/>
   <path d="m35.493 54.017h0.1428"/>
   <path d="m35.636 54.017 0.1905-0.0476"/>
   <path d="m35.827 53.969 0.0953-0.0477"/>
   <path d="m35.922 53.921 0.0952-0.0952"/>
   <path d="m36.017 53.826 0.0476-0.1428"/>
   <path d="m36.065 53.683v-0.2381"/>
   <path d="m35.065 54.35v0.6667"/>
   <path d="m35.065 55.017 1-0.4286"/>
  </g>
  <g transform="rotate(-90 76.091 35.133)">
   <text transform="scale(-1 1) translate(-152.18)" x="76.0913" y="35.6332" font-size="1.3333" opacity="0" stroke-opacity="0" text-anchor="middle" lengthAdjust="spacingAndGlyphs" textLength="2.2024">D6</text>
  </g>
  <g class="stroked-text">
   <desc>D6</desc>
   <path d="m76.546 34.395h-1"/>
   <path d="m75.546 34.395v0.238"/>
   <path d="m75.546 34.633 0.0476 0.1429"/>
   <path d="m75.594 34.776 0.0952 0.0952"/>
   <path d="m75.689 34.871 0.0953 0.0477"/>
   <path d="m75.784 34.919 0.1904 0.0476"/>
   <path d="m75.975 34.967h0.1429"/>
   <path d="m76.118 34.967 0.1905-0.0476"/>
   <path d="m76.308 34.919 0.0952-0.0477"/>
   <path d="m76.403 34.871 0.0952-0.0952"/>
   <path d="m76.498 34.776 0.0477-0.1429"/>
   <path d="m76.546 34.633v-0.238"/>
   <path d="m75.546 35.824v-0.1905"/>
   <path d="m75.546 35.633 0.0476-0.0952"/>
   <path d="m75.594 35.538 0.0476-0.0476"/>
   <path d="m75.641 35.49 0.1429-0.0952"/>
   <path d="m75.784 35.395 0.1904-0.0477"/>
   <path d="m75.975 35.348h0.381"/>
   <path d="m76.356 35.348 0.0952 0.0477"/>
   <path d="m76.451 35.395 0.0476 0.0476"/>
   <path d="m76.498 35.443 0.0477 0.0952"/>
   <path d="m76.546 35.538v0.1905"/>
   <path d="m76.546 35.728-0.0477 0.0952"/>
   <path d="m76.498 35.824-0.0476 0.0476"/>
   <path d="m76.451 35.871-0.0952 0.0477"/>
   <path d="m76.356 35.919h-0.2381"/>
   <path d="m76.118 35.919-0.0952-0.0477"/>
   <path d="m76.022 35.871-0.0477-0.0476"/>
   <path d="m75.975 35.824-0.0476-0.0952"/>
   <path d="m75.927 35.728v-0.1905"/>
   <path d="m75.927 35.538 0.0476-0.0952"/>
   <path d="m75.975 35.443 0.0477-0.0476"/>
   <path d="m76.022 35.395 0.0952-0.0477"/>
  </g>
  <g transform="rotate(-90 16.56 44.658)">
   <text transform="scale(-1 1) translate(-33.12)" x="16.5600" y="45.1582" font-size="1.3333" opacity="0" stroke-opacity="0" text-anchor="middle" lengthAdjust="spacingAndGlyphs" textLength="3.1548">D10</text>
  </g>
  <g class="stroked-text">
   <desc>D10</desc>
   <path d="m17.015 43.444h-1"/>
   <path d="m16.015 43.444v0.2381"/>
   <path d="m16.015 43.682 0.0476 0.1428"/>
   <path d="m16.062 43.825 0.0953 0.0953"/>
   <path d="m16.158 43.92 0.0952 0.0476"/>
   <path d="m16.253 43.968 0.1905 0.0476"/>
   <path d="m16.443 44.015h0.1428"/>
   <path d="m16.586 44.015 0.1905-0.0476"/>
   <path d="m16.777 43.968 0.0953-0.0476"/>
   <path d="m16.872 43.92 0.0952-0.0953"/>
   <path d="m16.967 43.825 0.0476-0.1428"/>
   <path d="m17.015 43.682v-0.2381"/>
   <path d="m17.015 44.968v-0.5715"/>
   <path d="m17.015 44.682h-1"/>
   <path d="m16.015 44.682 0.1429-0.0953"/>
   <path d="m16.158 44.587 0.0952-0.0952"/>
   <path d="m16.253 44.492 0.0476-0.0953"/>
   <path d="m16.015 45.587v0.0953"/>
   <path d="m16.015 45.682 0.0476 0.0952"/>
   <path d="m16.062 45.777 0.0477 0.0476"/>
   <path d="m16.11 45.825 0.0952 0.0476"/>
   <path d="m16.205 45.872 0.1905 0.0477"/>
   <path d="m16.396 45.92h0.2381"/>
   <path d="m16.634 45.92 0.1904-0.0477"/>
   <path d="m16.824 45.872 0.0953-0.0476"/>
   <path d="m16.92 45.825 0.0476-0.0476"/>
   <path d="m16.967 45.777 0.0476-0.0952"/>
   <path d="m17.015 45.682v-0.0953"/>
   <path d="m17.015 45.587-0.0476-0.0952"/>
   <path d="m16.967 45.492-0.0476-0.0476"/>
   <path d="m16.92 45.444-0.0953-0.0477"/>
   <path d="m16.824 45.396-0.1904-0.0476"/>
   <path d="m16.634 45.349h-0.2381"/>
   <path d="m16.396 45.349-0.1905 0.0476"/>
   <path d="m16.205 45.396-0.0952 0.0477"/>
   <path d="m16.11 45.444-0.0477 0.0476"/>
   <path d="m16.062 45.492-0.0476 0.0952"/>
  </g>
 </g>
 <g fill="none" stroke="#BD93F9" stroke-linecap="round" stroke-linejoin="round" stroke-width=".12">
  <path d="m70.805 73.838v3.86"/>
  <path d="m70.805 77.698h2"/>
  <path d="m72.805 73.838v3.86"/>
  <path d="m51.755 11.925v3.86"/>
  <path d="m51.755 15.785h2"/>
  <path d="m53.755 11.925v3.86"/>
  <path d="m32.705 73.838v3.86"/>
  <path d="m32.705 77.698h2"/>
  <path d="m34.705 73.838v3.86"/>
  <path d="m51.755 52.406v3.86"/>
  <path d="m51.755 56.266h2"/>
  <path d="m53.755 52.406v3.86"/>
  <path d="m32.705 14.306v3.86"/>
  <path d="m32.705 18.166h2"/>
  <path d="m34.705 14.306v3.86"/>
  <path d="m70.805 52.406v3.86"/>
  <path d="m70.805 56.266h2"/>
  <path d="m72.805 52.406v3.86"/>
  <path d="m51.755 33.356v3.86"/>
  <path d="m51.755 37.216h2"/>
  <path d="m53.755 33.356v3.86"/>
  <path d="m70.805 14.306v3.86"/>
  <path d="m70.805 18.166h2"/>
  <path d="m72.805 14.306v3.86"/>
  <path d="m32.705 33.356v3.86"/>
  <path d="m32.705 37.216h2"/>
  <path d="m34.705 33.356v3.86"/>
  <path d="m32.705 52.406v3.86"/>
  <path d="m32.705 56.266h2"/>
  <path d="m34.705 52.406v3.86"/>
  <path d="m73.186 33.356v3.86"/>
  <path d="m73.186 37.216h2"/>
  <path d="m75.186 33.356v3.86"/>
  <path d="m13.655 42.881v3.86"/>
  <path d="m13.655 46.741h2"/>
  <path d="m15.655 42.881v3.86"/>
 </g>
 <g>
  <g fill="#BD93F9">
   <circle cx="23.545" cy="71.488" r=".875"/>
   <circle cx="28.625" cy="71.488" r="2"/>
   <circle cx="33.705" cy="71.488" r=".875"/>
   <circle cx="24.815" cy="68.948" r=".75"/>
   <circle cx="31.165" cy="66.408" r=".75"/>
   <circle cx="64.026" cy="31.006" r=".875"/>
   <circle cx="69.106" cy="31.006" r="2"/>
   <circle cx="74.186" cy="31.006" r=".875"/>
   <circle cx="65.296" cy="28.466" r=".75"/>
   <circle cx="71.646" cy="25.926" r=".75"/>
   <circle cx="61.645" cy="11.956" r=".875"/>
   <circle cx="66.725" cy="11.956" r="2"/>
   <circle cx="71.805" cy="11.956" r=".875"/>
   <circle cx="62.915" cy="9.4162" r=".75"/>
   <circle cx="69.265" cy="6.8762" r=".75"/>
   <circle cx="23.545" cy="11.956" r=".875"/>
   <circle cx="28.625" cy="11.956" r="2"/>
   <circle cx="33.705" cy="11.956" r=".875"/>
   <circle cx="24.815" cy="9.4162" r=".75"/>
   <circle cx="31.165" cy="6.8762" r=".75"/>
   <circle cx="61.645" cy="50.056" r=".875"/>
   <circle cx="66.725" cy="50.056" r="2"/>
   <circle cx="71.805" cy="50.056" r=".875"/>
   <circle cx="62.915" cy="47.516" r=".75"/>
   <circle cx="69.265" cy="44.976" r=".75"/>
   <circle cx="42.595" cy="50.056" r=".875"/>
   <circle cx="47.675" cy="50.056" r="2"/>
   <circle cx="52.755" cy="50.056" r=".875"/>
   <circle cx="43.865" cy="47.516" r=".75"/>
   <circle cx="50.215" cy="44.976" r=".75"/>
   <circle cx="23.545" cy="31.006" r=".875"/>
   <circle cx="28.625" cy="31.006" r="2"/>
   <circle cx="33.705" cy="31.006" r=".875"/>
   <circle cx="24.815" cy="28.466" r=".75"/>
   <circle cx="31.165" cy="25.926" r=".75"/>
   <circle cx="23.545" cy="50.056" r=".875"/>
   <circle cx="28.625" cy="50.056" r="2"/>
   <circle cx="33.705" cy="50.056" r=".875"/>
   <circle cx="24.815" cy="47.516" r=".75"/>
   <circle cx="31.165" cy="44.976" r=".75"/>
   <circle cx="42.595" cy="9.575" r=".875"/>
   <circle cx="47.675" cy="9.575" r="2"/>
   <circle cx="52.755" cy="9.575" r=".875"/>
   <circle cx="43.865" cy="7.035" r=".75"/>
   <circle cx="50.215" cy="4.495" r=".75"/>
   <circle cx="4.495" cy="40.531" r=".875"/>
   <circle cx="9.575" cy="40.531" r="2"/>
   <circle cx="14.655" cy="40.531" r=".875"/>
   <circle cx="5.765" cy="37.991" r=".75"/>
   <circle cx="12.115" cy="35.451" r=".75"/>
   <circle cx="42.595" cy="31.006" r=".875"/>
   <circle cx="47.675" cy="31.006" r="2"/>
   <circle cx="52.755" cy="31.006" r=".875"/>
   <circle cx="43.865" cy="28.466" r=".75"/>
   <circle cx="50.215" cy="25.926" r=".75"/>
   <circle cx="61.645" cy="71.488" r=".875"/>
   <circle cx="66.725" cy="71.488" r="2"/>
   <circle cx="71.805" cy="71.488" r=".875"/>
   <circle cx="62.915" cy="68.948" r=".75"/>
   <circle cx="69.265" cy="66.408" r=".75"/>
  </g>
  <g>
   <circle cx="23.545" cy="71.488" r=".875"/>
   <circle cx="28.625" cy="71.488" r="2"/>
   <circle cx="33.705" cy="71.488" r=".875"/>
   <circle cx="24.815" cy="68.948" r=".75"/>
   <circle cx="31.165" cy="66.408" r=".75"/>
   <circle cx="64.026" cy="31.006" r=".875"/>
   <circle cx="69.106" cy="31.006" r="2"/>
   <circle cx="74.186" cy="31.006" r=".875"/>
   <circle cx="65.296" cy="28.466" r=".75"/>
   <circle cx="71.646" cy="25.926" r=".75"/>
   <circle cx="61.645" cy="11.956" r=".875"/>
   <circle cx="66.725" cy="11.956" r="2"/>
   <circle cx="71.805" cy="11.956" r=".875"/>
   <circle cx="62.915" cy="9.4162" r=".75"/>
   <circle cx="69.265" cy="6.8762" r=".75"/>
   <circle cx="23.545" cy="11.956" r=".875"/>
   <circle cx="28.625" cy="11.956" r="2"/>
   <circle cx="33.705" cy="11.956" r=".875"/>
   <circle cx="24.815" cy="9.4162" r=".75"/>
   <circle cx="31.165" cy="6.8762" r=".75"/>
   <circle cx="61.645" cy="50.056" r=".875"/>
   <circle cx="66.725" cy="50.056" r="2"/>
   <circle cx="71.805" cy="50.056" r=".875"/>
   <circle cx="62.915" cy="47.516" r=".75"/>
   <circle cx="69.265" cy="44.976" r=".75"/>
   <circle cx="42.595" cy="50.056" r=".875"/>
   <circle cx="47.675" cy="50.056" r="2"/>
   <circle cx="52.755" cy="50.056" r=".875"/>
   <circle cx="43.865" cy="47.516" r=".75"/>
   <circle cx="50.215" cy="44.976" r=".75"/>
   <circle cx="23.545" cy="31.006" r=".875"/>
   <circle cx="28.625" cy="31.006" r="2"/>
   <circle cx="33.705" cy="31.006" r=".875"/>
   <circle cx="24.815" cy="28.466" r=".75"/>
   <circle cx="31.165" cy="25.926" r=".75"/>
   <circle cx="23.545" cy="50.056" r=".875"/>
   <circle cx="28.625" cy="50.056" r="2"/>
   <circle cx="33.705" cy="50.056" r=".875"/>
   <circle cx="24.815" cy="47.516" r=".75"/>
   <circle cx="31.165" cy="44.976" r=".75"/>
   <circle cx="42.595" cy="9.575" r=".875"/>
   <circle cx="47.675" cy="9.575" r="2"/>
   <circle cx="52.755" cy="9.575" r=".875"/>
   <circle cx="43.865" cy="7.035" r=".75"/>
   <circle cx="50.215" cy="4.495" r=".75"/>
   <circle cx="4.495" cy="40.531" r=".875"/>
   <circle cx="9.575" cy="40.531" r="2"/>
   <circle cx="14.655" cy="40.531" r=".875"/>
   <circle cx="5.765" cy="37.991" r=".75"/>
   <circle cx="12.115" cy="35.451" r=".75"/>
   <circle cx="42.595" cy="31.006" r=".875"/>
   <circle cx="47.675" cy="31.006" r="2"/>
   <circle cx="52.755" cy="31.006" r=".875"/>
   <circle cx="43.865" cy="28.466" r=".75"/>
   <circle cx="50.215" cy="25.926" r=".75"/>
   <circle cx="61.645" cy="71.488" r=".875"/>
   <circle cx="66.725" cy="71.488" r="2"/>
   <circle cx="71.805" cy="71.488" r=".875"/>
   <circle cx="62.915" cy="68.948" r=".75"/>
   <circle cx="69.265" cy="66.408" r=".75"/>
  </g>
  <g fill="#f55">
   <circle cx="24.815" cy="68.948" r="1.25"/>
   <circle cx="31.165" cy="66.408" r="1.25"/>
   <circle cx="65.296" cy="28.466" r="1.25"/>
   <circle cx="71.646" cy="25.926" r="1.25"/>
   <circle cx="62.915" cy="9.4162" r="1.25"/>
   <circle cx="69.265" cy="6.8762" r="1.25"/>
   <circle cx="24.815" cy="9.4162" r="1.25"/>
   <circle cx="31.165" cy="6.8762" r="1.25"/>
   <circle cx="62.915" cy="47.516" r="1.25"/>
   <circle cx="69.265" cy="44.976" r="1.25"/>
   <circle cx="43.865" cy="47.516" r="1.25"/>
   <circle cx="50.215" cy="44.976" r="1.25"/>
   <circle cx="24.815" cy="28.466" r="1.25"/>
   <circle cx="31.165" cy="25.926" r="1.25"/>
   <circle cx="24.815" cy="47.516" r="1.25"/>
   <circle cx="31.165" cy="44.976" r="1.25"/>
   <circle cx="43.865" cy="7.035" r="1.25"/>
   <circle cx="50.215" cy="4.495" r="1.25"/>
   <circle cx="5.765" cy="37.991" r="1.25"/>
   <circle cx="12.115" cy="35.451" r="1.25"/>
   <circle cx="43.865" cy="28.466" r="1.25"/>
   <circle cx="50.215" cy="25.926" r="1.25"/>
   <circle cx="62.915" cy="68.948" r="1.25"/>
   <circle cx="69.265" cy="66.408" r="1.25"/>
  </g>
 </g>
 <g fill="none" stroke="#f55" stroke-linecap="round" stroke-linejoin="round" stroke-width=".2">
  <path d="m24.815 28.466v19.05"/>
  <path d="m15.29 28.466h9.525"/>
  <path d="m5.765 37.991 9.525-9.5251"/>
  <path d="m24.815 28.466v-19.05"/>
  <path d="m43.865 28.466v-21.431"/>
  <path d="m43.865 47.516v-19.05"/>
  <path d="m65.296 45.135-2.3813 2.3812"/>
  <path d="m62.915 9.4162v16.669"/>
  <path d="m65.296 28.466v16.669"/>
  <path d="m62.915 26.085 2.3813 2.3812"/>
  <path d="m62.915 47.516v21.431"/>
 </g>
 <g fill="#fff">
  <circle cx="23.545" cy="71.488" r=".875"/>
  <circle cx="28.625" cy="71.488" r="2"/>
  <circle cx="33.705" cy="71.488" r=".875"/>
  <circle cx="24.815" cy="68.948" r=".75"/>
  <circle cx="31.165" cy="66.408" r=".75"/>
  <circle cx="64.026" cy="31.006" r=".875"/>
  <circle cx="69.106" cy="31.006" r="2"/>
  <circle cx="74.186" cy="31.006" r=".875"/>
  <circle cx="65.296" cy="28.466" r=".75"/>
  <circle cx="71.646" cy="25.926" r=".75"/>
  <circle cx="61.645" cy="11.956" r=".875"/>
  <circle cx="66.725" cy="11.956" r="2"/>
  <circle cx="71.805" cy="11.956" r=".875"/>
  <circle cx="62.915" cy="9.4162" r=".75"/>
  <circle cx="69.265" cy="6.8762" r=".75"/>
  <circle cx="23.545" cy="11.956" r=".875"/>
  <circle cx="28.625" cy="11.956" r="2"/>
  <circle cx="33.705" cy="11.956" r=".875"/>
  <circle cx="24.815" cy="9.4162" r=".75"/>
  <circle cx="31.165" cy="6.8762" r=".75"/>
  <circle cx="61.645" cy="50.056" r=".875"/>
  <circle cx="66.725" cy="50.056" r="2"/>
  <circle cx="71.805" cy="50.056" r=".875"/>
  <circle cx="62.915" cy="47.516" r=".75"/>
  <circle cx="69.265" cy="44.976" r=".75"/>
  <circle cx="42.595" cy="50.056" r=".875"/>
  <circle cx="47.675" cy="50.056" r="2"/>
  <circle cx="52.755" cy="50.056" r=".875"/>
  <circle cx="43.865" cy="47.516" r=".75"/>
  <circle cx="50.215" cy="44.976" r=".75"/>
  <circle cx="23.545" cy="31.006" r=".875"/>
  <circle cx="28.625" cy="31.006" r="2"/>
  <circle cx="33.705" cy="31.006" r=".875"/>
  <circle cx="24.815" cy="28.466" r=".75"/>
  <circle cx="31.165" cy="25.926" r=".75"/>
  <circle cx="23.545" cy="50.056" r=".875"/>
  <circle cx="28.625" cy="50.056" r="2"/>
  <circle cx="33.705" cy="50.056" r=".875"/>
  <circle cx="24.815" cy="47.516" r=".75"/>
  <circle cx="31.165" cy="44.976" r=".75"/>
  <circle cx="42.595" cy="9.575" r=".875"/>
  <circle cx="47.675" cy="9.575" r="2"/>
  <circle cx="52.755" cy="9.575" r=".875"/>
  <circle cx="43.865" cy="7.035" r=".75"/>
  <circle cx="50.215" cy="4.495" r=".75"/>
  <circle cx="4.495" cy="40.531" r=".875"/>
  <circle cx="9.575" cy="40.531" r="2"/>
  <circle cx="14.655" cy="40.531" r=".875"/>
  <circle cx="5.765" cy="37.991" r=".75"/>
  <circle cx="12.115" cy="35.451" r=".75"/>
  <circle cx="42.595" cy="31.006" r=".875"/>
  <circle cx="47.675" cy="31.006" r="2"/>
  <circle cx="52.755" cy="31.006" r=".875"/>
  <circle cx="43.865" cy="28.466" r=".75"/>
  <circle cx="50.215" cy="25.926" r=".75"/>
  <circle cx="61.645" cy="71.488" r=".875"/>
  <circle cx="66.725" cy="71.488" r="2"/>
  <circle cx="71.805" cy="71.488" r=".875"/>
  <circle cx="62.915" cy="68.948" r=".75"/>
  <circle cx="69.265" cy="66.408" r=".75"/>
 </g>
 <g fill="#50FA7B">
  <circle cx="24.815" cy="68.948" r="1.25"/>
  <circle cx="31.165" cy="66.408" r="1.25"/>
  <circle cx="65.296" cy="28.466" r="1.25"/>
  <circle cx="71.646" cy="25.926" r="1.25"/>
  <circle cx="62.915" cy="9.4162" r="1.25"/>
  <circle cx="69.265" cy="6.8762" r="1.25"/>
  <circle cx="24.815" cy="9.4162" r="1.25"/>
  <circle cx="31.165" cy="6.8762" r="1.25"/>
  <circle cx="62.915" cy="47.516" r="1.25"/>
  <circle cx="69.265" cy="44.976" r="1.25"/>
  <circle cx="43.865" cy="47.516" r="1.25"/>
  <circle cx="50.215" cy="44.976" r="1.25"/>
  <circle cx="24.815" cy="28.466" r="1.25"/>
  <circle cx="31.165" cy="25.926" r="1.25"/>
  <circle cx="24.815" cy="47.516" r="1.25"/>
  <circle cx="31.165" cy="44.976" r="1.25"/>
  <circle cx="43.865" cy="7.035" r="1.25"/>
  <circle cx="50.215" cy="4.495" r="1.25"/>
  <circle cx="5.765" cy="37.991" r="1.25"/>
  <circle cx="12.115" cy="35.451" r="1.25"/>
  <circle cx="43.865" cy="28.466" r="1.25"/>
  <circle cx="50.215" cy="25.926" r="1.25"/>
  <circle cx="62.915" cy="68.948" r="1.25"/>
  <circle cx="69.265" cy="66.408" r="1.25"/>
  <g fill="#50FA7B" fill-rule="evenodd">
   <path d="m71.505 77.438-0.0957-0.019-0.0811-0.0542-0.0542-0.0811-0.019-0.0957v-0.6l0.019-0.0957 0.0542-0.0811 0.0811-0.0542 0.0957-0.019h0.6l0.0957 0.019 0.0811 0.0542 0.0542 0.0811 0.019 0.0957v0.6l-0.019 0.0957-0.0542 0.0811-0.0811 0.0542-0.0957 0.019z"/>
   <path d="m71.505 74.638-0.0957-0.019-0.0811-0.0542-0.0542-0.0811-0.019-0.0957v-0.6l0.019-0.0957 0.0542-0.0811 0.0811-0.0542 0.0957-0.019h0.6l0.0957 0.019 0.0811 0.0542 0.0542 0.0811 0.019 0.0957v0.6l-0.019 0.0957-0.0542 0.0811-0.0811 0.0542-0.0957 0.019z"/>
   <path d="m52.455 15.525-0.0957-0.019-0.0811-0.0542-0.0542-0.0811-0.019-0.0957v-0.6l0.019-0.0957 0.0542-0.0811 0.0811-0.0542 0.0957-0.019h0.6l0.0957 0.019 0.0811 0.0542 0.0542 0.0811 0.019 0.0957v0.6l-0.019 0.0957-0.0542 0.0811-0.0811 0.0542-0.0957 0.019z"/>
   <path d="m52.455 12.725-0.0957-0.019-0.0811-0.0542-0.0542-0.0811-0.019-0.0957v-0.6l0.019-0.0957 0.0542-0.0811 0.0811-0.0542 0.0957-0.019h0.6l0.0957 0.019 0.0811 0.0542 0.0542 0.0811 0.019 0.0957v0.6l-0.019 0.0957-0.0542 0.0811-0.0811 0.0542-0.0957 0.019z"/>
   <path d="m33.405 77.438-0.0957-0.019-0.0811-0.0542-0.0542-0.0811-0.019-0.0957v-0.6l0.019-0.0957 0.0542-0.0811 0.0811-0.0542 0.0957-0.019h0.6l0.0957 0.019 0.0811 0.0542 0.0542 0.0811 0.019 0.0957v0.6l-0.019 0.0957-0.0542 0.0811-0.0811 0.0542-0.0957 0.019z"/>
   <path d="m33.405 74.638-0.0957-0.019-0.0811-0.0542-0.0542-0.0811-0.019-0.0957v-0.6l0.019-0.0957 0.0542-0.0811 0.0811-0.0542 0.0957-0.019h0.6l0.0957 0.019 0.0811 0.0542 0.0542 0.0811 0.019 0.0957v0.6l-0.019 0.0957-0.0542 0.0811-0.0811 0.0542-0.0957 0.019z"/>
   <path d="m52.455 56.006-0.0957-0.019-0.0811-0.0542-0.0542-0.0811-0.019-0.0957v-0.6l0.019-0.0956 0.0542-0.0811 0.0811-0.0542 0.0957-0.0191h0.6l0.0957 0.0191 0.0811 0.0542 0.0542 0.0811 0.019 0.0956v0.6l-0.019 0.0957-0.0542 0.0811-0.0811 0.0542-0.0957 0.019z"/>
   <path d="m52.455 53.206-0.0957-0.019-0.0811-0.0542-0.0542-0.0811-0.019-0.0957v-0.6l0.019-0.0956 0.0542-0.0811 0.0811-0.0542 0.0957-0.0191h0.6l0.0957 0.0191 0.0811 0.0542 0.0542 0.0811 0.019 0.0956v0.6l-0.019 0.0957-0.0542 0.0811-0.0811 0.0542-0.0957 0.019z"/>
   <path d="m33.405 17.906-0.0957-0.019-0.0811-0.0542-0.0542-0.0811-0.019-0.0957v-0.6l0.019-0.0956 0.0542-0.0811 0.0811-0.0542 0.0957-0.0191h0.6l0.0957 0.0191 0.0811 0.0542 0.0542 0.0811 0.019 0.0956v0.6l-0.019 0.0957-0.0542 0.0811-0.0811 0.0542-0.0957 0.019z"/>
   <path d="m33.405 15.106-0.0957-0.019-0.0811-0.0542-0.0542-0.0811-0.019-0.0957v-0.6l0.019-0.0956 0.0542-0.0811 0.0811-0.0542 0.0957-0.0191h0.6l0.0957 0.0191 0.0811 0.0542 0.0542 0.0811 0.019 0.0956v0.6l-0.019 0.0957-0.0542 0.0811-0.0811 0.0542-0.0957 0.019z"/>
   <path d="m71.505 56.006-0.0957-0.019-0.0811-0.0542-0.0542-0.0811-0.019-0.0957v-0.6l0.019-0.0956 0.0542-0.0811 0.0811-0.0542 0.0957-0.0191h0.6l0.0957 0.0191 0.0811 0.0542 0.0542 0.0811 0.019 0.0956v0.6l-0.019 0.0957-0.0542 0.0811-0.0811 0.0542-0.0957 0.019z"/>
   <path d="m71.505 53.206-0.0957-0.019-0.0811-0.0542-0.0542-0.0811-0.019-0.0957v-0.6l0.019-0.0956 0.0542-0.0811 0.0811-0.0542 0.0957-0.0191h0.6l0.0957 0.0191 0.0811 0.0542 0.0542 0.0811 0.019 0.0956v0.6l-0.019 0.0957-0.0542 0.0811-0.0811 0.0542-0.0957 0.019z"/>
   <path d="m52.455 36.956-0.0957-0.019-0.0811-0.0542-0.0542-0.0811-0.019-0.0957v-0.6l0.019-0.0956 0.0542-0.0811 0.0811-0.0542 0.0957-0.0191h0.6l0.0957 0.0191 0.0811 0.0542 0.0542 0.0811 0.019 0.0956v0.6l-0.019 0.0957-0.0542 0.0811-0.0811 0.0542-0.0957 0.019z"/>
   <path d="m52.455 34.156-0.0957-0.019-0.0811-0.0542-0.0542-0.0811-0.019-0.0957v-0.6l0.019-0.0956 0.0542-0.0811 0.0811-0.0542 0.0957-0.0191h0.6l0.0957 0.0191 0.0811 0.0542 0.0542 0.0811 0.019 0.0956v0.6l-0.019 0.0957-0.0542 0.0811-0.0811 0.0542-0.0957 0.019z"/>
   <path d="m71.505 17.906-0.0957-0.019-0.0811-0.0542-0.0542-0.0811-0.019-0.0957v-0.6l0.019-0.0956 0.0542-0.0811 0.0811-0.0542 0.0957-0.0191h0.6l0.0957 0.0191 0.0811 0.0542 0.0542 0.0811 0.019 0.0956v0.6l-0.019 0.0957-0.0542 0.0811-0.0811 0.0542-0.0957 0.019z"/>
   <path d="m71.505 15.106-0.0957-0.019-0.0811-0.0542-0.0542-0.0811-0.019-0.0957v-0.6l0.019-0.0956 0.0542-0.0811 0.0811-0.0542 0.0957-0.0191h0.6l0.0957 0.0191 0.0811 0.0542 0.0542 0.0811 0.019 0.0956v0.6l-0.019 0.0957-0.0542 0.0811-0.0811 0.0542-0.0957 0.019z"/>
   <path d="m33.405 36.956-0.0957-0.019-0.0811-0.0542-0.0542-0.0811-0.019-0.0957v-0.6l0.019-0.0956 0.0542-0.0811 0.0811-0.0542 0.0957-0.0191h0.6l0.0957 0.0191 0.0811 0.0542 0.0542 0.0811 0.019 0.0956v0.6l-0.019 0.0957-0.0542 0.0811-0.0811 0.0542-0.0957 0.019z"/>
   <path d="m33.405 34.156-0.0957-0.019-0.0811-0.0542-0.0542-0.0811-0.019-0.0957v-0.6l0.019-0.0956 0.0542-0.0811 0.0811-0.0542 0.0957-0.0191h0.6l0.0957 0.0191 0.0811 0.0542 0.0542 0.0811 0.019 0.0956v0.6l-0.019 0.0957-0.0542 0.0811-0.0811 0.0542-0.0957 0.019z"/>
   <path d="m33.405 56.006-0.0957-0.019-0.0811-0.0542-0.0542-0.0811-0.019-0.0957v-0.6l0.019-0.0956 0.0542-0.0811 0.0811-0.0542 0.0957-0.0191h0.6l0.0957 0.0191 0.0811 0.0542 0.0542 0.0811 0.019 0.0956v0.6l-0.019 0.0957-0.0542 0.0811-0.0811 0.0542-0.0957 0.019z"/>
   <path d="m33.405 53.206-0.0957-0.019-0.0811-0.0542-0.0542-0.0811-0.019-0.0957v-0.6l0.019-0.0956 0.0542-0.0811 0.0811-0.0542 0.0957-0.0191h0.6l0.0957 0.0191 0.0811 0.0542 0.0542 0.0811 0.019 0.0956v0.6l-0.019 0.0957-0.0542 0.0811-0.0811 0.0542-0.0957 0.019z"/>
   <path d="m73.886 36.956-0.0956-0.019-0.0811-0.0542-0.0542-0.0811-0.0191-0.0957v-0.6l0.0191-0.0956 0.0542-0.0811 0.0811-0.0542 0.0956-0.0191h0.6l0.0957 0.0191 0.0811 0.0542 0.0542 0.0811 0.019 0.0956v0.6l-0.019 0.0957-0.0542 0.0811-0.0811 0.0542-0.0957 0.019z"/>
   <path d="m73.886 34.156-0.0956-0.019-0.0811-0.0542-0.0542-0.0811-0.0191-0.0957v-0.6l0.0191-0.0956 0.0542-0.0811 0.0811-0.0542 0.0956-0.0191h0.6l0.0957 0.0191 0.0811 0.0542 0.0542 0.0811 0.019 0.0956v0.6l-0.019 0.0957-0.0542 0.0811-0.0811 0.0542-0.0957 0.019z"/>
   <path d="m14.355 46.481-0.0957-0.019-0.0811-0.0542-0.0542-0.0811-0.019-0.0957v-0.5999l0.019-0.0957 0.0542-0.0811 0.0811-0.0542 0.0957-0.019h0.6l0.0957 0.019 0.0811 0.0542 0.0542 0.0811 0.019 0.0957v0.5999l-0.019 0.0957-0.0542 0.0811-0.0811 0.0542-0.0957 0.019z"/>
   <path d="m14.355 43.681-0.0957-0.019-0.0811-0.0542-0.0542-0.0811-0.019-0.0957v-0.6l0.019-0.0956 0.0542-0.0811 0.0811-0.0542 0.0957-0.0191h0.6l0.0957 0.0191 0.0811 0.0542 0.0542 0.0811 0.019 0.0956v0.6l-0.019 0.0957-0.0542 0.0811-0.0811 0.0542-0.0957 0.019z"/>
  </g>
 </g>
 <g fill="none" stroke="#50FA7B" stroke-linecap="round" stroke-linejoin="round" stroke-width=".2">
  <path d="m31.165 12.016 2.54 2.54"/>
  <path d="m31.165 6.8762v5.14"/>
  <path d="m50.215 4.495v5.14"/>
  <path d="m50.215 9.635 2.54 2.54"/>
  <path d="m69.265 12.016 2.54 2.54"/>
  <path d="m69.265 6.8762v5.14"/>
  <path d="m31.165 31.066 2.54 2.5399"/>
  <path d="m31.165 25.926v5.1401"/>
  <path d="m50.215 31.066 2.54 2.5399"/>
  <path d="m50.215 25.926v5.1401"/>
  <path d="m71.646 25.926v5.1401"/>
  <path d="m71.646 31.066 2.5401 2.5399"/>
  <path d="m31.165 44.976v5.14"/>
  <path d="m31.165 50.116 2.54 2.5399"/>
  <path d="m50.215 44.976v5.14"/>
  <path d="m50.215 50.116 2.54 2.5399"/>
  <path d="m69.265 44.976v5.14"/>
  <path d="m69.265 50.116 2.54 2.5399"/>
  <path d="m12.115 40.591 2.54 2.5401"/>
  <path d="m12.115 35.451v5.1399"/>
  <path d="m31.165 71.548 2.54 2.54"/>
  <path d="m31.165 66.408v5.14"/>
  <path d="m69.265 71.548 2.54 2.54"/>
  <path d="m69.265 66.408v5.14"/>
  <path d="m50.374 17.356 2.3812-2.3812"/>
  <path d="m69.424 14.975 2.3813 2.3812"/>
  <path d="m52.755 14.975h16.669"/>
  <path d="m33.705 17.356h16.669"/>
  <path d="m52.755 36.406h21.431"/>
  <path d="m33.705 36.406h19.05"/>
  <path d="m33.705 55.456h19.05"/>
  <path d="m52.755 55.456h19.05"/>
  <path d="m33.705 76.888h38.1"/>
 </g>
 <g fill="#fff">
  <circle cx="23.545" cy="71.488" r=".875"/>
  <circle cx="28.625" cy="71.488" r="2"/>
  <circle cx="33.705" cy="71.488" r=".875"/>
  <circle cx="24.815" cy="68.948" r=".75"/>
  <circle cx="31.165" cy="66.408" r=".75"/>
  <circle cx="64.026" cy="31.006" r=".875"/>
  <circle cx="69.106" cy="31.006" r="2"/>
  <circle cx="74.186" cy="31.006" r=".875"/>
  <circle cx="65.296" cy="28.466" r=".75"/>
  <circle cx="71.646" cy="25.926" r=".75"/>
  <circle cx="61.645" cy="11.956" r=".875"/>
  <circle cx="66.725" cy="11.956" r="2"/>
  <circle cx="71.805" cy="11.956" r=".875"/>
  <circle cx="62.915" cy="9.4162" r=".75"/>
  <circle cx="69.265" cy="6.8762" r=".75"/>
  <circle cx="23.545" cy="11.956" r=".875"/>
  <circle cx="28.625" cy="11.956" r="2"/>
  <circle cx="33.705" cy="11.956" r=".875"/>
  <circle cx="24.815" cy="9.4162" r=".75"/>
  <circle cx="31.165" cy="6.8762" r=".75"/>
  <circle cx="61.645" cy="50.056" r=".875"/>
  <circle cx="66.725" cy="50.056" r="2"/>
  <circle cx="71.805" cy="50.056" r=".875"/>
  <circle cx="62.915" cy="47.516" r=".75"/>
  <circle cx="69.265" cy="44.976" r=".75"/>
  <circle cx="42.595" cy="50.056" r=".875"/>
  <circle cx="47.675" cy="50.056" r="2"/>
  <circle cx="52.755" cy="50.056" r=".875"/>
  <circle cx="43.865" cy="47.516" r=".75"/>
  <circle cx="50.215" cy="44.976" r=".75"/>
  <circle cx="23.545" cy="31.006" r=".875"/>
  <circle cx="28.625" cy="31.006" r="2"/>
  <circle cx="33.705" cy="31.006" r=".875"/>
  <circle cx="24.815" cy="28.466" r=".75"/>
  <circle cx="31.165" cy="25.926" r=".75"/>
  <circle cx="23.545" cy="50.056" r=".875"/>
  <circle cx="28.625" cy="50.056" r="2"/>
  <circle cx="33.705" cy="50.056" r=".875"/>
  <circle cx="24.815" cy="47.516" r=".75"/>
  <circle cx="31.165" cy="44.976" r=".75"/>
  <circle cx="42.595" cy="9.575" r=".875"/>
  <circle cx="47.675" cy="9.575" r="2"/>
  <circle cx="52.755" cy="9.575" r=".875"/>
  <circle cx="43.865" cy="7.035" r=".75"/>
  <circle cx="50.215" cy="4.495" r=".75"/>
  <circle cx="4.495" cy="40.531" r=".875"/>
  <circle cx="9.575" cy="40.531" r="2"/>
  <circle cx="14.655" cy="40.531" r=".875"/>
  <circle cx="5.765" cy="37.991" r=".75"/>
  <circle cx="12.115" cy="35.451" r=".75"/>
  <circle cx="42.595" cy="31.006" r=".875"/>
  <circle cx="47.675" cy="31.006" r="2"/>
  <circle cx="52.755" cy="31.006" r=".875"/>
  <circle cx="43.865" cy="28.466" r=".75"/>
  <circle cx="50.215" cy="25.926" r=".75"/>
  <circle cx="61.645" cy="71.488" r=".875"/>
  <circle cx="66.725" cy="71.488" r="2"/>
  <circle cx="71.805" cy="71.488" r=".875"/>
  <circle cx="62.915" cy="68.948" r=".75"/>
  <circle cx="69.265" cy="66.408" r=".75"/>
 </g>
</svg>
