<svg xmlns="http://www.w3.org/2000/svg" xmlns:xlink="http://www.w3.org/1999/xlink" width="333" height="177" viewBox="0 0 333 177"><defs><g id="a"><rect width="52" height="52" fill="none" stroke="#000" stroke-width="2" rx="5"/><rect width="50" height="50" x="1" y="1" fill="#ccc" rx="4"/><rect width="40" height="40" x="6" y="4" fill="#fbfbfb" rx="5"/><text x="7" y="7" dominant-baseline="hanging" font-size="12"><tspan x="7" dy="0em">0,5</tspan></text></g><g id="b"><rect width="52" height="52" fill="none" stroke="#000" stroke-width="2" rx="5"/><rect width="50" height="50" x="1" y="1" fill="#ccc" rx="4"/><rect width="40" height="40" x="6" y="4" fill="#fbfbfb" rx="5"/><text x="7" y="7" dominant-baseline="hanging" font-size="12"><tspan x="7" dy="0em">0,0</tspan></text></g><g id="c"><rect width="52" height="52" fill="none" stroke="#000" stroke-width="2" rx="5"/><rect width="50" height="50" x="1" y="1" fill="#ccc" rx="4"/><rect width="40" height="40" x="6" y="4" fill="#fbfbfb" rx="5"/><text x="7" y="7" dominant-baseline="hanging" font-size="12"><tspan x="7" dy="0em">0,1</tspan></text></g><g id="d"><rect width="52" height="52" fill="none" stroke="#000" stroke-width="2" rx="5"/><rect width="50" height="50" x="1" y="1" fill="#ccc" rx="4"/><rect width="40" height="40" x="6" y="4" fill="#fbfbfb" rx="5"/><text x="7" y="7" dominant-baseline="hanging" font-size="12"><tspan x="7" dy="0em">0,2</tspan></text></g><g id="e"><rect width="52" height="52" fill="none" stroke="#000" stroke-width="2" rx="5"/><rect width="50" height="50" x="1" y="1" fill="#ccc" rx="4"/><rect width="40" height="40" x="6" y="4" fill="#fbfbfb" rx="5"/><text x="7" y="7" dominant-baseline="hanging" font-size="12"><tspan x="7" dy="0em">0,3</tspan></text></g><g id="f"><rect width="52" height="52" fill="none" stroke="#000" stroke-width="2" rx="5"/><rect width="50" height="50" x="1" y="1" fill="#ccc" rx="4"/><rect width="40" height="40" x="6" y="4" fill="#fbfbfb" rx="5"/><text x="7" y="7" dominant-baseline="hanging" font-size="12"><tspan x="7" dy="0em">0,4</tspan></text></g><g id="g"><rect width="52" height="52" fill="none" stroke="#000" stroke-width="2" rx="5"/><rect width="50" height="50" x="1" y="1" fill="#ccc" rx="4"/><rect width="40" height="40" x="6" y="4" fill="#fbfbfb" rx="5"/><text x="7" y="7" dominant-baseline="hanging" font-size="12"><tspan x="7" dy="0em">1,0</tspan></text></g><g id="h"><rect width="52" height="52" fill="none" stroke="#000" stroke-width="2" rx="5"/><rect width="50" height="50" x="1" y="1" fill="#ccc" rx="4"/><rect width="40" height="40" x="6" y="4" fill="#fbfbfb" rx="5"/><text x="7" y="7" dominant-baseline="hanging" font-size="12"><tspan x="7" dy="0em">1,1</tspan></text></g><g id="i"><rect width="52" height="52" fill="none" stroke="#000" stroke-width="2" rx="5"/><rect width="50" height="50" x="1" y="1" fill="#ccc" rx="4"/><rect width="40" height="40" x="6" y="4" fill="#fbfbfb" rx="5"/><text x="7" y="7" dominant-baseline="hanging" font-size="12"><tspan x="7" dy="0em">1,2</tspan></text></g><g id="j"><rect width="52" height="52" fill="none" stroke="#000" stroke-width="2" rx="5"/><rect width="50" height="50" x="1" y="1" fill="#ccc" rx="4"/><rect width="40" height="40" x="6" y="4" fill="#fbfbfb" rx="5"/><text x="7" y="7" dominant-baseline="hanging" font-size="12"><tspan x="7" dy="0em">1,3</tspan></text></g><g id="k"><rect width="52" height="52" fill="none" stroke="#000" stroke-width="2" rx="5"/><rect width="50" height="50" x="1" y="1" fill="#ccc" rx="4"/><rect width="40" height="40" x="6" y="4" fill="#fbfbfb" rx="5"/><text x="7" y="7" dominant-baseline="hanging" font-size="12"><tspan x="7" dy="0em">1,4</tspan></text></g><g id="l"><rect width="52" height="52" fill="none" stroke="#000" stroke-width="2" rx="5"/><rect width="50" height="50" x="1" y="1" fill="#ccc" rx="4"/><rect width="40" height="40" x="6" y="4" fill="#fbfbfb" rx="5"/><text x="7" y="7" dominant-baseline="hanging" font-size="12"><tspan x="7" dy="0em">1,5</tspan></text></g><g id="m"><rect width="143" height="52" fill="none" stroke="#000" stroke-width="2" rx="5"/><rect width="141" height="50" x="1" y="1" fill="#ccc" rx="4"/><rect width="131" height="40" x="6" y="4" fill="#fbfbfb" rx="5"/><text x="7" y="7" dominant-baseline="hanging" font-size="12"><tspan x="7" dy="0em">2,1</tspan></text><text x="136" y="42" font-size="12" text-anchor="end"><tspan x="136" dy="0em">0,1</tspan></text></g><g id="n"><rect width="52" height="52" fill="none" stroke="#000" stroke-width="2" rx="5"/><rect width="50" height="50" x="1" y="1" fill="#ccc" rx="4"/><rect width="40" height="40" x="6" y="4" fill="#fbfbfb" rx="5"/><text x="7" y="7" dominant-baseline="hanging" font-size="12"><tspan x="7" dy="0em">2,0</tspan></text><text x="45" y="42" font-size="12" text-anchor="end"><tspan x="45" dy="0em">0,0</tspan></text></g><g id="o"><rect width="52" height="52" fill="none" stroke="#000" stroke-width="2" rx="5"/><rect width="50" height="50" x="1" y="1" fill="#ccc" rx="4"/><rect width="40" height="40" x="6" y="4" fill="#fbfbfb" rx="5"/><text x="7" y="7" dominant-baseline="hanging" font-size="12"><tspan x="7" dy="0em">2,1</tspan></text><text x="45" y="42" font-size="12" text-anchor="end"><tspan x="45" dy="0em">0,0</tspan></text></g><g id="p"><rect width="117" height="52" fill="none" stroke="#000" stroke-width="2" rx="5"/><rect width="115" height="50" x="1" y="1" fill="#ccc" rx="4"/><rect width="105" height="40" x="6" y="4" fill="#fbfbfb" rx="5"/><text x="7" y="7" dominant-baseline="hanging" font-size="12"><tspan x="7" dy="0em">2,3</tspan></text></g><g id="q"><rect width="52" height="52" fill="none" stroke="#000" stroke-width="2" rx="5"/><rect width="50" height="50" x="1" y="1" fill="#ccc" rx="4"/><rect width="40" height="40" x="6" y="4" fill="#fbfbfb" rx="5"/><text x="7" y="7" dominant-baseline="hanging" font-size="12"><tspan x="7" dy="0em">2,5</tspan></text></g></defs><use xlink:href="#a" x="277" y="4"/><use xlink:href="#b" x="4" y="17"/><use xlink:href="#c" x="56" y="17"/><use xlink:href="#d" x="108" y="17"/><use xlink:href="#e" x="160" y="17"/><use xlink:href="#f" x="212" y="17"/><use xlink:href="#g" x="4" y="69"/><use xlink:href="#h" x="56" y="69"/><use xlink:href="#i" x="108" y="69"/><use xlink:href="#j" x="160" y="69"/><use xlink:href="#k" x="212" y="69"/><use xlink:href="#l" x="277" y="69"/><use xlink:href="#m" x="4" y="121"/><use xlink:href="#n" x="4" y="121"/><use xlink:href="#o" x="95" y="121"/><use xlink:href="#p" x="147" y="121"/><use xlink:href="#q" x="277" y="121"/></svg>