<?xml version="1.0" encoding="UTF-8"?>
<!DOCTYPE svg  PUBLIC '-//W3C//DTD SVG 1.1//EN'  'http://www.w3.org/Graphics/SVG/1.1/DTD/svg11.dtd'>
<svg width="119.15mm" height="62.001mm" version="1.1" viewBox="0 0 119.15 62.001" xmlns="http://www.w3.org/2000/svg">
 <title>SVG Image created as damapad-render.svg date 2025/09/05 18:39:03</title>
 <desc>Image generated by PCBNEW</desc>
 <rect width="119.15mm" height="62.001mm" fill="#282A36"/>
 <g fill="none" stroke="#8BE9FD" stroke-linecap="round" stroke-linejoin="round" stroke-width=".15">
  <text x="66.7250" y="25.8875" font-size="1.3333" opacity="0" stroke-opacity="0" text-anchor="middle" lengthAdjust="spacingAndGlyphs" textLength="4.2500">SW10</text>
  <g class="stroked-text">
   <desc>SW10</desc>
   <path d="m64.916 25.795 0.1428 0.0476"/>
   <path d="m65.058 25.842h0.2381"/>
   <path d="m65.296 25.842 0.0953-0.0476"/>
   <path d="m65.392 25.795 0.0476-0.0476"/>
   <path d="m65.439 25.747 0.0476-0.0953"/>
   <path d="m65.487 25.652v-0.0952"/>
   <path d="m65.487 25.557-0.0476-0.0952"/>
   <path d="m65.439 25.461-0.0476-0.0477"/>
   <path d="m65.392 25.414-0.0953-0.0476"/>
   <path d="m65.296 25.366-0.1904-0.0476"/>
   <path d="m65.106 25.318-0.0953-0.0476"/>
   <path d="m65.011 25.271-0.0476-0.0476"/>
   <path d="m64.963 25.223-0.0476-0.0953"/>
   <path d="m64.916 25.128v-0.0952"/>
   <path d="m64.916 25.033 0.0476-0.0952"/>
   <path d="m64.963 24.938 0.0476-0.0477"/>
   <path d="m65.011 24.89 0.0953-0.0476"/>
   <path d="m65.106 24.842h0.238"/>
   <path d="m65.344 24.842 0.1429 0.0476"/>
   <path d="m65.82 24.842 0.2381 1"/>
   <path d="m66.058 25.842 0.1905-0.7143"/>
   <path d="m66.249 25.128 0.1905 0.7143"/>
   <path d="m66.439 25.842 0.2381-1"/>
   <path d="m67.582 25.842h-0.5714"/>
   <path d="m67.296 25.842v-1"/>
   <path d="m67.296 24.842-0.0952 0.1429"/>
   <path d="m67.201 24.985-0.0952 0.0952"/>
   <path d="m67.106 25.08-0.0953 0.0476"/>
   <path d="m68.201 24.842h0.0952"/>
   <path d="m68.296 24.842 0.0953 0.0476"/>
   <path d="m68.392 24.89 0.0476 0.0477"/>
   <path d="m68.439 24.938 0.0476 0.0952"/>
   <path d="m68.487 25.033 0.0476 0.1905"/>
   <path d="m68.534 25.223v0.2381"/>
   <path d="m68.534 25.461-0.0476 0.1904"/>
   <path d="m68.487 25.652-0.0476 0.0953"/>
   <path d="m68.439 25.747-0.0476 0.0476"/>
   <path d="m68.392 25.795-0.0953 0.0476"/>
   <path d="m68.296 25.842h-0.0952"/>
   <path d="m68.201 25.842-0.0952-0.0476"/>
   <path d="m68.106 25.795-0.0477-0.0476"/>
   <path d="m68.058 25.747-0.0476-0.0953"/>
   <path d="m68.011 25.652-0.0476-0.1904"/>
   <path d="m67.963 25.461v-0.2381"/>
   <path d="m67.963 25.223 0.0476-0.1905"/>
   <path d="m68.011 25.033 0.0476-0.0952"/>
   <path d="m68.058 24.938 0.0477-0.0477"/>
   <path d="m68.106 24.89 0.0952-0.0476"/>
  </g>
  <text x="47.6750" y="25.8875" font-size="1.3333" opacity="0" stroke-opacity="0" text-anchor="middle" lengthAdjust="spacingAndGlyphs" textLength="3.2976">SW9</text>
  <g class="stroked-text">
   <desc>SW9</desc>
   <path d="m46.342 25.795 0.1428 0.0476"/>
   <path d="m46.484 25.842h0.2381"/>
   <path d="m46.723 25.842 0.0953-0.0476"/>
   <path d="m46.818 25.795 0.0476-0.0476"/>
   <path d="m46.866 25.747 0.0476-0.0953"/>
   <path d="m46.913 25.652v-0.0952"/>
   <path d="m46.913 25.557-0.0476-0.0952"/>
   <path d="m46.866 25.461-0.0476-0.0477"/>
   <path d="m46.818 25.414-0.0953-0.0476"/>
   <path d="m46.723 25.366-0.1905-0.0476"/>
   <path d="m46.532 25.318-0.0952-0.0476"/>
   <path d="m46.437 25.271-0.0476-0.0476"/>
   <path d="m46.389 25.223-0.0476-0.0953"/>
   <path d="m46.342 25.128v-0.0952"/>
   <path d="m46.342 25.033 0.0476-0.0952"/>
   <path d="m46.389 24.938 0.0476-0.0477"/>
   <path d="m46.437 24.89 0.0952-0.0476"/>
   <path d="m46.532 24.842h0.2381"/>
   <path d="m46.77 24.842 0.1429 0.0476"/>
   <path d="m47.246 24.842 0.2381 1"/>
   <path d="m47.484 25.842 0.1905-0.7143"/>
   <path d="m47.675 25.128 0.1905 0.7143"/>
   <path d="m47.866 25.842 0.2381-1"/>
   <path d="m48.532 25.842h0.1905"/>
   <path d="m48.723 25.842 0.0953-0.0476"/>
   <path d="m48.818 25.795 0.0476-0.0476"/>
   <path d="m48.866 25.747 0.0952-0.1429"/>
   <path d="m48.961 25.604 0.0476-0.1905"/>
   <path d="m49.008 25.414v-0.3809"/>
   <path d="m49.008 25.033-0.0476-0.0952"/>
   <path d="m48.961 24.938-0.0476-0.0477"/>
   <path d="m48.913 24.89-0.0952-0.0476"/>
   <path d="m48.818 24.842h-0.1905"/>
   <path d="m48.627 24.842-0.0953 0.0476"/>
   <path d="m48.532 24.89-0.0476 0.0477"/>
   <path d="m48.484 24.938-0.0476 0.0952"/>
   <path d="m48.437 25.033v0.2381"/>
   <path d="m48.437 25.271 0.0476 0.0952"/>
   <path d="m48.484 25.366 0.0476 0.0476"/>
   <path d="m48.532 25.414 0.0953 0.0477"/>
   <path d="m48.627 25.461h0.1905"/>
   <path d="m48.818 25.461 0.0952-0.0477"/>
   <path d="m48.913 25.414 0.0476-0.0476"/>
   <path d="m48.961 25.366 0.0476-0.0952"/>
  </g>
  <text x="85.7750" y="6.8375" font-size="1.3333" opacity="0" stroke-opacity="0" text-anchor="middle" lengthAdjust="spacingAndGlyphs" textLength="3.2976">SW5</text>
  <g class="stroked-text">
   <desc>SW5</desc>
   <path d="m84.442 6.7447 0.1428 0.0476"/>
   <path d="m84.584 6.7923h0.2381"/>
   <path d="m84.823 6.7923 0.0953-0.0476"/>
   <path d="m84.918 6.7447 0.0476-0.0476"/>
   <path d="m84.966 6.6971 0.0476-0.0953"/>
   <path d="m85.013 6.6018v-0.0952"/>
   <path d="m85.013 6.5066-0.0476-0.0952"/>
   <path d="m84.966 6.4114-0.0476-0.0477"/>
   <path d="m84.918 6.3637-0.0953-0.0476"/>
   <path d="m84.823 6.3161-0.1905-0.0476"/>
   <path d="m84.632 6.2685-0.0952-0.0476"/>
   <path d="m84.537 6.2209-0.0476-0.0476"/>
   <path d="m84.489 6.1733-0.0476-0.0953"/>
   <path d="m84.442 6.078v-0.0952"/>
   <path d="m84.442 5.9828 0.0476-0.0952"/>
   <path d="m84.489 5.8876 0.0476-0.0477"/>
   <path d="m84.537 5.8399 0.0952-0.0476"/>
   <path d="m84.632 5.7923h0.2381"/>
   <path d="m84.87 5.7923 0.1429 0.0476"/>
   <path d="m85.346 5.7923 0.2381 1"/>
   <path d="m85.584 6.7923 0.1905-0.7143"/>
   <path d="m85.775 6.078 0.1905 0.7143"/>
   <path d="m85.966 6.7923 0.2381-1"/>
   <path d="m87.061 5.7923h-0.4762"/>
   <path d="m86.584 5.7923-0.0476 0.4762"/>
   <path d="m86.537 6.2685 0.0476-0.0476"/>
   <path d="m86.584 6.2209 0.0953-0.0476"/>
   <path d="m86.68 6.1733h0.2381"/>
   <path d="m86.918 6.1733 0.0952 0.0476"/>
   <path d="m87.013 6.2209 0.0476 0.0476"/>
   <path d="m87.061 6.2685 0.0476 0.0952"/>
   <path d="m87.108 6.3637v0.2381"/>
   <path d="m87.108 6.6018-0.0476 0.0953"/>
   <path d="m87.061 6.6971-0.0476 0.0476"/>
   <path d="m87.013 6.7447-0.0952 0.0476"/>
   <path d="m86.918 6.7923h-0.2381"/>
   <path d="m86.68 6.7923-0.0953-0.0476"/>
   <path d="m86.584 6.7447-0.0476-0.0476"/>
  </g>
  <text x="28.6250" y="25.8875" font-size="1.3333" opacity="0" stroke-opacity="0" text-anchor="middle" lengthAdjust="spacingAndGlyphs" textLength="3.2976">SW8</text>
  <g class="stroked-text">
   <desc>SW8</desc>
   <path d="m27.292 25.795 0.1428 0.0476"/>
   <path d="m27.434 25.842h0.2381"/>
   <path d="m27.673 25.842 0.0953-0.0476"/>
   <path d="m27.768 25.795 0.0476-0.0476"/>
   <path d="m27.816 25.747 0.0476-0.0953"/>
   <path d="m27.863 25.652v-0.0952"/>
   <path d="m27.863 25.557-0.0476-0.0952"/>
   <path d="m27.816 25.461-0.0476-0.0477"/>
   <path d="m27.768 25.414-0.0953-0.0476"/>
   <path d="m27.673 25.366-0.1905-0.0476"/>
   <path d="m27.482 25.318-0.0952-0.0476"/>
   <path d="m27.387 25.271-0.0476-0.0476"/>
   <path d="m27.339 25.223-0.0476-0.0953"/>
   <path d="m27.292 25.128v-0.0952"/>
   <path d="m27.292 25.033 0.0476-0.0952"/>
   <path d="m27.339 24.938 0.0476-0.0477"/>
   <path d="m27.387 24.89 0.0952-0.0476"/>
   <path d="m27.482 24.842h0.2381"/>
   <path d="m27.72 24.842 0.1429 0.0476"/>
   <path d="m28.196 24.842 0.2381 1"/>
   <path d="m28.434 25.842 0.1905-0.7143"/>
   <path d="m28.625 25.128 0.1905 0.7143"/>
   <path d="m28.816 25.842 0.2381-1"/>
   <path d="m29.577 25.271-0.0953-0.0476"/>
   <path d="m29.482 25.223-0.0476-0.0476"/>
   <path d="m29.434 25.176-0.0476-0.0953"/>
   <path d="m29.387 25.08v-0.0476"/>
   <path d="m29.387 25.033 0.0476-0.0952"/>
   <path d="m29.434 24.938 0.0476-0.0477"/>
   <path d="m29.482 24.89 0.0953-0.0476"/>
   <path d="m29.577 24.842h0.1905"/>
   <path d="m29.768 24.842 0.0952 0.0476"/>
   <path d="m29.863 24.89 0.0476 0.0477"/>
   <path d="m29.911 24.938 0.0476 0.0952"/>
   <path d="m29.958 25.033v0.0476"/>
   <path d="m29.958 25.08-0.0476 0.0953"/>
   <path d="m29.911 25.176-0.0476 0.0476"/>
   <path d="m29.863 25.223-0.0952 0.0476"/>
   <path d="m29.768 25.271h-0.1905"/>
   <path d="m29.577 25.271-0.0953 0.0476"/>
   <path d="m29.482 25.318-0.0476 0.0476"/>
   <path d="m29.434 25.366-0.0476 0.0953"/>
   <path d="m29.387 25.461v0.1904"/>
   <path d="m29.387 25.652 0.0476 0.0953"/>
   <path d="m29.434 25.747 0.0476 0.0476"/>
   <path d="m29.482 25.795 0.0953 0.0476"/>
   <path d="m29.577 25.842h0.1905"/>
   <path d="m29.768 25.842 0.0952-0.0476"/>
   <path d="m29.863 25.795 0.0476-0.0476"/>
   <path d="m29.911 25.747 0.0476-0.0953"/>
   <path d="m29.958 25.652v-0.1904"/>
   <path d="m29.958 25.461-0.0476-0.0953"/>
   <path d="m29.911 25.366-0.0476-0.0476"/>
   <path d="m29.863 25.318-0.0952-0.0476"/>
  </g>
  <text x="85.7750" y="25.8875" font-size="1.3333" opacity="0" stroke-opacity="0" text-anchor="middle" lengthAdjust="spacingAndGlyphs" textLength="4.2500">SW11</text>
  <g class="stroked-text">
   <desc>SW11</desc>
   <path d="m83.966 25.795 0.1428 0.0476"/>
   <path d="m84.108 25.842h0.2381"/>
   <path d="m84.346 25.842 0.0953-0.0476"/>
   <path d="m84.442 25.795 0.0476-0.0476"/>
   <path d="m84.489 25.747 0.0476-0.0953"/>
   <path d="m84.537 25.652v-0.0952"/>
   <path d="m84.537 25.557-0.0476-0.0952"/>
   <path d="m84.489 25.461-0.0476-0.0477"/>
   <path d="m84.442 25.414-0.0953-0.0476"/>
   <path d="m84.346 25.366-0.1904-0.0476"/>
   <path d="m84.156 25.318-0.0953-0.0476"/>
   <path d="m84.061 25.271-0.0476-0.0476"/>
   <path d="m84.013 25.223-0.0476-0.0953"/>
   <path d="m83.966 25.128v-0.0952"/>
   <path d="m83.966 25.033 0.0476-0.0952"/>
   <path d="m84.013 24.938 0.0476-0.0477"/>
   <path d="m84.061 24.89 0.0953-0.0476"/>
   <path d="m84.156 24.842h0.238"/>
   <path d="m84.394 24.842 0.1429 0.0476"/>
   <path d="m84.87 24.842 0.2381 1"/>
   <path d="m85.108 25.842 0.1905-0.7143"/>
   <path d="m85.299 25.128 0.1905 0.7143"/>
   <path d="m85.489 25.842 0.2381-1"/>
   <path d="m86.632 25.842h-0.5714"/>
   <path d="m86.346 25.842v-1"/>
   <path d="m86.346 24.842-0.0952 0.1429"/>
   <path d="m86.251 24.985-0.0952 0.0952"/>
   <path d="m86.156 25.08-0.0953 0.0476"/>
   <path d="m87.584 25.842h-0.5714"/>
   <path d="m87.299 25.842v-1"/>
   <path d="m87.299 24.842-0.0952 0.1429"/>
   <path d="m87.204 24.985-0.0953 0.0952"/>
   <path d="m87.108 25.08-0.0952 0.0476"/>
  </g>
  <text x="47.6750" y="6.8375" font-size="1.3333" opacity="0" stroke-opacity="0" text-anchor="middle" lengthAdjust="spacingAndGlyphs" textLength="3.2976">SW3</text>
  <g class="stroked-text">
   <desc>SW3</desc>
   <path d="m46.342 6.7447 0.1428 0.0476"/>
   <path d="m46.484 6.7923h0.2381"/>
   <path d="m46.723 6.7923 0.0953-0.0476"/>
   <path d="m46.818 6.7447 0.0476-0.0476"/>
   <path d="m46.866 6.6971 0.0476-0.0953"/>
   <path d="m46.913 6.6018v-0.0952"/>
   <path d="m46.913 6.5066-0.0476-0.0952"/>
   <path d="m46.866 6.4114-0.0476-0.0477"/>
   <path d="m46.818 6.3637-0.0953-0.0476"/>
   <path d="m46.723 6.3161-0.1905-0.0476"/>
   <path d="m46.532 6.2685-0.0952-0.0476"/>
   <path d="m46.437 6.2209-0.0476-0.0476"/>
   <path d="m46.389 6.1733-0.0476-0.0953"/>
   <path d="m46.342 6.078v-0.0952"/>
   <path d="m46.342 5.9828 0.0476-0.0952"/>
   <path d="m46.389 5.8876 0.0476-0.0477"/>
   <path d="m46.437 5.8399 0.0952-0.0476"/>
   <path d="m46.532 5.7923h0.2381"/>
   <path d="m46.77 5.7923 0.1429 0.0476"/>
   <path d="m47.246 5.7923 0.2381 1"/>
   <path d="m47.484 6.7923 0.1905-0.7143"/>
   <path d="m47.675 6.078 0.1905 0.7143"/>
   <path d="m47.866 6.7923 0.2381-1"/>
   <path d="m48.389 5.7923h0.619"/>
   <path d="m49.008 5.7923-0.3333 0.381"/>
   <path d="m48.675 6.1733h0.1429"/>
   <path d="m48.818 6.1733 0.0952 0.0476"/>
   <path d="m48.913 6.2209 0.0476 0.0476"/>
   <path d="m48.961 6.2685 0.0476 0.0952"/>
   <path d="m49.008 6.3637v0.2381"/>
   <path d="m49.008 6.6018-0.0476 0.0953"/>
   <path d="m48.961 6.6971-0.0476 0.0476"/>
   <path d="m48.913 6.7447-0.0952 0.0476"/>
   <path d="m48.818 6.7923h-0.2858"/>
   <path d="m48.532 6.7923-0.0952-0.0476"/>
   <path d="m48.437 6.7447-0.0476-0.0476"/>
  </g>
  <text x="73.8687" y="44.9375" font-size="1.3333" opacity="0" stroke-opacity="0" text-anchor="middle" lengthAdjust="spacingAndGlyphs" textLength="4.2500">SW15</text>
  <g class="stroked-text">
   <desc>SW15</desc>
   <path d="m72.059 44.845 0.1429 0.0476"/>
   <path d="m72.202 44.892h0.2381"/>
   <path d="m72.44 44.892 0.0952-0.0476"/>
   <path d="m72.535 44.845 0.0476-0.0476"/>
   <path d="m72.583 44.797 0.0477-0.0953"/>
   <path d="m72.631 44.702v-0.0952"/>
   <path d="m72.631 44.607-0.0477-0.0952"/>
   <path d="m72.583 44.511-0.0476-0.0477"/>
   <path d="m72.535 44.464-0.0952-0.0476"/>
   <path d="m72.44 44.416-0.1905-0.0476"/>
   <path d="m72.25 44.368-0.0952-0.0476"/>
   <path d="m72.154 44.321-0.0477-0.0476"/>
   <path d="m72.107 44.273-0.0476-0.0953"/>
   <path d="m72.059 44.178v-0.0952"/>
   <path d="m72.059 44.083 0.0476-0.0952"/>
   <path d="m72.107 43.988 0.0477-0.0477"/>
   <path d="m72.154 43.94 0.0952-0.0476"/>
   <path d="m72.25 43.892h0.2381"/>
   <path d="m72.488 43.892 0.1429 0.0476"/>
   <path d="m72.964 43.892 0.2381 1"/>
   <path d="m73.202 44.892 0.1905-0.7143"/>
   <path d="m73.393 44.178 0.1904 0.7143"/>
   <path d="m73.583 44.892 0.2381-1"/>
   <path d="m74.726 44.892h-0.5714"/>
   <path d="m74.44 44.892v-1"/>
   <path d="m74.44 43.892-0.0953 0.1429"/>
   <path d="m74.345 44.035-0.0952 0.0952"/>
   <path d="m74.25 44.13-0.0952 0.0476"/>
   <path d="m75.631 43.892h-0.4762"/>
   <path d="m75.154 43.892-0.0477 0.4762"/>
   <path d="m75.107 44.368 0.0477-0.0476"/>
   <path d="m75.154 44.321 0.0952-0.0476"/>
   <path d="m75.25 44.273h0.2381"/>
   <path d="m75.488 44.273 0.0952 0.0476"/>
   <path d="m75.583 44.321 0.0477 0.0476"/>
   <path d="m75.631 44.368 0.0476 0.0952"/>
   <path d="m75.678 44.464v0.2381"/>
   <path d="m75.678 44.702-0.0476 0.0953"/>
   <path d="m75.631 44.797-0.0477 0.0476"/>
   <path d="m75.583 44.845-0.0952 0.0476"/>
   <path d="m75.488 44.892h-0.2381"/>
   <path d="m75.25 44.892-0.0952-0.0476"/>
   <path d="m75.154 44.845-0.0477-0.0476"/>
  </g>
  <text x="26.2437" y="44.9375" font-size="1.3333" opacity="0" stroke-opacity="0" text-anchor="middle" lengthAdjust="spacingAndGlyphs" textLength="5.9643">SW14_1</text>
  <g class="stroked-text">
   <desc>SW14_1</desc>
   <path d="m23.577 44.845 0.1428 0.0476"/>
   <path d="m23.72 44.892h0.2381"/>
   <path d="m23.958 44.892 0.0953-0.0476"/>
   <path d="m24.053 44.845 0.0476-0.0476"/>
   <path d="m24.101 44.797 0.0476-0.0953"/>
   <path d="m24.148 44.702v-0.0952"/>
   <path d="m24.148 44.607-0.0476-0.0952"/>
   <path d="m24.101 44.511-0.0476-0.0477"/>
   <path d="m24.053 44.464-0.0953-0.0476"/>
   <path d="m23.958 44.416-0.1904-0.0476"/>
   <path d="m23.768 44.368-0.0953-0.0476"/>
   <path d="m23.672 44.321-0.0476-0.0476"/>
   <path d="m23.625 44.273-0.0476-0.0953"/>
   <path d="m23.577 44.178v-0.0952"/>
   <path d="m23.577 44.083 0.0476-0.0952"/>
   <path d="m23.625 43.988 0.0476-0.0477"/>
   <path d="m23.672 43.94 0.0953-0.0476"/>
   <path d="m23.768 43.892h0.2381"/>
   <path d="m24.006 43.892 0.1428 0.0476"/>
   <path d="m24.482 43.892 0.2381 1"/>
   <path d="m24.72 44.892 0.1905-0.7143"/>
   <path d="m24.91 44.178 0.1905 0.7143"/>
   <path d="m25.101 44.892 0.2381-1"/>
   <path d="m26.244 44.892h-0.5714"/>
   <path d="m25.958 44.892v-1"/>
   <path d="m25.958 43.892-0.0952 0.1429"/>
   <path d="m25.863 44.035-0.0952 0.0952"/>
   <path d="m25.768 44.13-0.0953 0.0476"/>
   <path d="m27.101 44.226v0.6666"/>
   <path d="m26.863 43.845-0.2381 0.7143"/>
   <path d="m26.625 44.559h0.619"/>
   <path d="m27.387 44.988h0.7619"/>
   <path d="m28.91 44.892h-0.5714"/>
   <path d="m28.625 44.892v-1"/>
   <path d="m28.625 43.892-0.0952 0.1429"/>
   <path d="m28.53 44.035-0.0953 0.0952"/>
   <path d="m28.434 44.13-0.0952 0.0476"/>
  </g>
  <text x="109.5875" y="44.9375" font-size="1.3333" opacity="0" stroke-opacity="0" text-anchor="middle" lengthAdjust="spacingAndGlyphs" textLength="4.2500">SW16</text>
  <g class="stroked-text">
   <desc>SW16</desc>
   <path d="m107.78 44.845 0.1428 0.0476"/>
   <path d="m107.92 44.892h0.2381"/>
   <path d="m108.16 44.892 0.0953-0.0476"/>
   <path d="m108.25 44.845 0.0476-0.0476"/>
   <path d="m108.3 44.797 0.0476-0.0953"/>
   <path d="m108.35 44.702v-0.0952"/>
   <path d="m108.35 44.607-0.0476-0.0952"/>
   <path d="m108.3 44.511-0.0476-0.0477"/>
   <path d="m108.25 44.464-0.0953-0.0476"/>
   <path d="m108.16 44.416-0.1904-0.0476"/>
   <path d="m107.97 44.368-0.0953-0.0476"/>
   <path d="m107.87 44.321-0.0476-0.0476"/>
   <path d="m107.83 44.273-0.0476-0.0953"/>
   <path d="m107.78 44.178v-0.0952"/>
   <path d="m107.78 44.083 0.0476-0.0952"/>
   <path d="m107.83 43.988 0.0476-0.0477"/>
   <path d="m107.87 43.94 0.0953-0.0476"/>
   <path d="m107.97 43.892h0.238"/>
   <path d="m108.21 43.892 0.1429 0.0476"/>
   <path d="m108.68 43.892 0.2381 1"/>
   <path d="m108.92 44.892 0.1905-0.7143"/>
   <path d="m109.11 44.178 0.1905 0.7143"/>
   <path d="m109.3 44.892 0.2381-1"/>
   <path d="m110.44 44.892h-0.5714"/>
   <path d="m110.16 44.892v-1"/>
   <path d="m110.16 43.892-0.0952 0.1429"/>
   <path d="m110.06 44.035-0.0952 0.0952"/>
   <path d="m109.97 44.13-0.0953 0.0476"/>
   <path d="m111.3 43.892h-0.1905"/>
   <path d="m111.11 43.892-0.0952 0.0476"/>
   <path d="m111.02 43.94-0.0476 0.0477"/>
   <path d="m110.97 43.988-0.0953 0.1428"/>
   <path d="m110.87 44.13-0.0476 0.1905"/>
   <path d="m110.83 44.321v0.3809"/>
   <path d="m110.83 44.702 0.0476 0.0953"/>
   <path d="m110.87 44.797 0.0476 0.0476"/>
   <path d="m110.92 44.845 0.0953 0.0476"/>
   <path d="m111.02 44.892h0.1904"/>
   <path d="m111.21 44.892 0.0953-0.0476"/>
   <path d="m111.3 44.845 0.0476-0.0476"/>
   <path d="m111.35 44.797 0.0476-0.0953"/>
   <path d="m111.4 44.702v-0.2381"/>
   <path d="m111.4 44.464-0.0476-0.0952"/>
   <path d="m111.35 44.368-0.0476-0.0476"/>
   <path d="m111.3 44.321-0.0953-0.0476"/>
   <path d="m111.21 44.273h-0.1904"/>
   <path d="m111.02 44.273-0.0953 0.0476"/>
   <path d="m110.92 44.321-0.0476 0.0476"/>
   <path d="m110.87 44.368-0.0476 0.0952"/>
  </g>
  <text x="109.5875" y="25.8875" font-size="1.3333" opacity="0" stroke-opacity="0" text-anchor="middle" lengthAdjust="spacingAndGlyphs" textLength="4.2500">SW12</text>
  <g class="stroked-text">
   <desc>SW12</desc>
   <path d="m107.78 25.795 0.1428 0.0476"/>
   <path d="m107.92 25.842h0.2381"/>
   <path d="m108.16 25.842 0.0953-0.0476"/>
   <path d="m108.25 25.795 0.0476-0.0476"/>
   <path d="m108.3 25.747 0.0476-0.0953"/>
   <path d="m108.35 25.652v-0.0952"/>
   <path d="m108.35 25.557-0.0476-0.0952"/>
   <path d="m108.3 25.461-0.0476-0.0477"/>
   <path d="m108.25 25.414-0.0953-0.0476"/>
   <path d="m108.16 25.366-0.1904-0.0476"/>
   <path d="m107.97 25.318-0.0953-0.0476"/>
   <path d="m107.87 25.271-0.0476-0.0476"/>
   <path d="m107.83 25.223-0.0476-0.0953"/>
   <path d="m107.78 25.128v-0.0952"/>
   <path d="m107.78 25.033 0.0476-0.0952"/>
   <path d="m107.83 24.938 0.0476-0.0477"/>
   <path d="m107.87 24.89 0.0953-0.0476"/>
   <path d="m107.97 24.842h0.238"/>
   <path d="m108.21 24.842 0.1429 0.0476"/>
   <path d="m108.68 24.842 0.2381 1"/>
   <path d="m108.92 25.842 0.1905-0.7143"/>
   <path d="m109.11 25.128 0.1905 0.7143"/>
   <path d="m109.3 25.842 0.2381-1"/>
   <path d="m110.44 25.842h-0.5714"/>
   <path d="m110.16 25.842v-1"/>
   <path d="m110.16 24.842-0.0952 0.1429"/>
   <path d="m110.06 24.985-0.0952 0.0952"/>
   <path d="m109.97 25.08-0.0953 0.0476"/>
   <path d="m110.83 24.938 0.0476-0.0477"/>
   <path d="m110.87 24.89 0.0953-0.0476"/>
   <path d="m110.97 24.842h0.238"/>
   <path d="m111.21 24.842 0.0953 0.0476"/>
   <path d="m111.3 24.89 0.0476 0.0477"/>
   <path d="m111.35 24.938 0.0476 0.0952"/>
   <path d="m111.4 25.033v0.0952"/>
   <path d="m111.4 25.128-0.0476 0.1429"/>
   <path d="m111.35 25.271-0.5714 0.5714"/>
   <path d="m110.78 25.842h0.619"/>
  </g>
  <text x="42.9125" y="44.9375" font-size="1.3333" opacity="0" stroke-opacity="0" text-anchor="middle" lengthAdjust="spacingAndGlyphs" textLength="4.2500">SW14</text>
  <g class="stroked-text">
   <desc>SW14</desc>
   <path d="m41.103 44.845 0.1428 0.0476"/>
   <path d="m41.246 44.892h0.2381"/>
   <path d="m41.484 44.892 0.0953-0.0476"/>
   <path d="m41.579 44.845 0.0476-0.0476"/>
   <path d="m41.627 44.797 0.0476-0.0953"/>
   <path d="m41.674 44.702v-0.0952"/>
   <path d="m41.674 44.607-0.0476-0.0952"/>
   <path d="m41.627 44.511-0.0476-0.0477"/>
   <path d="m41.579 44.464-0.0953-0.0476"/>
   <path d="m41.484 44.416-0.1904-0.0476"/>
   <path d="m41.294 44.368-0.0953-0.0476"/>
   <path d="m41.198 44.321-0.0476-0.0476"/>
   <path d="m41.151 44.273-0.0476-0.0953"/>
   <path d="m41.103 44.178v-0.0952"/>
   <path d="m41.103 44.083 0.0476-0.0952"/>
   <path d="m41.151 43.988 0.0476-0.0477"/>
   <path d="m41.198 43.94 0.0953-0.0476"/>
   <path d="m41.294 43.892h0.238"/>
   <path d="m41.532 43.892 0.1429 0.0476"/>
   <path d="m42.008 43.892 0.2381 1"/>
   <path d="m42.246 44.892 0.1905-0.7143"/>
   <path d="m42.436 44.178 0.1905 0.7143"/>
   <path d="m42.627 44.892 0.2381-1"/>
   <path d="m43.77 44.892h-0.5714"/>
   <path d="m43.484 44.892v-1"/>
   <path d="m43.484 43.892-0.0952 0.1429"/>
   <path d="m43.389 44.035-0.0952 0.0952"/>
   <path d="m43.294 44.13-0.0953 0.0476"/>
   <path d="m44.627 44.226v0.6666"/>
   <path d="m44.389 43.845-0.2381 0.7143"/>
   <path d="m44.151 44.559h0.619"/>
  </g>
  <text x="9.5750" y="25.8875" font-size="1.3333" opacity="0" stroke-opacity="0" text-anchor="middle" lengthAdjust="spacingAndGlyphs" textLength="3.2976">SW7</text>
  <g class="stroked-text">
   <desc>SW7</desc>
   <path d="m8.2417 25.795 0.1428 0.0476"/>
   <path d="m8.3845 25.842h0.2381"/>
   <path d="m8.6226 25.842 0.0953-0.0476"/>
   <path d="m8.7179 25.795 0.0476-0.0476"/>
   <path d="m8.7655 25.747 0.0476-0.0953"/>
   <path d="m8.8131 25.652v-0.0952"/>
   <path d="m8.8131 25.557-0.0476-0.0952"/>
   <path d="m8.7655 25.461-0.0476-0.0477"/>
   <path d="m8.7179 25.414-0.0953-0.0476"/>
   <path d="m8.6226 25.366-0.1905-0.0476"/>
   <path d="m8.4321 25.318-0.0952-0.0476"/>
   <path d="m8.3369 25.271-0.0476-0.0476"/>
   <path d="m8.2893 25.223-0.0476-0.0953"/>
   <path d="m8.2417 25.128v-0.0952"/>
   <path d="m8.2417 25.033 0.0476-0.0952"/>
   <path d="m8.2893 24.938 0.0476-0.0477"/>
   <path d="m8.3369 24.89 0.0952-0.0476"/>
   <path d="m8.4321 24.842h0.2381"/>
   <path d="m8.6702 24.842 0.1429 0.0476"/>
   <path d="m9.1464 24.842 0.2381 1"/>
   <path d="m9.3845 25.842 0.1905-0.7143"/>
   <path d="m9.575 25.128 0.1905 0.7143"/>
   <path d="m9.7655 25.842 0.2381-1"/>
   <path d="m10.289 24.842h0.6667"/>
   <path d="m10.956 24.842-0.4286 1"/>
  </g>
  <text x="28.6250" y="6.8375" font-size="1.3333" opacity="0" stroke-opacity="0" text-anchor="middle" lengthAdjust="spacingAndGlyphs" textLength="3.2976">SW2</text>
  <g class="stroked-text">
   <desc>SW2</desc>
   <path d="m27.292 6.7447 0.1428 0.0476"/>
   <path d="m27.434 6.7923h0.2381"/>
   <path d="m27.673 6.7923 0.0953-0.0476"/>
   <path d="m27.768 6.7447 0.0476-0.0476"/>
   <path d="m27.816 6.6971 0.0476-0.0953"/>
   <path d="m27.863 6.6018v-0.0952"/>
   <path d="m27.863 6.5066-0.0476-0.0952"/>
   <path d="m27.816 6.4114-0.0476-0.0477"/>
   <path d="m27.768 6.3637-0.0953-0.0476"/>
   <path d="m27.673 6.3161-0.1905-0.0476"/>
   <path d="m27.482 6.2685-0.0952-0.0476"/>
   <path d="m27.387 6.2209-0.0476-0.0476"/>
   <path d="m27.339 6.1733-0.0476-0.0953"/>
   <path d="m27.292 6.078v-0.0952"/>
   <path d="m27.292 5.9828 0.0476-0.0952"/>
   <path d="m27.339 5.8876 0.0476-0.0477"/>
   <path d="m27.387 5.8399 0.0952-0.0476"/>
   <path d="m27.482 5.7923h0.2381"/>
   <path d="m27.72 5.7923 0.1429 0.0476"/>
   <path d="m28.196 5.7923 0.2381 1"/>
   <path d="m28.434 6.7923 0.1905-0.7143"/>
   <path d="m28.625 6.078 0.1905 0.7143"/>
   <path d="m28.816 6.7923 0.2381-1"/>
   <path d="m29.387 5.8876 0.0476-0.0477"/>
   <path d="m29.434 5.8399 0.0953-0.0476"/>
   <path d="m29.53 5.7923h0.2381"/>
   <path d="m29.768 5.7923 0.0952 0.0476"/>
   <path d="m29.863 5.8399 0.0476 0.0477"/>
   <path d="m29.911 5.8876 0.0476 0.0952"/>
   <path d="m29.958 5.9828v0.0952"/>
   <path d="m29.958 6.078-0.0476 0.1429"/>
   <path d="m29.911 6.2209-0.5714 0.5714"/>
   <path d="m29.339 6.7923h0.619"/>
  </g>
  <text x="9.5750" y="6.8375" font-size="1.3333" opacity="0" stroke-opacity="0" text-anchor="middle" lengthAdjust="spacingAndGlyphs" textLength="3.2976">SW1</text>
  <g class="stroked-text">
   <desc>SW1</desc>
   <path d="m8.2417 6.7447 0.1428 0.0476"/>
   <path d="m8.3845 6.7923h0.2381"/>
   <path d="m8.6226 6.7923 0.0953-0.0476"/>
   <path d="m8.7179 6.7447 0.0476-0.0476"/>
   <path d="m8.7655 6.6971 0.0476-0.0953"/>
   <path d="m8.8131 6.6018v-0.0952"/>
   <path d="m8.8131 6.5066-0.0476-0.0952"/>
   <path d="m8.7655 6.4114-0.0476-0.0477"/>
   <path d="m8.7179 6.3637-0.0953-0.0476"/>
   <path d="m8.6226 6.3161-0.1905-0.0476"/>
   <path d="m8.4321 6.2685-0.0952-0.0476"/>
   <path d="m8.3369 6.2209-0.0476-0.0476"/>
   <path d="m8.2893 6.1733-0.0476-0.0953"/>
   <path d="m8.2417 6.078v-0.0952"/>
   <path d="m8.2417 5.9828 0.0476-0.0952"/>
   <path d="m8.2893 5.8876 0.0476-0.0477"/>
   <path d="m8.3369 5.8399 0.0952-0.0476"/>
   <path d="m8.4321 5.7923h0.2381"/>
   <path d="m8.6702 5.7923 0.1429 0.0476"/>
   <path d="m9.1464 5.7923 0.2381 1"/>
   <path d="m9.3845 6.7923 0.1905-0.7143"/>
   <path d="m9.575 6.078 0.1905 0.7143"/>
   <path d="m9.7655 6.7923 0.2381-1"/>
   <path d="m10.908 6.7923h-0.5714"/>
   <path d="m10.623 6.7923v-1"/>
   <path d="m10.623 5.7923-0.0952 0.1429"/>
   <path d="m10.527 5.9352-0.0953 0.0952"/>
   <path d="m10.432 6.0304-0.0952 0.0476"/>
  </g>
  <text x="109.5875" y="2.0750" font-size="1.3333" opacity="0" stroke-opacity="0" text-anchor="middle" lengthAdjust="spacingAndGlyphs" textLength="3.2976">SW6</text>
  <g class="stroked-text">
   <desc>SW6</desc>
   <path d="m108.25 1.9822 0.1428 0.0476"/>
   <path d="m108.4 2.0298h0.2381"/>
   <path d="m108.64 2.0298 0.0953-0.0476"/>
   <path d="m108.73 1.9822 0.0476-0.0476"/>
   <path d="m108.78 1.9346 0.0476-0.0953"/>
   <path d="m108.83 1.8393v-0.0952"/>
   <path d="m108.83 1.7441-0.0476-0.0952"/>
   <path d="m108.78 1.6489-0.0476-0.0477"/>
   <path d="m108.73 1.6012-0.0953-0.0476"/>
   <path d="m108.64 1.5536-0.1905-0.0476"/>
   <path d="m108.44 1.506-0.0952-0.0476"/>
   <path d="m108.35 1.4584-0.0476-0.0476"/>
   <path d="m108.3 1.4108-0.0476-0.0953"/>
   <path d="m108.25 1.3155v-0.0952"/>
   <path d="m108.25 1.2203 0.0476-0.0952"/>
   <path d="m108.3 1.1251 0.0476-0.0477"/>
   <path d="m108.35 1.0774 0.0952-0.0476"/>
   <path d="m108.44 1.0298h0.2381"/>
   <path d="m108.68 1.0298 0.1429 0.0476"/>
   <path d="m109.16 1.0298 0.2381 1"/>
   <path d="m109.4 2.0298 0.1905-0.7143"/>
   <path d="m109.59 1.3155 0.1905 0.7143"/>
   <path d="m109.78 2.0298 0.2381-1"/>
   <path d="m110.83 1.0298h-0.1905"/>
   <path d="m110.64 1.0298-0.0952 0.0476"/>
   <path d="m110.54 1.0774-0.0476 0.0477"/>
   <path d="m110.49 1.1251-0.0953 0.1428"/>
   <path d="m110.4 1.2679-0.0476 0.1905"/>
   <path d="m110.35 1.4584v0.3809"/>
   <path d="m110.35 1.8393 0.0476 0.0953"/>
   <path d="m110.4 1.9346 0.0476 0.0476"/>
   <path d="m110.44 1.9822 0.0953 0.0476"/>
   <path d="m110.54 2.0298h0.1905"/>
   <path d="m110.73 2.0298 0.0952-0.0476"/>
   <path d="m110.83 1.9822 0.0476-0.0476"/>
   <path d="m110.87 1.9346 0.0476-0.0953"/>
   <path d="m110.92 1.8393v-0.2381"/>
   <path d="m110.92 1.6012-0.0476-0.0952"/>
   <path d="m110.87 1.506-0.0476-0.0476"/>
   <path d="m110.83 1.4584-0.0952-0.0476"/>
   <path d="m110.73 1.4108h-0.1905"/>
   <path d="m110.54 1.4108-0.0953 0.0476"/>
   <path d="m110.44 1.4584-0.0476 0.0476"/>
   <path d="m110.4 1.506-0.0476 0.0952"/>
  </g>
  <text x="9.5750" y="44.9375" font-size="1.3333" opacity="0" stroke-opacity="0" text-anchor="middle" lengthAdjust="spacingAndGlyphs" textLength="4.2500">SW13</text>
  <g class="stroked-text">
   <desc>SW13</desc>
   <path d="m7.7655 44.845 0.1428 0.0476"/>
   <path d="m7.9083 44.892h0.2381"/>
   <path d="m8.1464 44.892 0.0953-0.0476"/>
   <path d="m8.2417 44.845 0.0476-0.0476"/>
   <path d="m8.2893 44.797 0.0476-0.0953"/>
   <path d="m8.3369 44.702v-0.0952"/>
   <path d="m8.3369 44.607-0.0476-0.0952"/>
   <path d="m8.2893 44.511-0.0476-0.0477"/>
   <path d="m8.2417 44.464-0.0953-0.0476"/>
   <path d="m8.1464 44.416-0.1904-0.0476"/>
   <path d="m7.956 44.368-0.0953-0.0476"/>
   <path d="m7.8607 44.321-0.0476-0.0476"/>
   <path d="m7.8131 44.273-0.0476-0.0953"/>
   <path d="m7.7655 44.178v-0.0952"/>
   <path d="m7.7655 44.083 0.0476-0.0952"/>
   <path d="m7.8131 43.988 0.0476-0.0477"/>
   <path d="m7.8607 43.94 0.0953-0.0476"/>
   <path d="m7.956 43.892h0.238"/>
   <path d="m8.194 43.892 0.1429 0.0476"/>
   <path d="m8.6702 43.892 0.2381 1"/>
   <path d="m8.9083 44.892 0.1905-0.7143"/>
   <path d="m9.0988 44.178 0.1905 0.7143"/>
   <path d="m9.2893 44.892 0.2381-1"/>
   <path d="m10.432 44.892h-0.5714"/>
   <path d="m10.146 44.892v-1"/>
   <path d="m10.146 43.892-0.0952 0.1429"/>
   <path d="m10.051 44.035-0.0952 0.0952"/>
   <path d="m9.956 44.13-0.0953 0.0476"/>
   <path d="m10.766 43.892h0.619"/>
   <path d="m11.384 43.892-0.3333 0.381"/>
   <path d="m11.051 44.273h0.1428"/>
   <path d="m11.194 44.273 0.0953 0.0476"/>
   <path d="m11.289 44.321 0.0476 0.0476"/>
   <path d="m11.337 44.368 0.0476 0.0952"/>
   <path d="m11.384 44.464v0.2381"/>
   <path d="m11.384 44.702-0.0476 0.0953"/>
   <path d="m11.337 44.797-0.0476 0.0476"/>
   <path d="m11.289 44.845-0.0953 0.0476"/>
   <path d="m11.194 44.892h-0.2857"/>
   <path d="m10.908 44.892-0.0952-0.0476"/>
   <path d="m10.813 44.845-0.0476-0.0476"/>
  </g>
  <text x="66.7250" y="6.8375" font-size="1.3333" opacity="0" stroke-opacity="0" text-anchor="middle" lengthAdjust="spacingAndGlyphs" textLength="3.2976">SW4</text>
  <g class="stroked-text">
   <desc>SW4</desc>
   <path d="m65.392 6.7447 0.1428 0.0476"/>
   <path d="m65.534 6.7923h0.2381"/>
   <path d="m65.773 6.7923 0.0953-0.0476"/>
   <path d="m65.868 6.7447 0.0476-0.0476"/>
   <path d="m65.916 6.6971 0.0476-0.0953"/>
   <path d="m65.963 6.6018v-0.0952"/>
   <path d="m65.963 6.5066-0.0476-0.0952"/>
   <path d="m65.916 6.4114-0.0476-0.0477"/>
   <path d="m65.868 6.3637-0.0953-0.0476"/>
   <path d="m65.773 6.3161-0.1905-0.0476"/>
   <path d="m65.582 6.2685-0.0952-0.0476"/>
   <path d="m65.487 6.2209-0.0476-0.0476"/>
   <path d="m65.439 6.1733-0.0476-0.0953"/>
   <path d="m65.392 6.078v-0.0952"/>
   <path d="m65.392 5.9828 0.0476-0.0952"/>
   <path d="m65.439 5.8876 0.0476-0.0477"/>
   <path d="m65.487 5.8399 0.0952-0.0476"/>
   <path d="m65.582 5.7923h0.2381"/>
   <path d="m65.82 5.7923 0.1429 0.0476"/>
   <path d="m66.296 5.7923 0.2381 1"/>
   <path d="m66.534 6.7923 0.1905-0.7143"/>
   <path d="m66.725 6.078 0.1905 0.7143"/>
   <path d="m66.916 6.7923 0.2381-1"/>
   <path d="m67.963 6.1257v0.6666"/>
   <path d="m67.725 5.7447-0.2381 0.7143"/>
   <path d="m67.487 6.459h0.6191"/>
  </g>
 </g>
 <g fill="none" stroke="#8BE9FD" stroke-linecap="round" stroke-linejoin="round" stroke-width=".12">
  <path d="m59.625 26.288v14.2"/>
  <path d="m59.625 40.488h14.2"/>
  <path d="m73.825 26.288h-14.2"/>
  <path d="m73.825 40.488v-14.2"/>
  <path d="m40.575 26.288v14.2"/>
  <path d="m40.575 40.488h14.2"/>
  <path d="m54.775 26.288h-14.2"/>
  <path d="m54.775 40.488v-14.2"/>
  <path d="m78.675 7.2375v14.2"/>
  <path d="m78.675 21.438h14.2"/>
  <path d="m92.875 7.2375h-14.2"/>
  <path d="m92.875 21.438v-14.2"/>
  <path d="m21.525 26.288v14.2"/>
  <path d="m21.525 40.488h14.2"/>
  <path d="m35.725 26.288h-14.2"/>
  <path d="m35.725 40.488v-14.2"/>
  <path d="m78.675 26.288v14.2"/>
  <path d="m78.675 40.488h14.2"/>
  <path d="m92.875 26.288h-14.2"/>
  <path d="m92.875 40.488v-14.2"/>
  <path d="m40.575 7.2375v14.2"/>
  <path d="m40.575 21.438h14.2"/>
  <path d="m54.775 7.2375h-14.2"/>
  <path d="m54.775 21.438v-14.2"/>
  <path d="m66.769 45.338v14.2"/>
  <path d="m66.769 59.538h14.2"/>
  <path d="m80.969 45.338h-14.2"/>
  <path d="m80.969 59.538v-14.2"/>
  <path d="m19.144 45.338v14.2"/>
  <path d="m19.144 59.538h14.2"/>
  <path d="m33.344 45.338h-14.2"/>
  <path d="m33.344 59.538v-14.2"/>
  <path d="m102.49 45.338v14.2"/>
  <path d="m102.49 59.538h14.2"/>
  <path d="m116.69 45.338h-14.2"/>
  <path d="m116.69 59.538v-14.2"/>
  <path d="m102.49 26.288v14.2"/>
  <path d="m102.49 40.488h14.2"/>
  <path d="m116.69 26.288h-14.2"/>
  <path d="m116.69 40.488v-14.2"/>
  <path d="m35.812 45.338v14.2"/>
  <path d="m35.812 59.538h14.2"/>
  <path d="m50.012 45.338h-14.2"/>
  <path d="m50.012 59.538v-14.2"/>
  <path d="m2.475 26.288v14.2"/>
  <path d="m2.475 40.488h14.2"/>
  <path d="m16.675 26.288h-14.2"/>
  <path d="m16.675 40.488v-14.2"/>
  <path d="m21.525 7.2375v14.2"/>
  <path d="m21.525 21.438h14.2"/>
  <path d="m35.725 7.2375h-14.2"/>
  <path d="m35.725 21.438v-14.2"/>
  <path d="m2.475 7.2375v14.2"/>
  <path d="m2.475 21.438h14.2"/>
  <path d="m16.675 7.2375h-14.2"/>
  <path d="m16.675 21.438v-14.2"/>
  <path d="m102.49 2.475v14.2"/>
  <path d="m102.49 16.675h14.2"/>
  <path d="m116.69 2.475h-14.2"/>
  <path d="m116.69 16.675v-14.2"/>
  <path d="m2.475 45.338v14.2"/>
  <path d="m2.475 59.538h14.2"/>
  <path d="m16.675 45.338h-14.2"/>
  <path d="m16.675 59.538v-14.2"/>
  <path d="m59.625 7.2375v14.2"/>
  <path d="m59.625 21.438h14.2"/>
  <path d="m73.825 7.2375h-14.2"/>
  <path d="m73.825 21.438v-14.2"/>
 </g>
 <g fill="#8BE9FD">
  <circle cx="61.645" cy="33.388" r=".875"/>
  <circle cx="66.725" cy="33.388" r="2"/>
  <circle cx="71.805" cy="33.388" r=".875"/>
  <circle cx="62.915" cy="30.848" r=".75"/>
  <circle cx="69.265" cy="28.308" r=".75"/>
  <circle cx="42.595" cy="33.388" r=".875"/>
  <circle cx="47.675" cy="33.388" r="2"/>
  <circle cx="52.755" cy="33.388" r=".875"/>
  <circle cx="43.865" cy="30.848" r=".75"/>
  <circle cx="50.215" cy="28.308" r=".75"/>
  <circle cx="80.695" cy="14.338" r=".875"/>
  <circle cx="85.775" cy="14.338" r="2"/>
  <circle cx="90.855" cy="14.338" r=".875"/>
  <circle cx="81.965" cy="11.798" r=".75"/>
  <circle cx="88.315" cy="9.2575" r=".75"/>
  <circle cx="23.545" cy="33.388" r=".875"/>
  <circle cx="28.625" cy="33.388" r="2"/>
  <circle cx="33.705" cy="33.388" r=".875"/>
  <circle cx="24.815" cy="30.848" r=".75"/>
  <circle cx="31.165" cy="28.308" r=".75"/>
  <circle cx="80.695" cy="33.388" r=".875"/>
  <circle cx="85.775" cy="33.388" r="2"/>
  <circle cx="90.855" cy="33.388" r=".875"/>
  <circle cx="81.965" cy="30.848" r=".75"/>
  <circle cx="88.315" cy="28.308" r=".75"/>
  <circle cx="42.595" cy="14.338" r=".875"/>
  <circle cx="47.675" cy="14.338" r="2"/>
  <circle cx="52.755" cy="14.338" r=".875"/>
  <circle cx="43.865" cy="11.798" r=".75"/>
  <circle cx="50.215" cy="9.2575" r=".75"/>
  <circle cx="68.789" cy="52.438" r=".875"/>
  <circle cx="73.869" cy="52.438" r="2"/>
  <circle cx="78.949" cy="52.438" r=".875"/>
  <circle cx="70.059" cy="49.898" r=".75"/>
  <circle cx="76.409" cy="47.358" r=".75"/>
  <circle cx="21.164" cy="52.438" r=".875"/>
  <circle cx="26.244" cy="52.438" r="2"/>
  <circle cx="31.324" cy="52.438" r=".875"/>
  <circle cx="22.434" cy="49.898" r=".75"/>
  <circle cx="28.784" cy="47.358" r=".75"/>
  <circle cx="104.51" cy="52.438" r=".875"/>
  <circle cx="109.59" cy="52.438" r="2"/>
  <circle cx="114.67" cy="52.438" r=".875"/>
  <circle cx="105.78" cy="49.898" r=".75"/>
  <circle cx="112.13" cy="47.358" r=".75"/>
  <circle cx="104.51" cy="33.388" r=".875"/>
  <circle cx="109.59" cy="33.388" r="2"/>
  <circle cx="114.67" cy="33.388" r=".875"/>
  <circle cx="105.78" cy="30.848" r=".75"/>
  <circle cx="112.13" cy="28.308" r=".75"/>
  <circle cx="37.832" cy="52.438" r=".875"/>
  <circle cx="42.912" cy="52.438" r="2"/>
  <circle cx="47.992" cy="52.438" r=".875"/>
  <circle cx="39.102" cy="49.898" r=".75"/>
  <circle cx="45.452" cy="47.358" r=".75"/>
  <circle cx="4.495" cy="33.388" r=".875"/>
  <circle cx="9.575" cy="33.388" r="2"/>
  <circle cx="14.655" cy="33.388" r=".875"/>
  <circle cx="5.765" cy="30.848" r=".75"/>
  <circle cx="12.115" cy="28.308" r=".75"/>
  <circle cx="23.545" cy="14.338" r=".875"/>
  <circle cx="28.625" cy="14.338" r="2"/>
  <circle cx="33.705" cy="14.338" r=".875"/>
  <circle cx="24.815" cy="11.798" r=".75"/>
  <circle cx="31.165" cy="9.2575" r=".75"/>
  <circle cx="4.495" cy="14.338" r=".875"/>
  <circle cx="9.575" cy="14.338" r="2"/>
  <circle cx="14.655" cy="14.338" r=".875"/>
  <circle cx="5.765" cy="11.798" r=".75"/>
  <circle cx="12.115" cy="9.2575" r=".75"/>
  <circle cx="104.51" cy="9.575" r=".875"/>
  <circle cx="109.59" cy="9.575" r="2"/>
  <circle cx="114.67" cy="9.575" r=".875"/>
  <circle cx="105.78" cy="7.035" r=".75"/>
  <circle cx="112.13" cy="4.495" r=".75"/>
  <circle cx="4.495" cy="52.438" r=".875"/>
  <circle cx="9.575" cy="52.438" r="2"/>
  <circle cx="14.655" cy="52.438" r=".875"/>
  <circle cx="5.765" cy="49.898" r=".75"/>
  <circle cx="12.115" cy="47.358" r=".75"/>
  <circle cx="61.645" cy="14.338" r=".875"/>
  <circle cx="66.725" cy="14.338" r="2"/>
  <circle cx="71.805" cy="14.338" r=".875"/>
  <circle cx="62.915" cy="11.798" r=".75"/>
  <circle cx="69.265" cy="9.2575" r=".75"/>
 </g>
 <g fill="none" stroke="#BD93F9" stroke-linecap="round" stroke-linejoin="round" stroke-width=".15">
  <g transform="rotate(-90 73.71 18.464)">
   <text transform="scale(-1 1) translate(-147.42)" x="73.7100" y="18.9645" font-size="1.3333" opacity="0" stroke-opacity="0" text-anchor="middle" lengthAdjust="spacingAndGlyphs" textLength="2.2024">D4</text>
  </g>
  <g class="stroked-text">
   <desc>D4</desc>
   <path d="m74.165 17.726h-1"/>
   <path d="m73.165 17.726v0.2381"/>
   <path d="m73.165 17.964 0.0476 0.1429"/>
   <path d="m73.212 18.107 0.0953 0.0952"/>
   <path d="m73.308 18.203 0.0952 0.0476"/>
   <path d="m73.403 18.25 0.1905 0.0476"/>
   <path d="m73.593 18.298h0.1428"/>
   <path d="m73.736 18.298 0.1905-0.0476"/>
   <path d="m73.927 18.25 0.0953-0.0476"/>
   <path d="m74.022 18.203 0.0952-0.0952"/>
   <path d="m74.117 18.107 0.0476-0.1429"/>
   <path d="m74.165 17.964v-0.2381"/>
   <path d="m73.498 19.155h0.6666"/>
   <path d="m73.117 18.917 0.7143-0.2381"/>
   <path d="m73.832 18.679v0.619"/>
  </g>
  <g transform="rotate(-90 49.898 56.564)">
   <text transform="scale(-1 1) translate(-99.795)" x="49.8975" y="57.0645" font-size="1.3333" opacity="0" stroke-opacity="0" text-anchor="middle" lengthAdjust="spacingAndGlyphs" textLength="3.1548">D14</text>
  </g>
  <g class="stroked-text">
   <desc>D14</desc>
   <path d="m50.352 55.35h-1"/>
   <path d="m49.352 55.35v0.2381"/>
   <path d="m49.352 55.588 0.0476 0.1429"/>
   <path d="m49.4 55.731 0.0953 0.0952"/>
   <path d="m49.495 55.826 0.0952 0.0476"/>
   <path d="m49.59 55.874 0.1905 0.0476"/>
   <path d="m49.781 55.922h0.1428"/>
   <path d="m49.924 55.922 0.1905-0.0476"/>
   <path d="m50.114 55.874 0.0953-0.0476"/>
   <path d="m50.21 55.826 0.0952-0.0952"/>
   <path d="m50.305 55.731 0.0476-0.1429"/>
   <path d="m50.352 55.588v-0.2381"/>
   <path d="m50.352 56.874v-0.5714"/>
   <path d="m50.352 56.588h-1"/>
   <path d="m49.352 56.588 0.1429-0.0952"/>
   <path d="m49.495 56.493 0.0952-0.0953"/>
   <path d="m49.59 56.398 0.0476-0.0952"/>
   <path d="m49.686 57.731h0.6666"/>
   <path d="m49.305 57.493 0.7143-0.2381"/>
   <path d="m50.019 57.255v0.619"/>
  </g>
  <g transform="rotate(-90 54.66 18.464)">
   <text transform="scale(-1 1) translate(-109.32)" x="54.6600" y="18.9645" font-size="1.3333" opacity="0" stroke-opacity="0" text-anchor="middle" lengthAdjust="spacingAndGlyphs" textLength="2.2024">D3</text>
  </g>
  <g class="stroked-text">
   <desc>D3</desc>
   <path d="m55.115 17.726h-1"/>
   <path d="m54.115 17.726v0.2381"/>
   <path d="m54.115 17.964 0.0476 0.1429"/>
   <path d="m54.162 18.107 0.0953 0.0952"/>
   <path d="m54.258 18.203 0.0952 0.0476"/>
   <path d="m54.353 18.25 0.1905 0.0476"/>
   <path d="m54.543 18.298h0.1428"/>
   <path d="m54.686 18.298 0.1905-0.0476"/>
   <path d="m54.877 18.25 0.0953-0.0476"/>
   <path d="m54.972 18.203 0.0952-0.0952"/>
   <path d="m55.067 18.107 0.0476-0.1429"/>
   <path d="m55.115 17.964v-0.2381"/>
   <path d="m54.115 18.631v0.619"/>
   <path d="m54.115 19.25 0.381-0.3333"/>
   <path d="m54.496 18.917v0.1428"/>
   <path d="m54.496 19.06 0.0476 0.0953"/>
   <path d="m54.543 19.155 0.0476 0.0476"/>
   <path d="m54.591 19.203 0.0952 0.0476"/>
   <path d="m54.686 19.25h0.2381"/>
   <path d="m54.924 19.25 0.0953-0.0476"/>
   <path d="m55.02 19.203 0.0476-0.0476"/>
   <path d="m55.067 19.155 0.0476-0.0953"/>
   <path d="m55.115 19.06v-0.2857"/>
   <path d="m55.115 18.774-0.0476-0.0952"/>
   <path d="m55.067 18.679-0.0476-0.0476"/>
  </g>
  <g transform="rotate(-90 116.57 56.564)">
   <text transform="scale(-1 1) translate(-233.14)" x="116.5725" y="57.0645" font-size="1.3333" opacity="0" stroke-opacity="0" text-anchor="middle" lengthAdjust="spacingAndGlyphs" textLength="3.1548">D16</text>
  </g>
  <g class="stroked-text">
   <desc>D16</desc>
   <path d="m117.03 55.35h-1"/>
   <path d="m116.03 55.35v0.2381"/>
   <path d="m116.03 55.588 0.0476 0.1429"/>
   <path d="m116.07 55.731 0.0953 0.0952"/>
   <path d="m116.17 55.826 0.0952 0.0476"/>
   <path d="m116.27 55.874 0.1905 0.0476"/>
   <path d="m116.46 55.922h0.1428"/>
   <path d="m116.6 55.922 0.1905-0.0476"/>
   <path d="m116.79 55.874 0.0953-0.0476"/>
   <path d="m116.88 55.826 0.0952-0.0952"/>
   <path d="m116.98 55.731 0.0476-0.1429"/>
   <path d="m117.03 55.588v-0.2381"/>
   <path d="m117.03 56.874v-0.5714"/>
   <path d="m117.03 56.588h-1"/>
   <path d="m116.03 56.588 0.1429-0.0952"/>
   <path d="m116.17 56.493 0.0952-0.0953"/>
   <path d="m116.27 56.398 0.0476-0.0952"/>
   <path d="m116.03 57.731v-0.1905"/>
   <path d="m116.03 57.541 0.0476-0.0952"/>
   <path d="m116.07 57.446 0.0477-0.0477"/>
   <path d="m116.12 57.398 0.1428-0.0952"/>
   <path d="m116.27 57.303 0.1905-0.0476"/>
   <path d="m116.46 57.255h0.3809"/>
   <path d="m116.84 57.255 0.0953 0.0476"/>
   <path d="m116.93 57.303 0.0476 0.0476"/>
   <path d="m116.98 57.35 0.0476 0.0953"/>
   <path d="m117.03 57.446v0.1904"/>
   <path d="m117.03 57.636-0.0476 0.0953"/>
   <path d="m116.98 57.731-0.0476 0.0476"/>
   <path d="m116.93 57.779-0.0953 0.0476"/>
   <path d="m116.84 57.826h-0.2381"/>
   <path d="m116.6 57.826-0.0952-0.0476"/>
   <path d="m116.5 57.779-0.0476-0.0476"/>
   <path d="m116.46 57.731-0.0476-0.0953"/>
   <path d="m116.41 57.636v-0.1904"/>
   <path d="m116.41 57.446 0.0476-0.0953"/>
   <path d="m116.46 57.35 0.0476-0.0476"/>
   <path d="m116.5 57.303 0.0952-0.0476"/>
  </g>
  <g transform="rotate(-90 35.61 37.514)">
   <text transform="scale(-1 1) translate(-71.22)" x="35.6100" y="38.0145" font-size="1.3333" opacity="0" stroke-opacity="0" text-anchor="middle" lengthAdjust="spacingAndGlyphs" textLength="2.2024">D8</text>
  </g>
  <g class="stroked-text">
   <desc>D8</desc>
   <path d="m36.065 36.776h-1"/>
   <path d="m35.065 36.776v0.2381"/>
   <path d="m35.065 37.014 0.0476 0.1429"/>
   <path d="m35.112 37.157 0.0953 0.0952"/>
   <path d="m35.208 37.253 0.0952 0.0476"/>
   <path d="m35.303 37.3 0.1905 0.0476"/>
   <path d="m35.493 37.348h0.1428"/>
   <path d="m35.636 37.348 0.1905-0.0476"/>
   <path d="m35.827 37.3 0.0953-0.0476"/>
   <path d="m35.922 37.253 0.0952-0.0952"/>
   <path d="m36.017 37.157 0.0476-0.1429"/>
   <path d="m36.065 37.014v-0.2381"/>
   <path d="m35.493 37.919-0.0476-0.0953"/>
   <path d="m35.446 37.824-0.0476-0.0476"/>
   <path d="m35.398 37.776-0.0953-0.0476"/>
   <path d="m35.303 37.729h-0.0476"/>
   <path d="m35.255 37.729-0.0952 0.0476"/>
   <path d="m35.16 37.776-0.0477 0.0476"/>
   <path d="m35.112 37.824-0.0476 0.0953"/>
   <path d="m35.065 37.919v0.1904"/>
   <path d="m35.065 38.11 0.0476 0.0953"/>
   <path d="m35.112 38.205 0.0477 0.0476"/>
   <path d="m35.16 38.253 0.0952 0.0476"/>
   <path d="m35.255 38.3h0.0476"/>
   <path d="m35.303 38.3 0.0953-0.0476"/>
   <path d="m35.398 38.253 0.0476-0.0476"/>
   <path d="m35.446 38.205 0.0476-0.0953"/>
   <path d="m35.493 38.11v-0.1904"/>
   <path d="m35.493 37.919 0.0476-0.0953"/>
   <path d="m35.541 37.824 0.0476-0.0476"/>
   <path d="m35.589 37.776 0.0953-0.0476"/>
   <path d="m35.684 37.729h0.1904"/>
   <path d="m35.874 37.729 0.0953 0.0476"/>
   <path d="m35.97 37.776 0.0476 0.0476"/>
   <path d="m36.017 37.824 0.0476 0.0953"/>
   <path d="m36.065 37.919v0.1904"/>
   <path d="m36.065 38.11-0.0476 0.0953"/>
   <path d="m36.017 38.205-0.0476 0.0476"/>
   <path d="m35.97 38.253-0.0953 0.0476"/>
   <path d="m35.874 38.3h-0.1904"/>
   <path d="m35.684 38.3-0.0953-0.0476"/>
   <path d="m35.589 38.253-0.0476-0.0476"/>
   <path d="m35.541 38.205-0.0476-0.0953"/>
  </g>
  <g transform="rotate(-90 80.854 56.564)">
   <text transform="scale(-1 1) translate(-161.71)" x="80.8537" y="57.0645" font-size="1.3333" opacity="0" stroke-opacity="0" text-anchor="middle" lengthAdjust="spacingAndGlyphs" textLength="3.1548">D15</text>
  </g>
  <g class="stroked-text">
   <desc>D15</desc>
   <path d="m81.309 55.35h-1"/>
   <path d="m80.309 55.35v0.2381"/>
   <path d="m80.309 55.588 0.0476 0.1429"/>
   <path d="m80.356 55.731 0.0952 0.0952"/>
   <path d="m80.451 55.826 0.0953 0.0476"/>
   <path d="m80.547 55.874 0.1904 0.0476"/>
   <path d="m80.737 55.922h0.1429"/>
   <path d="m80.88 55.922 0.1905-0.0476"/>
   <path d="m81.07 55.874 0.0952-0.0476"/>
   <path d="m81.166 55.826 0.0952-0.0952"/>
   <path d="m81.261 55.731 0.0477-0.1429"/>
   <path d="m81.309 55.588v-0.2381"/>
   <path d="m81.309 56.874v-0.5714"/>
   <path d="m81.309 56.588h-1"/>
   <path d="m80.309 56.588 0.1428-0.0952"/>
   <path d="m80.451 56.493 0.0953-0.0953"/>
   <path d="m80.547 56.398 0.0476-0.0952"/>
   <path d="m80.309 57.779v-0.4762"/>
   <path d="m80.309 57.303 0.4762-0.0476"/>
   <path d="m80.785 57.255-0.0477 0.0476"/>
   <path d="m80.737 57.303-0.0476 0.0952"/>
   <path d="m80.69 57.398v0.2381"/>
   <path d="m80.69 57.636 0.0476 0.0953"/>
   <path d="m80.737 57.731 0.0477 0.0476"/>
   <path d="m80.785 57.779 0.0952 0.0476"/>
   <path d="m80.88 57.826h0.2381"/>
   <path d="m81.118 57.826 0.0952-0.0476"/>
   <path d="m81.213 57.779 0.0476-0.0476"/>
   <path d="m81.261 57.731 0.0477-0.0953"/>
   <path d="m81.309 57.636v-0.2381"/>
   <path d="m81.309 57.398-0.0477-0.0952"/>
   <path d="m81.261 57.303-0.0476-0.0476"/>
  </g>
  <g transform="rotate(-90 92.76 37.514)">
   <text transform="scale(-1 1) translate(-185.52)" x="92.7600" y="38.0145" font-size="1.3333" opacity="0" stroke-opacity="0" text-anchor="middle" lengthAdjust="spacingAndGlyphs" textLength="3.1548">D11</text>
  </g>
  <g class="stroked-text">
   <desc>D11</desc>
   <path d="m93.215 36.3h-1"/>
   <path d="m92.215 36.3v0.2381"/>
   <path d="m92.215 36.538 0.0476 0.1429"/>
   <path d="m92.262 36.681 0.0953 0.0952"/>
   <path d="m92.358 36.776 0.0952 0.0476"/>
   <path d="m92.453 36.824 0.1905 0.0476"/>
   <path d="m92.643 36.872h0.1428"/>
   <path d="m92.786 36.872 0.1905-0.0476"/>
   <path d="m92.977 36.824 0.0953-0.0476"/>
   <path d="m93.072 36.776 0.0952-0.0952"/>
   <path d="m93.167 36.681 0.0476-0.1429"/>
   <path d="m93.215 36.538v-0.2381"/>
   <path d="m93.215 37.824v-0.5714"/>
   <path d="m93.215 37.538h-1"/>
   <path d="m92.215 37.538 0.1429-0.0952"/>
   <path d="m92.358 37.443 0.0952-0.0953"/>
   <path d="m92.453 37.348 0.0476-0.0952"/>
   <path d="m93.215 38.776v-0.5714"/>
   <path d="m93.215 38.491h-1"/>
   <path d="m92.215 38.491 0.1429-0.0952"/>
   <path d="m92.358 38.396 0.0952-0.0953"/>
   <path d="m92.453 38.3 0.0476-0.0952"/>
  </g>
  <g transform="rotate(-90 16.56 56.564)">
   <text transform="scale(-1 1) translate(-33.12)" x="16.5600" y="57.0645" font-size="1.3333" opacity="0" stroke-opacity="0" text-anchor="middle" lengthAdjust="spacingAndGlyphs" textLength="3.1548">D13</text>
  </g>
  <g class="stroked-text">
   <desc>D13</desc>
   <path d="m17.015 55.35h-1"/>
   <path d="m16.015 55.35v0.2381"/>
   <path d="m16.015 55.588 0.0476 0.1429"/>
   <path d="m16.062 55.731 0.0953 0.0952"/>
   <path d="m16.158 55.826 0.0952 0.0476"/>
   <path d="m16.253 55.874 0.1905 0.0476"/>
   <path d="m16.443 55.922h0.1428"/>
   <path d="m16.586 55.922 0.1905-0.0476"/>
   <path d="m16.777 55.874 0.0953-0.0476"/>
   <path d="m16.872 55.826 0.0952-0.0952"/>
   <path d="m16.967 55.731 0.0476-0.1429"/>
   <path d="m17.015 55.588v-0.2381"/>
   <path d="m17.015 56.874v-0.5714"/>
   <path d="m17.015 56.588h-1"/>
   <path d="m16.015 56.588 0.1429-0.0952"/>
   <path d="m16.158 56.493 0.0952-0.0953"/>
   <path d="m16.253 56.398 0.0476-0.0952"/>
   <path d="m16.015 57.207v0.619"/>
   <path d="m16.015 57.826 0.381-0.3333"/>
   <path d="m16.396 57.493v0.1428"/>
   <path d="m16.396 57.636 0.0476 0.0953"/>
   <path d="m16.443 57.731 0.0476 0.0476"/>
   <path d="m16.491 57.779 0.0952 0.0476"/>
   <path d="m16.586 57.826h0.2381"/>
   <path d="m16.824 57.826 0.0953-0.0476"/>
   <path d="m16.92 57.779 0.0476-0.0476"/>
   <path d="m16.967 57.731 0.0476-0.0953"/>
   <path d="m17.015 57.636v-0.2857"/>
   <path d="m17.015 57.35-0.0476-0.0952"/>
   <path d="m16.967 57.255-0.0476-0.0476"/>
  </g>
  <g transform="rotate(-90 116.57 13.702)">
   <text transform="scale(-1 1) translate(-233.14)" x="116.5725" y="14.2020" font-size="1.3333" opacity="0" stroke-opacity="0" text-anchor="middle" lengthAdjust="spacingAndGlyphs" textLength="2.2024">D6</text>
  </g>
  <g class="stroked-text">
   <desc>D6</desc>
   <path d="m117.03 12.964h-1"/>
   <path d="m116.03 12.964v0.2381"/>
   <path d="m116.03 13.202 0.0476 0.1429"/>
   <path d="m116.07 13.345 0.0953 0.0952"/>
   <path d="m116.17 13.44 0.0952 0.0476"/>
   <path d="m116.27 13.488 0.1905 0.0476"/>
   <path d="m116.46 13.535h0.1428"/>
   <path d="m116.6 13.535 0.1905-0.0476"/>
   <path d="m116.79 13.488 0.0953-0.0476"/>
   <path d="m116.88 13.44 0.0952-0.0952"/>
   <path d="m116.98 13.345 0.0476-0.1429"/>
   <path d="m117.03 13.202v-0.2381"/>
   <path d="m116.03 14.392v-0.1905"/>
   <path d="m116.03 14.202 0.0476-0.0952"/>
   <path d="m116.07 14.107 0.0477-0.0477"/>
   <path d="m116.12 14.059 0.1428-0.0952"/>
   <path d="m116.27 13.964 0.1905-0.0476"/>
   <path d="m116.46 13.916h0.3809"/>
   <path d="m116.84 13.916 0.0953 0.0476"/>
   <path d="m116.93 13.964 0.0476 0.0476"/>
   <path d="m116.98 14.012 0.0476 0.0953"/>
   <path d="m117.03 14.107v0.1904"/>
   <path d="m117.03 14.297-0.0476 0.0953"/>
   <path d="m116.98 14.392-0.0476 0.0476"/>
   <path d="m116.93 14.44-0.0953 0.0476"/>
   <path d="m116.84 14.488h-0.2381"/>
   <path d="m116.6 14.488-0.0952-0.0476"/>
   <path d="m116.5 14.44-0.0476-0.0476"/>
   <path d="m116.46 14.392-0.0476-0.0953"/>
   <path d="m116.41 14.297v-0.1904"/>
   <path d="m116.41 14.107 0.0476-0.0953"/>
   <path d="m116.46 14.012 0.0476-0.0476"/>
   <path d="m116.5 13.964 0.0952-0.0476"/>
  </g>
  <g transform="rotate(-90 16.56 37.514)">
   <text transform="scale(-1 1) translate(-33.12)" x="16.5600" y="38.0145" font-size="1.3333" opacity="0" stroke-opacity="0" text-anchor="middle" lengthAdjust="spacingAndGlyphs" textLength="2.2024">D7</text>
  </g>
  <g class="stroked-text">
   <desc>D7</desc>
   <path d="m17.015 36.776h-1"/>
   <path d="m16.015 36.776v0.2381"/>
   <path d="m16.015 37.014 0.0476 0.1429"/>
   <path d="m16.062 37.157 0.0953 0.0952"/>
   <path d="m16.158 37.253 0.0952 0.0476"/>
   <path d="m16.253 37.3 0.1905 0.0476"/>
   <path d="m16.443 37.348h0.1428"/>
   <path d="m16.586 37.348 0.1905-0.0476"/>
   <path d="m16.777 37.3 0.0953-0.0476"/>
   <path d="m16.872 37.253 0.0952-0.0952"/>
   <path d="m16.967 37.157 0.0476-0.1429"/>
   <path d="m17.015 37.014v-0.2381"/>
   <path d="m16.015 37.681v0.6666"/>
   <path d="m16.015 38.348 1-0.4285"/>
  </g>
  <g transform="rotate(-90 116.57 37.514)">
   <text transform="scale(-1 1) translate(-233.14)" x="116.5725" y="38.0145" font-size="1.3333" opacity="0" stroke-opacity="0" text-anchor="middle" lengthAdjust="spacingAndGlyphs" textLength="3.1548">D12</text>
  </g>
  <g class="stroked-text">
   <desc>D12</desc>
   <path d="m117.03 36.3h-1"/>
   <path d="m116.03 36.3v0.2381"/>
   <path d="m116.03 36.538 0.0476 0.1429"/>
   <path d="m116.07 36.681 0.0953 0.0952"/>
   <path d="m116.17 36.776 0.0952 0.0476"/>
   <path d="m116.27 36.824 0.1905 0.0476"/>
   <path d="m116.46 36.872h0.1428"/>
   <path d="m116.6 36.872 0.1905-0.0476"/>
   <path d="m116.79 36.824 0.0953-0.0476"/>
   <path d="m116.88 36.776 0.0952-0.0952"/>
   <path d="m116.98 36.681 0.0476-0.1429"/>
   <path d="m117.03 36.538v-0.2381"/>
   <path d="m117.03 37.824v-0.5714"/>
   <path d="m117.03 37.538h-1"/>
   <path d="m116.03 37.538 0.1429-0.0952"/>
   <path d="m116.17 37.443 0.0952-0.0953"/>
   <path d="m116.27 37.348 0.0476-0.0952"/>
   <path d="m116.12 38.205-0.0477 0.0476"/>
   <path d="m116.07 38.253-0.0476 0.0952"/>
   <path d="m116.03 38.348v0.2381"/>
   <path d="m116.03 38.586 0.0476 0.0953"/>
   <path d="m116.07 38.681 0.0477 0.0476"/>
   <path d="m116.12 38.729 0.0952 0.0476"/>
   <path d="m116.22 38.776h0.0952"/>
   <path d="m116.31 38.776 0.1429-0.0476"/>
   <path d="m116.46 38.729 0.5714-0.5714"/>
   <path d="m117.03 38.157v0.619"/>
  </g>
  <g transform="rotate(-90 92.76 18.464)">
   <text transform="scale(-1 1) translate(-185.52)" x="92.7600" y="18.9645" font-size="1.3333" opacity="0" stroke-opacity="0" text-anchor="middle" lengthAdjust="spacingAndGlyphs" textLength="2.2024">D5</text>
  </g>
  <g class="stroked-text">
   <desc>D5</desc>
   <path d="m93.215 17.726h-1"/>
   <path d="m92.215 17.726v0.2381"/>
   <path d="m92.215 17.964 0.0476 0.1429"/>
   <path d="m92.262 18.107 0.0953 0.0952"/>
   <path d="m92.358 18.203 0.0952 0.0476"/>
   <path d="m92.453 18.25 0.1905 0.0476"/>
   <path d="m92.643 18.298h0.1428"/>
   <path d="m92.786 18.298 0.1905-0.0476"/>
   <path d="m92.977 18.25 0.0953-0.0476"/>
   <path d="m93.072 18.203 0.0952-0.0952"/>
   <path d="m93.167 18.107 0.0476-0.1429"/>
   <path d="m93.215 17.964v-0.2381"/>
   <path d="m92.215 19.203v-0.4762"/>
   <path d="m92.215 18.726 0.4762-0.0476"/>
   <path d="m92.691 18.679-0.0476 0.0476"/>
   <path d="m92.643 18.726-0.0476 0.0952"/>
   <path d="m92.596 18.822v0.2381"/>
   <path d="m92.596 19.06 0.0476 0.0953"/>
   <path d="m92.643 19.155 0.0476 0.0476"/>
   <path d="m92.691 19.203 0.0952 0.0476"/>
   <path d="m92.786 19.25h0.2381"/>
   <path d="m93.024 19.25 0.0953-0.0476"/>
   <path d="m93.12 19.203 0.0476-0.0476"/>
   <path d="m93.167 19.155 0.0476-0.0953"/>
   <path d="m93.215 19.06v-0.2381"/>
   <path d="m93.215 18.822-0.0476-0.0952"/>
   <path d="m93.167 18.726-0.0476-0.0476"/>
  </g>
  <g transform="rotate(-90 35.61 18.464)">
   <text transform="scale(-1 1) translate(-71.22)" x="35.6100" y="18.9645" font-size="1.3333" opacity="0" stroke-opacity="0" text-anchor="middle" lengthAdjust="spacingAndGlyphs" textLength="2.2024">D2</text>
  </g>
  <g class="stroked-text">
   <desc>D2</desc>
   <path d="m36.065 17.726h-1"/>
   <path d="m35.065 17.726v0.2381"/>
   <path d="m35.065 17.964 0.0476 0.1429"/>
   <path d="m35.112 18.107 0.0953 0.0952"/>
   <path d="m35.208 18.203 0.0952 0.0476"/>
   <path d="m35.303 18.25 0.1905 0.0476"/>
   <path d="m35.493 18.298h0.1428"/>
   <path d="m35.636 18.298 0.1905-0.0476"/>
   <path d="m35.827 18.25 0.0953-0.0476"/>
   <path d="m35.922 18.203 0.0952-0.0952"/>
   <path d="m36.017 18.107 0.0476-0.1429"/>
   <path d="m36.065 17.964v-0.2381"/>
   <path d="m35.16 18.679-0.0477 0.0476"/>
   <path d="m35.112 18.726-0.0476 0.0952"/>
   <path d="m35.065 18.822v0.2381"/>
   <path d="m35.065 19.06 0.0476 0.0953"/>
   <path d="m35.112 19.155 0.0477 0.0476"/>
   <path d="m35.16 19.203 0.0952 0.0476"/>
   <path d="m35.255 19.25h0.0952"/>
   <path d="m35.35 19.25 0.1429-0.0476"/>
   <path d="m35.493 19.203 0.5714-0.5714"/>
   <path d="m36.065 18.631v0.619"/>
  </g>
  <g transform="rotate(-90 73.71 37.514)">
   <text transform="scale(-1 1) translate(-147.42)" x="73.7100" y="38.0145" font-size="1.3333" opacity="0" stroke-opacity="0" text-anchor="middle" lengthAdjust="spacingAndGlyphs" textLength="3.1548">D10</text>
  </g>
  <g class="stroked-text">
   <desc>D10</desc>
   <path d="m74.165 36.3h-1"/>
   <path d="m73.165 36.3v0.2381"/>
   <path d="m73.165 36.538 0.0476 0.1429"/>
   <path d="m73.212 36.681 0.0953 0.0952"/>
   <path d="m73.308 36.776 0.0952 0.0476"/>
   <path d="m73.403 36.824 0.1905 0.0476"/>
   <path d="m73.593 36.872h0.1428"/>
   <path d="m73.736 36.872 0.1905-0.0476"/>
   <path d="m73.927 36.824 0.0953-0.0476"/>
   <path d="m74.022 36.776 0.0952-0.0952"/>
   <path d="m74.117 36.681 0.0476-0.1429"/>
   <path d="m74.165 36.538v-0.2381"/>
   <path d="m74.165 37.824v-0.5714"/>
   <path d="m74.165 37.538h-1"/>
   <path d="m73.165 37.538 0.1429-0.0952"/>
   <path d="m73.308 37.443 0.0952-0.0953"/>
   <path d="m73.403 37.348 0.0476-0.0952"/>
   <path d="m73.165 38.443v0.0952"/>
   <path d="m73.165 38.538 0.0476 0.0952"/>
   <path d="m73.212 38.634 0.0477 0.0477"/>
   <path d="m73.26 38.681 0.0952 0.0476"/>
   <path d="m73.355 38.729 0.1905 0.0476"/>
   <path d="m73.546 38.776h0.2381"/>
   <path d="m73.784 38.776 0.1904-0.0476"/>
   <path d="m73.974 38.729 0.0953-0.0476"/>
   <path d="m74.07 38.681 0.0476-0.0477"/>
   <path d="m74.117 38.634 0.0476-0.0952"/>
   <path d="m74.165 38.538v-0.0952"/>
   <path d="m74.165 38.443-0.0476-0.0953"/>
   <path d="m74.117 38.348-0.0476-0.0476"/>
   <path d="m74.07 38.3-0.0953-0.0476"/>
   <path d="m73.974 38.253-0.1904-0.0476"/>
   <path d="m73.784 38.205h-0.2381"/>
   <path d="m73.546 38.205-0.1905 0.0476"/>
   <path d="m73.355 38.253-0.0952 0.0476"/>
   <path d="m73.26 38.3-0.0477 0.0476"/>
   <path d="m73.212 38.348-0.0476 0.0953"/>
  </g>
  <g transform="rotate(-90 54.66 37.514)">
   <text transform="scale(-1 1) translate(-109.32)" x="54.6600" y="38.0145" font-size="1.3333" opacity="0" stroke-opacity="0" text-anchor="middle" lengthAdjust="spacingAndGlyphs" textLength="2.2024">D9</text>
  </g>
  <g class="stroked-text">
   <desc>D9</desc>
   <path d="m55.115 36.776h-1"/>
   <path d="m54.115 36.776v0.2381"/>
   <path d="m54.115 37.014 0.0476 0.1429"/>
   <path d="m54.162 37.157 0.0953 0.0952"/>
   <path d="m54.258 37.253 0.0952 0.0476"/>
   <path d="m54.353 37.3 0.1905 0.0476"/>
   <path d="m54.543 37.348h0.1428"/>
   <path d="m54.686 37.348 0.1905-0.0476"/>
   <path d="m54.877 37.3 0.0953-0.0476"/>
   <path d="m54.972 37.253 0.0952-0.0952"/>
   <path d="m55.067 37.157 0.0476-0.1429"/>
   <path d="m55.115 37.014v-0.2381"/>
   <path d="m55.115 37.824v0.1905"/>
   <path d="m55.115 38.014-0.0476 0.0952"/>
   <path d="m55.067 38.11-0.0476 0.0477"/>
   <path d="m55.02 38.157-0.1429 0.0952"/>
   <path d="m54.877 38.253-0.1905 0.0476"/>
   <path d="m54.686 38.3h-0.3809"/>
   <path d="m54.305 38.3-0.0952-0.0476"/>
   <path d="m54.21 38.253-0.0477-0.0476"/>
   <path d="m54.162 38.205-0.0476-0.0953"/>
   <path d="m54.115 38.11v-0.1904"/>
   <path d="m54.115 37.919 0.0476-0.0953"/>
   <path d="m54.162 37.824 0.0477-0.0476"/>
   <path d="m54.21 37.776 0.0952-0.0476"/>
   <path d="m54.305 37.729h0.2381"/>
   <path d="m54.543 37.729 0.0952 0.0476"/>
   <path d="m54.639 37.776 0.0476 0.0476"/>
   <path d="m54.686 37.824 0.0477 0.0953"/>
   <path d="m54.734 37.919v0.1904"/>
   <path d="m54.734 38.11-0.0477 0.0953"/>
   <path d="m54.686 38.205-0.0476 0.0476"/>
   <path d="m54.639 38.253-0.0952 0.0476"/>
  </g>
  <g transform="rotate(-90 16.56 18.464)">
   <text transform="scale(-1 1) translate(-33.12)" x="16.5600" y="18.9645" font-size="1.3333" opacity="0" stroke-opacity="0" text-anchor="middle" lengthAdjust="spacingAndGlyphs" textLength="2.2024">D1</text>
  </g>
  <g class="stroked-text">
   <desc>D1</desc>
   <path d="m17.015 17.726h-1"/>
   <path d="m16.015 17.726v0.2381"/>
   <path d="m16.015 17.964 0.0476 0.1429"/>
   <path d="m16.062 18.107 0.0953 0.0952"/>
   <path d="m16.158 18.203 0.0952 0.0476"/>
   <path d="m16.253 18.25 0.1905 0.0476"/>
   <path d="m16.443 18.298h0.1428"/>
   <path d="m16.586 18.298 0.1905-0.0476"/>
   <path d="m16.777 18.25 0.0953-0.0476"/>
   <path d="m16.872 18.203 0.0952-0.0952"/>
   <path d="m16.967 18.107 0.0476-0.1429"/>
   <path d="m17.015 17.964v-0.2381"/>
   <path d="m17.015 19.25v-0.5714"/>
   <path d="m17.015 18.964h-1"/>
   <path d="m16.015 18.964 0.1429-0.0952"/>
   <path d="m16.158 18.869 0.0952-0.0953"/>
   <path d="m16.253 18.774 0.0476-0.0952"/>
  </g>
 </g>
 <g fill="none" stroke="#BD93F9" stroke-linecap="round" stroke-linejoin="round" stroke-width=".12">
  <path d="m70.805 16.688v3.86"/>
  <path d="m70.805 20.548h2"/>
  <path d="m72.805 16.688v3.86"/>
  <path d="m46.992 54.788v3.86"/>
  <path d="m46.992 58.648h2"/>
  <path d="m48.992 54.788v3.86"/>
  <path d="m51.755 16.688v3.86"/>
  <path d="m51.755 20.548h2"/>
  <path d="m53.755 16.688v3.86"/>
  <path d="m113.67 54.788v3.86"/>
  <path d="m113.67 58.648h2"/>
  <path d="m115.67 54.788v3.86"/>
  <path d="m32.705 35.738v3.86"/>
  <path d="m32.705 39.598h2"/>
  <path d="m34.705 35.738v3.86"/>
  <path d="m77.949 54.788v3.86"/>
  <path d="m77.949 58.648h2"/>
  <path d="m79.949 54.788v3.86"/>
  <path d="m89.855 35.738v3.86"/>
  <path d="m89.855 39.598h2"/>
  <path d="m91.855 35.738v3.86"/>
  <path d="m13.655 54.788v3.86"/>
  <path d="m13.655 58.648h2"/>
  <path d="m15.655 54.788v3.86"/>
  <path d="m113.67 11.925v3.86"/>
  <path d="m113.67 15.785h2"/>
  <path d="m115.67 11.925v3.86"/>
  <path d="m13.655 35.738v3.86"/>
  <path d="m13.655 39.598h2"/>
  <path d="m15.655 35.738v3.86"/>
  <path d="m113.67 35.738v3.86"/>
  <path d="m113.67 39.598h2"/>
  <path d="m115.67 35.738v3.86"/>
  <path d="m89.855 16.688v3.86"/>
  <path d="m89.855 20.548h2"/>
  <path d="m91.855 16.688v3.86"/>
  <path d="m32.705 16.688v3.86"/>
  <path d="m32.705 20.548h2"/>
  <path d="m34.705 16.688v3.86"/>
  <path d="m70.805 35.738v3.86"/>
  <path d="m70.805 39.598h2"/>
  <path d="m72.805 35.738v3.86"/>
  <path d="m51.755 35.738v3.86"/>
  <path d="m51.755 39.598h2"/>
  <path d="m53.755 35.738v3.86"/>
  <path d="m13.655 16.688v3.86"/>
  <path d="m13.655 20.548h2"/>
  <path d="m15.655 16.688v3.86"/>
 </g>
 <g>
  <g fill="#BD93F9">
   <circle cx="61.645" cy="33.388" r=".875"/>
   <circle cx="66.725" cy="33.388" r="2"/>
   <circle cx="71.805" cy="33.388" r=".875"/>
   <circle cx="62.915" cy="30.848" r=".75"/>
   <circle cx="69.265" cy="28.308" r=".75"/>
   <circle cx="42.595" cy="33.388" r=".875"/>
   <circle cx="47.675" cy="33.388" r="2"/>
   <circle cx="52.755" cy="33.388" r=".875"/>
   <circle cx="43.865" cy="30.848" r=".75"/>
   <circle cx="50.215" cy="28.308" r=".75"/>
   <circle cx="80.695" cy="14.338" r=".875"/>
   <circle cx="85.775" cy="14.338" r="2"/>
   <circle cx="90.855" cy="14.338" r=".875"/>
   <circle cx="81.965" cy="11.798" r=".75"/>
   <circle cx="88.315" cy="9.2575" r=".75"/>
   <circle cx="23.545" cy="33.388" r=".875"/>
   <circle cx="28.625" cy="33.388" r="2"/>
   <circle cx="33.705" cy="33.388" r=".875"/>
   <circle cx="24.815" cy="30.848" r=".75"/>
   <circle cx="31.165" cy="28.308" r=".75"/>
   <circle cx="80.695" cy="33.388" r=".875"/>
   <circle cx="85.775" cy="33.388" r="2"/>
   <circle cx="90.855" cy="33.388" r=".875"/>
   <circle cx="81.965" cy="30.848" r=".75"/>
   <circle cx="88.315" cy="28.308" r=".75"/>
   <circle cx="42.595" cy="14.338" r=".875"/>
   <circle cx="47.675" cy="14.338" r="2"/>
   <circle cx="52.755" cy="14.338" r=".875"/>
   <circle cx="43.865" cy="11.798" r=".75"/>
   <circle cx="50.215" cy="9.2575" r=".75"/>
   <circle cx="68.789" cy="52.438" r=".875"/>
   <circle cx="73.869" cy="52.438" r="2"/>
   <circle cx="78.949" cy="52.438" r=".875"/>
   <circle cx="70.059" cy="49.898" r=".75"/>
   <circle cx="76.409" cy="47.358" r=".75"/>
   <circle cx="21.164" cy="52.438" r=".875"/>
   <circle cx="26.244" cy="52.438" r="2"/>
   <circle cx="31.324" cy="52.438" r=".875"/>
   <circle cx="22.434" cy="49.898" r=".75"/>
   <circle cx="28.784" cy="47.358" r=".75"/>
   <circle cx="104.51" cy="52.438" r=".875"/>
   <circle cx="109.59" cy="52.438" r="2"/>
   <circle cx="114.67" cy="52.438" r=".875"/>
   <circle cx="105.78" cy="49.898" r=".75"/>
   <circle cx="112.13" cy="47.358" r=".75"/>
   <circle cx="104.51" cy="33.388" r=".875"/>
   <circle cx="109.59" cy="33.388" r="2"/>
   <circle cx="114.67" cy="33.388" r=".875"/>
   <circle cx="105.78" cy="30.848" r=".75"/>
   <circle cx="112.13" cy="28.308" r=".75"/>
   <circle cx="37.832" cy="52.438" r=".875"/>
   <circle cx="42.912" cy="52.438" r="2"/>
   <circle cx="47.992" cy="52.438" r=".875"/>
   <circle cx="39.102" cy="49.898" r=".75"/>
   <circle cx="45.452" cy="47.358" r=".75"/>
   <circle cx="4.495" cy="33.388" r=".875"/>
   <circle cx="9.575" cy="33.388" r="2"/>
   <circle cx="14.655" cy="33.388" r=".875"/>
   <circle cx="5.765" cy="30.848" r=".75"/>
   <circle cx="12.115" cy="28.308" r=".75"/>
   <circle cx="23.545" cy="14.338" r=".875"/>
   <circle cx="28.625" cy="14.338" r="2"/>
   <circle cx="33.705" cy="14.338" r=".875"/>
   <circle cx="24.815" cy="11.798" r=".75"/>
   <circle cx="31.165" cy="9.2575" r=".75"/>
   <circle cx="4.495" cy="14.338" r=".875"/>
   <circle cx="9.575" cy="14.338" r="2"/>
   <circle cx="14.655" cy="14.338" r=".875"/>
   <circle cx="5.765" cy="11.798" r=".75"/>
   <circle cx="12.115" cy="9.2575" r=".75"/>
   <circle cx="104.51" cy="9.575" r=".875"/>
   <circle cx="109.59" cy="9.575" r="2"/>
   <circle cx="114.67" cy="9.575" r=".875"/>
   <circle cx="105.78" cy="7.035" r=".75"/>
   <circle cx="112.13" cy="4.495" r=".75"/>
   <circle cx="4.495" cy="52.438" r=".875"/>
   <circle cx="9.575" cy="52.438" r="2"/>
   <circle cx="14.655" cy="52.438" r=".875"/>
   <circle cx="5.765" cy="49.898" r=".75"/>
   <circle cx="12.115" cy="47.358" r=".75"/>
   <circle cx="61.645" cy="14.338" r=".875"/>
   <circle cx="66.725" cy="14.338" r="2"/>
   <circle cx="71.805" cy="14.338" r=".875"/>
   <circle cx="62.915" cy="11.798" r=".75"/>
   <circle cx="69.265" cy="9.2575" r=".75"/>
  </g>
  <g>
   <circle cx="61.645" cy="33.388" r=".875"/>
   <circle cx="66.725" cy="33.388" r="2"/>
   <circle cx="71.805" cy="33.388" r=".875"/>
   <circle cx="62.915" cy="30.848" r=".75"/>
   <circle cx="69.265" cy="28.308" r=".75"/>
   <circle cx="42.595" cy="33.388" r=".875"/>
   <circle cx="47.675" cy="33.388" r="2"/>
   <circle cx="52.755" cy="33.388" r=".875"/>
   <circle cx="43.865" cy="30.848" r=".75"/>
   <circle cx="50.215" cy="28.308" r=".75"/>
   <circle cx="80.695" cy="14.338" r=".875"/>
   <circle cx="85.775" cy="14.338" r="2"/>
   <circle cx="90.855" cy="14.338" r=".875"/>
   <circle cx="81.965" cy="11.798" r=".75"/>
   <circle cx="88.315" cy="9.2575" r=".75"/>
   <circle cx="23.545" cy="33.388" r=".875"/>
   <circle cx="28.625" cy="33.388" r="2"/>
   <circle cx="33.705" cy="33.388" r=".875"/>
   <circle cx="24.815" cy="30.848" r=".75"/>
   <circle cx="31.165" cy="28.308" r=".75"/>
   <circle cx="80.695" cy="33.388" r=".875"/>
   <circle cx="85.775" cy="33.388" r="2"/>
   <circle cx="90.855" cy="33.388" r=".875"/>
   <circle cx="81.965" cy="30.848" r=".75"/>
   <circle cx="88.315" cy="28.308" r=".75"/>
   <circle cx="42.595" cy="14.338" r=".875"/>
   <circle cx="47.675" cy="14.338" r="2"/>
   <circle cx="52.755" cy="14.338" r=".875"/>
   <circle cx="43.865" cy="11.798" r=".75"/>
   <circle cx="50.215" cy="9.2575" r=".75"/>
   <circle cx="68.789" cy="52.438" r=".875"/>
   <circle cx="73.869" cy="52.438" r="2"/>
   <circle cx="78.949" cy="52.438" r=".875"/>
   <circle cx="70.059" cy="49.898" r=".75"/>
   <circle cx="76.409" cy="47.358" r=".75"/>
   <circle cx="21.164" cy="52.438" r=".875"/>
   <circle cx="26.244" cy="52.438" r="2"/>
   <circle cx="31.324" cy="52.438" r=".875"/>
   <circle cx="22.434" cy="49.898" r=".75"/>
   <circle cx="28.784" cy="47.358" r=".75"/>
   <circle cx="104.51" cy="52.438" r=".875"/>
   <circle cx="109.59" cy="52.438" r="2"/>
   <circle cx="114.67" cy="52.438" r=".875"/>
   <circle cx="105.78" cy="49.898" r=".75"/>
   <circle cx="112.13" cy="47.358" r=".75"/>
   <circle cx="104.51" cy="33.388" r=".875"/>
   <circle cx="109.59" cy="33.388" r="2"/>
   <circle cx="114.67" cy="33.388" r=".875"/>
   <circle cx="105.78" cy="30.848" r=".75"/>
   <circle cx="112.13" cy="28.308" r=".75"/>
   <circle cx="37.832" cy="52.438" r=".875"/>
   <circle cx="42.912" cy="52.438" r="2"/>
   <circle cx="47.992" cy="52.438" r=".875"/>
   <circle cx="39.102" cy="49.898" r=".75"/>
   <circle cx="45.452" cy="47.358" r=".75"/>
   <circle cx="4.495" cy="33.388" r=".875"/>
   <circle cx="9.575" cy="33.388" r="2"/>
   <circle cx="14.655" cy="33.388" r=".875"/>
   <circle cx="5.765" cy="30.848" r=".75"/>
   <circle cx="12.115" cy="28.308" r=".75"/>
   <circle cx="23.545" cy="14.338" r=".875"/>
   <circle cx="28.625" cy="14.338" r="2"/>
   <circle cx="33.705" cy="14.338" r=".875"/>
   <circle cx="24.815" cy="11.798" r=".75"/>
   <circle cx="31.165" cy="9.2575" r=".75"/>
   <circle cx="4.495" cy="14.338" r=".875"/>
   <circle cx="9.575" cy="14.338" r="2"/>
   <circle cx="14.655" cy="14.338" r=".875"/>
   <circle cx="5.765" cy="11.798" r=".75"/>
   <circle cx="12.115" cy="9.2575" r=".75"/>
   <circle cx="104.51" cy="9.575" r=".875"/>
   <circle cx="109.59" cy="9.575" r="2"/>
   <circle cx="114.67" cy="9.575" r=".875"/>
   <circle cx="105.78" cy="7.035" r=".75"/>
   <circle cx="112.13" cy="4.495" r=".75"/>
   <circle cx="4.495" cy="52.438" r=".875"/>
   <circle cx="9.575" cy="52.438" r="2"/>
   <circle cx="14.655" cy="52.438" r=".875"/>
   <circle cx="5.765" cy="49.898" r=".75"/>
   <circle cx="12.115" cy="47.358" r=".75"/>
   <circle cx="61.645" cy="14.338" r=".875"/>
   <circle cx="66.725" cy="14.338" r="2"/>
   <circle cx="71.805" cy="14.338" r=".875"/>
   <circle cx="62.915" cy="11.798" r=".75"/>
   <circle cx="69.265" cy="9.2575" r=".75"/>
  </g>
  <g fill="#f55">
   <circle cx="62.915" cy="30.848" r="1.25"/>
   <circle cx="69.265" cy="28.308" r="1.25"/>
   <circle cx="43.865" cy="30.848" r="1.25"/>
   <circle cx="50.215" cy="28.308" r="1.25"/>
   <circle cx="81.965" cy="11.798" r="1.25"/>
   <circle cx="88.315" cy="9.2575" r="1.25"/>
   <circle cx="24.815" cy="30.848" r="1.25"/>
   <circle cx="31.165" cy="28.308" r="1.25"/>
   <circle cx="81.965" cy="30.848" r="1.25"/>
   <circle cx="88.315" cy="28.308" r="1.25"/>
   <circle cx="43.865" cy="11.798" r="1.25"/>
   <circle cx="50.215" cy="9.2575" r="1.25"/>
   <circle cx="70.059" cy="49.898" r="1.25"/>
   <circle cx="76.409" cy="47.358" r="1.25"/>
   <circle cx="22.434" cy="49.898" r="1.25"/>
   <circle cx="28.784" cy="47.358" r="1.25"/>
   <circle cx="105.78" cy="49.898" r="1.25"/>
   <circle cx="112.13" cy="47.358" r="1.25"/>
   <circle cx="105.78" cy="30.848" r="1.25"/>
   <circle cx="112.13" cy="28.308" r="1.25"/>
   <circle cx="39.102" cy="49.898" r="1.25"/>
   <circle cx="45.452" cy="47.358" r="1.25"/>
   <circle cx="5.765" cy="30.848" r="1.25"/>
   <circle cx="12.115" cy="28.308" r="1.25"/>
   <circle cx="24.815" cy="11.798" r="1.25"/>
   <circle cx="31.165" cy="9.2575" r="1.25"/>
   <circle cx="5.765" cy="11.798" r="1.25"/>
   <circle cx="12.115" cy="9.2575" r="1.25"/>
   <circle cx="105.78" cy="7.035" r="1.25"/>
   <circle cx="112.13" cy="4.495" r="1.25"/>
   <circle cx="5.765" cy="49.898" r="1.25"/>
   <circle cx="12.115" cy="47.358" r="1.25"/>
   <circle cx="62.915" cy="11.798" r="1.25"/>
   <circle cx="69.265" cy="9.2575" r="1.25"/>
  </g>
 </g>
 <g fill="none" stroke="#f55" stroke-linecap="round" stroke-linejoin="round" stroke-width=".2">
  <path d="m5.765 30.848v19.05"/>
  <path d="m5.765 11.798v19.05"/>
  <path d="m24.815 47.516v-16.669"/>
  <path d="m22.434 49.898 2.3813-2.3813"/>
  <path d="m22.434 49.898h16.669"/>
  <path d="m24.815 30.848v-19.05"/>
  <path d="m43.865 11.798v19.05"/>
  <path d="m62.915 30.848v11.906"/>
  <path d="m62.915 11.798v19.05"/>
  <path d="m62.915 42.754 7.1438 7.1438"/>
  <path d="m81.965 11.798v19.05"/>
  <path d="m105.78 7.035v23.812"/>
  <path d="m105.78 30.848v19.05"/>
 </g>
 <g fill="#fff">
  <circle cx="61.645" cy="33.388" r=".875"/>
  <circle cx="66.725" cy="33.388" r="2"/>
  <circle cx="71.805" cy="33.388" r=".875"/>
  <circle cx="62.915" cy="30.848" r=".75"/>
  <circle cx="69.265" cy="28.308" r=".75"/>
  <circle cx="42.595" cy="33.388" r=".875"/>
  <circle cx="47.675" cy="33.388" r="2"/>
  <circle cx="52.755" cy="33.388" r=".875"/>
  <circle cx="43.865" cy="30.848" r=".75"/>
  <circle cx="50.215" cy="28.308" r=".75"/>
  <circle cx="80.695" cy="14.338" r=".875"/>
  <circle cx="85.775" cy="14.338" r="2"/>
  <circle cx="90.855" cy="14.338" r=".875"/>
  <circle cx="81.965" cy="11.798" r=".75"/>
  <circle cx="88.315" cy="9.2575" r=".75"/>
  <circle cx="23.545" cy="33.388" r=".875"/>
  <circle cx="28.625" cy="33.388" r="2"/>
  <circle cx="33.705" cy="33.388" r=".875"/>
  <circle cx="24.815" cy="30.848" r=".75"/>
  <circle cx="31.165" cy="28.308" r=".75"/>
  <circle cx="80.695" cy="33.388" r=".875"/>
  <circle cx="85.775" cy="33.388" r="2"/>
  <circle cx="90.855" cy="33.388" r=".875"/>
  <circle cx="81.965" cy="30.848" r=".75"/>
  <circle cx="88.315" cy="28.308" r=".75"/>
  <circle cx="42.595" cy="14.338" r=".875"/>
  <circle cx="47.675" cy="14.338" r="2"/>
  <circle cx="52.755" cy="14.338" r=".875"/>
  <circle cx="43.865" cy="11.798" r=".75"/>
  <circle cx="50.215" cy="9.2575" r=".75"/>
  <circle cx="68.789" cy="52.438" r=".875"/>
  <circle cx="73.869" cy="52.438" r="2"/>
  <circle cx="78.949" cy="52.438" r=".875"/>
  <circle cx="70.059" cy="49.898" r=".75"/>
  <circle cx="76.409" cy="47.358" r=".75"/>
  <circle cx="21.164" cy="52.438" r=".875"/>
  <circle cx="26.244" cy="52.438" r="2"/>
  <circle cx="31.324" cy="52.438" r=".875"/>
  <circle cx="22.434" cy="49.898" r=".75"/>
  <circle cx="28.784" cy="47.358" r=".75"/>
  <circle cx="104.51" cy="52.438" r=".875"/>
  <circle cx="109.59" cy="52.438" r="2"/>
  <circle cx="114.67" cy="52.438" r=".875"/>
  <circle cx="105.78" cy="49.898" r=".75"/>
  <circle cx="112.13" cy="47.358" r=".75"/>
  <circle cx="104.51" cy="33.388" r=".875"/>
  <circle cx="109.59" cy="33.388" r="2"/>
  <circle cx="114.67" cy="33.388" r=".875"/>
  <circle cx="105.78" cy="30.848" r=".75"/>
  <circle cx="112.13" cy="28.308" r=".75"/>
  <circle cx="37.832" cy="52.438" r=".875"/>
  <circle cx="42.912" cy="52.438" r="2"/>
  <circle cx="47.992" cy="52.438" r=".875"/>
  <circle cx="39.102" cy="49.898" r=".75"/>
  <circle cx="45.452" cy="47.358" r=".75"/>
  <circle cx="4.495" cy="33.388" r=".875"/>
  <circle cx="9.575" cy="33.388" r="2"/>
  <circle cx="14.655" cy="33.388" r=".875"/>
  <circle cx="5.765" cy="30.848" r=".75"/>
  <circle cx="12.115" cy="28.308" r=".75"/>
  <circle cx="23.545" cy="14.338" r=".875"/>
  <circle cx="28.625" cy="14.338" r="2"/>
  <circle cx="33.705" cy="14.338" r=".875"/>
  <circle cx="24.815" cy="11.798" r=".75"/>
  <circle cx="31.165" cy="9.2575" r=".75"/>
  <circle cx="4.495" cy="14.338" r=".875"/>
  <circle cx="9.575" cy="14.338" r="2"/>
  <circle cx="14.655" cy="14.338" r=".875"/>
  <circle cx="5.765" cy="11.798" r=".75"/>
  <circle cx="12.115" cy="9.2575" r=".75"/>
  <circle cx="104.51" cy="9.575" r=".875"/>
  <circle cx="109.59" cy="9.575" r="2"/>
  <circle cx="114.67" cy="9.575" r=".875"/>
  <circle cx="105.78" cy="7.035" r=".75"/>
  <circle cx="112.13" cy="4.495" r=".75"/>
  <circle cx="4.495" cy="52.438" r=".875"/>
  <circle cx="9.575" cy="52.438" r="2"/>
  <circle cx="14.655" cy="52.438" r=".875"/>
  <circle cx="5.765" cy="49.898" r=".75"/>
  <circle cx="12.115" cy="47.358" r=".75"/>
  <circle cx="61.645" cy="14.338" r=".875"/>
  <circle cx="66.725" cy="14.338" r="2"/>
  <circle cx="71.805" cy="14.338" r=".875"/>
  <circle cx="62.915" cy="11.798" r=".75"/>
  <circle cx="69.265" cy="9.2575" r=".75"/>
 </g>
 <g fill="#50FA7B">
  <circle cx="62.915" cy="30.848" r="1.25"/>
  <circle cx="69.265" cy="28.308" r="1.25"/>
  <circle cx="43.865" cy="30.848" r="1.25"/>
  <circle cx="50.215" cy="28.308" r="1.25"/>
  <circle cx="81.965" cy="11.798" r="1.25"/>
  <circle cx="88.315" cy="9.2575" r="1.25"/>
  <circle cx="24.815" cy="30.848" r="1.25"/>
  <circle cx="31.165" cy="28.308" r="1.25"/>
  <circle cx="81.965" cy="30.848" r="1.25"/>
  <circle cx="88.315" cy="28.308" r="1.25"/>
  <circle cx="43.865" cy="11.798" r="1.25"/>
  <circle cx="50.215" cy="9.2575" r="1.25"/>
  <circle cx="70.059" cy="49.898" r="1.25"/>
  <circle cx="76.409" cy="47.358" r="1.25"/>
  <circle cx="22.434" cy="49.898" r="1.25"/>
  <circle cx="28.784" cy="47.358" r="1.25"/>
  <circle cx="105.78" cy="49.898" r="1.25"/>
  <circle cx="112.13" cy="47.358" r="1.25"/>
  <circle cx="105.78" cy="30.848" r="1.25"/>
  <circle cx="112.13" cy="28.308" r="1.25"/>
  <circle cx="39.102" cy="49.898" r="1.25"/>
  <circle cx="45.452" cy="47.358" r="1.25"/>
  <circle cx="5.765" cy="30.848" r="1.25"/>
  <circle cx="12.115" cy="28.308" r="1.25"/>
  <circle cx="24.815" cy="11.798" r="1.25"/>
  <circle cx="31.165" cy="9.2575" r="1.25"/>
  <circle cx="5.765" cy="11.798" r="1.25"/>
  <circle cx="12.115" cy="9.2575" r="1.25"/>
  <circle cx="105.78" cy="7.035" r="1.25"/>
  <circle cx="112.13" cy="4.495" r="1.25"/>
  <circle cx="5.765" cy="49.898" r="1.25"/>
  <circle cx="12.115" cy="47.358" r="1.25"/>
  <circle cx="62.915" cy="11.798" r="1.25"/>
  <circle cx="69.265" cy="9.2575" r="1.25"/>
  <g fill="#50FA7B" fill-rule="evenodd">
   <path d="m71.505 20.288-0.0957-0.019-0.0811-0.0542-0.0542-0.0811-0.019-0.0957v-0.6l0.019-0.0957 0.0542-0.0811 0.0811-0.0542 0.0957-0.019h0.6l0.0957 0.019 0.0811 0.0542 0.0542 0.0811 0.019 0.0957v0.6l-0.019 0.0957-0.0542 0.0811-0.0811 0.0542-0.0957 0.019z"/>
   <path d="m71.505 17.488-0.0957-0.019-0.0811-0.0542-0.0542-0.0811-0.019-0.0957v-0.6l0.019-0.0957 0.0542-0.0811 0.0811-0.0542 0.0957-0.019h0.6l0.0957 0.019 0.0811 0.0542 0.0542 0.0811 0.019 0.0957v0.6l-0.019 0.0957-0.0542 0.0811-0.0811 0.0542-0.0957 0.019z"/>
   <path d="m47.692 58.388-0.0957-0.019-0.0811-0.0542-0.0542-0.0811-0.019-0.0957v-0.6l0.019-0.0957 0.0542-0.0811 0.0811-0.0542 0.0957-0.019h0.6l0.0957 0.019 0.0811 0.0542 0.0542 0.0811 0.019 0.0957v0.6l-0.019 0.0957-0.0542 0.0811-0.0811 0.0542-0.0957 0.019z"/>
   <path d="m47.692 55.588-0.0957-0.019-0.0811-0.0542-0.0542-0.0811-0.019-0.0957v-0.6l0.019-0.0957 0.0542-0.0811 0.0811-0.0542 0.0957-0.019h0.6l0.0957 0.019 0.0811 0.0542 0.0542 0.0811 0.019 0.0957v0.6l-0.019 0.0957-0.0542 0.0811-0.0811 0.0542-0.0957 0.019z"/>
   <path d="m52.455 20.288-0.0957-0.019-0.0811-0.0542-0.0542-0.0811-0.019-0.0957v-0.6l0.019-0.0957 0.0542-0.0811 0.0811-0.0542 0.0957-0.019h0.6l0.0957 0.019 0.0811 0.0542 0.0542 0.0811 0.019 0.0957v0.6l-0.019 0.0957-0.0542 0.0811-0.0811 0.0542-0.0957 0.019z"/>
   <path d="m52.455 17.488-0.0957-0.019-0.0811-0.0542-0.0542-0.0811-0.019-0.0957v-0.6l0.019-0.0957 0.0542-0.0811 0.0811-0.0542 0.0957-0.019h0.6l0.0957 0.019 0.0811 0.0542 0.0542 0.0811 0.019 0.0957v0.6l-0.019 0.0957-0.0542 0.0811-0.0811 0.0542-0.0957 0.019z"/>
   <path d="m114.37 58.388-0.0957-0.019-0.0811-0.0542-0.0542-0.0811-0.019-0.0957v-0.6l0.019-0.0957 0.0542-0.0811 0.0811-0.0542 0.0957-0.019h0.6l0.0957 0.019 0.0811 0.0542 0.0542 0.0811 0.019 0.0957v0.6l-0.019 0.0957-0.0542 0.0811-0.0811 0.0542-0.0957 0.019z"/>
   <path d="m114.37 55.588-0.0957-0.019-0.0811-0.0542-0.0542-0.0811-0.019-0.0957v-0.6l0.019-0.0957 0.0542-0.0811 0.0811-0.0542 0.0957-0.019h0.6l0.0957 0.019 0.0811 0.0542 0.0542 0.0811 0.019 0.0957v0.6l-0.019 0.0957-0.0542 0.0811-0.0811 0.0542-0.0957 0.019z"/>
   <path d="m33.405 39.338-0.0957-0.019-0.0811-0.0542-0.0542-0.0811-0.019-0.0957v-0.6l0.019-0.0957 0.0542-0.0811 0.0811-0.0542 0.0957-0.019h0.6l0.0957 0.019 0.0811 0.0542 0.0542 0.0811 0.019 0.0957v0.6l-0.019 0.0957-0.0542 0.0811-0.0811 0.0542-0.0957 0.019z"/>
   <path d="m33.405 36.538-0.0957-0.019-0.0811-0.0542-0.0542-0.0811-0.019-0.0957v-0.6l0.019-0.0957 0.0542-0.0811 0.0811-0.0542 0.0957-0.019h0.6l0.0957 0.019 0.0811 0.0542 0.0542 0.0811 0.019 0.0957v0.6l-0.019 0.0957-0.0542 0.0811-0.0811 0.0542-0.0957 0.019z"/>
   <path d="m78.649 58.388-0.0956-0.019-0.0811-0.0542-0.0542-0.0811-0.0191-0.0957v-0.6l0.0191-0.0957 0.0542-0.0811 0.0811-0.0542 0.0956-0.019h0.6001l0.0956 0.019 0.0811 0.0542 0.0542 0.0811 0.0191 0.0957v0.6l-0.0191 0.0957-0.0542 0.0811-0.0811 0.0542-0.0956 0.019z"/>
   <path d="m78.649 55.588-0.0956-0.019-0.0811-0.0542-0.0542-0.0811-0.0191-0.0957v-0.6l0.0191-0.0957 0.0542-0.0811 0.0811-0.0542 0.0956-0.019h0.6001l0.0956 0.019 0.0811 0.0542 0.0542 0.0811 0.0191 0.0957v0.6l-0.0191 0.0957-0.0542 0.0811-0.0811 0.0542-0.0956 0.019z"/>
   <path d="m90.555 39.338-0.0957-0.019-0.0811-0.0542-0.0542-0.0811-0.019-0.0957v-0.6l0.019-0.0957 0.0542-0.0811 0.0811-0.0542 0.0957-0.019h0.6l0.0957 0.019 0.0811 0.0542 0.0542 0.0811 0.019 0.0957v0.6l-0.019 0.0957-0.0542 0.0811-0.0811 0.0542-0.0957 0.019z"/>
   <path d="m90.555 36.538-0.0957-0.019-0.0811-0.0542-0.0542-0.0811-0.019-0.0957v-0.6l0.019-0.0957 0.0542-0.0811 0.0811-0.0542 0.0957-0.019h0.6l0.0957 0.019 0.0811 0.0542 0.0542 0.0811 0.019 0.0957v0.6l-0.019 0.0957-0.0542 0.0811-0.0811 0.0542-0.0957 0.019z"/>
   <path d="m14.355 58.388-0.0957-0.019-0.0811-0.0542-0.0542-0.0811-0.019-0.0957v-0.6l0.019-0.0957 0.0542-0.0811 0.0811-0.0542 0.0957-0.019h0.6l0.0957 0.019 0.0811 0.0542 0.0542 0.0811 0.019 0.0957v0.6l-0.019 0.0957-0.0542 0.0811-0.0811 0.0542-0.0957 0.019z"/>
   <path d="m14.355 55.588-0.0957-0.019-0.0811-0.0542-0.0542-0.0811-0.019-0.0957v-0.6l0.019-0.0957 0.0542-0.0811 0.0811-0.0542 0.0957-0.019h0.6l0.0957 0.019 0.0811 0.0542 0.0542 0.0811 0.019 0.0957v0.6l-0.019 0.0957-0.0542 0.0811-0.0811 0.0542-0.0957 0.019z"/>
   <path d="m114.37 15.525-0.0957-0.019-0.0811-0.0542-0.0542-0.0811-0.019-0.0957v-0.6l0.019-0.0957 0.0542-0.0811 0.0811-0.0542 0.0957-0.019h0.6l0.0957 0.019 0.0811 0.0542 0.0542 0.0811 0.019 0.0957v0.6l-0.019 0.0957-0.0542 0.0811-0.0811 0.0542-0.0957 0.019z"/>
   <path d="m114.37 12.725-0.0957-0.019-0.0811-0.0542-0.0542-0.0811-0.019-0.0957v-0.6l0.019-0.0957 0.0542-0.0811 0.0811-0.0542 0.0957-0.019h0.6l0.0957 0.019 0.0811 0.0542 0.0542 0.0811 0.019 0.0957v0.6l-0.019 0.0957-0.0542 0.0811-0.0811 0.0542-0.0957 0.019z"/>
   <path d="m14.355 39.338-0.0957-0.019-0.0811-0.0542-0.0542-0.0811-0.019-0.0957v-0.6l0.019-0.0957 0.0542-0.0811 0.0811-0.0542 0.0957-0.019h0.6l0.0957 0.019 0.0811 0.0542 0.0542 0.0811 0.019 0.0957v0.6l-0.019 0.0957-0.0542 0.0811-0.0811 0.0542-0.0957 0.019z"/>
   <path d="m14.355 36.538-0.0957-0.019-0.0811-0.0542-0.0542-0.0811-0.019-0.0957v-0.6l0.019-0.0957 0.0542-0.0811 0.0811-0.0542 0.0957-0.019h0.6l0.0957 0.019 0.0811 0.0542 0.0542 0.0811 0.019 0.0957v0.6l-0.019 0.0957-0.0542 0.0811-0.0811 0.0542-0.0957 0.019z"/>
   <path d="m114.37 39.338-0.0957-0.019-0.0811-0.0542-0.0542-0.0811-0.019-0.0957v-0.6l0.019-0.0957 0.0542-0.0811 0.0811-0.0542 0.0957-0.019h0.6l0.0957 0.019 0.0811 0.0542 0.0542 0.0811 0.019 0.0957v0.6l-0.019 0.0957-0.0542 0.0811-0.0811 0.0542-0.0957 0.019z"/>
   <path d="m114.37 36.538-0.0957-0.019-0.0811-0.0542-0.0542-0.0811-0.019-0.0957v-0.6l0.019-0.0957 0.0542-0.0811 0.0811-0.0542 0.0957-0.019h0.6l0.0957 0.019 0.0811 0.0542 0.0542 0.0811 0.019 0.0957v0.6l-0.019 0.0957-0.0542 0.0811-0.0811 0.0542-0.0957 0.019z"/>
   <path d="m90.555 20.288-0.0957-0.019-0.0811-0.0542-0.0542-0.0811-0.019-0.0957v-0.6l0.019-0.0957 0.0542-0.0811 0.0811-0.0542 0.0957-0.019h0.6l0.0957 0.019 0.0811 0.0542 0.0542 0.0811 0.019 0.0957v0.6l-0.019 0.0957-0.0542 0.0811-0.0811 0.0542-0.0957 0.019z"/>
   <path d="m90.555 17.488-0.0957-0.019-0.0811-0.0542-0.0542-0.0811-0.019-0.0957v-0.6l0.019-0.0957 0.0542-0.0811 0.0811-0.0542 0.0957-0.019h0.6l0.0957 0.019 0.0811 0.0542 0.0542 0.0811 0.019 0.0957v0.6l-0.019 0.0957-0.0542 0.0811-0.0811 0.0542-0.0957 0.019z"/>
   <path d="m33.405 20.288-0.0957-0.019-0.0811-0.0542-0.0542-0.0811-0.019-0.0957v-0.6l0.019-0.0957 0.0542-0.0811 0.0811-0.0542 0.0957-0.019h0.6l0.0957 0.019 0.0811 0.0542 0.0542 0.0811 0.019 0.0957v0.6l-0.019 0.0957-0.0542 0.0811-0.0811 0.0542-0.0957 0.019z"/>
   <path d="m33.405 17.488-0.0957-0.019-0.0811-0.0542-0.0542-0.0811-0.019-0.0957v-0.6l0.019-0.0957 0.0542-0.0811 0.0811-0.0542 0.0957-0.019h0.6l0.0957 0.019 0.0811 0.0542 0.0542 0.0811 0.019 0.0957v0.6l-0.019 0.0957-0.0542 0.0811-0.0811 0.0542-0.0957 0.019z"/>
   <path d="m71.505 39.338-0.0957-0.019-0.0811-0.0542-0.0542-0.0811-0.019-0.0957v-0.6l0.019-0.0957 0.0542-0.0811 0.0811-0.0542 0.0957-0.019h0.6l0.0957 0.019 0.0811 0.0542 0.0542 0.0811 0.019 0.0957v0.6l-0.019 0.0957-0.0542 0.0811-0.0811 0.0542-0.0957 0.019z"/>
   <path d="m71.505 36.538-0.0957-0.019-0.0811-0.0542-0.0542-0.0811-0.019-0.0957v-0.6l0.019-0.0957 0.0542-0.0811 0.0811-0.0542 0.0957-0.019h0.6l0.0957 0.019 0.0811 0.0542 0.0542 0.0811 0.019 0.0957v0.6l-0.019 0.0957-0.0542 0.0811-0.0811 0.0542-0.0957 0.019z"/>
   <path d="m52.455 39.338-0.0957-0.019-0.0811-0.0542-0.0542-0.0811-0.019-0.0957v-0.6l0.019-0.0957 0.0542-0.0811 0.0811-0.0542 0.0957-0.019h0.6l0.0957 0.019 0.0811 0.0542 0.0542 0.0811 0.019 0.0957v0.6l-0.019 0.0957-0.0542 0.0811-0.0811 0.0542-0.0957 0.019z"/>
   <path d="m52.455 36.538-0.0957-0.019-0.0811-0.0542-0.0542-0.0811-0.019-0.0957v-0.6l0.019-0.0957 0.0542-0.0811 0.0811-0.0542 0.0957-0.019h0.6l0.0957 0.019 0.0811 0.0542 0.0542 0.0811 0.019 0.0957v0.6l-0.019 0.0957-0.0542 0.0811-0.0811 0.0542-0.0957 0.019z"/>
   <path d="m14.355 20.288-0.0957-0.019-0.0811-0.0542-0.0542-0.0811-0.019-0.0957v-0.6l0.019-0.0957 0.0542-0.0811 0.0811-0.0542 0.0957-0.019h0.6l0.0957 0.019 0.0811 0.0542 0.0542 0.0811 0.019 0.0957v0.6l-0.019 0.0957-0.0542 0.0811-0.0811 0.0542-0.0957 0.019z"/>
   <path d="m14.355 17.488-0.0957-0.019-0.0811-0.0542-0.0542-0.0811-0.019-0.0957v-0.6l0.019-0.0957 0.0542-0.0811 0.0811-0.0542 0.0957-0.019h0.6l0.0957 0.019 0.0811 0.0542 0.0542 0.0811 0.019 0.0957v0.6l-0.019 0.0957-0.0542 0.0811-0.0811 0.0542-0.0957 0.019z"/>
  </g>
 </g>
 <g fill="none" stroke="#50FA7B" stroke-linecap="round" stroke-linejoin="round" stroke-width=".2">
  <path d="m12.115 9.2575v5.14"/>
  <path d="m12.115 14.398 2.54 2.54"/>
  <path d="m31.165 14.398 2.54 2.54"/>
  <path d="m31.165 9.2575v5.14"/>
  <path d="m50.215 14.398 2.54 2.54"/>
  <path d="m50.215 9.2575v5.14"/>
  <path d="m69.265 9.2575v5.14"/>
  <path d="m69.265 14.398 2.54 2.54"/>
  <path d="m88.315 14.398 2.54 2.54"/>
  <path d="m88.315 9.2575v5.14"/>
  <path d="m112.13 9.635 2.54 2.54"/>
  <path d="m112.13 4.495v5.14"/>
  <path d="m12.115 33.448 2.54 2.54"/>
  <path d="m12.115 28.308v5.14"/>
  <path d="m31.165 28.308v5.14"/>
  <path d="m31.165 33.448 2.54 2.54"/>
  <path d="m50.215 33.448 2.54 2.54"/>
  <path d="m50.215 28.308v5.14"/>
  <path d="m69.265 33.448 2.54 2.54"/>
  <path d="m69.265 28.308v5.14"/>
  <path d="m88.315 33.448 2.54 2.54"/>
  <path d="m88.315 28.308v5.14"/>
  <path d="m112.13 28.308v5.14"/>
  <path d="m112.13 33.448 2.54 2.54"/>
  <path d="m12.115 47.358v5.14"/>
  <path d="m12.115 52.498 2.54 2.54"/>
  <path d="m36.464 55.038h11.529"/>
  <path d="m45.452 47.358v5.14"/>
  <path d="m28.784 47.358 7.68 7.68"/>
  <path d="m45.452 52.498 2.54 2.54"/>
  <path d="m76.409 52.498 2.54 2.54"/>
  <path d="m76.409 47.358v5.14"/>
  <path d="m112.13 52.498 2.54 2.54"/>
  <path d="m112.13 47.358v5.14"/>
  <path d="m71.805 19.738h19.05"/>
  <path d="m52.755 19.738h19.05"/>
  <path d="m109.9 19.738 4.7625-4.7625"/>
  <path d="m33.705 19.738h19.05"/>
  <path d="m90.855 19.738h19.05"/>
  <path d="m14.655 19.738h19.05"/>
  <path d="m52.755 38.788h19.05"/>
  <path d="m71.805 38.788h19.05"/>
  <path d="m33.705 38.788h19.05"/>
  <path d="m14.655 38.788h19.05"/>
  <path d="m90.855 38.788h23.812"/>
  <path d="m14.655 57.838h33.338"/>
  <path d="m47.992 57.838h30.956"/>
  <path d="m78.949 57.838h35.719"/>
 </g>
 <g fill="#fff">
  <circle cx="61.645" cy="33.388" r=".875"/>
  <circle cx="66.725" cy="33.388" r="2"/>
  <circle cx="71.805" cy="33.388" r=".875"/>
  <circle cx="62.915" cy="30.848" r=".75"/>
  <circle cx="69.265" cy="28.308" r=".75"/>
  <circle cx="42.595" cy="33.388" r=".875"/>
  <circle cx="47.675" cy="33.388" r="2"/>
  <circle cx="52.755" cy="33.388" r=".875"/>
  <circle cx="43.865" cy="30.848" r=".75"/>
  <circle cx="50.215" cy="28.308" r=".75"/>
  <circle cx="80.695" cy="14.338" r=".875"/>
  <circle cx="85.775" cy="14.338" r="2"/>
  <circle cx="90.855" cy="14.338" r=".875"/>
  <circle cx="81.965" cy="11.798" r=".75"/>
  <circle cx="88.315" cy="9.2575" r=".75"/>
  <circle cx="23.545" cy="33.388" r=".875"/>
  <circle cx="28.625" cy="33.388" r="2"/>
  <circle cx="33.705" cy="33.388" r=".875"/>
  <circle cx="24.815" cy="30.848" r=".75"/>
  <circle cx="31.165" cy="28.308" r=".75"/>
  <circle cx="80.695" cy="33.388" r=".875"/>
  <circle cx="85.775" cy="33.388" r="2"/>
  <circle cx="90.855" cy="33.388" r=".875"/>
  <circle cx="81.965" cy="30.848" r=".75"/>
  <circle cx="88.315" cy="28.308" r=".75"/>
  <circle cx="42.595" cy="14.338" r=".875"/>
  <circle cx="47.675" cy="14.338" r="2"/>
  <circle cx="52.755" cy="14.338" r=".875"/>
  <circle cx="43.865" cy="11.798" r=".75"/>
  <circle cx="50.215" cy="9.2575" r=".75"/>
  <circle cx="68.789" cy="52.438" r=".875"/>
  <circle cx="73.869" cy="52.438" r="2"/>
  <circle cx="78.949" cy="52.438" r=".875"/>
  <circle cx="70.059" cy="49.898" r=".75"/>
  <circle cx="76.409" cy="47.358" r=".75"/>
  <circle cx="21.164" cy="52.438" r=".875"/>
  <circle cx="26.244" cy="52.438" r="2"/>
  <circle cx="31.324" cy="52.438" r=".875"/>
  <circle cx="22.434" cy="49.898" r=".75"/>
  <circle cx="28.784" cy="47.358" r=".75"/>
  <circle cx="104.51" cy="52.438" r=".875"/>
  <circle cx="109.59" cy="52.438" r="2"/>
  <circle cx="114.67" cy="52.438" r=".875"/>
  <circle cx="105.78" cy="49.898" r=".75"/>
  <circle cx="112.13" cy="47.358" r=".75"/>
  <circle cx="104.51" cy="33.388" r=".875"/>
  <circle cx="109.59" cy="33.388" r="2"/>
  <circle cx="114.67" cy="33.388" r=".875"/>
  <circle cx="105.78" cy="30.848" r=".75"/>
  <circle cx="112.13" cy="28.308" r=".75"/>
  <circle cx="37.832" cy="52.438" r=".875"/>
  <circle cx="42.912" cy="52.438" r="2"/>
  <circle cx="47.992" cy="52.438" r=".875"/>
  <circle cx="39.102" cy="49.898" r=".75"/>
  <circle cx="45.452" cy="47.358" r=".75"/>
  <circle cx="4.495" cy="33.388" r=".875"/>
  <circle cx="9.575" cy="33.388" r="2"/>
  <circle cx="14.655" cy="33.388" r=".875"/>
  <circle cx="5.765" cy="30.848" r=".75"/>
  <circle cx="12.115" cy="28.308" r=".75"/>
  <circle cx="23.545" cy="14.338" r=".875"/>
  <circle cx="28.625" cy="14.338" r="2"/>
  <circle cx="33.705" cy="14.338" r=".875"/>
  <circle cx="24.815" cy="11.798" r=".75"/>
  <circle cx="31.165" cy="9.2575" r=".75"/>
  <circle cx="4.495" cy="14.338" r=".875"/>
  <circle cx="9.575" cy="14.338" r="2"/>
  <circle cx="14.655" cy="14.338" r=".875"/>
  <circle cx="5.765" cy="11.798" r=".75"/>
  <circle cx="12.115" cy="9.2575" r=".75"/>
  <circle cx="104.51" cy="9.575" r=".875"/>
  <circle cx="109.59" cy="9.575" r="2"/>
  <circle cx="114.67" cy="9.575" r=".875"/>
  <circle cx="105.78" cy="7.035" r=".75"/>
  <circle cx="112.13" cy="4.495" r=".75"/>
  <circle cx="4.495" cy="52.438" r=".875"/>
  <circle cx="9.575" cy="52.438" r="2"/>
  <circle cx="14.655" cy="52.438" r=".875"/>
  <circle cx="5.765" cy="49.898" r=".75"/>
  <circle cx="12.115" cy="47.358" r=".75"/>
  <circle cx="61.645" cy="14.338" r=".875"/>
  <circle cx="66.725" cy="14.338" r="2"/>
  <circle cx="71.805" cy="14.338" r=".875"/>
  <circle cx="62.915" cy="11.798" r=".75"/>
  <circle cx="69.265" cy="9.2575" r=".75"/>
 </g>
</svg>
