<?xml version="1.0" encoding="UTF-8"?>
<!DOCTYPE svg  PUBLIC '-//W3C//DTD SVG 1.1//EN'  'http://www.w3.org/Graphics/SVG/1.1/DTD/svg11.dtd'>
<svg width="114.38mm" height="114.38mm" version="1.1" viewBox="0 0 114.38 114.38" xmlns="http://www.w3.org/2000/svg">
 <title>SVG Image created as dozen0-render.svg date 2026/07/14 10:54:05</title>
 <desc>Image generated by PCBNEW</desc>
 <rect width="114.38mm" height="114.38mm" fill="#282A36"/>
 <g fill="#f55">
  <circle cx="5.765" cy="7.035" r="1.25"/>
  <circle cx="12.115" cy="4.495" r="1.25"/>
  <circle cx="24.815" cy="83.235" r="1.25"/>
  <circle cx="31.165" cy="80.695" r="1.25"/>
  <circle cx="62.915" cy="26.085" r="1.25"/>
  <circle cx="69.265" cy="23.545" r="1.25"/>
  <circle cx="5.765" cy="64.185" r="1.25"/>
  <circle cx="12.115" cy="61.645" r="1.25"/>
  <circle cx="101.02" cy="26.085" r="1.25"/>
  <circle cx="107.36" cy="23.545" r="1.25"/>
  <circle cx="24.815" cy="26.085" r="1.25"/>
  <circle cx="31.165" cy="23.545" r="1.25"/>
  <circle cx="24.815" cy="26.085" r="1.25"/>
  <circle cx="31.165" cy="23.545" r="1.25"/>
  <circle cx="24.815" cy="64.185" r="1.25"/>
  <circle cx="31.165" cy="61.645" r="1.25"/>
  <circle cx="5.765" cy="83.235" r="1.25"/>
  <circle cx="12.115" cy="80.695" r="1.25"/>
  <circle cx="81.965" cy="7.035" r="1.25"/>
  <circle cx="88.315" cy="4.495" r="1.25"/>
  <circle cx="24.815" cy="45.135" r="1.25"/>
  <circle cx="31.165" cy="42.595" r="1.25"/>
  <circle cx="24.815" cy="7.035" r="1.25"/>
  <circle cx="31.165" cy="4.495" r="1.25"/>
  <circle cx="101.02" cy="7.035" r="1.25"/>
  <circle cx="107.36" cy="4.495" r="1.25"/>
  <circle cx="5.765" cy="7.035" r="1.25"/>
  <circle cx="12.115" cy="4.495" r="1.25"/>
  <circle cx="62.915" cy="7.035" r="1.25"/>
  <circle cx="69.265" cy="4.495" r="1.25"/>
  <circle cx="43.865" cy="7.035" r="1.25"/>
  <circle cx="50.215" cy="4.495" r="1.25"/>
  <circle cx="5.765" cy="26.085" r="1.25"/>
  <circle cx="12.115" cy="23.545" r="1.25"/>
  <circle cx="24.815" cy="102.28" r="1.25"/>
  <circle cx="31.165" cy="99.745" r="1.25"/>
  <circle cx="81.965" cy="26.085" r="1.25"/>
  <circle cx="88.315" cy="23.545" r="1.25"/>
  <circle cx="5.765" cy="45.135" r="1.25"/>
  <circle cx="12.115" cy="42.595" r="1.25"/>
  <circle cx="5.765" cy="102.28" r="1.25"/>
  <circle cx="12.115" cy="99.745" r="1.25"/>
  <circle cx="24.815" cy="7.035" r="1.25"/>
  <circle cx="31.165" cy="4.495" r="1.25"/>
  <circle cx="5.765" cy="26.085" r="1.25"/>
  <circle cx="12.115" cy="23.545" r="1.25"/>
  <circle cx="43.865" cy="26.085" r="1.25"/>
  <circle cx="50.215" cy="23.545" r="1.25"/>
 </g>
 <g fill="none" stroke="#f55" stroke-linecap="round" stroke-linejoin="round" stroke-width=".2">
  <path d="m24.815 64.185 19.05-19.05"/>
  <path d="m43.865 45.135v-19.05"/>
 </g>
 <g fill="#50FA7B">
  <circle cx="5.765" cy="7.035" r="1.25"/>
  <circle cx="12.115" cy="4.495" r="1.25"/>
  <circle cx="24.815" cy="83.235" r="1.25"/>
  <circle cx="31.165" cy="80.695" r="1.25"/>
  <circle cx="62.915" cy="26.085" r="1.25"/>
  <circle cx="69.265" cy="23.545" r="1.25"/>
  <circle cx="5.765" cy="64.185" r="1.25"/>
  <circle cx="12.115" cy="61.645" r="1.25"/>
  <circle cx="101.02" cy="26.085" r="1.25"/>
  <circle cx="107.36" cy="23.545" r="1.25"/>
  <circle cx="24.815" cy="26.085" r="1.25"/>
  <circle cx="31.165" cy="23.545" r="1.25"/>
  <circle cx="24.815" cy="26.085" r="1.25"/>
  <circle cx="31.165" cy="23.545" r="1.25"/>
  <circle cx="24.815" cy="64.185" r="1.25"/>
  <circle cx="31.165" cy="61.645" r="1.25"/>
  <circle cx="5.765" cy="83.235" r="1.25"/>
  <circle cx="12.115" cy="80.695" r="1.25"/>
  <circle cx="81.965" cy="7.035" r="1.25"/>
  <circle cx="88.315" cy="4.495" r="1.25"/>
  <circle cx="24.815" cy="45.135" r="1.25"/>
  <circle cx="31.165" cy="42.595" r="1.25"/>
  <circle cx="24.815" cy="7.035" r="1.25"/>
  <circle cx="31.165" cy="4.495" r="1.25"/>
  <circle cx="101.02" cy="7.035" r="1.25"/>
  <circle cx="107.36" cy="4.495" r="1.25"/>
  <circle cx="5.765" cy="7.035" r="1.25"/>
  <circle cx="12.115" cy="4.495" r="1.25"/>
  <circle cx="62.915" cy="7.035" r="1.25"/>
  <circle cx="69.265" cy="4.495" r="1.25"/>
  <circle cx="43.865" cy="7.035" r="1.25"/>
  <circle cx="50.215" cy="4.495" r="1.25"/>
  <circle cx="5.765" cy="26.085" r="1.25"/>
  <circle cx="12.115" cy="23.545" r="1.25"/>
  <circle cx="24.815" cy="102.28" r="1.25"/>
  <circle cx="31.165" cy="99.745" r="1.25"/>
  <circle cx="81.965" cy="26.085" r="1.25"/>
  <circle cx="88.315" cy="23.545" r="1.25"/>
  <circle cx="5.765" cy="45.135" r="1.25"/>
  <circle cx="12.115" cy="42.595" r="1.25"/>
  <circle cx="5.765" cy="102.28" r="1.25"/>
  <circle cx="12.115" cy="99.745" r="1.25"/>
  <circle cx="24.815" cy="7.035" r="1.25"/>
  <circle cx="31.165" cy="4.495" r="1.25"/>
  <circle cx="5.765" cy="26.085" r="1.25"/>
  <circle cx="12.115" cy="23.545" r="1.25"/>
  <circle cx="43.865" cy="26.085" r="1.25"/>
  <circle cx="50.215" cy="23.545" r="1.25"/>
  <g fill="#50FA7B" fill-rule="evenodd">
   <path d="m71.505 15.525-0.0957-0.019-0.0811-0.0542-0.0542-0.0811-0.019-0.0957v-0.6l0.019-0.0957 0.0542-0.0811 0.0811-0.0542 0.0957-0.019h0.6l0.0957 0.019 0.0811 0.0542 0.0542 0.0811 0.019 0.0957v0.6l-0.019 0.0957-0.0542 0.0811-0.0811 0.0542-0.0957 0.019z"/>
   <path d="m71.505 12.725-0.0957-0.019-0.0811-0.0542-0.0542-0.0811-0.019-0.0957v-0.6l0.019-0.0957 0.0542-0.0811 0.0811-0.0542 0.0957-0.019h0.6l0.0957 0.019 0.0811 0.0542 0.0542 0.0811 0.019 0.0957v0.6l-0.019 0.0957-0.0542 0.0811-0.0811 0.0542-0.0957 0.019z"/>
   <path d="m33.405 34.575-0.0957-0.019-0.0811-0.0542-0.0542-0.0811-0.019-0.0957v-0.6l0.019-0.0957 0.0542-0.0811 0.0811-0.0542 0.0957-0.019h0.6l0.0957 0.019 0.0811 0.0542 0.0542 0.0811 0.019 0.0957v0.6l-0.019 0.0957-0.0542 0.0811-0.0811 0.0542-0.0957 0.019z"/>
   <path d="m33.405 31.775-0.0957-0.019-0.0811-0.0542-0.0542-0.0811-0.019-0.0957v-0.6l0.019-0.0957 0.0542-0.0811 0.0811-0.0542 0.0957-0.019h0.6l0.0957 0.019 0.0811 0.0542 0.0542 0.0811 0.019 0.0957v0.6l-0.019 0.0957-0.0542 0.0811-0.0811 0.0542-0.0957 0.019z"/>
   <path d="m52.455 15.525-0.0957-0.019-0.0811-0.0542-0.0542-0.0811-0.019-0.0957v-0.6l0.019-0.0957 0.0542-0.0811 0.0811-0.0542 0.0957-0.019h0.6l0.0957 0.019 0.0811 0.0542 0.0542 0.0811 0.019 0.0957v0.6l-0.019 0.0957-0.0542 0.0811-0.0811 0.0542-0.0957 0.019z"/>
   <path d="m52.455 12.725-0.0957-0.019-0.0811-0.0542-0.0542-0.0811-0.019-0.0957v-0.6l0.019-0.0957 0.0542-0.0811 0.0811-0.0542 0.0957-0.019h0.6l0.0957 0.019 0.0811 0.0542 0.0542 0.0811 0.019 0.0957v0.6l-0.019 0.0957-0.0542 0.0811-0.0811 0.0542-0.0957 0.019z"/>
   <path d="m90.555 15.525-0.0957-0.019-0.0811-0.0542-0.0542-0.0811-0.019-0.0957v-0.6l0.019-0.0957 0.0542-0.0811 0.0811-0.0542 0.0957-0.019h0.6l0.0957 0.019 0.0811 0.0542 0.0542 0.0811 0.019 0.0957v0.6l-0.019 0.0957-0.0542 0.0811-0.0811 0.0542-0.0957 0.019z"/>
   <path d="m90.555 12.725-0.0957-0.019-0.0811-0.0542-0.0542-0.0811-0.019-0.0957v-0.6l0.019-0.0957 0.0542-0.0811 0.0811-0.0542 0.0957-0.019h0.6l0.0957 0.019 0.0811 0.0542 0.0542 0.0811 0.019 0.0957v0.6l-0.019 0.0957-0.0542 0.0811-0.0811 0.0542-0.0957 0.019z"/>
   <path d="m52.455 34.575-0.0957-0.019-0.0811-0.0542-0.0542-0.0811-0.019-0.0957v-0.6l0.019-0.0957 0.0542-0.0811 0.0811-0.0542 0.0957-0.019h0.6l0.0957 0.019 0.0811 0.0542 0.0542 0.0811 0.019 0.0957v0.6l-0.019 0.0957-0.0542 0.0811-0.0811 0.0542-0.0957 0.019z"/>
   <path d="m52.455 31.775-0.0957-0.019-0.0811-0.0542-0.0542-0.0811-0.019-0.0957v-0.6l0.019-0.0957 0.0542-0.0811 0.0811-0.0542 0.0957-0.019h0.6l0.0957 0.019 0.0811 0.0542 0.0542 0.0811 0.019 0.0957v0.6l-0.019 0.0957-0.0542 0.0811-0.0811 0.0542-0.0957 0.019z"/>
   <path d="m109.6 34.575-0.0957-0.019-0.0811-0.0542-0.0542-0.0811-0.019-0.0957v-0.6l0.019-0.0957 0.0542-0.0811 0.0811-0.0542 0.0957-0.019h0.6l0.0957 0.019 0.0811 0.0542 0.0542 0.0811 0.019 0.0957v0.6l-0.019 0.0957-0.0542 0.0811-0.0811 0.0542-0.0957 0.019z"/>
   <path d="m109.6 31.775-0.0957-0.019-0.0811-0.0542-0.0542-0.0811-0.019-0.0957v-0.6l0.019-0.0957 0.0542-0.0811 0.0811-0.0542 0.0957-0.019h0.6l0.0957 0.019 0.0811 0.0542 0.0542 0.0811 0.019 0.0957v0.6l-0.019 0.0957-0.0542 0.0811-0.0811 0.0542-0.0957 0.019z"/>
   <path d="m71.505 34.575-0.0957-0.019-0.0811-0.0542-0.0542-0.0811-0.019-0.0957v-0.6l0.019-0.0957 0.0542-0.0811 0.0811-0.0542 0.0957-0.019h0.6l0.0957 0.019 0.0811 0.0542 0.0542 0.0811 0.019 0.0957v0.6l-0.019 0.0957-0.0542 0.0811-0.0811 0.0542-0.0957 0.019z"/>
   <path d="m71.505 31.775-0.0957-0.019-0.0811-0.0542-0.0542-0.0811-0.019-0.0957v-0.6l0.019-0.0957 0.0542-0.0811 0.0811-0.0542 0.0957-0.019h0.6l0.0957 0.019 0.0811 0.0542 0.0542 0.0811 0.019 0.0957v0.6l-0.019 0.0957-0.0542 0.0811-0.0811 0.0542-0.0957 0.019z"/>
   <path d="m14.355 15.525-0.0957-0.019-0.0811-0.0542-0.0542-0.0811-0.019-0.0957v-0.6l0.019-0.0957 0.0542-0.0811 0.0811-0.0542 0.0957-0.019h0.6l0.0957 0.019 0.0811 0.0542 0.0542 0.0811 0.019 0.0957v0.6l-0.019 0.0957-0.0542 0.0811-0.0811 0.0542-0.0957 0.019z"/>
   <path d="m14.355 12.725-0.0957-0.019-0.0811-0.0542-0.0542-0.0811-0.019-0.0957v-0.6l0.019-0.0957 0.0542-0.0811 0.0811-0.0542 0.0957-0.019h0.6l0.0957 0.019 0.0811 0.0542 0.0542 0.0811 0.019 0.0957v0.6l-0.019 0.0957-0.0542 0.0811-0.0811 0.0542-0.0957 0.019z"/>
   <path d="m33.405 15.525-0.0957-0.019-0.0811-0.0542-0.0542-0.0811-0.019-0.0957v-0.6l0.019-0.0957 0.0542-0.0811 0.0811-0.0542 0.0957-0.019h0.6l0.0957 0.019 0.0811 0.0542 0.0542 0.0811 0.019 0.0957v0.6l-0.019 0.0957-0.0542 0.0811-0.0811 0.0542-0.0957 0.019z"/>
   <path d="m33.405 12.725-0.0957-0.019-0.0811-0.0542-0.0542-0.0811-0.019-0.0957v-0.6l0.019-0.0957 0.0542-0.0811 0.0811-0.0542 0.0957-0.019h0.6l0.0957 0.019 0.0811 0.0542 0.0542 0.0811 0.019 0.0957v0.6l-0.019 0.0957-0.0542 0.0811-0.0811 0.0542-0.0957 0.019z"/>
   <path d="m14.355 34.575-0.0957-0.019-0.0811-0.0542-0.0542-0.0811-0.019-0.0957v-0.6l0.019-0.0957 0.0542-0.0811 0.0811-0.0542 0.0957-0.019h0.6l0.0957 0.019 0.0811 0.0542 0.0542 0.0811 0.019 0.0957v0.6l-0.019 0.0957-0.0542 0.0811-0.0811 0.0542-0.0957 0.019z"/>
   <path d="m14.355 31.775-0.0957-0.019-0.0811-0.0542-0.0542-0.0811-0.019-0.0957v-0.6l0.019-0.0957 0.0542-0.0811 0.0811-0.0542 0.0957-0.019h0.6l0.0957 0.019 0.0811 0.0542 0.0542 0.0811 0.019 0.0957v0.6l-0.019 0.0957-0.0542 0.0811-0.0811 0.0542-0.0957 0.019z"/>
   <path d="m109.6 15.525-0.0957-0.019-0.0811-0.0542-0.0542-0.0811-0.019-0.0957v-0.6l0.019-0.0957 0.0542-0.0811 0.0811-0.0542 0.0957-0.019h0.6l0.0957 0.019 0.0811 0.0542 0.0542 0.0811 0.019 0.0957v0.6l-0.019 0.0957-0.0542 0.0811-0.0811 0.0542-0.0957 0.019z"/>
   <path d="m109.6 12.725-0.0957-0.019-0.0811-0.0542-0.0542-0.0811-0.019-0.0957v-0.6l0.019-0.0957 0.0542-0.0811 0.0811-0.0542 0.0957-0.019h0.6l0.0957 0.019 0.0811 0.0542 0.0542 0.0811 0.019 0.0957v0.6l-0.019 0.0957-0.0542 0.0811-0.0811 0.0542-0.0957 0.019z"/>
   <path d="m90.555 34.575-0.0957-0.019-0.0811-0.0542-0.0542-0.0811-0.019-0.0957v-0.6l0.019-0.0957 0.0542-0.0811 0.0811-0.0542 0.0957-0.019h0.6l0.0957 0.019 0.0811 0.0542 0.0542 0.0811 0.019 0.0957v0.6l-0.019 0.0957-0.0542 0.0811-0.0811 0.0542-0.0957 0.019z"/>
   <path d="m90.555 31.775-0.0957-0.019-0.0811-0.0542-0.0542-0.0811-0.019-0.0957v-0.6l0.019-0.0957 0.0542-0.0811 0.0811-0.0542 0.0957-0.019h0.6l0.0957 0.019 0.0811 0.0542 0.0542 0.0811 0.019 0.0957v0.6l-0.019 0.0957-0.0542 0.0811-0.0811 0.0542-0.0957 0.019z"/>
  </g>
 </g>
 <g fill="none" stroke-linecap="round" stroke-linejoin="round">
  <g stroke="#50FA7B" stroke-width=".2">
   <path d="m69.265 28.685 2.54 2.54"/>
   <path d="m60.435 42.595 11.37-11.37"/>
   <path d="m31.165 42.595h29.27"/>
   <path d="m69.265 23.545v5.14"/>
   <path d="m88.315 23.545v5.14"/>
   <path d="m88.315 28.685 2.54 2.54"/>
   <path d="m107.36 23.545v5.14"/>
   <path d="m107.36 28.685 2.54 2.54"/>
   <path d="m50.215 9.635 2.54 2.54"/>
   <path d="m50.215 4.495v5.14"/>
   <path d="m69.265 9.635 2.54 2.54"/>
   <path d="m69.265 4.495v5.14"/>
   <path d="m88.315 9.635 2.54 2.54"/>
   <path d="m88.315 4.495v5.14"/>
   <path d="m107.36 9.635 2.54 2.54"/>
   <path d="m107.36 4.495v5.14"/>
   <path d="m50.215 28.685 2.54 2.54"/>
   <path d="m50.215 23.545v5.14"/>
   <path d="m90.855 14.975h19.05"/>
   <path d="m71.805 34.025h19.05"/>
   <path d="m33.705 14.975h19.05"/>
   <path d="m52.755 14.975h19.05"/>
   <path d="m71.805 14.975h19.05"/>
   <path d="m90.855 34.025h19.05"/>
   <path d="m14.655 34.025h19.05"/>
   <path d="m14.655 14.975h19.05"/>
   <path d="m33.705 34.025h19.05"/>
  </g>
  <g stroke="#8BE9FD" stroke-width=".15">
   <text x="9.5750" y="2.0750" font-size="1.3333" opacity="0" stroke-opacity="0" text-anchor="middle" lengthAdjust="spacingAndGlyphs" textLength="3.2976">SW1</text>
   <g class="stroked-text">
    <desc>SW1</desc>
    <path d="m8.2417 1.9822 0.1428 0.0476"/>
    <path d="m8.3845 2.0298h0.2381"/>
    <path d="m8.6226 2.0298 0.0953-0.0476"/>
    <path d="m8.7179 1.9822 0.0476-0.0476"/>
    <path d="m8.7655 1.9346 0.0476-0.0953"/>
    <path d="m8.8131 1.8393v-0.0952"/>
    <path d="m8.8131 1.7441-0.0476-0.0952"/>
    <path d="m8.7655 1.6489-0.0476-0.0477"/>
    <path d="m8.7179 1.6012-0.0953-0.0476"/>
    <path d="m8.6226 1.5536-0.1905-0.0476"/>
    <path d="m8.4321 1.506-0.0952-0.0476"/>
    <path d="m8.3369 1.4584-0.0476-0.0476"/>
    <path d="m8.2893 1.4108-0.0476-0.0953"/>
    <path d="m8.2417 1.3155v-0.0952"/>
    <path d="m8.2417 1.2203 0.0476-0.0952"/>
    <path d="m8.2893 1.1251 0.0476-0.0477"/>
    <path d="m8.3369 1.0774 0.0952-0.0476"/>
    <path d="m8.4321 1.0298h0.2381"/>
    <path d="m8.6702 1.0298 0.1429 0.0476"/>
    <path d="m9.1464 1.0298 0.2381 1"/>
    <path d="m9.3845 2.0298 0.1905-0.7143"/>
    <path d="m9.575 1.3155 0.1905 0.7143"/>
    <path d="m9.7655 2.0298 0.2381-1"/>
    <path d="m10.908 2.0298h-0.5714"/>
    <path d="m10.623 2.0298v-1"/>
    <path d="m10.623 1.0298-0.0952 0.1429"/>
    <path d="m10.527 1.1727-0.0953 0.0952"/>
    <path d="m10.432 1.2679-0.0952 0.0476"/>
   </g>
   <text x="28.6250" y="78.2750" font-size="1.3333" opacity="0" stroke-opacity="0" text-anchor="middle" lengthAdjust="spacingAndGlyphs" textLength="4.2024">SW8a</text>
   <g class="stroked-text">
    <desc>SW8a</desc>
    <path d="m26.839 78.182 0.1428 0.0476"/>
    <path d="m26.982 78.23h0.2381"/>
    <path d="m27.22 78.23 0.0953-0.0476"/>
    <path d="m27.316 78.182 0.0476-0.0476"/>
    <path d="m27.363 78.135 0.0476-0.0953"/>
    <path d="m27.411 78.039v-0.0952"/>
    <path d="m27.411 77.944-0.0476-0.0952"/>
    <path d="m27.363 77.849-0.0476-0.0477"/>
    <path d="m27.316 77.801-0.0953-0.0476"/>
    <path d="m27.22 77.754-0.1904-0.0476"/>
    <path d="m27.03 77.706-0.0953-0.0476"/>
    <path d="m26.934 77.658-0.0476-0.0476"/>
    <path d="m26.887 77.611-0.0476-0.0953"/>
    <path d="m26.839 77.516v-0.0952"/>
    <path d="m26.839 77.42 0.0476-0.0952"/>
    <path d="m26.887 77.325 0.0476-0.0477"/>
    <path d="m26.934 77.277 0.0953-0.0476"/>
    <path d="m27.03 77.23h0.2381"/>
    <path d="m27.268 77.23 0.1428 0.0476"/>
    <path d="m27.744 77.23 0.2381 1"/>
    <path d="m27.982 78.23 0.1905-0.7143"/>
    <path d="m28.173 77.516 0.1905 0.7143"/>
    <path d="m28.363 78.23 0.2381-1"/>
    <path d="m29.125 77.658-0.0952-0.0476"/>
    <path d="m29.03 77.611-0.0477-0.0476"/>
    <path d="m28.982 77.563-0.0476-0.0953"/>
    <path d="m28.934 77.468v-0.0476"/>
    <path d="m28.934 77.42 0.0476-0.0952"/>
    <path d="m28.982 77.325 0.0477-0.0477"/>
    <path d="m29.03 77.277 0.0952-0.0476"/>
    <path d="m29.125 77.23h0.1905"/>
    <path d="m29.316 77.23 0.0952 0.0476"/>
    <path d="m29.411 77.277 0.0476 0.0477"/>
    <path d="m29.458 77.325 0.0477 0.0952"/>
    <path d="m29.506 77.42v0.0476"/>
    <path d="m29.506 77.468-0.0477 0.0953"/>
    <path d="m29.458 77.563-0.0476 0.0476"/>
    <path d="m29.411 77.611-0.0952 0.0476"/>
    <path d="m29.316 77.658h-0.1905"/>
    <path d="m29.125 77.658-0.0952 0.0476"/>
    <path d="m29.03 77.706-0.0477 0.0476"/>
    <path d="m28.982 77.754-0.0476 0.0953"/>
    <path d="m28.934 77.849v0.1904"/>
    <path d="m28.934 78.039 0.0476 0.0953"/>
    <path d="m28.982 78.135 0.0477 0.0476"/>
    <path d="m29.03 78.182 0.0952 0.0476"/>
    <path d="m29.125 78.23h0.1905"/>
    <path d="m29.316 78.23 0.0952-0.0476"/>
    <path d="m29.411 78.182 0.0476-0.0476"/>
    <path d="m29.458 78.135 0.0477-0.0953"/>
    <path d="m29.506 78.039v-0.1904"/>
    <path d="m29.506 77.849-0.0477-0.0953"/>
    <path d="m29.458 77.754-0.0476-0.0476"/>
    <path d="m29.411 77.706-0.0952-0.0476"/>
    <path d="m30.363 78.23v-0.5238"/>
    <path d="m30.363 77.706-0.0476-0.0952"/>
    <path d="m30.316 77.611-0.0953-0.0476"/>
    <path d="m30.22 77.563h-0.1904"/>
    <path d="m30.03 77.563-0.0953 0.0476"/>
    <path d="m30.363 78.182-0.0952 0.0476"/>
    <path d="m30.268 78.23h-0.2381"/>
    <path d="m30.03 78.23-0.0953-0.0476"/>
    <path d="m29.934 78.182-0.0476-0.0952"/>
    <path d="m29.887 78.087v-0.0953"/>
    <path d="m29.887 77.992 0.0476-0.0952"/>
    <path d="m29.934 77.896 0.0953-0.0476"/>
    <path d="m30.03 77.849h0.2381"/>
    <path d="m30.268 77.849 0.0952-0.0477"/>
   </g>
   <text x="66.7250" y="21.1250" font-size="1.3333" opacity="0" stroke-opacity="0" text-anchor="middle" lengthAdjust="spacingAndGlyphs" textLength="4.2500">SW10</text>
   <g class="stroked-text">
    <desc>SW10</desc>
    <path d="m64.916 21.032 0.1428 0.0476"/>
    <path d="m65.058 21.08h0.2381"/>
    <path d="m65.296 21.08 0.0953-0.0476"/>
    <path d="m65.392 21.032 0.0476-0.0476"/>
    <path d="m65.439 20.985 0.0476-0.0953"/>
    <path d="m65.487 20.889v-0.0952"/>
    <path d="m65.487 20.794-0.0476-0.0952"/>
    <path d="m65.439 20.699-0.0476-0.0477"/>
    <path d="m65.392 20.651-0.0953-0.0476"/>
    <path d="m65.296 20.604-0.1904-0.0476"/>
    <path d="m65.106 20.556-0.0953-0.0476"/>
    <path d="m65.011 20.508-0.0476-0.0476"/>
    <path d="m64.963 20.461-0.0476-0.0953"/>
    <path d="m64.916 20.366v-0.0952"/>
    <path d="m64.916 20.27 0.0476-0.0952"/>
    <path d="m64.963 20.175 0.0476-0.0477"/>
    <path d="m65.011 20.127 0.0953-0.0476"/>
    <path d="m65.106 20.08h0.238"/>
    <path d="m65.344 20.08 0.1429 0.0476"/>
    <path d="m65.82 20.08 0.2381 1"/>
    <path d="m66.058 21.08 0.1905-0.7143"/>
    <path d="m66.249 20.366 0.1905 0.7143"/>
    <path d="m66.439 21.08 0.2381-1"/>
    <path d="m67.582 21.08h-0.5714"/>
    <path d="m67.296 21.08v-1"/>
    <path d="m67.296 20.08-0.0952 0.1429"/>
    <path d="m67.201 20.223-0.0952 0.0952"/>
    <path d="m67.106 20.318-0.0953 0.0476"/>
    <path d="m68.201 20.08h0.0952"/>
    <path d="m68.296 20.08 0.0953 0.0476"/>
    <path d="m68.392 20.127 0.0476 0.0477"/>
    <path d="m68.439 20.175 0.0476 0.0952"/>
    <path d="m68.487 20.27 0.0476 0.1905"/>
    <path d="m68.534 20.461v0.2381"/>
    <path d="m68.534 20.699-0.0476 0.1904"/>
    <path d="m68.487 20.889-0.0476 0.0953"/>
    <path d="m68.439 20.985-0.0476 0.0476"/>
    <path d="m68.392 21.032-0.0953 0.0476"/>
    <path d="m68.296 21.08h-0.0952"/>
    <path d="m68.201 21.08-0.0952-0.0476"/>
    <path d="m68.106 21.032-0.0477-0.0476"/>
    <path d="m68.058 20.985-0.0476-0.0953"/>
    <path d="m68.011 20.889-0.0476-0.1904"/>
    <path d="m67.963 20.699v-0.2381"/>
    <path d="m67.963 20.461 0.0476-0.1905"/>
    <path d="m68.011 20.27 0.0476-0.0952"/>
    <path d="m68.058 20.175 0.0477-0.0477"/>
    <path d="m68.106 20.127 0.0952-0.0476"/>
   </g>
   <text x="9.5750" y="59.2250" font-size="1.3333" opacity="0" stroke-opacity="0" text-anchor="middle" lengthAdjust="spacingAndGlyphs" textLength="4.2024">SW3a</text>
   <g class="stroked-text">
    <desc>SW3a</desc>
    <path d="m7.7893 59.132 0.1428 0.0476"/>
    <path d="m7.9321 59.18h0.2381"/>
    <path d="m8.1702 59.18 0.0953-0.0476"/>
    <path d="m8.2655 59.132 0.0476-0.0476"/>
    <path d="m8.3131 59.085 0.0476-0.0953"/>
    <path d="m8.3607 58.989v-0.0952"/>
    <path d="m8.3607 58.894-0.0476-0.0952"/>
    <path d="m8.3131 58.799-0.0476-0.0477"/>
    <path d="m8.2655 58.751-0.0953-0.0476"/>
    <path d="m8.1702 58.704-0.1904-0.0476"/>
    <path d="m7.9798 58.656-0.0953-0.0476"/>
    <path d="m7.8845 58.608-0.0476-0.0476"/>
    <path d="m7.8369 58.561-0.0476-0.0953"/>
    <path d="m7.7893 58.466v-0.0952"/>
    <path d="m7.7893 58.37 0.0476-0.0952"/>
    <path d="m7.8369 58.275 0.0476-0.0477"/>
    <path d="m7.8845 58.227 0.0953-0.0476"/>
    <path d="m7.9798 58.18h0.2381"/>
    <path d="m8.2179 58.18 0.1428 0.0476"/>
    <path d="m8.694 58.18 0.2381 1"/>
    <path d="m8.9321 59.18 0.1905-0.7143"/>
    <path d="m9.1226 58.466 0.1905 0.7143"/>
    <path d="m9.3131 59.18 0.2381-1"/>
    <path d="m9.8369 58.18h0.6191"/>
    <path d="m10.456 58.18-0.3334 0.381"/>
    <path d="m10.123 58.561h0.1429"/>
    <path d="m10.266 58.561 0.0952 0.0476"/>
    <path d="m10.361 58.608 0.0476 0.0476"/>
    <path d="m10.408 58.656 0.0477 0.0952"/>
    <path d="m10.456 58.751v0.2381"/>
    <path d="m10.456 58.989-0.0477 0.0953"/>
    <path d="m10.408 59.085-0.0476 0.0476"/>
    <path d="m10.361 59.132-0.0952 0.0476"/>
    <path d="m10.266 59.18h-0.2857"/>
    <path d="m9.9798 59.18-0.0953-0.0476"/>
    <path d="m9.8845 59.132-0.0476-0.0476"/>
    <path d="m11.313 59.18v-0.5238"/>
    <path d="m11.313 58.656-0.0476-0.0952"/>
    <path d="m11.266 58.561-0.0953-0.0476"/>
    <path d="m11.17 58.513h-0.1904"/>
    <path d="m10.98 58.513-0.0953 0.0476"/>
    <path d="m11.313 59.132-0.0952 0.0476"/>
    <path d="m11.218 59.18h-0.2381"/>
    <path d="m10.98 59.18-0.0953-0.0476"/>
    <path d="m10.884 59.132-0.0476-0.0952"/>
    <path d="m10.837 59.037v-0.0953"/>
    <path d="m10.837 58.942 0.0476-0.0952"/>
    <path d="m10.884 58.846 0.0953-0.0476"/>
    <path d="m10.98 58.799h0.2381"/>
    <path d="m11.218 58.799 0.0952-0.0477"/>
   </g>
   <text x="104.8250" y="21.1250" font-size="1.3333" opacity="0" stroke-opacity="0" text-anchor="middle" lengthAdjust="spacingAndGlyphs" textLength="4.2500">SW12</text>
   <g class="stroked-text">
    <desc>SW12</desc>
    <path d="m103.02 21.032 0.1428 0.0476"/>
    <path d="m103.16 21.08h0.2381"/>
    <path d="m103.4 21.08 0.0953-0.0476"/>
    <path d="m103.49 21.032 0.0476-0.0476"/>
    <path d="m103.54 20.985 0.0476-0.0953"/>
    <path d="m103.59 20.889v-0.0952"/>
    <path d="m103.59 20.794-0.0476-0.0952"/>
    <path d="m103.54 20.699-0.0476-0.0477"/>
    <path d="m103.49 20.651-0.0953-0.0476"/>
    <path d="m103.4 20.604-0.1904-0.0476"/>
    <path d="m103.21 20.556-0.0953-0.0476"/>
    <path d="m103.11 20.508-0.0476-0.0476"/>
    <path d="m103.06 20.461-0.0476-0.0953"/>
    <path d="m103.02 20.366v-0.0952"/>
    <path d="m103.02 20.27 0.0476-0.0952"/>
    <path d="m103.06 20.175 0.0476-0.0477"/>
    <path d="m103.11 20.127 0.0953-0.0476"/>
    <path d="m103.21 20.08h0.238"/>
    <path d="m103.44 20.08 0.1429 0.0476"/>
    <path d="m103.92 20.08 0.2381 1"/>
    <path d="m104.16 21.08 0.1905-0.7143"/>
    <path d="m104.35 20.366 0.1905 0.7143"/>
    <path d="m104.54 21.08 0.2381-1"/>
    <path d="m105.68 21.08h-0.5714"/>
    <path d="m105.4 21.08v-1"/>
    <path d="m105.4 20.08-0.0952 0.1429"/>
    <path d="m105.3 20.223-0.0952 0.0952"/>
    <path d="m105.21 20.318-0.0953 0.0476"/>
    <path d="m106.06 20.175 0.0476-0.0477"/>
    <path d="m106.11 20.127 0.0953-0.0476"/>
    <path d="m106.21 20.08h0.238"/>
    <path d="m106.44 20.08 0.0953 0.0476"/>
    <path d="m106.54 20.127 0.0476 0.0477"/>
    <path d="m106.59 20.175 0.0476 0.0952"/>
    <path d="m106.63 20.27v0.0952"/>
    <path d="m106.63 20.366-0.0476 0.1429"/>
    <path d="m106.59 20.508-0.5714 0.5714"/>
    <path d="m106.02 21.08h0.619"/>
   </g>
   <text x="28.6250" y="21.1250" font-size="1.3333" opacity="0" stroke-opacity="0" text-anchor="middle" lengthAdjust="spacingAndGlyphs" textLength="5.1548">SW11a</text>
   <g class="stroked-text">
    <desc>SW11a</desc>
    <path d="m26.363 21.032 0.1429 0.0476"/>
    <path d="m26.506 21.08h0.238"/>
    <path d="m26.744 21.08 0.0953-0.0476"/>
    <path d="m26.839 21.032 0.0476-0.0476"/>
    <path d="m26.887 20.985 0.0476-0.0953"/>
    <path d="m26.934 20.889v-0.0952"/>
    <path d="m26.934 20.794-0.0476-0.0952"/>
    <path d="m26.887 20.699-0.0476-0.0477"/>
    <path d="m26.839 20.651-0.0953-0.0476"/>
    <path d="m26.744 20.604-0.1904-0.0476"/>
    <path d="m26.554 20.556-0.0953-0.0476"/>
    <path d="m26.458 20.508-0.0476-0.0476"/>
    <path d="m26.411 20.461-0.0476-0.0953"/>
    <path d="m26.363 20.366v-0.0952"/>
    <path d="m26.363 20.27 0.0476-0.0952"/>
    <path d="m26.411 20.175 0.0476-0.0477"/>
    <path d="m26.458 20.127 0.0953-0.0476"/>
    <path d="m26.554 20.08h0.2381"/>
    <path d="m26.792 20.08 0.1428 0.0476"/>
    <path d="m27.268 20.08 0.2381 1"/>
    <path d="m27.506 21.08 0.1904-0.7143"/>
    <path d="m27.696 20.366 0.1905 0.7143"/>
    <path d="m27.887 21.08 0.2381-1"/>
    <path d="m29.03 21.08h-0.5715"/>
    <path d="m28.744 21.08v-1"/>
    <path d="m28.744 20.08-0.0952 0.1429"/>
    <path d="m28.649 20.223-0.0952 0.0952"/>
    <path d="m28.554 20.318-0.0953 0.0476"/>
    <path d="m29.982 21.08h-0.5714"/>
    <path d="m29.696 21.08v-1"/>
    <path d="m29.696 20.08-0.0952 0.1429"/>
    <path d="m29.601 20.223-0.0952 0.0952"/>
    <path d="m29.506 20.318-0.0953 0.0476"/>
    <path d="m30.839 21.08v-0.5238"/>
    <path d="m30.839 20.556-0.0476-0.0952"/>
    <path d="m30.792 20.461-0.0953-0.0476"/>
    <path d="m30.696 20.413h-0.1904"/>
    <path d="m30.506 20.413-0.0953 0.0476"/>
    <path d="m30.839 21.032-0.0953 0.0476"/>
    <path d="m30.744 21.08h-0.238"/>
    <path d="m30.506 21.08-0.0953-0.0476"/>
    <path d="m30.411 21.032-0.0476-0.0952"/>
    <path d="m30.363 20.937v-0.0953"/>
    <path d="m30.363 20.842 0.0476-0.0952"/>
    <path d="m30.411 20.746 0.0953-0.0476"/>
    <path d="m30.506 20.699h0.238"/>
    <path d="m30.744 20.699 0.0953-0.0477"/>
   </g>
   <text x="28.6250" y="21.1250" font-size="1.3333" opacity="0" stroke-opacity="0" text-anchor="middle" lengthAdjust="spacingAndGlyphs" textLength="3.2976">SW8</text>
   <g class="stroked-text">
    <desc>SW8</desc>
    <path d="m27.292 21.032 0.1428 0.0476"/>
    <path d="m27.434 21.08h0.2381"/>
    <path d="m27.673 21.08 0.0953-0.0476"/>
    <path d="m27.768 21.032 0.0476-0.0476"/>
    <path d="m27.816 20.985 0.0476-0.0953"/>
    <path d="m27.863 20.889v-0.0952"/>
    <path d="m27.863 20.794-0.0476-0.0952"/>
    <path d="m27.816 20.699-0.0476-0.0477"/>
    <path d="m27.768 20.651-0.0953-0.0476"/>
    <path d="m27.673 20.604-0.1905-0.0476"/>
    <path d="m27.482 20.556-0.0952-0.0476"/>
    <path d="m27.387 20.508-0.0476-0.0476"/>
    <path d="m27.339 20.461-0.0476-0.0953"/>
    <path d="m27.292 20.366v-0.0952"/>
    <path d="m27.292 20.27 0.0476-0.0952"/>
    <path d="m27.339 20.175 0.0476-0.0477"/>
    <path d="m27.387 20.127 0.0952-0.0476"/>
    <path d="m27.482 20.08h0.2381"/>
    <path d="m27.72 20.08 0.1429 0.0476"/>
    <path d="m28.196 20.08 0.2381 1"/>
    <path d="m28.434 21.08 0.1905-0.7143"/>
    <path d="m28.625 20.366 0.1905 0.7143"/>
    <path d="m28.816 21.08 0.2381-1"/>
    <path d="m29.577 20.508-0.0953-0.0476"/>
    <path d="m29.482 20.461-0.0476-0.0476"/>
    <path d="m29.434 20.413-0.0476-0.0953"/>
    <path d="m29.387 20.318v-0.0476"/>
    <path d="m29.387 20.27 0.0476-0.0952"/>
    <path d="m29.434 20.175 0.0476-0.0477"/>
    <path d="m29.482 20.127 0.0953-0.0476"/>
    <path d="m29.577 20.08h0.1905"/>
    <path d="m29.768 20.08 0.0952 0.0476"/>
    <path d="m29.863 20.127 0.0476 0.0477"/>
    <path d="m29.911 20.175 0.0476 0.0952"/>
    <path d="m29.958 20.27v0.0476"/>
    <path d="m29.958 20.318-0.0476 0.0953"/>
    <path d="m29.911 20.413-0.0476 0.0476"/>
    <path d="m29.863 20.461-0.0952 0.0476"/>
    <path d="m29.768 20.508h-0.1905"/>
    <path d="m29.577 20.508-0.0953 0.0476"/>
    <path d="m29.482 20.556-0.0476 0.0476"/>
    <path d="m29.434 20.604-0.0476 0.0953"/>
    <path d="m29.387 20.699v0.1904"/>
    <path d="m29.387 20.889 0.0476 0.0953"/>
    <path d="m29.434 20.985 0.0476 0.0476"/>
    <path d="m29.482 21.032 0.0953 0.0476"/>
    <path d="m29.577 21.08h0.1905"/>
    <path d="m29.768 21.08 0.0952-0.0476"/>
    <path d="m29.863 21.032 0.0476-0.0476"/>
    <path d="m29.911 20.985 0.0476-0.0953"/>
    <path d="m29.958 20.889v-0.1904"/>
    <path d="m29.958 20.699-0.0476-0.0953"/>
    <path d="m29.911 20.604-0.0476-0.0476"/>
    <path d="m29.863 20.556-0.0952-0.0476"/>
   </g>
   <text x="28.6250" y="59.2250" font-size="1.3333" opacity="0" stroke-opacity="0" text-anchor="middle" lengthAdjust="spacingAndGlyphs" textLength="4.2024">SW9a</text>
   <g class="stroked-text">
    <desc>SW9a</desc>
    <path d="m26.839 59.132 0.1428 0.0476"/>
    <path d="m26.982 59.18h0.2381"/>
    <path d="m27.22 59.18 0.0953-0.0476"/>
    <path d="m27.316 59.132 0.0476-0.0476"/>
    <path d="m27.363 59.085 0.0476-0.0953"/>
    <path d="m27.411 58.989v-0.0952"/>
    <path d="m27.411 58.894-0.0476-0.0952"/>
    <path d="m27.363 58.799-0.0476-0.0477"/>
    <path d="m27.316 58.751-0.0953-0.0476"/>
    <path d="m27.22 58.704-0.1904-0.0476"/>
    <path d="m27.03 58.656-0.0953-0.0476"/>
    <path d="m26.934 58.608-0.0476-0.0476"/>
    <path d="m26.887 58.561-0.0476-0.0953"/>
    <path d="m26.839 58.466v-0.0952"/>
    <path d="m26.839 58.37 0.0476-0.0952"/>
    <path d="m26.887 58.275 0.0476-0.0477"/>
    <path d="m26.934 58.227 0.0953-0.0476"/>
    <path d="m27.03 58.18h0.2381"/>
    <path d="m27.268 58.18 0.1428 0.0476"/>
    <path d="m27.744 58.18 0.2381 1"/>
    <path d="m27.982 59.18 0.1905-0.7143"/>
    <path d="m28.173 58.466 0.1905 0.7143"/>
    <path d="m28.363 59.18 0.2381-1"/>
    <path d="m29.03 59.18h0.1904"/>
    <path d="m29.22 59.18 0.0953-0.0476"/>
    <path d="m29.316 59.132 0.0476-0.0476"/>
    <path d="m29.363 59.085 0.0952-0.1429"/>
    <path d="m29.458 58.942 0.0477-0.1905"/>
    <path d="m29.506 58.751v-0.3809"/>
    <path d="m29.506 58.37-0.0477-0.0952"/>
    <path d="m29.458 58.275-0.0476-0.0477"/>
    <path d="m29.411 58.227-0.0952-0.0476"/>
    <path d="m29.316 58.18h-0.1905"/>
    <path d="m29.125 58.18-0.0952 0.0476"/>
    <path d="m29.03 58.227-0.0477 0.0477"/>
    <path d="m28.982 58.275-0.0476 0.0952"/>
    <path d="m28.934 58.37v0.2381"/>
    <path d="m28.934 58.608 0.0476 0.0952"/>
    <path d="m28.982 58.704 0.0477 0.0476"/>
    <path d="m29.03 58.751 0.0952 0.0477"/>
    <path d="m29.125 58.799h0.1905"/>
    <path d="m29.316 58.799 0.0952-0.0477"/>
    <path d="m29.411 58.751 0.0476-0.0476"/>
    <path d="m29.458 58.704 0.0477-0.0952"/>
    <path d="m30.363 59.18v-0.5238"/>
    <path d="m30.363 58.656-0.0476-0.0952"/>
    <path d="m30.316 58.561-0.0953-0.0476"/>
    <path d="m30.22 58.513h-0.1904"/>
    <path d="m30.03 58.513-0.0953 0.0476"/>
    <path d="m30.363 59.132-0.0952 0.0476"/>
    <path d="m30.268 59.18h-0.2381"/>
    <path d="m30.03 59.18-0.0953-0.0476"/>
    <path d="m29.934 59.132-0.0476-0.0952"/>
    <path d="m29.887 59.037v-0.0953"/>
    <path d="m29.887 58.942 0.0476-0.0952"/>
    <path d="m29.934 58.846 0.0953-0.0476"/>
    <path d="m30.03 58.799h0.2381"/>
    <path d="m30.268 58.799 0.0952-0.0477"/>
   </g>
   <text x="9.5750" y="78.2750" font-size="1.3333" opacity="0" stroke-opacity="0" text-anchor="middle" lengthAdjust="spacingAndGlyphs" textLength="4.2024">SW2a</text>
   <g class="stroked-text">
    <desc>SW2a</desc>
    <path d="m7.7893 78.182 0.1428 0.0476"/>
    <path d="m7.9321 78.23h0.2381"/>
    <path d="m8.1702 78.23 0.0953-0.0476"/>
    <path d="m8.2655 78.182 0.0476-0.0476"/>
    <path d="m8.3131 78.135 0.0476-0.0953"/>
    <path d="m8.3607 78.039v-0.0952"/>
    <path d="m8.3607 77.944-0.0476-0.0952"/>
    <path d="m8.3131 77.849-0.0476-0.0477"/>
    <path d="m8.2655 77.801-0.0953-0.0476"/>
    <path d="m8.1702 77.754-0.1904-0.0476"/>
    <path d="m7.9798 77.706-0.0953-0.0476"/>
    <path d="m7.8845 77.658-0.0476-0.0476"/>
    <path d="m7.8369 77.611-0.0476-0.0953"/>
    <path d="m7.7893 77.516v-0.0952"/>
    <path d="m7.7893 77.42 0.0476-0.0952"/>
    <path d="m7.8369 77.325 0.0476-0.0477"/>
    <path d="m7.8845 77.277 0.0953-0.0476"/>
    <path d="m7.9798 77.23h0.2381"/>
    <path d="m8.2179 77.23 0.1428 0.0476"/>
    <path d="m8.694 77.23 0.2381 1"/>
    <path d="m8.9321 78.23 0.1905-0.7143"/>
    <path d="m9.1226 77.516 0.1905 0.7143"/>
    <path d="m9.3131 78.23 0.2381-1"/>
    <path d="m9.8845 77.325 0.0476-0.0477"/>
    <path d="m9.9321 77.277 0.0953-0.0476"/>
    <path d="m10.027 77.23h0.2381"/>
    <path d="m10.266 77.23 0.0952 0.0476"/>
    <path d="m10.361 77.277 0.0476 0.0477"/>
    <path d="m10.408 77.325 0.0477 0.0952"/>
    <path d="m10.456 77.42v0.0952"/>
    <path d="m10.456 77.516-0.0477 0.1429"/>
    <path d="m10.408 77.658-0.5714 0.5714"/>
    <path d="m9.8369 78.23h0.6191"/>
    <path d="m11.313 78.23v-0.5238"/>
    <path d="m11.313 77.706-0.0476-0.0952"/>
    <path d="m11.266 77.611-0.0953-0.0476"/>
    <path d="m11.17 77.563h-0.1904"/>
    <path d="m10.98 77.563-0.0953 0.0476"/>
    <path d="m11.313 78.182-0.0952 0.0476"/>
    <path d="m11.218 78.23h-0.2381"/>
    <path d="m10.98 78.23-0.0953-0.0476"/>
    <path d="m10.884 78.182-0.0476-0.0952"/>
    <path d="m10.837 78.087v-0.0953"/>
    <path d="m10.837 77.992 0.0476-0.0952"/>
    <path d="m10.884 77.896 0.0953-0.0476"/>
    <path d="m10.98 77.849h0.2381"/>
    <path d="m11.218 77.849 0.0952-0.0477"/>
   </g>
   <text x="85.7750" y="2.0750" font-size="1.3333" opacity="0" stroke-opacity="0" text-anchor="middle" lengthAdjust="spacingAndGlyphs" textLength="3.2976">SW5</text>
   <g class="stroked-text">
    <desc>SW5</desc>
    <path d="m84.442 1.9822 0.1428 0.0476"/>
    <path d="m84.584 2.0298h0.2381"/>
    <path d="m84.823 2.0298 0.0953-0.0476"/>
    <path d="m84.918 1.9822 0.0476-0.0476"/>
    <path d="m84.966 1.9346 0.0476-0.0953"/>
    <path d="m85.013 1.8393v-0.0952"/>
    <path d="m85.013 1.7441-0.0476-0.0952"/>
    <path d="m84.966 1.6489-0.0476-0.0477"/>
    <path d="m84.918 1.6012-0.0953-0.0476"/>
    <path d="m84.823 1.5536-0.1905-0.0476"/>
    <path d="m84.632 1.506-0.0952-0.0476"/>
    <path d="m84.537 1.4584-0.0476-0.0476"/>
    <path d="m84.489 1.4108-0.0476-0.0953"/>
    <path d="m84.442 1.3155v-0.0952"/>
    <path d="m84.442 1.2203 0.0476-0.0952"/>
    <path d="m84.489 1.1251 0.0476-0.0477"/>
    <path d="m84.537 1.0774 0.0952-0.0476"/>
    <path d="m84.632 1.0298h0.2381"/>
    <path d="m84.87 1.0298 0.1429 0.0476"/>
    <path d="m85.346 1.0298 0.2381 1"/>
    <path d="m85.584 2.0298 0.1905-0.7143"/>
    <path d="m85.775 1.3155 0.1905 0.7143"/>
    <path d="m85.966 2.0298 0.2381-1"/>
    <path d="m87.061 1.0298h-0.4762"/>
    <path d="m86.584 1.0298-0.0476 0.4762"/>
    <path d="m86.537 1.506 0.0476-0.0476"/>
    <path d="m86.584 1.4584 0.0953-0.0476"/>
    <path d="m86.68 1.4108h0.2381"/>
    <path d="m86.918 1.4108 0.0952 0.0476"/>
    <path d="m87.013 1.4584 0.0476 0.0476"/>
    <path d="m87.061 1.506 0.0476 0.0952"/>
    <path d="m87.108 1.6012v0.2381"/>
    <path d="m87.108 1.8393-0.0476 0.0953"/>
    <path d="m87.061 1.9346-0.0476 0.0476"/>
    <path d="m87.013 1.9822-0.0952 0.0476"/>
    <path d="m86.918 2.0298h-0.2381"/>
    <path d="m86.68 2.0298-0.0953-0.0476"/>
    <path d="m86.584 1.9822-0.0476-0.0476"/>
   </g>
   <text x="28.6250" y="40.1750" font-size="1.3333" opacity="0" stroke-opacity="0" text-anchor="middle" lengthAdjust="spacingAndGlyphs" textLength="5.1548">SW10a</text>
   <g class="stroked-text">
    <desc>SW10a</desc>
    <path d="m26.363 40.082 0.1429 0.0476"/>
    <path d="m26.506 40.13h0.238"/>
    <path d="m26.744 40.13 0.0953-0.0476"/>
    <path d="m26.839 40.082 0.0476-0.0476"/>
    <path d="m26.887 40.035 0.0476-0.0953"/>
    <path d="m26.934 39.939v-0.0952"/>
    <path d="m26.934 39.844-0.0476-0.0952"/>
    <path d="m26.887 39.749-0.0476-0.0477"/>
    <path d="m26.839 39.701-0.0953-0.0476"/>
    <path d="m26.744 39.654-0.1904-0.0476"/>
    <path d="m26.554 39.606-0.0953-0.0476"/>
    <path d="m26.458 39.558-0.0476-0.0476"/>
    <path d="m26.411 39.511-0.0476-0.0953"/>
    <path d="m26.363 39.416v-0.0952"/>
    <path d="m26.363 39.32 0.0476-0.0952"/>
    <path d="m26.411 39.225 0.0476-0.0477"/>
    <path d="m26.458 39.177 0.0953-0.0476"/>
    <path d="m26.554 39.13h0.2381"/>
    <path d="m26.792 39.13 0.1428 0.0476"/>
    <path d="m27.268 39.13 0.2381 1"/>
    <path d="m27.506 40.13 0.1904-0.7143"/>
    <path d="m27.696 39.416 0.1905 0.7143"/>
    <path d="m27.887 40.13 0.2381-1"/>
    <path d="m29.03 40.13h-0.5715"/>
    <path d="m28.744 40.13v-1"/>
    <path d="m28.744 39.13-0.0952 0.1429"/>
    <path d="m28.649 39.273-0.0952 0.0952"/>
    <path d="m28.554 39.368-0.0953 0.0476"/>
    <path d="m29.649 39.13h0.0952"/>
    <path d="m29.744 39.13 0.0953 0.0476"/>
    <path d="m29.839 39.177 0.0476 0.0477"/>
    <path d="m29.887 39.225 0.0476 0.0952"/>
    <path d="m29.934 39.32 0.0476 0.1905"/>
    <path d="m29.982 39.511v0.2381"/>
    <path d="m29.982 39.749-0.0476 0.1904"/>
    <path d="m29.934 39.939-0.0476 0.0953"/>
    <path d="m29.887 40.035-0.0476 0.0476"/>
    <path d="m29.839 40.082-0.0953 0.0476"/>
    <path d="m29.744 40.13h-0.0952"/>
    <path d="m29.649 40.13-0.0952-0.0476"/>
    <path d="m29.554 40.082-0.0476-0.0476"/>
    <path d="m29.506 40.035-0.0477-0.0953"/>
    <path d="m29.458 39.939-0.0476-0.1904"/>
    <path d="m29.411 39.749v-0.2381"/>
    <path d="m29.411 39.511 0.0476-0.1905"/>
    <path d="m29.458 39.32 0.0477-0.0952"/>
    <path d="m29.506 39.225 0.0476-0.0477"/>
    <path d="m29.554 39.177 0.0952-0.0476"/>
    <path d="m30.839 40.13v-0.5238"/>
    <path d="m30.839 39.606-0.0476-0.0952"/>
    <path d="m30.792 39.511-0.0953-0.0476"/>
    <path d="m30.696 39.463h-0.1904"/>
    <path d="m30.506 39.463-0.0953 0.0476"/>
    <path d="m30.839 40.082-0.0953 0.0476"/>
    <path d="m30.744 40.13h-0.238"/>
    <path d="m30.506 40.13-0.0953-0.0476"/>
    <path d="m30.411 40.082-0.0476-0.0952"/>
    <path d="m30.363 39.987v-0.0953"/>
    <path d="m30.363 39.892 0.0476-0.0952"/>
    <path d="m30.411 39.796 0.0953-0.0476"/>
    <path d="m30.506 39.749h0.238"/>
    <path d="m30.744 39.749 0.0953-0.0477"/>
   </g>
   <text x="28.6250" y="2.0750" font-size="1.3333" opacity="0" stroke-opacity="0" text-anchor="middle" lengthAdjust="spacingAndGlyphs" textLength="3.2976">SW2</text>
   <g class="stroked-text">
    <desc>SW2</desc>
    <path d="m27.292 1.9822 0.1428 0.0476"/>
    <path d="m27.434 2.0298h0.2381"/>
    <path d="m27.673 2.0298 0.0953-0.0476"/>
    <path d="m27.768 1.9822 0.0476-0.0476"/>
    <path d="m27.816 1.9346 0.0476-0.0953"/>
    <path d="m27.863 1.8393v-0.0952"/>
    <path d="m27.863 1.7441-0.0476-0.0952"/>
    <path d="m27.816 1.6489-0.0476-0.0477"/>
    <path d="m27.768 1.6012-0.0953-0.0476"/>
    <path d="m27.673 1.5536-0.1905-0.0476"/>
    <path d="m27.482 1.506-0.0952-0.0476"/>
    <path d="m27.387 1.4584-0.0476-0.0476"/>
    <path d="m27.339 1.4108-0.0476-0.0953"/>
    <path d="m27.292 1.3155v-0.0952"/>
    <path d="m27.292 1.2203 0.0476-0.0952"/>
    <path d="m27.339 1.1251 0.0476-0.0477"/>
    <path d="m27.387 1.0774 0.0952-0.0476"/>
    <path d="m27.482 1.0298h0.2381"/>
    <path d="m27.72 1.0298 0.1429 0.0476"/>
    <path d="m28.196 1.0298 0.2381 1"/>
    <path d="m28.434 2.0298 0.1905-0.7143"/>
    <path d="m28.625 1.3155 0.1905 0.7143"/>
    <path d="m28.816 2.0298 0.2381-1"/>
    <path d="m29.387 1.1251 0.0476-0.0477"/>
    <path d="m29.434 1.0774 0.0953-0.0476"/>
    <path d="m29.53 1.0298h0.2381"/>
    <path d="m29.768 1.0298 0.0952 0.0476"/>
    <path d="m29.863 1.0774 0.0476 0.0477"/>
    <path d="m29.911 1.1251 0.0476 0.0952"/>
    <path d="m29.958 1.2203v0.0952"/>
    <path d="m29.958 1.3155-0.0476 0.1429"/>
    <path d="m29.911 1.4584-0.5714 0.5714"/>
    <path d="m29.339 2.0298h0.619"/>
   </g>
   <text x="104.8250" y="2.0750" font-size="1.3333" opacity="0" stroke-opacity="0" text-anchor="middle" lengthAdjust="spacingAndGlyphs" textLength="3.2976">SW6</text>
   <g class="stroked-text">
    <desc>SW6</desc>
    <path d="m103.49 1.9822 0.1428 0.0476"/>
    <path d="m103.63 2.0298h0.2381"/>
    <path d="m103.87 2.0298 0.0953-0.0476"/>
    <path d="m103.97 1.9822 0.0476-0.0476"/>
    <path d="m104.02 1.9346 0.0476-0.0953"/>
    <path d="m104.06 1.8393v-0.0952"/>
    <path d="m104.06 1.7441-0.0476-0.0952"/>
    <path d="m104.02 1.6489-0.0476-0.0477"/>
    <path d="m103.97 1.6012-0.0953-0.0476"/>
    <path d="m103.87 1.5536-0.1905-0.0476"/>
    <path d="m103.68 1.506-0.0952-0.0476"/>
    <path d="m103.59 1.4584-0.0476-0.0476"/>
    <path d="m103.54 1.4108-0.0476-0.0953"/>
    <path d="m103.49 1.3155v-0.0952"/>
    <path d="m103.49 1.2203 0.0476-0.0952"/>
    <path d="m103.54 1.1251 0.0476-0.0477"/>
    <path d="m103.59 1.0774 0.0952-0.0476"/>
    <path d="m103.68 1.0298h0.2381"/>
    <path d="m103.92 1.0298 0.1429 0.0476"/>
    <path d="m104.4 1.0298 0.2381 1"/>
    <path d="m104.63 2.0298 0.1905-0.7143"/>
    <path d="m104.82 1.3155 0.1905 0.7143"/>
    <path d="m105.02 2.0298 0.2381-1"/>
    <path d="m106.06 1.0298h-0.1905"/>
    <path d="m105.87 1.0298-0.0952 0.0476"/>
    <path d="m105.78 1.0774-0.0476 0.0477"/>
    <path d="m105.73 1.1251-0.0953 0.1428"/>
    <path d="m105.63 1.2679-0.0476 0.1905"/>
    <path d="m105.59 1.4584v0.3809"/>
    <path d="m105.59 1.8393 0.0476 0.0953"/>
    <path d="m105.63 1.9346 0.0476 0.0476"/>
    <path d="m105.68 1.9822 0.0953 0.0476"/>
    <path d="m105.78 2.0298h0.1905"/>
    <path d="m105.97 2.0298 0.0952-0.0476"/>
    <path d="m106.06 1.9822 0.0476-0.0476"/>
    <path d="m106.11 1.9346 0.0476-0.0953"/>
    <path d="m106.16 1.8393v-0.2381"/>
    <path d="m106.16 1.6012-0.0476-0.0952"/>
    <path d="m106.11 1.506-0.0476-0.0476"/>
    <path d="m106.06 1.4584-0.0952-0.0476"/>
    <path d="m105.97 1.4108h-0.1905"/>
    <path d="m105.78 1.4108-0.0953 0.0476"/>
    <path d="m105.68 1.4584-0.0476 0.0476"/>
    <path d="m105.63 1.506-0.0476 0.0952"/>
   </g>
   <text x="9.5750" y="2.0750" font-size="1.3333" opacity="0" stroke-opacity="0" text-anchor="middle" lengthAdjust="spacingAndGlyphs" textLength="4.2024">SW6a</text>
   <g class="stroked-text">
    <desc>SW6a</desc>
    <path d="m7.7893 1.9822 0.1428 0.0476"/>
    <path d="m7.9321 2.0298h0.2381"/>
    <path d="m8.1702 2.0298 0.0953-0.0476"/>
    <path d="m8.2655 1.9822 0.0476-0.0476"/>
    <path d="m8.3131 1.9346 0.0476-0.0953"/>
    <path d="m8.3607 1.8393v-0.0952"/>
    <path d="m8.3607 1.7441-0.0476-0.0952"/>
    <path d="m8.3131 1.6489-0.0476-0.0477"/>
    <path d="m8.2655 1.6012-0.0953-0.0476"/>
    <path d="m8.1702 1.5536-0.1904-0.0476"/>
    <path d="m7.9798 1.506-0.0953-0.0476"/>
    <path d="m7.8845 1.4584-0.0476-0.0476"/>
    <path d="m7.8369 1.4108-0.0476-0.0953"/>
    <path d="m7.7893 1.3155v-0.0952"/>
    <path d="m7.7893 1.2203 0.0476-0.0952"/>
    <path d="m7.8369 1.1251 0.0476-0.0477"/>
    <path d="m7.8845 1.0774 0.0953-0.0476"/>
    <path d="m7.9798 1.0298h0.2381"/>
    <path d="m8.2179 1.0298 0.1428 0.0476"/>
    <path d="m8.694 1.0298 0.2381 1"/>
    <path d="m8.9321 2.0298 0.1905-0.7143"/>
    <path d="m9.1226 1.3155 0.1905 0.7143"/>
    <path d="m9.3131 2.0298 0.2381-1"/>
    <path d="m10.361 1.0298h-0.1905"/>
    <path d="m10.17 1.0298-0.0952 0.0476"/>
    <path d="m10.075 1.0774-0.0476 0.0477"/>
    <path d="m10.027 1.1251-0.0953 0.1428"/>
    <path d="m9.9321 1.2679-0.0476 0.1905"/>
    <path d="m9.8845 1.4584v0.3809"/>
    <path d="m9.8845 1.8393 0.0476 0.0953"/>
    <path d="m9.9321 1.9346 0.0477 0.0476"/>
    <path d="m9.9798 1.9822 0.0952 0.0476"/>
    <path d="m10.075 2.0298h0.1905"/>
    <path d="m10.266 2.0298 0.0952-0.0476"/>
    <path d="m10.361 1.9822 0.0476-0.0476"/>
    <path d="m10.408 1.9346 0.0477-0.0953"/>
    <path d="m10.456 1.8393v-0.2381"/>
    <path d="m10.456 1.6012-0.0477-0.0952"/>
    <path d="m10.408 1.506-0.0476-0.0476"/>
    <path d="m10.361 1.4584-0.0952-0.0476"/>
    <path d="m10.266 1.4108h-0.1905"/>
    <path d="m10.075 1.4108-0.0952 0.0476"/>
    <path d="m9.9798 1.4584-0.0477 0.0476"/>
    <path d="m9.9321 1.506-0.0476 0.0952"/>
    <path d="m11.313 2.0298v-0.5238"/>
    <path d="m11.313 1.506-0.0476-0.0952"/>
    <path d="m11.266 1.4108-0.0953-0.0476"/>
    <path d="m11.17 1.3632h-0.1904"/>
    <path d="m10.98 1.3632-0.0953 0.0476"/>
    <path d="m11.313 1.9822-0.0952 0.0476"/>
    <path d="m11.218 2.0298h-0.2381"/>
    <path d="m10.98 2.0298-0.0953-0.0476"/>
    <path d="m10.884 1.9822-0.0476-0.0952"/>
    <path d="m10.837 1.887v-0.0953"/>
    <path d="m10.837 1.7917 0.0476-0.0952"/>
    <path d="m10.884 1.6965 0.0953-0.0476"/>
    <path d="m10.98 1.6489h0.2381"/>
    <path d="m11.218 1.6489 0.0952-0.0477"/>
   </g>
   <text x="66.7250" y="2.0750" font-size="1.3333" opacity="0" stroke-opacity="0" text-anchor="middle" lengthAdjust="spacingAndGlyphs" textLength="3.2976">SW4</text>
   <g class="stroked-text">
    <desc>SW4</desc>
    <path d="m65.392 1.9822 0.1428 0.0476"/>
    <path d="m65.534 2.0298h0.2381"/>
    <path d="m65.773 2.0298 0.0953-0.0476"/>
    <path d="m65.868 1.9822 0.0476-0.0476"/>
    <path d="m65.916 1.9346 0.0476-0.0953"/>
    <path d="m65.963 1.8393v-0.0952"/>
    <path d="m65.963 1.7441-0.0476-0.0952"/>
    <path d="m65.916 1.6489-0.0476-0.0477"/>
    <path d="m65.868 1.6012-0.0953-0.0476"/>
    <path d="m65.773 1.5536-0.1905-0.0476"/>
    <path d="m65.582 1.506-0.0952-0.0476"/>
    <path d="m65.487 1.4584-0.0476-0.0476"/>
    <path d="m65.439 1.4108-0.0476-0.0953"/>
    <path d="m65.392 1.3155v-0.0952"/>
    <path d="m65.392 1.2203 0.0476-0.0952"/>
    <path d="m65.439 1.1251 0.0476-0.0477"/>
    <path d="m65.487 1.0774 0.0952-0.0476"/>
    <path d="m65.582 1.0298h0.2381"/>
    <path d="m65.82 1.0298 0.1429 0.0476"/>
    <path d="m66.296 1.0298 0.2381 1"/>
    <path d="m66.534 2.0298 0.1905-0.7143"/>
    <path d="m66.725 1.3155 0.1905 0.7143"/>
    <path d="m66.916 2.0298 0.2381-1"/>
    <path d="m67.963 1.3632v0.6666"/>
    <path d="m67.725 0.9822-0.2381 0.7143"/>
    <path d="m67.487 1.6965h0.6191"/>
   </g>
   <text x="47.6750" y="2.0750" font-size="1.3333" opacity="0" stroke-opacity="0" text-anchor="middle" lengthAdjust="spacingAndGlyphs" textLength="3.2976">SW3</text>
   <g class="stroked-text">
    <desc>SW3</desc>
    <path d="m46.342 1.9822 0.1428 0.0476"/>
    <path d="m46.484 2.0298h0.2381"/>
    <path d="m46.723 2.0298 0.0953-0.0476"/>
    <path d="m46.818 1.9822 0.0476-0.0476"/>
    <path d="m46.866 1.9346 0.0476-0.0953"/>
    <path d="m46.913 1.8393v-0.0952"/>
    <path d="m46.913 1.7441-0.0476-0.0952"/>
    <path d="m46.866 1.6489-0.0476-0.0477"/>
    <path d="m46.818 1.6012-0.0953-0.0476"/>
    <path d="m46.723 1.5536-0.1905-0.0476"/>
    <path d="m46.532 1.506-0.0952-0.0476"/>
    <path d="m46.437 1.4584-0.0476-0.0476"/>
    <path d="m46.389 1.4108-0.0476-0.0953"/>
    <path d="m46.342 1.3155v-0.0952"/>
    <path d="m46.342 1.2203 0.0476-0.0952"/>
    <path d="m46.389 1.1251 0.0476-0.0477"/>
    <path d="m46.437 1.0774 0.0952-0.0476"/>
    <path d="m46.532 1.0298h0.2381"/>
    <path d="m46.77 1.0298 0.1429 0.0476"/>
    <path d="m47.246 1.0298 0.2381 1"/>
    <path d="m47.484 2.0298 0.1905-0.7143"/>
    <path d="m47.675 1.3155 0.1905 0.7143"/>
    <path d="m47.866 2.0298 0.2381-1"/>
    <path d="m48.389 1.0298h0.619"/>
    <path d="m49.008 1.0298-0.3333 0.381"/>
    <path d="m48.675 1.4108h0.1429"/>
    <path d="m48.818 1.4108 0.0952 0.0476"/>
    <path d="m48.913 1.4584 0.0476 0.0476"/>
    <path d="m48.961 1.506 0.0476 0.0952"/>
    <path d="m49.008 1.6012v0.2381"/>
    <path d="m49.008 1.8393-0.0476 0.0953"/>
    <path d="m48.961 1.9346-0.0476 0.0476"/>
    <path d="m48.913 1.9822-0.0952 0.0476"/>
    <path d="m48.818 2.0298h-0.2858"/>
    <path d="m48.532 2.0298-0.0952-0.0476"/>
    <path d="m48.437 1.9822-0.0476-0.0476"/>
   </g>
   <text x="9.5750" y="21.1250" font-size="1.3333" opacity="0" stroke-opacity="0" text-anchor="middle" lengthAdjust="spacingAndGlyphs" textLength="4.2024">SW5a</text>
   <g class="stroked-text">
    <desc>SW5a</desc>
    <path d="m7.7893 21.032 0.1428 0.0476"/>
    <path d="m7.9321 21.08h0.2381"/>
    <path d="m8.1702 21.08 0.0953-0.0476"/>
    <path d="m8.2655 21.032 0.0476-0.0476"/>
    <path d="m8.3131 20.985 0.0476-0.0953"/>
    <path d="m8.3607 20.889v-0.0952"/>
    <path d="m8.3607 20.794-0.0476-0.0952"/>
    <path d="m8.3131 20.699-0.0476-0.0477"/>
    <path d="m8.2655 20.651-0.0953-0.0476"/>
    <path d="m8.1702 20.604-0.1904-0.0476"/>
    <path d="m7.9798 20.556-0.0953-0.0476"/>
    <path d="m7.8845 20.508-0.0476-0.0476"/>
    <path d="m7.8369 20.461-0.0476-0.0953"/>
    <path d="m7.7893 20.366v-0.0952"/>
    <path d="m7.7893 20.27 0.0476-0.0952"/>
    <path d="m7.8369 20.175 0.0476-0.0477"/>
    <path d="m7.8845 20.127 0.0953-0.0476"/>
    <path d="m7.9798 20.08h0.2381"/>
    <path d="m8.2179 20.08 0.1428 0.0476"/>
    <path d="m8.694 20.08 0.2381 1"/>
    <path d="m8.9321 21.08 0.1905-0.7143"/>
    <path d="m9.1226 20.366 0.1905 0.7143"/>
    <path d="m9.3131 21.08 0.2381-1"/>
    <path d="m10.408 20.08h-0.4762"/>
    <path d="m9.9321 20.08-0.0476 0.4762"/>
    <path d="m9.8845 20.556 0.0476-0.0476"/>
    <path d="m9.9321 20.508 0.0953-0.0476"/>
    <path d="m10.027 20.461h0.2381"/>
    <path d="m10.266 20.461 0.0952 0.0476"/>
    <path d="m10.361 20.508 0.0476 0.0476"/>
    <path d="m10.408 20.556 0.0477 0.0952"/>
    <path d="m10.456 20.651v0.2381"/>
    <path d="m10.456 20.889-0.0477 0.0953"/>
    <path d="m10.408 20.985-0.0476 0.0476"/>
    <path d="m10.361 21.032-0.0952 0.0476"/>
    <path d="m10.266 21.08h-0.2381"/>
    <path d="m10.027 21.08-0.0953-0.0476"/>
    <path d="m9.9321 21.032-0.0476-0.0476"/>
    <path d="m11.313 21.08v-0.5238"/>
    <path d="m11.313 20.556-0.0476-0.0952"/>
    <path d="m11.266 20.461-0.0953-0.0476"/>
    <path d="m11.17 20.413h-0.1904"/>
    <path d="m10.98 20.413-0.0953 0.0476"/>
    <path d="m11.313 21.032-0.0952 0.0476"/>
    <path d="m11.218 21.08h-0.2381"/>
    <path d="m10.98 21.08-0.0953-0.0476"/>
    <path d="m10.884 21.032-0.0476-0.0952"/>
    <path d="m10.837 20.937v-0.0953"/>
    <path d="m10.837 20.842 0.0476-0.0952"/>
    <path d="m10.884 20.746 0.0953-0.0476"/>
    <path d="m10.98 20.699h0.2381"/>
    <path d="m11.218 20.699 0.0952-0.0477"/>
   </g>
   <text x="28.6250" y="97.3250" font-size="1.3333" opacity="0" stroke-opacity="0" text-anchor="middle" lengthAdjust="spacingAndGlyphs" textLength="4.2024">SW7a</text>
   <g class="stroked-text">
    <desc>SW7a</desc>
    <path d="m26.839 97.232 0.1428 0.0476"/>
    <path d="m26.982 97.28h0.2381"/>
    <path d="m27.22 97.28 0.0953-0.0476"/>
    <path d="m27.316 97.232 0.0476-0.0476"/>
    <path d="m27.363 97.185 0.0476-0.0953"/>
    <path d="m27.411 97.089v-0.0952"/>
    <path d="m27.411 96.994-0.0476-0.0952"/>
    <path d="m27.363 96.899-0.0476-0.0477"/>
    <path d="m27.316 96.851-0.0953-0.0476"/>
    <path d="m27.22 96.804-0.1904-0.0476"/>
    <path d="m27.03 96.756-0.0953-0.0476"/>
    <path d="m26.934 96.708-0.0476-0.0476"/>
    <path d="m26.887 96.661-0.0476-0.0953"/>
    <path d="m26.839 96.566v-0.0952"/>
    <path d="m26.839 96.47 0.0476-0.0952"/>
    <path d="m26.887 96.375 0.0476-0.0477"/>
    <path d="m26.934 96.327 0.0953-0.0476"/>
    <path d="m27.03 96.28h0.2381"/>
    <path d="m27.268 96.28 0.1428 0.0476"/>
    <path d="m27.744 96.28 0.2381 1"/>
    <path d="m27.982 97.28 0.1905-0.7143"/>
    <path d="m28.173 96.566 0.1905 0.7143"/>
    <path d="m28.363 97.28 0.2381-1"/>
    <path d="m28.887 96.28h0.6667"/>
    <path d="m29.554 96.28-0.4286 1"/>
    <path d="m30.363 97.28v-0.5238"/>
    <path d="m30.363 96.756-0.0476-0.0952"/>
    <path d="m30.316 96.661-0.0953-0.0476"/>
    <path d="m30.22 96.613h-0.1904"/>
    <path d="m30.03 96.613-0.0953 0.0476"/>
    <path d="m30.363 97.232-0.0952 0.0476"/>
    <path d="m30.268 97.28h-0.2381"/>
    <path d="m30.03 97.28-0.0953-0.0476"/>
    <path d="m29.934 97.232-0.0476-0.0952"/>
    <path d="m29.887 97.137v-0.0953"/>
    <path d="m29.887 97.042 0.0476-0.0952"/>
    <path d="m29.934 96.946 0.0953-0.0476"/>
    <path d="m30.03 96.899h0.2381"/>
    <path d="m30.268 96.899 0.0952-0.0477"/>
   </g>
   <text x="85.7750" y="21.1250" font-size="1.3333" opacity="0" stroke-opacity="0" text-anchor="middle" lengthAdjust="spacingAndGlyphs" textLength="4.2500">SW11</text>
   <g class="stroked-text">
    <desc>SW11</desc>
    <path d="m83.966 21.032 0.1428 0.0476"/>
    <path d="m84.108 21.08h0.2381"/>
    <path d="m84.346 21.08 0.0953-0.0476"/>
    <path d="m84.442 21.032 0.0476-0.0476"/>
    <path d="m84.489 20.985 0.0476-0.0953"/>
    <path d="m84.537 20.889v-0.0952"/>
    <path d="m84.537 20.794-0.0476-0.0952"/>
    <path d="m84.489 20.699-0.0476-0.0477"/>
    <path d="m84.442 20.651-0.0953-0.0476"/>
    <path d="m84.346 20.604-0.1904-0.0476"/>
    <path d="m84.156 20.556-0.0953-0.0476"/>
    <path d="m84.061 20.508-0.0476-0.0476"/>
    <path d="m84.013 20.461-0.0476-0.0953"/>
    <path d="m83.966 20.366v-0.0952"/>
    <path d="m83.966 20.27 0.0476-0.0952"/>
    <path d="m84.013 20.175 0.0476-0.0477"/>
    <path d="m84.061 20.127 0.0953-0.0476"/>
    <path d="m84.156 20.08h0.238"/>
    <path d="m84.394 20.08 0.1429 0.0476"/>
    <path d="m84.87 20.08 0.2381 1"/>
    <path d="m85.108 21.08 0.1905-0.7143"/>
    <path d="m85.299 20.366 0.1905 0.7143"/>
    <path d="m85.489 21.08 0.2381-1"/>
    <path d="m86.632 21.08h-0.5714"/>
    <path d="m86.346 21.08v-1"/>
    <path d="m86.346 20.08-0.0952 0.1429"/>
    <path d="m86.251 20.223-0.0952 0.0952"/>
    <path d="m86.156 20.318-0.0953 0.0476"/>
    <path d="m87.584 21.08h-0.5714"/>
    <path d="m87.299 21.08v-1"/>
    <path d="m87.299 20.08-0.0952 0.1429"/>
    <path d="m87.204 20.223-0.0953 0.0952"/>
    <path d="m87.108 20.318-0.0952 0.0476"/>
   </g>
   <text x="9.5750" y="40.1750" font-size="1.3333" opacity="0" stroke-opacity="0" text-anchor="middle" lengthAdjust="spacingAndGlyphs" textLength="4.2024">SW4a</text>
   <g class="stroked-text">
    <desc>SW4a</desc>
    <path d="m7.7893 40.082 0.1428 0.0476"/>
    <path d="m7.9321 40.13h0.2381"/>
    <path d="m8.1702 40.13 0.0953-0.0476"/>
    <path d="m8.2655 40.082 0.0476-0.0476"/>
    <path d="m8.3131 40.035 0.0476-0.0953"/>
    <path d="m8.3607 39.939v-0.0952"/>
    <path d="m8.3607 39.844-0.0476-0.0952"/>
    <path d="m8.3131 39.749-0.0476-0.0477"/>
    <path d="m8.2655 39.701-0.0953-0.0476"/>
    <path d="m8.1702 39.654-0.1904-0.0476"/>
    <path d="m7.9798 39.606-0.0953-0.0476"/>
    <path d="m7.8845 39.558-0.0476-0.0476"/>
    <path d="m7.8369 39.511-0.0476-0.0953"/>
    <path d="m7.7893 39.416v-0.0952"/>
    <path d="m7.7893 39.32 0.0476-0.0952"/>
    <path d="m7.8369 39.225 0.0476-0.0477"/>
    <path d="m7.8845 39.177 0.0953-0.0476"/>
    <path d="m7.9798 39.13h0.2381"/>
    <path d="m8.2179 39.13 0.1428 0.0476"/>
    <path d="m8.694 39.13 0.2381 1"/>
    <path d="m8.9321 40.13 0.1905-0.7143"/>
    <path d="m9.1226 39.416 0.1905 0.7143"/>
    <path d="m9.3131 40.13 0.2381-1"/>
    <path d="m10.361 39.463v0.6666"/>
    <path d="m10.123 39.082-0.2381 0.7143"/>
    <path d="m9.8845 39.796h0.6191"/>
    <path d="m11.313 40.13v-0.5238"/>
    <path d="m11.313 39.606-0.0476-0.0952"/>
    <path d="m11.266 39.511-0.0953-0.0476"/>
    <path d="m11.17 39.463h-0.1904"/>
    <path d="m10.98 39.463-0.0953 0.0476"/>
    <path d="m11.313 40.082-0.0952 0.0476"/>
    <path d="m11.218 40.13h-0.2381"/>
    <path d="m10.98 40.13-0.0953-0.0476"/>
    <path d="m10.884 40.082-0.0476-0.0952"/>
    <path d="m10.837 39.987v-0.0953"/>
    <path d="m10.837 39.892 0.0476-0.0952"/>
    <path d="m10.884 39.796 0.0953-0.0476"/>
    <path d="m10.98 39.749h0.2381"/>
    <path d="m11.218 39.749 0.0952-0.0477"/>
   </g>
   <text x="9.5750" y="97.3250" font-size="1.3333" opacity="0" stroke-opacity="0" text-anchor="middle" lengthAdjust="spacingAndGlyphs" textLength="4.2024">SW1a</text>
   <g class="stroked-text">
    <desc>SW1a</desc>
    <path d="m7.7893 97.232 0.1428 0.0476"/>
    <path d="m7.9321 97.28h0.2381"/>
    <path d="m8.1702 97.28 0.0953-0.0476"/>
    <path d="m8.2655 97.232 0.0476-0.0476"/>
    <path d="m8.3131 97.185 0.0476-0.0953"/>
    <path d="m8.3607 97.089v-0.0952"/>
    <path d="m8.3607 96.994-0.0476-0.0952"/>
    <path d="m8.3131 96.899-0.0476-0.0477"/>
    <path d="m8.2655 96.851-0.0953-0.0476"/>
    <path d="m8.1702 96.804-0.1904-0.0476"/>
    <path d="m7.9798 96.756-0.0953-0.0476"/>
    <path d="m7.8845 96.708-0.0476-0.0476"/>
    <path d="m7.8369 96.661-0.0476-0.0953"/>
    <path d="m7.7893 96.566v-0.0952"/>
    <path d="m7.7893 96.47 0.0476-0.0952"/>
    <path d="m7.8369 96.375 0.0476-0.0477"/>
    <path d="m7.8845 96.327 0.0953-0.0476"/>
    <path d="m7.9798 96.28h0.2381"/>
    <path d="m8.2179 96.28 0.1428 0.0476"/>
    <path d="m8.694 96.28 0.2381 1"/>
    <path d="m8.9321 97.28 0.1905-0.7143"/>
    <path d="m9.1226 96.566 0.1905 0.7143"/>
    <path d="m9.3131 97.28 0.2381-1"/>
    <path d="m10.456 97.28h-0.5715"/>
    <path d="m10.17 97.28v-1"/>
    <path d="m10.17 96.28-0.0952 0.1429"/>
    <path d="m10.075 96.423-0.0952 0.0952"/>
    <path d="m9.9798 96.518-0.0953 0.0476"/>
    <path d="m11.313 97.28v-0.5238"/>
    <path d="m11.313 96.756-0.0476-0.0952"/>
    <path d="m11.266 96.661-0.0953-0.0476"/>
    <path d="m11.17 96.613h-0.1904"/>
    <path d="m10.98 96.613-0.0953 0.0476"/>
    <path d="m11.313 97.232-0.0952 0.0476"/>
    <path d="m11.218 97.28h-0.2381"/>
    <path d="m10.98 97.28-0.0953-0.0476"/>
    <path d="m10.884 97.232-0.0476-0.0952"/>
    <path d="m10.837 97.137v-0.0953"/>
    <path d="m10.837 97.042 0.0476-0.0952"/>
    <path d="m10.884 96.946 0.0953-0.0476"/>
    <path d="m10.98 96.899h0.2381"/>
    <path d="m11.218 96.899 0.0952-0.0477"/>
   </g>
   <text x="28.6250" y="2.0750" font-size="1.3333" opacity="0" stroke-opacity="0" text-anchor="middle" lengthAdjust="spacingAndGlyphs" textLength="5.1548">SW12a</text>
   <g class="stroked-text">
    <desc>SW12a</desc>
    <path d="m26.363 1.9822 0.1429 0.0476"/>
    <path d="m26.506 2.0298h0.238"/>
    <path d="m26.744 2.0298 0.0953-0.0476"/>
    <path d="m26.839 1.9822 0.0476-0.0476"/>
    <path d="m26.887 1.9346 0.0476-0.0953"/>
    <path d="m26.934 1.8393v-0.0952"/>
    <path d="m26.934 1.7441-0.0476-0.0952"/>
    <path d="m26.887 1.6489-0.0476-0.0477"/>
    <path d="m26.839 1.6012-0.0953-0.0476"/>
    <path d="m26.744 1.5536-0.1904-0.0476"/>
    <path d="m26.554 1.506-0.0953-0.0476"/>
    <path d="m26.458 1.4584-0.0476-0.0476"/>
    <path d="m26.411 1.4108-0.0476-0.0953"/>
    <path d="m26.363 1.3155v-0.0952"/>
    <path d="m26.363 1.2203 0.0476-0.0952"/>
    <path d="m26.411 1.1251 0.0476-0.0477"/>
    <path d="m26.458 1.0774 0.0953-0.0476"/>
    <path d="m26.554 1.0298h0.2381"/>
    <path d="m26.792 1.0298 0.1428 0.0476"/>
    <path d="m27.268 1.0298 0.2381 1"/>
    <path d="m27.506 2.0298 0.1904-0.7143"/>
    <path d="m27.696 1.3155 0.1905 0.7143"/>
    <path d="m27.887 2.0298 0.2381-1"/>
    <path d="m29.03 2.0298h-0.5715"/>
    <path d="m28.744 2.0298v-1"/>
    <path d="m28.744 1.0298-0.0952 0.1429"/>
    <path d="m28.649 1.1727-0.0952 0.0952"/>
    <path d="m28.554 1.2679-0.0953 0.0476"/>
    <path d="m29.411 1.1251 0.0476-0.0477"/>
    <path d="m29.458 1.0774 0.0953-0.0476"/>
    <path d="m29.554 1.0298h0.2381"/>
    <path d="m29.792 1.0298 0.0952 0.0476"/>
    <path d="m29.887 1.0774 0.0476 0.0477"/>
    <path d="m29.934 1.1251 0.0476 0.0952"/>
    <path d="m29.982 1.2203v0.0952"/>
    <path d="m29.982 1.3155-0.0476 0.1429"/>
    <path d="m29.934 1.4584-0.5714 0.5714"/>
    <path d="m29.363 2.0298h0.619"/>
    <path d="m30.839 2.0298v-0.5238"/>
    <path d="m30.839 1.506-0.0476-0.0952"/>
    <path d="m30.792 1.4108-0.0953-0.0476"/>
    <path d="m30.696 1.3632h-0.1904"/>
    <path d="m30.506 1.3632-0.0953 0.0476"/>
    <path d="m30.839 1.9822-0.0953 0.0476"/>
    <path d="m30.744 2.0298h-0.238"/>
    <path d="m30.506 2.0298-0.0953-0.0476"/>
    <path d="m30.411 1.9822-0.0476-0.0952"/>
    <path d="m30.363 1.887v-0.0953"/>
    <path d="m30.363 1.7917 0.0476-0.0952"/>
    <path d="m30.411 1.6965 0.0953-0.0476"/>
    <path d="m30.506 1.6489h0.238"/>
    <path d="m30.744 1.6489 0.0953-0.0477"/>
   </g>
   <text x="9.5750" y="21.1250" font-size="1.3333" opacity="0" stroke-opacity="0" text-anchor="middle" lengthAdjust="spacingAndGlyphs" textLength="3.2976">SW7</text>
   <g class="stroked-text">
    <desc>SW7</desc>
    <path d="m8.2417 21.032 0.1428 0.0476"/>
    <path d="m8.3845 21.08h0.2381"/>
    <path d="m8.6226 21.08 0.0953-0.0476"/>
    <path d="m8.7179 21.032 0.0476-0.0476"/>
    <path d="m8.7655 20.985 0.0476-0.0953"/>
    <path d="m8.8131 20.889v-0.0952"/>
    <path d="m8.8131 20.794-0.0476-0.0952"/>
    <path d="m8.7655 20.699-0.0476-0.0477"/>
    <path d="m8.7179 20.651-0.0953-0.0476"/>
    <path d="m8.6226 20.604-0.1905-0.0476"/>
    <path d="m8.4321 20.556-0.0952-0.0476"/>
    <path d="m8.3369 20.508-0.0476-0.0476"/>
    <path d="m8.2893 20.461-0.0476-0.0953"/>
    <path d="m8.2417 20.366v-0.0952"/>
    <path d="m8.2417 20.27 0.0476-0.0952"/>
    <path d="m8.2893 20.175 0.0476-0.0477"/>
    <path d="m8.3369 20.127 0.0952-0.0476"/>
    <path d="m8.4321 20.08h0.2381"/>
    <path d="m8.6702 20.08 0.1429 0.0476"/>
    <path d="m9.1464 20.08 0.2381 1"/>
    <path d="m9.3845 21.08 0.1905-0.7143"/>
    <path d="m9.575 20.366 0.1905 0.7143"/>
    <path d="m9.7655 21.08 0.2381-1"/>
    <path d="m10.289 20.08h0.6667"/>
    <path d="m10.956 20.08-0.4286 1"/>
   </g>
   <text x="47.6750" y="21.1250" font-size="1.3333" opacity="0" stroke-opacity="0" text-anchor="middle" lengthAdjust="spacingAndGlyphs" textLength="3.2976">SW9</text>
   <g class="stroked-text">
    <desc>SW9</desc>
    <path d="m46.342 21.032 0.1428 0.0476"/>
    <path d="m46.484 21.08h0.2381"/>
    <path d="m46.723 21.08 0.0953-0.0476"/>
    <path d="m46.818 21.032 0.0476-0.0476"/>
    <path d="m46.866 20.985 0.0476-0.0953"/>
    <path d="m46.913 20.889v-0.0952"/>
    <path d="m46.913 20.794-0.0476-0.0952"/>
    <path d="m46.866 20.699-0.0476-0.0477"/>
    <path d="m46.818 20.651-0.0953-0.0476"/>
    <path d="m46.723 20.604-0.1905-0.0476"/>
    <path d="m46.532 20.556-0.0952-0.0476"/>
    <path d="m46.437 20.508-0.0476-0.0476"/>
    <path d="m46.389 20.461-0.0476-0.0953"/>
    <path d="m46.342 20.366v-0.0952"/>
    <path d="m46.342 20.27 0.0476-0.0952"/>
    <path d="m46.389 20.175 0.0476-0.0477"/>
    <path d="m46.437 20.127 0.0952-0.0476"/>
    <path d="m46.532 20.08h0.2381"/>
    <path d="m46.77 20.08 0.1429 0.0476"/>
    <path d="m47.246 20.08 0.2381 1"/>
    <path d="m47.484 21.08 0.1905-0.7143"/>
    <path d="m47.675 20.366 0.1905 0.7143"/>
    <path d="m47.866 21.08 0.2381-1"/>
    <path d="m48.532 21.08h0.1905"/>
    <path d="m48.723 21.08 0.0953-0.0476"/>
    <path d="m48.818 21.032 0.0476-0.0476"/>
    <path d="m48.866 20.985 0.0952-0.1429"/>
    <path d="m48.961 20.842 0.0476-0.1905"/>
    <path d="m49.008 20.651v-0.3809"/>
    <path d="m49.008 20.27-0.0476-0.0952"/>
    <path d="m48.961 20.175-0.0476-0.0477"/>
    <path d="m48.913 20.127-0.0952-0.0476"/>
    <path d="m48.818 20.08h-0.1905"/>
    <path d="m48.627 20.08-0.0953 0.0476"/>
    <path d="m48.532 20.127-0.0476 0.0477"/>
    <path d="m48.484 20.175-0.0476 0.0952"/>
    <path d="m48.437 20.27v0.2381"/>
    <path d="m48.437 20.508 0.0476 0.0952"/>
    <path d="m48.484 20.604 0.0476 0.0476"/>
    <path d="m48.532 20.651 0.0953 0.0477"/>
    <path d="m48.627 20.699h0.1905"/>
    <path d="m48.818 20.699 0.0952-0.0477"/>
    <path d="m48.913 20.651 0.0476-0.0476"/>
    <path d="m48.961 20.604 0.0476-0.0952"/>
   </g>
  </g>
  <g stroke="#8BE9FD" stroke-width=".12">
   <path d="m2.475 2.475v14.2"/>
   <path d="m2.475 16.675h14.2"/>
   <path d="m16.675 2.475h-14.2"/>
   <path d="m16.675 16.675v-14.2"/>
   <path d="m21.525 78.675v14.2"/>
   <path d="m21.525 92.875h14.2"/>
   <path d="m35.725 78.675h-14.2"/>
   <path d="m35.725 92.875v-14.2"/>
   <path d="m59.625 21.525v14.2"/>
   <path d="m59.625 35.725h14.2"/>
   <path d="m73.825 21.525h-14.2"/>
   <path d="m73.825 35.725v-14.2"/>
   <path d="m2.475 59.625v14.2"/>
   <path d="m2.475 73.825h14.2"/>
   <path d="m16.675 59.625h-14.2"/>
   <path d="m16.675 73.825v-14.2"/>
   <path d="m97.725 21.525v14.2"/>
   <path d="m97.725 35.725h14.2"/>
   <path d="m111.92 21.525h-14.2"/>
   <path d="m111.92 35.725v-14.2"/>
   <path d="m21.525 21.525v14.2"/>
   <path d="m21.525 35.725h14.2"/>
   <path d="m35.725 21.525h-14.2"/>
   <path d="m35.725 35.725v-14.2"/>
   <path d="m21.525 21.525v14.2"/>
   <path d="m21.525 35.725h14.2"/>
   <path d="m35.725 21.525h-14.2"/>
   <path d="m35.725 35.725v-14.2"/>
   <path d="m21.525 59.625v14.2"/>
   <path d="m21.525 73.825h14.2"/>
   <path d="m35.725 59.625h-14.2"/>
   <path d="m35.725 73.825v-14.2"/>
   <path d="m2.475 78.675v14.2"/>
   <path d="m2.475 92.875h14.2"/>
   <path d="m16.675 78.675h-14.2"/>
   <path d="m16.675 92.875v-14.2"/>
   <path d="m78.675 2.475v14.2"/>
   <path d="m78.675 16.675h14.2"/>
   <path d="m92.875 2.475h-14.2"/>
   <path d="m92.875 16.675v-14.2"/>
   <path d="m21.525 40.575v14.2"/>
   <path d="m21.525 54.775h14.2"/>
   <path d="m35.725 40.575h-14.2"/>
   <path d="m35.725 54.775v-14.2"/>
   <path d="m21.525 2.475v14.2"/>
   <path d="m21.525 16.675h14.2"/>
   <path d="m35.725 2.475h-14.2"/>
   <path d="m35.725 16.675v-14.2"/>
   <path d="m97.725 2.475v14.2"/>
   <path d="m97.725 16.675h14.2"/>
   <path d="m111.92 2.475h-14.2"/>
   <path d="m111.92 16.675v-14.2"/>
   <path d="m2.475 2.475v14.2"/>
   <path d="m2.475 16.675h14.2"/>
   <path d="m16.675 2.475h-14.2"/>
   <path d="m16.675 16.675v-14.2"/>
   <path d="m59.625 2.475v14.2"/>
   <path d="m59.625 16.675h14.2"/>
   <path d="m73.825 2.475h-14.2"/>
   <path d="m73.825 16.675v-14.2"/>
   <path d="m40.575 2.475v14.2"/>
   <path d="m40.575 16.675h14.2"/>
   <path d="m54.775 2.475h-14.2"/>
   <path d="m54.775 16.675v-14.2"/>
   <path d="m2.475 21.525v14.2"/>
   <path d="m2.475 35.725h14.2"/>
   <path d="m16.675 21.525h-14.2"/>
   <path d="m16.675 35.725v-14.2"/>
   <path d="m21.525 97.725v14.2"/>
   <path d="m21.525 111.92h14.2"/>
   <path d="m35.725 97.725h-14.2"/>
   <path d="m35.725 111.92v-14.2"/>
   <path d="m78.675 21.525v14.2"/>
   <path d="m78.675 35.725h14.2"/>
   <path d="m92.875 21.525h-14.2"/>
   <path d="m92.875 35.725v-14.2"/>
   <path d="m2.475 40.575v14.2"/>
   <path d="m2.475 54.775h14.2"/>
   <path d="m16.675 40.575h-14.2"/>
   <path d="m16.675 54.775v-14.2"/>
   <path d="m2.475 97.725v14.2"/>
   <path d="m2.475 111.92h14.2"/>
   <path d="m16.675 97.725h-14.2"/>
   <path d="m16.675 111.92v-14.2"/>
   <path d="m21.525 2.475v14.2"/>
   <path d="m21.525 16.675h14.2"/>
   <path d="m35.725 2.475h-14.2"/>
   <path d="m35.725 16.675v-14.2"/>
   <path d="m2.475 21.525v14.2"/>
   <path d="m2.475 35.725h14.2"/>
   <path d="m16.675 21.525h-14.2"/>
   <path d="m16.675 35.725v-14.2"/>
   <path d="m40.575 21.525v14.2"/>
   <path d="m40.575 35.725h14.2"/>
   <path d="m54.775 21.525h-14.2"/>
   <path d="m54.775 35.725v-14.2"/>
  </g>
  <g stroke="#BD93F9" stroke-width=".15">
   <g transform="rotate(-90 73.71 13.702)">
    <text transform="scale(-1 1) translate(-147.42)" x="73.7100" y="14.2020" font-size="1.3333" opacity="0" stroke-opacity="0" text-anchor="middle" lengthAdjust="spacingAndGlyphs" textLength="2.2024">D4</text>
   </g>
   <g class="stroked-text">
    <desc>D4</desc>
    <path d="m74.165 12.964h-1"/>
    <path d="m73.165 12.964v0.2381"/>
    <path d="m73.165 13.202 0.0476 0.1429"/>
    <path d="m73.212 13.345 0.0953 0.0952"/>
    <path d="m73.308 13.44 0.0952 0.0476"/>
    <path d="m73.403 13.488 0.1905 0.0476"/>
    <path d="m73.593 13.535h0.1428"/>
    <path d="m73.736 13.535 0.1905-0.0476"/>
    <path d="m73.927 13.488 0.0953-0.0476"/>
    <path d="m74.022 13.44 0.0952-0.0952"/>
    <path d="m74.117 13.345 0.0476-0.1429"/>
    <path d="m74.165 13.202v-0.2381"/>
    <path d="m73.498 14.392h0.6666"/>
    <path d="m73.117 14.154 0.7143-0.2381"/>
    <path d="m73.832 13.916v0.619"/>
   </g>
   <g transform="rotate(-90 35.61 32.752)">
    <text transform="scale(-1 1) translate(-71.22)" x="35.6100" y="33.2520" font-size="1.3333" opacity="0" stroke-opacity="0" text-anchor="middle" lengthAdjust="spacingAndGlyphs" textLength="2.2024">D8</text>
   </g>
   <g class="stroked-text">
    <desc>D8</desc>
    <path d="m36.065 32.014h-1"/>
    <path d="m35.065 32.014v0.2381"/>
    <path d="m35.065 32.252 0.0476 0.1429"/>
    <path d="m35.112 32.395 0.0953 0.0952"/>
    <path d="m35.208 32.49 0.0952 0.0476"/>
    <path d="m35.303 32.538 0.1905 0.0476"/>
    <path d="m35.493 32.585h0.1428"/>
    <path d="m35.636 32.585 0.1905-0.0476"/>
    <path d="m35.827 32.538 0.0953-0.0476"/>
    <path d="m35.922 32.49 0.0952-0.0952"/>
    <path d="m36.017 32.395 0.0476-0.1429"/>
    <path d="m36.065 32.252v-0.2381"/>
    <path d="m35.493 33.157-0.0476-0.0953"/>
    <path d="m35.446 33.062-0.0476-0.0476"/>
    <path d="m35.398 33.014-0.0953-0.0476"/>
    <path d="m35.303 32.966h-0.0476"/>
    <path d="m35.255 32.966-0.0952 0.0476"/>
    <path d="m35.16 33.014-0.0477 0.0476"/>
    <path d="m35.112 33.062-0.0476 0.0953"/>
    <path d="m35.065 33.157v0.1904"/>
    <path d="m35.065 33.347 0.0476 0.0953"/>
    <path d="m35.112 33.442 0.0477 0.0476"/>
    <path d="m35.16 33.49 0.0952 0.0476"/>
    <path d="m35.255 33.538h0.0476"/>
    <path d="m35.303 33.538 0.0953-0.0476"/>
    <path d="m35.398 33.49 0.0476-0.0476"/>
    <path d="m35.446 33.442 0.0476-0.0953"/>
    <path d="m35.493 33.347v-0.1904"/>
    <path d="m35.493 33.157 0.0476-0.0953"/>
    <path d="m35.541 33.062 0.0476-0.0476"/>
    <path d="m35.589 33.014 0.0953-0.0476"/>
    <path d="m35.684 32.966h0.1904"/>
    <path d="m35.874 32.966 0.0953 0.0476"/>
    <path d="m35.97 33.014 0.0476 0.0476"/>
    <path d="m36.017 33.062 0.0476 0.0953"/>
    <path d="m36.065 33.157v0.1904"/>
    <path d="m36.065 33.347-0.0476 0.0953"/>
    <path d="m36.017 33.442-0.0476 0.0476"/>
    <path d="m35.97 33.49-0.0953 0.0476"/>
    <path d="m35.874 33.538h-0.1904"/>
    <path d="m35.684 33.538-0.0953-0.0476"/>
    <path d="m35.589 33.49-0.0476-0.0476"/>
    <path d="m35.541 33.442-0.0476-0.0953"/>
   </g>
   <g transform="rotate(-90 54.66 13.702)">
    <text transform="scale(-1 1) translate(-109.32)" x="54.6600" y="14.2020" font-size="1.3333" opacity="0" stroke-opacity="0" text-anchor="middle" lengthAdjust="spacingAndGlyphs" textLength="2.2024">D3</text>
   </g>
   <g class="stroked-text">
    <desc>D3</desc>
    <path d="m55.115 12.964h-1"/>
    <path d="m54.115 12.964v0.2381"/>
    <path d="m54.115 13.202 0.0476 0.1429"/>
    <path d="m54.162 13.345 0.0953 0.0952"/>
    <path d="m54.258 13.44 0.0952 0.0476"/>
    <path d="m54.353 13.488 0.1905 0.0476"/>
    <path d="m54.543 13.535h0.1428"/>
    <path d="m54.686 13.535 0.1905-0.0476"/>
    <path d="m54.877 13.488 0.0953-0.0476"/>
    <path d="m54.972 13.44 0.0952-0.0952"/>
    <path d="m55.067 13.345 0.0476-0.1429"/>
    <path d="m55.115 13.202v-0.2381"/>
    <path d="m54.115 13.869v0.619"/>
    <path d="m54.115 14.488 0.381-0.3333"/>
    <path d="m54.496 14.154v0.1428"/>
    <path d="m54.496 14.297 0.0476 0.0953"/>
    <path d="m54.543 14.392 0.0476 0.0476"/>
    <path d="m54.591 14.44 0.0952 0.0476"/>
    <path d="m54.686 14.488h0.2381"/>
    <path d="m54.924 14.488 0.0953-0.0476"/>
    <path d="m55.02 14.44 0.0476-0.0476"/>
    <path d="m55.067 14.392 0.0476-0.0953"/>
    <path d="m55.115 14.297v-0.2857"/>
    <path d="m55.115 14.012-0.0476-0.0952"/>
    <path d="m55.067 13.916-0.0476-0.0476"/>
   </g>
   <g transform="rotate(-90 92.76 13.702)">
    <text transform="scale(-1 1) translate(-185.52)" x="92.7600" y="14.2020" font-size="1.3333" opacity="0" stroke-opacity="0" text-anchor="middle" lengthAdjust="spacingAndGlyphs" textLength="2.2024">D5</text>
   </g>
   <g class="stroked-text">
    <desc>D5</desc>
    <path d="m93.215 12.964h-1"/>
    <path d="m92.215 12.964v0.2381"/>
    <path d="m92.215 13.202 0.0476 0.1429"/>
    <path d="m92.262 13.345 0.0953 0.0952"/>
    <path d="m92.358 13.44 0.0952 0.0476"/>
    <path d="m92.453 13.488 0.1905 0.0476"/>
    <path d="m92.643 13.535h0.1428"/>
    <path d="m92.786 13.535 0.1905-0.0476"/>
    <path d="m92.977 13.488 0.0953-0.0476"/>
    <path d="m93.072 13.44 0.0952-0.0952"/>
    <path d="m93.167 13.345 0.0476-0.1429"/>
    <path d="m93.215 13.202v-0.2381"/>
    <path d="m92.215 14.44v-0.4762"/>
    <path d="m92.215 13.964 0.4762-0.0476"/>
    <path d="m92.691 13.916-0.0476 0.0476"/>
    <path d="m92.643 13.964-0.0476 0.0952"/>
    <path d="m92.596 14.059v0.2381"/>
    <path d="m92.596 14.297 0.0476 0.0953"/>
    <path d="m92.643 14.392 0.0476 0.0476"/>
    <path d="m92.691 14.44 0.0952 0.0476"/>
    <path d="m92.786 14.488h0.2381"/>
    <path d="m93.024 14.488 0.0953-0.0476"/>
    <path d="m93.12 14.44 0.0476-0.0476"/>
    <path d="m93.167 14.392 0.0476-0.0953"/>
    <path d="m93.215 14.297v-0.2381"/>
    <path d="m93.215 14.059-0.0476-0.0952"/>
    <path d="m93.167 13.964-0.0476-0.0476"/>
   </g>
   <g transform="rotate(-90 54.66 32.752)">
    <text transform="scale(-1 1) translate(-109.32)" x="54.6600" y="33.2520" font-size="1.3333" opacity="0" stroke-opacity="0" text-anchor="middle" lengthAdjust="spacingAndGlyphs" textLength="2.2024">D9</text>
   </g>
   <g class="stroked-text">
    <desc>D9</desc>
    <path d="m55.115 32.014h-1"/>
    <path d="m54.115 32.014v0.2381"/>
    <path d="m54.115 32.252 0.0476 0.1429"/>
    <path d="m54.162 32.395 0.0953 0.0952"/>
    <path d="m54.258 32.49 0.0952 0.0476"/>
    <path d="m54.353 32.538 0.1905 0.0476"/>
    <path d="m54.543 32.585h0.1428"/>
    <path d="m54.686 32.585 0.1905-0.0476"/>
    <path d="m54.877 32.538 0.0953-0.0476"/>
    <path d="m54.972 32.49 0.0952-0.0952"/>
    <path d="m55.067 32.395 0.0476-0.1429"/>
    <path d="m55.115 32.252v-0.2381"/>
    <path d="m55.115 33.062v0.1905"/>
    <path d="m55.115 33.252-0.0476 0.0952"/>
    <path d="m55.067 33.347-0.0476 0.0477"/>
    <path d="m55.02 33.395-0.1429 0.0952"/>
    <path d="m54.877 33.49-0.1905 0.0476"/>
    <path d="m54.686 33.538h-0.3809"/>
    <path d="m54.305 33.538-0.0952-0.0476"/>
    <path d="m54.21 33.49-0.0477-0.0476"/>
    <path d="m54.162 33.442-0.0476-0.0953"/>
    <path d="m54.115 33.347v-0.1904"/>
    <path d="m54.115 33.157 0.0476-0.0953"/>
    <path d="m54.162 33.062 0.0477-0.0476"/>
    <path d="m54.21 33.014 0.0952-0.0476"/>
    <path d="m54.305 32.966h0.2381"/>
    <path d="m54.543 32.966 0.0952 0.0476"/>
    <path d="m54.639 33.014 0.0476 0.0476"/>
    <path d="m54.686 33.062 0.0477 0.0953"/>
    <path d="m54.734 33.157v0.1904"/>
    <path d="m54.734 33.347-0.0477 0.0953"/>
    <path d="m54.686 33.442-0.0476 0.0476"/>
    <path d="m54.639 33.49-0.0952 0.0476"/>
   </g>
   <g transform="rotate(-90 111.81 32.752)">
    <text transform="scale(-1 1) translate(-223.62)" x="111.8100" y="33.2520" font-size="1.3333" opacity="0" stroke-opacity="0" text-anchor="middle" lengthAdjust="spacingAndGlyphs" textLength="3.1548">D12</text>
   </g>
   <g class="stroked-text">
    <desc>D12</desc>
    <path d="m112.26 31.538h-1"/>
    <path d="m111.26 31.538v0.2381"/>
    <path d="m111.26 31.776 0.0476 0.1429"/>
    <path d="m111.31 31.919 0.0953 0.0952"/>
    <path d="m111.41 32.014 0.0952 0.0476"/>
    <path d="m111.5 32.062 0.1905 0.0476"/>
    <path d="m111.69 32.109h0.1428"/>
    <path d="m111.84 32.109 0.1905-0.0476"/>
    <path d="m112.03 32.062 0.0953-0.0476"/>
    <path d="m112.12 32.014 0.0952-0.0952"/>
    <path d="m112.22 31.919 0.0476-0.1429"/>
    <path d="m112.26 31.776v-0.2381"/>
    <path d="m112.26 33.062v-0.5714"/>
    <path d="m112.26 32.776h-1"/>
    <path d="m111.26 32.776 0.1429-0.0952"/>
    <path d="m111.41 32.681 0.0952-0.0953"/>
    <path d="m111.5 32.585 0.0476-0.0952"/>
    <path d="m111.36 33.442-0.0477 0.0476"/>
    <path d="m111.31 33.49-0.0476 0.0952"/>
    <path d="m111.26 33.585v0.2381"/>
    <path d="m111.26 33.823 0.0476 0.0953"/>
    <path d="m111.31 33.919 0.0477 0.0476"/>
    <path d="m111.36 33.966 0.0952 0.0476"/>
    <path d="m111.46 34.014h0.0952"/>
    <path d="m111.55 34.014 0.1429-0.0476"/>
    <path d="m111.69 33.966 0.5714-0.5714"/>
    <path d="m112.26 33.395v0.619"/>
   </g>
   <g transform="rotate(-90 73.71 32.752)">
    <text transform="scale(-1 1) translate(-147.42)" x="73.7100" y="33.2520" font-size="1.3333" opacity="0" stroke-opacity="0" text-anchor="middle" lengthAdjust="spacingAndGlyphs" textLength="3.1548">D10</text>
   </g>
   <g class="stroked-text">
    <desc>D10</desc>
    <path d="m74.165 31.538h-1"/>
    <path d="m73.165 31.538v0.2381"/>
    <path d="m73.165 31.776 0.0476 0.1429"/>
    <path d="m73.212 31.919 0.0953 0.0952"/>
    <path d="m73.308 32.014 0.0952 0.0476"/>
    <path d="m73.403 32.062 0.1905 0.0476"/>
    <path d="m73.593 32.109h0.1428"/>
    <path d="m73.736 32.109 0.1905-0.0476"/>
    <path d="m73.927 32.062 0.0953-0.0476"/>
    <path d="m74.022 32.014 0.0952-0.0952"/>
    <path d="m74.117 31.919 0.0476-0.1429"/>
    <path d="m74.165 31.776v-0.2381"/>
    <path d="m74.165 33.062v-0.5714"/>
    <path d="m74.165 32.776h-1"/>
    <path d="m73.165 32.776 0.1429-0.0952"/>
    <path d="m73.308 32.681 0.0952-0.0953"/>
    <path d="m73.403 32.585 0.0476-0.0952"/>
    <path d="m73.165 33.681v0.0952"/>
    <path d="m73.165 33.776 0.0476 0.0952"/>
    <path d="m73.212 33.871 0.0477 0.0477"/>
    <path d="m73.26 33.919 0.0952 0.0476"/>
    <path d="m73.355 33.966 0.1905 0.0476"/>
    <path d="m73.546 34.014h0.2381"/>
    <path d="m73.784 34.014 0.1904-0.0476"/>
    <path d="m73.974 33.966 0.0953-0.0476"/>
    <path d="m74.07 33.919 0.0476-0.0477"/>
    <path d="m74.117 33.871 0.0476-0.0952"/>
    <path d="m74.165 33.776v-0.0952"/>
    <path d="m74.165 33.681-0.0476-0.0953"/>
    <path d="m74.117 33.585-0.0476-0.0476"/>
    <path d="m74.07 33.538-0.0953-0.0476"/>
    <path d="m73.974 33.49-0.1904-0.0476"/>
    <path d="m73.784 33.442h-0.2381"/>
    <path d="m73.546 33.442-0.1905 0.0476"/>
    <path d="m73.355 33.49-0.0952 0.0476"/>
    <path d="m73.26 33.538-0.0477 0.0476"/>
    <path d="m73.212 33.585-0.0476 0.0953"/>
   </g>
   <g transform="rotate(-90 16.56 13.702)">
    <text transform="scale(-1 1) translate(-33.12)" x="16.5600" y="14.2020" font-size="1.3333" opacity="0" stroke-opacity="0" text-anchor="middle" lengthAdjust="spacingAndGlyphs" textLength="2.2024">D1</text>
   </g>
   <g class="stroked-text">
    <desc>D1</desc>
    <path d="m17.015 12.964h-1"/>
    <path d="m16.015 12.964v0.2381"/>
    <path d="m16.015 13.202 0.0476 0.1429"/>
    <path d="m16.062 13.345 0.0953 0.0952"/>
    <path d="m16.158 13.44 0.0952 0.0476"/>
    <path d="m16.253 13.488 0.1905 0.0476"/>
    <path d="m16.443 13.535h0.1428"/>
    <path d="m16.586 13.535 0.1905-0.0476"/>
    <path d="m16.777 13.488 0.0953-0.0476"/>
    <path d="m16.872 13.44 0.0952-0.0952"/>
    <path d="m16.967 13.345 0.0476-0.1429"/>
    <path d="m17.015 13.202v-0.2381"/>
    <path d="m17.015 14.488v-0.5714"/>
    <path d="m17.015 14.202h-1"/>
    <path d="m16.015 14.202 0.1429-0.0952"/>
    <path d="m16.158 14.107 0.0952-0.0953"/>
    <path d="m16.253 14.012 0.0476-0.0952"/>
   </g>
   <g transform="rotate(-90 35.61 13.702)">
    <text transform="scale(-1 1) translate(-71.22)" x="35.6100" y="14.2020" font-size="1.3333" opacity="0" stroke-opacity="0" text-anchor="middle" lengthAdjust="spacingAndGlyphs" textLength="2.2024">D2</text>
   </g>
   <g class="stroked-text">
    <desc>D2</desc>
    <path d="m36.065 12.964h-1"/>
    <path d="m35.065 12.964v0.2381"/>
    <path d="m35.065 13.202 0.0476 0.1429"/>
    <path d="m35.112 13.345 0.0953 0.0952"/>
    <path d="m35.208 13.44 0.0952 0.0476"/>
    <path d="m35.303 13.488 0.1905 0.0476"/>
    <path d="m35.493 13.535h0.1428"/>
    <path d="m35.636 13.535 0.1905-0.0476"/>
    <path d="m35.827 13.488 0.0953-0.0476"/>
    <path d="m35.922 13.44 0.0952-0.0952"/>
    <path d="m36.017 13.345 0.0476-0.1429"/>
    <path d="m36.065 13.202v-0.2381"/>
    <path d="m35.16 13.916-0.0477 0.0476"/>
    <path d="m35.112 13.964-0.0476 0.0952"/>
    <path d="m35.065 14.059v0.2381"/>
    <path d="m35.065 14.297 0.0476 0.0953"/>
    <path d="m35.112 14.392 0.0477 0.0476"/>
    <path d="m35.16 14.44 0.0952 0.0476"/>
    <path d="m35.255 14.488h0.0952"/>
    <path d="m35.35 14.488 0.1429-0.0476"/>
    <path d="m35.493 14.44 0.5714-0.5714"/>
    <path d="m36.065 13.869v0.619"/>
   </g>
   <g transform="rotate(-90 16.56 32.752)">
    <text transform="scale(-1 1) translate(-33.12)" x="16.5600" y="33.2520" font-size="1.3333" opacity="0" stroke-opacity="0" text-anchor="middle" lengthAdjust="spacingAndGlyphs" textLength="2.2024">D7</text>
   </g>
   <g class="stroked-text">
    <desc>D7</desc>
    <path d="m17.015 32.014h-1"/>
    <path d="m16.015 32.014v0.2381"/>
    <path d="m16.015 32.252 0.0476 0.1429"/>
    <path d="m16.062 32.395 0.0953 0.0952"/>
    <path d="m16.158 32.49 0.0952 0.0476"/>
    <path d="m16.253 32.538 0.1905 0.0476"/>
    <path d="m16.443 32.585h0.1428"/>
    <path d="m16.586 32.585 0.1905-0.0476"/>
    <path d="m16.777 32.538 0.0953-0.0476"/>
    <path d="m16.872 32.49 0.0952-0.0952"/>
    <path d="m16.967 32.395 0.0476-0.1429"/>
    <path d="m17.015 32.252v-0.2381"/>
    <path d="m16.015 32.919v0.6666"/>
    <path d="m16.015 33.585 1-0.4285"/>
   </g>
   <g transform="rotate(-90 111.81 13.702)">
    <text transform="scale(-1 1) translate(-223.62)" x="111.8100" y="14.2020" font-size="1.3333" opacity="0" stroke-opacity="0" text-anchor="middle" lengthAdjust="spacingAndGlyphs" textLength="2.2024">D6</text>
   </g>
   <g class="stroked-text">
    <desc>D6</desc>
    <path d="m112.26 12.964h-1"/>
    <path d="m111.26 12.964v0.2381"/>
    <path d="m111.26 13.202 0.0476 0.1429"/>
    <path d="m111.31 13.345 0.0953 0.0952"/>
    <path d="m111.41 13.44 0.0952 0.0476"/>
    <path d="m111.5 13.488 0.1905 0.0476"/>
    <path d="m111.69 13.535h0.1428"/>
    <path d="m111.84 13.535 0.1905-0.0476"/>
    <path d="m112.03 13.488 0.0953-0.0476"/>
    <path d="m112.12 13.44 0.0952-0.0952"/>
    <path d="m112.22 13.345 0.0476-0.1429"/>
    <path d="m112.26 13.202v-0.2381"/>
    <path d="m111.26 14.392v-0.1905"/>
    <path d="m111.26 14.202 0.0476-0.0952"/>
    <path d="m111.31 14.107 0.0477-0.0477"/>
    <path d="m111.36 14.059 0.1428-0.0952"/>
    <path d="m111.5 13.964 0.1905-0.0476"/>
    <path d="m111.69 13.916h0.3809"/>
    <path d="m112.07 13.916 0.0953 0.0476"/>
    <path d="m112.17 13.964 0.0476 0.0476"/>
    <path d="m112.22 14.012 0.0476 0.0953"/>
    <path d="m112.26 14.107v0.1904"/>
    <path d="m112.26 14.297-0.0476 0.0953"/>
    <path d="m112.22 14.392-0.0476 0.0476"/>
    <path d="m112.17 14.44-0.0953 0.0476"/>
    <path d="m112.07 14.488h-0.2381"/>
    <path d="m111.84 14.488-0.0952-0.0476"/>
    <path d="m111.74 14.44-0.0476-0.0476"/>
    <path d="m111.69 14.392-0.0476-0.0953"/>
    <path d="m111.65 14.297v-0.1904"/>
    <path d="m111.65 14.107 0.0476-0.0953"/>
    <path d="m111.69 14.012 0.0476-0.0476"/>
    <path d="m111.74 13.964 0.0952-0.0476"/>
   </g>
   <g transform="rotate(-90 92.76 32.752)">
    <text transform="scale(-1 1) translate(-185.52)" x="92.7600" y="33.2520" font-size="1.3333" opacity="0" stroke-opacity="0" text-anchor="middle" lengthAdjust="spacingAndGlyphs" textLength="3.1548">D11</text>
   </g>
   <g class="stroked-text">
    <desc>D11</desc>
    <path d="m93.215 31.538h-1"/>
    <path d="m92.215 31.538v0.2381"/>
    <path d="m92.215 31.776 0.0476 0.1429"/>
    <path d="m92.262 31.919 0.0953 0.0952"/>
    <path d="m92.358 32.014 0.0952 0.0476"/>
    <path d="m92.453 32.062 0.1905 0.0476"/>
    <path d="m92.643 32.109h0.1428"/>
    <path d="m92.786 32.109 0.1905-0.0476"/>
    <path d="m92.977 32.062 0.0953-0.0476"/>
    <path d="m93.072 32.014 0.0952-0.0952"/>
    <path d="m93.167 31.919 0.0476-0.1429"/>
    <path d="m93.215 31.776v-0.2381"/>
    <path d="m93.215 33.062v-0.5714"/>
    <path d="m93.215 32.776h-1"/>
    <path d="m92.215 32.776 0.1429-0.0952"/>
    <path d="m92.358 32.681 0.0952-0.0953"/>
    <path d="m92.453 32.585 0.0476-0.0952"/>
    <path d="m93.215 34.014v-0.5714"/>
    <path d="m93.215 33.728h-1"/>
    <path d="m92.215 33.728 0.1429-0.0952"/>
    <path d="m92.358 33.633 0.0952-0.0953"/>
    <path d="m92.453 33.538 0.0476-0.0952"/>
   </g>
  </g>
  <g stroke="#BD93F9" stroke-width=".12">
   <path d="m70.805 15.785v-3.86"/>
   <path d="m72.805 15.785h-2"/>
   <path d="m72.805 15.785v-3.86"/>
   <path d="m32.705 34.835v-3.86"/>
   <path d="m34.705 34.835h-2"/>
   <path d="m34.705 34.835v-3.86"/>
   <path d="m51.755 15.785v-3.86"/>
   <path d="m53.755 15.785h-2"/>
   <path d="m53.755 15.785v-3.86"/>
   <path d="m89.855 15.785v-3.86"/>
   <path d="m91.855 15.785h-2"/>
   <path d="m91.855 15.785v-3.86"/>
   <path d="m51.755 34.835v-3.86"/>
   <path d="m53.755 34.835h-2"/>
   <path d="m53.755 34.835v-3.86"/>
   <path d="m108.9 34.835v-3.86"/>
   <path d="m110.9 34.835h-2"/>
   <path d="m110.9 34.835v-3.86"/>
   <path d="m70.805 34.835v-3.86"/>
   <path d="m72.805 34.835h-2"/>
   <path d="m72.805 34.835v-3.86"/>
   <path d="m13.655 15.785v-3.86"/>
   <path d="m15.655 15.785h-2"/>
   <path d="m15.655 15.785v-3.86"/>
   <path d="m32.705 15.785v-3.86"/>
   <path d="m34.705 15.785h-2"/>
   <path d="m34.705 15.785v-3.86"/>
   <path d="m13.655 34.835v-3.86"/>
   <path d="m15.655 34.835h-2"/>
   <path d="m15.655 34.835v-3.86"/>
   <path d="m108.9 15.785v-3.86"/>
   <path d="m110.9 15.785h-2"/>
   <path d="m110.9 15.785v-3.86"/>
   <path d="m89.855 34.835v-3.86"/>
   <path d="m91.855 34.835h-2"/>
   <path d="m91.855 34.835v-3.86"/>
  </g>
 </g>
 <g fill="#fff">
  <circle cx="4.495" cy="9.575" r=".875"/>
  <circle cx="9.575" cy="9.575" r="2"/>
  <circle cx="14.655" cy="9.575" r=".875"/>
  <circle cx="5.765" cy="7.035" r=".75"/>
  <circle cx="12.115" cy="4.495" r=".75"/>
  <circle cx="23.545" cy="85.775" r=".875"/>
  <circle cx="28.625" cy="85.775" r="2"/>
  <circle cx="33.705" cy="85.775" r=".875"/>
  <circle cx="24.815" cy="83.235" r=".75"/>
  <circle cx="31.165" cy="80.695" r=".75"/>
  <circle cx="61.645" cy="28.625" r=".875"/>
  <circle cx="66.725" cy="28.625" r="2"/>
  <circle cx="71.805" cy="28.625" r=".875"/>
  <circle cx="62.915" cy="26.085" r=".75"/>
  <circle cx="69.265" cy="23.545" r=".75"/>
  <circle cx="4.495" cy="66.725" r=".875"/>
  <circle cx="9.575" cy="66.725" r="2"/>
  <circle cx="14.655" cy="66.725" r=".875"/>
  <circle cx="5.765" cy="64.185" r=".75"/>
  <circle cx="12.115" cy="61.645" r=".75"/>
  <circle cx="99.745" cy="28.625" r=".875"/>
  <circle cx="104.82" cy="28.625" r="2"/>
  <circle cx="109.9" cy="28.625" r=".875"/>
  <circle cx="101.02" cy="26.085" r=".75"/>
  <circle cx="107.36" cy="23.545" r=".75"/>
  <circle cx="23.545" cy="28.625" r=".875"/>
  <circle cx="28.625" cy="28.625" r="2"/>
  <circle cx="33.705" cy="28.625" r=".875"/>
  <circle cx="24.815" cy="26.085" r=".75"/>
  <circle cx="31.165" cy="23.545" r=".75"/>
  <circle cx="23.545" cy="28.625" r=".875"/>
  <circle cx="28.625" cy="28.625" r="2"/>
  <circle cx="33.705" cy="28.625" r=".875"/>
  <circle cx="24.815" cy="26.085" r=".75"/>
  <circle cx="31.165" cy="23.545" r=".75"/>
  <circle cx="23.545" cy="66.725" r=".875"/>
  <circle cx="28.625" cy="66.725" r="2"/>
  <circle cx="33.705" cy="66.725" r=".875"/>
  <circle cx="24.815" cy="64.185" r=".75"/>
  <circle cx="31.165" cy="61.645" r=".75"/>
  <circle cx="4.495" cy="85.775" r=".875"/>
  <circle cx="9.575" cy="85.775" r="2"/>
  <circle cx="14.655" cy="85.775" r=".875"/>
  <circle cx="5.765" cy="83.235" r=".75"/>
  <circle cx="12.115" cy="80.695" r=".75"/>
  <circle cx="80.695" cy="9.575" r=".875"/>
  <circle cx="85.775" cy="9.575" r="2"/>
  <circle cx="90.855" cy="9.575" r=".875"/>
  <circle cx="81.965" cy="7.035" r=".75"/>
  <circle cx="88.315" cy="4.495" r=".75"/>
  <circle cx="23.545" cy="47.675" r=".875"/>
  <circle cx="28.625" cy="47.675" r="2"/>
  <circle cx="33.705" cy="47.675" r=".875"/>
  <circle cx="24.815" cy="45.135" r=".75"/>
  <circle cx="31.165" cy="42.595" r=".75"/>
  <circle cx="23.545" cy="9.575" r=".875"/>
  <circle cx="28.625" cy="9.575" r="2"/>
  <circle cx="33.705" cy="9.575" r=".875"/>
  <circle cx="24.815" cy="7.035" r=".75"/>
  <circle cx="31.165" cy="4.495" r=".75"/>
  <circle cx="99.745" cy="9.575" r=".875"/>
  <circle cx="104.82" cy="9.575" r="2"/>
  <circle cx="109.9" cy="9.575" r=".875"/>
  <circle cx="101.02" cy="7.035" r=".75"/>
  <circle cx="107.36" cy="4.495" r=".75"/>
  <circle cx="4.495" cy="9.575" r=".875"/>
  <circle cx="9.575" cy="9.575" r="2"/>
  <circle cx="14.655" cy="9.575" r=".875"/>
  <circle cx="5.765" cy="7.035" r=".75"/>
  <circle cx="12.115" cy="4.495" r=".75"/>
  <circle cx="61.645" cy="9.575" r=".875"/>
  <circle cx="66.725" cy="9.575" r="2"/>
  <circle cx="71.805" cy="9.575" r=".875"/>
  <circle cx="62.915" cy="7.035" r=".75"/>
  <circle cx="69.265" cy="4.495" r=".75"/>
  <circle cx="42.595" cy="9.575" r=".875"/>
  <circle cx="47.675" cy="9.575" r="2"/>
  <circle cx="52.755" cy="9.575" r=".875"/>
  <circle cx="43.865" cy="7.035" r=".75"/>
  <circle cx="50.215" cy="4.495" r=".75"/>
  <circle cx="4.495" cy="28.625" r=".875"/>
  <circle cx="9.575" cy="28.625" r="2"/>
  <circle cx="14.655" cy="28.625" r=".875"/>
  <circle cx="5.765" cy="26.085" r=".75"/>
  <circle cx="12.115" cy="23.545" r=".75"/>
  <circle cx="23.545" cy="104.82" r=".875"/>
  <circle cx="28.625" cy="104.82" r="2"/>
  <circle cx="33.705" cy="104.82" r=".875"/>
  <circle cx="24.815" cy="102.28" r=".75"/>
  <circle cx="31.165" cy="99.745" r=".75"/>
  <circle cx="80.695" cy="28.625" r=".875"/>
  <circle cx="85.775" cy="28.625" r="2"/>
  <circle cx="90.855" cy="28.625" r=".875"/>
  <circle cx="81.965" cy="26.085" r=".75"/>
  <circle cx="88.315" cy="23.545" r=".75"/>
  <circle cx="4.495" cy="47.675" r=".875"/>
  <circle cx="9.575" cy="47.675" r="2"/>
  <circle cx="14.655" cy="47.675" r=".875"/>
  <circle cx="5.765" cy="45.135" r=".75"/>
  <circle cx="12.115" cy="42.595" r=".75"/>
  <circle cx="4.495" cy="104.82" r=".875"/>
  <circle cx="9.575" cy="104.82" r="2"/>
  <circle cx="14.655" cy="104.82" r=".875"/>
  <circle cx="5.765" cy="102.28" r=".75"/>
  <circle cx="12.115" cy="99.745" r=".75"/>
  <circle cx="23.545" cy="9.575" r=".875"/>
  <circle cx="28.625" cy="9.575" r="2"/>
  <circle cx="33.705" cy="9.575" r=".875"/>
  <circle cx="24.815" cy="7.035" r=".75"/>
  <circle cx="31.165" cy="4.495" r=".75"/>
  <circle cx="4.495" cy="28.625" r=".875"/>
  <circle cx="9.575" cy="28.625" r="2"/>
  <circle cx="14.655" cy="28.625" r=".875"/>
  <circle cx="5.765" cy="26.085" r=".75"/>
  <circle cx="12.115" cy="23.545" r=".75"/>
  <circle cx="42.595" cy="28.625" r=".875"/>
  <circle cx="47.675" cy="28.625" r="2"/>
  <circle cx="52.755" cy="28.625" r=".875"/>
  <circle cx="43.865" cy="26.085" r=".75"/>
  <circle cx="50.215" cy="23.545" r=".75"/>
 </g>
</svg>
