<?xml version="1.0" encoding="UTF-8"?>
<svg width="92.685mm" height="36.743mm" version="1.1" viewBox="26.425 24.932 92.685 36.743" xmlns="http://www.w3.org/2000/svg">
 <title>SVG Image created as mkmacro01-render.svg date 2024/01/04 10:20:13</title>
 <desc>Image generated by PCBNEW</desc>
 <g fill="#282a36">
  <rect x="26.425" y="24.932" width="92.685" height="36.743"/>
 </g>
 <g fill-opacity="0" stroke-width="0">
  <g fill="#C83434" stroke="#C83434" stroke-linecap="round" stroke-linejoin="round">
   <g fill-opacity="1" stroke-width="0">
    <circle cx="30.715" cy="51.035" r="1.25"/>
    <circle cx="37.065" cy="48.495" r="1.25"/>
    <circle cx="68.815" cy="31.985" r="1.25"/>
    <circle cx="75.165" cy="29.445" r="1.25"/>
    <circle cx="68.815" cy="51.035" r="1.25"/>
    <circle cx="75.165" cy="48.495" r="1.25"/>
    <circle cx="49.765" cy="51.035" r="1.25"/>
    <circle cx="56.115" cy="48.495" r="1.25"/>
    <circle cx="30.715" cy="31.985" r="1.25"/>
    <circle cx="37.065" cy="29.445" r="1.25"/>
    <circle cx="106.92" cy="51.035" r="1.25"/>
    <circle cx="113.26" cy="48.495" r="1.25"/>
    <circle cx="49.765" cy="31.985" r="1.25"/>
    <circle cx="56.115" cy="29.445" r="1.25"/>
    <circle cx="87.865" cy="31.985" r="1.25"/>
    <circle cx="94.215" cy="29.445" r="1.25"/>
    <circle cx="106.92" cy="31.985" r="1.25"/>
    <circle cx="113.26" cy="29.445" r="1.25"/>
    <circle cx="87.865" cy="51.035" r="1.25"/>
    <circle cx="94.215" cy="48.495" r="1.25"/>
   </g>
   <g fill-opacity="0" stroke-width=".25">
    <path d="m30.715 31.985v19.05"/>
    <path d="m49.765 31.985v19.05"/>
    <path d="m68.815 31.985v19.05"/>
    <path d="m87.865 31.985v19.05"/>
    <path d="m106.92 31.985v19.05"/>
   </g>
  </g>
 </g>
 <g stroke-linecap="round" stroke-linejoin="round">
  <g fill-opacity="0" stroke="#000" stroke-width=".25">
   <g fill="#7FC87F" fill-opacity="1" stroke="#7FC87F" stroke-linecap="round" stroke-linejoin="round" stroke-width="0">
    <circle cx="30.715" cy="51.035" r="1.25"/>
    <circle cx="37.065" cy="48.495" r="1.25"/>
    <circle cx="68.815" cy="31.985" r="1.25"/>
    <circle cx="75.165" cy="29.445" r="1.25"/>
    <circle cx="68.815" cy="51.035" r="1.25"/>
    <circle cx="75.165" cy="48.495" r="1.25"/>
    <circle cx="49.765" cy="51.035" r="1.25"/>
    <circle cx="56.115" cy="48.495" r="1.25"/>
    <circle cx="30.715" cy="31.985" r="1.25"/>
    <circle cx="37.065" cy="29.445" r="1.25"/>
    <circle cx="106.92" cy="51.035" r="1.25"/>
    <circle cx="113.26" cy="48.495" r="1.25"/>
    <circle cx="49.765" cy="31.985" r="1.25"/>
    <circle cx="56.115" cy="29.445" r="1.25"/>
    <circle cx="87.865" cy="31.985" r="1.25"/>
    <circle cx="94.215" cy="29.445" r="1.25"/>
    <circle cx="106.92" cy="31.985" r="1.25"/>
    <circle cx="113.26" cy="29.445" r="1.25"/>
    <circle cx="87.865" cy="51.035" r="1.25"/>
    <circle cx="94.215" cy="48.495" r="1.25"/>
   </g>
  </g>
  <g stroke="#000" stroke-width=".021">
   <g fill="#CE7D2C" stroke="#CE7D2C" stroke-linecap="round" stroke-linejoin="round" stroke-width="0">
    <circle cx="30.715" cy="51.035" r="1.25"/>
    <circle cx="37.065" cy="48.495" r="1.25"/>
    <circle cx="68.815" cy="31.985" r="1.25"/>
    <circle cx="75.165" cy="29.445" r="1.25"/>
    <circle cx="68.815" cy="51.035" r="1.25"/>
    <circle cx="75.165" cy="48.495" r="1.25"/>
    <circle cx="49.765" cy="51.035" r="1.25"/>
    <circle cx="56.115" cy="48.495" r="1.25"/>
    <circle cx="30.715" cy="31.985" r="1.25"/>
    <circle cx="37.065" cy="29.445" r="1.25"/>
    <circle cx="106.92" cy="51.035" r="1.25"/>
    <circle cx="113.26" cy="48.495" r="1.25"/>
    <circle cx="49.765" cy="31.985" r="1.25"/>
    <circle cx="56.115" cy="29.445" r="1.25"/>
    <circle cx="87.865" cy="31.985" r="1.25"/>
    <circle cx="94.215" cy="29.445" r="1.25"/>
    <circle cx="106.92" cy="31.985" r="1.25"/>
    <circle cx="113.26" cy="29.445" r="1.25"/>
    <circle cx="87.865" cy="51.035" r="1.25"/>
    <circle cx="94.215" cy="48.495" r="1.25"/>
   </g>
   <g fill="#4FCBCB" stroke="#4FCBCB" stroke-linecap="round" stroke-linejoin="round" stroke-width="0">
    <circle cx="30.715" cy="51.035" r="1.25"/>
    <circle cx="37.065" cy="48.495" r="1.25"/>
    <circle cx="68.815" cy="31.985" r="1.25"/>
    <circle cx="75.165" cy="29.445" r="1.25"/>
    <circle cx="68.815" cy="51.035" r="1.25"/>
    <circle cx="75.165" cy="48.495" r="1.25"/>
    <circle cx="49.765" cy="51.035" r="1.25"/>
    <circle cx="56.115" cy="48.495" r="1.25"/>
    <circle cx="30.715" cy="31.985" r="1.25"/>
    <circle cx="37.065" cy="29.445" r="1.25"/>
    <circle cx="106.92" cy="51.035" r="1.25"/>
    <circle cx="113.26" cy="48.495" r="1.25"/>
    <circle cx="49.765" cy="31.985" r="1.25"/>
    <circle cx="56.115" cy="29.445" r="1.25"/>
    <circle cx="87.865" cy="31.985" r="1.25"/>
    <circle cx="94.215" cy="29.445" r="1.25"/>
    <circle cx="106.92" cy="31.985" r="1.25"/>
    <circle cx="113.26" cy="29.445" r="1.25"/>
    <circle cx="87.865" cy="51.035" r="1.25"/>
    <circle cx="94.215" cy="48.495" r="1.25"/>
   </g>
   <g fill="#DB628B" stroke="#DB628B" stroke-linecap="round" stroke-linejoin="round" stroke-width="0">
    <circle cx="30.715" cy="51.035" r="1.25"/>
    <circle cx="37.065" cy="48.495" r="1.25"/>
    <circle cx="68.815" cy="31.985" r="1.25"/>
    <circle cx="75.165" cy="29.445" r="1.25"/>
    <circle cx="68.815" cy="51.035" r="1.25"/>
    <circle cx="75.165" cy="48.495" r="1.25"/>
    <circle cx="49.765" cy="51.035" r="1.25"/>
    <circle cx="56.115" cy="48.495" r="1.25"/>
    <circle cx="30.715" cy="31.985" r="1.25"/>
    <circle cx="37.065" cy="29.445" r="1.25"/>
    <circle cx="106.92" cy="51.035" r="1.25"/>
    <circle cx="113.26" cy="48.495" r="1.25"/>
    <circle cx="49.765" cy="31.985" r="1.25"/>
    <circle cx="56.115" cy="29.445" r="1.25"/>
    <circle cx="87.865" cy="31.985" r="1.25"/>
    <circle cx="94.215" cy="29.445" r="1.25"/>
    <circle cx="106.92" cy="31.985" r="1.25"/>
    <circle cx="113.26" cy="29.445" r="1.25"/>
    <circle cx="87.865" cy="51.035" r="1.25"/>
    <circle cx="94.215" cy="48.495" r="1.25"/>
   </g>
   <g fill="#A7A5C6" stroke="#A7A5C6" stroke-linecap="round" stroke-linejoin="round" stroke-width="0">
    <circle cx="30.715" cy="51.035" r="1.25"/>
    <circle cx="37.065" cy="48.495" r="1.25"/>
    <circle cx="68.815" cy="31.985" r="1.25"/>
    <circle cx="75.165" cy="29.445" r="1.25"/>
    <circle cx="68.815" cy="51.035" r="1.25"/>
    <circle cx="75.165" cy="48.495" r="1.25"/>
    <circle cx="49.765" cy="51.035" r="1.25"/>
    <circle cx="56.115" cy="48.495" r="1.25"/>
    <circle cx="30.715" cy="31.985" r="1.25"/>
    <circle cx="37.065" cy="29.445" r="1.25"/>
    <circle cx="106.92" cy="51.035" r="1.25"/>
    <circle cx="113.26" cy="48.495" r="1.25"/>
    <circle cx="49.765" cy="31.985" r="1.25"/>
    <circle cx="56.115" cy="29.445" r="1.25"/>
    <circle cx="87.865" cy="31.985" r="1.25"/>
    <circle cx="94.215" cy="29.445" r="1.25"/>
    <circle cx="106.92" cy="31.985" r="1.25"/>
    <circle cx="113.26" cy="29.445" r="1.25"/>
    <circle cx="87.865" cy="51.035" r="1.25"/>
    <circle cx="94.215" cy="48.495" r="1.25"/>
   </g>
   <g fill="#28CCD9" stroke="#28CCD9" stroke-linecap="round" stroke-linejoin="round" stroke-width="0">
    <circle cx="30.715" cy="51.035" r="1.25"/>
    <circle cx="37.065" cy="48.495" r="1.25"/>
    <circle cx="68.815" cy="31.985" r="1.25"/>
    <circle cx="75.165" cy="29.445" r="1.25"/>
    <circle cx="68.815" cy="51.035" r="1.25"/>
    <circle cx="75.165" cy="48.495" r="1.25"/>
    <circle cx="49.765" cy="51.035" r="1.25"/>
    <circle cx="56.115" cy="48.495" r="1.25"/>
    <circle cx="30.715" cy="31.985" r="1.25"/>
    <circle cx="37.065" cy="29.445" r="1.25"/>
    <circle cx="106.92" cy="51.035" r="1.25"/>
    <circle cx="113.26" cy="48.495" r="1.25"/>
    <circle cx="49.765" cy="31.985" r="1.25"/>
    <circle cx="56.115" cy="29.445" r="1.25"/>
    <circle cx="87.865" cy="31.985" r="1.25"/>
    <circle cx="94.215" cy="29.445" r="1.25"/>
    <circle cx="106.92" cy="31.985" r="1.25"/>
    <circle cx="113.26" cy="29.445" r="1.25"/>
    <circle cx="87.865" cy="51.035" r="1.25"/>
    <circle cx="94.215" cy="48.495" r="1.25"/>
   </g>
   <g fill="#E8B2A7" stroke="#E8B2A7" stroke-linecap="round" stroke-linejoin="round" stroke-width="0">
    <circle cx="30.715" cy="51.035" r="1.25"/>
    <circle cx="37.065" cy="48.495" r="1.25"/>
    <circle cx="68.815" cy="31.985" r="1.25"/>
    <circle cx="75.165" cy="29.445" r="1.25"/>
    <circle cx="68.815" cy="51.035" r="1.25"/>
    <circle cx="75.165" cy="48.495" r="1.25"/>
    <circle cx="49.765" cy="51.035" r="1.25"/>
    <circle cx="56.115" cy="48.495" r="1.25"/>
    <circle cx="30.715" cy="31.985" r="1.25"/>
    <circle cx="37.065" cy="29.445" r="1.25"/>
    <circle cx="106.92" cy="51.035" r="1.25"/>
    <circle cx="113.26" cy="48.495" r="1.25"/>
    <circle cx="49.765" cy="31.985" r="1.25"/>
    <circle cx="56.115" cy="29.445" r="1.25"/>
    <circle cx="87.865" cy="31.985" r="1.25"/>
    <circle cx="94.215" cy="29.445" r="1.25"/>
    <circle cx="106.92" cy="31.985" r="1.25"/>
    <circle cx="113.26" cy="29.445" r="1.25"/>
    <circle cx="87.865" cy="51.035" r="1.25"/>
    <circle cx="94.215" cy="48.495" r="1.25"/>
   </g>
   <g fill="#F2EDA1" stroke="#F2EDA1" stroke-linecap="round" stroke-linejoin="round" stroke-width="0">
    <circle cx="30.715" cy="51.035" r="1.25"/>
    <circle cx="37.065" cy="48.495" r="1.25"/>
    <circle cx="68.815" cy="31.985" r="1.25"/>
    <circle cx="75.165" cy="29.445" r="1.25"/>
    <circle cx="68.815" cy="51.035" r="1.25"/>
    <circle cx="75.165" cy="48.495" r="1.25"/>
    <circle cx="49.765" cy="51.035" r="1.25"/>
    <circle cx="56.115" cy="48.495" r="1.25"/>
    <circle cx="30.715" cy="31.985" r="1.25"/>
    <circle cx="37.065" cy="29.445" r="1.25"/>
    <circle cx="106.92" cy="51.035" r="1.25"/>
    <circle cx="113.26" cy="48.495" r="1.25"/>
    <circle cx="49.765" cy="31.985" r="1.25"/>
    <circle cx="56.115" cy="29.445" r="1.25"/>
    <circle cx="87.865" cy="31.985" r="1.25"/>
    <circle cx="94.215" cy="29.445" r="1.25"/>
    <circle cx="106.92" cy="31.985" r="1.25"/>
    <circle cx="113.26" cy="29.445" r="1.25"/>
    <circle cx="87.865" cy="51.035" r="1.25"/>
    <circle cx="94.215" cy="48.495" r="1.25"/>
   </g>
   <g fill="#8DCB81" stroke="#8DCB81" stroke-linecap="round" stroke-linejoin="round" stroke-width="0">
    <circle cx="30.715" cy="51.035" r="1.25"/>
    <circle cx="37.065" cy="48.495" r="1.25"/>
    <circle cx="68.815" cy="31.985" r="1.25"/>
    <circle cx="75.165" cy="29.445" r="1.25"/>
    <circle cx="68.815" cy="51.035" r="1.25"/>
    <circle cx="75.165" cy="48.495" r="1.25"/>
    <circle cx="49.765" cy="51.035" r="1.25"/>
    <circle cx="56.115" cy="48.495" r="1.25"/>
    <circle cx="30.715" cy="31.985" r="1.25"/>
    <circle cx="37.065" cy="29.445" r="1.25"/>
    <circle cx="106.92" cy="51.035" r="1.25"/>
    <circle cx="113.26" cy="48.495" r="1.25"/>
    <circle cx="49.765" cy="31.985" r="1.25"/>
    <circle cx="56.115" cy="29.445" r="1.25"/>
    <circle cx="87.865" cy="31.985" r="1.25"/>
    <circle cx="94.215" cy="29.445" r="1.25"/>
    <circle cx="106.92" cy="31.985" r="1.25"/>
    <circle cx="113.26" cy="29.445" r="1.25"/>
    <circle cx="87.865" cy="51.035" r="1.25"/>
    <circle cx="94.215" cy="48.495" r="1.25"/>
   </g>
   <g fill="#ED7C33" stroke="#ED7C33" stroke-linecap="round" stroke-linejoin="round" stroke-width="0">
    <circle cx="30.715" cy="51.035" r="1.25"/>
    <circle cx="37.065" cy="48.495" r="1.25"/>
    <circle cx="68.815" cy="31.985" r="1.25"/>
    <circle cx="75.165" cy="29.445" r="1.25"/>
    <circle cx="68.815" cy="51.035" r="1.25"/>
    <circle cx="75.165" cy="48.495" r="1.25"/>
    <circle cx="49.765" cy="51.035" r="1.25"/>
    <circle cx="56.115" cy="48.495" r="1.25"/>
    <circle cx="30.715" cy="31.985" r="1.25"/>
    <circle cx="37.065" cy="29.445" r="1.25"/>
    <circle cx="106.92" cy="51.035" r="1.25"/>
    <circle cx="113.26" cy="48.495" r="1.25"/>
    <circle cx="49.765" cy="31.985" r="1.25"/>
    <circle cx="56.115" cy="29.445" r="1.25"/>
    <circle cx="87.865" cy="31.985" r="1.25"/>
    <circle cx="94.215" cy="29.445" r="1.25"/>
    <circle cx="106.92" cy="31.985" r="1.25"/>
    <circle cx="113.26" cy="29.445" r="1.25"/>
    <circle cx="87.865" cy="51.035" r="1.25"/>
    <circle cx="94.215" cy="48.495" r="1.25"/>
   </g>
   <g fill="#5BC3EB" stroke="#5BC3EB" stroke-linecap="round" stroke-linejoin="round" stroke-width="0">
    <circle cx="30.715" cy="51.035" r="1.25"/>
    <circle cx="37.065" cy="48.495" r="1.25"/>
    <circle cx="68.815" cy="31.985" r="1.25"/>
    <circle cx="75.165" cy="29.445" r="1.25"/>
    <circle cx="68.815" cy="51.035" r="1.25"/>
    <circle cx="75.165" cy="48.495" r="1.25"/>
    <circle cx="49.765" cy="51.035" r="1.25"/>
    <circle cx="56.115" cy="48.495" r="1.25"/>
    <circle cx="30.715" cy="31.985" r="1.25"/>
    <circle cx="37.065" cy="29.445" r="1.25"/>
    <circle cx="106.92" cy="51.035" r="1.25"/>
    <circle cx="113.26" cy="48.495" r="1.25"/>
    <circle cx="49.765" cy="31.985" r="1.25"/>
    <circle cx="56.115" cy="29.445" r="1.25"/>
    <circle cx="87.865" cy="31.985" r="1.25"/>
    <circle cx="94.215" cy="29.445" r="1.25"/>
    <circle cx="106.92" cy="31.985" r="1.25"/>
    <circle cx="113.26" cy="29.445" r="1.25"/>
    <circle cx="87.865" cy="51.035" r="1.25"/>
    <circle cx="94.215" cy="48.495" r="1.25"/>
   </g>
   <g fill="#F76F8E" stroke="#F76F8E" stroke-linecap="round" stroke-linejoin="round" stroke-width="0">
    <circle cx="30.715" cy="51.035" r="1.25"/>
    <circle cx="37.065" cy="48.495" r="1.25"/>
    <circle cx="68.815" cy="31.985" r="1.25"/>
    <circle cx="75.165" cy="29.445" r="1.25"/>
    <circle cx="68.815" cy="51.035" r="1.25"/>
    <circle cx="75.165" cy="48.495" r="1.25"/>
    <circle cx="49.765" cy="51.035" r="1.25"/>
    <circle cx="56.115" cy="48.495" r="1.25"/>
    <circle cx="30.715" cy="31.985" r="1.25"/>
    <circle cx="37.065" cy="29.445" r="1.25"/>
    <circle cx="106.92" cy="51.035" r="1.25"/>
    <circle cx="113.26" cy="48.495" r="1.25"/>
    <circle cx="49.765" cy="31.985" r="1.25"/>
    <circle cx="56.115" cy="29.445" r="1.25"/>
    <circle cx="87.865" cy="31.985" r="1.25"/>
    <circle cx="94.215" cy="29.445" r="1.25"/>
    <circle cx="106.92" cy="31.985" r="1.25"/>
    <circle cx="113.26" cy="29.445" r="1.25"/>
    <circle cx="87.865" cy="51.035" r="1.25"/>
    <circle cx="94.215" cy="48.495" r="1.25"/>
   </g>
   <g fill="#A7A5C6" stroke="#A7A5C6" stroke-linecap="round" stroke-linejoin="round" stroke-width="0">
    <circle cx="30.715" cy="51.035" r="1.25"/>
    <circle cx="37.065" cy="48.495" r="1.25"/>
    <circle cx="68.815" cy="31.985" r="1.25"/>
    <circle cx="75.165" cy="29.445" r="1.25"/>
    <circle cx="68.815" cy="51.035" r="1.25"/>
    <circle cx="75.165" cy="48.495" r="1.25"/>
    <circle cx="49.765" cy="51.035" r="1.25"/>
    <circle cx="56.115" cy="48.495" r="1.25"/>
    <circle cx="30.715" cy="31.985" r="1.25"/>
    <circle cx="37.065" cy="29.445" r="1.25"/>
    <circle cx="106.92" cy="51.035" r="1.25"/>
    <circle cx="113.26" cy="48.495" r="1.25"/>
    <circle cx="49.765" cy="31.985" r="1.25"/>
    <circle cx="56.115" cy="29.445" r="1.25"/>
    <circle cx="87.865" cy="31.985" r="1.25"/>
    <circle cx="94.215" cy="29.445" r="1.25"/>
    <circle cx="106.92" cy="31.985" r="1.25"/>
    <circle cx="113.26" cy="29.445" r="1.25"/>
    <circle cx="87.865" cy="51.035" r="1.25"/>
    <circle cx="94.215" cy="48.495" r="1.25"/>
   </g>
   <g fill="#28CCD9" stroke="#28CCD9" stroke-linecap="round" stroke-linejoin="round" stroke-width="0">
    <circle cx="30.715" cy="51.035" r="1.25"/>
    <circle cx="37.065" cy="48.495" r="1.25"/>
    <circle cx="68.815" cy="31.985" r="1.25"/>
    <circle cx="75.165" cy="29.445" r="1.25"/>
    <circle cx="68.815" cy="51.035" r="1.25"/>
    <circle cx="75.165" cy="48.495" r="1.25"/>
    <circle cx="49.765" cy="51.035" r="1.25"/>
    <circle cx="56.115" cy="48.495" r="1.25"/>
    <circle cx="30.715" cy="31.985" r="1.25"/>
    <circle cx="37.065" cy="29.445" r="1.25"/>
    <circle cx="106.92" cy="51.035" r="1.25"/>
    <circle cx="113.26" cy="48.495" r="1.25"/>
    <circle cx="49.765" cy="31.985" r="1.25"/>
    <circle cx="56.115" cy="29.445" r="1.25"/>
    <circle cx="87.865" cy="31.985" r="1.25"/>
    <circle cx="94.215" cy="29.445" r="1.25"/>
    <circle cx="106.92" cy="31.985" r="1.25"/>
    <circle cx="113.26" cy="29.445" r="1.25"/>
    <circle cx="87.865" cy="51.035" r="1.25"/>
    <circle cx="94.215" cy="48.495" r="1.25"/>
   </g>
   <g fill="#E8B2A7" stroke="#E8B2A7" stroke-linecap="round" stroke-linejoin="round" stroke-width="0">
    <circle cx="30.715" cy="51.035" r="1.25"/>
    <circle cx="37.065" cy="48.495" r="1.25"/>
    <circle cx="68.815" cy="31.985" r="1.25"/>
    <circle cx="75.165" cy="29.445" r="1.25"/>
    <circle cx="68.815" cy="51.035" r="1.25"/>
    <circle cx="75.165" cy="48.495" r="1.25"/>
    <circle cx="49.765" cy="51.035" r="1.25"/>
    <circle cx="56.115" cy="48.495" r="1.25"/>
    <circle cx="30.715" cy="31.985" r="1.25"/>
    <circle cx="37.065" cy="29.445" r="1.25"/>
    <circle cx="106.92" cy="51.035" r="1.25"/>
    <circle cx="113.26" cy="48.495" r="1.25"/>
    <circle cx="49.765" cy="31.985" r="1.25"/>
    <circle cx="56.115" cy="29.445" r="1.25"/>
    <circle cx="87.865" cy="31.985" r="1.25"/>
    <circle cx="94.215" cy="29.445" r="1.25"/>
    <circle cx="106.92" cy="31.985" r="1.25"/>
    <circle cx="113.26" cy="29.445" r="1.25"/>
    <circle cx="87.865" cy="51.035" r="1.25"/>
    <circle cx="94.215" cy="48.495" r="1.25"/>
   </g>
   <g fill="#F2EDA1" stroke="#F2EDA1" stroke-linecap="round" stroke-linejoin="round" stroke-width="0">
    <circle cx="30.715" cy="51.035" r="1.25"/>
    <circle cx="37.065" cy="48.495" r="1.25"/>
    <circle cx="68.815" cy="31.985" r="1.25"/>
    <circle cx="75.165" cy="29.445" r="1.25"/>
    <circle cx="68.815" cy="51.035" r="1.25"/>
    <circle cx="75.165" cy="48.495" r="1.25"/>
    <circle cx="49.765" cy="51.035" r="1.25"/>
    <circle cx="56.115" cy="48.495" r="1.25"/>
    <circle cx="30.715" cy="31.985" r="1.25"/>
    <circle cx="37.065" cy="29.445" r="1.25"/>
    <circle cx="106.92" cy="51.035" r="1.25"/>
    <circle cx="113.26" cy="48.495" r="1.25"/>
    <circle cx="49.765" cy="31.985" r="1.25"/>
    <circle cx="56.115" cy="29.445" r="1.25"/>
    <circle cx="87.865" cy="31.985" r="1.25"/>
    <circle cx="94.215" cy="29.445" r="1.25"/>
    <circle cx="106.92" cy="31.985" r="1.25"/>
    <circle cx="113.26" cy="29.445" r="1.25"/>
    <circle cx="87.865" cy="51.035" r="1.25"/>
    <circle cx="94.215" cy="48.495" r="1.25"/>
   </g>
   <g fill="#ED7C33" stroke="#ED7C33" stroke-linecap="round" stroke-linejoin="round" stroke-width="0">
    <circle cx="30.715" cy="51.035" r="1.25"/>
    <circle cx="37.065" cy="48.495" r="1.25"/>
    <circle cx="68.815" cy="31.985" r="1.25"/>
    <circle cx="75.165" cy="29.445" r="1.25"/>
    <circle cx="68.815" cy="51.035" r="1.25"/>
    <circle cx="75.165" cy="48.495" r="1.25"/>
    <circle cx="49.765" cy="51.035" r="1.25"/>
    <circle cx="56.115" cy="48.495" r="1.25"/>
    <circle cx="30.715" cy="31.985" r="1.25"/>
    <circle cx="37.065" cy="29.445" r="1.25"/>
    <circle cx="106.92" cy="51.035" r="1.25"/>
    <circle cx="113.26" cy="48.495" r="1.25"/>
    <circle cx="49.765" cy="31.985" r="1.25"/>
    <circle cx="56.115" cy="29.445" r="1.25"/>
    <circle cx="87.865" cy="31.985" r="1.25"/>
    <circle cx="94.215" cy="29.445" r="1.25"/>
    <circle cx="106.92" cy="31.985" r="1.25"/>
    <circle cx="113.26" cy="29.445" r="1.25"/>
    <circle cx="87.865" cy="51.035" r="1.25"/>
    <circle cx="94.215" cy="48.495" r="1.25"/>
   </g>
   <g fill="#5BC3EB" stroke="#5BC3EB" stroke-linecap="round" stroke-linejoin="round" stroke-width="0">
    <circle cx="30.715" cy="51.035" r="1.25"/>
    <circle cx="37.065" cy="48.495" r="1.25"/>
    <circle cx="68.815" cy="31.985" r="1.25"/>
    <circle cx="75.165" cy="29.445" r="1.25"/>
    <circle cx="68.815" cy="51.035" r="1.25"/>
    <circle cx="75.165" cy="48.495" r="1.25"/>
    <circle cx="49.765" cy="51.035" r="1.25"/>
    <circle cx="56.115" cy="48.495" r="1.25"/>
    <circle cx="30.715" cy="31.985" r="1.25"/>
    <circle cx="37.065" cy="29.445" r="1.25"/>
    <circle cx="106.92" cy="51.035" r="1.25"/>
    <circle cx="113.26" cy="48.495" r="1.25"/>
    <circle cx="49.765" cy="31.985" r="1.25"/>
    <circle cx="56.115" cy="29.445" r="1.25"/>
    <circle cx="87.865" cy="31.985" r="1.25"/>
    <circle cx="94.215" cy="29.445" r="1.25"/>
    <circle cx="106.92" cy="31.985" r="1.25"/>
    <circle cx="113.26" cy="29.445" r="1.25"/>
    <circle cx="87.865" cy="51.035" r="1.25"/>
    <circle cx="94.215" cy="48.495" r="1.25"/>
   </g>
   <g fill="#F76F8E" stroke="#F76F8E" stroke-linecap="round" stroke-linejoin="round" stroke-width="0">
    <circle cx="30.715" cy="51.035" r="1.25"/>
    <circle cx="37.065" cy="48.495" r="1.25"/>
    <circle cx="68.815" cy="31.985" r="1.25"/>
    <circle cx="75.165" cy="29.445" r="1.25"/>
    <circle cx="68.815" cy="51.035" r="1.25"/>
    <circle cx="75.165" cy="48.495" r="1.25"/>
    <circle cx="49.765" cy="51.035" r="1.25"/>
    <circle cx="56.115" cy="48.495" r="1.25"/>
    <circle cx="30.715" cy="31.985" r="1.25"/>
    <circle cx="37.065" cy="29.445" r="1.25"/>
    <circle cx="106.92" cy="51.035" r="1.25"/>
    <circle cx="113.26" cy="48.495" r="1.25"/>
    <circle cx="49.765" cy="31.985" r="1.25"/>
    <circle cx="56.115" cy="29.445" r="1.25"/>
    <circle cx="87.865" cy="31.985" r="1.25"/>
    <circle cx="94.215" cy="29.445" r="1.25"/>
    <circle cx="106.92" cy="31.985" r="1.25"/>
    <circle cx="113.26" cy="29.445" r="1.25"/>
    <circle cx="87.865" cy="51.035" r="1.25"/>
    <circle cx="94.215" cy="48.495" r="1.25"/>
   </g>
   <g fill="#A7A5C6" stroke="#A7A5C6" stroke-linecap="round" stroke-linejoin="round" stroke-width="0">
    <circle cx="30.715" cy="51.035" r="1.25"/>
    <circle cx="37.065" cy="48.495" r="1.25"/>
    <circle cx="68.815" cy="31.985" r="1.25"/>
    <circle cx="75.165" cy="29.445" r="1.25"/>
    <circle cx="68.815" cy="51.035" r="1.25"/>
    <circle cx="75.165" cy="48.495" r="1.25"/>
    <circle cx="49.765" cy="51.035" r="1.25"/>
    <circle cx="56.115" cy="48.495" r="1.25"/>
    <circle cx="30.715" cy="31.985" r="1.25"/>
    <circle cx="37.065" cy="29.445" r="1.25"/>
    <circle cx="106.92" cy="51.035" r="1.25"/>
    <circle cx="113.26" cy="48.495" r="1.25"/>
    <circle cx="49.765" cy="31.985" r="1.25"/>
    <circle cx="56.115" cy="29.445" r="1.25"/>
    <circle cx="87.865" cy="31.985" r="1.25"/>
    <circle cx="94.215" cy="29.445" r="1.25"/>
    <circle cx="106.92" cy="31.985" r="1.25"/>
    <circle cx="113.26" cy="29.445" r="1.25"/>
    <circle cx="87.865" cy="51.035" r="1.25"/>
    <circle cx="94.215" cy="48.495" r="1.25"/>
   </g>
   <g fill="#28CCD9" stroke="#28CCD9" stroke-linecap="round" stroke-linejoin="round" stroke-width="0">
    <circle cx="30.715" cy="51.035" r="1.25"/>
    <circle cx="37.065" cy="48.495" r="1.25"/>
    <circle cx="68.815" cy="31.985" r="1.25"/>
    <circle cx="75.165" cy="29.445" r="1.25"/>
    <circle cx="68.815" cy="51.035" r="1.25"/>
    <circle cx="75.165" cy="48.495" r="1.25"/>
    <circle cx="49.765" cy="51.035" r="1.25"/>
    <circle cx="56.115" cy="48.495" r="1.25"/>
    <circle cx="30.715" cy="31.985" r="1.25"/>
    <circle cx="37.065" cy="29.445" r="1.25"/>
    <circle cx="106.92" cy="51.035" r="1.25"/>
    <circle cx="113.26" cy="48.495" r="1.25"/>
    <circle cx="49.765" cy="31.985" r="1.25"/>
    <circle cx="56.115" cy="29.445" r="1.25"/>
    <circle cx="87.865" cy="31.985" r="1.25"/>
    <circle cx="94.215" cy="29.445" r="1.25"/>
    <circle cx="106.92" cy="31.985" r="1.25"/>
    <circle cx="113.26" cy="29.445" r="1.25"/>
    <circle cx="87.865" cy="51.035" r="1.25"/>
    <circle cx="94.215" cy="48.495" r="1.25"/>
   </g>
   <g fill="#E8B2A7" stroke="#E8B2A7" stroke-linecap="round" stroke-linejoin="round" stroke-width="0">
    <circle cx="30.715" cy="51.035" r="1.25"/>
    <circle cx="37.065" cy="48.495" r="1.25"/>
    <circle cx="68.815" cy="31.985" r="1.25"/>
    <circle cx="75.165" cy="29.445" r="1.25"/>
    <circle cx="68.815" cy="51.035" r="1.25"/>
    <circle cx="75.165" cy="48.495" r="1.25"/>
    <circle cx="49.765" cy="51.035" r="1.25"/>
    <circle cx="56.115" cy="48.495" r="1.25"/>
    <circle cx="30.715" cy="31.985" r="1.25"/>
    <circle cx="37.065" cy="29.445" r="1.25"/>
    <circle cx="106.92" cy="51.035" r="1.25"/>
    <circle cx="113.26" cy="48.495" r="1.25"/>
    <circle cx="49.765" cy="31.985" r="1.25"/>
    <circle cx="56.115" cy="29.445" r="1.25"/>
    <circle cx="87.865" cy="31.985" r="1.25"/>
    <circle cx="94.215" cy="29.445" r="1.25"/>
    <circle cx="106.92" cy="31.985" r="1.25"/>
    <circle cx="113.26" cy="29.445" r="1.25"/>
    <circle cx="87.865" cy="51.035" r="1.25"/>
    <circle cx="94.215" cy="48.495" r="1.25"/>
   </g>
   <g fill="#F2EDA1" stroke="#F2EDA1" stroke-linecap="round" stroke-linejoin="round" stroke-width="0">
    <circle cx="30.715" cy="51.035" r="1.25"/>
    <circle cx="37.065" cy="48.495" r="1.25"/>
    <circle cx="68.815" cy="31.985" r="1.25"/>
    <circle cx="75.165" cy="29.445" r="1.25"/>
    <circle cx="68.815" cy="51.035" r="1.25"/>
    <circle cx="75.165" cy="48.495" r="1.25"/>
    <circle cx="49.765" cy="51.035" r="1.25"/>
    <circle cx="56.115" cy="48.495" r="1.25"/>
    <circle cx="30.715" cy="31.985" r="1.25"/>
    <circle cx="37.065" cy="29.445" r="1.25"/>
    <circle cx="106.92" cy="51.035" r="1.25"/>
    <circle cx="113.26" cy="48.495" r="1.25"/>
    <circle cx="49.765" cy="31.985" r="1.25"/>
    <circle cx="56.115" cy="29.445" r="1.25"/>
    <circle cx="87.865" cy="31.985" r="1.25"/>
    <circle cx="94.215" cy="29.445" r="1.25"/>
    <circle cx="106.92" cy="31.985" r="1.25"/>
    <circle cx="113.26" cy="29.445" r="1.25"/>
    <circle cx="87.865" cy="51.035" r="1.25"/>
    <circle cx="94.215" cy="48.495" r="1.25"/>
   </g>
   <g fill="#ED7C33" stroke="#ED7C33" stroke-linecap="round" stroke-linejoin="round" stroke-width="0">
    <circle cx="30.715" cy="51.035" r="1.25"/>
    <circle cx="37.065" cy="48.495" r="1.25"/>
    <circle cx="68.815" cy="31.985" r="1.25"/>
    <circle cx="75.165" cy="29.445" r="1.25"/>
    <circle cx="68.815" cy="51.035" r="1.25"/>
    <circle cx="75.165" cy="48.495" r="1.25"/>
    <circle cx="49.765" cy="51.035" r="1.25"/>
    <circle cx="56.115" cy="48.495" r="1.25"/>
    <circle cx="30.715" cy="31.985" r="1.25"/>
    <circle cx="37.065" cy="29.445" r="1.25"/>
    <circle cx="106.92" cy="51.035" r="1.25"/>
    <circle cx="113.26" cy="48.495" r="1.25"/>
    <circle cx="49.765" cy="31.985" r="1.25"/>
    <circle cx="56.115" cy="29.445" r="1.25"/>
    <circle cx="87.865" cy="31.985" r="1.25"/>
    <circle cx="94.215" cy="29.445" r="1.25"/>
    <circle cx="106.92" cy="31.985" r="1.25"/>
    <circle cx="113.26" cy="29.445" r="1.25"/>
    <circle cx="87.865" cy="51.035" r="1.25"/>
    <circle cx="94.215" cy="48.495" r="1.25"/>
   </g>
   <g fill="#5BC3EB" stroke="#5BC3EB" stroke-linecap="round" stroke-linejoin="round" stroke-width="0">
    <circle cx="30.715" cy="51.035" r="1.25"/>
    <circle cx="37.065" cy="48.495" r="1.25"/>
    <circle cx="68.815" cy="31.985" r="1.25"/>
    <circle cx="75.165" cy="29.445" r="1.25"/>
    <circle cx="68.815" cy="51.035" r="1.25"/>
    <circle cx="75.165" cy="48.495" r="1.25"/>
    <circle cx="49.765" cy="51.035" r="1.25"/>
    <circle cx="56.115" cy="48.495" r="1.25"/>
    <circle cx="30.715" cy="31.985" r="1.25"/>
    <circle cx="37.065" cy="29.445" r="1.25"/>
    <circle cx="106.92" cy="51.035" r="1.25"/>
    <circle cx="113.26" cy="48.495" r="1.25"/>
    <circle cx="49.765" cy="31.985" r="1.25"/>
    <circle cx="56.115" cy="29.445" r="1.25"/>
    <circle cx="87.865" cy="31.985" r="1.25"/>
    <circle cx="94.215" cy="29.445" r="1.25"/>
    <circle cx="106.92" cy="31.985" r="1.25"/>
    <circle cx="113.26" cy="29.445" r="1.25"/>
    <circle cx="87.865" cy="51.035" r="1.25"/>
    <circle cx="94.215" cy="48.495" r="1.25"/>
   </g>
   <g fill="#F76F8E" stroke="#F76F8E" stroke-linecap="round" stroke-linejoin="round" stroke-width="0">
    <circle cx="30.715" cy="51.035" r="1.25"/>
    <circle cx="37.065" cy="48.495" r="1.25"/>
    <circle cx="68.815" cy="31.985" r="1.25"/>
    <circle cx="75.165" cy="29.445" r="1.25"/>
    <circle cx="68.815" cy="51.035" r="1.25"/>
    <circle cx="75.165" cy="48.495" r="1.25"/>
    <circle cx="49.765" cy="51.035" r="1.25"/>
    <circle cx="56.115" cy="48.495" r="1.25"/>
    <circle cx="30.715" cy="31.985" r="1.25"/>
    <circle cx="37.065" cy="29.445" r="1.25"/>
    <circle cx="106.92" cy="51.035" r="1.25"/>
    <circle cx="113.26" cy="48.495" r="1.25"/>
    <circle cx="49.765" cy="31.985" r="1.25"/>
    <circle cx="56.115" cy="29.445" r="1.25"/>
    <circle cx="87.865" cy="31.985" r="1.25"/>
    <circle cx="94.215" cy="29.445" r="1.25"/>
    <circle cx="106.92" cy="31.985" r="1.25"/>
    <circle cx="113.26" cy="29.445" r="1.25"/>
    <circle cx="87.865" cy="51.035" r="1.25"/>
    <circle cx="94.215" cy="48.495" r="1.25"/>
   </g>
   <g fill="#A7A5C6" stroke="#A7A5C6" stroke-linecap="round" stroke-linejoin="round" stroke-width="0">
    <circle cx="30.715" cy="51.035" r="1.25"/>
    <circle cx="37.065" cy="48.495" r="1.25"/>
    <circle cx="68.815" cy="31.985" r="1.25"/>
    <circle cx="75.165" cy="29.445" r="1.25"/>
    <circle cx="68.815" cy="51.035" r="1.25"/>
    <circle cx="75.165" cy="48.495" r="1.25"/>
    <circle cx="49.765" cy="51.035" r="1.25"/>
    <circle cx="56.115" cy="48.495" r="1.25"/>
    <circle cx="30.715" cy="31.985" r="1.25"/>
    <circle cx="37.065" cy="29.445" r="1.25"/>
    <circle cx="106.92" cy="51.035" r="1.25"/>
    <circle cx="113.26" cy="48.495" r="1.25"/>
    <circle cx="49.765" cy="31.985" r="1.25"/>
    <circle cx="56.115" cy="29.445" r="1.25"/>
    <circle cx="87.865" cy="31.985" r="1.25"/>
    <circle cx="94.215" cy="29.445" r="1.25"/>
    <circle cx="106.92" cy="31.985" r="1.25"/>
    <circle cx="113.26" cy="29.445" r="1.25"/>
    <circle cx="87.865" cy="51.035" r="1.25"/>
    <circle cx="94.215" cy="48.495" r="1.25"/>
   </g>
   <g fill="#28CCD9" stroke="#28CCD9" stroke-linecap="round" stroke-linejoin="round" stroke-width="0">
    <circle cx="30.715" cy="51.035" r="1.25"/>
    <circle cx="37.065" cy="48.495" r="1.25"/>
    <circle cx="68.815" cy="31.985" r="1.25"/>
    <circle cx="75.165" cy="29.445" r="1.25"/>
    <circle cx="68.815" cy="51.035" r="1.25"/>
    <circle cx="75.165" cy="48.495" r="1.25"/>
    <circle cx="49.765" cy="51.035" r="1.25"/>
    <circle cx="56.115" cy="48.495" r="1.25"/>
    <circle cx="30.715" cy="31.985" r="1.25"/>
    <circle cx="37.065" cy="29.445" r="1.25"/>
    <circle cx="106.92" cy="51.035" r="1.25"/>
    <circle cx="113.26" cy="48.495" r="1.25"/>
    <circle cx="49.765" cy="31.985" r="1.25"/>
    <circle cx="56.115" cy="29.445" r="1.25"/>
    <circle cx="87.865" cy="31.985" r="1.25"/>
    <circle cx="94.215" cy="29.445" r="1.25"/>
    <circle cx="106.92" cy="31.985" r="1.25"/>
    <circle cx="113.26" cy="29.445" r="1.25"/>
    <circle cx="87.865" cy="51.035" r="1.25"/>
    <circle cx="94.215" cy="48.495" r="1.25"/>
   </g>
   <g fill="#E8B2A7" stroke="#E8B2A7" stroke-linecap="round" stroke-linejoin="round" stroke-width="0">
    <circle cx="30.715" cy="51.035" r="1.25"/>
    <circle cx="37.065" cy="48.495" r="1.25"/>
    <circle cx="68.815" cy="31.985" r="1.25"/>
    <circle cx="75.165" cy="29.445" r="1.25"/>
    <circle cx="68.815" cy="51.035" r="1.25"/>
    <circle cx="75.165" cy="48.495" r="1.25"/>
    <circle cx="49.765" cy="51.035" r="1.25"/>
    <circle cx="56.115" cy="48.495" r="1.25"/>
    <circle cx="30.715" cy="31.985" r="1.25"/>
    <circle cx="37.065" cy="29.445" r="1.25"/>
    <circle cx="106.92" cy="51.035" r="1.25"/>
    <circle cx="113.26" cy="48.495" r="1.25"/>
    <circle cx="49.765" cy="31.985" r="1.25"/>
    <circle cx="56.115" cy="29.445" r="1.25"/>
    <circle cx="87.865" cy="31.985" r="1.25"/>
    <circle cx="94.215" cy="29.445" r="1.25"/>
    <circle cx="106.92" cy="31.985" r="1.25"/>
    <circle cx="113.26" cy="29.445" r="1.25"/>
    <circle cx="87.865" cy="51.035" r="1.25"/>
    <circle cx="94.215" cy="48.495" r="1.25"/>
   </g>
   <g fill="#F2EDA1" stroke="#F2EDA1" stroke-linecap="round" stroke-linejoin="round" stroke-width="0">
    <circle cx="30.715" cy="51.035" r="1.25"/>
    <circle cx="37.065" cy="48.495" r="1.25"/>
    <circle cx="68.815" cy="31.985" r="1.25"/>
    <circle cx="75.165" cy="29.445" r="1.25"/>
    <circle cx="68.815" cy="51.035" r="1.25"/>
    <circle cx="75.165" cy="48.495" r="1.25"/>
    <circle cx="49.765" cy="51.035" r="1.25"/>
    <circle cx="56.115" cy="48.495" r="1.25"/>
    <circle cx="30.715" cy="31.985" r="1.25"/>
    <circle cx="37.065" cy="29.445" r="1.25"/>
    <circle cx="106.92" cy="51.035" r="1.25"/>
    <circle cx="113.26" cy="48.495" r="1.25"/>
    <circle cx="49.765" cy="31.985" r="1.25"/>
    <circle cx="56.115" cy="29.445" r="1.25"/>
    <circle cx="87.865" cy="31.985" r="1.25"/>
    <circle cx="94.215" cy="29.445" r="1.25"/>
    <circle cx="106.92" cy="31.985" r="1.25"/>
    <circle cx="113.26" cy="29.445" r="1.25"/>
    <circle cx="87.865" cy="51.035" r="1.25"/>
    <circle cx="94.215" cy="48.495" r="1.25"/>
   </g>
   <g fill="#4D7FC4">
    <g stroke-width="0">
     <g stroke="#4D7FC4" stroke-linecap="round" stroke-linejoin="round">
      <circle cx="30.715" cy="51.035" r="1.25"/>
      <circle cx="37.065" cy="48.495" r="1.25"/>
      <circle cx="68.815" cy="31.985" r="1.25"/>
      <circle cx="75.165" cy="29.445" r="1.25"/>
      <circle cx="68.815" cy="51.035" r="1.25"/>
      <circle cx="75.165" cy="48.495" r="1.25"/>
      <circle cx="49.765" cy="51.035" r="1.25"/>
      <circle cx="56.115" cy="48.495" r="1.25"/>
      <circle cx="30.715" cy="31.985" r="1.25"/>
      <circle cx="37.065" cy="29.445" r="1.25"/>
      <circle cx="106.92" cy="51.035" r="1.25"/>
      <circle cx="113.26" cy="48.495" r="1.25"/>
      <circle cx="49.765" cy="31.985" r="1.25"/>
      <circle cx="56.115" cy="29.445" r="1.25"/>
      <circle cx="87.865" cy="31.985" r="1.25"/>
      <circle cx="94.215" cy="29.445" r="1.25"/>
      <circle cx="106.92" cy="31.985" r="1.25"/>
      <circle cx="113.26" cy="29.445" r="1.25"/>
      <circle cx="87.865" cy="51.035" r="1.25"/>
      <circle cx="94.215" cy="48.495" r="1.25"/>
     </g>
     <g fill-rule="evenodd">
      <path d="m116.06 57.955h-0.5v-0.5h0.5z"/>
      <path d="m116.06 55.755h-0.5v-0.5h0.5z"/>
      <path d="m97.005 38.905h-0.5v-0.5h0.5z"/>
      <path d="m97.005 36.705h-0.5v-0.5h0.5z"/>
      <path d="m58.905 38.905h-0.5v-0.5h0.5z"/>
      <path d="m58.905 36.705h-0.5v-0.5h0.5z"/>
      <path d="m77.955 38.905h-0.5v-0.5h0.5z"/>
      <path d="m77.955 36.705h-0.5v-0.5h0.5z"/>
      <path d="m77.955 57.955h-0.5v-0.5h0.5z"/>
      <path d="m77.955 55.755h-0.5v-0.5h0.5z"/>
      <path d="m116.06 38.905h-0.5v-0.5h0.5z"/>
      <path d="m116.06 36.705h-0.5v-0.5h0.5z"/>
      <path d="m97.005 57.955h-0.5v-0.5h0.5z"/>
      <path d="m97.005 55.755h-0.5v-0.5h0.5z"/>
      <path d="m58.905 57.955h-0.5v-0.5h0.5z"/>
      <path d="m58.905 55.755h-0.5v-0.5h0.5z"/>
      <path d="m39.855 38.905h-0.5v-0.5h0.5z"/>
      <path d="m39.855 36.705h-0.5v-0.5h0.5z"/>
      <path d="m39.855 57.955h-0.5v-0.5h0.5z"/>
      <path d="m39.855 55.755h-0.5v-0.5h0.5z"/>
     </g>
    </g>
    <g fill-opacity="0" stroke="#4D7FC4" stroke-linecap="round" stroke-linejoin="round" stroke-width=".25">
     <path d="m96.755 38.655h19.05"/>
     <path d="m39.605 38.655h19.05"/>
     <path d="m77.705 38.655h19.05"/>
     <path d="m58.655 38.655h19.05"/>
     <path d="m37.065 29.445v4.47"/>
     <path d="m37.065 33.915 2.54 2.54"/>
     <path d="m56.115 29.445v4.47"/>
     <path d="m56.115 33.915 2.54 2.54"/>
     <path d="m75.165 29.445v4.47"/>
     <path d="m75.165 33.915 2.54 2.54"/>
     <path d="m94.215 29.445v4.47"/>
     <path d="m94.215 33.915 2.54 2.54"/>
     <path d="m113.26 33.915 2.54 2.54"/>
     <path d="m113.26 29.445v4.47"/>
     <path d="m96.755 57.705h19.05"/>
     <path d="m58.655 57.705h19.05"/>
     <path d="m77.705 57.705h19.05"/>
     <path d="m39.605 57.705h19.05"/>
     <path d="m37.065 52.965 2.54 2.54"/>
     <path d="m37.065 48.495v4.47"/>
     <path d="m56.115 52.965 2.54 2.54"/>
     <path d="m56.115 48.495v4.47"/>
     <path d="m75.165 52.965 2.54 2.54"/>
     <path d="m75.165 48.495v4.47"/>
     <path d="m94.215 52.965 2.54 2.54"/>
     <path d="m94.215 48.495v4.47"/>
     <path d="m113.26 52.965 2.54 2.54"/>
     <path d="m113.26 48.495v4.47"/>
    </g>
   </g>
  </g>
  <g fill-opacity="0">
   <g stroke="#000" stroke-width=".25">
    <g fill="#00C2C2" fill-opacity=".9" fill-rule="evenodd" stroke-width="0">
     <path d="m116.06 57.955h-0.5v-0.5h0.5z"/>
     <path d="m116.06 55.755h-0.5v-0.5h0.5z"/>
     <path d="m97.005 38.905h-0.5v-0.5h0.5z"/>
     <path d="m97.005 36.705h-0.5v-0.5h0.5z"/>
     <path d="m58.905 38.905h-0.5v-0.5h0.5z"/>
     <path d="m58.905 36.705h-0.5v-0.5h0.5z"/>
     <path d="m77.955 38.905h-0.5v-0.5h0.5z"/>
     <path d="m77.955 36.705h-0.5v-0.5h0.5z"/>
     <path d="m77.955 57.955h-0.5v-0.5h0.5z"/>
     <path d="m77.955 55.755h-0.5v-0.5h0.5z"/>
     <path d="m116.06 38.905h-0.5v-0.5h0.5z"/>
     <path d="m116.06 36.705h-0.5v-0.5h0.5z"/>
     <path d="m97.005 57.955h-0.5v-0.5h0.5z"/>
     <path d="m97.005 55.755h-0.5v-0.5h0.5z"/>
     <path d="m58.905 57.955h-0.5v-0.5h0.5z"/>
     <path d="m58.905 55.755h-0.5v-0.5h0.5z"/>
     <path d="m39.855 38.905h-0.5v-0.5h0.5z"/>
     <path d="m39.855 36.705h-0.5v-0.5h0.5z"/>
     <path d="m39.855 57.955h-0.5v-0.5h0.5z"/>
     <path d="m39.855 55.755h-0.5v-0.5h0.5z"/>
    </g>
   </g>
   <g fill="#E8B2A7" stroke="#E8B2A7" stroke-width=".15">
    <g transform="rotate(-90 117.66 56.605)">
     <text transform="scale(-1 1) translate(-235.31)" x="117.655" y="57.105" font-size="1.333" opacity="0" text-anchor="middle" lengthAdjust="spacingAndGlyphs" textLength="3.155">D10</text>
    </g>
    <g class="stroked-text">
     <desc>D10</desc>
     <path d="m118.11 55.391h-1"/>
     <path d="m117.11 55.391v0.238"/>
     <path d="m117.11 55.629 0.047 0.143"/>
     <path d="m117.16 55.772 0.096 0.095"/>
     <path d="m117.25 55.867 0.095 0.048"/>
     <path d="m117.35 55.915 0.19 0.047"/>
     <path d="m117.54 55.962h0.143"/>
     <path d="m117.68 55.962 0.191-0.047"/>
     <path d="m117.87 55.915 0.095-0.048"/>
     <path d="m117.97 55.867 0.095-0.095"/>
     <path d="m118.06 55.772 0.048-0.143"/>
     <path d="m118.11 55.629v-0.238"/>
     <path d="m118.11 56.915v-0.572"/>
     <path d="m118.11 56.629h-1"/>
     <path d="m117.11 56.629 0.143-0.095"/>
     <path d="m117.25 56.534 0.095-0.096"/>
     <path d="m117.35 56.438 0.048-0.095"/>
     <path d="m117.11 57.534v0.095"/>
     <path d="m117.11 57.629 0.047 0.095"/>
     <path d="m117.16 57.724 0.048 0.048"/>
     <path d="m117.2 57.772 0.095 0.047"/>
     <path d="m117.3 57.819 0.191 0.048"/>
     <path d="m117.49 57.867h0.238"/>
     <path d="m117.73 57.867 0.19-0.048"/>
     <path d="m117.92 57.819 0.096-0.047"/>
     <path d="m118.02 57.772 0.047-0.048"/>
     <path d="m118.06 57.724 0.048-0.095"/>
     <path d="m118.11 57.629v-0.095"/>
     <path d="m118.11 57.534-0.048-0.096"/>
     <path d="m118.06 57.438-0.047-0.047"/>
     <path d="m118.02 57.391-0.096-0.048"/>
     <path d="m117.92 57.343-0.19-0.048"/>
     <path d="m117.73 57.295h-0.238"/>
     <path d="m117.49 57.295-0.191 0.048"/>
     <path d="m117.3 57.343-0.095 0.048"/>
     <path d="m117.2 57.391-0.048 0.047"/>
     <path d="m117.16 57.438-0.047 0.096"/>
    </g>
    <g transform="rotate(-90 98.605 37.555)">
     <text transform="scale(-1 1) translate(-197.21)" x="98.605" y="38.055" font-size="1.333" opacity="0" text-anchor="middle" lengthAdjust="spacingAndGlyphs" textLength="2.202">D4</text>
    </g>
    <g class="stroked-text">
     <desc>D4</desc>
     <path d="m99.06 36.817h-1"/>
     <path d="m98.06 36.817v0.238"/>
     <path d="m98.06 37.055 0.047 0.143"/>
     <path d="m98.107 37.198 0.096 0.095"/>
     <path d="m98.203 37.293 0.095 0.048"/>
     <path d="m98.298 37.341 0.19 0.047"/>
     <path d="m98.488 37.388h0.143"/>
     <path d="m98.631 37.388 0.191-0.047"/>
     <path d="m98.822 37.341 0.095-0.048"/>
     <path d="m98.917 37.293 0.095-0.095"/>
     <path d="m99.012 37.198 0.048-0.143"/>
     <path d="m99.06 37.055v-0.238"/>
     <path d="m98.393 38.245h0.667"/>
     <path d="m98.012 38.007 0.714-0.238"/>
     <path d="m98.726 37.769v0.619"/>
    </g>
    <g transform="rotate(-90 60.505 37.555)">
     <text transform="scale(-1 1) translate(-121.01)" x="60.505" y="38.055" font-size="1.333" opacity="0" text-anchor="middle" lengthAdjust="spacingAndGlyphs" textLength="2.202">D2</text>
    </g>
    <g class="stroked-text">
     <desc>D2</desc>
     <path d="m60.96 36.817h-1"/>
     <path d="m59.96 36.817v0.238"/>
     <path d="m59.96 37.055 0.047 0.143"/>
     <path d="m60.007 37.198 0.096 0.095"/>
     <path d="m60.103 37.293 0.095 0.048"/>
     <path d="m60.198 37.341 0.19 0.047"/>
     <path d="m60.388 37.388h0.143"/>
     <path d="m60.531 37.388 0.191-0.047"/>
     <path d="m60.722 37.341 0.095-0.048"/>
     <path d="m60.817 37.293 0.095-0.095"/>
     <path d="m60.912 37.198 0.048-0.143"/>
     <path d="m60.96 37.055v-0.238"/>
     <path d="m60.055 37.769-0.048 0.048"/>
     <path d="m60.007 37.817-0.047 0.095"/>
     <path d="m59.96 37.912v0.238"/>
     <path d="m59.96 38.15 0.047 0.095"/>
     <path d="m60.007 38.245 0.048 0.048"/>
     <path d="m60.055 38.293 0.095 0.048"/>
     <path d="m60.15 38.341h0.096"/>
     <path d="m60.246 38.341 0.142-0.048"/>
     <path d="m60.388 38.293 0.572-0.571"/>
     <path d="m60.96 37.722v0.619"/>
    </g>
    <g transform="rotate(-90 79.555 37.555)">
     <text transform="scale(-1 1) translate(-159.11)" x="79.555" y="38.055" font-size="1.333" opacity="0" text-anchor="middle" lengthAdjust="spacingAndGlyphs" textLength="2.202">D3</text>
    </g>
    <g class="stroked-text">
     <desc>D3</desc>
     <path d="m80.01 36.817h-1"/>
     <path d="m79.01 36.817v0.238"/>
     <path d="m79.01 37.055 0.047 0.143"/>
     <path d="m79.057 37.198 0.096 0.095"/>
     <path d="m79.153 37.293 0.095 0.048"/>
     <path d="m79.248 37.341 0.19 0.047"/>
     <path d="m79.438 37.388h0.143"/>
     <path d="m79.581 37.388 0.191-0.047"/>
     <path d="m79.772 37.341 0.095-0.048"/>
     <path d="m79.867 37.293 0.095-0.095"/>
     <path d="m79.962 37.198 0.048-0.143"/>
     <path d="m80.01 37.055v-0.238"/>
     <path d="m79.01 37.722v0.619"/>
     <path d="m79.01 38.341 0.381-0.334"/>
     <path d="m79.391 38.007v0.143"/>
     <path d="m79.391 38.15 0.047 0.095"/>
     <path d="m79.438 38.245 0.048 0.048"/>
     <path d="m79.486 38.293 0.095 0.048"/>
     <path d="m79.581 38.341h0.238"/>
     <path d="m79.819 38.341 0.096-0.048"/>
     <path d="m79.915 38.293 0.047-0.048"/>
     <path d="m79.962 38.245 0.048-0.095"/>
     <path d="m80.01 38.15v-0.285"/>
     <path d="m80.01 37.865-0.048-0.096"/>
     <path d="m79.962 37.769-0.047-0.047"/>
    </g>
    <g transform="rotate(-90 79.555 56.605)">
     <text transform="scale(-1 1) translate(-159.11)" x="79.555" y="57.105" font-size="1.333" opacity="0" text-anchor="middle" lengthAdjust="spacingAndGlyphs" textLength="2.202">D8</text>
    </g>
    <g class="stroked-text">
     <desc>D8</desc>
     <path d="m80.01 55.867h-1"/>
     <path d="m79.01 55.867v0.238"/>
     <path d="m79.01 56.105 0.047 0.143"/>
     <path d="m79.057 56.248 0.096 0.095"/>
     <path d="m79.153 56.343 0.095 0.048"/>
     <path d="m79.248 56.391 0.19 0.047"/>
     <path d="m79.438 56.438h0.143"/>
     <path d="m79.581 56.438 0.191-0.047"/>
     <path d="m79.772 56.391 0.095-0.048"/>
     <path d="m79.867 56.343 0.095-0.095"/>
     <path d="m79.962 56.248 0.048-0.143"/>
     <path d="m80.01 56.105v-0.238"/>
     <path d="m79.438 57.01-0.047-0.095"/>
     <path d="m79.391 56.915-0.048-0.048"/>
     <path d="m79.343 56.867-0.095-0.048"/>
     <path d="m79.248 56.819h-0.048"/>
     <path d="m79.2 56.819-0.095 0.048"/>
     <path d="m79.105 56.867-0.048 0.048"/>
     <path d="m79.057 56.915-0.047 0.095"/>
     <path d="m79.01 57.01v0.19"/>
     <path d="m79.01 57.2 0.047 0.095"/>
     <path d="m79.057 57.295 0.048 0.048"/>
     <path d="m79.105 57.343 0.095 0.048"/>
     <path d="m79.2 57.391h0.048"/>
     <path d="m79.248 57.391 0.095-0.048"/>
     <path d="m79.343 57.343 0.048-0.048"/>
     <path d="m79.391 57.295 0.047-0.095"/>
     <path d="m79.438 57.2v-0.19"/>
     <path d="m79.438 57.01 0.048-0.095"/>
     <path d="m79.486 56.915 0.048-0.048"/>
     <path d="m79.534 56.867 0.095-0.048"/>
     <path d="m79.629 56.819h0.19"/>
     <path d="m79.819 56.819 0.096 0.048"/>
     <path d="m79.915 56.867 0.047 0.048"/>
     <path d="m79.962 56.915 0.048 0.095"/>
     <path d="m80.01 57.01v0.19"/>
     <path d="m80.01 57.2-0.048 0.095"/>
     <path d="m79.962 57.295-0.047 0.048"/>
     <path d="m79.915 57.343-0.096 0.048"/>
     <path d="m79.819 57.391h-0.19"/>
     <path d="m79.629 57.391-0.095-0.048"/>
     <path d="m79.534 57.343-0.048-0.048"/>
     <path d="m79.486 57.295-0.048-0.095"/>
    </g>
    <g transform="rotate(-90 117.66 37.555)">
     <text transform="scale(-1 1) translate(-235.31)" x="117.655" y="38.055" font-size="1.333" opacity="0" text-anchor="middle" lengthAdjust="spacingAndGlyphs" textLength="2.202">D5</text>
    </g>
    <g class="stroked-text">
     <desc>D5</desc>
     <path d="m118.11 36.817h-1"/>
     <path d="m117.11 36.817v0.238"/>
     <path d="m117.11 37.055 0.047 0.143"/>
     <path d="m117.16 37.198 0.096 0.095"/>
     <path d="m117.25 37.293 0.095 0.048"/>
     <path d="m117.35 37.341 0.19 0.047"/>
     <path d="m117.54 37.388h0.143"/>
     <path d="m117.68 37.388 0.191-0.047"/>
     <path d="m117.87 37.341 0.095-0.048"/>
     <path d="m117.97 37.293 0.095-0.095"/>
     <path d="m118.06 37.198 0.048-0.143"/>
     <path d="m118.11 37.055v-0.238"/>
     <path d="m117.11 38.293v-0.476"/>
     <path d="m117.11 37.817 0.476-0.048"/>
     <path d="m117.59 37.769-0.048 0.048"/>
     <path d="m117.54 37.817-0.047 0.095"/>
     <path d="m117.49 37.912v0.238"/>
     <path d="m117.49 38.15 0.047 0.095"/>
     <path d="m117.54 38.245 0.048 0.048"/>
     <path d="m117.59 38.293 0.095 0.048"/>
     <path d="m117.68 38.341h0.238"/>
     <path d="m117.92 38.341 0.096-0.048"/>
     <path d="m118.02 38.293 0.047-0.048"/>
     <path d="m118.06 38.245 0.048-0.095"/>
     <path d="m118.11 38.15v-0.238"/>
     <path d="m118.11 37.912-0.048-0.095"/>
     <path d="m118.06 37.817-0.047-0.048"/>
    </g>
    <g transform="rotate(-90 98.605 56.605)">
     <text transform="scale(-1 1) translate(-197.21)" x="98.605" y="57.105" font-size="1.333" opacity="0" text-anchor="middle" lengthAdjust="spacingAndGlyphs" textLength="2.202">D9</text>
    </g>
    <g class="stroked-text">
     <desc>D9</desc>
     <path d="m99.06 55.867h-1"/>
     <path d="m98.06 55.867v0.238"/>
     <path d="m98.06 56.105 0.047 0.143"/>
     <path d="m98.107 56.248 0.096 0.095"/>
     <path d="m98.203 56.343 0.095 0.048"/>
     <path d="m98.298 56.391 0.19 0.047"/>
     <path d="m98.488 56.438h0.143"/>
     <path d="m98.631 56.438 0.191-0.047"/>
     <path d="m98.822 56.391 0.095-0.048"/>
     <path d="m98.917 56.343 0.095-0.095"/>
     <path d="m99.012 56.248 0.048-0.143"/>
     <path d="m99.06 56.105v-0.238"/>
     <path d="m99.06 56.915v0.19"/>
     <path d="m99.06 57.105-0.048 0.095"/>
     <path d="m99.012 57.2-0.047 0.048"/>
     <path d="m98.965 57.248-0.143 0.095"/>
     <path d="m98.822 57.343-0.191 0.048"/>
     <path d="m98.631 57.391h-0.381"/>
     <path d="m98.25 57.391-0.095-0.048"/>
     <path d="m98.155 57.343-0.048-0.048"/>
     <path d="m98.107 57.295-0.047-0.095"/>
     <path d="m98.06 57.2v-0.19"/>
     <path d="m98.06 57.01 0.047-0.095"/>
     <path d="m98.107 56.915 0.048-0.048"/>
     <path d="m98.155 56.867 0.095-0.048"/>
     <path d="m98.25 56.819h0.238"/>
     <path d="m98.488 56.819 0.096 0.048"/>
     <path d="m98.584 56.867 0.047 0.048"/>
     <path d="m98.631 56.915 0.048 0.095"/>
     <path d="m98.679 57.01v0.19"/>
     <path d="m98.679 57.2-0.048 0.095"/>
     <path d="m98.631 57.295-0.047 0.048"/>
     <path d="m98.584 57.343-0.096 0.048"/>
    </g>
    <g transform="rotate(-90 60.505 56.605)">
     <text transform="scale(-1 1) translate(-121.01)" x="60.505" y="57.105" font-size="1.333" opacity="0" text-anchor="middle" lengthAdjust="spacingAndGlyphs" textLength="2.202">D7</text>
    </g>
    <g class="stroked-text">
     <desc>D7</desc>
     <path d="m60.96 55.867h-1"/>
     <path d="m59.96 55.867v0.238"/>
     <path d="m59.96 56.105 0.047 0.143"/>
     <path d="m60.007 56.248 0.096 0.095"/>
     <path d="m60.103 56.343 0.095 0.048"/>
     <path d="m60.198 56.391 0.19 0.047"/>
     <path d="m60.388 56.438h0.143"/>
     <path d="m60.531 56.438 0.191-0.047"/>
     <path d="m60.722 56.391 0.095-0.048"/>
     <path d="m60.817 56.343 0.095-0.095"/>
     <path d="m60.912 56.248 0.048-0.143"/>
     <path d="m60.96 56.105v-0.238"/>
     <path d="m59.96 56.772v0.666"/>
     <path d="m59.96 57.438 1-0.428"/>
    </g>
    <g transform="rotate(-90 41.455 37.555)">
     <text transform="scale(-1 1) translate(-82.91)" x="41.455" y="38.055" font-size="1.333" opacity="0" text-anchor="middle" lengthAdjust="spacingAndGlyphs" textLength="2.202">D1</text>
    </g>
    <g class="stroked-text">
     <desc>D1</desc>
     <path d="m41.91 36.817h-1"/>
     <path d="m40.91 36.817v0.238"/>
     <path d="m40.91 37.055 0.047 0.143"/>
     <path d="m40.957 37.198 0.096 0.095"/>
     <path d="m41.053 37.293 0.095 0.048"/>
     <path d="m41.148 37.341 0.19 0.047"/>
     <path d="m41.338 37.388h0.143"/>
     <path d="m41.481 37.388 0.191-0.047"/>
     <path d="m41.672 37.341 0.095-0.048"/>
     <path d="m41.767 37.293 0.095-0.095"/>
     <path d="m41.862 37.198 0.048-0.143"/>
     <path d="m41.91 37.055v-0.238"/>
     <path d="m41.91 38.341v-0.572"/>
     <path d="m41.91 38.055h-1"/>
     <path d="m40.91 38.055 0.143-0.095"/>
     <path d="m41.053 37.96 0.095-0.095"/>
     <path d="m41.148 37.865 0.048-0.096"/>
    </g>
    <g transform="rotate(-90 41.455 56.605)">
     <text transform="scale(-1 1) translate(-82.91)" x="41.455" y="57.105" font-size="1.333" opacity="0" text-anchor="middle" lengthAdjust="spacingAndGlyphs" textLength="2.202">D6</text>
    </g>
    <g class="stroked-text">
     <desc>D6</desc>
     <path d="m41.91 55.867h-1"/>
     <path d="m40.91 55.867v0.238"/>
     <path d="m40.91 56.105 0.047 0.143"/>
     <path d="m40.957 56.248 0.096 0.095"/>
     <path d="m41.053 56.343 0.095 0.048"/>
     <path d="m41.148 56.391 0.19 0.047"/>
     <path d="m41.338 56.438h0.143"/>
     <path d="m41.481 56.438 0.191-0.047"/>
     <path d="m41.672 56.391 0.095-0.048"/>
     <path d="m41.767 56.343 0.095-0.095"/>
     <path d="m41.862 56.248 0.048-0.143"/>
     <path d="m41.91 56.105v-0.238"/>
     <path d="m40.91 57.295v-0.19"/>
     <path d="m40.91 57.105 0.047-0.095"/>
     <path d="m40.957 57.01 0.048-0.048"/>
     <path d="m41.005 56.962 0.143-0.095"/>
     <path d="m41.148 56.867 0.19-0.048"/>
     <path d="m41.338 56.819h0.381"/>
     <path d="m41.719 56.819 0.096 0.048"/>
     <path d="m41.815 56.867 0.047 0.048"/>
     <path d="m41.862 56.915 0.048 0.095"/>
     <path d="m41.91 57.01v0.19"/>
     <path d="m41.91 57.2-0.048 0.095"/>
     <path d="m41.862 57.295-0.047 0.048"/>
     <path d="m41.815 57.343-0.096 0.048"/>
     <path d="m41.719 57.391h-0.238"/>
     <path d="m41.481 57.391-0.095-0.048"/>
     <path d="m41.386 57.343-0.048-0.048"/>
     <path d="m41.338 57.295-0.047-0.095"/>
     <path d="m41.291 57.2v-0.19"/>
     <path d="m41.291 57.01 0.047-0.095"/>
     <path d="m41.338 56.915 0.048-0.048"/>
     <path d="m41.386 56.867 0.095-0.048"/>
    </g>
   </g>
   <g fill="#E8B2A7" stroke="#E8B2A7" stroke-width=".12">
    <path d="m114.96 58.105v-2.55"/>
    <path d="m116.66 58.105h-1.7"/>
    <path d="m116.66 58.105v-2.55"/>
    <path d="m95.905 39.055v-2.55"/>
    <path d="m97.605 39.055h-1.7"/>
    <path d="m97.605 39.055v-2.55"/>
    <path d="m57.805 39.055v-2.55"/>
    <path d="m59.505 39.055h-1.7"/>
    <path d="m59.505 39.055v-2.55"/>
    <path d="m76.855 39.055v-2.55"/>
    <path d="m78.555 39.055h-1.7"/>
    <path d="m78.555 39.055v-2.55"/>
    <path d="m76.855 58.105v-2.55"/>
    <path d="m78.555 58.105h-1.7"/>
    <path d="m78.555 58.105v-2.55"/>
    <path d="m114.96 39.055v-2.55"/>
    <path d="m116.66 39.055h-1.7"/>
    <path d="m116.66 39.055v-2.55"/>
    <path d="m95.905 58.105v-2.55"/>
    <path d="m97.605 58.105h-1.7"/>
    <path d="m97.605 58.105v-2.55"/>
    <path d="m57.805 58.105v-2.55"/>
    <path d="m59.505 58.105h-1.7"/>
    <path d="m59.505 58.105v-2.55"/>
    <path d="m38.755 39.055v-2.55"/>
    <path d="m40.455 39.055h-1.7"/>
    <path d="m40.455 39.055v-2.55"/>
    <path d="m38.755 58.105v-2.55"/>
    <path d="m40.455 58.105h-1.7"/>
    <path d="m40.455 58.105v-2.55"/>
   </g>
   <g fill="#F2EDA1" stroke="#F2EDA1" stroke-width=".15">
    <text x="34.525" y="46.075" font-size="1.333" opacity="0" text-anchor="middle" lengthAdjust="spacingAndGlyphs" textLength="3.298">SW6</text>
    <g class="stroked-text">
     <desc>SW6</desc>
     <path d="m33.192 45.982 0.143 0.048"/>
     <path d="m33.335 46.03h0.238"/>
     <path d="m33.573 46.03 0.095-0.048"/>
     <path d="m33.668 45.982 0.047-0.047"/>
     <path d="m33.715 45.935 0.048-0.096"/>
     <path d="m33.763 45.839v-0.095"/>
     <path d="m33.763 45.744-0.048-0.095"/>
     <path d="m33.715 45.649-0.047-0.048"/>
     <path d="m33.668 45.601-0.095-0.047"/>
     <path d="m33.573 45.554-0.191-0.048"/>
     <path d="m33.382 45.506-0.095-0.048"/>
     <path d="m33.287 45.458-0.048-0.047"/>
     <path d="m33.239 45.411-0.047-0.095"/>
     <path d="m33.192 45.316v-0.096"/>
     <path d="m33.192 45.22 0.047-0.095"/>
     <path d="m33.239 45.125 0.048-0.048"/>
     <path d="m33.287 45.077 0.095-0.047"/>
     <path d="m33.382 45.03h0.238"/>
     <path d="m33.62 45.03 0.143 0.047"/>
     <path d="m34.096 45.03 0.239 1"/>
     <path d="m34.335 46.03 0.19-0.714"/>
     <path d="m34.525 45.316 0.19 0.714"/>
     <path d="m34.715 46.03 0.239-1"/>
     <path d="m35.763 45.03h-0.19"/>
     <path d="m35.573 45.03-0.096 0.047"/>
     <path d="m35.477 45.077-0.047 0.048"/>
     <path d="m35.43 45.125-0.095 0.143"/>
     <path d="m35.335 45.268-0.048 0.19"/>
     <path d="m35.287 45.458v0.381"/>
     <path d="m35.287 45.839 0.048 0.096"/>
     <path d="m35.335 45.935 0.047 0.047"/>
     <path d="m35.382 45.982 0.095 0.048"/>
     <path d="m35.477 46.03h0.191"/>
     <path d="m35.668 46.03 0.095-0.048"/>
     <path d="m35.763 45.982 0.048-0.047"/>
     <path d="m35.811 45.935 0.047-0.096"/>
     <path d="m35.858 45.839v-0.238"/>
     <path d="m35.858 45.601-0.047-0.095"/>
     <path d="m35.811 45.506-0.048-0.048"/>
     <path d="m35.763 45.458-0.095-0.047"/>
     <path d="m35.668 45.411h-0.191"/>
     <path d="m35.477 45.411-0.095 0.047"/>
     <path d="m35.382 45.458-0.047 0.048"/>
     <path d="m35.335 45.506-0.048 0.095"/>
    </g>
    <text x="72.625" y="27.025" font-size="1.333" opacity="0" text-anchor="middle" lengthAdjust="spacingAndGlyphs" textLength="3.298">SW3</text>
    <g class="stroked-text">
     <desc>SW3</desc>
     <path d="m71.292 26.932 0.143 0.048"/>
     <path d="m71.435 26.98h0.238"/>
     <path d="m71.673 26.98 0.095-0.048"/>
     <path d="m71.768 26.932 0.047-0.047"/>
     <path d="m71.815 26.885 0.048-0.096"/>
     <path d="m71.863 26.789v-0.095"/>
     <path d="m71.863 26.694-0.048-0.095"/>
     <path d="m71.815 26.599-0.047-0.048"/>
     <path d="m71.768 26.551-0.095-0.047"/>
     <path d="m71.673 26.504-0.191-0.048"/>
     <path d="m71.482 26.456-0.095-0.048"/>
     <path d="m71.387 26.408-0.048-0.047"/>
     <path d="m71.339 26.361-0.047-0.095"/>
     <path d="m71.292 26.266v-0.096"/>
     <path d="m71.292 26.17 0.047-0.095"/>
     <path d="m71.339 26.075 0.048-0.048"/>
     <path d="m71.387 26.027 0.095-0.047"/>
     <path d="m71.482 25.98h0.238"/>
     <path d="m71.72 25.98 0.143 0.047"/>
     <path d="m72.196 25.98 0.239 1"/>
     <path d="m72.435 26.98 0.19-0.714"/>
     <path d="m72.625 26.266 0.19 0.714"/>
     <path d="m72.815 26.98 0.239-1"/>
     <path d="m73.339 25.98h0.619"/>
     <path d="m73.958 25.98-0.333 0.381"/>
     <path d="m73.625 26.361h0.143"/>
     <path d="m73.768 26.361 0.095 0.047"/>
     <path d="m73.863 26.408 0.048 0.048"/>
     <path d="m73.911 26.456 0.047 0.095"/>
     <path d="m73.958 26.551v0.238"/>
     <path d="m73.958 26.789-0.047 0.096"/>
     <path d="m73.911 26.885-0.048 0.047"/>
     <path d="m73.863 26.932-0.095 0.048"/>
     <path d="m73.768 26.98h-0.286"/>
     <path d="m73.482 26.98-0.095-0.048"/>
     <path d="m73.387 26.932-0.048-0.047"/>
    </g>
    <text x="72.625" y="46.075" font-size="1.333" opacity="0" text-anchor="middle" lengthAdjust="spacingAndGlyphs" textLength="3.298">SW8</text>
    <g class="stroked-text">
     <desc>SW8</desc>
     <path d="m71.292 45.982 0.143 0.048"/>
     <path d="m71.435 46.03h0.238"/>
     <path d="m71.673 46.03 0.095-0.048"/>
     <path d="m71.768 45.982 0.047-0.047"/>
     <path d="m71.815 45.935 0.048-0.096"/>
     <path d="m71.863 45.839v-0.095"/>
     <path d="m71.863 45.744-0.048-0.095"/>
     <path d="m71.815 45.649-0.047-0.048"/>
     <path d="m71.768 45.601-0.095-0.047"/>
     <path d="m71.673 45.554-0.191-0.048"/>
     <path d="m71.482 45.506-0.095-0.048"/>
     <path d="m71.387 45.458-0.048-0.047"/>
     <path d="m71.339 45.411-0.047-0.095"/>
     <path d="m71.292 45.316v-0.096"/>
     <path d="m71.292 45.22 0.047-0.095"/>
     <path d="m71.339 45.125 0.048-0.048"/>
     <path d="m71.387 45.077 0.095-0.047"/>
     <path d="m71.482 45.03h0.238"/>
     <path d="m71.72 45.03 0.143 0.047"/>
     <path d="m72.196 45.03 0.239 1"/>
     <path d="m72.435 46.03 0.19-0.714"/>
     <path d="m72.625 45.316 0.19 0.714"/>
     <path d="m72.815 46.03 0.239-1"/>
     <path d="m73.577 45.458-0.095-0.047"/>
     <path d="m73.482 45.411-0.047-0.048"/>
     <path d="m73.435 45.363-0.048-0.095"/>
     <path d="m73.387 45.268v-0.048"/>
     <path d="m73.387 45.22 0.048-0.095"/>
     <path d="m73.435 45.125 0.047-0.048"/>
     <path d="m73.482 45.077 0.095-0.047"/>
     <path d="m73.577 45.03h0.191"/>
     <path d="m73.768 45.03 0.095 0.047"/>
     <path d="m73.863 45.077 0.048 0.048"/>
     <path d="m73.911 45.125 0.047 0.095"/>
     <path d="m73.958 45.22v0.048"/>
     <path d="m73.958 45.268-0.047 0.095"/>
     <path d="m73.911 45.363-0.048 0.048"/>
     <path d="m73.863 45.411-0.095 0.047"/>
     <path d="m73.768 45.458h-0.191"/>
     <path d="m73.577 45.458-0.095 0.048"/>
     <path d="m73.482 45.506-0.047 0.048"/>
     <path d="m73.435 45.554-0.048 0.095"/>
     <path d="m73.387 45.649v0.19"/>
     <path d="m73.387 45.839 0.048 0.096"/>
     <path d="m73.435 45.935 0.047 0.047"/>
     <path d="m73.482 45.982 0.095 0.048"/>
     <path d="m73.577 46.03h0.191"/>
     <path d="m73.768 46.03 0.095-0.048"/>
     <path d="m73.863 45.982 0.048-0.047"/>
     <path d="m73.911 45.935 0.047-0.096"/>
     <path d="m73.958 45.839v-0.19"/>
     <path d="m73.958 45.649-0.047-0.095"/>
     <path d="m73.911 45.554-0.048-0.048"/>
     <path d="m73.863 45.506-0.095-0.048"/>
    </g>
    <text x="53.575" y="46.075" font-size="1.333" opacity="0" text-anchor="middle" lengthAdjust="spacingAndGlyphs" textLength="3.298">SW7</text>
    <g class="stroked-text">
     <desc>SW7</desc>
     <path d="m52.242 45.982 0.143 0.048"/>
     <path d="m52.385 46.03h0.238"/>
     <path d="m52.623 46.03 0.095-0.048"/>
     <path d="m52.718 45.982 0.047-0.047"/>
     <path d="m52.765 45.935 0.048-0.096"/>
     <path d="m52.813 45.839v-0.095"/>
     <path d="m52.813 45.744-0.048-0.095"/>
     <path d="m52.765 45.649-0.047-0.048"/>
     <path d="m52.718 45.601-0.095-0.047"/>
     <path d="m52.623 45.554-0.191-0.048"/>
     <path d="m52.432 45.506-0.095-0.048"/>
     <path d="m52.337 45.458-0.048-0.047"/>
     <path d="m52.289 45.411-0.047-0.095"/>
     <path d="m52.242 45.316v-0.096"/>
     <path d="m52.242 45.22 0.047-0.095"/>
     <path d="m52.289 45.125 0.048-0.048"/>
     <path d="m52.337 45.077 0.095-0.047"/>
     <path d="m52.432 45.03h0.238"/>
     <path d="m52.67 45.03 0.143 0.047"/>
     <path d="m53.146 45.03 0.239 1"/>
     <path d="m53.385 46.03 0.19-0.714"/>
     <path d="m53.575 45.316 0.19 0.714"/>
     <path d="m53.765 46.03 0.239-1"/>
     <path d="m54.289 45.03h0.667"/>
     <path d="m54.956 45.03-0.429 1"/>
    </g>
    <text x="34.525" y="27.025" font-size="1.333" opacity="0" text-anchor="middle" lengthAdjust="spacingAndGlyphs" textLength="3.298">SW1</text>
    <g class="stroked-text">
     <desc>SW1</desc>
     <path d="m33.192 26.932 0.143 0.048"/>
     <path d="m33.335 26.98h0.238"/>
     <path d="m33.573 26.98 0.095-0.048"/>
     <path d="m33.668 26.932 0.047-0.047"/>
     <path d="m33.715 26.885 0.048-0.096"/>
     <path d="m33.763 26.789v-0.095"/>
     <path d="m33.763 26.694-0.048-0.095"/>
     <path d="m33.715 26.599-0.047-0.048"/>
     <path d="m33.668 26.551-0.095-0.047"/>
     <path d="m33.573 26.504-0.191-0.048"/>
     <path d="m33.382 26.456-0.095-0.048"/>
     <path d="m33.287 26.408-0.048-0.047"/>
     <path d="m33.239 26.361-0.047-0.095"/>
     <path d="m33.192 26.266v-0.096"/>
     <path d="m33.192 26.17 0.047-0.095"/>
     <path d="m33.239 26.075 0.048-0.048"/>
     <path d="m33.287 26.027 0.095-0.047"/>
     <path d="m33.382 25.98h0.238"/>
     <path d="m33.62 25.98 0.143 0.047"/>
     <path d="m34.096 25.98 0.239 1"/>
     <path d="m34.335 26.98 0.19-0.714"/>
     <path d="m34.525 26.266 0.19 0.714"/>
     <path d="m34.715 26.98 0.239-1"/>
     <path d="m35.858 26.98h-0.571"/>
     <path d="m35.573 26.98v-1"/>
     <path d="m35.573 25.98-0.096 0.143"/>
     <path d="m35.477 26.123-0.095 0.095"/>
     <path d="m35.382 26.218-0.095 0.048"/>
    </g>
    <text x="110.725" y="46.075" font-size="1.333" opacity="0" text-anchor="middle" lengthAdjust="spacingAndGlyphs" textLength="4.250">SW10</text>
    <g class="stroked-text">
     <desc>SW10</desc>
     <path d="m108.92 45.982 0.143 0.048"/>
     <path d="m109.06 46.03h0.238"/>
     <path d="m109.3 46.03 0.096-0.048"/>
     <path d="m109.39 45.982 0.047-0.047"/>
     <path d="m109.44 45.935 0.048-0.096"/>
     <path d="m109.49 45.839v-0.095"/>
     <path d="m109.49 45.744-0.048-0.095"/>
     <path d="m109.44 45.649-0.047-0.048"/>
     <path d="m109.39 45.601-0.096-0.047"/>
     <path d="m109.3 45.554-0.19-0.048"/>
     <path d="m109.11 45.506-0.095-0.048"/>
     <path d="m109.01 45.458-0.048-0.047"/>
     <path d="m108.96 45.411-0.048-0.095"/>
     <path d="m108.92 45.316v-0.096"/>
     <path d="m108.92 45.22 0.048-0.095"/>
     <path d="m108.96 45.125 0.048-0.048"/>
     <path d="m109.01 45.077 0.095-0.047"/>
     <path d="m109.11 45.03h0.238"/>
     <path d="m109.34 45.03 0.143 0.047"/>
     <path d="m109.82 45.03 0.238 1"/>
     <path d="m110.06 46.03 0.191-0.714"/>
     <path d="m110.25 45.316 0.19 0.714"/>
     <path d="m110.44 46.03 0.238-1"/>
     <path d="m111.58 46.03h-0.571"/>
     <path d="m111.3 46.03v-1"/>
     <path d="m111.3 45.03-0.095 0.143"/>
     <path d="m111.2 45.173-0.095 0.095"/>
     <path d="m111.11 45.268-0.095 0.048"/>
     <path d="m112.2 45.03h0.095"/>
     <path d="m112.3 45.03 0.096 0.047"/>
     <path d="m112.39 45.077 0.047 0.048"/>
     <path d="m112.44 45.125 0.048 0.095"/>
     <path d="m112.49 45.22 0.048 0.191"/>
     <path d="m112.54 45.411v0.238"/>
     <path d="m112.54 45.649-0.048 0.19"/>
     <path d="m112.49 45.839-0.048 0.096"/>
     <path d="m112.44 45.935-0.047 0.047"/>
     <path d="m112.39 45.982-0.096 0.048"/>
     <path d="m112.3 46.03h-0.095"/>
     <path d="m112.2 46.03-0.095-0.048"/>
     <path d="m112.11 45.982-0.048-0.047"/>
     <path d="m112.06 45.935-0.047-0.096"/>
     <path d="m112.01 45.839-0.048-0.19"/>
     <path d="m111.96 45.649v-0.238"/>
     <path d="m111.96 45.411 0.048-0.191"/>
     <path d="m112.01 45.22 0.047-0.095"/>
     <path d="m112.06 45.125 0.048-0.048"/>
     <path d="m112.11 45.077 0.095-0.047"/>
    </g>
    <text x="53.575" y="27.025" font-size="1.333" opacity="0" text-anchor="middle" lengthAdjust="spacingAndGlyphs" textLength="3.298">SW2</text>
    <g class="stroked-text">
     <desc>SW2</desc>
     <path d="m52.242 26.932 0.143 0.048"/>
     <path d="m52.385 26.98h0.238"/>
     <path d="m52.623 26.98 0.095-0.048"/>
     <path d="m52.718 26.932 0.047-0.047"/>
     <path d="m52.765 26.885 0.048-0.096"/>
     <path d="m52.813 26.789v-0.095"/>
     <path d="m52.813 26.694-0.048-0.095"/>
     <path d="m52.765 26.599-0.047-0.048"/>
     <path d="m52.718 26.551-0.095-0.047"/>
     <path d="m52.623 26.504-0.191-0.048"/>
     <path d="m52.432 26.456-0.095-0.048"/>
     <path d="m52.337 26.408-0.048-0.047"/>
     <path d="m52.289 26.361-0.047-0.095"/>
     <path d="m52.242 26.266v-0.096"/>
     <path d="m52.242 26.17 0.047-0.095"/>
     <path d="m52.289 26.075 0.048-0.048"/>
     <path d="m52.337 26.027 0.095-0.047"/>
     <path d="m52.432 25.98h0.238"/>
     <path d="m52.67 25.98 0.143 0.047"/>
     <path d="m53.146 25.98 0.239 1"/>
     <path d="m53.385 26.98 0.19-0.714"/>
     <path d="m53.575 26.266 0.19 0.714"/>
     <path d="m53.765 26.98 0.239-1"/>
     <path d="m54.337 26.075 0.048-0.048"/>
     <path d="m54.385 26.027 0.095-0.047"/>
     <path d="m54.48 25.98h0.238"/>
     <path d="m54.718 25.98 0.095 0.047"/>
     <path d="m54.813 26.027 0.048 0.048"/>
     <path d="m54.861 26.075 0.047 0.095"/>
     <path d="m54.908 26.17v0.096"/>
     <path d="m54.908 26.266-0.047 0.142"/>
     <path d="m54.861 26.408-0.572 0.572"/>
     <path d="m54.289 26.98h0.619"/>
    </g>
    <text x="91.675" y="27.025" font-size="1.333" opacity="0" text-anchor="middle" lengthAdjust="spacingAndGlyphs" textLength="3.298">SW4</text>
    <g class="stroked-text">
     <desc>SW4</desc>
     <path d="m90.342 26.932 0.143 0.048"/>
     <path d="m90.485 26.98h0.238"/>
     <path d="m90.723 26.98 0.095-0.048"/>
     <path d="m90.818 26.932 0.047-0.047"/>
     <path d="m90.865 26.885 0.048-0.096"/>
     <path d="m90.913 26.789v-0.095"/>
     <path d="m90.913 26.694-0.048-0.095"/>
     <path d="m90.865 26.599-0.047-0.048"/>
     <path d="m90.818 26.551-0.095-0.047"/>
     <path d="m90.723 26.504-0.191-0.048"/>
     <path d="m90.532 26.456-0.095-0.048"/>
     <path d="m90.437 26.408-0.048-0.047"/>
     <path d="m90.389 26.361-0.047-0.095"/>
     <path d="m90.342 26.266v-0.096"/>
     <path d="m90.342 26.17 0.047-0.095"/>
     <path d="m90.389 26.075 0.048-0.048"/>
     <path d="m90.437 26.027 0.095-0.047"/>
     <path d="m90.532 25.98h0.238"/>
     <path d="m90.77 25.98 0.143 0.047"/>
     <path d="m91.246 25.98 0.239 1"/>
     <path d="m91.485 26.98 0.19-0.714"/>
     <path d="m91.675 26.266 0.19 0.714"/>
     <path d="m91.865 26.98 0.239-1"/>
     <path d="m92.913 26.313v0.667"/>
     <path d="m92.675 25.932-0.238 0.714"/>
     <path d="m92.437 26.646h0.619"/>
    </g>
    <text x="110.725" y="27.025" font-size="1.333" opacity="0" text-anchor="middle" lengthAdjust="spacingAndGlyphs" textLength="3.298">SW5</text>
    <g class="stroked-text">
     <desc>SW5</desc>
     <path d="m109.39 26.932 0.143 0.048"/>
     <path d="m109.54 26.98h0.238"/>
     <path d="m109.77 26.98 0.095-0.048"/>
     <path d="m109.87 26.932 0.047-0.047"/>
     <path d="m109.92 26.885 0.048-0.096"/>
     <path d="m109.96 26.789v-0.095"/>
     <path d="m109.96 26.694-0.048-0.095"/>
     <path d="m109.92 26.599-0.047-0.048"/>
     <path d="m109.87 26.551-0.095-0.047"/>
     <path d="m109.77 26.504-0.191-0.048"/>
     <path d="m109.58 26.456-0.095-0.048"/>
     <path d="m109.49 26.408-0.048-0.047"/>
     <path d="m109.44 26.361-0.047-0.095"/>
     <path d="m109.39 26.266v-0.096"/>
     <path d="m109.39 26.17 0.047-0.095"/>
     <path d="m109.44 26.075 0.048-0.048"/>
     <path d="m109.49 26.027 0.095-0.047"/>
     <path d="m109.58 25.98h0.238"/>
     <path d="m109.82 25.98 0.143 0.047"/>
     <path d="m110.3 25.98 0.239 1"/>
     <path d="m110.54 26.98 0.19-0.714"/>
     <path d="m110.72 26.266 0.19 0.714"/>
     <path d="m110.92 26.98 0.239-1"/>
     <path d="m112.01 25.98h-0.476"/>
     <path d="m111.54 25.98-0.048 0.476"/>
     <path d="m111.49 26.456 0.048-0.048"/>
     <path d="m111.54 26.408 0.095-0.047"/>
     <path d="m111.63 26.361h0.238"/>
     <path d="m111.87 26.361 0.095 0.047"/>
     <path d="m111.96 26.408 0.048 0.048"/>
     <path d="m112.01 26.456 0.047 0.095"/>
     <path d="m112.06 26.551v0.238"/>
     <path d="m112.06 26.789-0.047 0.096"/>
     <path d="m112.01 26.885-0.048 0.047"/>
     <path d="m111.96 26.932-0.095 0.048"/>
     <path d="m111.87 26.98h-0.238"/>
     <path d="m111.63 26.98-0.095-0.048"/>
     <path d="m111.54 26.932-0.048-0.047"/>
    </g>
    <text x="91.675" y="46.075" font-size="1.333" opacity="0" text-anchor="middle" lengthAdjust="spacingAndGlyphs" textLength="3.298">SW9</text>
    <g class="stroked-text">
     <desc>SW9</desc>
     <path d="m90.342 45.982 0.143 0.048"/>
     <path d="m90.485 46.03h0.238"/>
     <path d="m90.723 46.03 0.095-0.048"/>
     <path d="m90.818 45.982 0.047-0.047"/>
     <path d="m90.865 45.935 0.048-0.096"/>
     <path d="m90.913 45.839v-0.095"/>
     <path d="m90.913 45.744-0.048-0.095"/>
     <path d="m90.865 45.649-0.047-0.048"/>
     <path d="m90.818 45.601-0.095-0.047"/>
     <path d="m90.723 45.554-0.191-0.048"/>
     <path d="m90.532 45.506-0.095-0.048"/>
     <path d="m90.437 45.458-0.048-0.047"/>
     <path d="m90.389 45.411-0.047-0.095"/>
     <path d="m90.342 45.316v-0.096"/>
     <path d="m90.342 45.22 0.047-0.095"/>
     <path d="m90.389 45.125 0.048-0.048"/>
     <path d="m90.437 45.077 0.095-0.047"/>
     <path d="m90.532 45.03h0.238"/>
     <path d="m90.77 45.03 0.143 0.047"/>
     <path d="m91.246 45.03 0.239 1"/>
     <path d="m91.485 46.03 0.19-0.714"/>
     <path d="m91.675 45.316 0.19 0.714"/>
     <path d="m91.865 46.03 0.239-1"/>
     <path d="m92.532 46.03h0.191"/>
     <path d="m92.723 46.03 0.095-0.048"/>
     <path d="m92.818 45.982 0.047-0.047"/>
     <path d="m92.865 45.935 0.096-0.143"/>
     <path d="m92.961 45.792 0.047-0.191"/>
     <path d="m93.008 45.601v-0.381"/>
     <path d="m93.008 45.22-0.047-0.095"/>
     <path d="m92.961 45.125-0.048-0.048"/>
     <path d="m92.913 45.077-0.095-0.047"/>
     <path d="m92.818 45.03h-0.191"/>
     <path d="m92.627 45.03-0.095 0.047"/>
     <path d="m92.532 45.077-0.047 0.048"/>
     <path d="m92.485 45.125-0.048 0.095"/>
     <path d="m92.437 45.22v0.238"/>
     <path d="m92.437 45.458 0.048 0.096"/>
     <path d="m92.485 45.554 0.047 0.047"/>
     <path d="m92.532 45.601 0.095 0.048"/>
     <path d="m92.627 45.649h0.191"/>
     <path d="m92.818 45.649 0.095-0.048"/>
     <path d="m92.913 45.601 0.048-0.047"/>
     <path d="m92.961 45.554 0.047-0.096"/>
    </g>
   </g>
   <g fill="#F2EDA1" stroke="#F2EDA1" stroke-width=".12">
    <path d="m27.425 46.475v14.2"/>
    <path d="m27.425 60.675h14.2"/>
    <path d="m41.625 46.475h-14.2"/>
    <path d="m41.625 60.675v-14.2"/>
    <path d="m65.525 27.425v14.2"/>
    <path d="m65.525 41.625h14.2"/>
    <path d="m79.725 27.425h-14.2"/>
    <path d="m79.725 41.625v-14.2"/>
    <path d="m65.525 46.475v14.2"/>
    <path d="m65.525 60.675h14.2"/>
    <path d="m79.725 46.475h-14.2"/>
    <path d="m79.725 60.675v-14.2"/>
    <path d="m46.475 46.475v14.2"/>
    <path d="m46.475 60.675h14.2"/>
    <path d="m60.675 46.475h-14.2"/>
    <path d="m60.675 60.675v-14.2"/>
    <path d="m27.425 27.425v14.2"/>
    <path d="m27.425 41.625h14.2"/>
    <path d="m41.625 27.425h-14.2"/>
    <path d="m41.625 41.625v-14.2"/>
    <path d="m103.62 46.475v14.2"/>
    <path d="m103.62 60.675h14.2"/>
    <path d="m117.82 46.475h-14.2"/>
    <path d="m117.82 60.675v-14.2"/>
    <path d="m46.475 27.425v14.2"/>
    <path d="m46.475 41.625h14.2"/>
    <path d="m60.675 27.425h-14.2"/>
    <path d="m60.675 41.625v-14.2"/>
    <path d="m84.575 27.425v14.2"/>
    <path d="m84.575 41.625h14.2"/>
    <path d="m98.775 27.425h-14.2"/>
    <path d="m98.775 41.625v-14.2"/>
    <path d="m103.62 27.425v14.2"/>
    <path d="m103.62 41.625h14.2"/>
    <path d="m117.82 27.425h-14.2"/>
    <path d="m117.82 41.625v-14.2"/>
    <path d="m84.575 46.475v14.2"/>
    <path d="m84.575 60.675h14.2"/>
    <path d="m98.775 46.475h-14.2"/>
    <path d="m98.775 60.675v-14.2"/>
   </g>
   <g stroke="#000" stroke-width=".12">
    <g fill="#02FFEE" fill-opacity=".4" stroke-width="0">
     <g stroke="#02FFEE" stroke-linecap="round" stroke-linejoin="round">
      <circle cx="29.445" cy="53.575" r=".875"/>
      <circle cx="34.525" cy="53.575" r="2"/>
      <circle cx="39.605" cy="53.575" r=".875"/>
      <circle cx="30.715" cy="51.035" r="1.25"/>
      <circle cx="37.065" cy="48.495" r="1.25"/>
      <circle cx="67.545" cy="34.525" r=".875"/>
      <circle cx="72.625" cy="34.525" r="2"/>
      <circle cx="77.705" cy="34.525" r=".875"/>
      <circle cx="68.815" cy="31.985" r="1.25"/>
      <circle cx="75.165" cy="29.445" r="1.25"/>
      <circle cx="67.545" cy="53.575" r=".875"/>
      <circle cx="72.625" cy="53.575" r="2"/>
      <circle cx="77.705" cy="53.575" r=".875"/>
      <circle cx="68.815" cy="51.035" r="1.25"/>
      <circle cx="75.165" cy="48.495" r="1.25"/>
      <circle cx="48.495" cy="53.575" r=".875"/>
      <circle cx="53.575" cy="53.575" r="2"/>
      <circle cx="58.655" cy="53.575" r=".875"/>
      <circle cx="49.765" cy="51.035" r="1.25"/>
      <circle cx="56.115" cy="48.495" r="1.25"/>
      <circle cx="29.445" cy="34.525" r=".875"/>
      <circle cx="34.525" cy="34.525" r="2"/>
      <circle cx="39.605" cy="34.525" r=".875"/>
      <circle cx="30.715" cy="31.985" r="1.25"/>
      <circle cx="37.065" cy="29.445" r="1.25"/>
      <circle cx="105.64" cy="53.575" r=".875"/>
      <circle cx="110.72" cy="53.575" r="2"/>
      <circle cx="115.8" cy="53.575" r=".875"/>
      <circle cx="106.92" cy="51.035" r="1.25"/>
      <circle cx="113.26" cy="48.495" r="1.25"/>
      <circle cx="48.495" cy="34.525" r=".875"/>
      <circle cx="53.575" cy="34.525" r="2"/>
      <circle cx="58.655" cy="34.525" r=".875"/>
      <circle cx="49.765" cy="31.985" r="1.25"/>
      <circle cx="56.115" cy="29.445" r="1.25"/>
      <circle cx="86.595" cy="34.525" r=".875"/>
      <circle cx="91.675" cy="34.525" r="2"/>
      <circle cx="96.755" cy="34.525" r=".875"/>
      <circle cx="87.865" cy="31.985" r="1.25"/>
      <circle cx="94.215" cy="29.445" r="1.25"/>
      <circle cx="105.64" cy="34.525" r=".875"/>
      <circle cx="110.72" cy="34.525" r="2"/>
      <circle cx="115.8" cy="34.525" r=".875"/>
      <circle cx="106.92" cy="31.985" r="1.25"/>
      <circle cx="113.26" cy="29.445" r="1.25"/>
      <circle cx="86.595" cy="53.575" r=".875"/>
      <circle cx="91.675" cy="53.575" r="2"/>
      <circle cx="96.755" cy="53.575" r=".875"/>
      <circle cx="87.865" cy="51.035" r="1.25"/>
      <circle cx="94.215" cy="48.495" r="1.25"/>
     </g>
     <g fill-rule="evenodd">
      <path d="m116.06 57.955h-0.5v-0.5h0.5z"/>
      <path d="m116.06 55.755h-0.5v-0.5h0.5z"/>
      <path d="m97.005 38.905h-0.5v-0.5h0.5z"/>
      <path d="m97.005 36.705h-0.5v-0.5h0.5z"/>
      <path d="m58.905 38.905h-0.5v-0.5h0.5z"/>
      <path d="m58.905 36.705h-0.5v-0.5h0.5z"/>
      <path d="m77.955 38.905h-0.5v-0.5h0.5z"/>
      <path d="m77.955 36.705h-0.5v-0.5h0.5z"/>
      <path d="m77.955 57.955h-0.5v-0.5h0.5z"/>
      <path d="m77.955 55.755h-0.5v-0.5h0.5z"/>
      <path d="m116.06 38.905h-0.5v-0.5h0.5z"/>
      <path d="m116.06 36.705h-0.5v-0.5h0.5z"/>
      <path d="m97.005 57.955h-0.5v-0.5h0.5z"/>
      <path d="m97.005 55.755h-0.5v-0.5h0.5z"/>
      <path d="m58.905 57.955h-0.5v-0.5h0.5z"/>
      <path d="m58.905 55.755h-0.5v-0.5h0.5z"/>
      <path d="m39.855 38.905h-0.5v-0.5h0.5z"/>
      <path d="m39.855 36.705h-0.5v-0.5h0.5z"/>
      <path d="m39.855 57.955h-0.5v-0.5h0.5z"/>
      <path d="m39.855 55.755h-0.5v-0.5h0.5z"/>
     </g>
    </g>
   </g>
  </g>
 </g>
 <g stroke-width="0">
  <g fill="#D864FF" fill-opacity=".4" stroke="#D864FF" stroke-linecap="round" stroke-linejoin="round" stroke-width="0">
   <circle cx="29.445" cy="53.575" r=".875"/>
   <circle cx="34.525" cy="53.575" r="2"/>
   <circle cx="39.605" cy="53.575" r=".875"/>
   <circle cx="67.545" cy="34.525" r=".875"/>
   <circle cx="72.625" cy="34.525" r="2"/>
   <circle cx="77.705" cy="34.525" r=".875"/>
   <circle cx="67.545" cy="53.575" r=".875"/>
   <circle cx="72.625" cy="53.575" r="2"/>
   <circle cx="77.705" cy="53.575" r=".875"/>
   <circle cx="48.495" cy="53.575" r=".875"/>
   <circle cx="53.575" cy="53.575" r="2"/>
   <circle cx="58.655" cy="53.575" r=".875"/>
   <circle cx="29.445" cy="34.525" r=".875"/>
   <circle cx="34.525" cy="34.525" r="2"/>
   <circle cx="39.605" cy="34.525" r=".875"/>
   <circle cx="105.64" cy="53.575" r=".875"/>
   <circle cx="110.72" cy="53.575" r="2"/>
   <circle cx="115.8" cy="53.575" r=".875"/>
   <circle cx="48.495" cy="34.525" r=".875"/>
   <circle cx="53.575" cy="34.525" r="2"/>
   <circle cx="58.655" cy="34.525" r=".875"/>
   <circle cx="86.595" cy="34.525" r=".875"/>
   <circle cx="91.675" cy="34.525" r="2"/>
   <circle cx="96.755" cy="34.525" r=".875"/>
   <circle cx="105.64" cy="34.525" r=".875"/>
   <circle cx="110.72" cy="34.525" r="2"/>
   <circle cx="115.8" cy="34.525" r=".875"/>
   <circle cx="86.595" cy="53.575" r=".875"/>
   <circle cx="91.675" cy="53.575" r="2"/>
   <circle cx="96.755" cy="53.575" r=".875"/>
  </g>
 </g>
</svg>
