<?xml version="1.0" encoding="UTF-8"?>
<!DOCTYPE svg  PUBLIC '-//W3C//DTD SVG 1.1//EN'  'http://www.w3.org/Graphics/SVG/1.1/DTD/svg11.dtd'>
<svg width="323.93mm" height="76.276mm" version="1.1" viewBox="0 0 323.93 76.276" xmlns="http://www.w3.org/2000/svg">
 <title>SVG Image created as bm16a-render.svg date 2025/09/05 18:14:22</title>
 <desc>Image generated by PCBNEW</desc>
 <rect width="323.93mm" height="76.276mm" fill="#282A36"/>
 <g fill="none" stroke="#8BE9FD" stroke-linecap="round" stroke-linejoin="round" stroke-width=".15">
  <text x="276.2750" y="2.0750" font-size="1.3333" opacity="0" stroke-opacity="0" text-anchor="middle" lengthAdjust="spacingAndGlyphs" textLength="3.2976">SW1</text>
  <g class="stroked-text">
   <desc>SW1</desc>
   <path d="m274.94 1.9822 0.1428 0.0476"/>
   <path d="m275.08 2.0298h0.2381"/>
   <path d="m275.32 2.0298 0.0953-0.0476"/>
   <path d="m275.42 1.9822 0.0476-0.0476"/>
   <path d="m275.47 1.9346 0.0476-0.0953"/>
   <path d="m275.51 1.8393v-0.0952"/>
   <path d="m275.51 1.7441-0.0476-0.0952"/>
   <path d="m275.47 1.6489-0.0476-0.0477"/>
   <path d="m275.42 1.6012-0.0953-0.0476"/>
   <path d="m275.32 1.5536-0.1905-0.0476"/>
   <path d="m275.13 1.506-0.0952-0.0476"/>
   <path d="m275.04 1.4584-0.0476-0.0476"/>
   <path d="m274.99 1.4108-0.0476-0.0953"/>
   <path d="m274.94 1.3155v-0.0952"/>
   <path d="m274.94 1.2203 0.0476-0.0952"/>
   <path d="m274.99 1.1251 0.0476-0.0477"/>
   <path d="m275.04 1.0774 0.0952-0.0476"/>
   <path d="m275.13 1.0298h0.2381"/>
   <path d="m275.37 1.0298 0.1429 0.0476"/>
   <path d="m275.85 1.0298 0.2381 1"/>
   <path d="m276.08 2.0298 0.1905-0.7143"/>
   <path d="m276.28 1.3155 0.1905 0.7143"/>
   <path d="m276.47 2.0298 0.2381-1"/>
   <path d="m277.61 2.0298h-0.5714"/>
   <path d="m277.32 2.0298v-1"/>
   <path d="m277.32 1.0298-0.0952 0.1429"/>
   <path d="m277.23 1.1727-0.0953 0.0952"/>
   <path d="m277.13 1.2679-0.0952 0.0476"/>
  </g>
  <text x="47.6750" y="59.2250" font-size="1.3333" opacity="0" stroke-opacity="0" text-anchor="middle" lengthAdjust="spacingAndGlyphs" textLength="4.2500">SW14</text>
  <g class="stroked-text">
   <desc>SW14</desc>
   <path d="m45.866 59.132 0.1428 0.0476"/>
   <path d="m46.008 59.18h0.2381"/>
   <path d="m46.246 59.18 0.0953-0.0476"/>
   <path d="m46.342 59.132 0.0476-0.0476"/>
   <path d="m46.389 59.085 0.0476-0.0953"/>
   <path d="m46.437 58.989v-0.0952"/>
   <path d="m46.437 58.894-0.0476-0.0952"/>
   <path d="m46.389 58.799-0.0476-0.0477"/>
   <path d="m46.342 58.751-0.0953-0.0476"/>
   <path d="m46.246 58.704-0.1904-0.0476"/>
   <path d="m46.056 58.656-0.0953-0.0476"/>
   <path d="m45.961 58.608-0.0476-0.0476"/>
   <path d="m45.913 58.561-0.0476-0.0953"/>
   <path d="m45.866 58.466v-0.0952"/>
   <path d="m45.866 58.37 0.0476-0.0952"/>
   <path d="m45.913 58.275 0.0476-0.0477"/>
   <path d="m45.961 58.227 0.0953-0.0476"/>
   <path d="m46.056 58.18h0.238"/>
   <path d="m46.294 58.18 0.1429 0.0476"/>
   <path d="m46.77 58.18 0.2381 1"/>
   <path d="m47.008 59.18 0.1905-0.7143"/>
   <path d="m47.199 58.466 0.1905 0.7143"/>
   <path d="m47.389 59.18 0.2381-1"/>
   <path d="m48.532 59.18h-0.5714"/>
   <path d="m48.246 59.18v-1"/>
   <path d="m48.246 58.18-0.0952 0.1429"/>
   <path d="m48.151 58.323-0.0952 0.0952"/>
   <path d="m48.056 58.418-0.0953 0.0476"/>
   <path d="m49.389 58.513v0.6666"/>
   <path d="m49.151 58.132-0.2381 0.7143"/>
   <path d="m48.913 58.846h0.619"/>
  </g>
  <text x="47.6750" y="40.1750" font-size="1.3333" opacity="0" stroke-opacity="0" text-anchor="middle" lengthAdjust="spacingAndGlyphs" textLength="4.2500">SW10</text>
  <g class="stroked-text">
   <desc>SW10</desc>
   <path d="m45.866 40.082 0.1428 0.0476"/>
   <path d="m46.008 40.13h0.2381"/>
   <path d="m46.246 40.13 0.0953-0.0476"/>
   <path d="m46.342 40.082 0.0476-0.0476"/>
   <path d="m46.389 40.035 0.0476-0.0953"/>
   <path d="m46.437 39.939v-0.0952"/>
   <path d="m46.437 39.844-0.0476-0.0952"/>
   <path d="m46.389 39.749-0.0476-0.0477"/>
   <path d="m46.342 39.701-0.0953-0.0476"/>
   <path d="m46.246 39.654-0.1904-0.0476"/>
   <path d="m46.056 39.606-0.0953-0.0476"/>
   <path d="m45.961 39.558-0.0476-0.0476"/>
   <path d="m45.913 39.511-0.0476-0.0953"/>
   <path d="m45.866 39.416v-0.0952"/>
   <path d="m45.866 39.32 0.0476-0.0952"/>
   <path d="m45.913 39.225 0.0476-0.0477"/>
   <path d="m45.961 39.177 0.0953-0.0476"/>
   <path d="m46.056 39.13h0.238"/>
   <path d="m46.294 39.13 0.1429 0.0476"/>
   <path d="m46.77 39.13 0.2381 1"/>
   <path d="m47.008 40.13 0.1905-0.7143"/>
   <path d="m47.199 39.416 0.1905 0.7143"/>
   <path d="m47.389 40.13 0.2381-1"/>
   <path d="m48.532 40.13h-0.5714"/>
   <path d="m48.246 40.13v-1"/>
   <path d="m48.246 39.13-0.0952 0.1429"/>
   <path d="m48.151 39.273-0.0952 0.0952"/>
   <path d="m48.056 39.368-0.0953 0.0476"/>
   <path d="m49.151 39.13h0.0952"/>
   <path d="m49.246 39.13 0.0953 0.0476"/>
   <path d="m49.342 39.177 0.0476 0.0477"/>
   <path d="m49.389 39.225 0.0476 0.0952"/>
   <path d="m49.437 39.32 0.0476 0.1905"/>
   <path d="m49.484 39.511v0.2381"/>
   <path d="m49.484 39.749-0.0476 0.1904"/>
   <path d="m49.437 39.939-0.0476 0.0953"/>
   <path d="m49.389 40.035-0.0476 0.0476"/>
   <path d="m49.342 40.082-0.0953 0.0476"/>
   <path d="m49.246 40.13h-0.0952"/>
   <path d="m49.151 40.13-0.0952-0.0476"/>
   <path d="m49.056 40.082-0.0477-0.0476"/>
   <path d="m49.008 40.035-0.0476-0.0953"/>
   <path d="m48.961 39.939-0.0476-0.1904"/>
   <path d="m48.913 39.749v-0.2381"/>
   <path d="m48.913 39.511 0.0476-0.1905"/>
   <path d="m48.961 39.32 0.0476-0.0952"/>
   <path d="m49.008 39.225 0.0477-0.0477"/>
   <path d="m49.056 39.177 0.0952-0.0476"/>
  </g>
  <text x="66.7250" y="59.2250" font-size="1.3333" opacity="0" stroke-opacity="0" text-anchor="middle" lengthAdjust="spacingAndGlyphs" textLength="4.2500">SW15</text>
  <g class="stroked-text">
   <desc>SW15</desc>
   <path d="m64.916 59.132 0.1428 0.0476"/>
   <path d="m65.058 59.18h0.2381"/>
   <path d="m65.296 59.18 0.0953-0.0476"/>
   <path d="m65.392 59.132 0.0476-0.0476"/>
   <path d="m65.439 59.085 0.0476-0.0953"/>
   <path d="m65.487 58.989v-0.0952"/>
   <path d="m65.487 58.894-0.0476-0.0952"/>
   <path d="m65.439 58.799-0.0476-0.0477"/>
   <path d="m65.392 58.751-0.0953-0.0476"/>
   <path d="m65.296 58.704-0.1904-0.0476"/>
   <path d="m65.106 58.656-0.0953-0.0476"/>
   <path d="m65.011 58.608-0.0476-0.0476"/>
   <path d="m64.963 58.561-0.0476-0.0953"/>
   <path d="m64.916 58.466v-0.0952"/>
   <path d="m64.916 58.37 0.0476-0.0952"/>
   <path d="m64.963 58.275 0.0476-0.0477"/>
   <path d="m65.011 58.227 0.0953-0.0476"/>
   <path d="m65.106 58.18h0.238"/>
   <path d="m65.344 58.18 0.1429 0.0476"/>
   <path d="m65.82 58.18 0.2381 1"/>
   <path d="m66.058 59.18 0.1905-0.7143"/>
   <path d="m66.249 58.466 0.1905 0.7143"/>
   <path d="m66.439 59.18 0.2381-1"/>
   <path d="m67.582 59.18h-0.5714"/>
   <path d="m67.296 59.18v-1"/>
   <path d="m67.296 58.18-0.0952 0.1429"/>
   <path d="m67.201 58.323-0.0952 0.0952"/>
   <path d="m67.106 58.418-0.0953 0.0476"/>
   <path d="m68.487 58.18h-0.4762"/>
   <path d="m68.011 58.18-0.0476 0.4762"/>
   <path d="m67.963 58.656 0.0476-0.0476"/>
   <path d="m68.011 58.608 0.0953-0.0476"/>
   <path d="m68.106 58.561h0.238"/>
   <path d="m68.344 58.561 0.0953 0.0476"/>
   <path d="m68.439 58.608 0.0476 0.0476"/>
   <path d="m68.487 58.656 0.0476 0.0952"/>
   <path d="m68.534 58.751v0.2381"/>
   <path d="m68.534 58.989-0.0476 0.0953"/>
   <path d="m68.487 59.085-0.0476 0.0476"/>
   <path d="m68.439 59.132-0.0953 0.0476"/>
   <path d="m68.344 59.18h-0.238"/>
   <path d="m68.106 59.18-0.0953-0.0476"/>
   <path d="m68.011 59.132-0.0476-0.0476"/>
  </g>
  <text x="9.5750" y="40.1750" font-size="1.3333" opacity="0" stroke-opacity="0" text-anchor="middle" lengthAdjust="spacingAndGlyphs" textLength="3.2976">SW8</text>
  <g class="stroked-text">
   <desc>SW8</desc>
   <path d="m8.2417 40.082 0.1428 0.0476"/>
   <path d="m8.3845 40.13h0.2381"/>
   <path d="m8.6226 40.13 0.0953-0.0476"/>
   <path d="m8.7179 40.082 0.0476-0.0476"/>
   <path d="m8.7655 40.035 0.0476-0.0953"/>
   <path d="m8.8131 39.939v-0.0952"/>
   <path d="m8.8131 39.844-0.0476-0.0952"/>
   <path d="m8.7655 39.749-0.0476-0.0477"/>
   <path d="m8.7179 39.701-0.0953-0.0476"/>
   <path d="m8.6226 39.654-0.1905-0.0476"/>
   <path d="m8.4321 39.606-0.0952-0.0476"/>
   <path d="m8.3369 39.558-0.0476-0.0476"/>
   <path d="m8.2893 39.511-0.0476-0.0953"/>
   <path d="m8.2417 39.416v-0.0952"/>
   <path d="m8.2417 39.32 0.0476-0.0952"/>
   <path d="m8.2893 39.225 0.0476-0.0477"/>
   <path d="m8.3369 39.177 0.0952-0.0476"/>
   <path d="m8.4321 39.13h0.2381"/>
   <path d="m8.6702 39.13 0.1429 0.0476"/>
   <path d="m9.1464 39.13 0.2381 1"/>
   <path d="m9.3845 40.13 0.1905-0.7143"/>
   <path d="m9.575 39.416 0.1905 0.7143"/>
   <path d="m9.7655 40.13 0.2381-1"/>
   <path d="m10.527 39.558-0.0953-0.0476"/>
   <path d="m10.432 39.511-0.0476-0.0476"/>
   <path d="m10.384 39.463-0.0476-0.0953"/>
   <path d="m10.337 39.368v-0.0476"/>
   <path d="m10.337 39.32 0.0476-0.0952"/>
   <path d="m10.384 39.225 0.0476-0.0477"/>
   <path d="m10.432 39.177 0.0953-0.0476"/>
   <path d="m10.527 39.13h0.1905"/>
   <path d="m10.718 39.13 0.0952 0.0476"/>
   <path d="m10.813 39.177 0.0476 0.0477"/>
   <path d="m10.861 39.225 0.0476 0.0952"/>
   <path d="m10.908 39.32v0.0476"/>
   <path d="m10.908 39.368-0.0476 0.0953"/>
   <path d="m10.861 39.463-0.0476 0.0476"/>
   <path d="m10.813 39.511-0.0952 0.0476"/>
   <path d="m10.718 39.558h-0.1905"/>
   <path d="m10.527 39.558-0.0953 0.0476"/>
   <path d="m10.432 39.606-0.0476 0.0476"/>
   <path d="m10.384 39.654-0.0476 0.0953"/>
   <path d="m10.337 39.749v0.1904"/>
   <path d="m10.337 39.939 0.0476 0.0953"/>
   <path d="m10.384 40.035 0.0476 0.0476"/>
   <path d="m10.432 40.082 0.0953 0.0476"/>
   <path d="m10.527 40.13h0.1905"/>
   <path d="m10.718 40.13 0.0952-0.0476"/>
   <path d="m10.813 40.082 0.0476-0.0476"/>
   <path d="m10.861 40.035 0.0476-0.0953"/>
   <path d="m10.908 39.939v-0.1904"/>
   <path d="m10.908 39.749-0.0476-0.0953"/>
   <path d="m10.861 39.654-0.0476-0.0476"/>
   <path d="m10.813 39.606-0.0952-0.0476"/>
  </g>
  <text x="295.3250" y="2.0750" font-size="1.3333" opacity="0" stroke-opacity="0" text-anchor="middle" lengthAdjust="spacingAndGlyphs" textLength="3.2976">SW2</text>
  <g class="stroked-text">
   <desc>SW2</desc>
   <path d="m293.99 1.9822 0.1428 0.0476"/>
   <path d="m294.13 2.0298h0.2381"/>
   <path d="m294.37 2.0298 0.0953-0.0476"/>
   <path d="m294.47 1.9822 0.0476-0.0476"/>
   <path d="m294.52 1.9346 0.0476-0.0953"/>
   <path d="m294.56 1.8393v-0.0952"/>
   <path d="m294.56 1.7441-0.0476-0.0952"/>
   <path d="m294.52 1.6489-0.0476-0.0477"/>
   <path d="m294.47 1.6012-0.0953-0.0476"/>
   <path d="m294.37 1.5536-0.1905-0.0476"/>
   <path d="m294.18 1.506-0.0952-0.0476"/>
   <path d="m294.09 1.4584-0.0476-0.0476"/>
   <path d="m294.04 1.4108-0.0476-0.0953"/>
   <path d="m293.99 1.3155v-0.0952"/>
   <path d="m293.99 1.2203 0.0476-0.0952"/>
   <path d="m294.04 1.1251 0.0476-0.0477"/>
   <path d="m294.09 1.0774 0.0952-0.0476"/>
   <path d="m294.18 1.0298h0.2381"/>
   <path d="m294.42 1.0298 0.1429 0.0476"/>
   <path d="m294.9 1.0298 0.2381 1"/>
   <path d="m295.13 2.0298 0.1905-0.7143"/>
   <path d="m295.32 1.3155 0.1905 0.7143"/>
   <path d="m295.52 2.0298 0.2381-1"/>
   <path d="m296.09 1.1251 0.0476-0.0477"/>
   <path d="m296.13 1.0774 0.0953-0.0476"/>
   <path d="m296.23 1.0298h0.2381"/>
   <path d="m296.47 1.0298 0.0952 0.0476"/>
   <path d="m296.56 1.0774 0.0476 0.0477"/>
   <path d="m296.61 1.1251 0.0476 0.0952"/>
   <path d="m296.66 1.2203v0.0952"/>
   <path d="m296.66 1.3155-0.0476 0.1429"/>
   <path d="m296.61 1.4584-0.5714 0.5714"/>
   <path d="m296.04 2.0298h0.619"/>
  </g>
  <text x="66.7250" y="40.1750" font-size="1.3333" opacity="0" stroke-opacity="0" text-anchor="middle" lengthAdjust="spacingAndGlyphs" textLength="4.2500">SW11</text>
  <g class="stroked-text">
   <desc>SW11</desc>
   <path d="m64.916 40.082 0.1428 0.0476"/>
   <path d="m65.058 40.13h0.2381"/>
   <path d="m65.296 40.13 0.0953-0.0476"/>
   <path d="m65.392 40.082 0.0476-0.0476"/>
   <path d="m65.439 40.035 0.0476-0.0953"/>
   <path d="m65.487 39.939v-0.0952"/>
   <path d="m65.487 39.844-0.0476-0.0952"/>
   <path d="m65.439 39.749-0.0476-0.0477"/>
   <path d="m65.392 39.701-0.0953-0.0476"/>
   <path d="m65.296 39.654-0.1904-0.0476"/>
   <path d="m65.106 39.606-0.0953-0.0476"/>
   <path d="m65.011 39.558-0.0476-0.0476"/>
   <path d="m64.963 39.511-0.0476-0.0953"/>
   <path d="m64.916 39.416v-0.0952"/>
   <path d="m64.916 39.32 0.0476-0.0952"/>
   <path d="m64.963 39.225 0.0476-0.0477"/>
   <path d="m65.011 39.177 0.0953-0.0476"/>
   <path d="m65.106 39.13h0.238"/>
   <path d="m65.344 39.13 0.1429 0.0476"/>
   <path d="m65.82 39.13 0.2381 1"/>
   <path d="m66.058 40.13 0.1905-0.7143"/>
   <path d="m66.249 39.416 0.1905 0.7143"/>
   <path d="m66.439 40.13 0.2381-1"/>
   <path d="m67.582 40.13h-0.5714"/>
   <path d="m67.296 40.13v-1"/>
   <path d="m67.296 39.13-0.0952 0.1429"/>
   <path d="m67.201 39.273-0.0952 0.0952"/>
   <path d="m67.106 39.368-0.0953 0.0476"/>
   <path d="m68.534 40.13h-0.5714"/>
   <path d="m68.249 40.13v-1"/>
   <path d="m68.249 39.13-0.0952 0.1429"/>
   <path d="m68.154 39.273-0.0953 0.0952"/>
   <path d="m68.058 39.368-0.0952 0.0476"/>
  </g>
  <text x="28.6250" y="40.1750" font-size="1.3333" opacity="0" stroke-opacity="0" text-anchor="middle" lengthAdjust="spacingAndGlyphs" textLength="3.2976">SW9</text>
  <g class="stroked-text">
   <desc>SW9</desc>
   <path d="m27.292 40.082 0.1428 0.0476"/>
   <path d="m27.434 40.13h0.2381"/>
   <path d="m27.673 40.13 0.0953-0.0476"/>
   <path d="m27.768 40.082 0.0476-0.0476"/>
   <path d="m27.816 40.035 0.0476-0.0953"/>
   <path d="m27.863 39.939v-0.0952"/>
   <path d="m27.863 39.844-0.0476-0.0952"/>
   <path d="m27.816 39.749-0.0476-0.0477"/>
   <path d="m27.768 39.701-0.0953-0.0476"/>
   <path d="m27.673 39.654-0.1905-0.0476"/>
   <path d="m27.482 39.606-0.0952-0.0476"/>
   <path d="m27.387 39.558-0.0476-0.0476"/>
   <path d="m27.339 39.511-0.0476-0.0953"/>
   <path d="m27.292 39.416v-0.0952"/>
   <path d="m27.292 39.32 0.0476-0.0952"/>
   <path d="m27.339 39.225 0.0476-0.0477"/>
   <path d="m27.387 39.177 0.0952-0.0476"/>
   <path d="m27.482 39.13h0.2381"/>
   <path d="m27.72 39.13 0.1429 0.0476"/>
   <path d="m28.196 39.13 0.2381 1"/>
   <path d="m28.434 40.13 0.1905-0.7143"/>
   <path d="m28.625 39.416 0.1905 0.7143"/>
   <path d="m28.816 40.13 0.2381-1"/>
   <path d="m29.482 40.13h0.1905"/>
   <path d="m29.673 40.13 0.0953-0.0476"/>
   <path d="m29.768 40.082 0.0476-0.0476"/>
   <path d="m29.816 40.035 0.0952-0.1429"/>
   <path d="m29.911 39.892 0.0476-0.1905"/>
   <path d="m29.958 39.701v-0.3809"/>
   <path d="m29.958 39.32-0.0476-0.0952"/>
   <path d="m29.911 39.225-0.0476-0.0477"/>
   <path d="m29.863 39.177-0.0952-0.0476"/>
   <path d="m29.768 39.13h-0.1905"/>
   <path d="m29.577 39.13-0.0953 0.0476"/>
   <path d="m29.482 39.177-0.0476 0.0477"/>
   <path d="m29.434 39.225-0.0476 0.0952"/>
   <path d="m29.387 39.32v0.2381"/>
   <path d="m29.387 39.558 0.0476 0.0952"/>
   <path d="m29.434 39.654 0.0476 0.0476"/>
   <path d="m29.482 39.701 0.0953 0.0477"/>
   <path d="m29.577 39.749h0.1905"/>
   <path d="m29.768 39.749 0.0952-0.0477"/>
   <path d="m29.863 39.701 0.0476-0.0476"/>
   <path d="m29.911 39.654 0.0476-0.0952"/>
  </g>
  <text x="9.5750" y="21.1250" font-size="1.3333" opacity="0" stroke-opacity="0" text-anchor="middle" lengthAdjust="spacingAndGlyphs" textLength="3.2976">SW4</text>
  <g class="stroked-text">
   <desc>SW4</desc>
   <path d="m8.2417 21.032 0.1428 0.0476"/>
   <path d="m8.3845 21.08h0.2381"/>
   <path d="m8.6226 21.08 0.0953-0.0476"/>
   <path d="m8.7179 21.032 0.0476-0.0476"/>
   <path d="m8.7655 20.985 0.0476-0.0953"/>
   <path d="m8.8131 20.889v-0.0952"/>
   <path d="m8.8131 20.794-0.0476-0.0952"/>
   <path d="m8.7655 20.699-0.0476-0.0477"/>
   <path d="m8.7179 20.651-0.0953-0.0476"/>
   <path d="m8.6226 20.604-0.1905-0.0476"/>
   <path d="m8.4321 20.556-0.0952-0.0476"/>
   <path d="m8.3369 20.508-0.0476-0.0476"/>
   <path d="m8.2893 20.461-0.0476-0.0953"/>
   <path d="m8.2417 20.366v-0.0952"/>
   <path d="m8.2417 20.27 0.0476-0.0952"/>
   <path d="m8.2893 20.175 0.0476-0.0477"/>
   <path d="m8.3369 20.127 0.0952-0.0476"/>
   <path d="m8.4321 20.08h0.2381"/>
   <path d="m8.6702 20.08 0.1429 0.0476"/>
   <path d="m9.1464 20.08 0.2381 1"/>
   <path d="m9.3845 21.08 0.1905-0.7143"/>
   <path d="m9.575 20.366 0.1905 0.7143"/>
   <path d="m9.7655 21.08 0.2381-1"/>
   <path d="m10.813 20.413v0.6666"/>
   <path d="m10.575 20.032-0.2381 0.7143"/>
   <path d="m10.337 20.746h0.6191"/>
  </g>
  <text x="28.6250" y="59.2250" font-size="1.3333" opacity="0" stroke-opacity="0" text-anchor="middle" lengthAdjust="spacingAndGlyphs" textLength="4.2500">SW13</text>
  <g class="stroked-text">
   <desc>SW13</desc>
   <path d="m26.816 59.132 0.1428 0.0476"/>
   <path d="m26.958 59.18h0.2381"/>
   <path d="m27.196 59.18 0.0953-0.0476"/>
   <path d="m27.292 59.132 0.0476-0.0476"/>
   <path d="m27.339 59.085 0.0476-0.0953"/>
   <path d="m27.387 58.989v-0.0952"/>
   <path d="m27.387 58.894-0.0476-0.0952"/>
   <path d="m27.339 58.799-0.0476-0.0477"/>
   <path d="m27.292 58.751-0.0953-0.0476"/>
   <path d="m27.196 58.704-0.1904-0.0476"/>
   <path d="m27.006 58.656-0.0953-0.0476"/>
   <path d="m26.911 58.608-0.0476-0.0476"/>
   <path d="m26.863 58.561-0.0476-0.0953"/>
   <path d="m26.816 58.466v-0.0952"/>
   <path d="m26.816 58.37 0.0476-0.0952"/>
   <path d="m26.863 58.275 0.0476-0.0477"/>
   <path d="m26.911 58.227 0.0953-0.0476"/>
   <path d="m27.006 58.18h0.238"/>
   <path d="m27.244 58.18 0.1429 0.0476"/>
   <path d="m27.72 58.18 0.2381 1"/>
   <path d="m27.958 59.18 0.1905-0.7143"/>
   <path d="m28.149 58.466 0.1905 0.7143"/>
   <path d="m28.339 59.18 0.2381-1"/>
   <path d="m29.482 59.18h-0.5714"/>
   <path d="m29.196 59.18v-1"/>
   <path d="m29.196 58.18-0.0952 0.1429"/>
   <path d="m29.101 58.323-0.0952 0.0952"/>
   <path d="m29.006 58.418-0.0953 0.0476"/>
   <path d="m29.816 58.18h0.619"/>
   <path d="m30.434 58.18-0.3333 0.381"/>
   <path d="m30.101 58.561h0.1428"/>
   <path d="m30.244 58.561 0.0953 0.0476"/>
   <path d="m30.339 58.608 0.0476 0.0476"/>
   <path d="m30.387 58.656 0.0476 0.0952"/>
   <path d="m30.434 58.751v0.2381"/>
   <path d="m30.434 58.989-0.0476 0.0953"/>
   <path d="m30.387 59.085-0.0476 0.0476"/>
   <path d="m30.339 59.132-0.0953 0.0476"/>
   <path d="m30.244 59.18h-0.2857"/>
   <path d="m29.958 59.18-0.0952-0.0476"/>
   <path d="m29.863 59.132-0.0476-0.0476"/>
  </g>
  <text x="28.6250" y="21.1250" font-size="1.3333" opacity="0" stroke-opacity="0" text-anchor="middle" lengthAdjust="spacingAndGlyphs" textLength="3.2976">SW5</text>
  <g class="stroked-text">
   <desc>SW5</desc>
   <path d="m27.292 21.032 0.1428 0.0476"/>
   <path d="m27.434 21.08h0.2381"/>
   <path d="m27.673 21.08 0.0953-0.0476"/>
   <path d="m27.768 21.032 0.0476-0.0476"/>
   <path d="m27.816 20.985 0.0476-0.0953"/>
   <path d="m27.863 20.889v-0.0952"/>
   <path d="m27.863 20.794-0.0476-0.0952"/>
   <path d="m27.816 20.699-0.0476-0.0477"/>
   <path d="m27.768 20.651-0.0953-0.0476"/>
   <path d="m27.673 20.604-0.1905-0.0476"/>
   <path d="m27.482 20.556-0.0952-0.0476"/>
   <path d="m27.387 20.508-0.0476-0.0476"/>
   <path d="m27.339 20.461-0.0476-0.0953"/>
   <path d="m27.292 20.366v-0.0952"/>
   <path d="m27.292 20.27 0.0476-0.0952"/>
   <path d="m27.339 20.175 0.0476-0.0477"/>
   <path d="m27.387 20.127 0.0952-0.0476"/>
   <path d="m27.482 20.08h0.2381"/>
   <path d="m27.72 20.08 0.1429 0.0476"/>
   <path d="m28.196 20.08 0.2381 1"/>
   <path d="m28.434 21.08 0.1905-0.7143"/>
   <path d="m28.625 20.366 0.1905 0.7143"/>
   <path d="m28.816 21.08 0.2381-1"/>
   <path d="m29.911 20.08h-0.4762"/>
   <path d="m29.434 20.08-0.0476 0.4762"/>
   <path d="m29.387 20.556 0.0476-0.0476"/>
   <path d="m29.434 20.508 0.0953-0.0476"/>
   <path d="m29.53 20.461h0.2381"/>
   <path d="m29.768 20.461 0.0952 0.0476"/>
   <path d="m29.863 20.508 0.0476 0.0476"/>
   <path d="m29.911 20.556 0.0476 0.0952"/>
   <path d="m29.958 20.651v0.2381"/>
   <path d="m29.958 20.889-0.0476 0.0953"/>
   <path d="m29.911 20.985-0.0476 0.0476"/>
   <path d="m29.863 21.032-0.0952 0.0476"/>
   <path d="m29.768 21.08h-0.2381"/>
   <path d="m29.53 21.08-0.0953-0.0476"/>
   <path d="m29.434 21.032-0.0476-0.0476"/>
  </g>
  <text x="314.3750" y="2.0750" font-size="1.3333" opacity="0" stroke-opacity="0" text-anchor="middle" lengthAdjust="spacingAndGlyphs" textLength="3.2976">SW3</text>
  <g class="stroked-text">
   <desc>SW3</desc>
   <path d="m313.04 1.9822 0.1428 0.0476"/>
   <path d="m313.18 2.0298h0.2381"/>
   <path d="m313.42 2.0298 0.0953-0.0476"/>
   <path d="m313.52 1.9822 0.0476-0.0476"/>
   <path d="m313.57 1.9346 0.0476-0.0953"/>
   <path d="m313.61 1.8393v-0.0952"/>
   <path d="m313.61 1.7441-0.0476-0.0952"/>
   <path d="m313.57 1.6489-0.0476-0.0477"/>
   <path d="m313.52 1.6012-0.0953-0.0476"/>
   <path d="m313.42 1.5536-0.1905-0.0476"/>
   <path d="m313.23 1.506-0.0952-0.0476"/>
   <path d="m313.14 1.4584-0.0476-0.0476"/>
   <path d="m313.09 1.4108-0.0476-0.0953"/>
   <path d="m313.04 1.3155v-0.0952"/>
   <path d="m313.04 1.2203 0.0476-0.0952"/>
   <path d="m313.09 1.1251 0.0476-0.0477"/>
   <path d="m313.14 1.0774 0.0952-0.0476"/>
   <path d="m313.23 1.0298h0.2381"/>
   <path d="m313.47 1.0298 0.1429 0.0476"/>
   <path d="m313.95 1.0298 0.2381 1"/>
   <path d="m314.18 2.0298 0.1905-0.7143"/>
   <path d="m314.38 1.3155 0.1905 0.7143"/>
   <path d="m314.57 2.0298 0.2381-1"/>
   <path d="m315.09 1.0298h0.619"/>
   <path d="m315.71 1.0298-0.3333 0.381"/>
   <path d="m315.38 1.4108h0.1429"/>
   <path d="m315.52 1.4108 0.0952 0.0476"/>
   <path d="m315.61 1.4584 0.0476 0.0476"/>
   <path d="m315.66 1.506 0.0476 0.0952"/>
   <path d="m315.71 1.6012v0.2381"/>
   <path d="m315.71 1.8393-0.0476 0.0953"/>
   <path d="m315.66 1.9346-0.0476 0.0476"/>
   <path d="m315.61 1.9822-0.0952 0.0476"/>
   <path d="m315.52 2.0298h-0.2858"/>
   <path d="m315.23 2.0298-0.0952-0.0476"/>
   <path d="m315.14 1.9822-0.0476-0.0476"/>
  </g>
  <text x="47.6750" y="21.1250" font-size="1.3333" opacity="0" stroke-opacity="0" text-anchor="middle" lengthAdjust="spacingAndGlyphs" textLength="3.2976">SW6</text>
  <g class="stroked-text">
   <desc>SW6</desc>
   <path d="m46.342 21.032 0.1428 0.0476"/>
   <path d="m46.484 21.08h0.2381"/>
   <path d="m46.723 21.08 0.0953-0.0476"/>
   <path d="m46.818 21.032 0.0476-0.0476"/>
   <path d="m46.866 20.985 0.0476-0.0953"/>
   <path d="m46.913 20.889v-0.0952"/>
   <path d="m46.913 20.794-0.0476-0.0952"/>
   <path d="m46.866 20.699-0.0476-0.0477"/>
   <path d="m46.818 20.651-0.0953-0.0476"/>
   <path d="m46.723 20.604-0.1905-0.0476"/>
   <path d="m46.532 20.556-0.0952-0.0476"/>
   <path d="m46.437 20.508-0.0476-0.0476"/>
   <path d="m46.389 20.461-0.0476-0.0953"/>
   <path d="m46.342 20.366v-0.0952"/>
   <path d="m46.342 20.27 0.0476-0.0952"/>
   <path d="m46.389 20.175 0.0476-0.0477"/>
   <path d="m46.437 20.127 0.0952-0.0476"/>
   <path d="m46.532 20.08h0.2381"/>
   <path d="m46.77 20.08 0.1429 0.0476"/>
   <path d="m47.246 20.08 0.2381 1"/>
   <path d="m47.484 21.08 0.1905-0.7143"/>
   <path d="m47.675 20.366 0.1905 0.7143"/>
   <path d="m47.866 21.08 0.2381-1"/>
   <path d="m48.913 20.08h-0.1905"/>
   <path d="m48.723 20.08-0.0952 0.0476"/>
   <path d="m48.627 20.127-0.0476 0.0477"/>
   <path d="m48.58 20.175-0.0953 0.1428"/>
   <path d="m48.484 20.318-0.0476 0.1905"/>
   <path d="m48.437 20.508v0.3809"/>
   <path d="m48.437 20.889 0.0476 0.0953"/>
   <path d="m48.484 20.985 0.0476 0.0476"/>
   <path d="m48.532 21.032 0.0953 0.0476"/>
   <path d="m48.627 21.08h0.1905"/>
   <path d="m48.818 21.08 0.0952-0.0476"/>
   <path d="m48.913 21.032 0.0476-0.0476"/>
   <path d="m48.961 20.985 0.0476-0.0953"/>
   <path d="m49.008 20.889v-0.2381"/>
   <path d="m49.008 20.651-0.0476-0.0952"/>
   <path d="m48.961 20.556-0.0476-0.0476"/>
   <path d="m48.913 20.508-0.0952-0.0476"/>
   <path d="m48.818 20.461h-0.1905"/>
   <path d="m48.627 20.461-0.0953 0.0476"/>
   <path d="m48.532 20.508-0.0476 0.0476"/>
   <path d="m48.484 20.556-0.0476 0.0952"/>
  </g>
  <text x="66.7250" y="21.1250" font-size="1.3333" opacity="0" stroke-opacity="0" text-anchor="middle" lengthAdjust="spacingAndGlyphs" textLength="3.2976">SW7</text>
  <g class="stroked-text">
   <desc>SW7</desc>
   <path d="m65.392 21.032 0.1428 0.0476"/>
   <path d="m65.534 21.08h0.2381"/>
   <path d="m65.773 21.08 0.0953-0.0476"/>
   <path d="m65.868 21.032 0.0476-0.0476"/>
   <path d="m65.916 20.985 0.0476-0.0953"/>
   <path d="m65.963 20.889v-0.0952"/>
   <path d="m65.963 20.794-0.0476-0.0952"/>
   <path d="m65.916 20.699-0.0476-0.0477"/>
   <path d="m65.868 20.651-0.0953-0.0476"/>
   <path d="m65.773 20.604-0.1905-0.0476"/>
   <path d="m65.582 20.556-0.0952-0.0476"/>
   <path d="m65.487 20.508-0.0476-0.0476"/>
   <path d="m65.439 20.461-0.0476-0.0953"/>
   <path d="m65.392 20.366v-0.0952"/>
   <path d="m65.392 20.27 0.0476-0.0952"/>
   <path d="m65.439 20.175 0.0476-0.0477"/>
   <path d="m65.487 20.127 0.0952-0.0476"/>
   <path d="m65.582 20.08h0.2381"/>
   <path d="m65.82 20.08 0.1429 0.0476"/>
   <path d="m66.296 20.08 0.2381 1"/>
   <path d="m66.534 21.08 0.1905-0.7143"/>
   <path d="m66.725 20.366 0.1905 0.7143"/>
   <path d="m66.916 21.08 0.2381-1"/>
   <path d="m67.439 20.08h0.6667"/>
   <path d="m68.106 20.08-0.4286 1"/>
  </g>
  <text x="9.5750" y="59.2250" font-size="1.3333" opacity="0" stroke-opacity="0" text-anchor="middle" lengthAdjust="spacingAndGlyphs" textLength="4.2500">SW12</text>
  <g class="stroked-text">
   <desc>SW12</desc>
   <path d="m7.7655 59.132 0.1428 0.0476"/>
   <path d="m7.9083 59.18h0.2381"/>
   <path d="m8.1464 59.18 0.0953-0.0476"/>
   <path d="m8.2417 59.132 0.0476-0.0476"/>
   <path d="m8.2893 59.085 0.0476-0.0953"/>
   <path d="m8.3369 58.989v-0.0952"/>
   <path d="m8.3369 58.894-0.0476-0.0952"/>
   <path d="m8.2893 58.799-0.0476-0.0477"/>
   <path d="m8.2417 58.751-0.0953-0.0476"/>
   <path d="m8.1464 58.704-0.1904-0.0476"/>
   <path d="m7.956 58.656-0.0953-0.0476"/>
   <path d="m7.8607 58.608-0.0476-0.0476"/>
   <path d="m7.8131 58.561-0.0476-0.0953"/>
   <path d="m7.7655 58.466v-0.0952"/>
   <path d="m7.7655 58.37 0.0476-0.0952"/>
   <path d="m7.8131 58.275 0.0476-0.0477"/>
   <path d="m7.8607 58.227 0.0953-0.0476"/>
   <path d="m7.956 58.18h0.238"/>
   <path d="m8.194 58.18 0.1429 0.0476"/>
   <path d="m8.6702 58.18 0.2381 1"/>
   <path d="m8.9083 59.18 0.1905-0.7143"/>
   <path d="m9.0988 58.466 0.1905 0.7143"/>
   <path d="m9.2893 59.18 0.2381-1"/>
   <path d="m10.432 59.18h-0.5714"/>
   <path d="m10.146 59.18v-1"/>
   <path d="m10.146 58.18-0.0952 0.1429"/>
   <path d="m10.051 58.323-0.0952 0.0952"/>
   <path d="m9.956 58.418-0.0953 0.0476"/>
   <path d="m10.813 58.275 0.0476-0.0477"/>
   <path d="m10.861 58.227 0.0953-0.0476"/>
   <path d="m10.956 58.18h0.238"/>
   <path d="m11.194 58.18 0.0953 0.0476"/>
   <path d="m11.289 58.227 0.0476 0.0477"/>
   <path d="m11.337 58.275 0.0476 0.0952"/>
   <path d="m11.384 58.37v0.0952"/>
   <path d="m11.384 58.466-0.0476 0.1429"/>
   <path d="m11.337 58.608-0.5714 0.5714"/>
   <path d="m10.766 59.18h0.619"/>
  </g>
 </g>
 <g fill="none" stroke="#8BE9FD" stroke-linecap="round" stroke-linejoin="round" stroke-width=".12">
  <path d="m269.18 2.475v14.2"/>
  <path d="m269.18 16.675h14.2"/>
  <path d="m283.38 2.475h-14.2"/>
  <path d="m283.38 16.675v-14.2"/>
  <path d="m40.575 59.625v14.2"/>
  <path d="m40.575 73.825h14.2"/>
  <path d="m54.775 59.625h-14.2"/>
  <path d="m54.775 73.825v-14.2"/>
  <path d="m40.575 40.575v14.2"/>
  <path d="m40.575 54.775h14.2"/>
  <path d="m54.775 40.575h-14.2"/>
  <path d="m54.775 54.775v-14.2"/>
  <path d="m59.625 59.625v14.2"/>
  <path d="m59.625 73.825h14.2"/>
  <path d="m73.825 59.625h-14.2"/>
  <path d="m73.825 73.825v-14.2"/>
  <path d="m2.475 40.575v14.2"/>
  <path d="m2.475 54.775h14.2"/>
  <path d="m16.675 40.575h-14.2"/>
  <path d="m16.675 54.775v-14.2"/>
  <path d="m288.22 2.475v14.2"/>
  <path d="m288.22 16.675h14.2"/>
  <path d="m302.42 2.475h-14.2"/>
  <path d="m302.42 16.675v-14.2"/>
  <path d="m59.625 40.575v14.2"/>
  <path d="m59.625 54.775h14.2"/>
  <path d="m73.825 40.575h-14.2"/>
  <path d="m73.825 54.775v-14.2"/>
  <path d="m21.525 40.575v14.2"/>
  <path d="m21.525 54.775h14.2"/>
  <path d="m35.725 40.575h-14.2"/>
  <path d="m35.725 54.775v-14.2"/>
  <path d="m2.475 21.525v14.2"/>
  <path d="m2.475 35.725h14.2"/>
  <path d="m16.675 21.525h-14.2"/>
  <path d="m16.675 35.725v-14.2"/>
  <path d="m21.525 59.625v14.2"/>
  <path d="m21.525 73.825h14.2"/>
  <path d="m35.725 59.625h-14.2"/>
  <path d="m35.725 73.825v-14.2"/>
  <path d="m21.525 21.525v14.2"/>
  <path d="m21.525 35.725h14.2"/>
  <path d="m35.725 21.525h-14.2"/>
  <path d="m35.725 35.725v-14.2"/>
  <path d="m307.28 2.475v14.2"/>
  <path d="m307.28 16.675h14.2"/>
  <path d="m321.48 2.475h-14.2"/>
  <path d="m321.48 16.675v-14.2"/>
  <path d="m40.575 21.525v14.2"/>
  <path d="m40.575 35.725h14.2"/>
  <path d="m54.775 21.525h-14.2"/>
  <path d="m54.775 35.725v-14.2"/>
  <path d="m59.625 21.525v14.2"/>
  <path d="m59.625 35.725h14.2"/>
  <path d="m73.825 21.525h-14.2"/>
  <path d="m73.825 35.725v-14.2"/>
  <path d="m2.475 59.625v14.2"/>
  <path d="m2.475 73.825h14.2"/>
  <path d="m16.675 59.625h-14.2"/>
  <path d="m16.675 73.825v-14.2"/>
 </g>
 <g fill="#8BE9FD">
  <circle cx="271.2" cy="9.575" r=".875"/>
  <circle cx="276.28" cy="9.575" r="2"/>
  <circle cx="281.36" cy="9.575" r=".875"/>
  <circle cx="272.46" cy="7.035" r=".75"/>
  <circle cx="278.82" cy="4.495" r=".75"/>
  <circle cx="42.595" cy="66.725" r=".875"/>
  <circle cx="47.675" cy="66.725" r="2"/>
  <circle cx="52.755" cy="66.725" r=".875"/>
  <circle cx="43.865" cy="64.185" r=".75"/>
  <circle cx="50.215" cy="61.645" r=".75"/>
  <circle cx="42.595" cy="47.675" r=".875"/>
  <circle cx="47.675" cy="47.675" r="2"/>
  <circle cx="52.755" cy="47.675" r=".875"/>
  <circle cx="43.865" cy="45.135" r=".75"/>
  <circle cx="50.215" cy="42.595" r=".75"/>
  <circle cx="61.645" cy="66.725" r=".875"/>
  <circle cx="66.725" cy="66.725" r="2"/>
  <circle cx="71.805" cy="66.725" r=".875"/>
  <circle cx="62.915" cy="64.185" r=".75"/>
  <circle cx="69.265" cy="61.645" r=".75"/>
  <circle cx="4.495" cy="47.675" r=".875"/>
  <circle cx="9.575" cy="47.675" r="2"/>
  <circle cx="14.655" cy="47.675" r=".875"/>
  <circle cx="5.765" cy="45.135" r=".75"/>
  <circle cx="12.115" cy="42.595" r=".75"/>
  <circle cx="290.24" cy="9.575" r=".875"/>
  <circle cx="295.32" cy="9.575" r="2"/>
  <circle cx="300.4" cy="9.575" r=".875"/>
  <circle cx="291.52" cy="7.035" r=".75"/>
  <circle cx="297.86" cy="4.495" r=".75"/>
  <circle cx="61.645" cy="47.675" r=".875"/>
  <circle cx="66.725" cy="47.675" r="2"/>
  <circle cx="71.805" cy="47.675" r=".875"/>
  <circle cx="62.915" cy="45.135" r=".75"/>
  <circle cx="69.265" cy="42.595" r=".75"/>
  <circle cx="23.545" cy="47.675" r=".875"/>
  <circle cx="28.625" cy="47.675" r="2"/>
  <circle cx="33.705" cy="47.675" r=".875"/>
  <circle cx="24.815" cy="45.135" r=".75"/>
  <circle cx="31.165" cy="42.595" r=".75"/>
  <circle cx="4.495" cy="28.625" r=".875"/>
  <circle cx="9.575" cy="28.625" r="2"/>
  <circle cx="14.655" cy="28.625" r=".875"/>
  <circle cx="5.765" cy="26.085" r=".75"/>
  <circle cx="12.115" cy="23.545" r=".75"/>
  <circle cx="23.545" cy="66.725" r=".875"/>
  <circle cx="28.625" cy="66.725" r="2"/>
  <circle cx="33.705" cy="66.725" r=".875"/>
  <circle cx="24.815" cy="64.185" r=".75"/>
  <circle cx="31.165" cy="61.645" r=".75"/>
  <circle cx="23.545" cy="28.625" r=".875"/>
  <circle cx="28.625" cy="28.625" r="2"/>
  <circle cx="33.705" cy="28.625" r=".875"/>
  <circle cx="24.815" cy="26.085" r=".75"/>
  <circle cx="31.165" cy="23.545" r=".75"/>
  <circle cx="309.3" cy="9.575" r=".875"/>
  <circle cx="314.38" cy="9.575" r="2"/>
  <circle cx="319.46" cy="9.575" r=".875"/>
  <circle cx="310.56" cy="7.035" r=".75"/>
  <circle cx="316.92" cy="4.495" r=".75"/>
  <circle cx="42.595" cy="28.625" r=".875"/>
  <circle cx="47.675" cy="28.625" r="2"/>
  <circle cx="52.755" cy="28.625" r=".875"/>
  <circle cx="43.865" cy="26.085" r=".75"/>
  <circle cx="50.215" cy="23.545" r=".75"/>
  <circle cx="61.645" cy="28.625" r=".875"/>
  <circle cx="66.725" cy="28.625" r="2"/>
  <circle cx="71.805" cy="28.625" r=".875"/>
  <circle cx="62.915" cy="26.085" r=".75"/>
  <circle cx="69.265" cy="23.545" r=".75"/>
  <circle cx="4.495" cy="66.725" r=".875"/>
  <circle cx="9.575" cy="66.725" r="2"/>
  <circle cx="14.655" cy="66.725" r=".875"/>
  <circle cx="5.765" cy="64.185" r=".75"/>
  <circle cx="12.115" cy="61.645" r=".75"/>
 </g>
 <g fill="none" stroke="#BD93F9" stroke-linecap="round" stroke-linejoin="round" stroke-width=".15">
  <g transform="rotate(-90 73.71 51.802)">
   <text transform="scale(-1 1) translate(-147.42)" x="73.7100" y="52.3020" font-size="1.3333" opacity="0" stroke-opacity="0" text-anchor="middle" lengthAdjust="spacingAndGlyphs" textLength="3.1548">D11</text>
  </g>
  <g class="stroked-text">
   <desc>D11</desc>
   <path d="m74.165 50.588h-1"/>
   <path d="m73.165 50.588v0.2381"/>
   <path d="m73.165 50.826 0.0476 0.1429"/>
   <path d="m73.212 50.969 0.0953 0.0952"/>
   <path d="m73.308 51.064 0.0952 0.0476"/>
   <path d="m73.403 51.112 0.1905 0.0476"/>
   <path d="m73.593 51.159h0.1428"/>
   <path d="m73.736 51.159 0.1905-0.0476"/>
   <path d="m73.927 51.112 0.0953-0.0476"/>
   <path d="m74.022 51.064 0.0952-0.0952"/>
   <path d="m74.117 50.969 0.0476-0.1429"/>
   <path d="m74.165 50.826v-0.2381"/>
   <path d="m74.165 52.112v-0.5714"/>
   <path d="m74.165 51.826h-1"/>
   <path d="m73.165 51.826 0.1429-0.0952"/>
   <path d="m73.308 51.731 0.0952-0.0953"/>
   <path d="m73.403 51.635 0.0476-0.0952"/>
   <path d="m74.165 53.064v-0.5714"/>
   <path d="m74.165 52.778h-1"/>
   <path d="m73.165 52.778 0.1429-0.0952"/>
   <path d="m73.308 52.683 0.0952-0.0953"/>
   <path d="m73.403 52.588 0.0476-0.0952"/>
  </g>
  <g transform="rotate(-90 16.56 51.802)">
   <text transform="scale(-1 1) translate(-33.12)" x="16.5600" y="52.3020" font-size="1.3333" opacity="0" stroke-opacity="0" text-anchor="middle" lengthAdjust="spacingAndGlyphs" textLength="2.2024">D8</text>
  </g>
  <g class="stroked-text">
   <desc>D8</desc>
   <path d="m17.015 51.064h-1"/>
   <path d="m16.015 51.064v0.2381"/>
   <path d="m16.015 51.302 0.0476 0.1429"/>
   <path d="m16.062 51.445 0.0953 0.0952"/>
   <path d="m16.158 51.54 0.0952 0.0476"/>
   <path d="m16.253 51.588 0.1905 0.0476"/>
   <path d="m16.443 51.635h0.1428"/>
   <path d="m16.586 51.635 0.1905-0.0476"/>
   <path d="m16.777 51.588 0.0953-0.0476"/>
   <path d="m16.872 51.54 0.0952-0.0952"/>
   <path d="m16.967 51.445 0.0476-0.1429"/>
   <path d="m17.015 51.302v-0.2381"/>
   <path d="m16.443 52.207-0.0476-0.0953"/>
   <path d="m16.396 52.112-0.0476-0.0476"/>
   <path d="m16.348 52.064-0.0953-0.0476"/>
   <path d="m16.253 52.016h-0.0476"/>
   <path d="m16.205 52.016-0.0952 0.0476"/>
   <path d="m16.11 52.064-0.0477 0.0476"/>
   <path d="m16.062 52.112-0.0476 0.0953"/>
   <path d="m16.015 52.207v0.1904"/>
   <path d="m16.015 52.397 0.0476 0.0953"/>
   <path d="m16.062 52.492 0.0477 0.0476"/>
   <path d="m16.11 52.54 0.0952 0.0476"/>
   <path d="m16.205 52.588h0.0476"/>
   <path d="m16.253 52.588 0.0953-0.0476"/>
   <path d="m16.348 52.54 0.0476-0.0476"/>
   <path d="m16.396 52.492 0.0476-0.0953"/>
   <path d="m16.443 52.397v-0.1904"/>
   <path d="m16.443 52.207 0.0476-0.0953"/>
   <path d="m16.491 52.112 0.0476-0.0476"/>
   <path d="m16.539 52.064 0.0953-0.0476"/>
   <path d="m16.634 52.016h0.1904"/>
   <path d="m16.824 52.016 0.0953 0.0476"/>
   <path d="m16.92 52.064 0.0476 0.0476"/>
   <path d="m16.967 52.112 0.0476 0.0953"/>
   <path d="m17.015 52.207v0.1904"/>
   <path d="m17.015 52.397-0.0476 0.0953"/>
   <path d="m16.967 52.492-0.0476 0.0476"/>
   <path d="m16.92 52.54-0.0953 0.0476"/>
   <path d="m16.824 52.588h-0.1904"/>
   <path d="m16.634 52.588-0.0953-0.0476"/>
   <path d="m16.539 52.54-0.0476-0.0476"/>
   <path d="m16.491 52.492-0.0476-0.0953"/>
  </g>
  <g transform="rotate(-90 73.71 32.752)">
   <text transform="scale(-1 1) translate(-147.42)" x="73.7100" y="33.2520" font-size="1.3333" opacity="0" stroke-opacity="0" text-anchor="middle" lengthAdjust="spacingAndGlyphs" textLength="2.2024">D7</text>
  </g>
  <g class="stroked-text">
   <desc>D7</desc>
   <path d="m74.165 32.014h-1"/>
   <path d="m73.165 32.014v0.2381"/>
   <path d="m73.165 32.252 0.0476 0.1429"/>
   <path d="m73.212 32.395 0.0953 0.0952"/>
   <path d="m73.308 32.49 0.0952 0.0476"/>
   <path d="m73.403 32.538 0.1905 0.0476"/>
   <path d="m73.593 32.585h0.1428"/>
   <path d="m73.736 32.585 0.1905-0.0476"/>
   <path d="m73.927 32.538 0.0953-0.0476"/>
   <path d="m74.022 32.49 0.0952-0.0952"/>
   <path d="m74.117 32.395 0.0476-0.1429"/>
   <path d="m74.165 32.252v-0.2381"/>
   <path d="m73.165 32.919v0.6666"/>
   <path d="m73.165 33.585 1-0.4285"/>
  </g>
  <g transform="rotate(-90 283.26 13.702)">
   <text transform="scale(-1 1) translate(-566.52)" x="283.2600" y="14.2020" font-size="1.3333" opacity="0" stroke-opacity="0" text-anchor="middle" lengthAdjust="spacingAndGlyphs" textLength="2.2024">D1</text>
  </g>
  <g class="stroked-text">
   <desc>D1</desc>
   <path d="m283.71 12.964h-1"/>
   <path d="m282.71 12.964v0.2381"/>
   <path d="m282.71 13.202 0.0476 0.1429"/>
   <path d="m282.76 13.345 0.0953 0.0952"/>
   <path d="m282.86 13.44 0.0952 0.0476"/>
   <path d="m282.95 13.488 0.1905 0.0476"/>
   <path d="m283.14 13.535h0.1428"/>
   <path d="m283.29 13.535 0.1905-0.0476"/>
   <path d="m283.48 13.488 0.0953-0.0476"/>
   <path d="m283.57 13.44 0.0952-0.0952"/>
   <path d="m283.67 13.345 0.0476-0.1429"/>
   <path d="m283.71 13.202v-0.2381"/>
   <path d="m283.71 14.488v-0.5714"/>
   <path d="m283.71 14.202h-1"/>
   <path d="m282.71 14.202 0.1429-0.0952"/>
   <path d="m282.86 14.107 0.0952-0.0953"/>
   <path d="m282.95 14.012 0.0476-0.0952"/>
  </g>
  <g transform="rotate(-90 73.71 70.852)">
   <text transform="scale(-1 1) translate(-147.42)" x="73.7100" y="71.3520" font-size="1.3333" opacity="0" stroke-opacity="0" text-anchor="middle" lengthAdjust="spacingAndGlyphs" textLength="3.1548">D15</text>
  </g>
  <g class="stroked-text">
   <desc>D15</desc>
   <path d="m74.165 69.638h-1"/>
   <path d="m73.165 69.638v0.2381"/>
   <path d="m73.165 69.876 0.0476 0.1429"/>
   <path d="m73.212 70.019 0.0953 0.0952"/>
   <path d="m73.308 70.114 0.0952 0.0476"/>
   <path d="m73.403 70.162 0.1905 0.0476"/>
   <path d="m73.593 70.209h0.1428"/>
   <path d="m73.736 70.209 0.1905-0.0476"/>
   <path d="m73.927 70.162 0.0953-0.0476"/>
   <path d="m74.022 70.114 0.0952-0.0952"/>
   <path d="m74.117 70.019 0.0476-0.1429"/>
   <path d="m74.165 69.876v-0.2381"/>
   <path d="m74.165 71.162v-0.5714"/>
   <path d="m74.165 70.876h-1"/>
   <path d="m73.165 70.876 0.1429-0.0952"/>
   <path d="m73.308 70.781 0.0952-0.0953"/>
   <path d="m73.403 70.685 0.0476-0.0952"/>
   <path d="m73.165 72.066v-0.4762"/>
   <path d="m73.165 71.59 0.4762-0.0476"/>
   <path d="m73.641 71.542-0.0476 0.0476"/>
   <path d="m73.593 71.59-0.0476 0.0952"/>
   <path d="m73.546 71.685v0.2381"/>
   <path d="m73.546 71.923 0.0476 0.0953"/>
   <path d="m73.593 72.019 0.0476 0.0476"/>
   <path d="m73.641 72.066 0.0952 0.0476"/>
   <path d="m73.736 72.114h0.2381"/>
   <path d="m73.974 72.114 0.0953-0.0476"/>
   <path d="m74.07 72.066 0.0476-0.0476"/>
   <path d="m74.117 72.019 0.0476-0.0953"/>
   <path d="m74.165 71.923v-0.2381"/>
   <path d="m74.165 71.685-0.0476-0.0952"/>
   <path d="m74.117 71.59-0.0476-0.0476"/>
  </g>
  <g transform="rotate(-90 35.61 51.802)">
   <text transform="scale(-1 1) translate(-71.22)" x="35.6100" y="52.3020" font-size="1.3333" opacity="0" stroke-opacity="0" text-anchor="middle" lengthAdjust="spacingAndGlyphs" textLength="2.2024">D9</text>
  </g>
  <g class="stroked-text">
   <desc>D9</desc>
   <path d="m36.065 51.064h-1"/>
   <path d="m35.065 51.064v0.2381"/>
   <path d="m35.065 51.302 0.0476 0.1429"/>
   <path d="m35.112 51.445 0.0953 0.0952"/>
   <path d="m35.208 51.54 0.0952 0.0476"/>
   <path d="m35.303 51.588 0.1905 0.0476"/>
   <path d="m35.493 51.635h0.1428"/>
   <path d="m35.636 51.635 0.1905-0.0476"/>
   <path d="m35.827 51.588 0.0953-0.0476"/>
   <path d="m35.922 51.54 0.0952-0.0952"/>
   <path d="m36.017 51.445 0.0476-0.1429"/>
   <path d="m36.065 51.302v-0.2381"/>
   <path d="m36.065 52.112v0.1905"/>
   <path d="m36.065 52.302-0.0476 0.0952"/>
   <path d="m36.017 52.397-0.0476 0.0477"/>
   <path d="m35.97 52.445-0.1429 0.0952"/>
   <path d="m35.827 52.54-0.1905 0.0476"/>
   <path d="m35.636 52.588h-0.3809"/>
   <path d="m35.255 52.588-0.0952-0.0476"/>
   <path d="m35.16 52.54-0.0477-0.0476"/>
   <path d="m35.112 52.492-0.0476-0.0953"/>
   <path d="m35.065 52.397v-0.1904"/>
   <path d="m35.065 52.207 0.0476-0.0953"/>
   <path d="m35.112 52.112 0.0477-0.0476"/>
   <path d="m35.16 52.064 0.0952-0.0476"/>
   <path d="m35.255 52.016h0.2381"/>
   <path d="m35.493 52.016 0.0952 0.0476"/>
   <path d="m35.589 52.064 0.0476 0.0476"/>
   <path d="m35.636 52.112 0.0477 0.0953"/>
   <path d="m35.684 52.207v0.1904"/>
   <path d="m35.684 52.397-0.0477 0.0953"/>
   <path d="m35.636 52.492-0.0476 0.0476"/>
   <path d="m35.589 52.54-0.0952 0.0476"/>
  </g>
  <g transform="rotate(-90 54.66 51.802)">
   <text transform="scale(-1 1) translate(-109.32)" x="54.6600" y="52.3020" font-size="1.3333" opacity="0" stroke-opacity="0" text-anchor="middle" lengthAdjust="spacingAndGlyphs" textLength="3.1548">D10</text>
  </g>
  <g class="stroked-text">
   <desc>D10</desc>
   <path d="m55.115 50.588h-1"/>
   <path d="m54.115 50.588v0.2381"/>
   <path d="m54.115 50.826 0.0476 0.1429"/>
   <path d="m54.162 50.969 0.0953 0.0952"/>
   <path d="m54.258 51.064 0.0952 0.0476"/>
   <path d="m54.353 51.112 0.1905 0.0476"/>
   <path d="m54.543 51.159h0.1428"/>
   <path d="m54.686 51.159 0.1905-0.0476"/>
   <path d="m54.877 51.112 0.0953-0.0476"/>
   <path d="m54.972 51.064 0.0952-0.0952"/>
   <path d="m55.067 50.969 0.0476-0.1429"/>
   <path d="m55.115 50.826v-0.2381"/>
   <path d="m55.115 52.112v-0.5714"/>
   <path d="m55.115 51.826h-1"/>
   <path d="m54.115 51.826 0.1429-0.0952"/>
   <path d="m54.258 51.731 0.0952-0.0953"/>
   <path d="m54.353 51.635 0.0476-0.0952"/>
   <path d="m54.115 52.731v0.0952"/>
   <path d="m54.115 52.826 0.0476 0.0952"/>
   <path d="m54.162 52.921 0.0477 0.0477"/>
   <path d="m54.21 52.969 0.0952 0.0476"/>
   <path d="m54.305 53.016 0.1905 0.0476"/>
   <path d="m54.496 53.064h0.2381"/>
   <path d="m54.734 53.064 0.1904-0.0476"/>
   <path d="m54.924 53.016 0.0953-0.0476"/>
   <path d="m55.02 52.969 0.0476-0.0477"/>
   <path d="m55.067 52.921 0.0476-0.0952"/>
   <path d="m55.115 52.826v-0.0952"/>
   <path d="m55.115 52.731-0.0476-0.0953"/>
   <path d="m55.067 52.635-0.0476-0.0476"/>
   <path d="m55.02 52.588-0.0953-0.0476"/>
   <path d="m54.924 52.54-0.1904-0.0476"/>
   <path d="m54.734 52.492h-0.2381"/>
   <path d="m54.496 52.492-0.1905 0.0476"/>
   <path d="m54.305 52.54-0.0952 0.0476"/>
   <path d="m54.21 52.588-0.0477 0.0476"/>
   <path d="m54.162 52.635-0.0476 0.0953"/>
  </g>
  <g transform="rotate(-90 16.56 32.752)">
   <text transform="scale(-1 1) translate(-33.12)" x="16.5600" y="33.2520" font-size="1.3333" opacity="0" stroke-opacity="0" text-anchor="middle" lengthAdjust="spacingAndGlyphs" textLength="2.2024">D4</text>
  </g>
  <g class="stroked-text">
   <desc>D4</desc>
   <path d="m17.015 32.014h-1"/>
   <path d="m16.015 32.014v0.2381"/>
   <path d="m16.015 32.252 0.0476 0.1429"/>
   <path d="m16.062 32.395 0.0953 0.0952"/>
   <path d="m16.158 32.49 0.0952 0.0476"/>
   <path d="m16.253 32.538 0.1905 0.0476"/>
   <path d="m16.443 32.585h0.1428"/>
   <path d="m16.586 32.585 0.1905-0.0476"/>
   <path d="m16.777 32.538 0.0953-0.0476"/>
   <path d="m16.872 32.49 0.0952-0.0952"/>
   <path d="m16.967 32.395 0.0476-0.1429"/>
   <path d="m17.015 32.252v-0.2381"/>
   <path d="m16.348 33.442h0.6666"/>
   <path d="m15.967 33.204 0.7143-0.2381"/>
   <path d="m16.682 32.966v0.619"/>
  </g>
  <g transform="rotate(-90 54.66 70.852)">
   <text transform="scale(-1 1) translate(-109.32)" x="54.6600" y="71.3520" font-size="1.3333" opacity="0" stroke-opacity="0" text-anchor="middle" lengthAdjust="spacingAndGlyphs" textLength="3.1548">D14</text>
  </g>
  <g class="stroked-text">
   <desc>D14</desc>
   <path d="m55.115 69.638h-1"/>
   <path d="m54.115 69.638v0.2381"/>
   <path d="m54.115 69.876 0.0476 0.1429"/>
   <path d="m54.162 70.019 0.0953 0.0952"/>
   <path d="m54.258 70.114 0.0952 0.0476"/>
   <path d="m54.353 70.162 0.1905 0.0476"/>
   <path d="m54.543 70.209h0.1428"/>
   <path d="m54.686 70.209 0.1905-0.0476"/>
   <path d="m54.877 70.162 0.0953-0.0476"/>
   <path d="m54.972 70.114 0.0952-0.0952"/>
   <path d="m55.067 70.019 0.0476-0.1429"/>
   <path d="m55.115 69.876v-0.2381"/>
   <path d="m55.115 71.162v-0.5714"/>
   <path d="m55.115 70.876h-1"/>
   <path d="m54.115 70.876 0.1429-0.0952"/>
   <path d="m54.258 70.781 0.0952-0.0953"/>
   <path d="m54.353 70.685 0.0476-0.0952"/>
   <path d="m54.448 72.019h0.6666"/>
   <path d="m54.067 71.781 0.7143-0.2381"/>
   <path d="m54.782 71.542v0.619"/>
  </g>
  <g transform="rotate(-90 35.61 70.852)">
   <text transform="scale(-1 1) translate(-71.22)" x="35.6100" y="71.3520" font-size="1.3333" opacity="0" stroke-opacity="0" text-anchor="middle" lengthAdjust="spacingAndGlyphs" textLength="3.1548">D13</text>
  </g>
  <g class="stroked-text">
   <desc>D13</desc>
   <path d="m36.065 69.638h-1"/>
   <path d="m35.065 69.638v0.2381"/>
   <path d="m35.065 69.876 0.0476 0.1429"/>
   <path d="m35.112 70.019 0.0953 0.0952"/>
   <path d="m35.208 70.114 0.0952 0.0476"/>
   <path d="m35.303 70.162 0.1905 0.0476"/>
   <path d="m35.493 70.209h0.1428"/>
   <path d="m35.636 70.209 0.1905-0.0476"/>
   <path d="m35.827 70.162 0.0953-0.0476"/>
   <path d="m35.922 70.114 0.0952-0.0952"/>
   <path d="m36.017 70.019 0.0476-0.1429"/>
   <path d="m36.065 69.876v-0.2381"/>
   <path d="m36.065 71.162v-0.5714"/>
   <path d="m36.065 70.876h-1"/>
   <path d="m35.065 70.876 0.1429-0.0952"/>
   <path d="m35.208 70.781 0.0952-0.0953"/>
   <path d="m35.303 70.685 0.0476-0.0952"/>
   <path d="m35.065 71.495v0.619"/>
   <path d="m35.065 72.114 0.381-0.3333"/>
   <path d="m35.446 71.781v0.1428"/>
   <path d="m35.446 71.923 0.0476 0.0953"/>
   <path d="m35.493 72.019 0.0476 0.0476"/>
   <path d="m35.541 72.066 0.0952 0.0476"/>
   <path d="m35.636 72.114h0.2381"/>
   <path d="m35.874 72.114 0.0953-0.0476"/>
   <path d="m35.97 72.066 0.0476-0.0476"/>
   <path d="m36.017 72.019 0.0476-0.0953"/>
   <path d="m36.065 71.923v-0.2857"/>
   <path d="m36.065 71.638-0.0476-0.0952"/>
   <path d="m36.017 71.542-0.0476-0.0476"/>
  </g>
  <g transform="rotate(-90 35.61 32.752)">
   <text transform="scale(-1 1) translate(-71.22)" x="35.6100" y="33.2520" font-size="1.3333" opacity="0" stroke-opacity="0" text-anchor="middle" lengthAdjust="spacingAndGlyphs" textLength="2.2024">D5</text>
  </g>
  <g class="stroked-text">
   <desc>D5</desc>
   <path d="m36.065 32.014h-1"/>
   <path d="m35.065 32.014v0.2381"/>
   <path d="m35.065 32.252 0.0476 0.1429"/>
   <path d="m35.112 32.395 0.0953 0.0952"/>
   <path d="m35.208 32.49 0.0952 0.0476"/>
   <path d="m35.303 32.538 0.1905 0.0476"/>
   <path d="m35.493 32.585h0.1428"/>
   <path d="m35.636 32.585 0.1905-0.0476"/>
   <path d="m35.827 32.538 0.0953-0.0476"/>
   <path d="m35.922 32.49 0.0952-0.0952"/>
   <path d="m36.017 32.395 0.0476-0.1429"/>
   <path d="m36.065 32.252v-0.2381"/>
   <path d="m35.065 33.49v-0.4762"/>
   <path d="m35.065 33.014 0.4762-0.0476"/>
   <path d="m35.541 32.966-0.0476 0.0476"/>
   <path d="m35.493 33.014-0.0476 0.0952"/>
   <path d="m35.446 33.109v0.2381"/>
   <path d="m35.446 33.347 0.0476 0.0953"/>
   <path d="m35.493 33.442 0.0476 0.0476"/>
   <path d="m35.541 33.49 0.0952 0.0476"/>
   <path d="m35.636 33.538h0.2381"/>
   <path d="m35.874 33.538 0.0953-0.0476"/>
   <path d="m35.97 33.49 0.0476-0.0476"/>
   <path d="m36.017 33.442 0.0476-0.0953"/>
   <path d="m36.065 33.347v-0.2381"/>
   <path d="m36.065 33.109-0.0476-0.0952"/>
   <path d="m36.017 33.014-0.0476-0.0476"/>
  </g>
  <g transform="rotate(-90 321.36 13.702)">
   <text transform="scale(-1 1) translate(-642.72)" x="321.3600" y="14.2020" font-size="1.3333" opacity="0" stroke-opacity="0" text-anchor="middle" lengthAdjust="spacingAndGlyphs" textLength="2.2024">D3</text>
  </g>
  <g class="stroked-text">
   <desc>D3</desc>
   <path d="m321.81 12.964h-1"/>
   <path d="m320.81 12.964v0.2381"/>
   <path d="m320.81 13.202 0.0476 0.1429"/>
   <path d="m320.86 13.345 0.0953 0.0952"/>
   <path d="m320.96 13.44 0.0952 0.0476"/>
   <path d="m321.05 13.488 0.1905 0.0476"/>
   <path d="m321.24 13.535h0.1428"/>
   <path d="m321.39 13.535 0.1905-0.0476"/>
   <path d="m321.58 13.488 0.0953-0.0476"/>
   <path d="m321.67 13.44 0.0952-0.0952"/>
   <path d="m321.77 13.345 0.0476-0.1429"/>
   <path d="m321.81 13.202v-0.2381"/>
   <path d="m320.81 13.869v0.619"/>
   <path d="m320.81 14.488 0.381-0.3333"/>
   <path d="m321.2 14.154v0.1428"/>
   <path d="m321.2 14.297 0.0476 0.0953"/>
   <path d="m321.24 14.392 0.0476 0.0476"/>
   <path d="m321.29 14.44 0.0952 0.0476"/>
   <path d="m321.39 14.488h0.2381"/>
   <path d="m321.62 14.488 0.0953-0.0476"/>
   <path d="m321.72 14.44 0.0476-0.0476"/>
   <path d="m321.77 14.392 0.0476-0.0953"/>
   <path d="m321.81 14.297v-0.2857"/>
   <path d="m321.81 14.012-0.0476-0.0952"/>
   <path d="m321.77 13.916-0.0476-0.0476"/>
  </g>
  <g transform="rotate(-90 302.31 13.702)">
   <text transform="scale(-1 1) translate(-604.62)" x="302.3100" y="14.2020" font-size="1.3333" opacity="0" stroke-opacity="0" text-anchor="middle" lengthAdjust="spacingAndGlyphs" textLength="2.2024">D2</text>
  </g>
  <g class="stroked-text">
   <desc>D2</desc>
   <path d="m302.76 12.964h-1"/>
   <path d="m301.76 12.964v0.2381"/>
   <path d="m301.76 13.202 0.0476 0.1429"/>
   <path d="m301.81 13.345 0.0953 0.0952"/>
   <path d="m301.91 13.44 0.0952 0.0476"/>
   <path d="m302 13.488 0.1905 0.0476"/>
   <path d="m302.19 13.535h0.1428"/>
   <path d="m302.34 13.535 0.1905-0.0476"/>
   <path d="m302.53 13.488 0.0953-0.0476"/>
   <path d="m302.62 13.44 0.0952-0.0952"/>
   <path d="m302.72 13.345 0.0476-0.1429"/>
   <path d="m302.76 13.202v-0.2381"/>
   <path d="m301.86 13.916-0.0477 0.0476"/>
   <path d="m301.81 13.964-0.0476 0.0952"/>
   <path d="m301.76 14.059v0.2381"/>
   <path d="m301.76 14.297 0.0476 0.0953"/>
   <path d="m301.81 14.392 0.0477 0.0476"/>
   <path d="m301.86 14.44 0.0952 0.0476"/>
   <path d="m301.96 14.488h0.0952"/>
   <path d="m302.05 14.488 0.1429-0.0476"/>
   <path d="m302.19 14.44 0.5714-0.5714"/>
   <path d="m302.76 13.869v0.619"/>
  </g>
  <g transform="rotate(-90 54.66 32.752)">
   <text transform="scale(-1 1) translate(-109.32)" x="54.6600" y="33.2520" font-size="1.3333" opacity="0" stroke-opacity="0" text-anchor="middle" lengthAdjust="spacingAndGlyphs" textLength="2.2024">D6</text>
  </g>
  <g class="stroked-text">
   <desc>D6</desc>
   <path d="m55.115 32.014h-1"/>
   <path d="m54.115 32.014v0.2381"/>
   <path d="m54.115 32.252 0.0476 0.1429"/>
   <path d="m54.162 32.395 0.0953 0.0952"/>
   <path d="m54.258 32.49 0.0952 0.0476"/>
   <path d="m54.353 32.538 0.1905 0.0476"/>
   <path d="m54.543 32.585h0.1428"/>
   <path d="m54.686 32.585 0.1905-0.0476"/>
   <path d="m54.877 32.538 0.0953-0.0476"/>
   <path d="m54.972 32.49 0.0952-0.0952"/>
   <path d="m55.067 32.395 0.0476-0.1429"/>
   <path d="m55.115 32.252v-0.2381"/>
   <path d="m54.115 33.442v-0.1905"/>
   <path d="m54.115 33.252 0.0476-0.0952"/>
   <path d="m54.162 33.157 0.0477-0.0477"/>
   <path d="m54.21 33.109 0.1428-0.0952"/>
   <path d="m54.353 33.014 0.1905-0.0476"/>
   <path d="m54.543 32.966h0.3809"/>
   <path d="m54.924 32.966 0.0953 0.0476"/>
   <path d="m55.02 33.014 0.0476 0.0476"/>
   <path d="m55.067 33.062 0.0476 0.0953"/>
   <path d="m55.115 33.157v0.1904"/>
   <path d="m55.115 33.347-0.0476 0.0953"/>
   <path d="m55.067 33.442-0.0476 0.0476"/>
   <path d="m55.02 33.49-0.0953 0.0476"/>
   <path d="m54.924 33.538h-0.2381"/>
   <path d="m54.686 33.538-0.0952-0.0476"/>
   <path d="m54.591 33.49-0.0476-0.0476"/>
   <path d="m54.543 33.442-0.0476-0.0953"/>
   <path d="m54.496 33.347v-0.1904"/>
   <path d="m54.496 33.157 0.0476-0.0953"/>
   <path d="m54.543 33.062 0.0476-0.0476"/>
   <path d="m54.591 33.014 0.0952-0.0476"/>
  </g>
  <g transform="rotate(-90 16.56 70.852)">
   <text transform="scale(-1 1) translate(-33.12)" x="16.5600" y="71.3520" font-size="1.3333" opacity="0" stroke-opacity="0" text-anchor="middle" lengthAdjust="spacingAndGlyphs" textLength="3.1548">D12</text>
  </g>
  <g class="stroked-text">
   <desc>D12</desc>
   <path d="m17.015 69.638h-1"/>
   <path d="m16.015 69.638v0.2381"/>
   <path d="m16.015 69.876 0.0476 0.1429"/>
   <path d="m16.062 70.019 0.0953 0.0952"/>
   <path d="m16.158 70.114 0.0952 0.0476"/>
   <path d="m16.253 70.162 0.1905 0.0476"/>
   <path d="m16.443 70.209h0.1428"/>
   <path d="m16.586 70.209 0.1905-0.0476"/>
   <path d="m16.777 70.162 0.0953-0.0476"/>
   <path d="m16.872 70.114 0.0952-0.0952"/>
   <path d="m16.967 70.019 0.0476-0.1429"/>
   <path d="m17.015 69.876v-0.2381"/>
   <path d="m17.015 71.162v-0.5714"/>
   <path d="m17.015 70.876h-1"/>
   <path d="m16.015 70.876 0.1429-0.0952"/>
   <path d="m16.158 70.781 0.0952-0.0953"/>
   <path d="m16.253 70.685 0.0476-0.0952"/>
   <path d="m16.11 71.542-0.0477 0.0476"/>
   <path d="m16.062 71.59-0.0476 0.0952"/>
   <path d="m16.015 71.685v0.2381"/>
   <path d="m16.015 71.923 0.0476 0.0953"/>
   <path d="m16.062 72.019 0.0477 0.0476"/>
   <path d="m16.11 72.066 0.0952 0.0476"/>
   <path d="m16.205 72.114h0.0952"/>
   <path d="m16.3 72.114 0.1429-0.0476"/>
   <path d="m16.443 72.066 0.5714-0.5714"/>
   <path d="m17.015 71.495v0.619"/>
  </g>
 </g>
 <g fill="none" stroke="#BD93F9" stroke-linecap="round" stroke-linejoin="round" stroke-width=".12">
  <path d="m70.805 50.025v3.86"/>
  <path d="m70.805 53.885h2"/>
  <path d="m72.805 50.025v3.86"/>
  <path d="m13.655 50.025v3.86"/>
  <path d="m13.655 53.885h2"/>
  <path d="m15.655 50.025v3.86"/>
  <path d="m70.805 30.975v3.86"/>
  <path d="m70.805 34.835h2"/>
  <path d="m72.805 30.975v3.86"/>
  <path d="m280.36 11.925v3.86"/>
  <path d="m280.36 15.785h2"/>
  <path d="m282.36 11.925v3.86"/>
  <path d="m70.805 69.075v3.86"/>
  <path d="m70.805 72.935h2"/>
  <path d="m72.805 69.075v3.86"/>
  <path d="m32.705 50.025v3.86"/>
  <path d="m32.705 53.885h2"/>
  <path d="m34.705 50.025v3.86"/>
  <path d="m51.755 50.025v3.86"/>
  <path d="m51.755 53.885h2"/>
  <path d="m53.755 50.025v3.86"/>
  <path d="m13.655 30.975v3.86"/>
  <path d="m13.655 34.835h2"/>
  <path d="m15.655 30.975v3.86"/>
  <path d="m51.755 69.075v3.86"/>
  <path d="m51.755 72.935h2"/>
  <path d="m53.755 69.075v3.86"/>
  <path d="m32.705 69.075v3.86"/>
  <path d="m32.705 72.935h2"/>
  <path d="m34.705 69.075v3.86"/>
  <path d="m32.705 30.975v3.86"/>
  <path d="m32.705 34.835h2"/>
  <path d="m34.705 30.975v3.86"/>
  <path d="m318.46 11.925v3.86"/>
  <path d="m318.46 15.785h2"/>
  <path d="m320.46 11.925v3.86"/>
  <path d="m299.4 11.925v3.86"/>
  <path d="m299.4 15.785h2"/>
  <path d="m301.4 11.925v3.86"/>
  <path d="m51.755 30.975v3.86"/>
  <path d="m51.755 34.835h2"/>
  <path d="m53.755 30.975v3.86"/>
  <path d="m13.655 69.075v3.86"/>
  <path d="m13.655 72.935h2"/>
  <path d="m15.655 69.075v3.86"/>
 </g>
 <g>
  <g fill="#BD93F9">
   <circle cx="271.2" cy="9.575" r=".875"/>
   <circle cx="276.28" cy="9.575" r="2"/>
   <circle cx="281.36" cy="9.575" r=".875"/>
   <circle cx="272.46" cy="7.035" r=".75"/>
   <circle cx="278.82" cy="4.495" r=".75"/>
   <circle cx="42.595" cy="66.725" r=".875"/>
   <circle cx="47.675" cy="66.725" r="2"/>
   <circle cx="52.755" cy="66.725" r=".875"/>
   <circle cx="43.865" cy="64.185" r=".75"/>
   <circle cx="50.215" cy="61.645" r=".75"/>
   <circle cx="42.595" cy="47.675" r=".875"/>
   <circle cx="47.675" cy="47.675" r="2"/>
   <circle cx="52.755" cy="47.675" r=".875"/>
   <circle cx="43.865" cy="45.135" r=".75"/>
   <circle cx="50.215" cy="42.595" r=".75"/>
   <circle cx="61.645" cy="66.725" r=".875"/>
   <circle cx="66.725" cy="66.725" r="2"/>
   <circle cx="71.805" cy="66.725" r=".875"/>
   <circle cx="62.915" cy="64.185" r=".75"/>
   <circle cx="69.265" cy="61.645" r=".75"/>
   <circle cx="4.495" cy="47.675" r=".875"/>
   <circle cx="9.575" cy="47.675" r="2"/>
   <circle cx="14.655" cy="47.675" r=".875"/>
   <circle cx="5.765" cy="45.135" r=".75"/>
   <circle cx="12.115" cy="42.595" r=".75"/>
   <circle cx="290.24" cy="9.575" r=".875"/>
   <circle cx="295.32" cy="9.575" r="2"/>
   <circle cx="300.4" cy="9.575" r=".875"/>
   <circle cx="291.52" cy="7.035" r=".75"/>
   <circle cx="297.86" cy="4.495" r=".75"/>
   <circle cx="61.645" cy="47.675" r=".875"/>
   <circle cx="66.725" cy="47.675" r="2"/>
   <circle cx="71.805" cy="47.675" r=".875"/>
   <circle cx="62.915" cy="45.135" r=".75"/>
   <circle cx="69.265" cy="42.595" r=".75"/>
   <circle cx="23.545" cy="47.675" r=".875"/>
   <circle cx="28.625" cy="47.675" r="2"/>
   <circle cx="33.705" cy="47.675" r=".875"/>
   <circle cx="24.815" cy="45.135" r=".75"/>
   <circle cx="31.165" cy="42.595" r=".75"/>
   <circle cx="4.495" cy="28.625" r=".875"/>
   <circle cx="9.575" cy="28.625" r="2"/>
   <circle cx="14.655" cy="28.625" r=".875"/>
   <circle cx="5.765" cy="26.085" r=".75"/>
   <circle cx="12.115" cy="23.545" r=".75"/>
   <circle cx="23.545" cy="66.725" r=".875"/>
   <circle cx="28.625" cy="66.725" r="2"/>
   <circle cx="33.705" cy="66.725" r=".875"/>
   <circle cx="24.815" cy="64.185" r=".75"/>
   <circle cx="31.165" cy="61.645" r=".75"/>
   <circle cx="23.545" cy="28.625" r=".875"/>
   <circle cx="28.625" cy="28.625" r="2"/>
   <circle cx="33.705" cy="28.625" r=".875"/>
   <circle cx="24.815" cy="26.085" r=".75"/>
   <circle cx="31.165" cy="23.545" r=".75"/>
   <circle cx="309.3" cy="9.575" r=".875"/>
   <circle cx="314.38" cy="9.575" r="2"/>
   <circle cx="319.46" cy="9.575" r=".875"/>
   <circle cx="310.56" cy="7.035" r=".75"/>
   <circle cx="316.92" cy="4.495" r=".75"/>
   <circle cx="42.595" cy="28.625" r=".875"/>
   <circle cx="47.675" cy="28.625" r="2"/>
   <circle cx="52.755" cy="28.625" r=".875"/>
   <circle cx="43.865" cy="26.085" r=".75"/>
   <circle cx="50.215" cy="23.545" r=".75"/>
   <circle cx="61.645" cy="28.625" r=".875"/>
   <circle cx="66.725" cy="28.625" r="2"/>
   <circle cx="71.805" cy="28.625" r=".875"/>
   <circle cx="62.915" cy="26.085" r=".75"/>
   <circle cx="69.265" cy="23.545" r=".75"/>
   <circle cx="4.495" cy="66.725" r=".875"/>
   <circle cx="9.575" cy="66.725" r="2"/>
   <circle cx="14.655" cy="66.725" r=".875"/>
   <circle cx="5.765" cy="64.185" r=".75"/>
   <circle cx="12.115" cy="61.645" r=".75"/>
  </g>
  <g>
   <circle cx="271.2" cy="9.575" r=".875"/>
   <circle cx="276.28" cy="9.575" r="2"/>
   <circle cx="281.36" cy="9.575" r=".875"/>
   <circle cx="272.46" cy="7.035" r=".75"/>
   <circle cx="278.82" cy="4.495" r=".75"/>
   <circle cx="42.595" cy="66.725" r=".875"/>
   <circle cx="47.675" cy="66.725" r="2"/>
   <circle cx="52.755" cy="66.725" r=".875"/>
   <circle cx="43.865" cy="64.185" r=".75"/>
   <circle cx="50.215" cy="61.645" r=".75"/>
   <circle cx="42.595" cy="47.675" r=".875"/>
   <circle cx="47.675" cy="47.675" r="2"/>
   <circle cx="52.755" cy="47.675" r=".875"/>
   <circle cx="43.865" cy="45.135" r=".75"/>
   <circle cx="50.215" cy="42.595" r=".75"/>
   <circle cx="61.645" cy="66.725" r=".875"/>
   <circle cx="66.725" cy="66.725" r="2"/>
   <circle cx="71.805" cy="66.725" r=".875"/>
   <circle cx="62.915" cy="64.185" r=".75"/>
   <circle cx="69.265" cy="61.645" r=".75"/>
   <circle cx="4.495" cy="47.675" r=".875"/>
   <circle cx="9.575" cy="47.675" r="2"/>
   <circle cx="14.655" cy="47.675" r=".875"/>
   <circle cx="5.765" cy="45.135" r=".75"/>
   <circle cx="12.115" cy="42.595" r=".75"/>
   <circle cx="290.24" cy="9.575" r=".875"/>
   <circle cx="295.32" cy="9.575" r="2"/>
   <circle cx="300.4" cy="9.575" r=".875"/>
   <circle cx="291.52" cy="7.035" r=".75"/>
   <circle cx="297.86" cy="4.495" r=".75"/>
   <circle cx="61.645" cy="47.675" r=".875"/>
   <circle cx="66.725" cy="47.675" r="2"/>
   <circle cx="71.805" cy="47.675" r=".875"/>
   <circle cx="62.915" cy="45.135" r=".75"/>
   <circle cx="69.265" cy="42.595" r=".75"/>
   <circle cx="23.545" cy="47.675" r=".875"/>
   <circle cx="28.625" cy="47.675" r="2"/>
   <circle cx="33.705" cy="47.675" r=".875"/>
   <circle cx="24.815" cy="45.135" r=".75"/>
   <circle cx="31.165" cy="42.595" r=".75"/>
   <circle cx="4.495" cy="28.625" r=".875"/>
   <circle cx="9.575" cy="28.625" r="2"/>
   <circle cx="14.655" cy="28.625" r=".875"/>
   <circle cx="5.765" cy="26.085" r=".75"/>
   <circle cx="12.115" cy="23.545" r=".75"/>
   <circle cx="23.545" cy="66.725" r=".875"/>
   <circle cx="28.625" cy="66.725" r="2"/>
   <circle cx="33.705" cy="66.725" r=".875"/>
   <circle cx="24.815" cy="64.185" r=".75"/>
   <circle cx="31.165" cy="61.645" r=".75"/>
   <circle cx="23.545" cy="28.625" r=".875"/>
   <circle cx="28.625" cy="28.625" r="2"/>
   <circle cx="33.705" cy="28.625" r=".875"/>
   <circle cx="24.815" cy="26.085" r=".75"/>
   <circle cx="31.165" cy="23.545" r=".75"/>
   <circle cx="309.3" cy="9.575" r=".875"/>
   <circle cx="314.38" cy="9.575" r="2"/>
   <circle cx="319.46" cy="9.575" r=".875"/>
   <circle cx="310.56" cy="7.035" r=".75"/>
   <circle cx="316.92" cy="4.495" r=".75"/>
   <circle cx="42.595" cy="28.625" r=".875"/>
   <circle cx="47.675" cy="28.625" r="2"/>
   <circle cx="52.755" cy="28.625" r=".875"/>
   <circle cx="43.865" cy="26.085" r=".75"/>
   <circle cx="50.215" cy="23.545" r=".75"/>
   <circle cx="61.645" cy="28.625" r=".875"/>
   <circle cx="66.725" cy="28.625" r="2"/>
   <circle cx="71.805" cy="28.625" r=".875"/>
   <circle cx="62.915" cy="26.085" r=".75"/>
   <circle cx="69.265" cy="23.545" r=".75"/>
   <circle cx="4.495" cy="66.725" r=".875"/>
   <circle cx="9.575" cy="66.725" r="2"/>
   <circle cx="14.655" cy="66.725" r=".875"/>
   <circle cx="5.765" cy="64.185" r=".75"/>
   <circle cx="12.115" cy="61.645" r=".75"/>
  </g>
  <g fill="#f55">
   <circle cx="272.46" cy="7.035" r="1.25"/>
   <circle cx="278.82" cy="4.495" r="1.25"/>
   <circle cx="43.865" cy="64.185" r="1.25"/>
   <circle cx="50.215" cy="61.645" r="1.25"/>
   <circle cx="43.865" cy="45.135" r="1.25"/>
   <circle cx="50.215" cy="42.595" r="1.25"/>
   <circle cx="62.915" cy="64.185" r="1.25"/>
   <circle cx="69.265" cy="61.645" r="1.25"/>
   <circle cx="5.765" cy="45.135" r="1.25"/>
   <circle cx="12.115" cy="42.595" r="1.25"/>
   <circle cx="291.52" cy="7.035" r="1.25"/>
   <circle cx="297.86" cy="4.495" r="1.25"/>
   <circle cx="62.915" cy="45.135" r="1.25"/>
   <circle cx="69.265" cy="42.595" r="1.25"/>
   <circle cx="24.815" cy="45.135" r="1.25"/>
   <circle cx="31.165" cy="42.595" r="1.25"/>
   <circle cx="5.765" cy="26.085" r="1.25"/>
   <circle cx="12.115" cy="23.545" r="1.25"/>
   <circle cx="24.815" cy="64.185" r="1.25"/>
   <circle cx="31.165" cy="61.645" r="1.25"/>
   <circle cx="24.815" cy="26.085" r="1.25"/>
   <circle cx="31.165" cy="23.545" r="1.25"/>
   <circle cx="310.56" cy="7.035" r="1.25"/>
   <circle cx="316.92" cy="4.495" r="1.25"/>
   <circle cx="43.865" cy="26.085" r="1.25"/>
   <circle cx="50.215" cy="23.545" r="1.25"/>
   <circle cx="62.915" cy="26.085" r="1.25"/>
   <circle cx="69.265" cy="23.545" r="1.25"/>
   <circle cx="5.765" cy="64.185" r="1.25"/>
   <circle cx="12.115" cy="61.645" r="1.25"/>
  </g>
 </g>
 <g fill="none" stroke="#f55" stroke-linecap="round" stroke-linejoin="round" stroke-width=".2">
  <path d="m5.765 26.085v19.05"/>
  <path d="m5.765 45.135v19.05"/>
  <path d="m43.865 7.035h228.6"/>
  <path d="m24.815 26.085 19.05-19.05"/>
  <path d="m24.815 45.135v19.05"/>
  <path d="m24.815 26.085v19.05"/>
  <path d="m43.865 26.085v19.05"/>
  <path d="m43.865 45.135v19.05"/>
  <path d="m62.915 26.085v19.05"/>
  <path d="m62.915 45.135v19.05"/>
 </g>
 <g fill="#fff">
  <circle cx="271.2" cy="9.575" r=".875"/>
  <circle cx="276.28" cy="9.575" r="2"/>
  <circle cx="281.36" cy="9.575" r=".875"/>
  <circle cx="272.46" cy="7.035" r=".75"/>
  <circle cx="278.82" cy="4.495" r=".75"/>
  <circle cx="42.595" cy="66.725" r=".875"/>
  <circle cx="47.675" cy="66.725" r="2"/>
  <circle cx="52.755" cy="66.725" r=".875"/>
  <circle cx="43.865" cy="64.185" r=".75"/>
  <circle cx="50.215" cy="61.645" r=".75"/>
  <circle cx="42.595" cy="47.675" r=".875"/>
  <circle cx="47.675" cy="47.675" r="2"/>
  <circle cx="52.755" cy="47.675" r=".875"/>
  <circle cx="43.865" cy="45.135" r=".75"/>
  <circle cx="50.215" cy="42.595" r=".75"/>
  <circle cx="61.645" cy="66.725" r=".875"/>
  <circle cx="66.725" cy="66.725" r="2"/>
  <circle cx="71.805" cy="66.725" r=".875"/>
  <circle cx="62.915" cy="64.185" r=".75"/>
  <circle cx="69.265" cy="61.645" r=".75"/>
  <circle cx="4.495" cy="47.675" r=".875"/>
  <circle cx="9.575" cy="47.675" r="2"/>
  <circle cx="14.655" cy="47.675" r=".875"/>
  <circle cx="5.765" cy="45.135" r=".75"/>
  <circle cx="12.115" cy="42.595" r=".75"/>
  <circle cx="290.24" cy="9.575" r=".875"/>
  <circle cx="295.32" cy="9.575" r="2"/>
  <circle cx="300.4" cy="9.575" r=".875"/>
  <circle cx="291.52" cy="7.035" r=".75"/>
  <circle cx="297.86" cy="4.495" r=".75"/>
  <circle cx="61.645" cy="47.675" r=".875"/>
  <circle cx="66.725" cy="47.675" r="2"/>
  <circle cx="71.805" cy="47.675" r=".875"/>
  <circle cx="62.915" cy="45.135" r=".75"/>
  <circle cx="69.265" cy="42.595" r=".75"/>
  <circle cx="23.545" cy="47.675" r=".875"/>
  <circle cx="28.625" cy="47.675" r="2"/>
  <circle cx="33.705" cy="47.675" r=".875"/>
  <circle cx="24.815" cy="45.135" r=".75"/>
  <circle cx="31.165" cy="42.595" r=".75"/>
  <circle cx="4.495" cy="28.625" r=".875"/>
  <circle cx="9.575" cy="28.625" r="2"/>
  <circle cx="14.655" cy="28.625" r=".875"/>
  <circle cx="5.765" cy="26.085" r=".75"/>
  <circle cx="12.115" cy="23.545" r=".75"/>
  <circle cx="23.545" cy="66.725" r=".875"/>
  <circle cx="28.625" cy="66.725" r="2"/>
  <circle cx="33.705" cy="66.725" r=".875"/>
  <circle cx="24.815" cy="64.185" r=".75"/>
  <circle cx="31.165" cy="61.645" r=".75"/>
  <circle cx="23.545" cy="28.625" r=".875"/>
  <circle cx="28.625" cy="28.625" r="2"/>
  <circle cx="33.705" cy="28.625" r=".875"/>
  <circle cx="24.815" cy="26.085" r=".75"/>
  <circle cx="31.165" cy="23.545" r=".75"/>
  <circle cx="309.3" cy="9.575" r=".875"/>
  <circle cx="314.38" cy="9.575" r="2"/>
  <circle cx="319.46" cy="9.575" r=".875"/>
  <circle cx="310.56" cy="7.035" r=".75"/>
  <circle cx="316.92" cy="4.495" r=".75"/>
  <circle cx="42.595" cy="28.625" r=".875"/>
  <circle cx="47.675" cy="28.625" r="2"/>
  <circle cx="52.755" cy="28.625" r=".875"/>
  <circle cx="43.865" cy="26.085" r=".75"/>
  <circle cx="50.215" cy="23.545" r=".75"/>
  <circle cx="61.645" cy="28.625" r=".875"/>
  <circle cx="66.725" cy="28.625" r="2"/>
  <circle cx="71.805" cy="28.625" r=".875"/>
  <circle cx="62.915" cy="26.085" r=".75"/>
  <circle cx="69.265" cy="23.545" r=".75"/>
  <circle cx="4.495" cy="66.725" r=".875"/>
  <circle cx="9.575" cy="66.725" r="2"/>
  <circle cx="14.655" cy="66.725" r=".875"/>
  <circle cx="5.765" cy="64.185" r=".75"/>
  <circle cx="12.115" cy="61.645" r=".75"/>
 </g>
 <g fill="#50FA7B">
  <circle cx="272.46" cy="7.035" r="1.25"/>
  <circle cx="278.82" cy="4.495" r="1.25"/>
  <circle cx="43.865" cy="64.185" r="1.25"/>
  <circle cx="50.215" cy="61.645" r="1.25"/>
  <circle cx="43.865" cy="45.135" r="1.25"/>
  <circle cx="50.215" cy="42.595" r="1.25"/>
  <circle cx="62.915" cy="64.185" r="1.25"/>
  <circle cx="69.265" cy="61.645" r="1.25"/>
  <circle cx="5.765" cy="45.135" r="1.25"/>
  <circle cx="12.115" cy="42.595" r="1.25"/>
  <circle cx="291.52" cy="7.035" r="1.25"/>
  <circle cx="297.86" cy="4.495" r="1.25"/>
  <circle cx="62.915" cy="45.135" r="1.25"/>
  <circle cx="69.265" cy="42.595" r="1.25"/>
  <circle cx="24.815" cy="45.135" r="1.25"/>
  <circle cx="31.165" cy="42.595" r="1.25"/>
  <circle cx="5.765" cy="26.085" r="1.25"/>
  <circle cx="12.115" cy="23.545" r="1.25"/>
  <circle cx="24.815" cy="64.185" r="1.25"/>
  <circle cx="31.165" cy="61.645" r="1.25"/>
  <circle cx="24.815" cy="26.085" r="1.25"/>
  <circle cx="31.165" cy="23.545" r="1.25"/>
  <circle cx="310.56" cy="7.035" r="1.25"/>
  <circle cx="316.92" cy="4.495" r="1.25"/>
  <circle cx="43.865" cy="26.085" r="1.25"/>
  <circle cx="50.215" cy="23.545" r="1.25"/>
  <circle cx="62.915" cy="26.085" r="1.25"/>
  <circle cx="69.265" cy="23.545" r="1.25"/>
  <circle cx="5.765" cy="64.185" r="1.25"/>
  <circle cx="12.115" cy="61.645" r="1.25"/>
  <g fill="#50FA7B" fill-rule="evenodd">
   <path d="m71.505 53.625-0.0957-0.019-0.0811-0.0542-0.0542-0.0811-0.019-0.0957v-0.6l0.019-0.0957 0.0542-0.0811 0.0811-0.0542 0.0957-0.019h0.6l0.0957 0.019 0.0811 0.0542 0.0542 0.0811 0.019 0.0957v0.6l-0.019 0.0957-0.0542 0.0811-0.0811 0.0542-0.0957 0.019z"/>
   <path d="m71.505 50.825-0.0957-0.019-0.0811-0.0542-0.0542-0.0811-0.019-0.0957v-0.6l0.019-0.0957 0.0542-0.0811 0.0811-0.0542 0.0957-0.019h0.6l0.0957 0.019 0.0811 0.0542 0.0542 0.0811 0.019 0.0957v0.6l-0.019 0.0957-0.0542 0.0811-0.0811 0.0542-0.0957 0.019z"/>
   <path d="m14.355 53.625-0.0957-0.019-0.0811-0.0542-0.0542-0.0811-0.019-0.0957v-0.6l0.019-0.0957 0.0542-0.0811 0.0811-0.0542 0.0957-0.019h0.6l0.0957 0.019 0.0811 0.0542 0.0542 0.0811 0.019 0.0957v0.6l-0.019 0.0957-0.0542 0.0811-0.0811 0.0542-0.0957 0.019z"/>
   <path d="m14.355 50.825-0.0957-0.019-0.0811-0.0542-0.0542-0.0811-0.019-0.0957v-0.6l0.019-0.0957 0.0542-0.0811 0.0811-0.0542 0.0957-0.019h0.6l0.0957 0.019 0.0811 0.0542 0.0542 0.0811 0.019 0.0957v0.6l-0.019 0.0957-0.0542 0.0811-0.0811 0.0542-0.0957 0.019z"/>
   <path d="m71.505 34.575-0.0957-0.019-0.0811-0.0542-0.0542-0.0811-0.019-0.0957v-0.6l0.019-0.0957 0.0542-0.0811 0.0811-0.0542 0.0957-0.019h0.6l0.0957 0.019 0.0811 0.0542 0.0542 0.0811 0.019 0.0957v0.6l-0.019 0.0957-0.0542 0.0811-0.0811 0.0542-0.0957 0.019z"/>
   <path d="m71.505 31.775-0.0957-0.019-0.0811-0.0542-0.0542-0.0811-0.019-0.0957v-0.6l0.019-0.0957 0.0542-0.0811 0.0811-0.0542 0.0957-0.019h0.6l0.0957 0.019 0.0811 0.0542 0.0542 0.0811 0.019 0.0957v0.6l-0.019 0.0957-0.0542 0.0811-0.0811 0.0542-0.0957 0.019z"/>
   <path d="m281.06 15.525-0.0957-0.019-0.0811-0.0542-0.0542-0.0811-0.019-0.0957v-0.6l0.019-0.0957 0.0542-0.0811 0.0811-0.0542 0.0957-0.019h0.6l0.0957 0.019 0.0811 0.0542 0.0542 0.0811 0.019 0.0957v0.6l-0.019 0.0957-0.0542 0.0811-0.0811 0.0542-0.0957 0.019z"/>
   <path d="m281.06 12.725-0.0957-0.019-0.0811-0.0542-0.0542-0.0811-0.019-0.0957v-0.6l0.019-0.0957 0.0542-0.0811 0.0811-0.0542 0.0957-0.019h0.6l0.0957 0.019 0.0811 0.0542 0.0542 0.0811 0.019 0.0957v0.6l-0.019 0.0957-0.0542 0.0811-0.0811 0.0542-0.0957 0.019z"/>
   <path d="m71.505 72.675-0.0957-0.019-0.0811-0.0542-0.0542-0.0811-0.019-0.0957v-0.6l0.019-0.0957 0.0542-0.0811 0.0811-0.0542 0.0957-0.019h0.6l0.0957 0.019 0.0811 0.0542 0.0542 0.0811 0.019 0.0957v0.6l-0.019 0.0957-0.0542 0.0811-0.0811 0.0542-0.0957 0.019z"/>
   <path d="m71.505 69.875-0.0957-0.019-0.0811-0.0542-0.0542-0.0811-0.019-0.0957v-0.6l0.019-0.0957 0.0542-0.0811 0.0811-0.0542 0.0957-0.019h0.6l0.0957 0.019 0.0811 0.0542 0.0542 0.0811 0.019 0.0957v0.6l-0.019 0.0957-0.0542 0.0811-0.0811 0.0542-0.0957 0.019z"/>
   <path d="m33.405 53.625-0.0957-0.019-0.0811-0.0542-0.0542-0.0811-0.019-0.0957v-0.6l0.019-0.0957 0.0542-0.0811 0.0811-0.0542 0.0957-0.019h0.6l0.0957 0.019 0.0811 0.0542 0.0542 0.0811 0.019 0.0957v0.6l-0.019 0.0957-0.0542 0.0811-0.0811 0.0542-0.0957 0.019z"/>
   <path d="m33.405 50.825-0.0957-0.019-0.0811-0.0542-0.0542-0.0811-0.019-0.0957v-0.6l0.019-0.0957 0.0542-0.0811 0.0811-0.0542 0.0957-0.019h0.6l0.0957 0.019 0.0811 0.0542 0.0542 0.0811 0.019 0.0957v0.6l-0.019 0.0957-0.0542 0.0811-0.0811 0.0542-0.0957 0.019z"/>
   <path d="m52.455 53.625-0.0957-0.019-0.0811-0.0542-0.0542-0.0811-0.019-0.0957v-0.6l0.019-0.0957 0.0542-0.0811 0.0811-0.0542 0.0957-0.019h0.6l0.0957 0.019 0.0811 0.0542 0.0542 0.0811 0.019 0.0957v0.6l-0.019 0.0957-0.0542 0.0811-0.0811 0.0542-0.0957 0.019z"/>
   <path d="m52.455 50.825-0.0957-0.019-0.0811-0.0542-0.0542-0.0811-0.019-0.0957v-0.6l0.019-0.0957 0.0542-0.0811 0.0811-0.0542 0.0957-0.019h0.6l0.0957 0.019 0.0811 0.0542 0.0542 0.0811 0.019 0.0957v0.6l-0.019 0.0957-0.0542 0.0811-0.0811 0.0542-0.0957 0.019z"/>
   <path d="m14.355 34.575-0.0957-0.019-0.0811-0.0542-0.0542-0.0811-0.019-0.0957v-0.6l0.019-0.0957 0.0542-0.0811 0.0811-0.0542 0.0957-0.019h0.6l0.0957 0.019 0.0811 0.0542 0.0542 0.0811 0.019 0.0957v0.6l-0.019 0.0957-0.0542 0.0811-0.0811 0.0542-0.0957 0.019z"/>
   <path d="m14.355 31.775-0.0957-0.019-0.0811-0.0542-0.0542-0.0811-0.019-0.0957v-0.6l0.019-0.0957 0.0542-0.0811 0.0811-0.0542 0.0957-0.019h0.6l0.0957 0.019 0.0811 0.0542 0.0542 0.0811 0.019 0.0957v0.6l-0.019 0.0957-0.0542 0.0811-0.0811 0.0542-0.0957 0.019z"/>
   <path d="m52.455 72.675-0.0957-0.019-0.0811-0.0542-0.0542-0.0811-0.019-0.0957v-0.6l0.019-0.0957 0.0542-0.0811 0.0811-0.0542 0.0957-0.019h0.6l0.0957 0.019 0.0811 0.0542 0.0542 0.0811 0.019 0.0957v0.6l-0.019 0.0957-0.0542 0.0811-0.0811 0.0542-0.0957 0.019z"/>
   <path d="m52.455 69.875-0.0957-0.019-0.0811-0.0542-0.0542-0.0811-0.019-0.0957v-0.6l0.019-0.0957 0.0542-0.0811 0.0811-0.0542 0.0957-0.019h0.6l0.0957 0.019 0.0811 0.0542 0.0542 0.0811 0.019 0.0957v0.6l-0.019 0.0957-0.0542 0.0811-0.0811 0.0542-0.0957 0.019z"/>
   <path d="m33.405 72.675-0.0957-0.019-0.0811-0.0542-0.0542-0.0811-0.019-0.0957v-0.6l0.019-0.0957 0.0542-0.0811 0.0811-0.0542 0.0957-0.019h0.6l0.0957 0.019 0.0811 0.0542 0.0542 0.0811 0.019 0.0957v0.6l-0.019 0.0957-0.0542 0.0811-0.0811 0.0542-0.0957 0.019z"/>
   <path d="m33.405 69.875-0.0957-0.019-0.0811-0.0542-0.0542-0.0811-0.019-0.0957v-0.6l0.019-0.0957 0.0542-0.0811 0.0811-0.0542 0.0957-0.019h0.6l0.0957 0.019 0.0811 0.0542 0.0542 0.0811 0.019 0.0957v0.6l-0.019 0.0957-0.0542 0.0811-0.0811 0.0542-0.0957 0.019z"/>
   <path d="m33.405 34.575-0.0957-0.019-0.0811-0.0542-0.0542-0.0811-0.019-0.0957v-0.6l0.019-0.0957 0.0542-0.0811 0.0811-0.0542 0.0957-0.019h0.6l0.0957 0.019 0.0811 0.0542 0.0542 0.0811 0.019 0.0957v0.6l-0.019 0.0957-0.0542 0.0811-0.0811 0.0542-0.0957 0.019z"/>
   <path d="m33.405 31.775-0.0957-0.019-0.0811-0.0542-0.0542-0.0811-0.019-0.0957v-0.6l0.019-0.0957 0.0542-0.0811 0.0811-0.0542 0.0957-0.019h0.6l0.0957 0.019 0.0811 0.0542 0.0542 0.0811 0.019 0.0957v0.6l-0.019 0.0957-0.0542 0.0811-0.0811 0.0542-0.0957 0.019z"/>
   <path d="m319.16 15.525-0.0957-0.019-0.0811-0.0542-0.0542-0.0811-0.019-0.0957v-0.6l0.019-0.0957 0.0542-0.0811 0.0811-0.0542 0.0957-0.019h0.6l0.0957 0.019 0.0811 0.0542 0.0542 0.0811 0.019 0.0957v0.6l-0.019 0.0957-0.0542 0.0811-0.0811 0.0542-0.0957 0.019z"/>
   <path d="m319.16 12.725-0.0957-0.019-0.0811-0.0542-0.0542-0.0811-0.019-0.0957v-0.6l0.019-0.0957 0.0542-0.0811 0.0811-0.0542 0.0957-0.019h0.6l0.0957 0.019 0.0811 0.0542 0.0542 0.0811 0.019 0.0957v0.6l-0.019 0.0957-0.0542 0.0811-0.0811 0.0542-0.0957 0.019z"/>
   <path d="m300.1 15.525-0.0957-0.019-0.0811-0.0542-0.0542-0.0811-0.019-0.0957v-0.6l0.019-0.0957 0.0542-0.0811 0.0811-0.0542 0.0957-0.019h0.6l0.0957 0.019 0.0811 0.0542 0.0542 0.0811 0.019 0.0957v0.6l-0.019 0.0957-0.0542 0.0811-0.0811 0.0542-0.0957 0.019z"/>
   <path d="m300.1 12.725-0.0957-0.019-0.0811-0.0542-0.0542-0.0811-0.019-0.0957v-0.6l0.019-0.0957 0.0542-0.0811 0.0811-0.0542 0.0957-0.019h0.6l0.0957 0.019 0.0811 0.0542 0.0542 0.0811 0.019 0.0957v0.6l-0.019 0.0957-0.0542 0.0811-0.0811 0.0542-0.0957 0.019z"/>
   <path d="m52.455 34.575-0.0957-0.019-0.0811-0.0542-0.0542-0.0811-0.019-0.0957v-0.6l0.019-0.0957 0.0542-0.0811 0.0811-0.0542 0.0957-0.019h0.6l0.0957 0.019 0.0811 0.0542 0.0542 0.0811 0.019 0.0957v0.6l-0.019 0.0957-0.0542 0.0811-0.0811 0.0542-0.0957 0.019z"/>
   <path d="m52.455 31.775-0.0957-0.019-0.0811-0.0542-0.0542-0.0811-0.019-0.0957v-0.6l0.019-0.0957 0.0542-0.0811 0.0811-0.0542 0.0957-0.019h0.6l0.0957 0.019 0.0811 0.0542 0.0542 0.0811 0.019 0.0957v0.6l-0.019 0.0957-0.0542 0.0811-0.0811 0.0542-0.0957 0.019z"/>
   <path d="m14.355 72.675-0.0957-0.019-0.0811-0.0542-0.0542-0.0811-0.019-0.0957v-0.6l0.019-0.0957 0.0542-0.0811 0.0811-0.0542 0.0957-0.019h0.6l0.0957 0.019 0.0811 0.0542 0.0542 0.0811 0.019 0.0957v0.6l-0.019 0.0957-0.0542 0.0811-0.0811 0.0542-0.0957 0.019z"/>
   <path d="m14.355 69.875-0.0957-0.019-0.0811-0.0542-0.0542-0.0811-0.019-0.0957v-0.6l0.019-0.0957 0.0542-0.0811 0.0811-0.0542 0.0957-0.019h0.6l0.0957 0.019 0.0811 0.0542 0.0542 0.0811 0.019 0.0957v0.6l-0.019 0.0957-0.0542 0.0811-0.0811 0.0542-0.0957 0.019z"/>
  </g>
 </g>
 <g fill="none" stroke="#50FA7B" stroke-linecap="round" stroke-linejoin="round" stroke-width=".2">
  <path d="m278.82 4.495v5.14"/>
  <path d="m278.82 9.635 2.54 2.54"/>
  <path d="m297.86 9.635 2.54 2.54"/>
  <path d="m297.86 4.495v5.14"/>
  <path d="m316.92 9.635 2.54 2.54"/>
  <path d="m316.92 4.495v5.14"/>
  <path d="m12.115 28.685 2.54 2.54"/>
  <path d="m12.115 23.545v5.14"/>
  <path d="m31.165 28.685 2.54 2.54"/>
  <path d="m31.165 23.545v5.14"/>
  <path d="m50.215 23.545v5.14"/>
  <path d="m50.215 28.685 2.54 2.54"/>
  <path d="m69.265 23.545v5.14"/>
  <path d="m69.265 28.685 2.54 2.54"/>
  <path d="m12.115 47.735 2.54 2.54"/>
  <path d="m12.115 42.595v5.14"/>
  <path d="m31.165 42.595v5.14"/>
  <path d="m31.165 47.735 2.54 2.54"/>
  <path d="m50.215 47.735 2.54 2.54"/>
  <path d="m50.215 42.595v5.14"/>
  <path d="m69.265 47.735 2.54 2.54"/>
  <path d="m69.265 42.595v5.14"/>
  <path d="m12.115 61.645v5.14"/>
  <path d="m12.115 66.785 2.54 2.54"/>
  <path d="m31.165 61.645v5.14"/>
  <path d="m31.165 66.785 2.54 2.54"/>
  <path d="m50.215 61.645v5.14"/>
  <path d="m50.215 66.785 2.54 2.54"/>
  <path d="m69.265 61.645v5.14"/>
  <path d="m69.265 66.785 2.54 2.54"/>
  <path d="m281.36 14.975h19.05"/>
  <path d="m300.4 14.975h19.05"/>
  <path d="m52.755 34.025h19.05"/>
  <path d="m33.705 34.025h19.05"/>
  <path d="m14.655 34.025h19.05"/>
  <path d="m52.755 53.075h19.05"/>
  <path d="m33.705 53.075h19.05"/>
  <path d="m14.655 53.075h19.05"/>
  <path d="m52.755 72.125h19.05"/>
  <path d="m33.705 72.125h19.05"/>
  <path d="m14.655 72.125h19.05"/>
 </g>
 <g fill="#fff">
  <circle cx="271.2" cy="9.575" r=".875"/>
  <circle cx="276.28" cy="9.575" r="2"/>
  <circle cx="281.36" cy="9.575" r=".875"/>
  <circle cx="272.46" cy="7.035" r=".75"/>
  <circle cx="278.82" cy="4.495" r=".75"/>
  <circle cx="42.595" cy="66.725" r=".875"/>
  <circle cx="47.675" cy="66.725" r="2"/>
  <circle cx="52.755" cy="66.725" r=".875"/>
  <circle cx="43.865" cy="64.185" r=".75"/>
  <circle cx="50.215" cy="61.645" r=".75"/>
  <circle cx="42.595" cy="47.675" r=".875"/>
  <circle cx="47.675" cy="47.675" r="2"/>
  <circle cx="52.755" cy="47.675" r=".875"/>
  <circle cx="43.865" cy="45.135" r=".75"/>
  <circle cx="50.215" cy="42.595" r=".75"/>
  <circle cx="61.645" cy="66.725" r=".875"/>
  <circle cx="66.725" cy="66.725" r="2"/>
  <circle cx="71.805" cy="66.725" r=".875"/>
  <circle cx="62.915" cy="64.185" r=".75"/>
  <circle cx="69.265" cy="61.645" r=".75"/>
  <circle cx="4.495" cy="47.675" r=".875"/>
  <circle cx="9.575" cy="47.675" r="2"/>
  <circle cx="14.655" cy="47.675" r=".875"/>
  <circle cx="5.765" cy="45.135" r=".75"/>
  <circle cx="12.115" cy="42.595" r=".75"/>
  <circle cx="290.24" cy="9.575" r=".875"/>
  <circle cx="295.32" cy="9.575" r="2"/>
  <circle cx="300.4" cy="9.575" r=".875"/>
  <circle cx="291.52" cy="7.035" r=".75"/>
  <circle cx="297.86" cy="4.495" r=".75"/>
  <circle cx="61.645" cy="47.675" r=".875"/>
  <circle cx="66.725" cy="47.675" r="2"/>
  <circle cx="71.805" cy="47.675" r=".875"/>
  <circle cx="62.915" cy="45.135" r=".75"/>
  <circle cx="69.265" cy="42.595" r=".75"/>
  <circle cx="23.545" cy="47.675" r=".875"/>
  <circle cx="28.625" cy="47.675" r="2"/>
  <circle cx="33.705" cy="47.675" r=".875"/>
  <circle cx="24.815" cy="45.135" r=".75"/>
  <circle cx="31.165" cy="42.595" r=".75"/>
  <circle cx="4.495" cy="28.625" r=".875"/>
  <circle cx="9.575" cy="28.625" r="2"/>
  <circle cx="14.655" cy="28.625" r=".875"/>
  <circle cx="5.765" cy="26.085" r=".75"/>
  <circle cx="12.115" cy="23.545" r=".75"/>
  <circle cx="23.545" cy="66.725" r=".875"/>
  <circle cx="28.625" cy="66.725" r="2"/>
  <circle cx="33.705" cy="66.725" r=".875"/>
  <circle cx="24.815" cy="64.185" r=".75"/>
  <circle cx="31.165" cy="61.645" r=".75"/>
  <circle cx="23.545" cy="28.625" r=".875"/>
  <circle cx="28.625" cy="28.625" r="2"/>
  <circle cx="33.705" cy="28.625" r=".875"/>
  <circle cx="24.815" cy="26.085" r=".75"/>
  <circle cx="31.165" cy="23.545" r=".75"/>
  <circle cx="309.3" cy="9.575" r=".875"/>
  <circle cx="314.38" cy="9.575" r="2"/>
  <circle cx="319.46" cy="9.575" r=".875"/>
  <circle cx="310.56" cy="7.035" r=".75"/>
  <circle cx="316.92" cy="4.495" r=".75"/>
  <circle cx="42.595" cy="28.625" r=".875"/>
  <circle cx="47.675" cy="28.625" r="2"/>
  <circle cx="52.755" cy="28.625" r=".875"/>
  <circle cx="43.865" cy="26.085" r=".75"/>
  <circle cx="50.215" cy="23.545" r=".75"/>
  <circle cx="61.645" cy="28.625" r=".875"/>
  <circle cx="66.725" cy="28.625" r="2"/>
  <circle cx="71.805" cy="28.625" r=".875"/>
  <circle cx="62.915" cy="26.085" r=".75"/>
  <circle cx="69.265" cy="23.545" r=".75"/>
  <circle cx="4.495" cy="66.725" r=".875"/>
  <circle cx="9.575" cy="66.725" r="2"/>
  <circle cx="14.655" cy="66.725" r=".875"/>
  <circle cx="5.765" cy="64.185" r=".75"/>
  <circle cx="12.115" cy="61.645" r=".75"/>
 </g>
</svg>
