<?xml version="1.0" encoding="UTF-8"?>
<!DOCTYPE svg  PUBLIC '-//W3C//DTD SVG 1.1//EN'  'http://www.w3.org/Graphics/SVG/1.1/DTD/svg11.dtd'>
<svg width="95.326mm" height="104.85mm" version="1.1" viewBox="0 0 95.326 104.85" xmlns="http://www.w3.org/2000/svg">
 <title>SVG Image created as yeehaw-render.svg date 2025/09/05 18:38:21</title>
 <desc>Image generated by PCBNEW</desc>
 <rect width="95.326mm" height="104.85mm" fill="#282A36"/>
 <g fill="none" stroke="#8BE9FD" stroke-linecap="round" stroke-linejoin="round" stroke-width=".15">
  <text x="28.6250" y="21.1250" font-size="1.3333" opacity="0" stroke-opacity="0" text-anchor="middle" lengthAdjust="spacingAndGlyphs" textLength="3.2976">SW2</text>
  <g class="stroked-text">
   <desc>SW2</desc>
   <path d="m27.292 21.032 0.1428 0.0476"/>
   <path d="m27.434 21.08h0.2381"/>
   <path d="m27.673 21.08 0.0953-0.0476"/>
   <path d="m27.768 21.032 0.0476-0.0476"/>
   <path d="m27.816 20.985 0.0476-0.0953"/>
   <path d="m27.863 20.889v-0.0952"/>
   <path d="m27.863 20.794-0.0476-0.0952"/>
   <path d="m27.816 20.699-0.0476-0.0477"/>
   <path d="m27.768 20.651-0.0953-0.0476"/>
   <path d="m27.673 20.604-0.1905-0.0476"/>
   <path d="m27.482 20.556-0.0952-0.0476"/>
   <path d="m27.387 20.508-0.0476-0.0476"/>
   <path d="m27.339 20.461-0.0476-0.0953"/>
   <path d="m27.292 20.366v-0.0952"/>
   <path d="m27.292 20.27 0.0476-0.0952"/>
   <path d="m27.339 20.175 0.0476-0.0477"/>
   <path d="m27.387 20.127 0.0952-0.0476"/>
   <path d="m27.482 20.08h0.2381"/>
   <path d="m27.72 20.08 0.1429 0.0476"/>
   <path d="m28.196 20.08 0.2381 1"/>
   <path d="m28.434 21.08 0.1905-0.7143"/>
   <path d="m28.625 20.366 0.1905 0.7143"/>
   <path d="m28.816 21.08 0.2381-1"/>
   <path d="m29.387 20.175 0.0476-0.0477"/>
   <path d="m29.434 20.127 0.0953-0.0476"/>
   <path d="m29.53 20.08h0.2381"/>
   <path d="m29.768 20.08 0.0952 0.0476"/>
   <path d="m29.863 20.127 0.0476 0.0477"/>
   <path d="m29.911 20.175 0.0476 0.0952"/>
   <path d="m29.958 20.27v0.0952"/>
   <path d="m29.958 20.366-0.0476 0.1429"/>
   <path d="m29.911 20.508-0.5714 0.5714"/>
   <path d="m29.339 21.08h0.619"/>
  </g>
  <text x="9.5750" y="54.4625" font-size="1.3333" opacity="0" stroke-opacity="0" text-anchor="middle" lengthAdjust="spacingAndGlyphs" textLength="3.2976">SW7</text>
  <g class="stroked-text">
   <desc>SW7</desc>
   <path d="m8.2417 54.37 0.1428 0.0476"/>
   <path d="m8.3845 54.417h0.2381"/>
   <path d="m8.6226 54.417 0.0953-0.0476"/>
   <path d="m8.7179 54.37 0.0476-0.0476"/>
   <path d="m8.7655 54.322 0.0476-0.0953"/>
   <path d="m8.8131 54.227v-0.0952"/>
   <path d="m8.8131 54.132-0.0476-0.0952"/>
   <path d="m8.7655 54.036-0.0476-0.0477"/>
   <path d="m8.7179 53.989-0.0953-0.0476"/>
   <path d="m8.6226 53.941-0.1905-0.0476"/>
   <path d="m8.4321 53.894-0.0952-0.0476"/>
   <path d="m8.3369 53.846-0.0476-0.0476"/>
   <path d="m8.2893 53.798-0.0476-0.0953"/>
   <path d="m8.2417 53.703v-0.0952"/>
   <path d="m8.2417 53.608 0.0476-0.0952"/>
   <path d="m8.2893 53.513 0.0476-0.0477"/>
   <path d="m8.3369 53.465 0.0952-0.0476"/>
   <path d="m8.4321 53.417h0.2381"/>
   <path d="m8.6702 53.417 0.1429 0.0476"/>
   <path d="m9.1464 53.417 0.2381 1"/>
   <path d="m9.3845 54.417 0.1905-0.7143"/>
   <path d="m9.575 53.703 0.1905 0.7143"/>
   <path d="m9.7655 54.417 0.2381-1"/>
   <path d="m10.289 53.417h0.6667"/>
   <path d="m10.956 53.417-0.4286 1"/>
  </g>
  <text x="28.6250" y="59.2250" font-size="1.3333" opacity="0" stroke-opacity="0" text-anchor="middle" lengthAdjust="spacingAndGlyphs" textLength="3.2976">SW8</text>
  <g class="stroked-text">
   <desc>SW8</desc>
   <path d="m27.292 59.132 0.1428 0.0476"/>
   <path d="m27.434 59.18h0.2381"/>
   <path d="m27.673 59.18 0.0953-0.0476"/>
   <path d="m27.768 59.132 0.0476-0.0476"/>
   <path d="m27.816 59.085 0.0476-0.0953"/>
   <path d="m27.863 58.989v-0.0952"/>
   <path d="m27.863 58.894-0.0476-0.0952"/>
   <path d="m27.816 58.799-0.0476-0.0477"/>
   <path d="m27.768 58.751-0.0953-0.0476"/>
   <path d="m27.673 58.704-0.1905-0.0476"/>
   <path d="m27.482 58.656-0.0952-0.0476"/>
   <path d="m27.387 58.608-0.0476-0.0476"/>
   <path d="m27.339 58.561-0.0476-0.0953"/>
   <path d="m27.292 58.466v-0.0952"/>
   <path d="m27.292 58.37 0.0476-0.0952"/>
   <path d="m27.339 58.275 0.0476-0.0477"/>
   <path d="m27.387 58.227 0.0952-0.0476"/>
   <path d="m27.482 58.18h0.2381"/>
   <path d="m27.72 58.18 0.1429 0.0476"/>
   <path d="m28.196 58.18 0.2381 1"/>
   <path d="m28.434 59.18 0.1905-0.7143"/>
   <path d="m28.625 58.466 0.1905 0.7143"/>
   <path d="m28.816 59.18 0.2381-1"/>
   <path d="m29.577 58.608-0.0953-0.0476"/>
   <path d="m29.482 58.561-0.0476-0.0476"/>
   <path d="m29.434 58.513-0.0476-0.0953"/>
   <path d="m29.387 58.418v-0.0476"/>
   <path d="m29.387 58.37 0.0476-0.0952"/>
   <path d="m29.434 58.275 0.0476-0.0477"/>
   <path d="m29.482 58.227 0.0953-0.0476"/>
   <path d="m29.577 58.18h0.1905"/>
   <path d="m29.768 58.18 0.0952 0.0476"/>
   <path d="m29.863 58.227 0.0476 0.0477"/>
   <path d="m29.911 58.275 0.0476 0.0952"/>
   <path d="m29.958 58.37v0.0476"/>
   <path d="m29.958 58.418-0.0476 0.0953"/>
   <path d="m29.911 58.513-0.0476 0.0476"/>
   <path d="m29.863 58.561-0.0952 0.0476"/>
   <path d="m29.768 58.608h-0.1905"/>
   <path d="m29.577 58.608-0.0953 0.0476"/>
   <path d="m29.482 58.656-0.0476 0.0476"/>
   <path d="m29.434 58.704-0.0476 0.0953"/>
   <path d="m29.387 58.799v0.1904"/>
   <path d="m29.387 58.989 0.0476 0.0953"/>
   <path d="m29.434 59.085 0.0476 0.0476"/>
   <path d="m29.482 59.132 0.0953 0.0476"/>
   <path d="m29.577 59.18h0.1905"/>
   <path d="m29.768 59.18 0.0952-0.0476"/>
   <path d="m29.863 59.132 0.0476-0.0476"/>
   <path d="m29.911 59.085 0.0476-0.0953"/>
   <path d="m29.958 58.989v-0.1904"/>
   <path d="m29.958 58.799-0.0476-0.0953"/>
   <path d="m29.911 58.704-0.0476-0.0476"/>
   <path d="m29.863 58.656-0.0952-0.0476"/>
  </g>
  <text x="28.6250" y="2.0750" font-size="1.3333" opacity="0" stroke-opacity="0" text-anchor="middle" lengthAdjust="spacingAndGlyphs" textLength="3.2976">SW1</text>
  <g class="stroked-text">
   <desc>SW1</desc>
   <path d="m27.292 1.9822 0.1428 0.0476"/>
   <path d="m27.434 2.0298h0.2381"/>
   <path d="m27.673 2.0298 0.0953-0.0476"/>
   <path d="m27.768 1.9822 0.0476-0.0476"/>
   <path d="m27.816 1.9346 0.0476-0.0953"/>
   <path d="m27.863 1.8393v-0.0952"/>
   <path d="m27.863 1.7441-0.0476-0.0952"/>
   <path d="m27.816 1.6489-0.0476-0.0477"/>
   <path d="m27.768 1.6012-0.0953-0.0476"/>
   <path d="m27.673 1.5536-0.1905-0.0476"/>
   <path d="m27.482 1.506-0.0952-0.0476"/>
   <path d="m27.387 1.4584-0.0476-0.0476"/>
   <path d="m27.339 1.4108-0.0476-0.0953"/>
   <path d="m27.292 1.3155v-0.0952"/>
   <path d="m27.292 1.2203 0.0476-0.0952"/>
   <path d="m27.339 1.1251 0.0476-0.0477"/>
   <path d="m27.387 1.0774 0.0952-0.0476"/>
   <path d="m27.482 1.0298h0.2381"/>
   <path d="m27.72 1.0298 0.1429 0.0476"/>
   <path d="m28.196 1.0298 0.2381 1"/>
   <path d="m28.434 2.0298 0.1905-0.7143"/>
   <path d="m28.625 1.3155 0.1905 0.7143"/>
   <path d="m28.816 2.0298 0.2381-1"/>
   <path d="m29.958 2.0298h-0.5714"/>
   <path d="m29.673 2.0298v-1"/>
   <path d="m29.673 1.0298-0.0952 0.1429"/>
   <path d="m29.577 1.1727-0.0953 0.0952"/>
   <path d="m29.482 1.2679-0.0952 0.0476"/>
  </g>
  <text x="47.6750" y="68.7500" font-size="1.3333" opacity="0" stroke-opacity="0" text-anchor="middle" lengthAdjust="spacingAndGlyphs" textLength="4.2500">SW12</text>
  <g class="stroked-text">
   <desc>SW12</desc>
   <path d="m45.866 68.657 0.1428 0.0476"/>
   <path d="m46.008 68.705h0.2381"/>
   <path d="m46.246 68.705 0.0953-0.0476"/>
   <path d="m46.342 68.657 0.0476-0.0476"/>
   <path d="m46.389 68.61 0.0476-0.0953"/>
   <path d="m46.437 68.514v-0.0952"/>
   <path d="m46.437 68.419-0.0476-0.0952"/>
   <path d="m46.389 68.324-0.0476-0.0477"/>
   <path d="m46.342 68.276-0.0953-0.0476"/>
   <path d="m46.246 68.229-0.1904-0.0476"/>
   <path d="m46.056 68.181-0.0953-0.0476"/>
   <path d="m45.961 68.133-0.0476-0.0476"/>
   <path d="m45.913 68.086-0.0476-0.0953"/>
   <path d="m45.866 67.99v-0.0952"/>
   <path d="m45.866 67.895 0.0476-0.0952"/>
   <path d="m45.913 67.8 0.0476-0.0477"/>
   <path d="m45.961 67.752 0.0953-0.0476"/>
   <path d="m46.056 67.705h0.238"/>
   <path d="m46.294 67.705 0.1429 0.0476"/>
   <path d="m46.77 67.705 0.2381 1"/>
   <path d="m47.008 68.705 0.1905-0.7143"/>
   <path d="m47.199 67.99 0.1905 0.7143"/>
   <path d="m47.389 68.705 0.2381-1"/>
   <path d="m48.532 68.705h-0.5714"/>
   <path d="m48.246 68.705v-1"/>
   <path d="m48.246 67.705-0.0952 0.1429"/>
   <path d="m48.151 67.848-0.0952 0.0952"/>
   <path d="m48.056 67.943-0.0953 0.0476"/>
   <path d="m48.913 67.8 0.0476-0.0477"/>
   <path d="m48.961 67.752 0.0953-0.0476"/>
   <path d="m49.056 67.705h0.238"/>
   <path d="m49.294 67.705 0.0953 0.0476"/>
   <path d="m49.389 67.752 0.0476 0.0477"/>
   <path d="m49.437 67.8 0.0476 0.0952"/>
   <path d="m49.484 67.895v0.0952"/>
   <path d="m49.484 67.99-0.0476 0.1429"/>
   <path d="m49.437 68.133-0.5714 0.5714"/>
   <path d="m48.866 68.705h0.619"/>
  </g>
  <text x="85.7750" y="59.2250" font-size="1.3333" opacity="0" stroke-opacity="0" text-anchor="middle" lengthAdjust="spacingAndGlyphs" textLength="4.2500">SW11</text>
  <g class="stroked-text">
   <desc>SW11</desc>
   <path d="m83.966 59.132 0.1428 0.0476"/>
   <path d="m84.108 59.18h0.2381"/>
   <path d="m84.346 59.18 0.0953-0.0476"/>
   <path d="m84.442 59.132 0.0476-0.0476"/>
   <path d="m84.489 59.085 0.0476-0.0953"/>
   <path d="m84.537 58.989v-0.0952"/>
   <path d="m84.537 58.894-0.0476-0.0952"/>
   <path d="m84.489 58.799-0.0476-0.0477"/>
   <path d="m84.442 58.751-0.0953-0.0476"/>
   <path d="m84.346 58.704-0.1904-0.0476"/>
   <path d="m84.156 58.656-0.0953-0.0476"/>
   <path d="m84.061 58.608-0.0476-0.0476"/>
   <path d="m84.013 58.561-0.0476-0.0953"/>
   <path d="m83.966 58.466v-0.0952"/>
   <path d="m83.966 58.37 0.0476-0.0952"/>
   <path d="m84.013 58.275 0.0476-0.0477"/>
   <path d="m84.061 58.227 0.0953-0.0476"/>
   <path d="m84.156 58.18h0.238"/>
   <path d="m84.394 58.18 0.1429 0.0476"/>
   <path d="m84.87 58.18 0.2381 1"/>
   <path d="m85.108 59.18 0.1905-0.7143"/>
   <path d="m85.299 58.466 0.1905 0.7143"/>
   <path d="m85.489 59.18 0.2381-1"/>
   <path d="m86.632 59.18h-0.5714"/>
   <path d="m86.346 59.18v-1"/>
   <path d="m86.346 58.18-0.0952 0.1429"/>
   <path d="m86.251 58.323-0.0952 0.0952"/>
   <path d="m86.156 58.418-0.0953 0.0476"/>
   <path d="m87.584 59.18h-0.5714"/>
   <path d="m87.299 59.18v-1"/>
   <path d="m87.299 58.18-0.0952 0.1429"/>
   <path d="m87.204 58.323-0.0953 0.0952"/>
   <path d="m87.108 58.418-0.0952 0.0476"/>
  </g>
  <text x="66.7250" y="30.6500" font-size="1.3333" opacity="0" stroke-opacity="0" text-anchor="middle" lengthAdjust="spacingAndGlyphs" textLength="3.2976">SW5</text>
  <g class="stroked-text">
   <desc>SW5</desc>
   <path d="m65.392 30.557 0.1428 0.0476"/>
   <path d="m65.534 30.605h0.2381"/>
   <path d="m65.773 30.605 0.0953-0.0476"/>
   <path d="m65.868 30.557 0.0476-0.0476"/>
   <path d="m65.916 30.51 0.0476-0.0953"/>
   <path d="m65.963 30.414v-0.0952"/>
   <path d="m65.963 30.319-0.0476-0.0952"/>
   <path d="m65.916 30.224-0.0476-0.0477"/>
   <path d="m65.868 30.176-0.0953-0.0476"/>
   <path d="m65.773 30.129-0.1905-0.0476"/>
   <path d="m65.582 30.081-0.0952-0.0476"/>
   <path d="m65.487 30.033-0.0476-0.0476"/>
   <path d="m65.439 29.986-0.0476-0.0953"/>
   <path d="m65.392 29.89v-0.0952"/>
   <path d="m65.392 29.795 0.0476-0.0952"/>
   <path d="m65.439 29.7 0.0476-0.0477"/>
   <path d="m65.487 29.652 0.0952-0.0476"/>
   <path d="m65.582 29.605h0.2381"/>
   <path d="m65.82 29.605 0.1429 0.0476"/>
   <path d="m66.296 29.605 0.2381 1"/>
   <path d="m66.534 30.605 0.1905-0.7143"/>
   <path d="m66.725 29.89 0.1905 0.7143"/>
   <path d="m66.916 30.605 0.2381-1"/>
   <path d="m68.011 29.605h-0.4762"/>
   <path d="m67.534 29.605-0.0476 0.4762"/>
   <path d="m67.487 30.081 0.0476-0.0476"/>
   <path d="m67.534 30.033 0.0953-0.0476"/>
   <path d="m67.63 29.986h0.2381"/>
   <path d="m67.868 29.986 0.0952 0.0476"/>
   <path d="m67.963 30.033 0.0476 0.0476"/>
   <path d="m68.011 30.081 0.0476 0.0952"/>
   <path d="m68.058 30.176v0.2381"/>
   <path d="m68.058 30.414-0.0476 0.0953"/>
   <path d="m68.011 30.51-0.0476 0.0476"/>
   <path d="m67.963 30.557-0.0952 0.0476"/>
   <path d="m67.868 30.605h-0.2381"/>
   <path d="m67.63 30.605-0.0953-0.0476"/>
   <path d="m67.534 30.557-0.0476-0.0476"/>
  </g>
  <text x="47.6750" y="30.6500" font-size="1.3333" opacity="0" stroke-opacity="0" text-anchor="middle" lengthAdjust="spacingAndGlyphs" textLength="3.2976">SW4</text>
  <g class="stroked-text">
   <desc>SW4</desc>
   <path d="m46.342 30.557 0.1428 0.0476"/>
   <path d="m46.484 30.605h0.2381"/>
   <path d="m46.723 30.605 0.0953-0.0476"/>
   <path d="m46.818 30.557 0.0476-0.0476"/>
   <path d="m46.866 30.51 0.0476-0.0953"/>
   <path d="m46.913 30.414v-0.0952"/>
   <path d="m46.913 30.319-0.0476-0.0952"/>
   <path d="m46.866 30.224-0.0476-0.0477"/>
   <path d="m46.818 30.176-0.0953-0.0476"/>
   <path d="m46.723 30.129-0.1905-0.0476"/>
   <path d="m46.532 30.081-0.0952-0.0476"/>
   <path d="m46.437 30.033-0.0476-0.0476"/>
   <path d="m46.389 29.986-0.0476-0.0953"/>
   <path d="m46.342 29.89v-0.0952"/>
   <path d="m46.342 29.795 0.0476-0.0952"/>
   <path d="m46.389 29.7 0.0476-0.0477"/>
   <path d="m46.437 29.652 0.0952-0.0476"/>
   <path d="m46.532 29.605h0.2381"/>
   <path d="m46.77 29.605 0.1429 0.0476"/>
   <path d="m47.246 29.605 0.2381 1"/>
   <path d="m47.484 30.605 0.1905-0.7143"/>
   <path d="m47.675 29.89 0.1905 0.7143"/>
   <path d="m47.866 30.605 0.2381-1"/>
   <path d="m48.913 29.938v0.6666"/>
   <path d="m48.675 29.557-0.2381 0.7143"/>
   <path d="m48.437 30.272h0.6191"/>
  </g>
  <text x="85.7750" y="40.1750" font-size="1.3333" opacity="0" stroke-opacity="0" text-anchor="middle" lengthAdjust="spacingAndGlyphs" textLength="3.2976">SW6</text>
  <g class="stroked-text">
   <desc>SW6</desc>
   <path d="m84.442 40.082 0.1428 0.0476"/>
   <path d="m84.584 40.13h0.2381"/>
   <path d="m84.823 40.13 0.0953-0.0476"/>
   <path d="m84.918 40.082 0.0476-0.0476"/>
   <path d="m84.966 40.035 0.0476-0.0953"/>
   <path d="m85.013 39.939v-0.0952"/>
   <path d="m85.013 39.844-0.0476-0.0952"/>
   <path d="m84.966 39.749-0.0476-0.0477"/>
   <path d="m84.918 39.701-0.0953-0.0476"/>
   <path d="m84.823 39.654-0.1905-0.0476"/>
   <path d="m84.632 39.606-0.0952-0.0476"/>
   <path d="m84.537 39.558-0.0476-0.0476"/>
   <path d="m84.489 39.511-0.0476-0.0953"/>
   <path d="m84.442 39.416v-0.0952"/>
   <path d="m84.442 39.32 0.0476-0.0952"/>
   <path d="m84.489 39.225 0.0476-0.0477"/>
   <path d="m84.537 39.177 0.0952-0.0476"/>
   <path d="m84.632 39.13h0.2381"/>
   <path d="m84.87 39.13 0.1429 0.0476"/>
   <path d="m85.346 39.13 0.2381 1"/>
   <path d="m85.584 40.13 0.1905-0.7143"/>
   <path d="m85.775 39.416 0.1905 0.7143"/>
   <path d="m85.966 40.13 0.2381-1"/>
   <path d="m87.013 39.13h-0.1905"/>
   <path d="m86.823 39.13-0.0952 0.0476"/>
   <path d="m86.727 39.177-0.0476 0.0477"/>
   <path d="m86.68 39.225-0.0953 0.1428"/>
   <path d="m86.584 39.368-0.0476 0.1905"/>
   <path d="m86.537 39.558v0.3809"/>
   <path d="m86.537 39.939 0.0476 0.0953"/>
   <path d="m86.584 40.035 0.0476 0.0476"/>
   <path d="m86.632 40.082 0.0953 0.0476"/>
   <path d="m86.727 40.13h0.1905"/>
   <path d="m86.918 40.13 0.0952-0.0476"/>
   <path d="m87.013 40.082 0.0476-0.0476"/>
   <path d="m87.061 40.035 0.0476-0.0953"/>
   <path d="m87.108 39.939v-0.2381"/>
   <path d="m87.108 39.701-0.0476-0.0952"/>
   <path d="m87.061 39.606-0.0476-0.0476"/>
   <path d="m87.013 39.558-0.0952-0.0476"/>
   <path d="m86.918 39.511h-0.1905"/>
   <path d="m86.727 39.511-0.0953 0.0476"/>
   <path d="m86.632 39.558-0.0476 0.0476"/>
   <path d="m86.584 39.606-0.0476 0.0952"/>
  </g>
  <text x="47.6750" y="49.7000" font-size="1.3333" opacity="0" stroke-opacity="0" text-anchor="middle" lengthAdjust="spacingAndGlyphs" textLength="3.2976">SW9</text>
  <g class="stroked-text">
   <desc>SW9</desc>
   <path d="m46.342 49.607 0.1428 0.0476"/>
   <path d="m46.484 49.655h0.2381"/>
   <path d="m46.723 49.655 0.0953-0.0476"/>
   <path d="m46.818 49.607 0.0476-0.0476"/>
   <path d="m46.866 49.56 0.0476-0.0953"/>
   <path d="m46.913 49.464v-0.0952"/>
   <path d="m46.913 49.369-0.0476-0.0952"/>
   <path d="m46.866 49.274-0.0476-0.0477"/>
   <path d="m46.818 49.226-0.0953-0.0476"/>
   <path d="m46.723 49.179-0.1905-0.0476"/>
   <path d="m46.532 49.131-0.0952-0.0476"/>
   <path d="m46.437 49.083-0.0476-0.0476"/>
   <path d="m46.389 49.036-0.0476-0.0953"/>
   <path d="m46.342 48.94v-0.0952"/>
   <path d="m46.342 48.845 0.0476-0.0952"/>
   <path d="m46.389 48.75 0.0476-0.0477"/>
   <path d="m46.437 48.702 0.0952-0.0476"/>
   <path d="m46.532 48.655h0.2381"/>
   <path d="m46.77 48.655 0.1429 0.0476"/>
   <path d="m47.246 48.655 0.2381 1"/>
   <path d="m47.484 49.655 0.1905-0.7143"/>
   <path d="m47.675 48.94 0.1905 0.7143"/>
   <path d="m47.866 49.655 0.2381-1"/>
   <path d="m48.532 49.655h0.1905"/>
   <path d="m48.723 49.655 0.0953-0.0476"/>
   <path d="m48.818 49.607 0.0476-0.0476"/>
   <path d="m48.866 49.56 0.0952-0.1429"/>
   <path d="m48.961 49.417 0.0476-0.1905"/>
   <path d="m49.008 49.226v-0.3809"/>
   <path d="m49.008 48.845-0.0476-0.0952"/>
   <path d="m48.961 48.75-0.0476-0.0477"/>
   <path d="m48.913 48.702-0.0952-0.0476"/>
   <path d="m48.818 48.655h-0.1905"/>
   <path d="m48.627 48.655-0.0953 0.0476"/>
   <path d="m48.532 48.702-0.0476 0.0477"/>
   <path d="m48.484 48.75-0.0476 0.0952"/>
   <path d="m48.437 48.845v0.2381"/>
   <path d="m48.437 49.083 0.0476 0.0952"/>
   <path d="m48.484 49.179 0.0476 0.0476"/>
   <path d="m48.532 49.226 0.0953 0.0477"/>
   <path d="m48.627 49.274h0.1905"/>
   <path d="m48.818 49.274 0.0952-0.0477"/>
   <path d="m48.913 49.226 0.0476-0.0476"/>
   <path d="m48.961 49.179 0.0476-0.0952"/>
  </g>
  <text x="66.7250" y="49.7000" font-size="1.3333" opacity="0" stroke-opacity="0" text-anchor="middle" lengthAdjust="spacingAndGlyphs" textLength="4.2500">SW10</text>
  <g class="stroked-text">
   <desc>SW10</desc>
   <path d="m64.916 49.607 0.1428 0.0476"/>
   <path d="m65.058 49.655h0.2381"/>
   <path d="m65.296 49.655 0.0953-0.0476"/>
   <path d="m65.392 49.607 0.0476-0.0476"/>
   <path d="m65.439 49.56 0.0476-0.0953"/>
   <path d="m65.487 49.464v-0.0952"/>
   <path d="m65.487 49.369-0.0476-0.0952"/>
   <path d="m65.439 49.274-0.0476-0.0477"/>
   <path d="m65.392 49.226-0.0953-0.0476"/>
   <path d="m65.296 49.179-0.1904-0.0476"/>
   <path d="m65.106 49.131-0.0953-0.0476"/>
   <path d="m65.011 49.083-0.0476-0.0476"/>
   <path d="m64.963 49.036-0.0476-0.0953"/>
   <path d="m64.916 48.94v-0.0952"/>
   <path d="m64.916 48.845 0.0476-0.0952"/>
   <path d="m64.963 48.75 0.0476-0.0477"/>
   <path d="m65.011 48.702 0.0953-0.0476"/>
   <path d="m65.106 48.655h0.238"/>
   <path d="m65.344 48.655 0.1429 0.0476"/>
   <path d="m65.82 48.655 0.2381 1"/>
   <path d="m66.058 49.655 0.1905-0.7143"/>
   <path d="m66.249 48.94 0.1905 0.7143"/>
   <path d="m66.439 49.655 0.2381-1"/>
   <path d="m67.582 49.655h-0.5714"/>
   <path d="m67.296 49.655v-1"/>
   <path d="m67.296 48.655-0.0952 0.1429"/>
   <path d="m67.201 48.798-0.0952 0.0952"/>
   <path d="m67.106 48.893-0.0953 0.0476"/>
   <path d="m68.201 48.655h0.0952"/>
   <path d="m68.296 48.655 0.0953 0.0476"/>
   <path d="m68.392 48.702 0.0476 0.0477"/>
   <path d="m68.439 48.75 0.0476 0.0952"/>
   <path d="m68.487 48.845 0.0476 0.1905"/>
   <path d="m68.534 49.036v0.2381"/>
   <path d="m68.534 49.274-0.0476 0.1904"/>
   <path d="m68.487 49.464-0.0476 0.0953"/>
   <path d="m68.439 49.56-0.0476 0.0476"/>
   <path d="m68.392 49.607-0.0953 0.0476"/>
   <path d="m68.296 49.655h-0.0952"/>
   <path d="m68.201 49.655-0.0952-0.0476"/>
   <path d="m68.106 49.607-0.0477-0.0476"/>
   <path d="m68.058 49.56-0.0476-0.0953"/>
   <path d="m68.011 49.464-0.0476-0.1904"/>
   <path d="m67.963 49.274v-0.2381"/>
   <path d="m67.963 49.036 0.0476-0.1905"/>
   <path d="m68.011 48.845 0.0476-0.0952"/>
   <path d="m68.058 48.75 0.0477-0.0477"/>
   <path d="m68.106 48.702 0.0952-0.0476"/>
  </g>
  <text x="28.6250" y="40.1750" font-size="1.3333" opacity="0" stroke-opacity="0" text-anchor="middle" lengthAdjust="spacingAndGlyphs" textLength="3.2976">SW3</text>
  <g class="stroked-text">
   <desc>SW3</desc>
   <path d="m27.292 40.082 0.1428 0.0476"/>
   <path d="m27.434 40.13h0.2381"/>
   <path d="m27.673 40.13 0.0953-0.0476"/>
   <path d="m27.768 40.082 0.0476-0.0476"/>
   <path d="m27.816 40.035 0.0476-0.0953"/>
   <path d="m27.863 39.939v-0.0952"/>
   <path d="m27.863 39.844-0.0476-0.0952"/>
   <path d="m27.816 39.749-0.0476-0.0477"/>
   <path d="m27.768 39.701-0.0953-0.0476"/>
   <path d="m27.673 39.654-0.1905-0.0476"/>
   <path d="m27.482 39.606-0.0952-0.0476"/>
   <path d="m27.387 39.558-0.0476-0.0476"/>
   <path d="m27.339 39.511-0.0476-0.0953"/>
   <path d="m27.292 39.416v-0.0952"/>
   <path d="m27.292 39.32 0.0476-0.0952"/>
   <path d="m27.339 39.225 0.0476-0.0477"/>
   <path d="m27.387 39.177 0.0952-0.0476"/>
   <path d="m27.482 39.13h0.2381"/>
   <path d="m27.72 39.13 0.1429 0.0476"/>
   <path d="m28.196 39.13 0.2381 1"/>
   <path d="m28.434 40.13 0.1905-0.7143"/>
   <path d="m28.625 39.416 0.1905 0.7143"/>
   <path d="m28.816 40.13 0.2381-1"/>
   <path d="m29.339 39.13h0.619"/>
   <path d="m29.958 39.13-0.3333 0.381"/>
   <path d="m29.625 39.511h0.1429"/>
   <path d="m29.768 39.511 0.0952 0.0476"/>
   <path d="m29.863 39.558 0.0476 0.0476"/>
   <path d="m29.911 39.606 0.0476 0.0952"/>
   <path d="m29.958 39.701v0.2381"/>
   <path d="m29.958 39.939-0.0476 0.0953"/>
   <path d="m29.911 40.035-0.0476 0.0476"/>
   <path d="m29.863 40.082-0.0952 0.0476"/>
   <path d="m29.768 40.13h-0.2858"/>
   <path d="m29.482 40.13-0.0952-0.0476"/>
   <path d="m29.387 40.082-0.0476-0.0476"/>
  </g>
  <text x="66.7250" y="68.7500" font-size="1.3333" opacity="0" stroke-opacity="0" text-anchor="middle" lengthAdjust="spacingAndGlyphs" textLength="4.2500">SW13</text>
  <g class="stroked-text">
   <desc>SW13</desc>
   <path d="m64.916 68.657 0.1428 0.0476"/>
   <path d="m65.058 68.705h0.2381"/>
   <path d="m65.296 68.705 0.0953-0.0476"/>
   <path d="m65.392 68.657 0.0476-0.0476"/>
   <path d="m65.439 68.61 0.0476-0.0953"/>
   <path d="m65.487 68.514v-0.0952"/>
   <path d="m65.487 68.419-0.0476-0.0952"/>
   <path d="m65.439 68.324-0.0476-0.0477"/>
   <path d="m65.392 68.276-0.0953-0.0476"/>
   <path d="m65.296 68.229-0.1904-0.0476"/>
   <path d="m65.106 68.181-0.0953-0.0476"/>
   <path d="m65.011 68.133-0.0476-0.0476"/>
   <path d="m64.963 68.086-0.0476-0.0953"/>
   <path d="m64.916 67.99v-0.0952"/>
   <path d="m64.916 67.895 0.0476-0.0952"/>
   <path d="m64.963 67.8 0.0476-0.0477"/>
   <path d="m65.011 67.752 0.0953-0.0476"/>
   <path d="m65.106 67.705h0.238"/>
   <path d="m65.344 67.705 0.1429 0.0476"/>
   <path d="m65.82 67.705 0.2381 1"/>
   <path d="m66.058 68.705 0.1905-0.7143"/>
   <path d="m66.249 67.99 0.1905 0.7143"/>
   <path d="m66.439 68.705 0.2381-1"/>
   <path d="m67.582 68.705h-0.5714"/>
   <path d="m67.296 68.705v-1"/>
   <path d="m67.296 67.705-0.0952 0.1429"/>
   <path d="m67.201 67.848-0.0952 0.0952"/>
   <path d="m67.106 67.943-0.0953 0.0476"/>
   <path d="m67.916 67.705h0.619"/>
   <path d="m68.534 67.705-0.3333 0.381"/>
   <path d="m68.201 68.086h0.1428"/>
   <path d="m68.344 68.086 0.0953 0.0476"/>
   <path d="m68.439 68.133 0.0476 0.0476"/>
   <path d="m68.487 68.181 0.0476 0.0952"/>
   <path d="m68.534 68.276v0.2381"/>
   <path d="m68.534 68.514-0.0476 0.0953"/>
   <path d="m68.487 68.61-0.0476 0.0476"/>
   <path d="m68.439 68.657-0.0953 0.0476"/>
   <path d="m68.344 68.705h-0.2857"/>
   <path d="m68.058 68.705-0.0952-0.0476"/>
   <path d="m67.963 68.657-0.0476-0.0476"/>
  </g>
  <text x="57.2000" y="87.8000" font-size="1.3333" opacity="0" stroke-opacity="0" text-anchor="middle" lengthAdjust="spacingAndGlyphs" textLength="4.2500">SW14</text>
  <g class="stroked-text">
   <desc>SW14</desc>
   <path d="m55.39 87.707 0.1428 0.0476"/>
   <path d="m55.533 87.755h0.2381"/>
   <path d="m55.771 87.755 0.0953-0.0476"/>
   <path d="m55.867 87.707 0.0476-0.0476"/>
   <path d="m55.914 87.66 0.0476-0.0953"/>
   <path d="m55.962 87.564v-0.0952"/>
   <path d="m55.962 87.469-0.0476-0.0952"/>
   <path d="m55.914 87.374-0.0476-0.0477"/>
   <path d="m55.867 87.326-0.0953-0.0476"/>
   <path d="m55.771 87.279-0.1904-0.0476"/>
   <path d="m55.581 87.231-0.0953-0.0476"/>
   <path d="m55.486 87.183-0.0476-0.0476"/>
   <path d="m55.438 87.136-0.0476-0.0953"/>
   <path d="m55.39 87.04v-0.0952"/>
   <path d="m55.39 86.945 0.0476-0.0952"/>
   <path d="m55.438 86.85 0.0476-0.0477"/>
   <path d="m55.486 86.802 0.0953-0.0476"/>
   <path d="m55.581 86.755h0.238"/>
   <path d="m55.819 86.755 0.1429 0.0476"/>
   <path d="m56.295 86.755 0.2381 1"/>
   <path d="m56.533 87.755 0.1905-0.7143"/>
   <path d="m56.724 87.04 0.1905 0.7143"/>
   <path d="m56.914 87.755 0.2381-1"/>
   <path d="m58.057 87.755h-0.5714"/>
   <path d="m57.771 87.755v-1"/>
   <path d="m57.771 86.755-0.0952 0.1429"/>
   <path d="m57.676 86.898-0.0952 0.0952"/>
   <path d="m57.581 86.993-0.0953 0.0476"/>
   <path d="m58.914 87.088v0.6666"/>
   <path d="m58.676 86.707-0.2381 0.7143"/>
   <path d="m58.438 87.422h0.619"/>
  </g>
 </g>
 <g fill="none" stroke="#8BE9FD" stroke-linecap="round" stroke-linejoin="round" stroke-width=".12">
  <path d="m21.525 21.525v14.2"/>
  <path d="m21.525 35.725h14.2"/>
  <path d="m35.725 21.525h-14.2"/>
  <path d="m35.725 35.725v-14.2"/>
  <path d="m2.475 54.862v14.2"/>
  <path d="m2.475 69.062h14.2"/>
  <path d="m16.675 54.862h-14.2"/>
  <path d="m16.675 69.062v-14.2"/>
  <path d="m21.525 59.625v14.2"/>
  <path d="m21.525 73.825h14.2"/>
  <path d="m35.725 59.625h-14.2"/>
  <path d="m35.725 73.825v-14.2"/>
  <path d="m21.525 2.475v14.2"/>
  <path d="m21.525 16.675h14.2"/>
  <path d="m35.725 2.475h-14.2"/>
  <path d="m35.725 16.675v-14.2"/>
  <path d="m40.575 69.15v14.2"/>
  <path d="m40.575 83.35h14.2"/>
  <path d="m54.775 69.15h-14.2"/>
  <path d="m54.775 83.35v-14.2"/>
  <path d="m78.675 59.625v14.2"/>
  <path d="m78.675 73.825h14.2"/>
  <path d="m92.875 59.625h-14.2"/>
  <path d="m92.875 73.825v-14.2"/>
  <path d="m59.625 31.05v14.2"/>
  <path d="m59.625 45.25h14.2"/>
  <path d="m73.825 31.05h-14.2"/>
  <path d="m73.825 45.25v-14.2"/>
  <path d="m40.575 31.05v14.2"/>
  <path d="m40.575 45.25h14.2"/>
  <path d="m54.775 31.05h-14.2"/>
  <path d="m54.775 45.25v-14.2"/>
  <path d="m78.675 40.575v14.2"/>
  <path d="m78.675 54.775h14.2"/>
  <path d="m92.875 40.575h-14.2"/>
  <path d="m92.875 54.775v-14.2"/>
  <path d="m40.575 50.1v14.2"/>
  <path d="m40.575 64.3h14.2"/>
  <path d="m54.775 50.1h-14.2"/>
  <path d="m54.775 64.3v-14.2"/>
  <path d="m59.625 50.1v14.2"/>
  <path d="m59.625 64.3h14.2"/>
  <path d="m73.825 50.1h-14.2"/>
  <path d="m73.825 64.3v-14.2"/>
  <path d="m21.525 40.575v14.2"/>
  <path d="m21.525 54.775h14.2"/>
  <path d="m35.725 40.575h-14.2"/>
  <path d="m35.725 54.775v-14.2"/>
  <path d="m59.625 69.15v14.2"/>
  <path d="m59.625 83.35h14.2"/>
  <path d="m73.825 69.15h-14.2"/>
  <path d="m73.825 83.35v-14.2"/>
  <path d="m50.1 88.2v14.2"/>
  <path d="m50.1 102.4h14.2"/>
  <path d="m64.3 88.2h-14.2"/>
  <path d="m64.3 102.4v-14.2"/>
 </g>
 <g fill="#8BE9FD">
  <circle cx="23.545" cy="28.625" r=".875"/>
  <circle cx="28.625" cy="28.625" r="2"/>
  <circle cx="33.705" cy="28.625" r=".875"/>
  <circle cx="24.815" cy="26.085" r=".75"/>
  <circle cx="31.165" cy="23.545" r=".75"/>
  <circle cx="4.495" cy="61.962" r=".875"/>
  <circle cx="9.575" cy="61.962" r="2"/>
  <circle cx="14.655" cy="61.962" r=".875"/>
  <circle cx="5.765" cy="59.422" r=".75"/>
  <circle cx="12.115" cy="56.882" r=".75"/>
  <circle cx="23.545" cy="66.725" r=".875"/>
  <circle cx="28.625" cy="66.725" r="2"/>
  <circle cx="33.705" cy="66.725" r=".875"/>
  <circle cx="24.815" cy="64.185" r=".75"/>
  <circle cx="31.165" cy="61.645" r=".75"/>
  <circle cx="23.545" cy="9.575" r=".875"/>
  <circle cx="28.625" cy="9.575" r="2"/>
  <circle cx="33.705" cy="9.575" r=".875"/>
  <circle cx="24.815" cy="7.035" r=".75"/>
  <circle cx="31.165" cy="4.495" r=".75"/>
  <circle cx="42.595" cy="76.25" r=".875"/>
  <circle cx="47.675" cy="76.25" r="2"/>
  <circle cx="52.755" cy="76.25" r=".875"/>
  <circle cx="43.865" cy="73.71" r=".75"/>
  <circle cx="50.215" cy="71.17" r=".75"/>
  <circle cx="80.695" cy="66.725" r=".875"/>
  <circle cx="85.775" cy="66.725" r="2"/>
  <circle cx="90.855" cy="66.725" r=".875"/>
  <circle cx="81.965" cy="64.185" r=".75"/>
  <circle cx="88.315" cy="61.645" r=".75"/>
  <circle cx="61.645" cy="38.15" r=".875"/>
  <circle cx="66.725" cy="38.15" r="2"/>
  <circle cx="71.805" cy="38.15" r=".875"/>
  <circle cx="62.915" cy="35.61" r=".75"/>
  <circle cx="69.265" cy="33.07" r=".75"/>
  <circle cx="42.595" cy="38.15" r=".875"/>
  <circle cx="47.675" cy="38.15" r="2"/>
  <circle cx="52.755" cy="38.15" r=".875"/>
  <circle cx="43.865" cy="35.61" r=".75"/>
  <circle cx="50.215" cy="33.07" r=".75"/>
  <circle cx="80.695" cy="47.675" r=".875"/>
  <circle cx="85.775" cy="47.675" r="2"/>
  <circle cx="90.855" cy="47.675" r=".875"/>
  <circle cx="81.965" cy="45.135" r=".75"/>
  <circle cx="88.315" cy="42.595" r=".75"/>
  <circle cx="42.595" cy="57.2" r=".875"/>
  <circle cx="47.675" cy="57.2" r="2"/>
  <circle cx="52.755" cy="57.2" r=".875"/>
  <circle cx="43.865" cy="54.66" r=".75"/>
  <circle cx="50.215" cy="52.12" r=".75"/>
  <circle cx="61.645" cy="57.2" r=".875"/>
  <circle cx="66.725" cy="57.2" r="2"/>
  <circle cx="71.805" cy="57.2" r=".875"/>
  <circle cx="62.915" cy="54.66" r=".75"/>
  <circle cx="69.265" cy="52.12" r=".75"/>
  <circle cx="23.545" cy="47.675" r=".875"/>
  <circle cx="28.625" cy="47.675" r="2"/>
  <circle cx="33.705" cy="47.675" r=".875"/>
  <circle cx="24.815" cy="45.135" r=".75"/>
  <circle cx="31.165" cy="42.595" r=".75"/>
  <circle cx="61.645" cy="76.25" r=".875"/>
  <circle cx="66.725" cy="76.25" r="2"/>
  <circle cx="71.805" cy="76.25" r=".875"/>
  <circle cx="62.915" cy="73.71" r=".75"/>
  <circle cx="69.265" cy="71.17" r=".75"/>
  <circle cx="52.12" cy="95.3" r=".875"/>
  <circle cx="57.2" cy="95.3" r="2"/>
  <circle cx="62.28" cy="95.3" r=".875"/>
  <circle cx="53.39" cy="92.76" r=".75"/>
  <circle cx="59.74" cy="90.22" r=".75"/>
 </g>
 <g fill="none" stroke="#BD93F9" stroke-linecap="round" stroke-linejoin="round" stroke-width=".15">
  <g transform="rotate(-90 64.185 99.427)">
   <text transform="scale(-1 1) translate(-128.37)" x="64.1850" y="99.9270" font-size="1.3333" opacity="0" stroke-opacity="0" text-anchor="middle" lengthAdjust="spacingAndGlyphs" textLength="3.1548">D14</text>
  </g>
  <g class="stroked-text">
   <desc>D14</desc>
   <path d="m64.64 98.213h-1"/>
   <path d="m63.64 98.213v0.2381"/>
   <path d="m63.64 98.451 0.0476 0.1429"/>
   <path d="m63.687 98.594 0.0953 0.0952"/>
   <path d="m63.783 98.689 0.0952 0.0476"/>
   <path d="m63.878 98.736 0.1905 0.0476"/>
   <path d="m64.068 98.784h0.1428"/>
   <path d="m64.211 98.784 0.1905-0.0476"/>
   <path d="m64.402 98.736 0.0953-0.0476"/>
   <path d="m64.497 98.689 0.0952-0.0952"/>
   <path d="m64.592 98.594 0.0476-0.1429"/>
   <path d="m64.64 98.451v-0.2381"/>
   <path d="m64.64 99.736v-0.5714"/>
   <path d="m64.64 99.451h-1"/>
   <path d="m63.64 99.451 0.1429-0.0952"/>
   <path d="m63.783 99.356 0.0952-0.0953"/>
   <path d="m63.878 99.26 0.0476-0.0952"/>
   <path d="m63.973 100.59h0.6666"/>
   <path d="m63.592 100.36 0.7143-0.2381"/>
   <path d="m64.306 100.12v0.619"/>
  </g>
  <g transform="rotate(-90 92.76 70.852)">
   <text transform="scale(-1 1) translate(-185.52)" x="92.7600" y="71.3520" font-size="1.3333" opacity="0" stroke-opacity="0" text-anchor="middle" lengthAdjust="spacingAndGlyphs" textLength="3.1548">D11</text>
  </g>
  <g class="stroked-text">
   <desc>D11</desc>
   <path d="m93.215 69.638h-1"/>
   <path d="m92.215 69.638v0.2381"/>
   <path d="m92.215 69.876 0.0476 0.1429"/>
   <path d="m92.262 70.019 0.0953 0.0952"/>
   <path d="m92.358 70.114 0.0952 0.0476"/>
   <path d="m92.453 70.162 0.1905 0.0476"/>
   <path d="m92.643 70.209h0.1428"/>
   <path d="m92.786 70.209 0.1905-0.0476"/>
   <path d="m92.977 70.162 0.0953-0.0476"/>
   <path d="m93.072 70.114 0.0952-0.0952"/>
   <path d="m93.167 70.019 0.0476-0.1429"/>
   <path d="m93.215 69.876v-0.2381"/>
   <path d="m93.215 71.162v-0.5714"/>
   <path d="m93.215 70.876h-1"/>
   <path d="m92.215 70.876 0.1429-0.0952"/>
   <path d="m92.358 70.781 0.0952-0.0953"/>
   <path d="m92.453 70.685 0.0476-0.0952"/>
   <path d="m93.215 72.114v-0.5714"/>
   <path d="m93.215 71.828h-1"/>
   <path d="m92.215 71.828 0.1429-0.0952"/>
   <path d="m92.358 71.733 0.0952-0.0953"/>
   <path d="m92.453 71.638 0.0476-0.0952"/>
  </g>
  <g transform="rotate(-90 73.71 80.377)">
   <text transform="scale(-1 1) translate(-147.42)" x="73.7100" y="80.8770" font-size="1.3333" opacity="0" stroke-opacity="0" text-anchor="middle" lengthAdjust="spacingAndGlyphs" textLength="3.1548">D13</text>
  </g>
  <g class="stroked-text">
   <desc>D13</desc>
   <path d="m74.165 79.163h-1"/>
   <path d="m73.165 79.163v0.2381"/>
   <path d="m73.165 79.401 0.0476 0.1429"/>
   <path d="m73.212 79.544 0.0953 0.0952"/>
   <path d="m73.308 79.639 0.0952 0.0476"/>
   <path d="m73.403 79.686 0.1905 0.0476"/>
   <path d="m73.593 79.734h0.1428"/>
   <path d="m73.736 79.734 0.1905-0.0476"/>
   <path d="m73.927 79.686 0.0953-0.0476"/>
   <path d="m74.022 79.639 0.0952-0.0952"/>
   <path d="m74.117 79.544 0.0476-0.1429"/>
   <path d="m74.165 79.401v-0.2381"/>
   <path d="m74.165 80.686v-0.5714"/>
   <path d="m74.165 80.401h-1"/>
   <path d="m73.165 80.401 0.1429-0.0952"/>
   <path d="m73.308 80.306 0.0952-0.0953"/>
   <path d="m73.403 80.21 0.0476-0.0952"/>
   <path d="m73.165 81.02v0.619"/>
   <path d="m73.165 81.639 0.381-0.3333"/>
   <path d="m73.546 81.306v0.1428"/>
   <path d="m73.546 81.448 0.0476 0.0953"/>
   <path d="m73.593 81.544 0.0476 0.0476"/>
   <path d="m73.641 81.591 0.0952 0.0476"/>
   <path d="m73.736 81.639h0.2381"/>
   <path d="m73.974 81.639 0.0953-0.0476"/>
   <path d="m74.07 81.591 0.0476-0.0476"/>
   <path d="m74.117 81.544 0.0476-0.0953"/>
   <path d="m74.165 81.448v-0.2857"/>
   <path d="m74.165 81.163-0.0476-0.0952"/>
   <path d="m74.117 81.068-0.0476-0.0476"/>
  </g>
  <g transform="rotate(-90 35.61 32.752)">
   <text transform="scale(-1 1) translate(-71.22)" x="35.6100" y="33.2520" font-size="1.3333" opacity="0" stroke-opacity="0" text-anchor="middle" lengthAdjust="spacingAndGlyphs" textLength="2.2024">D2</text>
  </g>
  <g class="stroked-text">
   <desc>D2</desc>
   <path d="m36.065 32.014h-1"/>
   <path d="m35.065 32.014v0.2381"/>
   <path d="m35.065 32.252 0.0476 0.1429"/>
   <path d="m35.112 32.395 0.0953 0.0952"/>
   <path d="m35.208 32.49 0.0952 0.0476"/>
   <path d="m35.303 32.538 0.1905 0.0476"/>
   <path d="m35.493 32.585h0.1428"/>
   <path d="m35.636 32.585 0.1905-0.0476"/>
   <path d="m35.827 32.538 0.0953-0.0476"/>
   <path d="m35.922 32.49 0.0952-0.0952"/>
   <path d="m36.017 32.395 0.0476-0.1429"/>
   <path d="m36.065 32.252v-0.2381"/>
   <path d="m35.16 32.966-0.0477 0.0476"/>
   <path d="m35.112 33.014-0.0476 0.0952"/>
   <path d="m35.065 33.109v0.2381"/>
   <path d="m35.065 33.347 0.0476 0.0953"/>
   <path d="m35.112 33.442 0.0477 0.0476"/>
   <path d="m35.16 33.49 0.0952 0.0476"/>
   <path d="m35.255 33.538h0.0952"/>
   <path d="m35.35 33.538 0.1429-0.0476"/>
   <path d="m35.493 33.49 0.5714-0.5714"/>
   <path d="m36.065 32.919v0.619"/>
  </g>
  <g transform="rotate(-90 16.56 66.09)">
   <text transform="scale(-1 1) translate(-33.12)" x="16.5600" y="66.5895" font-size="1.3333" opacity="0" stroke-opacity="0" text-anchor="middle" lengthAdjust="spacingAndGlyphs" textLength="2.2024">D7</text>
  </g>
  <g class="stroked-text">
   <desc>D7</desc>
   <path d="m17.015 65.351h-1"/>
   <path d="m16.015 65.351v0.2381"/>
   <path d="m16.015 65.59 0.0476 0.1429"/>
   <path d="m16.062 65.732 0.0953 0.0952"/>
   <path d="m16.158 65.828 0.0952 0.0476"/>
   <path d="m16.253 65.875 0.1905 0.0476"/>
   <path d="m16.443 65.923h0.1428"/>
   <path d="m16.586 65.923 0.1905-0.0476"/>
   <path d="m16.777 65.875 0.0953-0.0476"/>
   <path d="m16.872 65.828 0.0952-0.0952"/>
   <path d="m16.967 65.732 0.0476-0.1429"/>
   <path d="m17.015 65.59v-0.2381"/>
   <path d="m16.015 66.256v0.6666"/>
   <path d="m16.015 66.923 1-0.4285"/>
  </g>
  <g transform="rotate(-90 35.61 13.702)">
   <text transform="scale(-1 1) translate(-71.22)" x="35.6100" y="14.2020" font-size="1.3333" opacity="0" stroke-opacity="0" text-anchor="middle" lengthAdjust="spacingAndGlyphs" textLength="2.2024">D1</text>
  </g>
  <g class="stroked-text">
   <desc>D1</desc>
   <path d="m36.065 12.964h-1"/>
   <path d="m35.065 12.964v0.2381"/>
   <path d="m35.065 13.202 0.0476 0.1429"/>
   <path d="m35.112 13.345 0.0953 0.0952"/>
   <path d="m35.208 13.44 0.0952 0.0476"/>
   <path d="m35.303 13.488 0.1905 0.0476"/>
   <path d="m35.493 13.535h0.1428"/>
   <path d="m35.636 13.535 0.1905-0.0476"/>
   <path d="m35.827 13.488 0.0953-0.0476"/>
   <path d="m35.922 13.44 0.0952-0.0952"/>
   <path d="m36.017 13.345 0.0476-0.1429"/>
   <path d="m36.065 13.202v-0.2381"/>
   <path d="m36.065 14.488v-0.5714"/>
   <path d="m36.065 14.202h-1"/>
   <path d="m35.065 14.202 0.1429-0.0952"/>
   <path d="m35.208 14.107 0.0952-0.0953"/>
   <path d="m35.303 14.012 0.0476-0.0952"/>
  </g>
  <g transform="rotate(-90 54.66 80.377)">
   <text transform="scale(-1 1) translate(-109.32)" x="54.6600" y="80.8770" font-size="1.3333" opacity="0" stroke-opacity="0" text-anchor="middle" lengthAdjust="spacingAndGlyphs" textLength="3.1548">D12</text>
  </g>
  <g class="stroked-text">
   <desc>D12</desc>
   <path d="m55.115 79.163h-1"/>
   <path d="m54.115 79.163v0.2381"/>
   <path d="m54.115 79.401 0.0476 0.1429"/>
   <path d="m54.162 79.544 0.0953 0.0952"/>
   <path d="m54.258 79.639 0.0952 0.0476"/>
   <path d="m54.353 79.686 0.1905 0.0476"/>
   <path d="m54.543 79.734h0.1428"/>
   <path d="m54.686 79.734 0.1905-0.0476"/>
   <path d="m54.877 79.686 0.0953-0.0476"/>
   <path d="m54.972 79.639 0.0952-0.0952"/>
   <path d="m55.067 79.544 0.0476-0.1429"/>
   <path d="m55.115 79.401v-0.2381"/>
   <path d="m55.115 80.686v-0.5714"/>
   <path d="m55.115 80.401h-1"/>
   <path d="m54.115 80.401 0.1429-0.0952"/>
   <path d="m54.258 80.306 0.0952-0.0953"/>
   <path d="m54.353 80.21 0.0476-0.0952"/>
   <path d="m54.21 81.068-0.0477 0.0476"/>
   <path d="m54.162 81.115-0.0476 0.0952"/>
   <path d="m54.115 81.21v0.2381"/>
   <path d="m54.115 81.448 0.0476 0.0953"/>
   <path d="m54.162 81.544 0.0477 0.0476"/>
   <path d="m54.21 81.591 0.0952 0.0476"/>
   <path d="m54.305 81.639h0.0952"/>
   <path d="m54.4 81.639 0.1429-0.0476"/>
   <path d="m54.543 81.591 0.5714-0.5714"/>
   <path d="m55.115 81.02v0.619"/>
  </g>
  <g transform="rotate(-90 73.71 61.327)">
   <text transform="scale(-1 1) translate(-147.42)" x="73.7100" y="61.8270" font-size="1.3333" opacity="0" stroke-opacity="0" text-anchor="middle" lengthAdjust="spacingAndGlyphs" textLength="3.1548">D10</text>
  </g>
  <g class="stroked-text">
   <desc>D10</desc>
   <path d="m74.165 60.113h-1"/>
   <path d="m73.165 60.113v0.2381"/>
   <path d="m73.165 60.351 0.0476 0.1429"/>
   <path d="m73.212 60.494 0.0953 0.0952"/>
   <path d="m73.308 60.589 0.0952 0.0476"/>
   <path d="m73.403 60.636 0.1905 0.0476"/>
   <path d="m73.593 60.684h0.1428"/>
   <path d="m73.736 60.684 0.1905-0.0476"/>
   <path d="m73.927 60.636 0.0953-0.0476"/>
   <path d="m74.022 60.589 0.0952-0.0952"/>
   <path d="m74.117 60.494 0.0476-0.1429"/>
   <path d="m74.165 60.351v-0.2381"/>
   <path d="m74.165 61.636v-0.5714"/>
   <path d="m74.165 61.351h-1"/>
   <path d="m73.165 61.351 0.1429-0.0952"/>
   <path d="m73.308 61.256 0.0952-0.0953"/>
   <path d="m73.403 61.16 0.0476-0.0952"/>
   <path d="m73.165 62.256v0.0952"/>
   <path d="m73.165 62.351 0.0476 0.0952"/>
   <path d="m73.212 62.446 0.0477 0.0477"/>
   <path d="m73.26 62.494 0.0952 0.0476"/>
   <path d="m73.355 62.541 0.1905 0.0476"/>
   <path d="m73.546 62.589h0.2381"/>
   <path d="m73.784 62.589 0.1904-0.0476"/>
   <path d="m73.974 62.541 0.0953-0.0476"/>
   <path d="m74.07 62.494 0.0476-0.0477"/>
   <path d="m74.117 62.446 0.0476-0.0952"/>
   <path d="m74.165 62.351v-0.0952"/>
   <path d="m74.165 62.256-0.0476-0.0953"/>
   <path d="m74.117 62.16-0.0476-0.0476"/>
   <path d="m74.07 62.113-0.0953-0.0476"/>
   <path d="m73.974 62.065-0.1904-0.0476"/>
   <path d="m73.784 62.018h-0.2381"/>
   <path d="m73.546 62.018-0.1905 0.0476"/>
   <path d="m73.355 62.065-0.0952 0.0476"/>
   <path d="m73.26 62.113-0.0477 0.0476"/>
   <path d="m73.212 62.16-0.0476 0.0953"/>
  </g>
  <g transform="rotate(-90 35.61 70.852)">
   <text transform="scale(-1 1) translate(-71.22)" x="35.6100" y="71.3520" font-size="1.3333" opacity="0" stroke-opacity="0" text-anchor="middle" lengthAdjust="spacingAndGlyphs" textLength="2.2024">D8</text>
  </g>
  <g class="stroked-text">
   <desc>D8</desc>
   <path d="m36.065 70.114h-1"/>
   <path d="m35.065 70.114v0.2381"/>
   <path d="m35.065 70.352 0.0476 0.1429"/>
   <path d="m35.112 70.495 0.0953 0.0952"/>
   <path d="m35.208 70.59 0.0952 0.0476"/>
   <path d="m35.303 70.638 0.1905 0.0476"/>
   <path d="m35.493 70.685h0.1428"/>
   <path d="m35.636 70.685 0.1905-0.0476"/>
   <path d="m35.827 70.638 0.0953-0.0476"/>
   <path d="m35.922 70.59 0.0952-0.0952"/>
   <path d="m36.017 70.495 0.0476-0.1429"/>
   <path d="m36.065 70.352v-0.2381"/>
   <path d="m35.493 71.257-0.0476-0.0953"/>
   <path d="m35.446 71.162-0.0476-0.0476"/>
   <path d="m35.398 71.114-0.0953-0.0476"/>
   <path d="m35.303 71.066h-0.0476"/>
   <path d="m35.255 71.066-0.0952 0.0476"/>
   <path d="m35.16 71.114-0.0477 0.0476"/>
   <path d="m35.112 71.162-0.0476 0.0953"/>
   <path d="m35.065 71.257v0.1904"/>
   <path d="m35.065 71.447 0.0476 0.0953"/>
   <path d="m35.112 71.542 0.0477 0.0476"/>
   <path d="m35.16 71.59 0.0952 0.0476"/>
   <path d="m35.255 71.638h0.0476"/>
   <path d="m35.303 71.638 0.0953-0.0476"/>
   <path d="m35.398 71.59 0.0476-0.0476"/>
   <path d="m35.446 71.542 0.0476-0.0953"/>
   <path d="m35.493 71.447v-0.1904"/>
   <path d="m35.493 71.257 0.0476-0.0953"/>
   <path d="m35.541 71.162 0.0476-0.0476"/>
   <path d="m35.589 71.114 0.0953-0.0476"/>
   <path d="m35.684 71.066h0.1904"/>
   <path d="m35.874 71.066 0.0953 0.0476"/>
   <path d="m35.97 71.114 0.0476 0.0476"/>
   <path d="m36.017 71.162 0.0476 0.0953"/>
   <path d="m36.065 71.257v0.1904"/>
   <path d="m36.065 71.447-0.0476 0.0953"/>
   <path d="m36.017 71.542-0.0476 0.0476"/>
   <path d="m35.97 71.59-0.0953 0.0476"/>
   <path d="m35.874 71.638h-0.1904"/>
   <path d="m35.684 71.638-0.0953-0.0476"/>
   <path d="m35.589 71.59-0.0476-0.0476"/>
   <path d="m35.541 71.542-0.0476-0.0953"/>
  </g>
  <g transform="rotate(-90 54.66 61.327)">
   <text transform="scale(-1 1) translate(-109.32)" x="54.6600" y="61.8270" font-size="1.3333" opacity="0" stroke-opacity="0" text-anchor="middle" lengthAdjust="spacingAndGlyphs" textLength="2.2024">D9</text>
  </g>
  <g class="stroked-text">
   <desc>D9</desc>
   <path d="m55.115 60.589h-1"/>
   <path d="m54.115 60.589v0.2381"/>
   <path d="m54.115 60.827 0.0476 0.1429"/>
   <path d="m54.162 60.97 0.0953 0.0952"/>
   <path d="m54.258 61.065 0.0952 0.0476"/>
   <path d="m54.353 61.113 0.1905 0.0476"/>
   <path d="m54.543 61.16h0.1428"/>
   <path d="m54.686 61.16 0.1905-0.0476"/>
   <path d="m54.877 61.113 0.0953-0.0476"/>
   <path d="m54.972 61.065 0.0952-0.0952"/>
   <path d="m55.067 60.97 0.0476-0.1429"/>
   <path d="m55.115 60.827v-0.2381"/>
   <path d="m55.115 61.636v0.1905"/>
   <path d="m55.115 61.827-0.0476 0.0952"/>
   <path d="m55.067 61.922-0.0476 0.0477"/>
   <path d="m55.02 61.97-0.1429 0.0952"/>
   <path d="m54.877 62.065-0.1905 0.0476"/>
   <path d="m54.686 62.113h-0.3809"/>
   <path d="m54.305 62.113-0.0952-0.0476"/>
   <path d="m54.21 62.065-0.0477-0.0476"/>
   <path d="m54.162 62.018-0.0476-0.0953"/>
   <path d="m54.115 61.922v-0.1904"/>
   <path d="m54.115 61.732 0.0476-0.0953"/>
   <path d="m54.162 61.636 0.0477-0.0476"/>
   <path d="m54.21 61.589 0.0952-0.0476"/>
   <path d="m54.305 61.541h0.2381"/>
   <path d="m54.543 61.541 0.0952 0.0476"/>
   <path d="m54.639 61.589 0.0476 0.0476"/>
   <path d="m54.686 61.636 0.0477 0.0953"/>
   <path d="m54.734 61.732v0.1904"/>
   <path d="m54.734 61.922-0.0477 0.0953"/>
   <path d="m54.686 62.018-0.0476 0.0476"/>
   <path d="m54.639 62.065-0.0952 0.0476"/>
  </g>
  <g transform="rotate(-90 92.76 51.802)">
   <text transform="scale(-1 1) translate(-185.52)" x="92.7600" y="52.3020" font-size="1.3333" opacity="0" stroke-opacity="0" text-anchor="middle" lengthAdjust="spacingAndGlyphs" textLength="2.2024">D6</text>
  </g>
  <g class="stroked-text">
   <desc>D6</desc>
   <path d="m93.215 51.064h-1"/>
   <path d="m92.215 51.064v0.2381"/>
   <path d="m92.215 51.302 0.0476 0.1429"/>
   <path d="m92.262 51.445 0.0953 0.0952"/>
   <path d="m92.358 51.54 0.0952 0.0476"/>
   <path d="m92.453 51.588 0.1905 0.0476"/>
   <path d="m92.643 51.635h0.1428"/>
   <path d="m92.786 51.635 0.1905-0.0476"/>
   <path d="m92.977 51.588 0.0953-0.0476"/>
   <path d="m93.072 51.54 0.0952-0.0952"/>
   <path d="m93.167 51.445 0.0476-0.1429"/>
   <path d="m93.215 51.302v-0.2381"/>
   <path d="m92.215 52.492v-0.1905"/>
   <path d="m92.215 52.302 0.0476-0.0952"/>
   <path d="m92.262 52.207 0.0477-0.0477"/>
   <path d="m92.31 52.159 0.1428-0.0952"/>
   <path d="m92.453 52.064 0.1905-0.0476"/>
   <path d="m92.643 52.016h0.3809"/>
   <path d="m93.024 52.016 0.0953 0.0476"/>
   <path d="m93.12 52.064 0.0476 0.0476"/>
   <path d="m93.167 52.112 0.0476 0.0953"/>
   <path d="m93.215 52.207v0.1904"/>
   <path d="m93.215 52.397-0.0476 0.0953"/>
   <path d="m93.167 52.492-0.0476 0.0476"/>
   <path d="m93.12 52.54-0.0953 0.0476"/>
   <path d="m93.024 52.588h-0.2381"/>
   <path d="m92.786 52.588-0.0952-0.0476"/>
   <path d="m92.691 52.54-0.0476-0.0476"/>
   <path d="m92.643 52.492-0.0476-0.0953"/>
   <path d="m92.596 52.397v-0.1904"/>
   <path d="m92.596 52.207 0.0476-0.0953"/>
   <path d="m92.643 52.112 0.0476-0.0476"/>
   <path d="m92.691 52.064 0.0952-0.0476"/>
  </g>
  <g transform="rotate(-90 54.66 42.277)">
   <text transform="scale(-1 1) translate(-109.32)" x="54.6600" y="42.7770" font-size="1.3333" opacity="0" stroke-opacity="0" text-anchor="middle" lengthAdjust="spacingAndGlyphs" textLength="2.2024">D4</text>
  </g>
  <g class="stroked-text">
   <desc>D4</desc>
   <path d="m55.115 41.539h-1"/>
   <path d="m54.115 41.539v0.2381"/>
   <path d="m54.115 41.777 0.0476 0.1429"/>
   <path d="m54.162 41.92 0.0953 0.0952"/>
   <path d="m54.258 42.015 0.0952 0.0476"/>
   <path d="m54.353 42.063 0.1905 0.0476"/>
   <path d="m54.543 42.11h0.1428"/>
   <path d="m54.686 42.11 0.1905-0.0476"/>
   <path d="m54.877 42.063 0.0953-0.0476"/>
   <path d="m54.972 42.015 0.0952-0.0952"/>
   <path d="m55.067 41.92 0.0476-0.1429"/>
   <path d="m55.115 41.777v-0.2381"/>
   <path d="m54.448 42.968h0.6666"/>
   <path d="m54.067 42.729 0.7143-0.2381"/>
   <path d="m54.782 42.491v0.619"/>
  </g>
  <g transform="rotate(-90 73.71 42.277)">
   <text transform="scale(-1 1) translate(-147.42)" x="73.7100" y="42.7770" font-size="1.3333" opacity="0" stroke-opacity="0" text-anchor="middle" lengthAdjust="spacingAndGlyphs" textLength="2.2024">D5</text>
  </g>
  <g class="stroked-text">
   <desc>D5</desc>
   <path d="m74.165 41.539h-1"/>
   <path d="m73.165 41.539v0.2381"/>
   <path d="m73.165 41.777 0.0476 0.1429"/>
   <path d="m73.212 41.92 0.0953 0.0952"/>
   <path d="m73.308 42.015 0.0952 0.0476"/>
   <path d="m73.403 42.063 0.1905 0.0476"/>
   <path d="m73.593 42.11h0.1428"/>
   <path d="m73.736 42.11 0.1905-0.0476"/>
   <path d="m73.927 42.063 0.0953-0.0476"/>
   <path d="m74.022 42.015 0.0952-0.0952"/>
   <path d="m74.117 41.92 0.0476-0.1429"/>
   <path d="m74.165 41.777v-0.2381"/>
   <path d="m73.165 43.015v-0.4762"/>
   <path d="m73.165 42.539 0.4762-0.0476"/>
   <path d="m73.641 42.491-0.0476 0.0476"/>
   <path d="m73.593 42.539-0.0476 0.0952"/>
   <path d="m73.546 42.634v0.2381"/>
   <path d="m73.546 42.872 0.0476 0.0953"/>
   <path d="m73.593 42.968 0.0476 0.0476"/>
   <path d="m73.641 43.015 0.0952 0.0476"/>
   <path d="m73.736 43.063h0.2381"/>
   <path d="m73.974 43.063 0.0953-0.0476"/>
   <path d="m74.07 43.015 0.0476-0.0476"/>
   <path d="m74.117 42.968 0.0476-0.0953"/>
   <path d="m74.165 42.872v-0.2381"/>
   <path d="m74.165 42.634-0.0476-0.0952"/>
   <path d="m74.117 42.539-0.0476-0.0476"/>
  </g>
  <g transform="rotate(-90 35.61 51.802)">
   <text transform="scale(-1 1) translate(-71.22)" x="35.6100" y="52.3020" font-size="1.3333" opacity="0" stroke-opacity="0" text-anchor="middle" lengthAdjust="spacingAndGlyphs" textLength="2.2024">D3</text>
  </g>
  <g class="stroked-text">
   <desc>D3</desc>
   <path d="m36.065 51.064h-1"/>
   <path d="m35.065 51.064v0.2381"/>
   <path d="m35.065 51.302 0.0476 0.1429"/>
   <path d="m35.112 51.445 0.0953 0.0952"/>
   <path d="m35.208 51.54 0.0952 0.0476"/>
   <path d="m35.303 51.588 0.1905 0.0476"/>
   <path d="m35.493 51.635h0.1428"/>
   <path d="m35.636 51.635 0.1905-0.0476"/>
   <path d="m35.827 51.588 0.0953-0.0476"/>
   <path d="m35.922 51.54 0.0952-0.0952"/>
   <path d="m36.017 51.445 0.0476-0.1429"/>
   <path d="m36.065 51.302v-0.2381"/>
   <path d="m35.065 51.969v0.619"/>
   <path d="m35.065 52.588 0.381-0.3333"/>
   <path d="m35.446 52.254v0.1428"/>
   <path d="m35.446 52.397 0.0476 0.0953"/>
   <path d="m35.493 52.492 0.0476 0.0476"/>
   <path d="m35.541 52.54 0.0952 0.0476"/>
   <path d="m35.636 52.588h0.2381"/>
   <path d="m35.874 52.588 0.0953-0.0476"/>
   <path d="m35.97 52.54 0.0476-0.0476"/>
   <path d="m36.017 52.492 0.0476-0.0953"/>
   <path d="m36.065 52.397v-0.2857"/>
   <path d="m36.065 52.112-0.0476-0.0952"/>
   <path d="m36.017 52.016-0.0476-0.0476"/>
  </g>
 </g>
 <g fill="none" stroke="#BD93F9" stroke-linecap="round" stroke-linejoin="round" stroke-width=".12">
  <path d="m61.28 97.65v3.86"/>
  <path d="m61.28 101.51h2"/>
  <path d="m63.28 97.65v3.86"/>
  <path d="m89.855 69.075v3.86"/>
  <path d="m89.855 72.935h2"/>
  <path d="m91.855 69.075v3.86"/>
  <path d="m70.805 78.6v3.86"/>
  <path d="m70.805 82.46h2"/>
  <path d="m72.805 78.6v3.86"/>
  <path d="m32.705 30.975v3.86"/>
  <path d="m32.705 34.835h2"/>
  <path d="m34.705 30.975v3.86"/>
  <path d="m13.655 64.312v3.86"/>
  <path d="m13.655 68.172h2"/>
  <path d="m15.655 64.312v3.86"/>
  <path d="m32.705 11.925v3.86"/>
  <path d="m32.705 15.785h2"/>
  <path d="m34.705 11.925v3.86"/>
  <path d="m51.755 78.6v3.86"/>
  <path d="m51.755 82.46h2"/>
  <path d="m53.755 78.6v3.86"/>
  <path d="m70.805 59.55v3.86"/>
  <path d="m70.805 63.41h2"/>
  <path d="m72.805 59.55v3.86"/>
  <path d="m32.705 69.075v3.86"/>
  <path d="m32.705 72.935h2"/>
  <path d="m34.705 69.075v3.86"/>
  <path d="m51.755 59.55v3.86"/>
  <path d="m51.755 63.41h2"/>
  <path d="m53.755 59.55v3.86"/>
  <path d="m89.855 50.025v3.86"/>
  <path d="m89.855 53.885h2"/>
  <path d="m91.855 50.025v3.86"/>
  <path d="m51.755 40.5v3.86"/>
  <path d="m51.755 44.36h2"/>
  <path d="m53.755 40.5v3.86"/>
  <path d="m70.805 40.5v3.86"/>
  <path d="m70.805 44.36h2"/>
  <path d="m72.805 40.5v3.86"/>
  <path d="m32.705 50.025v3.86"/>
  <path d="m32.705 53.885h2"/>
  <path d="m34.705 50.025v3.86"/>
 </g>
 <g>
  <g fill="#BD93F9">
   <circle cx="23.545" cy="28.625" r=".875"/>
   <circle cx="28.625" cy="28.625" r="2"/>
   <circle cx="33.705" cy="28.625" r=".875"/>
   <circle cx="24.815" cy="26.085" r=".75"/>
   <circle cx="31.165" cy="23.545" r=".75"/>
   <circle cx="4.495" cy="61.962" r=".875"/>
   <circle cx="9.575" cy="61.962" r="2"/>
   <circle cx="14.655" cy="61.962" r=".875"/>
   <circle cx="5.765" cy="59.422" r=".75"/>
   <circle cx="12.115" cy="56.882" r=".75"/>
   <circle cx="23.545" cy="66.725" r=".875"/>
   <circle cx="28.625" cy="66.725" r="2"/>
   <circle cx="33.705" cy="66.725" r=".875"/>
   <circle cx="24.815" cy="64.185" r=".75"/>
   <circle cx="31.165" cy="61.645" r=".75"/>
   <circle cx="23.545" cy="9.575" r=".875"/>
   <circle cx="28.625" cy="9.575" r="2"/>
   <circle cx="33.705" cy="9.575" r=".875"/>
   <circle cx="24.815" cy="7.035" r=".75"/>
   <circle cx="31.165" cy="4.495" r=".75"/>
   <circle cx="42.595" cy="76.25" r=".875"/>
   <circle cx="47.675" cy="76.25" r="2"/>
   <circle cx="52.755" cy="76.25" r=".875"/>
   <circle cx="43.865" cy="73.71" r=".75"/>
   <circle cx="50.215" cy="71.17" r=".75"/>
   <circle cx="80.695" cy="66.725" r=".875"/>
   <circle cx="85.775" cy="66.725" r="2"/>
   <circle cx="90.855" cy="66.725" r=".875"/>
   <circle cx="81.965" cy="64.185" r=".75"/>
   <circle cx="88.315" cy="61.645" r=".75"/>
   <circle cx="61.645" cy="38.15" r=".875"/>
   <circle cx="66.725" cy="38.15" r="2"/>
   <circle cx="71.805" cy="38.15" r=".875"/>
   <circle cx="62.915" cy="35.61" r=".75"/>
   <circle cx="69.265" cy="33.07" r=".75"/>
   <circle cx="42.595" cy="38.15" r=".875"/>
   <circle cx="47.675" cy="38.15" r="2"/>
   <circle cx="52.755" cy="38.15" r=".875"/>
   <circle cx="43.865" cy="35.61" r=".75"/>
   <circle cx="50.215" cy="33.07" r=".75"/>
   <circle cx="80.695" cy="47.675" r=".875"/>
   <circle cx="85.775" cy="47.675" r="2"/>
   <circle cx="90.855" cy="47.675" r=".875"/>
   <circle cx="81.965" cy="45.135" r=".75"/>
   <circle cx="88.315" cy="42.595" r=".75"/>
   <circle cx="42.595" cy="57.2" r=".875"/>
   <circle cx="47.675" cy="57.2" r="2"/>
   <circle cx="52.755" cy="57.2" r=".875"/>
   <circle cx="43.865" cy="54.66" r=".75"/>
   <circle cx="50.215" cy="52.12" r=".75"/>
   <circle cx="61.645" cy="57.2" r=".875"/>
   <circle cx="66.725" cy="57.2" r="2"/>
   <circle cx="71.805" cy="57.2" r=".875"/>
   <circle cx="62.915" cy="54.66" r=".75"/>
   <circle cx="69.265" cy="52.12" r=".75"/>
   <circle cx="23.545" cy="47.675" r=".875"/>
   <circle cx="28.625" cy="47.675" r="2"/>
   <circle cx="33.705" cy="47.675" r=".875"/>
   <circle cx="24.815" cy="45.135" r=".75"/>
   <circle cx="31.165" cy="42.595" r=".75"/>
   <circle cx="61.645" cy="76.25" r=".875"/>
   <circle cx="66.725" cy="76.25" r="2"/>
   <circle cx="71.805" cy="76.25" r=".875"/>
   <circle cx="62.915" cy="73.71" r=".75"/>
   <circle cx="69.265" cy="71.17" r=".75"/>
   <circle cx="52.12" cy="95.3" r=".875"/>
   <circle cx="57.2" cy="95.3" r="2"/>
   <circle cx="62.28" cy="95.3" r=".875"/>
   <circle cx="53.39" cy="92.76" r=".75"/>
   <circle cx="59.74" cy="90.22" r=".75"/>
  </g>
  <g>
   <circle cx="23.545" cy="28.625" r=".875"/>
   <circle cx="28.625" cy="28.625" r="2"/>
   <circle cx="33.705" cy="28.625" r=".875"/>
   <circle cx="24.815" cy="26.085" r=".75"/>
   <circle cx="31.165" cy="23.545" r=".75"/>
   <circle cx="4.495" cy="61.962" r=".875"/>
   <circle cx="9.575" cy="61.962" r="2"/>
   <circle cx="14.655" cy="61.962" r=".875"/>
   <circle cx="5.765" cy="59.422" r=".75"/>
   <circle cx="12.115" cy="56.882" r=".75"/>
   <circle cx="23.545" cy="66.725" r=".875"/>
   <circle cx="28.625" cy="66.725" r="2"/>
   <circle cx="33.705" cy="66.725" r=".875"/>
   <circle cx="24.815" cy="64.185" r=".75"/>
   <circle cx="31.165" cy="61.645" r=".75"/>
   <circle cx="23.545" cy="9.575" r=".875"/>
   <circle cx="28.625" cy="9.575" r="2"/>
   <circle cx="33.705" cy="9.575" r=".875"/>
   <circle cx="24.815" cy="7.035" r=".75"/>
   <circle cx="31.165" cy="4.495" r=".75"/>
   <circle cx="42.595" cy="76.25" r=".875"/>
   <circle cx="47.675" cy="76.25" r="2"/>
   <circle cx="52.755" cy="76.25" r=".875"/>
   <circle cx="43.865" cy="73.71" r=".75"/>
   <circle cx="50.215" cy="71.17" r=".75"/>
   <circle cx="80.695" cy="66.725" r=".875"/>
   <circle cx="85.775" cy="66.725" r="2"/>
   <circle cx="90.855" cy="66.725" r=".875"/>
   <circle cx="81.965" cy="64.185" r=".75"/>
   <circle cx="88.315" cy="61.645" r=".75"/>
   <circle cx="61.645" cy="38.15" r=".875"/>
   <circle cx="66.725" cy="38.15" r="2"/>
   <circle cx="71.805" cy="38.15" r=".875"/>
   <circle cx="62.915" cy="35.61" r=".75"/>
   <circle cx="69.265" cy="33.07" r=".75"/>
   <circle cx="42.595" cy="38.15" r=".875"/>
   <circle cx="47.675" cy="38.15" r="2"/>
   <circle cx="52.755" cy="38.15" r=".875"/>
   <circle cx="43.865" cy="35.61" r=".75"/>
   <circle cx="50.215" cy="33.07" r=".75"/>
   <circle cx="80.695" cy="47.675" r=".875"/>
   <circle cx="85.775" cy="47.675" r="2"/>
   <circle cx="90.855" cy="47.675" r=".875"/>
   <circle cx="81.965" cy="45.135" r=".75"/>
   <circle cx="88.315" cy="42.595" r=".75"/>
   <circle cx="42.595" cy="57.2" r=".875"/>
   <circle cx="47.675" cy="57.2" r="2"/>
   <circle cx="52.755" cy="57.2" r=".875"/>
   <circle cx="43.865" cy="54.66" r=".75"/>
   <circle cx="50.215" cy="52.12" r=".75"/>
   <circle cx="61.645" cy="57.2" r=".875"/>
   <circle cx="66.725" cy="57.2" r="2"/>
   <circle cx="71.805" cy="57.2" r=".875"/>
   <circle cx="62.915" cy="54.66" r=".75"/>
   <circle cx="69.265" cy="52.12" r=".75"/>
   <circle cx="23.545" cy="47.675" r=".875"/>
   <circle cx="28.625" cy="47.675" r="2"/>
   <circle cx="33.705" cy="47.675" r=".875"/>
   <circle cx="24.815" cy="45.135" r=".75"/>
   <circle cx="31.165" cy="42.595" r=".75"/>
   <circle cx="61.645" cy="76.25" r=".875"/>
   <circle cx="66.725" cy="76.25" r="2"/>
   <circle cx="71.805" cy="76.25" r=".875"/>
   <circle cx="62.915" cy="73.71" r=".75"/>
   <circle cx="69.265" cy="71.17" r=".75"/>
   <circle cx="52.12" cy="95.3" r=".875"/>
   <circle cx="57.2" cy="95.3" r="2"/>
   <circle cx="62.28" cy="95.3" r=".875"/>
   <circle cx="53.39" cy="92.76" r=".75"/>
   <circle cx="59.74" cy="90.22" r=".75"/>
  </g>
  <g fill="#f55">
   <circle cx="24.815" cy="26.085" r="1.25"/>
   <circle cx="31.165" cy="23.545" r="1.25"/>
   <circle cx="5.765" cy="59.422" r="1.25"/>
   <circle cx="12.115" cy="56.882" r="1.25"/>
   <circle cx="24.815" cy="64.185" r="1.25"/>
   <circle cx="31.165" cy="61.645" r="1.25"/>
   <circle cx="24.815" cy="7.035" r="1.25"/>
   <circle cx="31.165" cy="4.495" r="1.25"/>
   <circle cx="43.865" cy="73.71" r="1.25"/>
   <circle cx="50.215" cy="71.17" r="1.25"/>
   <circle cx="81.965" cy="64.185" r="1.25"/>
   <circle cx="88.315" cy="61.645" r="1.25"/>
   <circle cx="62.915" cy="35.61" r="1.25"/>
   <circle cx="69.265" cy="33.07" r="1.25"/>
   <circle cx="43.865" cy="35.61" r="1.25"/>
   <circle cx="50.215" cy="33.07" r="1.25"/>
   <circle cx="81.965" cy="45.135" r="1.25"/>
   <circle cx="88.315" cy="42.595" r="1.25"/>
   <circle cx="43.865" cy="54.66" r="1.25"/>
   <circle cx="50.215" cy="52.12" r="1.25"/>
   <circle cx="62.915" cy="54.66" r="1.25"/>
   <circle cx="69.265" cy="52.12" r="1.25"/>
   <circle cx="24.815" cy="45.135" r="1.25"/>
   <circle cx="31.165" cy="42.595" r="1.25"/>
   <circle cx="62.915" cy="73.71" r="1.25"/>
   <circle cx="69.265" cy="71.17" r="1.25"/>
   <circle cx="53.39" cy="92.76" r="1.25"/>
   <circle cx="59.74" cy="90.22" r="1.25"/>
  </g>
  <g fill="#fff">
   <circle cx="23.545" cy="28.625" r=".875"/>
   <circle cx="28.625" cy="28.625" r="2"/>
   <circle cx="33.705" cy="28.625" r=".875"/>
   <circle cx="24.815" cy="26.085" r=".75"/>
   <circle cx="31.165" cy="23.545" r=".75"/>
   <circle cx="4.495" cy="61.962" r=".875"/>
   <circle cx="9.575" cy="61.962" r="2"/>
   <circle cx="14.655" cy="61.962" r=".875"/>
   <circle cx="5.765" cy="59.422" r=".75"/>
   <circle cx="12.115" cy="56.882" r=".75"/>
   <circle cx="23.545" cy="66.725" r=".875"/>
   <circle cx="28.625" cy="66.725" r="2"/>
   <circle cx="33.705" cy="66.725" r=".875"/>
   <circle cx="24.815" cy="64.185" r=".75"/>
   <circle cx="31.165" cy="61.645" r=".75"/>
   <circle cx="23.545" cy="9.575" r=".875"/>
   <circle cx="28.625" cy="9.575" r="2"/>
   <circle cx="33.705" cy="9.575" r=".875"/>
   <circle cx="24.815" cy="7.035" r=".75"/>
   <circle cx="31.165" cy="4.495" r=".75"/>
   <circle cx="42.595" cy="76.25" r=".875"/>
   <circle cx="47.675" cy="76.25" r="2"/>
   <circle cx="52.755" cy="76.25" r=".875"/>
   <circle cx="43.865" cy="73.71" r=".75"/>
   <circle cx="50.215" cy="71.17" r=".75"/>
   <circle cx="80.695" cy="66.725" r=".875"/>
   <circle cx="85.775" cy="66.725" r="2"/>
   <circle cx="90.855" cy="66.725" r=".875"/>
   <circle cx="81.965" cy="64.185" r=".75"/>
   <circle cx="88.315" cy="61.645" r=".75"/>
   <circle cx="61.645" cy="38.15" r=".875"/>
   <circle cx="66.725" cy="38.15" r="2"/>
   <circle cx="71.805" cy="38.15" r=".875"/>
   <circle cx="62.915" cy="35.61" r=".75"/>
   <circle cx="69.265" cy="33.07" r=".75"/>
   <circle cx="42.595" cy="38.15" r=".875"/>
   <circle cx="47.675" cy="38.15" r="2"/>
   <circle cx="52.755" cy="38.15" r=".875"/>
   <circle cx="43.865" cy="35.61" r=".75"/>
   <circle cx="50.215" cy="33.07" r=".75"/>
   <circle cx="80.695" cy="47.675" r=".875"/>
   <circle cx="85.775" cy="47.675" r="2"/>
   <circle cx="90.855" cy="47.675" r=".875"/>
   <circle cx="81.965" cy="45.135" r=".75"/>
   <circle cx="88.315" cy="42.595" r=".75"/>
   <circle cx="42.595" cy="57.2" r=".875"/>
   <circle cx="47.675" cy="57.2" r="2"/>
   <circle cx="52.755" cy="57.2" r=".875"/>
   <circle cx="43.865" cy="54.66" r=".75"/>
   <circle cx="50.215" cy="52.12" r=".75"/>
   <circle cx="61.645" cy="57.2" r=".875"/>
   <circle cx="66.725" cy="57.2" r="2"/>
   <circle cx="71.805" cy="57.2" r=".875"/>
   <circle cx="62.915" cy="54.66" r=".75"/>
   <circle cx="69.265" cy="52.12" r=".75"/>
   <circle cx="23.545" cy="47.675" r=".875"/>
   <circle cx="28.625" cy="47.675" r="2"/>
   <circle cx="33.705" cy="47.675" r=".875"/>
   <circle cx="24.815" cy="45.135" r=".75"/>
   <circle cx="31.165" cy="42.595" r=".75"/>
   <circle cx="61.645" cy="76.25" r=".875"/>
   <circle cx="66.725" cy="76.25" r="2"/>
   <circle cx="71.805" cy="76.25" r=".875"/>
   <circle cx="62.915" cy="73.71" r=".75"/>
   <circle cx="69.265" cy="71.17" r=".75"/>
   <circle cx="52.12" cy="95.3" r=".875"/>
   <circle cx="57.2" cy="95.3" r="2"/>
   <circle cx="62.28" cy="95.3" r=".875"/>
   <circle cx="53.39" cy="92.76" r=".75"/>
   <circle cx="59.74" cy="90.22" r=".75"/>
  </g>
  <g fill="#50FA7B">
   <circle cx="24.815" cy="26.085" r="1.25"/>
   <circle cx="31.165" cy="23.545" r="1.25"/>
   <circle cx="5.765" cy="59.422" r="1.25"/>
   <circle cx="12.115" cy="56.882" r="1.25"/>
   <circle cx="24.815" cy="64.185" r="1.25"/>
   <circle cx="31.165" cy="61.645" r="1.25"/>
   <circle cx="24.815" cy="7.035" r="1.25"/>
   <circle cx="31.165" cy="4.495" r="1.25"/>
   <circle cx="43.865" cy="73.71" r="1.25"/>
   <circle cx="50.215" cy="71.17" r="1.25"/>
   <circle cx="81.965" cy="64.185" r="1.25"/>
   <circle cx="88.315" cy="61.645" r="1.25"/>
   <circle cx="62.915" cy="35.61" r="1.25"/>
   <circle cx="69.265" cy="33.07" r="1.25"/>
   <circle cx="43.865" cy="35.61" r="1.25"/>
   <circle cx="50.215" cy="33.07" r="1.25"/>
   <circle cx="81.965" cy="45.135" r="1.25"/>
   <circle cx="88.315" cy="42.595" r="1.25"/>
   <circle cx="43.865" cy="54.66" r="1.25"/>
   <circle cx="50.215" cy="52.12" r="1.25"/>
   <circle cx="62.915" cy="54.66" r="1.25"/>
   <circle cx="69.265" cy="52.12" r="1.25"/>
   <circle cx="24.815" cy="45.135" r="1.25"/>
   <circle cx="31.165" cy="42.595" r="1.25"/>
   <circle cx="62.915" cy="73.71" r="1.25"/>
   <circle cx="69.265" cy="71.17" r="1.25"/>
   <circle cx="53.39" cy="92.76" r="1.25"/>
   <circle cx="59.74" cy="90.22" r="1.25"/>
   <g fill="#50FA7B" fill-rule="evenodd">
    <path d="m61.98 101.25-0.0957-0.019-0.0811-0.0542-0.0542-0.0811-0.019-0.0957v-0.6l0.019-0.0957 0.0542-0.0811 0.0811-0.0542 0.0957-0.019h0.6l0.0957 0.019 0.0811 0.0542 0.0542 0.0811 0.019 0.0957v0.6l-0.019 0.0957-0.0542 0.0811-0.0811 0.0542-0.0957 0.019z"/>
    <path d="m61.98 98.45-0.0957-0.019-0.0811-0.0542-0.0542-0.0811-0.019-0.0957v-0.6l0.019-0.0957 0.0542-0.0811 0.0811-0.0542 0.0957-0.019h0.6l0.0957 0.019 0.0811 0.0542 0.0542 0.0811 0.019 0.0957v0.6l-0.019 0.0957-0.0542 0.0811-0.0811 0.0542-0.0957 0.019z"/>
    <path d="m90.555 72.675-0.0957-0.019-0.0811-0.0542-0.0542-0.0811-0.019-0.0957v-0.6l0.019-0.0957 0.0542-0.0811 0.0811-0.0542 0.0957-0.019h0.6l0.0957 0.019 0.0811 0.0542 0.0542 0.0811 0.019 0.0957v0.6l-0.019 0.0957-0.0542 0.0811-0.0811 0.0542-0.0957 0.019z"/>
    <path d="m90.555 69.875-0.0957-0.019-0.0811-0.0542-0.0542-0.0811-0.019-0.0957v-0.6l0.019-0.0957 0.0542-0.0811 0.0811-0.0542 0.0957-0.019h0.6l0.0957 0.019 0.0811 0.0542 0.0542 0.0811 0.019 0.0957v0.6l-0.019 0.0957-0.0542 0.0811-0.0811 0.0542-0.0957 0.019z"/>
    <path d="m71.505 82.2-0.0957-0.019-0.0811-0.0542-0.0542-0.0811-0.019-0.0957v-0.6l0.019-0.0957 0.0542-0.0811 0.0811-0.0542 0.0957-0.019h0.6l0.0957 0.019 0.0811 0.0542 0.0542 0.0811 0.019 0.0957v0.6l-0.019 0.0957-0.0542 0.0811-0.0811 0.0542-0.0957 0.019z"/>
    <path d="m71.505 79.4-0.0957-0.019-0.0811-0.0542-0.0542-0.0811-0.019-0.0957v-0.6l0.019-0.0957 0.0542-0.0811 0.0811-0.0542 0.0957-0.019h0.6l0.0957 0.019 0.0811 0.0542 0.0542 0.0811 0.019 0.0957v0.6l-0.019 0.0957-0.0542 0.0811-0.0811 0.0542-0.0957 0.019z"/>
    <path d="m33.405 34.575-0.0957-0.019-0.0811-0.0542-0.0542-0.0811-0.019-0.0957v-0.6l0.019-0.0957 0.0542-0.0811 0.0811-0.0542 0.0957-0.019h0.6l0.0957 0.019 0.0811 0.0542 0.0542 0.0811 0.019 0.0957v0.6l-0.019 0.0957-0.0542 0.0811-0.0811 0.0542-0.0957 0.019z"/>
    <path d="m33.405 31.775-0.0957-0.019-0.0811-0.0542-0.0542-0.0811-0.019-0.0957v-0.6l0.019-0.0957 0.0542-0.0811 0.0811-0.0542 0.0957-0.019h0.6l0.0957 0.019 0.0811 0.0542 0.0542 0.0811 0.019 0.0957v0.6l-0.019 0.0957-0.0542 0.0811-0.0811 0.0542-0.0957 0.019z"/>
    <path d="m14.355 67.912-0.0957-0.019-0.0811-0.0542-0.0542-0.0811-0.019-0.0957v-0.6l0.019-0.0957 0.0542-0.0811 0.0811-0.0542 0.0957-0.019h0.6l0.0957 0.019 0.0811 0.0542 0.0542 0.0811 0.019 0.0957v0.6l-0.019 0.0957-0.0542 0.0811-0.0811 0.0542-0.0957 0.019z"/>
    <path d="m14.355 65.112-0.0957-0.019-0.0811-0.0542-0.0542-0.0811-0.019-0.0957v-0.6l0.019-0.0957 0.0542-0.0811 0.0811-0.0542 0.0957-0.019h0.6l0.0957 0.019 0.0811 0.0542 0.0542 0.0811 0.019 0.0957v0.6l-0.019 0.0957-0.0542 0.0811-0.0811 0.0542-0.0957 0.019z"/>
    <path d="m33.405 15.525-0.0957-0.019-0.0811-0.0542-0.0542-0.0811-0.019-0.0957v-0.6l0.019-0.0957 0.0542-0.0811 0.0811-0.0542 0.0957-0.019h0.6l0.0957 0.019 0.0811 0.0542 0.0542 0.0811 0.019 0.0957v0.6l-0.019 0.0957-0.0542 0.0811-0.0811 0.0542-0.0957 0.019z"/>
    <path d="m33.405 12.725-0.0957-0.019-0.0811-0.0542-0.0542-0.0811-0.019-0.0957v-0.6l0.019-0.0957 0.0542-0.0811 0.0811-0.0542 0.0957-0.019h0.6l0.0957 0.019 0.0811 0.0542 0.0542 0.0811 0.019 0.0957v0.6l-0.019 0.0957-0.0542 0.0811-0.0811 0.0542-0.0957 0.019z"/>
    <path d="m52.455 82.2-0.0957-0.019-0.0811-0.0542-0.0542-0.0811-0.019-0.0957v-0.6l0.019-0.0957 0.0542-0.0811 0.0811-0.0542 0.0957-0.019h0.6l0.0957 0.019 0.0811 0.0542 0.0542 0.0811 0.019 0.0957v0.6l-0.019 0.0957-0.0542 0.0811-0.0811 0.0542-0.0957 0.019z"/>
    <path d="m52.455 79.4-0.0957-0.019-0.0811-0.0542-0.0542-0.0811-0.019-0.0957v-0.6l0.019-0.0957 0.0542-0.0811 0.0811-0.0542 0.0957-0.019h0.6l0.0957 0.019 0.0811 0.0542 0.0542 0.0811 0.019 0.0957v0.6l-0.019 0.0957-0.0542 0.0811-0.0811 0.0542-0.0957 0.019z"/>
    <path d="m71.505 63.15-0.0957-0.019-0.0811-0.0542-0.0542-0.0811-0.019-0.0957v-0.6l0.019-0.0957 0.0542-0.0811 0.0811-0.0542 0.0957-0.019h0.6l0.0957 0.019 0.0811 0.0542 0.0542 0.0811 0.019 0.0957v0.6l-0.019 0.0957-0.0542 0.0811-0.0811 0.0542-0.0957 0.019z"/>
    <path d="m71.505 60.35-0.0957-0.019-0.0811-0.0542-0.0542-0.0811-0.019-0.0957v-0.6l0.019-0.0957 0.0542-0.0811 0.0811-0.0542 0.0957-0.019h0.6l0.0957 0.019 0.0811 0.0542 0.0542 0.0811 0.019 0.0957v0.6l-0.019 0.0957-0.0542 0.0811-0.0811 0.0542-0.0957 0.019z"/>
    <path d="m33.405 72.675-0.0957-0.019-0.0811-0.0542-0.0542-0.0811-0.019-0.0957v-0.6l0.019-0.0957 0.0542-0.0811 0.0811-0.0542 0.0957-0.019h0.6l0.0957 0.019 0.0811 0.0542 0.0542 0.0811 0.019 0.0957v0.6l-0.019 0.0957-0.0542 0.0811-0.0811 0.0542-0.0957 0.019z"/>
    <path d="m33.405 69.875-0.0957-0.019-0.0811-0.0542-0.0542-0.0811-0.019-0.0957v-0.6l0.019-0.0957 0.0542-0.0811 0.0811-0.0542 0.0957-0.019h0.6l0.0957 0.019 0.0811 0.0542 0.0542 0.0811 0.019 0.0957v0.6l-0.019 0.0957-0.0542 0.0811-0.0811 0.0542-0.0957 0.019z"/>
    <path d="m52.455 63.15-0.0957-0.019-0.0811-0.0542-0.0542-0.0811-0.019-0.0957v-0.6l0.019-0.0957 0.0542-0.0811 0.0811-0.0542 0.0957-0.019h0.6l0.0957 0.019 0.0811 0.0542 0.0542 0.0811 0.019 0.0957v0.6l-0.019 0.0957-0.0542 0.0811-0.0811 0.0542-0.0957 0.019z"/>
    <path d="m52.455 60.35-0.0957-0.019-0.0811-0.0542-0.0542-0.0811-0.019-0.0957v-0.6l0.019-0.0957 0.0542-0.0811 0.0811-0.0542 0.0957-0.019h0.6l0.0957 0.019 0.0811 0.0542 0.0542 0.0811 0.019 0.0957v0.6l-0.019 0.0957-0.0542 0.0811-0.0811 0.0542-0.0957 0.019z"/>
    <path d="m90.555 53.625-0.0957-0.019-0.0811-0.0542-0.0542-0.0811-0.019-0.0957v-0.6l0.019-0.0957 0.0542-0.0811 0.0811-0.0542 0.0957-0.019h0.6l0.0957 0.019 0.0811 0.0542 0.0542 0.0811 0.019 0.0957v0.6l-0.019 0.0957-0.0542 0.0811-0.0811 0.0542-0.0957 0.019z"/>
    <path d="m90.555 50.825-0.0957-0.019-0.0811-0.0542-0.0542-0.0811-0.019-0.0957v-0.6l0.019-0.0957 0.0542-0.0811 0.0811-0.0542 0.0957-0.019h0.6l0.0957 0.019 0.0811 0.0542 0.0542 0.0811 0.019 0.0957v0.6l-0.019 0.0957-0.0542 0.0811-0.0811 0.0542-0.0957 0.019z"/>
    <path d="m52.455 44.1-0.0957-0.019-0.0811-0.0542-0.0542-0.0811-0.019-0.0957v-0.6l0.019-0.0957 0.0542-0.0811 0.0811-0.0542 0.0957-0.019h0.6l0.0957 0.019 0.0811 0.0542 0.0542 0.0811 0.019 0.0957v0.6l-0.019 0.0957-0.0542 0.0811-0.0811 0.0542-0.0957 0.019z"/>
    <path d="m52.455 41.3-0.0957-0.019-0.0811-0.0542-0.0542-0.0811-0.019-0.0957v-0.6l0.019-0.0957 0.0542-0.0811 0.0811-0.0542 0.0957-0.019h0.6l0.0957 0.019 0.0811 0.0542 0.0542 0.0811 0.019 0.0957v0.6l-0.019 0.0957-0.0542 0.0811-0.0811 0.0542-0.0957 0.019z"/>
    <path d="m71.505 44.1-0.0957-0.019-0.0811-0.0542-0.0542-0.0811-0.019-0.0957v-0.6l0.019-0.0957 0.0542-0.0811 0.0811-0.0542 0.0957-0.019h0.6l0.0957 0.019 0.0811 0.0542 0.0542 0.0811 0.019 0.0957v0.6l-0.019 0.0957-0.0542 0.0811-0.0811 0.0542-0.0957 0.019z"/>
    <path d="m71.505 41.3-0.0957-0.019-0.0811-0.0542-0.0542-0.0811-0.019-0.0957v-0.6l0.019-0.0957 0.0542-0.0811 0.0811-0.0542 0.0957-0.019h0.6l0.0957 0.019 0.0811 0.0542 0.0542 0.0811 0.019 0.0957v0.6l-0.019 0.0957-0.0542 0.0811-0.0811 0.0542-0.0957 0.019z"/>
    <path d="m33.405 53.625-0.0957-0.019-0.0811-0.0542-0.0542-0.0811-0.019-0.0957v-0.6l0.019-0.0957 0.0542-0.0811 0.0811-0.0542 0.0957-0.019h0.6l0.0957 0.019 0.0811 0.0542 0.0542 0.0811 0.019 0.0957v0.6l-0.019 0.0957-0.0542 0.0811-0.0811 0.0542-0.0957 0.019z"/>
    <path d="m33.405 50.825-0.0957-0.019-0.0811-0.0542-0.0542-0.0811-0.019-0.0957v-0.6l0.019-0.0957 0.0542-0.0811 0.0811-0.0542 0.0957-0.019h0.6l0.0957 0.019 0.0811 0.0542 0.0542 0.0811 0.019 0.0957v0.6l-0.019 0.0957-0.0542 0.0811-0.0811 0.0542-0.0957 0.019z"/>
   </g>
  </g>
 </g>
 <g fill="none" stroke="#50FA7B" stroke-linecap="round" stroke-linejoin="round" stroke-width=".2">
  <path d="m31.165 9.635 2.54 2.54"/>
  <path d="m31.165 4.495v5.14"/>
  <path d="m31.165 28.685 2.54 2.54"/>
  <path d="m31.165 23.545v5.14"/>
  <path d="m31.165 47.735 2.54 2.54"/>
  <path d="m31.165 42.595v5.14"/>
  <path d="m50.215 38.21 2.54 2.54"/>
  <path d="m50.215 33.07v5.14"/>
  <path d="m69.265 38.21 2.54 2.54"/>
  <path d="m69.265 33.07v5.14"/>
  <path d="m88.315 42.595v5.14"/>
  <path d="m88.315 47.735 2.54 2.54"/>
  <path d="m12.115 62.022 2.54 2.54"/>
  <path d="m12.115 56.882v5.14"/>
  <path d="m31.165 61.645v5.14"/>
  <path d="m31.165 66.785 2.54 2.54"/>
  <path d="m50.215 52.12v5.14"/>
  <path d="m50.215 57.26 2.54 2.54"/>
  <path d="m69.265 57.26 2.54 2.54"/>
  <path d="m69.265 52.12v5.14"/>
  <path d="m88.315 66.785 2.54 2.54"/>
  <path d="m88.315 61.645v5.14"/>
  <path d="m50.215 71.17v5.14"/>
  <path d="m50.215 76.31 2.54 2.54"/>
  <path d="m69.265 76.31 2.54 2.54"/>
  <path d="m69.265 71.17v5.14"/>
  <path d="m59.74 95.36 2.54 2.54"/>
  <path d="m59.74 90.22v5.14"/>
  <path d="m81.33 53.075h9.525"/>
  <path d="m52.755 43.55h19.05"/>
  <path d="m14.655 67.362 4.7625 4.7625"/>
  <path d="m33.705 53.075h9.525"/>
  <path d="m52.755 81.65h19.05"/>
  <path d="m43.23 53.075 9.525-9.525"/>
  <path d="m19.418 72.125h14.288"/>
  <path d="m71.805 43.55 9.525 9.525"/>
  <path d="m52.755 62.6h19.05"/>
 </g>
 <g fill="#fff">
  <circle cx="23.545" cy="28.625" r=".875"/>
  <circle cx="28.625" cy="28.625" r="2"/>
  <circle cx="33.705" cy="28.625" r=".875"/>
  <circle cx="24.815" cy="26.085" r=".75"/>
  <circle cx="31.165" cy="23.545" r=".75"/>
  <circle cx="4.495" cy="61.962" r=".875"/>
  <circle cx="9.575" cy="61.962" r="2"/>
  <circle cx="14.655" cy="61.962" r=".875"/>
  <circle cx="5.765" cy="59.422" r=".75"/>
  <circle cx="12.115" cy="56.882" r=".75"/>
  <circle cx="23.545" cy="66.725" r=".875"/>
  <circle cx="28.625" cy="66.725" r="2"/>
  <circle cx="33.705" cy="66.725" r=".875"/>
  <circle cx="24.815" cy="64.185" r=".75"/>
  <circle cx="31.165" cy="61.645" r=".75"/>
  <circle cx="23.545" cy="9.575" r=".875"/>
  <circle cx="28.625" cy="9.575" r="2"/>
  <circle cx="33.705" cy="9.575" r=".875"/>
  <circle cx="24.815" cy="7.035" r=".75"/>
  <circle cx="31.165" cy="4.495" r=".75"/>
  <circle cx="42.595" cy="76.25" r=".875"/>
  <circle cx="47.675" cy="76.25" r="2"/>
  <circle cx="52.755" cy="76.25" r=".875"/>
  <circle cx="43.865" cy="73.71" r=".75"/>
  <circle cx="50.215" cy="71.17" r=".75"/>
  <circle cx="80.695" cy="66.725" r=".875"/>
  <circle cx="85.775" cy="66.725" r="2"/>
  <circle cx="90.855" cy="66.725" r=".875"/>
  <circle cx="81.965" cy="64.185" r=".75"/>
  <circle cx="88.315" cy="61.645" r=".75"/>
  <circle cx="61.645" cy="38.15" r=".875"/>
  <circle cx="66.725" cy="38.15" r="2"/>
  <circle cx="71.805" cy="38.15" r=".875"/>
  <circle cx="62.915" cy="35.61" r=".75"/>
  <circle cx="69.265" cy="33.07" r=".75"/>
  <circle cx="42.595" cy="38.15" r=".875"/>
  <circle cx="47.675" cy="38.15" r="2"/>
  <circle cx="52.755" cy="38.15" r=".875"/>
  <circle cx="43.865" cy="35.61" r=".75"/>
  <circle cx="50.215" cy="33.07" r=".75"/>
  <circle cx="80.695" cy="47.675" r=".875"/>
  <circle cx="85.775" cy="47.675" r="2"/>
  <circle cx="90.855" cy="47.675" r=".875"/>
  <circle cx="81.965" cy="45.135" r=".75"/>
  <circle cx="88.315" cy="42.595" r=".75"/>
  <circle cx="42.595" cy="57.2" r=".875"/>
  <circle cx="47.675" cy="57.2" r="2"/>
  <circle cx="52.755" cy="57.2" r=".875"/>
  <circle cx="43.865" cy="54.66" r=".75"/>
  <circle cx="50.215" cy="52.12" r=".75"/>
  <circle cx="61.645" cy="57.2" r=".875"/>
  <circle cx="66.725" cy="57.2" r="2"/>
  <circle cx="71.805" cy="57.2" r=".875"/>
  <circle cx="62.915" cy="54.66" r=".75"/>
  <circle cx="69.265" cy="52.12" r=".75"/>
  <circle cx="23.545" cy="47.675" r=".875"/>
  <circle cx="28.625" cy="47.675" r="2"/>
  <circle cx="33.705" cy="47.675" r=".875"/>
  <circle cx="24.815" cy="45.135" r=".75"/>
  <circle cx="31.165" cy="42.595" r=".75"/>
  <circle cx="61.645" cy="76.25" r=".875"/>
  <circle cx="66.725" cy="76.25" r="2"/>
  <circle cx="71.805" cy="76.25" r=".875"/>
  <circle cx="62.915" cy="73.71" r=".75"/>
  <circle cx="69.265" cy="71.17" r=".75"/>
  <circle cx="52.12" cy="95.3" r=".875"/>
  <circle cx="57.2" cy="95.3" r="2"/>
  <circle cx="62.28" cy="95.3" r=".875"/>
  <circle cx="53.39" cy="92.76" r=".75"/>
  <circle cx="59.74" cy="90.22" r=".75"/>
 </g>
</svg>
