<?xml version="1.0" encoding="UTF-8"?>
<svg width="54.64mm" height="17.645mm" version="1.1" viewBox="30 28.555 54.64 17.645" xmlns="http://www.w3.org/2000/svg">
 <title>SVG Image created as bn003-render.svg date 2024/03/28 10:14:11</title>
 <desc>Image generated by PCBNEW</desc>
 <g fill="#282a36">
  <rect x="30" y="28.555" width="54.64" height="17.645"/>
 </g>
 <g fill-opacity="0" stroke-width="0">
  <g fill="#C83434" fill-opacity="1" stroke="#C83434" stroke-linecap="round" stroke-linejoin="round" stroke-width="0">
   <circle cx="34.29" cy="35.56" r="1.25"/>
   <circle cx="40.64" cy="33.02" r="1.25"/>
   <circle cx="72.39" cy="35.56" r="1.25"/>
   <circle cx="78.74" cy="33.02" r="1.25"/>
   <circle cx="53.34" cy="35.56" r="1.25"/>
   <circle cx="59.69" cy="33.02" r="1.25"/>
  </g>
 </g>
 <g stroke="#000" stroke-linecap="round" stroke-linejoin="round" stroke-width=".021">
  <g fill="#7FC87F" stroke="#7FC87F" stroke-linecap="round" stroke-linejoin="round" stroke-width="0">
   <circle cx="34.29" cy="35.56" r="1.25"/>
   <circle cx="40.64" cy="33.02" r="1.25"/>
   <circle cx="72.39" cy="35.56" r="1.25"/>
   <circle cx="78.74" cy="33.02" r="1.25"/>
   <circle cx="53.34" cy="35.56" r="1.25"/>
   <circle cx="59.69" cy="33.02" r="1.25"/>
  </g>
  <g fill="#CE7D2C" stroke="#CE7D2C" stroke-linecap="round" stroke-linejoin="round" stroke-width="0">
   <circle cx="34.29" cy="35.56" r="1.25"/>
   <circle cx="40.64" cy="33.02" r="1.25"/>
   <circle cx="72.39" cy="35.56" r="1.25"/>
   <circle cx="78.74" cy="33.02" r="1.25"/>
   <circle cx="53.34" cy="35.56" r="1.25"/>
   <circle cx="59.69" cy="33.02" r="1.25"/>
  </g>
  <g fill="#4FCBCB" stroke="#4FCBCB" stroke-linecap="round" stroke-linejoin="round" stroke-width="0">
   <circle cx="34.29" cy="35.56" r="1.25"/>
   <circle cx="40.64" cy="33.02" r="1.25"/>
   <circle cx="72.39" cy="35.56" r="1.25"/>
   <circle cx="78.74" cy="33.02" r="1.25"/>
   <circle cx="53.34" cy="35.56" r="1.25"/>
   <circle cx="59.69" cy="33.02" r="1.25"/>
  </g>
  <g fill="#DB628B" stroke="#DB628B" stroke-linecap="round" stroke-linejoin="round" stroke-width="0">
   <circle cx="34.29" cy="35.56" r="1.25"/>
   <circle cx="40.64" cy="33.02" r="1.25"/>
   <circle cx="72.39" cy="35.56" r="1.25"/>
   <circle cx="78.74" cy="33.02" r="1.25"/>
   <circle cx="53.34" cy="35.56" r="1.25"/>
   <circle cx="59.69" cy="33.02" r="1.25"/>
  </g>
  <g fill="#A7A5C6" stroke="#A7A5C6" stroke-linecap="round" stroke-linejoin="round" stroke-width="0">
   <circle cx="34.29" cy="35.56" r="1.25"/>
   <circle cx="40.64" cy="33.02" r="1.25"/>
   <circle cx="72.39" cy="35.56" r="1.25"/>
   <circle cx="78.74" cy="33.02" r="1.25"/>
   <circle cx="53.34" cy="35.56" r="1.25"/>
   <circle cx="59.69" cy="33.02" r="1.25"/>
  </g>
  <g fill="#28CCD9" stroke="#28CCD9" stroke-linecap="round" stroke-linejoin="round" stroke-width="0">
   <circle cx="34.29" cy="35.56" r="1.25"/>
   <circle cx="40.64" cy="33.02" r="1.25"/>
   <circle cx="72.39" cy="35.56" r="1.25"/>
   <circle cx="78.74" cy="33.02" r="1.25"/>
   <circle cx="53.34" cy="35.56" r="1.25"/>
   <circle cx="59.69" cy="33.02" r="1.25"/>
  </g>
  <g fill="#E8B2A7" stroke="#E8B2A7" stroke-linecap="round" stroke-linejoin="round" stroke-width="0">
   <circle cx="34.29" cy="35.56" r="1.25"/>
   <circle cx="40.64" cy="33.02" r="1.25"/>
   <circle cx="72.39" cy="35.56" r="1.25"/>
   <circle cx="78.74" cy="33.02" r="1.25"/>
   <circle cx="53.34" cy="35.56" r="1.25"/>
   <circle cx="59.69" cy="33.02" r="1.25"/>
  </g>
  <g fill="#F2EDA1" stroke="#F2EDA1" stroke-linecap="round" stroke-linejoin="round" stroke-width="0">
   <circle cx="34.29" cy="35.56" r="1.25"/>
   <circle cx="40.64" cy="33.02" r="1.25"/>
   <circle cx="72.39" cy="35.56" r="1.25"/>
   <circle cx="78.74" cy="33.02" r="1.25"/>
   <circle cx="53.34" cy="35.56" r="1.25"/>
   <circle cx="59.69" cy="33.02" r="1.25"/>
  </g>
  <g fill="#8DCB81" stroke="#8DCB81" stroke-linecap="round" stroke-linejoin="round" stroke-width="0">
   <circle cx="34.29" cy="35.56" r="1.25"/>
   <circle cx="40.64" cy="33.02" r="1.25"/>
   <circle cx="72.39" cy="35.56" r="1.25"/>
   <circle cx="78.74" cy="33.02" r="1.25"/>
   <circle cx="53.34" cy="35.56" r="1.25"/>
   <circle cx="59.69" cy="33.02" r="1.25"/>
  </g>
  <g fill="#ED7C33" stroke="#ED7C33" stroke-linecap="round" stroke-linejoin="round" stroke-width="0">
   <circle cx="34.29" cy="35.56" r="1.25"/>
   <circle cx="40.64" cy="33.02" r="1.25"/>
   <circle cx="72.39" cy="35.56" r="1.25"/>
   <circle cx="78.74" cy="33.02" r="1.25"/>
   <circle cx="53.34" cy="35.56" r="1.25"/>
   <circle cx="59.69" cy="33.02" r="1.25"/>
  </g>
  <g fill="#5BC3EB" stroke="#5BC3EB" stroke-linecap="round" stroke-linejoin="round" stroke-width="0">
   <circle cx="34.29" cy="35.56" r="1.25"/>
   <circle cx="40.64" cy="33.02" r="1.25"/>
   <circle cx="72.39" cy="35.56" r="1.25"/>
   <circle cx="78.74" cy="33.02" r="1.25"/>
   <circle cx="53.34" cy="35.56" r="1.25"/>
   <circle cx="59.69" cy="33.02" r="1.25"/>
  </g>
  <g fill="#F76F8E" stroke="#F76F8E" stroke-linecap="round" stroke-linejoin="round" stroke-width="0">
   <circle cx="34.29" cy="35.56" r="1.25"/>
   <circle cx="40.64" cy="33.02" r="1.25"/>
   <circle cx="72.39" cy="35.56" r="1.25"/>
   <circle cx="78.74" cy="33.02" r="1.25"/>
   <circle cx="53.34" cy="35.56" r="1.25"/>
   <circle cx="59.69" cy="33.02" r="1.25"/>
  </g>
  <g fill="#A7A5C6" stroke="#A7A5C6" stroke-linecap="round" stroke-linejoin="round" stroke-width="0">
   <circle cx="34.29" cy="35.56" r="1.25"/>
   <circle cx="40.64" cy="33.02" r="1.25"/>
   <circle cx="72.39" cy="35.56" r="1.25"/>
   <circle cx="78.74" cy="33.02" r="1.25"/>
   <circle cx="53.34" cy="35.56" r="1.25"/>
   <circle cx="59.69" cy="33.02" r="1.25"/>
  </g>
  <g fill="#28CCD9" stroke="#28CCD9" stroke-linecap="round" stroke-linejoin="round" stroke-width="0">
   <circle cx="34.29" cy="35.56" r="1.25"/>
   <circle cx="40.64" cy="33.02" r="1.25"/>
   <circle cx="72.39" cy="35.56" r="1.25"/>
   <circle cx="78.74" cy="33.02" r="1.25"/>
   <circle cx="53.34" cy="35.56" r="1.25"/>
   <circle cx="59.69" cy="33.02" r="1.25"/>
  </g>
  <g fill="#E8B2A7" stroke="#E8B2A7" stroke-linecap="round" stroke-linejoin="round" stroke-width="0">
   <circle cx="34.29" cy="35.56" r="1.25"/>
   <circle cx="40.64" cy="33.02" r="1.25"/>
   <circle cx="72.39" cy="35.56" r="1.25"/>
   <circle cx="78.74" cy="33.02" r="1.25"/>
   <circle cx="53.34" cy="35.56" r="1.25"/>
   <circle cx="59.69" cy="33.02" r="1.25"/>
  </g>
  <g fill="#F2EDA1" stroke="#F2EDA1" stroke-linecap="round" stroke-linejoin="round" stroke-width="0">
   <circle cx="34.29" cy="35.56" r="1.25"/>
   <circle cx="40.64" cy="33.02" r="1.25"/>
   <circle cx="72.39" cy="35.56" r="1.25"/>
   <circle cx="78.74" cy="33.02" r="1.25"/>
   <circle cx="53.34" cy="35.56" r="1.25"/>
   <circle cx="59.69" cy="33.02" r="1.25"/>
  </g>
  <g fill="#ED7C33" stroke="#ED7C33" stroke-linecap="round" stroke-linejoin="round" stroke-width="0">
   <circle cx="34.29" cy="35.56" r="1.25"/>
   <circle cx="40.64" cy="33.02" r="1.25"/>
   <circle cx="72.39" cy="35.56" r="1.25"/>
   <circle cx="78.74" cy="33.02" r="1.25"/>
   <circle cx="53.34" cy="35.56" r="1.25"/>
   <circle cx="59.69" cy="33.02" r="1.25"/>
  </g>
  <g fill="#5BC3EB" stroke="#5BC3EB" stroke-linecap="round" stroke-linejoin="round" stroke-width="0">
   <circle cx="34.29" cy="35.56" r="1.25"/>
   <circle cx="40.64" cy="33.02" r="1.25"/>
   <circle cx="72.39" cy="35.56" r="1.25"/>
   <circle cx="78.74" cy="33.02" r="1.25"/>
   <circle cx="53.34" cy="35.56" r="1.25"/>
   <circle cx="59.69" cy="33.02" r="1.25"/>
  </g>
  <g fill="#F76F8E" stroke="#F76F8E" stroke-linecap="round" stroke-linejoin="round" stroke-width="0">
   <circle cx="34.29" cy="35.56" r="1.25"/>
   <circle cx="40.64" cy="33.02" r="1.25"/>
   <circle cx="72.39" cy="35.56" r="1.25"/>
   <circle cx="78.74" cy="33.02" r="1.25"/>
   <circle cx="53.34" cy="35.56" r="1.25"/>
   <circle cx="59.69" cy="33.02" r="1.25"/>
  </g>
  <g fill="#A7A5C6" stroke="#A7A5C6" stroke-linecap="round" stroke-linejoin="round" stroke-width="0">
   <circle cx="34.29" cy="35.56" r="1.25"/>
   <circle cx="40.64" cy="33.02" r="1.25"/>
   <circle cx="72.39" cy="35.56" r="1.25"/>
   <circle cx="78.74" cy="33.02" r="1.25"/>
   <circle cx="53.34" cy="35.56" r="1.25"/>
   <circle cx="59.69" cy="33.02" r="1.25"/>
  </g>
  <g fill="#28CCD9" stroke="#28CCD9" stroke-linecap="round" stroke-linejoin="round" stroke-width="0">
   <circle cx="34.29" cy="35.56" r="1.25"/>
   <circle cx="40.64" cy="33.02" r="1.25"/>
   <circle cx="72.39" cy="35.56" r="1.25"/>
   <circle cx="78.74" cy="33.02" r="1.25"/>
   <circle cx="53.34" cy="35.56" r="1.25"/>
   <circle cx="59.69" cy="33.02" r="1.25"/>
  </g>
  <g fill="#E8B2A7" stroke="#E8B2A7" stroke-linecap="round" stroke-linejoin="round" stroke-width="0">
   <circle cx="34.29" cy="35.56" r="1.25"/>
   <circle cx="40.64" cy="33.02" r="1.25"/>
   <circle cx="72.39" cy="35.56" r="1.25"/>
   <circle cx="78.74" cy="33.02" r="1.25"/>
   <circle cx="53.34" cy="35.56" r="1.25"/>
   <circle cx="59.69" cy="33.02" r="1.25"/>
  </g>
  <g fill="#F2EDA1" stroke="#F2EDA1" stroke-linecap="round" stroke-linejoin="round" stroke-width="0">
   <circle cx="34.29" cy="35.56" r="1.25"/>
   <circle cx="40.64" cy="33.02" r="1.25"/>
   <circle cx="72.39" cy="35.56" r="1.25"/>
   <circle cx="78.74" cy="33.02" r="1.25"/>
   <circle cx="53.34" cy="35.56" r="1.25"/>
   <circle cx="59.69" cy="33.02" r="1.25"/>
  </g>
  <g fill="#ED7C33" stroke="#ED7C33" stroke-linecap="round" stroke-linejoin="round" stroke-width="0">
   <circle cx="34.29" cy="35.56" r="1.25"/>
   <circle cx="40.64" cy="33.02" r="1.25"/>
   <circle cx="72.39" cy="35.56" r="1.25"/>
   <circle cx="78.74" cy="33.02" r="1.25"/>
   <circle cx="53.34" cy="35.56" r="1.25"/>
   <circle cx="59.69" cy="33.02" r="1.25"/>
  </g>
  <g fill="#5BC3EB" stroke="#5BC3EB" stroke-linecap="round" stroke-linejoin="round" stroke-width="0">
   <circle cx="34.29" cy="35.56" r="1.25"/>
   <circle cx="40.64" cy="33.02" r="1.25"/>
   <circle cx="72.39" cy="35.56" r="1.25"/>
   <circle cx="78.74" cy="33.02" r="1.25"/>
   <circle cx="53.34" cy="35.56" r="1.25"/>
   <circle cx="59.69" cy="33.02" r="1.25"/>
  </g>
  <g fill="#F76F8E" stroke="#F76F8E" stroke-linecap="round" stroke-linejoin="round" stroke-width="0">
   <circle cx="34.29" cy="35.56" r="1.25"/>
   <circle cx="40.64" cy="33.02" r="1.25"/>
   <circle cx="72.39" cy="35.56" r="1.25"/>
   <circle cx="78.74" cy="33.02" r="1.25"/>
   <circle cx="53.34" cy="35.56" r="1.25"/>
   <circle cx="59.69" cy="33.02" r="1.25"/>
  </g>
  <g fill="#A7A5C6" stroke="#A7A5C6" stroke-linecap="round" stroke-linejoin="round" stroke-width="0">
   <circle cx="34.29" cy="35.56" r="1.25"/>
   <circle cx="40.64" cy="33.02" r="1.25"/>
   <circle cx="72.39" cy="35.56" r="1.25"/>
   <circle cx="78.74" cy="33.02" r="1.25"/>
   <circle cx="53.34" cy="35.56" r="1.25"/>
   <circle cx="59.69" cy="33.02" r="1.25"/>
  </g>
  <g fill="#28CCD9" stroke="#28CCD9" stroke-linecap="round" stroke-linejoin="round" stroke-width="0">
   <circle cx="34.29" cy="35.56" r="1.25"/>
   <circle cx="40.64" cy="33.02" r="1.25"/>
   <circle cx="72.39" cy="35.56" r="1.25"/>
   <circle cx="78.74" cy="33.02" r="1.25"/>
   <circle cx="53.34" cy="35.56" r="1.25"/>
   <circle cx="59.69" cy="33.02" r="1.25"/>
  </g>
  <g fill="#E8B2A7" stroke="#E8B2A7" stroke-linecap="round" stroke-linejoin="round" stroke-width="0">
   <circle cx="34.29" cy="35.56" r="1.25"/>
   <circle cx="40.64" cy="33.02" r="1.25"/>
   <circle cx="72.39" cy="35.56" r="1.25"/>
   <circle cx="78.74" cy="33.02" r="1.25"/>
   <circle cx="53.34" cy="35.56" r="1.25"/>
   <circle cx="59.69" cy="33.02" r="1.25"/>
  </g>
  <g fill="#F2EDA1" stroke="#F2EDA1" stroke-linecap="round" stroke-linejoin="round" stroke-width="0">
   <circle cx="34.29" cy="35.56" r="1.25"/>
   <circle cx="40.64" cy="33.02" r="1.25"/>
   <circle cx="72.39" cy="35.56" r="1.25"/>
   <circle cx="78.74" cy="33.02" r="1.25"/>
   <circle cx="53.34" cy="35.56" r="1.25"/>
   <circle cx="59.69" cy="33.02" r="1.25"/>
  </g>
  <g fill="#4D7FC4">
   <g stroke-width="0">
    <g stroke="#4D7FC4" stroke-linecap="round" stroke-linejoin="round">
     <circle cx="34.29" cy="35.56" r="1.25"/>
     <circle cx="40.64" cy="33.02" r="1.25"/>
     <circle cx="72.39" cy="35.56" r="1.25"/>
     <circle cx="78.74" cy="33.02" r="1.25"/>
     <circle cx="53.34" cy="35.56" r="1.25"/>
     <circle cx="59.69" cy="33.02" r="1.25"/>
    </g>
    <g fill-rule="evenodd">
     <path d="m61.93 44.05-0.096-0.019-0.081-0.054-0.054-0.081-0.019-0.096v-0.6l0.019-0.096 0.054-0.081 0.081-0.054 0.096-0.019h0.6l0.096 0.019 0.081 0.054 0.054 0.081 0.019 0.096v0.6l-0.019 0.096-0.054 0.081-0.081 0.054-0.096 0.019z"/>
     <path d="m61.93 41.25-0.096-0.019-0.081-0.054-0.054-0.081-0.019-0.096v-0.6l0.019-0.096 0.054-0.081 0.081-0.054 0.096-0.019h0.6l0.096 0.019 0.081 0.054 0.054 0.081 0.019 0.096v0.6l-0.019 0.096-0.054 0.081-0.081 0.054-0.096 0.019z"/>
     <path d="m42.88 44.05-0.096-0.019-0.081-0.054-0.054-0.081-0.019-0.096v-0.6l0.019-0.096 0.054-0.081 0.081-0.054 0.096-0.019h0.6l0.096 0.019 0.081 0.054 0.054 0.081 0.019 0.096v0.6l-0.019 0.096-0.054 0.081-0.081 0.054-0.096 0.019z"/>
     <path d="m42.88 41.25-0.096-0.019-0.081-0.054-0.054-0.081-0.019-0.096v-0.6l0.019-0.096 0.054-0.081 0.081-0.054 0.096-0.019h0.6l0.096 0.019 0.081 0.054 0.054 0.081 0.019 0.096v0.6l-0.019 0.096-0.054 0.081-0.081 0.054-0.096 0.019z"/>
     <path d="m80.98 44.05-0.096-0.019-0.081-0.054-0.054-0.081-0.019-0.096v-0.6l0.019-0.096 0.054-0.081 0.081-0.054 0.096-0.019h0.6l0.096 0.019 0.081 0.054 0.054 0.081 0.019 0.096v0.6l-0.019 0.096-0.054 0.081-0.081 0.054-0.096 0.019z"/>
     <path d="m80.98 41.25-0.096-0.019-0.081-0.054-0.054-0.081-0.019-0.096v-0.6l0.019-0.096 0.054-0.081 0.081-0.054 0.096-0.019h0.6l0.096 0.019 0.081 0.054 0.054 0.081 0.019 0.096v0.6l-0.019 0.096-0.054 0.081-0.081 0.054-0.096 0.019z"/>
    </g>
   </g>
   <g fill-opacity="0" stroke="#4D7FC4" stroke-linecap="round" stroke-linejoin="round" stroke-width=".25">
    <path d="m43.18 43.5h19.05"/>
    <path d="m62.23 43.5h19.05"/>
    <path d="m40.64 33.02v5.14"/>
    <path d="m40.64 38.16 2.54 2.54"/>
    <path d="m59.69 38.16 2.54 2.54"/>
    <path d="m59.69 33.02v5.14"/>
    <path d="m78.74 33.02v5.14"/>
    <path d="m78.74 38.16 2.54 2.54"/>
   </g>
  </g>
 </g>
 <g fill-opacity="0" stroke-linecap="round" stroke-linejoin="round">
  <g stroke="#000" stroke-width=".25">
   <g fill="#00C2C2" fill-opacity=".9" fill-rule="evenodd" stroke-width="0">
    <path d="m61.93 44.05-0.096-0.019-0.081-0.054-0.054-0.081-0.019-0.096v-0.6l0.019-0.096 0.054-0.081 0.081-0.054 0.096-0.019h0.6l0.096 0.019 0.081 0.054 0.054 0.081 0.019 0.096v0.6l-0.019 0.096-0.054 0.081-0.081 0.054-0.096 0.019z"/>
    <path d="m61.93 41.25-0.096-0.019-0.081-0.054-0.054-0.081-0.019-0.096v-0.6l0.019-0.096 0.054-0.081 0.081-0.054 0.096-0.019h0.6l0.096 0.019 0.081 0.054 0.054 0.081 0.019 0.096v0.6l-0.019 0.096-0.054 0.081-0.081 0.054-0.096 0.019z"/>
    <path d="m42.88 44.05-0.096-0.019-0.081-0.054-0.054-0.081-0.019-0.096v-0.6l0.019-0.096 0.054-0.081 0.081-0.054 0.096-0.019h0.6l0.096 0.019 0.081 0.054 0.054 0.081 0.019 0.096v0.6l-0.019 0.096-0.054 0.081-0.081 0.054-0.096 0.019z"/>
    <path d="m42.88 41.25-0.096-0.019-0.081-0.054-0.054-0.081-0.019-0.096v-0.6l0.019-0.096 0.054-0.081 0.081-0.054 0.096-0.019h0.6l0.096 0.019 0.081 0.054 0.054 0.081 0.019 0.096v0.6l-0.019 0.096-0.054 0.081-0.081 0.054-0.096 0.019z"/>
    <path d="m80.98 44.05-0.096-0.019-0.081-0.054-0.054-0.081-0.019-0.096v-0.6l0.019-0.096 0.054-0.081 0.081-0.054 0.096-0.019h0.6l0.096 0.019 0.081 0.054 0.054 0.081 0.019 0.096v0.6l-0.019 0.096-0.054 0.081-0.081 0.054-0.096 0.019z"/>
    <path d="m80.98 41.25-0.096-0.019-0.081-0.054-0.054-0.081-0.019-0.096v-0.6l0.019-0.096 0.054-0.081 0.081-0.054 0.096-0.019h0.6l0.096 0.019 0.081 0.054 0.054 0.081 0.019 0.096v0.6l-0.019 0.096-0.054 0.081-0.081 0.054-0.096 0.019z"/>
   </g>
  </g>
  <g fill="#E8B2A7" stroke="#E8B2A7" stroke-width=".15">
   <g transform="rotate(-90 64.135 42.227)">
    <text transform="scale(-1 1) translate(-128.27)" x="64.135" y="42.727" font-size="1.333" opacity="0" text-anchor="middle" lengthAdjust="spacingAndGlyphs" textLength="2.202">D2</text>
   </g>
   <g class="stroked-text">
    <desc>D2</desc>
    <path d="m64.59 41.489h-1"/>
    <path d="m63.59 41.489v0.238"/>
    <path d="m63.59 41.727 0.047 0.143"/>
    <path d="m63.637 41.87 0.096 0.095"/>
    <path d="m63.733 41.965 0.095 0.048"/>
    <path d="m63.828 42.013 0.19 0.047"/>
    <path d="m64.018 42.06h0.143"/>
    <path d="m64.161 42.06 0.191-0.047"/>
    <path d="m64.352 42.013 0.095-0.048"/>
    <path d="m64.447 41.965 0.095-0.095"/>
    <path d="m64.542 41.87 0.048-0.143"/>
    <path d="m64.59 41.727v-0.238"/>
    <path d="m63.685 42.441-0.048 0.048"/>
    <path d="m63.637 42.489-0.047 0.095"/>
    <path d="m63.59 42.584v0.238"/>
    <path d="m63.59 42.822 0.047 0.095"/>
    <path d="m63.637 42.917 0.048 0.048"/>
    <path d="m63.685 42.965 0.095 0.048"/>
    <path d="m63.78 43.013h0.096"/>
    <path d="m63.876 43.013 0.142-0.048"/>
    <path d="m64.018 42.965 0.572-0.571"/>
    <path d="m64.59 42.394v0.619"/>
   </g>
   <g transform="rotate(-90 45.085 42.227)">
    <text transform="scale(-1 1) translate(-90.17)" x="45.085" y="42.727" font-size="1.333" opacity="0" text-anchor="middle" lengthAdjust="spacingAndGlyphs" textLength="2.202">D1</text>
   </g>
   <g class="stroked-text">
    <desc>D1</desc>
    <path d="m45.54 41.489h-1"/>
    <path d="m44.54 41.489v0.238"/>
    <path d="m44.54 41.727 0.047 0.143"/>
    <path d="m44.587 41.87 0.096 0.095"/>
    <path d="m44.683 41.965 0.095 0.048"/>
    <path d="m44.778 42.013 0.19 0.047"/>
    <path d="m44.968 42.06h0.143"/>
    <path d="m45.111 42.06 0.191-0.047"/>
    <path d="m45.302 42.013 0.095-0.048"/>
    <path d="m45.397 41.965 0.095-0.095"/>
    <path d="m45.492 41.87 0.048-0.143"/>
    <path d="m45.54 41.727v-0.238"/>
    <path d="m45.54 43.013v-0.572"/>
    <path d="m45.54 42.727h-1"/>
    <path d="m44.54 42.727 0.143-0.095"/>
    <path d="m44.683 42.632 0.095-0.095"/>
    <path d="m44.778 42.537 0.048-0.096"/>
   </g>
   <g transform="rotate(-90 83.185 42.227)">
    <text transform="scale(-1 1) translate(-166.37)" x="83.185" y="42.727" font-size="1.333" opacity="0" text-anchor="middle" lengthAdjust="spacingAndGlyphs" textLength="2.202">D3</text>
   </g>
   <g class="stroked-text">
    <desc>D3</desc>
    <path d="m83.64 41.489h-1"/>
    <path d="m82.64 41.489v0.238"/>
    <path d="m82.64 41.727 0.047 0.143"/>
    <path d="m82.687 41.87 0.096 0.095"/>
    <path d="m82.783 41.965 0.095 0.048"/>
    <path d="m82.878 42.013 0.19 0.047"/>
    <path d="m83.068 42.06h0.143"/>
    <path d="m83.211 42.06 0.191-0.047"/>
    <path d="m83.402 42.013 0.095-0.048"/>
    <path d="m83.497 41.965 0.095-0.095"/>
    <path d="m83.592 41.87 0.048-0.143"/>
    <path d="m83.64 41.727v-0.238"/>
    <path d="m82.64 42.394v0.619"/>
    <path d="m82.64 43.013 0.381-0.334"/>
    <path d="m83.021 42.679v0.143"/>
    <path d="m83.021 42.822 0.047 0.095"/>
    <path d="m83.068 42.917 0.048 0.048"/>
    <path d="m83.116 42.965 0.095 0.048"/>
    <path d="m83.211 43.013h0.238"/>
    <path d="m83.449 43.013 0.096-0.048"/>
    <path d="m83.545 42.965 0.047-0.048"/>
    <path d="m83.592 42.917 0.048-0.095"/>
    <path d="m83.64 42.822v-0.285"/>
    <path d="m83.64 42.537-0.048-0.096"/>
    <path d="m83.592 42.441-0.047-0.047"/>
   </g>
  </g>
  <g fill="#E8B2A7" stroke="#E8B2A7" stroke-width=".12">
   <path d="m61.23 44.31v-3.86"/>
   <path d="m63.23 44.31h-2"/>
   <path d="m63.23 44.31v-3.86"/>
   <path d="m42.18 44.31v-3.86"/>
   <path d="m44.18 44.31h-2"/>
   <path d="m44.18 44.31v-3.86"/>
   <path d="m80.28 44.31v-3.86"/>
   <path d="m82.28 44.31h-2"/>
   <path d="m82.28 44.31v-3.86"/>
  </g>
  <g fill="#F2EDA1" stroke="#F2EDA1" stroke-width=".15">
   <text x="38.100" y="30.600" font-size="1.333" opacity="0" text-anchor="middle" lengthAdjust="spacingAndGlyphs" textLength="3.298">SW1</text>
   <g class="stroked-text">
    <desc>SW1</desc>
    <path d="m36.767 30.507 0.143 0.048"/>
    <path d="m36.91 30.555h0.238"/>
    <path d="m37.148 30.555 0.095-0.048"/>
    <path d="m37.243 30.507 0.047-0.047"/>
    <path d="m37.29 30.46 0.048-0.096"/>
    <path d="m37.338 30.364v-0.095"/>
    <path d="m37.338 30.269-0.048-0.095"/>
    <path d="m37.29 30.174-0.047-0.048"/>
    <path d="m37.243 30.126-0.095-0.047"/>
    <path d="m37.148 30.079-0.191-0.048"/>
    <path d="m36.957 30.031-0.095-0.048"/>
    <path d="m36.862 29.983-0.048-0.047"/>
    <path d="m36.814 29.936-0.047-0.095"/>
    <path d="m36.767 29.841v-0.096"/>
    <path d="m36.767 29.745 0.047-0.095"/>
    <path d="m36.814 29.65 0.048-0.048"/>
    <path d="m36.862 29.602 0.095-0.047"/>
    <path d="m36.957 29.555h0.238"/>
    <path d="m37.195 29.555 0.143 0.047"/>
    <path d="m37.671 29.555 0.239 1"/>
    <path d="m37.91 30.555 0.19-0.714"/>
    <path d="m38.1 29.841 0.19 0.714"/>
    <path d="m38.29 30.555 0.239-1"/>
    <path d="m39.433 30.555h-0.571"/>
    <path d="m39.148 30.555v-1"/>
    <path d="m39.148 29.555-0.096 0.143"/>
    <path d="m39.052 29.698-0.095 0.095"/>
    <path d="m38.957 29.793-0.095 0.048"/>
   </g>
   <text x="76.200" y="30.600" font-size="1.333" opacity="0" text-anchor="middle" lengthAdjust="spacingAndGlyphs" textLength="3.298">SW3</text>
   <g class="stroked-text">
    <desc>SW3</desc>
    <path d="m74.867 30.507 0.143 0.048"/>
    <path d="m75.01 30.555h0.238"/>
    <path d="m75.248 30.555 0.095-0.048"/>
    <path d="m75.343 30.507 0.047-0.047"/>
    <path d="m75.39 30.46 0.048-0.096"/>
    <path d="m75.438 30.364v-0.095"/>
    <path d="m75.438 30.269-0.048-0.095"/>
    <path d="m75.39 30.174-0.047-0.048"/>
    <path d="m75.343 30.126-0.095-0.047"/>
    <path d="m75.248 30.079-0.191-0.048"/>
    <path d="m75.057 30.031-0.095-0.048"/>
    <path d="m74.962 29.983-0.048-0.047"/>
    <path d="m74.914 29.936-0.047-0.095"/>
    <path d="m74.867 29.841v-0.096"/>
    <path d="m74.867 29.745 0.047-0.095"/>
    <path d="m74.914 29.65 0.048-0.048"/>
    <path d="m74.962 29.602 0.095-0.047"/>
    <path d="m75.057 29.555h0.238"/>
    <path d="m75.295 29.555 0.143 0.047"/>
    <path d="m75.771 29.555 0.239 1"/>
    <path d="m76.01 30.555 0.19-0.714"/>
    <path d="m76.2 29.841 0.19 0.714"/>
    <path d="m76.39 30.555 0.239-1"/>
    <path d="m76.914 29.555h0.619"/>
    <path d="m77.533 29.555-0.333 0.381"/>
    <path d="m77.2 29.936h0.143"/>
    <path d="m77.343 29.936 0.095 0.047"/>
    <path d="m77.438 29.983 0.048 0.048"/>
    <path d="m77.486 30.031 0.047 0.095"/>
    <path d="m77.533 30.126v0.238"/>
    <path d="m77.533 30.364-0.047 0.096"/>
    <path d="m77.486 30.46-0.048 0.047"/>
    <path d="m77.438 30.507-0.095 0.048"/>
    <path d="m77.343 30.555h-0.286"/>
    <path d="m77.057 30.555-0.095-0.048"/>
    <path d="m76.962 30.507-0.048-0.047"/>
   </g>
   <text x="57.150" y="30.600" font-size="1.333" opacity="0" text-anchor="middle" lengthAdjust="spacingAndGlyphs" textLength="3.298">SW2</text>
   <g class="stroked-text">
    <desc>SW2</desc>
    <path d="m55.817 30.507 0.143 0.048"/>
    <path d="m55.96 30.555h0.238"/>
    <path d="m56.198 30.555 0.095-0.048"/>
    <path d="m56.293 30.507 0.047-0.047"/>
    <path d="m56.34 30.46 0.048-0.096"/>
    <path d="m56.388 30.364v-0.095"/>
    <path d="m56.388 30.269-0.048-0.095"/>
    <path d="m56.34 30.174-0.047-0.048"/>
    <path d="m56.293 30.126-0.095-0.047"/>
    <path d="m56.198 30.079-0.191-0.048"/>
    <path d="m56.007 30.031-0.095-0.048"/>
    <path d="m55.912 29.983-0.048-0.047"/>
    <path d="m55.864 29.936-0.047-0.095"/>
    <path d="m55.817 29.841v-0.096"/>
    <path d="m55.817 29.745 0.047-0.095"/>
    <path d="m55.864 29.65 0.048-0.048"/>
    <path d="m55.912 29.602 0.095-0.047"/>
    <path d="m56.007 29.555h0.238"/>
    <path d="m56.245 29.555 0.143 0.047"/>
    <path d="m56.721 29.555 0.239 1"/>
    <path d="m56.96 30.555 0.19-0.714"/>
    <path d="m57.15 29.841 0.19 0.714"/>
    <path d="m57.34 30.555 0.239-1"/>
    <path d="m57.912 29.65 0.048-0.048"/>
    <path d="m57.96 29.602 0.095-0.047"/>
    <path d="m58.055 29.555h0.238"/>
    <path d="m58.293 29.555 0.095 0.047"/>
    <path d="m58.388 29.602 0.048 0.048"/>
    <path d="m58.436 29.65 0.047 0.095"/>
    <path d="m58.483 29.745v0.096"/>
    <path d="m58.483 29.841-0.047 0.142"/>
    <path d="m58.436 29.983-0.572 0.572"/>
    <path d="m57.864 30.555h0.619"/>
   </g>
  </g>
  <g fill="#F2EDA1" stroke="#F2EDA1" stroke-width=".12">
   <path d="m31 31v14.2"/>
   <path d="m31 45.2h14.2"/>
   <path d="m45.2 31h-14.2"/>
   <path d="m45.2 45.2v-14.2"/>
   <path d="m69.1 31v14.2"/>
   <path d="m69.1 45.2h14.2"/>
   <path d="m83.3 31h-14.2"/>
   <path d="m83.3 45.2v-14.2"/>
   <path d="m50.05 31v14.2"/>
   <path d="m50.05 45.2h14.2"/>
   <path d="m64.25 31h-14.2"/>
   <path d="m64.25 45.2v-14.2"/>
  </g>
  <g stroke="#000" stroke-width=".12">
   <g fill="#02FFEE" fill-opacity=".4" stroke-width="0">
    <g stroke="#02FFEE" stroke-linecap="round" stroke-linejoin="round">
     <circle cx="33.02" cy="38.1" r=".875"/>
     <circle cx="38.1" cy="38.1" r="2"/>
     <circle cx="43.18" cy="38.1" r=".875"/>
     <circle cx="34.29" cy="35.56" r="1.25"/>
     <circle cx="40.64" cy="33.02" r="1.25"/>
     <circle cx="71.12" cy="38.1" r=".875"/>
     <circle cx="76.2" cy="38.1" r="2"/>
     <circle cx="81.28" cy="38.1" r=".875"/>
     <circle cx="72.39" cy="35.56" r="1.25"/>
     <circle cx="78.74" cy="33.02" r="1.25"/>
     <circle cx="52.07" cy="38.1" r=".875"/>
     <circle cx="57.15" cy="38.1" r="2"/>
     <circle cx="62.23" cy="38.1" r=".875"/>
     <circle cx="53.34" cy="35.56" r="1.25"/>
     <circle cx="59.69" cy="33.02" r="1.25"/>
    </g>
    <g fill-rule="evenodd">
     <path d="m61.93 44.05-0.096-0.019-0.081-0.054-0.054-0.081-0.019-0.096v-0.6l0.019-0.096 0.054-0.081 0.081-0.054 0.096-0.019h0.6l0.096 0.019 0.081 0.054 0.054 0.081 0.019 0.096v0.6l-0.019 0.096-0.054 0.081-0.081 0.054-0.096 0.019z"/>
     <path d="m61.93 41.25-0.096-0.019-0.081-0.054-0.054-0.081-0.019-0.096v-0.6l0.019-0.096 0.054-0.081 0.081-0.054 0.096-0.019h0.6l0.096 0.019 0.081 0.054 0.054 0.081 0.019 0.096v0.6l-0.019 0.096-0.054 0.081-0.081 0.054-0.096 0.019z"/>
     <path d="m42.88 44.05-0.096-0.019-0.081-0.054-0.054-0.081-0.019-0.096v-0.6l0.019-0.096 0.054-0.081 0.081-0.054 0.096-0.019h0.6l0.096 0.019 0.081 0.054 0.054 0.081 0.019 0.096v0.6l-0.019 0.096-0.054 0.081-0.081 0.054-0.096 0.019z"/>
     <path d="m42.88 41.25-0.096-0.019-0.081-0.054-0.054-0.081-0.019-0.096v-0.6l0.019-0.096 0.054-0.081 0.081-0.054 0.096-0.019h0.6l0.096 0.019 0.081 0.054 0.054 0.081 0.019 0.096v0.6l-0.019 0.096-0.054 0.081-0.081 0.054-0.096 0.019z"/>
     <path d="m80.98 44.05-0.096-0.019-0.081-0.054-0.054-0.081-0.019-0.096v-0.6l0.019-0.096 0.054-0.081 0.081-0.054 0.096-0.019h0.6l0.096 0.019 0.081 0.054 0.054 0.081 0.019 0.096v0.6l-0.019 0.096-0.054 0.081-0.081 0.054-0.096 0.019z"/>
     <path d="m80.98 41.25-0.096-0.019-0.081-0.054-0.054-0.081-0.019-0.096v-0.6l0.019-0.096 0.054-0.081 0.081-0.054 0.096-0.019h0.6l0.096 0.019 0.081 0.054 0.054 0.081 0.019 0.096v0.6l-0.019 0.096-0.054 0.081-0.081 0.054-0.096 0.019z"/>
    </g>
   </g>
  </g>
 </g>
 <g stroke-width="0">
  <g fill="#D864FF" fill-opacity=".4" stroke="#D864FF" stroke-linecap="round" stroke-linejoin="round" stroke-width="0">
   <circle cx="33.02" cy="38.1" r=".875"/>
   <circle cx="38.1" cy="38.1" r="2"/>
   <circle cx="43.18" cy="38.1" r=".875"/>
   <circle cx="71.12" cy="38.1" r=".875"/>
   <circle cx="76.2" cy="38.1" r="2"/>
   <circle cx="81.28" cy="38.1" r=".875"/>
   <circle cx="52.07" cy="38.1" r=".875"/>
   <circle cx="57.15" cy="38.1" r="2"/>
   <circle cx="62.23" cy="38.1" r=".875"/>
  </g>
 </g>
</svg>
