<?xml version="1.0" encoding="UTF-8"?>
<!DOCTYPE svg  PUBLIC '-//W3C//DTD SVG 1.1//EN'  'http://www.w3.org/Graphics/SVG/1.1/DTD/svg11.dtd'>
<svg width="88.976mm" height="26.289mm" version="1.1" viewBox="0 0 88.976 26.289" xmlns="http://www.w3.org/2000/svg">
 <title>SVG Image created as geistmaschine-macropod-render.svg date 2026/07/14 10:49:00</title>
 <desc>Image generated by PCBNEW</desc>
 <rect width="88.976mm" height="26.289mm" fill="#282A36"/>
 <g fill="#f55">
  <circle cx="74.271" cy="14.179" r="1.25"/>
  <circle cx="80.621" cy="11.639" r="1.25"/>
  <path d="m0.525 15.219v-2h2v2z" fill="#f55" fill-rule="evenodd"/>
  <circle cx="1.525" cy="19.219" r="1"/>
  <circle cx="1.525" cy="16.719" r="1"/>
  <path d="m7.425 12.119v-1.9999h3.2v1.9999z" fill="#f55" fill-rule="evenodd"/>
  <path d="m7.425 23.319v-2h3.2v2z" fill="#f55" fill-rule="evenodd"/>
  <circle cx="16.025" cy="19.219" r="1"/>
  <circle cx="16.025" cy="14.219" r="1"/>
  <path d="m71.962 8.075v-2h2v2z" fill="#f55" fill-rule="evenodd"/>
  <circle cx="72.962" cy="12.075" r="1"/>
  <circle cx="72.962" cy="9.575" r="1"/>
  <path d="m78.862 4.975v-2h3.2v2z" fill="#f55" fill-rule="evenodd"/>
  <path d="m78.862 16.175v-2h3.2v2z" fill="#f55" fill-rule="evenodd"/>
  <circle cx="87.462" cy="12.075" r="1"/>
  <circle cx="87.462" cy="7.075" r="1"/>
  <circle cx="26.646" cy="7.035" r="1.25"/>
  <circle cx="32.996" cy="4.495" r="1.25"/>
  <circle cx="36.171" cy="14.179" r="1.25"/>
  <circle cx="42.521" cy="11.639" r="1.25"/>
  <circle cx="7.5962" cy="7.035" r="1.25"/>
  <circle cx="13.946" cy="4.495" r="1.25"/>
  <circle cx="55.221" cy="14.179" r="1.25"/>
  <circle cx="61.571" cy="11.639" r="1.25"/>
  <circle cx="45.696" cy="7.035" r="1.25"/>
  <circle cx="52.046" cy="4.495" r="1.25"/>
 </g>
 <g fill="none" stroke="#f55" stroke-linecap="round" stroke-linejoin="round" stroke-width=".2">
  <path d="m43.315 7.035h2.3812"/>
  <path d="m36.171 14.179 7.1437-7.1437"/>
 </g>
 <g fill="#50FA7B">
  <circle cx="74.271" cy="14.179" r="1.25"/>
  <circle cx="80.621" cy="11.639" r="1.25"/>
  <path d="m0.525 15.219v-2h2v2z" fill="#50FA7B" fill-rule="evenodd"/>
  <circle cx="1.525" cy="19.219" r="1"/>
  <circle cx="1.525" cy="16.719" r="1"/>
  <path d="m7.425 12.119v-1.9999h3.2v1.9999z" fill="#50FA7B" fill-rule="evenodd"/>
  <path d="m7.425 23.319v-2h3.2v2z" fill="#50FA7B" fill-rule="evenodd"/>
  <circle cx="16.025" cy="19.219" r="1"/>
  <circle cx="16.025" cy="14.219" r="1"/>
  <path d="m71.962 8.075v-2h2v2z" fill="#50FA7B" fill-rule="evenodd"/>
  <circle cx="72.962" cy="12.075" r="1"/>
  <circle cx="72.962" cy="9.575" r="1"/>
  <path d="m78.862 4.975v-2h3.2v2z" fill="#50FA7B" fill-rule="evenodd"/>
  <path d="m78.862 16.175v-2h3.2v2z" fill="#50FA7B" fill-rule="evenodd"/>
  <circle cx="87.462" cy="12.075" r="1"/>
  <circle cx="87.462" cy="7.075" r="1"/>
  <circle cx="26.646" cy="7.035" r="1.25"/>
  <circle cx="32.996" cy="4.495" r="1.25"/>
  <circle cx="36.171" cy="14.179" r="1.25"/>
  <circle cx="42.521" cy="11.639" r="1.25"/>
  <circle cx="7.5962" cy="7.035" r="1.25"/>
  <circle cx="13.946" cy="4.495" r="1.25"/>
  <circle cx="55.221" cy="14.179" r="1.25"/>
  <circle cx="61.571" cy="11.639" r="1.25"/>
  <circle cx="45.696" cy="7.035" r="1.25"/>
  <circle cx="52.046" cy="4.495" r="1.25"/>
  <g fill="#50FA7B" fill-rule="evenodd">
   <path d="m63.811 22.669-0.0956-0.019-0.0811-0.0542-0.0542-0.0811-0.0191-0.0957v-0.6l0.0191-0.0956 0.0542-0.0811 0.0811-0.0542 0.0956-0.0191h0.6l0.0957 0.0191 0.0811 0.0542 0.0542 0.0811 0.019 0.0956v0.6l-0.019 0.0957-0.0542 0.0811-0.0811 0.0542-0.0957 0.019z"/>
   <path d="m63.811 19.869-0.0956-0.019-0.0811-0.0542-0.0542-0.0811-0.0191-0.0957v-0.5999l0.0191-0.0957 0.0542-0.0811 0.0811-0.0542 0.0956-0.019h0.6l0.0957 0.019 0.0811 0.0542 0.0542 0.0811 0.019 0.0957v0.5999l-0.019 0.0957-0.0542 0.0811-0.0811 0.0542-0.0957 0.019z"/>
   <path d="m82.861 22.669-0.0956-0.019-0.0811-0.0542-0.0542-0.0811-0.0191-0.0957v-0.6l0.0191-0.0956 0.0542-0.0811 0.0811-0.0542 0.0956-0.0191h0.6l0.0957 0.0191 0.0811 0.0542 0.0542 0.0811 0.019 0.0956v0.6l-0.019 0.0957-0.0542 0.0811-0.0811 0.0542-0.0957 0.019z"/>
   <path d="m82.861 19.869-0.0956-0.019-0.0811-0.0542-0.0542-0.0811-0.0191-0.0957v-0.5999l0.0191-0.0957 0.0542-0.0811 0.0811-0.0542 0.0956-0.019h0.6l0.0957 0.019 0.0811 0.0542 0.0542 0.0811 0.019 0.0957v0.5999l-0.019 0.0957-0.0542 0.0811-0.0811 0.0542-0.0957 0.019z"/>
   <path d="m6.305 20.169-0.0957-0.019-0.0811-0.0542-0.0542-0.0811-0.019-0.0957v-0.6l0.019-0.0956 0.0542-0.0811 0.0811-0.0542 0.0957-0.0191h0.6l0.0957 0.0191 0.0811 0.0542 0.0542 0.0811 0.019 0.0956v0.6l-0.019 0.0957-0.0542 0.0811-0.0811 0.0542-0.0957 0.019z"/>
   <path d="m6.305 17.369-0.0957-0.019-0.0811-0.0542-0.0542-0.0811-0.019-0.0957v-0.5999l0.019-0.0957 0.0542-0.0811 0.0811-0.0542 0.0957-0.019h0.6l0.0957 0.019 0.0811 0.0542 0.0542 0.0811 0.019 0.0957v0.5999l-0.019 0.0957-0.0542 0.0811-0.0811 0.0542-0.0957 0.019z"/>
   <path d="m44.761 22.669-0.0956-0.019-0.0811-0.0542-0.0542-0.0811-0.0191-0.0957v-0.6l0.0191-0.0956 0.0542-0.0811 0.0811-0.0542 0.0956-0.0191h0.6l0.0957 0.0191 0.0811 0.0542 0.0542 0.0811 0.019 0.0956v0.6l-0.019 0.0957-0.0542 0.0811-0.0811 0.0542-0.0957 0.019z"/>
   <path d="m44.761 19.869-0.0956-0.019-0.0811-0.0542-0.0542-0.0811-0.0191-0.0957v-0.5999l0.0191-0.0957 0.0542-0.0811 0.0811-0.0542 0.0956-0.019h0.6l0.0957 0.019 0.0811 0.0542 0.0542 0.0811 0.019 0.0957v0.5999l-0.019 0.0957-0.0542 0.0811-0.0811 0.0542-0.0957 0.019z"/>
  </g>
 </g>
 <g fill="none" stroke-linecap="round" stroke-linejoin="round">
  <g stroke="#50FA7B" stroke-width=".2">
   <path d="m16.025 14.219h-6.82"/>
   <path d="m9.205 14.219-2.6 2.5999"/>
   <path d="m52.046 4.495v7.8388"/>
   <path d="m42.521 16.779 2.5401 2.54"/>
   <path d="m42.521 11.639v5.14"/>
   <path d="m52.046 12.334-6.985 6.9849"/>
   <path d="m61.571 11.639v5.14"/>
   <path d="m61.571 16.779 2.54 2.54"/>
   <path d="m64.111 22.119h19.05"/>
   <path d="m45.061 22.119h19.05"/>
  </g>
  <g stroke="#8BE9FD" stroke-width=".15">
   <text x="78.0812" y="9.2188" font-size="1.3333" opacity="0" stroke-opacity="0" text-anchor="middle" lengthAdjust="spacingAndGlyphs" textLength="3.2976">SW4</text>
   <g class="stroked-text">
    <desc>SW4</desc>
    <path d="m76.748 9.1259 0.1429 0.0477"/>
    <path d="m76.891 9.1736h0.2381"/>
    <path d="m77.129 9.1736 0.0952-0.0477"/>
    <path d="m77.224 9.1259 0.0476-0.0476"/>
    <path d="m77.272 9.0783 0.0476-0.0952"/>
    <path d="m77.319 8.9831v-0.0952"/>
    <path d="m77.319 8.8879-0.0476-0.0953"/>
    <path d="m77.272 8.7926-0.0476-0.0476"/>
    <path d="m77.224 8.745-0.0952-0.0476"/>
    <path d="m77.129 8.6974-0.1905-0.0476"/>
    <path d="m76.938 8.6498-0.0952-0.0477"/>
    <path d="m76.843 8.6021-0.0477-0.0476"/>
    <path d="m76.796 8.5545-0.0476-0.0952"/>
    <path d="m76.748 8.4593v-0.0953"/>
    <path d="m76.748 8.364 0.0476-0.0952"/>
    <path d="m76.796 8.2688 0.0477-0.0476"/>
    <path d="m76.843 8.2212 0.0952-0.0476"/>
    <path d="m76.938 8.1736h0.2381"/>
    <path d="m77.176 8.1736 0.1428 0.0476"/>
    <path d="m77.653 8.1736 0.2381 1"/>
    <path d="m77.891 9.1736 0.1904-0.7143"/>
    <path d="m78.081 8.4593 0.1905 0.7143"/>
    <path d="m78.272 9.1736 0.2381-1"/>
    <path d="m79.319 8.5069v0.6667"/>
    <path d="m79.081 8.1259-0.238 0.7143"/>
    <path d="m78.843 8.8402h0.619"/>
   </g>
   <text x="4.3250" y="10.0187" font-size="1.3333" opacity="0" stroke-opacity="0" text-anchor="middle" lengthAdjust="spacingAndGlyphs" textLength="3.2976">SW1</text>
   <g class="stroked-text">
    <desc>SW1</desc>
    <path d="m2.9917 9.926 0.1428 0.0476"/>
    <path d="m3.1345 9.9736h0.2381"/>
    <path d="m3.3726 9.9736 0.0953-0.0476"/>
    <path d="m3.4679 9.926 0.0476-0.0477"/>
    <path d="m3.5155 9.8783 0.0476-0.0952"/>
    <path d="m3.5631 9.7831v-0.0952"/>
    <path d="m3.5631 9.6879-0.0476-0.0953"/>
    <path d="m3.5155 9.5926-0.0476-0.0476"/>
    <path d="m3.4679 9.545-0.0953-0.0476"/>
    <path d="m3.3726 9.4974-0.1905-0.0476"/>
    <path d="m3.1821 9.4498-0.0952-0.0477"/>
    <path d="m3.0869 9.4021-0.0476-0.0476"/>
    <path d="m3.0393 9.3545-0.0476-0.0952"/>
    <path d="m2.9917 9.2593v-0.0953"/>
    <path d="m2.9917 9.164 0.0476-0.0952"/>
    <path d="m3.0393 9.0688 0.0476-0.0476"/>
    <path d="m3.0869 9.0212 0.0952-0.0476"/>
    <path d="m3.1821 8.9736h0.2381"/>
    <path d="m3.4202 8.9736 0.1429 0.0476"/>
    <path d="m3.8964 8.9736 0.2381 1"/>
    <path d="m4.1345 9.9736 0.1905-0.7143"/>
    <path d="m4.325 9.2593 0.1905 0.7143"/>
    <path d="m4.5155 9.9736 0.2381-1"/>
    <path d="m5.6583 9.9736h-0.5714"/>
    <path d="m5.3726 9.9736v-1"/>
    <path d="m5.3726 8.9736-0.0952 0.1428"/>
    <path d="m5.2774 9.1164-0.0953 0.0953"/>
    <path d="m5.1821 9.2117-0.0952 0.0476"/>
   </g>
   <text x="75.7625" y="2.8750" font-size="1.3333" opacity="0" stroke-opacity="0" text-anchor="middle" lengthAdjust="spacingAndGlyphs" textLength="4.2024">SW1a</text>
   <g class="stroked-text">
    <desc>SW1a</desc>
    <path d="m73.977 2.7822 0.1428 0.0476"/>
    <path d="m74.12 2.8298h0.2381"/>
    <path d="m74.358 2.8298 0.0953-0.0476"/>
    <path d="m74.453 2.7822 0.0476-0.0476"/>
    <path d="m74.501 2.7346 0.0476-0.0953"/>
    <path d="m74.548 2.6393v-0.0952"/>
    <path d="m74.548 2.5441-0.0476-0.0952"/>
    <path d="m74.501 2.4489-0.0476-0.0477"/>
    <path d="m74.453 2.4012-0.0953-0.0476"/>
    <path d="m74.358 2.3536-0.1904-0.0476"/>
    <path d="m74.167 2.306-0.0953-0.0476"/>
    <path d="m74.072 2.2584-0.0476-0.0476"/>
    <path d="m74.024 2.2108-0.0476-0.0953"/>
    <path d="m73.977 2.1155v-0.0952"/>
    <path d="m73.977 2.0203 0.0476-0.0952"/>
    <path d="m74.024 1.9251 0.0476-0.0477"/>
    <path d="m74.072 1.8774 0.0953-0.0476"/>
    <path d="m74.167 1.8298h0.2381"/>
    <path d="m74.405 1.8298 0.1428 0.0476"/>
    <path d="m74.882 1.8298 0.2381 1"/>
    <path d="m75.12 2.8298 0.1905-0.7143"/>
    <path d="m75.31 2.1155 0.1905 0.7143"/>
    <path d="m75.501 2.8298 0.2381-1"/>
    <path d="m76.644 2.8298h-0.5715"/>
    <path d="m76.358 2.8298v-1"/>
    <path d="m76.358 1.8298-0.0952 0.1429"/>
    <path d="m76.262 1.9727-0.0952 0.0952"/>
    <path d="m76.167 2.0679-0.0953 0.0476"/>
    <path d="m77.501 2.8298v-0.5238"/>
    <path d="m77.501 2.306-0.0476-0.0952"/>
    <path d="m77.453 2.2108-0.0953-0.0476"/>
    <path d="m77.358 2.1632h-0.1904"/>
    <path d="m77.167 2.1632-0.0953 0.0476"/>
    <path d="m77.501 2.7822-0.0952 0.0476"/>
    <path d="m77.405 2.8298h-0.2381"/>
    <path d="m77.167 2.8298-0.0953-0.0476"/>
    <path d="m77.072 2.7822-0.0476-0.0952"/>
    <path d="m77.024 2.687v-0.0953"/>
    <path d="m77.024 2.5917 0.0476-0.0952"/>
    <path d="m77.072 2.4965 0.0953-0.0476"/>
    <path d="m77.167 2.4489h0.2381"/>
    <path d="m77.405 2.4489 0.0952-0.0477"/>
   </g>
   <text x="30.4562" y="2.0750" font-size="1.3333" opacity="0" stroke-opacity="0" text-anchor="middle" lengthAdjust="spacingAndGlyphs" textLength="4.2024">SW3a</text>
   <g class="stroked-text">
    <desc>SW3a</desc>
    <path d="m28.67 1.9822 0.1429 0.0476"/>
    <path d="m28.813 2.0298h0.2381"/>
    <path d="m29.052 2.0298 0.0952-0.0476"/>
    <path d="m29.147 1.9822 0.0476-0.0476"/>
    <path d="m29.194 1.9346 0.0477-0.0953"/>
    <path d="m29.242 1.8393v-0.0952"/>
    <path d="m29.242 1.7441-0.0477-0.0952"/>
    <path d="m29.194 1.6489-0.0476-0.0477"/>
    <path d="m29.147 1.6012-0.0952-0.0476"/>
    <path d="m29.052 1.5536-0.1905-0.0476"/>
    <path d="m28.861 1.506-0.0952-0.0476"/>
    <path d="m28.766 1.4584-0.0476-0.0476"/>
    <path d="m28.718 1.4108-0.0477-0.0953"/>
    <path d="m28.67 1.3155v-0.0952"/>
    <path d="m28.67 1.2203 0.0477-0.0952"/>
    <path d="m28.718 1.1251 0.0476-0.0477"/>
    <path d="m28.766 1.0774 0.0952-0.0476"/>
    <path d="m28.861 1.0298h0.2381"/>
    <path d="m29.099 1.0298 0.1429 0.0476"/>
    <path d="m29.575 1.0298 0.2381 1"/>
    <path d="m29.813 2.0298 0.1905-0.7143"/>
    <path d="m30.004 1.3155 0.1904 0.7143"/>
    <path d="m30.194 2.0298 0.2381-1"/>
    <path d="m30.718 1.0298h0.619"/>
    <path d="m31.337 1.0298-0.3333 0.381"/>
    <path d="m31.004 1.4108h0.1428"/>
    <path d="m31.147 1.4108 0.0953 0.0476"/>
    <path d="m31.242 1.4584 0.0476 0.0476"/>
    <path d="m31.29 1.506 0.0476 0.0952"/>
    <path d="m31.337 1.6012v0.2381"/>
    <path d="m31.337 1.8393-0.0476 0.0953"/>
    <path d="m31.29 1.9346-0.0476 0.0476"/>
    <path d="m31.242 1.9822-0.0953 0.0476"/>
    <path d="m31.147 2.0298h-0.2857"/>
    <path d="m30.861 2.0298-0.0952-0.0476"/>
    <path d="m30.766 1.9822-0.0476-0.0476"/>
    <path d="m32.194 2.0298v-0.5238"/>
    <path d="m32.194 1.506-0.0476-0.0952"/>
    <path d="m32.147 1.4108-0.0952-0.0476"/>
    <path d="m32.052 1.3632h-0.1905"/>
    <path d="m31.861 1.3632-0.0952 0.0476"/>
    <path d="m32.194 1.9822-0.0952 0.0476"/>
    <path d="m32.099 2.0298h-0.2381"/>
    <path d="m31.861 2.0298-0.0952-0.0476"/>
    <path d="m31.766 1.9822-0.0476-0.0952"/>
    <path d="m31.718 1.887v-0.0953"/>
    <path d="m31.718 1.7917 0.0476-0.0952"/>
    <path d="m31.766 1.6965 0.0952-0.0476"/>
    <path d="m31.861 1.6489h0.2381"/>
    <path d="m32.099 1.6489 0.0952-0.0477"/>
   </g>
   <text x="39.9812" y="9.2188" font-size="1.3333" opacity="0" stroke-opacity="0" text-anchor="middle" lengthAdjust="spacingAndGlyphs" textLength="3.2976">SW2</text>
   <g class="stroked-text">
    <desc>SW2</desc>
    <path d="m38.648 9.1259 0.1429 0.0477"/>
    <path d="m38.791 9.1736h0.2381"/>
    <path d="m39.029 9.1736 0.0952-0.0477"/>
    <path d="m39.124 9.1259 0.0476-0.0476"/>
    <path d="m39.172 9.0783 0.0476-0.0952"/>
    <path d="m39.219 8.9831v-0.0952"/>
    <path d="m39.219 8.8879-0.0476-0.0953"/>
    <path d="m39.172 8.7926-0.0476-0.0476"/>
    <path d="m39.124 8.745-0.0952-0.0476"/>
    <path d="m39.029 8.6974-0.1905-0.0476"/>
    <path d="m38.838 8.6498-0.0952-0.0477"/>
    <path d="m38.743 8.6021-0.0477-0.0476"/>
    <path d="m38.696 8.5545-0.0476-0.0952"/>
    <path d="m38.648 8.4593v-0.0953"/>
    <path d="m38.648 8.364 0.0476-0.0952"/>
    <path d="m38.696 8.2688 0.0477-0.0476"/>
    <path d="m38.743 8.2212 0.0952-0.0476"/>
    <path d="m38.838 8.1736h0.2381"/>
    <path d="m39.076 8.1736 0.1428 0.0476"/>
    <path d="m39.553 8.1736 0.2381 1"/>
    <path d="m39.791 9.1736 0.1904-0.7143"/>
    <path d="m39.981 8.4593 0.1905 0.7143"/>
    <path d="m40.172 9.1736 0.2381-1"/>
    <path d="m40.743 8.2688 0.0476-0.0476"/>
    <path d="m40.791 8.2212 0.0952-0.0476"/>
    <path d="m40.886 8.1736h0.2381"/>
    <path d="m41.124 8.1736 0.0952 0.0476"/>
    <path d="m41.219 8.2212 0.0477 0.0476"/>
    <path d="m41.267 8.2688 0.0476 0.0952"/>
    <path d="m41.315 8.364v0.0953"/>
    <path d="m41.315 8.4593-0.0476 0.1428"/>
    <path d="m41.267 8.6021-0.5715 0.5715"/>
    <path d="m40.696 9.1736h0.6191"/>
   </g>
   <text x="11.4062" y="2.0750" font-size="1.3333" opacity="0" stroke-opacity="0" text-anchor="middle" lengthAdjust="spacingAndGlyphs" textLength="4.2024">SW4a</text>
   <g class="stroked-text">
    <desc>SW4a</desc>
    <path d="m9.6205 1.9822 0.1429 0.0476"/>
    <path d="m9.7634 2.0298h0.2381"/>
    <path d="m10.002 2.0298 0.0952-0.0476"/>
    <path d="m10.097 1.9822 0.0476-0.0476"/>
    <path d="m10.144 1.9346 0.0477-0.0953"/>
    <path d="m10.192 1.8393v-0.0952"/>
    <path d="m10.192 1.7441-0.0477-0.0952"/>
    <path d="m10.144 1.6489-0.0476-0.0477"/>
    <path d="m10.097 1.6012-0.0952-0.0476"/>
    <path d="m10.002 1.5536-0.1905-0.0476"/>
    <path d="m9.811 1.506-0.0952-0.0476"/>
    <path d="m9.7158 1.4584-0.0476-0.0476"/>
    <path d="m9.6682 1.4108-0.0477-0.0953"/>
    <path d="m9.6205 1.3155v-0.0952"/>
    <path d="m9.6205 1.2203 0.0477-0.0952"/>
    <path d="m9.6682 1.1251 0.0476-0.0477"/>
    <path d="m9.7158 1.0774 0.0952-0.0476"/>
    <path d="m9.811 1.0298h0.2381"/>
    <path d="m10.049 1.0298 0.1429 0.0476"/>
    <path d="m10.525 1.0298 0.2381 1"/>
    <path d="m10.763 2.0298 0.1905-0.7143"/>
    <path d="m10.954 1.3155 0.1904 0.7143"/>
    <path d="m11.144 2.0298 0.2381-1"/>
    <path d="m12.192 1.3632v0.6666"/>
    <path d="m11.954 0.9822-0.2381 0.7143"/>
    <path d="m11.716 1.6965h0.619"/>
    <path d="m13.144 2.0298v-0.5238"/>
    <path d="m13.144 1.506-0.0476-0.0952"/>
    <path d="m13.097 1.4108-0.0952-0.0476"/>
    <path d="m13.002 1.3632h-0.1905"/>
    <path d="m12.811 1.3632-0.0952 0.0476"/>
    <path d="m13.144 1.9822-0.0952 0.0476"/>
    <path d="m13.049 2.0298h-0.2381"/>
    <path d="m12.811 2.0298-0.0952-0.0476"/>
    <path d="m12.716 1.9822-0.0476-0.0952"/>
    <path d="m12.668 1.887v-0.0953"/>
    <path d="m12.668 1.7917 0.0476-0.0952"/>
    <path d="m12.716 1.6965 0.0952-0.0476"/>
    <path d="m12.811 1.6489h0.2381"/>
    <path d="m13.049 1.6489 0.0952-0.0477"/>
   </g>
   <text x="59.0312" y="9.2188" font-size="1.3333" opacity="0" stroke-opacity="0" text-anchor="middle" lengthAdjust="spacingAndGlyphs" textLength="3.2976">SW3</text>
   <g class="stroked-text">
    <desc>SW3</desc>
    <path d="m57.698 9.1259 0.1429 0.0477"/>
    <path d="m57.841 9.1736h0.2381"/>
    <path d="m58.079 9.1736 0.0952-0.0477"/>
    <path d="m58.174 9.1259 0.0476-0.0476"/>
    <path d="m58.222 9.0783 0.0476-0.0952"/>
    <path d="m58.269 8.9831v-0.0952"/>
    <path d="m58.269 8.8879-0.0476-0.0953"/>
    <path d="m58.222 8.7926-0.0476-0.0476"/>
    <path d="m58.174 8.745-0.0952-0.0476"/>
    <path d="m58.079 8.6974-0.1905-0.0476"/>
    <path d="m57.888 8.6498-0.0952-0.0477"/>
    <path d="m57.793 8.6021-0.0477-0.0476"/>
    <path d="m57.746 8.5545-0.0476-0.0952"/>
    <path d="m57.698 8.4593v-0.0953"/>
    <path d="m57.698 8.364 0.0476-0.0952"/>
    <path d="m57.746 8.2688 0.0477-0.0476"/>
    <path d="m57.793 8.2212 0.0952-0.0476"/>
    <path d="m57.888 8.1736h0.2381"/>
    <path d="m58.126 8.1736 0.1428 0.0476"/>
    <path d="m58.603 8.1736 0.2381 1"/>
    <path d="m58.841 9.1736 0.1904-0.7143"/>
    <path d="m59.031 8.4593 0.1905 0.7143"/>
    <path d="m59.222 9.1736 0.2381-1"/>
    <path d="m59.746 8.1736h0.6191"/>
    <path d="m60.365 8.1736-0.3334 0.3809"/>
    <path d="m60.031 8.5545h0.1429"/>
    <path d="m60.174 8.5545 0.0952 0.0476"/>
    <path d="m60.269 8.6021 0.0477 0.0477"/>
    <path d="m60.317 8.6498 0.0476 0.0952"/>
    <path d="m60.365 8.745v0.2381"/>
    <path d="m60.365 8.9831-0.0476 0.0952"/>
    <path d="m60.317 9.0783-0.0477 0.0476"/>
    <path d="m60.269 9.1259-0.0952 0.0477"/>
    <path d="m60.174 9.1736h-0.2857"/>
    <path d="m59.888 9.1736-0.0952-0.0477"/>
    <path d="m59.793 9.1259-0.0477-0.0476"/>
   </g>
   <text x="49.5062" y="2.0750" font-size="1.3333" opacity="0" stroke-opacity="0" text-anchor="middle" lengthAdjust="spacingAndGlyphs" textLength="4.2024">SW2a</text>
   <g class="stroked-text">
    <desc>SW2a</desc>
    <path d="m47.72 1.9822 0.1429 0.0476"/>
    <path d="m47.863 2.0298h0.2381"/>
    <path d="m48.102 2.0298 0.0952-0.0476"/>
    <path d="m48.197 1.9822 0.0476-0.0476"/>
    <path d="m48.244 1.9346 0.0477-0.0953"/>
    <path d="m48.292 1.8393v-0.0952"/>
    <path d="m48.292 1.7441-0.0477-0.0952"/>
    <path d="m48.244 1.6489-0.0476-0.0477"/>
    <path d="m48.197 1.6012-0.0952-0.0476"/>
    <path d="m48.102 1.5536-0.1905-0.0476"/>
    <path d="m47.911 1.506-0.0952-0.0476"/>
    <path d="m47.816 1.4584-0.0476-0.0476"/>
    <path d="m47.768 1.4108-0.0477-0.0953"/>
    <path d="m47.72 1.3155v-0.0952"/>
    <path d="m47.72 1.2203 0.0477-0.0952"/>
    <path d="m47.768 1.1251 0.0476-0.0477"/>
    <path d="m47.816 1.0774 0.0952-0.0476"/>
    <path d="m47.911 1.0298h0.2381"/>
    <path d="m48.149 1.0298 0.1429 0.0476"/>
    <path d="m48.625 1.0298 0.2381 1"/>
    <path d="m48.863 2.0298 0.1905-0.7143"/>
    <path d="m49.054 1.3155 0.1904 0.7143"/>
    <path d="m49.244 2.0298 0.2381-1"/>
    <path d="m49.816 1.1251 0.0476-0.0477"/>
    <path d="m49.863 1.0774 0.0952-0.0476"/>
    <path d="m49.959 1.0298h0.2381"/>
    <path d="m50.197 1.0298 0.0953 0.0476"/>
    <path d="m50.292 1.0774 0.0476 0.0477"/>
    <path d="m50.34 1.1251 0.0476 0.0952"/>
    <path d="m50.387 1.2203v0.0952"/>
    <path d="m50.387 1.3155-0.0476 0.1429"/>
    <path d="m50.34 1.4584-0.5714 0.5714"/>
    <path d="m49.768 2.0298h0.619"/>
    <path d="m51.244 2.0298v-0.5238"/>
    <path d="m51.244 1.506-0.0476-0.0952"/>
    <path d="m51.197 1.4108-0.0952-0.0476"/>
    <path d="m51.102 1.3632h-0.1905"/>
    <path d="m50.911 1.3632-0.0952 0.0476"/>
    <path d="m51.244 1.9822-0.0952 0.0476"/>
    <path d="m51.149 2.0298h-0.2381"/>
    <path d="m50.911 2.0298-0.0952-0.0476"/>
    <path d="m50.816 1.9822-0.0476-0.0952"/>
    <path d="m50.768 1.887v-0.0953"/>
    <path d="m50.768 1.7917 0.0476-0.0952"/>
    <path d="m50.816 1.6965 0.0952-0.0476"/>
    <path d="m50.911 1.6489h0.2381"/>
    <path d="m51.149 1.6489 0.0952-0.0477"/>
   </g>
  </g>
  <g stroke="#8BE9FD" stroke-width=".12">
   <path d="m70.981 9.6188v14.2"/>
   <path d="m70.981 23.819h14.2"/>
   <path d="m85.181 9.6188h-14.2"/>
   <path d="m85.181 23.819v-14.2"/>
   <path d="m1.225 12.619h0.6"/>
   <path d="m1.525 12.919-0.3-0.3"/>
   <path d="m1.825 12.619-0.3 0.3"/>
   <path d="m2.925 10.819v11.8"/>
   <path d="m7.025 10.819h-4.1"/>
   <path d="m7.025 22.619h-4.1"/>
   <path d="m8.525 16.719h1"/>
   <path d="m9.025 16.219v1"/>
   <path d="m11.025 10.819h4.1"/>
   <path d="m15.125 10.819v2.4001"/>
   <path d="m15.125 15.419v2.6001"/>
   <path d="m15.125 20.219v2.3999"/>
   <path d="m15.125 22.619h-4.1"/>
   <circle cx="9.025" cy="16.719" r="3"/>
   <path d="m72.662 5.475h0.6"/>
   <path d="m72.962 5.775-0.3-0.3"/>
   <path d="m73.262 5.475-0.3 0.3"/>
   <path d="m74.362 3.675v11.8"/>
   <path d="m78.462 3.675h-4.1"/>
   <path d="m78.462 15.475h-4.1"/>
   <path d="m79.962 9.575h1"/>
   <path d="m80.462 9.075v1"/>
   <path d="m82.462 3.675h4.1"/>
   <path d="m86.562 3.675v2.4"/>
   <path d="m86.562 8.275v2.6"/>
   <path d="m86.562 13.075v2.4"/>
   <path d="m86.562 15.475h-4.1"/>
   <circle cx="80.462" cy="9.575" r="3"/>
   <path d="m23.356 2.475v14.2"/>
   <path d="m23.356 16.675h14.2"/>
   <path d="m37.556 2.475h-14.2"/>
   <path d="m37.556 16.675v-14.2"/>
   <path d="m32.881 9.6188v14.2"/>
   <path d="m32.881 23.819h14.2"/>
   <path d="m47.081 9.6188h-14.2"/>
   <path d="m47.081 23.819v-14.2"/>
   <path d="m4.3062 2.475v14.2"/>
   <path d="m4.3062 16.675h14.2"/>
   <path d="m18.506 2.475h-14.2"/>
   <path d="m18.506 16.675v-14.2"/>
   <path d="m51.931 9.6188v14.2"/>
   <path d="m51.931 23.819h14.2"/>
   <path d="m66.131 9.6188h-14.2"/>
   <path d="m66.131 23.819v-14.2"/>
   <path d="m42.406 2.475v14.2"/>
   <path d="m42.406 16.675h14.2"/>
   <path d="m56.606 2.475h-14.2"/>
   <path d="m56.606 16.675v-14.2"/>
  </g>
  <g stroke="#BD93F9" stroke-width=".15">
   <g transform="rotate(-90 66.016 20.846)">
    <text transform="scale(-1 1) translate(-132.03)" x="66.0162" y="21.3457" font-size="1.3333" opacity="0" stroke-opacity="0" text-anchor="middle" lengthAdjust="spacingAndGlyphs" textLength="2.2024">D3</text>
   </g>
   <g class="stroked-text">
    <desc>D3</desc>
    <path d="m66.471 20.108h-1"/>
    <path d="m65.471 20.108v0.238"/>
    <path d="m65.471 20.346 0.0476 0.1429"/>
    <path d="m65.519 20.489 0.0952 0.0952"/>
    <path d="m65.614 20.584 0.0953 0.0477"/>
    <path d="m65.709 20.632 0.1904 0.0476"/>
    <path d="m65.9 20.679h0.1429"/>
    <path d="m66.042 20.679 0.1905-0.0476"/>
    <path d="m66.233 20.632 0.0952-0.0477"/>
    <path d="m66.328 20.584 0.0953-0.0952"/>
    <path d="m66.424 20.489 0.0476-0.1429"/>
    <path d="m66.471 20.346v-0.238"/>
    <path d="m65.471 21.012v0.6191"/>
    <path d="m65.471 21.632 0.3809-0.3334"/>
    <path d="m65.852 21.298v0.1429"/>
    <path d="m65.852 21.441 0.0476 0.0952"/>
    <path d="m65.9 21.536 0.0477 0.0476"/>
    <path d="m65.947 21.584 0.0952 0.0477"/>
    <path d="m66.042 21.632h0.2381"/>
    <path d="m66.281 21.632 0.0952-0.0477"/>
    <path d="m66.376 21.584 0.0477-0.0476"/>
    <path d="m66.424 21.536 0.0476-0.0952"/>
    <path d="m66.471 21.441v-0.2857"/>
    <path d="m66.471 21.155-0.0476-0.0953"/>
    <path d="m66.424 21.06-0.0477-0.0476"/>
   </g>
   <g transform="rotate(-90 85.066 20.846)">
    <text transform="scale(-1 1) translate(-170.13)" x="85.0662" y="21.3457" font-size="1.3333" opacity="0" stroke-opacity="0" text-anchor="middle" lengthAdjust="spacingAndGlyphs" textLength="2.2024">D4</text>
   </g>
   <g class="stroked-text">
    <desc>D4</desc>
    <path d="m85.521 20.108h-1"/>
    <path d="m84.521 20.108v0.238"/>
    <path d="m84.521 20.346 0.0476 0.1429"/>
    <path d="m84.569 20.489 0.0952 0.0952"/>
    <path d="m84.664 20.584 0.0953 0.0477"/>
    <path d="m84.759 20.632 0.1904 0.0476"/>
    <path d="m84.95 20.679h0.1429"/>
    <path d="m85.092 20.679 0.1905-0.0476"/>
    <path d="m85.283 20.632 0.0952-0.0477"/>
    <path d="m85.378 20.584 0.0952-0.0952"/>
    <path d="m85.473 20.489 0.0477-0.1429"/>
    <path d="m85.521 20.346v-0.238"/>
    <path d="m84.854 21.536h0.6667"/>
    <path d="m84.473 21.298 0.7143-0.2381"/>
    <path d="m85.188 21.06v0.6191"/>
   </g>
   <g transform="rotate(-90 8.51 18.346)">
    <text transform="scale(-1 1) translate(-17.02)" x="8.5100" y="18.8457" font-size="1.3333" opacity="0" stroke-opacity="0" text-anchor="middle" lengthAdjust="spacingAndGlyphs" textLength="2.2024">D1</text>
   </g>
   <g class="stroked-text">
    <desc>D1</desc>
    <path d="m8.9648 17.608h-1"/>
    <path d="m7.9648 17.608v0.238"/>
    <path d="m7.9648 17.846 0.0476 0.1429"/>
    <path d="m8.0124 17.989 0.0953 0.0952"/>
    <path d="m8.1077 18.084 0.0952 0.0477"/>
    <path d="m8.2029 18.132 0.1905 0.0476"/>
    <path d="m8.3934 18.179h0.1428"/>
    <path d="m8.5362 18.179 0.1905-0.0476"/>
    <path d="m8.7267 18.132 0.0953-0.0477"/>
    <path d="m8.822 18.084 0.0952-0.0952"/>
    <path d="m8.9172 17.989 0.0476-0.1429"/>
    <path d="m8.9648 17.846v-0.238"/>
    <path d="m8.9648 19.132v-0.5715"/>
    <path d="m8.9648 18.846h-1"/>
    <path d="m7.9648 18.846 0.1429-0.0952"/>
    <path d="m8.1077 18.75 0.0952-0.0952"/>
    <path d="m8.2029 18.655 0.0476-0.0953"/>
   </g>
   <g transform="rotate(-90 46.966 20.846)">
    <text transform="scale(-1 1) translate(-93.932)" x="46.9662" y="21.3457" font-size="1.3333" opacity="0" stroke-opacity="0" text-anchor="middle" lengthAdjust="spacingAndGlyphs" textLength="2.2024">D2</text>
   </g>
   <g class="stroked-text">
    <desc>D2</desc>
    <path d="m47.421 20.108h-1"/>
    <path d="m46.421 20.108v0.238"/>
    <path d="m46.421 20.346 0.0476 0.1429"/>
    <path d="m46.469 20.489 0.0952 0.0952"/>
    <path d="m46.564 20.584 0.0953 0.0477"/>
    <path d="m46.659 20.632 0.1904 0.0476"/>
    <path d="m46.85 20.679h0.1429"/>
    <path d="m46.992 20.679 0.1905-0.0476"/>
    <path d="m47.183 20.632 0.0952-0.0477"/>
    <path d="m47.278 20.584 0.0952-0.0952"/>
    <path d="m47.373 20.489 0.0477-0.1429"/>
    <path d="m47.421 20.346v-0.238"/>
    <path d="m46.516 21.06-0.0476 0.0477"/>
    <path d="m46.469 21.108-0.0476 0.0952"/>
    <path d="m46.421 21.203v0.2381"/>
    <path d="m46.421 21.441 0.0476 0.0952"/>
    <path d="m46.469 21.536 0.0476 0.0476"/>
    <path d="m46.516 21.584 0.0952 0.0477"/>
    <path d="m46.612 21.632h0.0953"/>
    <path d="m46.707 21.632 0.1428-0.0477"/>
    <path d="m46.85 21.584 0.5715-0.5714"/>
    <path d="m47.421 21.012v0.6191"/>
   </g>
  </g>
  <g stroke="#BD93F9" stroke-width=".12">
   <path d="m63.111 22.929v-3.86"/>
   <path d="m65.111 22.929h-2"/>
   <path d="m65.111 22.929v-3.86"/>
   <path d="m82.161 22.929v-3.86"/>
   <path d="m84.161 22.929h-2"/>
   <path d="m84.161 22.929v-3.86"/>
   <path d="m5.605 20.429v-3.86"/>
   <path d="m7.605 20.429h-2"/>
   <path d="m7.605 20.429v-3.86"/>
   <path d="m44.061 22.929v-3.86"/>
   <path d="m46.061 22.929h-2"/>
   <path d="m46.061 22.929v-3.86"/>
  </g>
 </g>
 <g fill="#fff">
  <circle cx="73.001" cy="16.719" r=".875"/>
  <circle cx="78.081" cy="16.719" r="2"/>
  <circle cx="83.161" cy="16.719" r=".875"/>
  <circle cx="74.271" cy="14.179" r=".75"/>
  <circle cx="80.621" cy="11.639" r=".75"/>
  <circle cx="1.525" cy="14.219" r=".5"/>
  <circle cx="1.525" cy="19.219" r=".5"/>
  <circle cx="1.525" cy="16.719" r=".5"/>
 </g>
 <g fill="none" stroke="#fff" stroke-linecap="round" stroke-linejoin="round" stroke-width="1.5">
  <path d="m8.375 11.119h1.3"/>
  <path d="m8.375 22.319h1.3"/>
 </g>
 <g fill="#fff">
  <circle cx="16.025" cy="19.219" r=".5"/>
  <circle cx="16.025" cy="14.219" r=".5"/>
  <circle cx="72.962" cy="7.075" r=".5"/>
  <circle cx="72.962" cy="12.075" r=".5"/>
  <circle cx="72.962" cy="9.575" r=".5"/>
 </g>
 <g fill="none" stroke="#fff" stroke-linecap="round" stroke-linejoin="round" stroke-width="1.5">
  <path d="m79.812 3.975h1.3"/>
  <path d="m79.812 15.175h1.3"/>
 </g>
 <g fill="#fff">
  <circle cx="87.462" cy="12.075" r=".5"/>
  <circle cx="87.462" cy="7.075" r=".5"/>
  <circle cx="25.376" cy="9.575" r=".875"/>
  <circle cx="30.456" cy="9.575" r="2"/>
  <circle cx="35.536" cy="9.575" r=".875"/>
  <circle cx="26.646" cy="7.035" r=".75"/>
  <circle cx="32.996" cy="4.495" r=".75"/>
  <circle cx="34.901" cy="16.719" r=".875"/>
  <circle cx="39.981" cy="16.719" r="2"/>
  <circle cx="45.061" cy="16.719" r=".875"/>
  <circle cx="36.171" cy="14.179" r=".75"/>
  <circle cx="42.521" cy="11.639" r=".75"/>
  <circle cx="6.3262" cy="9.575" r=".875"/>
  <circle cx="11.406" cy="9.575" r="2"/>
  <circle cx="16.486" cy="9.575" r=".875"/>
  <circle cx="7.5962" cy="7.035" r=".75"/>
  <circle cx="13.946" cy="4.495" r=".75"/>
  <circle cx="53.951" cy="16.719" r=".875"/>
  <circle cx="59.031" cy="16.719" r="2"/>
  <circle cx="64.111" cy="16.719" r=".875"/>
  <circle cx="55.221" cy="14.179" r=".75"/>
  <circle cx="61.571" cy="11.639" r=".75"/>
  <circle cx="44.426" cy="9.575" r=".875"/>
  <circle cx="49.506" cy="9.575" r="2"/>
  <circle cx="54.586" cy="9.575" r=".875"/>
  <circle cx="45.696" cy="7.035" r=".75"/>
  <circle cx="52.046" cy="4.495" r=".75"/>
 </g>
</svg>
