<?xml version="1.0" encoding="UTF-8"?>
<svg xmlns="http://www.w3.org/2000/svg" xmlns:xlink="http://www.w3.org/1999/xlink"
     width="294" height="411" viewBox="0 0 294 411">
<defs>
<g id="d0">
<rect x="0" y="0" width="91.0" height="91.0" rx="5" fill="none" stroke="black" stroke-width="2" />
<rect x="1.0" y="1.0" width="89.0" height="89.0" rx="4.0" fill="#cccccc" />
<rect x="6" y="4" width="79.0" height="79.0" rx="5" fill="#fbfbfb" />
<text x="7" y="7" font-size="12" text-anchor="start" dominant-baseline="hanging"><tspan x="7" dy="0em">0,0</tspan></text>
<text x="45.5" y="45.5" font-size="12" text-anchor="middle" dominant-baseline="middle"><tspan x="45.5" dy="0em">e0</tspan></text>
<text x="84.0" y="81.0" font-size="12" text-anchor="end" dominant-baseline="auto"><tspan x="84.0" dy="0em">0,0</tspan></text>
</g>
<g id="d1">
<rect x="0" y="0" width="52" height="52" rx="5" fill="none" stroke="black" stroke-width="2" />
<rect x="1.0" y="1.0" width="50.0" height="50.0" rx="4.0" fill="#aaaaaa" />
<rect x="6" y="4" width="40" height="40" rx="5" fill="#d0d0d0" />
<text x="7" y="7" font-size="12" text-anchor="start" dominant-baseline="hanging"><tspan x="7" dy="0em">0,1</tspan></text>
<text x="45" y="42" font-size="12" text-anchor="end" dominant-baseline="auto"><tspan x="45" dy="0em">0,0</tspan></text>
</g>
<g id="d2">
<rect x="0" y="0" width="52" height="52" rx="5" fill="none" stroke="black" stroke-width="2" />
<rect x="1.0" y="1.0" width="50.0" height="50.0" rx="4.0" fill="#aaaaaa" />
<rect x="6" y="4" width="40" height="40" rx="5" fill="#d0d0d0" />
<text x="7" y="7" font-size="12" text-anchor="start" dominant-baseline="hanging"><tspan x="7" dy="0em">0,2</tspan></text>
<text x="45" y="42" font-size="12" text-anchor="end" dominant-baseline="auto"><tspan x="45" dy="0em">0,0</tspan></text>
</g>
<g id="d3">
<rect x="0" y="0" width="52" height="52" rx="5" fill="none" stroke="black" stroke-width="2" />
<rect x="1.0" y="1.0" width="50.0" height="50.0" rx="4.0" fill="#aaaaaa" />
<rect x="6" y="4" width="40" height="40" rx="5" fill="#d0d0d0" />
<text x="7" y="7" font-size="12" text-anchor="start" dominant-baseline="hanging"><tspan x="7" dy="0em">0,3</tspan></text>
<text x="45" y="42" font-size="12" text-anchor="end" dominant-baseline="auto"><tspan x="45" dy="0em">0,0</tspan></text>
</g>
<g id="d4">
<text x="19.0" y="42" font-size="12" text-anchor="end" dominant-baseline="auto"><tspan x="19.0" dy="0em">0,0</tspan></text>
</g>
<g id="d5">
<rect x="0" y="0" width="91.0" height="91.0" rx="5" fill="none" stroke="black" stroke-width="2" />
<rect x="1.0" y="1.0" width="89.0" height="89.0" rx="4.0" fill="#cccccc" />
<rect x="6" y="4" width="79.0" height="79.0" rx="5" fill="#fbfbfb" />
<text x="7" y="7" font-size="12" text-anchor="start" dominant-baseline="hanging"><tspan x="7" dy="0em">0,0</tspan></text>
<text x="45.5" y="45.5" font-size="12" text-anchor="middle" dominant-baseline="middle"><tspan x="45.5" dy="0em">e0</tspan></text>
<text x="84.0" y="81.0" font-size="12" text-anchor="end" dominant-baseline="auto"><tspan x="84.0" dy="0em">0,1</tspan></text>
</g>
<g id="d6">
<text x="19.0" y="42" font-size="12" text-anchor="end" dominant-baseline="auto"><tspan x="19.0" dy="0em">0,1</tspan></text>
</g>
<g id="d7">
<rect x="0" y="0" width="52" height="52" rx="5" fill="none" stroke="black" stroke-width="2" />
<rect x="1.0" y="1.0" width="50.0" height="50.0" rx="4.0" fill="#aaaaaa" />
<rect x="6" y="4" width="40" height="40" rx="5" fill="#d0d0d0" />
<text x="7" y="7" font-size="12" text-anchor="start" dominant-baseline="hanging"><tspan x="7" dy="0em">0,3</tspan></text>
<text x="45" y="42" font-size="12" text-anchor="end" dominant-baseline="auto"><tspan x="45" dy="0em">0,1</tspan></text>
</g>
<g id="d8">
<rect x="0" y="0" width="52" height="52" rx="5" fill="none" stroke="black" stroke-width="2" />
<rect x="1.0" y="1.0" width="50.0" height="50.0" rx="4.0" fill="#aaaaaa" />
<rect x="6" y="4" width="40" height="40" rx="5" fill="#d0d0d0" />
<text x="7" y="7" font-size="12" text-anchor="start" dominant-baseline="hanging"><tspan x="7" dy="0em">0,2</tspan></text>
<text x="45" y="42" font-size="12" text-anchor="end" dominant-baseline="auto"><tspan x="45" dy="0em">0,1</tspan></text>
</g>
<g id="d9">
<rect x="0" y="0" width="52" height="52" rx="5" fill="none" stroke="black" stroke-width="2" />
<rect x="1.0" y="1.0" width="50.0" height="50.0" rx="4.0" fill="#aaaaaa" />
<rect x="6" y="4" width="40" height="40" rx="5" fill="#d0d0d0" />
<text x="7" y="7" font-size="12" text-anchor="start" dominant-baseline="hanging"><tspan x="7" dy="0em">0,1</tspan></text>
<text x="45" y="42" font-size="12" text-anchor="end" dominant-baseline="auto"><tspan x="45" dy="0em">0,1</tspan></text>
</g>
<g id="d10">
<rect x="0" y="0" width="91.0" height="91.0" rx="5" fill="none" stroke="black" stroke-width="2" />
<rect x="1.0" y="1.0" width="89.0" height="89.0" rx="4.0" fill="#cccccc" />
<rect x="6" y="4" width="79.0" height="79.0" rx="5" fill="#fbfbfb" />
<text x="7" y="7" font-size="12" text-anchor="start" dominant-baseline="hanging"><tspan x="7" dy="0em">0,0</tspan></text>
<text x="45.5" y="45.5" font-size="12" text-anchor="middle" dominant-baseline="middle"><tspan x="45.5" dy="0em">e0</tspan></text>
<text x="84.0" y="81.0" font-size="12" text-anchor="end" dominant-baseline="auto"><tspan x="84.0" dy="0em">0,2</tspan></text>
</g>
</defs>
<use xlink:href="#d0" x="4" y="4" />
<use xlink:href="#d1" x="108" y="23.5" />
<use xlink:href="#d2" x="160" y="23.5" />
<use xlink:href="#d3" x="212" y="23.5" />
<use xlink:href="#d4" x="264" y="23.5" />
<use xlink:href="#d5" x="199.0" y="160.0" />
<use xlink:href="#d6" x="4" y="179.5" />
<use xlink:href="#d7" x="30.0" y="179.5" />
<use xlink:href="#d8" x="82.0" y="179.5" />
<use xlink:href="#d9" x="134.0" y="179.5" />
<use xlink:href="#d10" x="4" y="316.0" />
</svg>