<?xml version="1.0" encoding="UTF-8"?>
<!DOCTYPE svg  PUBLIC '-//W3C//DTD SVG 1.1//EN'  'http://www.w3.org/Graphics/SVG/1.1/DTD/svg11.dtd'>
<svg width="90.576mm" height="26.289mm" version="1.1" viewBox="0 0 90.576 26.289" xmlns="http://www.w3.org/2000/svg">
 <title>SVG Image created as geistmaschine-macropod-render.svg date 2025/09/05 18:31:56</title>
 <desc>Image generated by PCBNEW</desc>
 <rect width="90.576mm" height="26.289mm" fill="#282A36"/>
 <g fill="none" stroke="#8BE9FD" stroke-linecap="round" stroke-linejoin="round" stroke-width=".15">
  <text x="50.0562" y="2.0750" font-size="1.3333" opacity="0" stroke-opacity="0" text-anchor="middle" lengthAdjust="spacingAndGlyphs" textLength="5.0119">SW2_1</text>
  <g class="stroked-text">
   <desc>SW2_1</desc>
   <path d="m47.866 1.9822 0.1428 0.0476"/>
   <path d="m48.009 2.0298h0.2381"/>
   <path d="m48.247 2.0298 0.0953-0.0476"/>
   <path d="m48.342 1.9822 0.0476-0.0476"/>
   <path d="m48.39 1.9346 0.0476-0.0953"/>
   <path d="m48.437 1.8393v-0.0952"/>
   <path d="m48.437 1.7441-0.0476-0.0952"/>
   <path d="m48.39 1.6489-0.0476-0.0477"/>
   <path d="m48.342 1.6012-0.0953-0.0476"/>
   <path d="m48.247 1.5536-0.1905-0.0476"/>
   <path d="m48.056 1.506-0.0952-0.0476"/>
   <path d="m47.961 1.4584-0.0476-0.0476"/>
   <path d="m47.913 1.4108-0.0476-0.0953"/>
   <path d="m47.866 1.3155v-0.0952"/>
   <path d="m47.866 1.2203 0.0476-0.0952"/>
   <path d="m47.913 1.1251 0.0476-0.0477"/>
   <path d="m47.961 1.0774 0.0952-0.0476"/>
   <path d="m48.056 1.0298h0.2381"/>
   <path d="m48.294 1.0298 0.1429 0.0476"/>
   <path d="m48.77 1.0298 0.2381 1"/>
   <path d="m49.009 2.0298 0.1905-0.7143"/>
   <path d="m49.199 1.3155 0.1905 0.7143"/>
   <path d="m49.39 2.0298 0.2381-1"/>
   <path d="m49.961 1.1251 0.0476-0.0477"/>
   <path d="m50.009 1.0774 0.0953-0.0476"/>
   <path d="m50.104 1.0298h0.2381"/>
   <path d="m50.342 1.0298 0.0952 0.0476"/>
   <path d="m50.437 1.0774 0.0476 0.0477"/>
   <path d="m50.485 1.1251 0.0476 0.0952"/>
   <path d="m50.532 1.2203v0.0952"/>
   <path d="m50.532 1.3155-0.0476 0.1429"/>
   <path d="m50.485 1.4584-0.5714 0.5714"/>
   <path d="m49.913 2.0298h0.619"/>
   <path d="m50.723 2.1251h0.7619"/>
   <path d="m52.247 2.0298h-0.5714"/>
   <path d="m51.961 2.0298v-1"/>
   <path d="m51.961 1.0298-0.0952 0.1429"/>
   <path d="m51.866 1.1727-0.0953 0.0952"/>
   <path d="m51.77 1.2679-0.0952 0.0476"/>
  </g>
  <text x="78.6312" y="9.2188" font-size="1.3333" opacity="0" stroke-opacity="0" text-anchor="middle" lengthAdjust="spacingAndGlyphs" textLength="3.2976">SW4</text>
  <g class="stroked-text">
   <desc>SW4</desc>
   <path d="m77.298 9.1259 0.1429 0.0477"/>
   <path d="m77.441 9.1736h0.2381"/>
   <path d="m77.679 9.1736 0.0952-0.0477"/>
   <path d="m77.774 9.1259 0.0476-0.0476"/>
   <path d="m77.822 9.0783 0.0476-0.0952"/>
   <path d="m77.869 8.9831v-0.0952"/>
   <path d="m77.869 8.8879-0.0476-0.0953"/>
   <path d="m77.822 8.7926-0.0476-0.0476"/>
   <path d="m77.774 8.745-0.0952-0.0476"/>
   <path d="m77.679 8.6974-0.1905-0.0476"/>
   <path d="m77.488 8.6498-0.0952-0.0477"/>
   <path d="m77.393 8.6021-0.0477-0.0476"/>
   <path d="m77.346 8.5545-0.0476-0.0952"/>
   <path d="m77.298 8.4593v-0.0953"/>
   <path d="m77.298 8.364 0.0476-0.0952"/>
   <path d="m77.346 8.2688 0.0477-0.0476"/>
   <path d="m77.393 8.2212 0.0952-0.0476"/>
   <path d="m77.488 8.1736h0.2381"/>
   <path d="m77.726 8.1736 0.1428 0.0476"/>
   <path d="m78.203 8.1736 0.2381 1"/>
   <path d="m78.441 9.1736 0.1904-0.7143"/>
   <path d="m78.631 8.4593 0.1905 0.7143"/>
   <path d="m78.822 9.1736 0.2381-1"/>
   <path d="m79.869 8.5069v0.6667"/>
   <path d="m79.631 8.1259-0.238 0.7143"/>
   <path d="m79.393 8.8402h0.619"/>
  </g>
  <text x="81.0125" y="2.0750" font-size="1.3333" opacity="0" stroke-opacity="0" text-anchor="middle" lengthAdjust="spacingAndGlyphs" textLength="5.0119">SW1_1</text>
  <g class="stroked-text">
   <desc>SW1_1</desc>
   <path d="m78.822 1.9822 0.1429 0.0476"/>
   <path d="m78.965 2.0298h0.2381"/>
   <path d="m79.203 2.0298 0.0952-0.0476"/>
   <path d="m79.298 1.9822 0.0476-0.0476"/>
   <path d="m79.346 1.9346 0.0477-0.0953"/>
   <path d="m79.394 1.8393v-0.0952"/>
   <path d="m79.394 1.7441-0.0477-0.0952"/>
   <path d="m79.346 1.6489-0.0476-0.0477"/>
   <path d="m79.298 1.6012-0.0952-0.0476"/>
   <path d="m79.203 1.5536-0.1905-0.0476"/>
   <path d="m79.012 1.506-0.0952-0.0476"/>
   <path d="m78.917 1.4584-0.0477-0.0476"/>
   <path d="m78.87 1.4108-0.0476-0.0953"/>
   <path d="m78.822 1.3155v-0.0952"/>
   <path d="m78.822 1.2203 0.0476-0.0952"/>
   <path d="m78.87 1.1251 0.0477-0.0477"/>
   <path d="m78.917 1.0774 0.0952-0.0476"/>
   <path d="m79.012 1.0298h0.2381"/>
   <path d="m79.251 1.0298 0.1429 0.0476"/>
   <path d="m79.727 1.0298 0.2381 1"/>
   <path d="m79.965 2.0298 0.1905-0.7143"/>
   <path d="m80.155 1.3155 0.1904 0.7143"/>
   <path d="m80.346 2.0298 0.2381-1"/>
   <path d="m81.489 2.0298h-0.5714"/>
   <path d="m81.203 2.0298v-1"/>
   <path d="m81.203 1.0298-0.0953 0.1429"/>
   <path d="m81.108 1.1727-0.0952 0.0952"/>
   <path d="m81.012 1.2679-0.0952 0.0476"/>
   <path d="m81.679 2.1251h0.7619"/>
   <path d="m83.203 2.0298h-0.5715"/>
   <path d="m82.917 2.0298v-1"/>
   <path d="m82.917 1.0298-0.0953 0.1429"/>
   <path d="m82.822 1.1727-0.0952 0.0952"/>
   <path d="m82.727 1.2679-0.0953 0.0476"/>
  </g>
  <text x="31.0062" y="2.0750" font-size="1.3333" opacity="0" stroke-opacity="0" text-anchor="middle" lengthAdjust="spacingAndGlyphs" textLength="5.0119">SW3_1</text>
  <g class="stroked-text">
   <desc>SW3_1</desc>
   <path d="m28.816 1.9822 0.1428 0.0476"/>
   <path d="m28.959 2.0298h0.2381"/>
   <path d="m29.197 2.0298 0.0953-0.0476"/>
   <path d="m29.292 1.9822 0.0476-0.0476"/>
   <path d="m29.34 1.9346 0.0476-0.0953"/>
   <path d="m29.387 1.8393v-0.0952"/>
   <path d="m29.387 1.7441-0.0476-0.0952"/>
   <path d="m29.34 1.6489-0.0476-0.0477"/>
   <path d="m29.292 1.6012-0.0953-0.0476"/>
   <path d="m29.197 1.5536-0.1905-0.0476"/>
   <path d="m29.006 1.506-0.0952-0.0476"/>
   <path d="m28.911 1.4584-0.0476-0.0476"/>
   <path d="m28.863 1.4108-0.0476-0.0953"/>
   <path d="m28.816 1.3155v-0.0952"/>
   <path d="m28.816 1.2203 0.0476-0.0952"/>
   <path d="m28.863 1.1251 0.0476-0.0477"/>
   <path d="m28.911 1.0774 0.0952-0.0476"/>
   <path d="m29.006 1.0298h0.2381"/>
   <path d="m29.244 1.0298 0.1429 0.0476"/>
   <path d="m29.72 1.0298 0.2381 1"/>
   <path d="m29.959 2.0298 0.1905-0.7143"/>
   <path d="m30.149 1.3155 0.1905 0.7143"/>
   <path d="m30.34 2.0298 0.2381-1"/>
   <path d="m30.863 1.0298h0.619"/>
   <path d="m31.482 1.0298-0.3333 0.381"/>
   <path d="m31.149 1.4108h0.1429"/>
   <path d="m31.292 1.4108 0.0952 0.0476"/>
   <path d="m31.387 1.4584 0.0476 0.0476"/>
   <path d="m31.435 1.506 0.0476 0.0952"/>
   <path d="m31.482 1.6012v0.2381"/>
   <path d="m31.482 1.8393-0.0476 0.0953"/>
   <path d="m31.435 1.9346-0.0476 0.0476"/>
   <path d="m31.387 1.9822-0.0952 0.0476"/>
   <path d="m31.292 2.0298h-0.2858"/>
   <path d="m31.006 2.0298-0.0952-0.0476"/>
   <path d="m30.911 1.9822-0.0476-0.0476"/>
   <path d="m31.673 2.1251h0.7619"/>
   <path d="m33.197 2.0298h-0.5714"/>
   <path d="m32.911 2.0298v-1"/>
   <path d="m32.911 1.0298-0.0952 0.1429"/>
   <path d="m32.816 1.1727-0.0953 0.0952"/>
   <path d="m32.72 1.2679-0.0952 0.0476"/>
  </g>
  <text x="40.5312" y="9.2188" font-size="1.3333" opacity="0" stroke-opacity="0" text-anchor="middle" lengthAdjust="spacingAndGlyphs" textLength="3.2976">SW2</text>
  <g class="stroked-text">
   <desc>SW2</desc>
   <path d="m39.198 9.1259 0.1429 0.0477"/>
   <path d="m39.341 9.1736h0.2381"/>
   <path d="m39.579 9.1736 0.0952-0.0477"/>
   <path d="m39.674 9.1259 0.0476-0.0476"/>
   <path d="m39.722 9.0783 0.0476-0.0952"/>
   <path d="m39.769 8.9831v-0.0952"/>
   <path d="m39.769 8.8879-0.0476-0.0953"/>
   <path d="m39.722 8.7926-0.0476-0.0476"/>
   <path d="m39.674 8.745-0.0952-0.0476"/>
   <path d="m39.579 8.6974-0.1905-0.0476"/>
   <path d="m39.388 8.6498-0.0952-0.0477"/>
   <path d="m39.293 8.6021-0.0477-0.0476"/>
   <path d="m39.246 8.5545-0.0476-0.0952"/>
   <path d="m39.198 8.4593v-0.0953"/>
   <path d="m39.198 8.364 0.0476-0.0952"/>
   <path d="m39.246 8.2688 0.0477-0.0476"/>
   <path d="m39.293 8.2212 0.0952-0.0476"/>
   <path d="m39.388 8.1736h0.2381"/>
   <path d="m39.626 8.1736 0.1428 0.0476"/>
   <path d="m40.103 8.1736 0.2381 1"/>
   <path d="m40.341 9.1736 0.1904-0.7143"/>
   <path d="m40.531 8.4593 0.1905 0.7143"/>
   <path d="m40.722 9.1736 0.2381-1"/>
   <path d="m41.293 8.2688 0.0476-0.0476"/>
   <path d="m41.341 8.2212 0.0952-0.0476"/>
   <path d="m41.436 8.1736h0.2381"/>
   <path d="m41.674 8.1736 0.0952 0.0476"/>
   <path d="m41.769 8.2212 0.0477 0.0476"/>
   <path d="m41.817 8.2688 0.0476 0.0952"/>
   <path d="m41.865 8.364v0.0953"/>
   <path d="m41.865 8.4593-0.0476 0.1428"/>
   <path d="m41.817 8.6021-0.5715 0.5715"/>
   <path d="m41.246 9.1736h0.6191"/>
  </g>
  <text x="59.5812" y="9.2188" font-size="1.3333" opacity="0" stroke-opacity="0" text-anchor="middle" lengthAdjust="spacingAndGlyphs" textLength="3.2976">SW3</text>
  <g class="stroked-text">
   <desc>SW3</desc>
   <path d="m58.248 9.1259 0.1429 0.0477"/>
   <path d="m58.391 9.1736h0.2381"/>
   <path d="m58.629 9.1736 0.0952-0.0477"/>
   <path d="m58.724 9.1259 0.0476-0.0476"/>
   <path d="m58.772 9.0783 0.0476-0.0952"/>
   <path d="m58.819 8.9831v-0.0952"/>
   <path d="m58.819 8.8879-0.0476-0.0953"/>
   <path d="m58.772 8.7926-0.0476-0.0476"/>
   <path d="m58.724 8.745-0.0952-0.0476"/>
   <path d="m58.629 8.6974-0.1905-0.0476"/>
   <path d="m58.438 8.6498-0.0952-0.0477"/>
   <path d="m58.343 8.6021-0.0477-0.0476"/>
   <path d="m58.296 8.5545-0.0476-0.0952"/>
   <path d="m58.248 8.4593v-0.0953"/>
   <path d="m58.248 8.364 0.0476-0.0952"/>
   <path d="m58.296 8.2688 0.0477-0.0476"/>
   <path d="m58.343 8.2212 0.0952-0.0476"/>
   <path d="m58.438 8.1736h0.2381"/>
   <path d="m58.676 8.1736 0.1428 0.0476"/>
   <path d="m59.153 8.1736 0.2381 1"/>
   <path d="m59.391 9.1736 0.1904-0.7143"/>
   <path d="m59.581 8.4593 0.1905 0.7143"/>
   <path d="m59.772 9.1736 0.2381-1"/>
   <path d="m60.296 8.1736h0.6191"/>
   <path d="m60.915 8.1736-0.3334 0.3809"/>
   <path d="m60.581 8.5545h0.1429"/>
   <path d="m60.724 8.5545 0.0952 0.0476"/>
   <path d="m60.819 8.6021 0.0477 0.0477"/>
   <path d="m60.867 8.6498 0.0476 0.0952"/>
   <path d="m60.915 8.745v0.2381"/>
   <path d="m60.915 8.9831-0.0476 0.0952"/>
   <path d="m60.867 9.0783-0.0477 0.0476"/>
   <path d="m60.819 9.1259-0.0952 0.0477"/>
   <path d="m60.724 9.1736h-0.2857"/>
   <path d="m60.438 9.1736-0.0952-0.0477"/>
   <path d="m60.343 9.1259-0.0477-0.0476"/>
  </g>
  <text x="11.9562" y="2.0750" font-size="1.3333" opacity="0" stroke-opacity="0" text-anchor="middle" lengthAdjust="spacingAndGlyphs" textLength="5.0119">SW4_1</text>
  <g class="stroked-text">
   <desc>SW4_1</desc>
   <path d="m9.7658 1.9822 0.1428 0.0476"/>
   <path d="m9.9086 2.0298h0.2381"/>
   <path d="m10.147 2.0298 0.0953-0.0476"/>
   <path d="m10.242 1.9822 0.0476-0.0476"/>
   <path d="m10.29 1.9346 0.0476-0.0953"/>
   <path d="m10.337 1.8393v-0.0952"/>
   <path d="m10.337 1.7441-0.0476-0.0952"/>
   <path d="m10.29 1.6489-0.0476-0.0477"/>
   <path d="m10.242 1.6012-0.0953-0.0476"/>
   <path d="m10.147 1.5536-0.1905-0.0476"/>
   <path d="m9.9562 1.506-0.0952-0.0476"/>
   <path d="m9.861 1.4584-0.0476-0.0476"/>
   <path d="m9.8134 1.4108-0.0476-0.0953"/>
   <path d="m9.7658 1.3155v-0.0952"/>
   <path d="m9.7658 1.2203 0.0476-0.0952"/>
   <path d="m9.8134 1.1251 0.0476-0.0477"/>
   <path d="m9.861 1.0774 0.0952-0.0476"/>
   <path d="m9.9562 1.0298h0.2381"/>
   <path d="m10.194 1.0298 0.1429 0.0476"/>
   <path d="m10.67 1.0298 0.2381 1"/>
   <path d="m10.909 2.0298 0.1905-0.7143"/>
   <path d="m11.099 1.3155 0.1905 0.7143"/>
   <path d="m11.29 2.0298 0.2381-1"/>
   <path d="m12.337 1.3632v0.6666"/>
   <path d="m12.099 0.9822-0.2381 0.7143"/>
   <path d="m11.861 1.6965h0.6191"/>
   <path d="m12.623 2.1251h0.7619"/>
   <path d="m14.147 2.0298h-0.5714"/>
   <path d="m13.861 2.0298v-1"/>
   <path d="m13.861 1.0298-0.0952 0.1429"/>
   <path d="m13.766 1.1727-0.0953 0.0952"/>
   <path d="m13.67 1.2679-0.0952 0.0476"/>
  </g>
  <text x="9.5750" y="9.2188" font-size="1.3333" opacity="0" stroke-opacity="0" text-anchor="middle" lengthAdjust="spacingAndGlyphs" textLength="3.2976">SW1</text>
  <g class="stroked-text">
   <desc>SW1</desc>
   <path d="m8.2417 9.1259 0.1428 0.0477"/>
   <path d="m8.3845 9.1736h0.2381"/>
   <path d="m8.6226 9.1736 0.0953-0.0477"/>
   <path d="m8.7179 9.1259 0.0476-0.0476"/>
   <path d="m8.7655 9.0783 0.0476-0.0952"/>
   <path d="m8.8131 8.9831v-0.0952"/>
   <path d="m8.8131 8.8879-0.0476-0.0953"/>
   <path d="m8.7655 8.7926-0.0476-0.0476"/>
   <path d="m8.7179 8.745-0.0953-0.0476"/>
   <path d="m8.6226 8.6974-0.1905-0.0476"/>
   <path d="m8.4321 8.6498-0.0952-0.0477"/>
   <path d="m8.3369 8.6021-0.0476-0.0476"/>
   <path d="m8.2893 8.5545-0.0476-0.0952"/>
   <path d="m8.2417 8.4593v-0.0953"/>
   <path d="m8.2417 8.364 0.0476-0.0952"/>
   <path d="m8.2893 8.2688 0.0476-0.0476"/>
   <path d="m8.3369 8.2212 0.0952-0.0476"/>
   <path d="m8.4321 8.1736h0.2381"/>
   <path d="m8.6702 8.1736 0.1429 0.0476"/>
   <path d="m9.1464 8.1736 0.2381 1"/>
   <path d="m9.3845 9.1736 0.1905-0.7143"/>
   <path d="m9.575 8.4593 0.1905 0.7143"/>
   <path d="m9.7655 9.1736 0.2381-1"/>
   <path d="m10.908 9.1736h-0.5714"/>
   <path d="m10.623 9.1736v-1"/>
   <path d="m10.623 8.1736-0.0952 0.1428"/>
   <path d="m10.527 8.3164-0.0953 0.0953"/>
   <path d="m10.432 8.4117-0.0952 0.0476"/>
  </g>
 </g>
 <g fill="none" stroke="#8BE9FD" stroke-linecap="round" stroke-linejoin="round" stroke-width=".12">
  <path d="m42.956 2.475v14.2"/>
  <path d="m42.956 16.675h14.2"/>
  <path d="m57.156 2.475h-14.2"/>
  <path d="m57.156 16.675v-14.2"/>
  <path d="m71.531 9.6188v14.2"/>
  <path d="m71.531 23.819h14.2"/>
  <path d="m85.731 9.6188h-14.2"/>
  <path d="m85.731 23.819v-14.2"/>
  <path d="m73.912 2.475v14.2"/>
  <path d="m73.912 16.675h14.2"/>
  <path d="m88.112 2.475h-14.2"/>
  <path d="m88.112 16.675v-14.2"/>
  <path d="m23.906 2.475v14.2"/>
  <path d="m23.906 16.675h14.2"/>
  <path d="m38.106 2.475h-14.2"/>
  <path d="m38.106 16.675v-14.2"/>
  <path d="m33.431 9.6188v14.2"/>
  <path d="m33.431 23.819h14.2"/>
  <path d="m47.631 9.6188h-14.2"/>
  <path d="m47.631 23.819v-14.2"/>
  <path d="m52.481 9.6188v14.2"/>
  <path d="m52.481 23.819h14.2"/>
  <path d="m66.681 9.6188h-14.2"/>
  <path d="m66.681 23.819v-14.2"/>
  <path d="m4.8563 2.475v14.2"/>
  <path d="m4.8563 16.675h14.2"/>
  <path d="m19.056 2.475h-14.2"/>
  <path d="m19.056 16.675v-14.2"/>
  <path d="m2.475 9.6188v14.2"/>
  <path d="m2.475 23.819h14.2"/>
  <path d="m16.675 9.6188h-14.2"/>
  <path d="m16.675 23.819v-14.2"/>
 </g>
 <g fill="#8BE9FD">
  <circle cx="44.976" cy="9.575" r=".875"/>
  <circle cx="50.056" cy="9.575" r="2"/>
  <circle cx="55.136" cy="9.575" r=".875"/>
  <circle cx="46.246" cy="7.035" r=".75"/>
  <circle cx="52.596" cy="4.495" r=".75"/>
  <circle cx="73.551" cy="16.719" r=".875"/>
  <circle cx="78.631" cy="16.719" r="2"/>
  <circle cx="83.711" cy="16.719" r=".875"/>
  <circle cx="74.821" cy="14.179" r=".75"/>
  <circle cx="81.171" cy="11.639" r=".75"/>
  <circle cx="75.932" cy="9.575" r=".875"/>
  <circle cx="81.012" cy="9.575" r="2"/>
  <circle cx="86.092" cy="9.575" r=".875"/>
  <circle cx="77.202" cy="7.035" r=".75"/>
  <circle cx="83.552" cy="4.495" r=".75"/>
  <circle cx="25.926" cy="9.575" r=".875"/>
  <circle cx="31.006" cy="9.575" r="2"/>
  <circle cx="36.086" cy="9.575" r=".875"/>
  <circle cx="27.196" cy="7.035" r=".75"/>
  <circle cx="33.546" cy="4.495" r=".75"/>
  <circle cx="35.451" cy="16.719" r=".875"/>
  <circle cx="40.531" cy="16.719" r="2"/>
  <circle cx="45.611" cy="16.719" r=".875"/>
  <circle cx="36.721" cy="14.179" r=".75"/>
  <circle cx="43.071" cy="11.639" r=".75"/>
  <circle cx="54.501" cy="16.719" r=".875"/>
  <circle cx="59.581" cy="16.719" r="2"/>
  <circle cx="64.661" cy="16.719" r=".875"/>
  <circle cx="55.771" cy="14.179" r=".75"/>
  <circle cx="62.121" cy="11.639" r=".75"/>
  <circle cx="6.8762" cy="9.575" r=".875"/>
  <circle cx="11.956" cy="9.575" r="2"/>
  <circle cx="17.036" cy="9.575" r=".875"/>
  <circle cx="8.1463" cy="7.035" r=".75"/>
  <circle cx="14.496" cy="4.495" r=".75"/>
  <circle cx="4.495" cy="16.719" r=".875"/>
  <circle cx="9.575" cy="16.719" r="2"/>
  <circle cx="14.655" cy="16.719" r=".875"/>
  <circle cx="5.765" cy="14.179" r=".75"/>
  <circle cx="12.115" cy="11.639" r=".75"/>
 </g>
 <g fill="none" stroke="#BD93F9" stroke-linecap="round" stroke-linejoin="round" stroke-width=".15">
  <g transform="rotate(-90 66.566 20.846)">
   <text transform="scale(-1 1) translate(-133.13)" x="66.5662" y="21.3457" font-size="1.3333" opacity="0" stroke-opacity="0" text-anchor="middle" lengthAdjust="spacingAndGlyphs" textLength="2.2024">D3</text>
  </g>
  <g class="stroked-text">
   <desc>D3</desc>
   <path d="m67.021 20.108h-1"/>
   <path d="m66.021 20.108v0.238"/>
   <path d="m66.021 20.346 0.0476 0.1429"/>
   <path d="m66.069 20.489 0.0952 0.0952"/>
   <path d="m66.164 20.584 0.0953 0.0477"/>
   <path d="m66.259 20.632 0.1904 0.0476"/>
   <path d="m66.45 20.679h0.1429"/>
   <path d="m66.592 20.679 0.1905-0.0476"/>
   <path d="m66.783 20.632 0.0952-0.0477"/>
   <path d="m66.878 20.584 0.0952-0.0952"/>
   <path d="m66.973 20.489 0.0477-0.1429"/>
   <path d="m67.021 20.346v-0.238"/>
   <path d="m66.021 21.012v0.6191"/>
   <path d="m66.021 21.632 0.3809-0.3334"/>
   <path d="m66.402 21.298v0.1429"/>
   <path d="m66.402 21.441 0.0476 0.0952"/>
   <path d="m66.45 21.536 0.0477 0.0476"/>
   <path d="m66.497 21.584 0.0952 0.0477"/>
   <path d="m66.592 21.632h0.2381"/>
   <path d="m66.831 21.632 0.0952-0.0477"/>
   <path d="m66.926 21.584 0.0476-0.0476"/>
   <path d="m66.973 21.536 0.0477-0.0952"/>
   <path d="m67.021 21.441v-0.2857"/>
   <path d="m67.021 21.155-0.0477-0.0953"/>
   <path d="m66.973 21.06-0.0476-0.0476"/>
  </g>
  <g transform="rotate(-90 85.616 20.846)">
   <text transform="scale(-1 1) translate(-171.23)" x="85.6162" y="21.3457" font-size="1.3333" opacity="0" stroke-opacity="0" text-anchor="middle" lengthAdjust="spacingAndGlyphs" textLength="2.2024">D4</text>
  </g>
  <g class="stroked-text">
   <desc>D4</desc>
   <path d="m86.071 20.108h-1"/>
   <path d="m85.071 20.108v0.238"/>
   <path d="m85.071 20.346 0.0476 0.1429"/>
   <path d="m85.119 20.489 0.0952 0.0952"/>
   <path d="m85.214 20.584 0.0953 0.0477"/>
   <path d="m85.309 20.632 0.1904 0.0476"/>
   <path d="m85.5 20.679h0.1429"/>
   <path d="m85.642 20.679 0.1905-0.0476"/>
   <path d="m85.833 20.632 0.0952-0.0477"/>
   <path d="m85.928 20.584 0.0952-0.0952"/>
   <path d="m86.023 20.489 0.0477-0.1429"/>
   <path d="m86.071 20.346v-0.238"/>
   <path d="m85.404 21.536h0.6667"/>
   <path d="m85.023 21.298 0.7143-0.2381"/>
   <path d="m85.738 21.06v0.6191"/>
  </g>
  <g transform="rotate(-90 16.56 20.846)">
   <text transform="scale(-1 1) translate(-33.12)" x="16.5600" y="21.3457" font-size="1.3333" opacity="0" stroke-opacity="0" text-anchor="middle" lengthAdjust="spacingAndGlyphs" textLength="2.2024">D1</text>
  </g>
  <g class="stroked-text">
   <desc>D1</desc>
   <path d="m17.015 20.108h-1"/>
   <path d="m16.015 20.108v0.238"/>
   <path d="m16.015 20.346 0.0476 0.1429"/>
   <path d="m16.062 20.489 0.0953 0.0952"/>
   <path d="m16.158 20.584 0.0952 0.0477"/>
   <path d="m16.253 20.632 0.1905 0.0476"/>
   <path d="m16.443 20.679h0.1428"/>
   <path d="m16.586 20.679 0.1905-0.0476"/>
   <path d="m16.777 20.632 0.0953-0.0477"/>
   <path d="m16.872 20.584 0.0952-0.0952"/>
   <path d="m16.967 20.489 0.0476-0.1429"/>
   <path d="m17.015 20.346v-0.238"/>
   <path d="m17.015 21.632v-0.5715"/>
   <path d="m17.015 21.346h-1"/>
   <path d="m16.015 21.346 0.1429-0.0952"/>
   <path d="m16.158 21.25 0.0952-0.0952"/>
   <path d="m16.253 21.155 0.0476-0.0953"/>
  </g>
  <g transform="rotate(-90 47.516 20.846)">
   <text transform="scale(-1 1) translate(-95.032)" x="47.5162" y="21.3457" font-size="1.3333" opacity="0" stroke-opacity="0" text-anchor="middle" lengthAdjust="spacingAndGlyphs" textLength="2.2024">D2</text>
  </g>
  <g class="stroked-text">
   <desc>D2</desc>
   <path d="m47.971 20.108h-1"/>
   <path d="m46.971 20.108v0.238"/>
   <path d="m46.971 20.346 0.0476 0.1429"/>
   <path d="m47.019 20.489 0.0952 0.0952"/>
   <path d="m47.114 20.584 0.0953 0.0477"/>
   <path d="m47.209 20.632 0.1904 0.0476"/>
   <path d="m47.4 20.679h0.1429"/>
   <path d="m47.542 20.679 0.1905-0.0476"/>
   <path d="m47.733 20.632 0.0952-0.0477"/>
   <path d="m47.828 20.584 0.0952-0.0952"/>
   <path d="m47.923 20.489 0.0477-0.1429"/>
   <path d="m47.971 20.346v-0.238"/>
   <path d="m47.066 21.06-0.0476 0.0477"/>
   <path d="m47.019 21.108-0.0476 0.0952"/>
   <path d="m46.971 21.203v0.2381"/>
   <path d="m46.971 21.441 0.0476 0.0952"/>
   <path d="m47.019 21.536 0.0476 0.0476"/>
   <path d="m47.066 21.584 0.0952 0.0477"/>
   <path d="m47.162 21.632h0.0953"/>
   <path d="m47.257 21.632 0.1428-0.0477"/>
   <path d="m47.4 21.584 0.5715-0.5714"/>
   <path d="m47.971 21.012v0.6191"/>
  </g>
 </g>
 <g fill="none" stroke="#BD93F9" stroke-linecap="round" stroke-linejoin="round" stroke-width=".12">
  <path d="m63.661 19.069v3.86"/>
  <path d="m63.661 22.929h2"/>
  <path d="m65.661 19.069v3.86"/>
  <path d="m82.711 19.069v3.86"/>
  <path d="m82.711 22.929h2"/>
  <path d="m84.711 19.069v3.86"/>
  <path d="m13.655 19.069v3.86"/>
  <path d="m13.655 22.929h2"/>
  <path d="m15.655 19.069v3.86"/>
  <path d="m44.611 19.069v3.86"/>
  <path d="m44.611 22.929h2"/>
  <path d="m46.611 19.069v3.86"/>
 </g>
 <g>
  <g fill="#BD93F9">
   <circle cx="44.976" cy="9.575" r=".875"/>
   <circle cx="50.056" cy="9.575" r="2"/>
   <circle cx="55.136" cy="9.575" r=".875"/>
   <circle cx="46.246" cy="7.035" r=".75"/>
   <circle cx="52.596" cy="4.495" r=".75"/>
   <circle cx="73.551" cy="16.719" r=".875"/>
   <circle cx="78.631" cy="16.719" r="2"/>
   <circle cx="83.711" cy="16.719" r=".875"/>
   <circle cx="74.821" cy="14.179" r=".75"/>
   <circle cx="81.171" cy="11.639" r=".75"/>
   <circle cx="75.932" cy="9.575" r=".875"/>
   <circle cx="81.012" cy="9.575" r="2"/>
   <circle cx="86.092" cy="9.575" r=".875"/>
   <circle cx="77.202" cy="7.035" r=".75"/>
   <circle cx="83.552" cy="4.495" r=".75"/>
   <circle cx="25.926" cy="9.575" r=".875"/>
   <circle cx="31.006" cy="9.575" r="2"/>
   <circle cx="36.086" cy="9.575" r=".875"/>
   <circle cx="27.196" cy="7.035" r=".75"/>
   <circle cx="33.546" cy="4.495" r=".75"/>
   <circle cx="35.451" cy="16.719" r=".875"/>
   <circle cx="40.531" cy="16.719" r="2"/>
   <circle cx="45.611" cy="16.719" r=".875"/>
   <circle cx="36.721" cy="14.179" r=".75"/>
   <circle cx="43.071" cy="11.639" r=".75"/>
   <circle cx="54.501" cy="16.719" r=".875"/>
   <circle cx="59.581" cy="16.719" r="2"/>
   <circle cx="64.661" cy="16.719" r=".875"/>
   <circle cx="55.771" cy="14.179" r=".75"/>
   <circle cx="62.121" cy="11.639" r=".75"/>
   <circle cx="6.8762" cy="9.575" r=".875"/>
   <circle cx="11.956" cy="9.575" r="2"/>
   <circle cx="17.036" cy="9.575" r=".875"/>
   <circle cx="8.1463" cy="7.035" r=".75"/>
   <circle cx="14.496" cy="4.495" r=".75"/>
   <circle cx="4.495" cy="16.719" r=".875"/>
   <circle cx="9.575" cy="16.719" r="2"/>
   <circle cx="14.655" cy="16.719" r=".875"/>
   <circle cx="5.765" cy="14.179" r=".75"/>
   <circle cx="12.115" cy="11.639" r=".75"/>
  </g>
  <g>
   <circle cx="44.976" cy="9.575" r=".875"/>
   <circle cx="50.056" cy="9.575" r="2"/>
   <circle cx="55.136" cy="9.575" r=".875"/>
   <circle cx="46.246" cy="7.035" r=".75"/>
   <circle cx="52.596" cy="4.495" r=".75"/>
   <circle cx="73.551" cy="16.719" r=".875"/>
   <circle cx="78.631" cy="16.719" r="2"/>
   <circle cx="83.711" cy="16.719" r=".875"/>
   <circle cx="74.821" cy="14.179" r=".75"/>
   <circle cx="81.171" cy="11.639" r=".75"/>
   <circle cx="75.932" cy="9.575" r=".875"/>
   <circle cx="81.012" cy="9.575" r="2"/>
   <circle cx="86.092" cy="9.575" r=".875"/>
   <circle cx="77.202" cy="7.035" r=".75"/>
   <circle cx="83.552" cy="4.495" r=".75"/>
   <circle cx="25.926" cy="9.575" r=".875"/>
   <circle cx="31.006" cy="9.575" r="2"/>
   <circle cx="36.086" cy="9.575" r=".875"/>
   <circle cx="27.196" cy="7.035" r=".75"/>
   <circle cx="33.546" cy="4.495" r=".75"/>
   <circle cx="35.451" cy="16.719" r=".875"/>
   <circle cx="40.531" cy="16.719" r="2"/>
   <circle cx="45.611" cy="16.719" r=".875"/>
   <circle cx="36.721" cy="14.179" r=".75"/>
   <circle cx="43.071" cy="11.639" r=".75"/>
   <circle cx="54.501" cy="16.719" r=".875"/>
   <circle cx="59.581" cy="16.719" r="2"/>
   <circle cx="64.661" cy="16.719" r=".875"/>
   <circle cx="55.771" cy="14.179" r=".75"/>
   <circle cx="62.121" cy="11.639" r=".75"/>
   <circle cx="6.8762" cy="9.575" r=".875"/>
   <circle cx="11.956" cy="9.575" r="2"/>
   <circle cx="17.036" cy="9.575" r=".875"/>
   <circle cx="8.1463" cy="7.035" r=".75"/>
   <circle cx="14.496" cy="4.495" r=".75"/>
   <circle cx="4.495" cy="16.719" r=".875"/>
   <circle cx="9.575" cy="16.719" r="2"/>
   <circle cx="14.655" cy="16.719" r=".875"/>
   <circle cx="5.765" cy="14.179" r=".75"/>
   <circle cx="12.115" cy="11.639" r=".75"/>
  </g>
  <g fill="#f55">
   <circle cx="46.246" cy="7.035" r="1.25"/>
   <circle cx="52.596" cy="4.495" r="1.25"/>
   <circle cx="74.821" cy="14.179" r="1.25"/>
   <circle cx="81.171" cy="11.639" r="1.25"/>
   <circle cx="77.202" cy="7.035" r="1.25"/>
   <circle cx="83.552" cy="4.495" r="1.25"/>
   <circle cx="27.196" cy="7.035" r="1.25"/>
   <circle cx="33.546" cy="4.495" r="1.25"/>
   <circle cx="36.721" cy="14.179" r="1.25"/>
   <circle cx="43.071" cy="11.639" r="1.25"/>
   <circle cx="55.771" cy="14.179" r="1.25"/>
   <circle cx="62.121" cy="11.639" r="1.25"/>
   <circle cx="8.1463" cy="7.035" r="1.25"/>
   <circle cx="14.496" cy="4.495" r="1.25"/>
   <circle cx="5.765" cy="14.179" r="1.25"/>
   <circle cx="12.115" cy="11.639" r="1.25"/>
  </g>
 </g>
 <g fill="none" stroke="#f55" stroke-linecap="round" stroke-linejoin="round" stroke-width=".2">
  <path d="m36.721 14.179 7.1438-7.1437"/>
  <path d="m43.865 7.035h2.3812"/>
 </g>
 <g fill="#fff">
  <circle cx="44.976" cy="9.575" r=".875"/>
  <circle cx="50.056" cy="9.575" r="2"/>
  <circle cx="55.136" cy="9.575" r=".875"/>
  <circle cx="46.246" cy="7.035" r=".75"/>
  <circle cx="52.596" cy="4.495" r=".75"/>
  <circle cx="73.551" cy="16.719" r=".875"/>
  <circle cx="78.631" cy="16.719" r="2"/>
  <circle cx="83.711" cy="16.719" r=".875"/>
  <circle cx="74.821" cy="14.179" r=".75"/>
  <circle cx="81.171" cy="11.639" r=".75"/>
  <circle cx="75.932" cy="9.575" r=".875"/>
  <circle cx="81.012" cy="9.575" r="2"/>
  <circle cx="86.092" cy="9.575" r=".875"/>
  <circle cx="77.202" cy="7.035" r=".75"/>
  <circle cx="83.552" cy="4.495" r=".75"/>
  <circle cx="25.926" cy="9.575" r=".875"/>
  <circle cx="31.006" cy="9.575" r="2"/>
  <circle cx="36.086" cy="9.575" r=".875"/>
  <circle cx="27.196" cy="7.035" r=".75"/>
  <circle cx="33.546" cy="4.495" r=".75"/>
  <circle cx="35.451" cy="16.719" r=".875"/>
  <circle cx="40.531" cy="16.719" r="2"/>
  <circle cx="45.611" cy="16.719" r=".875"/>
  <circle cx="36.721" cy="14.179" r=".75"/>
  <circle cx="43.071" cy="11.639" r=".75"/>
  <circle cx="54.501" cy="16.719" r=".875"/>
  <circle cx="59.581" cy="16.719" r="2"/>
  <circle cx="64.661" cy="16.719" r=".875"/>
  <circle cx="55.771" cy="14.179" r=".75"/>
  <circle cx="62.121" cy="11.639" r=".75"/>
  <circle cx="6.8762" cy="9.575" r=".875"/>
  <circle cx="11.956" cy="9.575" r="2"/>
  <circle cx="17.036" cy="9.575" r=".875"/>
  <circle cx="8.1463" cy="7.035" r=".75"/>
  <circle cx="14.496" cy="4.495" r=".75"/>
  <circle cx="4.495" cy="16.719" r=".875"/>
  <circle cx="9.575" cy="16.719" r="2"/>
  <circle cx="14.655" cy="16.719" r=".875"/>
  <circle cx="5.765" cy="14.179" r=".75"/>
  <circle cx="12.115" cy="11.639" r=".75"/>
 </g>
 <g fill="#50FA7B">
  <circle cx="46.246" cy="7.035" r="1.25"/>
  <circle cx="52.596" cy="4.495" r="1.25"/>
  <circle cx="74.821" cy="14.179" r="1.25"/>
  <circle cx="81.171" cy="11.639" r="1.25"/>
  <circle cx="77.202" cy="7.035" r="1.25"/>
  <circle cx="83.552" cy="4.495" r="1.25"/>
  <circle cx="27.196" cy="7.035" r="1.25"/>
  <circle cx="33.546" cy="4.495" r="1.25"/>
  <circle cx="36.721" cy="14.179" r="1.25"/>
  <circle cx="43.071" cy="11.639" r="1.25"/>
  <circle cx="55.771" cy="14.179" r="1.25"/>
  <circle cx="62.121" cy="11.639" r="1.25"/>
  <circle cx="8.1463" cy="7.035" r="1.25"/>
  <circle cx="14.496" cy="4.495" r="1.25"/>
  <circle cx="5.765" cy="14.179" r="1.25"/>
  <circle cx="12.115" cy="11.639" r="1.25"/>
  <g fill="#50FA7B" fill-rule="evenodd">
   <path d="m64.361 22.669-0.0956-0.019-0.0811-0.0542-0.0542-0.0811-0.0191-0.0957v-0.6l0.0191-0.0956 0.0542-0.0811 0.0811-0.0542 0.0956-0.0191h0.6l0.0957 0.0191 0.0811 0.0542 0.0542 0.0811 0.019 0.0956v0.6l-0.019 0.0957-0.0542 0.0811-0.0811 0.0542-0.0957 0.019z"/>
   <path d="m64.361 19.869-0.0956-0.019-0.0811-0.0542-0.0542-0.0811-0.0191-0.0957v-0.5999l0.0191-0.0957 0.0542-0.0811 0.0811-0.0542 0.0956-0.019h0.6l0.0957 0.019 0.0811 0.0542 0.0542 0.0811 0.019 0.0957v0.5999l-0.019 0.0957-0.0542 0.0811-0.0811 0.0542-0.0957 0.019z"/>
   <path d="m83.411 22.669-0.0956-0.019-0.0811-0.0542-0.0542-0.0811-0.0191-0.0957v-0.6l0.0191-0.0956 0.0542-0.0811 0.0811-0.0542 0.0956-0.0191h0.6l0.0957 0.0191 0.0811 0.0542 0.0542 0.0811 0.019 0.0956v0.6l-0.019 0.0957-0.0542 0.0811-0.0811 0.0542-0.0957 0.019z"/>
   <path d="m83.411 19.869-0.0956-0.019-0.0811-0.0542-0.0542-0.0811-0.0191-0.0957v-0.5999l0.0191-0.0957 0.0542-0.0811 0.0811-0.0542 0.0956-0.019h0.6l0.0957 0.019 0.0811 0.0542 0.0542 0.0811 0.019 0.0957v0.5999l-0.019 0.0957-0.0542 0.0811-0.0811 0.0542-0.0957 0.019z"/>
   <path d="m14.355 22.669-0.0957-0.019-0.0811-0.0542-0.0542-0.0811-0.019-0.0957v-0.6l0.019-0.0956 0.0542-0.0811 0.0811-0.0542 0.0957-0.0191h0.6l0.0957 0.0191 0.0811 0.0542 0.0542 0.0811 0.019 0.0956v0.6l-0.019 0.0957-0.0542 0.0811-0.0811 0.0542-0.0957 0.019z"/>
   <path d="m14.355 19.869-0.0957-0.019-0.0811-0.0542-0.0542-0.0811-0.019-0.0957v-0.5999l0.019-0.0957 0.0542-0.0811 0.0811-0.0542 0.0957-0.019h0.6l0.0957 0.019 0.0811 0.0542 0.0542 0.0811 0.019 0.0957v0.5999l-0.019 0.0957-0.0542 0.0811-0.0811 0.0542-0.0957 0.019z"/>
   <path d="m45.311 22.669-0.0957-0.019-0.0811-0.0542-0.0542-0.0811-0.019-0.0957v-0.6l0.019-0.0956 0.0542-0.0811 0.0811-0.0542 0.0957-0.0191h0.5999l0.0957 0.0191 0.0811 0.0542 0.0542 0.0811 0.019 0.0956v0.6l-0.019 0.0957-0.0542 0.0811-0.0811 0.0542-0.0957 0.019z"/>
   <path d="m45.311 19.869-0.0957-0.019-0.0811-0.0542-0.0542-0.0811-0.019-0.0957v-0.5999l0.019-0.0957 0.0542-0.0811 0.0811-0.0542 0.0957-0.019h0.5999l0.0957 0.019 0.0811 0.0542 0.0542 0.0811 0.019 0.0957v0.5999l-0.019 0.0957-0.0542 0.0811-0.0811 0.0542-0.0957 0.019z"/>
  </g>
 </g>
 <g fill="none" stroke="#50FA7B" stroke-linecap="round" stroke-linejoin="round" stroke-width=".2">
  <path d="m52.596 4.495v7.8388"/>
  <path d="m43.071 16.779 2.54 2.54"/>
  <path d="m43.071 11.639v5.14"/>
  <path d="m52.596 12.334-6.985 6.9849"/>
  <path d="m62.121 11.639v5.14"/>
  <path d="m62.121 16.779 2.54 2.54"/>
  <path d="m14.655 22.119h30.956"/>
  <path d="m64.661 22.119h19.05"/>
  <path d="m45.611 22.119h19.05"/>
 </g>
 <g fill="#fff">
  <circle cx="44.976" cy="9.575" r=".875"/>
  <circle cx="50.056" cy="9.575" r="2"/>
  <circle cx="55.136" cy="9.575" r=".875"/>
  <circle cx="46.246" cy="7.035" r=".75"/>
  <circle cx="52.596" cy="4.495" r=".75"/>
  <circle cx="73.551" cy="16.719" r=".875"/>
  <circle cx="78.631" cy="16.719" r="2"/>
  <circle cx="83.711" cy="16.719" r=".875"/>
  <circle cx="74.821" cy="14.179" r=".75"/>
  <circle cx="81.171" cy="11.639" r=".75"/>
  <circle cx="75.932" cy="9.575" r=".875"/>
  <circle cx="81.012" cy="9.575" r="2"/>
  <circle cx="86.092" cy="9.575" r=".875"/>
  <circle cx="77.202" cy="7.035" r=".75"/>
  <circle cx="83.552" cy="4.495" r=".75"/>
  <circle cx="25.926" cy="9.575" r=".875"/>
  <circle cx="31.006" cy="9.575" r="2"/>
  <circle cx="36.086" cy="9.575" r=".875"/>
  <circle cx="27.196" cy="7.035" r=".75"/>
  <circle cx="33.546" cy="4.495" r=".75"/>
  <circle cx="35.451" cy="16.719" r=".875"/>
  <circle cx="40.531" cy="16.719" r="2"/>
  <circle cx="45.611" cy="16.719" r=".875"/>
  <circle cx="36.721" cy="14.179" r=".75"/>
  <circle cx="43.071" cy="11.639" r=".75"/>
  <circle cx="54.501" cy="16.719" r=".875"/>
  <circle cx="59.581" cy="16.719" r="2"/>
  <circle cx="64.661" cy="16.719" r=".875"/>
  <circle cx="55.771" cy="14.179" r=".75"/>
  <circle cx="62.121" cy="11.639" r=".75"/>
  <circle cx="6.8762" cy="9.575" r=".875"/>
  <circle cx="11.956" cy="9.575" r="2"/>
  <circle cx="17.036" cy="9.575" r=".875"/>
  <circle cx="8.1463" cy="7.035" r=".75"/>
  <circle cx="14.496" cy="4.495" r=".75"/>
  <circle cx="4.495" cy="16.719" r=".875"/>
  <circle cx="9.575" cy="16.719" r="2"/>
  <circle cx="14.655" cy="16.719" r=".875"/>
  <circle cx="5.765" cy="14.179" r=".75"/>
  <circle cx="12.115" cy="11.639" r=".75"/>
 </g>
</svg>
