<?xml version="1.0" encoding="UTF-8"?>
<!DOCTYPE svg  PUBLIC '-//W3C//DTD SVG 1.1//EN'  'http://www.w3.org/Graphics/SVG/1.1/DTD/svg11.dtd'>
<svg width="57.226mm" height="76.276mm" version="1.1" viewBox="0 0 57.226 76.276" xmlns="http://www.w3.org/2000/svg">
 <title>SVG Image created as rama_works_m10_a-render.svg date 2025/09/05 18:16:56</title>
 <desc>Image generated by PCBNEW</desc>
 <rect width="57.226mm" height="76.276mm" fill="#282A36"/>
 <g fill="none" stroke="#8BE9FD" stroke-linecap="round" stroke-linejoin="round" stroke-width=".15">
  <text x="28.6250" y="21.1250" font-size="1.3333" opacity="0" stroke-opacity="0" text-anchor="middle" lengthAdjust="spacingAndGlyphs" textLength="3.2976">SW5</text>
  <g class="stroked-text">
   <desc>SW5</desc>
   <path d="m27.292 21.032 0.1428 0.0476"/>
   <path d="m27.434 21.08h0.2381"/>
   <path d="m27.673 21.08 0.0953-0.0476"/>
   <path d="m27.768 21.032 0.0476-0.0476"/>
   <path d="m27.816 20.985 0.0476-0.0953"/>
   <path d="m27.863 20.889v-0.0952"/>
   <path d="m27.863 20.794-0.0476-0.0952"/>
   <path d="m27.816 20.699-0.0476-0.0477"/>
   <path d="m27.768 20.651-0.0953-0.0476"/>
   <path d="m27.673 20.604-0.1905-0.0476"/>
   <path d="m27.482 20.556-0.0952-0.0476"/>
   <path d="m27.387 20.508-0.0476-0.0476"/>
   <path d="m27.339 20.461-0.0476-0.0953"/>
   <path d="m27.292 20.366v-0.0952"/>
   <path d="m27.292 20.27 0.0476-0.0952"/>
   <path d="m27.339 20.175 0.0476-0.0477"/>
   <path d="m27.387 20.127 0.0952-0.0476"/>
   <path d="m27.482 20.08h0.2381"/>
   <path d="m27.72 20.08 0.1429 0.0476"/>
   <path d="m28.196 20.08 0.2381 1"/>
   <path d="m28.434 21.08 0.1905-0.7143"/>
   <path d="m28.625 20.366 0.1905 0.7143"/>
   <path d="m28.816 21.08 0.2381-1"/>
   <path d="m29.911 20.08h-0.4762"/>
   <path d="m29.434 20.08-0.0476 0.4762"/>
   <path d="m29.387 20.556 0.0476-0.0476"/>
   <path d="m29.434 20.508 0.0953-0.0476"/>
   <path d="m29.53 20.461h0.2381"/>
   <path d="m29.768 20.461 0.0952 0.0476"/>
   <path d="m29.863 20.508 0.0476 0.0476"/>
   <path d="m29.911 20.556 0.0476 0.0952"/>
   <path d="m29.958 20.651v0.2381"/>
   <path d="m29.958 20.889-0.0476 0.0953"/>
   <path d="m29.911 20.985-0.0476 0.0476"/>
   <path d="m29.863 21.032-0.0952 0.0476"/>
   <path d="m29.768 21.08h-0.2381"/>
   <path d="m29.53 21.08-0.0953-0.0476"/>
   <path d="m29.434 21.032-0.0476-0.0476"/>
  </g>
  <text x="38.1500" y="59.2250" font-size="1.3333" opacity="0" stroke-opacity="0" text-anchor="middle" lengthAdjust="spacingAndGlyphs" textLength="4.2500">SW10</text>
  <g class="stroked-text">
   <desc>SW10</desc>
   <path d="m36.34 59.132 0.1428 0.0476"/>
   <path d="m36.483 59.18h0.2381"/>
   <path d="m36.721 59.18 0.0953-0.0476"/>
   <path d="m36.817 59.132 0.0476-0.0476"/>
   <path d="m36.864 59.085 0.0476-0.0953"/>
   <path d="m36.912 58.989v-0.0952"/>
   <path d="m36.912 58.894-0.0476-0.0952"/>
   <path d="m36.864 58.799-0.0476-0.0477"/>
   <path d="m36.817 58.751-0.0953-0.0476"/>
   <path d="m36.721 58.704-0.1904-0.0476"/>
   <path d="m36.531 58.656-0.0953-0.0476"/>
   <path d="m36.436 58.608-0.0476-0.0476"/>
   <path d="m36.388 58.561-0.0476-0.0953"/>
   <path d="m36.34 58.466v-0.0952"/>
   <path d="m36.34 58.37 0.0476-0.0952"/>
   <path d="m36.388 58.275 0.0476-0.0477"/>
   <path d="m36.436 58.227 0.0953-0.0476"/>
   <path d="m36.531 58.18h0.238"/>
   <path d="m36.769 58.18 0.1429 0.0476"/>
   <path d="m37.245 58.18 0.2381 1"/>
   <path d="m37.483 59.18 0.1905-0.7143"/>
   <path d="m37.674 58.466 0.1905 0.7143"/>
   <path d="m37.864 59.18 0.2381-1"/>
   <path d="m39.007 59.18h-0.5714"/>
   <path d="m38.721 59.18v-1"/>
   <path d="m38.721 58.18-0.0952 0.1429"/>
   <path d="m38.626 58.323-0.0952 0.0952"/>
   <path d="m38.531 58.418-0.0953 0.0476"/>
   <path d="m39.626 58.18h0.0952"/>
   <path d="m39.721 58.18 0.0953 0.0476"/>
   <path d="m39.817 58.227 0.0476 0.0477"/>
   <path d="m39.864 58.275 0.0476 0.0952"/>
   <path d="m39.912 58.37 0.0476 0.1905"/>
   <path d="m39.96 58.561v0.2381"/>
   <path d="m39.96 58.799-0.0476 0.1904"/>
   <path d="m39.912 58.989-0.0476 0.0953"/>
   <path d="m39.864 59.085-0.0476 0.0476"/>
   <path d="m39.817 59.132-0.0953 0.0476"/>
   <path d="m39.721 59.18h-0.0952"/>
   <path d="m39.626 59.18-0.0952-0.0476"/>
   <path d="m39.531 59.132-0.0477-0.0476"/>
   <path d="m39.483 59.085-0.0476-0.0953"/>
   <path d="m39.436 58.989-0.0476-0.1904"/>
   <path d="m39.388 58.799v-0.2381"/>
   <path d="m39.388 58.561 0.0476-0.1905"/>
   <path d="m39.436 58.37 0.0476-0.0952"/>
   <path d="m39.483 58.275 0.0477-0.0477"/>
   <path d="m39.531 58.227 0.0952-0.0476"/>
  </g>
  <text x="47.6750" y="2.0750" font-size="1.3333" opacity="0" stroke-opacity="0" text-anchor="middle" lengthAdjust="spacingAndGlyphs" textLength="3.2976">SW3</text>
  <g class="stroked-text">
   <desc>SW3</desc>
   <path d="m46.342 1.9822 0.1428 0.0476"/>
   <path d="m46.484 2.0298h0.2381"/>
   <path d="m46.723 2.0298 0.0953-0.0476"/>
   <path d="m46.818 1.9822 0.0476-0.0476"/>
   <path d="m46.866 1.9346 0.0476-0.0953"/>
   <path d="m46.913 1.8393v-0.0952"/>
   <path d="m46.913 1.7441-0.0476-0.0952"/>
   <path d="m46.866 1.6489-0.0476-0.0477"/>
   <path d="m46.818 1.6012-0.0953-0.0476"/>
   <path d="m46.723 1.5536-0.1905-0.0476"/>
   <path d="m46.532 1.506-0.0952-0.0476"/>
   <path d="m46.437 1.4584-0.0476-0.0476"/>
   <path d="m46.389 1.4108-0.0476-0.0953"/>
   <path d="m46.342 1.3155v-0.0952"/>
   <path d="m46.342 1.2203 0.0476-0.0952"/>
   <path d="m46.389 1.1251 0.0476-0.0477"/>
   <path d="m46.437 1.0774 0.0952-0.0476"/>
   <path d="m46.532 1.0298h0.2381"/>
   <path d="m46.77 1.0298 0.1429 0.0476"/>
   <path d="m47.246 1.0298 0.2381 1"/>
   <path d="m47.484 2.0298 0.1905-0.7143"/>
   <path d="m47.675 1.3155 0.1905 0.7143"/>
   <path d="m47.866 2.0298 0.2381-1"/>
   <path d="m48.389 1.0298h0.619"/>
   <path d="m49.008 1.0298-0.3333 0.381"/>
   <path d="m48.675 1.4108h0.1429"/>
   <path d="m48.818 1.4108 0.0952 0.0476"/>
   <path d="m48.913 1.4584 0.0476 0.0476"/>
   <path d="m48.961 1.506 0.0476 0.0952"/>
   <path d="m49.008 1.6012v0.2381"/>
   <path d="m49.008 1.8393-0.0476 0.0953"/>
   <path d="m48.961 1.9346-0.0476 0.0476"/>
   <path d="m48.913 1.9822-0.0952 0.0476"/>
   <path d="m48.818 2.0298h-0.2858"/>
   <path d="m48.532 2.0298-0.0952-0.0476"/>
   <path d="m48.437 1.9822-0.0476-0.0476"/>
  </g>
  <text x="28.6250" y="2.0750" font-size="1.3333" opacity="0" stroke-opacity="0" text-anchor="middle" lengthAdjust="spacingAndGlyphs" textLength="3.2976">SW2</text>
  <g class="stroked-text">
   <desc>SW2</desc>
   <path d="m27.292 1.9822 0.1428 0.0476"/>
   <path d="m27.434 2.0298h0.2381"/>
   <path d="m27.673 2.0298 0.0953-0.0476"/>
   <path d="m27.768 1.9822 0.0476-0.0476"/>
   <path d="m27.816 1.9346 0.0476-0.0953"/>
   <path d="m27.863 1.8393v-0.0952"/>
   <path d="m27.863 1.7441-0.0476-0.0952"/>
   <path d="m27.816 1.6489-0.0476-0.0477"/>
   <path d="m27.768 1.6012-0.0953-0.0476"/>
   <path d="m27.673 1.5536-0.1905-0.0476"/>
   <path d="m27.482 1.506-0.0952-0.0476"/>
   <path d="m27.387 1.4584-0.0476-0.0476"/>
   <path d="m27.339 1.4108-0.0476-0.0953"/>
   <path d="m27.292 1.3155v-0.0952"/>
   <path d="m27.292 1.2203 0.0476-0.0952"/>
   <path d="m27.339 1.1251 0.0476-0.0477"/>
   <path d="m27.387 1.0774 0.0952-0.0476"/>
   <path d="m27.482 1.0298h0.2381"/>
   <path d="m27.72 1.0298 0.1429 0.0476"/>
   <path d="m28.196 1.0298 0.2381 1"/>
   <path d="m28.434 2.0298 0.1905-0.7143"/>
   <path d="m28.625 1.3155 0.1905 0.7143"/>
   <path d="m28.816 2.0298 0.2381-1"/>
   <path d="m29.387 1.1251 0.0476-0.0477"/>
   <path d="m29.434 1.0774 0.0953-0.0476"/>
   <path d="m29.53 1.0298h0.2381"/>
   <path d="m29.768 1.0298 0.0952 0.0476"/>
   <path d="m29.863 1.0774 0.0476 0.0477"/>
   <path d="m29.911 1.1251 0.0476 0.0952"/>
   <path d="m29.958 1.2203v0.0952"/>
   <path d="m29.958 1.3155-0.0476 0.1429"/>
   <path d="m29.911 1.4584-0.5714 0.5714"/>
   <path d="m29.339 2.0298h0.619"/>
  </g>
  <text x="9.5750" y="40.1750" font-size="1.3333" opacity="0" stroke-opacity="0" text-anchor="middle" lengthAdjust="spacingAndGlyphs" textLength="3.2976">SW7</text>
  <g class="stroked-text">
   <desc>SW7</desc>
   <path d="m8.2417 40.082 0.1428 0.0476"/>
   <path d="m8.3845 40.13h0.2381"/>
   <path d="m8.6226 40.13 0.0953-0.0476"/>
   <path d="m8.7179 40.082 0.0476-0.0476"/>
   <path d="m8.7655 40.035 0.0476-0.0953"/>
   <path d="m8.8131 39.939v-0.0952"/>
   <path d="m8.8131 39.844-0.0476-0.0952"/>
   <path d="m8.7655 39.749-0.0476-0.0477"/>
   <path d="m8.7179 39.701-0.0953-0.0476"/>
   <path d="m8.6226 39.654-0.1905-0.0476"/>
   <path d="m8.4321 39.606-0.0952-0.0476"/>
   <path d="m8.3369 39.558-0.0476-0.0476"/>
   <path d="m8.2893 39.511-0.0476-0.0953"/>
   <path d="m8.2417 39.416v-0.0952"/>
   <path d="m8.2417 39.32 0.0476-0.0952"/>
   <path d="m8.2893 39.225 0.0476-0.0477"/>
   <path d="m8.3369 39.177 0.0952-0.0476"/>
   <path d="m8.4321 39.13h0.2381"/>
   <path d="m8.6702 39.13 0.1429 0.0476"/>
   <path d="m9.1464 39.13 0.2381 1"/>
   <path d="m9.3845 40.13 0.1905-0.7143"/>
   <path d="m9.575 39.416 0.1905 0.7143"/>
   <path d="m9.7655 40.13 0.2381-1"/>
   <path d="m10.289 39.13h0.6667"/>
   <path d="m10.956 39.13-0.4286 1"/>
  </g>
  <text x="47.6750" y="40.1750" font-size="1.3333" opacity="0" stroke-opacity="0" text-anchor="middle" lengthAdjust="spacingAndGlyphs" textLength="3.2976">SW9</text>
  <g class="stroked-text">
   <desc>SW9</desc>
   <path d="m46.342 40.082 0.1428 0.0476"/>
   <path d="m46.484 40.13h0.2381"/>
   <path d="m46.723 40.13 0.0953-0.0476"/>
   <path d="m46.818 40.082 0.0476-0.0476"/>
   <path d="m46.866 40.035 0.0476-0.0953"/>
   <path d="m46.913 39.939v-0.0952"/>
   <path d="m46.913 39.844-0.0476-0.0952"/>
   <path d="m46.866 39.749-0.0476-0.0477"/>
   <path d="m46.818 39.701-0.0953-0.0476"/>
   <path d="m46.723 39.654-0.1905-0.0476"/>
   <path d="m46.532 39.606-0.0952-0.0476"/>
   <path d="m46.437 39.558-0.0476-0.0476"/>
   <path d="m46.389 39.511-0.0476-0.0953"/>
   <path d="m46.342 39.416v-0.0952"/>
   <path d="m46.342 39.32 0.0476-0.0952"/>
   <path d="m46.389 39.225 0.0476-0.0477"/>
   <path d="m46.437 39.177 0.0952-0.0476"/>
   <path d="m46.532 39.13h0.2381"/>
   <path d="m46.77 39.13 0.1429 0.0476"/>
   <path d="m47.246 39.13 0.2381 1"/>
   <path d="m47.484 40.13 0.1905-0.7143"/>
   <path d="m47.675 39.416 0.1905 0.7143"/>
   <path d="m47.866 40.13 0.2381-1"/>
   <path d="m48.532 40.13h0.1905"/>
   <path d="m48.723 40.13 0.0953-0.0476"/>
   <path d="m48.818 40.082 0.0476-0.0476"/>
   <path d="m48.866 40.035 0.0952-0.1429"/>
   <path d="m48.961 39.892 0.0476-0.1905"/>
   <path d="m49.008 39.701v-0.3809"/>
   <path d="m49.008 39.32-0.0476-0.0952"/>
   <path d="m48.961 39.225-0.0476-0.0477"/>
   <path d="m48.913 39.177-0.0952-0.0476"/>
   <path d="m48.818 39.13h-0.1905"/>
   <path d="m48.627 39.13-0.0953 0.0476"/>
   <path d="m48.532 39.177-0.0476 0.0477"/>
   <path d="m48.484 39.225-0.0476 0.0952"/>
   <path d="m48.437 39.32v0.2381"/>
   <path d="m48.437 39.558 0.0476 0.0952"/>
   <path d="m48.484 39.654 0.0476 0.0476"/>
   <path d="m48.532 39.701 0.0953 0.0477"/>
   <path d="m48.627 39.749h0.1905"/>
   <path d="m48.818 39.749 0.0952-0.0477"/>
   <path d="m48.913 39.701 0.0476-0.0476"/>
   <path d="m48.961 39.654 0.0476-0.0952"/>
  </g>
  <text x="9.5750" y="21.1250" font-size="1.3333" opacity="0" stroke-opacity="0" text-anchor="middle" lengthAdjust="spacingAndGlyphs" textLength="3.2976">SW4</text>
  <g class="stroked-text">
   <desc>SW4</desc>
   <path d="m8.2417 21.032 0.1428 0.0476"/>
   <path d="m8.3845 21.08h0.2381"/>
   <path d="m8.6226 21.08 0.0953-0.0476"/>
   <path d="m8.7179 21.032 0.0476-0.0476"/>
   <path d="m8.7655 20.985 0.0476-0.0953"/>
   <path d="m8.8131 20.889v-0.0952"/>
   <path d="m8.8131 20.794-0.0476-0.0952"/>
   <path d="m8.7655 20.699-0.0476-0.0477"/>
   <path d="m8.7179 20.651-0.0953-0.0476"/>
   <path d="m8.6226 20.604-0.1905-0.0476"/>
   <path d="m8.4321 20.556-0.0952-0.0476"/>
   <path d="m8.3369 20.508-0.0476-0.0476"/>
   <path d="m8.2893 20.461-0.0476-0.0953"/>
   <path d="m8.2417 20.366v-0.0952"/>
   <path d="m8.2417 20.27 0.0476-0.0952"/>
   <path d="m8.2893 20.175 0.0476-0.0477"/>
   <path d="m8.3369 20.127 0.0952-0.0476"/>
   <path d="m8.4321 20.08h0.2381"/>
   <path d="m8.6702 20.08 0.1429 0.0476"/>
   <path d="m9.1464 20.08 0.2381 1"/>
   <path d="m9.3845 21.08 0.1905-0.7143"/>
   <path d="m9.575 20.366 0.1905 0.7143"/>
   <path d="m9.7655 21.08 0.2381-1"/>
   <path d="m10.813 20.413v0.6666"/>
   <path d="m10.575 20.032-0.2381 0.7143"/>
   <path d="m10.337 20.746h0.6191"/>
  </g>
  <text x="28.6250" y="40.1750" font-size="1.3333" opacity="0" stroke-opacity="0" text-anchor="middle" lengthAdjust="spacingAndGlyphs" textLength="3.2976">SW8</text>
  <g class="stroked-text">
   <desc>SW8</desc>
   <path d="m27.292 40.082 0.1428 0.0476"/>
   <path d="m27.434 40.13h0.2381"/>
   <path d="m27.673 40.13 0.0953-0.0476"/>
   <path d="m27.768 40.082 0.0476-0.0476"/>
   <path d="m27.816 40.035 0.0476-0.0953"/>
   <path d="m27.863 39.939v-0.0952"/>
   <path d="m27.863 39.844-0.0476-0.0952"/>
   <path d="m27.816 39.749-0.0476-0.0477"/>
   <path d="m27.768 39.701-0.0953-0.0476"/>
   <path d="m27.673 39.654-0.1905-0.0476"/>
   <path d="m27.482 39.606-0.0952-0.0476"/>
   <path d="m27.387 39.558-0.0476-0.0476"/>
   <path d="m27.339 39.511-0.0476-0.0953"/>
   <path d="m27.292 39.416v-0.0952"/>
   <path d="m27.292 39.32 0.0476-0.0952"/>
   <path d="m27.339 39.225 0.0476-0.0477"/>
   <path d="m27.387 39.177 0.0952-0.0476"/>
   <path d="m27.482 39.13h0.2381"/>
   <path d="m27.72 39.13 0.1429 0.0476"/>
   <path d="m28.196 39.13 0.2381 1"/>
   <path d="m28.434 40.13 0.1905-0.7143"/>
   <path d="m28.625 39.416 0.1905 0.7143"/>
   <path d="m28.816 40.13 0.2381-1"/>
   <path d="m29.577 39.558-0.0953-0.0476"/>
   <path d="m29.482 39.511-0.0476-0.0476"/>
   <path d="m29.434 39.463-0.0476-0.0953"/>
   <path d="m29.387 39.368v-0.0476"/>
   <path d="m29.387 39.32 0.0476-0.0952"/>
   <path d="m29.434 39.225 0.0476-0.0477"/>
   <path d="m29.482 39.177 0.0953-0.0476"/>
   <path d="m29.577 39.13h0.1905"/>
   <path d="m29.768 39.13 0.0952 0.0476"/>
   <path d="m29.863 39.177 0.0476 0.0477"/>
   <path d="m29.911 39.225 0.0476 0.0952"/>
   <path d="m29.958 39.32v0.0476"/>
   <path d="m29.958 39.368-0.0476 0.0953"/>
   <path d="m29.911 39.463-0.0476 0.0476"/>
   <path d="m29.863 39.511-0.0952 0.0476"/>
   <path d="m29.768 39.558h-0.1905"/>
   <path d="m29.577 39.558-0.0953 0.0476"/>
   <path d="m29.482 39.606-0.0476 0.0476"/>
   <path d="m29.434 39.654-0.0476 0.0953"/>
   <path d="m29.387 39.749v0.1904"/>
   <path d="m29.387 39.939 0.0476 0.0953"/>
   <path d="m29.434 40.035 0.0476 0.0476"/>
   <path d="m29.482 40.082 0.0953 0.0476"/>
   <path d="m29.577 40.13h0.1905"/>
   <path d="m29.768 40.13 0.0952-0.0476"/>
   <path d="m29.863 40.082 0.0476-0.0476"/>
   <path d="m29.911 40.035 0.0476-0.0953"/>
   <path d="m29.958 39.939v-0.1904"/>
   <path d="m29.958 39.749-0.0476-0.0953"/>
   <path d="m29.911 39.654-0.0476-0.0476"/>
   <path d="m29.863 39.606-0.0952-0.0476"/>
  </g>
  <text x="47.6750" y="21.1250" font-size="1.3333" opacity="0" stroke-opacity="0" text-anchor="middle" lengthAdjust="spacingAndGlyphs" textLength="3.2976">SW6</text>
  <g class="stroked-text">
   <desc>SW6</desc>
   <path d="m46.342 21.032 0.1428 0.0476"/>
   <path d="m46.484 21.08h0.2381"/>
   <path d="m46.723 21.08 0.0953-0.0476"/>
   <path d="m46.818 21.032 0.0476-0.0476"/>
   <path d="m46.866 20.985 0.0476-0.0953"/>
   <path d="m46.913 20.889v-0.0952"/>
   <path d="m46.913 20.794-0.0476-0.0952"/>
   <path d="m46.866 20.699-0.0476-0.0477"/>
   <path d="m46.818 20.651-0.0953-0.0476"/>
   <path d="m46.723 20.604-0.1905-0.0476"/>
   <path d="m46.532 20.556-0.0952-0.0476"/>
   <path d="m46.437 20.508-0.0476-0.0476"/>
   <path d="m46.389 20.461-0.0476-0.0953"/>
   <path d="m46.342 20.366v-0.0952"/>
   <path d="m46.342 20.27 0.0476-0.0952"/>
   <path d="m46.389 20.175 0.0476-0.0477"/>
   <path d="m46.437 20.127 0.0952-0.0476"/>
   <path d="m46.532 20.08h0.2381"/>
   <path d="m46.77 20.08 0.1429 0.0476"/>
   <path d="m47.246 20.08 0.2381 1"/>
   <path d="m47.484 21.08 0.1905-0.7143"/>
   <path d="m47.675 20.366 0.1905 0.7143"/>
   <path d="m47.866 21.08 0.2381-1"/>
   <path d="m48.913 20.08h-0.1905"/>
   <path d="m48.723 20.08-0.0952 0.0476"/>
   <path d="m48.627 20.127-0.0476 0.0477"/>
   <path d="m48.58 20.175-0.0953 0.1428"/>
   <path d="m48.484 20.318-0.0476 0.1905"/>
   <path d="m48.437 20.508v0.3809"/>
   <path d="m48.437 20.889 0.0476 0.0953"/>
   <path d="m48.484 20.985 0.0476 0.0476"/>
   <path d="m48.532 21.032 0.0953 0.0476"/>
   <path d="m48.627 21.08h0.1905"/>
   <path d="m48.818 21.08 0.0952-0.0476"/>
   <path d="m48.913 21.032 0.0476-0.0476"/>
   <path d="m48.961 20.985 0.0476-0.0953"/>
   <path d="m49.008 20.889v-0.2381"/>
   <path d="m49.008 20.651-0.0476-0.0952"/>
   <path d="m48.961 20.556-0.0476-0.0476"/>
   <path d="m48.913 20.508-0.0952-0.0476"/>
   <path d="m48.818 20.461h-0.1905"/>
   <path d="m48.627 20.461-0.0953 0.0476"/>
   <path d="m48.532 20.508-0.0476 0.0476"/>
   <path d="m48.484 20.556-0.0476 0.0952"/>
  </g>
  <text x="9.5750" y="2.0750" font-size="1.3333" opacity="0" stroke-opacity="0" text-anchor="middle" lengthAdjust="spacingAndGlyphs" textLength="3.2976">SW1</text>
  <g class="stroked-text">
   <desc>SW1</desc>
   <path d="m8.2417 1.9822 0.1428 0.0476"/>
   <path d="m8.3845 2.0298h0.2381"/>
   <path d="m8.6226 2.0298 0.0953-0.0476"/>
   <path d="m8.7179 1.9822 0.0476-0.0476"/>
   <path d="m8.7655 1.9346 0.0476-0.0953"/>
   <path d="m8.8131 1.8393v-0.0952"/>
   <path d="m8.8131 1.7441-0.0476-0.0952"/>
   <path d="m8.7655 1.6489-0.0476-0.0477"/>
   <path d="m8.7179 1.6012-0.0953-0.0476"/>
   <path d="m8.6226 1.5536-0.1905-0.0476"/>
   <path d="m8.4321 1.506-0.0952-0.0476"/>
   <path d="m8.3369 1.4584-0.0476-0.0476"/>
   <path d="m8.2893 1.4108-0.0476-0.0953"/>
   <path d="m8.2417 1.3155v-0.0952"/>
   <path d="m8.2417 1.2203 0.0476-0.0952"/>
   <path d="m8.2893 1.1251 0.0476-0.0477"/>
   <path d="m8.3369 1.0774 0.0952-0.0476"/>
   <path d="m8.4321 1.0298h0.2381"/>
   <path d="m8.6702 1.0298 0.1429 0.0476"/>
   <path d="m9.1464 1.0298 0.2381 1"/>
   <path d="m9.3845 2.0298 0.1905-0.7143"/>
   <path d="m9.575 1.3155 0.1905 0.7143"/>
   <path d="m9.7655 2.0298 0.2381-1"/>
   <path d="m10.908 2.0298h-0.5714"/>
   <path d="m10.623 2.0298v-1"/>
   <path d="m10.623 1.0298-0.0952 0.1429"/>
   <path d="m10.527 1.1727-0.0953 0.0952"/>
   <path d="m10.432 1.2679-0.0952 0.0476"/>
  </g>
 </g>
 <g fill="none" stroke="#8BE9FD" stroke-linecap="round" stroke-linejoin="round" stroke-width=".12">
  <path d="m21.525 21.525v14.2"/>
  <path d="m21.525 35.725h14.2"/>
  <path d="m35.725 21.525h-14.2"/>
  <path d="m35.725 35.725v-14.2"/>
  <path d="m31.05 59.625v14.2"/>
  <path d="m31.05 73.825h14.2"/>
  <path d="m45.25 59.625h-14.2"/>
  <path d="m45.25 73.825v-14.2"/>
  <path d="m40.575 2.475v14.2"/>
  <path d="m40.575 16.675h14.2"/>
  <path d="m54.775 2.475h-14.2"/>
  <path d="m54.775 16.675v-14.2"/>
  <path d="m21.525 2.475v14.2"/>
  <path d="m21.525 16.675h14.2"/>
  <path d="m35.725 2.475h-14.2"/>
  <path d="m35.725 16.675v-14.2"/>
  <path d="m2.475 40.575v14.2"/>
  <path d="m2.475 54.775h14.2"/>
  <path d="m16.675 40.575h-14.2"/>
  <path d="m16.675 54.775v-14.2"/>
  <path d="m40.575 40.575v14.2"/>
  <path d="m40.575 54.775h14.2"/>
  <path d="m54.775 40.575h-14.2"/>
  <path d="m54.775 54.775v-14.2"/>
  <path d="m2.475 21.525v14.2"/>
  <path d="m2.475 35.725h14.2"/>
  <path d="m16.675 21.525h-14.2"/>
  <path d="m16.675 35.725v-14.2"/>
  <path d="m21.525 40.575v14.2"/>
  <path d="m21.525 54.775h14.2"/>
  <path d="m35.725 40.575h-14.2"/>
  <path d="m35.725 54.775v-14.2"/>
  <path d="m40.575 21.525v14.2"/>
  <path d="m40.575 35.725h14.2"/>
  <path d="m54.775 21.525h-14.2"/>
  <path d="m54.775 35.725v-14.2"/>
  <path d="m2.475 2.475v14.2"/>
  <path d="m2.475 16.675h14.2"/>
  <path d="m16.675 2.475h-14.2"/>
  <path d="m16.675 16.675v-14.2"/>
 </g>
 <g fill="#8BE9FD">
  <circle cx="23.545" cy="28.625" r=".875"/>
  <circle cx="28.625" cy="28.625" r="2"/>
  <circle cx="33.705" cy="28.625" r=".875"/>
  <circle cx="24.815" cy="26.085" r=".75"/>
  <circle cx="31.165" cy="23.545" r=".75"/>
  <circle cx="33.07" cy="66.725" r=".875"/>
  <circle cx="38.15" cy="66.725" r="2"/>
  <circle cx="43.23" cy="66.725" r=".875"/>
  <circle cx="34.34" cy="64.185" r=".75"/>
  <circle cx="40.69" cy="61.645" r=".75"/>
  <circle cx="42.595" cy="9.575" r=".875"/>
  <circle cx="47.675" cy="9.575" r="2"/>
  <circle cx="52.755" cy="9.575" r=".875"/>
  <circle cx="43.865" cy="7.035" r=".75"/>
  <circle cx="50.215" cy="4.495" r=".75"/>
  <circle cx="23.545" cy="9.575" r=".875"/>
  <circle cx="28.625" cy="9.575" r="2"/>
  <circle cx="33.705" cy="9.575" r=".875"/>
  <circle cx="24.815" cy="7.035" r=".75"/>
  <circle cx="31.165" cy="4.495" r=".75"/>
  <circle cx="4.495" cy="47.675" r=".875"/>
  <circle cx="9.575" cy="47.675" r="2"/>
  <circle cx="14.655" cy="47.675" r=".875"/>
  <circle cx="5.765" cy="45.135" r=".75"/>
  <circle cx="12.115" cy="42.595" r=".75"/>
  <circle cx="42.595" cy="47.675" r=".875"/>
  <circle cx="47.675" cy="47.675" r="2"/>
  <circle cx="52.755" cy="47.675" r=".875"/>
  <circle cx="43.865" cy="45.135" r=".75"/>
  <circle cx="50.215" cy="42.595" r=".75"/>
  <circle cx="4.495" cy="28.625" r=".875"/>
  <circle cx="9.575" cy="28.625" r="2"/>
  <circle cx="14.655" cy="28.625" r=".875"/>
  <circle cx="5.765" cy="26.085" r=".75"/>
  <circle cx="12.115" cy="23.545" r=".75"/>
  <circle cx="23.545" cy="47.675" r=".875"/>
  <circle cx="28.625" cy="47.675" r="2"/>
  <circle cx="33.705" cy="47.675" r=".875"/>
  <circle cx="24.815" cy="45.135" r=".75"/>
  <circle cx="31.165" cy="42.595" r=".75"/>
  <circle cx="42.595" cy="28.625" r=".875"/>
  <circle cx="47.675" cy="28.625" r="2"/>
  <circle cx="52.755" cy="28.625" r=".875"/>
  <circle cx="43.865" cy="26.085" r=".75"/>
  <circle cx="50.215" cy="23.545" r=".75"/>
  <circle cx="4.495" cy="9.575" r=".875"/>
  <circle cx="9.575" cy="9.575" r="2"/>
  <circle cx="14.655" cy="9.575" r=".875"/>
  <circle cx="5.765" cy="7.035" r=".75"/>
  <circle cx="12.115" cy="4.495" r=".75"/>
 </g>
 <g fill="none" stroke="#BD93F9" stroke-linecap="round" stroke-linejoin="round" stroke-width=".15">
  <g transform="rotate(-90 54.66 51.802)">
   <text transform="scale(-1 1) translate(-109.32)" x="54.6600" y="52.3020" font-size="1.3333" opacity="0" stroke-opacity="0" text-anchor="middle" lengthAdjust="spacingAndGlyphs" textLength="2.2024">D9</text>
  </g>
  <g class="stroked-text">
   <desc>D9</desc>
   <path d="m55.115 51.064h-1"/>
   <path d="m54.115 51.064v0.2381"/>
   <path d="m54.115 51.302 0.0476 0.1429"/>
   <path d="m54.162 51.445 0.0953 0.0952"/>
   <path d="m54.258 51.54 0.0952 0.0476"/>
   <path d="m54.353 51.588 0.1905 0.0476"/>
   <path d="m54.543 51.635h0.1428"/>
   <path d="m54.686 51.635 0.1905-0.0476"/>
   <path d="m54.877 51.588 0.0953-0.0476"/>
   <path d="m54.972 51.54 0.0952-0.0952"/>
   <path d="m55.067 51.445 0.0476-0.1429"/>
   <path d="m55.115 51.302v-0.2381"/>
   <path d="m55.115 52.112v0.1905"/>
   <path d="m55.115 52.302-0.0476 0.0952"/>
   <path d="m55.067 52.397-0.0476 0.0477"/>
   <path d="m55.02 52.445-0.1429 0.0952"/>
   <path d="m54.877 52.54-0.1905 0.0476"/>
   <path d="m54.686 52.588h-0.3809"/>
   <path d="m54.305 52.588-0.0952-0.0476"/>
   <path d="m54.21 52.54-0.0477-0.0476"/>
   <path d="m54.162 52.492-0.0476-0.0953"/>
   <path d="m54.115 52.397v-0.1904"/>
   <path d="m54.115 52.207 0.0476-0.0953"/>
   <path d="m54.162 52.112 0.0477-0.0476"/>
   <path d="m54.21 52.064 0.0952-0.0476"/>
   <path d="m54.305 52.016h0.2381"/>
   <path d="m54.543 52.016 0.0952 0.0476"/>
   <path d="m54.639 52.064 0.0476 0.0476"/>
   <path d="m54.686 52.112 0.0477 0.0953"/>
   <path d="m54.734 52.207v0.1904"/>
   <path d="m54.734 52.397-0.0477 0.0953"/>
   <path d="m54.686 52.492-0.0476 0.0476"/>
   <path d="m54.639 52.54-0.0952 0.0476"/>
  </g>
  <g transform="rotate(-90 45.135 70.852)">
   <text transform="scale(-1 1) translate(-90.27)" x="45.1350" y="71.3520" font-size="1.3333" opacity="0" stroke-opacity="0" text-anchor="middle" lengthAdjust="spacingAndGlyphs" textLength="3.1548">D10</text>
  </g>
  <g class="stroked-text">
   <desc>D10</desc>
   <path d="m45.59 69.638h-1"/>
   <path d="m44.59 69.638v0.2381"/>
   <path d="m44.59 69.876 0.0476 0.1429"/>
   <path d="m44.637 70.019 0.0953 0.0952"/>
   <path d="m44.733 70.114 0.0952 0.0476"/>
   <path d="m44.828 70.162 0.1905 0.0476"/>
   <path d="m45.018 70.209h0.1428"/>
   <path d="m45.161 70.209 0.1905-0.0476"/>
   <path d="m45.352 70.162 0.0953-0.0476"/>
   <path d="m45.447 70.114 0.0952-0.0952"/>
   <path d="m45.542 70.019 0.0476-0.1429"/>
   <path d="m45.59 69.876v-0.2381"/>
   <path d="m45.59 71.162v-0.5714"/>
   <path d="m45.59 70.876h-1"/>
   <path d="m44.59 70.876 0.1429-0.0952"/>
   <path d="m44.733 70.781 0.0952-0.0953"/>
   <path d="m44.828 70.685 0.0476-0.0952"/>
   <path d="m44.59 71.781v0.0952"/>
   <path d="m44.59 71.876 0.0476 0.0952"/>
   <path d="m44.637 71.971 0.0477 0.0477"/>
   <path d="m44.685 72.019 0.0952 0.0476"/>
   <path d="m44.78 72.066 0.1905 0.0476"/>
   <path d="m44.971 72.114h0.2381"/>
   <path d="m45.209 72.114 0.1904-0.0476"/>
   <path d="m45.399 72.066 0.0953-0.0476"/>
   <path d="m45.495 72.019 0.0476-0.0477"/>
   <path d="m45.542 71.971 0.0476-0.0952"/>
   <path d="m45.59 71.876v-0.0952"/>
   <path d="m45.59 71.781-0.0476-0.0953"/>
   <path d="m45.542 71.685-0.0476-0.0476"/>
   <path d="m45.495 71.638-0.0953-0.0476"/>
   <path d="m45.399 71.59-0.1904-0.0476"/>
   <path d="m45.209 71.542h-0.2381"/>
   <path d="m44.971 71.542-0.1905 0.0476"/>
   <path d="m44.78 71.59-0.0952 0.0476"/>
   <path d="m44.685 71.638-0.0477 0.0476"/>
   <path d="m44.637 71.685-0.0476 0.0953"/>
  </g>
  <g transform="rotate(-90 35.61 13.702)">
   <text transform="scale(-1 1) translate(-71.22)" x="35.6100" y="14.2020" font-size="1.3333" opacity="0" stroke-opacity="0" text-anchor="middle" lengthAdjust="spacingAndGlyphs" textLength="2.2024">D2</text>
  </g>
  <g class="stroked-text">
   <desc>D2</desc>
   <path d="m36.065 12.964h-1"/>
   <path d="m35.065 12.964v0.2381"/>
   <path d="m35.065 13.202 0.0476 0.1429"/>
   <path d="m35.112 13.345 0.0953 0.0952"/>
   <path d="m35.208 13.44 0.0952 0.0476"/>
   <path d="m35.303 13.488 0.1905 0.0476"/>
   <path d="m35.493 13.535h0.1428"/>
   <path d="m35.636 13.535 0.1905-0.0476"/>
   <path d="m35.827 13.488 0.0953-0.0476"/>
   <path d="m35.922 13.44 0.0952-0.0952"/>
   <path d="m36.017 13.345 0.0476-0.1429"/>
   <path d="m36.065 13.202v-0.2381"/>
   <path d="m35.16 13.916-0.0477 0.0476"/>
   <path d="m35.112 13.964-0.0476 0.0952"/>
   <path d="m35.065 14.059v0.2381"/>
   <path d="m35.065 14.297 0.0476 0.0953"/>
   <path d="m35.112 14.392 0.0477 0.0476"/>
   <path d="m35.16 14.44 0.0952 0.0476"/>
   <path d="m35.255 14.488h0.0952"/>
   <path d="m35.35 14.488 0.1429-0.0476"/>
   <path d="m35.493 14.44 0.5714-0.5714"/>
   <path d="m36.065 13.869v0.619"/>
  </g>
  <g transform="rotate(-90 35.61 32.752)">
   <text transform="scale(-1 1) translate(-71.22)" x="35.6100" y="33.2520" font-size="1.3333" opacity="0" stroke-opacity="0" text-anchor="middle" lengthAdjust="spacingAndGlyphs" textLength="2.2024">D5</text>
  </g>
  <g class="stroked-text">
   <desc>D5</desc>
   <path d="m36.065 32.014h-1"/>
   <path d="m35.065 32.014v0.2381"/>
   <path d="m35.065 32.252 0.0476 0.1429"/>
   <path d="m35.112 32.395 0.0953 0.0952"/>
   <path d="m35.208 32.49 0.0952 0.0476"/>
   <path d="m35.303 32.538 0.1905 0.0476"/>
   <path d="m35.493 32.585h0.1428"/>
   <path d="m35.636 32.585 0.1905-0.0476"/>
   <path d="m35.827 32.538 0.0953-0.0476"/>
   <path d="m35.922 32.49 0.0952-0.0952"/>
   <path d="m36.017 32.395 0.0476-0.1429"/>
   <path d="m36.065 32.252v-0.2381"/>
   <path d="m35.065 33.49v-0.4762"/>
   <path d="m35.065 33.014 0.4762-0.0476"/>
   <path d="m35.541 32.966-0.0476 0.0476"/>
   <path d="m35.493 33.014-0.0476 0.0952"/>
   <path d="m35.446 33.109v0.2381"/>
   <path d="m35.446 33.347 0.0476 0.0953"/>
   <path d="m35.493 33.442 0.0476 0.0476"/>
   <path d="m35.541 33.49 0.0952 0.0476"/>
   <path d="m35.636 33.538h0.2381"/>
   <path d="m35.874 33.538 0.0953-0.0476"/>
   <path d="m35.97 33.49 0.0476-0.0476"/>
   <path d="m36.017 33.442 0.0476-0.0953"/>
   <path d="m36.065 33.347v-0.2381"/>
   <path d="m36.065 33.109-0.0476-0.0952"/>
   <path d="m36.017 33.014-0.0476-0.0476"/>
  </g>
  <g transform="rotate(-90 16.56 32.752)">
   <text transform="scale(-1 1) translate(-33.12)" x="16.5600" y="33.2520" font-size="1.3333" opacity="0" stroke-opacity="0" text-anchor="middle" lengthAdjust="spacingAndGlyphs" textLength="2.2024">D4</text>
  </g>
  <g class="stroked-text">
   <desc>D4</desc>
   <path d="m17.015 32.014h-1"/>
   <path d="m16.015 32.014v0.2381"/>
   <path d="m16.015 32.252 0.0476 0.1429"/>
   <path d="m16.062 32.395 0.0953 0.0952"/>
   <path d="m16.158 32.49 0.0952 0.0476"/>
   <path d="m16.253 32.538 0.1905 0.0476"/>
   <path d="m16.443 32.585h0.1428"/>
   <path d="m16.586 32.585 0.1905-0.0476"/>
   <path d="m16.777 32.538 0.0953-0.0476"/>
   <path d="m16.872 32.49 0.0952-0.0952"/>
   <path d="m16.967 32.395 0.0476-0.1429"/>
   <path d="m17.015 32.252v-0.2381"/>
   <path d="m16.348 33.442h0.6666"/>
   <path d="m15.967 33.204 0.7143-0.2381"/>
   <path d="m16.682 32.966v0.619"/>
  </g>
  <g transform="rotate(-90 16.56 51.802)">
   <text transform="scale(-1 1) translate(-33.12)" x="16.5600" y="52.3020" font-size="1.3333" opacity="0" stroke-opacity="0" text-anchor="middle" lengthAdjust="spacingAndGlyphs" textLength="2.2024">D7</text>
  </g>
  <g class="stroked-text">
   <desc>D7</desc>
   <path d="m17.015 51.064h-1"/>
   <path d="m16.015 51.064v0.2381"/>
   <path d="m16.015 51.302 0.0476 0.1429"/>
   <path d="m16.062 51.445 0.0953 0.0952"/>
   <path d="m16.158 51.54 0.0952 0.0476"/>
   <path d="m16.253 51.588 0.1905 0.0476"/>
   <path d="m16.443 51.635h0.1428"/>
   <path d="m16.586 51.635 0.1905-0.0476"/>
   <path d="m16.777 51.588 0.0953-0.0476"/>
   <path d="m16.872 51.54 0.0952-0.0952"/>
   <path d="m16.967 51.445 0.0476-0.1429"/>
   <path d="m17.015 51.302v-0.2381"/>
   <path d="m16.015 51.969v0.6666"/>
   <path d="m16.015 52.635 1-0.4285"/>
  </g>
  <g transform="rotate(-90 54.66 32.752)">
   <text transform="scale(-1 1) translate(-109.32)" x="54.6600" y="33.2520" font-size="1.3333" opacity="0" stroke-opacity="0" text-anchor="middle" lengthAdjust="spacingAndGlyphs" textLength="2.2024">D6</text>
  </g>
  <g class="stroked-text">
   <desc>D6</desc>
   <path d="m55.115 32.014h-1"/>
   <path d="m54.115 32.014v0.2381"/>
   <path d="m54.115 32.252 0.0476 0.1429"/>
   <path d="m54.162 32.395 0.0953 0.0952"/>
   <path d="m54.258 32.49 0.0952 0.0476"/>
   <path d="m54.353 32.538 0.1905 0.0476"/>
   <path d="m54.543 32.585h0.1428"/>
   <path d="m54.686 32.585 0.1905-0.0476"/>
   <path d="m54.877 32.538 0.0953-0.0476"/>
   <path d="m54.972 32.49 0.0952-0.0952"/>
   <path d="m55.067 32.395 0.0476-0.1429"/>
   <path d="m55.115 32.252v-0.2381"/>
   <path d="m54.115 33.442v-0.1905"/>
   <path d="m54.115 33.252 0.0476-0.0952"/>
   <path d="m54.162 33.157 0.0477-0.0477"/>
   <path d="m54.21 33.109 0.1428-0.0952"/>
   <path d="m54.353 33.014 0.1905-0.0476"/>
   <path d="m54.543 32.966h0.3809"/>
   <path d="m54.924 32.966 0.0953 0.0476"/>
   <path d="m55.02 33.014 0.0476 0.0476"/>
   <path d="m55.067 33.062 0.0476 0.0953"/>
   <path d="m55.115 33.157v0.1904"/>
   <path d="m55.115 33.347-0.0476 0.0953"/>
   <path d="m55.067 33.442-0.0476 0.0476"/>
   <path d="m55.02 33.49-0.0953 0.0476"/>
   <path d="m54.924 33.538h-0.2381"/>
   <path d="m54.686 33.538-0.0952-0.0476"/>
   <path d="m54.591 33.49-0.0476-0.0476"/>
   <path d="m54.543 33.442-0.0476-0.0953"/>
   <path d="m54.496 33.347v-0.1904"/>
   <path d="m54.496 33.157 0.0476-0.0953"/>
   <path d="m54.543 33.062 0.0476-0.0476"/>
   <path d="m54.591 33.014 0.0952-0.0476"/>
  </g>
  <g transform="rotate(-90 16.56 13.702)">
   <text transform="scale(-1 1) translate(-33.12)" x="16.5600" y="14.2020" font-size="1.3333" opacity="0" stroke-opacity="0" text-anchor="middle" lengthAdjust="spacingAndGlyphs" textLength="2.2024">D1</text>
  </g>
  <g class="stroked-text">
   <desc>D1</desc>
   <path d="m17.015 12.964h-1"/>
   <path d="m16.015 12.964v0.2381"/>
   <path d="m16.015 13.202 0.0476 0.1429"/>
   <path d="m16.062 13.345 0.0953 0.0952"/>
   <path d="m16.158 13.44 0.0952 0.0476"/>
   <path d="m16.253 13.488 0.1905 0.0476"/>
   <path d="m16.443 13.535h0.1428"/>
   <path d="m16.586 13.535 0.1905-0.0476"/>
   <path d="m16.777 13.488 0.0953-0.0476"/>
   <path d="m16.872 13.44 0.0952-0.0952"/>
   <path d="m16.967 13.345 0.0476-0.1429"/>
   <path d="m17.015 13.202v-0.2381"/>
   <path d="m17.015 14.488v-0.5714"/>
   <path d="m17.015 14.202h-1"/>
   <path d="m16.015 14.202 0.1429-0.0952"/>
   <path d="m16.158 14.107 0.0952-0.0953"/>
   <path d="m16.253 14.012 0.0476-0.0952"/>
  </g>
  <g transform="rotate(-90 35.61 51.802)">
   <text transform="scale(-1 1) translate(-71.22)" x="35.6100" y="52.3020" font-size="1.3333" opacity="0" stroke-opacity="0" text-anchor="middle" lengthAdjust="spacingAndGlyphs" textLength="2.2024">D8</text>
  </g>
  <g class="stroked-text">
   <desc>D8</desc>
   <path d="m36.065 51.064h-1"/>
   <path d="m35.065 51.064v0.2381"/>
   <path d="m35.065 51.302 0.0476 0.1429"/>
   <path d="m35.112 51.445 0.0953 0.0952"/>
   <path d="m35.208 51.54 0.0952 0.0476"/>
   <path d="m35.303 51.588 0.1905 0.0476"/>
   <path d="m35.493 51.635h0.1428"/>
   <path d="m35.636 51.635 0.1905-0.0476"/>
   <path d="m35.827 51.588 0.0953-0.0476"/>
   <path d="m35.922 51.54 0.0952-0.0952"/>
   <path d="m36.017 51.445 0.0476-0.1429"/>
   <path d="m36.065 51.302v-0.2381"/>
   <path d="m35.493 52.207-0.0476-0.0953"/>
   <path d="m35.446 52.112-0.0476-0.0476"/>
   <path d="m35.398 52.064-0.0953-0.0476"/>
   <path d="m35.303 52.016h-0.0476"/>
   <path d="m35.255 52.016-0.0952 0.0476"/>
   <path d="m35.16 52.064-0.0477 0.0476"/>
   <path d="m35.112 52.112-0.0476 0.0953"/>
   <path d="m35.065 52.207v0.1904"/>
   <path d="m35.065 52.397 0.0476 0.0953"/>
   <path d="m35.112 52.492 0.0477 0.0476"/>
   <path d="m35.16 52.54 0.0952 0.0476"/>
   <path d="m35.255 52.588h0.0476"/>
   <path d="m35.303 52.588 0.0953-0.0476"/>
   <path d="m35.398 52.54 0.0476-0.0476"/>
   <path d="m35.446 52.492 0.0476-0.0953"/>
   <path d="m35.493 52.397v-0.1904"/>
   <path d="m35.493 52.207 0.0476-0.0953"/>
   <path d="m35.541 52.112 0.0476-0.0476"/>
   <path d="m35.589 52.064 0.0953-0.0476"/>
   <path d="m35.684 52.016h0.1904"/>
   <path d="m35.874 52.016 0.0953 0.0476"/>
   <path d="m35.97 52.064 0.0476 0.0476"/>
   <path d="m36.017 52.112 0.0476 0.0953"/>
   <path d="m36.065 52.207v0.1904"/>
   <path d="m36.065 52.397-0.0476 0.0953"/>
   <path d="m36.017 52.492-0.0476 0.0476"/>
   <path d="m35.97 52.54-0.0953 0.0476"/>
   <path d="m35.874 52.588h-0.1904"/>
   <path d="m35.684 52.588-0.0953-0.0476"/>
   <path d="m35.589 52.54-0.0476-0.0476"/>
   <path d="m35.541 52.492-0.0476-0.0953"/>
  </g>
  <g transform="rotate(-90 54.66 13.702)">
   <text transform="scale(-1 1) translate(-109.32)" x="54.6600" y="14.2020" font-size="1.3333" opacity="0" stroke-opacity="0" text-anchor="middle" lengthAdjust="spacingAndGlyphs" textLength="2.2024">D3</text>
  </g>
  <g class="stroked-text">
   <desc>D3</desc>
   <path d="m55.115 12.964h-1"/>
   <path d="m54.115 12.964v0.2381"/>
   <path d="m54.115 13.202 0.0476 0.1429"/>
   <path d="m54.162 13.345 0.0953 0.0952"/>
   <path d="m54.258 13.44 0.0952 0.0476"/>
   <path d="m54.353 13.488 0.1905 0.0476"/>
   <path d="m54.543 13.535h0.1428"/>
   <path d="m54.686 13.535 0.1905-0.0476"/>
   <path d="m54.877 13.488 0.0953-0.0476"/>
   <path d="m54.972 13.44 0.0952-0.0952"/>
   <path d="m55.067 13.345 0.0476-0.1429"/>
   <path d="m55.115 13.202v-0.2381"/>
   <path d="m54.115 13.869v0.619"/>
   <path d="m54.115 14.488 0.381-0.3333"/>
   <path d="m54.496 14.154v0.1428"/>
   <path d="m54.496 14.297 0.0476 0.0953"/>
   <path d="m54.543 14.392 0.0476 0.0476"/>
   <path d="m54.591 14.44 0.0952 0.0476"/>
   <path d="m54.686 14.488h0.2381"/>
   <path d="m54.924 14.488 0.0953-0.0476"/>
   <path d="m55.02 14.44 0.0476-0.0476"/>
   <path d="m55.067 14.392 0.0476-0.0953"/>
   <path d="m55.115 14.297v-0.2857"/>
   <path d="m55.115 14.012-0.0476-0.0952"/>
   <path d="m55.067 13.916-0.0476-0.0476"/>
  </g>
 </g>
 <g fill="none" stroke="#BD93F9" stroke-linecap="round" stroke-linejoin="round" stroke-width=".12">
  <path d="m51.755 50.025v3.86"/>
  <path d="m51.755 53.885h2"/>
  <path d="m53.755 50.025v3.86"/>
  <path d="m42.23 69.075v3.86"/>
  <path d="m42.23 72.935h2"/>
  <path d="m44.23 69.075v3.86"/>
  <path d="m32.705 11.925v3.86"/>
  <path d="m32.705 15.785h2"/>
  <path d="m34.705 11.925v3.86"/>
  <path d="m32.705 30.975v3.86"/>
  <path d="m32.705 34.835h2"/>
  <path d="m34.705 30.975v3.86"/>
  <path d="m13.655 30.975v3.86"/>
  <path d="m13.655 34.835h2"/>
  <path d="m15.655 30.975v3.86"/>
  <path d="m13.655 50.025v3.86"/>
  <path d="m13.655 53.885h2"/>
  <path d="m15.655 50.025v3.86"/>
  <path d="m51.755 30.975v3.86"/>
  <path d="m51.755 34.835h2"/>
  <path d="m53.755 30.975v3.86"/>
  <path d="m13.655 11.925v3.86"/>
  <path d="m13.655 15.785h2"/>
  <path d="m15.655 11.925v3.86"/>
  <path d="m32.705 50.025v3.86"/>
  <path d="m32.705 53.885h2"/>
  <path d="m34.705 50.025v3.86"/>
  <path d="m51.755 11.925v3.86"/>
  <path d="m51.755 15.785h2"/>
  <path d="m53.755 11.925v3.86"/>
 </g>
 <g>
  <g fill="#BD93F9">
   <circle cx="23.545" cy="28.625" r=".875"/>
   <circle cx="28.625" cy="28.625" r="2"/>
   <circle cx="33.705" cy="28.625" r=".875"/>
   <circle cx="24.815" cy="26.085" r=".75"/>
   <circle cx="31.165" cy="23.545" r=".75"/>
   <circle cx="33.07" cy="66.725" r=".875"/>
   <circle cx="38.15" cy="66.725" r="2"/>
   <circle cx="43.23" cy="66.725" r=".875"/>
   <circle cx="34.34" cy="64.185" r=".75"/>
   <circle cx="40.69" cy="61.645" r=".75"/>
   <circle cx="42.595" cy="9.575" r=".875"/>
   <circle cx="47.675" cy="9.575" r="2"/>
   <circle cx="52.755" cy="9.575" r=".875"/>
   <circle cx="43.865" cy="7.035" r=".75"/>
   <circle cx="50.215" cy="4.495" r=".75"/>
   <circle cx="23.545" cy="9.575" r=".875"/>
   <circle cx="28.625" cy="9.575" r="2"/>
   <circle cx="33.705" cy="9.575" r=".875"/>
   <circle cx="24.815" cy="7.035" r=".75"/>
   <circle cx="31.165" cy="4.495" r=".75"/>
   <circle cx="4.495" cy="47.675" r=".875"/>
   <circle cx="9.575" cy="47.675" r="2"/>
   <circle cx="14.655" cy="47.675" r=".875"/>
   <circle cx="5.765" cy="45.135" r=".75"/>
   <circle cx="12.115" cy="42.595" r=".75"/>
   <circle cx="42.595" cy="47.675" r=".875"/>
   <circle cx="47.675" cy="47.675" r="2"/>
   <circle cx="52.755" cy="47.675" r=".875"/>
   <circle cx="43.865" cy="45.135" r=".75"/>
   <circle cx="50.215" cy="42.595" r=".75"/>
   <circle cx="4.495" cy="28.625" r=".875"/>
   <circle cx="9.575" cy="28.625" r="2"/>
   <circle cx="14.655" cy="28.625" r=".875"/>
   <circle cx="5.765" cy="26.085" r=".75"/>
   <circle cx="12.115" cy="23.545" r=".75"/>
   <circle cx="23.545" cy="47.675" r=".875"/>
   <circle cx="28.625" cy="47.675" r="2"/>
   <circle cx="33.705" cy="47.675" r=".875"/>
   <circle cx="24.815" cy="45.135" r=".75"/>
   <circle cx="31.165" cy="42.595" r=".75"/>
   <circle cx="42.595" cy="28.625" r=".875"/>
   <circle cx="47.675" cy="28.625" r="2"/>
   <circle cx="52.755" cy="28.625" r=".875"/>
   <circle cx="43.865" cy="26.085" r=".75"/>
   <circle cx="50.215" cy="23.545" r=".75"/>
   <circle cx="4.495" cy="9.575" r=".875"/>
   <circle cx="9.575" cy="9.575" r="2"/>
   <circle cx="14.655" cy="9.575" r=".875"/>
   <circle cx="5.765" cy="7.035" r=".75"/>
   <circle cx="12.115" cy="4.495" r=".75"/>
  </g>
  <g>
   <circle cx="23.545" cy="28.625" r=".875"/>
   <circle cx="28.625" cy="28.625" r="2"/>
   <circle cx="33.705" cy="28.625" r=".875"/>
   <circle cx="24.815" cy="26.085" r=".75"/>
   <circle cx="31.165" cy="23.545" r=".75"/>
   <circle cx="33.07" cy="66.725" r=".875"/>
   <circle cx="38.15" cy="66.725" r="2"/>
   <circle cx="43.23" cy="66.725" r=".875"/>
   <circle cx="34.34" cy="64.185" r=".75"/>
   <circle cx="40.69" cy="61.645" r=".75"/>
   <circle cx="42.595" cy="9.575" r=".875"/>
   <circle cx="47.675" cy="9.575" r="2"/>
   <circle cx="52.755" cy="9.575" r=".875"/>
   <circle cx="43.865" cy="7.035" r=".75"/>
   <circle cx="50.215" cy="4.495" r=".75"/>
   <circle cx="23.545" cy="9.575" r=".875"/>
   <circle cx="28.625" cy="9.575" r="2"/>
   <circle cx="33.705" cy="9.575" r=".875"/>
   <circle cx="24.815" cy="7.035" r=".75"/>
   <circle cx="31.165" cy="4.495" r=".75"/>
   <circle cx="4.495" cy="47.675" r=".875"/>
   <circle cx="9.575" cy="47.675" r="2"/>
   <circle cx="14.655" cy="47.675" r=".875"/>
   <circle cx="5.765" cy="45.135" r=".75"/>
   <circle cx="12.115" cy="42.595" r=".75"/>
   <circle cx="42.595" cy="47.675" r=".875"/>
   <circle cx="47.675" cy="47.675" r="2"/>
   <circle cx="52.755" cy="47.675" r=".875"/>
   <circle cx="43.865" cy="45.135" r=".75"/>
   <circle cx="50.215" cy="42.595" r=".75"/>
   <circle cx="4.495" cy="28.625" r=".875"/>
   <circle cx="9.575" cy="28.625" r="2"/>
   <circle cx="14.655" cy="28.625" r=".875"/>
   <circle cx="5.765" cy="26.085" r=".75"/>
   <circle cx="12.115" cy="23.545" r=".75"/>
   <circle cx="23.545" cy="47.675" r=".875"/>
   <circle cx="28.625" cy="47.675" r="2"/>
   <circle cx="33.705" cy="47.675" r=".875"/>
   <circle cx="24.815" cy="45.135" r=".75"/>
   <circle cx="31.165" cy="42.595" r=".75"/>
   <circle cx="42.595" cy="28.625" r=".875"/>
   <circle cx="47.675" cy="28.625" r="2"/>
   <circle cx="52.755" cy="28.625" r=".875"/>
   <circle cx="43.865" cy="26.085" r=".75"/>
   <circle cx="50.215" cy="23.545" r=".75"/>
   <circle cx="4.495" cy="9.575" r=".875"/>
   <circle cx="9.575" cy="9.575" r="2"/>
   <circle cx="14.655" cy="9.575" r=".875"/>
   <circle cx="5.765" cy="7.035" r=".75"/>
   <circle cx="12.115" cy="4.495" r=".75"/>
  </g>
  <g fill="#f55">
   <circle cx="24.815" cy="26.085" r="1.25"/>
   <circle cx="31.165" cy="23.545" r="1.25"/>
   <circle cx="34.34" cy="64.185" r="1.25"/>
   <circle cx="40.69" cy="61.645" r="1.25"/>
   <circle cx="43.865" cy="7.035" r="1.25"/>
   <circle cx="50.215" cy="4.495" r="1.25"/>
   <circle cx="24.815" cy="7.035" r="1.25"/>
   <circle cx="31.165" cy="4.495" r="1.25"/>
   <circle cx="5.765" cy="45.135" r="1.25"/>
   <circle cx="12.115" cy="42.595" r="1.25"/>
   <circle cx="43.865" cy="45.135" r="1.25"/>
   <circle cx="50.215" cy="42.595" r="1.25"/>
   <circle cx="5.765" cy="26.085" r="1.25"/>
   <circle cx="12.115" cy="23.545" r="1.25"/>
   <circle cx="24.815" cy="45.135" r="1.25"/>
   <circle cx="31.165" cy="42.595" r="1.25"/>
   <circle cx="43.865" cy="26.085" r="1.25"/>
   <circle cx="50.215" cy="23.545" r="1.25"/>
   <circle cx="5.765" cy="7.035" r="1.25"/>
   <circle cx="12.115" cy="4.495" r="1.25"/>
  </g>
 </g>
 <g fill="none" stroke="#f55" stroke-linecap="round" stroke-linejoin="round" stroke-width=".2">
  <path d="m5.765 26.085v19.05"/>
  <path d="m5.765 7.035v19.05"/>
  <path d="m24.815 26.085v19.05"/>
  <path d="m24.815 7.035v19.05"/>
  <path d="m43.865 54.66v-9.525"/>
  <path d="m43.865 26.085v-19.05"/>
  <path d="m43.865 45.135v-19.05"/>
  <path d="m34.34 64.185 9.525-9.525"/>
 </g>
 <g fill="#fff">
  <circle cx="23.545" cy="28.625" r=".875"/>
  <circle cx="28.625" cy="28.625" r="2"/>
  <circle cx="33.705" cy="28.625" r=".875"/>
  <circle cx="24.815" cy="26.085" r=".75"/>
  <circle cx="31.165" cy="23.545" r=".75"/>
  <circle cx="33.07" cy="66.725" r=".875"/>
  <circle cx="38.15" cy="66.725" r="2"/>
  <circle cx="43.23" cy="66.725" r=".875"/>
  <circle cx="34.34" cy="64.185" r=".75"/>
  <circle cx="40.69" cy="61.645" r=".75"/>
  <circle cx="42.595" cy="9.575" r=".875"/>
  <circle cx="47.675" cy="9.575" r="2"/>
  <circle cx="52.755" cy="9.575" r=".875"/>
  <circle cx="43.865" cy="7.035" r=".75"/>
  <circle cx="50.215" cy="4.495" r=".75"/>
  <circle cx="23.545" cy="9.575" r=".875"/>
  <circle cx="28.625" cy="9.575" r="2"/>
  <circle cx="33.705" cy="9.575" r=".875"/>
  <circle cx="24.815" cy="7.035" r=".75"/>
  <circle cx="31.165" cy="4.495" r=".75"/>
  <circle cx="4.495" cy="47.675" r=".875"/>
  <circle cx="9.575" cy="47.675" r="2"/>
  <circle cx="14.655" cy="47.675" r=".875"/>
  <circle cx="5.765" cy="45.135" r=".75"/>
  <circle cx="12.115" cy="42.595" r=".75"/>
  <circle cx="42.595" cy="47.675" r=".875"/>
  <circle cx="47.675" cy="47.675" r="2"/>
  <circle cx="52.755" cy="47.675" r=".875"/>
  <circle cx="43.865" cy="45.135" r=".75"/>
  <circle cx="50.215" cy="42.595" r=".75"/>
  <circle cx="4.495" cy="28.625" r=".875"/>
  <circle cx="9.575" cy="28.625" r="2"/>
  <circle cx="14.655" cy="28.625" r=".875"/>
  <circle cx="5.765" cy="26.085" r=".75"/>
  <circle cx="12.115" cy="23.545" r=".75"/>
  <circle cx="23.545" cy="47.675" r=".875"/>
  <circle cx="28.625" cy="47.675" r="2"/>
  <circle cx="33.705" cy="47.675" r=".875"/>
  <circle cx="24.815" cy="45.135" r=".75"/>
  <circle cx="31.165" cy="42.595" r=".75"/>
  <circle cx="42.595" cy="28.625" r=".875"/>
  <circle cx="47.675" cy="28.625" r="2"/>
  <circle cx="52.755" cy="28.625" r=".875"/>
  <circle cx="43.865" cy="26.085" r=".75"/>
  <circle cx="50.215" cy="23.545" r=".75"/>
  <circle cx="4.495" cy="9.575" r=".875"/>
  <circle cx="9.575" cy="9.575" r="2"/>
  <circle cx="14.655" cy="9.575" r=".875"/>
  <circle cx="5.765" cy="7.035" r=".75"/>
  <circle cx="12.115" cy="4.495" r=".75"/>
 </g>
 <g fill="#50FA7B">
  <circle cx="24.815" cy="26.085" r="1.25"/>
  <circle cx="31.165" cy="23.545" r="1.25"/>
  <circle cx="34.34" cy="64.185" r="1.25"/>
  <circle cx="40.69" cy="61.645" r="1.25"/>
  <circle cx="43.865" cy="7.035" r="1.25"/>
  <circle cx="50.215" cy="4.495" r="1.25"/>
  <circle cx="24.815" cy="7.035" r="1.25"/>
  <circle cx="31.165" cy="4.495" r="1.25"/>
  <circle cx="5.765" cy="45.135" r="1.25"/>
  <circle cx="12.115" cy="42.595" r="1.25"/>
  <circle cx="43.865" cy="45.135" r="1.25"/>
  <circle cx="50.215" cy="42.595" r="1.25"/>
  <circle cx="5.765" cy="26.085" r="1.25"/>
  <circle cx="12.115" cy="23.545" r="1.25"/>
  <circle cx="24.815" cy="45.135" r="1.25"/>
  <circle cx="31.165" cy="42.595" r="1.25"/>
  <circle cx="43.865" cy="26.085" r="1.25"/>
  <circle cx="50.215" cy="23.545" r="1.25"/>
  <circle cx="5.765" cy="7.035" r="1.25"/>
  <circle cx="12.115" cy="4.495" r="1.25"/>
  <g fill="#50FA7B" fill-rule="evenodd">
   <path d="m52.455 53.625-0.0957-0.019-0.0811-0.0542-0.0542-0.0811-0.019-0.0957v-0.6l0.019-0.0957 0.0542-0.0811 0.0811-0.0542 0.0957-0.019h0.6l0.0957 0.019 0.0811 0.0542 0.0542 0.0811 0.019 0.0957v0.6l-0.019 0.0957-0.0542 0.0811-0.0811 0.0542-0.0957 0.019z"/>
   <path d="m52.455 50.825-0.0957-0.019-0.0811-0.0542-0.0542-0.0811-0.019-0.0957v-0.6l0.019-0.0957 0.0542-0.0811 0.0811-0.0542 0.0957-0.019h0.6l0.0957 0.019 0.0811 0.0542 0.0542 0.0811 0.019 0.0957v0.6l-0.019 0.0957-0.0542 0.0811-0.0811 0.0542-0.0957 0.019z"/>
   <path d="m42.93 72.675-0.0957-0.019-0.0811-0.0542-0.0542-0.0811-0.019-0.0957v-0.6l0.019-0.0957 0.0542-0.0811 0.0811-0.0542 0.0957-0.019h0.6l0.0957 0.019 0.0811 0.0542 0.0542 0.0811 0.019 0.0957v0.6l-0.019 0.0957-0.0542 0.0811-0.0811 0.0542-0.0957 0.019z"/>
   <path d="m42.93 69.875-0.0957-0.019-0.0811-0.0542-0.0542-0.0811-0.019-0.0957v-0.6l0.019-0.0957 0.0542-0.0811 0.0811-0.0542 0.0957-0.019h0.6l0.0957 0.019 0.0811 0.0542 0.0542 0.0811 0.019 0.0957v0.6l-0.019 0.0957-0.0542 0.0811-0.0811 0.0542-0.0957 0.019z"/>
   <path d="m33.405 15.525-0.0957-0.019-0.0811-0.0542-0.0542-0.0811-0.019-0.0957v-0.6l0.019-0.0957 0.0542-0.0811 0.0811-0.0542 0.0957-0.019h0.6l0.0957 0.019 0.0811 0.0542 0.0542 0.0811 0.019 0.0957v0.6l-0.019 0.0957-0.0542 0.0811-0.0811 0.0542-0.0957 0.019z"/>
   <path d="m33.405 12.725-0.0957-0.019-0.0811-0.0542-0.0542-0.0811-0.019-0.0957v-0.6l0.019-0.0957 0.0542-0.0811 0.0811-0.0542 0.0957-0.019h0.6l0.0957 0.019 0.0811 0.0542 0.0542 0.0811 0.019 0.0957v0.6l-0.019 0.0957-0.0542 0.0811-0.0811 0.0542-0.0957 0.019z"/>
   <path d="m33.405 34.575-0.0957-0.019-0.0811-0.0542-0.0542-0.0811-0.019-0.0957v-0.6l0.019-0.0957 0.0542-0.0811 0.0811-0.0542 0.0957-0.019h0.6l0.0957 0.019 0.0811 0.0542 0.0542 0.0811 0.019 0.0957v0.6l-0.019 0.0957-0.0542 0.0811-0.0811 0.0542-0.0957 0.019z"/>
   <path d="m33.405 31.775-0.0957-0.019-0.0811-0.0542-0.0542-0.0811-0.019-0.0957v-0.6l0.019-0.0957 0.0542-0.0811 0.0811-0.0542 0.0957-0.019h0.6l0.0957 0.019 0.0811 0.0542 0.0542 0.0811 0.019 0.0957v0.6l-0.019 0.0957-0.0542 0.0811-0.0811 0.0542-0.0957 0.019z"/>
   <path d="m14.355 34.575-0.0957-0.019-0.0811-0.0542-0.0542-0.0811-0.019-0.0957v-0.6l0.019-0.0957 0.0542-0.0811 0.0811-0.0542 0.0957-0.019h0.6l0.0957 0.019 0.0811 0.0542 0.0542 0.0811 0.019 0.0957v0.6l-0.019 0.0957-0.0542 0.0811-0.0811 0.0542-0.0957 0.019z"/>
   <path d="m14.355 31.775-0.0957-0.019-0.0811-0.0542-0.0542-0.0811-0.019-0.0957v-0.6l0.019-0.0957 0.0542-0.0811 0.0811-0.0542 0.0957-0.019h0.6l0.0957 0.019 0.0811 0.0542 0.0542 0.0811 0.019 0.0957v0.6l-0.019 0.0957-0.0542 0.0811-0.0811 0.0542-0.0957 0.019z"/>
   <path d="m14.355 53.625-0.0957-0.019-0.0811-0.0542-0.0542-0.0811-0.019-0.0957v-0.6l0.019-0.0957 0.0542-0.0811 0.0811-0.0542 0.0957-0.019h0.6l0.0957 0.019 0.0811 0.0542 0.0542 0.0811 0.019 0.0957v0.6l-0.019 0.0957-0.0542 0.0811-0.0811 0.0542-0.0957 0.019z"/>
   <path d="m14.355 50.825-0.0957-0.019-0.0811-0.0542-0.0542-0.0811-0.019-0.0957v-0.6l0.019-0.0957 0.0542-0.0811 0.0811-0.0542 0.0957-0.019h0.6l0.0957 0.019 0.0811 0.0542 0.0542 0.0811 0.019 0.0957v0.6l-0.019 0.0957-0.0542 0.0811-0.0811 0.0542-0.0957 0.019z"/>
   <path d="m52.455 34.575-0.0957-0.019-0.0811-0.0542-0.0542-0.0811-0.019-0.0957v-0.6l0.019-0.0957 0.0542-0.0811 0.0811-0.0542 0.0957-0.019h0.6l0.0957 0.019 0.0811 0.0542 0.0542 0.0811 0.019 0.0957v0.6l-0.019 0.0957-0.0542 0.0811-0.0811 0.0542-0.0957 0.019z"/>
   <path d="m52.455 31.775-0.0957-0.019-0.0811-0.0542-0.0542-0.0811-0.019-0.0957v-0.6l0.019-0.0957 0.0542-0.0811 0.0811-0.0542 0.0957-0.019h0.6l0.0957 0.019 0.0811 0.0542 0.0542 0.0811 0.019 0.0957v0.6l-0.019 0.0957-0.0542 0.0811-0.0811 0.0542-0.0957 0.019z"/>
   <path d="m14.355 15.525-0.0957-0.019-0.0811-0.0542-0.0542-0.0811-0.019-0.0957v-0.6l0.019-0.0957 0.0542-0.0811 0.0811-0.0542 0.0957-0.019h0.6l0.0957 0.019 0.0811 0.0542 0.0542 0.0811 0.019 0.0957v0.6l-0.019 0.0957-0.0542 0.0811-0.0811 0.0542-0.0957 0.019z"/>
   <path d="m14.355 12.725-0.0957-0.019-0.0811-0.0542-0.0542-0.0811-0.019-0.0957v-0.6l0.019-0.0957 0.0542-0.0811 0.0811-0.0542 0.0957-0.019h0.6l0.0957 0.019 0.0811 0.0542 0.0542 0.0811 0.019 0.0957v0.6l-0.019 0.0957-0.0542 0.0811-0.0811 0.0542-0.0957 0.019z"/>
   <path d="m33.405 53.625-0.0957-0.019-0.0811-0.0542-0.0542-0.0811-0.019-0.0957v-0.6l0.019-0.0957 0.0542-0.0811 0.0811-0.0542 0.0957-0.019h0.6l0.0957 0.019 0.0811 0.0542 0.0542 0.0811 0.019 0.0957v0.6l-0.019 0.0957-0.0542 0.0811-0.0811 0.0542-0.0957 0.019z"/>
   <path d="m33.405 50.825-0.0957-0.019-0.0811-0.0542-0.0542-0.0811-0.019-0.0957v-0.6l0.019-0.0957 0.0542-0.0811 0.0811-0.0542 0.0957-0.019h0.6l0.0957 0.019 0.0811 0.0542 0.0542 0.0811 0.019 0.0957v0.6l-0.019 0.0957-0.0542 0.0811-0.0811 0.0542-0.0957 0.019z"/>
   <path d="m52.455 15.525-0.0957-0.019-0.0811-0.0542-0.0542-0.0811-0.019-0.0957v-0.6l0.019-0.0957 0.0542-0.0811 0.0811-0.0542 0.0957-0.019h0.6l0.0957 0.019 0.0811 0.0542 0.0542 0.0811 0.019 0.0957v0.6l-0.019 0.0957-0.0542 0.0811-0.0811 0.0542-0.0957 0.019z"/>
   <path d="m52.455 12.725-0.0957-0.019-0.0811-0.0542-0.0542-0.0811-0.019-0.0957v-0.6l0.019-0.0957 0.0542-0.0811 0.0811-0.0542 0.0957-0.019h0.6l0.0957 0.019 0.0811 0.0542 0.0542 0.0811 0.019 0.0957v0.6l-0.019 0.0957-0.0542 0.0811-0.0811 0.0542-0.0957 0.019z"/>
  </g>
 </g>
 <g fill="none" stroke="#50FA7B" stroke-linecap="round" stroke-linejoin="round" stroke-width=".2">
  <path d="m12.115 9.635 2.54 2.54"/>
  <path d="m12.115 4.495v5.14"/>
  <path d="m31.165 4.495v5.14"/>
  <path d="m31.165 9.635 2.54 2.54"/>
  <path d="m50.215 9.635 2.54 2.54"/>
  <path d="m50.215 4.495v5.14"/>
  <path d="m12.115 23.545v5.14"/>
  <path d="m12.115 28.685 2.54 2.54"/>
  <path d="m31.165 28.685 2.54 2.54"/>
  <path d="m31.165 23.545v5.14"/>
  <path d="m50.215 23.545v5.14"/>
  <path d="m50.215 28.685 2.54 2.54"/>
  <path d="m12.115 47.735 2.54 2.54"/>
  <path d="m12.115 42.595v5.14"/>
  <path d="m31.165 42.595v5.14"/>
  <path d="m31.165 47.735 2.54 2.54"/>
  <path d="m50.215 42.595v5.14"/>
  <path d="m50.215 47.735 2.54 2.54"/>
  <path d="m40.69 66.785 2.54 2.54"/>
  <path d="m40.69 61.645v5.14"/>
  <path d="m33.705 14.975h19.05"/>
  <path d="m14.655 14.975h19.05"/>
  <path d="m33.705 34.025h19.05"/>
  <path d="m14.655 34.025h19.05"/>
  <path d="m33.705 53.075h19.05"/>
  <path d="m14.655 53.075h19.05"/>
 </g>
 <g fill="#fff">
  <circle cx="23.545" cy="28.625" r=".875"/>
  <circle cx="28.625" cy="28.625" r="2"/>
  <circle cx="33.705" cy="28.625" r=".875"/>
  <circle cx="24.815" cy="26.085" r=".75"/>
  <circle cx="31.165" cy="23.545" r=".75"/>
  <circle cx="33.07" cy="66.725" r=".875"/>
  <circle cx="38.15" cy="66.725" r="2"/>
  <circle cx="43.23" cy="66.725" r=".875"/>
  <circle cx="34.34" cy="64.185" r=".75"/>
  <circle cx="40.69" cy="61.645" r=".75"/>
  <circle cx="42.595" cy="9.575" r=".875"/>
  <circle cx="47.675" cy="9.575" r="2"/>
  <circle cx="52.755" cy="9.575" r=".875"/>
  <circle cx="43.865" cy="7.035" r=".75"/>
  <circle cx="50.215" cy="4.495" r=".75"/>
  <circle cx="23.545" cy="9.575" r=".875"/>
  <circle cx="28.625" cy="9.575" r="2"/>
  <circle cx="33.705" cy="9.575" r=".875"/>
  <circle cx="24.815" cy="7.035" r=".75"/>
  <circle cx="31.165" cy="4.495" r=".75"/>
  <circle cx="4.495" cy="47.675" r=".875"/>
  <circle cx="9.575" cy="47.675" r="2"/>
  <circle cx="14.655" cy="47.675" r=".875"/>
  <circle cx="5.765" cy="45.135" r=".75"/>
  <circle cx="12.115" cy="42.595" r=".75"/>
  <circle cx="42.595" cy="47.675" r=".875"/>
  <circle cx="47.675" cy="47.675" r="2"/>
  <circle cx="52.755" cy="47.675" r=".875"/>
  <circle cx="43.865" cy="45.135" r=".75"/>
  <circle cx="50.215" cy="42.595" r=".75"/>
  <circle cx="4.495" cy="28.625" r=".875"/>
  <circle cx="9.575" cy="28.625" r="2"/>
  <circle cx="14.655" cy="28.625" r=".875"/>
  <circle cx="5.765" cy="26.085" r=".75"/>
  <circle cx="12.115" cy="23.545" r=".75"/>
  <circle cx="23.545" cy="47.675" r=".875"/>
  <circle cx="28.625" cy="47.675" r="2"/>
  <circle cx="33.705" cy="47.675" r=".875"/>
  <circle cx="24.815" cy="45.135" r=".75"/>
  <circle cx="31.165" cy="42.595" r=".75"/>
  <circle cx="42.595" cy="28.625" r=".875"/>
  <circle cx="47.675" cy="28.625" r="2"/>
  <circle cx="52.755" cy="28.625" r=".875"/>
  <circle cx="43.865" cy="26.085" r=".75"/>
  <circle cx="50.215" cy="23.545" r=".75"/>
  <circle cx="4.495" cy="9.575" r=".875"/>
  <circle cx="9.575" cy="9.575" r="2"/>
  <circle cx="14.655" cy="9.575" r=".875"/>
  <circle cx="5.765" cy="7.035" r=".75"/>
  <circle cx="12.115" cy="4.495" r=".75"/>
 </g>
</svg>
